<?xml version="1.0" encoding="UTF-8" standalone="no"?>
<!DOCTYPE svg PUBLIC "-//W3C//DTD SVG 1.1//EN"
 "http://www.w3.org/Graphics/SVG/1.1/DTD/svg11.dtd">
<!-- Generated by graphviz version 2.43.0 (0)
 -->
<!-- Title: /home/runner/work/doxygen/antimicrox/src/eventhandlers/baseeventhandler.h Pages: 1 -->
<!--zoomable 284 -->
<svg id="main" version="1.1" xmlns="http://www.w3.org/2000/svg" xmlns:xlink="http://www.w3.org/1999/xlink" xml:space="preserve" onload="init(evt)">
<style type="text/css"><![CDATA[
.edge:hover path { stroke: red; }
.edge:hover polygon { stroke: red; fill: red; }
]]></style>
<script type="text/javascript"><![CDATA[
var edges = document.getElementsByTagName('g');
if (edges && edges.length) {
  for (var i=0;i<edges.length;i++) {
    if (edges[i].id.substr(0,4)=='edge') {
      edges[i].setAttribute('class','edge');
    }
  }
}
]]></script>
        <defs>
                <circle id="rim" cx="0" cy="0" r="7"/>
                <circle id="rim2" cx="0" cy="0" r="3.5"/>
                <g id="zoomPlus">
                        <use xlink:href="#rim" fill="#404040">
                                <set attributeName="fill" to="#808080" begin="zoomplus.mouseover" end="zoomplus.mouseout"/>
                        </use>
                        <path d="M-4,0h8M0,-4v8" fill="none" stroke="white" stroke-width="1.5" pointer-events="none"/>
                </g>
                <g id="zoomMin">
                        <use xlink:href="#rim" fill="#404040">
                                <set attributeName="fill" to="#808080" begin="zoomminus.mouseover" end="zoomminus.mouseout"/>
                        </use>
                        <path d="M-4,0h8" fill="none" stroke="white" stroke-width="1.5" pointer-events="none"/>
                </g>
                <g id="dirArrow">
                        <path fill="none" stroke="white" stroke-width="1.5" d="M0,-3.0v7 M-2.5,-0.5L0,-3.0L2.5,-0.5"/>
                </g>
               <g id="resetDef">
                       <use xlink:href="#rim2" fill="#404040">
                               <set attributeName="fill" to="#808080" begin="reset.mouseover" end="reset.mouseout"/>
                       </use>
               </g>
        </defs>

<script type="text/javascript">
var viewWidth = 1047;
var viewHeight = 284;
var sectionId = 'dynsection-1';
</script>
<script xlink:href="svgpan.js"/>
<svg id="graph" class="graph">
<g id="viewport">
<title>/home/runner/work/doxygen/antimicrox/src/eventhandlers/baseeventhandler.h</title>
<polygon fill="white" stroke="transparent" points="-4,4 -4,-280 1043,-280 1043,4 -4,4"/>
<!-- Node1 -->
<g id="node1" class="node">
<title>Node1</title>
<g id="a_node1"><a xlink:title=" ">
<polygon fill="#bfbfbf" stroke="black" points="498,-234.5 498,-275.5 660,-275.5 660,-234.5 498,-234.5"/>
<text text-anchor="start" x="506" y="-263.5" font-family="Helvetica,sans-Serif" font-size="10.00">/home/runner/work/doxygen</text>
<text text-anchor="start" x="506" y="-252.5" font-family="Helvetica,sans-Serif" font-size="10.00">/antimicrox/src/eventhandlers</text>
<text text-anchor="middle" x="579" y="-241.5" font-family="Helvetica,sans-Serif" font-size="10.00">/baseeventhandler.h</text>
</a>
</g>
</g>
<!-- Node2 -->
<g id="node2" class="node">
<title>Node2</title>
<g id="a_node2"><a xlink:href="eventhandlerfactory_8cpp.html" target="_top" xlink:title=" ">
<polygon fill="white" stroke="black" points="0,-162 0,-192 210,-192 210,-162 0,-162"/>
<text text-anchor="start" x="8" y="-180" font-family="Helvetica,sans-Serif" font-size="10.00">/home/runner/work/doxygen</text>
<text text-anchor="middle" x="105" y="-169" font-family="Helvetica,sans-Serif" font-size="10.00">/antimicrox/src/eventhandlerfactory.cpp</text>
</a>
</g>
</g>
<!-- Node1&#45;&gt;Node2 -->
<g id="edge1" class="edge">
<title>Node1&#45;&gt;Node2</title>
<path fill="none" stroke="midnightblue" d="M487.73,-240.3C414.91,-229.25 310.34,-213.11 219,-198 207.6,-196.11 195.57,-194.07 183.77,-192.02"/>
<polygon fill="midnightblue" stroke="midnightblue" points="487.38,-243.79 497.79,-241.83 488.43,-236.87 487.38,-243.79"/>
</g>
<!-- Node3 -->
<g id="node3" class="node">
<title>Node3</title>
<g id="a_node3"><a xlink:href="baseeventhandler_8cpp.html" target="_top" xlink:title=" ">
<polygon fill="white" stroke="black" points="228,-156.5 228,-197.5 390,-197.5 390,-156.5 228,-156.5"/>
<text text-anchor="start" x="236" y="-185.5" font-family="Helvetica,sans-Serif" font-size="10.00">/home/runner/work/doxygen</text>
<text text-anchor="start" x="236" y="-174.5" font-family="Helvetica,sans-Serif" font-size="10.00">/antimicrox/src/eventhandlers</text>
<text text-anchor="middle" x="309" y="-163.5" font-family="Helvetica,sans-Serif" font-size="10.00">/baseeventhandler.cpp</text>
</a>
</g>
</g>
<!-- Node1&#45;&gt;Node3 -->
<g id="edge2" class="edge">
<title>Node1&#45;&gt;Node3</title>
<path fill="none" stroke="midnightblue" d="M499.84,-231.72C461.31,-220.87 415.42,-207.96 378.3,-197.51"/>
<polygon fill="midnightblue" stroke="midnightblue" points="498.89,-235.09 509.47,-234.43 500.79,-228.35 498.89,-235.09"/>
</g>
<!-- Node4 -->
<g id="node4" class="node">
<title>Node4</title>
<g id="a_node4"><a xlink:href="uinputeventhandler_8h.html" target="_top" xlink:title=" ">
<polygon fill="white" stroke="black" points="408,-156.5 408,-197.5 570,-197.5 570,-156.5 408,-156.5"/>
<text text-anchor="start" x="416" y="-185.5" font-family="Helvetica,sans-Serif" font-size="10.00">/home/runner/work/doxygen</text>
<text text-anchor="start" x="416" y="-174.5" font-family="Helvetica,sans-Serif" font-size="10.00">/antimicrox/src/eventhandlers</text>
<text text-anchor="middle" x="489" y="-163.5" font-family="Helvetica,sans-Serif" font-size="10.00">/uinputeventhandler.h</text>
</a>
</g>
</g>
<!-- Node1&#45;&gt;Node4 -->
<g id="edge3" class="edge">
<title>Node1&#45;&gt;Node4</title>
<path fill="none" stroke="midnightblue" d="M547.95,-227.78C536.18,-217.84 523.01,-206.72 512.1,-197.51"/>
<polygon fill="midnightblue" stroke="midnightblue" points="545.92,-230.65 555.82,-234.43 550.44,-225.3 545.92,-230.65"/>
</g>
<!-- Node6 -->
<g id="node6" class="node">
<title>Node6</title>
<g id="a_node6"><a xlink:href="winsendinputeventhandler_8h.html" target="_top" xlink:title=" ">
<polygon fill="white" stroke="black" points="588,-156.5 588,-197.5 750,-197.5 750,-156.5 588,-156.5"/>
<text text-anchor="start" x="596" y="-185.5" font-family="Helvetica,sans-Serif" font-size="10.00">/home/runner/work/doxygen</text>
<text text-anchor="start" x="596" y="-174.5" font-family="Helvetica,sans-Serif" font-size="10.00">/antimicrox/src/eventhandlers</text>
<text text-anchor="middle" x="669" y="-163.5" font-family="Helvetica,sans-Serif" font-size="10.00">/winsendinputeventhandler.h</text>
</a>
</g>
</g>
<!-- Node1&#45;&gt;Node6 -->
<g id="edge5" class="edge">
<title>Node1&#45;&gt;Node6</title>
<path fill="none" stroke="midnightblue" d="M610.05,-227.78C621.82,-217.84 634.99,-206.72 645.9,-197.51"/>
<polygon fill="midnightblue" stroke="midnightblue" points="607.56,-225.3 602.18,-234.43 612.08,-230.65 607.56,-225.3"/>
</g>
<!-- Node8 -->
<g id="node8" class="node">
<title>Node8</title>
<g id="a_node8"><a xlink:href="winvmultieventhandler_8h.html" target="_top" xlink:title=" ">
<polygon fill="white" stroke="black" points="697,-78.5 697,-119.5 859,-119.5 859,-78.5 697,-78.5"/>
<text text-anchor="start" x="705" y="-107.5" font-family="Helvetica,sans-Serif" font-size="10.00">/home/runner/work/doxygen</text>
<text text-anchor="start" x="705" y="-96.5" font-family="Helvetica,sans-Serif" font-size="10.00">/antimicrox/src/eventhandlers</text>
<text text-anchor="middle" x="778" y="-85.5" font-family="Helvetica,sans-Serif" font-size="10.00">/winvmultieventhandler.h</text>
</a>
</g>
</g>
<!-- Node1&#45;&gt;Node8 -->
<g id="edge9" class="edge">
<title>Node1&#45;&gt;Node8</title>
<path fill="none" stroke="midnightblue" d="M670.22,-244.98C702.48,-237.29 736.34,-223.3 759,-198 778.19,-176.57 780.48,-141.72 779.72,-119.87"/>
<polygon fill="midnightblue" stroke="midnightblue" points="669.29,-241.6 660.27,-247.17 670.79,-248.44 669.29,-241.6"/>
</g>
<!-- Node10 -->
<g id="node10" class="node">
<title>Node10</title>
<g id="a_node10"><a xlink:href="xtesteventhandler_8h.html" target="_top" xlink:title=" ">
<polygon fill="white" stroke="black" points="842,-156.5 842,-197.5 1004,-197.5 1004,-156.5 842,-156.5"/>
<text text-anchor="start" x="850" y="-185.5" font-family="Helvetica,sans-Serif" font-size="10.00">/home/runner/work/doxygen</text>
<text text-anchor="start" x="850" y="-174.5" font-family="Helvetica,sans-Serif" font-size="10.00">/antimicrox/src/eventhandlers</text>
<text text-anchor="middle" x="923" y="-163.5" font-family="Helvetica,sans-Serif" font-size="10.00">/xtesteventhandler.h</text>
</a>
</g>
</g>
<!-- Node1&#45;&gt;Node10 -->
<g id="edge10" class="edge">
<title>Node1&#45;&gt;Node10</title>
<path fill="none" stroke="midnightblue" d="M669.9,-233.92C723.3,-222.12 790.24,-207.33 841.86,-195.93"/>
<polygon fill="midnightblue" stroke="midnightblue" points="669.1,-230.51 660.09,-236.09 670.61,-237.35 669.1,-230.51"/>
</g>
<!-- Node5 -->
<g id="node5" class="node">
<title>Node5</title>
<g id="a_node5"><a xlink:href="uinputeventhandler_8cpp.html" target="_top" xlink:title=" ">
<polygon fill="white" stroke="black" points="329,-78.5 329,-119.5 491,-119.5 491,-78.5 329,-78.5"/>
<text text-anchor="start" x="337" y="-107.5" font-family="Helvetica,sans-Serif" font-size="10.00">/home/runner/work/doxygen</text>
<text text-anchor="start" x="337" y="-96.5" font-family="Helvetica,sans-Serif" font-size="10.00">/antimicrox/src/eventhandlers</text>
<text text-anchor="middle" x="410" y="-85.5" font-family="Helvetica,sans-Serif" font-size="10.00">/uinputeventhandler.cpp</text>
</a>
</g>
</g>
<!-- Node4&#45;&gt;Node5 -->
<g id="edge4" class="edge">
<title>Node4&#45;&gt;Node5</title>
<path fill="none" stroke="midnightblue" d="M461.45,-149.49C451.19,-139.63 439.76,-128.63 430.28,-119.51"/>
<polygon fill="midnightblue" stroke="midnightblue" points="459.02,-152.02 468.66,-156.43 463.88,-146.97 459.02,-152.02"/>
</g>
<!-- Node7 -->
<g id="node7" class="node">
<title>Node7</title>
<g id="a_node7"><a xlink:href="winsendinputeventhandler_8cpp.html" target="_top" xlink:title=" ">
<polygon fill="white" stroke="black" points="509.5,-78.5 509.5,-119.5 678.5,-119.5 678.5,-78.5 509.5,-78.5"/>
<text text-anchor="start" x="517.5" y="-107.5" font-family="Helvetica,sans-Serif" font-size="10.00">/home/runner/work/doxygen</text>
<text text-anchor="start" x="517.5" y="-96.5" font-family="Helvetica,sans-Serif" font-size="10.00">/antimicrox/src/eventhandlers</text>
<text text-anchor="middle" x="594" y="-85.5" font-family="Helvetica,sans-Serif" font-size="10.00">/winsendinputeventhandler.cpp</text>
</a>
</g>
</g>
<!-- Node6&#45;&gt;Node7 -->
<g id="edge6" class="edge">
<title>Node6&#45;&gt;Node7</title>
<path fill="none" stroke="midnightblue" d="M642.56,-149.2C632.9,-139.42 622.16,-128.54 613.25,-119.51"/>
<polygon fill="midnightblue" stroke="midnightblue" points="640.17,-151.77 649.69,-156.43 645.15,-146.85 640.17,-151.77"/>
</g>
<!-- Node6&#45;&gt;Node8 -->
<g id="edge7" class="edge">
<title>Node6&#45;&gt;Node8</title>
<path fill="none" stroke="midnightblue" d="M705.38,-150.64C719.93,-140.49 736.43,-128.98 750.02,-119.51"/>
<polygon fill="midnightblue" stroke="midnightblue" points="703.27,-147.84 697.07,-156.43 707.27,-153.58 703.27,-147.84"/>
</g>
<!-- Node9 -->
<g id="node9" class="node">
<title>Node9</title>
<g id="a_node9"><a xlink:href="winvmultieventhandler_8cpp.html" target="_top" xlink:title=" ">
<polygon fill="white" stroke="black" points="697,-0.5 697,-41.5 859,-41.5 859,-0.5 697,-0.5"/>
<text text-anchor="start" x="705" y="-29.5" font-family="Helvetica,sans-Serif" font-size="10.00">/home/runner/work/doxygen</text>
<text text-anchor="start" x="705" y="-18.5" font-family="Helvetica,sans-Serif" font-size="10.00">/antimicrox/src/eventhandlers</text>
<text text-anchor="middle" x="778" y="-7.5" font-family="Helvetica,sans-Serif" font-size="10.00">/winvmultieventhandler.cpp</text>
</a>
</g>
</g>
<!-- Node8&#45;&gt;Node9 -->
<g id="edge8" class="edge">
<title>Node8&#45;&gt;Node9</title>
<path fill="none" stroke="midnightblue" d="M778,-68.3C778,-59.3 778,-49.65 778,-41.51"/>
<polygon fill="midnightblue" stroke="midnightblue" points="774.5,-68.43 778,-78.43 781.5,-68.43 774.5,-68.43"/>
</g>
<!-- Node11 -->
<g id="node11" class="node">
<title>Node11</title>
<g id="a_node11"><a xlink:href="xtesteventhandler_8cpp.html" target="_top" xlink:title=" ">
<polygon fill="white" stroke="black" points="877,-78.5 877,-119.5 1039,-119.5 1039,-78.5 877,-78.5"/>
<text text-anchor="start" x="885" y="-107.5" font-family="Helvetica,sans-Serif" font-size="10.00">/home/runner/work/doxygen</text>
<text text-anchor="start" x="885" y="-96.5" font-family="Helvetica,sans-Serif" font-size="10.00">/antimicrox/src/eventhandlers</text>
<text text-anchor="middle" x="958" y="-85.5" font-family="Helvetica,sans-Serif" font-size="10.00">/xtesteventhandler.cpp</text>
</a>
</g>
</g>
<!-- Node10&#45;&gt;Node11 -->
<g id="edge11" class="edge">
<title>Node10&#45;&gt;Node11</title>
<path fill="none" stroke="midnightblue" d="M936.27,-147.17C940.53,-137.93 945.14,-127.92 949.02,-119.51"/>
<polygon fill="midnightblue" stroke="midnightblue" points="933.02,-145.88 932.01,-156.43 939.38,-148.81 933.02,-145.88"/>
</g>
</g>
</svg>
        <g id="navigator" transform="translate(0 0)" fill="#404254">
                <rect fill="#f2f5e9" fill-opacity="0.5" stroke="#606060" stroke-width=".5" x="0" y="0" width="60" height="60"/>
                <use id="zoomplus" xlink:href="#zoomPlus" x="17" y="9" onmousedown="handleZoom(evt,'in')"/>
                <use id="zoomminus" xlink:href="#zoomMin" x="42" y="9" onmousedown="handleZoom(evt,'out')"/>
                <use id="reset" xlink:href="#resetDef" x="30" y="36" onmousedown="handleReset()"/>
                <g id="arrowUp" xlink:href="#dirArrow" transform="translate(30 24)" onmousedown="handlePan(0,-1)">
                  <use xlink:href="#rim" fill="#404040">
                        <set attributeName="fill" to="#808080" begin="arrowUp.mouseover" end="arrowUp.mouseout"/>
                  </use>
                  <path fill="none" stroke="white" stroke-width="1.5" d="M0,-3.0v7 M-2.5,-0.5L0,-3.0L2.5,-0.5"/>
                </g>
                <g id="arrowRight" xlink:href="#dirArrow" transform="rotate(90) translate(36 -43)" onmousedown="handlePan(1,0)">
                  <use xlink:href="#rim" fill="#404040">
                        <set attributeName="fill" to="#808080" begin="arrowRight.mouseover" end="arrowRight.mouseout"/>
                  </use>
                  <path fill="none" stroke="white" stroke-width="1.5" d="M0,-3.0v7 M-2.5,-0.5L0,-3.0L2.5,-0.5"/>
                </g>
                <g id="arrowDown" xlink:href="#dirArrow" transform="rotate(180) translate(-30 -48)" onmousedown="handlePan(0,1)">
                  <use xlink:href="#rim" fill="#404040">
                        <set attributeName="fill" to="#808080" begin="arrowDown.mouseover" end="arrowDown.mouseout"/>
                  </use>
                  <path fill="none" stroke="white" stroke-width="1.5" d="M0,-3.0v7 M-2.5,-0.5L0,-3.0L2.5,-0.5"/>
                </g>
                <g id="arrowLeft" xlink:href="#dirArrow" transform="rotate(270) translate(-36 17)" onmousedown="handlePan(-1,0)">
                  <use xlink:href="#rim" fill="#404040">
                        <set attributeName="fill" to="#808080" begin="arrowLeft.mouseover" end="arrowLeft.mouseout"/>
                  </use>
                  <path fill="none" stroke="white" stroke-width="1.5" d="M0,-3.0v7 M-2.5,-0.5L0,-3.0L2.5,-0.5"/>
                </g>
        </g>
        <svg viewBox="0 0 15 15" width="100%" height="30px" preserveAspectRatio="xMaxYMin meet">
         <g id="arrow_out" transform="scale(0.3 0.3)">
          <a xlink:href="baseeventhandler_8h__dep__incl_org.svg" target="_base">
           <rect id="button" ry="5" rx="5" y="6" x="6" height="38" width="38"
                fill="#f2f5e9" fill-opacity="0.5" stroke="#606060" stroke-width="1.0"/>
           <path id="arrow"
             d="M 11.500037,31.436501 C 11.940474,20.09759 22.043105,11.32322 32.158766,21.979434 L 37.068811,17.246167 C 37.068811,17.246167 37.088388,32 37.088388,32 L 22.160133,31.978069 C 22.160133,31.978069 26.997745,27.140456 26.997745,27.140456 C 18.528582,18.264221 13.291696,25.230495 11.500037,31.436501 z"
             style="fill:#404040;"/>
          </a>
         </g>
        </svg>
</svg>
