<?xml version="1.0" encoding="UTF-8" standalone="no"?>
<!DOCTYPE svg PUBLIC "-//W3C//DTD SVG 1.1//EN"
 "http://www.w3.org/Graphics/SVG/1.1/DTD/svg11.dtd">
<!-- Generated by graphviz version 2.43.0 (0)
 -->
<!-- Title: InputDevice::setStickName Pages: 1 -->
<svg width="787pt" height="189pt"
 viewBox="0.00 0.00 787.00 189.00" xmlns="http://www.w3.org/2000/svg" xmlns:xlink="http://www.w3.org/1999/xlink">
<g id="graph0" class="graph" transform="scale(1 1) rotate(0) translate(4 185)">
<title>InputDevice::setStickName</title>
<polygon fill="white" stroke="transparent" points="-4,4 -4,-185 783,-185 783,4 -4,4"/>
<!-- Node1 -->
<g id="node1" class="node">
<title>Node1</title>
<g id="a_node1"><a xlink:title=" ">
<polygon fill="#bfbfbf" stroke="black" points="630,-68.5 630,-87.5 779,-87.5 779,-68.5 630,-68.5"/>
<text text-anchor="middle" x="704.5" y="-75.5" font-family="Helvetica,sans-Serif" font-size="10.00">InputDevice::setStickName</text>
</a>
</g>
</g>
<!-- Node2 -->
<g id="node2" class="node">
<title>Node2</title>
<g id="a_node2"><a xlink:href="classInputDeviceXml.html#a847bf9ed17b554bf87d513a1aebdcb64" target="_top" xlink:title="Deserializes the given XML stream into an InputDevice object.">
<polygon fill="white" stroke="black" points="440,-161.5 440,-180.5 593,-180.5 593,-161.5 440,-161.5"/>
<text text-anchor="middle" x="516.5" y="-168.5" font-family="Helvetica,sans-Serif" font-size="10.00">InputDeviceXml::readConfig</text>
</a>
</g>
</g>
<!-- Node1&#45;&gt;Node2 -->
<g id="edge1" class="edge">
<title>Node1&#45;&gt;Node2</title>
<path fill="none" stroke="midnightblue" d="M684.36,-94.03C663.42,-110.8 628.27,-136.74 594,-152 585.5,-155.78 576.12,-158.9 566.92,-161.43"/>
<polygon fill="midnightblue" stroke="midnightblue" points="686.62,-96.71 692.16,-87.68 682.2,-91.28 686.62,-96.71"/>
</g>
<!-- Node3 -->
<g id="node3" class="node">
<title>Node3</title>
<g id="a_node3"><a xlink:href="classGameControllerXml.html#aaa5257d4c6fe13f1d5fc51981e247c25" target="_top" xlink:title="Reads the XML tree from a &quot;joystick&quot; tag.">
<polygon fill="white" stroke="black" points="457,-112 457,-142 576,-142 576,-112 457,-112"/>
<text text-anchor="start" x="465" y="-130" font-family="Helvetica,sans-Serif" font-size="10.00">GameControllerXml::</text>
<text text-anchor="middle" x="516.5" y="-119" font-family="Helvetica,sans-Serif" font-size="10.00">readJoystickConfig</text>
</a>
</g>
</g>
<!-- Node1&#45;&gt;Node3 -->
<g id="edge2" class="edge">
<title>Node1&#45;&gt;Node3</title>
<path fill="none" stroke="midnightblue" d="M657.23,-90.19C632.21,-96.78 601.09,-104.98 574.58,-111.96"/>
<polygon fill="midnightblue" stroke="midnightblue" points="658.42,-93.5 667.2,-87.56 656.63,-86.73 658.42,-93.5"/>
</g>
<!-- Node5 -->
<g id="node5" class="node">
<title>Node5</title>
<g id="a_node5"><a xlink:href="classGameControllerXml.html#a6cc4ca448e7b6462630d535f75f3a96b" target="_top" xlink:title=" ">
<polygon fill="white" stroke="black" points="457,-63 457,-93 576,-93 576,-63 457,-63"/>
<text text-anchor="start" x="465" y="-81" font-family="Helvetica,sans-Serif" font-size="10.00">GameControllerXml::</text>
<text text-anchor="middle" x="516.5" y="-70" font-family="Helvetica,sans-Serif" font-size="10.00">readXmlNamesShort</text>
</a>
</g>
</g>
<!-- Node1&#45;&gt;Node5 -->
<g id="edge4" class="edge">
<title>Node1&#45;&gt;Node5</title>
<path fill="none" stroke="midnightblue" d="M619.85,-78C605.1,-78 590.04,-78 576.16,-78"/>
<polygon fill="midnightblue" stroke="midnightblue" points="619.99,-81.5 629.99,-78 619.99,-74.5 619.99,-81.5"/>
</g>
<!-- Node6 -->
<g id="node6" class="node">
<title>Node6</title>
<g id="a_node6"><a xlink:href="classInputDevice.html#a839d9cdc5886588a012275b477d860fa" target="_top" xlink:title=" ">
<polygon fill="white" stroke="black" points="439,-14 439,-44 594,-44 594,-14 439,-14"/>
<text text-anchor="start" x="447" y="-32" font-family="Helvetica,sans-Serif" font-size="10.00">InputDevice::updateSetStick</text>
<text text-anchor="middle" x="516.5" y="-21" font-family="Helvetica,sans-Serif" font-size="10.00">Names</text>
</a>
</g>
</g>
<!-- Node1&#45;&gt;Node6 -->
<g id="edge6" class="edge">
<title>Node1&#45;&gt;Node6</title>
<path fill="none" stroke="midnightblue" d="M674.09,-65.17C652.63,-58.15 622.5,-49.68 594.4,-42.6"/>
<polygon fill="midnightblue" stroke="midnightblue" points="673,-68.49 683.59,-68.39 675.25,-61.86 673,-68.49"/>
</g>
<!-- Node4 -->
<g id="node4" class="node">
<title>Node4</title>
<g id="a_node4"><a xlink:href="classGameControllerXml.html#a7e47256cae0d3815419bc254413777d1" target="_top" xlink:title="Deserializes the given XML stream into a GameController object.">
<polygon fill="white" stroke="black" points="248.5,-87 248.5,-117 367.5,-117 367.5,-87 248.5,-87"/>
<text text-anchor="start" x="256.5" y="-105" font-family="Helvetica,sans-Serif" font-size="10.00">GameControllerXml::</text>
<text text-anchor="middle" x="308" y="-94" font-family="Helvetica,sans-Serif" font-size="10.00">readConfig</text>
</a>
</g>
</g>
<!-- Node3&#45;&gt;Node4 -->
<g id="edge3" class="edge">
<title>Node3&#45;&gt;Node4</title>
<path fill="none" stroke="midnightblue" d="M446.86,-118.69C421.25,-115.59 392.42,-112.1 367.77,-109.11"/>
<polygon fill="midnightblue" stroke="midnightblue" points="446.53,-122.18 456.88,-119.9 447.37,-115.23 446.53,-122.18"/>
</g>
<!-- Node5&#45;&gt;Node4 -->
<g id="edge5" class="edge">
<title>Node5&#45;&gt;Node4</title>
<path fill="none" stroke="midnightblue" d="M446.86,-85.98C421.25,-88.95 392.42,-92.3 367.77,-95.17"/>
<polygon fill="midnightblue" stroke="midnightblue" points="447.35,-89.44 456.88,-84.81 446.54,-82.49 447.35,-89.44"/>
</g>
<!-- Node6&#45;&gt;Node1 -->
<g id="edge10" class="edge">
<title>Node6&#45;&gt;Node1</title>
<path fill="none" stroke="midnightblue" d="M563.34,-46.99C587.41,-54.26 617.19,-62.26 643.11,-68.46"/>
<polygon fill="midnightblue" stroke="midnightblue" points="564.34,-43.63 553.75,-44.03 562.27,-50.32 564.34,-43.63"/>
</g>
<!-- Node7 -->
<g id="node7" class="node">
<title>Node7</title>
<g id="a_node7"><a xlink:href="classInputDevice.html#a6ffcebba103a7db02e82c1c7f62387bf" target="_top" xlink:title="Establishes necessary connections for set change slots.">
<polygon fill="white" stroke="black" points="213,-19.5 213,-38.5 403,-38.5 403,-19.5 213,-19.5"/>
<text text-anchor="middle" x="308" y="-26.5" font-family="Helvetica,sans-Serif" font-size="10.00">InputDevice::enableSetConnections</text>
</a>
</g>
</g>
<!-- Node6&#45;&gt;Node7 -->
<g id="edge7" class="edge">
<title>Node6&#45;&gt;Node7</title>
<path fill="none" stroke="midnightblue" d="M428.74,-29C420.34,-29 411.79,-29 403.32,-29"/>
<polygon fill="midnightblue" stroke="midnightblue" points="428.9,-32.5 438.9,-29 428.9,-25.5 428.9,-32.5"/>
</g>
<!-- Node8 -->
<g id="node8" class="node">
<title>Node8</title>
<g id="a_node8"><a xlink:href="classGameController.html#afcddb9dcc5442a9746c3ff8760ea1791" target="_top" xlink:title=" ">
<polygon fill="white" stroke="black" points="0,-38.5 0,-57.5 177,-57.5 177,-38.5 0,-38.5"/>
<text text-anchor="middle" x="88.5" y="-45.5" font-family="Helvetica,sans-Serif" font-size="10.00">GameController::GameController</text>
</a>
</g>
</g>
<!-- Node7&#45;&gt;Node8 -->
<g id="edge8" class="edge">
<title>Node7&#45;&gt;Node8</title>
<path fill="none" stroke="midnightblue" d="M202.85,-38.1C194.28,-38.85 185.68,-39.6 177.26,-40.33"/>
<polygon fill="midnightblue" stroke="midnightblue" points="203.21,-41.58 212.87,-37.22 202.6,-34.61 203.21,-41.58"/>
</g>
<!-- Node9 -->
<g id="node9" class="node">
<title>Node9</title>
<g id="a_node9"><a xlink:href="classJoystick.html#a9df5e53506876f3c95e84bdf6c9cbaf1" target="_top" xlink:title=" ">
<polygon fill="white" stroke="black" points="39,-0.5 39,-19.5 138,-19.5 138,-0.5 39,-0.5"/>
<text text-anchor="middle" x="88.5" y="-7.5" font-family="Helvetica,sans-Serif" font-size="10.00">Joystick::Joystick</text>
</a>
</g>
</g>
<!-- Node7&#45;&gt;Node9 -->
<g id="edge9" class="edge">
<title>Node7&#45;&gt;Node9</title>
<path fill="none" stroke="midnightblue" d="M202.88,-19.9C180.31,-17.93 157.48,-15.94 138.28,-14.26"/>
<polygon fill="midnightblue" stroke="midnightblue" points="202.6,-23.39 212.87,-20.78 203.21,-16.42 202.6,-23.39"/>
</g>
</g>
</svg>
