<?xml version="1.0" encoding="UTF-8" standalone="no"?>
<!DOCTYPE svg PUBLIC "-//W3C//DTD SVG 1.1//EN"
 "http://www.w3.org/Graphics/SVG/1.1/DTD/svg11.dtd">
<!-- Generated by graphviz version 2.43.0 (0)
 -->
<!-- Title: JoyButton::getTurboMode Pages: 1 -->
<svg width="714pt" height="197pt"
 viewBox="0.00 0.00 714.00 196.50" xmlns="http://www.w3.org/2000/svg" xmlns:xlink="http://www.w3.org/1999/xlink">
<g id="graph0" class="graph" transform="scale(1 1) rotate(0) translate(4 192.5)">
<title>JoyButton::getTurboMode</title>
<polygon fill="white" stroke="transparent" points="-4,4 -4,-192.5 710,-192.5 710,4 -4,4"/>
<!-- Node1 -->
<g id="node1" class="node">
<title>Node1</title>
<g id="a_node1"><a xlink:title="Get currently assigned turbo mode.">
<polygon fill="#bfbfbf" stroke="black" points="567,-114.5 567,-133.5 706,-133.5 706,-114.5 567,-114.5"/>
<text text-anchor="middle" x="636.5" y="-121.5" font-family="Helvetica,sans-Serif" font-size="10.00">JoyButton::getTurboMode</text>
</a>
</g>
</g>
<!-- Node2 -->
<g id="node2" class="node">
<title>Node2</title>
<g id="a_node2"><a xlink:href="classAdvanceButtonDialog.html#aa47c1edae8c226f0c025a1103259b9e7" target="_top" xlink:title=" ">
<polygon fill="white" stroke="black" points="376,-158 376,-188 531,-188 531,-158 376,-158"/>
<text text-anchor="start" x="384" y="-176" font-family="Helvetica,sans-Serif" font-size="10.00">AdvanceButtonDialog</text>
<text text-anchor="middle" x="453.5" y="-165" font-family="Helvetica,sans-Serif" font-size="10.00">::findTurboModeComboIndex</text>
</a>
</g>
</g>
<!-- Node1&#45;&gt;Node2 -->
<g id="edge1" class="edge">
<title>Node1&#45;&gt;Node2</title>
<path fill="none" stroke="midnightblue" d="M590.47,-136.19C566.13,-142.78 535.85,-150.98 510.04,-157.96"/>
<polygon fill="midnightblue" stroke="midnightblue" points="591.43,-139.56 600.17,-133.56 589.6,-132.8 591.43,-139.56"/>
</g>
<!-- Node4 -->
<g id="node4" class="node">
<title>Node4</title>
<g id="a_node4"><a xlink:href="classJoyGradientButton.html#aeb260d7d14d0c19360fa34edcf121aa7" target="_top" xlink:title="Activate a turbo event on a button.">
<polygon fill="white" stroke="black" points="397.5,-109 397.5,-139 509.5,-139 509.5,-109 397.5,-109"/>
<text text-anchor="start" x="405.5" y="-127" font-family="Helvetica,sans-Serif" font-size="10.00">JoyGradientButton::</text>
<text text-anchor="middle" x="453.5" y="-116" font-family="Helvetica,sans-Serif" font-size="10.00">turboEvent</text>
</a>
</g>
</g>
<!-- Node1&#45;&gt;Node4 -->
<g id="edge3" class="edge">
<title>Node1&#45;&gt;Node4</title>
<path fill="none" stroke="midnightblue" d="M556.51,-124C540.71,-124 524.42,-124 509.63,-124"/>
<polygon fill="midnightblue" stroke="midnightblue" points="556.81,-127.5 566.81,-124 556.81,-120.5 556.81,-127.5"/>
</g>
<!-- Node5 -->
<g id="node5" class="node">
<title>Node5</title>
<g id="a_node5"><a xlink:href="classJoyButtonXml.html#a766e87947104bfd54fc15b96b267ebdd" target="_top" xlink:title=" ">
<polygon fill="white" stroke="black" points="381,-70.5 381,-89.5 526,-89.5 526,-70.5 381,-70.5"/>
<text text-anchor="middle" x="453.5" y="-77.5" font-family="Helvetica,sans-Serif" font-size="10.00">JoyButtonXml::writeConfig</text>
</a>
</g>
</g>
<!-- Node1&#45;&gt;Node5 -->
<g id="edge4" class="edge">
<title>Node1&#45;&gt;Node5</title>
<path fill="none" stroke="midnightblue" d="M586.26,-112.03C557.17,-104.96 520.84,-96.13 493.7,-89.53"/>
<polygon fill="midnightblue" stroke="midnightblue" points="585.68,-115.49 596.23,-114.45 587.34,-108.69 585.68,-115.49"/>
</g>
<!-- Node3 -->
<g id="node3" class="node">
<title>Node3</title>
<g id="a_node3"><a xlink:href="classAdvanceButtonDialog.html#a4f9a1a007f50de1c3cca1403d08a0790" target="_top" xlink:title=" ">
<polygon fill="white" stroke="black" points="200,-158 200,-188 328,-188 328,-158 200,-158"/>
<text text-anchor="start" x="208" y="-176" font-family="Helvetica,sans-Serif" font-size="10.00">AdvanceButtonDialog</text>
<text text-anchor="middle" x="264" y="-165" font-family="Helvetica,sans-Serif" font-size="10.00">::AdvanceButtonDialog</text>
</a>
</g>
</g>
<!-- Node2&#45;&gt;Node3 -->
<g id="edge2" class="edge">
<title>Node2&#45;&gt;Node3</title>
<path fill="none" stroke="midnightblue" d="M365.83,-173C353.13,-173 340.25,-173 328.13,-173"/>
<polygon fill="midnightblue" stroke="midnightblue" points="365.97,-176.5 375.97,-173 365.97,-169.5 365.97,-176.5"/>
</g>
<!-- Node6 -->
<g id="node6" class="node">
<title>Node6</title>
<g id="a_node6"><a xlink:href="classJoyDPadXml.html#ac78c8fd1ad107f6a3baed4910863cb0c" target="_top" xlink:title=" ">
<polygon fill="white" stroke="black" points="195.5,-114.5 195.5,-133.5 332.5,-133.5 332.5,-114.5 195.5,-114.5"/>
<text text-anchor="middle" x="264" y="-121.5" font-family="Helvetica,sans-Serif" font-size="10.00">JoyDPadXml::writeConfig</text>
</a>
</g>
</g>
<!-- Node5&#45;&gt;Node6 -->
<g id="edge5" class="edge">
<title>Node5&#45;&gt;Node6</title>
<path fill="none" stroke="midnightblue" d="M401.89,-91.88C371.69,-98.96 333.84,-107.84 305.61,-114.47"/>
<polygon fill="midnightblue" stroke="midnightblue" points="402.88,-95.24 411.82,-89.55 401.28,-88.42 402.88,-95.24"/>
</g>
<!-- Node7 -->
<g id="node7" class="node">
<title>Node7</title>
<g id="a_node7"><a xlink:href="classSetJoystickXml.html#a11eec051c05deac5ebe47b9582e83b6f" target="_top" xlink:title="Serializes a SetJoystick object into the the given XML stream.">
<polygon fill="white" stroke="black" points="0,-95.5 0,-114.5 152,-114.5 152,-95.5 0,-95.5"/>
<text text-anchor="middle" x="76" y="-102.5" font-family="Helvetica,sans-Serif" font-size="10.00">SetJoystickXml::writeConfig</text>
</a>
</g>
</g>
<!-- Node5&#45;&gt;Node7 -->
<g id="edge7" class="edge">
<title>Node5&#45;&gt;Node7</title>
<path fill="none" stroke="midnightblue" d="M370.77,-85.44C305.71,-89.77 215.37,-95.79 152.11,-100"/>
<polygon fill="midnightblue" stroke="midnightblue" points="371.24,-88.92 380.99,-84.76 370.78,-81.93 371.24,-88.92"/>
</g>
<!-- Node8 -->
<g id="node8" class="node">
<title>Node8</title>
<g id="a_node8"><a xlink:href="classJoySensor.html#a92d38c3baf6dc85d28d66e7a7df4b4c3" target="_top" xlink:title="Write the status of the properties of a sensor and direction buttons to an XML stream.">
<polygon fill="white" stroke="black" points="201,-38.5 201,-57.5 327,-57.5 327,-38.5 201,-38.5"/>
<text text-anchor="middle" x="264" y="-45.5" font-family="Helvetica,sans-Serif" font-size="10.00">JoySensor::writeConfig</text>
</a>
</g>
</g>
<!-- Node5&#45;&gt;Node8 -->
<g id="edge8" class="edge">
<title>Node5&#45;&gt;Node8</title>
<path fill="none" stroke="midnightblue" d="M386.72,-68.77C365.22,-65.1 341.56,-61.07 320.86,-57.53"/>
<polygon fill="midnightblue" stroke="midnightblue" points="386.31,-72.25 396.75,-70.49 387.48,-65.35 386.31,-72.25"/>
</g>
<!-- Node9 -->
<g id="node9" class="node">
<title>Node9</title>
<g id="a_node9"><a xlink:href="classJoyControlStick.html#a3ab1764a44e806d2d3896023f82fa3b1" target="_top" xlink:title="Write the status of the properties of a stick and direction buttons to an XML stream.">
<polygon fill="white" stroke="black" points="188,-0.5 188,-19.5 340,-19.5 340,-0.5 188,-0.5"/>
<text text-anchor="middle" x="264" y="-7.5" font-family="Helvetica,sans-Serif" font-size="10.00">JoyControlStick::writeConfig</text>
</a>
</g>
</g>
<!-- Node5&#45;&gt;Node9 -->
<g id="edge9" class="edge">
<title>Node5&#45;&gt;Node9</title>
<path fill="none" stroke="midnightblue" d="M425.26,-66C402.82,-54.87 369.93,-39.48 340,-29 329.86,-25.45 318.73,-22.26 308.22,-19.56"/>
<polygon fill="midnightblue" stroke="midnightblue" points="423.7,-69.13 434.2,-70.48 426.83,-62.87 423.7,-69.13"/>
</g>
<!-- Node6&#45;&gt;Node7 -->
<g id="edge6" class="edge">
<title>Node6&#45;&gt;Node7</title>
<path fill="none" stroke="midnightblue" d="M185.35,-116.07C174.37,-114.95 163.1,-113.8 152.17,-112.68"/>
<polygon fill="midnightblue" stroke="midnightblue" points="185.02,-119.55 195.32,-117.09 185.73,-112.59 185.02,-119.55"/>
</g>
</g>
</svg>
