<?xml version="1.0" encoding="UTF-8" standalone="no"?>
<!DOCTYPE svg PUBLIC "-//W3C//DTD SVG 1.1//EN"
 "http://www.w3.org/Graphics/SVG/1.1/DTD/svg11.dtd">
<!-- Generated by graphviz version 2.43.0 (0)
 -->
<!-- Title: XTestEventHandler::sendTextEntryEvent Pages: 1 -->
<svg width="708pt" height="192pt"
 viewBox="0.00 0.00 708.00 192.00" xmlns="http://www.w3.org/2000/svg" xmlns:xlink="http://www.w3.org/1999/xlink">
<g id="graph0" class="graph" transform="scale(1 1) rotate(0) translate(4 188)">
<title>XTestEventHandler::sendTextEntryEvent</title>
<polygon fill="white" stroke="transparent" points="-4,4 -4,-188 704,-188 704,4 -4,4"/>
<!-- Node1 -->
<g id="node1" class="node">
<title>Node1</title>
<g id="a_node1"><a xlink:title=" ">
<polygon fill="#bfbfbf" stroke="black" points="0,-71 0,-101 115,-101 115,-71 0,-71"/>
<text text-anchor="start" x="8" y="-89" font-family="Helvetica,sans-Serif" font-size="10.00">XTestEventHandler::</text>
<text text-anchor="middle" x="57.5" y="-78" font-family="Helvetica,sans-Serif" font-size="10.00">sendTextEntryEvent</text>
</a>
</g>
</g>
<!-- Node2 -->
<g id="node2" class="node">
<title>Node2</title>
<g id="a_node2"><a xlink:href="classX11Extras.html#a643c95dc1de8eb073a0accb41619fe83" target="_top" xlink:title="Get display instance.">
<polygon fill="white" stroke="black" points="179.5,-164.5 179.5,-183.5 286.5,-183.5 286.5,-164.5 179.5,-164.5"/>
<text text-anchor="middle" x="233" y="-171.5" font-family="Helvetica,sans-Serif" font-size="10.00">X11Extras::display</text>
</a>
</g>
</g>
<!-- Node1&#45;&gt;Node2 -->
<g id="edge1" class="edge">
<title>Node1&#45;&gt;Node2</title>
<path fill="none" stroke="midnightblue" d="M74.53,-101.25C91.99,-117.01 121.39,-141.22 151,-155 156.76,-157.68 162.93,-160 169.2,-162"/>
<polygon fill="midnightblue" stroke="midnightblue" points="168.51,-165.45 179.09,-164.9 170.47,-158.73 168.51,-165.45"/>
</g>
<!-- Node3 -->
<g id="node3" class="node">
<title>Node3</title>
<g id="a_node3"><a xlink:href="classQtKeyMapperBase.html#a5f8f3d468b761f286578334871bb4456" target="_top" xlink:title=" ">
<polygon fill="white" stroke="black" points="157.5,-115 157.5,-145 308.5,-145 308.5,-115 157.5,-115"/>
<text text-anchor="start" x="165.5" y="-133" font-family="Helvetica,sans-Serif" font-size="10.00">QtKeyMapperBase::getChar</text>
<text text-anchor="middle" x="233" y="-122" font-family="Helvetica,sans-Serif" font-size="10.00">KeyInformation</text>
</a>
</g>
</g>
<!-- Node1&#45;&gt;Node3 -->
<g id="edge2" class="edge">
<title>Node1&#45;&gt;Node3</title>
<path fill="none" stroke="midnightblue" d="M115.31,-100.41C130.53,-104.27 147.16,-108.48 162.96,-112.49"/>
<polygon fill="midnightblue" stroke="midnightblue" points="162.12,-115.89 172.68,-114.96 163.85,-109.1 162.12,-115.89"/>
</g>
<!-- Node4 -->
<g id="node4" class="node">
<title>Node4</title>
<g id="a_node4"><a xlink:href="classAntKeyMapper.html#acd08c44a2501edcfdb1ef8a68d534b1b" target="_top" xlink:title=" ">
<polygon fill="white" stroke="black" points="157.5,-76.5 157.5,-95.5 308.5,-95.5 308.5,-76.5 157.5,-76.5"/>
<text text-anchor="middle" x="233" y="-83.5" font-family="Helvetica,sans-Serif" font-size="10.00">AntKeyMapper::getInstance</text>
</a>
</g>
</g>
<!-- Node1&#45;&gt;Node4 -->
<g id="edge3" class="edge">
<title>Node1&#45;&gt;Node4</title>
<path fill="none" stroke="midnightblue" d="M115.31,-86C125.5,-86 136.31,-86 147.08,-86"/>
<polygon fill="midnightblue" stroke="midnightblue" points="147.38,-89.5 157.38,-86 147.38,-82.5 147.38,-89.5"/>
</g>
<!-- Node7 -->
<g id="node7" class="node">
<title>Node7</title>
<g id="a_node7"><a xlink:href="classX11Extras.html#ace76277fced60e6bd6ff880030338182" target="_top" xlink:title=" ">
<polygon fill="white" stroke="black" points="168.5,-38.5 168.5,-57.5 297.5,-57.5 297.5,-38.5 168.5,-38.5"/>
<text text-anchor="middle" x="233" y="-45.5" font-family="Helvetica,sans-Serif" font-size="10.00">X11Extras::getInstance</text>
</a>
</g>
</g>
<!-- Node1&#45;&gt;Node7 -->
<g id="edge6" class="edge">
<title>Node1&#45;&gt;Node7</title>
<path fill="none" stroke="midnightblue" d="M115.31,-73.56C135.69,-69.09 158.57,-64.08 178.64,-59.69"/>
<polygon fill="midnightblue" stroke="midnightblue" points="179.53,-63.07 188.55,-57.52 178.03,-56.24 179.53,-63.07"/>
</g>
<!-- Node10 -->
<g id="node10" class="node">
<title>Node10</title>
<g id="a_node10"><a xlink:href="classAntKeyMapper.html#a7096412c4b87d2314f90603cf49d6181" target="_top" xlink:title=" ">
<polygon fill="white" stroke="black" points="151,-0.5 151,-19.5 315,-19.5 315,-0.5 151,-0.5"/>
<text text-anchor="middle" x="233" y="-7.5" font-family="Helvetica,sans-Serif" font-size="10.00">AntKeyMapper::getKeyMapper</text>
</a>
</g>
</g>
<!-- Node1&#45;&gt;Node10 -->
<g id="edge9" class="edge">
<title>Node1&#45;&gt;Node10</title>
<path fill="none" stroke="midnightblue" d="M78.77,-70.84C96.86,-57.98 124.5,-39.94 151,-29 157.19,-26.45 163.79,-24.19 170.46,-22.22"/>
<polygon fill="midnightblue" stroke="midnightblue" points="171.52,-25.56 180.23,-19.52 169.66,-18.81 171.52,-25.56"/>
</g>
<!-- Node5 -->
<g id="node5" class="node">
<title>Node5</title>
<g id="a_node5"><a xlink:href="classAntKeyMapper.html#abe4a434636d370a750d32a14b9a139d3" target="_top" xlink:title=" ">
<polygon fill="white" stroke="black" points="351,-114.5 351,-133.5 516,-133.5 516,-114.5 351,-114.5"/>
<text text-anchor="middle" x="433.5" y="-121.5" font-family="Helvetica,sans-Serif" font-size="10.00">AntKeyMapper::AntKeyMapper</text>
</a>
</g>
</g>
<!-- Node4&#45;&gt;Node5 -->
<g id="edge4" class="edge">
<title>Node4&#45;&gt;Node5</title>
<path fill="none" stroke="midnightblue" d="M283.83,-95.54C310.73,-100.69 344.14,-107.08 372.46,-112.51"/>
<polygon fill="midnightblue" stroke="midnightblue" points="372.17,-116.01 382.65,-114.46 373.48,-109.14 372.17,-116.01"/>
</g>
<!-- Node6 -->
<g id="node6" class="node">
<title>Node6</title>
<g id="a_node6"><a xlink:href="antkeymapper_8cpp.html#a4f87707944cf82e8e59c85d48e24951c" target="_top" xlink:title=" ">
<polygon fill="white" stroke="black" points="366.5,-76.5 366.5,-95.5 500.5,-95.5 500.5,-76.5 366.5,-76.5"/>
<text text-anchor="middle" x="433.5" y="-83.5" font-family="Helvetica,sans-Serif" font-size="10.00">buildEventGeneratorList</text>
</a>
</g>
</g>
<!-- Node4&#45;&gt;Node6 -->
<g id="edge5" class="edge">
<title>Node4&#45;&gt;Node6</title>
<path fill="none" stroke="midnightblue" d="M308.76,-86C324.27,-86 340.62,-86 356.19,-86"/>
<polygon fill="midnightblue" stroke="midnightblue" points="356.28,-89.5 366.28,-86 356.28,-82.5 356.28,-89.5"/>
</g>
<!-- Node8 -->
<g id="node8" class="node">
<title>Node8</title>
<g id="a_node8"><a xlink:href="classX11Extras.html#ab9bcb016e23bacb0e988feb8175d2c88" target="_top" xlink:title=" ">
<polygon fill="white" stroke="black" points="372.5,-38.5 372.5,-57.5 494.5,-57.5 494.5,-38.5 372.5,-38.5"/>
<text text-anchor="middle" x="433.5" y="-45.5" font-family="Helvetica,sans-Serif" font-size="10.00">X11Extras::X11Extras</text>
</a>
</g>
</g>
<!-- Node7&#45;&gt;Node8 -->
<g id="edge7" class="edge">
<title>Node7&#45;&gt;Node8</title>
<path fill="none" stroke="midnightblue" d="M297.63,-48C318.19,-48 341.1,-48 362.12,-48"/>
<polygon fill="midnightblue" stroke="midnightblue" points="362.27,-51.5 372.27,-48 362.27,-44.5 362.27,-51.5"/>
</g>
<!-- Node9 -->
<g id="node9" class="node">
<title>Node9</title>
<g id="a_node9"><a xlink:href="classX11Extras.html#a6f63e77ed045e174546d77333672b8f0" target="_top" xlink:title=" ">
<polygon fill="white" stroke="black" points="552,-33 552,-63 700,-63 700,-33 552,-33"/>
<text text-anchor="start" x="560" y="-51" font-family="Helvetica,sans-Serif" font-size="10.00">X11Extras::populateKnown</text>
<text text-anchor="middle" x="626" y="-40" font-family="Helvetica,sans-Serif" font-size="10.00">Aliases</text>
</a>
</g>
</g>
<!-- Node8&#45;&gt;Node9 -->
<g id="edge8" class="edge">
<title>Node8&#45;&gt;Node9</title>
<path fill="none" stroke="midnightblue" d="M494.51,-48C509.45,-48 525.74,-48 541.58,-48"/>
<polygon fill="midnightblue" stroke="midnightblue" points="541.91,-51.5 551.91,-48 541.91,-44.5 541.91,-51.5"/>
</g>
</g>
</svg>
