<?xml version="1.0" encoding="UTF-8" standalone="no"?>
<!DOCTYPE svg PUBLIC "-//W3C//DTD SVG 1.1//EN"
 "http://www.w3.org/Graphics/SVG/1.1/DTD/svg11.dtd">
<!-- Generated by graphviz version 2.43.0 (0)
 -->
<!-- Title: JoyButton::establishMouseTimerConnections Pages: 1 -->
<svg width="1530pt" height="1075pt"
 viewBox="0.00 0.00 1530.00 1075.00" xmlns="http://www.w3.org/2000/svg" xmlns:xlink="http://www.w3.org/1999/xlink">
<g id="graph0" class="graph" transform="scale(1 1) rotate(0) translate(4 1071)">
<title>JoyButton::establishMouseTimerConnections</title>
<polygon fill="white" stroke="transparent" points="-4,4 -4,-1071 1526,-1071 1526,4 -4,4"/>
<!-- Node1 -->
<g id="node1" class="node">
<title>Node1</title>
<g id="a_node1"><a xlink:title="Change initial settings used for mouse event timer being used by the application.">
<polygon fill="#bfbfbf" stroke="black" points="0,-645 0,-675 146,-675 146,-645 0,-645"/>
<text text-anchor="start" x="8" y="-663" font-family="Helvetica,sans-Serif" font-size="10.00">JoyButton::establishMouse</text>
<text text-anchor="middle" x="73" y="-652" font-family="Helvetica,sans-Serif" font-size="10.00">TimerConnections</text>
</a>
</g>
</g>
<!-- Node2 -->
<g id="node2" class="node">
<title>Node2</title>
<g id="a_node2"><a xlink:href="classJoyButtonMouseHelper.html#a7bf98a02c2949419a441fa9213251ff5" target="_top" xlink:title="Perform mouse events for all buttons and slots.">
<polygon fill="white" stroke="black" points="182,-645 182,-675 310,-675 310,-645 182,-645"/>
<text text-anchor="start" x="190" y="-663" font-family="Helvetica,sans-Serif" font-size="10.00">JoyButtonMouseHelper</text>
<text text-anchor="middle" x="246" y="-652" font-family="Helvetica,sans-Serif" font-size="10.00">::mouseEvent</text>
</a>
</g>
</g>
<!-- Node1&#45;&gt;Node2 -->
<g id="edge1" class="edge">
<title>Node1&#45;&gt;Node2</title>
<path fill="none" stroke="midnightblue" d="M146.02,-660C154.46,-660 163.08,-660 171.53,-660"/>
<polygon fill="midnightblue" stroke="midnightblue" points="171.74,-663.5 181.74,-660 171.74,-656.5 171.74,-663.5"/>
</g>
<!-- Node3 -->
<g id="node3" class="node">
<title>Node3</title>
<g id="a_node3"><a xlink:href="classJoyButton.html#ac9980de369c258f195992423c07f3d3f" target="_top" xlink:title=" ">
<polygon fill="white" stroke="black" points="571,-956.5 571,-975.5 730,-975.5 730,-956.5 571,-956.5"/>
<text text-anchor="middle" x="650.5" y="-963.5" font-family="Helvetica,sans-Serif" font-size="10.00">JoyButton::getCursorXSpeeds</text>
</a>
</g>
</g>
<!-- Node2&#45;&gt;Node3 -->
<g id="edge2" class="edge">
<title>Node2&#45;&gt;Node3</title>
<path fill="none" stroke="midnightblue" d="M247.81,-675.21C251.09,-720.34 267.33,-854.3 346,-918 405.72,-966.35 494.32,-975.49 560.4,-974.23"/>
<polygon fill="midnightblue" stroke="midnightblue" points="560.9,-977.72 570.8,-973.95 560.71,-970.72 560.9,-977.72"/>
</g>
<!-- Node4 -->
<g id="node4" class="node">
<title>Node4</title>
<g id="a_node4"><a xlink:href="classJoyButton.html#a704bffaf2f044aa08629f2a567f2ffc3" target="_top" xlink:title=" ">
<polygon fill="white" stroke="black" points="571.5,-918.5 571.5,-937.5 729.5,-937.5 729.5,-918.5 571.5,-918.5"/>
<text text-anchor="middle" x="650.5" y="-925.5" font-family="Helvetica,sans-Serif" font-size="10.00">JoyButton::getCursorYSpeeds</text>
</a>
</g>
</g>
<!-- Node2&#45;&gt;Node4 -->
<g id="edge3" class="edge">
<title>Node2&#45;&gt;Node4</title>
<path fill="none" stroke="midnightblue" d="M249.1,-675.28C255.47,-715.38 278.46,-824.09 346,-876 407.05,-922.93 495.49,-933.51 561.16,-933.79"/>
<polygon fill="midnightblue" stroke="midnightblue" points="561.51,-937.29 571.5,-933.75 561.48,-930.29 561.51,-937.29"/>
</g>
<!-- Node5 -->
<g id="node5" class="node">
<title>Node5</title>
<g id="a_node5"><a xlink:href="classJoyButton.html#a6f1b62fe61277f5f341dd5156f701946" target="_top" xlink:title="Get the list of buttons that have a pending mouse movement event.">
<polygon fill="white" stroke="black" points="790,-742 790,-772 947,-772 947,-742 790,-742"/>
<text text-anchor="start" x="798" y="-760" font-family="Helvetica,sans-Serif" font-size="10.00">JoyButton::getPendingMouse</text>
<text text-anchor="middle" x="868.5" y="-749" font-family="Helvetica,sans-Serif" font-size="10.00">Buttons</text>
</a>
</g>
</g>
<!-- Node2&#45;&gt;Node5 -->
<g id="edge4" class="edge">
<title>Node2&#45;&gt;Node5</title>
<path fill="none" stroke="midnightblue" d="M272.96,-675.03C292.42,-685.54 320.04,-698.92 346,-706 351.18,-707.41 632.13,-734.46 779.45,-748.58"/>
<polygon fill="midnightblue" stroke="midnightblue" points="779.53,-752.1 789.82,-749.57 780.2,-745.13 779.53,-752.1"/>
</g>
<!-- Node6 -->
<g id="node6" class="node">
<title>Node6</title>
<g id="a_node6"><a xlink:href="classJoyButton.html#a5dd45189d17d655a79fe7b19f8465d35" target="_top" xlink:title=" ">
<polygon fill="white" stroke="black" points="571.5,-602.5 571.5,-621.5 729.5,-621.5 729.5,-602.5 571.5,-602.5"/>
<text text-anchor="middle" x="650.5" y="-609.5" font-family="Helvetica,sans-Serif" font-size="10.00">JoyButton::getSpringXSpeeds</text>
</a>
</g>
</g>
<!-- Node2&#45;&gt;Node6 -->
<g id="edge5" class="edge">
<title>Node2&#45;&gt;Node6</title>
<path fill="none" stroke="midnightblue" d="M310.33,-652.45C377.92,-644.39 485.5,-631.56 561.34,-622.51"/>
<polygon fill="midnightblue" stroke="midnightblue" points="561.84,-625.98 571.36,-621.32 561.01,-619.03 561.84,-625.98"/>
</g>
<!-- Node7 -->
<g id="node7" class="node">
<title>Node7</title>
<g id="a_node7"><a xlink:href="classJoyButton.html#acaaba0455c043ef2f13b25b86de0da65" target="_top" xlink:title=" ">
<polygon fill="white" stroke="black" points="571.5,-564.5 571.5,-583.5 729.5,-583.5 729.5,-564.5 571.5,-564.5"/>
<text text-anchor="middle" x="650.5" y="-571.5" font-family="Helvetica,sans-Serif" font-size="10.00">JoyButton::getSpringYSpeeds</text>
</a>
</g>
</g>
<!-- Node2&#45;&gt;Node7 -->
<g id="edge6" class="edge">
<title>Node2&#45;&gt;Node7</title>
<path fill="none" stroke="midnightblue" d="M283.62,-644.84C302.07,-637.68 324.95,-629.51 346,-624 417.45,-605.3 500.28,-592.21 561.34,-584.13"/>
<polygon fill="midnightblue" stroke="midnightblue" points="561.86,-587.59 571.33,-582.83 560.96,-580.65 561.86,-587.59"/>
</g>
<!-- Node8 -->
<g id="node8" class="node">
<title>Node8</title>
<g id="a_node8"><a xlink:href="classJoyButton.html#a3be083ee56eea1d917bdaf0a3e86a1a4" target="_top" xlink:title=" ">
<polygon fill="white" stroke="black" points="561,-804.5 561,-823.5 740,-823.5 740,-804.5 561,-804.5"/>
<text text-anchor="middle" x="650.5" y="-811.5" font-family="Helvetica,sans-Serif" font-size="10.00">JoyButton::getTestOldMouseTime</text>
</a>
</g>
</g>
<!-- Node2&#45;&gt;Node8 -->
<g id="edge7" class="edge">
<title>Node2&#45;&gt;Node8</title>
<path fill="none" stroke="midnightblue" d="M261.31,-675.02C279.38,-693.1 312.19,-723.13 346,-740 413.46,-773.66 497.15,-792.59 559.55,-802.85"/>
<polygon fill="midnightblue" stroke="midnightblue" points="559.34,-806.36 569.76,-804.49 560.44,-799.45 559.34,-806.36"/>
</g>
<!-- Node9 -->
<g id="node9" class="node">
<title>Node9</title>
<g id="a_node9"><a xlink:href="classJoyButton.html#a7035fef56c1bd6e2b6d0c7ef6ebf2ef1" target="_top" xlink:title=" ">
<polygon fill="white" stroke="black" points="359.5,-514.5 359.5,-533.5 511.5,-533.5 511.5,-514.5 359.5,-514.5"/>
<text text-anchor="middle" x="435.5" y="-521.5" font-family="Helvetica,sans-Serif" font-size="10.00">JoyButton::hasCursorEvents</text>
</a>
</g>
</g>
<!-- Node2&#45;&gt;Node9 -->
<g id="edge8" class="edge">
<title>Node2&#45;&gt;Node9</title>
<path fill="none" stroke="midnightblue" d="M256.21,-644.78C271.68,-620.54 305.22,-573.33 346,-548 353.37,-543.42 361.61,-539.71 370.02,-536.69"/>
<polygon fill="midnightblue" stroke="midnightblue" points="371.13,-540.01 379.55,-533.58 368.95,-533.36 371.13,-540.01"/>
</g>
<!-- Node10 -->
<g id="node10" class="node">
<title>Node10</title>
<g id="a_node10"><a xlink:href="classJoyButton.html#a1e50cc6b0b57cac6db4d61a125c317a8" target="_top" xlink:title=" ">
<polygon fill="white" stroke="black" points="360,-476.5 360,-495.5 511,-495.5 511,-476.5 360,-476.5"/>
<text text-anchor="middle" x="435.5" y="-483.5" font-family="Helvetica,sans-Serif" font-size="10.00">JoyButton::hasSpringEvents</text>
</a>
</g>
</g>
<!-- Node2&#45;&gt;Node10 -->
<g id="edge9" class="edge">
<title>Node2&#45;&gt;Node10</title>
<path fill="none" stroke="midnightblue" d="M252.12,-644.81C263.56,-613.32 294.33,-540.88 346,-505 348.78,-503.07 351.71,-501.34 354.75,-499.77"/>
<polygon fill="midnightblue" stroke="midnightblue" points="356.47,-502.84 364.18,-495.57 353.62,-496.44 356.47,-502.84"/>
</g>
<!-- Node11 -->
<g id="node11" class="node">
<title>Node11</title>
<g id="a_node11"><a xlink:href="classJoyButton.html#ac51fbb4f1b1367d701500921378fddaa" target="_top" xlink:title="Calculate mouse movement coordinates for mouse movement slots currently active.">
<polygon fill="white" stroke="black" points="585,-310.5 585,-329.5 716,-329.5 716,-310.5 585,-310.5"/>
<text text-anchor="middle" x="650.5" y="-317.5" font-family="Helvetica,sans-Serif" font-size="10.00">JoyButton::mouseEvent</text>
</a>
</g>
</g>
<!-- Node2&#45;&gt;Node11 -->
<g id="edge10" class="edge">
<title>Node2&#45;&gt;Node11</title>
<path fill="none" stroke="midnightblue" d="M263.2,-644.85C281.8,-628.27 313.9,-602.04 346,-587 420.18,-552.24 459.85,-592.67 525,-543 595.54,-489.23 631.86,-383.32 644.37,-339.6"/>
<polygon fill="midnightblue" stroke="midnightblue" points="647.76,-340.46 647.04,-329.89 641.01,-338.6 647.76,-340.46"/>
</g>
<!-- Node31 -->
<g id="node31" class="node">
<title>Node31</title>
<g id="a_node31"><a xlink:href="classJoyButtonMouseHelper.html#ad520f0afa612d5a8e6f1a040312f84d2" target="_top" xlink:title="Perform mouse movement in cursor mode.">
<polygon fill="white" stroke="black" points="371.5,-837 371.5,-867 499.5,-867 499.5,-837 371.5,-837"/>
<text text-anchor="start" x="379.5" y="-855" font-family="Helvetica,sans-Serif" font-size="10.00">JoyButtonMouseHelper</text>
<text text-anchor="middle" x="435.5" y="-844" font-family="Helvetica,sans-Serif" font-size="10.00">::moveMouseCursor</text>
</a>
</g>
</g>
<!-- Node2&#45;&gt;Node31 -->
<g id="edge31" class="edge">
<title>Node2&#45;&gt;Node31</title>
<path fill="none" stroke="midnightblue" d="M254.81,-675.05C269.63,-702.53 304.14,-761.52 346,-800 359.71,-812.6 376.97,-823.58 392.6,-832.16"/>
<polygon fill="midnightblue" stroke="midnightblue" points="391.11,-835.33 401.58,-836.93 394.39,-829.14 391.11,-835.33"/>
</g>
<!-- Node50 -->
<g id="node46" class="node">
<title>Node50</title>
<g id="a_node46"><a xlink:href="classJoyButtonMouseHelper.html#aeecd17e4fb7215f22b4280d3db9f71f9" target="_top" xlink:title="Perform mouse movement in spring mode.">
<polygon fill="white" stroke="black" points="371.5,-667 371.5,-697 499.5,-697 499.5,-667 371.5,-667"/>
<text text-anchor="start" x="379.5" y="-685" font-family="Helvetica,sans-Serif" font-size="10.00">JoyButtonMouseHelper</text>
<text text-anchor="middle" x="435.5" y="-674" font-family="Helvetica,sans-Serif" font-size="10.00">::moveSpringMouse</text>
</a>
</g>
</g>
<!-- Node2&#45;&gt;Node50 -->
<g id="edge52" class="edge">
<title>Node2&#45;&gt;Node50</title>
<path fill="none" stroke="midnightblue" d="M310.22,-667.42C326.51,-669.33 344.17,-671.4 360.94,-673.37"/>
<polygon fill="midnightblue" stroke="midnightblue" points="360.9,-676.89 371.24,-674.58 361.71,-669.94 360.9,-676.89"/>
</g>
<!-- Node64 -->
<g id="node50" class="node">
<title>Node64</title>
<g id="a_node50"><a xlink:href="classJoyButton.html#a18dcb149c6664df4b185abc5492aa972" target="_top" xlink:title=" ">
<polygon fill="white" stroke="black" points="346,-438.5 346,-457.5 525,-457.5 525,-438.5 346,-438.5"/>
<text text-anchor="middle" x="435.5" y="-445.5" font-family="Helvetica,sans-Serif" font-size="10.00">JoyButton::restartLastMouseTime</text>
</a>
</g>
</g>
<!-- Node2&#45;&gt;Node64 -->
<g id="edge65" class="edge">
<title>Node2&#45;&gt;Node64</title>
<path fill="none" stroke="midnightblue" d="M250.11,-644.86C258.5,-608.08 285.19,-513.63 346,-467 348.34,-465.21 350.81,-463.57 353.38,-462.09"/>
<polygon fill="midnightblue" stroke="midnightblue" points="355.06,-465.16 362.46,-457.58 351.95,-458.89 355.06,-465.16"/>
</g>
<!-- Node12 -->
<g id="node12" class="node">
<title>Node12</title>
<g id="a_node12"><a xlink:href="classJoyButton.html#a48369975ea4bc0d16e284b02bf4b1246" target="_top" xlink:title=" ">
<polygon fill="white" stroke="black" points="795.5,-452 795.5,-482 941.5,-482 941.5,-452 795.5,-452"/>
<text text-anchor="start" x="803.5" y="-470" font-family="Helvetica,sans-Serif" font-size="10.00">JoyButton::getAcceleration</text>
<text text-anchor="middle" x="868.5" y="-459" font-family="Helvetica,sans-Serif" font-size="10.00">Distance</text>
</a>
</g>
</g>
<!-- Node11&#45;&gt;Node12 -->
<g id="edge11" class="edge">
<title>Node11&#45;&gt;Node12</title>
<path fill="none" stroke="midnightblue" d="M658.45,-329.59C675.65,-352.63 722.72,-411.42 776,-442 779.88,-444.23 783.97,-446.26 788.18,-448.12"/>
<polygon fill="midnightblue" stroke="midnightblue" points="786.96,-451.41 797.54,-451.92 789.59,-444.92 786.96,-451.41"/>
</g>
<!-- Node14 -->
<g id="node14" class="node">
<title>Node14</title>
<g id="a_node14"><a xlink:href="classJoyButton.html#a64f1660931aea2fa8df1bf5e313c05ba" target="_top" xlink:title=" ">
<polygon fill="white" stroke="black" points="798.5,-190.5 798.5,-209.5 938.5,-209.5 938.5,-190.5 798.5,-190.5"/>
<text text-anchor="middle" x="868.5" y="-197.5" font-family="Helvetica,sans-Serif" font-size="10.00">JoyButton::getActiveSlots</text>
</a>
</g>
</g>
<!-- Node11&#45;&gt;Node14 -->
<g id="edge13" class="edge">
<title>Node11&#45;&gt;Node14</title>
<path fill="none" stroke="midnightblue" d="M660.11,-310.43C678.96,-290.13 726.21,-242.63 776,-219 781.26,-216.5 786.84,-214.33 792.55,-212.45"/>
<polygon fill="midnightblue" stroke="midnightblue" points="793.68,-215.77 802.25,-209.54 791.66,-209.06 793.68,-215.77"/>
</g>
<!-- Node15 -->
<g id="node15" class="node">
<title>Node15</title>
<g id="a_node15"><a xlink:href="classJoyButtonSlot.html#ac50cf04817a6116d7c4ef87a7e4d0c38" target="_top" xlink:title=" ">
<polygon fill="white" stroke="black" points="788,-152.5 788,-171.5 949,-171.5 949,-152.5 788,-152.5"/>
<text text-anchor="middle" x="868.5" y="-159.5" font-family="Helvetica,sans-Serif" font-size="10.00">JoyButtonSlot::getEasingTime</text>
</a>
</g>
</g>
<!-- Node11&#45;&gt;Node15 -->
<g id="edge14" class="edge">
<title>Node11&#45;&gt;Node15</title>
<path fill="none" stroke="midnightblue" d="M657.05,-310.35C672.35,-284.69 717.89,-214.47 776,-181 779.9,-178.75 784.03,-176.77 788.3,-175.02"/>
<polygon fill="midnightblue" stroke="midnightblue" points="789.61,-178.26 797.81,-171.55 787.22,-171.69 789.61,-178.26"/>
</g>
<!-- Node16 -->
<g id="node16" class="node">
<title>Node16</title>
<g id="a_node16"><a xlink:href="classJoyButton.html#ad107fc4d6e2725fd5b09a2412c18b1e3" target="_top" xlink:title=" ">
<polygon fill="white" stroke="black" points="795.5,-114.5 795.5,-133.5 941.5,-133.5 941.5,-114.5 795.5,-114.5"/>
<text text-anchor="middle" x="868.5" y="-121.5" font-family="Helvetica,sans-Serif" font-size="10.00">JoyButton::getMouseCurve</text>
</a>
</g>
</g>
<!-- Node11&#45;&gt;Node16 -->
<g id="edge15" class="edge">
<title>Node11&#45;&gt;Node16</title>
<path fill="none" stroke="midnightblue" d="M655.2,-310.42C667.34,-280.29 709.12,-186.94 776,-143 779.17,-140.92 782.52,-139.06 786,-137.4"/>
<polygon fill="midnightblue" stroke="midnightblue" points="787.58,-140.53 795.45,-133.44 784.88,-134.07 787.58,-140.53"/>
</g>
<!-- Node17 -->
<g id="node17" class="node">
<title>Node17</title>
<g id="a_node17"><a xlink:href="classJoyButtonSlot.html#a7bbef93617207feab540c1cbe51b9de1" target="_top" xlink:title=" ">
<polygon fill="white" stroke="black" points="779,-76.5 779,-95.5 958,-95.5 958,-76.5 779,-76.5"/>
<text text-anchor="middle" x="868.5" y="-83.5" font-family="Helvetica,sans-Serif" font-size="10.00">JoyButtonSlot::getMouseDistance</text>
</a>
</g>
</g>
<!-- Node11&#45;&gt;Node17 -->
<g id="edge16" class="edge">
<title>Node11&#45;&gt;Node17</title>
<path fill="none" stroke="midnightblue" d="M654,-310.37C663.42,-276.18 700.11,-159.79 776,-105 778.55,-103.16 781.24,-101.49 784.03,-99.97"/>
<polygon fill="midnightblue" stroke="midnightblue" points="785.68,-103.06 793.24,-95.64 782.7,-96.73 785.68,-103.06"/>
</g>
<!-- Node18 -->
<g id="node18" class="node">
<title>Node18</title>
<g id="a_node18"><a xlink:href="classJoyButton.html#a352acb56d462240c593e7b70bca74f55" target="_top" xlink:title="Get the distance factor that should be used for mouse movement.">
<polygon fill="white" stroke="black" points="788,-403 788,-433 949,-433 949,-403 788,-403"/>
<text text-anchor="start" x="796" y="-421" font-family="Helvetica,sans-Serif" font-size="10.00">JoyButton::getMouseDistance</text>
<text text-anchor="middle" x="868.5" y="-410" font-family="Helvetica,sans-Serif" font-size="10.00">FromDeadZone</text>
</a>
</g>
</g>
<!-- Node11&#45;&gt;Node18 -->
<g id="edge17" class="edge">
<title>Node11&#45;&gt;Node18</title>
<path fill="none" stroke="midnightblue" d="M665.06,-329.58C687.29,-344.9 733.28,-375.01 776,-393 781.78,-395.43 787.86,-397.69 794.03,-399.78"/>
<polygon fill="midnightblue" stroke="midnightblue" points="793.17,-403.18 803.76,-402.92 795.32,-396.52 793.17,-403.18"/>
</g>
<!-- Node19 -->
<g id="node19" class="node">
<title>Node19</title>
<g id="a_node19"><a xlink:href="classJoyButtonSlot.html#ab0658ac4e6648852de5f9b622e4c2d25" target="_top" xlink:title=" ">
<polygon fill="white" stroke="black" points="781.5,-665.5 781.5,-684.5 955.5,-684.5 955.5,-665.5 781.5,-665.5"/>
<text text-anchor="middle" x="868.5" y="-672.5" font-family="Helvetica,sans-Serif" font-size="10.00">JoyButtonSlot::getMouseInterval</text>
</a>
</g>
</g>
<!-- Node11&#45;&gt;Node19 -->
<g id="edge19" class="edge">
<title>Node11&#45;&gt;Node19</title>
<path fill="none" stroke="midnightblue" d="M655.26,-329.83C667.58,-362.06 707.76,-467.45 740,-555 756.32,-599.33 740.49,-623.85 776,-655 778.37,-657.08 780.9,-658.96 783.56,-660.65"/>
<polygon fill="midnightblue" stroke="midnightblue" points="781.99,-663.78 792.45,-665.47 785.33,-657.63 781.99,-663.78"/>
</g>
<!-- Node20 -->
<g id="node20" class="node">
<title>Node20</title>
<g id="a_node20"><a xlink:href="classJoyButton.html#a581ec2c6d19bb51b2dd5bbe0f4da50fb" target="_top" xlink:title=" ">
<polygon fill="white" stroke="black" points="1001,-561.5 1001,-580.5 1146,-580.5 1146,-561.5 1001,-561.5"/>
<text text-anchor="middle" x="1073.5" y="-568.5" font-family="Helvetica,sans-Serif" font-size="10.00">JoyButton::getMouseMode</text>
</a>
</g>
</g>
<!-- Node11&#45;&gt;Node20 -->
<g id="edge20" class="edge">
<title>Node11&#45;&gt;Node20</title>
<path fill="none" stroke="midnightblue" d="M655.48,-329.67C668.16,-359.18 710.65,-448.69 776,-491 846.53,-536.67 880.24,-506.77 961,-530 987.99,-537.76 1017.81,-548.86 1039.81,-557.56"/>
<polygon fill="midnightblue" stroke="midnightblue" points="1038.75,-560.9 1049.33,-561.36 1041.35,-554.4 1038.75,-560.9"/>
</g>
<!-- Node21 -->
<g id="node21" class="node">
<title>Node21</title>
<g id="a_node21"><a xlink:href="classJoyButtonSlot.html#a1e91202fd2eac80332ed3e3ff1593769" target="_top" xlink:title=" ">
<polygon fill="white" stroke="black" points="794.5,-38.5 794.5,-57.5 942.5,-57.5 942.5,-38.5 794.5,-38.5"/>
<text text-anchor="middle" x="868.5" y="-45.5" font-family="Helvetica,sans-Serif" font-size="10.00">JoyButtonSlot::getSlotCode</text>
</a>
</g>
</g>
<!-- Node11&#45;&gt;Node21 -->
<g id="edge21" class="edge">
<title>Node11&#45;&gt;Node21</title>
<path fill="none" stroke="midnightblue" d="M653.14,-310.31C660.11,-272.4 690.86,-132.96 776,-67 778.84,-64.8 781.88,-62.83 785.06,-61.08"/>
<polygon fill="midnightblue" stroke="midnightblue" points="786.79,-64.14 794.33,-56.7 783.79,-57.81 786.79,-64.14"/>
</g>
<!-- Node22 -->
<g id="node22" class="node">
<title>Node22</title>
<g id="a_node22"><a xlink:href="classJoyButtonSlot.html#a1bd84ce657c42905a95aac9562106142" target="_top" xlink:title=" ">
<polygon fill="white" stroke="black" points="788.5,-0.5 788.5,-19.5 948.5,-19.5 948.5,-0.5 788.5,-0.5"/>
<text text-anchor="middle" x="868.5" y="-7.5" font-family="Helvetica,sans-Serif" font-size="10.00">JoyButtonSlot::isEasingActive</text>
</a>
</g>
</g>
<!-- Node11&#45;&gt;Node22 -->
<g id="edge22" class="edge">
<title>Node11&#45;&gt;Node22</title>
<path fill="none" stroke="midnightblue" d="M652.48,-310.33C657.18,-269.08 681.37,-106.41 776,-29 778.03,-27.34 780.17,-25.81 782.4,-24.4"/>
<polygon fill="midnightblue" stroke="midnightblue" points="784.23,-27.4 791.38,-19.58 780.92,-21.23 784.23,-27.4"/>
</g>
<!-- Node23 -->
<g id="node23" class="node">
<title>Node23</title>
<g id="a_node23"><a xlink:href="classJoyButton.html#a77afa6c5934d2665bad6d494b812f372" target="_top" xlink:title="Check if button should be considered a part of a real controller axis. Needed for some dialogs so the...">
<polygon fill="white" stroke="black" points="798.5,-577.5 798.5,-596.5 938.5,-596.5 938.5,-577.5 798.5,-577.5"/>
<text text-anchor="middle" x="868.5" y="-584.5" font-family="Helvetica,sans-Serif" font-size="10.00">JoyButton::isPartRealAxis</text>
</a>
</g>
</g>
<!-- Node11&#45;&gt;Node23 -->
<g id="edge23" class="edge">
<title>Node11&#45;&gt;Node23</title>
<path fill="none" stroke="midnightblue" d="M653.21,-329.5C660.42,-366.68 691.96,-503.42 776,-568 779.9,-570.99 784.15,-573.54 788.62,-575.72"/>
<polygon fill="midnightblue" stroke="midnightblue" points="787.49,-579.04 798.07,-579.66 790.19,-572.58 787.49,-579.04"/>
</g>
<!-- Node24 -->
<g id="node24" class="node">
<title>Node24</title>
<g id="a_node24"><a xlink:href="classJoyButtonSlot.html#a62b0c4b9a9c5e72ab31d2ce9b7a776fb" target="_top" xlink:title=" ">
<polygon fill="white" stroke="black" points="795.5,-539.5 795.5,-558.5 941.5,-558.5 941.5,-539.5 795.5,-539.5"/>
<text text-anchor="middle" x="868.5" y="-546.5" font-family="Helvetica,sans-Serif" font-size="10.00">JoyButtonSlot::setDistance</text>
</a>
</g>
</g>
<!-- Node11&#45;&gt;Node24 -->
<g id="edge24" class="edge">
<title>Node11&#45;&gt;Node24</title>
<path fill="none" stroke="midnightblue" d="M654.39,-329.51C664.84,-362.26 703.9,-471.23 776,-525 781.79,-529.32 788.3,-532.86 795.1,-535.77"/>
<polygon fill="midnightblue" stroke="midnightblue" points="793.92,-539.07 804.52,-539.35 796.41,-532.53 793.92,-539.07"/>
</g>
<!-- Node25 -->
<g id="node25" class="node">
<title>Node25</title>
<g id="a_node25"><a xlink:href="classJoyButton.html#ae5ca5356352f7bf2ade64fc42bc92a85" target="_top" xlink:title=" ">
<polygon fill="white" stroke="black" points="797,-354 797,-384 940,-384 940,-354 797,-354"/>
<text text-anchor="start" x="805" y="-372" font-family="Helvetica,sans-Serif" font-size="10.00">JoyButton::setDistanceFor</text>
<text text-anchor="middle" x="868.5" y="-361" font-family="Helvetica,sans-Serif" font-size="10.00">Spring</text>
</a>
</g>
</g>
<!-- Node11&#45;&gt;Node25 -->
<g id="edge25" class="edge">
<title>Node11&#45;&gt;Node25</title>
<path fill="none" stroke="midnightblue" d="M693.4,-329.51C721.09,-335.79 758.19,-344.2 791.02,-351.65"/>
<polygon fill="midnightblue" stroke="midnightblue" points="790.54,-355.13 801.06,-353.93 792.09,-348.3 790.54,-355.13"/>
</g>
<!-- Node28 -->
<g id="node28" class="node">
<title>Node28</title>
<g id="a_node28"><a xlink:href="classJoyButtonSlot.html#afeedd345cee7fc0f154dcc1cd3db480b" target="_top" xlink:title=" ">
<polygon fill="white" stroke="black" points="800.5,-305 800.5,-335 936.5,-335 936.5,-305 800.5,-305"/>
<text text-anchor="start" x="808.5" y="-323" font-family="Helvetica,sans-Serif" font-size="10.00">JoyButtonSlot::setEasing</text>
<text text-anchor="middle" x="868.5" y="-312" font-family="Helvetica,sans-Serif" font-size="10.00">Status</text>
</a>
</g>
</g>
<!-- Node11&#45;&gt;Node28 -->
<g id="edge28" class="edge">
<title>Node11&#45;&gt;Node28</title>
<path fill="none" stroke="midnightblue" d="M716.01,-320C739.29,-320 765.8,-320 790.07,-320"/>
<polygon fill="midnightblue" stroke="midnightblue" points="790.32,-323.5 800.32,-320 790.32,-316.5 790.32,-323.5"/>
</g>
<!-- Node29 -->
<g id="node29" class="node">
<title>Node29</title>
<g id="a_node29"><a xlink:href="classJoyButton.html#a056b480fe5132bb36d65d22de0fe9934" target="_top" xlink:title=" ">
<polygon fill="white" stroke="black" points="782.5,-266.5 782.5,-285.5 954.5,-285.5 954.5,-266.5 782.5,-266.5"/>
<text text-anchor="middle" x="868.5" y="-273.5" font-family="Helvetica,sans-Serif" font-size="10.00">JoyButton::updateMouseParams</text>
</a>
</g>
</g>
<!-- Node11&#45;&gt;Node29 -->
<g id="edge29" class="edge">
<title>Node11&#45;&gt;Node29</title>
<path fill="none" stroke="midnightblue" d="M698.37,-310.45C731.34,-303.74 775.66,-294.71 810.65,-287.58"/>
<polygon fill="midnightblue" stroke="midnightblue" points="811.62,-290.95 820.72,-285.53 810.23,-284.1 811.62,-290.95"/>
</g>
<!-- Node30 -->
<g id="node30" class="node">
<title>Node30</title>
<g id="a_node30"><a xlink:href="classJoyButton.html#a258948e91868a4d7c7e256d4959645f7" target="_top" xlink:title=" ">
<polygon fill="white" stroke="black" points="776,-228.5 776,-247.5 961,-247.5 961,-228.5 776,-228.5"/>
<text text-anchor="middle" x="868.5" y="-235.5" font-family="Helvetica,sans-Serif" font-size="10.00">JoyButton::updateMouseProperties</text>
</a>
</g>
</g>
<!-- Node11&#45;&gt;Node30 -->
<g id="edge30" class="edge">
<title>Node11&#45;&gt;Node30</title>
<path fill="none" stroke="midnightblue" d="M667.02,-310.45C690.01,-296.7 734.84,-271.4 776,-257 783.62,-254.33 791.74,-251.99 799.87,-249.93"/>
<polygon fill="midnightblue" stroke="midnightblue" points="800.84,-253.3 809.76,-247.57 799.22,-246.49 800.84,-253.3"/>
</g>
<!-- Node13 -->
<g id="node13" class="node">
<title>Node13</title>
<g id="a_node13"><a xlink:href="classJoyButton.html#a447ec98d3ffd8b2a8668c14d2646851c" target="_top" xlink:title="Get the distance that an element is away from its assigned dead zone.">
<polygon fill="white" stroke="black" points="997,-427 997,-457 1150,-457 1150,-427 997,-427"/>
<text text-anchor="start" x="1005" y="-445" font-family="Helvetica,sans-Serif" font-size="10.00">JoyButton::getDistanceFrom</text>
<text text-anchor="middle" x="1073.5" y="-434" font-family="Helvetica,sans-Serif" font-size="10.00">DeadZone</text>
</a>
</g>
</g>
<!-- Node12&#45;&gt;Node13 -->
<g id="edge12" class="edge">
<title>Node12&#45;&gt;Node13</title>
<path fill="none" stroke="midnightblue" d="M941.64,-458.12C956.18,-456.33 971.6,-454.43 986.55,-452.58"/>
<polygon fill="midnightblue" stroke="midnightblue" points="987.32,-456.02 996.81,-451.32 986.46,-449.07 987.32,-456.02"/>
</g>
<!-- Node18&#45;&gt;Node13 -->
<g id="edge18" class="edge">
<title>Node18&#45;&gt;Node13</title>
<path fill="none" stroke="midnightblue" d="M949.15,-427.42C961.38,-428.86 974.06,-430.36 986.43,-431.82"/>
<polygon fill="midnightblue" stroke="midnightblue" points="986.39,-435.34 996.73,-433.04 987.21,-428.39 986.39,-435.34"/>
</g>
<!-- Node26 -->
<g id="node26" class="node">
<title>Node26</title>
<g id="a_node26"><a xlink:href="classJoyButtonMouseHelper.html#aa6e3c03cba675d1d5836c6f063187a46" target="_top" xlink:title=" ">
<polygon fill="white" stroke="black" points="1009.5,-329 1009.5,-359 1137.5,-359 1137.5,-329 1009.5,-329"/>
<text text-anchor="start" x="1017.5" y="-347" font-family="Helvetica,sans-Serif" font-size="10.00">JoyButtonMouseHelper</text>
<text text-anchor="middle" x="1073.5" y="-336" font-family="Helvetica,sans-Serif" font-size="10.00">::getFirstSpringStatus</text>
</a>
</g>
</g>
<!-- Node25&#45;&gt;Node26 -->
<g id="edge26" class="edge">
<title>Node25&#45;&gt;Node26</title>
<path fill="none" stroke="midnightblue" d="M940.21,-360.29C959.41,-357.93 980.23,-355.36 999.55,-352.98"/>
<polygon fill="midnightblue" stroke="midnightblue" points="1000,-356.46 1009.49,-351.76 999.14,-349.51 1000,-356.46"/>
</g>
<!-- Node27 -->
<g id="node27" class="node">
<title>Node27</title>
<g id="a_node27"><a xlink:href="classJoyButtonMouseHelper.html#a61767df14a44c8a7bd59bb881e708ebb" target="_top" xlink:title=" ">
<polygon fill="white" stroke="black" points="1009.5,-378 1009.5,-408 1137.5,-408 1137.5,-378 1009.5,-378"/>
<text text-anchor="start" x="1017.5" y="-396" font-family="Helvetica,sans-Serif" font-size="10.00">JoyButtonMouseHelper</text>
<text text-anchor="middle" x="1073.5" y="-385" font-family="Helvetica,sans-Serif" font-size="10.00">::setFirstSpringStatus</text>
</a>
</g>
</g>
<!-- Node25&#45;&gt;Node27 -->
<g id="edge27" class="edge">
<title>Node25&#45;&gt;Node27</title>
<path fill="none" stroke="midnightblue" d="M940.21,-377.36C959.41,-379.63 980.23,-382.09 999.55,-384.37"/>
<polygon fill="midnightblue" stroke="midnightblue" points="999.15,-387.85 1009.49,-385.55 999.97,-380.9 999.15,-387.85"/>
</g>
<!-- Node31&#45;&gt;Node3 -->
<g id="edge32" class="edge">
<title>Node31&#45;&gt;Node3</title>
<path fill="none" stroke="midnightblue" d="M451.52,-867.09C473.54,-888.31 516.8,-926.64 561,-947 566.39,-949.48 572.13,-951.65 577.98,-953.54"/>
<polygon fill="midnightblue" stroke="midnightblue" points="577.31,-956.99 587.9,-956.45 579.29,-950.27 577.31,-956.99"/>
</g>
<!-- Node31&#45;&gt;Node4 -->
<g id="edge33" class="edge">
<title>Node31&#45;&gt;Node4</title>
<path fill="none" stroke="midnightblue" d="M464.96,-867.2C489.74,-879.89 526.93,-897.69 561,-909 568.93,-911.63 577.39,-913.99 585.81,-916.08"/>
<polygon fill="midnightblue" stroke="midnightblue" points="585.11,-919.51 595.64,-918.4 586.72,-912.69 585.11,-919.51"/>
</g>
<!-- Node31&#45;&gt;Node5 -->
<g id="edge34" class="edge">
<title>Node31&#45;&gt;Node5</title>
<path fill="none" stroke="midnightblue" d="M499.66,-856.57C562.15,-859.13 659.81,-857.81 740,-833 777.66,-821.35 815.83,-796.49 840.46,-778.36"/>
<polygon fill="midnightblue" stroke="midnightblue" points="842.69,-781.07 848.59,-772.26 838.49,-775.47 842.69,-781.07"/>
</g>
<!-- Node31&#45;&gt;Node8 -->
<g id="edge36" class="edge">
<title>Node31&#45;&gt;Node8</title>
<path fill="none" stroke="midnightblue" d="M499.54,-840.75C526.86,-835.88 558.77,-830.19 586.12,-825.31"/>
<polygon fill="midnightblue" stroke="midnightblue" points="586.75,-828.75 595.98,-823.55 585.52,-821.86 586.75,-828.75"/>
</g>
<!-- Node32 -->
<g id="node32" class="node">
<title>Node32</title>
<g id="a_node32"><a xlink:href="classJoyButton.html#adcbf2eb84178a075252fd096c5aee4e9" target="_top" xlink:title=" ">
<polygon fill="white" stroke="black" points="577.5,-755 577.5,-785 723.5,-785 723.5,-755 577.5,-755"/>
<text text-anchor="start" x="585.5" y="-773" font-family="Helvetica,sans-Serif" font-size="10.00">JoyButton::getStaticMouse</text>
<text text-anchor="middle" x="650.5" y="-762" font-family="Helvetica,sans-Serif" font-size="10.00">EventTimer</text>
</a>
</g>
</g>
<!-- Node31&#45;&gt;Node32 -->
<g id="edge35" class="edge">
<title>Node31&#45;&gt;Node32</title>
<path fill="none" stroke="midnightblue" d="M466.14,-836.86C491.03,-824.53 527.76,-807.22 561,-795 567.7,-792.54 574.75,-790.17 581.84,-787.95"/>
<polygon fill="midnightblue" stroke="midnightblue" points="582.94,-791.27 591.49,-785 580.9,-784.57 582.94,-791.27"/>
</g>
<!-- Node33 -->
<g id="node33" class="node">
<title>Node33</title>
<g id="a_node33"><a xlink:href="classJoyButton.html#a060348f59642e22bba34b79acc7d5a28" target="_top" xlink:title="Take cursor mouse information provided by all buttons and send a cursor mode mouse event to the displ...">
<polygon fill="white" stroke="black" points="570,-880.5 570,-899.5 731,-899.5 731,-880.5 570,-880.5"/>
<text text-anchor="middle" x="650.5" y="-887.5" font-family="Helvetica,sans-Serif" font-size="10.00">JoyButton::moveMouseCursor</text>
</a>
</g>
</g>
<!-- Node31&#45;&gt;Node33 -->
<g id="edge37" class="edge">
<title>Node31&#45;&gt;Node33</title>
<path fill="none" stroke="midnightblue" d="M499.54,-863.25C526.86,-868.12 558.77,-873.81 586.12,-878.69"/>
<polygon fill="midnightblue" stroke="midnightblue" points="585.52,-882.14 595.98,-880.45 586.75,-875.25 585.52,-882.14"/>
</g>
<!-- Node33&#45;&gt;Node19 -->
<g id="edge40" class="edge">
<title>Node33&#45;&gt;Node19</title>
<path fill="none" stroke="midnightblue" d="M675.79,-880.39C695.95,-871.18 723.83,-855.36 740,-833 777.39,-781.29 729.79,-738.01 776,-694 777.5,-692.57 779.07,-691.24 780.72,-690"/>
<polygon fill="midnightblue" stroke="midnightblue" points="782.84,-692.8 789.42,-684.5 779.1,-686.88 782.84,-692.8"/>
</g>
<!-- Node34 -->
<g id="node34" class="node">
<title>Node34</title>
<g id="a_node34"><a xlink:href="classJoyButton.html#a699f062ddf1b266d5ccfc88dd70d9666" target="_top" xlink:title=" ">
<polygon fill="white" stroke="black" points="789,-918.5 789,-937.5 948,-937.5 948,-918.5 789,-918.5"/>
<text text-anchor="middle" x="868.5" y="-925.5" font-family="Helvetica,sans-Serif" font-size="10.00">JoyButton::adjustAxForCursor</text>
</a>
</g>
</g>
<!-- Node33&#45;&gt;Node34 -->
<g id="edge38" class="edge">
<title>Node33&#45;&gt;Node34</title>
<path fill="none" stroke="midnightblue" d="M705.73,-899.54C735.38,-904.76 772.3,-911.25 803.38,-916.72"/>
<polygon fill="midnightblue" stroke="midnightblue" points="802.8,-920.17 813.25,-918.46 804.01,-913.28 802.8,-920.17"/>
</g>
<!-- Node35 -->
<g id="node35" class="node">
<title>Node35</title>
<g id="a_node35"><a xlink:href="classJoyButton.html#af33b4a6f64f9dcac7450eed7ad2697e1" target="_top" xlink:title="Combines mouse movement distances from multiple mouse mappings.">
<polygon fill="white" stroke="black" points="781,-880.5 781,-899.5 956,-899.5 956,-880.5 781,-880.5"/>
<text text-anchor="middle" x="868.5" y="-887.5" font-family="Helvetica,sans-Serif" font-size="10.00">JoyButton::distanceForMovingAx</text>
</a>
</g>
</g>
<!-- Node33&#45;&gt;Node35 -->
<g id="edge39" class="edge">
<title>Node33&#45;&gt;Node35</title>
<path fill="none" stroke="midnightblue" d="M731.01,-890C743.95,-890 757.48,-890 770.78,-890"/>
<polygon fill="midnightblue" stroke="midnightblue" points="770.89,-893.5 780.89,-890 770.89,-886.5 770.89,-893.5"/>
</g>
<!-- Node36 -->
<g id="node36" class="node">
<title>Node36</title>
<g id="a_node36"><a xlink:href="event_8cpp.html#a42a7842a656f2dfc8b8545391502de03" target="_top" xlink:title=" ">
<polygon fill="white" stroke="red" points="1039.5,-842.5 1039.5,-861.5 1107.5,-861.5 1107.5,-842.5 1039.5,-842.5"/>
<text text-anchor="middle" x="1073.5" y="-849.5" font-family="Helvetica,sans-Serif" font-size="10.00">sendevent</text>
</a>
</g>
</g>
<!-- Node33&#45;&gt;Node36 -->
<g id="edge41" class="edge">
<title>Node33&#45;&gt;Node36</title>
<path fill="none" stroke="midnightblue" d="M706.83,-880.49C728.37,-877.07 753.28,-873.46 776,-871 865.55,-861.32 970.9,-856 1028.82,-853.6"/>
<polygon fill="midnightblue" stroke="midnightblue" points="1029.22,-857.09 1039.07,-853.19 1028.94,-850.1 1029.22,-857.09"/>
</g>
<!-- Node37 -->
<g id="node37" class="node">
<title>Node37</title>
<g id="a_node37"><a xlink:href="event_8cpp.html#a5d4afd531123bc0d5093ae323f20519f" target="_top" xlink:title="detects executor for selected file (for .py files python, for .exe &quot;&quot; etc)">
<polygon fill="white" stroke="black" points="1225.5,-861.5 1225.5,-880.5 1328.5,-880.5 1328.5,-861.5 1225.5,-861.5"/>
<text text-anchor="middle" x="1277" y="-868.5" font-family="Helvetica,sans-Serif" font-size="10.00">detectedScriptExt</text>
</a>
</g>
</g>
<!-- Node36&#45;&gt;Node37 -->
<g id="edge42" class="edge">
<title>Node36&#45;&gt;Node37</title>
<path fill="none" stroke="midnightblue" d="M1107.77,-855.14C1136.87,-857.88 1179.86,-861.94 1215.1,-865.26"/>
<polygon fill="midnightblue" stroke="midnightblue" points="1215.01,-868.76 1225.29,-866.22 1215.66,-861.8 1215.01,-868.76"/>
</g>
<!-- Node38 -->
<g id="node38" class="node">
<title>Node38</title>
<g id="a_node38"><a xlink:href="classJoyButtonSlot.html#afdcd95c7e86430f19bee3decaf7b61f2" target="_top" xlink:title=" ">
<polygon fill="white" stroke="black" points="1200.5,-823.5 1200.5,-842.5 1353.5,-842.5 1353.5,-823.5 1200.5,-823.5"/>
<text text-anchor="middle" x="1277" y="-830.5" font-family="Helvetica,sans-Serif" font-size="10.00">JoyButtonSlot::getExtraData</text>
</a>
</g>
</g>
<!-- Node36&#45;&gt;Node38 -->
<g id="edge43" class="edge">
<title>Node36&#45;&gt;Node38</title>
<path fill="none" stroke="midnightblue" d="M1107.77,-848.86C1130.27,-846.74 1161.08,-843.84 1190.18,-841.09"/>
<polygon fill="midnightblue" stroke="midnightblue" points="1190.76,-844.55 1200.39,-840.13 1190.11,-837.58 1190.76,-844.55"/>
</g>
<!-- Node39 -->
<g id="node39" class="node">
<title>Node39</title>
<g id="a_node39"><a xlink:href="classEventHandlerFactory.html#a90ce153a19fbb91128bd52eb083ce271" target="_top" xlink:title=" ">
<polygon fill="white" stroke="red" points="1218,-698 1218,-728 1336,-728 1336,-698 1218,-698"/>
<text text-anchor="start" x="1226" y="-716" font-family="Helvetica,sans-Serif" font-size="10.00">EventHandlerFactory</text>
<text text-anchor="middle" x="1277" y="-705" font-family="Helvetica,sans-Serif" font-size="10.00">::getInstance</text>
</a>
</g>
</g>
<!-- Node36&#45;&gt;Node39 -->
<g id="edge44" class="edge">
<title>Node36&#45;&gt;Node39</title>
<path fill="none" stroke="midnightblue" d="M1081.78,-842.37C1098.15,-821.36 1140.02,-771.06 1186,-743 1192.9,-738.79 1200.45,-735.09 1208.17,-731.87"/>
<polygon fill="midnightblue" stroke="midnightblue" points="1209.59,-735.07 1217.62,-728.16 1207.03,-728.55 1209.59,-735.07"/>
</g>
<!-- Node42 -->
<g id="node40" class="node">
<title>Node42</title>
<g id="a_node40"><a xlink:href="classEventHandlerFactory.html#a4c13007f0ece5bf881080c9c04f1f20d" target="_top" xlink:title=" ">
<polygon fill="white" stroke="black" points="1404,-698 1404,-728 1522,-728 1522,-698 1404,-698"/>
<text text-anchor="start" x="1412" y="-716" font-family="Helvetica,sans-Serif" font-size="10.00">EventHandlerFactory</text>
<text text-anchor="middle" x="1463" y="-705" font-family="Helvetica,sans-Serif" font-size="10.00">::handler</text>
</a>
</g>
</g>
<!-- Node36&#45;&gt;Node42 -->
<g id="edge48" class="edge">
<title>Node36&#45;&gt;Node42</title>
<path fill="none" stroke="midnightblue" d="M1085.35,-842.43C1104.36,-826.2 1145.52,-793.34 1186,-776 1262.04,-743.43 1287.46,-755.9 1368,-737 1376.58,-734.99 1385.58,-732.79 1394.46,-730.58"/>
<polygon fill="midnightblue" stroke="midnightblue" points="1395.58,-733.91 1404.42,-728.08 1393.87,-727.12 1395.58,-733.91"/>
</g>
<!-- Node44 -->
<g id="node41" class="node">
<title>Node44</title>
<g id="a_node41"><a xlink:href="classJoyButtonSlot.html#a86b4a25191351f28942511012a4e4e4a" target="_top" xlink:title=" ">
<polygon fill="white" stroke="black" points="1202,-785.5 1202,-804.5 1352,-804.5 1352,-785.5 1202,-785.5"/>
<text text-anchor="middle" x="1277" y="-792.5" font-family="Helvetica,sans-Serif" font-size="10.00">JoyButtonSlot::getSlotMode</text>
</a>
</g>
</g>
<!-- Node36&#45;&gt;Node44 -->
<g id="edge46" class="edge">
<title>Node36&#45;&gt;Node44</title>
<path fill="none" stroke="midnightblue" d="M1099.91,-842.36C1122.34,-834.09 1156.03,-822.24 1186,-814 1195.47,-811.4 1205.58,-808.95 1215.49,-806.73"/>
<polygon fill="midnightblue" stroke="midnightblue" points="1216.26,-810.14 1225.29,-804.59 1214.77,-803.3 1216.26,-810.14"/>
</g>
<!-- Node45 -->
<g id="node42" class="node">
<title>Node45</title>
<g id="a_node42"><a xlink:href="classJoyButtonSlot.html#aa08ff979d05b38df8f584b77bb750abb" target="_top" xlink:title=" ">
<polygon fill="white" stroke="black" points="1203,-1047.5 1203,-1066.5 1351,-1066.5 1351,-1047.5 1203,-1047.5"/>
<text text-anchor="middle" x="1277" y="-1054.5" font-family="Helvetica,sans-Serif" font-size="10.00">JoyButtonSlot::getTextData</text>
</a>
</g>
</g>
<!-- Node36&#45;&gt;Node45 -->
<g id="edge47" class="edge">
<title>Node36&#45;&gt;Node45</title>
<path fill="none" stroke="midnightblue" d="M1077.22,-861.6C1086.56,-892.68 1120.4,-991.22 1186,-1038 1188.58,-1039.84 1191.31,-1041.51 1194.13,-1043.03"/>
<polygon fill="midnightblue" stroke="midnightblue" points="1192.92,-1046.32 1203.47,-1047.35 1195.86,-1039.97 1192.92,-1046.32"/>
</g>
<!-- Node46 -->
<g id="node43" class="node">
<title>Node46</title>
<g id="a_node43"><a xlink:href="namespacePadderCommon.html#a1bf383168922bc793ea7d5d99a975d38" target="_top" xlink:title=" ">
<polygon fill="white" stroke="black" points="1187,-998 1187,-1028 1367,-1028 1367,-998 1187,-998"/>
<text text-anchor="start" x="1195" y="-1016" font-family="Helvetica,sans-Serif" font-size="10.00">PadderCommon::parseArguments</text>
<text text-anchor="middle" x="1277" y="-1005" font-family="Helvetica,sans-Serif" font-size="10.00">String</text>
</a>
</g>
</g>
<!-- Node36&#45;&gt;Node46 -->
<g id="edge49" class="edge">
<title>Node36&#45;&gt;Node46</title>
<path fill="none" stroke="midnightblue" d="M1079.53,-861.71C1093.08,-886.89 1132.96,-954.69 1186,-989 1188.48,-990.61 1191.07,-992.1 1193.73,-993.5"/>
<polygon fill="midnightblue" stroke="midnightblue" points="1192.51,-996.79 1203.04,-997.88 1195.49,-990.46 1192.51,-996.79"/>
</g>
<!-- Node47 -->
<g id="node44" class="node">
<title>Node47</title>
<g id="a_node44"><a xlink:href="classBaseEventHandler.html#afd723bd1451d78a34976642783026c40" target="_top" xlink:title=" ">
<polygon fill="white" stroke="black" points="1186,-949 1186,-979 1368,-979 1368,-949 1186,-949"/>
<text text-anchor="start" x="1194" y="-967" font-family="Helvetica,sans-Serif" font-size="10.00">BaseEventHandler::sendKeyboard</text>
<text text-anchor="middle" x="1277" y="-956" font-family="Helvetica,sans-Serif" font-size="10.00">Event</text>
</a>
</g>
</g>
<!-- Node36&#45;&gt;Node47 -->
<g id="edge50" class="edge">
<title>Node36&#45;&gt;Node47</title>
<path fill="none" stroke="midnightblue" d="M1083.98,-861.77C1102.11,-879.9 1143.67,-918.79 1186,-940 1189.82,-941.91 1193.82,-943.69 1197.9,-945.33"/>
<polygon fill="midnightblue" stroke="midnightblue" points="1196.98,-948.73 1207.57,-948.94 1199.43,-942.17 1196.98,-948.73"/>
</g>
<!-- Node48 -->
<g id="node45" class="node">
<title>Node48</title>
<g id="a_node45"><a xlink:href="classBaseEventHandler.html#a068ae99c4210979beb9e397960f33641" target="_top" xlink:title=" ">
<polygon fill="white" stroke="black" points="1193,-900 1193,-930 1361,-930 1361,-900 1193,-900"/>
<text text-anchor="start" x="1201" y="-918" font-family="Helvetica,sans-Serif" font-size="10.00">BaseEventHandler::sendMouse</text>
<text text-anchor="middle" x="1277" y="-907" font-family="Helvetica,sans-Serif" font-size="10.00">ButtonEvent</text>
</a>
</g>
</g>
<!-- Node36&#45;&gt;Node48 -->
<g id="edge51" class="edge">
<title>Node36&#45;&gt;Node48</title>
<path fill="none" stroke="midnightblue" d="M1101.4,-861.65C1123.89,-869.61 1156.89,-881 1186,-890 1193.71,-892.38 1201.82,-894.78 1209.89,-897.11"/>
<polygon fill="midnightblue" stroke="midnightblue" points="1209.11,-900.52 1219.68,-899.89 1211.02,-893.79 1209.11,-900.52"/>
</g>
<!-- Node39&#45;&gt;Node42 -->
<g id="edge45" class="edge">
<title>Node39&#45;&gt;Node42</title>
<path fill="none" stroke="midnightblue" d="M1336.22,-713C1354.51,-713 1374.88,-713 1393.8,-713"/>
<polygon fill="midnightblue" stroke="midnightblue" points="1393.84,-716.5 1403.84,-713 1393.84,-709.5 1393.84,-716.5"/>
</g>
<!-- Node50&#45;&gt;Node5 -->
<g id="edge53" class="edge">
<title>Node50&#45;&gt;Node5</title>
<path fill="none" stroke="midnightblue" d="M499.59,-680.84C562.03,-681.4 659.64,-686.89 740,-712 757.47,-717.46 759.05,-725.09 776,-732 781.9,-734.41 788.12,-736.66 794.41,-738.74"/>
<polygon fill="midnightblue" stroke="midnightblue" points="793.73,-742.2 804.32,-741.88 795.85,-735.53 793.73,-742.2"/>
</g>
<!-- Node50&#45;&gt;Node6 -->
<g id="edge54" class="edge">
<title>Node50&#45;&gt;Node6</title>
<path fill="none" stroke="midnightblue" d="M486.8,-666.91C499.46,-662.57 512.89,-657.51 525,-652 541.86,-644.32 543.73,-637.69 561,-631 567.75,-628.38 574.94,-626.09 582.18,-624.1"/>
<polygon fill="midnightblue" stroke="midnightblue" points="583.25,-627.44 592.07,-621.55 581.51,-620.66 583.25,-627.44"/>
</g>
<!-- Node50&#45;&gt;Node7 -->
<g id="edge55" class="edge">
<title>Node50&#45;&gt;Node7</title>
<path fill="none" stroke="midnightblue" d="M455.67,-666.81C484.7,-644.08 538.76,-602.83 561,-593 566.75,-590.46 572.87,-588.25 579.1,-586.32"/>
<polygon fill="midnightblue" stroke="midnightblue" points="580.28,-589.63 588.94,-583.53 578.37,-582.89 580.28,-589.63"/>
</g>
<!-- Node50&#45;&gt;Node32 -->
<g id="edge56" class="edge">
<title>Node50&#45;&gt;Node32</title>
<path fill="none" stroke="midnightblue" d="M473.12,-697.13C509.19,-712.03 564.42,-734.85 603.45,-750.98"/>
<polygon fill="midnightblue" stroke="midnightblue" points="602.43,-754.34 613.01,-754.92 605.1,-747.87 602.43,-754.34"/>
</g>
<!-- Node51 -->
<g id="node47" class="node">
<title>Node51</title>
<g id="a_node47"><a xlink:href="classJoyButton.html#a006c7284a13ca61c95b259c4ea99cb3e" target="_top" xlink:title="Take spring mouse information provided by all buttons and send a spring mode mouse event to the displ...">
<polygon fill="white" stroke="black" points="570,-640.5 570,-659.5 731,-659.5 731,-640.5 570,-640.5"/>
<text text-anchor="middle" x="650.5" y="-647.5" font-family="Helvetica,sans-Serif" font-size="10.00">JoyButton::moveSpringMouse</text>
</a>
</g>
</g>
<!-- Node50&#45;&gt;Node51 -->
<g id="edge57" class="edge">
<title>Node50&#45;&gt;Node51</title>
<path fill="none" stroke="midnightblue" d="M499.54,-672.53C523.59,-668.92 551.2,-664.77 576.12,-661.02"/>
<polygon fill="midnightblue" stroke="midnightblue" points="576.88,-664.45 586.25,-659.5 575.84,-657.53 576.88,-664.45"/>
</g>
<!-- Node51&#45;&gt;Node5 -->
<g id="edge58" class="edge">
<title>Node51&#45;&gt;Node5</title>
<path fill="none" stroke="midnightblue" d="M711,-659.51C721.31,-662.95 731.45,-667.63 740,-674 764.33,-692.12 751.68,-713.86 776,-732 778.49,-733.86 781.12,-735.58 783.84,-737.18"/>
<polygon fill="midnightblue" stroke="midnightblue" points="782.33,-740.34 792.82,-741.84 785.56,-734.13 782.33,-740.34"/>
</g>
<!-- Node52 -->
<g id="node48" class="node">
<title>Node52</title>
<g id="a_node48"><a xlink:href="classJoyButton.html#a34a8805484ce36fa278fa64927d5dc9d" target="_top" xlink:title=" ">
<polygon fill="white" stroke="black" points="794,-616 794,-646 943,-646 943,-616 794,-616"/>
<text text-anchor="start" x="802" y="-634" font-family="Helvetica,sans-Serif" font-size="10.00">JoyButton::hasFutureSpring</text>
<text text-anchor="middle" x="868.5" y="-623" font-family="Helvetica,sans-Serif" font-size="10.00">Events</text>
</a>
</g>
</g>
<!-- Node51&#45;&gt;Node52 -->
<g id="edge59" class="edge">
<title>Node51&#45;&gt;Node52</title>
<path fill="none" stroke="midnightblue" d="M731.01,-643.01C748.21,-641.49 766.44,-639.89 783.79,-638.36"/>
<polygon fill="midnightblue" stroke="midnightblue" points="784.23,-641.84 793.89,-637.48 783.62,-634.86 784.23,-641.84"/>
</g>
<!-- Node53 -->
<g id="node49" class="node">
<title>Node53</title>
<g id="a_node49"><a xlink:href="event_8cpp.html#acc12de75aab8788c0c43cab07732127a" target="_top" xlink:title=" ">
<polygon fill="white" stroke="red" points="819.5,-703.5 819.5,-722.5 917.5,-722.5 917.5,-703.5 819.5,-703.5"/>
<text text-anchor="middle" x="868.5" y="-710.5" font-family="Helvetica,sans-Serif" font-size="10.00">sendSpringEvent</text>
</a>
</g>
</g>
<!-- Node51&#45;&gt;Node53 -->
<g id="edge61" class="edge">
<title>Node51&#45;&gt;Node53</title>
<path fill="none" stroke="midnightblue" d="M694.95,-659.55C709.52,-663.33 725.69,-668.19 740,-674 756.96,-680.89 758.84,-687.62 776,-694 786.59,-697.94 798.18,-701.14 809.45,-703.71"/>
<polygon fill="midnightblue" stroke="midnightblue" points="808.73,-707.13 819.24,-705.81 810.2,-700.29 808.73,-707.13"/>
</g>
<!-- Node52&#45;&gt;Node20 -->
<g id="edge60" class="edge">
<title>Node52&#45;&gt;Node20</title>
<path fill="none" stroke="midnightblue" d="M925.73,-615.99C937.41,-612.78 949.62,-609.34 961,-606 985.2,-598.9 1012.19,-590.44 1033.55,-583.62"/>
<polygon fill="midnightblue" stroke="midnightblue" points="1034.79,-586.9 1043.25,-580.51 1032.66,-580.23 1034.79,-586.9"/>
</g>
<!-- Node53&#45;&gt;Node36 -->
<g id="edge64" class="edge">
<title>Node53&#45;&gt;Node36</title>
<path fill="none" stroke="midnightblue" d="M917.56,-717.29C932.19,-720.06 947.86,-724.59 961,-732 1005.98,-757.36 1043.25,-807.12 1061.12,-833.91"/>
<polygon fill="midnightblue" stroke="midnightblue" points="1058.22,-835.87 1066.61,-842.35 1064.09,-832.05 1058.22,-835.87"/>
</g>
<!-- Node53&#45;&gt;Node39 -->
<g id="edge62" class="edge">
<title>Node53&#45;&gt;Node39</title>
<path fill="none" stroke="midnightblue" d="M917.73,-713C989.63,-713 1125.25,-713 1207.44,-713"/>
<polygon fill="midnightblue" stroke="midnightblue" points="1207.68,-716.5 1217.68,-713 1207.68,-709.5 1207.68,-716.5"/>
</g>
<!-- Node53&#45;&gt;Node42 -->
<g id="edge63" class="edge">
<title>Node53&#45;&gt;Node42</title>
<path fill="none" stroke="midnightblue" d="M917.5,-704.89C1006.65,-691.09 1203.67,-666.52 1368,-688 1380.17,-689.59 1393,-692.29 1405.14,-695.35"/>
<polygon fill="midnightblue" stroke="midnightblue" points="1404.58,-698.82 1415.14,-697.98 1406.36,-692.05 1404.58,-698.82"/>
</g>
</g>
</svg>
