<?xml version="1.0" encoding="UTF-8" standalone="no"?>
<!DOCTYPE svg PUBLIC "-//W3C//DTD SVG 1.1//EN"
 "http://www.w3.org/Graphics/SVG/1.1/DTD/svg11.dtd">
<!-- Generated by graphviz version 2.43.0 (0)
 -->
<!-- Title: JoyDPad Pages: 1 -->
<svg width="2258pt" height="685pt"
 viewBox="0.00 0.00 2258.00 685.28" xmlns="http://www.w3.org/2000/svg" xmlns:xlink="http://www.w3.org/1999/xlink">
<g id="graph0" class="graph" transform="scale(1 1) rotate(0) translate(4 681.28)">
<title>JoyDPad</title>
<polygon fill="white" stroke="transparent" points="-4,4 -4,-681.28 2254,-681.28 2254,4 -4,4"/>
<!-- Node1 -->
<g id="node1" class="node">
<title>Node1</title>
<g id="a_node1"><a xlink:title=" ">
<polygon fill="#bfbfbf" stroke="black" points="307.5,-175.78 307.5,-194.78 363.5,-194.78 363.5,-175.78 307.5,-175.78"/>
<text text-anchor="middle" x="335.5" y="-182.78" font-family="Helvetica,sans-Serif" font-size="10.00">JoyDPad</text>
</a>
</g>
</g>
<!-- Node12 -->
<g id="node12" class="node">
<title>Node12</title>
<g id="a_node12"><a xlink:href="classVDPad.html" target="_top" xlink:title=" ">
<polygon fill="white" stroke="black" points="577,-251.78 577,-270.78 625,-270.78 625,-251.78 577,-251.78"/>
<text text-anchor="middle" x="601" y="-258.78" font-family="Helvetica,sans-Serif" font-size="10.00">VDPad</text>
</a>
</g>
</g>
<!-- Node1&#45;&gt;Node12 -->
<g id="edge20" class="edge">
<title>Node1&#45;&gt;Node12</title>
<path fill="none" stroke="midnightblue" d="M373.43,-195.93C428.6,-211.84 530.94,-241.36 576.76,-254.57"/>
<polygon fill="midnightblue" stroke="midnightblue" points="374.28,-192.53 363.71,-193.12 372.35,-199.26 374.28,-192.53"/>
</g>
<!-- Node22 -->
<g id="node22" class="node">
<title>Node22</title>
<g id="a_node22"><a xlink:href="classJoyDPadButton.html" target="_top" xlink:title=" ">
<polygon fill="white" stroke="black" points="984.5,-175.78 984.5,-194.78 1073.5,-194.78 1073.5,-175.78 984.5,-175.78"/>
<text text-anchor="middle" x="1029" y="-182.78" font-family="Helvetica,sans-Serif" font-size="10.00">JoyDPadButton</text>
</a>
</g>
</g>
<!-- Node1&#45;&gt;Node22 -->
<g id="edge42" class="edge">
<title>Node1&#45;&gt;Node22</title>
<path fill="none" stroke="#9a32cd" stroke-dasharray="5,2" d="M373.97,-182.4C451.83,-176.79 636.79,-165.35 792,-170.28 859.09,-172.41 936.75,-177.93 984.11,-181.65"/>
<polygon fill="#9a32cd" stroke="#9a32cd" points="373.43,-178.93 363.71,-183.15 373.94,-185.91 373.43,-178.93"/>
<text text-anchor="middle" x="737.5" y="-173.28" font-family="Helvetica,sans-Serif" font-size="10.00"> m_dpad</text>
</g>
<!-- Node2 -->
<g id="node2" class="node">
<title>Node2</title>
<g id="a_node2"><a xlink:title=" ">
<polygon fill="white" stroke="#bfbfbf" points="124.5,-350.78 124.5,-369.78 180.5,-369.78 180.5,-350.78 124.5,-350.78"/>
<text text-anchor="middle" x="152.5" y="-357.78" font-family="Helvetica,sans-Serif" font-size="10.00">QObject</text>
</a>
</g>
</g>
<!-- Node2&#45;&gt;Node1 -->
<g id="edge1" class="edge">
<title>Node2&#45;&gt;Node1</title>
<path fill="none" stroke="midnightblue" d="M156.61,-340.61C162.85,-308.01 180.07,-243.01 222,-209.28 246.12,-189.87 282.27,-185.17 307.05,-184.47"/>
<polygon fill="midnightblue" stroke="midnightblue" points="153.12,-340.23 154.84,-350.69 160.02,-341.45 153.12,-340.23"/>
</g>
<!-- Node4 -->
<g id="node4" class="node">
<title>Node4</title>
<g id="a_node4"><a xlink:href="classSetJoystickXml.html" target="_top" xlink:title="SetJoystick XML serialization/deserialization helper class Reads data from the supplied SetJoystick o...">
<polygon fill="white" stroke="black" points="1981,-440.78 1981,-459.78 2071,-459.78 2071,-440.78 1981,-440.78"/>
<text text-anchor="middle" x="2026" y="-447.78" font-family="Helvetica,sans-Serif" font-size="10.00">SetJoystickXml</text>
</a>
</g>
</g>
<!-- Node2&#45;&gt;Node4 -->
<g id="edge4" class="edge">
<title>Node2&#45;&gt;Node4</title>
<path fill="none" stroke="midnightblue" d="M165.43,-341.96C191.34,-304.64 256.75,-223.28 334.5,-223.28 334.5,-223.28 334.5,-223.28 1844,-223.28 1956.91,-223.28 2010.8,-397.07 2022.52,-440.52"/>
<polygon fill="midnightblue" stroke="midnightblue" points="162.41,-340.18 159.71,-350.42 168.21,-344.1 162.41,-340.18"/>
</g>
<!-- Node5 -->
<g id="node5" class="node">
<title>Node5</title>
<g id="a_node5"><a xlink:href="classJoyAxisXml.html" target="_top" xlink:title=" ">
<polygon fill="white" stroke="black" points="1807,-656.78 1807,-675.78 1879,-675.78 1879,-656.78 1807,-656.78"/>
<text text-anchor="middle" x="1843" y="-663.78" font-family="Helvetica,sans-Serif" font-size="10.00">JoyAxisXml</text>
</a>
</g>
</g>
<!-- Node2&#45;&gt;Node5 -->
<g id="edge7" class="edge">
<title>Node2&#45;&gt;Node5</title>
<path fill="none" stroke="midnightblue" d="M156.02,-380.06C163.5,-435.95 187.28,-593.37 222,-630.28 257.97,-668.52 282,-666.28 334.5,-666.28 334.5,-666.28 334.5,-666.28 1655.5,-666.28 1708.28,-666.28 1769.45,-666.28 1806.94,-666.28"/>
<polygon fill="midnightblue" stroke="midnightblue" points="159.47,-379.49 154.7,-370.03 152.53,-380.4 159.47,-379.49"/>
</g>
<!-- Node6 -->
<g id="node6" class="node">
<title>Node6</title>
<g id="a_node6"><a xlink:href="classJoyAxis.html" target="_top" xlink:title="Represents single axis of of joystick (or other input)">
<polygon fill="white" stroke="black" points="1628,-490.78 1628,-509.78 1681,-509.78 1681,-490.78 1628,-490.78"/>
<text text-anchor="middle" x="1654.5" y="-497.78" font-family="Helvetica,sans-Serif" font-size="10.00">JoyAxis</text>
</a>
</g>
</g>
<!-- Node2&#45;&gt;Node6 -->
<g id="edge9" class="edge">
<title>Node2&#45;&gt;Node6</title>
<path fill="none" stroke="midnightblue" d="M158.59,-379.86C174.34,-435.46 227.78,-590.28 334.5,-590.28 334.5,-590.28 334.5,-590.28 1440.5,-590.28 1522.4,-590.28 1609.03,-533.13 1640.84,-509.91"/>
<polygon fill="midnightblue" stroke="midnightblue" points="161.87,-378.59 155.87,-369.87 155.12,-380.43 161.87,-378.59"/>
</g>
<!-- Node9 -->
<g id="node9" class="node">
<title>Node9</title>
<g id="a_node9"><a xlink:href="classJoyButton.html" target="_top" xlink:title="Represents a single joystick button being part of a SetJoystick Contains multiple JoyButtonSlots whic...">
<polygon fill="white" stroke="black" points="810,-373.78 810,-392.78 874,-392.78 874,-373.78 810,-373.78"/>
<text text-anchor="middle" x="842" y="-380.78" font-family="Helvetica,sans-Serif" font-size="10.00">JoyButton</text>
</a>
</g>
</g>
<!-- Node2&#45;&gt;Node9 -->
<g id="edge14" class="edge">
<title>Node2&#45;&gt;Node9</title>
<path fill="none" stroke="midnightblue" d="M190.86,-360.19C216.05,-360.16 250.02,-360.15 280,-360.28 386.23,-360.72 412.83,-358.72 519,-362.28 640.47,-366.34 670.85,-368.55 792,-378.28 797.8,-378.74 803.97,-379.31 809.91,-379.9"/>
<polygon fill="midnightblue" stroke="midnightblue" points="190.64,-356.69 180.64,-360.21 190.65,-363.69 190.64,-356.69"/>
</g>
<!-- Node10 -->
<g id="node10" class="node">
<title>Node10</title>
<g id="a_node10"><a xlink:href="classJoyButtonMouseHelper.html" target="_top" xlink:title=" ">
<polygon fill="white" stroke="black" points="391,-474.78 391,-493.78 519,-493.78 519,-474.78 391,-474.78"/>
<text text-anchor="middle" x="455" y="-481.78" font-family="Helvetica,sans-Serif" font-size="10.00">JoyButtonMouseHelper</text>
</a>
</g>
</g>
<!-- Node2&#45;&gt;Node10 -->
<g id="edge16" class="edge">
<title>Node2&#45;&gt;Node10</title>
<path fill="none" stroke="midnightblue" d="M186.13,-373.74C247.29,-398.98 377.78,-452.82 430.84,-474.72"/>
<polygon fill="midnightblue" stroke="midnightblue" points="187.16,-370.38 176.58,-369.8 184.49,-376.85 187.16,-370.38"/>
</g>
<!-- Node11 -->
<g id="node11" class="node">
<title>Node11</title>
<g id="a_node11"><a xlink:href="classJoyButtonSlot.html" target="_top" xlink:title="Represents action which can be performed after pressing button.">
<polygon fill="white" stroke="black" points="413.5,-371.78 413.5,-390.78 496.5,-390.78 496.5,-371.78 413.5,-371.78"/>
<text text-anchor="middle" x="455" y="-378.78" font-family="Helvetica,sans-Serif" font-size="10.00">JoyButtonSlot</text>
</a>
</g>
</g>
<!-- Node2&#45;&gt;Node11 -->
<g id="edge18" class="edge">
<title>Node2&#45;&gt;Node11</title>
<path fill="none" stroke="midnightblue" d="M191.01,-362.9C247.74,-366.86 354.92,-374.35 413.41,-378.44"/>
<polygon fill="midnightblue" stroke="midnightblue" points="190.92,-359.38 180.7,-362.18 190.43,-366.37 190.92,-359.38"/>
</g>
<!-- Node13 -->
<g id="node13" class="node">
<title>Node13</title>
<g id="a_node13"><a xlink:href="classJoyControlStick.html" target="_top" xlink:title="Represents stick of a joystick.">
<polygon fill="white" stroke="black" points="1394,-344.78 1394,-363.78 1485,-363.78 1485,-344.78 1394,-344.78"/>
<text text-anchor="middle" x="1439.5" y="-351.78" font-family="Helvetica,sans-Serif" font-size="10.00">JoyControlStick</text>
</a>
</g>
</g>
<!-- Node2&#45;&gt;Node13 -->
<g id="edge23" class="edge">
<title>Node2&#45;&gt;Node13</title>
<path fill="none" stroke="midnightblue" d="M178.67,-345.97C212.83,-327.94 276.3,-299.28 334.5,-299.28 334.5,-299.28 334.5,-299.28 1201.5,-299.28 1280.91,-299.28 1371.5,-328.94 1414.03,-344.7"/>
<polygon fill="midnightblue" stroke="midnightblue" points="176.98,-342.91 169.84,-350.74 180.31,-349.07 176.98,-342.91"/>
</g>
<!-- Node17 -->
<g id="node17" class="node">
<title>Node17</title>
<g id="a_node17"><a xlink:href="classJoyButtonXml.html" target="_top" xlink:title=" ">
<polygon fill="white" stroke="black" points="987.5,-618.78 987.5,-637.78 1070.5,-637.78 1070.5,-618.78 987.5,-618.78"/>
<text text-anchor="middle" x="1029" y="-625.78" font-family="Helvetica,sans-Serif" font-size="10.00">JoyButtonXml</text>
</a>
</g>
</g>
<!-- Node2&#45;&gt;Node17 -->
<g id="edge32" class="edge">
<title>Node2&#45;&gt;Node17</title>
<path fill="none" stroke="midnightblue" d="M152.71,-380.22C152.01,-426.83 157.23,-543.49 222,-604.28 259.28,-639.26 283.37,-628.28 334.5,-628.28 334.5,-628.28 334.5,-628.28 843,-628.28 892.62,-628.28 949.73,-628.28 987.22,-628.28"/>
<polygon fill="midnightblue" stroke="midnightblue" points="156.21,-380.05 152.98,-369.96 149.21,-379.87 156.21,-380.05"/>
</g>
<!-- Node18 -->
<g id="node18" class="node">
<title>Node18</title>
<g id="a_node18"><a xlink:href="classInputDevice.html" target="_top" xlink:title="Abstract class representing a hardware input device, e.g a joystick or controller.">
<polygon fill="white" stroke="black" points="298,-48.78 298,-67.78 373,-67.78 373,-48.78 298,-48.78"/>
<text text-anchor="middle" x="335.5" y="-55.78" font-family="Helvetica,sans-Serif" font-size="10.00">InputDevice</text>
</a>
</g>
</g>
<!-- Node2&#45;&gt;Node18 -->
<g id="edge35" class="edge">
<title>Node2&#45;&gt;Node18</title>
<path fill="none" stroke="midnightblue" d="M158.55,-340.37C167.77,-306.26 189.39,-235.21 222,-182.28 251.73,-134.02 301.44,-87.33 323.45,-67.82"/>
<polygon fill="midnightblue" stroke="midnightblue" points="155.06,-339.88 155.91,-350.44 161.83,-341.66 155.06,-339.88"/>
</g>
<!-- Node3 -->
<g id="node3" class="node">
<title>Node3</title>
<g id="a_node3"><a xlink:href="classSetJoystick.html" target="_top" xlink:title="A set of mapped events which can by switched by a controller event. Contains controller input objects...">
<polygon fill="white" stroke="black" points="2179,-382.78 2179,-401.78 2250,-401.78 2250,-382.78 2179,-382.78"/>
<text text-anchor="middle" x="2214.5" y="-389.78" font-family="Helvetica,sans-Serif" font-size="10.00">SetJoystick</text>
</a>
</g>
</g>
<!-- Node3&#45;&gt;Node1 -->
<g id="edge2" class="edge">
<title>Node3&#45;&gt;Node1</title>
<path fill="none" stroke="#9a32cd" stroke-dasharray="5,2" d="M2210.35,-372.48C2198.9,-308.17 2153.28,-109.28 2027,-109.28 600,-109.28 600,-109.28 600,-109.28 505.25,-109.28 398.58,-155.2 355.78,-175.65"/>
<polygon fill="#9a32cd" stroke="#9a32cd" points="2206.94,-373.26 2212.06,-382.53 2213.84,-372.09 2206.94,-373.26"/>
<text text-anchor="middle" x="1338" y="-112.28" font-family="Helvetica,sans-Serif" font-size="10.00"> m_parentSet</text>
</g>
<!-- Node3&#45;&gt;Node4 -->
<g id="edge5" class="edge">
<title>Node3&#45;&gt;Node4</title>
<path fill="none" stroke="#9a32cd" stroke-dasharray="5,2" d="M2194.71,-408.16C2185.18,-415.4 2173.09,-423.42 2161,-428.28 2132.34,-439.79 2097.92,-445.28 2071.15,-447.9"/>
<polygon fill="#9a32cd" stroke="#9a32cd" points="2197.01,-410.81 2202.66,-401.85 2192.65,-405.32 2197.01,-410.81"/>
<text text-anchor="middle" x="2125" y="-448.28" font-family="Helvetica,sans-Serif" font-size="10.00"> m_setJoystick</text>
</g>
<!-- Node3&#45;&gt;Node6 -->
<g id="edge10" class="edge">
<title>Node3&#45;&gt;Node6</title>
<path fill="none" stroke="#9a32cd" stroke-dasharray="5,2" d="M2168.63,-396.21C2144.88,-398.57 2115.27,-401.96 2089,-406.28 1932.84,-431.92 1748.05,-476.97 1681.22,-493.74"/>
<polygon fill="#9a32cd" stroke="#9a32cd" points="2169.14,-399.68 2178.75,-395.23 2168.46,-392.71 2169.14,-399.68"/>
<text text-anchor="middle" x="1930" y="-445.28" font-family="Helvetica,sans-Serif" font-size="10.00"> m_parentSet</text>
</g>
<!-- Node4&#45;&gt;Node3 -->
<g id="edge3" class="edge">
<title>Node4&#45;&gt;Node3</title>
<path fill="none" stroke="midnightblue" d="M2067.59,-437.65C2102.2,-426.89 2151.19,-411.65 2182.66,-401.87"/>
<polygon fill="midnightblue" stroke="midnightblue" points="2066.31,-434.39 2057.8,-440.7 2068.38,-441.07 2066.31,-434.39"/>
</g>
<!-- Node5&#45;&gt;Node4 -->
<g id="edge6" class="edge">
<title>Node5&#45;&gt;Node4</title>
<path fill="none" stroke="#9a32cd" stroke-dasharray="5,2" d="M1889.33,-667.26C1913.88,-665.43 1943.15,-659.12 1963,-641.28 2018.5,-591.41 2024.53,-491.45 2025.02,-459.99"/>
<polygon fill="#9a32cd" stroke="#9a32cd" points="1888.95,-663.77 1879.15,-667.78 1889.31,-670.76 1888.95,-663.77"/>
<text text-anchor="middle" x="1930" y="-669.28" font-family="Helvetica,sans-Serif" font-size="10.00"> joyAxisXml</text>
</g>
<!-- Node6&#45;&gt;Node5 -->
<g id="edge8" class="edge">
<title>Node6&#45;&gt;Node5</title>
<path fill="none" stroke="#9a32cd" stroke-dasharray="5,2" d="M1674.22,-516.94C1712.87,-551.34 1800.46,-629.3 1831.14,-656.61"/>
<polygon fill="#9a32cd" stroke="#9a32cd" points="1676.13,-513.95 1666.33,-509.92 1671.48,-519.18 1676.13,-513.95"/>
<text text-anchor="middle" x="1761.5" y="-619.28" font-family="Helvetica,sans-Serif" font-size="10.00"> m_joyAxis</text>
</g>
<!-- Node7 -->
<g id="node7" class="node">
<title>Node7</title>
<g id="a_node7"><a xlink:href="classJoyAxisButton.html" target="_top" xlink:title=" ">
<polygon fill="white" stroke="black" points="1397,-464.78 1397,-483.78 1482,-483.78 1482,-464.78 1397,-464.78"/>
<text text-anchor="middle" x="1439.5" y="-471.78" font-family="Helvetica,sans-Serif" font-size="10.00">JoyAxisButton</text>
</a>
</g>
</g>
<!-- Node6&#45;&gt;Node7 -->
<g id="edge21" class="edge">
<title>Node6&#45;&gt;Node7</title>
<path fill="none" stroke="#9a32cd" stroke-dasharray="5,2" d="M1617.52,-507.17C1586.69,-511.79 1541.32,-515.51 1503,-506.28 1485.22,-501.99 1466.82,-491.74 1454.63,-483.99"/>
<polygon fill="#9a32cd" stroke="#9a32cd" points="1618.47,-510.56 1627.78,-505.52 1617.36,-503.65 1618.47,-510.56"/>
<text text-anchor="middle" x="1539" y="-514.28" font-family="Helvetica,sans-Serif" font-size="10.00"> m_axis</text>
</g>
<!-- Node7&#45;&gt;Node6 -->
<g id="edge11" class="edge">
<title>Node7&#45;&gt;Node6</title>
<path fill="none" stroke="#9a32cd" stroke-dasharray="5,2" d="M1492.35,-473.38C1495.95,-473.34 1499.53,-473.3 1503,-473.28 1535,-473.02 1543.44,-468 1575,-473.28 1594.9,-476.6 1616.51,-484.37 1632.01,-490.72"/>
<polygon fill="#9a32cd" stroke="#9a32cd" points="1492.14,-469.89 1482.19,-473.52 1492.23,-476.88 1492.14,-469.89"/>
<text text-anchor="middle" x="1539" y="-498.28" font-family="Helvetica,sans-Serif" font-size="10.00"> paxisbutton</text>
<text text-anchor="middle" x="1539" y="-487.28" font-family="Helvetica,sans-Serif" font-size="10.00">activeButton</text>
<text text-anchor="middle" x="1539" y="-476.28" font-family="Helvetica,sans-Serif" font-size="10.00">naxisbutton</text>
</g>
<!-- Node8 -->
<g id="node8" class="node">
<title>Node8</title>
<g id="a_node8"><a xlink:href="classJoyGradientButton.html" target="_top" xlink:title=" ">
<polygon fill="white" stroke="black" points="976,-399.78 976,-418.78 1082,-418.78 1082,-399.78 976,-399.78"/>
<text text-anchor="middle" x="1029" y="-406.78" font-family="Helvetica,sans-Serif" font-size="10.00">JoyGradientButton</text>
</a>
</g>
</g>
<!-- Node8&#45;&gt;Node7 -->
<g id="edge12" class="edge">
<title>Node8&#45;&gt;Node7</title>
<path fill="none" stroke="midnightblue" d="M1050.97,-425.02C1064.29,-434.11 1082.29,-444.79 1100,-450.28 1202.99,-482.17 1331.71,-480.73 1396.75,-477.31"/>
<polygon fill="midnightblue" stroke="midnightblue" points="1052.75,-421.99 1042.57,-419.07 1048.71,-427.71 1052.75,-421.99"/>
</g>
<!-- Node15 -->
<g id="node15" class="node">
<title>Node15</title>
<g id="a_node15"><a xlink:href="classJoyControlStickModifierButton.html" target="_top" xlink:title=" ">
<polygon fill="white" stroke="black" points="1119,-388.78 1119,-407.78 1282,-407.78 1282,-388.78 1119,-388.78"/>
<text text-anchor="middle" x="1200.5" y="-395.78" font-family="Helvetica,sans-Serif" font-size="10.00">JoyControlStickModifierButton</text>
</a>
</g>
</g>
<!-- Node8&#45;&gt;Node15 -->
<g id="edge26" class="edge">
<title>Node8&#45;&gt;Node15</title>
<path fill="none" stroke="midnightblue" d="M1092.49,-405.22C1101.05,-404.67 1109.93,-404.09 1118.76,-403.52"/>
<polygon fill="midnightblue" stroke="midnightblue" points="1091.99,-401.75 1082.24,-405.89 1092.44,-408.73 1091.99,-401.75"/>
</g>
<!-- Node16 -->
<g id="node16" class="node">
<title>Node16</title>
<g id="a_node16"><a xlink:href="classJoyControlStickButton.html" target="_top" xlink:title=" ">
<polygon fill="white" stroke="black" points="1593,-344.78 1593,-363.78 1716,-363.78 1716,-344.78 1593,-344.78"/>
<text text-anchor="middle" x="1654.5" y="-351.78" font-family="Helvetica,sans-Serif" font-size="10.00">JoyControlStickButton</text>
</a>
</g>
</g>
<!-- Node8&#45;&gt;Node16 -->
<g id="edge29" class="edge">
<title>Node8&#45;&gt;Node16</title>
<path fill="none" stroke="midnightblue" d="M1092.34,-417.67C1094.93,-417.9 1097.49,-418.1 1100,-418.28 1205.31,-425.54 1476.09,-459.16 1575,-422.28 1606.59,-410.5 1633.92,-379.64 1646.35,-363.87"/>
<polygon fill="midnightblue" stroke="midnightblue" points="1092.59,-414.18 1082.3,-416.68 1091.91,-421.15 1092.59,-414.18"/>
</g>
<!-- Node9&#45;&gt;Node8 -->
<g id="edge13" class="edge">
<title>Node9&#45;&gt;Node8</title>
<path fill="none" stroke="midnightblue" d="M884.29,-389.08C911.29,-392.87 946.81,-397.87 975.78,-401.94"/>
<polygon fill="midnightblue" stroke="midnightblue" points="884.77,-385.61 874.38,-387.69 883.8,-392.54 884.77,-385.61"/>
</g>
<!-- Node9&#45;&gt;Node17 -->
<g id="edge33" class="edge">
<title>Node9&#45;&gt;Node17</title>
<path fill="none" stroke="#9a32cd" stroke-dasharray="5,2" d="M856.49,-401.14C893.04,-449.55 993.08,-582.03 1020.8,-618.74"/>
<polygon fill="#9a32cd" stroke="#9a32cd" points="859.07,-398.75 850.25,-392.88 853.49,-402.97 859.07,-398.75"/>
<text text-anchor="middle" x="925" y="-537.28" font-family="Helvetica,sans-Serif" font-size="10.00"> m_joyButton</text>
</g>
<!-- Node9&#45;&gt;Node22 -->
<g id="edge41" class="edge">
<title>Node9&#45;&gt;Node22</title>
<path fill="none" stroke="midnightblue" d="M858.82,-366.34C896.2,-326.34 989.06,-226.95 1018.73,-195.2"/>
<polygon fill="midnightblue" stroke="midnightblue" points="856.19,-364.03 851.92,-373.73 861.31,-368.81 856.19,-364.03"/>
</g>
<!-- Node10&#45;&gt;Node9 -->
<g id="edge15" class="edge">
<title>Node10&#45;&gt;Node9</title>
<path fill="none" stroke="#9a32cd" stroke-dasharray="5,2" d="M482.02,-498.32C497.5,-505.87 517.81,-514.41 537,-518.28 592.77,-529.51 611.13,-536.56 665,-518.28 740.85,-492.54 809.63,-419.5 832.76,-393.02"/>
<polygon fill="#9a32cd" stroke="#9a32cd" points="483.56,-495.18 473.05,-493.8 480.4,-501.43 483.56,-495.18"/>
<text text-anchor="middle" x="601" y="-532.28" font-family="Helvetica,sans-Serif" font-size="10.00"> mouseHelper</text>
</g>
<!-- Node11&#45;&gt;Node9 -->
<g id="edge17" class="edge">
<title>Node11&#45;&gt;Node9</title>
<path fill="none" stroke="#9a32cd" stroke-dasharray="5,2" d="M507.29,-381.54C588.38,-381.96 743.74,-382.77 809.91,-383.11"/>
<polygon fill="#9a32cd" stroke="#9a32cd" points="506.86,-378.04 496.84,-381.49 506.82,-385.04 506.86,-378.04"/>
<text text-anchor="middle" x="601" y="-506.28" font-family="Helvetica,sans-Serif" font-size="10.00"> currentDelay</text>
<text text-anchor="middle" x="601" y="-495.28" font-family="Helvetica,sans-Serif" font-size="10.00">lastActiveKey</text>
<text text-anchor="middle" x="601" y="-484.28" font-family="Helvetica,sans-Serif" font-size="10.00">currentSetChangeSlot</text>
<text text-anchor="middle" x="601" y="-473.28" font-family="Helvetica,sans-Serif" font-size="10.00">currentKeyPress</text>
<text text-anchor="middle" x="601" y="-462.28" font-family="Helvetica,sans-Serif" font-size="10.00">currentRelease</text>
<text text-anchor="middle" x="601" y="-451.28" font-family="Helvetica,sans-Serif" font-size="10.00">currentCycle</text>
<text text-anchor="middle" x="601" y="-440.28" font-family="Helvetica,sans-Serif" font-size="10.00">previousCycle</text>
<text text-anchor="middle" x="601" y="-429.28" font-family="Helvetica,sans-Serif" font-size="10.00">m_currentDistance</text>
<text text-anchor="middle" x="601" y="-418.28" font-family="Helvetica,sans-Serif" font-size="10.00">currentPause</text>
<text text-anchor="start" x="543" y="-407.28" font-family="Helvetica,sans-Serif" font-size="10.00">currentWheelHorizontal</text>
<text text-anchor="middle" x="601" y="-396.28" font-family="Helvetica,sans-Serif" font-size="10.00">Event</text>
<text text-anchor="middle" x="601" y="-385.28" font-family="Helvetica,sans-Serif" font-size="10.00">...</text>
</g>
<!-- Node12&#45;&gt;Node9 -->
<g id="edge19" class="edge">
<title>Node12&#45;&gt;Node9</title>
<path fill="none" stroke="#9a32cd" stroke-dasharray="5,2" d="M635.33,-263.29C675.74,-267.2 744.35,-278.66 792,-312.28 814.52,-328.16 829.98,-357.89 836.9,-373.36"/>
<polygon fill="#9a32cd" stroke="#9a32cd" points="635.47,-259.79 625.21,-262.42 634.87,-266.76 635.47,-259.79"/>
<text text-anchor="middle" x="737.5" y="-315.28" font-family="Helvetica,sans-Serif" font-size="10.00"> m_vdpad</text>
</g>
<!-- Node13&#45;&gt;Node6 -->
<g id="edge22" class="edge">
<title>Node13&#45;&gt;Node6</title>
<path fill="none" stroke="#9a32cd" stroke-dasharray="5,2" d="M1462.76,-369.54C1506.67,-399.63 1603.31,-465.87 1639.47,-490.66"/>
<polygon fill="#9a32cd" stroke="#9a32cd" points="1464.7,-366.62 1454.48,-363.86 1460.75,-372.4 1464.7,-366.62"/>
<text text-anchor="middle" x="1539" y="-447.28" font-family="Helvetica,sans-Serif" font-size="10.00"> m_stick</text>
</g>
<!-- Node13&#45;&gt;Node15 -->
<g id="edge27" class="edge">
<title>Node13&#45;&gt;Node15</title>
<path fill="none" stroke="#9a32cd" stroke-dasharray="5,2" d="M1412.29,-368.34C1401.37,-373.58 1388.36,-379.04 1376,-382.28 1345.98,-390.14 1312.18,-394.28 1282.38,-396.41"/>
<polygon fill="#9a32cd" stroke="#9a32cd" points="1413.9,-371.45 1421.29,-363.85 1410.78,-365.18 1413.9,-371.45"/>
<text text-anchor="middle" x="1338" y="-397.28" font-family="Helvetica,sans-Serif" font-size="10.00"> stick</text>
</g>
<!-- Node13&#45;&gt;Node16 -->
<g id="edge30" class="edge">
<title>Node13&#45;&gt;Node16</title>
<path fill="none" stroke="#9a32cd" stroke-dasharray="5,2" d="M1483.82,-342.49C1490.21,-341.16 1496.75,-340.02 1503,-339.28 1534.78,-335.52 1543.14,-336.26 1575,-339.28 1586.88,-340.4 1599.64,-342.46 1611.34,-344.71"/>
<polygon fill="#9a32cd" stroke="#9a32cd" points="1482.96,-339.1 1473.97,-344.71 1484.5,-345.93 1482.96,-339.1"/>
<text text-anchor="middle" x="1539" y="-342.28" font-family="Helvetica,sans-Serif" font-size="10.00"> stick</text>
</g>
<!-- Node14 -->
<g id="node14" class="node">
<title>Node14</title>
<g id="a_node14"><a xlink:href="classJoyStickDirectionsType.html" target="_top" xlink:title=" ">
<polygon fill="white" stroke="black" points="1136.5,-327.78 1136.5,-346.78 1264.5,-346.78 1264.5,-327.78 1136.5,-327.78"/>
<text text-anchor="middle" x="1200.5" y="-334.78" font-family="Helvetica,sans-Serif" font-size="10.00">JoyStickDirectionsType</text>
</a>
</g>
</g>
<!-- Node14&#45;&gt;Node13 -->
<g id="edge24" class="edge">
<title>Node14&#45;&gt;Node13</title>
<path fill="none" stroke="midnightblue" d="M1274.93,-342.54C1313.85,-345.33 1360.38,-348.67 1393.84,-351.07"/>
<polygon fill="midnightblue" stroke="midnightblue" points="1274.93,-339.03 1264.7,-341.81 1274.42,-346.02 1274.93,-339.03"/>
</g>
<!-- Node15&#45;&gt;Node13 -->
<g id="edge25" class="edge">
<title>Node15&#45;&gt;Node13</title>
<path fill="none" stroke="#9a32cd" stroke-dasharray="5,2" d="M1241.83,-385.79C1259.54,-380.69 1280.66,-375.09 1300,-371.28 1331.14,-365.13 1366.67,-360.82 1393.95,-358.08"/>
<polygon fill="#9a32cd" stroke="#9a32cd" points="1240.45,-382.55 1231.84,-388.73 1242.42,-389.27 1240.45,-382.55"/>
<text text-anchor="middle" x="1338" y="-374.28" font-family="Helvetica,sans-Serif" font-size="10.00"> modifierButton</text>
</g>
<!-- Node16&#45;&gt;Node13 -->
<g id="edge28" class="edge">
<title>Node16&#45;&gt;Node13</title>
<path fill="none" stroke="#9a32cd" stroke-dasharray="5,2" d="M1582.5,-354.28C1550.35,-354.28 1513.33,-354.28 1485.15,-354.28"/>
<polygon fill="#9a32cd" stroke="#9a32cd" points="1582.75,-357.78 1592.75,-354.28 1582.75,-350.78 1582.75,-357.78"/>
<text text-anchor="middle" x="1539" y="-379.28" font-family="Helvetica,sans-Serif" font-size="10.00"> activeButton1</text>
<text text-anchor="middle" x="1539" y="-368.28" font-family="Helvetica,sans-Serif" font-size="10.00">activeButton2</text>
<text text-anchor="middle" x="1539" y="-357.28" font-family="Helvetica,sans-Serif" font-size="10.00">activeButton3</text>
</g>
<!-- Node17&#45;&gt;Node4 -->
<g id="edge31" class="edge">
<title>Node17&#45;&gt;Node4</title>
<path fill="none" stroke="#9a32cd" stroke-dasharray="5,2" d="M1080.82,-628.28C1114.49,-628.28 1159.63,-628.28 1199.5,-628.28 1199.5,-628.28 1199.5,-628.28 1844,-628.28 1940.96,-628.28 2004.94,-496.82 2021.02,-459.85"/>
<polygon fill="#9a32cd" stroke="#9a32cd" points="1080.76,-624.78 1070.76,-628.28 1080.76,-631.78 1080.76,-624.78"/>
<text text-anchor="middle" x="1539" y="-631.28" font-family="Helvetica,sans-Serif" font-size="10.00"> joyButtonXml</text>
</g>
<!-- Node18&#45;&gt;Node3 -->
<g id="edge34" class="edge">
<title>Node18&#45;&gt;Node3</title>
<path fill="none" stroke="#9a32cd" stroke-dasharray="5,2" d="M383.17,-61.97C435.81,-65.81 524,-71.28 600,-71.28 600,-71.28 600,-71.28 2027,-71.28 2091.04,-71.28 2120.05,-75.04 2161,-124.28 2194.96,-165.1 2209.68,-339.67 2212.84,-382.67"/>
<polygon fill="#9a32cd" stroke="#9a32cd" points="383.36,-58.48 373.13,-61.23 382.84,-65.46 383.36,-58.48"/>
<text text-anchor="middle" x="1338" y="-74.28" font-family="Helvetica,sans-Serif" font-size="10.00"> m_device</text>
</g>
<!-- Node21 -->
<g id="node21" class="node">
<title>Node21</title>
<g id="a_node21"><a xlink:href="classInputDeviceCalibration.html" target="_top" xlink:title="Calibration storage backend which can store multiple calibration items for different controllers.">
<polygon fill="white" stroke="black" points="537,-12.78 537,-31.78 665,-31.78 665,-12.78 537,-12.78"/>
<text text-anchor="middle" x="601" y="-19.78" font-family="Helvetica,sans-Serif" font-size="10.00">InputDeviceCalibration</text>
</a>
</g>
</g>
<!-- Node18&#45;&gt;Node21 -->
<g id="edge39" class="edge">
<title>Node18&#45;&gt;Node21</title>
<path fill="none" stroke="#9a32cd" stroke-dasharray="5,2" d="M382.93,-47.72C385.65,-47.2 388.36,-46.72 391,-46.28 439.63,-38.15 495.09,-31.92 536.66,-27.85"/>
<polygon fill="#9a32cd" stroke="#9a32cd" points="382.17,-44.3 373.04,-49.69 383.54,-51.17 382.17,-44.3"/>
<text text-anchor="middle" x="455" y="-49.28" font-family="Helvetica,sans-Serif" font-size="10.00"> m_device</text>
</g>
<!-- Node19 -->
<g id="node19" class="node">
<title>Node19</title>
<g id="a_node19"><a xlink:href="classAntiMicroSettings.html" target="_top" xlink:title=" ">
<polygon fill="white" stroke="black" points="101,-48.78 101,-67.78 204,-67.78 204,-48.78 101,-48.78"/>
<text text-anchor="middle" x="152.5" y="-55.78" font-family="Helvetica,sans-Serif" font-size="10.00">AntiMicroSettings</text>
</a>
</g>
</g>
<!-- Node19&#45;&gt;Node18 -->
<g id="edge36" class="edge">
<title>Node19&#45;&gt;Node18</title>
<path fill="none" stroke="#9a32cd" stroke-dasharray="5,2" d="M214.74,-58.28C242.3,-58.28 273.92,-58.28 297.75,-58.28"/>
<polygon fill="#9a32cd" stroke="#9a32cd" points="214.4,-54.78 204.4,-58.28 214.4,-61.78 214.4,-54.78"/>
<text text-anchor="middle" x="251" y="-61.28" font-family="Helvetica,sans-Serif" font-size="10.00"> m_settings</text>
</g>
<!-- Node20 -->
<g id="node20" class="node">
<title>Node20</title>
<g id="a_node20"><a xlink:title=" ">
<polygon fill="white" stroke="#bfbfbf" points="0,-48.78 0,-67.78 64,-67.78 64,-48.78 0,-48.78"/>
<text text-anchor="middle" x="32" y="-55.78" font-family="Helvetica,sans-Serif" font-size="10.00">QSettings</text>
</a>
</g>
</g>
<!-- Node20&#45;&gt;Node19 -->
<g id="edge37" class="edge">
<title>Node20&#45;&gt;Node19</title>
<path fill="none" stroke="midnightblue" d="M74.27,-58.28C82.86,-58.28 91.99,-58.28 100.87,-58.28"/>
<polygon fill="midnightblue" stroke="midnightblue" points="74.13,-54.78 64.13,-58.28 74.13,-61.78 74.13,-54.78"/>
</g>
<!-- Node21&#45;&gt;Node18 -->
<g id="edge38" class="edge">
<title>Node21&#45;&gt;Node18</title>
<path fill="none" stroke="#9a32cd" stroke-dasharray="5,2" d="M555.9,-10.47C512.54,-1.08 445.17,7.53 391,-12.28 371.23,-19.5 353.68,-37.42 344.13,-48.64"/>
<polygon fill="#9a32cd" stroke="#9a32cd" points="555.32,-13.93 565.84,-12.73 556.87,-7.11 555.32,-13.93"/>
<text text-anchor="middle" x="455" y="-15.28" font-family="Helvetica,sans-Serif" font-size="10.00"> m_calibrations</text>
</g>
<!-- Node22&#45;&gt;Node1 -->
<g id="edge40" class="edge">
<title>Node22&#45;&gt;Node1</title>
<path fill="none" stroke="#9a32cd" stroke-dasharray="5,2" d="M974.32,-185.28C835.2,-185.28 466.65,-185.28 363.61,-185.28"/>
<polygon fill="#9a32cd" stroke="#9a32cd" points="974.33,-188.78 984.33,-185.28 974.33,-181.78 974.33,-188.78"/>
<text text-anchor="middle" x="737.5" y="-188.28" font-family="Helvetica,sans-Serif" font-size="10.00"> activeDiagonalButton</text>
</g>
</g>
</svg>
