<?xml version="1.0" encoding="UTF-8" standalone="no"?>
<!DOCTYPE svg PUBLIC "-//W3C//DTD SVG 1.1//EN"
 "http://www.w3.org/Graphics/SVG/1.1/DTD/svg11.dtd">
<!-- Generated by graphviz version 2.43.0 (0)
 -->
<!-- Title: GameControllerXml::writeXmlForAxes Pages: 1 -->
<svg width="479pt" height="110pt"
 viewBox="0.00 0.00 479.00 110.00" xmlns="http://www.w3.org/2000/svg" xmlns:xlink="http://www.w3.org/1999/xlink">
<g id="graph0" class="graph" transform="scale(1 1) rotate(0) translate(4 106)">
<title>GameControllerXml::writeXmlForAxes</title>
<polygon fill="white" stroke="transparent" points="-4,4 -4,-106 475,-106 475,4 -4,4"/>
<!-- Node1 -->
<g id="node1" class="node">
<title>Node1</title>
<g id="a_node1"><a xlink:title=" ">
<polygon fill="#bfbfbf" stroke="black" points="0,-55 0,-85 119,-85 119,-55 0,-55"/>
<text text-anchor="start" x="8" y="-73" font-family="Helvetica,sans-Serif" font-size="10.00">GameControllerXml::</text>
<text text-anchor="middle" x="59.5" y="-62" font-family="Helvetica,sans-Serif" font-size="10.00">writeXmlForAxes</text>
</a>
</g>
</g>
<!-- Node2 -->
<g id="node2" class="node">
<title>Node2</title>
<g id="a_node2"><a xlink:href="classSetJoystick.html#a4d1b6543ec53dd06992f77c0b89a5532" target="_top" xlink:title=" ">
<polygon fill="white" stroke="black" points="156.5,-82.5 156.5,-101.5 272.5,-101.5 272.5,-82.5 156.5,-82.5"/>
<text text-anchor="middle" x="214.5" y="-89.5" font-family="Helvetica,sans-Serif" font-size="10.00">SetJoystick::getAxes</text>
</a>
</g>
</g>
<!-- Node1&#45;&gt;Node2 -->
<g id="edge1" class="edge">
<title>Node1&#45;&gt;Node2</title>
<path fill="none" stroke="midnightblue" d="M119.22,-78.44C128.09,-79.72 137.31,-81.04 146.35,-82.34"/>
<polygon fill="midnightblue" stroke="midnightblue" points="146.06,-85.84 156.45,-83.8 147.05,-78.91 146.06,-85.84"/>
</g>
<!-- Node3 -->
<g id="node3" class="node">
<title>Node3</title>
<g id="a_node3"><a xlink:href="classGameControllerXml.html#a58cc6838bb726b635eb2875c192b144a" target="_top" xlink:title=" ">
<polygon fill="white" stroke="black" points="155,-33 155,-63 274,-63 274,-33 155,-33"/>
<text text-anchor="start" x="163" y="-51" font-family="Helvetica,sans-Serif" font-size="10.00">GameControllerXml::</text>
<text text-anchor="middle" x="214.5" y="-40" font-family="Helvetica,sans-Serif" font-size="10.00">writeXmlAxBtn</text>
</a>
</g>
</g>
<!-- Node1&#45;&gt;Node3 -->
<g id="edge2" class="edge">
<title>Node1&#45;&gt;Node3</title>
<path fill="none" stroke="midnightblue" d="M119.22,-61.56C127.64,-60.35 136.36,-59.09 144.95,-57.86"/>
<polygon fill="midnightblue" stroke="midnightblue" points="145.54,-61.31 154.94,-56.42 144.54,-54.38 145.54,-61.31"/>
</g>
<!-- Node4 -->
<g id="node4" class="node">
<title>Node4</title>
<g id="a_node4"><a xlink:href="classJoyButton.html#a7123f5432bda7b5b9d4b2b95bdabf4db" target="_top" xlink:title=" ">
<polygon fill="white" stroke="black" points="317,-76.5 317,-95.5 464,-95.5 464,-76.5 317,-76.5"/>
<text text-anchor="middle" x="390.5" y="-83.5" font-family="Helvetica,sans-Serif" font-size="10.00">JoyButton::getButtonName</text>
</a>
</g>
</g>
<!-- Node3&#45;&gt;Node4 -->
<g id="edge3" class="edge">
<title>Node3&#45;&gt;Node4</title>
<path fill="none" stroke="midnightblue" d="M274.41,-60.87C294.31,-65.21 316.4,-70.04 335.87,-74.29"/>
<polygon fill="midnightblue" stroke="midnightblue" points="335.27,-77.74 345.78,-76.45 336.76,-70.9 335.27,-77.74"/>
</g>
<!-- Node5 -->
<g id="node5" class="node">
<title>Node5</title>
<g id="a_node5"><a xlink:href="classJoyAxis.html#a9ceda991c13da3a99868acc436ed20f3" target="_top" xlink:title=" ">
<polygon fill="white" stroke="black" points="321.5,-38.5 321.5,-57.5 459.5,-57.5 459.5,-38.5 321.5,-38.5"/>
<text text-anchor="middle" x="390.5" y="-45.5" font-family="Helvetica,sans-Serif" font-size="10.00">JoyAxis::getRealJoyIndex</text>
</a>
</g>
</g>
<!-- Node3&#45;&gt;Node5 -->
<g id="edge4" class="edge">
<title>Node3&#45;&gt;Node5</title>
<path fill="none" stroke="midnightblue" d="M274.41,-48C286.19,-48 298.75,-48 311.07,-48"/>
<polygon fill="midnightblue" stroke="midnightblue" points="311.35,-51.5 321.35,-48 311.35,-44.5 311.35,-51.5"/>
</g>
<!-- Node6 -->
<g id="node6" class="node">
<title>Node6</title>
<g id="a_node6"><a xlink:href="classJoyButton.html#a39c9ccaf641bb8bf50b29d4c4e04c165" target="_top" xlink:title="Get a 1 indexed number of button.">
<polygon fill="white" stroke="black" points="310,-0.5 310,-19.5 471,-19.5 471,-0.5 310,-0.5"/>
<text text-anchor="middle" x="390.5" y="-7.5" font-family="Helvetica,sans-Serif" font-size="10.00">JoyButton::getRealJoyNumber</text>
</a>
</g>
</g>
<!-- Node3&#45;&gt;Node6 -->
<g id="edge5" class="edge">
<title>Node3&#45;&gt;Node6</title>
<path fill="none" stroke="midnightblue" d="M274.41,-35.13C294.31,-30.79 316.4,-25.96 335.87,-21.71"/>
<polygon fill="midnightblue" stroke="midnightblue" points="336.76,-25.1 345.78,-19.55 335.27,-18.26 336.76,-25.1"/>
</g>
</g>
</svg>
