<?xml version="1.0" encoding="UTF-8" standalone="no"?>
<!DOCTYPE svg PUBLIC "-//W3C//DTD SVG 1.1//EN"
 "http://www.w3.org/Graphics/SVG/1.1/DTD/svg11.dtd">
<!-- Generated by graphviz version 2.43.0 (0)
 -->
<!-- Title: SetAxisThrottleDialog Pages: 1 -->
<svg width="2298pt" height="677pt"
 viewBox="0.00 0.00 2298.00 676.50" xmlns="http://www.w3.org/2000/svg" xmlns:xlink="http://www.w3.org/1999/xlink">
<g id="graph0" class="graph" transform="scale(1 1) rotate(0) translate(4 672.5)">
<title>SetAxisThrottleDialog</title>
<!-- Node1 -->
<g id="Node000001" class="node">
<title>Node1</title>
<g id="a_Node000001"><a xlink:title=" ">
<polygon fill="#999999" stroke="#666666" points="399,-592.5 276,-592.5 276,-573.5 399,-573.5 399,-592.5"/>
<text text-anchor="middle" x="337.5" y="-580.5" font-family="Helvetica,sans-Serif" font-size="10.00">SetAxisThrottleDialog</text>
</a>
</g>
</g>
<!-- Node2 -->
<g id="Node000002" class="node">
<title>Node2</title>
<g id="a_Node000002"><a xlink:title=" ">
<polygon fill="white" stroke="#666666" points="153,-592.5 97,-592.5 97,-573.5 153,-573.5 153,-592.5"/>
<text text-anchor="middle" x="125" y="-580.5" font-family="Helvetica,sans-Serif" font-size="10.00">QDialog</text>
</a>
</g>
</g>
<!-- Node2&#45;&gt;Node1 -->
<g id="edge1_Node000001_Node000002" class="edge">
<title>Node2&#45;&gt;Node1</title>
<g id="a_edge1_Node000001_Node000002"><a xlink:title=" ">
<path fill="none" stroke="#63b8ff" d="M163.1,-583C194.29,-583 239.5,-583 275.93,-583"/>
<polygon fill="#63b8ff" stroke="#63b8ff" points="163.09,-579.5 153.09,-583 163.09,-586.5 163.09,-579.5"/>
</a>
</g>
</g>
<!-- Node3 -->
<g id="Node000003" class="node">
<title>Node3</title>
<g id="a_Node000003"><a xlink:href="classJoyAxis.html" target="_top" xlink:title="Represents single axis of of joystick (or other input)">
<polygon fill="white" stroke="#666666" points="151.5,-470.5 98.5,-470.5 98.5,-451.5 151.5,-451.5 151.5,-470.5"/>
<text text-anchor="middle" x="125" y="-458.5" font-family="Helvetica,sans-Serif" font-size="10.00">JoyAxis</text>
</a>
</g>
</g>
<!-- Node3&#45;&gt;Node1 -->
<g id="edge2_Node000001_Node000003" class="edge">
<title>Node3&#45;&gt;Node1</title>
<g id="a_edge2_Node000001_Node000003"><a xlink:title=" ">
<path fill="none" stroke="#9a32cd" stroke-dasharray="5,2" d="M132.07,-480.08C139.23,-499.42 153.01,-528.73 175,-545 184.12,-551.74 243.15,-564.57 287.22,-573.45"/>
<polygon fill="#9a32cd" stroke="#9a32cd" points="135.34,-478.82 128.77,-470.51 128.73,-481.11 135.34,-478.82"/>
</a>
</g>
<text text-anchor="middle" x="216.5" y="-570" font-family="Helvetica,sans-Serif" font-size="10.00" fill="grey"> axis</text>
</g>
<!-- Node5 -->
<g id="Node000005" class="node">
<title>Node5</title>
<g id="a_Node000005"><a xlink:href="classJoyAxisButton.html" target="_top" xlink:title=" ">
<polygon fill="white" stroke="#666666" points="1794.5,-520.5 1709.5,-520.5 1709.5,-501.5 1794.5,-501.5 1794.5,-520.5"/>
<text text-anchor="middle" x="1752" y="-508.5" font-family="Helvetica,sans-Serif" font-size="10.00">JoyAxisButton</text>
</a>
</g>
</g>
<!-- Node3&#45;&gt;Node5 -->
<g id="edge34_Node000005_Node000003" class="edge">
<title>Node3&#45;&gt;Node5</title>
<g id="a_edge34_Node000005_Node000003"><a xlink:title=" ">
<path fill="none" stroke="#9a32cd" stroke-dasharray="5,2" d="M141.31,-478.06C150.25,-486.93 162.26,-497.11 175,-503 216.26,-522.06 230.84,-513.93 276,-519 654.91,-561.54 750.71,-576 1132,-576 1132,-576 1132,-576 1599,-576 1654.68,-576 1713.26,-538.67 1738.37,-520.59"/>
<polygon fill="#9a32cd" stroke="#9a32cd" points="143.75,-475.55 134.3,-470.75 138.7,-480.39 143.75,-475.55"/>
</a>
</g>
<text text-anchor="middle" x="1047" y="-578" font-family="Helvetica,sans-Serif" font-size="10.00" fill="grey"> m_axis</text>
</g>
<!-- Node15 -->
<g id="Node000015" class="node">
<title>Node15</title>
<g id="a_Node000015"><a xlink:href="classJoyAxisXml.html" target="_top" xlink:title=" ">
<polygon fill="white" stroke="#666666" points="373.5,-350.5 301.5,-350.5 301.5,-331.5 373.5,-331.5 373.5,-350.5"/>
<text text-anchor="middle" x="337.5" y="-338.5" font-family="Helvetica,sans-Serif" font-size="10.00">JoyAxisXml</text>
</a>
</g>
</g>
<!-- Node3&#45;&gt;Node15 -->
<g id="edge24_Node000015_Node000003" class="edge">
<title>Node3&#45;&gt;Node15</title>
<g id="a_edge24_Node000015_Node000003"><a xlink:title=" ">
<path fill="none" stroke="#9a32cd" stroke-dasharray="5,2" d="M139.93,-443.7C149.06,-433.21 161.72,-420.13 175,-411 216.42,-382.52 271.3,-361.74 305.23,-350.52"/>
<polygon fill="#9a32cd" stroke="#9a32cd" points="137.18,-441.53 133.42,-451.44 142.54,-446.04 137.18,-441.53"/>
</a>
</g>
<text text-anchor="middle" x="216.5" y="-414" font-family="Helvetica,sans-Serif" font-size="10.00" fill="grey"> m_joyAxis</text>
</g>
<!-- Node4 -->
<g id="Node000004" class="node">
<title>Node4</title>
<g id="a_Node000004"><a xlink:title=" ">
<polygon fill="white" stroke="#666666" points="56,-291.5 0,-291.5 0,-272.5 56,-272.5 56,-291.5"/>
<text text-anchor="middle" x="28" y="-279.5" font-family="Helvetica,sans-Serif" font-size="10.00">QObject</text>
</a>
</g>
</g>
<!-- Node4&#45;&gt;Node3 -->
<g id="edge3_Node000003_Node000004" class="edge">
<title>Node4&#45;&gt;Node3</title>
<g id="a_edge3_Node000003_Node000004"><a xlink:title=" ">
<path fill="none" stroke="#63b8ff" d="M35.45,-301.29C43.23,-323.56 57.37,-360.99 74,-391 86.59,-413.73 105.17,-437.9 115.77,-451.05"/>
<polygon fill="#63b8ff" stroke="#63b8ff" points="38.7,-299.99 32.15,-291.67 32.08,-302.26 38.7,-299.99"/>
</a>
</g>
</g>
<!-- Node7 -->
<g id="Node000007" class="node">
<title>Node7</title>
<g id="a_Node000007"><a xlink:href="classJoyButton.html" target="_top" xlink:title="Represents a single joystick button being part of a SetJoystick Contains multiple JoyButtonSlots whic...">
<polygon fill="white" stroke="#666666" points="1443,-275.5 1379,-275.5 1379,-256.5 1443,-256.5 1443,-275.5"/>
<text text-anchor="middle" x="1411" y="-263.5" font-family="Helvetica,sans-Serif" font-size="10.00">JoyButton</text>
</a>
</g>
</g>
<!-- Node4&#45;&gt;Node7 -->
<g id="edge7_Node000007_Node000004" class="edge">
<title>Node4&#45;&gt;Node7</title>
<g id="a_edge7_Node000007_Node000004"><a xlink:title=" ">
<path fill="none" stroke="#63b8ff" d="M43.14,-264.83C60.19,-246.17 90.73,-219 124,-219 124,-219 124,-219 609,-219 765.35,-219 804.15,-233 960.5,-233 960.5,-233 960.5,-233 1211,-233 1271.06,-233 1339.96,-247.81 1378.9,-257.59"/>
<polygon fill="#63b8ff" stroke="#63b8ff" points="40.43,-262.6 36.49,-272.43 45.7,-267.21 40.43,-262.6"/>
</a>
</g>
</g>
<!-- Node8 -->
<g id="Node000008" class="node">
<title>Node8</title>
<g id="a_Node000008"><a xlink:href="classJoyButtonSlot.html" target="_top" xlink:title="Represents action which can be performed after pressing button.">
<polygon fill="white" stroke="#666666" points="258,-138.5 175,-138.5 175,-119.5 258,-119.5 258,-138.5"/>
<text text-anchor="middle" x="216.5" y="-126.5" font-family="Helvetica,sans-Serif" font-size="10.00">JoyButtonSlot</text>
</a>
</g>
</g>
<!-- Node4&#45;&gt;Node8 -->
<g id="edge9_Node000008_Node000004" class="edge">
<title>Node4&#45;&gt;Node8</title>
<g id="a_edge9_Node000008_Node000004"><a xlink:title=" ">
<path fill="none" stroke="#63b8ff" d="M36.56,-262.96C44.03,-246.07 56.84,-221.56 74,-205 107.42,-172.77 157.22,-150.31 187.96,-138.55"/>
<polygon fill="#63b8ff" stroke="#63b8ff" points="33.26,-261.79 32.6,-272.36 39.71,-264.5 33.26,-261.79"/>
</a>
</g>
</g>
<!-- Node9 -->
<g id="Node000009" class="node">
<title>Node9</title>
<g id="a_Node000009"><a xlink:href="classJoyButtonMouseHelper.html" target="_top" xlink:title=" ">
<polygon fill="white" stroke="#666666" points="545,-279.5 417,-279.5 417,-260.5 545,-260.5 545,-279.5"/>
<text text-anchor="middle" x="481" y="-267.5" font-family="Helvetica,sans-Serif" font-size="10.00">JoyButtonMouseHelper</text>
</a>
</g>
</g>
<!-- Node4&#45;&gt;Node9 -->
<g id="edge11_Node000009_Node000004" class="edge">
<title>Node4&#45;&gt;Node9</title>
<g id="a_edge11_Node000009_Node000004"><a xlink:title=" ">
<path fill="none" stroke="#63b8ff" d="M66.41,-281C143.68,-278.95 321.6,-274.21 416.95,-271.68"/>
<polygon fill="#63b8ff" stroke="#63b8ff" points="66.1,-277.51 56.2,-281.28 66.29,-284.51 66.1,-277.51"/>
</a>
</g>
</g>
<!-- Node11 -->
<g id="Node000011" class="node">
<title>Node11</title>
<g id="a_Node000011"><a xlink:href="classJoyDPad.html" target="_top" xlink:title=" ">
<polygon fill="white" stroke="#666666" points="1075,-394.5 1019,-394.5 1019,-375.5 1075,-375.5 1075,-394.5"/>
<text text-anchor="middle" x="1047" y="-382.5" font-family="Helvetica,sans-Serif" font-size="10.00">JoyDPad</text>
</a>
</g>
</g>
<!-- Node4&#45;&gt;Node11 -->
<g id="edge14_Node000011_Node000004" class="edge">
<title>Node4&#45;&gt;Node11</title>
<g id="a_edge14_Node000011_Node000004"><a xlink:title=" ">
<path fill="none" stroke="#63b8ff" d="M41.71,-300.15C53.2,-314.92 71.59,-334.77 93,-344 126.83,-358.57 138.35,-352.35 175,-356 508.05,-389.16 592.42,-387.11 927,-396 957.66,-396.81 965.51,-399.31 996,-396 1003.51,-395.18 1011.55,-393.7 1018.93,-392.07"/>
<polygon fill="#63b8ff" stroke="#63b8ff" points="44.24,-297.7 35.47,-291.75 38.62,-301.87 44.24,-297.7"/>
</a>
</g>
</g>
<!-- Node14 -->
<g id="Node000014" class="node">
<title>Node14</title>
<g id="a_Node000014"><a xlink:href="classSetJoystickXml.html" target="_top" xlink:title="SetJoystick XML serialization/deserialization helper class Reads data from the supplied SetJoystick o...">
<polygon fill="white" stroke="#666666" points="653,-350.5 563,-350.5 563,-331.5 653,-331.5 653,-350.5"/>
<text text-anchor="middle" x="608" y="-338.5" font-family="Helvetica,sans-Serif" font-size="10.00">SetJoystickXml</text>
</a>
</g>
</g>
<!-- Node4&#45;&gt;Node14 -->
<g id="edge20_Node000014_Node000004" class="edge">
<title>Node4&#45;&gt;Node14</title>
<g id="a_edge20_Node000014_Node000004"><a xlink:title=" ">
<path fill="none" stroke="#63b8ff" d="M66.23,-286.17C68.86,-286.45 71.47,-286.73 74,-287 255.28,-306.25 471.41,-327.68 562.76,-336.66"/>
<polygon fill="#63b8ff" stroke="#63b8ff" points="66.44,-282.67 56.12,-285.06 65.68,-289.63 66.44,-282.67"/>
</a>
</g>
</g>
<!-- Node4&#45;&gt;Node15 -->
<g id="edge23_Node000015_Node000004" class="edge">
<title>Node4&#45;&gt;Node15</title>
<g id="a_edge23_Node000015_Node000004"><a xlink:title=" ">
<path fill="none" stroke="#63b8ff" d="M46.47,-298.21C54.31,-304.54 64.03,-311.18 74,-315 150.98,-344.48 249.48,-345.36 301.18,-343.28"/>
<polygon fill="#63b8ff" stroke="#63b8ff" points="48.65,-295.47 38.78,-291.61 44.09,-300.78 48.65,-295.47"/>
</a>
</g>
</g>
<!-- Node16 -->
<g id="Node000016" class="node">
<title>Node16</title>
<g id="a_Node000016"><a xlink:href="classJoyButtonXml.html" target="_top" xlink:title=" ">
<polygon fill="white" stroke="#666666" points="1639.5,-275.5 1556.5,-275.5 1556.5,-256.5 1639.5,-256.5 1639.5,-275.5"/>
<text text-anchor="middle" x="1598" y="-263.5" font-family="Helvetica,sans-Serif" font-size="10.00">JoyButtonXml</text>
</a>
</g>
</g>
<!-- Node4&#45;&gt;Node16 -->
<g id="edge26_Node000016_Node000004" class="edge">
<title>Node4&#45;&gt;Node16</title>
<g id="a_edge26_Node000016_Node000004"><a xlink:title=" ">
<path fill="none" stroke="#63b8ff" d="M28.88,-262.29C29.54,-215.49 37,-95.83 93,-19 102.52,-5.94 107.84,0 124,0 124,0 124,0 1412,0 1539.41,0 1586.18,-208.23 1595.27,-256.22"/>
<polygon fill="#63b8ff" stroke="#63b8ff" points="25.38,-262.3 28.83,-272.32 32.38,-262.34 25.38,-262.3"/>
</a>
</g>
</g>
<!-- Node17 -->
<g id="Node000017" class="node">
<title>Node17</title>
<g id="a_Node000017"><a xlink:href="classInputDevice.html" target="_top" xlink:title="Abstract class representing a hardware input device, e.g a joystick or controller.">
<polygon fill="white" stroke="#666666" points="645.5,-81.5 570.5,-81.5 570.5,-62.5 645.5,-62.5 645.5,-81.5"/>
<text text-anchor="middle" x="608" y="-69.5" font-family="Helvetica,sans-Serif" font-size="10.00">InputDevice</text>
</a>
</g>
</g>
<!-- Node4&#45;&gt;Node17 -->
<g id="edge29_Node000017_Node000004" class="edge">
<title>Node4&#45;&gt;Node17</title>
<g id="a_edge29_Node000017_Node000004"><a xlink:title=" ">
<path fill="none" stroke="#63b8ff" d="M33.83,-262.25C41.74,-233.67 59.98,-180.64 93,-148 121.57,-119.76 136.25,-120.57 175,-110 317.37,-71.16 494.96,-69.52 570.39,-70.88"/>
<polygon fill="#63b8ff" stroke="#63b8ff" points="30.37,-261.68 31.22,-272.24 37.14,-263.45 30.37,-261.68"/>
</a>
</g>
</g>
<!-- Node21 -->
<g id="Node000021" class="node">
<title>Node21</title>
<g id="a_Node000021"><a xlink:href="classJoyControlStick.html" target="_top" xlink:title="Represents stick of a joystick.">
<polygon fill="white" stroke="#666666" points="2015,-446.5 1924,-446.5 1924,-427.5 2015,-427.5 2015,-446.5"/>
<text text-anchor="middle" x="1969.5" y="-434.5" font-family="Helvetica,sans-Serif" font-size="10.00">JoyControlStick</text>
</a>
</g>
</g>
<!-- Node4&#45;&gt;Node21 -->
<g id="edge36_Node000021_Node000004" class="edge">
<title>Node4&#45;&gt;Node21</title>
<g id="a_edge36_Node000021_Node000004"><a xlink:title=" ">
<path fill="none" stroke="#63b8ff" d="M30.87,-301.66C37.05,-363.44 58.44,-552.46 93,-602 102.25,-615.25 107.84,-621 124,-621 124,-621 124,-621 1753,-621 1861.48,-621 1942.96,-484.49 1963.48,-446.63"/>
<polygon fill="#63b8ff" stroke="#63b8ff" points="34.35,-301.28 29.89,-291.67 27.38,-301.97 34.35,-301.28"/>
</a>
</g>
</g>
<!-- Node5&#45;&gt;Node3 -->
<g id="edge4_Node000003_Node000005" class="edge">
<title>Node5&#45;&gt;Node3</title>
<g id="a_edge4_Node000003_Node000005"><a xlink:title=" ">
<path fill="none" stroke="#9a32cd" stroke-dasharray="5,2" d="M1699.28,-510.23C1616.53,-509.07 1449.28,-507 1307.5,-507 336.5,-507 336.5,-507 336.5,-507 268.42,-507 190.75,-483.75 151.53,-470.31"/>
<polygon fill="#9a32cd" stroke="#9a32cd" points="1699.37,-513.73 1709.42,-510.38 1699.47,-506.73 1699.37,-513.73"/>
</a>
</g>
<text text-anchor="middle" x="1047" y="-532" font-family="Helvetica,sans-Serif" font-size="10.00" fill="grey"> activeButton</text>
<text text-anchor="middle" x="1047" y="-521" font-family="Helvetica,sans-Serif" font-size="10.00" fill="grey">naxisbutton</text>
<text text-anchor="middle" x="1047" y="-510" font-family="Helvetica,sans-Serif" font-size="10.00" fill="grey">paxisbutton</text>
</g>
<!-- Node6 -->
<g id="Node000006" class="node">
<title>Node6</title>
<g id="a_Node000006"><a xlink:href="classJoyGradientButton.html" target="_top" xlink:title=" ">
<polygon fill="white" stroke="#666666" points="1651,-356.5 1545,-356.5 1545,-337.5 1651,-337.5 1651,-356.5"/>
<text text-anchor="middle" x="1598" y="-344.5" font-family="Helvetica,sans-Serif" font-size="10.00">JoyGradientButton</text>
</a>
</g>
</g>
<!-- Node6&#45;&gt;Node5 -->
<g id="edge5_Node000005_Node000006" class="edge">
<title>Node6&#45;&gt;Node5</title>
<g id="a_edge5_Node000005_Node000006"><a xlink:title=" ">
<path fill="none" stroke="#63b8ff" d="M1643.57,-361.08C1646.18,-362.57 1648.68,-364.21 1651,-366 1701.06,-404.74 1735.55,-475.64 1746.91,-501.36"/>
<polygon fill="#63b8ff" stroke="#63b8ff" points="1644.91,-357.84 1634.39,-356.56 1641.82,-364.12 1644.91,-357.84"/>
</a>
</g>
</g>
<!-- Node23 -->
<g id="Node000023" class="node">
<title>Node23</title>
<g id="a_Node000023"><a xlink:href="classJoyControlStickButton.html" target="_top" xlink:title=" ">
<polygon fill="white" stroke="#666666" points="1813.5,-393.5 1690.5,-393.5 1690.5,-374.5 1813.5,-374.5 1813.5,-393.5"/>
<text text-anchor="middle" x="1752" y="-381.5" font-family="Helvetica,sans-Serif" font-size="10.00">JoyControlStickButton</text>
</a>
</g>
</g>
<!-- Node6&#45;&gt;Node23 -->
<g id="edge39_Node000023_Node000006" class="edge">
<title>Node6&#45;&gt;Node23</title>
<g id="a_edge39_Node000023_Node000006"><a xlink:title=" ">
<path fill="none" stroke="#63b8ff" d="M1647.99,-358.93C1668.61,-363.94 1692.28,-369.71 1711.72,-374.44"/>
<polygon fill="#63b8ff" stroke="#63b8ff" points="1648.69,-355.49 1638.14,-356.53 1647.03,-362.29 1648.69,-355.49"/>
</a>
</g>
</g>
<!-- Node24 -->
<g id="Node000024" class="node">
<title>Node24</title>
<g id="a_Node000024"><a xlink:href="classJoyControlStickModifierButton.html" target="_top" xlink:title=" ">
<polygon fill="white" stroke="#666666" points="2290,-412.5 2127,-412.5 2127,-393.5 2290,-393.5 2290,-412.5"/>
<text text-anchor="middle" x="2208.5" y="-400.5" font-family="Helvetica,sans-Serif" font-size="10.00">JoyControlStickModifierButton</text>
</a>
</g>
</g>
<!-- Node6&#45;&gt;Node24 -->
<g id="edge42_Node000024_Node000006" class="edge">
<title>Node6&#45;&gt;Node24</title>
<g id="a_edge42_Node000024_Node000006"><a xlink:title=" ">
<path fill="none" stroke="#63b8ff" d="M1661.22,-350.79C1723.27,-354.73 1821.3,-361.38 1906,-369 1996.39,-377.13 2018.84,-380.62 2109,-391 2115.85,-391.79 2122.96,-392.62 2130.08,-393.47"/>
<polygon fill="#63b8ff" stroke="#63b8ff" points="1661.39,-347.3 1651.19,-350.16 1660.95,-354.28 1661.39,-347.3"/>
</a>
</g>
</g>
<!-- Node7&#45;&gt;Node6 -->
<g id="edge6_Node000006_Node000007" class="edge">
<title>Node7&#45;&gt;Node6</title>
<g id="a_edge6_Node000006_Node000007"><a xlink:title=" ">
<path fill="none" stroke="#63b8ff" d="M1443.37,-279.73C1480.8,-296.12 1542.41,-323.1 1575.08,-337.4"/>
<polygon fill="#63b8ff" stroke="#63b8ff" points="1444.51,-276.41 1433.95,-275.61 1441.71,-282.83 1444.51,-276.41"/>
</a>
</g>
</g>
<!-- Node12 -->
<g id="Node000012" class="node">
<title>Node12</title>
<g id="a_Node000012"><a xlink:href="classJoyDPadButton.html" target="_top" xlink:title=" ">
<polygon fill="white" stroke="#666666" points="1642.5,-394.5 1553.5,-394.5 1553.5,-375.5 1642.5,-375.5 1642.5,-394.5"/>
<text text-anchor="middle" x="1598" y="-382.5" font-family="Helvetica,sans-Serif" font-size="10.00">JoyDPadButton</text>
</a>
</g>
</g>
<!-- Node7&#45;&gt;Node12 -->
<g id="edge16_Node000012_Node000007" class="edge">
<title>Node7&#45;&gt;Node12</title>
<g id="a_edge16_Node000012_Node000007"><a xlink:title=" ">
<path fill="none" stroke="#63b8ff" d="M1426.66,-283.13C1435.91,-293.36 1448.44,-306.22 1461,-316 1495.1,-342.56 1506.04,-346.29 1545,-365 1552.85,-368.77 1561.6,-372.36 1569.66,-375.43"/>
<polygon fill="#63b8ff" stroke="#63b8ff" points="1429.25,-280.78 1420.01,-275.6 1424,-285.41 1429.25,-280.78"/>
</a>
</g>
</g>
<!-- Node7&#45;&gt;Node16 -->
<g id="edge27_Node000016_Node000007" class="edge">
<title>Node7&#45;&gt;Node16</title>
<g id="a_edge27_Node000016_Node000007"><a xlink:title=" ">
<path fill="none" stroke="#9a32cd" stroke-dasharray="5,2" d="M1453.76,-266C1484.46,-266 1525.95,-266 1556.38,-266"/>
<polygon fill="#9a32cd" stroke="#9a32cd" points="1453.38,-262.5 1443.38,-266 1453.38,-269.5 1453.38,-262.5"/>
</a>
</g>
<text text-anchor="middle" x="1494" y="-269" font-family="Helvetica,sans-Serif" font-size="10.00" fill="grey"> m_joyButton</text>
</g>
<!-- Node8&#45;&gt;Node7 -->
<g id="edge8_Node000007_Node000008" class="edge">
<title>Node8&#45;&gt;Node7</title>
<g id="a_edge8_Node000007_Node000008"><a xlink:title=" ">
<path fill="none" stroke="#9a32cd" stroke-dasharray="5,2" d="M268.12,-123.81C388.18,-111.98 699.63,-84 960.5,-84 960.5,-84 960.5,-84 1211,-84 1314,-84 1386.94,-218.41 1405.41,-256.21"/>
<polygon fill="#9a32cd" stroke="#9a32cd" points="267.73,-120.34 258.12,-124.81 268.42,-127.3 267.73,-120.34"/>
</a>
</g>
<text text-anchor="middle" x="837" y="-202" font-family="Helvetica,sans-Serif" font-size="10.00" fill="grey"> currentCycle</text>
<text text-anchor="middle" x="837" y="-191" font-family="Helvetica,sans-Serif" font-size="10.00" fill="grey">currentDelay</text>
<text text-anchor="middle" x="837" y="-180" font-family="Helvetica,sans-Serif" font-size="10.00" fill="grey">currentHold</text>
<text text-anchor="middle" x="837" y="-169" font-family="Helvetica,sans-Serif" font-size="10.00" fill="grey">currentKeyPress</text>
<text text-anchor="middle" x="837" y="-158" font-family="Helvetica,sans-Serif" font-size="10.00" fill="grey">currentMouseEvent</text>
<text text-anchor="middle" x="837" y="-147" font-family="Helvetica,sans-Serif" font-size="10.00" fill="grey">currentPause</text>
<text text-anchor="middle" x="837" y="-136" font-family="Helvetica,sans-Serif" font-size="10.00" fill="grey">currentRelease</text>
<text text-anchor="middle" x="837" y="-125" font-family="Helvetica,sans-Serif" font-size="10.00" fill="grey">currentSetChangeSlot</text>
<text text-anchor="middle" x="837" y="-114" font-family="Helvetica,sans-Serif" font-size="10.00" fill="grey">currentWheelHorizontalEvent</text>
<text text-anchor="middle" x="837" y="-103" font-family="Helvetica,sans-Serif" font-size="10.00" fill="grey">currentWheelVerticalEvent</text>
<text text-anchor="middle" x="837" y="-92" font-family="Helvetica,sans-Serif" font-size="10.00" fill="grey">...</text>
</g>
<!-- Node9&#45;&gt;Node7 -->
<g id="edge10_Node000007_Node000009" class="edge">
<title>Node9&#45;&gt;Node7</title>
<g id="a_edge10_Node000007_Node000009"><a xlink:title=" ">
<path fill="none" stroke="#9a32cd" stroke-dasharray="5,2" d="M555.22,-269.68C745.23,-268.87 1248.35,-266.7 1378.77,-266.13"/>
<polygon fill="#9a32cd" stroke="#9a32cd" points="555.04,-266.19 545.06,-269.73 555.07,-273.18 555.04,-266.19"/>
</a>
</g>
<text text-anchor="middle" x="961.5" y="-272" font-family="Helvetica,sans-Serif" font-size="10.00" fill="grey"> mouseHelper</text>
</g>
<!-- Node10 -->
<g id="Node000010" class="node">
<title>Node10</title>
<g id="a_Node000010"><a xlink:href="classVDPad.html" target="_top" xlink:title=" ">
<polygon fill="white" stroke="#666666" points="1234,-356.5 1186,-356.5 1186,-337.5 1234,-337.5 1234,-356.5"/>
<text text-anchor="middle" x="1210" y="-344.5" font-family="Helvetica,sans-Serif" font-size="10.00">VDPad</text>
</a>
</g>
</g>
<!-- Node10&#45;&gt;Node7 -->
<g id="edge12_Node000007_Node000010" class="edge">
<title>Node10&#45;&gt;Node7</title>
<g id="a_edge12_Node000007_Node000010"><a xlink:title=" ">
<path fill="none" stroke="#9a32cd" stroke-dasharray="5,2" d="M1243.58,-333.74C1283.79,-317.37 1351.2,-289.93 1386.62,-275.52"/>
<polygon fill="#9a32cd" stroke="#9a32cd" points="1242.16,-330.54 1234.22,-337.55 1244.8,-337.02 1242.16,-330.54"/>
</a>
</g>
<text text-anchor="middle" x="1306.5" y="-333" font-family="Helvetica,sans-Serif" font-size="10.00" fill="grey"> m_vdpad</text>
</g>
<!-- Node11&#45;&gt;Node10 -->
<g id="edge13_Node000010_Node000011" class="edge">
<title>Node11&#45;&gt;Node10</title>
<g id="a_edge13_Node000010_Node000011"><a xlink:title=" ">
<path fill="none" stroke="#63b8ff" d="M1085.12,-374.34C1089.45,-373.17 1093.82,-372.04 1098,-371 1128.24,-363.51 1163.43,-356.12 1185.95,-351.56"/>
<polygon fill="#63b8ff" stroke="#63b8ff" points="1083.88,-371.05 1075.17,-377.07 1085.74,-377.8 1083.88,-371.05"/>
</a>
</g>
</g>
<!-- Node11&#45;&gt;Node12 -->
<g id="edge17_Node000012_Node000011" class="edge">
<title>Node11&#45;&gt;Node12</title>
<g id="a_edge17_Node000012_Node000011"><a xlink:title=" ">
<path fill="none" stroke="#9a32cd" stroke-dasharray="5,2" d="M1085.11,-396.56C1089.42,-397.56 1093.78,-398.41 1098,-399 1286.81,-425.56 1337.32,-418.36 1527,-399 1536.49,-398.03 1546.61,-396.38 1556.11,-394.54"/>
<polygon fill="#9a32cd" stroke="#9a32cd" points="1085.78,-393.12 1075.23,-394.04 1084.05,-399.9 1085.78,-393.12"/>
</a>
</g>
<text text-anchor="middle" x="1306.5" y="-420" font-family="Helvetica,sans-Serif" font-size="10.00" fill="grey"> m_dpad</text>
</g>
<!-- Node12&#45;&gt;Node11 -->
<g id="edge15_Node000011_Node000012" class="edge">
<title>Node12&#45;&gt;Node11</title>
<g id="a_edge15_Node000011_Node000012"><a xlink:title=" ">
<path fill="none" stroke="#9a32cd" stroke-dasharray="5,2" d="M1542.95,-385C1427.66,-385 1161.14,-385 1075.22,-385"/>
<polygon fill="#9a32cd" stroke="#9a32cd" points="1543.29,-388.5 1553.29,-385 1543.29,-381.5 1543.29,-388.5"/>
</a>
</g>
<text text-anchor="middle" x="1306.5" y="-388" font-family="Helvetica,sans-Serif" font-size="10.00" fill="grey"> activeDiagonalButton</text>
</g>
<!-- Node13 -->
<g id="Node000013" class="node">
<title>Node13</title>
<g id="a_Node000013"><a xlink:href="classSetJoystick.html" target="_top" xlink:title="A set of mapped events which can by switched by a controller event. Contains controller input objects...">
<polygon fill="white" stroke="#666666" points="872.5,-377.5 801.5,-377.5 801.5,-358.5 872.5,-358.5 872.5,-377.5"/>
<text text-anchor="middle" x="837" y="-365.5" font-family="Helvetica,sans-Serif" font-size="10.00">SetJoystick</text>
</a>
</g>
</g>
<!-- Node13&#45;&gt;Node3 -->
<g id="edge44_Node000003_Node000013" class="edge">
<title>Node13&#45;&gt;Node3</title>
<g id="a_edge44_Node000003_Node000013"><a xlink:title=" ">
<path fill="none" stroke="#9a32cd" stroke-dasharray="5,2" d="M791.31,-372.03C684.37,-381.99 405.44,-409.94 175,-450 167.36,-451.33 159.1,-453.06 151.59,-454.76"/>
<polygon fill="#9a32cd" stroke="#9a32cd" points="791.78,-375.5 801.42,-371.09 791.14,-368.53 791.78,-375.5"/>
</a>
</g>
<text text-anchor="middle" x="481" y="-417" font-family="Helvetica,sans-Serif" font-size="10.00" fill="grey"> m_parentSet</text>
</g>
<!-- Node13&#45;&gt;Node11 -->
<g id="edge18_Node000011_Node000013" class="edge">
<title>Node13&#45;&gt;Node11</title>
<g id="a_edge18_Node000011_Node000013"><a xlink:title=" ">
<path fill="none" stroke="#9a32cd" stroke-dasharray="5,2" d="M882.89,-371.67C924.22,-375.05 984.18,-379.95 1018.71,-382.77"/>
<polygon fill="#9a32cd" stroke="#9a32cd" points="883.07,-368.17 872.81,-370.85 882.5,-375.15 883.07,-368.17"/>
</a>
</g>
<text text-anchor="middle" x="961.5" y="-384" font-family="Helvetica,sans-Serif" font-size="10.00" fill="grey"> m_parentSet</text>
</g>
<!-- Node13&#45;&gt;Node14 -->
<g id="edge21_Node000014_Node000013" class="edge">
<title>Node13&#45;&gt;Node14</title>
<g id="a_edge21_Node000014_Node000013"><a xlink:title=" ">
<path fill="none" stroke="#9a32cd" stroke-dasharray="5,2" d="M801.86,-355.06C785.52,-349.54 765.52,-343.75 747,-341 715.84,-336.38 680.28,-336.5 653.06,-337.72"/>
<polygon fill="#9a32cd" stroke="#9a32cd" points="800.92,-358.44 811.51,-358.44 803.23,-351.83 800.92,-358.44"/>
</a>
</g>
<text text-anchor="middle" x="709" y="-344" font-family="Helvetica,sans-Serif" font-size="10.00" fill="grey"> m_setJoystick</text>
</g>
<!-- Node14&#45;&gt;Node13 -->
<g id="edge19_Node000013_Node000014" class="edge">
<title>Node14&#45;&gt;Node13</title>
<g id="a_edge19_Node000013_Node000014"><a xlink:title=" ">
<path fill="none" stroke="#63b8ff" d="M661.01,-352.39C664.38,-352.98 667.74,-353.52 671,-354 715.8,-360.57 767.93,-364.36 801.41,-366.3"/>
<polygon fill="#63b8ff" stroke="#63b8ff" points="661.37,-348.89 650.9,-350.51 660.09,-355.78 661.37,-348.89"/>
</a>
</g>
</g>
<!-- Node15&#45;&gt;Node14 -->
<g id="edge22_Node000014_Node000015" class="edge">
<title>Node15&#45;&gt;Node14</title>
<g id="a_edge22_Node000014_Node000015"><a xlink:title=" ">
<path fill="none" stroke="#9a32cd" stroke-dasharray="5,2" d="M383.78,-341C433.72,-341 513.54,-341 562.97,-341"/>
<polygon fill="#9a32cd" stroke="#9a32cd" points="383.6,-337.5 373.6,-341 383.6,-344.5 383.6,-337.5"/>
</a>
</g>
<text text-anchor="middle" x="481" y="-344" font-family="Helvetica,sans-Serif" font-size="10.00" fill="grey"> joyAxisXml</text>
</g>
<!-- Node16&#45;&gt;Node14 -->
<g id="edge25_Node000014_Node000016" class="edge">
<title>Node16&#45;&gt;Node14</title>
<g id="a_edge25_Node000014_Node000016"><a xlink:title=" ">
<path fill="none" stroke="#9a32cd" stroke-dasharray="5,2" d="M1546.28,-277.14C1539.8,-278.49 1533.25,-279.8 1527,-281 1453.51,-295.06 1435.56,-302.76 1361,-309 1260.46,-317.42 1234.89,-309 1134,-309 836,-309 836,-309 836,-309 770.93,-309 696.38,-322.05 651.01,-331.49"/>
<polygon fill="#9a32cd" stroke="#9a32cd" points="1547.28,-280.51 1556.35,-275.03 1545.84,-273.66 1547.28,-280.51"/>
</a>
</g>
<text text-anchor="middle" x="1133" y="-312" font-family="Helvetica,sans-Serif" font-size="10.00" fill="grey"> joyButtonXml</text>
</g>
<!-- Node17&#45;&gt;Node13 -->
<g id="edge28_Node000013_Node000017" class="edge">
<title>Node17&#45;&gt;Node13</title>
<g id="a_edge28_Node000013_Node000017"><a xlink:title=" ">
<path fill="none" stroke="#9a32cd" stroke-dasharray="5,2" d="M622.58,-89.71C665.31,-145.43 796.09,-315.96 828.62,-358.37"/>
<polygon fill="#9a32cd" stroke="#9a32cd" points="625.16,-87.32 616.3,-81.51 619.6,-91.58 625.16,-87.32"/>
</a>
</g>
<text text-anchor="middle" x="709" y="-250" font-family="Helvetica,sans-Serif" font-size="10.00" fill="grey"> m_device</text>
</g>
<!-- Node18 -->
<g id="Node000018" class="node">
<title>Node18</title>
<g id="a_Node000018"><a xlink:href="classInputDeviceCalibration.html" target="_top" xlink:title="Calibration storage backend which can store multiple calibration items for different controllers.">
<polygon fill="white" stroke="#666666" points="901,-47.5 773,-47.5 773,-28.5 901,-28.5 901,-47.5"/>
<text text-anchor="middle" x="837" y="-35.5" font-family="Helvetica,sans-Serif" font-size="10.00">InputDeviceCalibration</text>
</a>
</g>
</g>
<!-- Node17&#45;&gt;Node18 -->
<g id="edge31_Node000018_Node000017" class="edge">
<title>Node17&#45;&gt;Node18</title>
<g id="a_edge31_Node000018_Node000017"><a xlink:title=" ">
<path fill="none" stroke="#9a32cd" stroke-dasharray="5,2" d="M655.8,-64.99C689.6,-59.93 735.64,-53.03 772.72,-47.48"/>
<polygon fill="#9a32cd" stroke="#9a32cd" points="655.09,-61.56 645.72,-66.5 656.13,-68.48 655.09,-61.56"/>
</a>
</g>
<text text-anchor="middle" x="709" y="-65" font-family="Helvetica,sans-Serif" font-size="10.00" fill="grey"> m_device</text>
</g>
<!-- Node18&#45;&gt;Node17 -->
<g id="edge30_Node000017_Node000018" class="edge">
<title>Node18&#45;&gt;Node17</title>
<g id="a_edge30_Node000017_Node000018"><a xlink:title=" ">
<path fill="none" stroke="#9a32cd" stroke-dasharray="5,2" d="M762.76,-30.96C733.79,-30.11 700.44,-31.56 671,-39 653.03,-43.54 634.54,-54.32 622.49,-62.34"/>
<polygon fill="#9a32cd" stroke="#9a32cd" points="762.69,-34.46 772.82,-31.36 762.96,-27.47 762.69,-34.46"/>
</a>
</g>
<text text-anchor="middle" x="709" y="-42" font-family="Helvetica,sans-Serif" font-size="10.00" fill="grey"> m_calibrations</text>
</g>
<!-- Node19 -->
<g id="Node000019" class="node">
<title>Node19</title>
<g id="a_Node000019"><a xlink:href="classAntiMicroSettings.html" target="_top" xlink:title=" ">
<polygon fill="white" stroke="#666666" points="389,-47.5 286,-47.5 286,-28.5 389,-28.5 389,-47.5"/>
<text text-anchor="middle" x="337.5" y="-35.5" font-family="Helvetica,sans-Serif" font-size="10.00">AntiMicroSettings</text>
</a>
</g>
</g>
<!-- Node19&#45;&gt;Node17 -->
<g id="edge32_Node000017_Node000019" class="edge">
<title>Node19&#45;&gt;Node17</title>
<g id="a_edge32_Node000017_Node000019"><a xlink:title=" ">
<path fill="none" stroke="#9a32cd" stroke-dasharray="5,2" d="M399.25,-37.64C440.68,-38.41 496.59,-41.45 545,-51 558.05,-53.57 572.12,-58.18 583.55,-62.43"/>
<polygon fill="#9a32cd" stroke="#9a32cd" points="399.1,-34.13 389.05,-37.49 399,-41.13 399.1,-34.13"/>
</a>
</g>
<text text-anchor="middle" x="481" y="-54" font-family="Helvetica,sans-Serif" font-size="10.00" fill="grey"> m_settings</text>
</g>
<!-- Node20 -->
<g id="Node000020" class="node">
<title>Node20</title>
<g id="a_Node000020"><a xlink:title=" ">
<polygon fill="white" stroke="#666666" points="157,-47.5 93,-47.5 93,-28.5 157,-28.5 157,-47.5"/>
<text text-anchor="middle" x="125" y="-35.5" font-family="Helvetica,sans-Serif" font-size="10.00">QSettings</text>
</a>
</g>
</g>
<!-- Node20&#45;&gt;Node19 -->
<g id="edge33_Node000019_Node000020" class="edge">
<title>Node20&#45;&gt;Node19</title>
<g id="a_edge33_Node000019_Node000020"><a xlink:title=" ">
<path fill="none" stroke="#63b8ff" d="M167.1,-38C201.04,-38 249.36,-38 285.71,-38"/>
<polygon fill="#63b8ff" stroke="#63b8ff" points="167.06,-34.5 157.06,-38 167.06,-41.5 167.06,-34.5"/>
</a>
</g>
</g>
<!-- Node21&#45;&gt;Node3 -->
<g id="edge35_Node000003_Node000021" class="edge">
<title>Node21&#45;&gt;Node3</title>
<g id="a_edge35_Node000003_Node000021"><a xlink:title=" ">
<path fill="none" stroke="#9a32cd" stroke-dasharray="5,2" d="M1913.6,-446.51C1870.16,-453.21 1807.89,-461 1753,-461 336.5,-461 336.5,-461 336.5,-461 269.81,-461 191.22,-461 151.6,-461"/>
<polygon fill="#9a32cd" stroke="#9a32cd" points="1914.34,-449.94 1923.67,-444.93 1913.25,-443.02 1914.34,-449.94"/>
</a>
</g>
<text text-anchor="middle" x="1133" y="-464" font-family="Helvetica,sans-Serif" font-size="10.00" fill="grey"> m_stick</text>
</g>
<!-- Node21&#45;&gt;Node23 -->
<g id="edge40_Node000023_Node000021" class="edge">
<title>Node21&#45;&gt;Node23</title>
<g id="a_edge40_Node000023_Node000021"><a xlink:title=" ">
<path fill="none" stroke="#9a32cd" stroke-dasharray="5,2" d="M1954.67,-419.71C1943.19,-406.84 1925.62,-390.3 1906,-383 1874.51,-371.28 1836.78,-371.39 1806.67,-374.49"/>
<polygon fill="#9a32cd" stroke="#9a32cd" points="1952.15,-422.14 1961.29,-427.5 1957.48,-417.61 1952.15,-422.14"/>
</a>
</g>
<text text-anchor="middle" x="1870" y="-386" font-family="Helvetica,sans-Serif" font-size="10.00" fill="grey"> stick</text>
</g>
<!-- Node21&#45;&gt;Node24 -->
<g id="edge43_Node000024_Node000021" class="edge">
<title>Node21&#45;&gt;Node24</title>
<g id="a_edge43_Node000024_Node000021"><a xlink:title=" ">
<path fill="none" stroke="#9a32cd" stroke-dasharray="5,2" d="M1992.08,-421.77C2003.63,-414.55 2018.45,-406.7 2033,-403 2063.09,-395.34 2097.06,-393.82 2126.98,-394.74"/>
<polygon fill="#9a32cd" stroke="#9a32cd" points="1990.03,-418.93 1983.58,-427.34 1993.86,-424.79 1990.03,-418.93"/>
</a>
</g>
<text text-anchor="middle" x="2071" y="-406" font-family="Helvetica,sans-Serif" font-size="10.00" fill="grey"> stick</text>
</g>
<!-- Node22 -->
<g id="Node000022" class="node">
<title>Node22</title>
<g id="a_Node000022"><a xlink:href="classJoyStickDirectionsType.html" target="_top" xlink:title=" ">
<polygon fill="white" stroke="#666666" points="1816,-668.5 1688,-668.5 1688,-649.5 1816,-649.5 1816,-668.5"/>
<text text-anchor="middle" x="1752" y="-656.5" font-family="Helvetica,sans-Serif" font-size="10.00">JoyStickDirectionsType</text>
</a>
</g>
</g>
<!-- Node22&#45;&gt;Node21 -->
<g id="edge37_Node000021_Node000022" class="edge">
<title>Node22&#45;&gt;Node21</title>
<g id="a_edge37_Node000021_Node000022"><a xlink:title=" ">
<path fill="none" stroke="#63b8ff" d="M1826.44,-663.1C1854.2,-660.95 1884.3,-653.66 1906,-635 1964.76,-584.46 1968.9,-479.16 1968.73,-446.72"/>
<polygon fill="#63b8ff" stroke="#63b8ff" points="1826.12,-659.62 1816.33,-663.68 1826.51,-666.61 1826.12,-659.62"/>
</a>
</g>
</g>
<!-- Node23&#45;&gt;Node21 -->
<g id="edge38_Node000021_Node000023" class="edge">
<title>Node23&#45;&gt;Node21</title>
<g id="a_edge38_Node000021_Node000023"><a xlink:title=" ">
<path fill="none" stroke="#9a32cd" stroke-dasharray="5,2" d="M1822.97,-395.3C1849.22,-400.17 1879.19,-406.49 1906,-414 1919.25,-417.71 1933.69,-422.94 1945.34,-427.48"/>
<polygon fill="#9a32cd" stroke="#9a32cd" points="1823.56,-391.85 1813.1,-393.5 1822.31,-398.74 1823.56,-391.85"/>
</a>
</g>
<text text-anchor="middle" x="1870" y="-439" font-family="Helvetica,sans-Serif" font-size="10.00" fill="grey"> activeButton1</text>
<text text-anchor="middle" x="1870" y="-428" font-family="Helvetica,sans-Serif" font-size="10.00" fill="grey">activeButton2</text>
<text text-anchor="middle" x="1870" y="-417" font-family="Helvetica,sans-Serif" font-size="10.00" fill="grey">activeButton3</text>
</g>
<!-- Node24&#45;&gt;Node21 -->
<g id="edge41_Node000021_Node000024" class="edge">
<title>Node24&#45;&gt;Node21</title>
<g id="a_edge41_Node000021_Node000024"><a xlink:title=" ">
<path fill="none" stroke="#9a32cd" stroke-dasharray="5,2" d="M2131.07,-413.96C2092.76,-419.46 2047.7,-425.93 2015.08,-430.6"/>
<polygon fill="#9a32cd" stroke="#9a32cd" points="2131.77,-417.4 2141.17,-412.52 2130.77,-410.47 2131.77,-417.4"/>
</a>
</g>
<text text-anchor="middle" x="2071" y="-431" font-family="Helvetica,sans-Serif" font-size="10.00" fill="grey"> modifierButton</text>
</g>
</g>
</svg>
