<?xml version="1.0" encoding="UTF-8" standalone="no"?>
<!DOCTYPE svg PUBLIC "-//W3C//DTD SVG 1.1//EN"
 "http://www.w3.org/Graphics/SVG/1.1/DTD/svg11.dtd">
<!-- Generated by graphviz version 2.43.0 (0)
 -->
<!-- Title: VirtualKeyboardMouseWidget::enableMouseSettingButton Pages: 1 -->
<svg width="1423pt" height="175pt"
 viewBox="0.00 0.00 1423.00 175.00" xmlns="http://www.w3.org/2000/svg" xmlns:xlink="http://www.w3.org/1999/xlink">
<g id="graph0" class="graph" transform="scale(1 1) rotate(0) translate(4 171)">
<title>VirtualKeyboardMouseWidget::enableMouseSettingButton</title>
<polygon fill="white" stroke="transparent" points="-4,4 -4,-171 1419,-171 1419,4 -4,4"/>
<!-- Node1 -->
<g id="node1" class="node">
<title>Node1</title>
<g id="a_node1"><a xlink:title=" ">
<polygon fill="#bfbfbf" stroke="black" points="1254,-25.5 1254,-55.5 1415,-55.5 1415,-25.5 1254,-25.5"/>
<text text-anchor="start" x="1262" y="-43.5" font-family="Helvetica,sans-Serif" font-size="10.00">VirtualKeyboardMouseWidget</text>
<text text-anchor="middle" x="1334.5" y="-32.5" font-family="Helvetica,sans-Serif" font-size="10.00">::enableMouseSettingButton</text>
</a>
</g>
</g>
<!-- Node2 -->
<g id="node2" class="node">
<title>Node2</title>
<g id="a_node2"><a xlink:href="classVirtualKeyboardMouseWidget.html#a379b1e56c40759f5efbb912692779997" target="_top" xlink:title=" ">
<polygon fill="white" stroke="black" points="1057,-49.5 1057,-79.5 1218,-79.5 1218,-49.5 1057,-49.5"/>
<text text-anchor="start" x="1065" y="-67.5" font-family="Helvetica,sans-Serif" font-size="10.00">VirtualKeyboardMouseWidget</text>
<text text-anchor="middle" x="1137.5" y="-56.5" font-family="Helvetica,sans-Serif" font-size="10.00">::nullifyDialogPointer</text>
</a>
</g>
</g>
<!-- Node1&#45;&gt;Node2 -->
<g id="edge1" class="edge">
<title>Node1&#45;&gt;Node2</title>
<path fill="none" stroke="midnightblue" d="M1243.88,-51.53C1235.3,-52.59 1226.64,-53.65 1218.16,-54.7"/>
<polygon fill="midnightblue" stroke="midnightblue" points="1244.41,-54.99 1253.9,-50.3 1243.55,-48.04 1244.41,-54.99"/>
</g>
<!-- Node11 -->
<g id="node11" class="node">
<title>Node11</title>
<g id="a_node11"><a xlink:href="classVirtualKeyboardMouseWidget.html#a8a836861921229a265e5bb30b62e90a1" target="_top" xlink:title=" ">
<polygon fill="white" stroke="black" points="850,-0.5 850,-30.5 1011,-30.5 1011,-0.5 850,-0.5"/>
<text text-anchor="start" x="858" y="-18.5" font-family="Helvetica,sans-Serif" font-size="10.00">VirtualKeyboardMouseWidget</text>
<text text-anchor="middle" x="930.5" y="-7.5" font-family="Helvetica,sans-Serif" font-size="10.00">::openMouseSettingsDialog</text>
</a>
</g>
</g>
<!-- Node1&#45;&gt;Node11 -->
<g id="edge13" class="edge">
<title>Node1&#45;&gt;Node11</title>
<path fill="none" stroke="midnightblue" d="M1243.51,-34.9C1173.83,-30.57 1078.21,-24.62 1011.25,-20.46"/>
<polygon fill="midnightblue" stroke="midnightblue" points="1243.4,-38.4 1253.6,-35.53 1243.83,-31.42 1243.4,-38.4"/>
</g>
<!-- Node3 -->
<g id="node3" class="node">
<title>Node3</title>
<g id="a_node3"><a xlink:href="classVirtualKeyboardMouseWidget.html#ae1533c129fa9bf28b976c09eb9dd1420" target="_top" xlink:title=" ">
<polygon fill="white" stroke="black" points="840,-98.5 840,-128.5 1021,-128.5 1021,-98.5 840,-98.5"/>
<text text-anchor="start" x="848" y="-116.5" font-family="Helvetica,sans-Serif" font-size="10.00">VirtualKeyboardMouseWidget</text>
<text text-anchor="middle" x="930.5" y="-105.5" font-family="Helvetica,sans-Serif" font-size="10.00">::processSingleKeyboardSelection</text>
</a>
</g>
</g>
<!-- Node2&#45;&gt;Node3 -->
<g id="edge2" class="edge">
<title>Node2&#45;&gt;Node3</title>
<path fill="none" stroke="midnightblue" d="M1063.69,-81.9C1041.01,-87.32 1016.21,-93.25 994.28,-98.49"/>
<polygon fill="midnightblue" stroke="midnightblue" points="1064.69,-85.26 1073.6,-79.53 1063.06,-78.46 1064.69,-85.26"/>
</g>
<!-- Node9 -->
<g id="node9" class="node">
<title>Node9</title>
<g id="a_node9"><a xlink:href="classVirtualKeyboardMouseWidget.html#ae535d1ab2f639bb93110c6081dce1731" target="_top" xlink:title=" ">
<polygon fill="white" stroke="black" points="847,-49.5 847,-79.5 1014,-79.5 1014,-49.5 847,-49.5"/>
<text text-anchor="start" x="855" y="-67.5" font-family="Helvetica,sans-Serif" font-size="10.00">VirtualKeyboardMouseWidget</text>
<text text-anchor="middle" x="930.5" y="-56.5" font-family="Helvetica,sans-Serif" font-size="10.00">::processSingleMouseSelection</text>
</a>
</g>
</g>
<!-- Node2&#45;&gt;Node9 -->
<g id="edge9" class="edge">
<title>Node2&#45;&gt;Node9</title>
<path fill="none" stroke="midnightblue" d="M1046.64,-64.5C1035.8,-64.5 1024.78,-64.5 1014.05,-64.5"/>
<polygon fill="midnightblue" stroke="midnightblue" points="1046.95,-68 1056.95,-64.5 1046.95,-61 1046.95,-68"/>
</g>
<!-- Node4 -->
<g id="node4" class="node">
<title>Node4</title>
<g id="a_node4"><a xlink:href="classVirtualKeyboardMouseWidget.html#a4d88483823d27bf1ba22c334d2407595" target="_top" xlink:title=" ">
<polygon fill="white" stroke="black" points="409,-97 409,-138 584,-138 584,-97 409,-97"/>
<text text-anchor="start" x="417" y="-126" font-family="Helvetica,sans-Serif" font-size="10.00">VirtualKeyboardMouseWidget</text>
<text text-anchor="start" x="417" y="-115" font-family="Helvetica,sans-Serif" font-size="10.00">::establishVirtualKeyboardSingle</text>
<text text-anchor="middle" x="496.5" y="-104" font-family="Helvetica,sans-Serif" font-size="10.00">SignalConnections</text>
</a>
</g>
</g>
<!-- Node3&#45;&gt;Node4 -->
<g id="edge3" class="edge">
<title>Node3&#45;&gt;Node4</title>
<path fill="none" stroke="midnightblue" d="M829.7,-114.42C755.49,-115.11 655.22,-116.04 584.31,-116.7"/>
<polygon fill="midnightblue" stroke="midnightblue" points="830.02,-117.92 839.99,-114.33 829.96,-110.92 830.02,-117.92"/>
</g>
<!-- Node8 -->
<g id="node8" class="node">
<title>Node8</title>
<g id="a_node8"><a xlink:href="classVirtualKeyboardMouseWidget.html#a019229171c104fb3d7b85a41c1dfc2d1" target="_top" xlink:title=" ">
<polygon fill="white" stroke="black" points="643,-136.5 643,-166.5 804,-166.5 804,-136.5 643,-136.5"/>
<text text-anchor="start" x="651" y="-154.5" font-family="Helvetica,sans-Serif" font-size="10.00">VirtualKeyboardMouseWidget</text>
<text text-anchor="middle" x="723.5" y="-143.5" font-family="Helvetica,sans-Serif" font-size="10.00">::otherKeysActionSingle</text>
</a>
</g>
</g>
<!-- Node3&#45;&gt;Node8 -->
<g id="edge7" class="edge">
<title>Node3&#45;&gt;Node8</title>
<path fill="none" stroke="midnightblue" d="M838.51,-130.37C827.1,-132.48 815.49,-134.63 804.26,-136.71"/>
<polygon fill="midnightblue" stroke="midnightblue" points="839.28,-133.78 848.48,-128.52 838.01,-126.9 839.28,-133.78"/>
</g>
<!-- Node5 -->
<g id="node5" class="node">
<title>Node5</title>
<g id="a_node5"><a xlink:href="classButtonEditDialog.html#ade8d1ee4ae03d1080932a70c8170d488" target="_top" xlink:title=" ">
<polygon fill="white" stroke="black" points="173,-99.5 173,-129.5 350,-129.5 350,-99.5 173,-99.5"/>
<text text-anchor="start" x="181" y="-117.5" font-family="Helvetica,sans-Serif" font-size="10.00">ButtonEditDialog::openAdvanced</text>
<text text-anchor="middle" x="261.5" y="-106.5" font-family="Helvetica,sans-Serif" font-size="10.00">Dialog</text>
</a>
</g>
</g>
<!-- Node4&#45;&gt;Node5 -->
<g id="edge4" class="edge">
<title>Node4&#45;&gt;Node5</title>
<path fill="none" stroke="midnightblue" d="M398.32,-116.25C382.33,-116.04 365.85,-115.83 350.11,-115.63"/>
<polygon fill="midnightblue" stroke="midnightblue" points="398.7,-119.75 408.74,-116.38 398.79,-112.75 398.7,-119.75"/>
</g>
<!-- Node7 -->
<g id="node7" class="node">
<title>Node7</title>
<g id="a_node7"><a xlink:href="classVirtualKeyboardMouseWidget.html#a5117686d29ac16c0d1f947da9ba7b7a4" target="_top" xlink:title=" ">
<polygon fill="white" stroke="black" points="178,-47.5 178,-77.5 345,-77.5 345,-47.5 178,-47.5"/>
<text text-anchor="start" x="186" y="-65.5" font-family="Helvetica,sans-Serif" font-size="10.00">VirtualKeyboardMouseWidget</text>
<text text-anchor="middle" x="261.5" y="-54.5" font-family="Helvetica,sans-Serif" font-size="10.00">::VirtualKeyboardMouseWidget</text>
</a>
</g>
</g>
<!-- Node4&#45;&gt;Node7 -->
<g id="edge6" class="edge">
<title>Node4&#45;&gt;Node7</title>
<path fill="none" stroke="midnightblue" d="M398.73,-94.66C374.32,-88.9 348.73,-82.85 326.39,-77.58"/>
<polygon fill="midnightblue" stroke="midnightblue" points="398.2,-98.13 408.74,-97.02 399.81,-91.32 398.2,-98.13"/>
</g>
<!-- Node6 -->
<g id="node6" class="node">
<title>Node6</title>
<g id="a_node6"><a xlink:href="classButtonEditDialog.html#a3e9feede100cbb6a11c9d87659c196ea" target="_top" xlink:title=" ">
<polygon fill="white" stroke="black" points="0,-99.5 0,-129.5 137,-129.5 137,-99.5 0,-99.5"/>
<text text-anchor="start" x="8" y="-117.5" font-family="Helvetica,sans-Serif" font-size="10.00">ButtonEditDialog::Button</text>
<text text-anchor="middle" x="68.5" y="-106.5" font-family="Helvetica,sans-Serif" font-size="10.00">EditDialog</text>
</a>
</g>
</g>
<!-- Node5&#45;&gt;Node6 -->
<g id="edge5" class="edge">
<title>Node5&#45;&gt;Node6</title>
<path fill="none" stroke="midnightblue" d="M162.71,-114.5C154.09,-114.5 145.49,-114.5 137.2,-114.5"/>
<polygon fill="midnightblue" stroke="midnightblue" points="162.83,-118 172.83,-114.5 162.83,-111 162.83,-118"/>
</g>
<!-- Node8&#45;&gt;Node4 -->
<g id="edge8" class="edge">
<title>Node8&#45;&gt;Node4</title>
<path fill="none" stroke="midnightblue" d="M632.52,-137.9C616.62,-135.5 600.1,-133 584.3,-130.62"/>
<polygon fill="midnightblue" stroke="midnightblue" points="632.45,-141.43 642.86,-139.47 633.49,-134.51 632.45,-141.43"/>
</g>
<!-- Node10 -->
<g id="node10" class="node">
<title>Node10</title>
<g id="a_node10"><a xlink:href="classVirtualKeyboardMouseWidget.html#ae98ecab176697aed0ca87609ceceaf06" target="_top" xlink:title=" ">
<polygon fill="white" stroke="black" points="386,-47.5 386,-77.5 607,-77.5 607,-47.5 386,-47.5"/>
<text text-anchor="start" x="394" y="-65.5" font-family="Helvetica,sans-Serif" font-size="10.00">VirtualKeyboardMouseWidget</text>
<text text-anchor="middle" x="496.5" y="-54.5" font-family="Helvetica,sans-Serif" font-size="10.00">::establishVirtualMouseSignalConnections</text>
</a>
</g>
</g>
<!-- Node9&#45;&gt;Node10 -->
<g id="edge10" class="edge">
<title>Node9&#45;&gt;Node10</title>
<path fill="none" stroke="midnightblue" d="M836.8,-64.07C769.45,-63.76 678.07,-63.34 607.1,-63.01"/>
<polygon fill="midnightblue" stroke="midnightblue" points="836.96,-67.57 846.97,-64.12 836.99,-60.57 836.96,-67.57"/>
</g>
<!-- Node10&#45;&gt;Node5 -->
<g id="edge11" class="edge">
<title>Node10&#45;&gt;Node5</title>
<path fill="none" stroke="midnightblue" d="M418.15,-79.76C389.55,-86.15 357.38,-93.33 329.74,-99.49"/>
<polygon fill="midnightblue" stroke="midnightblue" points="419.11,-83.13 428.11,-77.54 417.58,-76.3 419.11,-83.13"/>
</g>
<!-- Node10&#45;&gt;Node7 -->
<g id="edge12" class="edge">
<title>Node10&#45;&gt;Node7</title>
<path fill="none" stroke="midnightblue" d="M375.54,-62.5C365.26,-62.5 355.02,-62.5 345.13,-62.5"/>
<polygon fill="midnightblue" stroke="midnightblue" points="375.82,-66 385.82,-62.5 375.82,-59 375.82,-66"/>
</g>
<!-- Node11&#45;&gt;Node7 -->
<g id="edge14" class="edge">
<title>Node11&#45;&gt;Node7</title>
<path fill="none" stroke="midnightblue" d="M839.77,-14.77C731.72,-14.89 544.94,-18.32 386,-37.5 366.67,-39.83 345.85,-43.56 326.92,-47.44"/>
<polygon fill="midnightblue" stroke="midnightblue" points="839.98,-18.27 849.97,-14.77 839.97,-11.27 839.98,-18.27"/>
</g>
</g>
</svg>
