<?xml version="1.0" encoding="UTF-8" standalone="no"?>
<!DOCTYPE svg PUBLIC "-//W3C//DTD SVG 1.1//EN"
 "http://www.w3.org/Graphics/SVG/1.1/DTD/svg11.dtd">
<!-- Generated by graphviz version 2.43.0 (0)
 -->
<!-- Title: JoyButton::resetSlotsProp Pages: 1 -->
<svg width="1221pt" height="1289pt"
 viewBox="0.00 0.00 1221.00 1288.50" xmlns="http://www.w3.org/2000/svg" xmlns:xlink="http://www.w3.org/1999/xlink">
<g id="graph0" class="graph" transform="scale(1 1) rotate(0) translate(4 1284.5)">
<title>JoyButton::resetSlotsProp</title>
<polygon fill="white" stroke="transparent" points="-4,4 -4,-1284.5 1217,-1284.5 1217,4 -4,4"/>
<!-- Node1 -->
<g id="node1" class="node">
<title>Node1</title>
<g id="a_node1"><a xlink:title=" ">
<polygon fill="#bfbfbf" stroke="black" points="1073,-412.5 1073,-431.5 1213,-431.5 1213,-412.5 1073,-412.5"/>
<text text-anchor="middle" x="1143" y="-419.5" font-family="Helvetica,sans-Serif" font-size="10.00">JoyButton::resetSlotsProp</text>
</a>
</g>
</g>
<!-- Node2 -->
<g id="node2" class="node">
<title>Node2</title>
<g id="a_node2"><a xlink:href="classJoyButton.html#a04aadf5bd54cd6fde12426dce5b03196" target="_top" xlink:title=" ">
<polygon fill="white" stroke="black" points="885.5,-907 885.5,-937 1031.5,-937 1031.5,-907 885.5,-907"/>
<text text-anchor="start" x="893.5" y="-925" font-family="Helvetica,sans-Serif" font-size="10.00">JoyButton::clearSlotsEvent</text>
<text text-anchor="middle" x="958.5" y="-914" font-family="Helvetica,sans-Serif" font-size="10.00">Reset</text>
</a>
</g>
</g>
<!-- Node1&#45;&gt;Node2 -->
<g id="edge1" class="edge">
<title>Node1&#45;&gt;Node2</title>
<path fill="none" stroke="midnightblue" d="M1134.91,-441.43C1105.25,-522.69 991.45,-834.47 965.01,-906.9"/>
<polygon fill="midnightblue" stroke="midnightblue" points="1138.38,-442.14 1138.52,-431.54 1131.8,-439.74 1138.38,-442.14"/>
</g>
<!-- Node17 -->
<g id="node17" class="node">
<title>Node17</title>
<g id="a_node17"><a xlink:href="classJoyButton.html#ae8bc1417525f44cbb811be752146c25c" target="_top" xlink:title=" ">
<polygon fill="white" stroke="black" points="896,-412.5 896,-431.5 1021,-431.5 1021,-412.5 896,-412.5"/>
<text text-anchor="middle" x="958.5" y="-419.5" font-family="Helvetica,sans-Serif" font-size="10.00">JoyButton::eventReset</text>
</a>
</g>
</g>
<!-- Node1&#45;&gt;Node17 -->
<g id="edge16" class="edge">
<title>Node1&#45;&gt;Node17</title>
<path fill="none" stroke="midnightblue" d="M1062.71,-422C1048.82,-422 1034.55,-422 1021.23,-422"/>
<polygon fill="midnightblue" stroke="midnightblue" points="1062.74,-425.5 1072.74,-422 1062.74,-418.5 1062.74,-425.5"/>
</g>
<!-- Node40 -->
<g id="node40" class="node">
<title>Node40</title>
<g id="a_node40"><a xlink:href="classJoyButton.html#a04ee41d1e35acff0b5e30ccafffafd0e" target="_top" xlink:title=" ">
<polygon fill="white" stroke="black" points="880,-177.5 880,-196.5 1037,-196.5 1037,-177.5 880,-177.5"/>
<text text-anchor="middle" x="958.5" y="-184.5" font-family="Helvetica,sans-Serif" font-size="10.00">JoyButton::resetAllProperties</text>
</a>
</g>
</g>
<!-- Node1&#45;&gt;Node40 -->
<g id="edge48" class="edge">
<title>Node1&#45;&gt;Node40</title>
<path fill="none" stroke="midnightblue" d="M1128.44,-404.54C1092.34,-358.06 994.75,-232.4 966.97,-196.62"/>
<polygon fill="midnightblue" stroke="midnightblue" points="1125.72,-406.75 1134.62,-412.5 1131.25,-402.45 1125.72,-406.75"/>
</g>
<!-- Node3 -->
<g id="node3" class="node">
<title>Node3</title>
<g id="a_node3"><a xlink:href="classJoyAxisContextMenuHelper.html#ad50e929e28d85dcf66193c59753c71ce" target="_top" xlink:title=" ">
<polygon fill="white" stroke="black" points="670,-1250 670,-1280 822,-1280 822,-1250 670,-1250"/>
<text text-anchor="start" x="678" y="-1268" font-family="Helvetica,sans-Serif" font-size="10.00">JoyAxisContextMenuHelper</text>
<text text-anchor="middle" x="746" y="-1257" font-family="Helvetica,sans-Serif" font-size="10.00">::clearAndResetAxisButtons</text>
</a>
</g>
</g>
<!-- Node2&#45;&gt;Node3 -->
<g id="edge2" class="edge">
<title>Node2&#45;&gt;Node3</title>
<path fill="none" stroke="midnightblue" d="M956.29,-947.17C951.97,-1007.44 932.41,-1160.96 844,-1241 837.7,-1246.71 830.26,-1251.11 822.34,-1254.49"/>
<polygon fill="midnightblue" stroke="midnightblue" points="959.79,-947.24 956.93,-937.04 952.8,-946.8 959.79,-947.24"/>
</g>
<!-- Node4 -->
<g id="node4" class="node">
<title>Node4</title>
<g id="a_node4"><a xlink:href="classDPadContextMenuHelper.html#a586c406fa21f53ca137fe56d0cf236fd" target="_top" xlink:title=" ">
<polygon fill="white" stroke="black" points="664,-1201 664,-1231 828,-1231 828,-1201 664,-1201"/>
<text text-anchor="start" x="672" y="-1219" font-family="Helvetica,sans-Serif" font-size="10.00">DPadContextMenuHelper</text>
<text text-anchor="middle" x="746" y="-1208" font-family="Helvetica,sans-Serif" font-size="10.00">::clearButtonsSlotsEventReset</text>
</a>
</g>
</g>
<!-- Node2&#45;&gt;Node4 -->
<g id="edge3" class="edge">
<title>Node2&#45;&gt;Node4</title>
<path fill="none" stroke="midnightblue" d="M954.43,-947.33C946.53,-1000.99 920.45,-1126.59 844,-1192 839.25,-1196.06 833.93,-1199.45 828.27,-1202.29"/>
<polygon fill="midnightblue" stroke="midnightblue" points="957.91,-947.69 955.81,-937.3 950.98,-946.73 957.91,-947.69"/>
</g>
<!-- Node5 -->
<g id="node5" class="node">
<title>Node5</title>
<g id="a_node5"><a xlink:href="classDPadEditDialogHelper.html#add08a863a14dee0fed6c437c4b2f5631" target="_top" xlink:title=" ">
<polygon fill="white" stroke="black" points="664,-1152 664,-1182 828,-1182 828,-1152 664,-1152"/>
<text text-anchor="start" x="672" y="-1170" font-family="Helvetica,sans-Serif" font-size="10.00">DPadEditDialogHelper</text>
<text text-anchor="middle" x="746" y="-1159" font-family="Helvetica,sans-Serif" font-size="10.00">::clearButtonsSlotsEventReset</text>
</a>
</g>
</g>
<!-- Node2&#45;&gt;Node5 -->
<g id="edge4" class="edge">
<title>Node2&#45;&gt;Node5</title>
<path fill="none" stroke="midnightblue" d="M951.95,-946.87C940.33,-992.95 908.95,-1091.6 844,-1143 839.24,-1146.77 833.97,-1149.95 828.41,-1152.65"/>
<polygon fill="midnightblue" stroke="midnightblue" points="955.36,-947.64 954.31,-937.1 948.56,-946 955.36,-947.64"/>
</g>
<!-- Node6 -->
<g id="node6" class="node">
<title>Node6</title>
<g id="a_node6"><a xlink:href="classJoyControlStickEditDialogHelper.html#a3971cdde1f78981f07ac2d8563e61b8c" target="_top" xlink:title=" ">
<polygon fill="white" stroke="black" points="648,-1103 648,-1133 844,-1133 844,-1103 648,-1103"/>
<text text-anchor="start" x="656" y="-1121" font-family="Helvetica,sans-Serif" font-size="10.00">JoyControlStickEditDialog</text>
<text text-anchor="middle" x="746" y="-1110" font-family="Helvetica,sans-Serif" font-size="10.00">Helper::clearButtonsSlotsEventReset</text>
</a>
</g>
</g>
<!-- Node2&#45;&gt;Node6 -->
<g id="edge5" class="edge">
<title>Node2&#45;&gt;Node6</title>
<path fill="none" stroke="midnightblue" d="M948.07,-946.88C932.42,-984.71 897.42,-1056.26 844,-1094 839.18,-1097.4 833.93,-1100.33 828.45,-1102.84"/>
<polygon fill="midnightblue" stroke="midnightblue" points="951.5,-947.75 951.97,-937.16 945,-945.14 951.5,-947.75"/>
</g>
<!-- Node7 -->
<g id="node7" class="node">
<title>Node7</title>
<g id="a_node7"><a xlink:href="classJoyControlStickContextMenuHelper.html#a6d523f35bf8983898ac197c13191410b" target="_top" xlink:title=" ">
<polygon fill="white" stroke="black" points="648,-1054 648,-1084 844,-1084 844,-1054 648,-1054"/>
<text text-anchor="start" x="656" y="-1072" font-family="Helvetica,sans-Serif" font-size="10.00">JoyControlStickContextMenu</text>
<text text-anchor="middle" x="746" y="-1061" font-family="Helvetica,sans-Serif" font-size="10.00">Helper::clearButtonsSlotsEventReset</text>
</a>
</g>
</g>
<!-- Node2&#45;&gt;Node7 -->
<g id="edge6" class="edge">
<title>Node2&#45;&gt;Node7</title>
<path fill="none" stroke="midnightblue" d="M942.26,-945.54C922.85,-973.57 886.65,-1019.78 844,-1045 838.18,-1048.44 831.88,-1051.4 825.38,-1053.92"/>
<polygon fill="midnightblue" stroke="midnightblue" points="945.25,-947.36 947.96,-937.12 939.45,-943.44 945.25,-947.36"/>
</g>
<!-- Node8 -->
<g id="node8" class="node">
<title>Node8</title>
<g id="a_node8"><a xlink:href="classJoySensorIoThreadHelper.html#ada8d648b6d86485cfc651f2bc47908d8" target="_top" xlink:title="Calls JoyButton::clearSlotEventReset on all JoyButtons of the underlying sensor. Should be called via...">
<polygon fill="white" stroke="black" points="664,-1005 664,-1035 828,-1035 828,-1005 664,-1005"/>
<text text-anchor="start" x="672" y="-1023" font-family="Helvetica,sans-Serif" font-size="10.00">JoySensorIoThreadHelper</text>
<text text-anchor="middle" x="746" y="-1012" font-family="Helvetica,sans-Serif" font-size="10.00">::clearButtonsSlotsEventReset</text>
</a>
</g>
</g>
<!-- Node2&#45;&gt;Node8 -->
<g id="edge7" class="edge">
<title>Node2&#45;&gt;Node8</title>
<path fill="none" stroke="midnightblue" d="M930.33,-943.48C908.23,-960 875.61,-982.25 844,-996 836.2,-999.39 827.84,-1002.36 819.41,-1004.95"/>
<polygon fill="midnightblue" stroke="midnightblue" points="932.71,-946.07 938.56,-937.23 928.48,-940.49 932.71,-946.07"/>
</g>
<!-- Node9 -->
<g id="node9" class="node">
<title>Node9</title>
<g id="a_node9"><a xlink:href="classButtonEditDialogHelper.html#ae0c8bd126dcedd33ced87883cd4da566" target="_top" xlink:title=" ">
<polygon fill="white" stroke="black" points="680.5,-956 680.5,-986 811.5,-986 811.5,-956 680.5,-956"/>
<text text-anchor="start" x="688.5" y="-974" font-family="Helvetica,sans-Serif" font-size="10.00">ButtonEditDialogHelper</text>
<text text-anchor="middle" x="746" y="-963" font-family="Helvetica,sans-Serif" font-size="10.00">::setAssignedSlot</text>
</a>
</g>
</g>
<!-- Node2&#45;&gt;Node9 -->
<g id="edge8" class="edge">
<title>Node2&#45;&gt;Node9</title>
<path fill="none" stroke="midnightblue" d="M883.05,-939.33C859.68,-944.77 834.08,-950.73 811.47,-955.99"/>
<polygon fill="midnightblue" stroke="midnightblue" points="883.97,-942.71 892.91,-937.03 882.38,-935.89 883.97,-942.71"/>
</g>
<!-- Node10 -->
<g id="node10" class="node">
<title>Node10</title>
<g id="a_node10"><a xlink:href="classDPadEditDialogHelper.html#a15e31302f41da2df05eec55810fc9b1e" target="_top" xlink:title=" ">
<polygon fill="white" stroke="black" points="683.5,-907 683.5,-937 808.5,-937 808.5,-907 683.5,-907"/>
<text text-anchor="start" x="691.5" y="-925" font-family="Helvetica,sans-Serif" font-size="10.00">DPadEditDialogHelper</text>
<text text-anchor="middle" x="746" y="-914" font-family="Helvetica,sans-Serif" font-size="10.00">::setFromPendingSlots</text>
</a>
</g>
</g>
<!-- Node2&#45;&gt;Node10 -->
<g id="edge9" class="edge">
<title>Node2&#45;&gt;Node10</title>
<path fill="none" stroke="midnightblue" d="M875.26,-922C853.05,-922 829.4,-922 808.53,-922"/>
<polygon fill="midnightblue" stroke="midnightblue" points="875.35,-925.5 885.35,-922 875.35,-918.5 875.35,-925.5"/>
</g>
<!-- Node11 -->
<g id="node11" class="node">
<title>Node11</title>
<g id="a_node11"><a xlink:href="classDPadContextMenuHelper.html#a4a8d1d9c4ec96d3de8ff69c9afdd560b" target="_top" xlink:title=" ">
<polygon fill="white" stroke="black" points="676.5,-858 676.5,-888 815.5,-888 815.5,-858 676.5,-858"/>
<text text-anchor="start" x="684.5" y="-876" font-family="Helvetica,sans-Serif" font-size="10.00">DPadContextMenuHelper</text>
<text text-anchor="middle" x="746" y="-865" font-family="Helvetica,sans-Serif" font-size="10.00">::setFromPendingSlots</text>
</a>
</g>
</g>
<!-- Node2&#45;&gt;Node11 -->
<g id="edge10" class="edge">
<title>Node2&#45;&gt;Node11</title>
<path fill="none" stroke="midnightblue" d="M883.05,-904.67C859.68,-899.23 834.08,-893.27 811.47,-888.01"/>
<polygon fill="midnightblue" stroke="midnightblue" points="882.38,-908.11 892.91,-906.97 883.97,-901.29 882.38,-908.11"/>
</g>
<!-- Node12 -->
<g id="node12" class="node">
<title>Node12</title>
<g id="a_node12"><a xlink:href="classJoyControlStickEditDialogHelper.html#afe11e24f991d5d825a6ed3b7a7f0a5a6" target="_top" xlink:title=" ">
<polygon fill="white" stroke="black" points="667,-809 667,-839 825,-839 825,-809 667,-809"/>
<text text-anchor="start" x="675" y="-827" font-family="Helvetica,sans-Serif" font-size="10.00">JoyControlStickEditDialog</text>
<text text-anchor="middle" x="746" y="-816" font-family="Helvetica,sans-Serif" font-size="10.00">Helper::setFromPendingSlots</text>
</a>
</g>
</g>
<!-- Node2&#45;&gt;Node12 -->
<g id="edge11" class="edge">
<title>Node2&#45;&gt;Node12</title>
<path fill="none" stroke="midnightblue" d="M929.85,-900.62C907.7,-884.41 875.27,-862.66 844,-849 835.31,-845.21 825.93,-841.89 816.54,-839.03"/>
<polygon fill="midnightblue" stroke="midnightblue" points="927.99,-903.6 938.1,-906.75 932.16,-897.98 927.99,-903.6"/>
</g>
<!-- Node13 -->
<g id="node13" class="node">
<title>Node13</title>
<g id="a_node13"><a xlink:href="classJoySensorIoThreadHelper.html#a639d3efe0906bf8416b4fc6e610fbe5b" target="_top" xlink:title="Applies pending slot values to the buttons Should be called via QMetaObject::invokeMethod.">
<polygon fill="white" stroke="black" points="676,-760 676,-790 816,-790 816,-760 676,-760"/>
<text text-anchor="start" x="684" y="-778" font-family="Helvetica,sans-Serif" font-size="10.00">JoySensorIoThreadHelper</text>
<text text-anchor="middle" x="746" y="-767" font-family="Helvetica,sans-Serif" font-size="10.00">::setFromPendingSlots</text>
</a>
</g>
</g>
<!-- Node2&#45;&gt;Node13 -->
<g id="edge12" class="edge">
<title>Node2&#45;&gt;Node13</title>
<path fill="none" stroke="midnightblue" d="M941.86,-898.29C922.29,-870.51 886.17,-825.1 844,-800 835.41,-794.89 825.78,-790.81 816.02,-787.56"/>
<polygon fill="midnightblue" stroke="midnightblue" points="939.06,-900.39 947.62,-906.64 944.83,-896.42 939.06,-900.39"/>
</g>
<!-- Node14 -->
<g id="node14" class="node">
<title>Node14</title>
<g id="a_node14"><a xlink:href="classJoyControlStickContextMenuHelper.html#ac0fbd4e209aedcd20d547081e80291d1" target="_top" xlink:title=" ">
<polygon fill="white" stroke="black" points="667,-711 667,-741 825,-741 825,-711 667,-711"/>
<text text-anchor="start" x="675" y="-729" font-family="Helvetica,sans-Serif" font-size="10.00">JoyControlStickContextMenu</text>
<text text-anchor="middle" x="746" y="-718" font-family="Helvetica,sans-Serif" font-size="10.00">Helper::setFromPendingSlots</text>
</a>
</g>
</g>
<!-- Node2&#45;&gt;Node14 -->
<g id="edge13" class="edge">
<title>Node2&#45;&gt;Node14</title>
<path fill="none" stroke="midnightblue" d="M947.99,-897.32C932.22,-859.8 897.07,-788.77 844,-751 838.19,-746.87 831.75,-743.41 825.04,-740.53"/>
<polygon fill="midnightblue" stroke="midnightblue" points="944.9,-899.03 951.92,-906.96 951.38,-896.38 944.9,-899.03"/>
</g>
<!-- Node15 -->
<g id="node15" class="node">
<title>Node15</title>
<g id="a_node15"><a xlink:href="classJoyAxisContextMenuHelper.html#ad2e0df387f0d979acb676364889f31fe" target="_top" xlink:title=" ">
<polygon fill="white" stroke="black" points="671,-662 671,-692 821,-692 821,-662 671,-662"/>
<text text-anchor="start" x="679" y="-680" font-family="Helvetica,sans-Serif" font-size="10.00">JoyAxisContextMenuHelper</text>
<text text-anchor="middle" x="746" y="-669" font-family="Helvetica,sans-Serif" font-size="10.00">::setNAssignedSlot</text>
</a>
</g>
</g>
<!-- Node2&#45;&gt;Node15 -->
<g id="edge14" class="edge">
<title>Node2&#45;&gt;Node15</title>
<path fill="none" stroke="midnightblue" d="M951.78,-896.97C939.96,-851.05 908.36,-753.35 844,-702 837.2,-696.58 829.36,-692.32 821.14,-688.98"/>
<polygon fill="midnightblue" stroke="midnightblue" points="948.39,-897.85 954.19,-906.71 955.19,-896.16 948.39,-897.85"/>
</g>
<!-- Node16 -->
<g id="node16" class="node">
<title>Node16</title>
<g id="a_node16"><a xlink:href="classJoyAxisContextMenuHelper.html#abeb45b1b03177dbb96744d86811396e8" target="_top" xlink:title=" ">
<polygon fill="white" stroke="black" points="671,-613 671,-643 821,-643 821,-613 671,-613"/>
<text text-anchor="start" x="679" y="-631" font-family="Helvetica,sans-Serif" font-size="10.00">JoyAxisContextMenuHelper</text>
<text text-anchor="middle" x="746" y="-620" font-family="Helvetica,sans-Serif" font-size="10.00">::setPAssignedSlot</text>
</a>
</g>
</g>
<!-- Node2&#45;&gt;Node16 -->
<g id="edge15" class="edge">
<title>Node2&#45;&gt;Node16</title>
<path fill="none" stroke="midnightblue" d="M954.35,-896.82C946.29,-843.46 919.94,-718.52 844,-653 837.28,-647.21 829.4,-642.73 821.07,-639.27"/>
<polygon fill="midnightblue" stroke="midnightblue" points="950.89,-897.38 955.76,-906.79 957.82,-896.4 950.89,-897.38"/>
</g>
<!-- Node18 -->
<g id="node18" class="node">
<title>Node18</title>
<g id="a_node18"><a xlink:href="classJoyButton.html#a5f380246b40f29a3349500b8efc2f997" target="_top" xlink:title="Copy assignments and properties from one button to another. Used for set copying.">
<polygon fill="white" stroke="black" points="668,-574.5 668,-593.5 824,-593.5 824,-574.5 668,-574.5"/>
<text text-anchor="middle" x="746" y="-581.5" font-family="Helvetica,sans-Serif" font-size="10.00">JoyButton::copyAssignments</text>
</a>
</g>
</g>
<!-- Node17&#45;&gt;Node18 -->
<g id="edge17" class="edge">
<title>Node17&#45;&gt;Node18</title>
<path fill="none" stroke="midnightblue" d="M943.79,-439.79C923.96,-464.6 885.1,-509.81 844,-539 822.36,-554.37 794.63,-566.61 774.36,-574.42"/>
<polygon fill="midnightblue" stroke="midnightblue" points="946.77,-441.66 950.21,-431.64 941.27,-437.33 946.77,-441.66"/>
</g>
<!-- Node24 -->
<g id="node24" class="node">
<title>Node24</title>
<g id="a_node24"><a xlink:href="classJoyDPad.html#a2b41cc51a860cc9b1475938c16da5dba" target="_top" xlink:title=" ">
<polygon fill="white" stroke="black" points="687,-510.5 687,-529.5 805,-529.5 805,-510.5 687,-510.5"/>
<text text-anchor="middle" x="746" y="-517.5" font-family="Helvetica,sans-Serif" font-size="10.00">JoyDPad::eventReset</text>
</a>
</g>
</g>
<!-- Node17&#45;&gt;Node24 -->
<g id="edge27" class="edge">
<title>Node17&#45;&gt;Node24</title>
<path fill="none" stroke="midnightblue" d="M937.56,-438C915.77,-454.74 879.27,-480.67 844,-496 829.92,-502.12 813.98,-506.88 799.15,-510.48"/>
<polygon fill="midnightblue" stroke="midnightblue" points="939.95,-440.57 945.68,-431.66 935.65,-435.06 939.95,-440.57"/>
</g>
<!-- Node25 -->
<g id="node25" class="node">
<title>Node25</title>
<g id="a_node25"><a xlink:href="classSetJoystick.html#aa93108aaa5ccbf15f1b56b22ec73798b" target="_top" xlink:title="Perform a release of all elements of a set. Stick and vdpad releases will be handled by the associate...">
<polygon fill="white" stroke="black" points="464,-453.5 464,-472.5 577,-472.5 577,-453.5 464,-453.5"/>
<text text-anchor="middle" x="520.5" y="-460.5" font-family="Helvetica,sans-Serif" font-size="10.00">SetJoystick::release</text>
</a>
</g>
</g>
<!-- Node17&#45;&gt;Node25 -->
<g id="edge45" class="edge">
<title>Node17&#45;&gt;Node25</title>
<path fill="none" stroke="midnightblue" d="M928.27,-435.74C905.79,-445.52 873.66,-457.81 844,-463 751.48,-479.2 641.74,-474.17 577.07,-468.77"/>
<polygon fill="midnightblue" stroke="midnightblue" points="929.87,-438.86 937.58,-431.6 927.02,-432.47 929.87,-438.86"/>
</g>
<!-- Node35 -->
<g id="node35" class="node">
<title>Node35</title>
<g id="a_node35"><a xlink:href="classJoyAxis.html#afdab5ac18d52b640d58355ca48b69e09" target="_top" xlink:title=" ">
<polygon fill="white" stroke="black" points="689,-434.5 689,-453.5 803,-453.5 803,-434.5 689,-434.5"/>
<text text-anchor="middle" x="746" y="-441.5" font-family="Helvetica,sans-Serif" font-size="10.00">JoyAxis::eventReset</text>
</a>
</g>
</g>
<!-- Node17&#45;&gt;Node35 -->
<g id="edge41" class="edge">
<title>Node17&#45;&gt;Node35</title>
<path fill="none" stroke="midnightblue" d="M885.64,-429.51C858.75,-432.32 828.62,-435.47 803.34,-438.11"/>
<polygon fill="midnightblue" stroke="midnightblue" points="886.18,-432.97 895.77,-428.45 885.46,-426.01 886.18,-432.97"/>
</g>
<!-- Node36 -->
<g id="node36" class="node">
<title>Node36</title>
<g id="a_node36"><a xlink:href="classAdvanceButtonDialogHelper.html#ae2e882e5267140a7e995d254db152312" target="_top" xlink:title=" ">
<polygon fill="white" stroke="black" points="668.5,-385 668.5,-415 823.5,-415 823.5,-385 668.5,-385"/>
<text text-anchor="start" x="676.5" y="-403" font-family="Helvetica,sans-Serif" font-size="10.00">AdvanceButtonDialogHelper</text>
<text text-anchor="middle" x="746" y="-392" font-family="Helvetica,sans-Serif" font-size="10.00">::insertAssignedSlot</text>
</a>
</g>
</g>
<!-- Node17&#45;&gt;Node36 -->
<g id="edge43" class="edge">
<title>Node17&#45;&gt;Node36</title>
<path fill="none" stroke="midnightblue" d="M885.79,-414.51C865.79,-412.41 843.97,-410.13 823.69,-408.01"/>
<polygon fill="midnightblue" stroke="midnightblue" points="885.46,-417.99 895.77,-415.55 886.18,-411.03 885.46,-417.99"/>
</g>
<!-- Node37 -->
<g id="node37" class="node">
<title>Node37</title>
<g id="a_node37"><a xlink:href="classAdvanceButtonDialogHelper.html#add82ea506ac0aeeb44830a10c46bde2a" target="_top" xlink:title=" ">
<polygon fill="white" stroke="black" points="668.5,-336 668.5,-366 823.5,-366 823.5,-336 668.5,-336"/>
<text text-anchor="start" x="676.5" y="-354" font-family="Helvetica,sans-Serif" font-size="10.00">AdvanceButtonDialogHelper</text>
<text text-anchor="middle" x="746" y="-343" font-family="Helvetica,sans-Serif" font-size="10.00">::onlyReset</text>
</a>
</g>
</g>
<!-- Node17&#45;&gt;Node37 -->
<g id="edge44" class="edge">
<title>Node17&#45;&gt;Node37</title>
<path fill="none" stroke="midnightblue" d="M927.07,-408.38C904.45,-398.58 872.67,-385.46 844,-376 833.27,-372.46 821.73,-369.1 810.49,-366.07"/>
<polygon fill="midnightblue" stroke="midnightblue" points="925.91,-411.69 936.48,-412.5 928.72,-405.28 925.91,-411.69"/>
</g>
<!-- Node38 -->
<g id="node38" class="node">
<title>Node38</title>
<g id="a_node38"><a xlink:href="classAdvanceButtonDialogHelper.html#ad773014089c34e4ebc43fd8f9b789fa5" target="_top" xlink:title=" ">
<polygon fill="white" stroke="black" points="668.5,-287 668.5,-317 823.5,-317 823.5,-287 668.5,-287"/>
<text text-anchor="start" x="676.5" y="-305" font-family="Helvetica,sans-Serif" font-size="10.00">AdvanceButtonDialogHelper</text>
<text text-anchor="middle" x="746" y="-294" font-family="Helvetica,sans-Serif" font-size="10.00">::removeAssignedSlot</text>
</a>
</g>
</g>
<!-- Node17&#45;&gt;Node38 -->
<g id="edge46" class="edge">
<title>Node17&#45;&gt;Node38</title>
<path fill="none" stroke="midnightblue" d="M941.88,-404.89C921.43,-383.52 883.52,-347.3 844,-327 836.5,-323.15 828.36,-319.85 820.09,-317.05"/>
<polygon fill="midnightblue" stroke="midnightblue" points="939.43,-407.4 948.83,-412.29 944.54,-402.6 939.43,-407.4"/>
</g>
<!-- Node39 -->
<g id="node39" class="node">
<title>Node39</title>
<g id="a_node39"><a xlink:href="classAdvanceButtonDialogHelper.html#ace294cb1befe2c657dc7cd94456353fa" target="_top" xlink:title=" ">
<polygon fill="white" stroke="black" points="668.5,-238 668.5,-268 823.5,-268 823.5,-238 668.5,-238"/>
<text text-anchor="start" x="676.5" y="-256" font-family="Helvetica,sans-Serif" font-size="10.00">AdvanceButtonDialogHelper</text>
<text text-anchor="middle" x="746" y="-245" font-family="Helvetica,sans-Serif" font-size="10.00">::setAssignedSlot</text>
</a>
</g>
</g>
<!-- Node17&#45;&gt;Node39 -->
<g id="edge47" class="edge">
<title>Node17&#45;&gt;Node39</title>
<path fill="none" stroke="midnightblue" d="M948.02,-403.23C931.36,-372.22 893.81,-310.47 844,-278 837.74,-273.92 830.84,-270.5 823.7,-267.64"/>
<polygon fill="midnightblue" stroke="midnightblue" points="944.95,-404.91 952.68,-412.15 951.15,-401.67 944.95,-404.91"/>
</g>
<!-- Node19 -->
<g id="node19" class="node">
<title>Node19</title>
<g id="a_node19"><a xlink:href="classJoySensor.html#a723df3dcae43b4509bf1af84191e5ad5" target="_top" xlink:title="Copy slots from all sensor buttons and properties from a sensor onto another.">
<polygon fill="white" stroke="black" points="442,-688.5 442,-707.5 599,-707.5 599,-688.5 442,-688.5"/>
<text text-anchor="middle" x="520.5" y="-695.5" font-family="Helvetica,sans-Serif" font-size="10.00">JoySensor::copyAssignments</text>
</a>
</g>
</g>
<!-- Node18&#45;&gt;Node19 -->
<g id="edge18" class="edge">
<title>Node18&#45;&gt;Node19</title>
<path fill="none" stroke="midnightblue" d="M658.27,-597.47C654.67,-599.39 651.22,-601.55 648,-604 620.14,-625.16 639.26,-652.07 612,-674 604.15,-680.32 594.79,-684.98 585.12,-688.43"/>
<polygon fill="midnightblue" stroke="midnightblue" points="659.9,-600.58 667.52,-593.21 656.97,-594.22 659.9,-600.58"/>
</g>
<!-- Node20 -->
<g id="node20" class="node">
<title>Node20</title>
<g id="a_node20"><a xlink:href="classSetJoystick.html#a36b0da099fef84270b6cc7c76741e689" target="_top" xlink:title=" ">
<polygon fill="white" stroke="black" points="222,-650.5 222,-669.5 385,-669.5 385,-650.5 222,-650.5"/>
<text text-anchor="middle" x="303.5" y="-657.5" font-family="Helvetica,sans-Serif" font-size="10.00">SetJoystick::copyAssignments</text>
</a>
</g>
</g>
<!-- Node18&#45;&gt;Node20 -->
<g id="edge26" class="edge">
<title>Node18&#45;&gt;Node20</title>
<path fill="none" stroke="midnightblue" d="M664.22,-596.71C658.59,-598.78 653.12,-601.19 648,-604 627.88,-615.02 632.85,-631.43 612,-641 536.17,-675.81 438.57,-675.25 373.89,-669.5"/>
<polygon fill="midnightblue" stroke="midnightblue" points="665.44,-599.99 673.83,-593.52 663.23,-593.35 665.44,-599.99"/>
</g>
<!-- Node21 -->
<g id="node21" class="node">
<title>Node21</title>
<g id="a_node21"><a xlink:href="classJoyControlStick.html#a57b418a495a22ea5182e89ef4a6cf233" target="_top" xlink:title="Copy slots from all stick buttons and properties from a stick onto another.">
<polygon fill="white" stroke="black" points="429,-612.5 429,-631.5 612,-631.5 612,-612.5 429,-612.5"/>
<text text-anchor="middle" x="520.5" y="-619.5" font-family="Helvetica,sans-Serif" font-size="10.00">JoyControlStick::copyAssignments</text>
</a>
</g>
</g>
<!-- Node18&#45;&gt;Node21 -->
<g id="edge20" class="edge">
<title>Node18&#45;&gt;Node21</title>
<path fill="none" stroke="midnightblue" d="M678.68,-595.28C646.53,-600.74 608.32,-607.24 577.63,-612.46"/>
<polygon fill="midnightblue" stroke="midnightblue" points="679.62,-598.67 688.89,-593.54 678.44,-591.77 679.62,-598.67"/>
</g>
<!-- Node22 -->
<g id="node22" class="node">
<title>Node22</title>
<g id="a_node22"><a xlink:href="classJoyDPad.html#ad7787a985beddc065f2818df29fd5b77" target="_top" xlink:title=" ">
<polygon fill="white" stroke="black" points="446,-574.5 446,-593.5 595,-593.5 595,-574.5 446,-574.5"/>
<text text-anchor="middle" x="520.5" y="-581.5" font-family="Helvetica,sans-Serif" font-size="10.00">JoyDPad::copyAssignments</text>
</a>
</g>
</g>
<!-- Node18&#45;&gt;Node22 -->
<g id="edge22" class="edge">
<title>Node18&#45;&gt;Node22</title>
<path fill="none" stroke="midnightblue" d="M657.75,-584C637.12,-584 615.31,-584 595.34,-584"/>
<polygon fill="midnightblue" stroke="midnightblue" points="657.77,-587.5 667.77,-584 657.77,-580.5 657.77,-587.5"/>
</g>
<!-- Node23 -->
<g id="node23" class="node">
<title>Node23</title>
<g id="a_node23"><a xlink:href="classJoyAxis.html#a854637def50e6ef091c87ee78e7dbb58" target="_top" xlink:title=" ">
<polygon fill="white" stroke="black" points="448,-536.5 448,-555.5 593,-555.5 593,-536.5 448,-536.5"/>
<text text-anchor="middle" x="520.5" y="-543.5" font-family="Helvetica,sans-Serif" font-size="10.00">JoyAxis::copyAssignments</text>
</a>
</g>
</g>
<!-- Node18&#45;&gt;Node23 -->
<g id="edge24" class="edge">
<title>Node18&#45;&gt;Node23</title>
<path fill="none" stroke="midnightblue" d="M678.68,-572.72C646.53,-567.26 608.32,-560.76 577.63,-555.54"/>
<polygon fill="midnightblue" stroke="midnightblue" points="678.44,-576.23 688.89,-574.46 679.62,-569.33 678.44,-576.23"/>
</g>
<!-- Node19&#45;&gt;Node20 -->
<g id="edge19" class="edge">
<title>Node19&#45;&gt;Node20</title>
<path fill="none" stroke="midnightblue" d="M455.3,-686.65C424.45,-681.2 387.89,-674.74 358.5,-669.54"/>
<polygon fill="midnightblue" stroke="midnightblue" points="455.07,-690.17 465.52,-688.46 456.29,-683.27 455.07,-690.17"/>
</g>
<!-- Node21&#45;&gt;Node20 -->
<g id="edge21" class="edge">
<title>Node21&#45;&gt;Node20</title>
<path fill="none" stroke="midnightblue" d="M455.3,-633.35C424.45,-638.8 387.89,-645.26 358.5,-650.46"/>
<polygon fill="midnightblue" stroke="midnightblue" points="456.29,-636.73 465.52,-631.54 455.07,-629.83 456.29,-636.73"/>
</g>
<!-- Node22&#45;&gt;Node20 -->
<g id="edge23" class="edge">
<title>Node22&#45;&gt;Node20</title>
<path fill="none" stroke="midnightblue" d="M443.52,-596.74C438.5,-598.56 433.61,-600.63 429,-603 409.69,-612.92 412.01,-625.53 393,-636 381.7,-642.22 368.7,-646.91 356.19,-650.41"/>
<polygon fill="midnightblue" stroke="midnightblue" points="444.88,-599.98 453.31,-593.56 442.72,-593.32 444.88,-599.98"/>
</g>
<!-- Node23&#45;&gt;Node20 -->
<g id="edge25" class="edge">
<title>Node23&#45;&gt;Node20</title>
<path fill="none" stroke="midnightblue" d="M438.5,-558.9C435.17,-560.69 431.98,-562.72 429,-565 400.93,-586.53 420.44,-613.67 393,-636 385.22,-642.33 375.91,-647 366.3,-650.44"/>
<polygon fill="midnightblue" stroke="midnightblue" points="440.03,-562.05 447.63,-554.66 437.09,-555.69 440.03,-562.05"/>
</g>
<!-- Node24&#45;&gt;Node25 -->
<g id="edge28" class="edge">
<title>Node24&#45;&gt;Node25</title>
<path fill="none" stroke="midnightblue" d="M695.97,-508C680.6,-504.2 663.59,-499.96 648,-496 617.42,-488.23 582.76,-479.17 557.46,-472.51"/>
<polygon fill="midnightblue" stroke="midnightblue" points="695.25,-511.42 705.8,-510.42 696.93,-504.63 695.25,-511.42"/>
</g>
<!-- Node26 -->
<g id="node26" class="node">
<title>Node26</title>
<g id="a_node26"><a xlink:href="classAdvanceStickAssignmentDialog.html#a86cf0001cd774ce5ccec8543b7a9a50b" target="_top" xlink:title=" ">
<polygon fill="white" stroke="black" points="0,-560 0,-590 178,-590 178,-560 0,-560"/>
<text text-anchor="start" x="8" y="-578" font-family="Helvetica,sans-Serif" font-size="10.00">AdvanceStickAssignmentDialog</text>
<text text-anchor="middle" x="89" y="-567" font-family="Helvetica,sans-Serif" font-size="10.00">::AdvanceStickAssignmentDialog</text>
</a>
</g>
</g>
<!-- Node25&#45;&gt;Node26 -->
<g id="edge29" class="edge">
<title>Node25&#45;&gt;Node26</title>
<path fill="none" stroke="midnightblue" d="M491.57,-477.63C472.03,-488.99 446.42,-506.27 429,-527 404.96,-555.61 424.58,-583.01 393,-603 307.96,-656.82 181.7,-615.03 122.66,-590.13"/>
<polygon fill="midnightblue" stroke="midnightblue" points="493.34,-480.65 500.34,-472.69 489.91,-474.55 493.34,-480.65"/>
</g>
<!-- Node27 -->
<g id="node27" class="node">
<title>Node27</title>
<g id="a_node27"><a xlink:href="classButtonEditDialog.html#a3e9feede100cbb6a11c9d87659c196ea" target="_top" xlink:title=" ">
<polygon fill="white" stroke="black" points="235,-563 235,-593 372,-593 372,-563 235,-563"/>
<text text-anchor="start" x="243" y="-581" font-family="Helvetica,sans-Serif" font-size="10.00">ButtonEditDialog::Button</text>
<text text-anchor="middle" x="303.5" y="-570" font-family="Helvetica,sans-Serif" font-size="10.00">EditDialog</text>
</a>
</g>
</g>
<!-- Node25&#45;&gt;Node27 -->
<g id="edge30" class="edge">
<title>Node25&#45;&gt;Node27</title>
<path fill="none" stroke="midnightblue" d="M497.31,-478.43C478.91,-491.29 452.13,-510.16 429,-527 412.83,-538.78 410.97,-545.23 393,-554 386.13,-557.35 378.73,-560.29 371.23,-562.85"/>
<polygon fill="midnightblue" stroke="midnightblue" points="499.42,-481.23 505.62,-472.64 495.41,-475.49 499.42,-481.23"/>
</g>
<!-- Node28 -->
<g id="node28" class="node">
<title>Node28</title>
<g id="a_node28"><a xlink:href="classJoystickStatusWindow.html#a96d9e83b764e14faed4c4dc275d23c45" target="_top" xlink:title=" ">
<polygon fill="white" stroke="black" points="23.5,-448 23.5,-478 154.5,-478 154.5,-448 23.5,-448"/>
<text text-anchor="start" x="31.5" y="-466" font-family="Helvetica,sans-Serif" font-size="10.00">JoystickStatusWindow</text>
<text text-anchor="middle" x="89" y="-455" font-family="Helvetica,sans-Serif" font-size="10.00">::JoystickStatusWindow</text>
</a>
</g>
</g>
<!-- Node25&#45;&gt;Node28 -->
<g id="edge31" class="edge">
<title>Node25&#45;&gt;Node28</title>
<path fill="none" stroke="midnightblue" d="M453.74,-464.86C434.2,-465.33 412.73,-465.77 393,-466 313.45,-466.94 293.55,-466.96 214,-466 194.73,-465.77 173.78,-465.33 154.67,-464.86"/>
<polygon fill="midnightblue" stroke="midnightblue" points="453.86,-468.35 463.77,-464.61 453.69,-461.36 453.86,-468.35"/>
</g>
<!-- Node29 -->
<g id="node29" class="node">
<title>Node29</title>
<g id="a_node29"><a xlink:href="classQuickSetDialog.html#a57726006cbe2d8534f4be91a05646dd2" target="_top" xlink:title=" ">
<polygon fill="white" stroke="black" points="18.5,-355 18.5,-385 159.5,-385 159.5,-355 18.5,-355"/>
<text text-anchor="start" x="26.5" y="-373" font-family="Helvetica,sans-Serif" font-size="10.00">QuickSetDialog::QuickSet</text>
<text text-anchor="middle" x="89" y="-362" font-family="Helvetica,sans-Serif" font-size="10.00">Dialog</text>
</a>
</g>
</g>
<!-- Node25&#45;&gt;Node29 -->
<g id="edge32" class="edge">
<title>Node25&#45;&gt;Node29</title>
<path fill="none" stroke="midnightblue" d="M487.63,-449.45C462.38,-439.19 425.97,-425.47 393,-417 314.24,-396.78 221.59,-383.95 159.67,-376.9"/>
<polygon fill="midnightblue" stroke="midnightblue" points="486.49,-452.76 497.07,-453.33 489.15,-446.29 486.49,-452.76"/>
</g>
<!-- Node30 -->
<g id="node30" class="node">
<title>Node30</title>
<g id="a_node30"><a xlink:href="classAdvanceStickAssignmentDialog.html#a48ade79f1dfeb93ff668ac18d0e1243f" target="_top" xlink:title=" ">
<polygon fill="white" stroke="black" points="217.5,-514 217.5,-544 389.5,-544 389.5,-514 217.5,-514"/>
<text text-anchor="start" x="225.5" y="-532" font-family="Helvetica,sans-Serif" font-size="10.00">AdvanceStickAssignmentDialog</text>
<text text-anchor="middle" x="303.5" y="-521" font-family="Helvetica,sans-Serif" font-size="10.00">::reenableButtonEvents</text>
</a>
</g>
</g>
<!-- Node25&#45;&gt;Node30 -->
<g id="edge33" class="edge">
<title>Node25&#45;&gt;Node30</title>
<path fill="none" stroke="midnightblue" d="M478.66,-475.54C443.12,-486.45 391.52,-502.29 353.71,-513.89"/>
<polygon fill="midnightblue" stroke="midnightblue" points="479.7,-478.88 488.24,-472.6 477.65,-472.19 479.7,-478.88"/>
</g>
<!-- Node31 -->
<g id="node31" class="node">
<title>Node31</title>
<g id="a_node31"><a xlink:href="classJoystickStatusWindow.html#a1a1c28e1d6f480c7424ba81b30b8b4f5" target="_top" xlink:title=" ">
<polygon fill="white" stroke="black" points="241,-426 241,-456 366,-456 366,-426 241,-426"/>
<text text-anchor="start" x="249" y="-444" font-family="Helvetica,sans-Serif" font-size="10.00">JoystickStatusWindow</text>
<text text-anchor="middle" x="303.5" y="-433" font-family="Helvetica,sans-Serif" font-size="10.00">::restoreButtonStates</text>
</a>
</g>
</g>
<!-- Node25&#45;&gt;Node31 -->
<g id="edge35" class="edge">
<title>Node25&#45;&gt;Node31</title>
<path fill="none" stroke="midnightblue" d="M453.82,-456.28C426,-453.43 393.75,-450.13 366.35,-447.33"/>
<polygon fill="midnightblue" stroke="midnightblue" points="453.55,-459.77 463.85,-457.31 454.26,-452.81 453.55,-459.77"/>
</g>
<!-- Node32 -->
<g id="node32" class="node">
<title>Node32</title>
<g id="a_node32"><a xlink:href="classGameControllerMappingDialogHelper.html#a4040e6cf676fe8af751125e2928d8a35" target="_top" xlink:title=" ">
<polygon fill="white" stroke="black" points="214,-338 214,-368 393,-368 393,-338 214,-338"/>
<text text-anchor="start" x="222" y="-356" font-family="Helvetica,sans-Serif" font-size="10.00">GameControllerMappingDialog</text>
<text text-anchor="middle" x="303.5" y="-345" font-family="Helvetica,sans-Serif" font-size="10.00">Helper::restoreDeviceDeadZones</text>
</a>
</g>
</g>
<!-- Node25&#45;&gt;Node32 -->
<g id="edge37" class="edge">
<title>Node25&#45;&gt;Node32</title>
<path fill="none" stroke="midnightblue" d="M498.26,-447.35C473.83,-429.89 432.06,-401.64 393,-383 381.29,-377.41 368.25,-372.38 355.87,-368.11"/>
<polygon fill="midnightblue" stroke="midnightblue" points="496.29,-450.24 506.44,-453.26 500.39,-444.57 496.29,-450.24"/>
</g>
<!-- Node33 -->
<g id="node33" class="node">
<title>Node33</title>
<g id="a_node33"><a xlink:href="classQuickSetDialog.html#afacbf395389ca073edf366a412c1626b" target="_top" xlink:title=" ">
<polygon fill="white" stroke="black" points="218.5,-289 218.5,-319 388.5,-319 388.5,-289 218.5,-289"/>
<text text-anchor="start" x="226.5" y="-307" font-family="Helvetica,sans-Serif" font-size="10.00">QuickSetDialog::restoreJoystick</text>
<text text-anchor="middle" x="303.5" y="-296" font-family="Helvetica,sans-Serif" font-size="10.00">State</text>
</a>
</g>
</g>
<!-- Node25&#45;&gt;Node33 -->
<g id="edge38" class="edge">
<title>Node25&#45;&gt;Node33</title>
<path fill="none" stroke="midnightblue" d="M507.38,-444.86C487.13,-415.98 443.61,-359.67 393,-329 386.58,-325.11 379.54,-321.81 372.31,-319.01"/>
<polygon fill="midnightblue" stroke="midnightblue" points="504.57,-446.95 513.12,-453.21 510.34,-442.99 504.57,-446.95"/>
</g>
<!-- Node34 -->
<g id="node34" class="node">
<title>Node34</title>
<g id="a_node34"><a xlink:href="classGameControllerMappingDialogHelper.html#a7852aab5763281aa59c17f2f1da8dd31" target="_top" xlink:title=" ">
<polygon fill="white" stroke="black" points="220,-240 220,-270 387,-270 387,-240 220,-240"/>
<text text-anchor="start" x="228" y="-258" font-family="Helvetica,sans-Serif" font-size="10.00">GameControllerMappingDialog</text>
<text text-anchor="middle" x="303.5" y="-247" font-family="Helvetica,sans-Serif" font-size="10.00">Helper::setupDeadZones</text>
</a>
</g>
</g>
<!-- Node25&#45;&gt;Node34 -->
<g id="edge40" class="edge">
<title>Node25&#45;&gt;Node34</title>
<path fill="none" stroke="midnightblue" d="M511.74,-444.07C495.47,-406.79 454.17,-323.73 393,-280 387.54,-276.1 381.5,-272.81 375.2,-270.03"/>
<polygon fill="midnightblue" stroke="midnightblue" points="508.52,-445.46 515.66,-453.29 514.97,-442.72 508.52,-445.46"/>
</g>
<!-- Node30&#45;&gt;Node26 -->
<g id="edge34" class="edge">
<title>Node30&#45;&gt;Node26</title>
<path fill="none" stroke="midnightblue" d="M223.1,-546.19C202.16,-550.72 179.74,-555.57 159.37,-559.98"/>
<polygon fill="midnightblue" stroke="midnightblue" points="223.89,-549.6 232.92,-544.06 222.41,-542.76 223.89,-549.6"/>
</g>
<!-- Node31&#45;&gt;Node28 -->
<g id="edge36" class="edge">
<title>Node31&#45;&gt;Node28</title>
<path fill="none" stroke="midnightblue" d="M230.77,-448.43C206.2,-450.97 178.86,-453.8 154.86,-456.28"/>
<polygon fill="midnightblue" stroke="midnightblue" points="231.16,-451.9 240.75,-447.39 230.44,-444.94 231.16,-451.9"/>
</g>
<!-- Node33&#45;&gt;Node29 -->
<g id="edge39" class="edge">
<title>Node33&#45;&gt;Node29</title>
<path fill="none" stroke="midnightblue" d="M237.86,-321.9C229.81,-324.24 221.71,-326.64 214,-329 187.33,-337.17 157.67,-346.95 134.04,-354.92"/>
<polygon fill="midnightblue" stroke="midnightblue" points="238.98,-325.22 247.63,-319.09 237.05,-318.5 238.98,-325.22"/>
</g>
<!-- Node35&#45;&gt;Node25 -->
<g id="edge42" class="edge">
<title>Node35&#45;&gt;Node25</title>
<path fill="none" stroke="midnightblue" d="M678.64,-449.64C646.36,-452.39 607.99,-455.65 577.25,-458.26"/>
<polygon fill="midnightblue" stroke="midnightblue" points="679.22,-453.1 688.89,-448.77 678.63,-446.13 679.22,-453.1"/>
</g>
<!-- Node41 -->
<g id="node41" class="node">
<title>Node41</title>
<g id="a_node41"><a xlink:href="classJoyButton.html#a184886d98db1c3653d8139188892c779" target="_top" xlink:title=" ">
<polygon fill="white" stroke="black" points="687.5,-196.5 687.5,-215.5 804.5,-215.5 804.5,-196.5 687.5,-196.5"/>
<text text-anchor="middle" x="746" y="-203.5" font-family="Helvetica,sans-Serif" font-size="10.00">JoyButton::JoyButton</text>
</a>
</g>
</g>
<!-- Node40&#45;&gt;Node41 -->
<g id="edge49" class="edge">
<title>Node40&#45;&gt;Node41</title>
<path fill="none" stroke="midnightblue" d="M869.72,-194.92C847.78,-196.9 824.79,-198.98 804.72,-200.79"/>
<polygon fill="midnightblue" stroke="midnightblue" points="870.07,-198.41 879.72,-194.02 869.44,-191.43 870.07,-198.41"/>
</g>
<!-- Node42 -->
<g id="node42" class="node">
<title>Node42</title>
<g id="a_node42"><a xlink:href="classJoyButton.html#a0d10908f5a06ca73366ca988d985933b" target="_top" xlink:title=" ">
<polygon fill="white" stroke="black" points="679,-158.5 679,-177.5 813,-177.5 813,-158.5 679,-158.5"/>
<text text-anchor="middle" x="746" y="-165.5" font-family="Helvetica,sans-Serif" font-size="10.00">JoyButton::resetPrivVars</text>
</a>
</g>
</g>
<!-- Node40&#45;&gt;Node42 -->
<g id="edge50" class="edge">
<title>Node40&#45;&gt;Node42</title>
<path fill="none" stroke="midnightblue" d="M869.6,-179.07C850.68,-177.36 830.99,-175.58 813.06,-173.96"/>
<polygon fill="midnightblue" stroke="midnightblue" points="869.44,-182.57 879.72,-179.98 870.07,-175.59 869.44,-182.57"/>
</g>
<!-- Node59 -->
<g id="node50" class="node">
<title>Node59</title>
<g id="a_node50"><a xlink:href="classJoyButton.html#abe6eac6bb5d86c5a7577e1d2e7921cfd" target="_top" xlink:title=" ">
<polygon fill="white" stroke="black" points="674,-120.5 674,-139.5 818,-139.5 818,-120.5 674,-120.5"/>
<text text-anchor="middle" x="746" y="-127.5" font-family="Helvetica,sans-Serif" font-size="10.00">JoyButton::resetProperties</text>
</a>
</g>
</g>
<!-- Node40&#45;&gt;Node59 -->
<g id="edge58" class="edge">
<title>Node40&#45;&gt;Node59</title>
<path fill="none" stroke="midnightblue" d="M922.42,-173.94C900.17,-165.99 870.66,-156.04 844,-149 830.56,-145.45 815.92,-142.24 802.17,-139.52"/>
<polygon fill="midnightblue" stroke="midnightblue" points="921.5,-177.33 932.09,-177.44 923.88,-170.75 921.5,-177.33"/>
</g>
<!-- Node43 -->
<g id="node43" class="node">
<title>Node43</title>
<g id="a_node43"><a xlink:href="classJoyButton.html#a9c65911b5b33fc6bec20d7418cea4324" target="_top" xlink:title=" ">
<polygon fill="white" stroke="black" points="473,-114.5 473,-133.5 568,-133.5 568,-114.5 473,-114.5"/>
<text text-anchor="middle" x="520.5" y="-121.5" font-family="Helvetica,sans-Serif" font-size="10.00">JoyButton::reset</text>
</a>
</g>
</g>
<!-- Node42&#45;&gt;Node43 -->
<g id="edge51" class="edge">
<title>Node42&#45;&gt;Node43</title>
<path fill="none" stroke="midnightblue" d="M686.2,-156.5C673.6,-154.03 660.36,-151.43 648,-149 621.53,-143.79 591.95,-137.95 568.06,-133.22"/>
<polygon fill="midnightblue" stroke="midnightblue" points="685.66,-159.96 696.15,-158.45 687.01,-153.09 685.66,-159.96"/>
</g>
<!-- Node44 -->
<g id="node44" class="node">
<title>Node44</title>
<g id="a_node44"><a xlink:href="classGameControllerTrigger.html#a9a377b27df224a6eeddea986c0b1cf4d" target="_top" xlink:title=" ">
<polygon fill="white" stroke="red" points="240,-191 240,-221 367,-221 367,-191 240,-191"/>
<text text-anchor="start" x="248" y="-209" font-family="Helvetica,sans-Serif" font-size="10.00">GameControllerTrigger</text>
<text text-anchor="middle" x="303.5" y="-198" font-family="Helvetica,sans-Serif" font-size="10.00">::reset</text>
</a>
</g>
</g>
<!-- Node43&#45;&gt;Node44 -->
<g id="edge52" class="edge">
<title>Node43&#45;&gt;Node44</title>
<path fill="none" stroke="midnightblue" d="M491.56,-138.03C466.25,-150.4 427.72,-168.35 393,-181 383.25,-184.55 372.74,-187.91 362.5,-190.95"/>
<polygon fill="midnightblue" stroke="midnightblue" points="493.15,-141.15 500.58,-133.59 490.06,-134.87 493.15,-141.15"/>
</g>
<!-- Node47 -->
<g id="node45" class="node">
<title>Node47</title>
<g id="a_node45"><a xlink:href="classJoyDPadButton.html#aebe0fc163770e4f98ab9cbaeb96b4f08" target="_top" xlink:title=" ">
<polygon fill="white" stroke="red" points="244,-152.5 244,-171.5 363,-171.5 363,-152.5 244,-152.5"/>
<text text-anchor="middle" x="303.5" y="-159.5" font-family="Helvetica,sans-Serif" font-size="10.00">JoyDPadButton::reset</text>
</a>
</g>
</g>
<!-- Node43&#45;&gt;Node47 -->
<g id="edge53" class="edge">
<title>Node43&#45;&gt;Node47</title>
<path fill="none" stroke="midnightblue" d="M462.65,-134.05C430.32,-139.76 390.07,-146.88 358.26,-152.5"/>
<polygon fill="midnightblue" stroke="midnightblue" points="463.61,-137.43 472.85,-132.25 462.39,-130.54 463.61,-137.43"/>
</g>
<!-- Node49 -->
<g id="node46" class="node">
<title>Node49</title>
<g id="a_node46"><a xlink:href="classJoyButton.html#ae9adbedab9e5f99a893833b19035896b" target="_top" xlink:title=" ">
<polygon fill="white" stroke="black" points="256,-114.5 256,-133.5 351,-133.5 351,-114.5 256,-114.5"/>
<text text-anchor="middle" x="303.5" y="-121.5" font-family="Helvetica,sans-Serif" font-size="10.00">JoyButton::reset</text>
</a>
</g>
</g>
<!-- Node43&#45;&gt;Node49 -->
<g id="edge54" class="edge">
<title>Node43&#45;&gt;Node49</title>
<path fill="none" stroke="midnightblue" d="M462.82,-124C427.97,-124 383.86,-124 351.06,-124"/>
<polygon fill="midnightblue" stroke="midnightblue" points="462.85,-127.5 472.85,-124 462.85,-120.5 462.85,-127.5"/>
</g>
<!-- Node50 -->
<g id="node47" class="node">
<title>Node50</title>
<g id="a_node47"><a xlink:href="classJoyControlStick.html#ae9e4c58304bb10ae998f854e4247f39f" target="_top" xlink:title="Reset all the properties of the stick direction buttons and the stick modifier button.">
<polygon fill="white" stroke="red" points="224,-76.5 224,-95.5 383,-95.5 383,-76.5 224,-76.5"/>
<text text-anchor="middle" x="303.5" y="-83.5" font-family="Helvetica,sans-Serif" font-size="10.00">JoyControlStick::resetButtons</text>
</a>
</g>
</g>
<!-- Node43&#45;&gt;Node50 -->
<g id="edge55" class="edge">
<title>Node43&#45;&gt;Node50</title>
<path fill="none" stroke="midnightblue" d="M462.65,-113.95C430.32,-108.24 390.07,-101.12 358.26,-95.5"/>
<polygon fill="midnightblue" stroke="midnightblue" points="462.39,-117.46 472.85,-115.75 463.61,-110.57 462.39,-117.46"/>
</g>
<!-- Node53 -->
<g id="node48" class="node">
<title>Node53</title>
<g id="a_node48"><a xlink:href="classJoyAxis.html#afce1f31390f589a417e9c70f47bd7187" target="_top" xlink:title=" ">
<polygon fill="white" stroke="red" points="234,-38.5 234,-57.5 373,-57.5 373,-38.5 234,-38.5"/>
<text text-anchor="middle" x="303.5" y="-45.5" font-family="Helvetica,sans-Serif" font-size="10.00">JoyAxis::resetPrivateVars</text>
</a>
</g>
</g>
<!-- Node43&#45;&gt;Node53 -->
<g id="edge56" class="edge">
<title>Node43&#45;&gt;Node53</title>
<path fill="none" stroke="midnightblue" d="M492.62,-109.87C467.45,-97.13 428.51,-78.67 393,-67 381.8,-63.32 369.57,-60.17 357.87,-57.55"/>
<polygon fill="midnightblue" stroke="midnightblue" points="491.05,-113 501.55,-114.44 494.24,-106.77 491.05,-113"/>
</g>
<!-- Node58 -->
<g id="node49" class="node">
<title>Node58</title>
<g id="a_node49"><a xlink:href="classJoyButton.html#a0e609c3e96518adfec008f3a04849900" target="_top" xlink:title=" ">
<polygon fill="white" stroke="black" points="241,-0.5 241,-19.5 366,-19.5 366,-0.5 241,-0.5"/>
<text text-anchor="middle" x="303.5" y="-7.5" font-family="Helvetica,sans-Serif" font-size="10.00">JoyButton::~JoyButton</text>
</a>
</g>
</g>
<!-- Node43&#45;&gt;Node58 -->
<g id="edge57" class="edge">
<title>Node43&#45;&gt;Node58</title>
<path fill="none" stroke="midnightblue" d="M502.48,-107.31C479.57,-85.83 436.62,-48.89 393,-29 384.56,-25.15 375.32,-22.07 366.08,-19.6"/>
<polygon fill="midnightblue" stroke="midnightblue" points="500.33,-110.1 509.98,-114.47 505.17,-105.03 500.33,-110.1"/>
</g>
</g>
</svg>
