<?xml version="1.0" encoding="UTF-8" standalone="no"?>
<!DOCTYPE svg PUBLIC "-//W3C//DTD SVG 1.1//EN"
 "http://www.w3.org/Graphics/SVG/1.1/DTD/svg11.dtd">
<!-- Generated by graphviz version 2.43.0 (0)
 -->
<!-- Title: JoyAxisXml::writeConfig Pages: 1 -->
<!--zoomable 398 -->
<svg id="main" version="1.1" xmlns="http://www.w3.org/2000/svg" xmlns:xlink="http://www.w3.org/1999/xlink" xml:space="preserve" onload="init(evt)">
<style type="text/css"><![CDATA[
.edge:hover path { stroke: red; }
.edge:hover polygon { stroke: red; fill: red; }
]]></style>
<script type="text/javascript"><![CDATA[
var edges = document.getElementsByTagName('g');
if (edges && edges.length) {
  for (var i=0;i<edges.length;i++) {
    if (edges[i].id.substr(0,4)=='edge') {
      edges[i].setAttribute('class','edge');
    }
  }
}
]]></script>
        <defs>
                <circle id="rim" cx="0" cy="0" r="7"/>
                <circle id="rim2" cx="0" cy="0" r="3.5"/>
                <g id="zoomPlus">
                        <use xlink:href="#rim" fill="#404040">
                                <set attributeName="fill" to="#808080" begin="zoomplus.mouseover" end="zoomplus.mouseout"/>
                        </use>
                        <path d="M-4,0h8M0,-4v8" fill="none" stroke="white" stroke-width="1.5" pointer-events="none"/>
                </g>
                <g id="zoomMin">
                        <use xlink:href="#rim" fill="#404040">
                                <set attributeName="fill" to="#808080" begin="zoomminus.mouseover" end="zoomminus.mouseout"/>
                        </use>
                        <path d="M-4,0h8" fill="none" stroke="white" stroke-width="1.5" pointer-events="none"/>
                </g>
                <g id="dirArrow">
                        <path fill="none" stroke="white" stroke-width="1.5" d="M0,-3.0v7 M-2.5,-0.5L0,-3.0L2.5,-0.5"/>
                </g>
               <g id="resetDef">
                       <use xlink:href="#rim2" fill="#404040">
                               <set attributeName="fill" to="#808080" begin="reset.mouseover" end="reset.mouseout"/>
                       </use>
               </g>
        </defs>

<script type="text/javascript">
var viewWidth = 718;
var viewHeight = 398;
var sectionId = 'dynsection-8';
</script>
<script xlink:href="svgpan.js"/>
<svg id="graph" class="graph">
<g id="viewport">
<title>JoyAxisXml::writeConfig</title>
<polygon fill="white" stroke="transparent" points="-4,4 -4,-393.5 714,-393.5 714,4 -4,4"/>
<!-- Node1 -->
<g id="node1" class="node">
<title>Node1</title>
<g id="a_node1"><a xlink:title=" ">
<polygon fill="#bfbfbf" stroke="black" points="0,-199 0,-218 134,-218 134,-199 0,-199"/>
<text text-anchor="middle" x="67" y="-206" font-family="Helvetica,sans-Serif" font-size="10.00">JoyAxisXml::writeConfig</text>
</a>
</g>
</g>
<!-- Node2 -->
<g id="node2" class="node">
<title>Node2</title>
<g id="a_node2"><a xlink:href="classHapticTriggerPs5.html#a4301d6c8aa9ce88e4ff212208378fddb" target="_top" xlink:title="Returns the current haptic feedback effect mode.">
<polygon fill="white" stroke="black" points="170,-370 170,-389 323,-389 323,-370 170,-370"/>
<text text-anchor="middle" x="246.5" y="-377" font-family="Helvetica,sans-Serif" font-size="10.00">HapticTriggerPs5::get_mode</text>
</a>
</g>
</g>
<!-- Node1&#45;&gt;Node2 -->
<g id="edge1" class="edge">
<title>Node1&#45;&gt;Node2</title>
<path fill="none" stroke="midnightblue" d="M71.56,-218.12C82.07,-245.15 115.68,-322.28 170,-360.5 172.85,-362.51 175.89,-364.3 179.06,-365.9"/>
<polygon fill="midnightblue" stroke="midnightblue" points="177.69,-369.13 188.25,-369.95 180.51,-362.72 177.69,-369.13"/>
</g>
<!-- Node3 -->
<g id="node3" class="node">
<title>Node3</title>
<g id="a_node3"><a xlink:href="classJoyAxis.html#aed3d513f19658dbe4a20b3df9858c3fe" target="_top" xlink:title=" ">
<polygon fill="white" stroke="black" points="184,-332 184,-351 309,-351 309,-332 184,-332"/>
<text text-anchor="middle" x="246.5" y="-339" font-family="Helvetica,sans-Serif" font-size="10.00">JoyAxis::getDeadZone</text>
</a>
</g>
</g>
<!-- Node1&#45;&gt;Node3 -->
<g id="edge2" class="edge">
<title>Node1&#45;&gt;Node3</title>
<path fill="none" stroke="midnightblue" d="M73.78,-218.2C87.49,-240.36 124.32,-294.89 170,-322.5 173.64,-324.7 177.53,-326.65 181.55,-328.37"/>
<polygon fill="midnightblue" stroke="midnightblue" points="180.53,-331.73 191.12,-332 183.01,-325.18 180.53,-331.73"/>
</g>
<!-- Node4 -->
<g id="node4" class="node">
<title>Node4</title>
<g id="a_node4"><a xlink:href="classJoyAxis.html#afa272ae458b07e76eca5e37a1d90a851" target="_top" xlink:title="Always returns nullptr for JoyAxis base objects.">
<polygon fill="white" stroke="black" points="177,-294 177,-313 316,-313 316,-294 177,-294"/>
<text text-anchor="middle" x="246.5" y="-301" font-family="Helvetica,sans-Serif" font-size="10.00">JoyAxis::getHapticTrigger</text>
</a>
</g>
</g>
<!-- Node1&#45;&gt;Node4 -->
<g id="edge3" class="edge">
<title>Node1&#45;&gt;Node4</title>
<path fill="none" stroke="midnightblue" d="M78.11,-218.23C95.47,-234.4 132.7,-266.78 170,-284.5 175.04,-286.89 180.41,-289.01 185.88,-290.87"/>
<polygon fill="midnightblue" stroke="midnightblue" points="185.19,-294.32 195.78,-293.96 187.28,-287.64 185.19,-294.32"/>
</g>
<!-- Node5 -->
<g id="node5" class="node">
<title>Node5</title>
<g id="a_node5"><a xlink:href="classJoyAxis.html#aa083ec407f4510348833e3a7f5964892" target="_top" xlink:title=" ">
<polygon fill="white" stroke="black" points="173,-256 173,-275 320,-275 320,-256 173,-256"/>
<text text-anchor="middle" x="246.5" y="-263" font-family="Helvetica,sans-Serif" font-size="10.00">JoyAxis::getMaxZoneValue</text>
</a>
</g>
</g>
<!-- Node1&#45;&gt;Node5 -->
<g id="edge4" class="edge">
<title>Node1&#45;&gt;Node5</title>
<path fill="none" stroke="midnightblue" d="M91.65,-218.16C112.16,-226.33 142.75,-238.02 170,-246.5 177.8,-248.93 186.12,-251.27 194.29,-253.42"/>
<polygon fill="midnightblue" stroke="midnightblue" points="193.57,-256.85 204.13,-255.96 195.32,-250.07 193.57,-256.85"/>
</g>
<!-- Node6 -->
<g id="node6" class="node">
<title>Node6</title>
<g id="a_node6"><a xlink:href="classJoyAxis.html#a9ceda991c13da3a99868acc436ed20f3" target="_top" xlink:title=" ">
<polygon fill="white" stroke="black" points="177.5,-218 177.5,-237 315.5,-237 315.5,-218 177.5,-218"/>
<text text-anchor="middle" x="246.5" y="-225" font-family="Helvetica,sans-Serif" font-size="10.00">JoyAxis::getRealJoyIndex</text>
</a>
</g>
</g>
<!-- Node1&#45;&gt;Node6 -->
<g id="edge5" class="edge">
<title>Node1&#45;&gt;Node6</title>
<path fill="none" stroke="midnightblue" d="M134.09,-215.57C144.89,-216.73 156.16,-217.94 167.21,-219.12"/>
<polygon fill="midnightblue" stroke="midnightblue" points="166.96,-222.61 177.27,-220.2 167.7,-215.65 166.96,-222.61"/>
</g>
<!-- Node7 -->
<g id="node7" class="node">
<title>Node7</title>
<g id="a_node7"><a xlink:href="classJoyAxis.html#a01dfb4ec2c2e85304a479f21b9cffe49" target="_top" xlink:title=" ">
<polygon fill="white" stroke="black" points="190,-180 190,-199 303,-199 303,-180 190,-180"/>
<text text-anchor="middle" x="246.5" y="-187" font-family="Helvetica,sans-Serif" font-size="10.00">JoyAxis::getThrottle</text>
</a>
</g>
</g>
<!-- Node1&#45;&gt;Node7 -->
<g id="edge6" class="edge">
<title>Node1&#45;&gt;Node7</title>
<path fill="none" stroke="midnightblue" d="M134.09,-201.43C148.99,-199.83 164.8,-198.14 179.68,-196.55"/>
<polygon fill="midnightblue" stroke="midnightblue" points="180.25,-200 189.82,-195.46 179.5,-193.04 180.25,-200"/>
</g>
<!-- Node8 -->
<g id="node8" class="node">
<title>Node8</title>
<g id="a_node8"><a xlink:href="classJoyAxis.html#a04c3b7b172ad46013382e36ad7b65691" target="_top" xlink:title=" ">
<polygon fill="white" stroke="black" points="185,-142 185,-161 308,-161 308,-142 185,-142"/>
<text text-anchor="middle" x="246.5" y="-149" font-family="Helvetica,sans-Serif" font-size="10.00">JoyAxis::getXmlName</text>
</a>
</g>
</g>
<!-- Node1&#45;&gt;Node8 -->
<g id="edge7" class="edge">
<title>Node1&#45;&gt;Node8</title>
<path fill="none" stroke="midnightblue" d="M91.65,-198.84C112.16,-190.67 142.75,-178.98 170,-170.5 177.8,-168.07 186.12,-165.73 194.29,-163.58"/>
<polygon fill="midnightblue" stroke="midnightblue" points="195.32,-166.93 204.13,-161.04 193.57,-160.15 195.32,-166.93"/>
</g>
<!-- Node9 -->
<g id="node9" class="node">
<title>Node9</title>
<g id="a_node9"><a xlink:href="classJoyAxis.html#a99a4ef660a33e44344f8e9d3ba92b883" target="_top" xlink:title="Checks if the axis supports haptic trigger feedback.">
<polygon fill="white" stroke="black" points="176.5,-104 176.5,-123 316.5,-123 316.5,-104 176.5,-104"/>
<text text-anchor="middle" x="246.5" y="-111" font-family="Helvetica,sans-Serif" font-size="10.00">JoyAxis::hasHapticTrigger</text>
</a>
</g>
</g>
<!-- Node1&#45;&gt;Node9 -->
<g id="edge8" class="edge">
<title>Node1&#45;&gt;Node9</title>
<path fill="none" stroke="midnightblue" d="M78.11,-198.77C95.47,-182.6 132.7,-150.22 170,-132.5 175.04,-130.11 180.41,-127.99 185.88,-126.13"/>
<polygon fill="midnightblue" stroke="midnightblue" points="187.28,-129.36 195.78,-123.04 185.19,-122.68 187.28,-129.36"/>
</g>
<!-- Node10 -->
<g id="node10" class="node">
<title>Node10</title>
<g id="a_node10"><a xlink:href="classJoyAxis.html#ad614a1d4afe02119dfbd787ee89be66e" target="_top" xlink:title=" ">
<polygon fill="white" stroke="black" points="195,-66 195,-85 298,-85 298,-66 195,-66"/>
<text text-anchor="middle" x="246.5" y="-73" font-family="Helvetica,sans-Serif" font-size="10.00">JoyAxis::isDefault</text>
</a>
</g>
</g>
<!-- Node1&#45;&gt;Node10 -->
<g id="edge9" class="edge">
<title>Node1&#45;&gt;Node10</title>
<path fill="none" stroke="midnightblue" d="M73.78,-198.8C87.49,-176.64 124.32,-122.11 170,-94.5 174.7,-91.66 179.81,-89.24 185.08,-87.18"/>
<polygon fill="midnightblue" stroke="midnightblue" points="186.38,-90.44 194.69,-83.86 184.09,-83.82 186.38,-90.44"/>
</g>
<!-- Node16 -->
<g id="node16" class="node">
<title>Node16</title>
<g id="a_node16"><a xlink:href="classHapticTriggerPs5.html#a07a07f22e60b6f09029af6a7a13a7c55" target="_top" xlink:title="Returns string representation of a HapticTriggerModePs5 object.">
<polygon fill="white" stroke="black" points="189.5,-16.5 189.5,-46.5 303.5,-46.5 303.5,-16.5 189.5,-16.5"/>
<text text-anchor="start" x="197.5" y="-34.5" font-family="Helvetica,sans-Serif" font-size="10.00">HapticTriggerPs5::to</text>
<text text-anchor="middle" x="246.5" y="-23.5" font-family="Helvetica,sans-Serif" font-size="10.00">_string</text>
</a>
</g>
</g>
<!-- Node1&#45;&gt;Node16 -->
<g id="edge15" class="edge">
<title>Node1&#45;&gt;Node16</title>
<path fill="none" stroke="midnightblue" d="M71.86,-198.69C82.93,-171.84 117.37,-96.49 170,-56.5 173.19,-54.08 176.62,-51.89 180.2,-49.9"/>
<polygon fill="midnightblue" stroke="midnightblue" points="181.94,-52.94 189.36,-45.38 178.84,-46.67 181.94,-52.94"/>
</g>
<!-- Node11 -->
<g id="node11" class="node">
<title>Node11</title>
<g id="a_node11"><a xlink:href="classJoyAxis.html#a8552b6736231d1611c8809602e189d68" target="_top" xlink:title=" ">
<polygon fill="white" stroke="black" points="359,-104 359,-123 520,-123 520,-104 359,-104"/>
<text text-anchor="middle" x="439.5" y="-111" font-family="Helvetica,sans-Serif" font-size="10.00">JoyAxis::getDefaultDeadZone</text>
</a>
</g>
</g>
<!-- Node10&#45;&gt;Node11 -->
<g id="edge10" class="edge">
<title>Node10&#45;&gt;Node11</title>
<path fill="none" stroke="midnightblue" d="M295.7,-85.09C321.47,-90.22 353.39,-96.57 380.51,-101.96"/>
<polygon fill="midnightblue" stroke="midnightblue" points="380.16,-105.46 390.65,-103.98 381.52,-98.6 380.16,-105.46"/>
</g>
<!-- Node12 -->
<g id="node12" class="node">
<title>Node12</title>
<g id="a_node12"><a xlink:href="classJoyAxis.html#a61149f5541d5dc820ae2a04a6ca9af68" target="_top" xlink:title=" ">
<polygon fill="white" stroke="black" points="361.5,-66 361.5,-85 517.5,-85 517.5,-66 361.5,-66"/>
<text text-anchor="middle" x="439.5" y="-73" font-family="Helvetica,sans-Serif" font-size="10.00">JoyAxis::getDefaultMaxZone</text>
</a>
</g>
</g>
<!-- Node10&#45;&gt;Node12 -->
<g id="edge11" class="edge">
<title>Node10&#45;&gt;Node12</title>
<path fill="none" stroke="midnightblue" d="M298.18,-75.5C314.5,-75.5 333.08,-75.5 351.25,-75.5"/>
<polygon fill="midnightblue" stroke="midnightblue" points="351.29,-79 361.29,-75.5 351.29,-72 351.29,-79"/>
</g>
<!-- Node13 -->
<g id="node13" class="node">
<title>Node13</title>
<g id="a_node13"><a xlink:href="classJoyButton.html#aaae603630f3485683593320bd446927d" target="_top" xlink:title="Check if button properties are at their default values.">
<polygon fill="white" stroke="black" points="382.5,-28 382.5,-47 496.5,-47 496.5,-28 382.5,-28"/>
<text text-anchor="middle" x="439.5" y="-35" font-family="Helvetica,sans-Serif" font-size="10.00">JoyButton::isDefault</text>
</a>
</g>
</g>
<!-- Node10&#45;&gt;Node13 -->
<g id="edge12" class="edge">
<title>Node10&#45;&gt;Node13</title>
<path fill="none" stroke="midnightblue" d="M295.7,-65.91C321.47,-60.78 353.39,-54.43 380.51,-49.04"/>
<polygon fill="midnightblue" stroke="midnightblue" points="381.52,-52.4 390.65,-47.02 380.16,-45.54 381.52,-52.4"/>
</g>
<!-- Node14 -->
<g id="node14" class="node">
<title>Node14</title>
<g id="a_node14"><a xlink:href="classJoyButton.html#ae1d364dfa70f47fae3db99ffbcdea44b" target="_top" xlink:title=" ">
<polygon fill="white" stroke="black" points="556,-50 556,-69 710,-69 710,-50 556,-50"/>
<text text-anchor="middle" x="633" y="-57" font-family="Helvetica,sans-Serif" font-size="10.00">JoyButton::getAssignedSlots</text>
</a>
</g>
</g>
<!-- Node13&#45;&gt;Node14 -->
<g id="edge13" class="edge">
<title>Node13&#45;&gt;Node14</title>
<path fill="none" stroke="midnightblue" d="M496.66,-43.95C512.02,-45.72 529.02,-47.67 545.64,-49.58"/>
<polygon fill="midnightblue" stroke="midnightblue" points="545.59,-53.1 555.92,-50.76 546.39,-46.14 545.59,-53.1"/>
</g>
<!-- Node15 -->
<g id="node15" class="node">
<title>Node15</title>
<g id="a_node15"><a xlink:href="classJoyButton.html#a6cbb7efc0329d7f86455f62b1957a644" target="_top" xlink:title="Returns the default mouse curve for this JoyButton type. Can be overwritten by subclasses.">
<polygon fill="white" stroke="black" points="556,-0.5 556,-30.5 710,-30.5 710,-0.5 556,-0.5"/>
<text text-anchor="start" x="564" y="-18.5" font-family="Helvetica,sans-Serif" font-size="10.00">JoyButton::getDefaultMouse</text>
<text text-anchor="middle" x="633" y="-7.5" font-family="Helvetica,sans-Serif" font-size="10.00">Curve</text>
</a>
</g>
</g>
<!-- Node13&#45;&gt;Node15 -->
<g id="edge14" class="edge">
<title>Node13&#45;&gt;Node15</title>
<path fill="none" stroke="midnightblue" d="M496.66,-31.05C512.02,-29.28 529.02,-27.33 545.64,-25.42"/>
<polygon fill="midnightblue" stroke="midnightblue" points="546.39,-28.86 555.92,-24.24 545.59,-21.9 546.39,-28.86"/>
</g>
</g>
</svg>
        <g id="navigator" transform="translate(0 0)" fill="#404254">
                <rect fill="#f2f5e9" fill-opacity="0.5" stroke="#606060" stroke-width=".5" x="0" y="0" width="60" height="60"/>
                <use id="zoomplus" xlink:href="#zoomPlus" x="17" y="9" onmousedown="handleZoom(evt,'in')"/>
                <use id="zoomminus" xlink:href="#zoomMin" x="42" y="9" onmousedown="handleZoom(evt,'out')"/>
                <use id="reset" xlink:href="#resetDef" x="30" y="36" onmousedown="handleReset()"/>
                <g id="arrowUp" xlink:href="#dirArrow" transform="translate(30 24)" onmousedown="handlePan(0,-1)">
                  <use xlink:href="#rim" fill="#404040">
                        <set attributeName="fill" to="#808080" begin="arrowUp.mouseover" end="arrowUp.mouseout"/>
                  </use>
                  <path fill="none" stroke="white" stroke-width="1.5" d="M0,-3.0v7 M-2.5,-0.5L0,-3.0L2.5,-0.5"/>
                </g>
                <g id="arrowRight" xlink:href="#dirArrow" transform="rotate(90) translate(36 -43)" onmousedown="handlePan(1,0)">
                  <use xlink:href="#rim" fill="#404040">
                        <set attributeName="fill" to="#808080" begin="arrowRight.mouseover" end="arrowRight.mouseout"/>
                  </use>
                  <path fill="none" stroke="white" stroke-width="1.5" d="M0,-3.0v7 M-2.5,-0.5L0,-3.0L2.5,-0.5"/>
                </g>
                <g id="arrowDown" xlink:href="#dirArrow" transform="rotate(180) translate(-30 -48)" onmousedown="handlePan(0,1)">
                  <use xlink:href="#rim" fill="#404040">
                        <set attributeName="fill" to="#808080" begin="arrowDown.mouseover" end="arrowDown.mouseout"/>
                  </use>
                  <path fill="none" stroke="white" stroke-width="1.5" d="M0,-3.0v7 M-2.5,-0.5L0,-3.0L2.5,-0.5"/>
                </g>
                <g id="arrowLeft" xlink:href="#dirArrow" transform="rotate(270) translate(-36 17)" onmousedown="handlePan(-1,0)">
                  <use xlink:href="#rim" fill="#404040">
                        <set attributeName="fill" to="#808080" begin="arrowLeft.mouseover" end="arrowLeft.mouseout"/>
                  </use>
                  <path fill="none" stroke="white" stroke-width="1.5" d="M0,-3.0v7 M-2.5,-0.5L0,-3.0L2.5,-0.5"/>
                </g>
        </g>
        <svg viewBox="0 0 15 15" width="100%" height="30px" preserveAspectRatio="xMaxYMin meet">
         <g id="arrow_out" transform="scale(0.3 0.3)">
          <a xlink:href="classJoyAxisXml_a044a6be446ab6cc4b6fcb359e0cef898_cgraph_org.svg" target="_base">
           <rect id="button" ry="5" rx="5" y="6" x="6" height="38" width="38"
                fill="#f2f5e9" fill-opacity="0.5" stroke="#606060" stroke-width="1.0"/>
           <path id="arrow"
             d="M 11.500037,31.436501 C 11.940474,20.09759 22.043105,11.32322 32.158766,21.979434 L 37.068811,17.246167 C 37.068811,17.246167 37.088388,32 37.088388,32 L 22.160133,31.978069 C 22.160133,31.978069 26.997745,27.140456 26.997745,27.140456 C 18.528582,18.264221 13.291696,25.230495 11.500037,31.436501 z"
             style="fill:#404040;"/>
          </a>
         </g>
        </svg>
</svg>
