<?xml version="1.0" encoding="UTF-8" standalone="no"?>
<!DOCTYPE svg PUBLIC "-//W3C//DTD SVG 1.1//EN"
 "http://www.w3.org/Graphics/SVG/1.1/DTD/svg11.dtd">
<!-- Generated by graphviz version 2.43.0 (0)
 -->
<!-- Title: QuickSetDialog::restoreSticksStates Pages: 1 -->
<svg width="552pt" height="39pt"
 viewBox="0.00 0.00 552.00 39.00" xmlns="http://www.w3.org/2000/svg" xmlns:xlink="http://www.w3.org/1999/xlink">
<g id="graph0" class="graph" transform="scale(1 1) rotate(0) translate(4 35)">
<title>QuickSetDialog::restoreSticksStates</title>
<polygon fill="white" stroke="transparent" points="-4,4 -4,-35 548,-35 548,4 -4,4"/>
<!-- Node1 -->
<g id="node1" class="node">
<title>Node1</title>
<g id="a_node1"><a xlink:title=" ">
<polygon fill="#bfbfbf" stroke="black" points="383,-0.5 383,-30.5 544,-30.5 544,-0.5 383,-0.5"/>
<text text-anchor="start" x="391" y="-18.5" font-family="Helvetica,sans-Serif" font-size="10.00">QuickSetDialog::restoreSticks</text>
<text text-anchor="middle" x="463.5" y="-7.5" font-family="Helvetica,sans-Serif" font-size="10.00">States</text>
</a>
</g>
</g>
<!-- Node2 -->
<g id="node2" class="node">
<title>Node2</title>
<g id="a_node2"><a xlink:href="classQuickSetDialog.html#afacbf395389ca073edf366a412c1626b" target="_top" xlink:title=" ">
<polygon fill="white" stroke="black" points="177,-0.5 177,-30.5 347,-30.5 347,-0.5 177,-0.5"/>
<text text-anchor="start" x="185" y="-18.5" font-family="Helvetica,sans-Serif" font-size="10.00">QuickSetDialog::restoreJoystick</text>
<text text-anchor="middle" x="262" y="-7.5" font-family="Helvetica,sans-Serif" font-size="10.00">State</text>
</a>
</g>
</g>
<!-- Node1&#45;&gt;Node2 -->
<g id="edge1" class="edge">
<title>Node1&#45;&gt;Node2</title>
<path fill="none" stroke="midnightblue" d="M372.55,-15.5C364.1,-15.5 355.55,-15.5 347.16,-15.5"/>
<polygon fill="midnightblue" stroke="midnightblue" points="372.79,-19 382.79,-15.5 372.79,-12 372.79,-19"/>
</g>
<!-- Node3 -->
<g id="node3" class="node">
<title>Node3</title>
<g id="a_node3"><a xlink:href="classQuickSetDialog.html#a57726006cbe2d8534f4be91a05646dd2" target="_top" xlink:title=" ">
<polygon fill="white" stroke="black" points="0,-0.5 0,-30.5 141,-30.5 141,-0.5 0,-0.5"/>
<text text-anchor="start" x="8" y="-18.5" font-family="Helvetica,sans-Serif" font-size="10.00">QuickSetDialog::QuickSet</text>
<text text-anchor="middle" x="70.5" y="-7.5" font-family="Helvetica,sans-Serif" font-size="10.00">Dialog</text>
</a>
</g>
</g>
<!-- Node2&#45;&gt;Node3 -->
<g id="edge2" class="edge">
<title>Node2&#45;&gt;Node3</title>
<path fill="none" stroke="midnightblue" d="M166.73,-15.5C158.16,-15.5 149.58,-15.5 141.28,-15.5"/>
<polygon fill="midnightblue" stroke="midnightblue" points="166.78,-19 176.78,-15.5 166.78,-12 166.78,-19"/>
</g>
</g>
</svg>
