<?xml version="1.0" encoding="UTF-8" standalone="no"?>
<!DOCTYPE svg PUBLIC "-//W3C//DTD SVG 1.1//EN"
 "http://www.w3.org/Graphics/SVG/1.1/DTD/svg11.dtd">
<!-- Generated by graphviz version 2.43.0 (0)
 -->
<!-- Title: AdvanceButtonDialog::connectTimeBoxesEvents Pages: 1 -->
<svg width="1923pt" height="717pt"
 viewBox="0.00 0.00 1923.00 716.50" xmlns="http://www.w3.org/2000/svg" xmlns:xlink="http://www.w3.org/1999/xlink">
<g id="graph0" class="graph" transform="scale(1 1) rotate(0) translate(4 712.5)">
<title>AdvanceButtonDialog::connectTimeBoxesEvents</title>
<polygon fill="white" stroke="transparent" points="-4,4 -4,-712.5 1919,-712.5 1919,4 -4,4"/>
<!-- Node1 -->
<g id="node1" class="node">
<title>Node1</title>
<g id="a_node1"><a xlink:title=" ">
<polygon fill="#bfbfbf" stroke="black" points="0,-583.5 0,-613.5 148,-613.5 148,-583.5 0,-583.5"/>
<text text-anchor="start" x="8" y="-601.5" font-family="Helvetica,sans-Serif" font-size="10.00">AdvanceButtonDialog</text>
<text text-anchor="middle" x="74" y="-590.5" font-family="Helvetica,sans-Serif" font-size="10.00">::connectTimeBoxesEvents</text>
</a>
</g>
</g>
<!-- Node2 -->
<g id="node2" class="node">
<title>Node2</title>
<g id="a_node2"><a xlink:href="classAdvanceButtonDialog.html#aec7b800bbe03360bef5ec50c7699be12" target="_top" xlink:title=" ">
<polygon fill="white" stroke="black" points="188,-559.5 188,-589.5 318,-589.5 318,-559.5 188,-559.5"/>
<text text-anchor="start" x="196" y="-577.5" font-family="Helvetica,sans-Serif" font-size="10.00">AdvanceButtonDialog</text>
<text text-anchor="middle" x="253" y="-566.5" font-family="Helvetica,sans-Serif" font-size="10.00">::checkSlotTimeUpdate</text>
</a>
</g>
</g>
<!-- Node1&#45;&gt;Node2 -->
<g id="edge1" class="edge">
<title>Node1&#45;&gt;Node2</title>
<path fill="none" stroke="midnightblue" d="M148.01,-588.6C157.84,-587.27 167.93,-585.9 177.77,-584.57"/>
<polygon fill="midnightblue" stroke="midnightblue" points="178.48,-588 187.92,-583.19 177.54,-581.06 178.48,-588"/>
</g>
<!-- Node45 -->
<g id="node45" class="node">
<title>Node45</title>
<g id="a_node45"><a xlink:href="classAdvanceButtonDialog.html#abe36139fad204573dc1b0ea0e38f169d" target="_top" xlink:title=" ">
<polygon fill="white" stroke="black" points="184,-608.5 184,-638.5 322,-638.5 322,-608.5 184,-608.5"/>
<text text-anchor="start" x="192" y="-626.5" font-family="Helvetica,sans-Serif" font-size="10.00">AdvanceButtonDialog</text>
<text text-anchor="middle" x="253" y="-615.5" font-family="Helvetica,sans-Serif" font-size="10.00">::updateActionTimeLabel</text>
</a>
</g>
</g>
<!-- Node1&#45;&gt;Node45 -->
<g id="edge56" class="edge">
<title>Node1&#45;&gt;Node45</title>
<path fill="none" stroke="midnightblue" d="M148.01,-608.81C156.57,-610.02 165.33,-611.26 173.95,-612.48"/>
<polygon fill="midnightblue" stroke="midnightblue" points="173.59,-615.96 183.98,-613.89 174.57,-609.03 173.59,-615.96"/>
</g>
<!-- Node3 -->
<g id="node3" class="node">
<title>Node3</title>
<g id="a_node3"><a xlink:href="classAdvanceButtonDialog.html#ab5a53a366b15d6ba40214e74fe3ecd49" target="_top" xlink:title=" ">
<polygon fill="white" stroke="black" points="367,-608.5 367,-638.5 489,-638.5 489,-608.5 367,-608.5"/>
<text text-anchor="start" x="375" y="-626.5" font-family="Helvetica,sans-Serif" font-size="10.00">AdvanceButtonDialog</text>
<text text-anchor="middle" x="428" y="-615.5" font-family="Helvetica,sans-Serif" font-size="10.00">::actionTimeConvert</text>
</a>
</g>
</g>
<!-- Node2&#45;&gt;Node3 -->
<g id="edge2" class="edge">
<title>Node2&#45;&gt;Node3</title>
<path fill="none" stroke="midnightblue" d="M307.32,-589.6C325.24,-594.68 345.41,-600.39 364.01,-605.66"/>
<polygon fill="midnightblue" stroke="midnightblue" points="363.28,-609.09 373.86,-608.45 365.19,-602.36 363.28,-609.09"/>
</g>
<!-- Node4 -->
<g id="node4" class="node">
<title>Node4</title>
<g id="a_node4"><a xlink:href="classSimpleKeyGrabberButton.html#a25cefc81223387f0bfd2183627109ff8" target="_top" xlink:title=" ">
<polygon fill="white" stroke="black" points="943,-558.5 943,-588.5 1083,-588.5 1083,-558.5 943,-558.5"/>
<text text-anchor="start" x="951" y="-576.5" font-family="Helvetica,sans-Serif" font-size="10.00">SimpleKeyGrabberButton</text>
<text text-anchor="middle" x="1013" y="-565.5" font-family="Helvetica,sans-Serif" font-size="10.00">::getValue</text>
</a>
</g>
</g>
<!-- Node2&#45;&gt;Node4 -->
<g id="edge3" class="edge">
<title>Node2&#45;&gt;Node4</title>
<path fill="none" stroke="midnightblue" d="M308.65,-559.44C324.45,-555.76 341.8,-552.35 358,-550.5 564.14,-527.02 808.98,-548.74 932.41,-563.13"/>
<polygon fill="midnightblue" stroke="midnightblue" points="932.18,-566.62 942.52,-564.32 933,-559.67 932.18,-566.62"/>
</g>
<!-- Node5 -->
<g id="node5" class="node">
<title>Node5</title>
<g id="a_node5"><a xlink:href="classSimpleKeyGrabberButton.html#a293f8294c8c9b1b3325a07c4369186f4" target="_top" xlink:title=" ">
<polygon fill="white" stroke="black" points="358,-455.5 358,-485.5 498,-485.5 498,-455.5 358,-455.5"/>
<text text-anchor="start" x="366" y="-473.5" font-family="Helvetica,sans-Serif" font-size="10.00">SimpleKeyGrabberButton</text>
<text text-anchor="middle" x="428" y="-462.5" font-family="Helvetica,sans-Serif" font-size="10.00">::setValue</text>
</a>
</g>
</g>
<!-- Node2&#45;&gt;Node5 -->
<g id="edge4" class="edge">
<title>Node2&#45;&gt;Node5</title>
<path fill="none" stroke="midnightblue" d="M279.16,-559.38C309.14,-541.35 359.37,-511.15 392.85,-491.03"/>
<polygon fill="midnightblue" stroke="midnightblue" points="395.05,-493.79 401.81,-485.64 391.44,-487.79 395.05,-493.79"/>
</g>
<!-- Node36 -->
<g id="node36" class="node">
<title>Node36</title>
<g id="a_node36"><a xlink:href="classAdvanceButtonDialog.html#a5284c1fc58683ba8649b1811d615e71c" target="_top" xlink:title=" ">
<polygon fill="white" stroke="black" points="363,-559.5 363,-589.5 493,-589.5 493,-559.5 363,-559.5"/>
<text text-anchor="start" x="371" y="-577.5" font-family="Helvetica,sans-Serif" font-size="10.00">AdvanceButtonDialog</text>
<text text-anchor="middle" x="428" y="-566.5" font-family="Helvetica,sans-Serif" font-size="10.00">::updateSlotsScrollArea</text>
</a>
</g>
</g>
<!-- Node2&#45;&gt;Node36 -->
<g id="edge43" class="edge">
<title>Node2&#45;&gt;Node36</title>
<path fill="none" stroke="midnightblue" d="M318.42,-574.5C329.53,-574.5 341.15,-574.5 352.5,-574.5"/>
<polygon fill="midnightblue" stroke="midnightblue" points="352.82,-578 362.82,-574.5 352.82,-571 352.82,-578"/>
</g>
<!-- Node6 -->
<g id="node6" class="node">
<title>Node6</title>
<g id="a_node6"><a xlink:href="classJoyButtonSlot.html#a6e10409ded595380cbdcfd5c827ab32a" target="_top" xlink:title=" ">
<polygon fill="white" stroke="black" points="534,-407 534,-426 686,-426 686,-407 534,-407"/>
<text text-anchor="middle" x="610" y="-414" font-family="Helvetica,sans-Serif" font-size="10.00">JoyButtonSlot::getSlotString</text>
</a>
</g>
</g>
<!-- Node5&#45;&gt;Node6 -->
<g id="edge5" class="edge">
<title>Node5&#45;&gt;Node6</title>
<path fill="none" stroke="midnightblue" d="M471.69,-455.48C490.67,-449 513.35,-441.55 534,-435.5 542.15,-433.11 550.86,-430.74 559.34,-428.53"/>
<polygon fill="midnightblue" stroke="midnightblue" points="560.33,-431.89 569.15,-426.02 558.59,-425.11 560.33,-431.89"/>
</g>
<!-- Node34 -->
<g id="node34" class="node">
<title>Node34</title>
<g id="a_node34"><a xlink:href="classJoyButtonSlot.html#a23e2639dee82e872b1ebf3958b0db68c" target="_top" xlink:title=" ">
<polygon fill="white" stroke="black" points="536.5,-445 536.5,-464 683.5,-464 683.5,-445 536.5,-445"/>
<text text-anchor="middle" x="610" y="-452" font-family="Helvetica,sans-Serif" font-size="10.00">JoyButtonSlot::setSlotCode</text>
</a>
</g>
</g>
<!-- Node5&#45;&gt;Node34 -->
<g id="edge41" class="edge">
<title>Node5&#45;&gt;Node34</title>
<path fill="none" stroke="midnightblue" d="M498.08,-464.36C507.25,-463.54 516.73,-462.7 526.11,-461.87"/>
<polygon fill="midnightblue" stroke="midnightblue" points="526.57,-465.34 536.22,-460.97 525.95,-458.37 526.57,-465.34"/>
</g>
<!-- Node35 -->
<g id="node35" class="node">
<title>Node35</title>
<g id="a_node35"><a xlink:href="classJoyButtonSlot.html#aa2af2756eb5c633fbe46018773f20bfb" target="_top" xlink:title=" ">
<polygon fill="white" stroke="black" points="535.5,-483 535.5,-502 684.5,-502 684.5,-483 535.5,-483"/>
<text text-anchor="middle" x="610" y="-490" font-family="Helvetica,sans-Serif" font-size="10.00">JoyButtonSlot::setSlotMode</text>
</a>
</g>
</g>
<!-- Node5&#45;&gt;Node35 -->
<g id="edge42" class="edge">
<title>Node5&#45;&gt;Node35</title>
<path fill="none" stroke="midnightblue" d="M498.08,-478.94C506.94,-480.03 516.08,-481.14 525.15,-482.25"/>
<polygon fill="midnightblue" stroke="midnightblue" points="524.97,-485.76 535.32,-483.5 525.82,-478.81 524.97,-485.76"/>
</g>
<!-- Node7 -->
<g id="node7" class="node">
<title>Node7</title>
<g id="a_node7"><a xlink:href="classJoyButtonSlot.html#a4fb0606a34134786bc642627bc25aedd" target="_top" xlink:title=" ">
<polygon fill="white" stroke="black" points="737,-188 737,-207 883,-207 883,-188 737,-188"/>
<text text-anchor="middle" x="810" y="-195" font-family="Helvetica,sans-Serif" font-size="10.00">JoyButtonSlot::getMixSlots</text>
</a>
</g>
</g>
<!-- Node6&#45;&gt;Node7 -->
<g id="edge6" class="edge">
<title>Node6&#45;&gt;Node7</title>
<path fill="none" stroke="midnightblue" d="M619.76,-406.81C650.56,-372.75 754.08,-258.24 793.54,-214.6"/>
<polygon fill="midnightblue" stroke="midnightblue" points="796.23,-216.85 800.34,-207.08 791.04,-212.15 796.23,-216.85"/>
</g>
<!-- Node9 -->
<g id="node9" class="node">
<title>Node9</title>
<g id="a_node9"><a xlink:href="namespacePadderCommon.html#aaa09739d2df84421a5a3467a06ce941c" target="_top" xlink:title="Returns the &quot;human&#45;readable&quot; name of the given profile.">
<polygon fill="white" stroke="black" points="722,-426 722,-445 898,-445 898,-426 722,-426"/>
<text text-anchor="middle" x="810" y="-433" font-family="Helvetica,sans-Serif" font-size="10.00">PadderCommon::getProfileName</text>
</a>
</g>
</g>
<!-- Node6&#45;&gt;Node9 -->
<g id="edge8" class="edge">
<title>Node6&#45;&gt;Node9</title>
<path fill="none" stroke="midnightblue" d="M686.14,-423.71C694.55,-424.52 703.21,-425.35 711.85,-426.18"/>
<polygon fill="midnightblue" stroke="midnightblue" points="711.68,-429.68 721.97,-427.15 712.35,-422.71 711.68,-429.68"/>
</g>
<!-- Node10 -->
<g id="node10" class="node">
<title>Node10</title>
<g id="a_node10"><a xlink:href="event_8cpp.html#a76ce89b71143c1c09343f45f038b4a67" target="_top" xlink:title=" ">
<polygon fill="white" stroke="black" points="754,-388 754,-407 866,-407 866,-388 754,-388"/>
<text text-anchor="middle" x="810" y="-395" font-family="Helvetica,sans-Serif" font-size="10.00">keysymToKeyString</text>
</a>
</g>
</g>
<!-- Node6&#45;&gt;Node10 -->
<g id="edge9" class="edge">
<title>Node6&#45;&gt;Node10</title>
<path fill="none" stroke="midnightblue" d="M686.14,-409.29C705.15,-407.47 725.42,-405.52 743.89,-403.75"/>
<polygon fill="midnightblue" stroke="midnightblue" points="744.33,-407.22 753.95,-402.78 743.66,-400.25 744.33,-407.22"/>
</g>
<!-- Node33 -->
<g id="node33" class="node">
<title>Node33</title>
<g id="a_node33"><a xlink:href="classJoyButtonSlot.html#a37ff2b523177bae4ea6a44b82f2973eb" target="_top" xlink:title=" ">
<polygon fill="white" stroke="black" points="725,-464 725,-483 895,-483 895,-464 725,-464"/>
<text text-anchor="middle" x="810" y="-471" font-family="Helvetica,sans-Serif" font-size="10.00">JoyButtonSlot::movementString</text>
</a>
</g>
</g>
<!-- Node6&#45;&gt;Node33 -->
<g id="edge40" class="edge">
<title>Node6&#45;&gt;Node33</title>
<path fill="none" stroke="midnightblue" d="M655.96,-426.04C665.99,-428.68 676.47,-431.84 686,-435.5 702.89,-441.99 705.01,-448.29 722,-454.5 729.25,-457.15 736.98,-459.49 744.73,-461.54"/>
<polygon fill="midnightblue" stroke="midnightblue" points="743.97,-464.95 754.52,-463.98 745.66,-458.16 743.97,-464.95"/>
</g>
<!-- Node8 -->
<g id="node8" class="node">
<title>Node8</title>
<g id="a_node8"><a xlink:href="classJoyButtonSlot.html#a9ba9cb0dda063a7df5575072c0aabe01" target="_top" xlink:title=" ">
<polygon fill="white" stroke="black" points="943.5,-0.5 943.5,-30.5 1082.5,-30.5 1082.5,-0.5 943.5,-0.5"/>
<text text-anchor="start" x="951.5" y="-18.5" font-family="Helvetica,sans-Serif" font-size="10.00">JoyButtonSlot::secureMix</text>
<text text-anchor="middle" x="1013" y="-7.5" font-family="Helvetica,sans-Serif" font-size="10.00">SlotsInit</text>
</a>
</g>
</g>
<!-- Node7&#45;&gt;Node8 -->
<g id="edge7" class="edge">
<title>Node7&#45;&gt;Node8</title>
<path fill="none" stroke="midnightblue" d="M816.33,-187.85C831.39,-161.42 876.9,-87.03 934,-45.5 939.52,-41.49 945.64,-37.93 951.96,-34.81"/>
<polygon fill="midnightblue" stroke="midnightblue" points="953.67,-37.88 961.31,-30.54 950.76,-31.51 953.67,-37.88"/>
</g>
<!-- Node11 -->
<g id="node11" class="node">
<title>Node11</title>
<g id="a_node11"><a xlink:href="classX11Extras.html#a643c95dc1de8eb073a0accb41619fe83" target="_top" xlink:title="Get display instance.">
<polygon fill="white" stroke="black" points="1171,-521 1171,-540 1278,-540 1278,-521 1171,-521"/>
<text text-anchor="middle" x="1224.5" y="-528" font-family="Helvetica,sans-Serif" font-size="10.00">X11Extras::display</text>
</a>
</g>
</g>
<!-- Node10&#45;&gt;Node11 -->
<g id="edge10" class="edge">
<title>Node10&#45;&gt;Node11</title>
<path fill="none" stroke="midnightblue" d="M866.42,-403.99C877.38,-406.79 888.44,-410.79 898,-416.5 919.1,-429.11 913.23,-445.35 934,-458.5 1009.52,-506.31 1041,-490.99 1128,-511.5 1138.94,-514.08 1150.65,-516.6 1161.98,-518.92"/>
<polygon fill="midnightblue" stroke="midnightblue" points="1161.32,-522.36 1171.81,-520.91 1162.7,-515.5 1161.32,-522.36"/>
</g>
<!-- Node12 -->
<g id="node12" class="node">
<title>Node12</title>
<g id="a_node12"><a xlink:href="classBaseEventHandler.html#a9a014e472ec57408d16b8b5eed964e90" target="_top" xlink:title=" ">
<polygon fill="white" stroke="black" points="1138.5,-483 1138.5,-502 1310.5,-502 1310.5,-483 1138.5,-483"/>
<text text-anchor="middle" x="1224.5" y="-490" font-family="Helvetica,sans-Serif" font-size="10.00">BaseEventHandler::getIdentifier</text>
</a>
</g>
</g>
<!-- Node10&#45;&gt;Node12 -->
<g id="edge11" class="edge">
<title>Node10&#45;&gt;Node12</title>
<path fill="none" stroke="midnightblue" d="M855.76,-407.02C869.34,-409.98 884.3,-413.31 898,-416.5 1000.57,-440.4 1025.22,-450.55 1128,-473.5 1139.36,-476.04 1151.51,-478.58 1163.21,-480.95"/>
<polygon fill="midnightblue" stroke="midnightblue" points="1162.86,-484.45 1173.35,-482.98 1164.23,-477.58 1162.86,-484.45"/>
</g>
<!-- Node13 -->
<g id="node13" class="node">
<title>Node13</title>
<g id="a_node13"><a xlink:href="classX11Extras.html#ace76277fced60e6bd6ff880030338182" target="_top" xlink:title=" ">
<polygon fill="white" stroke="black" points="1160,-559 1160,-578 1289,-578 1289,-559 1160,-559"/>
<text text-anchor="middle" x="1224.5" y="-566" font-family="Helvetica,sans-Serif" font-size="10.00">X11Extras::getInstance</text>
</a>
</g>
</g>
<!-- Node10&#45;&gt;Node13 -->
<g id="edge12" class="edge">
<title>Node10&#45;&gt;Node13</title>
<path fill="none" stroke="midnightblue" d="M866.42,-401.67C877.75,-404.6 888.96,-409.24 898,-416.5 927.77,-440.41 904.98,-469.69 934,-494.5 1002.12,-552.74 1040.87,-528.52 1128,-549.5 1138.93,-552.13 1150.63,-554.68 1161.96,-557.01"/>
<polygon fill="midnightblue" stroke="midnightblue" points="1161.29,-560.44 1171.79,-559 1162.68,-553.58 1161.29,-560.44"/>
</g>
<!-- Node16 -->
<g id="node16" class="node">
<title>Node16</title>
<g id="a_node16"><a xlink:href="classEventHandlerFactory.html#a90ce153a19fbb91128bd52eb083ce271" target="_top" xlink:title=" ">
<polygon fill="white" stroke="black" points="1165.5,-190.5 1165.5,-220.5 1283.5,-220.5 1283.5,-190.5 1165.5,-190.5"/>
<text text-anchor="start" x="1173.5" y="-208.5" font-family="Helvetica,sans-Serif" font-size="10.00">EventHandlerFactory</text>
<text text-anchor="middle" x="1224.5" y="-197.5" font-family="Helvetica,sans-Serif" font-size="10.00">::getInstance</text>
</a>
</g>
</g>
<!-- Node10&#45;&gt;Node16 -->
<g id="edge15" class="edge">
<title>Node10&#45;&gt;Node16</title>
<path fill="none" stroke="midnightblue" d="M831.46,-387.98C895.78,-358.04 1094.81,-265.4 1181.94,-224.84"/>
<polygon fill="midnightblue" stroke="midnightblue" points="1183.67,-227.9 1191.25,-220.51 1180.71,-221.56 1183.67,-227.9"/>
</g>
<!-- Node19 -->
<g id="node19" class="node">
<title>Node19</title>
<g id="a_node19"><a xlink:href="classEventHandlerFactory.html#a4c13007f0ece5bf881080c9c04f1f20d" target="_top" xlink:title=" ">
<polygon fill="white" stroke="black" points="1567.5,-153.5 1567.5,-183.5 1685.5,-183.5 1685.5,-153.5 1567.5,-153.5"/>
<text text-anchor="start" x="1575.5" y="-171.5" font-family="Helvetica,sans-Serif" font-size="10.00">EventHandlerFactory</text>
<text text-anchor="middle" x="1626.5" y="-160.5" font-family="Helvetica,sans-Serif" font-size="10.00">::handler</text>
</a>
</g>
</g>
<!-- Node10&#45;&gt;Node19 -->
<g id="edge21" class="edge">
<title>Node10&#45;&gt;Node19</title>
<path fill="none" stroke="midnightblue" d="M817.68,-387.86C834.63,-364.03 881.65,-301.6 934,-264.5 1098.51,-147.91 1158.21,-134.22 1357,-100.5 1423.6,-89.2 1443.79,-82.86 1509,-100.5 1542.48,-109.56 1576.2,-130.89 1598.69,-147.26"/>
<polygon fill="midnightblue" stroke="midnightblue" points="1596.63,-150.09 1606.74,-153.26 1600.81,-144.48 1596.63,-150.09"/>
</g>
<!-- Node21 -->
<g id="node21" class="node">
<title>Node21</title>
<g id="a_node21"><a xlink:href="event_8cpp.html#ad239a34cab482dc3cad5a23a9ac1ad78" target="_top" xlink:title=" ">
<polygon fill="white" stroke="black" points="956,-388 956,-407 1070,-407 1070,-388 956,-388"/>
<text text-anchor="middle" x="1013" y="-395" font-family="Helvetica,sans-Serif" font-size="10.00">keycodeToKeyString</text>
</a>
</g>
</g>
<!-- Node10&#45;&gt;Node21 -->
<g id="edge22" class="edge">
<title>Node10&#45;&gt;Node21</title>
<path fill="none" stroke="midnightblue" d="M866.19,-397.5C890.81,-397.5 920.03,-397.5 945.82,-397.5"/>
<polygon fill="midnightblue" stroke="midnightblue" points="945.89,-401 955.89,-397.5 945.89,-394 945.89,-401"/>
</g>
<!-- Node14 -->
<g id="node14" class="node">
<title>Node14</title>
<g id="a_node14"><a xlink:href="classX11Extras.html#ab9bcb016e23bacb0e988feb8175d2c88" target="_top" xlink:title=" ">
<polygon fill="white" stroke="black" points="1372,-559 1372,-578 1494,-578 1494,-559 1372,-559"/>
<text text-anchor="middle" x="1433" y="-566" font-family="Helvetica,sans-Serif" font-size="10.00">X11Extras::X11Extras</text>
</a>
</g>
</g>
<!-- Node13&#45;&gt;Node14 -->
<g id="edge13" class="edge">
<title>Node13&#45;&gt;Node14</title>
<path fill="none" stroke="midnightblue" d="M1289.14,-568.5C1312.06,-568.5 1338.04,-568.5 1361.51,-568.5"/>
<polygon fill="midnightblue" stroke="midnightblue" points="1361.74,-572 1371.74,-568.5 1361.74,-565 1361.74,-572"/>
</g>
<!-- Node15 -->
<g id="node15" class="node">
<title>Node15</title>
<g id="a_node15"><a xlink:href="classX11Extras.html#a6f63e77ed045e174546d77333672b8f0" target="_top" xlink:title=" ">
<polygon fill="white" stroke="black" points="1552.5,-553.5 1552.5,-583.5 1700.5,-583.5 1700.5,-553.5 1552.5,-553.5"/>
<text text-anchor="start" x="1560.5" y="-571.5" font-family="Helvetica,sans-Serif" font-size="10.00">X11Extras::populateKnown</text>
<text text-anchor="middle" x="1626.5" y="-560.5" font-family="Helvetica,sans-Serif" font-size="10.00">Aliases</text>
</a>
</g>
</g>
<!-- Node14&#45;&gt;Node15 -->
<g id="edge14" class="edge">
<title>Node14&#45;&gt;Node15</title>
<path fill="none" stroke="midnightblue" d="M1494.07,-568.5C1509.33,-568.5 1526,-568.5 1542.19,-568.5"/>
<polygon fill="midnightblue" stroke="midnightblue" points="1542.19,-572 1552.19,-568.5 1542.19,-565 1542.19,-572"/>
</g>
<!-- Node17 -->
<g id="node17" class="node">
<title>Node17</title>
<g id="a_node17"><a xlink:href="classEventHandlerFactory.html#ade5162034acc0f8683725fdb124bece0" target="_top" xlink:title=" ">
<polygon fill="white" stroke="black" points="1363,-175.5 1363,-205.5 1503,-205.5 1503,-175.5 1363,-175.5"/>
<text text-anchor="start" x="1371" y="-193.5" font-family="Helvetica,sans-Serif" font-size="10.00">EventHandlerFactory</text>
<text text-anchor="middle" x="1433" y="-182.5" font-family="Helvetica,sans-Serif" font-size="10.00">::buildEventGeneratorList</text>
</a>
</g>
</g>
<!-- Node16&#45;&gt;Node17 -->
<g id="edge16" class="edge">
<title>Node16&#45;&gt;Node17</title>
<path fill="none" stroke="midnightblue" d="M1283.57,-201.28C1304.98,-199.73 1329.61,-197.94 1352.58,-196.27"/>
<polygon fill="midnightblue" stroke="midnightblue" points="1352.93,-199.75 1362.65,-195.54 1352.43,-192.77 1352.93,-199.75"/>
</g>
<!-- Node18 -->
<g id="node18" class="node">
<title>Node18</title>
<g id="a_node18"><a xlink:href="classEventHandlerFactory.html#a2f843293b2ea47271fc7bd99bd871fa6" target="_top" xlink:title=" ">
<polygon fill="white" stroke="black" points="1371,-224.5 1371,-254.5 1495,-254.5 1495,-224.5 1371,-224.5"/>
<text text-anchor="start" x="1379" y="-242.5" font-family="Helvetica,sans-Serif" font-size="10.00">EventHandlerFactory</text>
<text text-anchor="middle" x="1433" y="-231.5" font-family="Helvetica,sans-Serif" font-size="10.00">::EventHandlerFactory</text>
</a>
</g>
</g>
<!-- Node16&#45;&gt;Node18 -->
<g id="edge17" class="edge">
<title>Node16&#45;&gt;Node18</title>
<path fill="none" stroke="midnightblue" d="M1283.57,-215.06C1307.58,-219.01 1335.65,-223.64 1360.88,-227.79"/>
<polygon fill="midnightblue" stroke="midnightblue" points="1360.33,-231.25 1370.76,-229.42 1361.47,-224.34 1360.33,-231.25"/>
</g>
<!-- Node16&#45;&gt;Node19 -->
<g id="edge20" class="edge">
<title>Node16&#45;&gt;Node19</title>
<path fill="none" stroke="midnightblue" d="M1240.84,-190.47C1263.82,-169.14 1309.56,-131.05 1357,-116.5 1421.59,-96.7 1442.93,-102.42 1509,-116.5 1538.13,-122.71 1568.8,-136.74 1591.36,-148.67"/>
<polygon fill="midnightblue" stroke="midnightblue" points="1589.73,-151.77 1600.19,-153.45 1593.07,-145.61 1589.73,-151.77"/>
</g>
<!-- Node20 -->
<g id="node20" class="node">
<title>Node20</title>
<g id="a_node20"><a xlink:href="classEventHandlerFactory.html#afa5ca0171c70b1a24f92b5c8dd00dc92" target="_top" xlink:title=" ">
<polygon fill="white" stroke="black" points="1374,-126.5 1374,-156.5 1492,-156.5 1492,-126.5 1374,-126.5"/>
<text text-anchor="start" x="1382" y="-144.5" font-family="Helvetica,sans-Serif" font-size="10.00">EventHandlerFactory</text>
<text text-anchor="middle" x="1433" y="-133.5" font-family="Helvetica,sans-Serif" font-size="10.00">::fallBackIdentifier</text>
</a>
</g>
</g>
<!-- Node16&#45;&gt;Node20 -->
<g id="edge19" class="edge">
<title>Node16&#45;&gt;Node20</title>
<path fill="none" stroke="midnightblue" d="M1273.92,-190.49C1303.71,-181.26 1342.09,-169.37 1373.57,-159.61"/>
<polygon fill="midnightblue" stroke="midnightblue" points="1375.02,-162.83 1383.53,-156.52 1372.94,-156.14 1375.02,-162.83"/>
</g>
<!-- Node18&#45;&gt;Node19 -->
<g id="edge18" class="edge">
<title>Node18&#45;&gt;Node19</title>
<path fill="none" stroke="midnightblue" d="M1480.55,-224.42C1490,-221.24 1499.84,-217.83 1509,-214.5 1532.39,-205.99 1558.16,-195.89 1579.5,-187.33"/>
<polygon fill="midnightblue" stroke="midnightblue" points="1581,-190.5 1588.97,-183.52 1578.38,-184.01 1581,-190.5"/>
</g>
<!-- Node21&#45;&gt;Node11 -->
<g id="edge23" class="edge">
<title>Node21&#45;&gt;Node11</title>
<path fill="none" stroke="midnightblue" d="M1024.91,-407.1C1040.29,-420.76 1069.03,-446.79 1092,-470.5 1108.87,-487.92 1107,-499.38 1128,-511.5 1137.97,-517.25 1149.38,-521.29 1160.78,-524.11"/>
<polygon fill="midnightblue" stroke="midnightblue" points="1160.23,-527.57 1170.74,-526.3 1161.72,-520.74 1160.23,-527.57"/>
</g>
<!-- Node21&#45;&gt;Node12 -->
<g id="edge28" class="edge">
<title>Node21&#45;&gt;Node12</title>
<path fill="none" stroke="midnightblue" d="M1058.42,-407.05C1070.06,-410.9 1082.11,-416.23 1092,-423.5 1114.06,-439.73 1104.97,-458.69 1128,-473.5 1131.17,-475.54 1134.52,-477.37 1137.98,-479.01"/>
<polygon fill="midnightblue" stroke="midnightblue" points="1136.81,-482.31 1147.39,-482.92 1139.5,-475.85 1136.81,-482.31"/>
</g>
<!-- Node21&#45;&gt;Node13 -->
<g id="edge36" class="edge">
<title>Node21&#45;&gt;Node13</title>
<path fill="none" stroke="midnightblue" d="M1020.05,-407.34C1039.09,-437.99 1098.27,-530.78 1128,-549.5 1134.81,-553.79 1142.4,-557.14 1150.23,-559.75"/>
<polygon fill="midnightblue" stroke="midnightblue" points="1149.29,-563.13 1159.87,-562.59 1151.27,-556.41 1149.29,-563.13"/>
</g>
<!-- Node21&#45;&gt;Node16 -->
<g id="edge37" class="edge">
<title>Node21&#45;&gt;Node16</title>
<path fill="none" stroke="midnightblue" d="M1021.83,-387.72C1035.97,-370.03 1066.66,-331.46 1092,-298.5 1108.25,-277.36 1107.33,-267.35 1128,-250.5 1140.59,-240.24 1155.9,-231.69 1170.54,-224.9"/>
<polygon fill="midnightblue" stroke="midnightblue" points="1172.31,-227.95 1180.03,-220.69 1169.47,-221.55 1172.31,-227.95"/>
</g>
<!-- Node21&#45;&gt;Node19 -->
<g id="edge38" class="edge">
<title>Node21&#45;&gt;Node19</title>
<path fill="none" stroke="midnightblue" d="M1022.77,-387.98C1047.11,-361.67 1114.64,-289.45 1128,-283.5 1282.9,-214.52 1350.8,-324.54 1509,-263.5 1548.42,-248.29 1584.58,-214.32 1605.83,-191.4"/>
<polygon fill="midnightblue" stroke="midnightblue" points="1608.59,-193.57 1612.71,-183.81 1603.4,-188.87 1608.59,-193.57"/>
</g>
<!-- Node22 -->
<g id="node22" class="node">
<title>Node22</title>
<g id="a_node22"><a xlink:href="classWinExtras.html#a3487e64cfb407033d7e28a761d1e76dc" target="_top" xlink:title=" ">
<polygon fill="white" stroke="black" points="1148,-407 1148,-426 1301,-426 1301,-407 1148,-407"/>
<text text-anchor="middle" x="1224.5" y="-414" font-family="Helvetica,sans-Serif" font-size="10.00">WinExtras::getDisplayString</text>
</a>
</g>
</g>
<!-- Node21&#45;&gt;Node22 -->
<g id="edge24" class="edge">
<title>Node21&#45;&gt;Node22</title>
<path fill="none" stroke="midnightblue" d="M1070.14,-402.59C1090.94,-404.48 1115.03,-406.66 1137.86,-408.73"/>
<polygon fill="midnightblue" stroke="midnightblue" points="1137.62,-412.23 1147.9,-409.64 1138.25,-405.25 1137.62,-412.23"/>
</g>
<!-- Node23 -->
<g id="node23" class="node">
<title>Node23</title>
<g id="a_node23"><a xlink:href="classUInputHelper.html#ac4c70c9479c1cc0eb515ab1bdf2426f5" target="_top" xlink:title=" ">
<polygon fill="white" stroke="black" points="1556.5,-326.5 1556.5,-356.5 1696.5,-356.5 1696.5,-326.5 1556.5,-326.5"/>
<text text-anchor="start" x="1564.5" y="-344.5" font-family="Helvetica,sans-Serif" font-size="10.00">UInputHelper::getDisplay</text>
<text text-anchor="middle" x="1626.5" y="-333.5" font-family="Helvetica,sans-Serif" font-size="10.00">String</text>
</a>
</g>
</g>
<!-- Node21&#45;&gt;Node23 -->
<g id="edge25" class="edge">
<title>Node21&#45;&gt;Node23</title>
<path fill="none" stroke="midnightblue" d="M1036.21,-387.98C1058.83,-378.8 1095.15,-365.44 1128,-359.5 1273.8,-333.13 1447.43,-334 1546.23,-337.46"/>
<polygon fill="midnightblue" stroke="midnightblue" points="1546.31,-340.97 1556.43,-337.84 1546.57,-333.97 1546.31,-340.97"/>
</g>
<!-- Node25 -->
<g id="node25" class="node">
<title>Node25</title>
<g id="a_node25"><a xlink:href="classX11Extras.html#abe710bac948c9802105a2d9d06815cac" target="_top" xlink:title="Get appropriate alias for a known KeySym string that might be blank or contain invalid characters whe...">
<polygon fill="white" stroke="black" points="1148,-369 1148,-388 1301,-388 1301,-369 1148,-369"/>
<text text-anchor="middle" x="1224.5" y="-376" font-family="Helvetica,sans-Serif" font-size="10.00">X11Extras::getDisplayString</text>
</a>
</g>
</g>
<!-- Node21&#45;&gt;Node25 -->
<g id="edge27" class="edge">
<title>Node21&#45;&gt;Node25</title>
<path fill="none" stroke="midnightblue" d="M1070.14,-392.41C1090.94,-390.52 1115.03,-388.34 1137.86,-386.27"/>
<polygon fill="midnightblue" stroke="midnightblue" points="1138.25,-389.75 1147.9,-385.36 1137.62,-382.77 1138.25,-389.75"/>
</g>
<!-- Node26 -->
<g id="node26" class="node">
<title>Node26</title>
<g id="a_node26"><a xlink:href="classUInputHelper.html#a61509601d3dbd8933aaa26c1e2db02f6" target="_top" xlink:title=" ">
<polygon fill="white" stroke="black" points="1152.5,-445 1152.5,-464 1296.5,-464 1296.5,-445 1152.5,-445"/>
<text text-anchor="middle" x="1224.5" y="-452" font-family="Helvetica,sans-Serif" font-size="10.00">UInputHelper::getInstance</text>
</a>
</g>
</g>
<!-- Node21&#45;&gt;Node26 -->
<g id="edge29" class="edge">
<title>Node21&#45;&gt;Node26</title>
<path fill="none" stroke="midnightblue" d="M1042.72,-407.08C1076.45,-418.32 1127.86,-435.46 1128,-435.5 1138.09,-438.17 1148.87,-440.66 1159.42,-442.9"/>
<polygon fill="midnightblue" stroke="midnightblue" points="1158.94,-446.38 1169.44,-444.97 1160.35,-439.52 1158.94,-446.38"/>
</g>
<!-- Node32 -->
<g id="node32" class="node">
<title>Node32</title>
<g id="a_node32"><a xlink:href="classWinExtras.html#a0bfa711c1abe72486dfebc8ff6fe7f5a" target="_top" xlink:title="Convert a virtual key into the corresponding keyboard scan code.">
<polygon fill="white" stroke="black" points="1128,-293 1128,-312 1321,-312 1321,-293 1128,-293"/>
<text text-anchor="middle" x="1224.5" y="-300" font-family="Helvetica,sans-Serif" font-size="10.00">WinExtras::scancodeFromVirtualKey</text>
</a>
</g>
</g>
<!-- Node21&#45;&gt;Node32 -->
<g id="edge39" class="edge">
<title>Node21&#45;&gt;Node32</title>
<path fill="none" stroke="midnightblue" d="M1026.61,-387.79C1046.9,-372.61 1088.51,-343.27 1128,-326.5 1139.06,-321.8 1151.25,-317.87 1163.12,-314.65"/>
<polygon fill="midnightblue" stroke="midnightblue" points="1164.17,-317.99 1172.97,-312.1 1162.42,-311.21 1164.17,-317.99"/>
</g>
<!-- Node24 -->
<g id="node24" class="node">
<title>Node24</title>
<g id="a_node24"><a xlink:href="classUInputHelper.html#a043b0fa7cf4ce5811d01d95f3ca318b7" target="_top" xlink:title=" ">
<polygon fill="white" stroke="black" points="1744,-327.5 1744,-357.5 1915,-357.5 1915,-327.5 1744,-327.5"/>
<text text-anchor="start" x="1752" y="-345.5" font-family="Helvetica,sans-Serif" font-size="10.00">UInputHelper::getKnownAliases</text>
<text text-anchor="middle" x="1829.5" y="-334.5" font-family="Helvetica,sans-Serif" font-size="10.00">VKStrings</text>
</a>
</g>
</g>
<!-- Node23&#45;&gt;Node24 -->
<g id="edge26" class="edge">
<title>Node23&#45;&gt;Node24</title>
<path fill="none" stroke="midnightblue" d="M1696.67,-341.84C1708.68,-341.9 1721.35,-341.97 1733.9,-342.03"/>
<polygon fill="midnightblue" stroke="midnightblue" points="1733.9,-345.53 1743.92,-342.08 1733.94,-338.53 1733.9,-345.53"/>
</g>
<!-- Node27 -->
<g id="node27" class="node">
<title>Node27</title>
<g id="a_node27"><a xlink:href="classUInputHelper.html#a5d56d23a0e0202435c7a5ff1aca9ce55" target="_top" xlink:title=" ">
<polygon fill="white" stroke="black" points="1357,-443 1357,-462 1509,-462 1509,-443 1357,-443"/>
<text text-anchor="middle" x="1433" y="-450" font-family="Helvetica,sans-Serif" font-size="10.00">UInputHelper::UInputHelper</text>
</a>
</g>
</g>
<!-- Node26&#45;&gt;Node27 -->
<g id="edge30" class="edge">
<title>Node26&#45;&gt;Node27</title>
<path fill="none" stroke="midnightblue" d="M1296.57,-453.81C1312.7,-453.66 1330,-453.49 1346.66,-453.33"/>
<polygon fill="midnightblue" stroke="midnightblue" points="1346.97,-456.82 1356.93,-453.23 1346.9,-449.82 1346.97,-456.82"/>
</g>
<!-- Node28 -->
<g id="node28" class="node">
<title>Node28</title>
<g id="a_node28"><a xlink:href="classUInputHelper.html#a0f4dbb4221502d86f7d0af12a9865568" target="_top" xlink:title=" ">
<polygon fill="white" stroke="black" points="1545,-433.5 1545,-463.5 1708,-463.5 1708,-433.5 1545,-433.5"/>
<text text-anchor="start" x="1553" y="-451.5" font-family="Helvetica,sans-Serif" font-size="10.00">UInputHelper::populateKnown</text>
<text text-anchor="middle" x="1626.5" y="-440.5" font-family="Helvetica,sans-Serif" font-size="10.00">Aliases</text>
</a>
</g>
</g>
<!-- Node27&#45;&gt;Node28 -->
<g id="edge31" class="edge">
<title>Node27&#45;&gt;Node28</title>
<path fill="none" stroke="midnightblue" d="M1509.14,-450.93C1517.57,-450.75 1526.23,-450.57 1534.83,-450.39"/>
<polygon fill="midnightblue" stroke="midnightblue" points="1534.97,-453.89 1544.89,-450.18 1534.82,-446.89 1534.97,-453.89"/>
</g>
<!-- Node28&#45;&gt;Node24 -->
<g id="edge32" class="edge">
<title>Node28&#45;&gt;Node24</title>
<path fill="none" stroke="midnightblue" d="M1649.11,-433.23C1671.98,-417.49 1709.46,-392.87 1744,-375.5 1754.02,-370.46 1765,-365.67 1775.64,-361.38"/>
<polygon fill="midnightblue" stroke="midnightblue" points="1777.24,-364.51 1785.27,-357.59 1774.68,-358 1777.24,-364.51"/>
</g>
<!-- Node29 -->
<g id="node29" class="node">
<title>Node29</title>
<g id="a_node29"><a xlink:href="classUInputHelper.html#a8f3fe71ae635cd3c46eaab79dd11c2e0" target="_top" xlink:title=" ">
<polygon fill="white" stroke="black" points="1744,-433.5 1744,-463.5 1915,-463.5 1915,-433.5 1744,-433.5"/>
<text text-anchor="start" x="1752" y="-451.5" font-family="Helvetica,sans-Serif" font-size="10.00">UInputHelper::getKnownAliases</text>
<text text-anchor="middle" x="1829.5" y="-440.5" font-family="Helvetica,sans-Serif" font-size="10.00">X11SymVK</text>
</a>
</g>
</g>
<!-- Node28&#45;&gt;Node29 -->
<g id="edge33" class="edge">
<title>Node28&#45;&gt;Node29</title>
<path fill="none" stroke="midnightblue" d="M1708.1,-448.5C1716.57,-448.5 1725.25,-448.5 1733.87,-448.5"/>
<polygon fill="midnightblue" stroke="midnightblue" points="1733.94,-452 1743.94,-448.5 1733.94,-445 1733.94,-452"/>
</g>
<!-- Node30 -->
<g id="node30" class="node">
<title>Node30</title>
<g id="a_node30"><a xlink:href="classUInputHelper.html#a9793030329fbbe1106b255814ef2bd0f" target="_top" xlink:title=" ">
<polygon fill="white" stroke="black" points="1755,-384.5 1755,-414.5 1904,-414.5 1904,-384.5 1755,-384.5"/>
<text text-anchor="start" x="1763" y="-402.5" font-family="Helvetica,sans-Serif" font-size="10.00">UInputHelper::populateX11</text>
<text text-anchor="middle" x="1829.5" y="-391.5" font-family="Helvetica,sans-Serif" font-size="10.00">SymVk</text>
</a>
</g>
</g>
<!-- Node28&#45;&gt;Node30 -->
<g id="edge34" class="edge">
<title>Node28&#45;&gt;Node30</title>
<path fill="none" stroke="midnightblue" d="M1689.17,-433.47C1710.59,-428.24 1734.78,-422.35 1756.93,-416.95"/>
<polygon fill="midnightblue" stroke="midnightblue" points="1758.06,-420.28 1766.94,-414.51 1756.4,-413.47 1758.06,-420.28"/>
</g>
<!-- Node31 -->
<g id="node31" class="node">
<title>Node31</title>
<g id="a_node31"><a xlink:href="classUInputHelper.html#af02574de230bb0550eebb63f5a669681" target="_top" xlink:title=" ">
<polygon fill="white" stroke="black" points="1755,-482.5 1755,-512.5 1904,-512.5 1904,-482.5 1755,-482.5"/>
<text text-anchor="start" x="1763" y="-500.5" font-family="Helvetica,sans-Serif" font-size="10.00">UInputHelper::populateXVk</text>
<text text-anchor="middle" x="1829.5" y="-489.5" font-family="Helvetica,sans-Serif" font-size="10.00">Strings</text>
</a>
</g>
</g>
<!-- Node28&#45;&gt;Node31 -->
<g id="edge35" class="edge">
<title>Node28&#45;&gt;Node31</title>
<path fill="none" stroke="midnightblue" d="M1689.17,-463.53C1710.59,-468.76 1734.78,-474.65 1756.93,-480.05"/>
<polygon fill="midnightblue" stroke="midnightblue" points="1756.4,-483.53 1766.94,-482.49 1758.06,-476.72 1756.4,-483.53"/>
</g>
<!-- Node37 -->
<g id="node37" class="node">
<title>Node37</title>
<g id="a_node37"><a xlink:href="classAdvanceButtonDialog.html#ab0a69a5cf232c47a8cbdef5141d1bd9b" target="_top" xlink:title=" ">
<polygon fill="white" stroke="black" points="538.5,-608.5 538.5,-638.5 681.5,-638.5 681.5,-608.5 538.5,-608.5"/>
<text text-anchor="start" x="546.5" y="-626.5" font-family="Helvetica,sans-Serif" font-size="10.00">AdvanceButtonDialog</text>
<text text-anchor="middle" x="610" y="-615.5" font-family="Helvetica,sans-Serif" font-size="10.00">::appendBlankKeyGrabber</text>
</a>
</g>
</g>
<!-- Node36&#45;&gt;Node37 -->
<g id="edge44" class="edge">
<title>Node36&#45;&gt;Node37</title>
<path fill="none" stroke="midnightblue" d="M484.47,-589.6C503.3,-594.73 524.49,-600.5 543.99,-605.8"/>
<polygon fill="midnightblue" stroke="midnightblue" points="543.14,-609.2 553.71,-608.45 544.98,-602.44 543.14,-609.2"/>
</g>
<!-- Node40 -->
<g id="node40" class="node">
<title>Node40</title>
<g id="a_node40"><a xlink:href="classAdvanceButtonDialog.html#aeb24c0b3026ce45fd97cab431d4b6040" target="_top" xlink:title=" ">
<polygon fill="white" stroke="black" points="534,-559.5 534,-589.5 686,-589.5 686,-559.5 534,-559.5"/>
<text text-anchor="start" x="542" y="-577.5" font-family="Helvetica,sans-Serif" font-size="10.00">AdvanceButtonDialog</text>
<text text-anchor="middle" x="610" y="-566.5" font-family="Helvetica,sans-Serif" font-size="10.00">::changeTurboForSequences</text>
</a>
</g>
</g>
<!-- Node36&#45;&gt;Node40 -->
<g id="edge48" class="edge">
<title>Node36&#45;&gt;Node40</title>
<path fill="none" stroke="midnightblue" d="M493.22,-574.5C503.07,-574.5 513.36,-574.5 523.57,-574.5"/>
<polygon fill="midnightblue" stroke="midnightblue" points="523.74,-578 533.74,-574.5 523.74,-571 523.74,-578"/>
</g>
<!-- Node38 -->
<g id="node38" class="node">
<title>Node38</title>
<g id="a_node38"><a xlink:href="classAdvanceButtonDialog.html#ab72e06536fc36f403249d7f48a925a82" target="_top" xlink:title=" ">
<polygon fill="white" stroke="black" points="747,-602.5 747,-632.5 873,-632.5 873,-602.5 747,-602.5"/>
<text text-anchor="start" x="755" y="-620.5" font-family="Helvetica,sans-Serif" font-size="10.00">AdvanceButtonDialog</text>
<text text-anchor="middle" x="810" y="-609.5" font-family="Helvetica,sans-Serif" font-size="10.00">::connectButtonEvents</text>
</a>
</g>
</g>
<!-- Node37&#45;&gt;Node38 -->
<g id="edge45" class="edge">
<title>Node37&#45;&gt;Node38</title>
<path fill="none" stroke="midnightblue" d="M681.64,-621.36C699.55,-620.82 718.81,-620.23 736.8,-619.69"/>
<polygon fill="midnightblue" stroke="midnightblue" points="737.04,-623.18 746.93,-619.38 736.83,-616.19 737.04,-623.18"/>
</g>
<!-- Node38&#45;&gt;Node4 -->
<g id="edge47" class="edge">
<title>Node38&#45;&gt;Node4</title>
<path fill="none" stroke="midnightblue" d="M873.22,-603.88C892.26,-599.71 913.45,-595.07 933.42,-590.7"/>
<polygon fill="midnightblue" stroke="midnightblue" points="934.41,-594.07 943.43,-588.51 932.91,-587.23 934.41,-594.07"/>
</g>
<!-- Node39 -->
<g id="node39" class="node">
<title>Node39</title>
<g id="a_node39"><a xlink:href="classJoyButtonSlot.html#a86b4a25191351f28942511012a4e4e4a" target="_top" xlink:title=" ">
<polygon fill="white" stroke="black" points="1149.5,-642 1149.5,-661 1299.5,-661 1299.5,-642 1149.5,-642"/>
<text text-anchor="middle" x="1224.5" y="-649" font-family="Helvetica,sans-Serif" font-size="10.00">JoyButtonSlot::getSlotMode</text>
</a>
</g>
</g>
<!-- Node38&#45;&gt;Node39 -->
<g id="edge46" class="edge">
<title>Node38&#45;&gt;Node39</title>
<path fill="none" stroke="midnightblue" d="M873.2,-622.63C943.96,-628.46 1059.9,-638.02 1138.85,-644.52"/>
<polygon fill="midnightblue" stroke="midnightblue" points="1139,-648.05 1149.26,-645.38 1139.58,-641.07 1139,-648.05"/>
</g>
<!-- Node40&#45;&gt;Node4 -->
<g id="edge49" class="edge">
<title>Node40&#45;&gt;Node4</title>
<path fill="none" stroke="midnightblue" d="M686.43,-574.31C756.7,-574.14 861.12,-573.88 932.64,-573.7"/>
<polygon fill="midnightblue" stroke="midnightblue" points="932.95,-577.2 942.94,-573.67 932.93,-570.2 932.95,-577.2"/>
</g>
<!-- Node41 -->
<g id="node41" class="node">
<title>Node41</title>
<g id="a_node41"><a xlink:href="classJoyButton.html#a0750530dac3901ece7c78c19d15e0d54" target="_top" xlink:title=" ">
<polygon fill="white" stroke="black" points="745,-652 745,-671 875,-671 875,-652 745,-652"/>
<text text-anchor="middle" x="810" y="-659" font-family="Helvetica,sans-Serif" font-size="10.00">JoyButton::setUseTurbo</text>
</a>
</g>
</g>
<!-- Node40&#45;&gt;Node41 -->
<g id="edge50" class="edge">
<title>Node40&#45;&gt;Node41</title>
<path fill="none" stroke="midnightblue" d="M667.52,-589.51C674.01,-592.33 680.33,-595.64 686,-599.5 706.6,-613.53 700.68,-629.59 722,-642.5 726.16,-645.02 730.62,-647.21 735.23,-649.11"/>
<polygon fill="midnightblue" stroke="midnightblue" points="734.27,-652.48 744.87,-652.61 736.66,-645.9 734.27,-652.48"/>
</g>
<!-- Node42 -->
<g id="node42" class="node">
<title>Node42</title>
<g id="a_node42"><a xlink:href="classJoyButton.html#a6e3ee0e05fe5d243b142c5f22011c2e9" target="_top" xlink:title=" ">
<polygon fill="white" stroke="black" points="934,-689 934,-708 1092,-708 1092,-689 934,-689"/>
<text text-anchor="middle" x="1013" y="-696" font-family="Helvetica,sans-Serif" font-size="10.00">JoyButton::containsSequence</text>
</a>
</g>
</g>
<!-- Node41&#45;&gt;Node42 -->
<g id="edge51" class="edge">
<title>Node41&#45;&gt;Node42</title>
<path fill="none" stroke="midnightblue" d="M862.76,-671.03C889.39,-675.93 922.03,-681.94 949.99,-687.09"/>
<polygon fill="midnightblue" stroke="midnightblue" points="949.6,-690.57 960.06,-688.94 950.86,-683.69 949.6,-690.57"/>
</g>
<!-- Node44 -->
<g id="node44" class="node">
<title>Node44</title>
<g id="a_node44"><a xlink:href="classJoyButton.html#a42d517ef696229862b238c52c4ff345c" target="_top" xlink:title=" ">
<polygon fill="white" stroke="black" points="938.5,-651 938.5,-670 1087.5,-670 1087.5,-651 938.5,-651"/>
<text text-anchor="middle" x="1013" y="-658" font-family="Helvetica,sans-Serif" font-size="10.00">JoyButton::setTurboInterval</text>
</a>
</g>
</g>
<!-- Node41&#45;&gt;Node44 -->
<g id="edge54" class="edge">
<title>Node41&#45;&gt;Node44</title>
<path fill="none" stroke="midnightblue" d="M875.15,-654.84C891.96,-654.36 910.33,-654.16 928.01,-654.25"/>
<polygon fill="midnightblue" stroke="midnightblue" points="928.29,-657.75 938.32,-654.33 928.34,-650.75 928.29,-657.75"/>
</g>
<!-- Node42&#45;&gt;Node39 -->
<g id="edge53" class="edge">
<title>Node42&#45;&gt;Node39</title>
<path fill="none" stroke="midnightblue" d="M1056.4,-688.99C1089.37,-681.59 1135.3,-671.29 1170.67,-663.35"/>
<polygon fill="midnightblue" stroke="midnightblue" points="1171.82,-666.68 1180.81,-661.08 1170.28,-659.85 1171.82,-666.68"/>
</g>
<!-- Node43 -->
<g id="node43" class="node">
<title>Node43</title>
<g id="a_node43"><a xlink:href="classJoyButton.html#ae1d364dfa70f47fae3db99ffbcdea44b" target="_top" xlink:title=" ">
<polygon fill="white" stroke="black" points="1147.5,-689 1147.5,-708 1301.5,-708 1301.5,-689 1147.5,-689"/>
<text text-anchor="middle" x="1224.5" y="-696" font-family="Helvetica,sans-Serif" font-size="10.00">JoyButton::getAssignedSlots</text>
</a>
</g>
</g>
<!-- Node42&#45;&gt;Node43 -->
<g id="edge52" class="edge">
<title>Node42&#45;&gt;Node43</title>
<path fill="none" stroke="midnightblue" d="M1092.01,-698.5C1106.66,-698.5 1122.06,-698.5 1136.95,-698.5"/>
<polygon fill="midnightblue" stroke="midnightblue" points="1137.17,-702 1147.17,-698.5 1137.17,-695 1137.17,-702"/>
</g>
<!-- Node44&#45;&gt;Node41 -->
<g id="edge55" class="edge">
<title>Node44&#45;&gt;Node41</title>
<path fill="none" stroke="midnightblue" d="M938.32,-667.4C921,-667.77 902.55,-667.87 885.21,-667.67"/>
<polygon fill="midnightblue" stroke="midnightblue" points="885.2,-664.17 875.15,-667.52 885.1,-671.17 885.2,-664.17"/>
</g>
<!-- Node45&#45;&gt;Node3 -->
<g id="edge57" class="edge">
<title>Node45&#45;&gt;Node3</title>
<path fill="none" stroke="midnightblue" d="M322.37,-623.5C333.65,-623.5 345.37,-623.5 356.69,-623.5"/>
<polygon fill="midnightblue" stroke="midnightblue" points="356.96,-627 366.96,-623.5 356.96,-620 356.96,-627"/>
</g>
</g>
</svg>
