<?xml version="1.0" encoding="UTF-8" standalone="no"?>
<!DOCTYPE svg PUBLIC "-//W3C//DTD SVG 1.1//EN"
 "http://www.w3.org/Graphics/SVG/1.1/DTD/svg11.dtd">
<!-- Generated by graphviz version 2.43.0 (0)
 -->
<!-- Title: JoyButton::resetProperties Pages: 1 -->
<svg width="553pt" height="252pt"
 viewBox="0.00 0.00 553.00 252.00" xmlns="http://www.w3.org/2000/svg" xmlns:xlink="http://www.w3.org/1999/xlink">
<g id="graph0" class="graph" transform="scale(1 1) rotate(0) translate(4 248)">
<title>JoyButton::resetProperties</title>
<polygon fill="white" stroke="transparent" points="-4,4 -4,-248 549,-248 549,4 -4,4"/>
<!-- Node1 -->
<g id="node1" class="node">
<title>Node1</title>
<g id="a_node1"><a xlink:title=" ">
<polygon fill="#bfbfbf" stroke="black" points="0,-107 0,-126 144,-126 144,-107 0,-107"/>
<text text-anchor="middle" x="72" y="-114" font-family="Helvetica,sans-Serif" font-size="10.00">JoyButton::resetProperties</text>
</a>
</g>
</g>
<!-- Node2 -->
<g id="node2" class="node">
<title>Node2</title>
<g id="a_node2"><a xlink:href="classJoyButton.html#a04ee41d1e35acff0b5e30ccafffafd0e" target="_top" xlink:title=" ">
<polygon fill="white" stroke="black" points="180,-107 180,-126 337,-126 337,-107 180,-107"/>
<text text-anchor="middle" x="258.5" y="-114" font-family="Helvetica,sans-Serif" font-size="10.00">JoyButton::resetAllProperties</text>
</a>
</g>
</g>
<!-- Node1&#45;&gt;Node2 -->
<g id="edge1" class="edge">
<title>Node1&#45;&gt;Node2</title>
<path fill="none" stroke="midnightblue" d="M144.07,-116.5C152.46,-116.5 161.1,-116.5 169.68,-116.5"/>
<polygon fill="midnightblue" stroke="midnightblue" points="169.72,-120 179.72,-116.5 169.72,-113 169.72,-120"/>
</g>
<!-- Node3 -->
<g id="node3" class="node">
<title>Node3</title>
<g id="a_node3"><a xlink:href="classJoyButton.html#a6cbb7efc0329d7f86455f62b1957a644" target="_top" xlink:title="Returns the default mouse curve for this JoyButton type. Can be overwritten by subclasses.">
<polygon fill="white" stroke="black" points="382,-213.5 382,-243.5 536,-243.5 536,-213.5 382,-213.5"/>
<text text-anchor="start" x="390" y="-231.5" font-family="Helvetica,sans-Serif" font-size="10.00">JoyButton::getDefaultMouse</text>
<text text-anchor="middle" x="459" y="-220.5" font-family="Helvetica,sans-Serif" font-size="10.00">Curve</text>
</a>
</g>
</g>
<!-- Node2&#45;&gt;Node3 -->
<g id="edge2" class="edge">
<title>Node2&#45;&gt;Node3</title>
<path fill="none" stroke="midnightblue" d="M269.22,-126.21C287.79,-144.22 330.26,-182.93 373,-204.5 376.77,-206.4 380.72,-208.18 384.76,-209.82"/>
<polygon fill="midnightblue" stroke="midnightblue" points="383.72,-213.17 394.31,-213.44 386.2,-206.63 383.72,-213.17"/>
</g>
<!-- Node4 -->
<g id="node4" class="node">
<title>Node4</title>
<g id="a_node4"><a xlink:href="classJoyButton.html#a1b49d9ab85f0d5d128e2eca616747018" target="_top" xlink:title=" ">
<polygon fill="white" stroke="black" points="390.5,-164.5 390.5,-194.5 527.5,-194.5 527.5,-164.5 390.5,-164.5"/>
<text text-anchor="start" x="398.5" y="-182.5" font-family="Helvetica,sans-Serif" font-size="10.00">JoyButton::lockForWrited</text>
<text text-anchor="middle" x="459" y="-171.5" font-family="Helvetica,sans-Serif" font-size="10.00">String</text>
</a>
</g>
</g>
<!-- Node2&#45;&gt;Node4 -->
<g id="edge3" class="edge">
<title>Node2&#45;&gt;Node4</title>
<path fill="none" stroke="midnightblue" d="M286.93,-126C309.86,-133.87 343.46,-145.22 373,-154.5 380.43,-156.84 388.24,-159.22 396,-161.56"/>
<polygon fill="midnightblue" stroke="midnightblue" points="395.18,-164.96 405.76,-164.47 397.18,-158.25 395.18,-164.96"/>
</g>
<!-- Node5 -->
<g id="node5" class="node">
<title>Node5</title>
<g id="a_node5"><a xlink:href="classJoyButton.html#af8a98076a27dc74098b6a307c49702b8" target="_top" xlink:title=" ">
<polygon fill="white" stroke="black" points="389,-126 389,-145 529,-145 529,-126 389,-126"/>
<text text-anchor="middle" x="459" y="-133" font-family="Helvetica,sans-Serif" font-size="10.00">JoyButton::resetSlotsProp</text>
</a>
</g>
</g>
<!-- Node2&#45;&gt;Node5 -->
<g id="edge4" class="edge">
<title>Node2&#45;&gt;Node5</title>
<path fill="none" stroke="midnightblue" d="M337.1,-123.93C350.7,-125.23 364.88,-126.59 378.53,-127.89"/>
<polygon fill="midnightblue" stroke="midnightblue" points="378.56,-131.41 388.85,-128.88 379.23,-124.44 378.56,-131.41"/>
</g>
<!-- Node6 -->
<g id="node6" class="node">
<title>Node6</title>
<g id="a_node6"><a xlink:href="classJoyButton.html#a9ae35a773dd8085e8c810d4f739bcdcb" target="_top" xlink:title=" ">
<polygon fill="white" stroke="black" points="377,-88 377,-107 541,-107 541,-88 377,-88"/>
<text text-anchor="middle" x="459" y="-95" font-family="Helvetica,sans-Serif" font-size="10.00">JoyButton::restartAccelParams</text>
</a>
</g>
</g>
<!-- Node2&#45;&gt;Node6 -->
<g id="edge5" class="edge">
<title>Node2&#45;&gt;Node6</title>
<path fill="none" stroke="midnightblue" d="M337.1,-109.07C346.78,-108.15 356.76,-107.19 366.63,-106.25"/>
<polygon fill="midnightblue" stroke="midnightblue" points="367.23,-109.7 376.86,-105.27 366.57,-102.74 367.23,-109.7"/>
</g>
<!-- Node7 -->
<g id="node7" class="node">
<title>Node7</title>
<g id="a_node7"><a xlink:href="classJoyButton.html#a056b480fe5132bb36d65d22de0fe9934" target="_top" xlink:title=" ">
<polygon fill="white" stroke="black" points="373,-50 373,-69 545,-69 545,-50 373,-50"/>
<text text-anchor="middle" x="459" y="-57" font-family="Helvetica,sans-Serif" font-size="10.00">JoyButton::updateMouseParams</text>
</a>
</g>
</g>
<!-- Node2&#45;&gt;Node7 -->
<g id="edge6" class="edge">
<title>Node2&#45;&gt;Node7</title>
<path fill="none" stroke="midnightblue" d="M285.41,-106.97C308.26,-98.78 342.57,-86.97 373,-78.5 382.08,-75.97 391.78,-73.55 401.26,-71.33"/>
<polygon fill="midnightblue" stroke="midnightblue" points="402.05,-74.74 411.02,-69.09 400.49,-67.91 402.05,-74.74"/>
</g>
<!-- Node8 -->
<g id="node8" class="node">
<title>Node8</title>
<g id="a_node8"><a xlink:href="classJoyButton.html#a17144dd5f389044443f12f6e239d24ca" target="_top" xlink:title=" ">
<polygon fill="white" stroke="black" points="387.5,-0.5 387.5,-30.5 530.5,-30.5 530.5,-0.5 387.5,-0.5"/>
<text text-anchor="start" x="395.5" y="-18.5" font-family="Helvetica,sans-Serif" font-size="10.00">JoyButton::updatePending</text>
<text text-anchor="middle" x="459" y="-7.5" font-family="Helvetica,sans-Serif" font-size="10.00">Params</text>
</a>
</g>
</g>
<!-- Node2&#45;&gt;Node8 -->
<g id="edge7" class="edge">
<title>Node2&#45;&gt;Node8</title>
<path fill="none" stroke="midnightblue" d="M271.36,-106.76C291.24,-90.85 333.06,-59.21 373,-40.5 377.96,-38.18 383.19,-36.01 388.51,-34.01"/>
<polygon fill="midnightblue" stroke="midnightblue" points="389.9,-37.23 398.16,-30.59 387.56,-30.64 389.9,-37.23"/>
</g>
</g>
</svg>
