<?xml version="1.0" encoding="UTF-8" standalone="no"?>
<!DOCTYPE svg PUBLIC "-//W3C//DTD SVG 1.1//EN"
 "http://www.w3.org/Graphics/SVG/1.1/DTD/svg11.dtd">
<!-- Generated by graphviz version 2.43.0 (0)
 -->
<!-- Title: JoyAxis::getButtonsPresetMouseCurve Pages: 1 -->
<svg width="546pt" height="50pt"
 viewBox="0.00 0.00 546.00 50.00" xmlns="http://www.w3.org/2000/svg" xmlns:xlink="http://www.w3.org/1999/xlink">
<g id="graph0" class="graph" transform="scale(1 1) rotate(0) translate(4 46)">
<title>JoyAxis::getButtonsPresetMouseCurve</title>
<polygon fill="white" stroke="transparent" points="-4,4 -4,-46 542,-46 542,4 -4,4"/>
<!-- Node1 -->
<g id="node1" class="node">
<title>Node1</title>
<g id="a_node1"><a xlink:title=" ">
<polygon fill="#bfbfbf" stroke="black" points="395,-6 395,-36 538,-36 538,-6 395,-6"/>
<text text-anchor="start" x="403" y="-24" font-family="Helvetica,sans-Serif" font-size="10.00">JoyAxis::getButtonsPreset</text>
<text text-anchor="middle" x="466.5" y="-13" font-family="Helvetica,sans-Serif" font-size="10.00">MouseCurve</text>
</a>
</g>
</g>
<!-- Node2 -->
<g id="node2" class="node">
<title>Node2</title>
<g id="a_node2"><a xlink:href="classMouseAxisSettingsDialog.html#ad69278fb5d3b83e3aece88213a395eb1" target="_top" xlink:title=" ">
<polygon fill="white" stroke="black" points="183,-0.5 183,-41.5 359,-41.5 359,-0.5 183,-0.5"/>
<text text-anchor="start" x="191" y="-29.5" font-family="Helvetica,sans-Serif" font-size="10.00">MouseAxisSettingsDialog</text>
<text text-anchor="start" x="191" y="-18.5" font-family="Helvetica,sans-Serif" font-size="10.00">::updateAccelerationCurvePreset</text>
<text text-anchor="middle" x="271" y="-7.5" font-family="Helvetica,sans-Serif" font-size="10.00">ComboBox</text>
</a>
</g>
</g>
<!-- Node1&#45;&gt;Node2 -->
<g id="edge1" class="edge">
<title>Node1&#45;&gt;Node2</title>
<path fill="none" stroke="midnightblue" d="M384.69,-21C376.3,-21 367.74,-21 359.29,-21"/>
<polygon fill="midnightblue" stroke="midnightblue" points="384.82,-24.5 394.82,-21 384.82,-17.5 384.82,-24.5"/>
</g>
<!-- Node3 -->
<g id="node3" class="node">
<title>Node3</title>
<g id="a_node3"><a xlink:href="classMouseAxisSettingsDialog.html#a33546e4b608264ce6d2758678eb6d2e7" target="_top" xlink:title=" ">
<polygon fill="white" stroke="black" points="0,-6 0,-36 147,-36 147,-6 0,-6"/>
<text text-anchor="start" x="8" y="-24" font-family="Helvetica,sans-Serif" font-size="10.00">MouseAxisSettingsDialog</text>
<text text-anchor="middle" x="73.5" y="-13" font-family="Helvetica,sans-Serif" font-size="10.00">::MouseAxisSettingsDialog</text>
</a>
</g>
</g>
<!-- Node2&#45;&gt;Node3 -->
<g id="edge2" class="edge">
<title>Node2&#45;&gt;Node3</title>
<path fill="none" stroke="midnightblue" d="M172.74,-21C164.13,-21 155.52,-21 147.17,-21"/>
<polygon fill="midnightblue" stroke="midnightblue" points="172.83,-24.5 182.83,-21 172.83,-17.5 172.83,-24.5"/>
</g>
</g>
</svg>
