<?xml version="1.0" encoding="UTF-8" standalone="no"?>
<!DOCTYPE svg PUBLIC "-//W3C//DTD SVG 1.1//EN"
 "http://www.w3.org/Graphics/SVG/1.1/DTD/svg11.dtd">
<!-- Generated by graphviz version 2.43.0 (0)
 -->
<!-- Title: JoyAxis::getIndex Pages: 1 -->
<svg width="1704pt" height="421pt"
 viewBox="0.00 0.00 1704.00 421.00" xmlns="http://www.w3.org/2000/svg" xmlns:xlink="http://www.w3.org/1999/xlink">
<g id="graph0" class="graph" transform="scale(1 1) rotate(0) translate(4 417)">
<title>JoyAxis::getIndex</title>
<polygon fill="white" stroke="transparent" points="-4,4 -4,-417 1700,-417 1700,4 -4,4"/>
<!-- Node1 -->
<g id="node1" class="node">
<title>Node1</title>
<g id="a_node1"><a xlink:title=" ">
<polygon fill="#bfbfbf" stroke="black" points="1595,-192 1595,-211 1696,-211 1696,-192 1595,-192"/>
<text text-anchor="middle" x="1645.5" y="-199" font-family="Helvetica,sans-Serif" font-size="10.00">JoyAxis::getIndex</text>
</a>
</g>
</g>
<!-- Node2 -->
<g id="node2" class="node">
<title>Node2</title>
<g id="a_node2"><a xlink:href="classSetJoystick.html#aa90510371d0a6a4ae107b1d5b985b060" target="_top" xlink:title=" ">
<polygon fill="white" stroke="black" points="1404.5,-382.5 1404.5,-412.5 1546.5,-412.5 1546.5,-382.5 1404.5,-382.5"/>
<text text-anchor="start" x="1412.5" y="-400.5" font-family="Helvetica,sans-Serif" font-size="10.00">SetJoystick::propogateSet</text>
<text text-anchor="middle" x="1475.5" y="-389.5" font-family="Helvetica,sans-Serif" font-size="10.00">AxisActivated</text>
</a>
</g>
</g>
<!-- Node1&#45;&gt;Node2 -->
<g id="edge1" class="edge">
<title>Node1&#45;&gt;Node2</title>
<path fill="none" stroke="midnightblue" d="M1640.13,-221.58C1631.26,-257.49 1607.71,-332.78 1559,-373.5 1554.88,-376.94 1550.29,-379.89 1545.44,-382.42"/>
<polygon fill="midnightblue" stroke="midnightblue" points="1643.64,-221.93 1642.51,-211.39 1636.83,-220.33 1643.64,-221.93"/>
</g>
<!-- Node19 -->
<g id="node19" class="node">
<title>Node19</title>
<g id="a_node19"><a xlink:href="classSetJoystick.html#a57e40bcd1589c61ab7084f9e43dcd9ab" target="_top" xlink:title=" ">
<polygon fill="white" stroke="black" points="1404.5,-333.5 1404.5,-363.5 1546.5,-363.5 1546.5,-333.5 1404.5,-333.5"/>
<text text-anchor="start" x="1412.5" y="-351.5" font-family="Helvetica,sans-Serif" font-size="10.00">SetJoystick::propogateSet</text>
<text text-anchor="middle" x="1475.5" y="-340.5" font-family="Helvetica,sans-Serif" font-size="10.00">AxisButtonClick</text>
</a>
</g>
</g>
<!-- Node1&#45;&gt;Node19 -->
<g id="edge19" class="edge">
<title>Node1&#45;&gt;Node19</title>
<path fill="none" stroke="midnightblue" d="M1636.42,-220.36C1623.84,-247.47 1597.01,-297.18 1559,-324.5 1554.28,-327.9 1549.08,-330.81 1543.66,-333.32"/>
<polygon fill="midnightblue" stroke="midnightblue" points="1639.64,-221.73 1640.54,-211.17 1633.25,-218.87 1639.64,-221.73"/>
</g>
<!-- Node20 -->
<g id="node20" class="node">
<title>Node20</title>
<g id="a_node20"><a xlink:href="classSetJoystick.html#a559203c2db1839239a1a684e717ef898" target="_top" xlink:title=" ">
<polygon fill="white" stroke="black" points="1404.5,-284.5 1404.5,-314.5 1546.5,-314.5 1546.5,-284.5 1404.5,-284.5"/>
<text text-anchor="start" x="1412.5" y="-302.5" font-family="Helvetica,sans-Serif" font-size="10.00">SetJoystick::propogateSet</text>
<text text-anchor="middle" x="1475.5" y="-291.5" font-family="Helvetica,sans-Serif" font-size="10.00">AxisButtonNameChange</text>
</a>
</g>
</g>
<!-- Node1&#45;&gt;Node20 -->
<g id="edge21" class="edge">
<title>Node1&#45;&gt;Node20</title>
<path fill="none" stroke="midnightblue" d="M1629.04,-218.63C1613.04,-235.38 1586.56,-260.5 1559,-275.5 1552.71,-278.92 1545.88,-281.9 1538.93,-284.49"/>
<polygon fill="midnightblue" stroke="midnightblue" points="1631.75,-220.86 1636.01,-211.16 1626.63,-216.08 1631.75,-220.86"/>
</g>
<!-- Node21 -->
<g id="node21" class="node">
<title>Node21</title>
<g id="a_node21"><a xlink:href="classSetJoystick.html#af056c3429ac49876a0510f92923d0d13" target="_top" xlink:title=" ">
<polygon fill="white" stroke="black" points="1404.5,-235.5 1404.5,-265.5 1546.5,-265.5 1546.5,-235.5 1404.5,-235.5"/>
<text text-anchor="start" x="1412.5" y="-253.5" font-family="Helvetica,sans-Serif" font-size="10.00">SetJoystick::propogateSet</text>
<text text-anchor="middle" x="1475.5" y="-242.5" font-family="Helvetica,sans-Serif" font-size="10.00">AxisButtonRelease</text>
</a>
</g>
</g>
<!-- Node1&#45;&gt;Node21 -->
<g id="edge23" class="edge">
<title>Node1&#45;&gt;Node21</title>
<path fill="none" stroke="midnightblue" d="M1602.3,-213.85C1588.5,-217.89 1573.1,-222.39 1559,-226.5 1549.12,-229.38 1538.57,-232.45 1528.43,-235.4"/>
<polygon fill="midnightblue" stroke="midnightblue" points="1603.41,-217.17 1612.02,-211.01 1601.44,-210.46 1603.41,-217.17"/>
</g>
<!-- Node22 -->
<g id="node22" class="node">
<title>Node22</title>
<g id="a_node22"><a xlink:href="classSetJoystick.html#a2746cd7adb6a4ead514b72c7c0437d5e" target="_top" xlink:title=" ">
<polygon fill="white" stroke="black" points="1404.5,-186.5 1404.5,-216.5 1546.5,-216.5 1546.5,-186.5 1404.5,-186.5"/>
<text text-anchor="start" x="1412.5" y="-204.5" font-family="Helvetica,sans-Serif" font-size="10.00">SetJoystick::propogateSet</text>
<text text-anchor="middle" x="1475.5" y="-193.5" font-family="Helvetica,sans-Serif" font-size="10.00">AxisNameChange</text>
</a>
</g>
</g>
<!-- Node1&#45;&gt;Node22 -->
<g id="edge25" class="edge">
<title>Node1&#45;&gt;Node22</title>
<path fill="none" stroke="midnightblue" d="M1584.49,-201.5C1572.27,-201.5 1559.31,-201.5 1546.78,-201.5"/>
<polygon fill="midnightblue" stroke="midnightblue" points="1584.55,-205 1594.55,-201.5 1584.55,-198 1584.55,-205"/>
</g>
<!-- Node23 -->
<g id="node23" class="node">
<title>Node23</title>
<g id="a_node23"><a xlink:href="classSetJoystick.html#a707a2c73b9102a8346ad8f2fb401d48f" target="_top" xlink:title=" ">
<polygon fill="white" stroke="black" points="1404.5,-137.5 1404.5,-167.5 1546.5,-167.5 1546.5,-137.5 1404.5,-137.5"/>
<text text-anchor="start" x="1412.5" y="-155.5" font-family="Helvetica,sans-Serif" font-size="10.00">SetJoystick::propogateSet</text>
<text text-anchor="middle" x="1475.5" y="-144.5" font-family="Helvetica,sans-Serif" font-size="10.00">AxisReleased</text>
</a>
</g>
</g>
<!-- Node1&#45;&gt;Node23 -->
<g id="edge27" class="edge">
<title>Node1&#45;&gt;Node23</title>
<path fill="none" stroke="midnightblue" d="M1602.1,-189.13C1579.61,-182.57 1551.79,-174.46 1528.06,-167.54"/>
<polygon fill="midnightblue" stroke="midnightblue" points="1601.13,-192.5 1611.71,-191.94 1603.09,-185.78 1601.13,-192.5"/>
</g>
<!-- Node24 -->
<g id="node24" class="node">
<title>Node24</title>
<g id="a_node24"><a xlink:href="classJoyAxisXml.html#a722916013ad49036b2ad38ab8ec30484" target="_top" xlink:title=" ">
<polygon fill="white" stroke="black" points="1398,-99 1398,-118 1553,-118 1553,-99 1398,-99"/>
<text text-anchor="middle" x="1475.5" y="-106" font-family="Helvetica,sans-Serif" font-size="10.00">JoyAxisXml::readMainConfig</text>
</a>
</g>
</g>
<!-- Node1&#45;&gt;Node24 -->
<g id="edge29" class="edge">
<title>Node1&#45;&gt;Node24</title>
<path fill="none" stroke="midnightblue" d="M1629.13,-184.35C1613.2,-167.62 1586.78,-142.69 1559,-128.5 1550.47,-124.14 1540.95,-120.71 1531.5,-118.01"/>
<polygon fill="midnightblue" stroke="midnightblue" points="1626.7,-186.87 1636.07,-191.82 1631.83,-182.11 1626.7,-186.87"/>
</g>
<!-- Node29 -->
<g id="node29" class="node">
<title>Node29</title>
<g id="a_node29"><a xlink:href="classJoyAxisButton.html#a739f27b3f9c6714869cade651c62aa00" target="_top" xlink:title=" ">
<polygon fill="white" stroke="black" points="1404,-49.5 1404,-79.5 1547,-79.5 1547,-49.5 1404,-49.5"/>
<text text-anchor="start" x="1412" y="-67.5" font-family="Helvetica,sans-Serif" font-size="10.00">JoyAxisButton::setChange</text>
<text text-anchor="middle" x="1475.5" y="-56.5" font-family="Helvetica,sans-Serif" font-size="10.00">SetCondition</text>
</a>
</g>
</g>
<!-- Node1&#45;&gt;Node29 -->
<g id="edge35" class="edge">
<title>Node1&#45;&gt;Node29</title>
<path fill="none" stroke="midnightblue" d="M1634.98,-182.62C1621.45,-157.67 1594.33,-114.01 1559,-89.5 1553.47,-85.66 1547.33,-82.4 1540.97,-79.63"/>
<polygon fill="midnightblue" stroke="midnightblue" points="1632.04,-184.54 1639.79,-191.77 1638.24,-181.29 1632.04,-184.54"/>
</g>
<!-- Node34 -->
<g id="node34" class="node">
<title>Node34</title>
<g id="a_node34"><a xlink:href="classGameControllerMappingDialog.html#a8a3d4193180a3392dda025775aed26d3" target="_top" xlink:title=" ">
<polygon fill="white" stroke="black" points="1392,-0.5 1392,-30.5 1559,-30.5 1559,-0.5 1392,-0.5"/>
<text text-anchor="start" x="1400" y="-18.5" font-family="Helvetica,sans-Serif" font-size="10.00">GameControllerMappingDialog</text>
<text text-anchor="middle" x="1475.5" y="-7.5" font-family="Helvetica,sans-Serif" font-size="10.00">::updateLastAxisLineEdit</text>
</a>
</g>
</g>
<!-- Node1&#45;&gt;Node34 -->
<g id="edge40" class="edge">
<title>Node1&#45;&gt;Node34</title>
<path fill="none" stroke="midnightblue" d="M1639.64,-182.09C1630.11,-148.05 1605.7,-77.59 1559,-39.5 1554.84,-36.11 1550.22,-33.19 1545.34,-30.69"/>
<polygon fill="midnightblue" stroke="midnightblue" points="1636.27,-183.01 1642.22,-191.78 1643.03,-181.21 1636.27,-183.01"/>
</g>
<!-- Node3 -->
<g id="node3" class="node">
<title>Node3</title>
<g id="a_node3"><a xlink:href="classSetJoystick.html#a75a8851568f88ac1966ae2ba0704ae42" target="_top" xlink:title=" ">
<polygon fill="white" stroke="black" points="1165,-241 1165,-260 1356,-260 1356,-241 1165,-241"/>
<text text-anchor="middle" x="1260.5" y="-248" font-family="Helvetica,sans-Serif" font-size="10.00">SetJoystick::enableAxisConnections</text>
</a>
</g>
</g>
<!-- Node2&#45;&gt;Node3 -->
<g id="edge2" class="edge">
<title>Node2&#45;&gt;Node3</title>
<path fill="none" stroke="midnightblue" d="M1401.58,-378.42C1398.28,-376.89 1395.07,-375.26 1392,-373.5 1337.14,-342.13 1287.22,-283.17 1268.91,-260.1"/>
<polygon fill="midnightblue" stroke="midnightblue" points="1400.48,-381.75 1411.06,-382.42 1403.21,-375.31 1400.48,-381.75"/>
</g>
<!-- Node4 -->
<g id="node4" class="node">
<title>Node4</title>
<g id="a_node4"><a xlink:href="classGameControllerSet.html#abd666978fe84da99c8338e8020051510" target="_top" xlink:title=" ">
<polygon fill="white" stroke="black" points="976,-191.5 976,-221.5 1092,-221.5 1092,-191.5 976,-191.5"/>
<text text-anchor="start" x="984" y="-209.5" font-family="Helvetica,sans-Serif" font-size="10.00">GameControllerSet::</text>
<text text-anchor="middle" x="1034" y="-198.5" font-family="Helvetica,sans-Serif" font-size="10.00">refreshAxes</text>
</a>
</g>
</g>
<!-- Node3&#45;&gt;Node4 -->
<g id="edge3" class="edge">
<title>Node3&#45;&gt;Node4</title>
<path fill="none" stroke="midnightblue" d="M1200.69,-238.97C1167.25,-232.42 1125.55,-224.25 1092.35,-217.74"/>
<polygon fill="midnightblue" stroke="midnightblue" points="1200.3,-242.46 1210.79,-240.95 1201.65,-235.59 1200.3,-242.46"/>
</g>
<!-- Node5 -->
<g id="node5" class="node">
<title>Node5</title>
<g id="a_node5"><a xlink:href="classSetJoystick.html#af8d7d16a13702ae29b6590db35801d14" target="_top" xlink:title=" ">
<polygon fill="white" stroke="black" points="967,-241 967,-260 1101,-260 1101,-241 967,-241"/>
<text text-anchor="middle" x="1034" y="-248" font-family="Helvetica,sans-Serif" font-size="10.00">SetJoystick::refreshAxes</text>
</a>
</g>
</g>
<!-- Node3&#45;&gt;Node5 -->
<g id="edge4" class="edge">
<title>Node3&#45;&gt;Node5</title>
<path fill="none" stroke="midnightblue" d="M1154.84,-250.5C1136.57,-250.5 1118.04,-250.5 1101.18,-250.5"/>
<polygon fill="midnightblue" stroke="midnightblue" points="1154.94,-254 1164.94,-250.5 1154.94,-247 1154.94,-254"/>
</g>
<!-- Node6 -->
<g id="node6" class="node">
<title>Node6</title>
<g id="a_node6"><a xlink:href="classSetJoystick.html#adc322b55002b149c9a7432d1008b8537" target="_top" xlink:title="Re&#45;enumerates inputs from the associated device and resets all mappings in this set.">
<polygon fill="white" stroke="black" points="764,-241 764,-260 865,-260 865,-241 764,-241"/>
<text text-anchor="middle" x="814.5" y="-248" font-family="Helvetica,sans-Serif" font-size="10.00">SetJoystick::reset</text>
</a>
</g>
</g>
<!-- Node5&#45;&gt;Node6 -->
<g id="edge5" class="edge">
<title>Node5&#45;&gt;Node6</title>
<path fill="none" stroke="midnightblue" d="M956.71,-250.5C926.31,-250.5 892.18,-250.5 865.1,-250.5"/>
<polygon fill="midnightblue" stroke="midnightblue" points="956.86,-254 966.86,-250.5 956.86,-247 956.86,-254"/>
</g>
<!-- Node7 -->
<g id="node7" class="node">
<title>Node7</title>
<g id="a_node7"><a xlink:href="classInputDevice.html#af7b290c37a1bcae1fbd0f0274d6cf646" target="_top" xlink:title=" ">
<polygon fill="white" stroke="black" points="571.5,-240 571.5,-259 677.5,-259 677.5,-240 571.5,-240"/>
<text text-anchor="middle" x="624.5" y="-247" font-family="Helvetica,sans-Serif" font-size="10.00">InputDevice::reset</text>
</a>
</g>
</g>
<!-- Node6&#45;&gt;Node7 -->
<g id="edge6" class="edge">
<title>Node6&#45;&gt;Node7</title>
<path fill="none" stroke="midnightblue" d="M753.4,-250.18C729.01,-250.05 701.1,-249.9 677.59,-249.78"/>
<polygon fill="midnightblue" stroke="midnightblue" points="753.59,-253.68 763.61,-250.23 753.63,-246.68 753.59,-253.68"/>
</g>
<!-- Node15 -->
<g id="node15" class="node">
<title>Node15</title>
<g id="a_node15"><a xlink:href="classGameControllerSet.html#a40b9c9ac22d6fe71c15380dcbca7eb80" target="_top" xlink:title=" ">
<polygon fill="white" stroke="black" points="566.5,-190.5 566.5,-220.5 682.5,-220.5 682.5,-190.5 566.5,-190.5"/>
<text text-anchor="start" x="574.5" y="-208.5" font-family="Helvetica,sans-Serif" font-size="10.00">GameControllerSet::</text>
<text text-anchor="middle" x="624.5" y="-197.5" font-family="Helvetica,sans-Serif" font-size="10.00">resetSticks</text>
</a>
</g>
</g>
<!-- Node6&#45;&gt;Node15 -->
<g id="edge15" class="edge">
<title>Node6&#45;&gt;Node15</title>
<path fill="none" stroke="midnightblue" d="M763.68,-238.58C738.82,-232.62 708.61,-225.39 682.79,-219.21"/>
<polygon fill="midnightblue" stroke="midnightblue" points="763.09,-242.03 773.63,-240.96 764.72,-235.22 763.09,-242.03"/>
</g>
<!-- Node18 -->
<g id="node18" class="node">
<title>Node18</title>
<g id="a_node18"><a xlink:href="classSetJoystick.html#ab9d47383844cb2c08581352a6c02bdab" target="_top" xlink:title=" ">
<polygon fill="white" stroke="black" points="559,-278 559,-297 690,-297 690,-278 559,-278"/>
<text text-anchor="middle" x="624.5" y="-285" font-family="Helvetica,sans-Serif" font-size="10.00">SetJoystick::SetJoystick</text>
</a>
</g>
</g>
<!-- Node6&#45;&gt;Node18 -->
<g id="edge18" class="edge">
<title>Node6&#45;&gt;Node18</title>
<path fill="none" stroke="midnightblue" d="M754.99,-262.02C729,-267.13 698.78,-273.08 674.08,-277.94"/>
<polygon fill="midnightblue" stroke="midnightblue" points="755.95,-265.39 765.09,-260.03 754.6,-258.53 755.95,-265.39"/>
</g>
<!-- Node8 -->
<g id="node8" class="node">
<title>Node8</title>
<g id="a_node8"><a xlink:href="classInputDaemon.html#a70fa1dbeac61db6cc29a96cdc57a4518" target="_top" xlink:title=" ">
<polygon fill="white" stroke="black" points="362,-240 362,-259 523,-259 523,-240 362,-240"/>
<text text-anchor="middle" x="442.5" y="-247" font-family="Helvetica,sans-Serif" font-size="10.00">InputDaemon::refreshJoystick</text>
</a>
</g>
</g>
<!-- Node7&#45;&gt;Node8 -->
<g id="edge7" class="edge">
<title>Node7&#45;&gt;Node8</title>
<path fill="none" stroke="midnightblue" d="M561.33,-249.5C549.06,-249.5 536.02,-249.5 523.26,-249.5"/>
<polygon fill="midnightblue" stroke="midnightblue" points="561.44,-253 571.44,-249.5 561.44,-246 561.44,-253"/>
</g>
<!-- Node9 -->
<g id="node9" class="node">
<title>Node9</title>
<g id="a_node9"><a xlink:href="classInputDevice.html#a767b4db5d307c9d851affed3c7e23a30" target="_top" xlink:title="Obtain current joystick element values, create new SetJoystick objects, and then transfer most recent...">
<polygon fill="white" stroke="black" points="369,-278 369,-297 516,-297 516,-278 369,-278"/>
<text text-anchor="middle" x="442.5" y="-285" font-family="Helvetica,sans-Serif" font-size="10.00">InputDevice::transferReset</text>
</a>
</g>
</g>
<!-- Node7&#45;&gt;Node9 -->
<g id="edge8" class="edge">
<title>Node7&#45;&gt;Node9</title>
<path fill="none" stroke="midnightblue" d="M568.17,-261.18C542.64,-266.57 512.72,-272.89 488.59,-277.98"/>
<polygon fill="midnightblue" stroke="midnightblue" points="569.02,-264.58 578.08,-259.09 567.57,-257.73 569.02,-264.58"/>
</g>
<!-- Node10 -->
<g id="node10" class="node">
<title>Node10</title>
<g id="a_node10"><a xlink:href="classInputDeviceXml.html#a847bf9ed17b554bf87d513a1aebdcb64" target="_top" xlink:title="Deserializes the given XML stream into an InputDevice object.">
<polygon fill="white" stroke="black" points="173,-278 173,-297 326,-297 326,-278 173,-278"/>
<text text-anchor="middle" x="249.5" y="-285" font-family="Helvetica,sans-Serif" font-size="10.00">InputDeviceXml::readConfig</text>
</a>
</g>
</g>
<!-- Node9&#45;&gt;Node10 -->
<g id="edge9" class="edge">
<title>Node9&#45;&gt;Node10</title>
<path fill="none" stroke="midnightblue" d="M358.53,-287.5C347.79,-287.5 336.84,-287.5 326.22,-287.5"/>
<polygon fill="midnightblue" stroke="midnightblue" points="358.75,-291 368.75,-287.5 358.75,-284 358.75,-291"/>
</g>
<!-- Node11 -->
<g id="node11" class="node">
<title>Node11</title>
<g id="a_node11"><a xlink:href="classGameControllerXml.html#a7e47256cae0d3815419bc254413777d1" target="_top" xlink:title="Deserializes the given XML stream into a GameController object.">
<polygon fill="white" stroke="black" points="9,-212.5 9,-242.5 128,-242.5 128,-212.5 9,-212.5"/>
<text text-anchor="start" x="17" y="-230.5" font-family="Helvetica,sans-Serif" font-size="10.00">GameControllerXml::</text>
<text text-anchor="middle" x="68.5" y="-219.5" font-family="Helvetica,sans-Serif" font-size="10.00">readConfig</text>
</a>
</g>
</g>
<!-- Node9&#45;&gt;Node11 -->
<g id="edge10" class="edge">
<title>Node9&#45;&gt;Node11</title>
<path fill="none" stroke="midnightblue" d="M373.78,-276.31C358.1,-273.73 341.47,-271.01 326,-268.5 258.11,-257.49 180.09,-245.05 128.09,-236.79"/>
<polygon fill="midnightblue" stroke="midnightblue" points="373.5,-279.81 383.93,-277.98 374.63,-272.9 373.5,-279.81"/>
</g>
<!-- Node12 -->
<g id="node12" class="node">
<title>Node12</title>
<g id="a_node12"><a xlink:href="classGameControllerXml.html#aaa5257d4c6fe13f1d5fc51981e247c25" target="_top" xlink:title="Reads the XML tree from a &quot;joystick&quot; tag.">
<polygon fill="white" stroke="black" points="190,-190.5 190,-220.5 309,-220.5 309,-190.5 190,-190.5"/>
<text text-anchor="start" x="198" y="-208.5" font-family="Helvetica,sans-Serif" font-size="10.00">GameControllerXml::</text>
<text text-anchor="middle" x="249.5" y="-197.5" font-family="Helvetica,sans-Serif" font-size="10.00">readJoystickConfig</text>
</a>
</g>
</g>
<!-- Node9&#45;&gt;Node12 -->
<g id="edge11" class="edge">
<title>Node9&#45;&gt;Node12</title>
<path fill="none" stroke="midnightblue" d="M375.63,-274.59C370.91,-272.81 366.32,-270.79 362,-268.5 342.83,-258.32 344.39,-247.03 326,-235.5 316.8,-229.73 306.3,-224.72 296.12,-220.53"/>
<polygon fill="midnightblue" stroke="midnightblue" points="374.84,-278.02 385.44,-277.91 377.09,-271.39 374.84,-278.02"/>
</g>
<!-- Node13 -->
<g id="node13" class="node">
<title>Node13</title>
<g id="a_node13"><a xlink:href="classJoyTabWidgetHelper.html#aef94ae0812f28f43eb891ddc210c341e" target="_top" xlink:title=" ">
<polygon fill="white" stroke="black" points="192,-316.5 192,-346.5 307,-346.5 307,-316.5 192,-316.5"/>
<text text-anchor="start" x="200" y="-334.5" font-family="Helvetica,sans-Serif" font-size="10.00">JoyTabWidgetHelper</text>
<text text-anchor="middle" x="249.5" y="-323.5" font-family="Helvetica,sans-Serif" font-size="10.00">::reInitDevice</text>
</a>
</g>
</g>
<!-- Node9&#45;&gt;Node13 -->
<g id="edge13" class="edge">
<title>Node9&#45;&gt;Node13</title>
<path fill="none" stroke="midnightblue" d="M390.15,-299.33C364.51,-305.24 333.41,-312.4 307.08,-318.47"/>
<polygon fill="midnightblue" stroke="midnightblue" points="391.1,-302.7 400.06,-297.05 389.53,-295.88 391.1,-302.7"/>
</g>
<!-- Node12&#45;&gt;Node11 -->
<g id="edge12" class="edge">
<title>Node12&#45;&gt;Node11</title>
<path fill="none" stroke="midnightblue" d="M179.51,-213.98C162.59,-216.06 144.63,-218.27 128.24,-220.28"/>
<polygon fill="midnightblue" stroke="midnightblue" points="180.39,-217.4 189.89,-212.7 179.54,-210.45 180.39,-217.4"/>
</g>
<!-- Node14 -->
<g id="node14" class="node">
<title>Node14</title>
<g id="a_node14"><a xlink:href="classJoyTabWidgetHelper.html#acc5d7d51e925f84f9aa2936ce267f843" target="_top" xlink:title=" ">
<polygon fill="white" stroke="black" points="0,-316.5 0,-346.5 137,-346.5 137,-316.5 0,-316.5"/>
<text text-anchor="start" x="8" y="-334.5" font-family="Helvetica,sans-Serif" font-size="10.00">JoyTabWidgetHelper</text>
<text text-anchor="middle" x="68.5" y="-323.5" font-family="Helvetica,sans-Serif" font-size="10.00">::reInitDeviceWithRevert</text>
</a>
</g>
</g>
<!-- Node13&#45;&gt;Node14 -->
<g id="edge14" class="edge">
<title>Node13&#45;&gt;Node14</title>
<path fill="none" stroke="midnightblue" d="M181.46,-331.5C166.95,-331.5 151.58,-331.5 137.04,-331.5"/>
<polygon fill="midnightblue" stroke="midnightblue" points="181.86,-335 191.86,-331.5 181.86,-328 181.86,-335"/>
</g>
<!-- Node16 -->
<g id="node16" class="node">
<title>Node16</title>
<g id="a_node16"><a xlink:href="classGameControllerSet.html#a9d686fa2df459f7d157d60e05707f712" target="_top" xlink:title=" ">
<polygon fill="white" stroke="black" points="384.5,-141.5 384.5,-171.5 500.5,-171.5 500.5,-141.5 384.5,-141.5"/>
<text text-anchor="start" x="392.5" y="-159.5" font-family="Helvetica,sans-Serif" font-size="10.00">GameControllerSet::</text>
<text text-anchor="middle" x="442.5" y="-148.5" font-family="Helvetica,sans-Serif" font-size="10.00">GameControllerSet</text>
</a>
</g>
</g>
<!-- Node15&#45;&gt;Node16 -->
<g id="edge16" class="edge">
<title>Node15&#45;&gt;Node16</title>
<path fill="none" stroke="midnightblue" d="M558.3,-187.75C538.79,-182.44 517.6,-176.67 498.79,-171.55"/>
<polygon fill="midnightblue" stroke="midnightblue" points="557.46,-191.15 568.03,-190.4 559.3,-184.39 557.46,-191.15"/>
</g>
<!-- Node17 -->
<g id="node17" class="node">
<title>Node17</title>
<g id="a_node17"><a xlink:href="classGameControllerSet.html#a69d798af242a07017bc0f2e2d0d8a830" target="_top" xlink:title=" ">
<polygon fill="white" stroke="black" points="384.5,-190.5 384.5,-220.5 500.5,-220.5 500.5,-190.5 384.5,-190.5"/>
<text text-anchor="start" x="392.5" y="-208.5" font-family="Helvetica,sans-Serif" font-size="10.00">GameControllerSet::</text>
<text text-anchor="middle" x="442.5" y="-197.5" font-family="Helvetica,sans-Serif" font-size="10.00">reset</text>
</a>
</g>
</g>
<!-- Node15&#45;&gt;Node17 -->
<g id="edge17" class="edge">
<title>Node15&#45;&gt;Node17</title>
<path fill="none" stroke="midnightblue" d="M555.83,-205.5C537.68,-205.5 518.23,-205.5 500.71,-205.5"/>
<polygon fill="midnightblue" stroke="midnightblue" points="556.05,-209 566.05,-205.5 556.05,-202 556.05,-209"/>
</g>
<!-- Node19&#45;&gt;Node3 -->
<g id="edge20" class="edge">
<title>Node19&#45;&gt;Node3</title>
<path fill="none" stroke="midnightblue" d="M1406.57,-330.13C1401.59,-328.36 1396.69,-326.48 1392,-324.5 1347.61,-305.76 1299.23,-275.46 1275.8,-260.09"/>
<polygon fill="midnightblue" stroke="midnightblue" points="1405.61,-333.5 1416.21,-333.39 1407.86,-326.87 1405.61,-333.5"/>
</g>
<!-- Node20&#45;&gt;Node3 -->
<g id="edge22" class="edge">
<title>Node20&#45;&gt;Node3</title>
<path fill="none" stroke="midnightblue" d="M1399.25,-282.19C1366.86,-274.74 1330.25,-266.32 1302.92,-260.03"/>
<polygon fill="midnightblue" stroke="midnightblue" points="1398.62,-285.63 1409.15,-284.47 1400.18,-278.81 1398.62,-285.63"/>
</g>
<!-- Node21&#45;&gt;Node3 -->
<g id="edge24" class="edge">
<title>Node21&#45;&gt;Node3</title>
<path fill="none" stroke="midnightblue" d="M1394.21,-250.5C1381.84,-250.5 1368.96,-250.5 1356.32,-250.5"/>
<polygon fill="midnightblue" stroke="midnightblue" points="1394.46,-254 1404.46,-250.5 1394.46,-247 1394.46,-254"/>
</g>
<!-- Node22&#45;&gt;Node3 -->
<g id="edge26" class="edge">
<title>Node22&#45;&gt;Node3</title>
<path fill="none" stroke="midnightblue" d="M1399.25,-218.81C1366.86,-226.26 1330.25,-234.68 1302.92,-240.97"/>
<polygon fill="midnightblue" stroke="midnightblue" points="1400.18,-222.19 1409.15,-216.53 1398.62,-215.37 1400.18,-222.19"/>
</g>
<!-- Node23&#45;&gt;Node3 -->
<g id="edge28" class="edge">
<title>Node23&#45;&gt;Node3</title>
<path fill="none" stroke="midnightblue" d="M1409.05,-170.9C1403.23,-172.97 1397.47,-175.17 1392,-177.5 1348.04,-196.19 1299.86,-225.73 1276.23,-240.86"/>
<polygon fill="midnightblue" stroke="midnightblue" points="1410.54,-174.09 1418.88,-167.55 1408.29,-167.46 1410.54,-174.09"/>
</g>
<!-- Node25 -->
<g id="node25" class="node">
<title>Node25</title>
<g id="a_node25"><a xlink:href="classJoyAxisXml.html#abfcf483748d22f52a9f76d2bf23e9a3d" target="_top" xlink:title=" ">
<polygon fill="white" stroke="black" points="1195,-146 1195,-165 1326,-165 1326,-146 1195,-146"/>
<text text-anchor="middle" x="1260.5" y="-153" font-family="Helvetica,sans-Serif" font-size="10.00">JoyAxisXml::readConfig</text>
</a>
</g>
</g>
<!-- Node24&#45;&gt;Node25 -->
<g id="edge30" class="edge">
<title>Node24&#45;&gt;Node25</title>
<path fill="none" stroke="midnightblue" d="M1425.79,-120.4C1404.41,-125.52 1379,-131.47 1356,-136.5 1341.29,-139.72 1325.24,-143.02 1310.61,-145.95"/>
<polygon fill="midnightblue" stroke="midnightblue" points="1426.71,-123.78 1435.61,-118.04 1425.07,-116.97 1426.71,-123.78"/>
</g>
<!-- Node27 -->
<g id="node27" class="node">
<title>Node27</title>
<g id="a_node27"><a xlink:href="classGameControllerTriggerXml.html#a4578ad54daf8a24231e8b0e4e09f1587" target="_top" xlink:title=" ">
<polygon fill="white" stroke="black" points="1187.5,-96.5 1187.5,-126.5 1333.5,-126.5 1333.5,-96.5 1187.5,-96.5"/>
<text text-anchor="start" x="1195.5" y="-114.5" font-family="Helvetica,sans-Serif" font-size="10.00">GameControllerTriggerXml</text>
<text text-anchor="middle" x="1260.5" y="-103.5" font-family="Helvetica,sans-Serif" font-size="10.00">::readJoystickConfig</text>
</a>
</g>
</g>
<!-- Node24&#45;&gt;Node27 -->
<g id="edge32" class="edge">
<title>Node24&#45;&gt;Node27</title>
<path fill="none" stroke="midnightblue" d="M1387.7,-109.72C1369.7,-109.98 1350.92,-110.24 1333.51,-110.49"/>
<polygon fill="midnightblue" stroke="midnightblue" points="1387.95,-113.22 1397.9,-109.58 1387.85,-106.22 1387.95,-113.22"/>
</g>
<!-- Node26 -->
<g id="node26" class="node">
<title>Node26</title>
<g id="a_node26"><a xlink:href="classSetJoystickXml.html#aa95423a01fab878cbc69bffb7f6121f3" target="_top" xlink:title="Deserializes the given XML stream into a SetJoystick object.">
<polygon fill="white" stroke="black" points="959.5,-146 959.5,-165 1108.5,-165 1108.5,-146 959.5,-146"/>
<text text-anchor="middle" x="1034" y="-153" font-family="Helvetica,sans-Serif" font-size="10.00">SetJoystickXml::readConfig</text>
</a>
</g>
</g>
<!-- Node25&#45;&gt;Node26 -->
<g id="edge31" class="edge">
<title>Node25&#45;&gt;Node26</title>
<path fill="none" stroke="midnightblue" d="M1184.57,-155.5C1160.12,-155.5 1133.01,-155.5 1108.66,-155.5"/>
<polygon fill="midnightblue" stroke="midnightblue" points="1184.87,-159 1194.87,-155.5 1184.87,-152 1184.87,-159"/>
</g>
<!-- Node28 -->
<g id="node28" class="node">
<title>Node28</title>
<g id="a_node28"><a xlink:href="classGameControllerSet.html#a6b551139e353a654212d498309744025" target="_top" xlink:title=" ">
<polygon fill="white" stroke="black" points="756.5,-97.5 756.5,-127.5 872.5,-127.5 872.5,-97.5 756.5,-97.5"/>
<text text-anchor="start" x="764.5" y="-115.5" font-family="Helvetica,sans-Serif" font-size="10.00">GameControllerSet::</text>
<text text-anchor="middle" x="814.5" y="-104.5" font-family="Helvetica,sans-Serif" font-size="10.00">readJoystickConfig</text>
</a>
</g>
</g>
<!-- Node27&#45;&gt;Node28 -->
<g id="edge33" class="edge">
<title>Node27&#45;&gt;Node28</title>
<path fill="none" stroke="midnightblue" d="M1177.16,-111.69C1088.55,-111.89 949.97,-112.2 872.61,-112.37"/>
<polygon fill="midnightblue" stroke="midnightblue" points="1177.18,-115.19 1187.18,-111.66 1177.17,-108.19 1177.18,-115.19"/>
</g>
<!-- Node28&#45;&gt;Node12 -->
<g id="edge34" class="edge">
<title>Node28&#45;&gt;Node12</title>
<path fill="none" stroke="midnightblue" d="M746.13,-104.62C656.14,-96.5 492.86,-90.3 362,-132.5 324.57,-144.57 287.68,-172.8 267.12,-190.41"/>
<polygon fill="midnightblue" stroke="midnightblue" points="745.92,-108.11 756.2,-105.56 746.57,-101.14 745.92,-108.11"/>
</g>
<!-- Node30 -->
<g id="node30" class="node">
<title>Node30</title>
<g id="a_node30"><a xlink:href="classInputDevice.html#a8c4b7481037b00a0f8d4efaeb520a9dd" target="_top" xlink:title=" ">
<polygon fill="white" stroke="black" points="1184,-47.5 1184,-77.5 1337,-77.5 1337,-47.5 1184,-47.5"/>
<text text-anchor="start" x="1192" y="-65.5" font-family="Helvetica,sans-Serif" font-size="10.00">InputDevice::changeSetAxis</text>
<text text-anchor="middle" x="1260.5" y="-54.5" font-family="Helvetica,sans-Serif" font-size="10.00">ButtonAssociation</text>
</a>
</g>
</g>
<!-- Node29&#45;&gt;Node30 -->
<g id="edge36" class="edge">
<title>Node29&#45;&gt;Node30</title>
<path fill="none" stroke="midnightblue" d="M1393.68,-63.74C1375.1,-63.57 1355.41,-63.38 1337.06,-63.21"/>
<polygon fill="midnightblue" stroke="midnightblue" points="1393.84,-67.24 1403.87,-63.84 1393.9,-60.24 1393.84,-67.24"/>
</g>
<!-- Node31 -->
<g id="node31" class="node">
<title>Node31</title>
<g id="a_node31"><a xlink:href="classInputDevice.html#a6ffcebba103a7db02e82c1c7f62387bf" target="_top" xlink:title="Establishes necessary connections for set change slots.">
<polygon fill="white" stroke="black" points="939,-53 939,-72 1129,-72 1129,-53 939,-53"/>
<text text-anchor="middle" x="1034" y="-60" font-family="Helvetica,sans-Serif" font-size="10.00">InputDevice::enableSetConnections</text>
</a>
</g>
</g>
<!-- Node30&#45;&gt;Node31 -->
<g id="edge37" class="edge">
<title>Node30&#45;&gt;Node31</title>
<path fill="none" stroke="midnightblue" d="M1173.8,-62.5C1159.17,-62.5 1143.91,-62.5 1129.08,-62.5"/>
<polygon fill="midnightblue" stroke="midnightblue" points="1173.81,-66 1183.81,-62.5 1173.81,-59 1173.81,-66"/>
</g>
<!-- Node32 -->
<g id="node32" class="node">
<title>Node32</title>
<g id="a_node32"><a xlink:href="classGameController.html#afcddb9dcc5442a9746c3ff8760ea1791" target="_top" xlink:title=" ">
<polygon fill="white" stroke="black" points="726,-57 726,-76 903,-76 903,-57 726,-57"/>
<text text-anchor="middle" x="814.5" y="-64" font-family="Helvetica,sans-Serif" font-size="10.00">GameController::GameController</text>
</a>
</g>
</g>
<!-- Node31&#45;&gt;Node32 -->
<g id="edge38" class="edge">
<title>Node31&#45;&gt;Node32</title>
<path fill="none" stroke="midnightblue" d="M928.85,-64.42C920.28,-64.57 911.68,-64.73 903.26,-64.89"/>
<polygon fill="midnightblue" stroke="midnightblue" points="928.93,-67.91 938.87,-64.23 928.8,-60.92 928.93,-67.91"/>
</g>
<!-- Node33 -->
<g id="node33" class="node">
<title>Node33</title>
<g id="a_node33"><a xlink:href="classJoystick.html#a9df5e53506876f3c95e84bdf6c9cbaf1" target="_top" xlink:title=" ">
<polygon fill="white" stroke="black" points="765,-19 765,-38 864,-38 864,-19 765,-19"/>
<text text-anchor="middle" x="814.5" y="-26" font-family="Helvetica,sans-Serif" font-size="10.00">Joystick::Joystick</text>
</a>
</g>
</g>
<!-- Node31&#45;&gt;Node33 -->
<g id="edge39" class="edge">
<title>Node31&#45;&gt;Node33</title>
<path fill="none" stroke="midnightblue" d="M961.94,-51.39C929.98,-46.4 893.07,-40.63 864.3,-36.13"/>
<polygon fill="midnightblue" stroke="midnightblue" points="961.7,-54.9 972.12,-52.98 962.79,-47.98 961.7,-54.9"/>
</g>
</g>
</svg>
