<?xml version="1.0" encoding="UTF-8" standalone="no"?>
<!DOCTYPE svg PUBLIC "-//W3C//DTD SVG 1.1//EN"
 "http://www.w3.org/Graphics/SVG/1.1/DTD/svg11.dtd">
<!-- Generated by graphviz version 2.43.0 (0)
 -->
<!-- Title: AxisEditDialog::refreshNButtonLabel Pages: 1 -->
<svg width="1769pt" height="465pt"
 viewBox="0.00 0.00 1769.00 465.23" xmlns="http://www.w3.org/2000/svg" xmlns:xlink="http://www.w3.org/1999/xlink">
<g id="graph0" class="graph" transform="scale(1 1) rotate(0) translate(4 461.23)">
<title>AxisEditDialog::refreshNButtonLabel</title>
<polygon fill="white" stroke="transparent" points="-4,4 -4,-461.23 1765,-461.23 1765,4 -4,4"/>
<!-- Node1 -->
<g id="node1" class="node">
<title>Node1</title>
<g id="a_node1"><a xlink:title=" ">
<polygon fill="#bfbfbf" stroke="black" points="0,-299.23 0,-329.23 168,-329.23 168,-299.23 0,-299.23"/>
<text text-anchor="start" x="8" y="-317.23" font-family="Helvetica,sans-Serif" font-size="10.00">AxisEditDialog::refreshNButton</text>
<text text-anchor="middle" x="84" y="-306.23" font-family="Helvetica,sans-Serif" font-size="10.00">Label</text>
</a>
</g>
</g>
<!-- Node2 -->
<g id="node2" class="node">
<title>Node2</title>
<g id="a_node2"><a xlink:href="classJoyAxis.html#aae658e2a7b83ce73ce3d7d1ed13eabc6" target="_top" xlink:title=" ">
<polygon fill="white" stroke="black" points="215,-323.73 215,-342.73 350,-342.73 350,-323.73 215,-323.73"/>
<text text-anchor="middle" x="282.5" y="-330.73" font-family="Helvetica,sans-Serif" font-size="10.00">JoyAxis::getNAxisButton</text>
</a>
</g>
</g>
<!-- Node1&#45;&gt;Node2 -->
<g id="edge1" class="edge">
<title>Node1&#45;&gt;Node2</title>
<path fill="none" stroke="midnightblue" d="M168.05,-322.26C180.24,-323.44 192.75,-324.65 204.81,-325.82"/>
<polygon fill="midnightblue" stroke="midnightblue" points="204.53,-329.31 214.82,-326.79 205.2,-322.34 204.53,-329.31"/>
</g>
<!-- Node3 -->
<g id="node3" class="node">
<title>Node3</title>
<g id="a_node3"><a xlink:href="classJoyButton.html#ad0e91e7eea8ee9487ee3acf57f1bdc41" target="_top" xlink:title="Generate a string representing a summary of the slots currently assigned to a button.">
<polygon fill="white" stroke="black" points="204,-285.73 204,-304.73 361,-304.73 361,-285.73 204,-285.73"/>
<text text-anchor="middle" x="282.5" y="-292.73" font-family="Helvetica,sans-Serif" font-size="10.00">JoyButton::getSlotsSummary</text>
</a>
</g>
</g>
<!-- Node1&#45;&gt;Node3 -->
<g id="edge2" class="edge">
<title>Node1&#45;&gt;Node3</title>
<path fill="none" stroke="midnightblue" d="M168.05,-306.2C176.56,-305.38 185.22,-304.54 193.77,-303.72"/>
<polygon fill="midnightblue" stroke="midnightblue" points="194.14,-307.2 203.75,-302.75 193.46,-300.23 194.14,-307.2"/>
</g>
<!-- Node4 -->
<g id="node4" class="node">
<title>Node4</title>
<g id="a_node4"><a xlink:href="classJoyButton.html#ae1d364dfa70f47fae3db99ffbcdea44b" target="_top" xlink:title=" ">
<polygon fill="white" stroke="black" points="397,-304.73 397,-323.73 551,-323.73 551,-304.73 397,-304.73"/>
<text text-anchor="middle" x="474" y="-311.73" font-family="Helvetica,sans-Serif" font-size="10.00">JoyButton::getAssignedSlots</text>
</a>
</g>
</g>
<!-- Node3&#45;&gt;Node4 -->
<g id="edge3" class="edge">
<title>Node3&#45;&gt;Node4</title>
<path fill="none" stroke="midnightblue" d="M361.12,-303.02C369.57,-303.86 378.21,-304.73 386.75,-305.59"/>
<polygon fill="midnightblue" stroke="midnightblue" points="386.42,-309.07 396.72,-306.59 387.12,-302.11 386.42,-309.07"/>
</g>
<!-- Node5 -->
<g id="node5" class="node">
<title>Node5</title>
<g id="a_node5"><a xlink:href="classJoyButtonSlot.html#a6e10409ded595380cbdcfd5c827ab32a" target="_top" xlink:title=" ">
<polygon fill="white" stroke="black" points="398,-266.73 398,-285.73 550,-285.73 550,-266.73 398,-266.73"/>
<text text-anchor="middle" x="474" y="-273.73" font-family="Helvetica,sans-Serif" font-size="10.00">JoyButtonSlot::getSlotString</text>
</a>
</g>
</g>
<!-- Node3&#45;&gt;Node5 -->
<g id="edge4" class="edge">
<title>Node3&#45;&gt;Node5</title>
<path fill="none" stroke="midnightblue" d="M361.12,-287.45C369.96,-286.57 379,-285.66 387.93,-284.76"/>
<polygon fill="midnightblue" stroke="midnightblue" points="388.34,-288.24 397.94,-283.76 387.64,-281.28 388.34,-288.24"/>
</g>
<!-- Node6 -->
<g id="node6" class="node">
<title>Node6</title>
<g id="a_node6"><a xlink:href="classJoyButtonSlot.html#a4fb0606a34134786bc642627bc25aedd" target="_top" xlink:title=" ">
<polygon fill="white" stroke="black" points="602,-345.73 602,-364.73 748,-364.73 748,-345.73 602,-345.73"/>
<text text-anchor="middle" x="675" y="-352.73" font-family="Helvetica,sans-Serif" font-size="10.00">JoyButtonSlot::getMixSlots</text>
</a>
</g>
</g>
<!-- Node5&#45;&gt;Node6 -->
<g id="edge5" class="edge">
<title>Node5&#45;&gt;Node6</title>
<path fill="none" stroke="midnightblue" d="M520.96,-285.83C531,-288.45 541.47,-291.59 551,-295.23 567.9,-301.7 570.81,-306.15 587,-314.23 605.73,-323.59 626.99,-333.61 643.8,-341.41"/>
<polygon fill="midnightblue" stroke="midnightblue" points="642.58,-344.7 653.13,-345.72 645.52,-338.35 642.58,-344.7"/>
</g>
<!-- Node8 -->
<g id="node8" class="node">
<title>Node8</title>
<g id="a_node8"><a xlink:href="namespacePadderCommon.html#aaa09739d2df84421a5a3467a06ce941c" target="_top" xlink:title="Returns the &quot;human&#45;readable&quot; name of the given profile.">
<polygon fill="white" stroke="black" points="587,-285.73 587,-304.73 763,-304.73 763,-285.73 587,-285.73"/>
<text text-anchor="middle" x="675" y="-292.73" font-family="Helvetica,sans-Serif" font-size="10.00">PadderCommon::getProfileName</text>
</a>
</g>
</g>
<!-- Node5&#45;&gt;Node8 -->
<g id="edge7" class="edge">
<title>Node5&#45;&gt;Node8</title>
<path fill="none" stroke="midnightblue" d="M550.23,-283.42C558.95,-284.25 567.93,-285.11 576.89,-285.96"/>
<polygon fill="midnightblue" stroke="midnightblue" points="576.68,-289.46 586.97,-286.93 577.35,-282.49 576.68,-289.46"/>
</g>
<!-- Node9 -->
<g id="node9" class="node">
<title>Node9</title>
<g id="a_node9"><a xlink:href="event_8cpp.html#a76ce89b71143c1c09343f45f038b4a67" target="_top" xlink:title=" ">
<polygon fill="white" stroke="black" points="619,-247.73 619,-266.73 731,-266.73 731,-247.73 619,-247.73"/>
<text text-anchor="middle" x="675" y="-254.73" font-family="Helvetica,sans-Serif" font-size="10.00">keysymToKeyString</text>
</a>
</g>
</g>
<!-- Node5&#45;&gt;Node9 -->
<g id="edge8" class="edge">
<title>Node5&#45;&gt;Node9</title>
<path fill="none" stroke="midnightblue" d="M550.23,-269.05C569.46,-267.22 589.97,-265.26 608.65,-263.47"/>
<polygon fill="midnightblue" stroke="midnightblue" points="609.2,-266.94 618.82,-262.5 608.53,-259.97 609.2,-266.94"/>
</g>
<!-- Node32 -->
<g id="node32" class="node">
<title>Node32</title>
<g id="a_node32"><a xlink:href="classJoyButtonSlot.html#a37ff2b523177bae4ea6a44b82f2973eb" target="_top" xlink:title=" ">
<polygon fill="white" stroke="black" points="590,-209.73 590,-228.73 760,-228.73 760,-209.73 590,-209.73"/>
<text text-anchor="middle" x="675" y="-216.73" font-family="Helvetica,sans-Serif" font-size="10.00">JoyButtonSlot::movementString</text>
</a>
</g>
</g>
<!-- Node5&#45;&gt;Node32 -->
<g id="edge39" class="edge">
<title>Node5&#45;&gt;Node32</title>
<path fill="none" stroke="midnightblue" d="M500.55,-266.65C523.08,-258.42 556.93,-246.59 587,-238.23 596.18,-235.68 605.97,-233.26 615.56,-231.05"/>
<polygon fill="midnightblue" stroke="midnightblue" points="616.46,-234.44 625.44,-228.83 614.92,-227.61 616.46,-234.44"/>
</g>
<!-- Node7 -->
<g id="node7" class="node">
<title>Node7</title>
<g id="a_node7"><a xlink:href="classJoyButtonSlot.html#a9ba9cb0dda063a7df5575072c0aabe01" target="_top" xlink:title=" ">
<polygon fill="white" stroke="black" points="799,-362.23 799,-392.23 938,-392.23 938,-362.23 799,-362.23"/>
<text text-anchor="start" x="807" y="-380.23" font-family="Helvetica,sans-Serif" font-size="10.00">JoyButtonSlot::secureMix</text>
<text text-anchor="middle" x="868.5" y="-369.23" font-family="Helvetica,sans-Serif" font-size="10.00">SlotsInit</text>
</a>
</g>
</g>
<!-- Node6&#45;&gt;Node7 -->
<g id="edge6" class="edge">
<title>Node6&#45;&gt;Node7</title>
<path fill="none" stroke="midnightblue" d="M748.13,-363.52C761.39,-365.04 775.3,-366.64 788.75,-368.19"/>
<polygon fill="midnightblue" stroke="midnightblue" points="788.59,-371.69 798.92,-369.36 789.39,-364.74 788.59,-371.69"/>
</g>
<!-- Node10 -->
<g id="node10" class="node">
<title>Node10</title>
<g id="a_node10"><a xlink:href="classX11Extras.html#a643c95dc1de8eb073a0accb41619fe83" target="_top" xlink:title="Get display instance.">
<polygon fill="white" stroke="black" points="1017,-83.73 1017,-102.73 1124,-102.73 1124,-83.73 1017,-83.73"/>
<text text-anchor="middle" x="1070.5" y="-90.73" font-family="Helvetica,sans-Serif" font-size="10.00">X11Extras::display</text>
</a>
</g>
</g>
<!-- Node9&#45;&gt;Node10 -->
<g id="edge9" class="edge">
<title>Node9&#45;&gt;Node10</title>
<path fill="none" stroke="midnightblue" d="M731.09,-252.64C742.44,-249.74 753.74,-245.22 763,-238.23 789.98,-217.87 773.12,-192.98 799,-171.23 861.73,-118.52 894.88,-134.56 974,-113.23 985.13,-110.23 997.1,-107.42 1008.66,-104.89"/>
<polygon fill="midnightblue" stroke="midnightblue" points="1009.64,-108.26 1018.69,-102.76 1008.18,-101.42 1009.64,-108.26"/>
</g>
<!-- Node11 -->
<g id="node11" class="node">
<title>Node11</title>
<g id="a_node11"><a xlink:href="classBaseEventHandler.html#a9a014e472ec57408d16b8b5eed964e90" target="_top" xlink:title=" ">
<polygon fill="white" stroke="black" points="984.5,-437.73 984.5,-456.73 1156.5,-456.73 1156.5,-437.73 984.5,-437.73"/>
<text text-anchor="middle" x="1070.5" y="-444.73" font-family="Helvetica,sans-Serif" font-size="10.00">BaseEventHandler::getIdentifier</text>
</a>
</g>
</g>
<!-- Node9&#45;&gt;Node11 -->
<g id="edge10" class="edge">
<title>Node9&#45;&gt;Node11</title>
<path fill="none" stroke="midnightblue" d="M731.2,-264.09C742.18,-266.87 753.31,-270.76 763,-276.23 783.26,-287.67 779.08,-302.21 799,-314.23 853.93,-347.39 888.86,-311.98 938,-353.23 966.32,-377.01 944.79,-405.57 974,-428.23 976.32,-430.03 978.76,-431.67 981.3,-433.17"/>
<polygon fill="midnightblue" stroke="midnightblue" points="979.76,-436.31 990.26,-437.73 982.93,-430.08 979.76,-436.31"/>
</g>
<!-- Node12 -->
<g id="node12" class="node">
<title>Node12</title>
<g id="a_node12"><a xlink:href="classX11Extras.html#ace76277fced60e6bd6ff880030338182" target="_top" xlink:title=" ">
<polygon fill="white" stroke="black" points="1006,-399.73 1006,-418.73 1135,-418.73 1135,-399.73 1006,-399.73"/>
<text text-anchor="middle" x="1070.5" y="-406.73" font-family="Helvetica,sans-Serif" font-size="10.00">X11Extras::getInstance</text>
</a>
</g>
</g>
<!-- Node9&#45;&gt;Node12 -->
<g id="edge11" class="edge">
<title>Node9&#45;&gt;Node12</title>
<path fill="none" stroke="midnightblue" d="M726.32,-266.75C797.67,-280.6 921.46,-306.1 938,-319.23 965.7,-341.24 945.81,-368.85 974,-390.23 980.68,-395.3 988.35,-399.12 996.39,-401.98"/>
<polygon fill="midnightblue" stroke="midnightblue" points="995.36,-405.32 1005.95,-404.92 997.42,-398.63 995.36,-405.32"/>
</g>
<!-- Node15 -->
<g id="node15" class="node">
<title>Node15</title>
<g id="a_node15"><a xlink:href="classEventHandlerFactory.html#a90ce153a19fbb91128bd52eb083ce271" target="_top" xlink:title=" ">
<polygon fill="white" stroke="black" points="1011.5,-122.23 1011.5,-152.23 1129.5,-152.23 1129.5,-122.23 1011.5,-122.23"/>
<text text-anchor="start" x="1019.5" y="-140.23" font-family="Helvetica,sans-Serif" font-size="10.00">EventHandlerFactory</text>
<text text-anchor="middle" x="1070.5" y="-129.23" font-family="Helvetica,sans-Serif" font-size="10.00">::getInstance</text>
</a>
</g>
</g>
<!-- Node9&#45;&gt;Node15 -->
<g id="edge14" class="edge">
<title>Node9&#45;&gt;Node15</title>
<path fill="none" stroke="midnightblue" d="M725.06,-247.7C737.51,-244.95 750.82,-241.74 763,-238.23 858.78,-210.65 878.8,-191.77 974,-162.23 982.93,-159.46 992.39,-156.74 1001.75,-154.17"/>
<polygon fill="midnightblue" stroke="midnightblue" points="1002.7,-157.53 1011.44,-151.54 1000.87,-150.78 1002.7,-157.53"/>
</g>
<!-- Node18 -->
<g id="node18" class="node">
<title>Node18</title>
<g id="a_node18"><a xlink:href="classEventHandlerFactory.html#a4c13007f0ece5bf881080c9c04f1f20d" target="_top" xlink:title=" ">
<polygon fill="white" stroke="black" points="1413.5,-120.23 1413.5,-150.23 1531.5,-150.23 1531.5,-120.23 1413.5,-120.23"/>
<text text-anchor="start" x="1421.5" y="-138.23" font-family="Helvetica,sans-Serif" font-size="10.00">EventHandlerFactory</text>
<text text-anchor="middle" x="1472.5" y="-127.23" font-family="Helvetica,sans-Serif" font-size="10.00">::handler</text>
</a>
</g>
</g>
<!-- Node9&#45;&gt;Node18 -->
<g id="edge20" class="edge">
<title>Node9&#45;&gt;Node18</title>
<path fill="none" stroke="midnightblue" d="M731.33,-254.24C742.93,-251.28 754.28,-246.33 763,-238.23 804.12,-200.06 758.55,-156.12 799,-117.23 932.59,11.18 1019.14,-37.3 1203,-14.23 1270.03,-5.82 1292.83,12.21 1355,-14.23 1401.25,-33.91 1438.03,-81.93 1457.13,-111.22"/>
<polygon fill="midnightblue" stroke="midnightblue" points="1454.39,-113.44 1462.7,-120.01 1460.3,-109.69 1454.39,-113.44"/>
</g>
<!-- Node20 -->
<g id="node20" class="node">
<title>Node20</title>
<g id="a_node20"><a xlink:href="event_8cpp.html#ad239a34cab482dc3cad5a23a9ac1ad78" target="_top" xlink:title=" ">
<polygon fill="white" stroke="black" points="811.5,-247.73 811.5,-266.73 925.5,-266.73 925.5,-247.73 811.5,-247.73"/>
<text text-anchor="middle" x="868.5" y="-254.73" font-family="Helvetica,sans-Serif" font-size="10.00">keycodeToKeyString</text>
</a>
</g>
</g>
<!-- Node9&#45;&gt;Node20 -->
<g id="edge21" class="edge">
<title>Node9&#45;&gt;Node20</title>
<path fill="none" stroke="midnightblue" d="M731.13,-257.23C752.98,-257.23 778.29,-257.23 801.13,-257.23"/>
<polygon fill="midnightblue" stroke="midnightblue" points="801.43,-260.73 811.43,-257.23 801.43,-253.73 801.43,-260.73"/>
</g>
<!-- Node13 -->
<g id="node13" class="node">
<title>Node13</title>
<g id="a_node13"><a xlink:href="classX11Extras.html#ab9bcb016e23bacb0e988feb8175d2c88" target="_top" xlink:title=" ">
<polygon fill="white" stroke="black" points="1218,-399.73 1218,-418.73 1340,-418.73 1340,-399.73 1218,-399.73"/>
<text text-anchor="middle" x="1279" y="-406.73" font-family="Helvetica,sans-Serif" font-size="10.00">X11Extras::X11Extras</text>
</a>
</g>
</g>
<!-- Node12&#45;&gt;Node13 -->
<g id="edge12" class="edge">
<title>Node12&#45;&gt;Node13</title>
<path fill="none" stroke="midnightblue" d="M1135.14,-409.23C1158.06,-409.23 1184.04,-409.23 1207.51,-409.23"/>
<polygon fill="midnightblue" stroke="midnightblue" points="1207.74,-412.73 1217.74,-409.23 1207.74,-405.73 1207.74,-412.73"/>
</g>
<!-- Node14 -->
<g id="node14" class="node">
<title>Node14</title>
<g id="a_node14"><a xlink:href="classX11Extras.html#a6f63e77ed045e174546d77333672b8f0" target="_top" xlink:title=" ">
<polygon fill="white" stroke="black" points="1398.5,-394.23 1398.5,-424.23 1546.5,-424.23 1546.5,-394.23 1398.5,-394.23"/>
<text text-anchor="start" x="1406.5" y="-412.23" font-family="Helvetica,sans-Serif" font-size="10.00">X11Extras::populateKnown</text>
<text text-anchor="middle" x="1472.5" y="-401.23" font-family="Helvetica,sans-Serif" font-size="10.00">Aliases</text>
</a>
</g>
</g>
<!-- Node13&#45;&gt;Node14 -->
<g id="edge13" class="edge">
<title>Node13&#45;&gt;Node14</title>
<path fill="none" stroke="midnightblue" d="M1340.07,-409.23C1355.33,-409.23 1372,-409.23 1388.19,-409.23"/>
<polygon fill="midnightblue" stroke="midnightblue" points="1388.19,-412.73 1398.19,-409.23 1388.19,-405.73 1388.19,-412.73"/>
</g>
<!-- Node16 -->
<g id="node16" class="node">
<title>Node16</title>
<g id="a_node16"><a xlink:href="classEventHandlerFactory.html#ade5162034acc0f8683725fdb124bece0" target="_top" xlink:title=" ">
<polygon fill="white" stroke="black" points="1209,-122.23 1209,-152.23 1349,-152.23 1349,-122.23 1209,-122.23"/>
<text text-anchor="start" x="1217" y="-140.23" font-family="Helvetica,sans-Serif" font-size="10.00">EventHandlerFactory</text>
<text text-anchor="middle" x="1279" y="-129.23" font-family="Helvetica,sans-Serif" font-size="10.00">::buildEventGeneratorList</text>
</a>
</g>
</g>
<!-- Node15&#45;&gt;Node16 -->
<g id="edge15" class="edge">
<title>Node15&#45;&gt;Node16</title>
<path fill="none" stroke="midnightblue" d="M1129.57,-137.23C1150.98,-137.23 1175.61,-137.23 1198.58,-137.23"/>
<polygon fill="midnightblue" stroke="midnightblue" points="1198.65,-140.73 1208.65,-137.23 1198.65,-133.73 1198.65,-140.73"/>
</g>
<!-- Node17 -->
<g id="node17" class="node">
<title>Node17</title>
<g id="a_node17"><a xlink:href="classEventHandlerFactory.html#a2f843293b2ea47271fc7bd99bd871fa6" target="_top" xlink:title=" ">
<polygon fill="white" stroke="black" points="1217,-73.23 1217,-103.23 1341,-103.23 1341,-73.23 1217,-73.23"/>
<text text-anchor="start" x="1225" y="-91.23" font-family="Helvetica,sans-Serif" font-size="10.00">EventHandlerFactory</text>
<text text-anchor="middle" x="1279" y="-80.23" font-family="Helvetica,sans-Serif" font-size="10.00">::EventHandlerFactory</text>
</a>
</g>
</g>
<!-- Node15&#45;&gt;Node17 -->
<g id="edge16" class="edge">
<title>Node15&#45;&gt;Node17</title>
<path fill="none" stroke="midnightblue" d="M1129.57,-123.45C1153.58,-117.76 1181.65,-111.1 1206.88,-105.11"/>
<polygon fill="midnightblue" stroke="midnightblue" points="1207.84,-108.48 1216.76,-102.77 1206.23,-101.67 1207.84,-108.48"/>
</g>
<!-- Node15&#45;&gt;Node18 -->
<g id="edge19" class="edge">
<title>Node15&#45;&gt;Node18</title>
<path fill="none" stroke="midnightblue" d="M1129.75,-150.75C1152.47,-155.37 1178.82,-159.96 1203,-162.23 1270.26,-168.57 1287.88,-169.91 1355,-162.23 1372.5,-160.23 1391.2,-156.59 1408.38,-152.62"/>
<polygon fill="midnightblue" stroke="midnightblue" points="1409.38,-155.98 1418.3,-150.25 1407.76,-149.17 1409.38,-155.98"/>
</g>
<!-- Node19 -->
<g id="node19" class="node">
<title>Node19</title>
<g id="a_node19"><a xlink:href="classEventHandlerFactory.html#afa5ca0171c70b1a24f92b5c8dd00dc92" target="_top" xlink:title=" ">
<polygon fill="white" stroke="black" points="1220,-24.23 1220,-54.23 1338,-54.23 1338,-24.23 1220,-24.23"/>
<text text-anchor="start" x="1228" y="-42.23" font-family="Helvetica,sans-Serif" font-size="10.00">EventHandlerFactory</text>
<text text-anchor="middle" x="1279" y="-31.23" font-family="Helvetica,sans-Serif" font-size="10.00">::fallBackIdentifier</text>
</a>
</g>
</g>
<!-- Node15&#45;&gt;Node19 -->
<g id="edge18" class="edge">
<title>Node15&#45;&gt;Node19</title>
<path fill="none" stroke="midnightblue" d="M1129.77,-128.68C1142.76,-125 1155.94,-119.75 1167,-112.23 1189.36,-97.05 1181.06,-79.01 1203,-63.23 1205.39,-61.51 1207.92,-59.91 1210.53,-58.42"/>
<polygon fill="midnightblue" stroke="midnightblue" points="1212.36,-61.42 1219.7,-53.78 1209.2,-55.17 1212.36,-61.42"/>
</g>
<!-- Node17&#45;&gt;Node18 -->
<g id="edge17" class="edge">
<title>Node17&#45;&gt;Node18</title>
<path fill="none" stroke="midnightblue" d="M1341.12,-103.23C1360.97,-108.11 1383.11,-113.54 1403.43,-118.53"/>
<polygon fill="midnightblue" stroke="midnightblue" points="1402.7,-121.95 1413.24,-120.94 1404.37,-115.15 1402.7,-121.95"/>
</g>
<!-- Node20&#45;&gt;Node10 -->
<g id="edge22" class="edge">
<title>Node20&#45;&gt;Node10</title>
<path fill="none" stroke="midnightblue" d="M873.46,-247.63C884.79,-221.39 920.07,-148.16 974,-113.23 983.79,-106.9 995.22,-102.52 1006.7,-99.51"/>
<polygon fill="midnightblue" stroke="midnightblue" points="1007.79,-102.85 1016.76,-97.2 1006.23,-96.03 1007.79,-102.85"/>
</g>
<!-- Node20&#45;&gt;Node11 -->
<g id="edge27" class="edge">
<title>Node20&#45;&gt;Node11</title>
<path fill="none" stroke="midnightblue" d="M883.84,-266.76C899.28,-277.71 923.56,-297.05 938,-319.23 965.83,-361.99 935.78,-394.44 974,-428.23 975.57,-429.62 977.21,-430.92 978.91,-432.13"/>
<polygon fill="midnightblue" stroke="midnightblue" points="977.49,-435.36 987.86,-437.51 981.1,-429.36 977.49,-435.36"/>
</g>
<!-- Node20&#45;&gt;Node12 -->
<g id="edge35" class="edge">
<title>Node20&#45;&gt;Node12</title>
<path fill="none" stroke="midnightblue" d="M915.65,-266.87C923.9,-270.3 931.82,-274.94 938,-281.23 973.75,-317.63 935.78,-356.44 974,-390.23 980.37,-395.87 987.93,-400.02 995.96,-403.06"/>
<polygon fill="midnightblue" stroke="midnightblue" points="994.96,-406.42 1005.55,-406.13 997.1,-399.75 994.96,-406.42"/>
</g>
<!-- Node20&#45;&gt;Node15 -->
<g id="edge36" class="edge">
<title>Node20&#45;&gt;Node15</title>
<path fill="none" stroke="midnightblue" d="M879.68,-247.47C903.76,-224.43 963.06,-168.17 974,-162.23 982.64,-157.55 992.21,-153.7 1001.85,-150.56"/>
<polygon fill="midnightblue" stroke="midnightblue" points="1002.93,-153.9 1011.49,-147.65 1000.9,-147.2 1002.93,-153.9"/>
</g>
<!-- Node20&#45;&gt;Node18 -->
<g id="edge37" class="edge">
<title>Node20&#45;&gt;Node18</title>
<path fill="none" stroke="midnightblue" d="M920.48,-247.72C937.49,-244.61 956.55,-241.2 974,-238.23 1143.01,-209.57 1189.12,-221.46 1355,-178.23 1379.24,-171.92 1405.48,-162.48 1426.91,-154.05"/>
<polygon fill="midnightblue" stroke="midnightblue" points="1428.4,-157.22 1436.39,-150.26 1425.81,-150.72 1428.4,-157.22"/>
</g>
<!-- Node21 -->
<g id="node21" class="node">
<title>Node21</title>
<g id="a_node21"><a xlink:href="classWinExtras.html#a3487e64cfb407033d7e28a761d1e76dc" target="_top" xlink:title=" ">
<polygon fill="white" stroke="black" points="994,-323.73 994,-342.73 1147,-342.73 1147,-323.73 994,-323.73"/>
<text text-anchor="middle" x="1070.5" y="-330.73" font-family="Helvetica,sans-Serif" font-size="10.00">WinExtras::getDisplayString</text>
</a>
</g>
</g>
<!-- Node20&#45;&gt;Node21 -->
<g id="edge23" class="edge">
<title>Node20&#45;&gt;Node21</title>
<path fill="none" stroke="midnightblue" d="M903.53,-266.74C914.83,-270.52 927.27,-275.39 938,-281.23 955.8,-290.94 955.78,-300.35 974,-309.23 983.76,-314 994.57,-317.87 1005.29,-321.01"/>
<polygon fill="midnightblue" stroke="midnightblue" points="1004.51,-324.42 1015.08,-323.69 1006.36,-317.67 1004.51,-324.42"/>
</g>
<!-- Node22 -->
<g id="node22" class="node">
<title>Node22</title>
<g id="a_node22"><a xlink:href="classUInputHelper.html#ac4c70c9479c1cc0eb515ab1bdf2426f5" target="_top" xlink:title=" ">
<polygon fill="white" stroke="black" points="1402.5,-285.23 1402.5,-315.23 1542.5,-315.23 1542.5,-285.23 1402.5,-285.23"/>
<text text-anchor="start" x="1410.5" y="-303.23" font-family="Helvetica,sans-Serif" font-size="10.00">UInputHelper::getDisplay</text>
<text text-anchor="middle" x="1472.5" y="-292.23" font-family="Helvetica,sans-Serif" font-size="10.00">String</text>
</a>
</g>
</g>
<!-- Node20&#45;&gt;Node22 -->
<g id="edge24" class="edge">
<title>Node20&#45;&gt;Node22</title>
<path fill="none" stroke="midnightblue" d="M914.57,-266.77C932.93,-270.3 954.4,-273.99 974,-276.23 1121.07,-293.08 1293.92,-298.13 1392.3,-299.62"/>
<polygon fill="midnightblue" stroke="midnightblue" points="1392.41,-303.13 1402.46,-299.77 1392.51,-296.13 1392.41,-303.13"/>
</g>
<!-- Node24 -->
<g id="node24" class="node">
<title>Node24</title>
<g id="a_node24"><a xlink:href="classX11Extras.html#abe710bac948c9802105a2d9d06815cac" target="_top" xlink:title="Get appropriate alias for a known KeySym string that might be blank or contain invalid characters whe...">
<polygon fill="white" stroke="black" points="994,-171.73 994,-190.73 1147,-190.73 1147,-171.73 994,-171.73"/>
<text text-anchor="middle" x="1070.5" y="-178.73" font-family="Helvetica,sans-Serif" font-size="10.00">X11Extras::getDisplayString</text>
</a>
</g>
</g>
<!-- Node20&#45;&gt;Node24 -->
<g id="edge26" class="edge">
<title>Node20&#45;&gt;Node24</title>
<path fill="none" stroke="midnightblue" d="M886.02,-247.62C906.21,-236.19 941.69,-217.18 974,-205.23 986.52,-200.61 1000.29,-196.57 1013.38,-193.19"/>
<polygon fill="midnightblue" stroke="midnightblue" points="1014.37,-196.55 1023.23,-190.74 1012.68,-189.76 1014.37,-196.55"/>
</g>
<!-- Node25 -->
<g id="node25" class="node">
<title>Node25</title>
<g id="a_node25"><a xlink:href="classUInputHelper.html#a61509601d3dbd8933aaa26c1e2db02f6" target="_top" xlink:title=" ">
<polygon fill="white" stroke="black" points="998.5,-247.73 998.5,-266.73 1142.5,-266.73 1142.5,-247.73 998.5,-247.73"/>
<text text-anchor="middle" x="1070.5" y="-254.73" font-family="Helvetica,sans-Serif" font-size="10.00">UInputHelper::getInstance</text>
</a>
</g>
</g>
<!-- Node20&#45;&gt;Node25 -->
<g id="edge28" class="edge">
<title>Node20&#45;&gt;Node25</title>
<path fill="none" stroke="midnightblue" d="M925.74,-257.23C945.1,-257.23 967.19,-257.23 988.15,-257.23"/>
<polygon fill="midnightblue" stroke="midnightblue" points="988.33,-260.73 998.33,-257.23 988.33,-253.73 988.33,-260.73"/>
</g>
<!-- Node31 -->
<g id="node31" class="node">
<title>Node31</title>
<g id="a_node31"><a xlink:href="classWinExtras.html#a0bfa711c1abe72486dfebc8ff6fe7f5a" target="_top" xlink:title="Convert a virtual key into the corresponding keyboard scan code.">
<polygon fill="white" stroke="black" points="974,-361.73 974,-380.73 1167,-380.73 1167,-361.73 974,-361.73"/>
<text text-anchor="middle" x="1070.5" y="-368.73" font-family="Helvetica,sans-Serif" font-size="10.00">WinExtras::scancodeFromVirtualKey</text>
</a>
</g>
</g>
<!-- Node20&#45;&gt;Node31 -->
<g id="edge38" class="edge">
<title>Node20&#45;&gt;Node31</title>
<path fill="none" stroke="midnightblue" d="M912.79,-266.79C921.83,-270.25 930.8,-274.93 938,-281.23 964.62,-304.54 945.81,-330.85 974,-352.23 976.34,-354.01 978.79,-355.63 981.35,-357.1"/>
<polygon fill="midnightblue" stroke="midnightblue" points="979.84,-360.26 990.35,-361.61 982.97,-354 979.84,-360.26"/>
</g>
<!-- Node23 -->
<g id="node23" class="node">
<title>Node23</title>
<g id="a_node23"><a xlink:href="classUInputHelper.html#a043b0fa7cf4ce5811d01d95f3ca318b7" target="_top" xlink:title=" ">
<polygon fill="white" stroke="black" points="1590,-285.23 1590,-315.23 1761,-315.23 1761,-285.23 1590,-285.23"/>
<text text-anchor="start" x="1598" y="-303.23" font-family="Helvetica,sans-Serif" font-size="10.00">UInputHelper::getKnownAliases</text>
<text text-anchor="middle" x="1675.5" y="-292.23" font-family="Helvetica,sans-Serif" font-size="10.00">VKStrings</text>
</a>
</g>
</g>
<!-- Node22&#45;&gt;Node23 -->
<g id="edge25" class="edge">
<title>Node22&#45;&gt;Node23</title>
<path fill="none" stroke="midnightblue" d="M1542.67,-300.23C1554.68,-300.23 1567.35,-300.23 1579.9,-300.23"/>
<polygon fill="midnightblue" stroke="midnightblue" points="1579.92,-303.73 1589.92,-300.23 1579.92,-296.73 1579.92,-303.73"/>
</g>
<!-- Node26 -->
<g id="node26" class="node">
<title>Node26</title>
<g id="a_node26"><a xlink:href="classUInputHelper.html#a5d56d23a0e0202435c7a5ff1aca9ce55" target="_top" xlink:title=" ">
<polygon fill="white" stroke="black" points="1203,-247.73 1203,-266.73 1355,-266.73 1355,-247.73 1203,-247.73"/>
<text text-anchor="middle" x="1279" y="-254.73" font-family="Helvetica,sans-Serif" font-size="10.00">UInputHelper::UInputHelper</text>
</a>
</g>
</g>
<!-- Node25&#45;&gt;Node26 -->
<g id="edge29" class="edge">
<title>Node25&#45;&gt;Node26</title>
<path fill="none" stroke="midnightblue" d="M1142.57,-257.23C1158.7,-257.23 1176,-257.23 1192.66,-257.23"/>
<polygon fill="midnightblue" stroke="midnightblue" points="1192.93,-260.73 1202.93,-257.23 1192.93,-253.73 1192.93,-260.73"/>
</g>
<!-- Node27 -->
<g id="node27" class="node">
<title>Node27</title>
<g id="a_node27"><a xlink:href="classUInputHelper.html#a0f4dbb4221502d86f7d0af12a9865568" target="_top" xlink:title=" ">
<polygon fill="white" stroke="black" points="1391,-236.23 1391,-266.23 1554,-266.23 1554,-236.23 1391,-236.23"/>
<text text-anchor="start" x="1399" y="-254.23" font-family="Helvetica,sans-Serif" font-size="10.00">UInputHelper::populateKnown</text>
<text text-anchor="middle" x="1472.5" y="-243.23" font-family="Helvetica,sans-Serif" font-size="10.00">Aliases</text>
</a>
</g>
</g>
<!-- Node26&#45;&gt;Node27 -->
<g id="edge30" class="edge">
<title>Node26&#45;&gt;Node27</title>
<path fill="none" stroke="midnightblue" d="M1355.14,-254.88C1363.57,-254.62 1372.23,-254.34 1380.83,-254.08"/>
<polygon fill="midnightblue" stroke="midnightblue" points="1381.01,-257.57 1390.89,-253.76 1380.79,-250.58 1381.01,-257.57"/>
</g>
<!-- Node27&#45;&gt;Node23 -->
<g id="edge31" class="edge">
<title>Node27&#45;&gt;Node23</title>
<path fill="none" stroke="midnightblue" d="M1535.17,-266.27C1556.59,-271.49 1580.78,-277.39 1602.93,-282.79"/>
<polygon fill="midnightblue" stroke="midnightblue" points="1602.4,-286.26 1612.94,-285.23 1604.06,-279.46 1602.4,-286.26"/>
</g>
<!-- Node28 -->
<g id="node28" class="node">
<title>Node28</title>
<g id="a_node28"><a xlink:href="classUInputHelper.html#a8f3fe71ae635cd3c46eaab79dd11c2e0" target="_top" xlink:title=" ">
<polygon fill="white" stroke="black" points="1590,-236.23 1590,-266.23 1761,-266.23 1761,-236.23 1590,-236.23"/>
<text text-anchor="start" x="1598" y="-254.23" font-family="Helvetica,sans-Serif" font-size="10.00">UInputHelper::getKnownAliases</text>
<text text-anchor="middle" x="1675.5" y="-243.23" font-family="Helvetica,sans-Serif" font-size="10.00">X11SymVK</text>
</a>
</g>
</g>
<!-- Node27&#45;&gt;Node28 -->
<g id="edge32" class="edge">
<title>Node27&#45;&gt;Node28</title>
<path fill="none" stroke="midnightblue" d="M1554.1,-251.23C1562.57,-251.23 1571.25,-251.23 1579.87,-251.23"/>
<polygon fill="midnightblue" stroke="midnightblue" points="1579.94,-254.73 1589.94,-251.23 1579.94,-247.73 1579.94,-254.73"/>
</g>
<!-- Node29 -->
<g id="node29" class="node">
<title>Node29</title>
<g id="a_node29"><a xlink:href="classUInputHelper.html#a9793030329fbbe1106b255814ef2bd0f" target="_top" xlink:title=" ">
<polygon fill="white" stroke="black" points="1601,-187.23 1601,-217.23 1750,-217.23 1750,-187.23 1601,-187.23"/>
<text text-anchor="start" x="1609" y="-205.23" font-family="Helvetica,sans-Serif" font-size="10.00">UInputHelper::populateX11</text>
<text text-anchor="middle" x="1675.5" y="-194.23" font-family="Helvetica,sans-Serif" font-size="10.00">SymVk</text>
</a>
</g>
</g>
<!-- Node27&#45;&gt;Node29 -->
<g id="edge33" class="edge">
<title>Node27&#45;&gt;Node29</title>
<path fill="none" stroke="midnightblue" d="M1535.17,-236.2C1556.59,-230.98 1580.78,-225.08 1602.93,-219.68"/>
<polygon fill="midnightblue" stroke="midnightblue" points="1604.06,-223.01 1612.94,-217.24 1602.4,-216.21 1604.06,-223.01"/>
</g>
<!-- Node30 -->
<g id="node30" class="node">
<title>Node30</title>
<g id="a_node30"><a xlink:href="classUInputHelper.html#af02574de230bb0550eebb63f5a669681" target="_top" xlink:title=" ">
<polygon fill="white" stroke="black" points="1601,-138.23 1601,-168.23 1750,-168.23 1750,-138.23 1601,-138.23"/>
<text text-anchor="start" x="1609" y="-156.23" font-family="Helvetica,sans-Serif" font-size="10.00">UInputHelper::populateXVk</text>
<text text-anchor="middle" x="1675.5" y="-145.23" font-family="Helvetica,sans-Serif" font-size="10.00">Strings</text>
</a>
</g>
</g>
<!-- Node27&#45;&gt;Node30 -->
<g id="edge34" class="edge">
<title>Node27&#45;&gt;Node30</title>
<path fill="none" stroke="midnightblue" d="M1494,-235.96C1516.54,-219.76 1554.32,-194.33 1590,-178.23 1595.27,-175.86 1600.83,-173.64 1606.47,-171.58"/>
<polygon fill="midnightblue" stroke="midnightblue" points="1607.71,-174.85 1616.01,-168.27 1605.42,-168.24 1607.71,-174.85"/>
</g>
</g>
</svg>
