<?xml version="1.0" encoding="UTF-8" standalone="no"?>
<!DOCTYPE svg PUBLIC "-//W3C//DTD SVG 1.1//EN"
 "http://www.w3.org/Graphics/SVG/1.1/DTD/svg11.dtd">
<!-- Generated by graphviz version 2.43.0 (0)
 -->
<!-- Title: JoyControlStickPushButton Pages: 1 -->
<!--zoomable 862 -->
<svg id="main" version="1.1" xmlns="http://www.w3.org/2000/svg" xmlns:xlink="http://www.w3.org/1999/xlink" xml:space="preserve" onload="init(evt)">
<style type="text/css"><![CDATA[
.edge:hover path { stroke: red; }
.edge:hover polygon { stroke: red; fill: red; }
]]></style>
<script type="text/javascript"><![CDATA[
var edges = document.getElementsByTagName('g');
if (edges && edges.length) {
  for (var i=0;i<edges.length;i++) {
    if (edges[i].id.substr(0,4)=='edge') {
      edges[i].setAttribute('class','edge');
    }
  }
}
]]></script>
        <defs>
                <circle id="rim" cx="0" cy="0" r="7"/>
                <circle id="rim2" cx="0" cy="0" r="3.5"/>
                <g id="zoomPlus">
                        <use xlink:href="#rim" fill="#404040">
                                <set attributeName="fill" to="#808080" begin="zoomplus.mouseover" end="zoomplus.mouseout"/>
                        </use>
                        <path d="M-4,0h8M0,-4v8" fill="none" stroke="white" stroke-width="1.5" pointer-events="none"/>
                </g>
                <g id="zoomMin">
                        <use xlink:href="#rim" fill="#404040">
                                <set attributeName="fill" to="#808080" begin="zoomminus.mouseover" end="zoomminus.mouseout"/>
                        </use>
                        <path d="M-4,0h8" fill="none" stroke="white" stroke-width="1.5" pointer-events="none"/>
                </g>
                <g id="dirArrow">
                        <path fill="none" stroke="white" stroke-width="1.5" d="M0,-3.0v7 M-2.5,-0.5L0,-3.0L2.5,-0.5"/>
                </g>
               <g id="resetDef">
                       <use xlink:href="#rim2" fill="#404040">
                               <set attributeName="fill" to="#808080" begin="reset.mouseover" end="reset.mouseout"/>
                       </use>
               </g>
        </defs>

<script type="text/javascript">
var viewWidth = 2304;
var viewHeight = 862;
var sectionId = 'dynsection-1';
</script>
<script xlink:href="svgpan.js"/>
<svg id="graph" class="graph">
<g id="viewport">
<title>JoyControlStickPushButton</title>
<polygon fill="white" stroke="transparent" points="-4,4 -4,-858 2300,-858 2300,4 -4,4"/>
<!-- Node1 -->
<g id="node1" class="node">
<title>Node1</title>
<g id="a_node1"><a xlink:title=" ">
<polygon fill="#bfbfbf" stroke="black" points="597,-824.5 597,-843.5 743,-843.5 743,-824.5 597,-824.5"/>
<text text-anchor="middle" x="670" y="-831.5" font-family="Helvetica,sans-Serif" font-size="10.00">JoyControlStickPushButton</text>
</a>
</g>
</g>
<!-- Node2 -->
<g id="node2" class="node">
<title>Node2</title>
<g id="a_node2"><a xlink:href="classFlashButtonWidget.html" target="_top" xlink:title=" ">
<polygon fill="white" stroke="black" points="323,-834.5 323,-853.5 433,-853.5 433,-834.5 323,-834.5"/>
<text text-anchor="middle" x="378" y="-841.5" font-family="Helvetica,sans-Serif" font-size="10.00">FlashButtonWidget</text>
</a>
</g>
</g>
<!-- Node2&#45;&gt;Node1 -->
<g id="edge1" class="edge">
<title>Node2&#45;&gt;Node1</title>
<path fill="none" stroke="midnightblue" d="M443.25,-841.78C488.76,-840.22 549.84,-838.11 596.99,-836.48"/>
<polygon fill="midnightblue" stroke="midnightblue" points="443.08,-838.29 433.21,-842.13 443.32,-845.28 443.08,-838.29"/>
</g>
<!-- Node3 -->
<g id="node3" class="node">
<title>Node3</title>
<g id="a_node3"><a xlink:title=" ">
<polygon fill="white" stroke="#bfbfbf" points="125,-834.5 125,-853.5 205,-853.5 205,-834.5 125,-834.5"/>
<text text-anchor="middle" x="165" y="-841.5" font-family="Helvetica,sans-Serif" font-size="10.00">QPushButton</text>
</a>
</g>
</g>
<!-- Node3&#45;&gt;Node2 -->
<g id="edge2" class="edge">
<title>Node3&#45;&gt;Node2</title>
<path fill="none" stroke="midnightblue" d="M215.3,-844C247.56,-844 289.72,-844 322.9,-844"/>
<polygon fill="midnightblue" stroke="midnightblue" points="215.19,-840.5 205.19,-844 215.19,-847.5 215.19,-840.5"/>
</g>
<!-- Node4 -->
<g id="node4" class="node">
<title>Node4</title>
<g id="a_node4"><a xlink:href="classJoyControlStick.html" target="_top" xlink:title="Represents stick of a joystick.">
<polygon fill="white" stroke="black" points="332.5,-681.5 332.5,-700.5 423.5,-700.5 423.5,-681.5 332.5,-681.5"/>
<text text-anchor="middle" x="378" y="-688.5" font-family="Helvetica,sans-Serif" font-size="10.00">JoyControlStick</text>
</a>
</g>
</g>
<!-- Node4&#45;&gt;Node1 -->
<g id="edge3" class="edge">
<title>Node4&#45;&gt;Node1</title>
<path fill="none" stroke="#9a32cd" stroke-dasharray="5,2" d="M386.59,-710.29C397.17,-734.48 418.77,-775.29 451,-796 463.42,-803.98 539.56,-816.08 598.39,-824.48"/>
<polygon fill="#9a32cd" stroke="#9a32cd" points="389.69,-708.64 382.62,-700.76 383.23,-711.34 389.69,-708.64"/>
<text text-anchor="middle" x="515" y="-823" font-family="Helvetica,sans-Serif" font-size="10.00"> stick</text>
</g>
<!-- Node7 -->
<g id="node7" class="node">
<title>Node7</title>
<g id="a_node7"><a xlink:href="classJoyControlStickModifierButton.html" target="_top" xlink:title=" ">
<polygon fill="white" stroke="black" points="2133,-631.5 2133,-650.5 2296,-650.5 2296,-631.5 2133,-631.5"/>
<text text-anchor="middle" x="2214.5" y="-638.5" font-family="Helvetica,sans-Serif" font-size="10.00">JoyControlStickModifierButton</text>
</a>
</g>
</g>
<!-- Node4&#45;&gt;Node7 -->
<g id="edge42" class="edge">
<title>Node4&#45;&gt;Node7</title>
<path fill="none" stroke="#9a32cd" stroke-dasharray="5,2" d="M434.04,-679.45C492.16,-668.27 586.61,-653 669,-653 669,-653 669,-653 1181,-653 1535.72,-653 1958.95,-645.83 2132.85,-642.57"/>
<polygon fill="#9a32cd" stroke="#9a32cd" points="433.11,-676.06 423.97,-681.41 434.45,-682.93 433.11,-676.06"/>
<text text-anchor="middle" x="1406" y="-655" font-family="Helvetica,sans-Serif" font-size="10.00"> stick</text>
</g>
<!-- Node17 -->
<g id="node17" class="node">
<title>Node17</title>
<g id="a_node17"><a xlink:href="classJoyAxis.html" target="_top" xlink:title="Represents single axis of of joystick (or other input)">
<polygon fill="white" stroke="black" points="643.5,-234.5 643.5,-253.5 696.5,-253.5 696.5,-234.5 643.5,-234.5"/>
<text text-anchor="middle" x="670" y="-241.5" font-family="Helvetica,sans-Serif" font-size="10.00">JoyAxis</text>
</a>
</g>
</g>
<!-- Node4&#45;&gt;Node17 -->
<g id="edge29" class="edge">
<title>Node4&#45;&gt;Node17</title>
<path fill="none" stroke="#9a32cd" stroke-dasharray="5,2" d="M394,-673.79C429.12,-633 518.29,-526.46 579,-428 618.19,-364.43 653.65,-281.34 665.12,-253.53"/>
<polygon fill="#9a32cd" stroke="#9a32cd" points="391.26,-671.62 387.36,-681.47 396.55,-676.2 391.26,-671.62"/>
<text text-anchor="middle" x="515" y="-604" font-family="Helvetica,sans-Serif" font-size="10.00"> m_stick</text>
</g>
<!-- Node25 -->
<g id="node25" class="node">
<title>Node25</title>
<g id="a_node25"><a xlink:href="classJoyControlStickButton.html" target="_top" xlink:title=" ">
<polygon fill="white" stroke="black" points="2153,-719.5 2153,-738.5 2276,-738.5 2276,-719.5 2153,-719.5"/>
<text text-anchor="middle" x="2214.5" y="-726.5" font-family="Helvetica,sans-Serif" font-size="10.00">JoyControlStickButton</text>
</a>
</g>
</g>
<!-- Node4&#45;&gt;Node25 -->
<g id="edge45" class="edge">
<title>Node4&#45;&gt;Node25</title>
<path fill="none" stroke="#9a32cd" stroke-dasharray="5,2" d="M403.28,-705.64C416.93,-713.41 434.5,-722.63 451,-729 544.32,-765.04 568.97,-785 669,-785 669,-785 669,-785 2044,-785 2102.26,-785 2166.37,-754.8 2196.31,-738.75"/>
<polygon fill="#9a32cd" stroke="#9a32cd" points="404.92,-702.55 394.51,-700.56 401.4,-708.6 404.92,-702.55"/>
<text text-anchor="middle" x="1406" y="-788" font-family="Helvetica,sans-Serif" font-size="10.00"> stick</text>
</g>
<!-- Node5 -->
<g id="node5" class="node">
<title>Node5</title>
<g id="a_node5"><a xlink:title=" ">
<polygon fill="white" stroke="#bfbfbf" points="137,-342.5 137,-361.5 193,-361.5 193,-342.5 137,-342.5"/>
<text text-anchor="middle" x="165" y="-349.5" font-family="Helvetica,sans-Serif" font-size="10.00">QObject</text>
</a>
</g>
</g>
<!-- Node5&#45;&gt;Node4 -->
<g id="edge4" class="edge">
<title>Node5&#45;&gt;Node4</title>
<path fill="none" stroke="midnightblue" d="M175.46,-370.84C189.99,-399.46 219.08,-455.37 247,-501 290.59,-572.26 349.65,-653.8 369.87,-681.34"/>
<polygon fill="midnightblue" stroke="midnightblue" points="178.42,-368.95 170.79,-361.6 172.18,-372.11 178.42,-368.95"/>
</g>
<!-- Node9 -->
<g id="node9" class="node">
<title>Node9</title>
<g id="a_node9"><a xlink:href="classJoyButton.html" target="_top" xlink:title="Represents a single joystick button being part of a SetJoystick Contains multiple JoyButtonSlots whic...">
<polygon fill="white" stroke="black" points="1824,-419.5 1824,-438.5 1888,-438.5 1888,-419.5 1824,-419.5"/>
<text text-anchor="middle" x="1856" y="-426.5" font-family="Helvetica,sans-Serif" font-size="10.00">JoyButton</text>
</a>
</g>
</g>
<!-- Node5&#45;&gt;Node9 -->
<g id="edge9" class="edge">
<title>Node5&#45;&gt;Node9</title>
<path fill="none" stroke="midnightblue" d="M186.2,-368.12C222.26,-395.23 301.08,-447 377,-447 377,-447 377,-447 1656,-447 1715.49,-447 1784.58,-438.92 1823.71,-433.59"/>
<polygon fill="midnightblue" stroke="midnightblue" points="188.04,-365.12 177.98,-361.81 183.78,-370.68 188.04,-365.12"/>
</g>
<!-- Node10 -->
<g id="node10" class="node">
<title>Node10</title>
<g id="a_node10"><a xlink:href="classJoyButtonMouseHelper.html" target="_top" xlink:title=" ">
<polygon fill="white" stroke="black" points="451,-399.5 451,-418.5 579,-418.5 579,-399.5 451,-399.5"/>
<text text-anchor="middle" x="515" y="-406.5" font-family="Helvetica,sans-Serif" font-size="10.00">JoyButtonMouseHelper</text>
</a>
</g>
</g>
<!-- Node5&#45;&gt;Node10 -->
<g id="edge11" class="edge">
<title>Node5&#45;&gt;Node10</title>
<path fill="none" stroke="midnightblue" d="M194.16,-365.89C209.43,-372.8 228.84,-380.59 247,-385 315.4,-401.61 396.18,-406.97 450.83,-408.58"/>
<polygon fill="midnightblue" stroke="midnightblue" points="195.32,-362.57 184.78,-361.52 192.37,-368.92 195.32,-362.57"/>
</g>
<!-- Node11 -->
<g id="node11" class="node">
<title>Node11</title>
<g id="a_node11"><a xlink:href="classJoyButtonSlot.html" target="_top" xlink:title="Represents action which can be performed after pressing button.">
<polygon fill="white" stroke="black" points="761,-479.5 761,-498.5 844,-498.5 844,-479.5 761,-479.5"/>
<text text-anchor="middle" x="802.5" y="-486.5" font-family="Helvetica,sans-Serif" font-size="10.00">JoyButtonSlot</text>
</a>
</g>
</g>
<!-- Node5&#45;&gt;Node11 -->
<g id="edge13" class="edge">
<title>Node5&#45;&gt;Node11</title>
<path fill="none" stroke="midnightblue" d="M173.76,-370.88C185.42,-396.48 210.09,-441.26 247,-461 335.72,-508.44 648.45,-497.13 760.87,-491.34"/>
<polygon fill="midnightblue" stroke="midnightblue" points="176.88,-369.28 169.69,-361.51 170.46,-372.07 176.88,-369.28"/>
</g>
<!-- Node13 -->
<g id="node13" class="node">
<title>Node13</title>
<g id="a_node13"><a xlink:href="classJoyDPad.html" target="_top" xlink:title=" ">
<polygon fill="white" stroke="black" points="1465.5,-201.5 1465.5,-220.5 1521.5,-220.5 1521.5,-201.5 1465.5,-201.5"/>
<text text-anchor="middle" x="1493.5" y="-208.5" font-family="Helvetica,sans-Serif" font-size="10.00">JoyDPad</text>
</a>
</g>
</g>
<!-- Node5&#45;&gt;Node13 -->
<g id="edge16" class="edge">
<title>Node5&#45;&gt;Node13</title>
<path fill="none" stroke="midnightblue" d="M203.31,-346.6C245.4,-340.98 315.97,-333 377,-333 377,-333 377,-333 1293,-333 1314.52,-333 1437.21,-249.33 1478.75,-220.57"/>
<polygon fill="midnightblue" stroke="midnightblue" points="202.68,-343.15 193.24,-347.97 203.62,-350.09 202.68,-343.15"/>
</g>
<!-- Node15 -->
<g id="node15" class="node">
<title>Node15</title>
<g id="a_node15"><a xlink:href="classSetJoystickXml.html" target="_top" xlink:title="SetJoystick XML serialization/deserialization helper class Reads data from the supplied SetJoystick o...">
<polygon fill="white" stroke="black" points="1036,-179.5 1036,-198.5 1126,-198.5 1126,-179.5 1036,-179.5"/>
<text text-anchor="middle" x="1081" y="-186.5" font-family="Helvetica,sans-Serif" font-size="10.00">SetJoystickXml</text>
</a>
</g>
</g>
<!-- Node5&#45;&gt;Node15 -->
<g id="edge19" class="edge">
<title>Node5&#45;&gt;Node15</title>
<path fill="none" stroke="midnightblue" d="M167.42,-331.97C171.6,-287.58 187.63,-179.96 247,-118 272.12,-91.78 287.33,-94.79 323,-88 606.95,-33.99 956.24,-145.21 1053.68,-179.41"/>
<polygon fill="midnightblue" stroke="midnightblue" points="163.92,-331.8 166.57,-342.05 170.89,-332.38 163.92,-331.8"/>
</g>
<!-- Node16 -->
<g id="node16" class="node">
<title>Node16</title>
<g id="a_node16"><a xlink:href="classJoyAxisXml.html" target="_top" xlink:title=" ">
<polygon fill="white" stroke="black" points="862,-179.5 862,-198.5 934,-198.5 934,-179.5 862,-179.5"/>
<text text-anchor="middle" x="898" y="-186.5" font-family="Helvetica,sans-Serif" font-size="10.00">JoyAxisXml</text>
</a>
</g>
</g>
<!-- Node5&#45;&gt;Node16 -->
<g id="edge22" class="edge">
<title>Node5&#45;&gt;Node16</title>
<path fill="none" stroke="midnightblue" d="M187.78,-336.43C203.67,-325.54 226,-311.19 247,-301 279.25,-285.36 288.44,-283.52 323,-274 514.35,-221.31 563.48,-206.43 761,-187 795.19,-183.64 834.45,-184.74 861.97,-186.32"/>
<polygon fill="midnightblue" stroke="midnightblue" points="185.44,-333.8 179.23,-342.38 189.44,-339.54 185.44,-333.8"/>
</g>
<!-- Node5&#45;&gt;Node17 -->
<g id="edge24" class="edge">
<title>Node5&#45;&gt;Node17</title>
<path fill="none" stroke="midnightblue" d="M195.56,-338.2C210.68,-331.6 229.53,-324.05 247,-319 393.9,-276.54 576.89,-253.92 643.36,-246.65"/>
<polygon fill="midnightblue" stroke="midnightblue" points="193.92,-335.1 186.22,-342.37 196.78,-341.49 193.92,-335.1"/>
</g>
<!-- Node19 -->
<g id="node19" class="node">
<title>Node19</title>
<g id="a_node19"><a xlink:href="classJoyButtonXml.html" target="_top" xlink:title=" ">
<polygon fill="white" stroke="black" points="2001.5,-361.5 2001.5,-380.5 2084.5,-380.5 2084.5,-361.5 2001.5,-361.5"/>
<text text-anchor="middle" x="2043" y="-368.5" font-family="Helvetica,sans-Serif" font-size="10.00">JoyButtonXml</text>
</a>
</g>
</g>
<!-- Node5&#45;&gt;Node19 -->
<g id="edge31" class="edge">
<title>Node5&#45;&gt;Node19</title>
<path fill="none" stroke="midnightblue" d="M203.31,-357.4C245.4,-363.02 315.97,-371 377,-371 377,-371 377,-371 1857,-371 1906.62,-371 1963.73,-371 2001.22,-371"/>
<polygon fill="midnightblue" stroke="midnightblue" points="203.62,-353.91 193.24,-356.03 202.68,-360.85 203.62,-353.91"/>
</g>
<!-- Node20 -->
<g id="node20" class="node">
<title>Node20</title>
<g id="a_node20"><a xlink:href="classInputDevice.html" target="_top" xlink:title="Abstract class representing a hardware input device, e.g a joystick or controller.">
<polygon fill="white" stroke="black" points="340.5,-97.5 340.5,-116.5 415.5,-116.5 415.5,-97.5 340.5,-97.5"/>
<text text-anchor="middle" x="378" y="-104.5" font-family="Helvetica,sans-Serif" font-size="10.00">InputDevice</text>
</a>
</g>
</g>
<!-- Node5&#45;&gt;Node20 -->
<g id="edge34" class="edge">
<title>Node5&#45;&gt;Node20</title>
<path fill="none" stroke="midnightblue" d="M168.62,-332.16C174.89,-292.57 194.33,-203.27 247,-153 272.46,-128.7 311.54,-117.14 340.21,-111.7"/>
<polygon fill="midnightblue" stroke="midnightblue" points="165.15,-331.74 167.16,-342.14 172.08,-332.75 165.15,-331.74"/>
</g>
<!-- Node6 -->
<g id="node6" class="node">
<title>Node6</title>
<g id="a_node6"><a xlink:href="classJoyStickDirectionsType.html" target="_top" xlink:title=" ">
<polygon fill="white" stroke="black" points="101,-681.5 101,-700.5 229,-700.5 229,-681.5 101,-681.5"/>
<text text-anchor="middle" x="165" y="-688.5" font-family="Helvetica,sans-Serif" font-size="10.00">JoyStickDirectionsType</text>
</a>
</g>
</g>
<!-- Node6&#45;&gt;Node4 -->
<g id="edge5" class="edge">
<title>Node6&#45;&gt;Node4</title>
<path fill="none" stroke="midnightblue" d="M239.35,-691C270.32,-691 305.39,-691 332.37,-691"/>
<polygon fill="midnightblue" stroke="midnightblue" points="239.02,-687.5 229.02,-691 239.02,-694.5 239.02,-687.5"/>
</g>
<!-- Node7&#45;&gt;Node4 -->
<g id="edge6" class="edge">
<title>Node7&#45;&gt;Node4</title>
<path fill="none" stroke="#9a32cd" stroke-dasharray="5,2" d="M2184.71,-654.99C2151.59,-669.79 2095.16,-691 2044,-691 669,-691 669,-691 669,-691 582.15,-691 480.67,-691 423.71,-691"/>
<polygon fill="#9a32cd" stroke="#9a32cd" points="2186.58,-657.99 2194.22,-650.64 2183.67,-651.62 2186.58,-657.99"/>
<text text-anchor="middle" x="1406" y="-694" font-family="Helvetica,sans-Serif" font-size="10.00"> modifierButton</text>
</g>
<!-- Node8 -->
<g id="node8" class="node">
<title>Node8</title>
<g id="a_node8"><a xlink:href="classJoyGradientButton.html" target="_top" xlink:title=" ">
<polygon fill="white" stroke="black" points="1990,-530.5 1990,-549.5 2096,-549.5 2096,-530.5 1990,-530.5"/>
<text text-anchor="middle" x="2043" y="-537.5" font-family="Helvetica,sans-Serif" font-size="10.00">JoyGradientButton</text>
</a>
</g>
</g>
<!-- Node8&#45;&gt;Node7 -->
<g id="edge7" class="edge">
<title>Node8&#45;&gt;Node7</title>
<path fill="none" stroke="midnightblue" d="M2068.67,-554.7C2103.93,-575.71 2167.76,-613.74 2197.47,-631.45"/>
<polygon fill="midnightblue" stroke="midnightblue" points="2070.33,-551.61 2059.95,-549.5 2066.75,-557.63 2070.33,-551.61"/>
</g>
<!-- Node18 -->
<g id="node18" class="node">
<title>Node18</title>
<g id="a_node18"><a xlink:href="classJoyAxisButton.html" target="_top" xlink:title=" ">
<polygon fill="white" stroke="black" points="2172,-247.5 2172,-266.5 2257,-266.5 2257,-247.5 2172,-247.5"/>
<text text-anchor="middle" x="2214.5" y="-254.5" font-family="Helvetica,sans-Serif" font-size="10.00">JoyAxisButton</text>
</a>
</g>
</g>
<!-- Node8&#45;&gt;Node18 -->
<g id="edge27" class="edge">
<title>Node8&#45;&gt;Node18</title>
<path fill="none" stroke="midnightblue" d="M2055,-521.63C2087.64,-467.14 2183.14,-307.7 2207.69,-266.7"/>
<polygon fill="midnightblue" stroke="midnightblue" points="2051.97,-519.88 2049.83,-530.26 2057.98,-523.48 2051.97,-519.88"/>
</g>
<!-- Node8&#45;&gt;Node25 -->
<g id="edge44" class="edge">
<title>Node8&#45;&gt;Node25</title>
<path fill="none" stroke="midnightblue" d="M2055.61,-558.18C2071.59,-582.57 2101.93,-626.66 2133,-660 2154.71,-683.3 2183.84,-706.62 2200.45,-719.29"/>
<polygon fill="midnightblue" stroke="midnightblue" points="2058.41,-556.07 2050.04,-549.58 2052.54,-559.88 2058.41,-556.07"/>
</g>
<!-- Node9&#45;&gt;Node8 -->
<g id="edge8" class="edge">
<title>Node9&#45;&gt;Node8</title>
<path fill="none" stroke="midnightblue" d="M1882.15,-444.09C1920.84,-467.31 1993.88,-511.13 2026.08,-530.45"/>
<polygon fill="midnightblue" stroke="midnightblue" points="1883.47,-440.8 1873.09,-438.66 1879.87,-446.8 1883.47,-440.8"/>
</g>
<!-- Node9&#45;&gt;Node19 -->
<g id="edge32" class="edge">
<title>Node9&#45;&gt;Node19</title>
<path fill="none" stroke="#9a32cd" stroke-dasharray="5,2" d="M1898.48,-423.99C1920.69,-420.59 1948.28,-415.18 1972,-407 1991.64,-400.23 2012.63,-388.81 2026.45,-380.64"/>
<polygon fill="#9a32cd" stroke="#9a32cd" points="1897.77,-420.56 1888.38,-425.46 1898.78,-427.49 1897.77,-420.56"/>
<text text-anchor="middle" x="1939" y="-426" font-family="Helvetica,sans-Serif" font-size="10.00"> m_joyButton</text>
</g>
<!-- Node24 -->
<g id="node24" class="node">
<title>Node24</title>
<g id="a_node24"><a xlink:href="classJoyDPadButton.html" target="_top" xlink:title=" ">
<polygon fill="white" stroke="black" points="1998.5,-209.5 1998.5,-228.5 2087.5,-228.5 2087.5,-209.5 1998.5,-209.5"/>
<text text-anchor="middle" x="2043" y="-216.5" font-family="Helvetica,sans-Serif" font-size="10.00">JoyDPadButton</text>
</a>
</g>
</g>
<!-- Node9&#45;&gt;Node24 -->
<g id="edge40" class="edge">
<title>Node9&#45;&gt;Node24</title>
<path fill="none" stroke="midnightblue" d="M1872.06,-411.91C1909.25,-369.69 2004.55,-261.51 2033.52,-228.63"/>
<polygon fill="midnightblue" stroke="midnightblue" points="1869.41,-409.61 1865.43,-419.43 1874.67,-414.24 1869.41,-409.61"/>
</g>
<!-- Node10&#45;&gt;Node9 -->
<g id="edge10" class="edge">
<title>Node10&#45;&gt;Node9</title>
<path fill="none" stroke="#9a32cd" stroke-dasharray="5,2" d="M589.33,-409C647,-409 729.37,-409 801.5,-409 801.5,-409 801.5,-409 1656,-409 1715.55,-409 1784.62,-417.98 1823.73,-423.9"/>
<polygon fill="#9a32cd" stroke="#9a32cd" points="589.22,-405.5 579.22,-409 589.22,-412.5 589.22,-405.5"/>
<text text-anchor="middle" x="1180" y="-412" font-family="Helvetica,sans-Serif" font-size="10.00"> mouseHelper</text>
</g>
<!-- Node11&#45;&gt;Node9 -->
<g id="edge12" class="edge">
<title>Node11&#45;&gt;Node9</title>
<path fill="none" stroke="#9a32cd" stroke-dasharray="5,2" d="M854.65,-490.74C890.78,-491.82 940.35,-493 984,-493 984,-493 984,-493 1656,-493 1724.17,-493 1743.07,-487.19 1806,-461 1819.51,-455.38 1833.32,-445.96 1842.83,-438.79"/>
<polygon fill="#9a32cd" stroke="#9a32cd" points="854.46,-487.23 844.36,-490.42 854.24,-494.23 854.46,-487.23"/>
<text text-anchor="middle" x="1292" y="-617" font-family="Helvetica,sans-Serif" font-size="10.00"> currentDelay</text>
<text text-anchor="middle" x="1292" y="-606" font-family="Helvetica,sans-Serif" font-size="10.00">lastActiveKey</text>
<text text-anchor="middle" x="1292" y="-595" font-family="Helvetica,sans-Serif" font-size="10.00">currentSetChangeSlot</text>
<text text-anchor="middle" x="1292" y="-584" font-family="Helvetica,sans-Serif" font-size="10.00">currentKeyPress</text>
<text text-anchor="middle" x="1292" y="-573" font-family="Helvetica,sans-Serif" font-size="10.00">currentRelease</text>
<text text-anchor="middle" x="1292" y="-562" font-family="Helvetica,sans-Serif" font-size="10.00">currentCycle</text>
<text text-anchor="middle" x="1292" y="-551" font-family="Helvetica,sans-Serif" font-size="10.00">previousCycle</text>
<text text-anchor="middle" x="1292" y="-540" font-family="Helvetica,sans-Serif" font-size="10.00">m_currentDistance</text>
<text text-anchor="middle" x="1292" y="-529" font-family="Helvetica,sans-Serif" font-size="10.00">currentPause</text>
<text text-anchor="start" x="1234" y="-518" font-family="Helvetica,sans-Serif" font-size="10.00">currentWheelHorizontal</text>
<text text-anchor="middle" x="1292" y="-507" font-family="Helvetica,sans-Serif" font-size="10.00">Event</text>
<text text-anchor="middle" x="1292" y="-496" font-family="Helvetica,sans-Serif" font-size="10.00">...</text>
</g>
<!-- Node12 -->
<g id="node12" class="node">
<title>Node12</title>
<g id="a_node12"><a xlink:href="classVDPad.html" target="_top" xlink:title=" ">
<polygon fill="white" stroke="black" points="1631,-323.5 1631,-342.5 1679,-342.5 1679,-323.5 1631,-323.5"/>
<text text-anchor="middle" x="1655" y="-330.5" font-family="Helvetica,sans-Serif" font-size="10.00">VDPad</text>
</a>
</g>
</g>
<!-- Node12&#45;&gt;Node9 -->
<g id="edge14" class="edge">
<title>Node12&#45;&gt;Node9</title>
<path fill="none" stroke="#9a32cd" stroke-dasharray="5,2" d="M1689.15,-340.07C1720.72,-347.74 1768.8,-361.94 1806,-384 1822.29,-393.66 1837.82,-409.41 1846.88,-419.49"/>
<polygon fill="#9a32cd" stroke="#9a32cd" points="1689.65,-336.59 1679.11,-337.71 1688.05,-343.4 1689.65,-336.59"/>
<text text-anchor="middle" x="1751.5" y="-387" font-family="Helvetica,sans-Serif" font-size="10.00"> m_vdpad</text>
</g>
<!-- Node13&#45;&gt;Node12 -->
<g id="edge15" class="edge">
<title>Node13&#45;&gt;Node12</title>
<path fill="none" stroke="midnightblue" d="M1518.44,-227.1C1520.92,-229.51 1523.19,-232.16 1525,-235 1543.68,-264.26 1518.01,-286.91 1543,-311 1566.34,-333.49 1605.7,-336.13 1630.74,-335.16"/>
<polygon fill="midnightblue" stroke="midnightblue" points="1520.55,-224.29 1510.63,-220.55 1516.05,-229.66 1520.55,-224.29"/>
</g>
<!-- Node13&#45;&gt;Node24 -->
<g id="edge41" class="edge">
<title>Node13&#45;&gt;Node24</title>
<path fill="none" stroke="#9a32cd" stroke-dasharray="5,2" d="M1531.66,-211.54C1629.48,-212.97 1893.7,-216.83 1998.41,-218.36"/>
<polygon fill="#9a32cd" stroke="#9a32cd" points="1531.7,-208.04 1521.65,-211.4 1531.6,-215.04 1531.7,-208.04"/>
<text text-anchor="middle" x="1751.5" y="-219" font-family="Helvetica,sans-Serif" font-size="10.00"> m_dpad</text>
</g>
<!-- Node14 -->
<g id="node14" class="node">
<title>Node14</title>
<g id="a_node14"><a xlink:href="classSetJoystick.html" target="_top" xlink:title="A set of mapped events which can by switched by a controller event. Contains controller input objects...">
<polygon fill="white" stroke="black" points="1256.5,-191.5 1256.5,-210.5 1327.5,-210.5 1327.5,-191.5 1256.5,-191.5"/>
<text text-anchor="middle" x="1292" y="-198.5" font-family="Helvetica,sans-Serif" font-size="10.00">SetJoystick</text>
</a>
</g>
</g>
<!-- Node14&#45;&gt;Node13 -->
<g id="edge17" class="edge">
<title>Node14&#45;&gt;Node13</title>
<path fill="none" stroke="#9a32cd" stroke-dasharray="5,2" d="M1337.84,-203.25C1377.07,-205.21 1432.75,-208 1465.5,-209.65"/>
<polygon fill="#9a32cd" stroke="#9a32cd" points="1337.91,-199.75 1327.75,-202.74 1337.56,-206.74 1337.91,-199.75"/>
<text text-anchor="middle" x="1406" y="-212" font-family="Helvetica,sans-Serif" font-size="10.00"> m_parentSet</text>
</g>
<!-- Node14&#45;&gt;Node15 -->
<g id="edge20" class="edge">
<title>Node14&#45;&gt;Node15</title>
<path fill="none" stroke="#9a32cd" stroke-dasharray="5,2" d="M1246.23,-198.43C1210.73,-196.39 1161.38,-193.56 1126.07,-191.53"/>
<polygon fill="#9a32cd" stroke="#9a32cd" points="1246.13,-201.93 1256.31,-199.01 1246.53,-194.94 1246.13,-201.93"/>
<text text-anchor="middle" x="1180" y="-200" font-family="Helvetica,sans-Serif" font-size="10.00"> m_setJoystick</text>
</g>
<!-- Node14&#45;&gt;Node17 -->
<g id="edge25" class="edge">
<title>Node14&#45;&gt;Node17</title>
<path fill="none" stroke="#9a32cd" stroke-dasharray="5,2" d="M1246.25,-208.21C1236.31,-209.63 1225.81,-210.99 1216,-212 1016.58,-232.44 774.68,-240.95 696.6,-243.29"/>
<polygon fill="#9a32cd" stroke="#9a32cd" points="1246.97,-211.65 1256.35,-206.72 1245.95,-204.72 1246.97,-211.65"/>
<text text-anchor="middle" x="985" y="-236" font-family="Helvetica,sans-Serif" font-size="10.00"> m_parentSet</text>
</g>
<!-- Node15&#45;&gt;Node14 -->
<g id="edge18" class="edge">
<title>Node15&#45;&gt;Node14</title>
<path fill="none" stroke="midnightblue" d="M1136.34,-182.51C1138.93,-182.31 1141.49,-182.14 1144,-182 1175.95,-180.2 1184.25,-178.04 1216,-182 1230.93,-183.86 1247.15,-187.73 1260.68,-191.5"/>
<polygon fill="midnightblue" stroke="midnightblue" points="1135.97,-179.03 1126.32,-183.38 1136.58,-186 1135.97,-179.03"/>
</g>
<!-- Node16&#45;&gt;Node15 -->
<g id="edge21" class="edge">
<title>Node16&#45;&gt;Node15</title>
<path fill="none" stroke="#9a32cd" stroke-dasharray="5,2" d="M944.63,-189C972.56,-189 1008.12,-189 1035.79,-189"/>
<polygon fill="#9a32cd" stroke="#9a32cd" points="944.33,-185.5 934.33,-189 944.33,-192.5 944.33,-185.5"/>
<text text-anchor="middle" x="985" y="-192" font-family="Helvetica,sans-Serif" font-size="10.00"> joyAxisXml</text>
</g>
<!-- Node17&#45;&gt;Node16 -->
<g id="edge23" class="edge">
<title>Node17&#45;&gt;Node16</title>
<path fill="none" stroke="#9a32cd" stroke-dasharray="5,2" d="M696.28,-229.35C713.85,-219.89 738.12,-208.23 761,-202 794.41,-192.9 833.95,-189.95 861.76,-189.1"/>
<polygon fill="#9a32cd" stroke="#9a32cd" points="694.33,-226.43 687.27,-234.32 697.71,-232.55 694.33,-226.43"/>
<text text-anchor="middle" x="802.5" y="-205" font-family="Helvetica,sans-Serif" font-size="10.00"> m_joyAxis</text>
</g>
<!-- Node17&#45;&gt;Node18 -->
<g id="edge28" class="edge">
<title>Node17&#45;&gt;Node18</title>
<path fill="none" stroke="#9a32cd" stroke-dasharray="5,2" d="M706.87,-247.35C723.34,-248.75 743.15,-250.22 761,-251 1046.96,-263.44 1118.77,-257 1405,-257 1405,-257 1405,-257 2044,-257 2087.55,-257 2137.4,-257 2171.71,-257"/>
<polygon fill="#9a32cd" stroke="#9a32cd" points="706.84,-243.84 696.58,-246.46 706.23,-250.81 706.84,-243.84"/>
<text text-anchor="middle" x="1493.5" y="-260" font-family="Helvetica,sans-Serif" font-size="10.00"> m_axis</text>
</g>
<!-- Node18&#45;&gt;Node17 -->
<g id="edge26" class="edge">
<title>Node18&#45;&gt;Node17</title>
<path fill="none" stroke="#9a32cd" stroke-dasharray="5,2" d="M2199.76,-239.16C2173.36,-207.09 2112.07,-143 2044,-143 1291,-143 1291,-143 1291,-143 1099.96,-143 1051.79,-148.12 862,-170 816.78,-175.21 803.51,-170.72 761,-187 730.43,-198.71 699.11,-221.47 682.69,-234.41"/>
<polygon fill="#9a32cd" stroke="#9a32cd" points="2197.28,-241.66 2206.26,-247.28 2202.74,-237.29 2197.28,-241.66"/>
<text text-anchor="middle" x="1493.5" y="-168" font-family="Helvetica,sans-Serif" font-size="10.00"> paxisbutton</text>
<text text-anchor="middle" x="1493.5" y="-157" font-family="Helvetica,sans-Serif" font-size="10.00">activeButton</text>
<text text-anchor="middle" x="1493.5" y="-146" font-family="Helvetica,sans-Serif" font-size="10.00">naxisbutton</text>
</g>
<!-- Node19&#45;&gt;Node15 -->
<g id="edge30" class="edge">
<title>Node19&#45;&gt;Node15</title>
<path fill="none" stroke="#9a32cd" stroke-dasharray="5,2" d="M1991.28,-360.53C1984.8,-359.29 1978.25,-358.08 1972,-357 1842.32,-334.53 1809.3,-332.57 1679,-314 1540.86,-294.31 1504.83,-298.38 1368,-271 1267.05,-250.8 1242.16,-243.05 1144,-212 1131.3,-207.98 1117.38,-202.88 1105.95,-198.51"/>
<polygon fill="#9a32cd" stroke="#9a32cd" points="1990.86,-364.02 2001.35,-362.5 1992.21,-357.15 1990.86,-364.02"/>
<text text-anchor="middle" x="1578" y="-309" font-family="Helvetica,sans-Serif" font-size="10.00"> joyButtonXml</text>
</g>
<!-- Node20&#45;&gt;Node14 -->
<g id="edge33" class="edge">
<title>Node20&#45;&gt;Node14</title>
<path fill="none" stroke="#9a32cd" stroke-dasharray="5,2" d="M426.11,-98.32C483.33,-88.54 582.9,-74 669,-74 669,-74 669,-74 1082,-74 1172.44,-74 1257.07,-161.92 1282.95,-191.45"/>
<polygon fill="#9a32cd" stroke="#9a32cd" points="425.18,-94.92 415.93,-100.08 426.38,-101.82 425.18,-94.92"/>
<text text-anchor="middle" x="898" y="-77" font-family="Helvetica,sans-Serif" font-size="10.00"> m_device</text>
</g>
<!-- Node23 -->
<g id="node23" class="node">
<title>Node23</title>
<g id="a_node23"><a xlink:href="classInputDeviceCalibration.html" target="_top" xlink:title="Calibration storage backend which can store multiple calibration items for different controllers.">
<polygon fill="white" stroke="black" points="606,-107.5 606,-126.5 734,-126.5 734,-107.5 606,-107.5"/>
<text text-anchor="middle" x="670" y="-114.5" font-family="Helvetica,sans-Serif" font-size="10.00">InputDeviceCalibration</text>
</a>
</g>
</g>
<!-- Node20&#45;&gt;Node23 -->
<g id="edge38" class="edge">
<title>Node20&#45;&gt;Node23</title>
<path fill="none" stroke="#9a32cd" stroke-dasharray="5,2" d="M425.84,-115.96C434.19,-117.22 442.83,-118.32 451,-119 503.05,-123.31 562.33,-122.39 605.93,-120.63"/>
<polygon fill="#9a32cd" stroke="#9a32cd" points="426.28,-112.48 415.85,-114.34 425.17,-119.39 426.28,-112.48"/>
<text text-anchor="middle" x="515" y="-126" font-family="Helvetica,sans-Serif" font-size="10.00"> m_device</text>
</g>
<!-- Node21 -->
<g id="node21" class="node">
<title>Node21</title>
<g id="a_node21"><a xlink:href="classAntiMicroSettings.html" target="_top" xlink:title=" ">
<polygon fill="white" stroke="black" points="113.5,-0.5 113.5,-19.5 216.5,-19.5 216.5,-0.5 113.5,-0.5"/>
<text text-anchor="middle" x="165" y="-7.5" font-family="Helvetica,sans-Serif" font-size="10.00">AntiMicroSettings</text>
</a>
</g>
</g>
<!-- Node21&#45;&gt;Node20 -->
<g id="edge35" class="edge">
<title>Node21&#45;&gt;Node20</title>
<path fill="none" stroke="#9a32cd" stroke-dasharray="5,2" d="M196.21,-23.89C239.62,-43.85 318.54,-80.13 356.08,-97.38"/>
<polygon fill="#9a32cd" stroke="#9a32cd" points="197.55,-20.65 187,-19.66 194.63,-27.01 197.55,-20.65"/>
<text text-anchor="middle" x="276" y="-76" font-family="Helvetica,sans-Serif" font-size="10.00"> m_settings</text>
</g>
<!-- Node22 -->
<g id="node22" class="node">
<title>Node22</title>
<g id="a_node22"><a xlink:title=" ">
<polygon fill="white" stroke="#bfbfbf" points="0,-0.5 0,-19.5 64,-19.5 64,-0.5 0,-0.5"/>
<text text-anchor="middle" x="32" y="-7.5" font-family="Helvetica,sans-Serif" font-size="10.00">QSettings</text>
</a>
</g>
</g>
<!-- Node22&#45;&gt;Node21 -->
<g id="edge36" class="edge">
<title>Node22&#45;&gt;Node21</title>
<path fill="none" stroke="midnightblue" d="M74.15,-10C86.62,-10 100.46,-10 113.46,-10"/>
<polygon fill="midnightblue" stroke="midnightblue" points="74.05,-6.5 64.05,-10 74.05,-13.5 74.05,-6.5"/>
</g>
<!-- Node23&#45;&gt;Node20 -->
<g id="edge37" class="edge">
<title>Node23&#45;&gt;Node20</title>
<path fill="none" stroke="#9a32cd" stroke-dasharray="5,2" d="M595.55,-109.08C589.96,-108.65 584.39,-108.28 579,-108 521.96,-105.01 455.64,-105.45 415.53,-106.15"/>
<polygon fill="#9a32cd" stroke="#9a32cd" points="595.38,-112.58 605.63,-109.9 595.95,-105.6 595.38,-112.58"/>
<text text-anchor="middle" x="515" y="-111" font-family="Helvetica,sans-Serif" font-size="10.00"> m_calibrations</text>
</g>
<!-- Node24&#45;&gt;Node13 -->
<g id="edge39" class="edge">
<title>Node24&#45;&gt;Node13</title>
<path fill="none" stroke="#9a32cd" stroke-dasharray="5,2" d="M1988.48,-207.82C1982.93,-206.8 1977.36,-205.84 1972,-205 1850.97,-186 1819.28,-178.49 1697,-186 1633.89,-189.88 1560.34,-200.5 1521.59,-206.58"/>
<polygon fill="#9a32cd" stroke="#9a32cd" points="1987.94,-211.28 1998.41,-209.7 1989.24,-204.4 1987.94,-211.28"/>
<text text-anchor="middle" x="1751.5" y="-189" font-family="Helvetica,sans-Serif" font-size="10.00"> activeDiagonalButton</text>
</g>
<!-- Node25&#45;&gt;Node4 -->
<g id="edge43" class="edge">
<title>Node25&#45;&gt;Node4</title>
<path fill="none" stroke="#9a32cd" stroke-dasharray="5,2" d="M2142.62,-729C2112.25,-729 2076.39,-729 2044,-729 669,-729 669,-729 669,-729 581.66,-729 480.77,-711.85 423.97,-700.59"/>
<polygon fill="#9a32cd" stroke="#9a32cd" points="2142.7,-732.5 2152.7,-729 2142.7,-725.5 2142.7,-732.5"/>
<text text-anchor="middle" x="1406" y="-754" font-family="Helvetica,sans-Serif" font-size="10.00"> activeButton1</text>
<text text-anchor="middle" x="1406" y="-743" font-family="Helvetica,sans-Serif" font-size="10.00">activeButton2</text>
<text text-anchor="middle" x="1406" y="-732" font-family="Helvetica,sans-Serif" font-size="10.00">activeButton3</text>
</g>
</g>
</svg>
        <g id="navigator" transform="translate(0 0)" fill="#404254">
                <rect fill="#f2f5e9" fill-opacity="0.5" stroke="#606060" stroke-width=".5" x="0" y="0" width="60" height="60"/>
                <use id="zoomplus" xlink:href="#zoomPlus" x="17" y="9" onmousedown="handleZoom(evt,'in')"/>
                <use id="zoomminus" xlink:href="#zoomMin" x="42" y="9" onmousedown="handleZoom(evt,'out')"/>
                <use id="reset" xlink:href="#resetDef" x="30" y="36" onmousedown="handleReset()"/>
                <g id="arrowUp" xlink:href="#dirArrow" transform="translate(30 24)" onmousedown="handlePan(0,-1)">
                  <use xlink:href="#rim" fill="#404040">
                        <set attributeName="fill" to="#808080" begin="arrowUp.mouseover" end="arrowUp.mouseout"/>
                  </use>
                  <path fill="none" stroke="white" stroke-width="1.5" d="M0,-3.0v7 M-2.5,-0.5L0,-3.0L2.5,-0.5"/>
                </g>
                <g id="arrowRight" xlink:href="#dirArrow" transform="rotate(90) translate(36 -43)" onmousedown="handlePan(1,0)">
                  <use xlink:href="#rim" fill="#404040">
                        <set attributeName="fill" to="#808080" begin="arrowRight.mouseover" end="arrowRight.mouseout"/>
                  </use>
                  <path fill="none" stroke="white" stroke-width="1.5" d="M0,-3.0v7 M-2.5,-0.5L0,-3.0L2.5,-0.5"/>
                </g>
                <g id="arrowDown" xlink:href="#dirArrow" transform="rotate(180) translate(-30 -48)" onmousedown="handlePan(0,1)">
                  <use xlink:href="#rim" fill="#404040">
                        <set attributeName="fill" to="#808080" begin="arrowDown.mouseover" end="arrowDown.mouseout"/>
                  </use>
                  <path fill="none" stroke="white" stroke-width="1.5" d="M0,-3.0v7 M-2.5,-0.5L0,-3.0L2.5,-0.5"/>
                </g>
                <g id="arrowLeft" xlink:href="#dirArrow" transform="rotate(270) translate(-36 17)" onmousedown="handlePan(-1,0)">
                  <use xlink:href="#rim" fill="#404040">
                        <set attributeName="fill" to="#808080" begin="arrowLeft.mouseover" end="arrowLeft.mouseout"/>
                  </use>
                  <path fill="none" stroke="white" stroke-width="1.5" d="M0,-3.0v7 M-2.5,-0.5L0,-3.0L2.5,-0.5"/>
                </g>
        </g>
        <svg viewBox="0 0 15 15" width="100%" height="30px" preserveAspectRatio="xMaxYMin meet">
         <g id="arrow_out" transform="scale(0.3 0.3)">
          <a xlink:href="classJoyControlStickPushButton__coll__graph_org.svg" target="_base">
           <rect id="button" ry="5" rx="5" y="6" x="6" height="38" width="38"
                fill="#f2f5e9" fill-opacity="0.5" stroke="#606060" stroke-width="1.0"/>
           <path id="arrow"
             d="M 11.500037,31.436501 C 11.940474,20.09759 22.043105,11.32322 32.158766,21.979434 L 37.068811,17.246167 C 37.068811,17.246167 37.088388,32 37.088388,32 L 22.160133,31.978069 C 22.160133,31.978069 26.997745,27.140456 26.997745,27.140456 C 18.528582,18.264221 13.291696,25.230495 11.500037,31.436501 z"
             style="fill:#404040;"/>
          </a>
         </g>
        </svg>
</svg>
