<?xml version="1.0" encoding="UTF-8" standalone="no"?>
<!DOCTYPE svg PUBLIC "-//W3C//DTD SVG 1.1//EN"
 "http://www.w3.org/Graphics/SVG/1.1/DTD/svg11.dtd">
<!-- Generated by graphviz version 2.43.0 (0)
 -->
<!-- Title: JoyButton::getMouseDistanceFromDeadZone Pages: 1 -->
<svg width="1782pt" height="924pt"
 viewBox="0.00 0.00 1782.00 923.50" xmlns="http://www.w3.org/2000/svg" xmlns:xlink="http://www.w3.org/1999/xlink">
<g id="graph0" class="graph" transform="scale(1 1) rotate(0) translate(4 919.5)">
<title>JoyButton::getMouseDistanceFromDeadZone</title>
<polygon fill="white" stroke="transparent" points="-4,4 -4,-919.5 1778,-919.5 1778,4 -4,4"/>
<!-- Node1 -->
<g id="node1" class="node">
<title>Node1</title>
<g id="a_node1"><a xlink:title="Get the distance factor that should be used for mouse movement.">
<polygon fill="#bfbfbf" stroke="black" points="1613,-218.5 1613,-248.5 1774,-248.5 1774,-218.5 1613,-218.5"/>
<text text-anchor="start" x="1621" y="-236.5" font-family="Helvetica,sans-Serif" font-size="10.00">JoyButton::getMouseDistance</text>
<text text-anchor="middle" x="1693.5" y="-225.5" font-family="Helvetica,sans-Serif" font-size="10.00">FromDeadZone</text>
</a>
</g>
</g>
<!-- Node2 -->
<g id="node2" class="node">
<title>Node2</title>
<g id="a_node2"><a xlink:href="classJoyButton.html#aa4a7f763f73f9f63b446e0125a713709" target="_top" xlink:title=" ">
<polygon fill="white" stroke="black" points="1422,-457.5 1422,-487.5 1577,-487.5 1577,-457.5 1422,-457.5"/>
<text text-anchor="start" x="1430" y="-475.5" font-family="Helvetica,sans-Serif" font-size="10.00">JoyButton::initializeDistance</text>
<text text-anchor="middle" x="1499.5" y="-464.5" font-family="Helvetica,sans-Serif" font-size="10.00">Values</text>
</a>
</g>
</g>
<!-- Node1&#45;&gt;Node2 -->
<g id="edge1" class="edge">
<title>Node1&#45;&gt;Node2</title>
<path fill="none" stroke="midnightblue" d="M1673.72,-256.88C1634.59,-305.58 1545.3,-416.74 1512.7,-457.31"/>
<polygon fill="midnightblue" stroke="midnightblue" points="1676.66,-258.8 1680.2,-248.81 1671.21,-254.42 1676.66,-258.8"/>
</g>
<!-- Node4 -->
<g id="node4" class="node">
<title>Node4</title>
<g id="a_node4"><a xlink:href="classJoyButton.html#abb09326682e89c3c32975519ee73dfb0" target="_top" xlink:title="Activates mapped slots and generates QT events which highlight pressed controller buttons.">
<polygon fill="white" stroke="black" points="1054.5,-634 1054.5,-653 1167.5,-653 1167.5,-634 1054.5,-634"/>
<text text-anchor="middle" x="1111" y="-641" font-family="Helvetica,sans-Serif" font-size="10.00">JoyButton::joyEvent</text>
</a>
</g>
</g>
<!-- Node1&#45;&gt;Node4 -->
<g id="edge40" class="edge">
<title>Node1&#45;&gt;Node4</title>
<path fill="none" stroke="midnightblue" d="M1687.96,-258.39C1677.41,-309.66 1646.61,-428.07 1577,-497.5 1511.47,-562.87 1473.92,-551.56 1386,-580.5 1344.1,-594.29 1224.77,-620.01 1158.24,-633.94"/>
<polygon fill="midnightblue" stroke="midnightblue" points="1691.41,-259 1689.92,-248.51 1684.54,-257.64 1691.41,-259"/>
</g>
<!-- Node130 -->
<g id="node34" class="node">
<title>Node130</title>
<g id="a_node34"><a xlink:href="classJoyButton.html#ac51fbb4f1b1367d701500921378fddaa" target="_top" xlink:title="Calculate mouse movement coordinates for mouse movement slots currently active.">
<polygon fill="white" stroke="black" points="1434,-99 1434,-118 1565,-118 1565,-99 1434,-99"/>
<text text-anchor="middle" x="1499.5" y="-106" font-family="Helvetica,sans-Serif" font-size="10.00">JoyButton::mouseEvent</text>
</a>
</g>
</g>
<!-- Node1&#45;&gt;Node130 -->
<g id="edge41" class="edge">
<title>Node1&#45;&gt;Node130</title>
<path fill="none" stroke="midnightblue" d="M1672.05,-210.77C1650.45,-188.03 1614.41,-153.49 1577,-132.5 1566.2,-126.44 1553.66,-121.69 1541.9,-118.08"/>
<polygon fill="midnightblue" stroke="midnightblue" points="1669.68,-213.36 1679.06,-218.28 1674.79,-208.59 1669.68,-213.36"/>
</g>
<!-- Node137 -->
<g id="node36" class="node">
<title>Node137</title>
<g id="a_node36"><a xlink:href="classJoyButton.html#a81b400c291611a14a4856e13fad49f76" target="_top" xlink:title=" ">
<polygon fill="white" stroke="black" points="1431,-325.5 1431,-355.5 1568,-355.5 1568,-325.5 1431,-325.5"/>
<text text-anchor="start" x="1439" y="-343.5" font-family="Helvetica,sans-Serif" font-size="10.00">JoyButton::releaseActive</text>
<text text-anchor="middle" x="1499.5" y="-332.5" font-family="Helvetica,sans-Serif" font-size="10.00">Slots</text>
</a>
</g>
</g>
<!-- Node1&#45;&gt;Node137 -->
<g id="edge43" class="edge">
<title>Node1&#45;&gt;Node137</title>
<path fill="none" stroke="midnightblue" d="M1656.33,-253.66C1618.85,-274.54 1561.13,-306.71 1527.46,-325.47"/>
<polygon fill="midnightblue" stroke="midnightblue" points="1658.37,-256.53 1665.4,-248.6 1654.96,-250.41 1658.37,-256.53"/>
</g>
<!-- Node143 -->
<g id="node44" class="node">
<title>Node143</title>
<g id="a_node44"><a xlink:href="classJoyGradientButton.html#aeb260d7d14d0c19360fa34edcf121aa7" target="_top" xlink:title="Activate a turbo event on a button.">
<polygon fill="white" stroke="black" points="858,-200.5 858,-230.5 970,-230.5 970,-200.5 858,-200.5"/>
<text text-anchor="start" x="866" y="-218.5" font-family="Helvetica,sans-Serif" font-size="10.00">JoyGradientButton::</text>
<text text-anchor="middle" x="914" y="-207.5" font-family="Helvetica,sans-Serif" font-size="10.00">turboEvent</text>
</a>
</g>
</g>
<!-- Node1&#45;&gt;Node143 -->
<g id="edge59" class="edge">
<title>Node1&#45;&gt;Node143</title>
<path fill="none" stroke="midnightblue" d="M1631.1,-215.72C1569.69,-198.93 1472.22,-174.95 1386,-165.5 1235.6,-149.02 1058.08,-182.06 970.12,-201.95"/>
<polygon fill="midnightblue" stroke="midnightblue" points="1630.44,-219.17 1641.01,-218.46 1632.31,-212.42 1630.44,-219.17"/>
</g>
<!-- Node198 -->
<g id="node47" class="node">
<title>Node198</title>
<g id="a_node47"><a xlink:href="classJoyButton.html#a50c06702f8781ee7fc49b4a842bd6bc4" target="_top" xlink:title=" ">
<polygon fill="white" stroke="black" points="1422,-628.5 1422,-658.5 1577,-658.5 1577,-628.5 1422,-628.5"/>
<text text-anchor="start" x="1430" y="-646.5" font-family="Helvetica,sans-Serif" font-size="10.00">JoyButton::resetAcceleration</text>
<text text-anchor="middle" x="1499.5" y="-635.5" font-family="Helvetica,sans-Serif" font-size="10.00">Distances</text>
</a>
</g>
</g>
<!-- Node1&#45;&gt;Node198 -->
<g id="edge56" class="edge">
<title>Node1&#45;&gt;Node198</title>
<path fill="none" stroke="midnightblue" d="M1692.06,-258.9C1689.53,-325.8 1673.65,-508.93 1577,-613.5 1571.38,-619.58 1564.39,-624.44 1556.92,-628.33"/>
<polygon fill="midnightblue" stroke="midnightblue" points="1695.56,-258.94 1692.37,-248.84 1688.56,-258.72 1695.56,-258.94"/>
</g>
<!-- Node202 -->
<g id="node49" class="node">
<title>Node202</title>
<g id="a_node49"><a xlink:href="classJoyGradientButton.html#a4f3ade16ee15a36b15b6d8150a22cfd8" target="_top" xlink:title=" ">
<polygon fill="white" stroke="black" points="1437.5,-49.5 1437.5,-79.5 1561.5,-79.5 1561.5,-49.5 1437.5,-49.5"/>
<text text-anchor="start" x="1445.5" y="-67.5" font-family="Helvetica,sans-Serif" font-size="10.00">JoyGradientButton::</text>
<text text-anchor="middle" x="1499.5" y="-56.5" font-family="Helvetica,sans-Serif" font-size="10.00">wheelEventHorizontal</text>
</a>
</g>
</g>
<!-- Node1&#45;&gt;Node202 -->
<g id="edge60" class="edge">
<title>Node1&#45;&gt;Node202</title>
<path fill="none" stroke="midnightblue" d="M1679.24,-209.4C1660.5,-177.5 1623.33,-121.56 1577,-89.5 1571.48,-85.68 1565.35,-82.42 1559.02,-79.63"/>
<polygon fill="midnightblue" stroke="midnightblue" points="1676.44,-211.55 1684.45,-218.48 1682.51,-208.06 1676.44,-211.55"/>
</g>
<!-- Node203 -->
<g id="node50" class="node">
<title>Node203</title>
<g id="a_node50"><a xlink:href="classJoyGradientButton.html#a2adac49f4b2ebf5357f50788ca8935b3" target="_top" xlink:title=" ">
<polygon fill="white" stroke="black" points="1443.5,-0.5 1443.5,-30.5 1555.5,-30.5 1555.5,-0.5 1443.5,-0.5"/>
<text text-anchor="start" x="1451.5" y="-18.5" font-family="Helvetica,sans-Serif" font-size="10.00">JoyGradientButton::</text>
<text text-anchor="middle" x="1499.5" y="-7.5" font-family="Helvetica,sans-Serif" font-size="10.00">wheelEventVertical</text>
</a>
</g>
</g>
<!-- Node1&#45;&gt;Node203 -->
<g id="edge61" class="edge">
<title>Node1&#45;&gt;Node203</title>
<path fill="none" stroke="midnightblue" d="M1684.42,-208.82C1669.68,-167.64 1634.55,-84.99 1577,-39.5 1570.67,-34.49 1563.28,-30.52 1555.63,-27.38"/>
<polygon fill="midnightblue" stroke="midnightblue" points="1681.14,-210.04 1687.73,-218.34 1687.75,-207.75 1681.14,-210.04"/>
</g>
<!-- Node3 -->
<g id="node3" class="node">
<title>Node3</title>
<g id="a_node3"><a xlink:href="classJoyButton.html#afb5704003e2483ff61e142c7a7bd4699" target="_top" xlink:title=" ">
<polygon fill="white" stroke="black" points="1236,-540.5 1236,-570.5 1376,-570.5 1376,-540.5 1236,-540.5"/>
<text text-anchor="start" x="1244" y="-558.5" font-family="Helvetica,sans-Serif" font-size="10.00">JoyButton::startSequence</text>
<text text-anchor="middle" x="1306" y="-547.5" font-family="Helvetica,sans-Serif" font-size="10.00">OfPressActive</text>
</a>
</g>
</g>
<!-- Node2&#45;&gt;Node3 -->
<g id="edge2" class="edge">
<title>Node2&#45;&gt;Node3</title>
<path fill="none" stroke="midnightblue" d="M1459.11,-491.97C1437.67,-502.34 1410.58,-515.06 1386,-525.5 1373.98,-530.6 1360.77,-535.78 1348.65,-540.37"/>
<polygon fill="midnightblue" stroke="midnightblue" points="1460.76,-495.06 1468.23,-487.54 1457.71,-488.76 1460.76,-495.06"/>
</g>
<!-- Node3&#45;&gt;Node4 -->
<g id="edge3" class="edge">
<title>Node3&#45;&gt;Node4</title>
<path fill="none" stroke="midnightblue" d="M1253.39,-574.18C1244.19,-577.77 1234.76,-581.62 1226,-585.5 1191.08,-600.96 1151.62,-621.83 1129.49,-633.86"/>
<polygon fill="midnightblue" stroke="midnightblue" points="1254.76,-577.4 1262.84,-570.55 1252.25,-570.87 1254.76,-577.4"/>
</g>
<!-- Node5 -->
<g id="node5" class="node">
<title>Node5</title>
<g id="a_node5"><a xlink:href="classJoyButton.html#a4acc0f1d2e12a34874522f558e1e9d3f" target="_top" xlink:title=" ">
<polygon fill="white" stroke="black" points="839.5,-546.5 839.5,-576.5 988.5,-576.5 988.5,-546.5 839.5,-546.5"/>
<text text-anchor="start" x="847.5" y="-564.5" font-family="Helvetica,sans-Serif" font-size="10.00">JoyButton::activatePending</text>
<text text-anchor="middle" x="914" y="-553.5" font-family="Helvetica,sans-Serif" font-size="10.00">Event</text>
</a>
</g>
</g>
<!-- Node4&#45;&gt;Node5 -->
<g id="edge4" class="edge">
<title>Node4&#45;&gt;Node5</title>
<path fill="none" stroke="midnightblue" d="M1084.02,-628.97C1061.27,-616.62 1027.09,-598.97 996,-586.5 987.12,-582.94 977.53,-579.57 968.16,-576.54"/>
<polygon fill="midnightblue" stroke="midnightblue" points="1082.57,-632.17 1093.02,-633.9 1085.94,-626.03 1082.57,-632.17"/>
</g>
<!-- Node74 -->
<g id="node7" class="node">
<title>Node74</title>
<g id="a_node7"><a xlink:href="classJoySensor.html#aafd5dae106262d6040b720be271cf800" target="_top" xlink:title="Find the position of the three sensor axes, deactivate no longer used sensor direction button and the...">
<polygon fill="white" stroke="black" points="837,-508 837,-527 991,-527 991,-508 837,-508"/>
<text text-anchor="middle" x="914" y="-515" font-family="Helvetica,sans-Serif" font-size="10.00">JoySensor::createDeskEvent</text>
</a>
</g>
</g>
<!-- Node4&#45;&gt;Node74 -->
<g id="edge6" class="edge">
<title>Node4&#45;&gt;Node74</title>
<path fill="none" stroke="midnightblue" d="M1096.23,-626.04C1076.57,-602.32 1038.14,-560.28 996,-537.5 987.97,-533.16 978.99,-529.75 970.01,-527.06"/>
<polygon fill="midnightblue" stroke="midnightblue" points="1093.58,-628.32 1102.6,-633.88 1099.01,-623.91 1093.58,-628.32"/>
</g>
<!-- Node80 -->
<g id="node10" class="node">
<title>Node80</title>
<g id="a_node10"><a xlink:href="classJoyDPad.html#a1f5c5db45f36b205d1c4a43f1616950a" target="_top" xlink:title=" ">
<polygon fill="white" stroke="black" points="841,-470 841,-489 987,-489 987,-470 841,-470"/>
<text text-anchor="middle" x="914" y="-477" font-family="Helvetica,sans-Serif" font-size="10.00">JoyDPad::createDeskEvent</text>
</a>
</g>
</g>
<!-- Node4&#45;&gt;Node80 -->
<g id="edge9" class="edge">
<title>Node4&#45;&gt;Node80</title>
<path fill="none" stroke="midnightblue" d="M1100.81,-624.94C1084.33,-593.68 1046.68,-530.8 996,-498.5 989.91,-494.62 983.11,-491.53 976.11,-489.07"/>
<polygon fill="midnightblue" stroke="midnightblue" points="1097.72,-626.6 1105.4,-633.89 1103.95,-623.4 1097.72,-626.6"/>
</g>
<!-- Node91 -->
<g id="node13" class="node">
<title>Node91</title>
<g id="a_node13"><a xlink:href="classSetJoystick.html#aa93108aaa5ccbf15f1b56b22ec73798b" target="_top" xlink:title="Perform a release of all elements of a set. Stick and vdpad releases will be handled by the associate...">
<polygon fill="white" stroke="black" points="454.5,-418 454.5,-437 567.5,-437 567.5,-418 454.5,-418"/>
<text text-anchor="middle" x="511" y="-425" font-family="Helvetica,sans-Serif" font-size="10.00">SetJoystick::release</text>
</a>
</g>
</g>
<!-- Node4&#45;&gt;Node91 -->
<g id="edge35" class="edge">
<title>Node4&#45;&gt;Node91</title>
<path fill="none" stroke="midnightblue" d="M1103.96,-624.05C1091,-585.79 1056.64,-500.98 996,-460.5 856.25,-367.21 640.38,-399.28 551.9,-417.98"/>
<polygon fill="midnightblue" stroke="midnightblue" points="1100.76,-625.51 1107.18,-633.93 1107.41,-623.34 1100.76,-625.51"/>
</g>
<!-- Node101 -->
<g id="node23" class="node">
<title>Node101</title>
<g id="a_node23"><a xlink:href="classJoyAxis.html#a0e85739f3da15defbb1ad9ffb7def2d9" target="_top" xlink:title=" ">
<polygon fill="white" stroke="black" points="843,-672 843,-691 985,-691 985,-672 843,-672"/>
<text text-anchor="middle" x="914" y="-679" font-family="Helvetica,sans-Serif" font-size="10.00">JoyAxis::createDeskEvent</text>
</a>
</g>
</g>
<!-- Node4&#45;&gt;Node101 -->
<g id="edge25" class="edge">
<title>Node4&#45;&gt;Node101</title>
<path fill="none" stroke="midnightblue" d="M1051.04,-654.99C1023.22,-660.41 990.4,-666.81 963.98,-671.96"/>
<polygon fill="midnightblue" stroke="midnightblue" points="1051.9,-658.39 1061.04,-653.04 1050.56,-651.52 1051.9,-658.39"/>
</g>
<!-- Node105 -->
<g id="node25" class="node">
<title>Node105</title>
<g id="a_node25"><a xlink:href="classJoyControlStick.html#a18e586ffa9f2fc09004dd1ebc895b3a8" target="_top" xlink:title="Find the position of the two stick axes, deactivate no longer used stick direction button and then ac...">
<polygon fill="white" stroke="black" points="636.5,-808.5 636.5,-838.5 788.5,-838.5 788.5,-808.5 636.5,-808.5"/>
<text text-anchor="start" x="644.5" y="-826.5" font-family="Helvetica,sans-Serif" font-size="10.00">JoyControlStick::createDesk</text>
<text text-anchor="middle" x="712.5" y="-815.5" font-family="Helvetica,sans-Serif" font-size="10.00">Event</text>
</a>
</g>
</g>
<!-- Node4&#45;&gt;Node105 -->
<g id="edge28" class="edge">
<title>Node4&#45;&gt;Node105</title>
<path fill="none" stroke="midnightblue" d="M1105.98,-663.22C1096.05,-706.13 1065.92,-807.38 996,-848.5 917.27,-894.8 804.31,-860.88 748.06,-838.68"/>
<polygon fill="midnightblue" stroke="midnightblue" points="1109.45,-663.72 1108.17,-653.2 1102.62,-662.23 1109.45,-663.72"/>
</g>
<!-- Node113 -->
<g id="node28" class="node">
<title>Node113</title>
<g id="a_node28"><a xlink:href="classJoyControlStick.html#a0bd5c24e572f9485780820d54f755b88" target="_top" xlink:title="Activate a stick direction button.">
<polygon fill="white" stroke="black" points="846,-759.5 846,-789.5 982,-789.5 982,-759.5 846,-759.5"/>
<text text-anchor="start" x="854" y="-777.5" font-family="Helvetica,sans-Serif" font-size="10.00">JoyControlStick::perform</text>
<text text-anchor="middle" x="914" y="-766.5" font-family="Helvetica,sans-Serif" font-size="10.00">ButtonPress</text>
</a>
</g>
</g>
<!-- Node4&#45;&gt;Node113 -->
<g id="edge31" class="edge">
<title>Node4&#45;&gt;Node113</title>
<path fill="none" stroke="midnightblue" d="M1096.12,-660.86C1076.32,-684.48 1037.73,-726.56 996,-750.5 990.02,-753.93 983.51,-756.91 976.86,-759.49"/>
<polygon fill="midnightblue" stroke="midnightblue" points="1098.88,-663 1102.53,-653.05 1093.48,-658.56 1098.88,-663"/>
</g>
<!-- Node114 -->
<g id="node29" class="node">
<title>Node114</title>
<g id="a_node29"><a xlink:href="classJoyControlStick.html#a32b6c7a796ec7b24e9c0124a6bcffd2e" target="_top" xlink:title="Stick direction button to release.">
<polygon fill="white" stroke="black" points="846,-808.5 846,-838.5 982,-838.5 982,-808.5 846,-808.5"/>
<text text-anchor="start" x="854" y="-826.5" font-family="Helvetica,sans-Serif" font-size="10.00">JoyControlStick::perform</text>
<text text-anchor="middle" x="914" y="-815.5" font-family="Helvetica,sans-Serif" font-size="10.00">ButtonRelease</text>
</a>
</g>
</g>
<!-- Node4&#45;&gt;Node114 -->
<g id="edge33" class="edge">
<title>Node4&#45;&gt;Node114</title>
<path fill="none" stroke="midnightblue" d="M1101.21,-662.67C1085.1,-695.65 1047.71,-763.06 996,-799.5 991.08,-802.96 985.67,-805.93 980.03,-808.48"/>
<polygon fill="midnightblue" stroke="midnightblue" points="1104.55,-663.79 1105.68,-653.26 1098.23,-660.79 1104.55,-663.79"/>
</g>
<!-- Node115 -->
<g id="node30" class="node">
<title>Node115</title>
<g id="a_node30"><a xlink:href="classJoyDPad.html#aa20b65bef79d9e80894a9be835b441c1" target="_top" xlink:title=" ">
<polygon fill="white" stroke="red" points="832,-896 832,-915 996,-915 996,-896 832,-896"/>
<text text-anchor="middle" x="914" y="-903" font-family="Helvetica,sans-Serif" font-size="10.00">JoyDPad::releaseButtonEvents</text>
</a>
</g>
</g>
<!-- Node4&#45;&gt;Node115 -->
<g id="edge36" class="edge">
<title>Node4&#45;&gt;Node115</title>
<path fill="none" stroke="midnightblue" d="M1106.24,-663.19C1096.51,-708.66 1066.21,-821.63 996,-881.5 988.52,-887.88 979.41,-892.56 970.03,-896"/>
<polygon fill="midnightblue" stroke="midnightblue" points="1109.67,-663.89 1108.23,-653.39 1102.81,-662.49 1109.67,-663.89"/>
</g>
<!-- Node118 -->
<g id="node31" class="node">
<title>Node118</title>
<g id="a_node31"><a xlink:href="classJoyControlStick.html#a295a9b9b1a5c4d3a49c9d9697a9527e0" target="_top" xlink:title=" ">
<polygon fill="white" stroke="red" points="847.5,-710.5 847.5,-740.5 980.5,-740.5 980.5,-710.5 847.5,-710.5"/>
<text text-anchor="start" x="855.5" y="-728.5" font-family="Helvetica,sans-Serif" font-size="10.00">JoyControlStick::release</text>
<text text-anchor="middle" x="914" y="-717.5" font-family="Helvetica,sans-Serif" font-size="10.00">ButtonEvents</text>
</a>
</g>
</g>
<!-- Node4&#45;&gt;Node118 -->
<g id="edge37" class="edge">
<title>Node4&#45;&gt;Node118</title>
<path fill="none" stroke="midnightblue" d="M1084.02,-658.03C1061.27,-670.38 1027.09,-688.03 996,-700.5 987.12,-704.06 977.53,-707.43 968.16,-710.46"/>
<polygon fill="midnightblue" stroke="midnightblue" points="1085.94,-660.97 1093.02,-653.1 1082.57,-654.83 1085.94,-660.97"/>
</g>
<!-- Node128 -->
<g id="node32" class="node">
<title>Node128</title>
<g id="a_node32"><a xlink:href="classJoyAxis.html#a8df3e761cbf9876ab5a3db30c1a02fc3" target="_top" xlink:title=" ">
<polygon fill="white" stroke="red" points="847.5,-634 847.5,-653 980.5,-653 980.5,-634 847.5,-634"/>
<text text-anchor="middle" x="914" y="-641" font-family="Helvetica,sans-Serif" font-size="10.00">JoyAxis::removeVDPads</text>
</a>
</g>
</g>
<!-- Node4&#45;&gt;Node128 -->
<g id="edge38" class="edge">
<title>Node4&#45;&gt;Node128</title>
<path fill="none" stroke="midnightblue" d="M1044.2,-643.5C1023.73,-643.5 1001.17,-643.5 980.7,-643.5"/>
<polygon fill="midnightblue" stroke="midnightblue" points="1044.38,-647 1054.38,-643.5 1044.38,-640 1044.38,-647"/>
</g>
<!-- Node129 -->
<g id="node33" class="node">
<title>Node129</title>
<g id="a_node33"><a xlink:href="classJoyButton.html#ad152d22f7f7d8ea561f363d43903e059" target="_top" xlink:title=" ">
<polygon fill="white" stroke="red" points="856,-596 856,-615 972,-615 972,-596 856,-596"/>
<text text-anchor="middle" x="914" y="-603" font-family="Helvetica,sans-Serif" font-size="10.00">JoyButton::setVDPad</text>
</a>
</g>
</g>
<!-- Node4&#45;&gt;Node129 -->
<g id="edge39" class="edge">
<title>Node4&#45;&gt;Node129</title>
<path fill="none" stroke="midnightblue" d="M1051.04,-632.01C1023.22,-626.59 990.4,-620.19 963.98,-615.04"/>
<polygon fill="midnightblue" stroke="midnightblue" points="1050.56,-635.48 1061.04,-633.96 1051.9,-628.61 1050.56,-635.48"/>
</g>
<!-- Node6 -->
<g id="node6" class="node">
<title>Node6</title>
<g id="a_node6"><a xlink:href="classInputDevice.html#af5f9f9065334b90aa45d4c86a63337f1" target="_top" xlink:title=" ">
<polygon fill="white" stroke="red" points="632,-601.5 632,-631.5 793,-631.5 793,-601.5 632,-601.5"/>
<text text-anchor="start" x="640" y="-619.5" font-family="Helvetica,sans-Serif" font-size="10.00">InputDevice::activatePossible</text>
<text text-anchor="middle" x="712.5" y="-608.5" font-family="Helvetica,sans-Serif" font-size="10.00">ButtonEvents</text>
</a>
</g>
</g>
<!-- Node5&#45;&gt;Node6 -->
<g id="edge5" class="edge">
<title>Node5&#45;&gt;Node6</title>
<path fill="none" stroke="midnightblue" d="M848.7,-579.23C822.66,-586.41 792.9,-594.61 767.95,-601.49"/>
<polygon fill="midnightblue" stroke="midnightblue" points="849.78,-582.56 858.49,-576.53 847.92,-575.81 849.78,-582.56"/>
</g>
<!-- Node75 -->
<g id="node8" class="node">
<title>Node75</title>
<g id="a_node8"><a xlink:href="classJoySensor.html#a846477c350f77e608cf39d6f450edd51" target="_top" xlink:title="Slot called when m_delay_timer has timed out. The method will call createDeskEvent.">
<polygon fill="white" stroke="red" points="631,-563 631,-582 794,-582 794,-563 631,-563"/>
<text text-anchor="middle" x="712.5" y="-570" font-family="Helvetica,sans-Serif" font-size="10.00">JoySensor::delayTimerExpired</text>
</a>
</g>
</g>
<!-- Node74&#45;&gt;Node75 -->
<g id="edge7" class="edge">
<title>Node74&#45;&gt;Node75</title>
<path fill="none" stroke="midnightblue" d="M858.48,-529.56C849.56,-531.94 840.46,-534.6 832,-537.5 815.44,-543.18 812.61,-547.95 796,-553.5 785.13,-557.13 773.22,-560.31 761.92,-562.98"/>
<polygon fill="midnightblue" stroke="midnightblue" points="859.63,-532.88 868.45,-527.01 857.89,-526.1 859.63,-532.88"/>
</g>
<!-- Node77 -->
<g id="node9" class="node">
<title>Node77</title>
<g id="a_node9"><a xlink:href="classJoySensor.html#ade1aa521f8031e35a3befc406ba60219" target="_top" xlink:title="Main sensor mapping function. When activated, it generates a &quot;moved&quot; QT event which updates various p...">
<polygon fill="white" stroke="red" points="656,-525 656,-544 769,-544 769,-525 656,-525"/>
<text text-anchor="middle" x="712.5" y="-532" font-family="Helvetica,sans-Serif" font-size="10.00">JoySensor::joyEvent</text>
</a>
</g>
</g>
<!-- Node74&#45;&gt;Node77 -->
<g id="edge8" class="edge">
<title>Node74&#45;&gt;Node77</title>
<path fill="none" stroke="midnightblue" d="M826.64,-524.86C807.19,-526.52 787.06,-528.23 769.26,-529.75"/>
<polygon fill="midnightblue" stroke="midnightblue" points="827.06,-528.34 836.72,-524 826.46,-521.36 827.06,-528.34"/>
</g>
<!-- Node81 -->
<g id="node11" class="node">
<title>Node81</title>
<g id="a_node11"><a xlink:href="classJoyDPad.html#adfcee6e2b57a7e643c74c26159a32997" target="_top" xlink:title=" ">
<polygon fill="white" stroke="red" points="629,-475.5 629,-505.5 796,-505.5 796,-475.5 629,-475.5"/>
<text text-anchor="start" x="637" y="-493.5" font-family="Helvetica,sans-Serif" font-size="10.00">JoyDPad::dpadDirectionChange</text>
<text text-anchor="middle" x="712.5" y="-482.5" font-family="Helvetica,sans-Serif" font-size="10.00">Event</text>
</a>
</g>
</g>
<!-- Node80&#45;&gt;Node81 -->
<g id="edge10" class="edge">
<title>Node80&#45;&gt;Node81</title>
<path fill="none" stroke="midnightblue" d="M830.65,-484.04C819.3,-484.67 807.63,-485.31 796.26,-485.94"/>
<polygon fill="midnightblue" stroke="midnightblue" points="831.18,-487.52 840.98,-483.47 830.8,-480.53 831.18,-487.52"/>
</g>
<!-- Node83 -->
<g id="node12" class="node">
<title>Node83</title>
<g id="a_node12"><a xlink:href="classJoyDPad.html#ac660764f3e958b5c1cf9da1a5d2f2398" target="_top" xlink:title=" ">
<polygon fill="white" stroke="red" points="660,-437 660,-456 765,-456 765,-437 660,-437"/>
<text text-anchor="middle" x="712.5" y="-444" font-family="Helvetica,sans-Serif" font-size="10.00">JoyDPad::joyEvent</text>
</a>
</g>
</g>
<!-- Node80&#45;&gt;Node83 -->
<g id="edge11" class="edge">
<title>Node80&#45;&gt;Node83</title>
<path fill="none" stroke="midnightblue" d="M845.66,-468.36C819.35,-464.01 789.66,-459.1 765.09,-455.03"/>
<polygon fill="midnightblue" stroke="midnightblue" points="845.13,-471.82 855.56,-470 846.27,-464.91 845.13,-471.82"/>
</g>
<!-- Node83&#45;&gt;Node91 -->
<g id="edge12" class="edge">
<title>Node83&#45;&gt;Node91</title>
<path fill="none" stroke="midnightblue" d="M649.66,-440.61C623.44,-438.11 593.12,-435.23 567.62,-432.8"/>
<polygon fill="midnightblue" stroke="midnightblue" points="649.58,-444.12 659.86,-441.58 650.24,-437.15 649.58,-444.12"/>
</g>
<!-- Node92 -->
<g id="node14" class="node">
<title>Node92</title>
<g id="a_node14"><a xlink:href="classAdvanceStickAssignmentDialog.html#a86cf0001cd774ce5ccec8543b7a9a50b" target="_top" xlink:title=" ">
<polygon fill="white" stroke="black" points="0,-571.5 0,-601.5 178,-601.5 178,-571.5 0,-571.5"/>
<text text-anchor="start" x="8" y="-589.5" font-family="Helvetica,sans-Serif" font-size="10.00">AdvanceStickAssignmentDialog</text>
<text text-anchor="middle" x="89" y="-578.5" font-family="Helvetica,sans-Serif" font-size="10.00">::AdvanceStickAssignmentDialog</text>
</a>
</g>
</g>
<!-- Node91&#45;&gt;Node92 -->
<g id="edge13" class="edge">
<title>Node91&#45;&gt;Node92</title>
<path fill="none" stroke="midnightblue" d="M503.05,-446.59C488.82,-482.46 452.6,-559.02 393,-589.5 314.19,-629.79 208.09,-615.83 144.62,-601.52"/>
<polygon fill="midnightblue" stroke="midnightblue" points="506.32,-447.84 506.62,-437.24 499.78,-445.34 506.32,-447.84"/>
</g>
<!-- Node93 -->
<g id="node15" class="node">
<title>Node93</title>
<g id="a_node15"><a xlink:href="classButtonEditDialog.html#a3e9feede100cbb6a11c9d87659c196ea" target="_top" xlink:title=" ">
<polygon fill="white" stroke="black" points="235,-500.5 235,-530.5 372,-530.5 372,-500.5 235,-500.5"/>
<text text-anchor="start" x="243" y="-518.5" font-family="Helvetica,sans-Serif" font-size="10.00">ButtonEditDialog::Button</text>
<text text-anchor="middle" x="303.5" y="-507.5" font-family="Helvetica,sans-Serif" font-size="10.00">EditDialog</text>
</a>
</g>
</g>
<!-- Node91&#45;&gt;Node93 -->
<g id="edge14" class="edge">
<title>Node91&#45;&gt;Node93</title>
<path fill="none" stroke="midnightblue" d="M483.54,-441.88C460.13,-454.3 424.84,-472.28 393,-485.5 380.11,-490.85 365.9,-495.99 352.7,-500.46"/>
<polygon fill="midnightblue" stroke="midnightblue" points="485.33,-444.9 492.5,-437.09 482.03,-438.72 485.33,-444.9"/>
</g>
<!-- Node94 -->
<g id="node16" class="node">
<title>Node94</title>
<g id="a_node16"><a xlink:href="classJoystickStatusWindow.html#a96d9e83b764e14faed4c4dc275d23c45" target="_top" xlink:title=" ">
<polygon fill="white" stroke="black" points="23.5,-424.5 23.5,-454.5 154.5,-454.5 154.5,-424.5 23.5,-424.5"/>
<text text-anchor="start" x="31.5" y="-442.5" font-family="Helvetica,sans-Serif" font-size="10.00">JoystickStatusWindow</text>
<text text-anchor="middle" x="89" y="-431.5" font-family="Helvetica,sans-Serif" font-size="10.00">::JoystickStatusWindow</text>
</a>
</g>
</g>
<!-- Node91&#45;&gt;Node94 -->
<g id="edge15" class="edge">
<title>Node91&#45;&gt;Node94</title>
<path fill="none" stroke="midnightblue" d="M465.1,-439.41C443.48,-444.55 417.07,-449.96 393,-452.5 311.05,-461.16 216.06,-454.37 154.6,-447.79"/>
<polygon fill="midnightblue" stroke="midnightblue" points="466.1,-442.77 474.98,-437 464.44,-435.97 466.1,-442.77"/>
</g>
<!-- Node95 -->
<g id="node17" class="node">
<title>Node95</title>
<g id="a_node17"><a xlink:href="classQuickSetDialog.html#a57726006cbe2d8534f4be91a05646dd2" target="_top" xlink:title=" ">
<polygon fill="white" stroke="black" points="18.5,-356.5 18.5,-386.5 159.5,-386.5 159.5,-356.5 18.5,-356.5"/>
<text text-anchor="start" x="26.5" y="-374.5" font-family="Helvetica,sans-Serif" font-size="10.00">QuickSetDialog::QuickSet</text>
<text text-anchor="middle" x="89" y="-363.5" font-family="Helvetica,sans-Serif" font-size="10.00">Dialog</text>
</a>
</g>
</g>
<!-- Node91&#45;&gt;Node95 -->
<g id="edge16" class="edge">
<title>Node91&#45;&gt;Node95</title>
<path fill="none" stroke="midnightblue" d="M458.49,-415.81C438.16,-411.49 414.56,-406.84 393,-403.5 313.42,-391.16 221.32,-382.18 159.75,-376.93"/>
<polygon fill="midnightblue" stroke="midnightblue" points="457.97,-419.28 468.48,-417.96 459.44,-412.43 457.97,-419.28"/>
</g>
<!-- Node96 -->
<g id="node18" class="node">
<title>Node96</title>
<g id="a_node18"><a xlink:href="classAdvanceStickAssignmentDialog.html#a48ade79f1dfeb93ff668ac18d0e1243f" target="_top" xlink:title=" ">
<polygon fill="white" stroke="black" points="217.5,-549.5 217.5,-579.5 389.5,-579.5 389.5,-549.5 217.5,-549.5"/>
<text text-anchor="start" x="225.5" y="-567.5" font-family="Helvetica,sans-Serif" font-size="10.00">AdvanceStickAssignmentDialog</text>
<text text-anchor="middle" x="303.5" y="-556.5" font-family="Helvetica,sans-Serif" font-size="10.00">::reenableButtonEvents</text>
</a>
</g>
</g>
<!-- Node91&#45;&gt;Node96 -->
<g id="edge17" class="edge">
<title>Node91&#45;&gt;Node96</title>
<path fill="none" stroke="midnightblue" d="M496.55,-445.24C476.65,-470.23 436.96,-515.54 393,-540.5 386.91,-543.96 380.3,-546.94 373.52,-549.5"/>
<polygon fill="midnightblue" stroke="midnightblue" points="499.56,-447.06 502.95,-437.03 494.04,-442.76 499.56,-447.06"/>
</g>
<!-- Node97 -->
<g id="node19" class="node">
<title>Node97</title>
<g id="a_node19"><a xlink:href="classJoystickStatusWindow.html#a1a1c28e1d6f480c7424ba81b30b8b4f5" target="_top" xlink:title=" ">
<polygon fill="white" stroke="black" points="241,-412.5 241,-442.5 366,-442.5 366,-412.5 241,-412.5"/>
<text text-anchor="start" x="249" y="-430.5" font-family="Helvetica,sans-Serif" font-size="10.00">JoystickStatusWindow</text>
<text text-anchor="middle" x="303.5" y="-419.5" font-family="Helvetica,sans-Serif" font-size="10.00">::restoreButtonStates</text>
</a>
</g>
</g>
<!-- Node91&#45;&gt;Node97 -->
<g id="edge19" class="edge">
<title>Node91&#45;&gt;Node97</title>
<path fill="none" stroke="midnightblue" d="M444.27,-427.5C419.28,-427.5 390.92,-427.5 366.31,-427.5"/>
<polygon fill="midnightblue" stroke="midnightblue" points="444.39,-431 454.39,-427.5 444.39,-424 444.39,-431"/>
</g>
<!-- Node98 -->
<g id="node20" class="node">
<title>Node98</title>
<g id="a_node20"><a xlink:href="classGameControllerMappingDialogHelper.html#a4040e6cf676fe8af751125e2928d8a35" target="_top" xlink:title=" ">
<polygon fill="white" stroke="black" points="214,-275.5 214,-305.5 393,-305.5 393,-275.5 214,-275.5"/>
<text text-anchor="start" x="222" y="-293.5" font-family="Helvetica,sans-Serif" font-size="10.00">GameControllerMappingDialog</text>
<text text-anchor="middle" x="303.5" y="-282.5" font-family="Helvetica,sans-Serif" font-size="10.00">Helper::restoreDeviceDeadZones</text>
</a>
</g>
</g>
<!-- Node91&#45;&gt;Node98 -->
<g id="edge21" class="edge">
<title>Node91&#45;&gt;Node98</title>
<path fill="none" stroke="midnightblue" d="M496.44,-409.94C476.45,-385.24 436.67,-340.47 393,-315.5 386.35,-311.7 379.08,-308.44 371.66,-305.66"/>
<polygon fill="midnightblue" stroke="midnightblue" points="493.7,-412.12 502.66,-417.77 499.18,-407.77 493.7,-412.12"/>
</g>
<!-- Node99 -->
<g id="node21" class="node">
<title>Node99</title>
<g id="a_node21"><a xlink:href="classQuickSetDialog.html#afacbf395389ca073edf366a412c1626b" target="_top" xlink:title=" ">
<polygon fill="white" stroke="black" points="218.5,-324.5 218.5,-354.5 388.5,-354.5 388.5,-324.5 218.5,-324.5"/>
<text text-anchor="start" x="226.5" y="-342.5" font-family="Helvetica,sans-Serif" font-size="10.00">QuickSetDialog::restoreJoystick</text>
<text text-anchor="middle" x="303.5" y="-331.5" font-family="Helvetica,sans-Serif" font-size="10.00">State</text>
</a>
</g>
</g>
<!-- Node91&#45;&gt;Node99 -->
<g id="edge22" class="edge">
<title>Node91&#45;&gt;Node99</title>
<path fill="none" stroke="midnightblue" d="M483.54,-413.12C460.13,-400.7 424.84,-382.72 393,-369.5 380.11,-364.15 365.9,-359.01 352.7,-354.54"/>
<polygon fill="midnightblue" stroke="midnightblue" points="482.03,-416.28 492.5,-417.91 485.33,-410.1 482.03,-416.28"/>
</g>
<!-- Node100 -->
<g id="node22" class="node">
<title>Node100</title>
<g id="a_node22"><a xlink:href="classGameControllerMappingDialogHelper.html#a7852aab5763281aa59c17f2f1da8dd31" target="_top" xlink:title=" ">
<polygon fill="white" stroke="black" points="220,-226.5 220,-256.5 387,-256.5 387,-226.5 220,-226.5"/>
<text text-anchor="start" x="228" y="-244.5" font-family="Helvetica,sans-Serif" font-size="10.00">GameControllerMappingDialog</text>
<text text-anchor="middle" x="303.5" y="-233.5" font-family="Helvetica,sans-Serif" font-size="10.00">Helper::setupDeadZones</text>
</a>
</g>
</g>
<!-- Node91&#45;&gt;Node100 -->
<g id="edge24" class="edge">
<title>Node91&#45;&gt;Node100</title>
<path fill="none" stroke="midnightblue" d="M501.57,-408.39C485.53,-374.3 447.3,-303.06 393,-265.5 388.02,-262.06 382.58,-259.11 376.91,-256.58"/>
<polygon fill="midnightblue" stroke="midnightblue" points="498.49,-410.07 505.83,-417.7 504.85,-407.15 498.49,-410.07"/>
</g>
<!-- Node96&#45;&gt;Node92 -->
<g id="edge18" class="edge">
<title>Node96&#45;&gt;Node92</title>
<path fill="none" stroke="midnightblue" d="M207.22,-574.36C197.49,-575.37 187.65,-576.39 178,-577.39"/>
<polygon fill="midnightblue" stroke="midnightblue" points="207.71,-577.83 217.29,-573.32 206.99,-570.87 207.71,-577.83"/>
</g>
<!-- Node97&#45;&gt;Node94 -->
<g id="edge20" class="edge">
<title>Node97&#45;&gt;Node94</title>
<path fill="none" stroke="midnightblue" d="M230.44,-431.57C205.95,-432.95 178.75,-434.49 154.86,-435.84"/>
<polygon fill="midnightblue" stroke="midnightblue" points="230.96,-435.05 240.75,-430.99 230.57,-428.06 230.96,-435.05"/>
</g>
<!-- Node99&#45;&gt;Node95 -->
<g id="edge23" class="edge">
<title>Node99&#45;&gt;Node95</title>
<path fill="none" stroke="midnightblue" d="M208.15,-353.71C191.91,-356.15 175.28,-358.66 159.83,-360.98"/>
<polygon fill="midnightblue" stroke="midnightblue" points="208.84,-357.14 218.21,-352.19 207.8,-350.22 208.84,-357.14"/>
</g>
<!-- Node102 -->
<g id="node24" class="node">
<title>Node102</title>
<g id="a_node24"><a xlink:href="classJoyAxis.html#a9c5f69db8b88f31a1df043a00ab9d09a" target="_top" xlink:title=" ">
<polygon fill="white" stroke="red" points="662,-661 662,-680 763,-680 763,-661 662,-661"/>
<text text-anchor="middle" x="712.5" y="-668" font-family="Helvetica,sans-Serif" font-size="10.00">JoyAxis::joyEvent</text>
</a>
</g>
</g>
<!-- Node101&#45;&gt;Node102 -->
<g id="edge26" class="edge">
<title>Node101&#45;&gt;Node102</title>
<path fill="none" stroke="midnightblue" d="M832.92,-677.08C809.28,-675.78 784.11,-674.39 763,-673.23"/>
<polygon fill="midnightblue" stroke="midnightblue" points="832.77,-680.58 842.94,-677.64 833.15,-673.59 832.77,-680.58"/>
</g>
<!-- Node102&#45;&gt;Node91 -->
<g id="edge27" class="edge">
<title>Node102&#45;&gt;Node91</title>
<path fill="none" stroke="midnightblue" d="M655.89,-657.28C646.24,-653.29 636.81,-648.14 629,-641.5 559.3,-582.28 523.92,-470.65 514.57,-437.2"/>
<polygon fill="midnightblue" stroke="midnightblue" points="654.96,-660.67 665.56,-660.89 657.41,-654.11 654.96,-660.67"/>
</g>
<!-- Node106 -->
<g id="node26" class="node">
<title>Node106</title>
<g id="a_node26"><a xlink:href="classJoyControlStick.html#a376fa9faaaba5e00c4b1f9c8caa6236a" target="_top" xlink:title="Take the input value for the two axes that make up a stick and activate the proper event based on the...">
<polygon fill="white" stroke="red" points="441,-836 441,-855 581,-855 581,-836 441,-836"/>
<text text-anchor="middle" x="511" y="-843" font-family="Helvetica,sans-Serif" font-size="10.00">JoyControlStick::joyEvent</text>
</a>
</g>
</g>
<!-- Node105&#45;&gt;Node106 -->
<g id="edge29" class="edge">
<title>Node105&#45;&gt;Node106</title>
<path fill="none" stroke="midnightblue" d="M626.07,-832.92C611.07,-834.57 595.64,-836.28 581.15,-837.87"/>
<polygon fill="midnightblue" stroke="midnightblue" points="626.81,-836.36 636.36,-831.79 626.04,-829.4 626.81,-836.36"/>
</g>
<!-- Node111 -->
<g id="node27" class="node">
<title>Node111</title>
<g id="a_node27"><a xlink:href="classJoyControlStick.html#a1eada62b1da2f1a87dd698a19cc59ae4" target="_top" xlink:title="Slot called when directionDelayTimer has timed out. The method will call createDeskEvent.">
<polygon fill="white" stroke="red" points="429,-786.5 429,-816.5 593,-816.5 593,-786.5 429,-786.5"/>
<text text-anchor="start" x="437" y="-804.5" font-family="Helvetica,sans-Serif" font-size="10.00">JoyControlStick::stickDirection</text>
<text text-anchor="middle" x="511" y="-793.5" font-family="Helvetica,sans-Serif" font-size="10.00">ChangeEvent</text>
</a>
</g>
</g>
<!-- Node105&#45;&gt;Node111 -->
<g id="edge30" class="edge">
<title>Node105&#45;&gt;Node111</title>
<path fill="none" stroke="midnightblue" d="M626.32,-814.11C615.3,-812.89 604.03,-811.65 593.07,-810.44"/>
<polygon fill="midnightblue" stroke="midnightblue" points="626.04,-817.6 636.36,-815.21 626.81,-810.64 626.04,-817.6"/>
</g>
<!-- Node113&#45;&gt;Node105 -->
<g id="edge32" class="edge">
<title>Node113&#45;&gt;Node105</title>
<path fill="none" stroke="midnightblue" d="M841.84,-791.98C819.86,-797.38 795.84,-803.28 774.6,-808.49"/>
<polygon fill="midnightblue" stroke="midnightblue" points="842.91,-795.32 851.79,-789.53 841.24,-788.52 842.91,-795.32"/>
</g>
<!-- Node114&#45;&gt;Node105 -->
<g id="edge34" class="edge">
<title>Node114&#45;&gt;Node105</title>
<path fill="none" stroke="midnightblue" d="M835.72,-823.5C820.28,-823.5 804.08,-823.5 788.71,-823.5"/>
<polygon fill="midnightblue" stroke="midnightblue" points="835.74,-827 845.74,-823.5 835.74,-820 835.74,-827"/>
</g>
<!-- Node131 -->
<g id="node35" class="node">
<title>Node131</title>
<g id="a_node35"><a xlink:href="classJoyButtonMouseHelper.html#a7bf98a02c2949419a441fa9213251ff5" target="_top" xlink:title="Perform mouse events for all buttons and slots.">
<polygon fill="white" stroke="red" points="1242,-87.5 1242,-117.5 1370,-117.5 1370,-87.5 1242,-87.5"/>
<text text-anchor="start" x="1250" y="-105.5" font-family="Helvetica,sans-Serif" font-size="10.00">JoyButtonMouseHelper</text>
<text text-anchor="middle" x="1306" y="-94.5" font-family="Helvetica,sans-Serif" font-size="10.00">::mouseEvent</text>
</a>
</g>
</g>
<!-- Node130&#45;&gt;Node131 -->
<g id="edge42" class="edge">
<title>Node130&#45;&gt;Node131</title>
<path fill="none" stroke="midnightblue" d="M1423.68,-106.16C1406.03,-105.6 1387.39,-105.02 1370.31,-104.48"/>
<polygon fill="midnightblue" stroke="midnightblue" points="1423.83,-109.66 1433.93,-106.48 1424.05,-102.67 1423.83,-109.66"/>
</g>
<!-- Node138 -->
<g id="node37" class="node">
<title>Node138</title>
<g id="a_node37"><a xlink:href="classJoyButton.html#a85ef81bba77c2a23beb5107870038ddc" target="_top" xlink:title=" ">
<polygon fill="white" stroke="red" points="1236,-224.5 1236,-254.5 1376,-254.5 1376,-224.5 1236,-224.5"/>
<text text-anchor="start" x="1244" y="-242.5" font-family="Helvetica,sans-Serif" font-size="10.00">JoyButton::addEachSlotTo</text>
<text text-anchor="middle" x="1306" y="-231.5" font-family="Helvetica,sans-Serif" font-size="10.00">Actives</text>
</a>
</g>
</g>
<!-- Node137&#45;&gt;Node138 -->
<g id="edge44" class="edge">
<title>Node137&#45;&gt;Node138</title>
<path fill="none" stroke="midnightblue" d="M1471.44,-318.95C1449.46,-302.26 1417.1,-279.53 1386,-264.5 1378.36,-260.81 1370.04,-257.49 1361.77,-254.57"/>
<polygon fill="midnightblue" stroke="midnightblue" points="1469.56,-321.92 1479.62,-325.24 1473.83,-316.37 1469.56,-321.92"/>
</g>
<!-- Node153 -->
<g id="node38" class="node">
<title>Node153</title>
<g id="a_node38"><a xlink:href="classJoyButton.html#a04aadf5bd54cd6fde12426dce5b03196" target="_top" xlink:title=" ">
<polygon fill="white" stroke="red" points="1233,-175.5 1233,-205.5 1379,-205.5 1379,-175.5 1233,-175.5"/>
<text text-anchor="start" x="1241" y="-193.5" font-family="Helvetica,sans-Serif" font-size="10.00">JoyButton::clearSlotsEvent</text>
<text text-anchor="middle" x="1306" y="-182.5" font-family="Helvetica,sans-Serif" font-size="10.00">Reset</text>
</a>
</g>
</g>
<!-- Node137&#45;&gt;Node153 -->
<g id="edge45" class="edge">
<title>Node137&#45;&gt;Node153</title>
<path fill="none" stroke="midnightblue" d="M1483.35,-316.75C1464.07,-288.39 1428.15,-241.42 1386,-214.5 1380.68,-211.1 1374.86,-208.17 1368.87,-205.63"/>
<polygon fill="midnightblue" stroke="midnightblue" points="1480.56,-318.87 1489.01,-325.26 1486.38,-314.99 1480.56,-318.87"/>
</g>
<!-- Node168 -->
<g id="node39" class="node">
<title>Node168</title>
<g id="a_node39"><a xlink:href="classJoyButton.html#a31a4707b5d086bd7f7d0bf491c94169b" target="_top" xlink:title=" ">
<polygon fill="white" stroke="red" points="1236.5,-464 1236.5,-483 1375.5,-483 1375.5,-464 1236.5,-464"/>
<text text-anchor="middle" x="1306" y="-471" font-family="Helvetica,sans-Serif" font-size="10.00">JoyButton::distanceEvent</text>
</a>
</g>
</g>
<!-- Node137&#45;&gt;Node168 -->
<g id="edge46" class="edge">
<title>Node137&#45;&gt;Node168</title>
<path fill="none" stroke="midnightblue" d="M1481.86,-363.93C1462.04,-390.06 1426.46,-431.65 1386,-454.5 1379.12,-458.38 1371.47,-461.48 1363.72,-463.94"/>
<polygon fill="midnightblue" stroke="midnightblue" points="1484.82,-365.82 1487.97,-355.71 1479.2,-361.65 1484.82,-365.82"/>
</g>
<!-- Node169 -->
<g id="node40" class="node">
<title>Node169</title>
<g id="a_node40"><a xlink:href="classJoyButton.html#ae8bc1417525f44cbb811be752146c25c" target="_top" xlink:title=" ">
<polygon fill="white" stroke="red" points="1048.5,-420 1048.5,-439 1173.5,-439 1173.5,-420 1048.5,-420"/>
<text text-anchor="middle" x="1111" y="-427" font-family="Helvetica,sans-Serif" font-size="10.00">JoyButton::eventReset</text>
</a>
</g>
</g>
<!-- Node137&#45;&gt;Node169 -->
<g id="edge47" class="edge">
<title>Node137&#45;&gt;Node169</title>
<path fill="none" stroke="midnightblue" d="M1481.96,-363.99C1452.42,-405.76 1393.01,-488.97 1386,-492.5 1322.5,-524.5 1294.86,-510.26 1226,-492.5 1185.71,-482.11 1144.44,-454.11 1124.42,-439.18"/>
<polygon fill="midnightblue" stroke="midnightblue" points="1484.87,-365.93 1487.78,-355.74 1479.15,-361.89 1484.87,-365.93"/>
</g>
<!-- Node145 -->
<g id="node41" class="node">
<title>Node145</title>
<g id="a_node41"><a xlink:href="classJoyButton.html#a0a485dc6414ba37bf1dfc34cf0b0fddb" target="_top" xlink:title=" ">
<polygon fill="white" stroke="red" points="1246.5,-426 1246.5,-445 1365.5,-445 1365.5,-426 1246.5,-426"/>
<text text-anchor="middle" x="1306" y="-433" font-family="Helvetica,sans-Serif" font-size="10.00">JoyButton::holdEvent</text>
</a>
</g>
</g>
<!-- Node137&#45;&gt;Node145 -->
<g id="edge49" class="edge">
<title>Node137&#45;&gt;Node145</title>
<path fill="none" stroke="midnightblue" d="M1470.06,-361.47C1448.01,-376.96 1416.22,-397.68 1386,-411.5 1373.36,-417.28 1358.95,-422.13 1345.94,-425.92"/>
<polygon fill="midnightblue" stroke="midnightblue" points="1472.18,-364.25 1478.3,-355.6 1468.12,-358.55 1472.18,-364.25"/>
</g>
<!-- Node146 -->
<g id="node42" class="node">
<title>Node146</title>
<g id="a_node42"><a xlink:href="classJoyButton.html#a4e87da582ac95744c4255fa975e26327" target="_top" xlink:title=" ">
<polygon fill="white" stroke="red" points="1235.5,-350 1235.5,-369 1376.5,-369 1376.5,-350 1235.5,-350"/>
<text text-anchor="middle" x="1306" y="-357" font-family="Helvetica,sans-Serif" font-size="10.00">JoyButton::keyPressEvent</text>
</a>
</g>
</g>
<!-- Node137&#45;&gt;Node146 -->
<g id="edge50" class="edge">
<title>Node137&#45;&gt;Node146</title>
<path fill="none" stroke="midnightblue" d="M1420.98,-348.19C1406.37,-349.64 1391.18,-351.15 1376.82,-352.57"/>
<polygon fill="midnightblue" stroke="midnightblue" points="1421.38,-351.67 1430.98,-347.2 1420.69,-344.7 1421.38,-351.67"/>
</g>
<!-- Node151 -->
<g id="node43" class="node">
<title>Node151</title>
<g id="a_node43"><a xlink:href="classJoyButton.html#a52f911105048e6c33180bf267f158b35" target="_top" xlink:title=" ">
<polygon fill="white" stroke="red" points="1032,-274 1032,-293 1190,-293 1190,-274 1032,-274"/>
<text text-anchor="middle" x="1111" y="-281" font-family="Helvetica,sans-Serif" font-size="10.00">JoyButton::releaseDeskEvent</text>
</a>
</g>
</g>
<!-- Node137&#45;&gt;Node151 -->
<g id="edge51" class="edge">
<title>Node137&#45;&gt;Node151</title>
<path fill="none" stroke="midnightblue" d="M1454.39,-359.23C1399.36,-379.8 1303.11,-406.42 1226,-378.5 1178.04,-361.13 1136.07,-313.8 1119.52,-293.25"/>
<polygon fill="midnightblue" stroke="midnightblue" points="1455.76,-362.46 1463.85,-355.61 1453.26,-355.92 1455.76,-362.46"/>
</g>
<!-- Node150 -->
<g id="node45" class="node">
<title>Node150</title>
<g id="a_node45"><a xlink:href="classJoyButton.html#ae43c0b46569b42036bf7ea883e93c591" target="_top" xlink:title=" ">
<polygon fill="white" stroke="black" points="1230,-274 1230,-293 1382,-293 1382,-274 1230,-274"/>
<text text-anchor="middle" x="1306" y="-281" font-family="Helvetica,sans-Serif" font-size="10.00">JoyButton::releaseSlotEvent</text>
</a>
</g>
</g>
<!-- Node137&#45;&gt;Node150 -->
<g id="edge53" class="edge">
<title>Node137&#45;&gt;Node150</title>
<path fill="none" stroke="midnightblue" d="M1447.15,-322.07C1428.06,-315.51 1406.16,-308.32 1386,-302.5 1374.34,-299.14 1361.6,-295.89 1349.82,-293.06"/>
<polygon fill="midnightblue" stroke="midnightblue" points="1446.25,-325.47 1456.84,-325.43 1448.54,-318.85 1446.25,-325.47"/>
</g>
<!-- Node182 -->
<g id="node46" class="node">
<title>Node182</title>
<g id="a_node46"><a xlink:href="classJoyButton.html#a0d10908f5a06ca73366ca988d985933b" target="_top" xlink:title=" ">
<polygon fill="white" stroke="red" points="1239,-312 1239,-331 1373,-331 1373,-312 1239,-312"/>
<text text-anchor="middle" x="1306" y="-319" font-family="Helvetica,sans-Serif" font-size="10.00">JoyButton::resetPrivVars</text>
</a>
</g>
</g>
<!-- Node137&#45;&gt;Node182 -->
<g id="edge55" class="edge">
<title>Node137&#45;&gt;Node182</title>
<path fill="none" stroke="midnightblue" d="M1420.75,-332.79C1405,-331.22 1388.57,-329.59 1373.26,-328.07"/>
<polygon fill="midnightblue" stroke="midnightblue" points="1420.69,-336.3 1430.98,-333.8 1421.38,-329.33 1420.69,-336.3"/>
</g>
<!-- Node169&#45;&gt;Node91 -->
<g id="edge48" class="edge">
<title>Node169&#45;&gt;Node91</title>
<path fill="none" stroke="midnightblue" d="M1076.64,-416.37C1054.23,-408.28 1023.82,-398.67 996,-394.5 834.69,-370.3 790.57,-372.15 629,-394.5 597.01,-398.92 561.47,-409.85 538.05,-417.92"/>
<polygon fill="midnightblue" stroke="midnightblue" points="1075.43,-419.66 1086.03,-419.84 1077.86,-413.09 1075.43,-419.66"/>
</g>
<!-- Node151&#45;&gt;Node143 -->
<g id="edge52" class="edge">
<title>Node151&#45;&gt;Node143</title>
<path fill="none" stroke="midnightblue" d="M1072.84,-270.54C1040.15,-259.14 992.55,-242.54 958.17,-230.56"/>
<polygon fill="midnightblue" stroke="midnightblue" points="1071.88,-273.91 1082.47,-273.9 1074.18,-267.3 1071.88,-273.91"/>
</g>
<!-- Node150&#45;&gt;Node151 -->
<g id="edge54" class="edge">
<title>Node150&#45;&gt;Node151</title>
<path fill="none" stroke="midnightblue" d="M1219.67,-283.5C1209.85,-283.5 1199.87,-283.5 1190.15,-283.5"/>
<polygon fill="midnightblue" stroke="midnightblue" points="1219.83,-287 1229.83,-283.5 1219.83,-280 1219.83,-287"/>
</g>
<!-- Node198&#45;&gt;Node4 -->
<g id="edge57" class="edge">
<title>Node198&#45;&gt;Node4</title>
<path fill="none" stroke="midnightblue" d="M1432.45,-660.7C1417.29,-663.94 1401.17,-666.83 1386,-668.5 1315.31,-676.26 1296.7,-676.16 1226,-668.5 1198.81,-665.55 1168.59,-658.76 1146.1,-653"/>
<polygon fill="midnightblue" stroke="midnightblue" points="1433.24,-664.11 1442.25,-658.53 1431.73,-657.28 1433.24,-664.11"/>
</g>
<!-- Node199 -->
<g id="node48" class="node">
<title>Node199</title>
<g id="a_node48"><a xlink:href="classJoyButtonMouseHelper.html#a5d62da0d0d5b93f7d2a30cd8496c2555" target="_top" xlink:title=" ">
<polygon fill="white" stroke="red" points="1226,-628.5 1226,-658.5 1386,-658.5 1386,-628.5 1226,-628.5"/>
<text text-anchor="start" x="1234" y="-646.5" font-family="Helvetica,sans-Serif" font-size="10.00">JoyButtonMouseHelper</text>
<text text-anchor="middle" x="1306" y="-635.5" font-family="Helvetica,sans-Serif" font-size="10.00">::resetButtonMouseDistances</text>
</a>
</g>
</g>
<!-- Node198&#45;&gt;Node199 -->
<g id="edge58" class="edge">
<title>Node198&#45;&gt;Node199</title>
<path fill="none" stroke="midnightblue" d="M1411.98,-643.5C1403.39,-643.5 1394.71,-643.5 1386.21,-643.5"/>
<polygon fill="midnightblue" stroke="midnightblue" points="1411.99,-647 1421.99,-643.5 1411.99,-640 1411.99,-647"/>
</g>
</g>
</svg>
