<?xml version="1.0" encoding="UTF-8" standalone="no"?>
<!DOCTYPE svg PUBLIC "-//W3C//DTD SVG 1.1//EN"
 "http://www.w3.org/Graphics/SVG/1.1/DTD/svg11.dtd">
<!-- Generated by graphviz version 2.43.0 (0)
 -->
<!-- Title: InputDevice::setStickButtonName Pages: 1 -->
<svg width="771pt" height="242pt"
 viewBox="0.00 0.00 771.00 241.50" xmlns="http://www.w3.org/2000/svg" xmlns:xlink="http://www.w3.org/1999/xlink">
<g id="graph0" class="graph" transform="scale(1 1) rotate(0) translate(4 237.5)">
<title>InputDevice::setStickButtonName</title>
<polygon fill="white" stroke="transparent" points="-4,4 -4,-237.5 767,-237.5 767,4 -4,4"/>
<!-- Node1 -->
<g id="node1" class="node">
<title>Node1</title>
<g id="a_node1"><a xlink:title=" ">
<polygon fill="#bfbfbf" stroke="black" points="0,-121.5 0,-140.5 182,-140.5 182,-121.5 0,-121.5"/>
<text text-anchor="middle" x="91" y="-128.5" font-family="Helvetica,sans-Serif" font-size="10.00">InputDevice::setStickButtonName</text>
</a>
</g>
</g>
<!-- Node2 -->
<g id="node2" class="node">
<title>Node2</title>
<g id="a_node2"><a xlink:href="classJoyControlStick.html#ae57242ae6e71190d82ef4dbf31f11dd0" target="_top" xlink:title="Get a pointer to the stick direction button for the desired direction.">
<polygon fill="white" stroke="black" points="409,-203 409,-233 566,-233 566,-203 409,-203"/>
<text text-anchor="start" x="417" y="-221" font-family="Helvetica,sans-Serif" font-size="10.00">JoyControlStick::getDirection</text>
<text text-anchor="middle" x="487.5" y="-210" font-family="Helvetica,sans-Serif" font-size="10.00">Button</text>
</a>
</g>
</g>
<!-- Node1&#45;&gt;Node2 -->
<g id="edge1" class="edge">
<title>Node1&#45;&gt;Node2</title>
<path fill="none" stroke="midnightblue" d="M114.82,-140.62C139.75,-150.78 181.08,-166.61 218,-176 277.5,-191.13 345.87,-201.73 398.74,-208.5"/>
<polygon fill="midnightblue" stroke="midnightblue" points="398.4,-211.98 408.76,-209.76 399.27,-205.04 398.4,-211.98"/>
</g>
<!-- Node3 -->
<g id="node3" class="node">
<title>Node3</title>
<g id="a_node3"><a xlink:href="classSetJoystick.html#a7b74d7b4a0adfc9c25cdbe4433d9b275" target="_top" xlink:title=" ">
<polygon fill="white" stroke="black" points="422,-164.5 422,-183.5 553,-183.5 553,-164.5 422,-164.5"/>
<text text-anchor="middle" x="487.5" y="-171.5" font-family="Helvetica,sans-Serif" font-size="10.00">SetJoystick::getJoyStick</text>
</a>
</g>
</g>
<!-- Node1&#45;&gt;Node3 -->
<g id="edge2" class="edge">
<title>Node1&#45;&gt;Node3</title>
<path fill="none" stroke="midnightblue" d="M132.92,-140.51C157.46,-145.86 189.37,-152.22 218,-156 283.16,-164.61 357.79,-169.19 411.8,-171.58"/>
<polygon fill="midnightblue" stroke="midnightblue" points="411.84,-175.08 421.98,-172.01 412.14,-168.09 411.84,-175.08"/>
</g>
<!-- Node5 -->
<g id="node5" class="node">
<title>Node5</title>
<g id="a_node5"><a xlink:href="classInputDevice.html#a1c4c65d9e509a5c3bde064871d7e1849" target="_top" xlink:title=" ">
<polygon fill="white" stroke="black" points="602,-60.5 602,-79.5 763,-79.5 763,-60.5 602,-60.5"/>
<text text-anchor="middle" x="682.5" y="-67.5" font-family="Helvetica,sans-Serif" font-size="10.00">InputDevice::getJoystick_sets</text>
</a>
</g>
</g>
<!-- Node1&#45;&gt;Node5 -->
<g id="edge4" class="edge">
<title>Node1&#45;&gt;Node5</title>
<path fill="none" stroke="midnightblue" d="M127.3,-121.47C185.48,-106.31 305.37,-77.36 409,-67 478.43,-60.06 496.23,-66.09 566,-67 574.36,-67.11 583.06,-67.26 591.77,-67.44"/>
<polygon fill="midnightblue" stroke="midnightblue" points="591.9,-70.94 601.98,-67.66 592.06,-63.95 591.9,-70.94"/>
</g>
<!-- Node6 -->
<g id="node6" class="node">
<title>Node6</title>
<g id="a_node6"><a xlink:href="classJoyButton.html#a5577eb227e3fd535fdcbbf395648e215" target="_top" xlink:title=" ">
<polygon fill="white" stroke="black" points="222.5,-0.5 222.5,-19.5 368.5,-19.5 368.5,-0.5 222.5,-0.5"/>
<text text-anchor="middle" x="295.5" y="-7.5" font-family="Helvetica,sans-Serif" font-size="10.00">JoyButton::setButtonName</text>
</a>
</g>
</g>
<!-- Node1&#45;&gt;Node6 -->
<g id="edge5" class="edge">
<title>Node1&#45;&gt;Node6</title>
<path fill="none" stroke="midnightblue" d="M101.92,-121.34C122.14,-102.13 170.25,-58.86 218,-34 226.52,-29.56 236.01,-25.77 245.32,-22.61"/>
<polygon fill="midnightblue" stroke="midnightblue" points="246.46,-25.92 254.92,-19.53 244.33,-19.25 246.46,-25.92"/>
</g>
<!-- Node7 -->
<g id="node7" class="node">
<title>Node7</title>
<g id="a_node7"><a xlink:href="classInputDevice.html#acc8b931a7b219403ecd8eae444d8534f" target="_top" xlink:title=" ">
<polygon fill="white" stroke="black" points="218,-116 218,-146 373,-146 373,-116 218,-116"/>
<text text-anchor="start" x="226" y="-134" font-family="Helvetica,sans-Serif" font-size="10.00">InputDevice::updateSetStick</text>
<text text-anchor="middle" x="295.5" y="-123" font-family="Helvetica,sans-Serif" font-size="10.00">ButtonNames</text>
</a>
</g>
</g>
<!-- Node1&#45;&gt;Node7 -->
<g id="edge6" class="edge">
<title>Node1&#45;&gt;Node7</title>
<path fill="none" stroke="midnightblue" d="M182.29,-124.29C190.77,-124.23 199.34,-124.24 207.78,-124.31"/>
<polygon fill="midnightblue" stroke="midnightblue" points="207.95,-127.81 217.99,-124.43 208.03,-120.81 207.95,-127.81"/>
</g>
<!-- Node4 -->
<g id="node4" class="node">
<title>Node4</title>
<g id="a_node4"><a xlink:href="classSetJoystick.html#a7ca499fe41a0a9841b4fe904b07cbc30" target="_top" xlink:title=" ">
<polygon fill="white" stroke="black" points="621.5,-164.5 621.5,-183.5 743.5,-183.5 743.5,-164.5 621.5,-164.5"/>
<text text-anchor="middle" x="682.5" y="-171.5" font-family="Helvetica,sans-Serif" font-size="10.00">SetJoystick::getSticks</text>
</a>
</g>
</g>
<!-- Node3&#45;&gt;Node4 -->
<g id="edge3" class="edge">
<title>Node3&#45;&gt;Node4</title>
<path fill="none" stroke="midnightblue" d="M553.03,-174C571.71,-174 592.18,-174 611.18,-174"/>
<polygon fill="midnightblue" stroke="midnightblue" points="611.27,-177.5 621.27,-174 611.27,-170.5 611.27,-177.5"/>
</g>
<!-- Node7&#45;&gt;Node1 -->
<g id="edge12" class="edge">
<title>Node7&#45;&gt;Node1</title>
<path fill="none" stroke="midnightblue" d="M217.99,-137.57C209.61,-137.69 200.99,-137.75 192.38,-137.75"/>
<polygon fill="midnightblue" stroke="midnightblue" points="192.31,-134.25 182.29,-137.71 192.28,-141.25 192.31,-134.25"/>
</g>
<!-- Node7&#45;&gt;Node2 -->
<g id="edge10" class="edge">
<title>Node7&#45;&gt;Node2</title>
<path fill="none" stroke="midnightblue" d="M320.83,-146.2C343.17,-159.71 377.47,-179.38 409,-193 414.32,-195.3 419.93,-197.5 425.59,-199.58"/>
<polygon fill="midnightblue" stroke="midnightblue" points="424.53,-202.92 435.13,-202.96 426.87,-196.32 424.53,-202.92"/>
</g>
<!-- Node7&#45;&gt;Node3 -->
<g id="edge11" class="edge">
<title>Node7&#45;&gt;Node3</title>
<path fill="none" stroke="midnightblue" d="M362.95,-146.04C386.43,-151.35 412.47,-157.25 434.57,-162.25"/>
<polygon fill="midnightblue" stroke="midnightblue" points="433.9,-165.68 444.42,-164.48 435.44,-158.86 433.9,-165.68"/>
</g>
<!-- Node8 -->
<g id="node8" class="node">
<title>Node8</title>
<g id="a_node8"><a xlink:href="classInputDevice.html#abc23a70bef37f2fc70248cd129af170b" target="_top" xlink:title=" ">
<polygon fill="white" stroke="black" points="416,-77 416,-107 559,-107 559,-77 416,-77"/>
<text text-anchor="start" x="424" y="-95" font-family="Helvetica,sans-Serif" font-size="10.00">InputDevice::getActiveSet</text>
<text text-anchor="middle" x="487.5" y="-84" font-family="Helvetica,sans-Serif" font-size="10.00">Joystick</text>
</a>
</g>
</g>
<!-- Node7&#45;&gt;Node8 -->
<g id="edge7" class="edge">
<title>Node7&#45;&gt;Node8</title>
<path fill="none" stroke="midnightblue" d="M369.69,-115.98C381.53,-113.55 393.85,-111.02 405.86,-108.55"/>
<polygon fill="midnightblue" stroke="midnightblue" points="406.76,-111.94 415.85,-106.5 405.35,-105.08 406.76,-111.94"/>
</g>
<!-- Node9 -->
<g id="node9" class="node">
<title>Node9</title>
<g id="a_node9"><a xlink:href="classJoyButton.html#a7123f5432bda7b5b9d4b2b95bdabf4db" target="_top" xlink:title=" ">
<polygon fill="white" stroke="black" points="414,-126.5 414,-145.5 561,-145.5 561,-126.5 414,-126.5"/>
<text text-anchor="middle" x="487.5" y="-133.5" font-family="Helvetica,sans-Serif" font-size="10.00">JoyButton::getButtonName</text>
</a>
</g>
</g>
<!-- Node7&#45;&gt;Node9 -->
<g id="edge9" class="edge">
<title>Node7&#45;&gt;Node9</title>
<path fill="none" stroke="midnightblue" d="M373.23,-133.02C383.27,-133.28 393.6,-133.56 403.73,-133.82"/>
<polygon fill="midnightblue" stroke="midnightblue" points="403.7,-137.32 413.79,-134.09 403.89,-130.32 403.7,-137.32"/>
</g>
<!-- Node8&#45;&gt;Node5 -->
<g id="edge8" class="edge">
<title>Node8&#45;&gt;Node5</title>
<path fill="none" stroke="midnightblue" d="M559.27,-83.93C569.9,-82.72 580.97,-81.46 591.92,-80.21"/>
<polygon fill="midnightblue" stroke="midnightblue" points="592.4,-83.68 601.94,-79.07 591.6,-76.72 592.4,-83.68"/>
</g>
</g>
</svg>
