<?xml version="1.0" encoding="UTF-8" standalone="no"?>
<!DOCTYPE svg PUBLIC "-//W3C//DTD SVG 1.1//EN"
 "http://www.w3.org/Graphics/SVG/1.1/DTD/svg11.dtd">
<!-- Generated by graphviz version 2.43.0 (0)
 -->
<!-- Title: JoySensorPreset::currentPreset Pages: 1 -->
<svg width="581pt" height="256pt"
 viewBox="0.00 0.00 581.00 256.00" xmlns="http://www.w3.org/2000/svg" xmlns:xlink="http://www.w3.org/1999/xlink">
<g id="graph0" class="graph" transform="scale(1 1) rotate(0) translate(4 252)">
<title>JoySensorPreset::currentPreset</title>
<polygon fill="white" stroke="transparent" points="-4,4 -4,-252 577,-252 577,4 -4,4"/>
<!-- Node1 -->
<g id="node1" class="node">
<title>Node1</title>
<g id="a_node1"><a xlink:title="Determines the preset used by the underlying sensor.">
<polygon fill="#bfbfbf" stroke="black" points="0,-109 0,-139 136,-139 136,-109 0,-109"/>
<text text-anchor="start" x="8" y="-127" font-family="Helvetica,sans-Serif" font-size="10.00">JoySensorPreset::current</text>
<text text-anchor="middle" x="68" y="-116" font-family="Helvetica,sans-Serif" font-size="10.00">Preset</text>
</a>
</g>
</g>
<!-- Node2 -->
<g id="node2" class="node">
<title>Node2</title>
<g id="a_node2"><a xlink:href="classJoyButton.html#ae1d364dfa70f47fae3db99ffbcdea44b" target="_top" xlink:title=" ">
<polygon fill="white" stroke="black" points="181.5,-228.5 181.5,-247.5 335.5,-247.5 335.5,-228.5 181.5,-228.5"/>
<text text-anchor="middle" x="258.5" y="-235.5" font-family="Helvetica,sans-Serif" font-size="10.00">JoyButton::getAssignedSlots</text>
</a>
</g>
</g>
<!-- Node1&#45;&gt;Node2 -->
<g id="edge1" class="edge">
<title>Node1&#45;&gt;Node2</title>
<path fill="none" stroke="midnightblue" d="M80.88,-139.14C98.43,-160.41 133.41,-198.82 172,-219 176.52,-221.36 181.32,-223.43 186.25,-225.24"/>
<polygon fill="midnightblue" stroke="midnightblue" points="185.26,-228.6 195.85,-228.42 187.46,-221.96 185.26,-228.6"/>
</g>
<!-- Node3 -->
<g id="node3" class="node">
<title>Node3</title>
<g id="a_node3"><a xlink:href="classJoySensor.html#a09be56d2b545bb2838899a7c1b96c1ce" target="_top" xlink:title="Get a pointer to the sensor direction button for the desired direction.">
<polygon fill="white" stroke="black" points="177,-190.5 177,-209.5 340,-209.5 340,-190.5 177,-190.5"/>
<text text-anchor="middle" x="258.5" y="-197.5" font-family="Helvetica,sans-Serif" font-size="10.00">JoySensor::getDirectionButton</text>
</a>
</g>
</g>
<!-- Node1&#45;&gt;Node3 -->
<g id="edge2" class="edge">
<title>Node1&#45;&gt;Node3</title>
<path fill="none" stroke="midnightblue" d="M91.8,-139.13C112.08,-151.97 142.95,-170 172,-181 178.84,-183.59 186.14,-185.88 193.47,-187.89"/>
<polygon fill="midnightblue" stroke="midnightblue" points="192.89,-191.35 203.45,-190.46 194.63,-184.58 192.89,-191.35"/>
</g>
<!-- Node4 -->
<g id="node4" class="node">
<title>Node4</title>
<g id="a_node4"><a xlink:href="classAntKeyMapper.html#acd08c44a2501edcfdb1ef8a68d534b1b" target="_top" xlink:title=" ">
<polygon fill="white" stroke="black" points="183,-152.5 183,-171.5 334,-171.5 334,-152.5 183,-152.5"/>
<text text-anchor="middle" x="258.5" y="-159.5" font-family="Helvetica,sans-Serif" font-size="10.00">AntKeyMapper::getInstance</text>
</a>
</g>
</g>
<!-- Node1&#45;&gt;Node4 -->
<g id="edge3" class="edge">
<title>Node1&#45;&gt;Node4</title>
<path fill="none" stroke="midnightblue" d="M136.25,-137.56C157.15,-141.77 179.98,-146.37 200.13,-150.43"/>
<polygon fill="midnightblue" stroke="midnightblue" points="199.6,-153.9 210.1,-152.44 200.98,-147.04 199.6,-153.9"/>
</g>
<!-- Node7 -->
<g id="node7" class="node">
<title>Node7</title>
<g id="a_node7"><a xlink:href="classJoyButtonSlot.html#a1e91202fd2eac80332ed3e3ff1593769" target="_top" xlink:title=" ">
<polygon fill="white" stroke="black" points="184.5,-114.5 184.5,-133.5 332.5,-133.5 332.5,-114.5 184.5,-114.5"/>
<text text-anchor="middle" x="258.5" y="-121.5" font-family="Helvetica,sans-Serif" font-size="10.00">JoyButtonSlot::getSlotCode</text>
</a>
</g>
</g>
<!-- Node1&#45;&gt;Node7 -->
<g id="edge6" class="edge">
<title>Node1&#45;&gt;Node7</title>
<path fill="none" stroke="midnightblue" d="M136.25,-124C148.52,-124 161.45,-124 174.11,-124"/>
<polygon fill="midnightblue" stroke="midnightblue" points="174.2,-127.5 184.2,-124 174.2,-120.5 174.2,-127.5"/>
</g>
<!-- Node8 -->
<g id="node8" class="node">
<title>Node8</title>
<g id="a_node8"><a xlink:href="classJoyButtonSlot.html#a86b4a25191351f28942511012a4e4e4a" target="_top" xlink:title=" ">
<polygon fill="white" stroke="black" points="183.5,-76.5 183.5,-95.5 333.5,-95.5 333.5,-76.5 183.5,-76.5"/>
<text text-anchor="middle" x="258.5" y="-83.5" font-family="Helvetica,sans-Serif" font-size="10.00">JoyButtonSlot::getSlotMode</text>
</a>
</g>
</g>
<!-- Node1&#45;&gt;Node8 -->
<g id="edge7" class="edge">
<title>Node1&#45;&gt;Node8</title>
<path fill="none" stroke="midnightblue" d="M136.25,-110.44C157.15,-106.23 179.98,-101.63 200.13,-97.57"/>
<polygon fill="midnightblue" stroke="midnightblue" points="200.98,-100.96 210.1,-95.56 199.6,-94.1 200.98,-100.96"/>
</g>
<!-- Node9 -->
<g id="node9" class="node">
<title>Node9</title>
<g id="a_node9"><a xlink:href="classJoySensor.html#a40f39fed32b3e7e6d1c7128cc3d7a264" target="_top" xlink:title="Returns the sensor type.">
<polygon fill="white" stroke="black" points="204,-38.5 204,-57.5 313,-57.5 313,-38.5 204,-38.5"/>
<text text-anchor="middle" x="258.5" y="-45.5" font-family="Helvetica,sans-Serif" font-size="10.00">JoySensor::getType</text>
</a>
</g>
</g>
<!-- Node1&#45;&gt;Node9 -->
<g id="edge8" class="edge">
<title>Node1&#45;&gt;Node9</title>
<path fill="none" stroke="midnightblue" d="M91.8,-108.87C112.08,-96.03 142.95,-78 172,-67 179.02,-64.34 186.51,-62 194.03,-59.96"/>
<polygon fill="midnightblue" stroke="midnightblue" points="195.08,-63.3 203.9,-57.44 193.34,-56.52 195.08,-63.3"/>
</g>
<!-- Node10 -->
<g id="node10" class="node">
<title>Node10</title>
<g id="a_node10"><a xlink:href="classAntKeyMapper.html#a07957c1e2baac6c4266678d89dc7c3a6" target="_top" xlink:title=" ">
<polygon fill="white" stroke="black" points="172,-0.5 172,-19.5 345,-19.5 345,-0.5 172,-0.5"/>
<text text-anchor="middle" x="258.5" y="-7.5" font-family="Helvetica,sans-Serif" font-size="10.00">AntKeyMapper::returnVirtualKey</text>
</a>
</g>
</g>
<!-- Node1&#45;&gt;Node10 -->
<g id="edge9" class="edge">
<title>Node1&#45;&gt;Node10</title>
<path fill="none" stroke="midnightblue" d="M80.88,-108.86C98.43,-87.59 133.41,-49.18 172,-29 176.52,-26.64 181.32,-24.57 186.25,-22.76"/>
<polygon fill="midnightblue" stroke="midnightblue" points="187.46,-26.04 195.85,-19.58 185.26,-19.4 187.46,-26.04"/>
</g>
<!-- Node5 -->
<g id="node5" class="node">
<title>Node5</title>
<g id="a_node5"><a xlink:href="classAntKeyMapper.html#abe4a434636d370a750d32a14b9a139d3" target="_top" xlink:title=" ">
<polygon fill="white" stroke="black" points="394.5,-171.5 394.5,-190.5 559.5,-190.5 559.5,-171.5 394.5,-171.5"/>
<text text-anchor="middle" x="477" y="-178.5" font-family="Helvetica,sans-Serif" font-size="10.00">AntKeyMapper::AntKeyMapper</text>
</a>
</g>
</g>
<!-- Node4&#45;&gt;Node5 -->
<g id="edge4" class="edge">
<title>Node4&#45;&gt;Node5</title>
<path fill="none" stroke="midnightblue" d="M334.01,-168.54C350.11,-169.95 367.33,-171.46 384.01,-172.93"/>
<polygon fill="midnightblue" stroke="midnightblue" points="384.05,-176.44 394.32,-173.83 384.66,-169.47 384.05,-176.44"/>
</g>
<!-- Node6 -->
<g id="node6" class="node">
<title>Node6</title>
<g id="a_node6"><a xlink:href="antkeymapper_8cpp.html#a4f87707944cf82e8e59c85d48e24951c" target="_top" xlink:title=" ">
<polygon fill="white" stroke="black" points="410,-133.5 410,-152.5 544,-152.5 544,-133.5 410,-133.5"/>
<text text-anchor="middle" x="477" y="-140.5" font-family="Helvetica,sans-Serif" font-size="10.00">buildEventGeneratorList</text>
</a>
</g>
</g>
<!-- Node4&#45;&gt;Node6 -->
<g id="edge5" class="edge">
<title>Node4&#45;&gt;Node6</title>
<path fill="none" stroke="midnightblue" d="M334.01,-155.46C355.23,-153.6 378.38,-151.57 399.71,-149.7"/>
<polygon fill="midnightblue" stroke="midnightblue" points="400.03,-153.18 409.69,-148.82 399.42,-146.21 400.03,-153.18"/>
</g>
<!-- Node11 -->
<g id="node11" class="node">
<title>Node11</title>
<g id="a_node11"><a xlink:href="classQtKeyMapperBase.html#a5df0f313bce11847f8495126373e7178" target="_top" xlink:title=" ">
<polygon fill="white" stroke="black" points="381,-0.5 381,-19.5 573,-19.5 573,-0.5 381,-0.5"/>
<text text-anchor="middle" x="477" y="-7.5" font-family="Helvetica,sans-Serif" font-size="10.00">QtKeyMapperBase::returnVirtualKey</text>
</a>
</g>
</g>
<!-- Node10&#45;&gt;Node11 -->
<g id="edge10" class="edge">
<title>Node10&#45;&gt;Node11</title>
<path fill="none" stroke="midnightblue" d="M345.07,-10C353.48,-10 362.08,-10 370.66,-10"/>
<polygon fill="midnightblue" stroke="midnightblue" points="370.7,-13.5 380.7,-10 370.7,-6.5 370.7,-13.5"/>
</g>
</g>
</svg>
