<?xml version="1.0" encoding="UTF-8" standalone="no"?>
<!DOCTYPE svg PUBLIC "-//W3C//DTD SVG 1.1//EN"
 "http://www.w3.org/Graphics/SVG/1.1/DTD/svg11.dtd">
<!-- Generated by graphviz version 2.43.0 (0)
 -->
<!-- Title: JoyButton::wheelEventVertical Pages: 1 -->
<!--zoomable 487 -->
<svg id="main" version="1.1" xmlns="http://www.w3.org/2000/svg" xmlns:xlink="http://www.w3.org/1999/xlink" xml:space="preserve" onload="init(evt)">
<style type="text/css"><![CDATA[
.edge:hover path { stroke: red; }
.edge:hover polygon { stroke: red; fill: red; }
]]></style>
<script type="text/javascript"><![CDATA[
var edges = document.getElementsByTagName('g');
if (edges && edges.length) {
  for (var i=0;i<edges.length;i++) {
    if (edges[i].id.substr(0,4)=='edge') {
      edges[i].setAttribute('class','edge');
    }
  }
}
]]></script>
        <defs>
                <circle id="rim" cx="0" cy="0" r="7"/>
                <circle id="rim2" cx="0" cy="0" r="3.5"/>
                <g id="zoomPlus">
                        <use xlink:href="#rim" fill="#404040">
                                <set attributeName="fill" to="#808080" begin="zoomplus.mouseover" end="zoomplus.mouseout"/>
                        </use>
                        <path d="M-4,0h8M0,-4v8" fill="none" stroke="white" stroke-width="1.5" pointer-events="none"/>
                </g>
                <g id="zoomMin">
                        <use xlink:href="#rim" fill="#404040">
                                <set attributeName="fill" to="#808080" begin="zoomminus.mouseover" end="zoomminus.mouseout"/>
                        </use>
                        <path d="M-4,0h8" fill="none" stroke="white" stroke-width="1.5" pointer-events="none"/>
                </g>
                <g id="dirArrow">
                        <path fill="none" stroke="white" stroke-width="1.5" d="M0,-3.0v7 M-2.5,-0.5L0,-3.0L2.5,-0.5"/>
                </g>
               <g id="resetDef">
                       <use xlink:href="#rim2" fill="#404040">
                               <set attributeName="fill" to="#808080" begin="reset.mouseover" end="reset.mouseout"/>
                       </use>
               </g>
        </defs>

<script type="text/javascript">
var viewWidth = 896;
var viewHeight = 487;
var sectionId = 'dynsection-303';
</script>
<script xlink:href="svgpan.js"/>
<svg id="graph" class="graph">
<g id="viewport">
<title>JoyButton::wheelEventVertical</title>
<polygon fill="white" stroke="transparent" points="-4,4 -4,-483 892,-483 892,4 -4,4"/>
<!-- Node1 -->
<g id="node1" class="node">
<title>Node1</title>
<g id="a_node1"><a xlink:title=" ">
<polygon fill="#bfbfbf" stroke="black" points="0,-235 0,-254 164,-254 164,-235 0,-235"/>
<text text-anchor="middle" x="82" y="-242" font-family="Helvetica,sans-Serif" font-size="10.00">JoyButton::wheelEventVertical</text>
</a>
</g>
</g>
<!-- Node2 -->
<g id="node2" class="node">
<title>Node2</title>
<g id="a_node2"><a xlink:href="classJoyButton.html#a64f1660931aea2fa8df1bf5e313c05ba" target="_top" xlink:title=" ">
<polygon fill="white" stroke="black" points="200,-254 200,-273 340,-273 340,-254 200,-254"/>
<text text-anchor="middle" x="270" y="-261" font-family="Helvetica,sans-Serif" font-size="10.00">JoyButton::getActiveSlots</text>
</a>
</g>
</g>
<!-- Node1&#45;&gt;Node2 -->
<g id="edge1" class="edge">
<title>Node1&#45;&gt;Node2</title>
<path fill="none" stroke="midnightblue" d="M164.04,-252.78C172.63,-253.66 181.35,-254.55 189.91,-255.42"/>
<polygon fill="midnightblue" stroke="midnightblue" points="189.56,-258.9 199.87,-256.44 190.28,-251.94 189.56,-258.9"/>
</g>
<!-- Node3 -->
<g id="node3" class="node">
<title>Node3</title>
<g id="a_node3"><a xlink:href="event_8cpp.html#a42a7842a656f2dfc8b8545391502de03" target="_top" xlink:title=" ">
<polygon fill="white" stroke="black" points="236,-216 236,-235 304,-235 304,-216 236,-216"/>
<text text-anchor="middle" x="270" y="-223" font-family="Helvetica,sans-Serif" font-size="10.00">sendevent</text>
</a>
</g>
</g>
<!-- Node1&#45;&gt;Node3 -->
<g id="edge2" class="edge">
<title>Node1&#45;&gt;Node3</title>
<path fill="none" stroke="midnightblue" d="M164.04,-236.22C185.25,-234.05 207.31,-231.8 225.7,-229.92"/>
<polygon fill="midnightblue" stroke="midnightblue" points="226.19,-233.39 235.78,-228.89 225.48,-226.43 226.19,-233.39"/>
</g>
<!-- Node4 -->
<g id="node4" class="node">
<title>Node4</title>
<g id="a_node4"><a xlink:href="event_8cpp.html#a5d4afd531123bc0d5093ae323f20519f" target="_top" xlink:title="detects executor for selected file (for .py files python, for .exe &quot;&quot; etc)">
<polygon fill="white" stroke="black" points="415.5,-399 415.5,-418 518.5,-418 518.5,-399 415.5,-399"/>
<text text-anchor="middle" x="467" y="-406" font-family="Helvetica,sans-Serif" font-size="10.00">detectedScriptExt</text>
</a>
</g>
</g>
<!-- Node3&#45;&gt;Node4 -->
<g id="edge3" class="edge">
<title>Node3&#45;&gt;Node4</title>
<path fill="none" stroke="midnightblue" d="M304.13,-227.57C316.89,-230.01 330.63,-234.89 340,-244.5 386.35,-292.04 328.23,-343.38 376,-389.5 384.01,-397.23 394.32,-402.16 405.09,-405.24"/>
<polygon fill="midnightblue" stroke="midnightblue" points="404.53,-408.7 415.06,-407.57 406.12,-401.88 404.53,-408.7"/>
</g>
<!-- Node5 -->
<g id="node5" class="node">
<title>Node5</title>
<g id="a_node5"><a xlink:href="classJoyButtonSlot.html#afdcd95c7e86430f19bee3decaf7b61f2" target="_top" xlink:title=" ">
<polygon fill="white" stroke="black" points="390.5,-361 390.5,-380 543.5,-380 543.5,-361 390.5,-361"/>
<text text-anchor="middle" x="467" y="-368" font-family="Helvetica,sans-Serif" font-size="10.00">JoyButtonSlot::getExtraData</text>
</a>
</g>
</g>
<!-- Node3&#45;&gt;Node5 -->
<g id="edge4" class="edge">
<title>Node3&#45;&gt;Node5</title>
<path fill="none" stroke="midnightblue" d="M304.08,-228.05C316.69,-230.56 330.33,-235.38 340,-244.5 376.2,-278.63 338.96,-317.28 376,-350.5 378.23,-352.5 380.62,-354.32 383.13,-355.97"/>
<polygon fill="midnightblue" stroke="midnightblue" points="381.64,-359.14 392.09,-360.94 385.04,-353.03 381.64,-359.14"/>
</g>
<!-- Node6 -->
<g id="node6" class="node">
<title>Node6</title>
<g id="a_node6"><a xlink:href="classEventHandlerFactory.html#a90ce153a19fbb91128bd52eb083ce271" target="_top" xlink:title=" ">
<polygon fill="white" stroke="black" points="408,-311.5 408,-341.5 526,-341.5 526,-311.5 408,-311.5"/>
<text text-anchor="start" x="416" y="-329.5" font-family="Helvetica,sans-Serif" font-size="10.00">EventHandlerFactory</text>
<text text-anchor="middle" x="467" y="-318.5" font-family="Helvetica,sans-Serif" font-size="10.00">::getInstance</text>
</a>
</g>
</g>
<!-- Node3&#45;&gt;Node6 -->
<g id="edge5" class="edge">
<title>Node3&#45;&gt;Node6</title>
<path fill="none" stroke="midnightblue" d="M304.29,-229.81C316.35,-232.57 329.56,-237.1 340,-244.5 362.93,-260.76 353.51,-279.63 376,-296.5 382.72,-301.54 390.34,-305.77 398.23,-309.3"/>
<polygon fill="midnightblue" stroke="midnightblue" points="397,-312.58 407.58,-313.14 399.66,-306.1 397,-312.58"/>
</g>
<!-- Node9 -->
<g id="node9" class="node">
<title>Node9</title>
<g id="a_node9"><a xlink:href="classEventHandlerFactory.html#a4c13007f0ece5bf881080c9c04f1f20d" target="_top" xlink:title=" ">
<polygon fill="white" stroke="black" points="770,-355.5 770,-385.5 888,-385.5 888,-355.5 770,-355.5"/>
<text text-anchor="start" x="778" y="-373.5" font-family="Helvetica,sans-Serif" font-size="10.00">EventHandlerFactory</text>
<text text-anchor="middle" x="829" y="-362.5" font-family="Helvetica,sans-Serif" font-size="10.00">::handler</text>
</a>
</g>
</g>
<!-- Node3&#45;&gt;Node9 -->
<g id="edge13" class="edge">
<title>Node3&#45;&gt;Node9</title>
<path fill="none" stroke="midnightblue" d="M304.12,-233.06C315.65,-236.1 328.56,-239.97 340,-244.5 356.82,-251.16 358.69,-258.23 376,-263.5 529.06,-310.12 584.79,-243.72 734,-301.5 761.18,-312.02 787.51,-332.53 805.36,-348.46"/>
<polygon fill="midnightblue" stroke="midnightblue" points="803.2,-351.23 812.93,-355.41 807.93,-346.07 803.2,-351.23"/>
</g>
<!-- Node11 -->
<g id="node11" class="node">
<title>Node11</title>
<g id="a_node11"><a xlink:href="classJoyButtonSlot.html#a86b4a25191351f28942511012a4e4e4a" target="_top" xlink:title=" ">
<polygon fill="white" stroke="black" points="392,-235 392,-254 542,-254 542,-235 392,-235"/>
<text text-anchor="middle" x="467" y="-242" font-family="Helvetica,sans-Serif" font-size="10.00">JoyButtonSlot::getSlotMode</text>
</a>
</g>
</g>
<!-- Node3&#45;&gt;Node11 -->
<g id="edge11" class="edge">
<title>Node3&#45;&gt;Node11</title>
<path fill="none" stroke="midnightblue" d="M304.08,-228.72C325.47,-230.81 354.34,-233.62 381.78,-236.29"/>
<polygon fill="midnightblue" stroke="midnightblue" points="381.52,-239.79 391.81,-237.27 382.2,-232.82 381.52,-239.79"/>
</g>
<!-- Node12 -->
<g id="node12" class="node">
<title>Node12</title>
<g id="a_node12"><a xlink:href="classJoyButtonSlot.html#aa08ff979d05b38df8f584b77bb750abb" target="_top" xlink:title=" ">
<polygon fill="white" stroke="black" points="393,-197 393,-216 541,-216 541,-197 393,-197"/>
<text text-anchor="middle" x="467" y="-204" font-family="Helvetica,sans-Serif" font-size="10.00">JoyButtonSlot::getTextData</text>
</a>
</g>
</g>
<!-- Node3&#45;&gt;Node12 -->
<g id="edge12" class="edge">
<title>Node3&#45;&gt;Node12</title>
<path fill="none" stroke="midnightblue" d="M304.08,-222.28C325.66,-220.17 354.86,-217.33 382.53,-214.63"/>
<polygon fill="midnightblue" stroke="midnightblue" points="383.02,-218.1 392.63,-213.65 382.34,-211.13 383.02,-218.1"/>
</g>
<!-- Node13 -->
<g id="node13" class="node">
<title>Node13</title>
<g id="a_node13"><a xlink:href="namespacePadderCommon.html#a1bf383168922bc793ea7d5d99a975d38" target="_top" xlink:title=" ">
<polygon fill="white" stroke="black" points="377,-147.5 377,-177.5 557,-177.5 557,-147.5 377,-147.5"/>
<text text-anchor="start" x="385" y="-165.5" font-family="Helvetica,sans-Serif" font-size="10.00">PadderCommon::parseArguments</text>
<text text-anchor="middle" x="467" y="-154.5" font-family="Helvetica,sans-Serif" font-size="10.00">String</text>
</a>
</g>
</g>
<!-- Node3&#45;&gt;Node13 -->
<g id="edge14" class="edge">
<title>Node3&#45;&gt;Node13</title>
<path fill="none" stroke="midnightblue" d="M295.85,-215.9C317.01,-207.87 348.3,-196.35 376,-187.5 383.58,-185.08 391.56,-182.67 399.5,-180.35"/>
<polygon fill="midnightblue" stroke="midnightblue" points="400.51,-183.71 409.15,-177.58 398.58,-176.98 400.51,-183.71"/>
</g>
<!-- Node14 -->
<g id="node14" class="node">
<title>Node14</title>
<g id="a_node14"><a xlink:href="classBaseEventHandler.html#afd723bd1451d78a34976642783026c40" target="_top" xlink:title=" ">
<polygon fill="white" stroke="black" points="376,-98.5 376,-128.5 558,-128.5 558,-98.5 376,-98.5"/>
<text text-anchor="start" x="384" y="-116.5" font-family="Helvetica,sans-Serif" font-size="10.00">BaseEventHandler::sendKeyboard</text>
<text text-anchor="middle" x="467" y="-105.5" font-family="Helvetica,sans-Serif" font-size="10.00">Event</text>
</a>
</g>
</g>
<!-- Node3&#45;&gt;Node14 -->
<g id="edge15" class="edge">
<title>Node3&#45;&gt;Node14</title>
<path fill="none" stroke="midnightblue" d="M279.55,-215.98C296.27,-197.93 335.26,-158.66 376,-137.5 379.71,-135.57 383.6,-133.79 387.57,-132.14"/>
<polygon fill="midnightblue" stroke="midnightblue" points="388.91,-135.37 397,-128.53 386.41,-128.84 388.91,-135.37"/>
</g>
<!-- Node15 -->
<g id="node15" class="node">
<title>Node15</title>
<g id="a_node15"><a xlink:href="classBaseEventHandler.html#a068ae99c4210979beb9e397960f33641" target="_top" xlink:title=" ">
<polygon fill="white" stroke="black" points="383,-49.5 383,-79.5 551,-79.5 551,-49.5 383,-49.5"/>
<text text-anchor="start" x="391" y="-67.5" font-family="Helvetica,sans-Serif" font-size="10.00">BaseEventHandler::sendMouse</text>
<text text-anchor="middle" x="467" y="-56.5" font-family="Helvetica,sans-Serif" font-size="10.00">ButtonEvent</text>
</a>
</g>
</g>
<!-- Node3&#45;&gt;Node15 -->
<g id="edge16" class="edge">
<title>Node3&#45;&gt;Node15</title>
<path fill="none" stroke="midnightblue" d="M275.58,-215.79C287.96,-190.6 324.66,-122.78 376,-88.5 378.4,-86.9 380.89,-85.41 383.47,-84.01"/>
<polygon fill="midnightblue" stroke="midnightblue" points="385.01,-87.16 392.48,-79.65 381.95,-80.86 385.01,-87.16"/>
</g>
<!-- Node16 -->
<g id="node16" class="node">
<title>Node16</title>
<g id="a_node16"><a xlink:href="classBaseEventHandler.html#a9474d07cb2e38dca07ffac6f08a161ed" target="_top" xlink:title=" ">
<polygon fill="white" stroke="black" points="389,-0.5 389,-30.5 545,-30.5 545,-0.5 389,-0.5"/>
<text text-anchor="start" x="397" y="-18.5" font-family="Helvetica,sans-Serif" font-size="10.00">BaseEventHandler::sendText</text>
<text text-anchor="middle" x="467" y="-7.5" font-family="Helvetica,sans-Serif" font-size="10.00">EntryEvent</text>
</a>
</g>
</g>
<!-- Node3&#45;&gt;Node16 -->
<g id="edge17" class="edge">
<title>Node3&#45;&gt;Node16</title>
<path fill="none" stroke="midnightblue" d="M273.61,-215.61C282.33,-184.51 313.54,-87.85 376,-39.5 377.82,-38.09 379.71,-36.77 381.67,-35.52"/>
<polygon fill="midnightblue" stroke="midnightblue" points="383.57,-38.47 390.59,-30.53 380.16,-32.35 383.57,-38.47"/>
</g>
<!-- Node7 -->
<g id="node7" class="node">
<title>Node7</title>
<g id="a_node7"><a xlink:href="classEventHandlerFactory.html#ade5162034acc0f8683725fdb124bece0" target="_top" xlink:title=" ">
<polygon fill="white" stroke="black" points="594,-448.5 594,-478.5 734,-478.5 734,-448.5 594,-448.5"/>
<text text-anchor="start" x="602" y="-466.5" font-family="Helvetica,sans-Serif" font-size="10.00">EventHandlerFactory</text>
<text text-anchor="middle" x="664" y="-455.5" font-family="Helvetica,sans-Serif" font-size="10.00">::buildEventGeneratorList</text>
</a>
</g>
</g>
<!-- Node6&#45;&gt;Node7 -->
<g id="edge6" class="edge">
<title>Node6&#45;&gt;Node7</title>
<path fill="none" stroke="midnightblue" d="M526.19,-334.35C537.73,-338.07 549.03,-343.53 558,-351.5 589.58,-379.58 563.33,-410.43 594,-439.5 595.12,-440.56 596.29,-441.58 597.51,-442.55"/>
<polygon fill="midnightblue" stroke="midnightblue" points="595.81,-445.63 606.05,-448.34 599.73,-439.83 595.81,-445.63"/>
</g>
<!-- Node8 -->
<g id="node8" class="node">
<title>Node8</title>
<g id="a_node8"><a xlink:href="classEventHandlerFactory.html#a2f843293b2ea47271fc7bd99bd871fa6" target="_top" xlink:title=" ">
<polygon fill="white" stroke="black" points="602,-399.5 602,-429.5 726,-429.5 726,-399.5 602,-399.5"/>
<text text-anchor="start" x="610" y="-417.5" font-family="Helvetica,sans-Serif" font-size="10.00">EventHandlerFactory</text>
<text text-anchor="middle" x="664" y="-406.5" font-family="Helvetica,sans-Serif" font-size="10.00">::EventHandlerFactory</text>
</a>
</g>
</g>
<!-- Node6&#45;&gt;Node8 -->
<g id="edge7" class="edge">
<title>Node6&#45;&gt;Node8</title>
<path fill="none" stroke="midnightblue" d="M526.25,-338.34C537.17,-341.75 548.22,-346.07 558,-351.5 576.98,-362.03 575.8,-372.68 594,-384.5 599.81,-388.28 606.18,-391.78 612.63,-394.95"/>
<polygon fill="midnightblue" stroke="midnightblue" points="611.53,-398.3 622.07,-399.37 614.49,-391.96 611.53,-398.3"/>
</g>
<!-- Node6&#45;&gt;Node9 -->
<g id="edge10" class="edge">
<title>Node6&#45;&gt;Node9</title>
<path fill="none" stroke="midnightblue" d="M526.13,-338.87C547.41,-343.05 571.72,-347.43 594,-350.5 649.51,-358.14 712.85,-363.34 759.62,-366.52"/>
<polygon fill="midnightblue" stroke="midnightblue" points="759.43,-370.01 769.64,-367.19 759.89,-363.03 759.43,-370.01"/>
</g>
<!-- Node10 -->
<g id="node10" class="node">
<title>Node10</title>
<g id="a_node10"><a xlink:href="classEventHandlerFactory.html#afa5ca0171c70b1a24f92b5c8dd00dc92" target="_top" xlink:title=" ">
<polygon fill="white" stroke="black" points="605,-311.5 605,-341.5 723,-341.5 723,-311.5 605,-311.5"/>
<text text-anchor="start" x="613" y="-329.5" font-family="Helvetica,sans-Serif" font-size="10.00">EventHandlerFactory</text>
<text text-anchor="middle" x="664" y="-318.5" font-family="Helvetica,sans-Serif" font-size="10.00">::fallBackIdentifier</text>
</a>
</g>
</g>
<!-- Node6&#45;&gt;Node10 -->
<g id="edge9" class="edge">
<title>Node6&#45;&gt;Node10</title>
<path fill="none" stroke="midnightblue" d="M526.24,-326.5C547.75,-326.5 572.32,-326.5 594.64,-326.5"/>
<polygon fill="midnightblue" stroke="midnightblue" points="594.72,-330 604.72,-326.5 594.72,-323 594.72,-330"/>
</g>
<!-- Node8&#45;&gt;Node9 -->
<g id="edge8" class="edge">
<title>Node8&#45;&gt;Node9</title>
<path fill="none" stroke="midnightblue" d="M720.64,-399.48C734.07,-395.85 748.55,-391.95 762.39,-388.21"/>
<polygon fill="midnightblue" stroke="midnightblue" points="763.59,-391.51 772.33,-385.53 761.77,-384.75 763.59,-391.51"/>
</g>
</g>
</svg>
        <g id="navigator" transform="translate(0 0)" fill="#404254">
                <rect fill="#f2f5e9" fill-opacity="0.5" stroke="#606060" stroke-width=".5" x="0" y="0" width="60" height="60"/>
                <use id="zoomplus" xlink:href="#zoomPlus" x="17" y="9" onmousedown="handleZoom(evt,'in')"/>
                <use id="zoomminus" xlink:href="#zoomMin" x="42" y="9" onmousedown="handleZoom(evt,'out')"/>
                <use id="reset" xlink:href="#resetDef" x="30" y="36" onmousedown="handleReset()"/>
                <g id="arrowUp" xlink:href="#dirArrow" transform="translate(30 24)" onmousedown="handlePan(0,-1)">
                  <use xlink:href="#rim" fill="#404040">
                        <set attributeName="fill" to="#808080" begin="arrowUp.mouseover" end="arrowUp.mouseout"/>
                  </use>
                  <path fill="none" stroke="white" stroke-width="1.5" d="M0,-3.0v7 M-2.5,-0.5L0,-3.0L2.5,-0.5"/>
                </g>
                <g id="arrowRight" xlink:href="#dirArrow" transform="rotate(90) translate(36 -43)" onmousedown="handlePan(1,0)">
                  <use xlink:href="#rim" fill="#404040">
                        <set attributeName="fill" to="#808080" begin="arrowRight.mouseover" end="arrowRight.mouseout"/>
                  </use>
                  <path fill="none" stroke="white" stroke-width="1.5" d="M0,-3.0v7 M-2.5,-0.5L0,-3.0L2.5,-0.5"/>
                </g>
                <g id="arrowDown" xlink:href="#dirArrow" transform="rotate(180) translate(-30 -48)" onmousedown="handlePan(0,1)">
                  <use xlink:href="#rim" fill="#404040">
                        <set attributeName="fill" to="#808080" begin="arrowDown.mouseover" end="arrowDown.mouseout"/>
                  </use>
                  <path fill="none" stroke="white" stroke-width="1.5" d="M0,-3.0v7 M-2.5,-0.5L0,-3.0L2.5,-0.5"/>
                </g>
                <g id="arrowLeft" xlink:href="#dirArrow" transform="rotate(270) translate(-36 17)" onmousedown="handlePan(-1,0)">
                  <use xlink:href="#rim" fill="#404040">
                        <set attributeName="fill" to="#808080" begin="arrowLeft.mouseover" end="arrowLeft.mouseout"/>
                  </use>
                  <path fill="none" stroke="white" stroke-width="1.5" d="M0,-3.0v7 M-2.5,-0.5L0,-3.0L2.5,-0.5"/>
                </g>
        </g>
        <svg viewBox="0 0 15 15" width="100%" height="30px" preserveAspectRatio="xMaxYMin meet">
         <g id="arrow_out" transform="scale(0.3 0.3)">
          <a xlink:href="classJoyButton_a66feeb223e4ca637598b4eb45811ab45_cgraph_org.svg" target="_base">
           <rect id="button" ry="5" rx="5" y="6" x="6" height="38" width="38"
                fill="#f2f5e9" fill-opacity="0.5" stroke="#606060" stroke-width="1.0"/>
           <path id="arrow"
             d="M 11.500037,31.436501 C 11.940474,20.09759 22.043105,11.32322 32.158766,21.979434 L 37.068811,17.246167 C 37.068811,17.246167 37.088388,32 37.088388,32 L 22.160133,31.978069 C 22.160133,31.978069 26.997745,27.140456 26.997745,27.140456 C 18.528582,18.264221 13.291696,25.230495 11.500037,31.436501 z"
             style="fill:#404040;"/>
          </a>
         </g>
        </svg>
</svg>
