<?xml version="1.0" encoding="UTF-8" standalone="no"?>
<!DOCTYPE svg PUBLIC "-//W3C//DTD SVG 1.1//EN"
 "http://www.w3.org/Graphics/SVG/1.1/DTD/svg11.dtd">
<!-- Generated by graphviz version 2.43.0 (0)
 -->
<!-- Title: JoyAxisContextMenu::getTriggerPresetIndex Pages: 1 -->
<svg width="327pt" height="142pt"
 viewBox="0.00 0.00 327.00 142.00" xmlns="http://www.w3.org/2000/svg" xmlns:xlink="http://www.w3.org/1999/xlink">
<g id="graph0" class="graph" transform="scale(1 1) rotate(0) translate(4 138)">
<title>JoyAxisContextMenu::getTriggerPresetIndex</title>
<polygon fill="white" stroke="transparent" points="-4,4 -4,-138 323,-138 323,4 -4,4"/>
<!-- Node1 -->
<g id="node1" class="node">
<title>Node1</title>
<g id="a_node1"><a xlink:title=" ">
<polygon fill="#bfbfbf" stroke="black" points="0,-52 0,-82 129,-82 129,-52 0,-52"/>
<text text-anchor="start" x="8" y="-70" font-family="Helvetica,sans-Serif" font-size="10.00">JoyAxisContextMenu</text>
<text text-anchor="middle" x="64.5" y="-59" font-family="Helvetica,sans-Serif" font-size="10.00">::getTriggerPresetIndex</text>
</a>
</g>
</g>
<!-- Node2 -->
<g id="node2" class="node">
<title>Node2</title>
<g id="a_node2"><a xlink:href="classJoyButton.html#ae1d364dfa70f47fae3db99ffbcdea44b" target="_top" xlink:title=" ">
<polygon fill="white" stroke="black" points="165,-114.5 165,-133.5 319,-133.5 319,-114.5 165,-114.5"/>
<text text-anchor="middle" x="242" y="-121.5" font-family="Helvetica,sans-Serif" font-size="10.00">JoyButton::getAssignedSlots</text>
</a>
</g>
</g>
<!-- Node1&#45;&gt;Node2 -->
<g id="edge1" class="edge">
<title>Node1&#45;&gt;Node2</title>
<path fill="none" stroke="midnightblue" d="M101.99,-82.14C120.65,-89.57 143.83,-98.34 165,-105 172.75,-107.44 181.02,-109.77 189.14,-111.92"/>
<polygon fill="midnightblue" stroke="midnightblue" points="188.38,-115.34 198.94,-114.44 190.12,-108.56 188.38,-115.34"/>
</g>
<!-- Node3 -->
<g id="node3" class="node">
<title>Node3</title>
<g id="a_node3"><a xlink:href="classJoyAxis.html#ad51d55d2a95190468209f7481eae8639" target="_top" xlink:title=" ">
<polygon fill="white" stroke="black" points="175.5,-76.5 175.5,-95.5 308.5,-95.5 308.5,-76.5 175.5,-76.5"/>
<text text-anchor="middle" x="242" y="-83.5" font-family="Helvetica,sans-Serif" font-size="10.00">JoyAxis::getPAxisButton</text>
</a>
</g>
</g>
<!-- Node1&#45;&gt;Node3 -->
<g id="edge2" class="edge">
<title>Node1&#45;&gt;Node3</title>
<path fill="none" stroke="midnightblue" d="M129.36,-73.91C141.07,-75.18 153.4,-76.52 165.42,-77.82"/>
<polygon fill="midnightblue" stroke="midnightblue" points="165.1,-81.3 175.42,-78.9 165.86,-74.34 165.1,-81.3"/>
</g>
<!-- Node4 -->
<g id="node4" class="node">
<title>Node4</title>
<g id="a_node4"><a xlink:href="classJoyButtonSlot.html#a1e91202fd2eac80332ed3e3ff1593769" target="_top" xlink:title=" ">
<polygon fill="white" stroke="black" points="168,-38.5 168,-57.5 316,-57.5 316,-38.5 168,-38.5"/>
<text text-anchor="middle" x="242" y="-45.5" font-family="Helvetica,sans-Serif" font-size="10.00">JoyButtonSlot::getSlotCode</text>
</a>
</g>
</g>
<!-- Node1&#45;&gt;Node4 -->
<g id="edge3" class="edge">
<title>Node1&#45;&gt;Node4</title>
<path fill="none" stroke="midnightblue" d="M129.36,-60.09C138.67,-59.08 148.37,-58.03 157.99,-56.99"/>
<polygon fill="midnightblue" stroke="midnightblue" points="158.4,-60.46 167.97,-55.91 157.65,-53.5 158.4,-60.46"/>
</g>
<!-- Node5 -->
<g id="node5" class="node">
<title>Node5</title>
<g id="a_node5"><a xlink:href="classJoyButtonSlot.html#a86b4a25191351f28942511012a4e4e4a" target="_top" xlink:title=" ">
<polygon fill="white" stroke="black" points="167,-0.5 167,-19.5 317,-19.5 317,-0.5 167,-0.5"/>
<text text-anchor="middle" x="242" y="-7.5" font-family="Helvetica,sans-Serif" font-size="10.00">JoyButtonSlot::getSlotMode</text>
</a>
</g>
</g>
<!-- Node1&#45;&gt;Node5 -->
<g id="edge4" class="edge">
<title>Node1&#45;&gt;Node5</title>
<path fill="none" stroke="midnightblue" d="M101.99,-51.86C120.65,-44.43 143.83,-35.66 165,-29 172.75,-26.56 181.02,-24.23 189.14,-22.08"/>
<polygon fill="midnightblue" stroke="midnightblue" points="190.12,-25.44 198.94,-19.56 188.38,-18.66 190.12,-25.44"/>
</g>
</g>
</svg>
