<?xml version="1.0" encoding="UTF-8" standalone="no"?>
<!DOCTYPE svg PUBLIC "-//W3C//DTD SVG 1.1//EN"
 "http://www.w3.org/Graphics/SVG/1.1/DTD/svg11.dtd">
<!-- Generated by graphviz version 2.43.0 (0)
 -->
<!-- Title: DPadEditDialog::selectCurrentPreset Pages: 1 -->
<svg width="608pt" height="218pt"
 viewBox="0.00 0.00 608.00 218.00" xmlns="http://www.w3.org/2000/svg" xmlns:xlink="http://www.w3.org/1999/xlink">
<g id="graph0" class="graph" transform="scale(1 1) rotate(0) translate(4 214)">
<title>DPadEditDialog::selectCurrentPreset</title>
<polygon fill="white" stroke="transparent" points="-4,4 -4,-214 604,-214 604,4 -4,4"/>
<!-- Node1 -->
<g id="node1" class="node">
<title>Node1</title>
<g id="a_node1"><a xlink:title=" ">
<polygon fill="#bfbfbf" stroke="black" points="0,-90 0,-120 163,-120 163,-90 0,-90"/>
<text text-anchor="start" x="8" y="-108" font-family="Helvetica,sans-Serif" font-size="10.00">DPadEditDialog::selectCurrent</text>
<text text-anchor="middle" x="81.5" y="-97" font-family="Helvetica,sans-Serif" font-size="10.00">Preset</text>
</a>
</g>
</g>
<!-- Node2 -->
<g id="node2" class="node">
<title>Node2</title>
<g id="a_node2"><a xlink:href="classJoyButton.html#ae1d364dfa70f47fae3db99ffbcdea44b" target="_top" xlink:title=" ">
<polygon fill="white" stroke="black" points="208.5,-190.5 208.5,-209.5 362.5,-209.5 362.5,-190.5 208.5,-190.5"/>
<text text-anchor="middle" x="285.5" y="-197.5" font-family="Helvetica,sans-Serif" font-size="10.00">JoyButton::getAssignedSlots</text>
</a>
</g>
</g>
<!-- Node1&#45;&gt;Node2 -->
<g id="edge1" class="edge">
<title>Node1&#45;&gt;Node2</title>
<path fill="none" stroke="midnightblue" d="M101.08,-120.19C123.12,-137.45 161.61,-165.26 199,-181 205.12,-183.58 211.64,-185.83 218.25,-187.79"/>
<polygon fill="midnightblue" stroke="midnightblue" points="217.38,-191.18 227.95,-190.46 219.24,-184.43 217.38,-191.18"/>
</g>
<!-- Node3 -->
<g id="node3" class="node">
<title>Node3</title>
<g id="a_node3"><a xlink:href="classAntKeyMapper.html#acd08c44a2501edcfdb1ef8a68d534b1b" target="_top" xlink:title=" ">
<polygon fill="white" stroke="black" points="210,-152.5 210,-171.5 361,-171.5 361,-152.5 210,-152.5"/>
<text text-anchor="middle" x="285.5" y="-159.5" font-family="Helvetica,sans-Serif" font-size="10.00">AntKeyMapper::getInstance</text>
</a>
</g>
</g>
<!-- Node1&#45;&gt;Node3 -->
<g id="edge2" class="edge">
<title>Node1&#45;&gt;Node3</title>
<path fill="none" stroke="midnightblue" d="M125.35,-120.08C147.24,-127.49 174.38,-136.26 199,-143 208.25,-145.53 218.14,-147.97 227.78,-150.2"/>
<polygon fill="midnightblue" stroke="midnightblue" points="227.18,-153.66 237.71,-152.46 228.73,-146.83 227.18,-153.66"/>
</g>
<!-- Node6 -->
<g id="node6" class="node">
<title>Node6</title>
<g id="a_node6"><a xlink:href="classJoyDPad.html#a5e31e9bf9edfcc87b69d389dbe9d2ea9" target="_top" xlink:title=" ">
<polygon fill="white" stroke="black" points="223,-114.5 223,-133.5 348,-133.5 348,-114.5 223,-114.5"/>
<text text-anchor="middle" x="285.5" y="-121.5" font-family="Helvetica,sans-Serif" font-size="10.00">JoyDPad::getJoyButton</text>
</a>
</g>
</g>
<!-- Node1&#45;&gt;Node6 -->
<g id="edge5" class="edge">
<title>Node1&#45;&gt;Node6</title>
<path fill="none" stroke="midnightblue" d="M163.21,-112.59C179.52,-114.13 196.58,-115.73 212.57,-117.23"/>
<polygon fill="midnightblue" stroke="midnightblue" points="212.62,-120.75 222.9,-118.21 213.28,-113.79 212.62,-120.75"/>
</g>
<!-- Node7 -->
<g id="node7" class="node">
<title>Node7</title>
<g id="a_node7"><a xlink:href="classJoyButtonSlot.html#a1e91202fd2eac80332ed3e3ff1593769" target="_top" xlink:title=" ">
<polygon fill="white" stroke="black" points="211.5,-76.5 211.5,-95.5 359.5,-95.5 359.5,-76.5 211.5,-76.5"/>
<text text-anchor="middle" x="285.5" y="-83.5" font-family="Helvetica,sans-Serif" font-size="10.00">JoyButtonSlot::getSlotCode</text>
</a>
</g>
</g>
<!-- Node1&#45;&gt;Node7 -->
<g id="edge6" class="edge">
<title>Node1&#45;&gt;Node7</title>
<path fill="none" stroke="midnightblue" d="M163.21,-97.41C175.78,-96.23 188.79,-95 201.42,-93.81"/>
<polygon fill="midnightblue" stroke="midnightblue" points="201.81,-97.29 211.44,-92.87 201.16,-90.32 201.81,-97.29"/>
</g>
<!-- Node8 -->
<g id="node8" class="node">
<title>Node8</title>
<g id="a_node8"><a xlink:href="classJoyButtonSlot.html#a86b4a25191351f28942511012a4e4e4a" target="_top" xlink:title=" ">
<polygon fill="white" stroke="black" points="210.5,-38.5 210.5,-57.5 360.5,-57.5 360.5,-38.5 210.5,-38.5"/>
<text text-anchor="middle" x="285.5" y="-45.5" font-family="Helvetica,sans-Serif" font-size="10.00">JoyButtonSlot::getSlotMode</text>
</a>
</g>
</g>
<!-- Node1&#45;&gt;Node8 -->
<g id="edge7" class="edge">
<title>Node1&#45;&gt;Node8</title>
<path fill="none" stroke="midnightblue" d="M125.35,-89.92C147.24,-82.51 174.38,-73.74 199,-67 208.25,-64.47 218.14,-62.03 227.78,-59.8"/>
<polygon fill="midnightblue" stroke="midnightblue" points="228.73,-63.17 237.71,-57.54 227.18,-56.34 228.73,-63.17"/>
</g>
<!-- Node9 -->
<g id="node9" class="node">
<title>Node9</title>
<g id="a_node9"><a xlink:href="classAntKeyMapper.html#a07957c1e2baac6c4266678d89dc7c3a6" target="_top" xlink:title=" ">
<polygon fill="white" stroke="black" points="199,-0.5 199,-19.5 372,-19.5 372,-0.5 199,-0.5"/>
<text text-anchor="middle" x="285.5" y="-7.5" font-family="Helvetica,sans-Serif" font-size="10.00">AntKeyMapper::returnVirtualKey</text>
</a>
</g>
</g>
<!-- Node1&#45;&gt;Node9 -->
<g id="edge8" class="edge">
<title>Node1&#45;&gt;Node9</title>
<path fill="none" stroke="midnightblue" d="M101.08,-89.81C123.12,-72.55 161.61,-44.74 199,-29 205.12,-26.42 211.64,-24.17 218.25,-22.21"/>
<polygon fill="midnightblue" stroke="midnightblue" points="219.24,-25.57 227.95,-19.54 217.38,-18.82 219.24,-25.57"/>
</g>
<!-- Node4 -->
<g id="node4" class="node">
<title>Node4</title>
<g id="a_node4"><a xlink:href="classAntKeyMapper.html#abe4a434636d370a750d32a14b9a139d3" target="_top" xlink:title=" ">
<polygon fill="white" stroke="black" points="421.5,-171.5 421.5,-190.5 586.5,-190.5 586.5,-171.5 421.5,-171.5"/>
<text text-anchor="middle" x="504" y="-178.5" font-family="Helvetica,sans-Serif" font-size="10.00">AntKeyMapper::AntKeyMapper</text>
</a>
</g>
</g>
<!-- Node3&#45;&gt;Node4 -->
<g id="edge3" class="edge">
<title>Node3&#45;&gt;Node4</title>
<path fill="none" stroke="midnightblue" d="M361.01,-168.54C377.11,-169.95 394.33,-171.46 411.01,-172.93"/>
<polygon fill="midnightblue" stroke="midnightblue" points="411.05,-176.44 421.32,-173.83 411.66,-169.47 411.05,-176.44"/>
</g>
<!-- Node5 -->
<g id="node5" class="node">
<title>Node5</title>
<g id="a_node5"><a xlink:href="antkeymapper_8cpp.html#a4f87707944cf82e8e59c85d48e24951c" target="_top" xlink:title=" ">
<polygon fill="white" stroke="black" points="437,-133.5 437,-152.5 571,-152.5 571,-133.5 437,-133.5"/>
<text text-anchor="middle" x="504" y="-140.5" font-family="Helvetica,sans-Serif" font-size="10.00">buildEventGeneratorList</text>
</a>
</g>
</g>
<!-- Node3&#45;&gt;Node5 -->
<g id="edge4" class="edge">
<title>Node3&#45;&gt;Node5</title>
<path fill="none" stroke="midnightblue" d="M361.01,-155.46C382.23,-153.6 405.38,-151.57 426.71,-149.7"/>
<polygon fill="midnightblue" stroke="midnightblue" points="427.03,-153.18 436.69,-148.82 426.42,-146.21 427.03,-153.18"/>
</g>
<!-- Node10 -->
<g id="node10" class="node">
<title>Node10</title>
<g id="a_node10"><a xlink:href="classQtKeyMapperBase.html#a5df0f313bce11847f8495126373e7178" target="_top" xlink:title=" ">
<polygon fill="white" stroke="black" points="408,-0.5 408,-19.5 600,-19.5 600,-0.5 408,-0.5"/>
<text text-anchor="middle" x="504" y="-7.5" font-family="Helvetica,sans-Serif" font-size="10.00">QtKeyMapperBase::returnVirtualKey</text>
</a>
</g>
</g>
<!-- Node9&#45;&gt;Node10 -->
<g id="edge9" class="edge">
<title>Node9&#45;&gt;Node10</title>
<path fill="none" stroke="midnightblue" d="M372.07,-10C380.48,-10 389.08,-10 397.66,-10"/>
<polygon fill="midnightblue" stroke="midnightblue" points="397.7,-13.5 407.7,-10 397.7,-6.5 397.7,-13.5"/>
</g>
</g>
</svg>
