<?xml version="1.0" encoding="UTF-8" standalone="no"?>
<!DOCTYPE svg PUBLIC "-//W3C//DTD SVG 1.1//EN"
 "http://www.w3.org/Graphics/SVG/1.1/DTD/svg11.dtd">
<!-- Generated by graphviz version 2.43.0 (0)
 -->
<!-- Title: InputDevice::getDeviceKeyPressTime Pages: 1 -->
<svg width="665pt" height="83pt"
 viewBox="0.00 0.00 665.00 83.00" xmlns="http://www.w3.org/2000/svg" xmlns:xlink="http://www.w3.org/1999/xlink">
<g id="graph0" class="graph" transform="scale(1 1) rotate(0) translate(4 79)">
<title>InputDevice::getDeviceKeyPressTime</title>
<polygon fill="white" stroke="transparent" points="-4,4 -4,-79 661,-79 661,4 -4,4"/>
<!-- Node1 -->
<g id="node1" class="node">
<title>Node1</title>
<g id="a_node1"><a xlink:title=" ">
<polygon fill="#bfbfbf" stroke="black" points="508,-22.5 508,-52.5 657,-52.5 657,-22.5 508,-22.5"/>
<text text-anchor="start" x="516" y="-40.5" font-family="Helvetica,sans-Serif" font-size="10.00">InputDevice::getDeviceKey</text>
<text text-anchor="middle" x="582.5" y="-29.5" font-family="Helvetica,sans-Serif" font-size="10.00">PressTime</text>
</a>
</g>
</g>
<!-- Node2 -->
<g id="node2" class="node">
<title>Node2</title>
<g id="a_node2"><a xlink:href="classExtraProfileSettingsDialog.html#ad5751d1a02ef93bdff60ef334839d12f" target="_top" xlink:title=" ">
<polygon fill="white" stroke="black" points="319,-44.5 319,-74.5 469,-74.5 469,-44.5 319,-44.5"/>
<text text-anchor="start" x="327" y="-62.5" font-family="Helvetica,sans-Serif" font-size="10.00">ExtraProfileSettingsDialog</text>
<text text-anchor="middle" x="394" y="-51.5" font-family="Helvetica,sans-Serif" font-size="10.00">::ExtraProfileSettingsDialog</text>
</a>
</g>
</g>
<!-- Node1&#45;&gt;Node2 -->
<g id="edge1" class="edge">
<title>Node1&#45;&gt;Node2</title>
<path fill="none" stroke="midnightblue" d="M497.56,-47.4C488.07,-48.52 478.44,-49.66 469.09,-50.76"/>
<polygon fill="midnightblue" stroke="midnightblue" points="498.27,-50.84 507.79,-46.19 497.45,-43.89 498.27,-50.84"/>
</g>
<!-- Node3 -->
<g id="node3" class="node">
<title>Node3</title>
<g id="a_node3"><a xlink:href="classInputDeviceXml.html#a12bf094c5ab0ab10dae089e41fbc778c" target="_top" xlink:title="Serializes an InputDevice object into the the given XML stream.">
<polygon fill="white" stroke="black" points="316,-6 316,-25 472,-25 472,-6 316,-6"/>
<text text-anchor="middle" x="394" y="-13" font-family="Helvetica,sans-Serif" font-size="10.00">InputDeviceXml::writeConfig</text>
</a>
</g>
</g>
<!-- Node1&#45;&gt;Node3 -->
<g id="edge2" class="edge">
<title>Node1&#45;&gt;Node3</title>
<path fill="none" stroke="midnightblue" d="M497.83,-27.63C489.28,-26.62 480.63,-25.6 472.16,-24.6"/>
<polygon fill="midnightblue" stroke="midnightblue" points="497.45,-31.11 507.79,-28.81 498.27,-24.16 497.45,-31.11"/>
</g>
<!-- Node4 -->
<g id="node4" class="node">
<title>Node4</title>
<g id="a_node4"><a xlink:href="classXMLConfigWriter.html#aacd0a3991eedf223f3586d33559903d4" target="_top" xlink:title="Write input device config from the current object into XML file.">
<polygon fill="white" stroke="black" points="151,-6 151,-25 280,-25 280,-6 151,-6"/>
<text text-anchor="middle" x="215.5" y="-13" font-family="Helvetica,sans-Serif" font-size="10.00">XMLConfigWriter::write</text>
</a>
</g>
</g>
<!-- Node3&#45;&gt;Node4 -->
<g id="edge3" class="edge">
<title>Node3&#45;&gt;Node4</title>
<path fill="none" stroke="midnightblue" d="M305.7,-15.5C297.04,-15.5 288.36,-15.5 280.01,-15.5"/>
<polygon fill="midnightblue" stroke="midnightblue" points="305.84,-19 315.84,-15.5 305.84,-12 305.84,-19"/>
</g>
<!-- Node5 -->
<g id="node5" class="node">
<title>Node5</title>
<g id="a_node5"><a xlink:href="classJoyTabWidgetHelper.html#ad1754369989cbe4a3e10c8c01e3fb89b" target="_top" xlink:title="XML write entry point for the GUI.">
<polygon fill="white" stroke="black" points="0,-0.5 0,-30.5 115,-30.5 115,-0.5 0,-0.5"/>
<text text-anchor="start" x="8" y="-18.5" font-family="Helvetica,sans-Serif" font-size="10.00">JoyTabWidgetHelper</text>
<text text-anchor="middle" x="57.5" y="-7.5" font-family="Helvetica,sans-Serif" font-size="10.00">::writeConfigFile</text>
</a>
</g>
</g>
<!-- Node4&#45;&gt;Node5 -->
<g id="edge4" class="edge">
<title>Node4&#45;&gt;Node5</title>
<path fill="none" stroke="midnightblue" d="M140.58,-15.5C132,-15.5 123.35,-15.5 115.05,-15.5"/>
<polygon fill="midnightblue" stroke="midnightblue" points="140.6,-19 150.6,-15.5 140.6,-12 140.6,-19"/>
</g>
</g>
</svg>
