<?xml version="1.0" encoding="UTF-8" standalone="no"?>
<!DOCTYPE svg PUBLIC "-//W3C//DTD SVG 1.1//EN"
 "http://www.w3.org/Graphics/SVG/1.1/DTD/svg11.dtd">
<!-- Generated by graphviz version 2.43.0 (0)
 -->
<!-- Title: JoyButton::isDefault Pages: 1 -->
<svg width="732pt" height="455pt"
 viewBox="0.00 0.00 732.00 454.97" xmlns="http://www.w3.org/2000/svg" xmlns:xlink="http://www.w3.org/1999/xlink">
<g id="graph0" class="graph" transform="scale(1 1) rotate(0) translate(4 450.97)">
<title>JoyButton::isDefault</title>
<polygon fill="white" stroke="transparent" points="-4,4 -4,-450.97 728,-450.97 728,4 -4,4"/>
<!-- Node1 -->
<g id="node1" class="node">
<title>Node1</title>
<g id="a_node1"><a xlink:title="Check if button properties are at their default values.">
<polygon fill="#bfbfbf" stroke="black" points="610,-252.5 610,-271.5 724,-271.5 724,-252.5 610,-252.5"/>
<text text-anchor="middle" x="667" y="-259.5" font-family="Helvetica,sans-Serif" font-size="10.00">JoyButton::isDefault</text>
</a>
</g>
</g>
<!-- Node2 -->
<g id="node2" class="node">
<title>Node2</title>
<g id="a_node2"><a xlink:href="classJoyButton.html#a5f380246b40f29a3349500b8efc2f997" target="_top" xlink:title="Copy assignments and properties from one button to another. Used for set copying.">
<polygon fill="white" stroke="black" points="418,-366.5 418,-385.5 574,-385.5 574,-366.5 418,-366.5"/>
<text text-anchor="middle" x="496" y="-373.5" font-family="Helvetica,sans-Serif" font-size="10.00">JoyButton::copyAssignments</text>
</a>
</g>
</g>
<!-- Node1&#45;&gt;Node2 -->
<g id="edge1" class="edge">
<title>Node1&#45;&gt;Node2</title>
<path fill="none" stroke="midnightblue" d="M653.7,-279.8C637.83,-301.41 608.14,-337.38 574,-357 567.2,-360.91 559.6,-364.02 551.91,-366.5"/>
<polygon fill="midnightblue" stroke="midnightblue" points="656.66,-281.68 659.64,-271.51 650.97,-277.61 656.66,-281.68"/>
</g>
<!-- Node8 -->
<g id="node8" class="node">
<title>Node8</title>
<g id="a_node8"><a xlink:href="classJoyDPad.html#a47fdbc27e27a579c445487871d39d2bc" target="_top" xlink:title=" ">
<polygon fill="white" stroke="black" points="442.5,-328.5 442.5,-347.5 549.5,-347.5 549.5,-328.5 442.5,-328.5"/>
<text text-anchor="middle" x="496" y="-335.5" font-family="Helvetica,sans-Serif" font-size="10.00">JoyDPad::isDefault</text>
</a>
</g>
</g>
<!-- Node1&#45;&gt;Node8 -->
<g id="edge11" class="edge">
<title>Node1&#45;&gt;Node8</title>
<path fill="none" stroke="midnightblue" d="M642.47,-277.15C624.3,-288.39 598.23,-303.52 574,-314 561.02,-319.62 546.3,-324.54 533.23,-328.43"/>
<polygon fill="midnightblue" stroke="midnightblue" points="644.59,-279.95 651.21,-271.67 640.87,-274.02 644.59,-279.95"/>
</g>
<!-- Node9 -->
<g id="node9" class="node">
<title>Node9</title>
<g id="a_node9"><a xlink:href="classSetJoystick.html#a5de4017d04f877e12df92334f41d08f3" target="_top" xlink:title="Check if this set has any mapped event.">
<polygon fill="white" stroke="black" points="224.5,-252.5 224.5,-271.5 356.5,-271.5 356.5,-252.5 224.5,-252.5"/>
<text text-anchor="middle" x="290.5" y="-259.5" font-family="Helvetica,sans-Serif" font-size="10.00">SetJoystick::isSetEmpty</text>
</a>
</g>
</g>
<!-- Node1&#45;&gt;Node9 -->
<g id="edge25" class="edge">
<title>Node1&#45;&gt;Node9</title>
<path fill="none" stroke="midnightblue" d="M618.6,-273.71C604.35,-276.71 588.62,-279.51 574,-281 505.03,-288.05 487.14,-286.16 418,-281 393.2,-279.15 365.88,-275.28 343,-271.51"/>
<polygon fill="midnightblue" stroke="midnightblue" points="619.65,-277.06 628.67,-271.51 618.15,-270.23 619.65,-277.06"/>
</g>
<!-- Node11 -->
<g id="node11" class="node">
<title>Node11</title>
<g id="a_node11"><a xlink:href="classJoyAxis.html#ad614a1d4afe02119dfbd787ee89be66e" target="_top" xlink:title=" ">
<polygon fill="white" stroke="black" points="444.5,-214.5 444.5,-233.5 547.5,-233.5 547.5,-214.5 444.5,-214.5"/>
<text text-anchor="middle" x="496" y="-221.5" font-family="Helvetica,sans-Serif" font-size="10.00">JoyAxis::isDefault</text>
</a>
</g>
</g>
<!-- Node1&#45;&gt;Node11 -->
<g id="edge15" class="edge">
<title>Node1&#45;&gt;Node11</title>
<path fill="none" stroke="midnightblue" d="M613.41,-250.18C589.59,-244.82 561.79,-238.57 539.34,-233.52"/>
<polygon fill="midnightblue" stroke="midnightblue" points="612.83,-253.63 623.35,-252.41 614.37,-246.8 612.83,-253.63"/>
</g>
<!-- Node14 -->
<g id="node14" class="node">
<title>Node14</title>
<g id="a_node14"><a xlink:href="classJoyControlStick.html#a9a837b172199a2a1a0d9ffd811e1ca35" target="_top" xlink:title=" ">
<polygon fill="white" stroke="black" points="425.5,-252.5 425.5,-271.5 566.5,-271.5 566.5,-252.5 425.5,-252.5"/>
<text text-anchor="middle" x="496" y="-259.5" font-family="Helvetica,sans-Serif" font-size="10.00">JoyControlStick::isDefault</text>
</a>
</g>
</g>
<!-- Node1&#45;&gt;Node14 -->
<g id="edge21" class="edge">
<title>Node1&#45;&gt;Node14</title>
<path fill="none" stroke="midnightblue" d="M599.5,-262C588.68,-262 577.45,-262 566.56,-262"/>
<polygon fill="midnightblue" stroke="midnightblue" points="599.73,-265.5 609.73,-262 599.73,-258.5 599.73,-265.5"/>
</g>
<!-- Node15 -->
<g id="node15" class="node">
<title>Node15</title>
<g id="a_node15"><a xlink:href="classJoyControlStick.html#a3ab1764a44e806d2d3896023f82fa3b1" target="_top" xlink:title="Write the status of the properties of a stick and direction buttons to an XML stream.">
<polygon fill="white" stroke="black" points="214.5,-176.5 214.5,-195.5 366.5,-195.5 366.5,-176.5 214.5,-176.5"/>
<text text-anchor="middle" x="290.5" y="-183.5" font-family="Helvetica,sans-Serif" font-size="10.00">JoyControlStick::writeConfig</text>
</a>
</g>
</g>
<!-- Node1&#45;&gt;Node15 -->
<g id="edge32" class="edge">
<title>Node1&#45;&gt;Node15</title>
<path fill="none" stroke="midnightblue" d="M646.4,-245.86C628.68,-232.3 601.27,-213.76 574,-205 506.14,-183.19 424.52,-179.99 366.5,-181.32"/>
<polygon fill="midnightblue" stroke="midnightblue" points="644.71,-248.99 654.73,-252.42 649.04,-243.49 644.71,-248.99"/>
</g>
<!-- Node16 -->
<g id="node16" class="node">
<title>Node16</title>
<g id="a_node16"><a xlink:href="classJoyButtonXml.html#a766e87947104bfd54fc15b96b267ebdd" target="_top" xlink:title=" ">
<polygon fill="white" stroke="black" points="423.5,-110.5 423.5,-129.5 568.5,-129.5 568.5,-110.5 423.5,-110.5"/>
<text text-anchor="middle" x="496" y="-117.5" font-family="Helvetica,sans-Serif" font-size="10.00">JoyButtonXml::writeConfig</text>
</a>
</g>
</g>
<!-- Node1&#45;&gt;Node16 -->
<g id="edge26" class="edge">
<title>Node1&#45;&gt;Node16</title>
<path fill="none" stroke="midnightblue" d="M650.38,-244.98C632.71,-226.14 602.66,-195.37 574,-172 554,-155.69 528.92,-139.45 512.93,-129.57"/>
<polygon fill="midnightblue" stroke="midnightblue" points="648,-247.55 657.37,-252.49 653.12,-242.78 648,-247.55"/>
</g>
<!-- Node3 -->
<g id="node3" class="node">
<title>Node3</title>
<g id="a_node3"><a xlink:href="classJoySensor.html#a723df3dcae43b4509bf1af84191e5ad5" target="_top" xlink:title="Copy slots from all sensor buttons and properties from a sensor onto another.">
<polygon fill="white" stroke="black" points="212,-404.5 212,-423.5 369,-423.5 369,-404.5 212,-404.5"/>
<text text-anchor="middle" x="290.5" y="-411.5" font-family="Helvetica,sans-Serif" font-size="10.00">JoySensor::copyAssignments</text>
</a>
</g>
</g>
<!-- Node2&#45;&gt;Node3 -->
<g id="edge2" class="edge">
<title>Node2&#45;&gt;Node3</title>
<path fill="none" stroke="midnightblue" d="M433.85,-387.42C404.74,-392.86 370.31,-399.28 342.61,-404.46"/>
<polygon fill="midnightblue" stroke="midnightblue" points="434.72,-390.82 443.91,-385.54 433.44,-383.94 434.72,-390.82"/>
</g>
<!-- Node4 -->
<g id="node4" class="node">
<title>Node4</title>
<g id="a_node4"><a xlink:href="classSetJoystick.html#a36b0da099fef84270b6cc7c76741e689" target="_top" xlink:title=" ">
<polygon fill="white" stroke="black" points="0,-366.5 0,-385.5 163,-385.5 163,-366.5 0,-366.5"/>
<text text-anchor="middle" x="81.5" y="-373.5" font-family="Helvetica,sans-Serif" font-size="10.00">SetJoystick::copyAssignments</text>
</a>
</g>
</g>
<!-- Node2&#45;&gt;Node4 -->
<g id="edge10" class="edge">
<title>Node2&#45;&gt;Node4</title>
<path fill="none" stroke="midnightblue" d="M472.64,-391.26C450.68,-405.26 415.67,-424.99 382,-433 302.88,-451.83 278.24,-451.35 199,-433 159.51,-423.86 117.96,-399.39 96.77,-385.67"/>
<polygon fill="midnightblue" stroke="midnightblue" points="474.75,-394.07 481.21,-385.67 470.92,-388.2 474.75,-394.07"/>
</g>
<!-- Node5 -->
<g id="node5" class="node">
<title>Node5</title>
<g id="a_node5"><a xlink:href="classJoyControlStick.html#a57b418a495a22ea5182e89ef4a6cf233" target="_top" xlink:title="Copy slots from all stick buttons and properties from a stick onto another.">
<polygon fill="white" stroke="black" points="199,-328.5 199,-347.5 382,-347.5 382,-328.5 199,-328.5"/>
<text text-anchor="middle" x="290.5" y="-335.5" font-family="Helvetica,sans-Serif" font-size="10.00">JoyControlStick::copyAssignments</text>
</a>
</g>
</g>
<!-- Node2&#45;&gt;Node5 -->
<g id="edge4" class="edge">
<title>Node2&#45;&gt;Node5</title>
<path fill="none" stroke="midnightblue" d="M433.85,-364.58C404.74,-359.14 370.31,-352.72 342.61,-347.54"/>
<polygon fill="midnightblue" stroke="midnightblue" points="433.44,-368.06 443.91,-366.46 434.72,-361.18 433.44,-368.06"/>
</g>
<!-- Node6 -->
<g id="node6" class="node">
<title>Node6</title>
<g id="a_node6"><a xlink:href="classJoyDPad.html#ad7787a985beddc065f2818df29fd5b77" target="_top" xlink:title=" ">
<polygon fill="white" stroke="black" points="216,-366.5 216,-385.5 365,-385.5 365,-366.5 216,-366.5"/>
<text text-anchor="middle" x="290.5" y="-373.5" font-family="Helvetica,sans-Serif" font-size="10.00">JoyDPad::copyAssignments</text>
</a>
</g>
</g>
<!-- Node2&#45;&gt;Node6 -->
<g id="edge6" class="edge">
<title>Node2&#45;&gt;Node6</title>
<path fill="none" stroke="midnightblue" d="M407.6,-376C393.51,-376 379.04,-376 365.31,-376"/>
<polygon fill="midnightblue" stroke="midnightblue" points="407.78,-379.5 417.78,-376 407.78,-372.5 407.78,-379.5"/>
</g>
<!-- Node7 -->
<g id="node7" class="node">
<title>Node7</title>
<g id="a_node7"><a xlink:href="classJoyAxis.html#a854637def50e6ef091c87ee78e7dbb58" target="_top" xlink:title=" ">
<polygon fill="white" stroke="black" points="218,-290.5 218,-309.5 363,-309.5 363,-290.5 218,-290.5"/>
<text text-anchor="middle" x="290.5" y="-297.5" font-family="Helvetica,sans-Serif" font-size="10.00">JoyAxis::copyAssignments</text>
</a>
</g>
</g>
<!-- Node2&#45;&gt;Node7 -->
<g id="edge8" class="edge">
<title>Node2&#45;&gt;Node7</title>
<path fill="none" stroke="midnightblue" d="M430.2,-362.97C425.96,-361.22 421.85,-359.24 418,-357 397.89,-345.3 402.31,-330.35 382,-319 374.99,-315.08 367.27,-311.97 359.38,-309.5"/>
<polygon fill="midnightblue" stroke="midnightblue" points="429.05,-366.27 439.64,-366.43 431.46,-359.7 429.05,-366.27"/>
</g>
<!-- Node3&#45;&gt;Node4 -->
<g id="edge3" class="edge">
<title>Node3&#45;&gt;Node4</title>
<path fill="none" stroke="midnightblue" d="M227.69,-402.65C197.99,-397.2 162.79,-390.74 134.49,-385.54"/>
<polygon fill="midnightblue" stroke="midnightblue" points="227.06,-406.1 237.53,-404.46 228.33,-399.21 227.06,-406.1"/>
</g>
<!-- Node5&#45;&gt;Node4 -->
<g id="edge5" class="edge">
<title>Node5&#45;&gt;Node4</title>
<path fill="none" stroke="midnightblue" d="M227.69,-349.35C197.99,-354.8 162.79,-361.26 134.49,-366.46"/>
<polygon fill="midnightblue" stroke="midnightblue" points="228.33,-352.79 237.53,-347.54 227.06,-345.9 228.33,-352.79"/>
</g>
<!-- Node6&#45;&gt;Node4 -->
<g id="edge7" class="edge">
<title>Node6&#45;&gt;Node4</title>
<path fill="none" stroke="midnightblue" d="M205.81,-376C191.75,-376 177.19,-376 163.21,-376"/>
<polygon fill="midnightblue" stroke="midnightblue" points="205.94,-379.5 215.94,-376 205.94,-372.5 205.94,-379.5"/>
</g>
<!-- Node7&#45;&gt;Node4 -->
<g id="edge9" class="edge">
<title>Node7&#45;&gt;Node4</title>
<path fill="none" stroke="midnightblue" d="M223.6,-311.83C215.24,-313.92 206.86,-316.3 199,-319 161.73,-331.81 120.98,-353.74 98.92,-366.34"/>
<polygon fill="midnightblue" stroke="midnightblue" points="224.46,-315.22 233.39,-309.51 222.85,-308.41 224.46,-315.22"/>
</g>
<!-- Node8&#45;&gt;Node6 -->
<g id="edge12" class="edge">
<title>Node8&#45;&gt;Node6</title>
<path fill="none" stroke="midnightblue" d="M433.85,-349.42C404.74,-354.86 370.31,-361.28 342.61,-366.46"/>
<polygon fill="midnightblue" stroke="midnightblue" points="434.72,-352.82 443.91,-347.54 433.44,-345.94 434.72,-352.82"/>
</g>
<!-- Node8&#45;&gt;Node9 -->
<g id="edge13" class="edge">
<title>Node8&#45;&gt;Node9</title>
<path fill="none" stroke="midnightblue" d="M443.11,-325.28C434.45,-322.2 425.76,-318.46 418,-314 399.19,-303.18 401.31,-290.92 382,-281 374.15,-276.97 365.49,-273.79 356.74,-271.29"/>
<polygon fill="midnightblue" stroke="midnightblue" points="442.25,-328.68 452.84,-328.5 444.44,-322.04 442.25,-328.68"/>
</g>
<!-- Node10 -->
<g id="node10" class="node">
<title>Node10</title>
<g id="a_node10"><a xlink:href="classSetJoystickXml.html#a11eec051c05deac5ebe47b9582e83b6f" target="_top" xlink:title="Serializes a SetJoystick object into the the given XML stream.">
<polygon fill="white" stroke="black" points="5.5,-214.5 5.5,-233.5 157.5,-233.5 157.5,-214.5 5.5,-214.5"/>
<text text-anchor="middle" x="81.5" y="-221.5" font-family="Helvetica,sans-Serif" font-size="10.00">SetJoystickXml::writeConfig</text>
</a>
</g>
</g>
<!-- Node9&#45;&gt;Node10 -->
<g id="edge14" class="edge">
<title>Node9&#45;&gt;Node10</title>
<path fill="none" stroke="midnightblue" d="M227.69,-250.65C197.99,-245.2 162.79,-238.74 134.49,-233.54"/>
<polygon fill="midnightblue" stroke="midnightblue" points="227.06,-254.1 237.53,-252.46 228.33,-247.21 227.06,-254.1"/>
</g>
<!-- Node11&#45;&gt;Node7 -->
<g id="edge16" class="edge">
<title>Node11&#45;&gt;Node7</title>
<path fill="none" stroke="midnightblue" d="M434.38,-235.4C428.67,-237.52 423.11,-240.03 418,-243 397.89,-254.7 402.31,-269.65 382,-281 374.99,-284.92 367.27,-288.03 359.38,-290.5"/>
<polygon fill="midnightblue" stroke="midnightblue" points="435.7,-238.65 444.1,-232.19 433.51,-232 435.7,-238.65"/>
</g>
<!-- Node11&#45;&gt;Node9 -->
<g id="edge17" class="edge">
<title>Node11&#45;&gt;Node9</title>
<path fill="none" stroke="midnightblue" d="M434.34,-235.33C405.08,-240.79 370.38,-247.27 342.51,-252.47"/>
<polygon fill="midnightblue" stroke="midnightblue" points="435.25,-238.72 444.44,-233.44 433.96,-231.84 435.25,-238.72"/>
</g>
<!-- Node12 -->
<g id="node12" class="node">
<title>Node12</title>
<g id="a_node12"><a xlink:href="classGameControllerTriggerXml.html#a382a32a139351f790192dc0991dea637" target="_top" xlink:title=" ">
<polygon fill="white" stroke="black" points="217.5,-127 217.5,-157 363.5,-157 363.5,-127 217.5,-127"/>
<text text-anchor="start" x="225.5" y="-145" font-family="Helvetica,sans-Serif" font-size="10.00">GameControllerTriggerXml</text>
<text text-anchor="middle" x="290.5" y="-134" font-family="Helvetica,sans-Serif" font-size="10.00">::writeConfig</text>
</a>
</g>
</g>
<!-- Node11&#45;&gt;Node12 -->
<g id="edge18" class="edge">
<title>Node11&#45;&gt;Node12</title>
<path fill="none" stroke="midnightblue" d="M469.74,-209.44C447.26,-196.92 413.21,-179.05 382,-167 372.57,-163.36 362.4,-160.02 352.4,-157.04"/>
<polygon fill="midnightblue" stroke="midnightblue" points="468.19,-212.58 478.62,-214.44 471.63,-206.48 468.19,-212.58"/>
</g>
<!-- Node13 -->
<g id="node13" class="node">
<title>Node13</title>
<g id="a_node13"><a xlink:href="classJoyAxisXml.html#a044a6be446ab6cc4b6fcb359e0cef898" target="_top" xlink:title=" ">
<polygon fill="white" stroke="black" points="223.5,-214.5 223.5,-233.5 357.5,-233.5 357.5,-214.5 223.5,-214.5"/>
<text text-anchor="middle" x="290.5" y="-221.5" font-family="Helvetica,sans-Serif" font-size="10.00">JoyAxisXml::writeConfig</text>
</a>
</g>
</g>
<!-- Node11&#45;&gt;Node13 -->
<g id="edge19" class="edge">
<title>Node11&#45;&gt;Node13</title>
<path fill="none" stroke="midnightblue" d="M434.32,-224C410.15,-224 382.26,-224 357.58,-224"/>
<polygon fill="midnightblue" stroke="midnightblue" points="434.44,-227.5 444.44,-224 434.44,-220.5 434.44,-227.5"/>
</g>
<!-- Node13&#45;&gt;Node10 -->
<g id="edge20" class="edge">
<title>Node13&#45;&gt;Node10</title>
<path fill="none" stroke="midnightblue" d="M213.21,-224C195.07,-224 175.74,-224 157.65,-224"/>
<polygon fill="midnightblue" stroke="midnightblue" points="213.43,-227.5 223.43,-224 213.43,-220.5 213.43,-227.5"/>
</g>
<!-- Node14&#45;&gt;Node5 -->
<g id="edge22" class="edge">
<title>Node14&#45;&gt;Node5</title>
<path fill="none" stroke="midnightblue" d="M470.3,-276.83C447.95,-289.66 413.75,-307.87 382,-319 371.24,-322.77 359.49,-325.91 348.12,-328.48"/>
<polygon fill="midnightblue" stroke="midnightblue" points="472.24,-279.75 479.12,-271.69 468.72,-273.7 472.24,-279.75"/>
</g>
<!-- Node14&#45;&gt;Node9 -->
<g id="edge23" class="edge">
<title>Node14&#45;&gt;Node9</title>
<path fill="none" stroke="midnightblue" d="M415.23,-262C395.84,-262 375.33,-262 356.7,-262"/>
<polygon fill="midnightblue" stroke="midnightblue" points="415.25,-265.5 425.25,-262 415.25,-258.5 415.25,-265.5"/>
</g>
<!-- Node14&#45;&gt;Node15 -->
<g id="edge24" class="edge">
<title>Node14&#45;&gt;Node15</title>
<path fill="none" stroke="midnightblue" d="M430.2,-248.97C425.96,-247.22 421.85,-245.24 418,-243 397.89,-231.3 402.31,-216.35 382,-205 374.99,-201.08 367.27,-197.97 359.38,-195.5"/>
<polygon fill="midnightblue" stroke="midnightblue" points="429.05,-252.27 439.64,-252.43 431.46,-245.7 429.05,-252.27"/>
</g>
<!-- Node16&#45;&gt;Node10 -->
<g id="edge29" class="edge">
<title>Node16&#45;&gt;Node10</title>
<path fill="none" stroke="midnightblue" d="M444.96,-108.51C384.42,-97.04 280.48,-85.26 199,-117 147.31,-137.14 104.66,-192.11 88.96,-214.41"/>
<polygon fill="midnightblue" stroke="midnightblue" points="444.53,-111.99 455.02,-110.49 445.88,-105.12 444.53,-111.99"/>
</g>
<!-- Node16&#45;&gt;Node12 -->
<g id="edge27" class="edge">
<title>Node16&#45;&gt;Node12</title>
<path fill="none" stroke="midnightblue" d="M413.16,-128.85C396.77,-130.62 379.66,-132.47 363.63,-134.2"/>
<polygon fill="midnightblue" stroke="midnightblue" points="413.69,-132.31 423.25,-127.76 412.94,-125.35 413.69,-132.31"/>
</g>
<!-- Node16&#45;&gt;Node15 -->
<g id="edge31" class="edge">
<title>Node16&#45;&gt;Node15</title>
<path fill="none" stroke="midnightblue" d="M465.22,-133.74C442.73,-143.72 410.89,-157 382,-166 369.1,-170.02 354.92,-173.56 341.69,-176.49"/>
<polygon fill="midnightblue" stroke="midnightblue" points="466.87,-136.84 474.56,-129.55 464,-130.45 466.87,-136.84"/>
</g>
<!-- Node17 -->
<g id="node17" class="node">
<title>Node17</title>
<g id="a_node17"><a xlink:href="classJoyDPadXml.html#ac78c8fd1ad107f6a3baed4910863cb0c" target="_top" xlink:title=" ">
<polygon fill="white" stroke="black" points="208.5,-39 208.5,-69 372.5,-69 372.5,-39 208.5,-39"/>
<text text-anchor="start" x="216.5" y="-57" font-family="Helvetica,sans-Serif" font-size="10.00">JoyDPadXml&lt; GameController</text>
<text text-anchor="middle" x="290.5" y="-46" font-family="Helvetica,sans-Serif" font-size="10.00">DPad &gt;::writeConfig</text>
</a>
</g>
</g>
<!-- Node16&#45;&gt;Node17 -->
<g id="edge28" class="edge">
<title>Node16&#45;&gt;Node17</title>
<path fill="none" stroke="midnightblue" d="M455.48,-107.18C421.88,-96.28 373.56,-80.61 338.08,-69.11"/>
<polygon fill="midnightblue" stroke="midnightblue" points="454.82,-110.65 465.41,-110.4 456.98,-103.99 454.82,-110.65"/>
</g>
<!-- Node18 -->
<g id="node18" class="node">
<title>Node18</title>
<g id="a_node18"><a xlink:href="classJoySensor.html#a92d38c3baf6dc85d28d66e7a7df4b4c3" target="_top" xlink:title="Write the status of the properties of a sensor and direction buttons to an XML stream.">
<polygon fill="white" stroke="black" points="227.5,-0.5 227.5,-19.5 353.5,-19.5 353.5,-0.5 227.5,-0.5"/>
<text text-anchor="middle" x="290.5" y="-7.5" font-family="Helvetica,sans-Serif" font-size="10.00">JoySensor::writeConfig</text>
</a>
</g>
</g>
<!-- Node16&#45;&gt;Node18 -->
<g id="edge30" class="edge">
<title>Node16&#45;&gt;Node18</title>
<path fill="none" stroke="midnightblue" d="M479.14,-103.04C458.71,-82.26 421.16,-47.55 382,-29 373.15,-24.81 363.38,-21.53 353.63,-18.98"/>
<polygon fill="midnightblue" stroke="midnightblue" points="476.64,-105.48 486.1,-110.25 481.68,-100.63 476.64,-105.48"/>
</g>
</g>
</svg>
