<?xml version="1.0" encoding="UTF-8" standalone="no"?>
<!DOCTYPE svg PUBLIC "-//W3C//DTD SVG 1.1//EN"
 "http://www.w3.org/Graphics/SVG/1.1/DTD/svg11.dtd">
<!-- Generated by graphviz version 2.43.0 (0)
 -->
<!-- Title: JoyControlStickEditDialogHelper Pages: 1 -->
<svg width="1114pt" height="921pt"
 viewBox="0.00 0.00 1113.50 921.00" xmlns="http://www.w3.org/2000/svg" xmlns:xlink="http://www.w3.org/1999/xlink">
<g id="graph0" class="graph" transform="scale(1 1) rotate(0) translate(4 917)">
<title>JoyControlStickEditDialogHelper</title>
<polygon fill="white" stroke="transparent" points="-4,4 -4,-917 1109.5,-917 1109.5,4 -4,4"/>
<!-- Node1 -->
<g id="node1" class="node">
<title>Node1</title>
<g id="a_node1"><a xlink:title="Some helper methods which run in the IO thread and are called from the GUI thread.">
<polygon fill="#bfbfbf" stroke="black" points="338,-682.5 338,-712.5 479,-712.5 479,-682.5 338,-682.5"/>
<text text-anchor="start" x="346" y="-700.5" font-family="Helvetica,sans-Serif" font-size="10.00">JoyControlStickEditDialog</text>
<text text-anchor="middle" x="408.5" y="-689.5" font-family="Helvetica,sans-Serif" font-size="10.00">Helper</text>
</a>
</g>
</g>
<!-- Node2 -->
<g id="node2" class="node">
<title>Node2</title>
<g id="a_node2"><a xlink:title=" ">
<polygon fill="white" stroke="#bfbfbf" points="504.5,-836.5 504.5,-855.5 560.5,-855.5 560.5,-836.5 504.5,-836.5"/>
<text text-anchor="middle" x="532.5" y="-843.5" font-family="Helvetica,sans-Serif" font-size="10.00">QObject</text>
</a>
</g>
</g>
<!-- Node2&#45;&gt;Node1 -->
<g id="edge1" class="edge">
<title>Node2&#45;&gt;Node1</title>
<path fill="none" stroke="midnightblue" d="M533.51,-825.99C533.77,-801.04 530.42,-757.33 506.5,-731 499.03,-722.77 489.43,-716.63 479.17,-712.03"/>
<polygon fill="midnightblue" stroke="midnightblue" points="530,-826.18 533.18,-836.29 537,-826.4 530,-826.18"/>
</g>
<!-- Node3 -->
<g id="node3" class="node">
<title>Node3</title>
<g id="a_node3"><a xlink:href="classJoyControlStick.html" target="_top" xlink:title="Represents stick of a joystick.">
<polygon fill="white" stroke="black" points="152,-769.5 152,-788.5 243,-788.5 243,-769.5 152,-769.5"/>
<text text-anchor="middle" x="197.5" y="-776.5" font-family="Helvetica,sans-Serif" font-size="10.00">JoyControlStick</text>
</a>
</g>
</g>
<!-- Node2&#45;&gt;Node3 -->
<g id="edge3" class="edge">
<title>Node2&#45;&gt;Node3</title>
<path fill="none" stroke="midnightblue" d="M494.15,-843.43C429.15,-840.39 300.26,-832.7 257.5,-818 238.38,-811.42 219.13,-797.68 207.77,-788.65"/>
<polygon fill="midnightblue" stroke="midnightblue" points="494.24,-846.93 504.38,-843.89 494.55,-839.94 494.24,-846.93"/>
</g>
<!-- Node7 -->
<g id="node7" class="node">
<title>Node7</title>
<g id="a_node7"><a xlink:href="classJoyButton.html" target="_top" xlink:title="Represents a single joystick button being part of a SetJoystick Contains multiple JoyButtonSlots whic...">
<polygon fill="white" stroke="black" points="403.5,-124.5 403.5,-143.5 467.5,-143.5 467.5,-124.5 403.5,-124.5"/>
<text text-anchor="middle" x="435.5" y="-131.5" font-family="Helvetica,sans-Serif" font-size="10.00">JoyButton</text>
</a>
</g>
</g>
<!-- Node2&#45;&gt;Node7 -->
<g id="edge8" class="edge">
<title>Node2&#45;&gt;Node7</title>
<path fill="none" stroke="midnightblue" d="M494.25,-840.36C444.9,-832.09 360.94,-809.72 323.5,-751 317.68,-741.87 324.21,-705.29 329.5,-682 349.24,-595.11 375.39,-579.25 393.5,-492 408.5,-419.72 407.5,-400.32 407.5,-326.5 407.5,-326.5 407.5,-326.5 407.5,-200 407.5,-178.37 420.73,-155.76 429.01,-143.74"/>
<polygon fill="midnightblue" stroke="midnightblue" points="493.81,-843.83 504.23,-841.92 494.89,-836.92 493.81,-843.83"/>
</g>
<!-- Node8 -->
<g id="node8" class="node">
<title>Node8</title>
<g id="a_node8"><a xlink:href="classJoyButtonMouseHelper.html" target="_top" xlink:title=" ">
<polygon fill="white" stroke="black" points="377.5,-731.5 377.5,-750.5 505.5,-750.5 505.5,-731.5 377.5,-731.5"/>
<text text-anchor="middle" x="441.5" y="-738.5" font-family="Helvetica,sans-Serif" font-size="10.00">JoyButtonMouseHelper</text>
</a>
</g>
</g>
<!-- Node2&#45;&gt;Node8 -->
<g id="edge10" class="edge">
<title>Node2&#45;&gt;Node8</title>
<path fill="none" stroke="midnightblue" d="M499.51,-831.8C492.68,-828.04 485.93,-823.45 480.5,-818 460.62,-798.03 448.77,-765.84 443.98,-750.57"/>
<polygon fill="midnightblue" stroke="midnightblue" points="498.24,-835.07 508.75,-836.41 501.37,-828.81 498.24,-835.07"/>
</g>
<!-- Node9 -->
<g id="node9" class="node">
<title>Node9</title>
<g id="a_node9"><a xlink:href="classJoyButtonSlot.html" target="_top" xlink:title="Represents action which can be performed after pressing button.">
<polygon fill="white" stroke="black" points="230,-644.5 230,-663.5 313,-663.5 313,-644.5 230,-644.5"/>
<text text-anchor="middle" x="271.5" y="-651.5" font-family="Helvetica,sans-Serif" font-size="10.00">JoyButtonSlot</text>
</a>
</g>
</g>
<!-- Node2&#45;&gt;Node9 -->
<g id="edge12" class="edge">
<title>Node2&#45;&gt;Node9</title>
<path fill="none" stroke="midnightblue" d="M494.21,-843.16C430.79,-839.75 309.49,-831.54 295.5,-818 251.72,-775.63 264.18,-690.93 269.6,-663.67"/>
<polygon fill="midnightblue" stroke="midnightblue" points="494.07,-846.66 504.24,-843.69 494.43,-839.67 494.07,-846.66"/>
</g>
<!-- Node11 -->
<g id="node11" class="node">
<title>Node11</title>
<g id="a_node11"><a xlink:href="classJoyDPad.html" target="_top" xlink:title=" ">
<polygon fill="white" stroke="black" points="521.5,-265 521.5,-284 577.5,-284 577.5,-265 521.5,-265"/>
<text text-anchor="middle" x="549.5" y="-272" font-family="Helvetica,sans-Serif" font-size="10.00">JoyDPad</text>
</a>
</g>
</g>
<!-- Node2&#45;&gt;Node11 -->
<g id="edge15" class="edge">
<title>Node2&#45;&gt;Node11</title>
<path fill="none" stroke="midnightblue" d="M535.24,-826.2C539.06,-798.37 545.5,-744.52 545.5,-698.5 545.5,-698.5 545.5,-698.5 545.5,-425 545.5,-371.51 548.09,-307.3 549.1,-284.26"/>
<polygon fill="midnightblue" stroke="midnightblue" points="531.73,-826.05 533.79,-836.44 538.66,-827.03 531.73,-826.05"/>
</g>
<!-- Node13 -->
<g id="node13" class="node">
<title>Node13</title>
<g id="a_node13"><a xlink:href="classSetJoystickXml.html" target="_top" xlink:title="SetJoystick XML serialization/deserialization helper class Reads data from the supplied SetJoystick o...">
<polygon fill="white" stroke="black" points="619.5,-539.5 619.5,-558.5 709.5,-558.5 709.5,-539.5 619.5,-539.5"/>
<text text-anchor="middle" x="664.5" y="-546.5" font-family="Helvetica,sans-Serif" font-size="10.00">SetJoystickXml</text>
</a>
</g>
</g>
<!-- Node2&#45;&gt;Node13 -->
<g id="edge18" class="edge">
<title>Node2&#45;&gt;Node13</title>
<path fill="none" stroke="midnightblue" d="M542.01,-827.07C543.54,-824.06 545.09,-820.95 546.5,-818 564.67,-779.92 567.21,-769.49 584.5,-731 613.18,-667.15 623.71,-652.67 650.5,-588 654.64,-578 658.87,-566.28 661.58,-558.53"/>
<polygon fill="midnightblue" stroke="midnightblue" points="538.83,-825.59 537.32,-836.08 545.04,-828.82 538.83,-825.59"/>
</g>
<!-- Node14 -->
<g id="node14" class="node">
<title>Node14</title>
<g id="a_node14"><a xlink:href="classJoyAxisXml.html" target="_top" xlink:title=" ">
<polygon fill="white" stroke="black" points="661.5,-606.5 661.5,-625.5 733.5,-625.5 733.5,-606.5 661.5,-606.5"/>
<text text-anchor="middle" x="697.5" y="-613.5" font-family="Helvetica,sans-Serif" font-size="10.00">JoyAxisXml</text>
</a>
</g>
</g>
<!-- Node2&#45;&gt;Node14 -->
<g id="edge21" class="edge">
<title>Node2&#45;&gt;Node14</title>
<path fill="none" stroke="midnightblue" d="M562.1,-832.03C569.74,-828.05 577.72,-823.3 584.5,-818 615.75,-793.55 623.28,-785.14 643.5,-751 660.12,-722.94 656.29,-712.25 668.5,-682 676.73,-661.6 687.54,-638.15 693.36,-625.75"/>
<polygon fill="midnightblue" stroke="midnightblue" points="560.47,-828.93 553.05,-836.49 563.56,-835.21 560.47,-828.93"/>
</g>
<!-- Node15 -->
<g id="node15" class="node">
<title>Node15</title>
<g id="a_node15"><a xlink:href="classJoyAxis.html" target="_top" xlink:title="Represents single axis of of joystick (or other input)">
<polygon fill="white" stroke="black" points="677,-688 677,-707 730,-707 730,-688 677,-688"/>
<text text-anchor="middle" x="703.5" y="-695" font-family="Helvetica,sans-Serif" font-size="10.00">JoyAxis</text>
</a>
</g>
</g>
<!-- Node2&#45;&gt;Node15 -->
<g id="edge23" class="edge">
<title>Node2&#45;&gt;Node15</title>
<path fill="none" stroke="midnightblue" d="M571.16,-842.31C608,-838.94 659.94,-831.85 674.5,-818 706.21,-787.84 705.73,-729.35 704.28,-707.25"/>
<polygon fill="midnightblue" stroke="midnightblue" points="570.41,-838.86 560.75,-843.2 571.01,-845.83 570.41,-838.86"/>
</g>
<!-- Node17 -->
<g id="node17" class="node">
<title>Node17</title>
<g id="a_node17"><a xlink:href="classJoyButtonXml.html" target="_top" xlink:title=" ">
<polygon fill="white" stroke="black" points="698,-57.5 698,-76.5 781,-76.5 781,-57.5 698,-57.5"/>
<text text-anchor="middle" x="739.5" y="-64.5" font-family="Helvetica,sans-Serif" font-size="10.00">JoyButtonXml</text>
</a>
</g>
</g>
<!-- Node2&#45;&gt;Node17 -->
<g id="edge30" class="edge">
<title>Node2&#45;&gt;Node17</title>
<path fill="none" stroke="midnightblue" d="M570.53,-842.04C662.51,-834.36 889.5,-812.15 889.5,-780 889.5,-780 889.5,-780 889.5,-615 889.5,-528.19 942.5,-513.81 942.5,-427 942.5,-427 942.5,-427 942.5,-133 942.5,-99.42 840.46,-80.78 781.07,-72.78"/>
<polygon fill="midnightblue" stroke="midnightblue" points="570.19,-838.55 560.51,-842.86 570.77,-845.53 570.19,-838.55"/>
</g>
<!-- Node18 -->
<g id="node18" class="node">
<title>Node18</title>
<g id="a_node18"><a xlink:href="classInputDevice.html" target="_top" xlink:title="Abstract class representing a hardware input device, e.g a joystick or controller.">
<polygon fill="white" stroke="black" points="924,-769.5 924,-788.5 999,-788.5 999,-769.5 924,-769.5"/>
<text text-anchor="middle" x="961.5" y="-776.5" font-family="Helvetica,sans-Serif" font-size="10.00">InputDevice</text>
</a>
</g>
</g>
<!-- Node2&#45;&gt;Node18 -->
<g id="edge33" class="edge">
<title>Node2&#45;&gt;Node18</title>
<path fill="none" stroke="midnightblue" d="M570.7,-844.64C652.62,-843.48 842.7,-838.58 903.5,-818 922.2,-811.67 940.74,-797.86 951.66,-788.74"/>
<polygon fill="midnightblue" stroke="midnightblue" points="570.52,-841.14 560.57,-844.77 570.61,-848.14 570.52,-841.14"/>
</g>
<!-- Node3&#45;&gt;Node1 -->
<g id="edge2" class="edge">
<title>Node3&#45;&gt;Node1</title>
<path fill="none" stroke="#9a32cd" stroke-dasharray="5,2" d="M229.65,-765.89C267.73,-751.54 331.05,-727.68 371.23,-712.54"/>
<polygon fill="#9a32cd" stroke="#9a32cd" points="228.2,-762.69 220.08,-769.49 230.67,-769.24 228.2,-762.69"/>
<text text-anchor="middle" x="335" y="-738.5" font-family="Helvetica,sans-Serif" font-size="10.00"> stick</text>
</g>
<!-- Node5 -->
<g id="node5" class="node">
<title>Node5</title>
<g id="a_node5"><a xlink:href="classJoyControlStickModifierButton.html" target="_top" xlink:title=" ">
<polygon fill="white" stroke="black" points="141,-0.5 141,-19.5 304,-19.5 304,-0.5 141,-0.5"/>
<text text-anchor="middle" x="222.5" y="-7.5" font-family="Helvetica,sans-Serif" font-size="10.00">JoyControlStickModifierButton</text>
</a>
</g>
</g>
<!-- Node3&#45;&gt;Node5 -->
<g id="edge41" class="edge">
<title>Node3&#45;&gt;Node5</title>
<path fill="none" stroke="#9a32cd" stroke-dasharray="5,2" d="M185.66,-760.66C176.19,-745.1 164.5,-721.27 164.5,-698.5 164.5,-698.5 164.5,-698.5 164.5,-66 164.5,-44.21 186.31,-28.46 203.19,-19.54"/>
<polygon fill="#9a32cd" stroke="#9a32cd" points="182.79,-762.67 191.14,-769.2 188.68,-758.89 182.79,-762.67"/>
<text text-anchor="middle" x="178" y="-323" font-family="Helvetica,sans-Serif" font-size="10.00"> stick</text>
</g>
<!-- Node3&#45;&gt;Node15 -->
<g id="edge28" class="edge">
<title>Node3&#45;&gt;Node15</title>
<path fill="none" stroke="#9a32cd" stroke-dasharray="5,2" d="M253.48,-776.38C317.14,-773.8 424,-767.28 514.5,-751 574.33,-740.24 642.61,-718.96 678.47,-707.06"/>
<polygon fill="#9a32cd" stroke="#9a32cd" points="253.11,-772.89 243.26,-776.77 253.38,-779.88 253.11,-772.89"/>
<text text-anchor="middle" x="618.5" y="-738.5" font-family="Helvetica,sans-Serif" font-size="10.00"> m_stick</text>
</g>
<!-- Node23 -->
<g id="node23" class="node">
<title>Node23</title>
<g id="a_node23"><a xlink:href="classJoyControlStickButton.html" target="_top" xlink:title=" ">
<polygon fill="white" stroke="black" points="0,-0.5 0,-19.5 123,-19.5 123,-0.5 0,-0.5"/>
<text text-anchor="middle" x="61.5" y="-7.5" font-family="Helvetica,sans-Serif" font-size="10.00">JoyControlStickButton</text>
</a>
</g>
</g>
<!-- Node3&#45;&gt;Node23 -->
<g id="edge44" class="edge">
<title>Node3&#45;&gt;Node23</title>
<path fill="none" stroke="#9a32cd" stroke-dasharray="5,2" d="M141.49,-775.72C89.3,-770.24 19.5,-752.76 19.5,-698.5 19.5,-698.5 19.5,-698.5 19.5,-66 19.5,-46.3 36.74,-29.27 49.13,-19.57"/>
<polygon fill="#9a32cd" stroke="#9a32cd" points="141.38,-779.23 151.66,-776.67 142.03,-772.26 141.38,-779.23"/>
<text text-anchor="middle" x="33" y="-323" font-family="Helvetica,sans-Serif" font-size="10.00"> stick</text>
</g>
<!-- Node4 -->
<g id="node4" class="node">
<title>Node4</title>
<g id="a_node4"><a xlink:href="classJoyStickDirectionsType.html" target="_top" xlink:title=" ">
<polygon fill="white" stroke="black" points="133.5,-836.5 133.5,-855.5 261.5,-855.5 261.5,-836.5 133.5,-836.5"/>
<text text-anchor="middle" x="197.5" y="-843.5" font-family="Helvetica,sans-Serif" font-size="10.00">JoyStickDirectionsType</text>
</a>
</g>
</g>
<!-- Node4&#45;&gt;Node3 -->
<g id="edge4" class="edge">
<title>Node4&#45;&gt;Node3</title>
<path fill="none" stroke="midnightblue" d="M197.5,-826.04C197.5,-813.67 197.5,-798.12 197.5,-788.63"/>
<polygon fill="midnightblue" stroke="midnightblue" points="194,-826.23 197.5,-836.23 201,-826.23 194,-826.23"/>
</g>
<!-- Node5&#45;&gt;Node3 -->
<g id="edge5" class="edge">
<title>Node5&#45;&gt;Node3</title>
<path fill="none" stroke="#9a32cd" stroke-dasharray="5,2" d="M218.48,-29.32C216.49,-39.97 214.5,-53.68 214.5,-66 214.5,-698.5 214.5,-698.5 214.5,-698.5 214.5,-724.75 205.53,-754.82 200.62,-769.31"/>
<polygon fill="#9a32cd" stroke="#9a32cd" points="221.91,-30.02 220.48,-19.52 215.06,-28.62 221.91,-30.02"/>
<text text-anchor="middle" x="252.5" y="-323" font-family="Helvetica,sans-Serif" font-size="10.00"> modifierButton</text>
</g>
<!-- Node6 -->
<g id="node6" class="node">
<title>Node6</title>
<g id="a_node6"><a xlink:href="classJoyGradientButton.html" target="_top" xlink:title=" ">
<polygon fill="white" stroke="black" points="298.5,-57.5 298.5,-76.5 404.5,-76.5 404.5,-57.5 298.5,-57.5"/>
<text text-anchor="middle" x="351.5" y="-64.5" font-family="Helvetica,sans-Serif" font-size="10.00">JoyGradientButton</text>
</a>
</g>
</g>
<!-- Node6&#45;&gt;Node5 -->
<g id="edge6" class="edge">
<title>Node6&#45;&gt;Node5</title>
<path fill="none" stroke="midnightblue" d="M338.78,-49.83C334.63,-45.45 329.74,-41.08 324.5,-38 309.97,-29.46 292.71,-23.58 276.56,-19.53"/>
<polygon fill="midnightblue" stroke="midnightblue" points="336.15,-52.15 345.33,-57.44 341.45,-47.58 336.15,-52.15"/>
</g>
<!-- Node16 -->
<g id="node16" class="node">
<title>Node16</title>
<g id="a_node16"><a xlink:href="classJoyAxisButton.html" target="_top" xlink:title=" ">
<polygon fill="white" stroke="black" points="771,-0.5 771,-19.5 856,-19.5 856,-0.5 771,-0.5"/>
<text text-anchor="middle" x="813.5" y="-7.5" font-family="Helvetica,sans-Serif" font-size="10.00">JoyAxisButton</text>
</a>
</g>
</g>
<!-- Node6&#45;&gt;Node16 -->
<g id="edge26" class="edge">
<title>Node6&#45;&gt;Node16</title>
<path fill="none" stroke="midnightblue" d="M415.07,-58.43C510.71,-47.05 689.12,-25.81 770.74,-16.09"/>
<polygon fill="midnightblue" stroke="midnightblue" points="414.46,-54.98 404.95,-59.64 415.29,-61.93 414.46,-54.98"/>
</g>
<!-- Node6&#45;&gt;Node23 -->
<g id="edge43" class="edge">
<title>Node6&#45;&gt;Node23</title>
<path fill="none" stroke="midnightblue" d="M296.58,-55.58C241.55,-45.15 157.87,-29.28 106.6,-19.55"/>
<polygon fill="midnightblue" stroke="midnightblue" points="296.03,-59.04 306.51,-57.47 297.33,-52.16 296.03,-59.04"/>
</g>
<!-- Node7&#45;&gt;Node6 -->
<g id="edge7" class="edge">
<title>Node7&#45;&gt;Node6</title>
<path fill="none" stroke="midnightblue" d="M416.2,-118.07C399.62,-105.24 376.29,-87.19 362.65,-76.63"/>
<polygon fill="midnightblue" stroke="midnightblue" points="414.12,-120.88 424.17,-124.23 418.4,-115.35 414.12,-120.88"/>
</g>
<!-- Node7&#45;&gt;Node17 -->
<g id="edge31" class="edge">
<title>Node7&#45;&gt;Node17</title>
<path fill="none" stroke="#9a32cd" stroke-dasharray="5,2" d="M477.8,-123.96C536.51,-111.4 641.96,-88.86 699.45,-76.56"/>
<polygon fill="#9a32cd" stroke="#9a32cd" points="476.79,-120.59 467.75,-126.11 478.26,-127.44 476.79,-120.59"/>
<text text-anchor="middle" x="638.5" y="-98" font-family="Helvetica,sans-Serif" font-size="10.00"> m_joyButton</text>
</g>
<!-- Node22 -->
<g id="node22" class="node">
<title>Node22</title>
<g id="a_node22"><a xlink:href="classJoyDPadButton.html" target="_top" xlink:title=" ">
<polygon fill="white" stroke="black" points="505,-57.5 505,-76.5 594,-76.5 594,-57.5 505,-57.5"/>
<text text-anchor="middle" x="549.5" y="-64.5" font-family="Helvetica,sans-Serif" font-size="10.00">JoyDPadButton</text>
</a>
</g>
</g>
<!-- Node7&#45;&gt;Node22 -->
<g id="edge39" class="edge">
<title>Node7&#45;&gt;Node22</title>
<path fill="none" stroke="midnightblue" d="M438.68,-114.13C440.72,-107.27 444.05,-99.98 449.5,-95 464.5,-81.29 485.74,-74.42 504.79,-71.03"/>
<polygon fill="midnightblue" stroke="midnightblue" points="435.2,-113.66 436.43,-124.18 442.03,-115.19 435.2,-113.66"/>
</g>
<!-- Node8&#45;&gt;Node7 -->
<g id="edge9" class="edge">
<title>Node8&#45;&gt;Node7</title>
<path fill="none" stroke="#9a32cd" stroke-dasharray="5,2" d="M475.75,-726.23C480.85,-722.69 485.42,-718.32 488.5,-713 495.4,-701.08 489.6,-695.73 488.5,-682 482.7,-609.75 470.82,-593 462.5,-521 445.12,-370.51 437.41,-185.64 435.82,-143.72"/>
<polygon fill="#9a32cd" stroke="#9a32cd" points="473.7,-723.38 466.84,-731.46 477.24,-729.42 473.7,-723.38"/>
<text text-anchor="middle" x="497" y="-513" font-family="Helvetica,sans-Serif" font-size="10.00"> mouseHelper</text>
</g>
<!-- Node9&#45;&gt;Node7 -->
<g id="edge11" class="edge">
<title>Node9&#45;&gt;Node7</title>
<path fill="none" stroke="#9a32cd" stroke-dasharray="5,2" d="M267.87,-633.87C259.63,-586.01 242.78,-457.9 277.5,-360 280.89,-350.45 285.88,-350.43 291.5,-342 342.53,-265.51 330.32,-228.81 393.5,-162 400.53,-154.57 410,-148.25 418.17,-143.6"/>
<polygon fill="#9a32cd" stroke="#9a32cd" points="264.48,-634.79 269.7,-644.01 271.37,-633.55 264.48,-634.79"/>
<text text-anchor="middle" x="335.5" y="-484" font-family="Helvetica,sans-Serif" font-size="10.00"> currentDelay</text>
<text text-anchor="middle" x="335.5" y="-473" font-family="Helvetica,sans-Serif" font-size="10.00">lastActiveKey</text>
<text text-anchor="middle" x="335.5" y="-462" font-family="Helvetica,sans-Serif" font-size="10.00">currentSetChangeSlot</text>
<text text-anchor="middle" x="335.5" y="-451" font-family="Helvetica,sans-Serif" font-size="10.00">currentKeyPress</text>
<text text-anchor="middle" x="335.5" y="-440" font-family="Helvetica,sans-Serif" font-size="10.00">currentRelease</text>
<text text-anchor="middle" x="335.5" y="-429" font-family="Helvetica,sans-Serif" font-size="10.00">currentCycle</text>
<text text-anchor="middle" x="335.5" y="-418" font-family="Helvetica,sans-Serif" font-size="10.00">previousCycle</text>
<text text-anchor="middle" x="335.5" y="-407" font-family="Helvetica,sans-Serif" font-size="10.00">m_currentDistance</text>
<text text-anchor="middle" x="335.5" y="-396" font-family="Helvetica,sans-Serif" font-size="10.00">currentPause</text>
<text text-anchor="start" x="277.5" y="-385" font-family="Helvetica,sans-Serif" font-size="10.00">currentWheelHorizontal</text>
<text text-anchor="middle" x="335.5" y="-374" font-family="Helvetica,sans-Serif" font-size="10.00">Event</text>
<text text-anchor="middle" x="335.5" y="-363" font-family="Helvetica,sans-Serif" font-size="10.00">...</text>
</g>
<!-- Node10 -->
<g id="node10" class="node">
<title>Node10</title>
<g id="a_node10"><a xlink:href="classVDPad.html" target="_top" xlink:title=" ">
<polygon fill="white" stroke="black" points="473.5,-191.5 473.5,-210.5 521.5,-210.5 521.5,-191.5 473.5,-191.5"/>
<text text-anchor="middle" x="497.5" y="-198.5" font-family="Helvetica,sans-Serif" font-size="10.00">VDPad</text>
</a>
</g>
</g>
<!-- Node10&#45;&gt;Node7 -->
<g id="edge13" class="edge">
<title>Node10&#45;&gt;Node7</title>
<path fill="none" stroke="#9a32cd" stroke-dasharray="5,2" d="M482.24,-184C470.08,-171.25 453.52,-153.89 443.73,-143.63"/>
<polygon fill="#9a32cd" stroke="#9a32cd" points="479.7,-186.41 489.14,-191.23 484.77,-181.58 479.7,-186.41"/>
<text text-anchor="middle" x="494" y="-165" font-family="Helvetica,sans-Serif" font-size="10.00"> m_vdpad</text>
</g>
<!-- Node11&#45;&gt;Node10 -->
<g id="edge14" class="edge">
<title>Node11&#45;&gt;Node10</title>
<path fill="none" stroke="midnightblue" d="M536.96,-256.25C526.54,-241.93 512.14,-222.13 503.93,-210.84"/>
<polygon fill="midnightblue" stroke="midnightblue" points="534.41,-258.7 543.12,-264.73 540.07,-254.59 534.41,-258.7"/>
</g>
<!-- Node11&#45;&gt;Node22 -->
<g id="edge40" class="edge">
<title>Node11&#45;&gt;Node22</title>
<path fill="none" stroke="#9a32cd" stroke-dasharray="5,2" d="M574.12,-259.65C600.88,-243.02 642.14,-212.38 659.5,-173 679.58,-127.46 610.45,-92.06 572.6,-76.55"/>
<polygon fill="#9a32cd" stroke="#9a32cd" points="572.09,-256.79 565.32,-264.94 575.7,-262.79 572.09,-256.79"/>
<text text-anchor="middle" x="684" y="-165" font-family="Helvetica,sans-Serif" font-size="10.00"> m_dpad</text>
</g>
<!-- Node12 -->
<g id="node12" class="node">
<title>Node12</title>
<g id="a_node12"><a xlink:href="classSetJoystick.html" target="_top" xlink:title="A set of mapped events which can by switched by a controller event. Contains controller input objects...">
<polygon fill="white" stroke="black" points="574,-416.5 574,-435.5 645,-435.5 645,-416.5 574,-416.5"/>
<text text-anchor="middle" x="609.5" y="-423.5" font-family="Helvetica,sans-Serif" font-size="10.00">SetJoystick</text>
</a>
</g>
</g>
<!-- Node12&#45;&gt;Node11 -->
<g id="edge16" class="edge">
<title>Node12&#45;&gt;Node11</title>
<path fill="none" stroke="#9a32cd" stroke-dasharray="5,2" d="M602.06,-406.47C589.01,-373.95 562.48,-307.84 552.98,-284.17"/>
<polygon fill="#9a32cd" stroke="#9a32cd" points="598.95,-408.12 605.93,-416.1 605.45,-405.51 598.95,-408.12"/>
<text text-anchor="middle" x="608.5" y="-323" font-family="Helvetica,sans-Serif" font-size="10.00"> m_parentSet</text>
</g>
<!-- Node12&#45;&gt;Node13 -->
<g id="edge19" class="edge">
<title>Node12&#45;&gt;Node13</title>
<path fill="none" stroke="#9a32cd" stroke-dasharray="5,2" d="M613.95,-445.49C619.12,-465.05 628.73,-496.42 642.5,-521 646.16,-527.54 651.44,-534.08 655.91,-539.08"/>
<polygon fill="#9a32cd" stroke="#9a32cd" points="617.33,-444.56 611.48,-435.72 610.54,-446.27 617.33,-444.56"/>
<text text-anchor="middle" x="678.5" y="-513" font-family="Helvetica,sans-Serif" font-size="10.00"> m_setJoystick</text>
</g>
<!-- Node12&#45;&gt;Node15 -->
<g id="edge24" class="edge">
<title>Node12&#45;&gt;Node15</title>
<path fill="none" stroke="#9a32cd" stroke-dasharray="5,2" d="M605.23,-445.54C599.04,-476.3 590.19,-539.3 608.5,-588 625.42,-633 670.4,-671.53 691.83,-687.98"/>
<polygon fill="#9a32cd" stroke="#9a32cd" points="608.65,-446.27 607.33,-435.76 601.81,-444.8 608.65,-446.27"/>
<text text-anchor="middle" x="641.5" y="-580" font-family="Helvetica,sans-Serif" font-size="10.00"> m_parentSet</text>
</g>
<!-- Node13&#45;&gt;Node12 -->
<g id="edge17" class="edge">
<title>Node13&#45;&gt;Node12</title>
<path fill="none" stroke="midnightblue" d="M635.2,-533.92C630.28,-530.35 625.73,-526.05 622.5,-521 605.12,-493.79 606.73,-453.14 608.44,-435.59"/>
<polygon fill="midnightblue" stroke="midnightblue" points="633.35,-536.89 643.67,-539.27 637.08,-530.97 633.35,-536.89"/>
</g>
<!-- Node14&#45;&gt;Node13 -->
<g id="edge20" class="edge">
<title>Node14&#45;&gt;Node13</title>
<path fill="none" stroke="#9a32cd" stroke-dasharray="5,2" d="M688.44,-597.16C682.08,-584.63 673.85,-568.41 668.88,-558.63"/>
<polygon fill="#9a32cd" stroke="#9a32cd" points="685.4,-598.9 693.05,-606.23 691.64,-595.73 685.4,-598.9"/>
<text text-anchor="middle" x="712" y="-580" font-family="Helvetica,sans-Serif" font-size="10.00"> joyAxisXml</text>
</g>
<!-- Node15&#45;&gt;Node14 -->
<g id="edge22" class="edge">
<title>Node15&#45;&gt;Node14</title>
<path fill="none" stroke="#9a32cd" stroke-dasharray="5,2" d="M702.1,-677.91C700.85,-661.45 699.1,-638.16 698.16,-625.69"/>
<polygon fill="#9a32cd" stroke="#9a32cd" points="698.62,-678.28 702.86,-687.99 705.6,-677.76 698.62,-678.28"/>
<text text-anchor="middle" x="728" y="-651.5" font-family="Helvetica,sans-Serif" font-size="10.00"> m_joyAxis</text>
</g>
<!-- Node15&#45;&gt;Node16 -->
<g id="edge27" class="edge">
<title>Node15&#45;&gt;Node16</title>
<path fill="none" stroke="#9a32cd" stroke-dasharray="5,2" d="M735.04,-683.23C743.91,-678.27 752.92,-671.87 759.5,-664 773.74,-646.95 776.5,-639.21 776.5,-617 776.5,-617 776.5,-617 776.5,-324.5 776.5,-294.3 780.55,-286.52 790.5,-258 793.45,-249.55 795.95,-248.21 799.5,-240 806.65,-223.48 813.5,-220 813.5,-202 813.5,-202 813.5,-202 813.5,-66 813.5,-49.58 813.5,-30.39 813.5,-19.57"/>
<polygon fill="#9a32cd" stroke="#9a32cd" points="733.26,-680.21 725.96,-687.89 736.46,-686.44 733.26,-680.21"/>
<text text-anchor="middle" x="810" y="-272" font-family="Helvetica,sans-Serif" font-size="10.00"> m_axis</text>
</g>
<!-- Node16&#45;&gt;Node15 -->
<g id="edge25" class="edge">
<title>Node16&#45;&gt;Node15</title>
<path fill="none" stroke="#9a32cd" stroke-dasharray="5,2" d="M832.19,-27.03C841.79,-37.09 851.5,-50.98 851.5,-66 851.5,-617 851.5,-617 851.5,-617 851.5,-671.4 772.95,-688.73 730.3,-694.13"/>
<polygon fill="#9a32cd" stroke="#9a32cd" points="834.33,-24.24 824.7,-19.83 829.48,-29.28 834.33,-24.24"/>
<text text-anchor="middle" x="883" y="-283" font-family="Helvetica,sans-Serif" font-size="10.00"> paxisbutton</text>
<text text-anchor="middle" x="883" y="-272" font-family="Helvetica,sans-Serif" font-size="10.00">activeButton</text>
<text text-anchor="middle" x="883" y="-261" font-family="Helvetica,sans-Serif" font-size="10.00">naxisbutton</text>
</g>
<!-- Node17&#45;&gt;Node13 -->
<g id="edge29" class="edge">
<title>Node17&#45;&gt;Node13</title>
<path fill="none" stroke="#9a32cd" stroke-dasharray="5,2" d="M738.25,-87.02C736.29,-117.14 732.41,-177.66 729.5,-229 722.14,-358.74 783.91,-411.14 714.5,-521 709.23,-529.34 700.45,-535.28 691.7,-539.43"/>
<polygon fill="#9a32cd" stroke="#9a32cd" points="741.77,-86.93 738.93,-76.72 734.78,-86.47 741.77,-86.93"/>
<text text-anchor="middle" x="764.5" y="-232" font-family="Helvetica,sans-Serif" font-size="10.00"> joyButtonXml</text>
</g>
<!-- Node18&#45;&gt;Node12 -->
<g id="edge32" class="edge">
<title>Node18&#45;&gt;Node12</title>
<path fill="none" stroke="#9a32cd" stroke-dasharray="5,2" d="M956.71,-759.38C946.42,-720.31 921.67,-631.34 903.5,-606 834.55,-509.84 696.39,-455.35 637.32,-435.59"/>
<polygon fill="#9a32cd" stroke="#9a32cd" points="953.35,-760.38 959.26,-769.18 960.12,-758.62 953.35,-760.38"/>
<text text-anchor="middle" x="939" y="-613.5" font-family="Helvetica,sans-Serif" font-size="10.00"> m_device</text>
</g>
<!-- Node21 -->
<g id="node21" class="node">
<title>Node21</title>
<g id="a_node21"><a xlink:href="classInputDeviceCalibration.html" target="_top" xlink:title="Calibration storage backend which can store multiple calibration items for different controllers.">
<polygon fill="white" stroke="black" points="970.5,-688 970.5,-707 1098.5,-707 1098.5,-688 970.5,-688"/>
<text text-anchor="middle" x="1034.5" y="-695" font-family="Helvetica,sans-Serif" font-size="10.00">InputDeviceCalibration</text>
</a>
</g>
</g>
<!-- Node18&#45;&gt;Node21 -->
<g id="edge37" class="edge">
<title>Node18&#45;&gt;Node21</title>
<path fill="none" stroke="#9a32cd" stroke-dasharray="5,2" d="M958.93,-759C958.67,-749.8 959.91,-739.03 965.5,-731 973.51,-719.48 986.72,-711.92 999.45,-707.03"/>
<polygon fill="#9a32cd" stroke="#9a32cd" points="955.46,-759.5 959.81,-769.16 962.44,-758.9 955.46,-759.5"/>
<text text-anchor="middle" x="991" y="-738.5" font-family="Helvetica,sans-Serif" font-size="10.00"> m_device</text>
</g>
<!-- Node19 -->
<g id="node19" class="node">
<title>Node19</title>
<g id="a_node19"><a xlink:href="classAntiMicroSettings.html" target="_top" xlink:title=" ">
<polygon fill="white" stroke="black" points="910,-836.5 910,-855.5 1013,-855.5 1013,-836.5 910,-836.5"/>
<text text-anchor="middle" x="961.5" y="-843.5" font-family="Helvetica,sans-Serif" font-size="10.00">AntiMicroSettings</text>
</a>
</g>
</g>
<!-- Node19&#45;&gt;Node18 -->
<g id="edge34" class="edge">
<title>Node19&#45;&gt;Node18</title>
<path fill="none" stroke="#9a32cd" stroke-dasharray="5,2" d="M961.5,-826.04C961.5,-813.67 961.5,-798.12 961.5,-788.63"/>
<polygon fill="#9a32cd" stroke="#9a32cd" points="958,-826.23 961.5,-836.23 965,-826.23 958,-826.23"/>
<text text-anchor="middle" x="990.5" y="-810" font-family="Helvetica,sans-Serif" font-size="10.00"> m_settings</text>
</g>
<!-- Node20 -->
<g id="node20" class="node">
<title>Node20</title>
<g id="a_node20"><a xlink:title=" ">
<polygon fill="white" stroke="#bfbfbf" points="929.5,-893.5 929.5,-912.5 993.5,-912.5 993.5,-893.5 929.5,-893.5"/>
<text text-anchor="middle" x="961.5" y="-900.5" font-family="Helvetica,sans-Serif" font-size="10.00">QSettings</text>
</a>
</g>
</g>
<!-- Node20&#45;&gt;Node19 -->
<g id="edge35" class="edge">
<title>Node20&#45;&gt;Node19</title>
<path fill="none" stroke="midnightblue" d="M961.5,-883.12C961.5,-873.82 961.5,-863.06 961.5,-855.71"/>
<polygon fill="midnightblue" stroke="midnightblue" points="958,-883.41 961.5,-893.41 965,-883.41 958,-883.41"/>
</g>
<!-- Node21&#45;&gt;Node18 -->
<g id="edge36" class="edge">
<title>Node21&#45;&gt;Node18</title>
<path fill="none" stroke="#9a32cd" stroke-dasharray="5,2" d="M1033.38,-717.54C1031.85,-728.41 1028.36,-741.69 1020.5,-751 1013.38,-759.44 1003.06,-765.37 993.04,-769.48"/>
<polygon fill="#9a32cd" stroke="#9a32cd" points="1036.89,-717.64 1034.37,-707.35 1029.92,-716.96 1036.89,-717.64"/>
<text text-anchor="middle" x="1067.5" y="-738.5" font-family="Helvetica,sans-Serif" font-size="10.00"> m_calibrations</text>
</g>
<!-- Node22&#45;&gt;Node11 -->
<g id="edge38" class="edge">
<title>Node22&#45;&gt;Node11</title>
<path fill="none" stroke="#9a32cd" stroke-dasharray="5,2" d="M549.5,-86.8C549.5,-129.87 549.5,-234.32 549.5,-264.93"/>
<polygon fill="#9a32cd" stroke="#9a32cd" points="553,-86.6 549.5,-76.61 546,-86.61 553,-86.6"/>
<text text-anchor="middle" x="604" y="-165" font-family="Helvetica,sans-Serif" font-size="10.00"> activeDiagonalButton</text>
</g>
<!-- Node23&#45;&gt;Node3 -->
<g id="edge42" class="edge">
<title>Node23&#45;&gt;Node3</title>
<path fill="none" stroke="#9a32cd" stroke-dasharray="5,2" d="M65.52,-29.32C67.51,-39.97 69.5,-53.68 69.5,-66 69.5,-698.5 69.5,-698.5 69.5,-698.5 69.5,-738.92 116.12,-759.51 153.09,-769.48"/>
<polygon fill="#9a32cd" stroke="#9a32cd" points="68.94,-28.62 63.52,-19.52 62.09,-30.02 68.94,-28.62"/>
<text text-anchor="middle" x="105.5" y="-334" font-family="Helvetica,sans-Serif" font-size="10.00"> activeButton1</text>
<text text-anchor="middle" x="105.5" y="-323" font-family="Helvetica,sans-Serif" font-size="10.00">activeButton2</text>
<text text-anchor="middle" x="105.5" y="-312" font-family="Helvetica,sans-Serif" font-size="10.00">activeButton3</text>
</g>
</g>
</svg>
