<?xml version="1.0" encoding="UTF-8" standalone="no"?>
<!DOCTYPE svg PUBLIC "-//W3C//DTD SVG 1.1//EN"
 "http://www.w3.org/Graphics/SVG/1.1/DTD/svg11.dtd">
<!-- Generated by graphviz version 2.43.0 (0)
 -->
<!-- Title: SpringModeRegionPreview::adjustSpringSizeHeight Pages: 1 -->
<svg width="753pt" height="343pt"
 viewBox="0.00 0.00 753.00 342.54" xmlns="http://www.w3.org/2000/svg" xmlns:xlink="http://www.w3.org/1999/xlink">
<g id="graph0" class="graph" transform="scale(1 1) rotate(0) translate(4 338.54)">
<title>SpringModeRegionPreview::adjustSpringSizeHeight</title>
<polygon fill="white" stroke="transparent" points="-4,4 -4,-338.54 749,-338.54 749,4 -4,4"/>
<!-- Node1 -->
<g id="node1" class="node">
<title>Node1</title>
<g id="a_node1"><a xlink:title=" ">
<polygon fill="#bfbfbf" stroke="black" points="598,-101.04 598,-131.04 745,-131.04 745,-101.04 598,-101.04"/>
<text text-anchor="start" x="606" y="-119.04" font-family="Helvetica,sans-Serif" font-size="10.00">SpringModeRegionPreview</text>
<text text-anchor="middle" x="671.5" y="-108.04" font-family="Helvetica,sans-Serif" font-size="10.00">::adjustSpringSizeHeight</text>
</a>
</g>
</g>
<!-- Node2 -->
<g id="node2" class="node">
<title>Node2</title>
<g id="a_node2"><a xlink:href="classSpringModeRegionPreview.html#a8d2b08d077d77697a327e2d062130cbd" target="_top" xlink:title=" ">
<polygon fill="white" stroke="black" points="412,-150.04 412,-180.04 559,-180.04 559,-150.04 412,-150.04"/>
<text text-anchor="start" x="420" y="-168.04" font-family="Helvetica,sans-Serif" font-size="10.00">SpringModeRegionPreview</text>
<text text-anchor="middle" x="485.5" y="-157.04" font-family="Helvetica,sans-Serif" font-size="10.00">::setSpringHeight</text>
</a>
</g>
</g>
<!-- Node1&#45;&gt;Node2 -->
<g id="edge1" class="edge">
<title>Node1&#45;&gt;Node2</title>
<path fill="none" stroke="midnightblue" d="M604.32,-133.66C584.19,-139.02 562.27,-144.86 542.85,-150.03"/>
<polygon fill="midnightblue" stroke="midnightblue" points="605.28,-137.03 614.04,-131.07 603.48,-130.26 605.28,-137.03"/>
</g>
<!-- Node11 -->
<g id="node11" class="node">
<title>Node11</title>
<g id="a_node11"><a xlink:href="classSpringModeRegionPreview.html#a100a0ed08a8a8356c2a0036ef1db075f" target="_top" xlink:title=" ">
<polygon fill="white" stroke="black" points="412,-101.04 412,-131.04 559,-131.04 559,-101.04 412,-101.04"/>
<text text-anchor="start" x="420" y="-119.04" font-family="Helvetica,sans-Serif" font-size="10.00">SpringModeRegionPreview</text>
<text text-anchor="middle" x="485.5" y="-108.04" font-family="Helvetica,sans-Serif" font-size="10.00">::setSpringSize</text>
</a>
</g>
</g>
<!-- Node1&#45;&gt;Node11 -->
<g id="edge14" class="edge">
<title>Node1&#45;&gt;Node11</title>
<path fill="none" stroke="midnightblue" d="M587.6,-116.04C578.16,-116.04 568.59,-116.04 559.3,-116.04"/>
<polygon fill="midnightblue" stroke="midnightblue" points="587.78,-119.54 597.78,-116.04 587.78,-112.54 587.78,-119.54"/>
</g>
<!-- Node12 -->
<g id="node12" class="node">
<title>Node12</title>
<g id="a_node12"><a xlink:href="classSpringModeRegionPreview.html#a9ec1744902e4a704055d72216bf74bc6" target="_top" xlink:title=" ">
<polygon fill="white" stroke="black" points="409,-52.04 409,-82.04 562,-82.04 562,-52.04 409,-52.04"/>
<text text-anchor="start" x="417" y="-70.04" font-family="Helvetica,sans-Serif" font-size="10.00">SpringModeRegionPreview</text>
<text text-anchor="middle" x="485.5" y="-59.04" font-family="Helvetica,sans-Serif" font-size="10.00">::SpringModeRegionPreview</text>
</a>
</g>
</g>
<!-- Node1&#45;&gt;Node12 -->
<g id="edge15" class="edge">
<title>Node1&#45;&gt;Node12</title>
<path fill="none" stroke="midnightblue" d="M604.32,-98.41C584.19,-93.05 562.27,-87.21 542.85,-82.04"/>
<polygon fill="midnightblue" stroke="midnightblue" points="603.48,-101.81 614.04,-101 605.28,-95.05 603.48,-101.81"/>
</g>
<!-- Node3 -->
<g id="node3" class="node">
<title>Node3</title>
<g id="a_node3"><a xlink:href="classMouseButtonSettingsDialog.html#af2f3f8cacbf6c91f0dd935c4db231612" target="_top" xlink:title=" ">
<polygon fill="white" stroke="black" points="221,-304.04 221,-334.04 373,-334.04 373,-304.04 221,-304.04"/>
<text text-anchor="start" x="229" y="-322.04" font-family="Helvetica,sans-Serif" font-size="10.00">MouseButtonSettingsDialog</text>
<text text-anchor="middle" x="297" y="-311.04" font-family="Helvetica,sans-Serif" font-size="10.00">::changeMouseMode</text>
</a>
</g>
</g>
<!-- Node2&#45;&gt;Node3 -->
<g id="edge2" class="edge">
<title>Node2&#45;&gt;Node3</title>
<path fill="none" stroke="midnightblue" d="M468.74,-188.25C449.13,-215.62 413.27,-260.92 373,-289.04 364.61,-294.9 354.9,-299.85 345.31,-303.95"/>
<polygon fill="midnightblue" stroke="midnightblue" points="471.63,-190.23 474.52,-180.04 465.91,-186.2 471.63,-190.23"/>
</g>
<!-- Node4 -->
<g id="node4" class="node">
<title>Node4</title>
<g id="a_node4"><a xlink:href="classMouseButtonSettingsDialog.html#a181bfdf388907056ec492d58d85f5d34" target="_top" xlink:title=" ">
<polygon fill="white" stroke="black" points="13.5,-282.04 13.5,-312.04 171.5,-312.04 171.5,-282.04 13.5,-282.04"/>
<text text-anchor="start" x="21.5" y="-300.04" font-family="Helvetica,sans-Serif" font-size="10.00">MouseButtonSettingsDialog</text>
<text text-anchor="middle" x="92.5" y="-289.04" font-family="Helvetica,sans-Serif" font-size="10.00">::MouseButtonSettingsDialog</text>
</a>
</g>
</g>
<!-- Node2&#45;&gt;Node4 -->
<g id="edge11" class="edge">
<title>Node2&#45;&gt;Node4</title>
<path fill="none" stroke="midnightblue" d="M464.08,-187.62C443.36,-208.97 409.25,-240.06 373,-256.04 308.94,-284.27 229.41,-293.76 171.59,-296.64"/>
<polygon fill="midnightblue" stroke="midnightblue" points="466.74,-189.9 471.09,-180.24 461.67,-185.08 466.74,-189.9"/>
</g>
<!-- Node5 -->
<g id="node5" class="node">
<title>Node5</title>
<g id="a_node5"><a xlink:href="classMouseDPadSettingsDialog.html#a4667725b1ead2b872e17507f81b5760e" target="_top" xlink:title=" ">
<polygon fill="white" stroke="black" points="224.5,-216.04 224.5,-246.04 369.5,-246.04 369.5,-216.04 224.5,-216.04"/>
<text text-anchor="start" x="232.5" y="-234.04" font-family="Helvetica,sans-Serif" font-size="10.00">MouseDPadSettingsDialog</text>
<text text-anchor="middle" x="297" y="-223.04" font-family="Helvetica,sans-Serif" font-size="10.00">::changeMouseMode</text>
</a>
</g>
</g>
<!-- Node2&#45;&gt;Node5 -->
<g id="edge4" class="edge">
<title>Node2&#45;&gt;Node5</title>
<path fill="none" stroke="midnightblue" d="M432.18,-183.55C403.26,-193.78 367.79,-206.34 340.59,-215.96"/>
<polygon fill="midnightblue" stroke="midnightblue" points="433.45,-186.81 441.71,-180.18 431.12,-180.21 433.45,-186.81"/>
</g>
<!-- Node6 -->
<g id="node6" class="node">
<title>Node6</title>
<g id="a_node6"><a xlink:href="classMouseDPadSettingsDialog.html#a51ae7b4e5b371e35d4f470787f5fc846" target="_top" xlink:title=" ">
<polygon fill="white" stroke="black" points="17,-194.04 17,-224.04 168,-224.04 168,-194.04 17,-194.04"/>
<text text-anchor="start" x="25" y="-212.04" font-family="Helvetica,sans-Serif" font-size="10.00">MouseDPadSettingsDialog</text>
<text text-anchor="middle" x="92.5" y="-201.04" font-family="Helvetica,sans-Serif" font-size="10.00">::MouseDPadSettingsDialog</text>
</a>
</g>
</g>
<!-- Node2&#45;&gt;Node6 -->
<g id="edge13" class="edge">
<title>Node2&#45;&gt;Node6</title>
<path fill="none" stroke="midnightblue" d="M401.88,-174.33C332.72,-182.12 234.88,-193.13 168.07,-200.64"/>
<polygon fill="midnightblue" stroke="midnightblue" points="402.33,-177.8 411.87,-173.21 401.54,-170.85 402.33,-177.8"/>
</g>
<!-- Node7 -->
<g id="node7" class="node">
<title>Node7</title>
<g id="a_node7"><a xlink:href="classMouseAxisSettingsDialog.html#a71cbcc0f06e217b497f865fc520b3da7" target="_top" xlink:title=" ">
<polygon fill="white" stroke="black" points="226.5,-128.04 226.5,-158.04 367.5,-158.04 367.5,-128.04 226.5,-128.04"/>
<text text-anchor="start" x="234.5" y="-146.04" font-family="Helvetica,sans-Serif" font-size="10.00">MouseAxisSettingsDialog</text>
<text text-anchor="middle" x="297" y="-135.04" font-family="Helvetica,sans-Serif" font-size="10.00">::changeMouseMode</text>
</a>
</g>
</g>
<!-- Node2&#45;&gt;Node7 -->
<g id="edge6" class="edge">
<title>Node2&#45;&gt;Node7</title>
<path fill="none" stroke="midnightblue" d="M401.9,-155.29C390.48,-153.94 378.84,-152.57 367.69,-151.26"/>
<polygon fill="midnightblue" stroke="midnightblue" points="401.52,-158.77 411.86,-156.47 402.34,-151.82 401.52,-158.77"/>
</g>
<!-- Node8 -->
<g id="node8" class="node">
<title>Node8</title>
<g id="a_node8"><a xlink:href="classMouseAxisSettingsDialog.html#a33546e4b608264ce6d2758678eb6d2e7" target="_top" xlink:title=" ">
<polygon fill="white" stroke="black" points="19,-97.04 19,-127.04 166,-127.04 166,-97.04 19,-97.04"/>
<text text-anchor="start" x="27" y="-115.04" font-family="Helvetica,sans-Serif" font-size="10.00">MouseAxisSettingsDialog</text>
<text text-anchor="middle" x="92.5" y="-104.04" font-family="Helvetica,sans-Serif" font-size="10.00">::MouseAxisSettingsDialog</text>
</a>
</g>
</g>
<!-- Node2&#45;&gt;Node8 -->
<g id="edge10" class="edge">
<title>Node2&#45;&gt;Node8</title>
<path fill="none" stroke="midnightblue" d="M421.82,-146.41C417.44,-144.71 413.12,-142.92 409,-141.04 391.94,-133.25 390.99,-124.34 373,-119.04 304.91,-98.95 223.4,-99.53 166.02,-103.72"/>
<polygon fill="midnightblue" stroke="midnightblue" points="420.9,-149.8 431.49,-149.98 423.32,-143.23 420.9,-149.8"/>
</g>
<!-- Node9 -->
<g id="node9" class="node">
<title>Node9</title>
<g id="a_node9"><a xlink:href="classMouseControlStickSettingsDialog.html#a476f86c223a02146ad662276ed96a6aa" target="_top" xlink:title=" ">
<polygon fill="white" stroke="black" points="222.5,-40.04 222.5,-70.04 371.5,-70.04 371.5,-40.04 222.5,-40.04"/>
<text text-anchor="start" x="230.5" y="-58.04" font-family="Helvetica,sans-Serif" font-size="10.00">MouseControlStickSettings</text>
<text text-anchor="middle" x="297" y="-47.04" font-family="Helvetica,sans-Serif" font-size="10.00">Dialog::changeMouseMode</text>
</a>
</g>
</g>
<!-- Node2&#45;&gt;Node9 -->
<g id="edge8" class="edge">
<title>Node2&#45;&gt;Node9</title>
<path fill="none" stroke="midnightblue" d="M414.69,-144.98C412.72,-143.74 410.82,-142.43 409,-141.04 385.51,-123.04 395.82,-103.87 373,-85.04 365.75,-79.05 357.16,-74.15 348.43,-70.17"/>
<polygon fill="midnightblue" stroke="midnightblue" points="413.22,-148.17 423.66,-149.94 416.6,-142.04 413.22,-148.17"/>
</g>
<!-- Node10 -->
<g id="node10" class="node">
<title>Node10</title>
<g id="a_node10"><a xlink:href="classMouseControlStickSettingsDialog.html#aac9d5ef09dced4cee0df95d99ae13369" target="_top" xlink:title=" ">
<polygon fill="white" stroke="black" points="0,-20.54 0,-61.54 185,-61.54 185,-20.54 0,-20.54"/>
<text text-anchor="start" x="8" y="-49.54" font-family="Helvetica,sans-Serif" font-size="10.00">MouseControlStickSettings</text>
<text text-anchor="start" x="8" y="-38.54" font-family="Helvetica,sans-Serif" font-size="10.00">Dialog::MouseControlStickSettings</text>
<text text-anchor="middle" x="92.5" y="-27.54" font-family="Helvetica,sans-Serif" font-size="10.00">Dialog</text>
</a>
</g>
</g>
<!-- Node2&#45;&gt;Node10 -->
<g id="edge12" class="edge">
<title>Node2&#45;&gt;Node10</title>
<path fill="none" stroke="midnightblue" d="M411.99,-143.79C410.96,-142.91 409.96,-141.99 409,-141.04 372.22,-104.47 414.95,-60.53 373,-30.04 307.6,17.51 209.04,-1.45 148.12,-20.51"/>
<polygon fill="midnightblue" stroke="midnightblue" points="410.31,-146.89 420.48,-149.85 414.37,-141.19 410.31,-146.89"/>
</g>
<!-- Node3&#45;&gt;Node4 -->
<g id="edge3" class="edge">
<title>Node3&#45;&gt;Node4</title>
<path fill="none" stroke="midnightblue" d="M210.59,-309.76C197.64,-308.35 184.33,-306.9 171.54,-305.51"/>
<polygon fill="midnightblue" stroke="midnightblue" points="210.56,-313.27 220.88,-310.87 211.32,-306.32 210.56,-313.27"/>
</g>
<!-- Node5&#45;&gt;Node6 -->
<g id="edge5" class="edge">
<title>Node5&#45;&gt;Node6</title>
<path fill="none" stroke="midnightblue" d="M213.95,-222.12C198.81,-220.48 183.07,-218.77 168.17,-217.15"/>
<polygon fill="midnightblue" stroke="midnightblue" points="214,-225.65 224.32,-223.25 214.76,-218.69 214,-225.65"/>
</g>
<!-- Node7&#45;&gt;Node8 -->
<g id="edge7" class="edge">
<title>Node7&#45;&gt;Node8</title>
<path fill="none" stroke="midnightblue" d="M216.15,-130.81C199.63,-128.28 182.32,-125.63 166.08,-123.15"/>
<polygon fill="midnightblue" stroke="midnightblue" points="215.9,-134.31 226.31,-132.37 216.96,-127.39 215.9,-134.31"/>
</g>
<!-- Node9&#45;&gt;Node10 -->
<g id="edge9" class="edge">
<title>Node9&#45;&gt;Node10</title>
<path fill="none" stroke="midnightblue" d="M212.28,-49.25C203.31,-48.63 194.14,-47.99 185.08,-47.37"/>
<polygon fill="midnightblue" stroke="midnightblue" points="212.1,-52.74 222.32,-49.94 212.59,-45.76 212.1,-52.74"/>
</g>
</g>
</svg>
