<?xml version="1.0" encoding="UTF-8" standalone="no"?>
<!DOCTYPE svg PUBLIC "-//W3C//DTD SVG 1.1//EN"
 "http://www.w3.org/Graphics/SVG/1.1/DTD/svg11.dtd">
<!-- Generated by graphviz version 2.43.0 (0)
 -->
<!-- Title: JoyButton::isPartRealAxis Pages: 1 -->
<svg width="1560pt" height="561pt"
 viewBox="0.00 0.00 1560.00 561.21" xmlns="http://www.w3.org/2000/svg" xmlns:xlink="http://www.w3.org/1999/xlink">
<g id="graph0" class="graph" transform="scale(1 1) rotate(0) translate(4 557.21)">
<title>JoyButton::isPartRealAxis</title>
<polygon fill="white" stroke="transparent" points="-4,4 -4,-557.21 1556,-557.21 1556,4 -4,4"/>
<!-- Node1 -->
<g id="node1" class="node">
<title>Node1</title>
<g id="a_node1"><a xlink:title="Check if button should be considered a part of a real controller axis. Needed for some dialogs so the...">
<polygon fill="#bfbfbf" stroke="black" points="1412,-436.5 1412,-455.5 1552,-455.5 1552,-436.5 1412,-436.5"/>
<text text-anchor="middle" x="1482" y="-443.5" font-family="Helvetica,sans-Serif" font-size="10.00">JoyButton::isPartRealAxis</text>
</a>
</g>
</g>
<!-- Node2 -->
<g id="node2" class="node">
<title>Node2</title>
<g id="a_node2"><a xlink:href="classAdvanceButtonDialog.html#a4f9a1a007f50de1c3cca1403d08a0790" target="_top" xlink:title=" ">
<polygon fill="white" stroke="black" points="1017.5,-516 1017.5,-546 1145.5,-546 1145.5,-516 1017.5,-516"/>
<text text-anchor="start" x="1025.5" y="-534" font-family="Helvetica,sans-Serif" font-size="10.00">AdvanceButtonDialog</text>
<text text-anchor="middle" x="1081.5" y="-523" font-family="Helvetica,sans-Serif" font-size="10.00">::AdvanceButtonDialog</text>
</a>
</g>
</g>
<!-- Node1&#45;&gt;Node2 -->
<g id="edge1" class="edge">
<title>Node1&#45;&gt;Node2</title>
<path fill="none" stroke="midnightblue" d="M1467.01,-463.59C1448.73,-484.99 1414.51,-520 1376,-534 1300.45,-561.47 1206.57,-553.95 1145.63,-544.13"/>
<polygon fill="midnightblue" stroke="midnightblue" points="1469.93,-465.54 1473.62,-455.61 1464.54,-461.08 1469.93,-465.54"/>
</g>
<!-- Node3 -->
<g id="node3" class="node">
<title>Node3</title>
<g id="a_node3"><a xlink:href="classMouseButtonSettingsDialog.html#af2f3f8cacbf6c91f0dd935c4db231612" target="_top" xlink:title=" ">
<polygon fill="white" stroke="black" points="1005.5,-406 1005.5,-436 1157.5,-436 1157.5,-406 1005.5,-406"/>
<text text-anchor="start" x="1013.5" y="-424" font-family="Helvetica,sans-Serif" font-size="10.00">MouseButtonSettingsDialog</text>
<text text-anchor="middle" x="1081.5" y="-413" font-family="Helvetica,sans-Serif" font-size="10.00">::changeMouseMode</text>
</a>
</g>
</g>
<!-- Node1&#45;&gt;Node3 -->
<g id="edge2" class="edge">
<title>Node1&#45;&gt;Node3</title>
<path fill="none" stroke="midnightblue" d="M1401.35,-441C1330.33,-436.55 1227.13,-430.07 1157.55,-425.71"/>
<polygon fill="midnightblue" stroke="midnightblue" points="1401.39,-444.51 1411.59,-441.65 1401.83,-437.53 1401.39,-444.51"/>
</g>
<!-- Node4 -->
<g id="node4" class="node">
<title>Node4</title>
<g id="a_node4"><a xlink:href="classMouseButtonSettingsDialog.html#a181bfdf388907056ec492d58d85f5d34" target="_top" xlink:title=" ">
<polygon fill="white" stroke="black" points="776,-406 776,-436 934,-436 934,-406 776,-406"/>
<text text-anchor="start" x="784" y="-424" font-family="Helvetica,sans-Serif" font-size="10.00">MouseButtonSettingsDialog</text>
<text text-anchor="middle" x="855" y="-413" font-family="Helvetica,sans-Serif" font-size="10.00">::MouseButtonSettingsDialog</text>
</a>
</g>
</g>
<!-- Node1&#45;&gt;Node4 -->
<g id="edge6" class="edge">
<title>Node1&#45;&gt;Node4</title>
<path fill="none" stroke="midnightblue" d="M1401.58,-450.58C1305,-455.09 1137.14,-459.54 994,-446 971.7,-443.89 947.6,-440.07 925.89,-436.04"/>
<polygon fill="midnightblue" stroke="midnightblue" points="1402.03,-454.06 1411.85,-450.09 1401.7,-447.07 1402.03,-454.06"/>
</g>
<!-- Node5 -->
<g id="node5" class="node">
<title>Node5</title>
<g id="a_node5"><a xlink:href="classAdvanceButtonDialog.html#a64efeb2a6c8cf0ea259bb02c0f96080d" target="_top" xlink:title=" ">
<polygon fill="white" stroke="black" points="1229.5,-494 1229.5,-524 1351.5,-524 1351.5,-494 1229.5,-494"/>
<text text-anchor="start" x="1237.5" y="-512" font-family="Helvetica,sans-Serif" font-size="10.00">AdvanceButtonDialog</text>
<text text-anchor="middle" x="1290.5" y="-501" font-family="Helvetica,sans-Serif" font-size="10.00">::checkTurboSetting</text>
</a>
</g>
</g>
<!-- Node1&#45;&gt;Node5 -->
<g id="edge4" class="edge">
<title>Node1&#45;&gt;Node5</title>
<path fill="none" stroke="midnightblue" d="M1442.35,-458.85C1411.77,-469.02 1369,-483.23 1336.81,-493.93"/>
<polygon fill="midnightblue" stroke="midnightblue" points="1443.83,-462.04 1452.22,-455.57 1441.63,-455.4 1443.83,-462.04"/>
</g>
<!-- Node6 -->
<g id="node6" class="node">
<title>Node6</title>
<g id="a_node6"><a xlink:href="classJoyButton.html#ac51fbb4f1b1367d701500921378fddaa" target="_top" xlink:title="Calculate mouse movement coordinates for mouse movement slots currently active.">
<polygon fill="white" stroke="black" points="1225,-151.5 1225,-170.5 1356,-170.5 1356,-151.5 1225,-151.5"/>
<text text-anchor="middle" x="1290.5" y="-158.5" font-family="Helvetica,sans-Serif" font-size="10.00">JoyButton::mouseEvent</text>
</a>
</g>
</g>
<!-- Node1&#45;&gt;Node6 -->
<g id="edge7" class="edge">
<title>Node1&#45;&gt;Node6</title>
<path fill="none" stroke="midnightblue" d="M1469.07,-427.84C1449.63,-398.28 1409.9,-337.94 1376,-287 1347.11,-243.58 1312.36,-191.95 1298.1,-170.79"/>
<polygon fill="midnightblue" stroke="midnightblue" points="1466.21,-429.87 1474.63,-436.3 1472.06,-426.03 1466.21,-429.87"/>
</g>
<!-- Node17 -->
<g id="node17" class="node">
<title>Node17</title>
<g id="a_node17"><a xlink:href="classJoyButton.html#aca69f26410f28982be9a6e952ec3c494" target="_top" xlink:title=" ">
<polygon fill="white" stroke="black" points="1205,-296 1205,-326 1376,-326 1376,-296 1205,-296"/>
<text text-anchor="start" x="1213" y="-314" font-family="Helvetica,sans-Serif" font-size="10.00">JoyButton::setExtraAcceleration</text>
<text text-anchor="middle" x="1290.5" y="-303" font-family="Helvetica,sans-Serif" font-size="10.00">Status</text>
</a>
</g>
</g>
<!-- Node1&#45;&gt;Node17 -->
<g id="edge18" class="edge">
<title>Node1&#45;&gt;Node17</title>
<path fill="none" stroke="midnightblue" d="M1458.84,-430.21C1422,-403.97 1348.66,-351.72 1312.56,-326.01"/>
<polygon fill="midnightblue" stroke="midnightblue" points="1457.2,-433.34 1467.37,-436.29 1461.26,-427.64 1457.2,-433.34"/>
</g>
<!-- Node3&#45;&gt;Node4 -->
<g id="edge3" class="edge">
<title>Node3&#45;&gt;Node4</title>
<path fill="none" stroke="midnightblue" d="M995.35,-421C975.23,-421 953.86,-421 934.07,-421"/>
<polygon fill="midnightblue" stroke="midnightblue" points="995.43,-424.5 1005.43,-421 995.43,-417.5 995.43,-424.5"/>
</g>
<!-- Node5&#45;&gt;Node2 -->
<g id="edge5" class="edge">
<title>Node5&#45;&gt;Node2</title>
<path fill="none" stroke="midnightblue" d="M1219.31,-516.46C1195.45,-519 1168.96,-521.81 1145.69,-524.28"/>
<polygon fill="midnightblue" stroke="midnightblue" points="1219.77,-519.93 1229.35,-515.39 1219.04,-512.97 1219.77,-519.93"/>
</g>
<!-- Node7 -->
<g id="node7" class="node">
<title>Node7</title>
<g id="a_node7"><a xlink:href="classJoyButtonMouseHelper.html#a7bf98a02c2949419a441fa9213251ff5" target="_top" xlink:title="Perform mouse events for all buttons and slots.">
<polygon fill="white" stroke="black" points="1017.5,-39 1017.5,-69 1145.5,-69 1145.5,-39 1017.5,-39"/>
<text text-anchor="start" x="1025.5" y="-57" font-family="Helvetica,sans-Serif" font-size="10.00">JoyButtonMouseHelper</text>
<text text-anchor="middle" x="1081.5" y="-46" font-family="Helvetica,sans-Serif" font-size="10.00">::mouseEvent</text>
</a>
</g>
</g>
<!-- Node6&#45;&gt;Node7 -->
<g id="edge8" class="edge">
<title>Node6&#45;&gt;Node7</title>
<path fill="none" stroke="midnightblue" d="M1261.54,-146.55C1222.43,-126.33 1151.73,-89.78 1111.87,-69.18"/>
<polygon fill="midnightblue" stroke="midnightblue" points="1260.27,-149.83 1270.77,-151.32 1263.49,-143.61 1260.27,-149.83"/>
</g>
<!-- Node8 -->
<g id="node8" class="node">
<title>Node8</title>
<g id="a_node8"><a xlink:href="classJoyButton.html#a8328ffb189d41be9e27902729df71aeb" target="_top" xlink:title="Change initial settings used for mouse event timer being used by the application.">
<polygon fill="white" stroke="black" points="782,-39 782,-69 928,-69 928,-39 782,-39"/>
<text text-anchor="start" x="790" y="-57" font-family="Helvetica,sans-Serif" font-size="10.00">JoyButton::establishMouse</text>
<text text-anchor="middle" x="855" y="-46" font-family="Helvetica,sans-Serif" font-size="10.00">TimerConnections</text>
</a>
</g>
</g>
<!-- Node7&#45;&gt;Node8 -->
<g id="edge9" class="edge">
<title>Node7&#45;&gt;Node8</title>
<path fill="none" stroke="midnightblue" d="M1007.08,-54C981.74,-54 953.39,-54 928.16,-54"/>
<polygon fill="midnightblue" stroke="midnightblue" points="1007.37,-57.5 1017.37,-54 1007.37,-50.5 1007.37,-57.5"/>
</g>
<!-- Node13 -->
<g id="node13" class="node">
<title>Node13</title>
<g id="a_node13"><a xlink:href="classJoyButton.html#a796b6cd5a6b46036949bcecde9ed520c" target="_top" xlink:title=" ">
<polygon fill="white" stroke="black" points="771.5,-0.5 771.5,-19.5 938.5,-19.5 938.5,-0.5 771.5,-0.5"/>
<text text-anchor="middle" x="855" y="-7.5" font-family="Helvetica,sans-Serif" font-size="10.00">JoyButton::invokeMouseEvents</text>
</a>
</g>
</g>
<!-- Node7&#45;&gt;Node13 -->
<g id="edge14" class="edge">
<title>Node7&#45;&gt;Node13</title>
<path fill="none" stroke="midnightblue" d="M1007.31,-38.85C991.08,-35.55 973.97,-32.12 958,-29 941.82,-25.84 924.18,-22.52 908.18,-19.54"/>
<polygon fill="midnightblue" stroke="midnightblue" points="1006.78,-42.31 1017.28,-40.88 1008.18,-35.45 1006.78,-42.31"/>
</g>
<!-- Node9 -->
<g id="node9" class="node">
<title>Node9</title>
<g id="a_node9"><a xlink:href="classAppLaunchHelper.html#ae934f543f3740dd9355e4142b490b5e9" target="_top" xlink:title=" ">
<polygon fill="white" stroke="black" points="547.5,-80 547.5,-110 699.5,-110 699.5,-80 547.5,-80"/>
<text text-anchor="start" x="555.5" y="-98" font-family="Helvetica,sans-Serif" font-size="10.00">AppLaunchHelper::establish</text>
<text text-anchor="middle" x="623.5" y="-87" font-family="Helvetica,sans-Serif" font-size="10.00">MouseTimerConnections</text>
</a>
</g>
</g>
<!-- Node8&#45;&gt;Node9 -->
<g id="edge10" class="edge">
<title>Node8&#45;&gt;Node9</title>
<path fill="none" stroke="midnightblue" d="M771.75,-68.69C748.21,-72.9 722.69,-77.46 699.6,-81.58"/>
<polygon fill="midnightblue" stroke="midnightblue" points="772.47,-72.12 781.7,-66.92 771.24,-65.23 772.47,-72.12"/>
</g>
<!-- Node12 -->
<g id="node12" class="node">
<title>Node12</title>
<g id="a_node12"><a xlink:href="classJoyButton.html#aca54bc4605f7db801e8fc41a90d7f223" target="_top" xlink:title=" ">
<polygon fill="white" stroke="black" points="565,-41.5 565,-60.5 682,-60.5 682,-41.5 565,-41.5"/>
<text text-anchor="middle" x="623.5" y="-48.5" font-family="Helvetica,sans-Serif" font-size="10.00">JoyButton::JoyButton</text>
</a>
</g>
</g>
<!-- Node8&#45;&gt;Node12 -->
<g id="edge13" class="edge">
<title>Node8&#45;&gt;Node12</title>
<path fill="none" stroke="midnightblue" d="M771.4,-52.92C741.87,-52.53 709.25,-52.11 682.27,-51.76"/>
<polygon fill="midnightblue" stroke="midnightblue" points="771.65,-56.42 781.7,-53.05 771.75,-49.42 771.65,-56.42"/>
</g>
<!-- Node10 -->
<g id="node10" class="node">
<title>Node10</title>
<g id="a_node10"><a xlink:href="classAppLaunchHelper.html#ab38c79745e55b3c4665c5b29a5d57a0f" target="_top" xlink:title=" ">
<polygon fill="white" stroke="black" points="349,-80 349,-110 492,-110 492,-80 349,-80"/>
<text text-anchor="start" x="357" y="-98" font-family="Helvetica,sans-Serif" font-size="10.00">AppLaunchHelper::initRun</text>
<text text-anchor="middle" x="420.5" y="-87" font-family="Helvetica,sans-Serif" font-size="10.00">Methods</text>
</a>
</g>
</g>
<!-- Node9&#45;&gt;Node10 -->
<g id="edge11" class="edge">
<title>Node9&#45;&gt;Node10</title>
<path fill="none" stroke="midnightblue" d="M537.1,-95C522.14,-95 506.72,-95 492.22,-95"/>
<polygon fill="midnightblue" stroke="midnightblue" points="537.37,-98.5 547.37,-95 537.37,-91.5 537.37,-98.5"/>
</g>
<!-- Node11 -->
<g id="node11" class="node">
<title>Node11</title>
<g id="a_node11"><a xlink:href="main_8cpp.html#a0ddf1224851353fc92bfbff6f499fa97" target="_top" xlink:title=" ">
<polygon fill="white" stroke="black" points="212,-85.5 212,-104.5 253,-104.5 253,-85.5 212,-85.5"/>
<text text-anchor="middle" x="232.5" y="-92.5" font-family="Helvetica,sans-Serif" font-size="10.00">main</text>
</a>
</g>
</g>
<!-- Node10&#45;&gt;Node11 -->
<g id="edge12" class="edge">
<title>Node10&#45;&gt;Node11</title>
<path fill="none" stroke="midnightblue" d="M338.75,-95C307.19,-95 273.71,-95 253.2,-95"/>
<polygon fill="midnightblue" stroke="midnightblue" points="338.92,-98.5 348.92,-95 338.92,-91.5 338.92,-98.5"/>
</g>
<!-- Node14 -->
<g id="node14" class="node">
<title>Node14</title>
<g id="a_node14"><a xlink:href="classInputDaemon.html#a0cf6bcd3287d97d75c32a3921c633a7a" target="_top" xlink:title="Dispatches postprocessed SDL events to the input objects like JoyAxis or JoyButton and activates them...">
<polygon fill="white" stroke="black" points="538.5,-0.5 538.5,-19.5 708.5,-19.5 708.5,-0.5 538.5,-0.5"/>
<text text-anchor="middle" x="623.5" y="-7.5" font-family="Helvetica,sans-Serif" font-size="10.00">InputDaemon::secondInputPass</text>
</a>
</g>
</g>
<!-- Node13&#45;&gt;Node14 -->
<g id="edge15" class="edge">
<title>Node13&#45;&gt;Node14</title>
<path fill="none" stroke="midnightblue" d="M761.31,-10C743.88,-10 725.76,-10 708.61,-10"/>
<polygon fill="midnightblue" stroke="midnightblue" points="761.47,-13.5 771.47,-10 761.47,-6.5 761.47,-13.5"/>
</g>
<!-- Node15 -->
<g id="node15" class="node">
<title>Node15</title>
<g id="a_node15"><a xlink:href="classInputDaemon.html#ad7f954b25b67cb5a84fdb1a154282bfd" target="_top" xlink:title=" ">
<polygon fill="white" stroke="black" points="368.5,-0.5 368.5,-19.5 472.5,-19.5 472.5,-0.5 368.5,-0.5"/>
<text text-anchor="middle" x="420.5" y="-7.5" font-family="Helvetica,sans-Serif" font-size="10.00">InputDaemon::run</text>
</a>
</g>
</g>
<!-- Node14&#45;&gt;Node15 -->
<g id="edge16" class="edge">
<title>Node14&#45;&gt;Node15</title>
<path fill="none" stroke="midnightblue" d="M528.4,-10C509.15,-10 489.58,-10 472.55,-10"/>
<polygon fill="midnightblue" stroke="midnightblue" points="528.42,-13.5 538.42,-10 528.42,-6.5 528.42,-13.5"/>
</g>
<!-- Node16 -->
<g id="node16" class="node">
<title>Node16</title>
<g id="a_node16"><a xlink:href="classInputDaemon.html#ab7c3d331123e946ed8da490dfee5c265" target="_top" xlink:title=" ">
<polygon fill="white" stroke="black" points="155,-0.5 155,-19.5 310,-19.5 310,-0.5 155,-0.5"/>
<text text-anchor="middle" x="232.5" y="-7.5" font-family="Helvetica,sans-Serif" font-size="10.00">InputDaemon::InputDaemon</text>
</a>
</g>
</g>
<!-- Node15&#45;&gt;Node16 -->
<g id="edge17" class="edge">
<title>Node15&#45;&gt;Node16</title>
<path fill="none" stroke="midnightblue" d="M357.83,-10C342.55,-10 325.98,-10 310.08,-10"/>
<polygon fill="midnightblue" stroke="midnightblue" points="358.18,-13.5 368.18,-10 358.18,-6.5 358.18,-13.5"/>
</g>
<!-- Node17&#45;&gt;Node3 -->
<g id="edge19" class="edge">
<title>Node17&#45;&gt;Node3</title>
<path fill="none" stroke="midnightblue" d="M1263.91,-332.9C1240.54,-351.92 1204.35,-379.02 1169,-396 1161.25,-399.72 1152.84,-403 1144.41,-405.85"/>
<polygon fill="midnightblue" stroke="midnightblue" points="1266.43,-335.36 1271.91,-326.29 1261.97,-329.96 1266.43,-335.36"/>
</g>
<!-- Node18 -->
<g id="node18" class="node">
<title>Node18</title>
<g id="a_node18"><a xlink:href="classMouseAxisSettingsDialog.html#a71cbcc0f06e217b497f865fc520b3da7" target="_top" xlink:title=" ">
<polygon fill="white" stroke="black" points="1011,-296 1011,-326 1152,-326 1152,-296 1011,-296"/>
<text text-anchor="start" x="1019" y="-314" font-family="Helvetica,sans-Serif" font-size="10.00">MouseAxisSettingsDialog</text>
<text text-anchor="middle" x="1081.5" y="-303" font-family="Helvetica,sans-Serif" font-size="10.00">::changeMouseMode</text>
</a>
</g>
</g>
<!-- Node17&#45;&gt;Node18 -->
<g id="edge20" class="edge">
<title>Node17&#45;&gt;Node18</title>
<path fill="none" stroke="midnightblue" d="M1194.37,-311C1180.09,-311 1165.61,-311 1152,-311"/>
<polygon fill="midnightblue" stroke="midnightblue" points="1194.71,-314.5 1204.71,-311 1194.71,-307.5 1194.71,-314.5"/>
</g>
<!-- Node20 -->
<g id="node20" class="node">
<title>Node20</title>
<g id="a_node20"><a xlink:href="classJoyButtonXml.html#a9d7b2a6324a2f8fe4f424f78aa43d261" target="_top" xlink:title=" ">
<polygon fill="white" stroke="black" points="1010,-198 1010,-228 1153,-228 1153,-198 1010,-198"/>
<text text-anchor="start" x="1018" y="-216" font-family="Helvetica,sans-Serif" font-size="10.00">JoyButtonXml::readButton</text>
<text text-anchor="middle" x="1081.5" y="-205" font-family="Helvetica,sans-Serif" font-size="10.00">Config</text>
</a>
</g>
</g>
<!-- Node17&#45;&gt;Node20 -->
<g id="edge22" class="edge">
<title>Node17&#45;&gt;Node20</title>
<path fill="none" stroke="midnightblue" d="M1259.71,-289.9C1236.03,-273.89 1201.58,-252.28 1169,-238 1160.55,-234.3 1151.4,-230.97 1142.33,-228.05"/>
<polygon fill="midnightblue" stroke="midnightblue" points="1258,-292.97 1268.23,-295.73 1261.96,-287.19 1258,-292.97"/>
</g>
<!-- Node30 -->
<g id="node30" class="node">
<title>Node30</title>
<g id="a_node30"><a xlink:href="classJoyControlStick.html#a332a38a549ccfe4d68faac2b91d17e1d" target="_top" xlink:title=" ">
<polygon fill="white" stroke="black" points="1007,-149 1007,-179 1156,-179 1156,-149 1007,-149"/>
<text text-anchor="start" x="1015" y="-167" font-family="Helvetica,sans-Serif" font-size="10.00">JoyControlStick::setButtons</text>
<text text-anchor="middle" x="1081.5" y="-156" font-family="Helvetica,sans-Serif" font-size="10.00">ExtraAccelerationStatus</text>
</a>
</g>
</g>
<!-- Node17&#45;&gt;Node30 -->
<g id="edge33" class="edge">
<title>Node17&#45;&gt;Node30</title>
<path fill="none" stroke="midnightblue" d="M1272.43,-287.53C1251.2,-259.99 1212.41,-214.81 1169,-189 1162.55,-185.17 1155.48,-181.89 1148.24,-179.1"/>
<polygon fill="midnightblue" stroke="midnightblue" points="1269.87,-289.94 1278.69,-295.8 1275.45,-285.72 1269.87,-289.94"/>
</g>
<!-- Node34 -->
<g id="node34" class="node">
<title>Node34</title>
<g id="a_node34"><a xlink:href="classMouseButtonSettingsDialogHelper.html#afd32ffec3172be5b6edd58e548a497a7" target="_top" xlink:title=" ">
<polygon fill="white" stroke="black" points="994,-345.5 994,-386.5 1169,-386.5 1169,-345.5 994,-345.5"/>
<text text-anchor="start" x="1002" y="-374.5" font-family="Helvetica,sans-Serif" font-size="10.00">MouseButtonSettingsDialog</text>
<text text-anchor="start" x="1002" y="-363.5" font-family="Helvetica,sans-Serif" font-size="10.00">Helper::updateExtraAcceleration</text>
<text text-anchor="middle" x="1081.5" y="-352.5" font-family="Helvetica,sans-Serif" font-size="10.00">Status</text>
</a>
</g>
</g>
<!-- Node17&#45;&gt;Node34 -->
<g id="edge38" class="edge">
<title>Node17&#45;&gt;Node34</title>
<path fill="none" stroke="midnightblue" d="M1223.24,-328.61C1203.09,-333.96 1180.76,-339.89 1159.95,-345.42"/>
<polygon fill="midnightblue" stroke="midnightblue" points="1224.17,-331.98 1232.94,-326.03 1222.37,-325.21 1224.17,-331.98"/>
</g>
<!-- Node35 -->
<g id="node35" class="node">
<title>Node35</title>
<g id="a_node35"><a xlink:href="classMouseAxisSettingsDialogHelper.html#a50a6f8b1fd3326933a9432ab62c2bf2c" target="_top" xlink:title=" ">
<polygon fill="white" stroke="black" points="995,-247 995,-277 1168,-277 1168,-247 995,-247"/>
<text text-anchor="start" x="1003" y="-265" font-family="Helvetica,sans-Serif" font-size="10.00">MouseAxisSettingsDialogHelper</text>
<text text-anchor="middle" x="1081.5" y="-254" font-family="Helvetica,sans-Serif" font-size="10.00">::updateExtraAccelerationStatus</text>
</a>
</g>
</g>
<!-- Node17&#45;&gt;Node35 -->
<g id="edge40" class="edge">
<title>Node17&#45;&gt;Node35</title>
<path fill="none" stroke="midnightblue" d="M1215.98,-293.6C1193.08,-288.18 1168.04,-282.25 1145.89,-277.01"/>
<polygon fill="midnightblue" stroke="midnightblue" points="1215.45,-297.07 1225.99,-295.97 1217.06,-290.26 1215.45,-297.07"/>
</g>
<!-- Node19 -->
<g id="node19" class="node">
<title>Node19</title>
<g id="a_node19"><a xlink:href="classMouseAxisSettingsDialog.html#a33546e4b608264ce6d2758678eb6d2e7" target="_top" xlink:title=" ">
<polygon fill="white" stroke="black" points="781.5,-295 781.5,-325 928.5,-325 928.5,-295 781.5,-295"/>
<text text-anchor="start" x="789.5" y="-313" font-family="Helvetica,sans-Serif" font-size="10.00">MouseAxisSettingsDialog</text>
<text text-anchor="middle" x="855" y="-302" font-family="Helvetica,sans-Serif" font-size="10.00">::MouseAxisSettingsDialog</text>
</a>
</g>
</g>
<!-- Node18&#45;&gt;Node19 -->
<g id="edge21" class="edge">
<title>Node18&#45;&gt;Node19</title>
<path fill="none" stroke="midnightblue" d="M1000.48,-310.64C977.13,-310.54 951.75,-310.43 928.86,-310.32"/>
<polygon fill="midnightblue" stroke="midnightblue" points="1000.68,-314.14 1010.7,-310.69 1000.71,-307.14 1000.68,-314.14"/>
</g>
<!-- Node21 -->
<g id="node21" class="node">
<title>Node21</title>
<g id="a_node21"><a xlink:href="classJoyButtonXml.html#a9d79d75b14b57419ed1fc5639dde8515" target="_top" xlink:title=" ">
<polygon fill="white" stroke="black" points="784,-251.5 784,-270.5 926,-270.5 926,-251.5 784,-251.5"/>
<text text-anchor="middle" x="855" y="-258.5" font-family="Helvetica,sans-Serif" font-size="10.00">JoyButtonXml::readConfig</text>
</a>
</g>
</g>
<!-- Node20&#45;&gt;Node21 -->
<g id="edge23" class="edge">
<title>Node20&#45;&gt;Node21</title>
<path fill="none" stroke="midnightblue" d="M1000.3,-230.15C966.81,-237.31 929.17,-245.35 900.73,-251.44"/>
<polygon fill="midnightblue" stroke="midnightblue" points="1001.04,-233.57 1010.08,-228.06 999.57,-226.72 1001.04,-233.57"/>
</g>
<!-- Node25 -->
<g id="node25" class="node">
<title>Node25</title>
<g id="a_node25"><a xlink:href="classGameControllerTriggerButton.html#a1c89ef4d420dfe360817c28bc1680c93" target="_top" xlink:title=" ">
<polygon fill="white" stroke="black" points="775.5,-198 775.5,-228 934.5,-228 934.5,-198 775.5,-198"/>
<text text-anchor="start" x="783.5" y="-216" font-family="Helvetica,sans-Serif" font-size="10.00">GameControllerTriggerButton</text>
<text text-anchor="middle" x="855" y="-205" font-family="Helvetica,sans-Serif" font-size="10.00">::readJoystickConfig</text>
</a>
</g>
</g>
<!-- Node20&#45;&gt;Node25 -->
<g id="edge28" class="edge">
<title>Node20&#45;&gt;Node25</title>
<path fill="none" stroke="midnightblue" d="M999.53,-213C978.37,-213 955.6,-213 934.56,-213"/>
<polygon fill="midnightblue" stroke="midnightblue" points="999.77,-216.5 1009.77,-213 999.77,-209.5 999.77,-216.5"/>
</g>
<!-- Node22 -->
<g id="node22" class="node">
<title>Node22</title>
<g id="a_node22"><a xlink:href="classSetJoystickXml.html#aa95423a01fab878cbc69bffb7f6121f3" target="_top" xlink:title="Deserializes the given XML stream into a SetJoystick object.">
<polygon fill="white" stroke="black" points="346,-313.5 346,-332.5 495,-332.5 495,-313.5 346,-313.5"/>
<text text-anchor="middle" x="420.5" y="-320.5" font-family="Helvetica,sans-Serif" font-size="10.00">SetJoystickXml::readConfig</text>
</a>
</g>
</g>
<!-- Node21&#45;&gt;Node22 -->
<g id="edge24" class="edge">
<title>Node21&#45;&gt;Node22</title>
<path fill="none" stroke="midnightblue" d="M781.39,-273.44C771.16,-276.71 761.05,-280.82 752,-286 732.09,-297.39 737.14,-314.07 716,-323 631.45,-358.7 520.68,-344.34 462.03,-332.56"/>
<polygon fill="midnightblue" stroke="midnightblue" points="782.59,-276.73 791.2,-270.56 780.62,-270.02 782.59,-276.73"/>
</g>
<!-- Node23 -->
<g id="node23" class="node">
<title>Node23</title>
<g id="a_node23"><a xlink:href="classJoyControlStick.html#ab6ce741115ee3d436c1a7e866abd21e6" target="_top" xlink:title="Take a XML stream and set the stick and direction button properties according to the values contained...">
<polygon fill="white" stroke="black" points="549,-294.5 549,-313.5 698,-313.5 698,-294.5 549,-294.5"/>
<text text-anchor="middle" x="623.5" y="-301.5" font-family="Helvetica,sans-Serif" font-size="10.00">JoyControlStick::readConfig</text>
</a>
</g>
</g>
<!-- Node21&#45;&gt;Node23 -->
<g id="edge25" class="edge">
<title>Node21&#45;&gt;Node23</title>
<path fill="none" stroke="midnightblue" d="M792.97,-272.43C756.24,-279.32 710.02,-287.98 675.29,-294.48"/>
<polygon fill="midnightblue" stroke="midnightblue" points="793.88,-275.82 803.07,-270.54 792.59,-268.94 793.88,-275.82"/>
</g>
<!-- Node24 -->
<g id="node24" class="node">
<title>Node24</title>
<g id="a_node24"><a xlink:href="classJoyDPadXml.html#ae9a3556242b984c81fc6945acafc5586" target="_top" xlink:title=" ">
<polygon fill="white" stroke="black" points="541.5,-245 541.5,-275 705.5,-275 705.5,-245 541.5,-245"/>
<text text-anchor="start" x="549.5" y="-263" font-family="Helvetica,sans-Serif" font-size="10.00">JoyDPadXml&lt; GameController</text>
<text text-anchor="middle" x="623.5" y="-252" font-family="Helvetica,sans-Serif" font-size="10.00">DPad &gt;::readMainConfig</text>
</a>
</g>
</g>
<!-- Node21&#45;&gt;Node24 -->
<g id="edge27" class="edge">
<title>Node21&#45;&gt;Node24</title>
<path fill="none" stroke="midnightblue" d="M773.62,-260.65C751.66,-260.55 727.85,-260.45 705.84,-260.35"/>
<polygon fill="midnightblue" stroke="midnightblue" points="773.88,-264.15 783.9,-260.69 773.91,-257.15 773.88,-264.15"/>
</g>
<!-- Node23&#45;&gt;Node22 -->
<g id="edge26" class="edge">
<title>Node23&#45;&gt;Node22</title>
<path fill="none" stroke="midnightblue" d="M538.44,-311.95C524.08,-313.3 509.26,-314.7 495.19,-316.03"/>
<polygon fill="midnightblue" stroke="midnightblue" points="539.17,-315.39 548.8,-310.97 538.51,-308.42 539.17,-315.39"/>
</g>
<!-- Node26 -->
<g id="node26" class="node">
<title>Node26</title>
<g id="a_node26"><a xlink:href="classGameControllerTriggerXml.html#a4578ad54daf8a24231e8b0e4e09f1587" target="_top" xlink:title=" ">
<polygon fill="white" stroke="black" points="550.5,-196 550.5,-226 696.5,-226 696.5,-196 550.5,-196"/>
<text text-anchor="start" x="558.5" y="-214" font-family="Helvetica,sans-Serif" font-size="10.00">GameControllerTriggerXml</text>
<text text-anchor="middle" x="623.5" y="-203" font-family="Helvetica,sans-Serif" font-size="10.00">::readJoystickConfig</text>
</a>
</g>
</g>
<!-- Node25&#45;&gt;Node26 -->
<g id="edge29" class="edge">
<title>Node25&#45;&gt;Node26</title>
<path fill="none" stroke="midnightblue" d="M765.33,-212.23C742.55,-212.03 718.33,-211.82 696.5,-211.63"/>
<polygon fill="midnightblue" stroke="midnightblue" points="765.31,-215.73 775.34,-212.31 765.37,-208.73 765.31,-215.73"/>
</g>
<!-- Node27 -->
<g id="node27" class="node">
<title>Node27</title>
<g id="a_node27"><a xlink:href="classGameControllerSet.html#a6b551139e353a654212d498309744025" target="_top" xlink:title=" ">
<polygon fill="white" stroke="black" points="362.5,-196 362.5,-226 478.5,-226 478.5,-196 362.5,-196"/>
<text text-anchor="start" x="370.5" y="-214" font-family="Helvetica,sans-Serif" font-size="10.00">GameControllerSet::</text>
<text text-anchor="middle" x="420.5" y="-203" font-family="Helvetica,sans-Serif" font-size="10.00">readJoystickConfig</text>
</a>
</g>
</g>
<!-- Node26&#45;&gt;Node27 -->
<g id="edge30" class="edge">
<title>Node26&#45;&gt;Node27</title>
<path fill="none" stroke="midnightblue" d="M540.18,-211C519.52,-211 497.8,-211 478.67,-211"/>
<polygon fill="midnightblue" stroke="midnightblue" points="540.22,-214.5 550.22,-211 540.22,-207.5 540.22,-214.5"/>
</g>
<!-- Node28 -->
<g id="node28" class="node">
<title>Node28</title>
<g id="a_node28"><a xlink:href="classGameControllerXml.html#aaa5257d4c6fe13f1d5fc51981e247c25" target="_top" xlink:title="Reads the XML tree from a &quot;joystick&quot; tag.">
<polygon fill="white" stroke="black" points="173,-196 173,-226 292,-226 292,-196 173,-196"/>
<text text-anchor="start" x="181" y="-214" font-family="Helvetica,sans-Serif" font-size="10.00">GameControllerXml::</text>
<text text-anchor="middle" x="232.5" y="-203" font-family="Helvetica,sans-Serif" font-size="10.00">readJoystickConfig</text>
</a>
</g>
</g>
<!-- Node27&#45;&gt;Node28 -->
<g id="edge31" class="edge">
<title>Node27&#45;&gt;Node28</title>
<path fill="none" stroke="midnightblue" d="M352.3,-211C332.59,-211 311.2,-211 292.07,-211"/>
<polygon fill="midnightblue" stroke="midnightblue" points="352.43,-214.5 362.43,-211 352.43,-207.5 352.43,-214.5"/>
</g>
<!-- Node29 -->
<g id="node29" class="node">
<title>Node29</title>
<g id="a_node29"><a xlink:href="classGameControllerXml.html#a7e47256cae0d3815419bc254413777d1" target="_top" xlink:title="Deserializes the given XML stream into a GameController object.">
<polygon fill="white" stroke="black" points="0,-196 0,-226 119,-226 119,-196 0,-196"/>
<text text-anchor="start" x="8" y="-214" font-family="Helvetica,sans-Serif" font-size="10.00">GameControllerXml::</text>
<text text-anchor="middle" x="59.5" y="-203" font-family="Helvetica,sans-Serif" font-size="10.00">readConfig</text>
</a>
</g>
</g>
<!-- Node28&#45;&gt;Node29 -->
<g id="edge32" class="edge">
<title>Node28&#45;&gt;Node29</title>
<path fill="none" stroke="midnightblue" d="M162.36,-211C148.03,-211 133.07,-211 119.17,-211"/>
<polygon fill="midnightblue" stroke="midnightblue" points="162.65,-214.5 172.65,-211 162.65,-207.5 162.65,-214.5"/>
</g>
<!-- Node31 -->
<g id="node31" class="node">
<title>Node31</title>
<g id="a_node31"><a xlink:href="classMouseControlStickSettingsDialog.html#a476f86c223a02146ad662276ed96a6aa" target="_top" xlink:title=" ">
<polygon fill="white" stroke="black" points="780.5,-149 780.5,-179 929.5,-179 929.5,-149 780.5,-149"/>
<text text-anchor="start" x="788.5" y="-167" font-family="Helvetica,sans-Serif" font-size="10.00">MouseControlStickSettings</text>
<text text-anchor="middle" x="855" y="-156" font-family="Helvetica,sans-Serif" font-size="10.00">Dialog::changeMouseMode</text>
</a>
</g>
</g>
<!-- Node30&#45;&gt;Node31 -->
<g id="edge34" class="edge">
<title>Node30&#45;&gt;Node31</title>
<path fill="none" stroke="midnightblue" d="M996.97,-164C974.88,-164 951.2,-164 929.67,-164"/>
<polygon fill="midnightblue" stroke="midnightblue" points="996.99,-167.5 1006.99,-164 996.99,-160.5 996.99,-167.5"/>
</g>
<!-- Node33 -->
<g id="node33" class="node">
<title>Node33</title>
<g id="a_node33"><a xlink:href="classMouseControlStickSettingsDialogHelper.html#aaffa5888388face9ed9fb4acbf4601b6" target="_top" xlink:title=" ">
<polygon fill="white" stroke="black" points="752,-88.5 752,-129.5 958,-129.5 958,-88.5 752,-88.5"/>
<text text-anchor="start" x="760" y="-117.5" font-family="Helvetica,sans-Serif" font-size="10.00">MouseControlStickSettings</text>
<text text-anchor="start" x="760" y="-106.5" font-family="Helvetica,sans-Serif" font-size="10.00">DialogHelper::updateExtraAcceleration</text>
<text text-anchor="middle" x="855" y="-95.5" font-family="Helvetica,sans-Serif" font-size="10.00">Status</text>
</a>
</g>
</g>
<!-- Node30&#45;&gt;Node33 -->
<g id="edge36" class="edge">
<title>Node30&#45;&gt;Node33</title>
<path fill="none" stroke="midnightblue" d="M1009.23,-146.54C987.22,-141.15 962.78,-135.16 939.99,-129.58"/>
<polygon fill="midnightblue" stroke="midnightblue" points="1008.61,-149.99 1019.15,-148.97 1010.27,-143.19 1008.61,-149.99"/>
</g>
<!-- Node32 -->
<g id="node32" class="node">
<title>Node32</title>
<g id="a_node32"><a xlink:href="classMouseControlStickSettingsDialog.html#aac9d5ef09dced4cee0df95d99ae13369" target="_top" xlink:title=" ">
<polygon fill="white" stroke="black" points="531,-133.5 531,-174.5 716,-174.5 716,-133.5 531,-133.5"/>
<text text-anchor="start" x="539" y="-162.5" font-family="Helvetica,sans-Serif" font-size="10.00">MouseControlStickSettings</text>
<text text-anchor="start" x="539" y="-151.5" font-family="Helvetica,sans-Serif" font-size="10.00">Dialog::MouseControlStickSettings</text>
<text text-anchor="middle" x="623.5" y="-140.5" font-family="Helvetica,sans-Serif" font-size="10.00">Dialog</text>
</a>
</g>
</g>
<!-- Node31&#45;&gt;Node32 -->
<g id="edge35" class="edge">
<title>Node31&#45;&gt;Node32</title>
<path fill="none" stroke="midnightblue" d="M770.22,-160.35C752.64,-159.58 734.02,-158.77 716.17,-157.99"/>
<polygon fill="midnightblue" stroke="midnightblue" points="770.29,-163.86 780.44,-160.79 770.6,-156.86 770.29,-163.86"/>
</g>
<!-- Node33&#45;&gt;Node32 -->
<g id="edge37" class="edge">
<title>Node33&#45;&gt;Node32</title>
<path fill="none" stroke="midnightblue" d="M741.65,-131.03C733.1,-132.71 724.54,-134.38 716.14,-136.03"/>
<polygon fill="midnightblue" stroke="midnightblue" points="742.53,-134.42 751.67,-129.07 741.18,-127.55 742.53,-134.42"/>
</g>
<!-- Node34&#45;&gt;Node4 -->
<g id="edge39" class="edge">
<title>Node34&#45;&gt;Node4</title>
<path fill="none" stroke="midnightblue" d="M986.64,-388.99C963.25,-394.73 938.76,-400.73 917.39,-405.96"/>
<polygon fill="midnightblue" stroke="midnightblue" points="987.71,-392.34 996.59,-386.56 986.04,-385.54 987.71,-392.34"/>
</g>
<!-- Node35&#45;&gt;Node19 -->
<g id="edge41" class="edge">
<title>Node35&#45;&gt;Node19</title>
<path fill="none" stroke="midnightblue" d="M1000.22,-279.17C976.02,-284.34 949.66,-289.98 926.17,-295"/>
<polygon fill="midnightblue" stroke="midnightblue" points="1001.04,-282.57 1010.08,-277.06 999.57,-275.72 1001.04,-282.57"/>
</g>
</g>
</svg>
