<?xml version="1.0" encoding="UTF-8" standalone="no"?>
<!DOCTYPE svg PUBLIC "-//W3C//DTD SVG 1.1//EN"
 "http://www.w3.org/Graphics/SVG/1.1/DTD/svg11.dtd">
<!-- Generated by graphviz version 2.43.0 (0)
 -->
<!-- Title: SetJoystick::getRealIndex Pages: 1 -->
<svg width="1862pt" height="541pt"
 viewBox="0.00 0.00 1862.00 541.00" xmlns="http://www.w3.org/2000/svg" xmlns:xlink="http://www.w3.org/1999/xlink">
<g id="graph0" class="graph" transform="scale(1 1) rotate(0) translate(4 537)">
<title>SetJoystick::getRealIndex</title>
<polygon fill="white" stroke="transparent" points="-4,4 -4,-537 1858,-537 1858,4 -4,4"/>
<!-- Node1 -->
<g id="node1" class="node">
<title>Node1</title>
<g id="a_node1"><a xlink:title=" ">
<polygon fill="#bfbfbf" stroke="black" points="1713,-263 1713,-282 1854,-282 1854,-263 1713,-263"/>
<text text-anchor="middle" x="1783.5" y="-270" font-family="Helvetica,sans-Serif" font-size="10.00">SetJoystick::getRealIndex</text>
</a>
</g>
</g>
<!-- Node2 -->
<g id="node2" class="node">
<title>Node2</title>
<g id="a_node2"><a xlink:href="classMouseAxisSettingsDialog.html#a0edd3909adbb929ff5337c680861505d" target="_top" xlink:title=" ">
<polygon fill="white" stroke="black" points="1492.5,-502.5 1492.5,-532.5 1659.5,-532.5 1659.5,-502.5 1492.5,-502.5"/>
<text text-anchor="start" x="1500.5" y="-520.5" font-family="Helvetica,sans-Serif" font-size="10.00">MouseAxisSettingsDialog</text>
<text text-anchor="middle" x="1576" y="-509.5" font-family="Helvetica,sans-Serif" font-size="10.00">::updateWindowTitleAxisName</text>
</a>
</g>
</g>
<!-- Node1&#45;&gt;Node2 -->
<g id="edge1" class="edge">
<title>Node1&#45;&gt;Node2</title>
<path fill="none" stroke="midnightblue" d="M1779,-292.16C1770.2,-335.6 1742.97,-440.1 1677,-493.5 1671.73,-497.77 1665.82,-501.3 1659.57,-504.22"/>
<polygon fill="midnightblue" stroke="midnightblue" points="1782.45,-292.76 1780.89,-282.28 1775.58,-291.45 1782.45,-292.76"/>
</g>
<!-- Node4 -->
<g id="node4" class="node">
<title>Node4</title>
<g id="a_node4"><a xlink:href="classAxisEditDialog.html#a240d4447e6873472266af0f251a35e76" target="_top" xlink:title=" ">
<polygon fill="white" stroke="black" points="1492.5,-453.5 1492.5,-483.5 1659.5,-483.5 1659.5,-453.5 1492.5,-453.5"/>
<text text-anchor="start" x="1500.5" y="-471.5" font-family="Helvetica,sans-Serif" font-size="10.00">AxisEditDialog::updateWindow</text>
<text text-anchor="middle" x="1576" y="-460.5" font-family="Helvetica,sans-Serif" font-size="10.00">TitleAxisName</text>
</a>
</g>
</g>
<!-- Node1&#45;&gt;Node4 -->
<g id="edge3" class="edge">
<title>Node1&#45;&gt;Node4</title>
<path fill="none" stroke="midnightblue" d="M1776.24,-291.89C1763.6,-327.89 1731.46,-404.95 1677,-444.5 1671.65,-448.38 1665.77,-451.64 1659.6,-454.38"/>
<polygon fill="midnightblue" stroke="midnightblue" points="1779.66,-292.72 1779.55,-282.13 1773.03,-290.48 1779.66,-292.72"/>
</g>
<!-- Node6 -->
<g id="node6" class="node">
<title>Node6</title>
<g id="a_node6"><a xlink:href="classMouseButtonSettingsDialog.html#a2f23599f16d802415aa8ea016341199b" target="_top" xlink:title=" ">
<polygon fill="white" stroke="black" points="1486.5,-404.5 1486.5,-434.5 1665.5,-434.5 1665.5,-404.5 1486.5,-404.5"/>
<text text-anchor="start" x="1494.5" y="-422.5" font-family="Helvetica,sans-Serif" font-size="10.00">MouseButtonSettingsDialog</text>
<text text-anchor="middle" x="1576" y="-411.5" font-family="Helvetica,sans-Serif" font-size="10.00">::updateWindowTitleButtonName</text>
</a>
</g>
</g>
<!-- Node1&#45;&gt;Node6 -->
<g id="edge5" class="edge">
<title>Node1&#45;&gt;Node6</title>
<path fill="none" stroke="midnightblue" d="M1771.77,-291.24C1755.12,-318.56 1720.4,-368.97 1677,-395.5 1671.36,-398.95 1665.27,-401.9 1658.96,-404.42"/>
<polygon fill="midnightblue" stroke="midnightblue" points="1774.98,-292.69 1777.07,-282.3 1768.96,-289.12 1774.98,-292.69"/>
</g>
<!-- Node8 -->
<g id="node8" class="node">
<title>Node8</title>
<g id="a_node8"><a xlink:href="classAdvanceButtonDialog.html#a371dbf9d2c49e736d8e7d8fba3739aff" target="_top" xlink:title=" ">
<polygon fill="white" stroke="black" points="1486.5,-355.5 1486.5,-385.5 1665.5,-385.5 1665.5,-355.5 1486.5,-355.5"/>
<text text-anchor="start" x="1494.5" y="-373.5" font-family="Helvetica,sans-Serif" font-size="10.00">AdvanceButtonDialog</text>
<text text-anchor="middle" x="1576" y="-362.5" font-family="Helvetica,sans-Serif" font-size="10.00">::updateWindowTitleButtonName</text>
</a>
</g>
</g>
<!-- Node1&#45;&gt;Node8 -->
<g id="edge7" class="edge">
<title>Node1&#45;&gt;Node8</title>
<path fill="none" stroke="midnightblue" d="M1763.92,-288.85C1743.82,-305.69 1710.19,-331.53 1677,-346.5 1669.43,-349.91 1661.31,-352.88 1653.09,-355.44"/>
<polygon fill="midnightblue" stroke="midnightblue" points="1766.33,-291.39 1771.66,-282.24 1761.78,-286.07 1766.33,-291.39"/>
</g>
<!-- Node10 -->
<g id="node10" class="node">
<title>Node10</title>
<g id="a_node10"><a xlink:href="classButtonEditDialog.html#a0057dab454e3f52eeab3e3ba1fd336e0" target="_top" xlink:title=" ">
<polygon fill="white" stroke="black" points="1506.5,-306.5 1506.5,-336.5 1645.5,-336.5 1645.5,-306.5 1506.5,-306.5"/>
<text text-anchor="start" x="1514.5" y="-324.5" font-family="Helvetica,sans-Serif" font-size="10.00">ButtonEditDialog::update</text>
<text text-anchor="middle" x="1576" y="-313.5" font-family="Helvetica,sans-Serif" font-size="10.00">WindowTitleButtonName</text>
</a>
</g>
</g>
<!-- Node1&#45;&gt;Node10 -->
<g id="edge9" class="edge">
<title>Node1&#45;&gt;Node10</title>
<path fill="none" stroke="midnightblue" d="M1732.48,-284.43C1704.65,-291.06 1669.75,-299.39 1640.06,-306.46"/>
<polygon fill="midnightblue" stroke="midnightblue" points="1733.47,-287.79 1742.39,-282.06 1731.85,-280.98 1733.47,-287.79"/>
</g>
<!-- Node24 -->
<g id="node24" class="node">
<title>Node24</title>
<g id="a_node24"><a xlink:href="classMouseDPadSettingsDialog.html#a68706a0ac77693478c027a0d76cb0fcc" target="_top" xlink:title=" ">
<polygon fill="white" stroke="black" points="1490.5,-257.5 1490.5,-287.5 1661.5,-287.5 1661.5,-257.5 1490.5,-257.5"/>
<text text-anchor="start" x="1498.5" y="-275.5" font-family="Helvetica,sans-Serif" font-size="10.00">MouseDPadSettingsDialog</text>
<text text-anchor="middle" x="1576" y="-264.5" font-family="Helvetica,sans-Serif" font-size="10.00">::updateWindowTitleDPadName</text>
</a>
</g>
</g>
<!-- Node1&#45;&gt;Node24 -->
<g id="edge32" class="edge">
<title>Node1&#45;&gt;Node24</title>
<path fill="none" stroke="midnightblue" d="M1702.78,-272.5C1689.35,-272.5 1675.37,-272.5 1661.82,-272.5"/>
<polygon fill="midnightblue" stroke="midnightblue" points="1702.93,-276 1712.93,-272.5 1702.93,-269 1702.93,-276"/>
</g>
<!-- Node26 -->
<g id="node26" class="node">
<title>Node26</title>
<g id="a_node26"><a xlink:href="classDPadEditDialog.html#a159bedd30c6c36cb1c60e6146183c1a2" target="_top" xlink:title=" ">
<polygon fill="white" stroke="black" points="1491,-208.5 1491,-238.5 1661,-238.5 1661,-208.5 1491,-208.5"/>
<text text-anchor="start" x="1499" y="-226.5" font-family="Helvetica,sans-Serif" font-size="10.00">DPadEditDialog::updateWindow</text>
<text text-anchor="middle" x="1576" y="-215.5" font-family="Helvetica,sans-Serif" font-size="10.00">TitleDPadName</text>
</a>
</g>
</g>
<!-- Node1&#45;&gt;Node26 -->
<g id="edge34" class="edge">
<title>Node1&#45;&gt;Node26</title>
<path fill="none" stroke="midnightblue" d="M1732.48,-260.57C1704.65,-253.94 1669.75,-245.61 1640.06,-238.54"/>
<polygon fill="midnightblue" stroke="midnightblue" points="1731.85,-264.02 1742.39,-262.94 1733.47,-257.21 1731.85,-264.02"/>
</g>
<!-- Node28 -->
<g id="node28" class="node">
<title>Node28</title>
<g id="a_node28"><a xlink:href="classMouseSensorSettingsDialog.html#a3a49370a1061187645fcd8eda0ebc4ca" target="_top" xlink:title="Shows the sensor name in dialog title.">
<polygon fill="white" stroke="black" points="1486.5,-159.5 1486.5,-189.5 1665.5,-189.5 1665.5,-159.5 1486.5,-159.5"/>
<text text-anchor="start" x="1494.5" y="-177.5" font-family="Helvetica,sans-Serif" font-size="10.00">MouseSensorSettingsDialog</text>
<text text-anchor="middle" x="1576" y="-166.5" font-family="Helvetica,sans-Serif" font-size="10.00">::updateWindowTitleSensorName</text>
</a>
</g>
</g>
<!-- Node1&#45;&gt;Node28 -->
<g id="edge36" class="edge">
<title>Node1&#45;&gt;Node28</title>
<path fill="none" stroke="midnightblue" d="M1763.85,-256.45C1743.7,-239.9 1710.02,-214.45 1677,-199.5 1668.52,-195.66 1659.36,-192.35 1650.15,-189.51"/>
<polygon fill="midnightblue" stroke="midnightblue" points="1761.7,-259.21 1771.61,-262.94 1766.19,-253.84 1761.7,-259.21"/>
</g>
<!-- Node30 -->
<g id="node30" class="node">
<title>Node30</title>
<g id="a_node30"><a xlink:href="classJoySensorEditDialog.html#ab1a039fc35cd4c52e2553d7a6d01bc34" target="_top" xlink:title="Shows the sensor name in dialog title.">
<polygon fill="white" stroke="black" points="1486.5,-110.5 1486.5,-140.5 1665.5,-140.5 1665.5,-110.5 1486.5,-110.5"/>
<text text-anchor="start" x="1494.5" y="-128.5" font-family="Helvetica,sans-Serif" font-size="10.00">JoySensorEditDialog</text>
<text text-anchor="middle" x="1576" y="-117.5" font-family="Helvetica,sans-Serif" font-size="10.00">::updateWindowTitleSensorName</text>
</a>
</g>
</g>
<!-- Node1&#45;&gt;Node30 -->
<g id="edge38" class="edge">
<title>Node1&#45;&gt;Node30</title>
<path fill="none" stroke="midnightblue" d="M1771.7,-253.97C1754.96,-226.93 1720.12,-177.02 1677,-150.5 1670.67,-146.61 1663.77,-143.32 1656.64,-140.55"/>
<polygon fill="midnightblue" stroke="midnightblue" points="1768.87,-256.05 1777.03,-262.81 1774.86,-252.44 1768.87,-256.05"/>
</g>
<!-- Node32 -->
<g id="node32" class="node">
<title>Node32</title>
<g id="a_node32"><a xlink:href="classMouseControlStickSettingsDialog.html#a8ff60a784173b38c871484c83b670571" target="_top" xlink:title=" ">
<polygon fill="white" stroke="black" points="1475,-58.5 1475,-88.5 1677,-88.5 1677,-58.5 1475,-58.5"/>
<text text-anchor="start" x="1483" y="-76.5" font-family="Helvetica,sans-Serif" font-size="10.00">MouseControlStickSettings</text>
<text text-anchor="middle" x="1576" y="-65.5" font-family="Helvetica,sans-Serif" font-size="10.00">Dialog::updateWindowTitleStickName</text>
</a>
</g>
</g>
<!-- Node1&#45;&gt;Node32 -->
<g id="edge40" class="edge">
<title>Node1&#45;&gt;Node32</title>
<path fill="none" stroke="midnightblue" d="M1775.89,-252.9C1762.83,-217.22 1730.28,-141.63 1677,-101.5 1670.09,-96.29 1662.25,-92.06 1654.08,-88.61"/>
<polygon fill="midnightblue" stroke="midnightblue" points="1772.69,-254.35 1779.32,-262.61 1779.29,-252.02 1772.69,-254.35"/>
</g>
<!-- Node34 -->
<g id="node34" class="node">
<title>Node34</title>
<g id="a_node34"><a xlink:href="classJoyControlStickEditDialog.html#af7427cbc037e7ff1361237c910ad708b" target="_top" xlink:title=" ">
<polygon fill="white" stroke="black" points="1491,-6.5 1491,-36.5 1661,-36.5 1661,-6.5 1491,-6.5"/>
<text text-anchor="start" x="1499" y="-24.5" font-family="Helvetica,sans-Serif" font-size="10.00">JoyControlStickEditDialog</text>
<text text-anchor="middle" x="1576" y="-13.5" font-family="Helvetica,sans-Serif" font-size="10.00">::updateWindowTitleStickName</text>
</a>
</g>
</g>
<!-- Node1&#45;&gt;Node34 -->
<g id="edge42" class="edge">
<title>Node1&#45;&gt;Node34</title>
<path fill="none" stroke="midnightblue" d="M1778.91,-252.84C1769.93,-209.38 1742.34,-104.64 1677,-49.5 1670.8,-44.27 1663.69,-40.01 1656.18,-36.54"/>
<polygon fill="midnightblue" stroke="midnightblue" points="1775.49,-253.58 1780.85,-262.72 1782.36,-252.24 1775.49,-253.58"/>
</g>
<!-- Node3 -->
<g id="node3" class="node">
<title>Node3</title>
<g id="a_node3"><a xlink:href="classMouseAxisSettingsDialog.html#a33546e4b608264ce6d2758678eb6d2e7" target="_top" xlink:title=" ">
<polygon fill="white" stroke="black" points="1273,-502.5 1273,-532.5 1420,-532.5 1420,-502.5 1273,-502.5"/>
<text text-anchor="start" x="1281" y="-520.5" font-family="Helvetica,sans-Serif" font-size="10.00">MouseAxisSettingsDialog</text>
<text text-anchor="middle" x="1346.5" y="-509.5" font-family="Helvetica,sans-Serif" font-size="10.00">::MouseAxisSettingsDialog</text>
</a>
</g>
</g>
<!-- Node2&#45;&gt;Node3 -->
<g id="edge2" class="edge">
<title>Node2&#45;&gt;Node3</title>
<path fill="none" stroke="midnightblue" d="M1482.15,-517.5C1461.46,-517.5 1439.8,-517.5 1420.06,-517.5"/>
<polygon fill="midnightblue" stroke="midnightblue" points="1482.22,-521 1492.22,-517.5 1482.22,-514 1482.22,-521"/>
</g>
<!-- Node5 -->
<g id="node5" class="node">
<title>Node5</title>
<g id="a_node5"><a xlink:href="classAxisEditDialog.html#a702a1718f3a1dd6b64b4474ea19b71cd" target="_top" xlink:title=" ">
<polygon fill="white" stroke="black" points="1279.5,-453.5 1279.5,-483.5 1413.5,-483.5 1413.5,-453.5 1279.5,-453.5"/>
<text text-anchor="start" x="1287.5" y="-471.5" font-family="Helvetica,sans-Serif" font-size="10.00">AxisEditDialog::AxisEdit</text>
<text text-anchor="middle" x="1346.5" y="-460.5" font-family="Helvetica,sans-Serif" font-size="10.00">Dialog</text>
</a>
</g>
</g>
<!-- Node4&#45;&gt;Node5 -->
<g id="edge4" class="edge">
<title>Node4&#45;&gt;Node5</title>
<path fill="none" stroke="midnightblue" d="M1482.15,-468.5C1459.25,-468.5 1435.18,-468.5 1413.83,-468.5"/>
<polygon fill="midnightblue" stroke="midnightblue" points="1482.22,-472 1492.22,-468.5 1482.22,-465 1482.22,-472"/>
</g>
<!-- Node7 -->
<g id="node7" class="node">
<title>Node7</title>
<g id="a_node7"><a xlink:href="classMouseButtonSettingsDialog.html#a181bfdf388907056ec492d58d85f5d34" target="_top" xlink:title=" ">
<polygon fill="white" stroke="black" points="1267.5,-404.5 1267.5,-434.5 1425.5,-434.5 1425.5,-404.5 1267.5,-404.5"/>
<text text-anchor="start" x="1275.5" y="-422.5" font-family="Helvetica,sans-Serif" font-size="10.00">MouseButtonSettingsDialog</text>
<text text-anchor="middle" x="1346.5" y="-411.5" font-family="Helvetica,sans-Serif" font-size="10.00">::MouseButtonSettingsDialog</text>
</a>
</g>
</g>
<!-- Node6&#45;&gt;Node7 -->
<g id="edge6" class="edge">
<title>Node6&#45;&gt;Node7</title>
<path fill="none" stroke="midnightblue" d="M1475.95,-419.5C1459.07,-419.5 1441.75,-419.5 1425.51,-419.5"/>
<polygon fill="midnightblue" stroke="midnightblue" points="1476.39,-423 1486.39,-419.5 1476.39,-416 1476.39,-423"/>
</g>
<!-- Node9 -->
<g id="node9" class="node">
<title>Node9</title>
<g id="a_node9"><a xlink:href="classAdvanceButtonDialog.html#a4f9a1a007f50de1c3cca1403d08a0790" target="_top" xlink:title=" ">
<polygon fill="white" stroke="black" points="1282.5,-355.5 1282.5,-385.5 1410.5,-385.5 1410.5,-355.5 1282.5,-355.5"/>
<text text-anchor="start" x="1290.5" y="-373.5" font-family="Helvetica,sans-Serif" font-size="10.00">AdvanceButtonDialog</text>
<text text-anchor="middle" x="1346.5" y="-362.5" font-family="Helvetica,sans-Serif" font-size="10.00">::AdvanceButtonDialog</text>
</a>
</g>
</g>
<!-- Node8&#45;&gt;Node9 -->
<g id="edge8" class="edge">
<title>Node8&#45;&gt;Node9</title>
<path fill="none" stroke="midnightblue" d="M1476.22,-370.5C1453.94,-370.5 1430.87,-370.5 1410.53,-370.5"/>
<polygon fill="midnightblue" stroke="midnightblue" points="1476.39,-374 1486.39,-370.5 1476.39,-367 1476.39,-374"/>
</g>
<!-- Node11 -->
<g id="node11" class="node">
<title>Node11</title>
<g id="a_node11"><a xlink:href="classButtonEditDialog.html#a82f6d5a24f90b015034e1a3985c410b8" target="_top" xlink:title=" ">
<polygon fill="white" stroke="black" points="1276.5,-306.5 1276.5,-336.5 1416.5,-336.5 1416.5,-306.5 1276.5,-306.5"/>
<text text-anchor="start" x="1284.5" y="-324.5" font-family="Helvetica,sans-Serif" font-size="10.00">ButtonEditDialog::refresh</text>
<text text-anchor="middle" x="1346.5" y="-313.5" font-family="Helvetica,sans-Serif" font-size="10.00">ForLastBtn</text>
</a>
</g>
</g>
<!-- Node10&#45;&gt;Node11 -->
<g id="edge10" class="edge">
<title>Node10&#45;&gt;Node11</title>
<path fill="none" stroke="midnightblue" d="M1496.28,-321.5C1470.4,-321.5 1441.83,-321.5 1416.71,-321.5"/>
<polygon fill="midnightblue" stroke="midnightblue" points="1496.43,-325 1506.43,-321.5 1496.43,-318 1496.43,-325"/>
</g>
<!-- Node12 -->
<g id="node12" class="node">
<title>Node12</title>
<g id="a_node12"><a xlink:href="classButtonEditDialog.html#a3e9feede100cbb6a11c9d87659c196ea" target="_top" xlink:title=" ">
<polygon fill="white" stroke="black" points="0,-322.5 0,-352.5 137,-352.5 137,-322.5 0,-322.5"/>
<text text-anchor="start" x="8" y="-340.5" font-family="Helvetica,sans-Serif" font-size="10.00">ButtonEditDialog::Button</text>
<text text-anchor="middle" x="68.5" y="-329.5" font-family="Helvetica,sans-Serif" font-size="10.00">EditDialog</text>
</a>
</g>
</g>
<!-- Node11&#45;&gt;Node12 -->
<g id="edge11" class="edge">
<title>Node11&#45;&gt;Node12</title>
<path fill="none" stroke="midnightblue" d="M1266.85,-339.08C1262.36,-341.27 1258.03,-343.73 1254,-346.5 1231.73,-361.8 1241.44,-382.06 1218,-395.5 1106.94,-459.2 1059.53,-425.5 931.5,-425.5 931.5,-425.5 931.5,-425.5 495.5,-425.5 352.96,-425.5 189.03,-377.66 112.74,-352.53"/>
<polygon fill="midnightblue" stroke="midnightblue" points="1268.53,-342.17 1276.29,-334.95 1265.73,-335.75 1268.53,-342.17"/>
</g>
<!-- Node13 -->
<g id="node13" class="node">
<title>Node13</title>
<g id="a_node13"><a xlink:href="classButtonEditDialog.html#a7b7f4ddddf1b67c7883cc03d7469987f" target="_top" xlink:title=" ">
<polygon fill="white" stroke="black" points="655,-366.5 655,-396.5 792,-396.5 792,-366.5 655,-366.5"/>
<text text-anchor="start" x="663" y="-384.5" font-family="Helvetica,sans-Serif" font-size="10.00">ButtonEditDialog::closed</text>
<text text-anchor="middle" x="723.5" y="-373.5" font-family="Helvetica,sans-Serif" font-size="10.00">AdvancedDialog</text>
</a>
</g>
</g>
<!-- Node11&#45;&gt;Node13 -->
<g id="edge12" class="edge">
<title>Node11&#45;&gt;Node13</title>
<path fill="none" stroke="midnightblue" d="M1271.66,-339.71C1265.61,-341.8 1259.66,-344.06 1254,-346.5 1236.79,-353.93 1235.98,-363.18 1218,-368.5 1071.08,-411.93 888.73,-401.05 792.06,-390.53"/>
<polygon fill="midnightblue" stroke="midnightblue" points="1272.79,-343.02 1281.21,-336.59 1270.62,-336.37 1272.79,-343.02"/>
</g>
<!-- Node15 -->
<g id="node15" class="node">
<title>Node15</title>
<g id="a_node15"><a xlink:href="classButtonEditDialog.html#a70b199304a9e842bff9cc50ca6c48abb" target="_top" xlink:title=" ">
<polygon fill="white" stroke="black" points="1070,-328.5 1070,-358.5 1205,-358.5 1205,-328.5 1070,-328.5"/>
<text text-anchor="start" x="1078" y="-346.5" font-family="Helvetica,sans-Serif" font-size="10.00">ButtonEditDialog::nullify</text>
<text text-anchor="middle" x="1137.5" y="-335.5" font-family="Helvetica,sans-Serif" font-size="10.00">DialogPointer</text>
</a>
</g>
</g>
<!-- Node11&#45;&gt;Node15 -->
<g id="edge15" class="edge">
<title>Node11&#45;&gt;Node15</title>
<path fill="none" stroke="midnightblue" d="M1266.2,-329.93C1246.07,-332.07 1224.63,-334.35 1205.19,-336.41"/>
<polygon fill="midnightblue" stroke="midnightblue" points="1266.71,-333.39 1276.28,-328.86 1265.97,-326.43 1266.71,-333.39"/>
</g>
<!-- Node17 -->
<g id="node17" class="node">
<title>Node17</title>
<g id="a_node17"><a xlink:href="classVirtualKeyboardMouseWidget.html#a379b1e56c40759f5efbb912692779997" target="_top" xlink:title=" ">
<polygon fill="white" stroke="black" points="1057,-240.5 1057,-270.5 1218,-270.5 1218,-240.5 1057,-240.5"/>
<text text-anchor="start" x="1065" y="-258.5" font-family="Helvetica,sans-Serif" font-size="10.00">VirtualKeyboardMouseWidget</text>
<text text-anchor="middle" x="1137.5" y="-247.5" font-family="Helvetica,sans-Serif" font-size="10.00">::nullifyDialogPointer</text>
</a>
</g>
</g>
<!-- Node11&#45;&gt;Node17 -->
<g id="edge19" class="edge">
<title>Node11&#45;&gt;Node17</title>
<path fill="none" stroke="midnightblue" d="M1275.03,-303.72C1267.9,-301.71 1260.79,-299.62 1254,-297.5 1228.13,-289.42 1199.51,-279.02 1177.22,-270.59"/>
<polygon fill="midnightblue" stroke="midnightblue" points="1274.17,-307.11 1284.74,-306.4 1276.03,-300.36 1274.17,-307.11"/>
</g>
<!-- Node18 -->
<g id="node18" class="node">
<title>Node18</title>
<g id="a_node18"><a xlink:href="classVirtualKeyboardMouseWidget.html#ae1533c129fa9bf28b976c09eb9dd1420" target="_top" xlink:title=" ">
<polygon fill="white" stroke="black" points="840,-262.5 840,-292.5 1021,-292.5 1021,-262.5 840,-262.5"/>
<text text-anchor="start" x="848" y="-280.5" font-family="Helvetica,sans-Serif" font-size="10.00">VirtualKeyboardMouseWidget</text>
<text text-anchor="middle" x="930.5" y="-269.5" font-family="Helvetica,sans-Serif" font-size="10.00">::processSingleKeyboardSelection</text>
</a>
</g>
</g>
<!-- Node11&#45;&gt;Node18 -->
<g id="edge30" class="edge">
<title>Node11&#45;&gt;Node18</title>
<path fill="none" stroke="midnightblue" d="M1266.12,-313.06C1196.14,-305.63 1094.24,-294.8 1021.3,-287.04"/>
<polygon fill="midnightblue" stroke="midnightblue" points="1265.89,-316.56 1276.21,-314.14 1266.63,-309.6 1265.89,-316.56"/>
</g>
<!-- Node22 -->
<g id="node22" class="node">
<title>Node22</title>
<g id="a_node22"><a xlink:href="classVirtualKeyboardMouseWidget.html#ae535d1ab2f639bb93110c6081dce1731" target="_top" xlink:title=" ">
<polygon fill="white" stroke="black" points="847,-196.5 847,-226.5 1014,-226.5 1014,-196.5 847,-196.5"/>
<text text-anchor="start" x="855" y="-214.5" font-family="Helvetica,sans-Serif" font-size="10.00">VirtualKeyboardMouseWidget</text>
<text text-anchor="middle" x="930.5" y="-203.5" font-family="Helvetica,sans-Serif" font-size="10.00">::processSingleMouseSelection</text>
</a>
</g>
</g>
<!-- Node11&#45;&gt;Node22 -->
<g id="edge31" class="edge">
<title>Node11&#45;&gt;Node22</title>
<path fill="none" stroke="midnightblue" d="M1267.03,-305.76C1262.41,-303.38 1258.02,-300.65 1254,-297.5 1227.69,-276.91 1246.12,-249.55 1218,-231.5 1157.89,-192.92 1075.34,-191.26 1014.29,-197.27"/>
<polygon fill="midnightblue" stroke="midnightblue" points="1265.59,-308.95 1276.14,-309.91 1268.49,-302.58 1265.59,-308.95"/>
</g>
<!-- Node14 -->
<g id="node14" class="node">
<title>Node14</title>
<g id="a_node14"><a xlink:href="classButtonEditDialog.html#ade8d1ee4ae03d1080932a70c8170d488" target="_top" xlink:title=" ">
<polygon fill="white" stroke="black" points="173,-276.5 173,-306.5 350,-306.5 350,-276.5 173,-276.5"/>
<text text-anchor="start" x="181" y="-294.5" font-family="Helvetica,sans-Serif" font-size="10.00">ButtonEditDialog::openAdvanced</text>
<text text-anchor="middle" x="261.5" y="-283.5" font-family="Helvetica,sans-Serif" font-size="10.00">Dialog</text>
</a>
</g>
</g>
<!-- Node13&#45;&gt;Node14 -->
<g id="edge13" class="edge">
<title>Node13&#45;&gt;Node14</title>
<path fill="none" stroke="midnightblue" d="M644.46,-367.58C576.18,-355.23 474.37,-336.43 386,-318.5 367.61,-314.77 347.73,-310.52 329.4,-306.51"/>
<polygon fill="midnightblue" stroke="midnightblue" points="644.25,-371.1 654.71,-369.43 645.49,-364.21 644.25,-371.1"/>
</g>
<!-- Node14&#45;&gt;Node12 -->
<g id="edge14" class="edge">
<title>Node14&#45;&gt;Node12</title>
<path fill="none" stroke="midnightblue" d="M188.11,-308.93C169.58,-313.4 149.83,-318.15 131.85,-322.48"/>
<polygon fill="midnightblue" stroke="midnightblue" points="189.06,-312.31 197.96,-306.56 187.42,-305.5 189.06,-312.31"/>
</g>
<!-- Node16 -->
<g id="node16" class="node">
<title>Node16</title>
<g id="a_node16"><a xlink:href="classButtonEditDialog.html#a3f4f84fb02db14ed369dfa2cbe3eb9de" target="_top" xlink:title=" ">
<polygon fill="white" stroke="black" points="859,-328.5 859,-358.5 1002,-358.5 1002,-328.5 859,-328.5"/>
<text text-anchor="start" x="867" y="-346.5" font-family="Helvetica,sans-Serif" font-size="10.00">ButtonEditDialog::process</text>
<text text-anchor="middle" x="930.5" y="-335.5" font-family="Helvetica,sans-Serif" font-size="10.00">SlotAssignment</text>
</a>
</g>
</g>
<!-- Node15&#45;&gt;Node16 -->
<g id="edge16" class="edge">
<title>Node15&#45;&gt;Node16</title>
<path fill="none" stroke="midnightblue" d="M1059.9,-343.5C1041.03,-343.5 1020.9,-343.5 1002.31,-343.5"/>
<polygon fill="midnightblue" stroke="midnightblue" points="1059.94,-347 1069.94,-343.5 1059.94,-340 1059.94,-347"/>
</g>
<!-- Node16&#45;&gt;Node12 -->
<g id="edge17" class="edge">
<title>Node16&#45;&gt;Node12</title>
<path fill="none" stroke="midnightblue" d="M848.7,-342.94C680.14,-341.76 293.7,-339.06 137.18,-337.97"/>
<polygon fill="midnightblue" stroke="midnightblue" points="848.73,-346.44 858.76,-343.01 848.78,-339.44 848.73,-346.44"/>
</g>
<!-- Node16&#45;&gt;Node13 -->
<g id="edge18" class="edge">
<title>Node16&#45;&gt;Node13</title>
<path fill="none" stroke="midnightblue" d="M848.92,-358.44C830.1,-361.92 810.25,-365.6 792.07,-368.98"/>
<polygon fill="midnightblue" stroke="midnightblue" points="849.76,-361.84 858.95,-356.58 848.48,-354.96 849.76,-361.84"/>
</g>
<!-- Node17&#45;&gt;Node18 -->
<g id="edge20" class="edge">
<title>Node17&#45;&gt;Node18</title>
<path fill="none" stroke="midnightblue" d="M1046.99,-265.11C1038.44,-266.02 1029.77,-266.95 1021.22,-267.87"/>
<polygon fill="midnightblue" stroke="midnightblue" points="1047.38,-268.58 1056.95,-264.04 1046.63,-261.62 1047.38,-268.58"/>
</g>
<!-- Node17&#45;&gt;Node22 -->
<g id="edge26" class="edge">
<title>Node17&#45;&gt;Node22</title>
<path fill="none" stroke="midnightblue" d="M1056.55,-238.34C1038.38,-234.44 1019.22,-230.33 1001.51,-226.53"/>
<polygon fill="midnightblue" stroke="midnightblue" points="1056.01,-241.8 1066.52,-240.48 1057.48,-234.96 1056.01,-241.8"/>
</g>
<!-- Node19 -->
<g id="node19" class="node">
<title>Node19</title>
<g id="a_node19"><a xlink:href="classVirtualKeyboardMouseWidget.html#a4d88483823d27bf1ba22c334d2407595" target="_top" xlink:title=" ">
<polygon fill="white" stroke="black" points="409,-268 409,-309 584,-309 584,-268 409,-268"/>
<text text-anchor="start" x="417" y="-297" font-family="Helvetica,sans-Serif" font-size="10.00">VirtualKeyboardMouseWidget</text>
<text text-anchor="start" x="417" y="-286" font-family="Helvetica,sans-Serif" font-size="10.00">::establishVirtualKeyboardSingle</text>
<text text-anchor="middle" x="496.5" y="-275" font-family="Helvetica,sans-Serif" font-size="10.00">SignalConnections</text>
</a>
</g>
</g>
<!-- Node18&#45;&gt;Node19 -->
<g id="edge21" class="edge">
<title>Node18&#45;&gt;Node19</title>
<path fill="none" stroke="midnightblue" d="M829.58,-270.55C820.93,-270.13 812.31,-269.76 804,-269.5 732.48,-267.22 714.4,-264.86 643,-269.5 623.93,-270.74 603.55,-272.88 584.26,-275.3"/>
<polygon fill="midnightblue" stroke="midnightblue" points="829.56,-274.06 839.73,-271.08 829.92,-267.07 829.56,-274.06"/>
</g>
<!-- Node21 -->
<g id="node21" class="node">
<title>Node21</title>
<g id="a_node21"><a xlink:href="classVirtualKeyboardMouseWidget.html#a019229171c104fb3d7b85a41c1dfc2d1" target="_top" xlink:title=" ">
<polygon fill="white" stroke="black" points="643,-278.5 643,-308.5 804,-308.5 804,-278.5 643,-278.5"/>
<text text-anchor="start" x="651" y="-296.5" font-family="Helvetica,sans-Serif" font-size="10.00">VirtualKeyboardMouseWidget</text>
<text text-anchor="middle" x="723.5" y="-285.5" font-family="Helvetica,sans-Serif" font-size="10.00">::otherKeysActionSingle</text>
</a>
</g>
</g>
<!-- Node18&#45;&gt;Node21 -->
<g id="edge24" class="edge">
<title>Node18&#45;&gt;Node21</title>
<path fill="none" stroke="midnightblue" d="M829.84,-285.28C821.27,-285.95 812.66,-286.62 804.28,-287.27"/>
<polygon fill="midnightblue" stroke="midnightblue" points="830.18,-288.76 839.88,-284.49 829.64,-281.78 830.18,-288.76"/>
</g>
<!-- Node19&#45;&gt;Node14 -->
<g id="edge22" class="edge">
<title>Node19&#45;&gt;Node14</title>
<path fill="none" stroke="midnightblue" d="M398.32,-289.75C382.33,-289.96 365.85,-290.17 350.11,-290.37"/>
<polygon fill="midnightblue" stroke="midnightblue" points="398.79,-293.25 408.74,-289.62 398.7,-286.25 398.79,-293.25"/>
</g>
<!-- Node20 -->
<g id="node20" class="node">
<title>Node20</title>
<g id="a_node20"><a xlink:href="classVirtualKeyboardMouseWidget.html#a5117686d29ac16c0d1f947da9ba7b7a4" target="_top" xlink:title=" ">
<polygon fill="white" stroke="black" points="178,-222.5 178,-252.5 345,-252.5 345,-222.5 178,-222.5"/>
<text text-anchor="start" x="186" y="-240.5" font-family="Helvetica,sans-Serif" font-size="10.00">VirtualKeyboardMouseWidget</text>
<text text-anchor="middle" x="261.5" y="-229.5" font-family="Helvetica,sans-Serif" font-size="10.00">::VirtualKeyboardMouseWidget</text>
</a>
</g>
</g>
<!-- Node19&#45;&gt;Node20 -->
<g id="edge23" class="edge">
<title>Node19&#45;&gt;Node20</title>
<path fill="none" stroke="midnightblue" d="M398.74,-267.32C376.04,-262.35 352.31,-257.16 331.14,-252.52"/>
<polygon fill="midnightblue" stroke="midnightblue" points="398.22,-270.79 408.74,-269.51 399.72,-263.95 398.22,-270.79"/>
</g>
<!-- Node21&#45;&gt;Node19 -->
<g id="edge25" class="edge">
<title>Node21&#45;&gt;Node19</title>
<path fill="none" stroke="midnightblue" d="M632.52,-291.5C616.62,-291.15 600.1,-290.78 584.3,-290.43"/>
<polygon fill="midnightblue" stroke="midnightblue" points="632.78,-295.01 642.86,-291.73 632.94,-288.01 632.78,-295.01"/>
</g>
<!-- Node23 -->
<g id="node23" class="node">
<title>Node23</title>
<g id="a_node23"><a xlink:href="classVirtualKeyboardMouseWidget.html#ae98ecab176697aed0ca87609ceceaf06" target="_top" xlink:title=" ">
<polygon fill="white" stroke="black" points="386,-218.5 386,-248.5 607,-248.5 607,-218.5 386,-218.5"/>
<text text-anchor="start" x="394" y="-236.5" font-family="Helvetica,sans-Serif" font-size="10.00">VirtualKeyboardMouseWidget</text>
<text text-anchor="middle" x="496.5" y="-225.5" font-family="Helvetica,sans-Serif" font-size="10.00">::establishVirtualMouseSignalConnections</text>
</a>
</g>
</g>
<!-- Node22&#45;&gt;Node23 -->
<g id="edge27" class="edge">
<title>Node22&#45;&gt;Node23</title>
<path fill="none" stroke="midnightblue" d="M836.8,-216.22C769.45,-219.65 678.07,-224.3 607.1,-227.92"/>
<polygon fill="midnightblue" stroke="midnightblue" points="837.16,-219.71 846.97,-215.7 836.81,-212.72 837.16,-219.71"/>
</g>
<!-- Node23&#45;&gt;Node14 -->
<g id="edge28" class="edge">
<title>Node23&#45;&gt;Node14</title>
<path fill="none" stroke="midnightblue" d="M418.09,-250.8C407.3,-253.32 396.36,-255.93 386,-258.5 363.38,-264.1 338.54,-270.66 317.11,-276.45"/>
<polygon fill="midnightblue" stroke="midnightblue" points="418.99,-254.19 427.94,-248.52 417.41,-247.37 418.99,-254.19"/>
</g>
<!-- Node23&#45;&gt;Node20 -->
<g id="edge29" class="edge">
<title>Node23&#45;&gt;Node20</title>
<path fill="none" stroke="midnightblue" d="M375.54,-235.56C365.26,-235.74 355.02,-235.91 345.13,-236.08"/>
<polygon fill="midnightblue" stroke="midnightblue" points="375.88,-239.05 385.82,-235.38 375.76,-232.06 375.88,-239.05"/>
</g>
<!-- Node25 -->
<g id="node25" class="node">
<title>Node25</title>
<g id="a_node25"><a xlink:href="classMouseDPadSettingsDialog.html#a51ae7b4e5b371e35d4f470787f5fc846" target="_top" xlink:title=" ">
<polygon fill="white" stroke="black" points="1271,-257.5 1271,-287.5 1422,-287.5 1422,-257.5 1271,-257.5"/>
<text text-anchor="start" x="1279" y="-275.5" font-family="Helvetica,sans-Serif" font-size="10.00">MouseDPadSettingsDialog</text>
<text text-anchor="middle" x="1346.5" y="-264.5" font-family="Helvetica,sans-Serif" font-size="10.00">::MouseDPadSettingsDialog</text>
</a>
</g>
</g>
<!-- Node24&#45;&gt;Node25 -->
<g id="edge33" class="edge">
<title>Node24&#45;&gt;Node25</title>
<path fill="none" stroke="midnightblue" d="M1480.24,-272.5C1460.86,-272.5 1440.73,-272.5 1422.17,-272.5"/>
<polygon fill="midnightblue" stroke="midnightblue" points="1480.29,-276 1490.29,-272.5 1480.29,-269 1480.29,-276"/>
</g>
<!-- Node27 -->
<g id="node27" class="node">
<title>Node27</title>
<g id="a_node27"><a xlink:href="classDPadEditDialog.html#a87782609227b6c56ef82e3844a117dc1" target="_top" xlink:title=" ">
<polygon fill="white" stroke="black" points="1276,-208.5 1276,-238.5 1417,-238.5 1417,-208.5 1276,-208.5"/>
<text text-anchor="start" x="1284" y="-226.5" font-family="Helvetica,sans-Serif" font-size="10.00">DPadEditDialog::DPadEdit</text>
<text text-anchor="middle" x="1346.5" y="-215.5" font-family="Helvetica,sans-Serif" font-size="10.00">Dialog</text>
</a>
</g>
</g>
<!-- Node26&#45;&gt;Node27 -->
<g id="edge35" class="edge">
<title>Node26&#45;&gt;Node27</title>
<path fill="none" stroke="midnightblue" d="M1480.87,-223.5C1459.51,-223.5 1437.2,-223.5 1417.07,-223.5"/>
<polygon fill="midnightblue" stroke="midnightblue" points="1480.93,-227 1490.93,-223.5 1480.93,-220 1480.93,-227"/>
</g>
<!-- Node29 -->
<g id="node29" class="node">
<title>Node29</title>
<g id="a_node29"><a xlink:href="classMouseSensorSettingsDialog.html#a8eb12782a315a8b9a1c0433dd3aba29f" target="_top" xlink:title=" ">
<polygon fill="white" stroke="black" points="1267,-159.5 1267,-189.5 1426,-189.5 1426,-159.5 1267,-159.5"/>
<text text-anchor="start" x="1275" y="-177.5" font-family="Helvetica,sans-Serif" font-size="10.00">MouseSensorSettingsDialog</text>
<text text-anchor="middle" x="1346.5" y="-166.5" font-family="Helvetica,sans-Serif" font-size="10.00">::MouseSensorSettingsDialog</text>
</a>
</g>
</g>
<!-- Node28&#45;&gt;Node29 -->
<g id="edge37" class="edge">
<title>Node28&#45;&gt;Node29</title>
<path fill="none" stroke="midnightblue" d="M1476.08,-174.5C1459.41,-174.5 1442.31,-174.5 1426.24,-174.5"/>
<polygon fill="midnightblue" stroke="midnightblue" points="1476.39,-178 1486.39,-174.5 1476.39,-171 1476.39,-178"/>
</g>
<!-- Node31 -->
<g id="node31" class="node">
<title>Node31</title>
<g id="a_node31"><a xlink:href="classJoySensorEditDialog.html#a1522c8803924c1d7b596bff2b1d64cde" target="_top" xlink:title=" ">
<polygon fill="white" stroke="black" points="1286,-110.5 1286,-140.5 1407,-140.5 1407,-110.5 1286,-110.5"/>
<text text-anchor="start" x="1294" y="-128.5" font-family="Helvetica,sans-Serif" font-size="10.00">JoySensorEditDialog</text>
<text text-anchor="middle" x="1346.5" y="-117.5" font-family="Helvetica,sans-Serif" font-size="10.00">::JoySensorEditDialog</text>
</a>
</g>
</g>
<!-- Node30&#45;&gt;Node31 -->
<g id="edge39" class="edge">
<title>Node30&#45;&gt;Node31</title>
<path fill="none" stroke="midnightblue" d="M1476.35,-125.5C1452.76,-125.5 1428.29,-125.5 1407.09,-125.5"/>
<polygon fill="midnightblue" stroke="midnightblue" points="1476.39,-129 1486.39,-125.5 1476.39,-122 1476.39,-129"/>
</g>
<!-- Node33 -->
<g id="node33" class="node">
<title>Node33</title>
<g id="a_node33"><a xlink:href="classMouseControlStickSettingsDialog.html#aac9d5ef09dced4cee0df95d99ae13369" target="_top" xlink:title=" ">
<polygon fill="white" stroke="black" points="1254,-50 1254,-91 1439,-91 1439,-50 1254,-50"/>
<text text-anchor="start" x="1262" y="-79" font-family="Helvetica,sans-Serif" font-size="10.00">MouseControlStickSettings</text>
<text text-anchor="start" x="1262" y="-68" font-family="Helvetica,sans-Serif" font-size="10.00">Dialog::MouseControlStickSettings</text>
<text text-anchor="middle" x="1346.5" y="-57" font-family="Helvetica,sans-Serif" font-size="10.00">Dialog</text>
</a>
</g>
</g>
<!-- Node32&#45;&gt;Node33 -->
<g id="edge41" class="edge">
<title>Node32&#45;&gt;Node33</title>
<path fill="none" stroke="midnightblue" d="M1464.79,-72.05C1456.17,-71.93 1447.52,-71.82 1439.05,-71.71"/>
<polygon fill="midnightblue" stroke="midnightblue" points="1464.84,-75.55 1474.88,-72.18 1464.93,-68.55 1464.84,-75.55"/>
</g>
<!-- Node35 -->
<g id="node35" class="node">
<title>Node35</title>
<g id="a_node35"><a xlink:href="classJoyControlStickEditDialog.html#a2baa35c50ff7528a03ec6f2ba1ed657d" target="_top" xlink:title=" ">
<polygon fill="white" stroke="black" points="1273,-0.5 1273,-30.5 1420,-30.5 1420,-0.5 1273,-0.5"/>
<text text-anchor="start" x="1281" y="-18.5" font-family="Helvetica,sans-Serif" font-size="10.00">JoyControlStickEditDialog</text>
<text text-anchor="middle" x="1346.5" y="-7.5" font-family="Helvetica,sans-Serif" font-size="10.00">::JoyControlStickEditDialog</text>
</a>
</g>
</g>
<!-- Node34&#45;&gt;Node35 -->
<g id="edge43" class="edge">
<title>Node34&#45;&gt;Node35</title>
<path fill="none" stroke="midnightblue" d="M1480.74,-19.01C1460.45,-18.48 1439.31,-17.92 1420,-17.41"/>
<polygon fill="midnightblue" stroke="midnightblue" points="1480.84,-22.52 1490.93,-19.28 1481.03,-15.52 1480.84,-22.52"/>
</g>
</g>
</svg>
