<?xml version="1.0" encoding="UTF-8" standalone="no"?>
<!DOCTYPE svg PUBLIC "-//W3C//DTD SVG 1.1//EN"
 "http://www.w3.org/Graphics/SVG/1.1/DTD/svg11.dtd">
<!-- Generated by graphviz version 2.43.0 (0)
 -->
<!-- Title: InputDevice::updateSetButtonNames Pages: 1 -->
<svg width="562pt" height="154pt"
 viewBox="0.00 0.00 562.00 153.50" xmlns="http://www.w3.org/2000/svg" xmlns:xlink="http://www.w3.org/1999/xlink">
<g id="graph0" class="graph" transform="scale(1 1) rotate(0) translate(4 149.5)">
<title>InputDevice::updateSetButtonNames</title>
<polygon fill="white" stroke="transparent" points="-4,4 -4,-149.5 558,-149.5 558,4 -4,4"/>
<!-- Node1 -->
<g id="node1" class="node">
<title>Node1</title>
<g id="a_node1"><a xlink:title=" ">
<polygon fill="#bfbfbf" stroke="black" points="0,-33 0,-63 163,-63 163,-33 0,-33"/>
<text text-anchor="start" x="8" y="-51" font-family="Helvetica,sans-Serif" font-size="10.00">InputDevice::updateSetButton</text>
<text text-anchor="middle" x="81.5" y="-40" font-family="Helvetica,sans-Serif" font-size="10.00">Names</text>
</a>
</g>
</g>
<!-- Node2 -->
<g id="node2" class="node">
<title>Node2</title>
<g id="a_node2"><a xlink:href="classInputDevice.html#abc23a70bef37f2fc70248cd129af170b" target="_top" xlink:title=" ">
<polygon fill="white" stroke="black" points="206.5,-115 206.5,-145 349.5,-145 349.5,-115 206.5,-115"/>
<text text-anchor="start" x="214.5" y="-133" font-family="Helvetica,sans-Serif" font-size="10.00">InputDevice::getActiveSet</text>
<text text-anchor="middle" x="278" y="-122" font-family="Helvetica,sans-Serif" font-size="10.00">Joystick</text>
</a>
</g>
</g>
<!-- Node1&#45;&gt;Node2 -->
<g id="edge1" class="edge">
<title>Node1&#45;&gt;Node2</title>
<path fill="none" stroke="midnightblue" d="M110.7,-63.23C133.98,-75.45 168.08,-92.56 199,-105 204.71,-107.3 210.73,-109.54 216.77,-111.67"/>
<polygon fill="midnightblue" stroke="midnightblue" points="215.67,-114.99 226.27,-114.92 217.94,-108.37 215.67,-114.99"/>
</g>
<!-- Node4 -->
<g id="node4" class="node">
<title>Node4</title>
<g id="a_node4"><a xlink:href="classJoyButton.html#a7123f5432bda7b5b9d4b2b95bdabf4db" target="_top" xlink:title=" ">
<polygon fill="white" stroke="black" points="204.5,-76.5 204.5,-95.5 351.5,-95.5 351.5,-76.5 204.5,-76.5"/>
<text text-anchor="middle" x="278" y="-83.5" font-family="Helvetica,sans-Serif" font-size="10.00">JoyButton::getButtonName</text>
</a>
</g>
</g>
<!-- Node1&#45;&gt;Node4 -->
<g id="edge3" class="edge">
<title>Node1&#45;&gt;Node4</title>
<path fill="none" stroke="midnightblue" d="M159.37,-63.02C178.99,-66.85 199.77,-70.91 218.32,-74.54"/>
<polygon fill="midnightblue" stroke="midnightblue" points="217.88,-78.02 228.37,-76.5 219.23,-71.15 217.88,-78.02"/>
</g>
<!-- Node5 -->
<g id="node5" class="node">
<title>Node5</title>
<g id="a_node5"><a xlink:href="classSetJoystick.html#a652994327142229429b0d6f43a96103a" target="_top" xlink:title=" ">
<polygon fill="white" stroke="black" points="208,-0.5 208,-19.5 348,-19.5 348,-0.5 208,-0.5"/>
<text text-anchor="middle" x="278" y="-7.5" font-family="Helvetica,sans-Serif" font-size="10.00">SetJoystick::getJoyButton</text>
</a>
</g>
</g>
<!-- Node1&#45;&gt;Node5 -->
<g id="edge4" class="edge">
<title>Node1&#45;&gt;Node5</title>
<path fill="none" stroke="midnightblue" d="M159.37,-32.98C178.99,-29.15 199.77,-25.09 218.32,-21.46"/>
<polygon fill="midnightblue" stroke="midnightblue" points="219.23,-24.85 228.37,-19.5 217.88,-17.98 219.23,-24.85"/>
</g>
<!-- Node7 -->
<g id="node7" class="node">
<title>Node7</title>
<g id="a_node7"><a xlink:href="classInputDevice.html#a5a47b5126be20615a458dc864153c79c" target="_top" xlink:title=" ">
<polygon fill="white" stroke="black" points="199,-38.5 199,-57.5 357,-57.5 357,-38.5 199,-38.5"/>
<text text-anchor="middle" x="278" y="-45.5" font-family="Helvetica,sans-Serif" font-size="10.00">InputDevice::setButtonName</text>
</a>
</g>
</g>
<!-- Node1&#45;&gt;Node7 -->
<g id="edge6" class="edge">
<title>Node1&#45;&gt;Node7</title>
<path fill="none" stroke="midnightblue" d="M163.01,-41.34C171.5,-41.25 180.17,-41.23 188.74,-41.28"/>
<polygon fill="midnightblue" stroke="midnightblue" points="188.71,-44.78 198.74,-41.37 188.77,-37.78 188.71,-44.78"/>
</g>
<!-- Node3 -->
<g id="node3" class="node">
<title>Node3</title>
<g id="a_node3"><a xlink:href="classInputDevice.html#af6633e823a5d5d441940cf923d9249a6" target="_top" xlink:title=" ">
<polygon fill="white" stroke="black" points="393,-98.5 393,-117.5 554,-117.5 554,-98.5 393,-98.5"/>
<text text-anchor="middle" x="473.5" y="-105.5" font-family="Helvetica,sans-Serif" font-size="10.00">InputDevice::getJoystick_sets</text>
</a>
</g>
</g>
<!-- Node2&#45;&gt;Node3 -->
<g id="edge2" class="edge">
<title>Node2&#45;&gt;Node3</title>
<path fill="none" stroke="midnightblue" d="M349.68,-121.96C360.42,-120.74 371.63,-119.47 382.72,-118.21"/>
<polygon fill="midnightblue" stroke="midnightblue" points="383.31,-121.66 392.85,-117.06 382.52,-114.71 383.31,-121.66"/>
</g>
<!-- Node6 -->
<g id="node6" class="node">
<title>Node6</title>
<g id="a_node6"><a xlink:href="classSetJoystick.html#ac5baae46a0b3924a83b523ad89819a53" target="_top" xlink:title=" ">
<polygon fill="white" stroke="black" points="408.5,-0.5 408.5,-19.5 538.5,-19.5 538.5,-0.5 408.5,-0.5"/>
<text text-anchor="middle" x="473.5" y="-7.5" font-family="Helvetica,sans-Serif" font-size="10.00">SetJoystick::getButtons</text>
</a>
</g>
</g>
<!-- Node5&#45;&gt;Node6 -->
<g id="edge5" class="edge">
<title>Node5&#45;&gt;Node6</title>
<path fill="none" stroke="midnightblue" d="M348.04,-10C364.31,-10 381.72,-10 398.21,-10"/>
<polygon fill="midnightblue" stroke="midnightblue" points="398.34,-13.5 408.34,-10 398.34,-6.5 398.34,-13.5"/>
</g>
<!-- Node7&#45;&gt;Node1 -->
<g id="edge9" class="edge">
<title>Node7&#45;&gt;Node1</title>
<path fill="none" stroke="midnightblue" d="M198.74,-54.63C190.28,-54.74 181.63,-54.77 173.04,-54.74"/>
<polygon fill="midnightblue" stroke="midnightblue" points="173.04,-51.24 163.01,-54.66 172.99,-58.24 173.04,-51.24"/>
</g>
<!-- Node7&#45;&gt;Node3 -->
<g id="edge7" class="edge">
<title>Node7&#45;&gt;Node3</title>
<path fill="none" stroke="midnightblue" d="M321.72,-57.57C333.24,-60.38 345.65,-63.61 357,-67 384.71,-75.27 415.54,-86.31 438.38,-94.85"/>
<polygon fill="midnightblue" stroke="midnightblue" points="437.37,-98.21 447.96,-98.46 439.84,-91.66 437.37,-98.21"/>
</g>
<!-- Node8 -->
<g id="node8" class="node">
<title>Node8</title>
<g id="a_node8"><a xlink:href="classJoyButton.html#a5577eb227e3fd535fdcbbf395648e215" target="_top" xlink:title=" ">
<polygon fill="white" stroke="black" points="400.5,-38.5 400.5,-57.5 546.5,-57.5 546.5,-38.5 400.5,-38.5"/>
<text text-anchor="middle" x="473.5" y="-45.5" font-family="Helvetica,sans-Serif" font-size="10.00">JoyButton::setButtonName</text>
</a>
</g>
</g>
<!-- Node7&#45;&gt;Node8 -->
<g id="edge8" class="edge">
<title>Node7&#45;&gt;Node8</title>
<path fill="none" stroke="midnightblue" d="M357.15,-48C368.07,-48 379.32,-48 390.31,-48"/>
<polygon fill="midnightblue" stroke="midnightblue" points="390.32,-51.5 400.32,-48 390.32,-44.5 390.32,-51.5"/>
</g>
</g>
</svg>
