<?xml version="1.0" encoding="UTF-8" standalone="no"?>
<!DOCTYPE svg PUBLIC "-//W3C//DTD SVG 1.1//EN"
 "http://www.w3.org/Graphics/SVG/1.1/DTD/svg11.dtd">
<!-- Generated by graphviz version 2.43.0 (0)
 -->
<!-- Title: QuickSetDialog::connectBtnForDialog Pages: 1 -->
<svg width="721pt" height="215pt"
 viewBox="0.00 0.00 721.00 214.50" xmlns="http://www.w3.org/2000/svg" xmlns:xlink="http://www.w3.org/1999/xlink">
<g id="graph0" class="graph" transform="scale(1 1) rotate(0) translate(4 210.5)">
<title>QuickSetDialog::connectBtnForDialog</title>
<polygon fill="white" stroke="transparent" points="-4,4 -4,-210.5 717,-210.5 717,4 -4,4"/>
<!-- Node1 -->
<g id="node1" class="node">
<title>Node1</title>
<g id="a_node1"><a xlink:title=" ">
<polygon fill="#bfbfbf" stroke="black" points="0,-93.5 0,-123.5 152,-123.5 152,-93.5 0,-93.5"/>
<text text-anchor="start" x="8" y="-111.5" font-family="Helvetica,sans-Serif" font-size="10.00">QuickSetDialog::connectBtn</text>
<text text-anchor="middle" x="76" y="-100.5" font-family="Helvetica,sans-Serif" font-size="10.00">ForDialog</text>
</a>
</g>
</g>
<!-- Node2 -->
<g id="node2" class="node">
<title>Node2</title>
<g id="a_node2"><a xlink:href="classSetJoystick.html#ac5baae46a0b3924a83b523ad89819a53" target="_top" xlink:title=" ">
<polygon fill="white" stroke="black" points="200.5,-187 200.5,-206 330.5,-206 330.5,-187 200.5,-187"/>
<text text-anchor="middle" x="265.5" y="-194" font-family="Helvetica,sans-Serif" font-size="10.00">SetJoystick::getButtons</text>
</a>
</g>
</g>
<!-- Node1&#45;&gt;Node2 -->
<g id="edge1" class="edge">
<title>Node1&#45;&gt;Node2</title>
<path fill="none" stroke="midnightblue" d="M96.82,-123.5C118.25,-139.07 153.93,-163.1 188,-177.5 193.87,-179.98 200.14,-182.19 206.47,-184.14"/>
<polygon fill="midnightblue" stroke="midnightblue" points="205.83,-187.6 216.41,-187 207.77,-180.87 205.83,-187.6"/>
</g>
<!-- Node3 -->
<g id="node3" class="node">
<title>Node3</title>
<g id="a_node3"><a xlink:href="classJoyButton.html#abbccee98e377453167a47b49874eeab7" target="_top" xlink:title=" ">
<polygon fill="white" stroke="black" points="193.5,-137.5 193.5,-167.5 337.5,-167.5 337.5,-137.5 193.5,-137.5"/>
<text text-anchor="start" x="201.5" y="-155.5" font-family="Helvetica,sans-Serif" font-size="10.00">JoyButton::getIgnoreEvent</text>
<text text-anchor="middle" x="265.5" y="-144.5" font-family="Helvetica,sans-Serif" font-size="10.00">State</text>
</a>
</g>
</g>
<!-- Node1&#45;&gt;Node3 -->
<g id="edge2" class="edge">
<title>Node1&#45;&gt;Node3</title>
<path fill="none" stroke="midnightblue" d="M141,-123.52C156.9,-127.25 174.08,-131.28 190.42,-135.12"/>
<polygon fill="midnightblue" stroke="midnightblue" points="189.93,-138.6 200.47,-137.47 191.53,-131.78 189.93,-138.6"/>
</g>
<!-- Node4 -->
<g id="node4" class="node">
<title>Node4</title>
<g id="a_node4"><a xlink:href="classJoyButton.html#a6dd1ad602ca81b63035a872724c96e98" target="_top" xlink:title=" ">
<polygon fill="white" stroke="black" points="201.5,-99 201.5,-118 329.5,-118 329.5,-99 201.5,-99"/>
<text text-anchor="middle" x="265.5" y="-106" font-family="Helvetica,sans-Serif" font-size="10.00">JoyButton::isPartVDPad</text>
</a>
</g>
</g>
<!-- Node1&#45;&gt;Node4 -->
<g id="edge3" class="edge">
<title>Node1&#45;&gt;Node4</title>
<path fill="none" stroke="midnightblue" d="M152.18,-108.5C165.05,-108.5 178.39,-108.5 191.21,-108.5"/>
<polygon fill="midnightblue" stroke="midnightblue" points="191.35,-112 201.35,-108.5 191.35,-105 191.35,-112"/>
</g>
<!-- Node5 -->
<g id="node5" class="node">
<title>Node5</title>
<g id="a_node5"><a xlink:href="classJoyButton.html#aa8eaea52cff793034b943af1eb292b6c" target="_top" xlink:title=" ">
<polygon fill="white" stroke="black" points="194,-49.5 194,-79.5 337,-79.5 337,-49.5 194,-49.5"/>
<text text-anchor="start" x="202" y="-67.5" font-family="Helvetica,sans-Serif" font-size="10.00">JoyButton::setIgnoreEvent</text>
<text text-anchor="middle" x="265.5" y="-56.5" font-family="Helvetica,sans-Serif" font-size="10.00">State</text>
</a>
</g>
</g>
<!-- Node1&#45;&gt;Node5 -->
<g id="edge4" class="edge">
<title>Node1&#45;&gt;Node5</title>
<path fill="none" stroke="midnightblue" d="M141,-93.48C156.9,-89.75 174.08,-85.72 190.42,-81.88"/>
<polygon fill="midnightblue" stroke="midnightblue" points="191.53,-85.22 200.47,-79.53 189.93,-78.4 191.53,-85.22"/>
</g>
<!-- Node6 -->
<g id="node6" class="node">
<title>Node6</title>
<g id="a_node6"><a xlink:href="classQuickSetDialog.html#abc94158041ae6895da77662156b64591" target="_top" xlink:title=" ">
<polygon fill="white" stroke="black" points="188,-0.5 188,-30.5 343,-30.5 343,-0.5 188,-0.5"/>
<text text-anchor="start" x="196" y="-18.5" font-family="Helvetica,sans-Serif" font-size="10.00">QuickSetDialog::showButton</text>
<text text-anchor="middle" x="265.5" y="-7.5" font-family="Helvetica,sans-Serif" font-size="10.00">Dialog</text>
</a>
</g>
</g>
<!-- Node1&#45;&gt;Node6 -->
<g id="edge5" class="edge">
<title>Node1&#45;&gt;Node6</title>
<path fill="none" stroke="midnightblue" d="M98.27,-93.38C120.02,-78.44 155.17,-55.66 188,-40.5 192.92,-38.23 198.1,-36.07 203.35,-34.05"/>
<polygon fill="midnightblue" stroke="midnightblue" points="204.66,-37.29 212.84,-30.55 202.24,-30.73 204.66,-37.29"/>
</g>
<!-- Node7 -->
<g id="node7" class="node">
<title>Node7</title>
<g id="a_node7"><a xlink:href="classQuickSetDialog.html#af61daea37a622937669c8043f42e70b8" target="_top" xlink:title=" ">
<polygon fill="white" stroke="black" points="379,-0.5 379,-30.5 546,-30.5 546,-0.5 379,-0.5"/>
<text text-anchor="start" x="387" y="-18.5" font-family="Helvetica,sans-Serif" font-size="10.00">QuickSetDialog::invokeMethod</text>
<text text-anchor="middle" x="462.5" y="-7.5" font-family="Helvetica,sans-Serif" font-size="10.00">LastBtn</text>
</a>
</g>
</g>
<!-- Node6&#45;&gt;Node7 -->
<g id="edge6" class="edge">
<title>Node6&#45;&gt;Node7</title>
<path fill="none" stroke="midnightblue" d="M343.01,-15.5C351.45,-15.5 360.1,-15.5 368.71,-15.5"/>
<polygon fill="midnightblue" stroke="midnightblue" points="368.77,-19 378.77,-15.5 368.77,-12 368.77,-19"/>
</g>
<!-- Node8 -->
<g id="node8" class="node">
<title>Node8</title>
<g id="a_node8"><a xlink:href="classButtonEditDialogHelper.html#a2160209c705906abf0510c903f432f42" target="_top" xlink:title=" ">
<polygon fill="white" stroke="black" points="582,-0.5 582,-30.5 713,-30.5 713,-0.5 582,-0.5"/>
<text text-anchor="start" x="590" y="-18.5" font-family="Helvetica,sans-Serif" font-size="10.00">ButtonEditDialogHelper</text>
<text text-anchor="middle" x="647.5" y="-7.5" font-family="Helvetica,sans-Serif" font-size="10.00">::setThisButton</text>
</a>
</g>
</g>
<!-- Node7&#45;&gt;Node8 -->
<g id="edge7" class="edge">
<title>Node7&#45;&gt;Node8</title>
<path fill="none" stroke="midnightblue" d="M546.17,-15.5C554.65,-15.5 563.24,-15.5 571.63,-15.5"/>
<polygon fill="midnightblue" stroke="midnightblue" points="571.75,-19 581.75,-15.5 571.75,-12 571.75,-19"/>
</g>
</g>
</svg>
