<?xml version="1.0" encoding="UTF-8" standalone="no"?>
<!DOCTYPE svg PUBLIC "-//W3C//DTD SVG 1.1//EN"
 "http://www.w3.org/Graphics/SVG/1.1/DTD/svg11.dtd">
<!-- Generated by graphviz version 2.43.0 (0)
 -->
<!-- Title: WinExtras::getCurrentWindowText Pages: 1 -->
<svg width="535pt" height="88pt"
 viewBox="0.00 0.00 535.00 88.00" xmlns="http://www.w3.org/2000/svg" xmlns:xlink="http://www.w3.org/1999/xlink">
<g id="graph0" class="graph" transform="scale(1 1) rotate(0) translate(4 84)">
<title>WinExtras::getCurrentWindowText</title>
<polygon fill="white" stroke="transparent" points="-4,4 -4,-84 531,-84 531,4 -4,4"/>
<!-- Node1 -->
<g id="node1" class="node">
<title>Node1</title>
<g id="a_node1"><a xlink:title="Get the window text of the window currently in focus.">
<polygon fill="#bfbfbf" stroke="black" points="344,-30 344,-49 527,-49 527,-30 344,-30"/>
<text text-anchor="middle" x="435.5" y="-37" font-family="Helvetica,sans-Serif" font-size="10.00">WinExtras::getCurrentWindowText</text>
</a>
</g>
</g>
<!-- Node2 -->
<g id="node2" class="node">
<title>Node2</title>
<g id="a_node2"><a xlink:href="classCapturedWindowInfoDialog.html#afadb9b4bbaec10e076a5ab94495194c6" target="_top" xlink:title=" ">
<polygon fill="white" stroke="black" points="152,-49.5 152,-79.5 308,-79.5 308,-49.5 152,-49.5"/>
<text text-anchor="start" x="160" y="-67.5" font-family="Helvetica,sans-Serif" font-size="10.00">CapturedWindowInfoDialog</text>
<text text-anchor="middle" x="230" y="-56.5" font-family="Helvetica,sans-Serif" font-size="10.00">::CapturedWindowInfoDialog</text>
</a>
</g>
</g>
<!-- Node1&#45;&gt;Node2 -->
<g id="edge1" class="edge">
<title>Node1&#45;&gt;Node2</title>
<path fill="none" stroke="midnightblue" d="M346.79,-50.27C333.99,-51.85 320.88,-53.46 308.3,-55"/>
<polygon fill="midnightblue" stroke="midnightblue" points="347.49,-53.72 356.98,-49.02 346.63,-46.77 347.49,-53.72"/>
</g>
<!-- Node3 -->
<g id="node3" class="node">
<title>Node3</title>
<g id="a_node3"><a xlink:href="classAutoProfileWatcher.html#ae6ec8b944a048017f3e9958525ccfb62" target="_top" xlink:title=" ">
<polygon fill="white" stroke="black" points="175,-0.5 175,-30.5 285,-30.5 285,-0.5 175,-0.5"/>
<text text-anchor="start" x="183" y="-18.5" font-family="Helvetica,sans-Serif" font-size="10.00">AutoProfileWatcher</text>
<text text-anchor="middle" x="230" y="-7.5" font-family="Helvetica,sans-Serif" font-size="10.00">::runAppCheck</text>
</a>
</g>
</g>
<!-- Node1&#45;&gt;Node3 -->
<g id="edge2" class="edge">
<title>Node1&#45;&gt;Node3</title>
<path fill="none" stroke="midnightblue" d="M343.69,-28.79C323.66,-26.43 303.06,-24 285.04,-21.87"/>
<polygon fill="midnightblue" stroke="midnightblue" points="343.44,-32.28 353.78,-29.98 344.26,-25.33 343.44,-32.28"/>
</g>
<!-- Node4 -->
<g id="node4" class="node">
<title>Node4</title>
<g id="a_node4"><a xlink:href="classAutoProfileWatcher.html#a6c9832eb02480c6909f49cbb05d5113c" target="_top" xlink:title=" ">
<polygon fill="white" stroke="black" points="0,-0.5 0,-30.5 116,-30.5 116,-0.5 0,-0.5"/>
<text text-anchor="start" x="8" y="-18.5" font-family="Helvetica,sans-Serif" font-size="10.00">AutoProfileWatcher</text>
<text text-anchor="middle" x="58" y="-7.5" font-family="Helvetica,sans-Serif" font-size="10.00">::AutoProfileWatcher</text>
</a>
</g>
</g>
<!-- Node3&#45;&gt;Node4 -->
<g id="edge3" class="edge">
<title>Node3&#45;&gt;Node4</title>
<path fill="none" stroke="midnightblue" d="M164.49,-15.5C148.63,-15.5 131.75,-15.5 116.26,-15.5"/>
<polygon fill="midnightblue" stroke="midnightblue" points="164.74,-19 174.74,-15.5 164.74,-12 164.74,-19"/>
</g>
</g>
</svg>
