<?xml version="1.0" encoding="UTF-8" standalone="no"?>
<!DOCTYPE svg PUBLIC "-//W3C//DTD SVG 1.1//EN"
 "http://www.w3.org/Graphics/SVG/1.1/DTD/svg11.dtd">
<!-- Generated by graphviz version 2.43.0 (0)
 -->
<!-- Title: MouseDPadSettingsDialog Pages: 1 -->
<!--zoomable 838 -->
<svg id="main" version="1.1" xmlns="http://www.w3.org/2000/svg" xmlns:xlink="http://www.w3.org/1999/xlink" xml:space="preserve" onload="init(evt)">
<style type="text/css"><![CDATA[
.edge:hover path { stroke: red; }
.edge:hover polygon { stroke: red; fill: red; }
]]></style>
<script type="text/javascript"><![CDATA[
var edges = document.getElementsByTagName('g');
if (edges && edges.length) {
  for (var i=0;i<edges.length;i++) {
    if (edges[i].id.substr(0,4)=='edge') {
      edges[i].setAttribute('class','edge');
    }
  }
}
]]></script>
        <defs>
                <circle id="rim" cx="0" cy="0" r="7"/>
                <circle id="rim2" cx="0" cy="0" r="3.5"/>
                <g id="zoomPlus">
                        <use xlink:href="#rim" fill="#404040">
                                <set attributeName="fill" to="#808080" begin="zoomplus.mouseover" end="zoomplus.mouseout"/>
                        </use>
                        <path d="M-4,0h8M0,-4v8" fill="none" stroke="white" stroke-width="1.5" pointer-events="none"/>
                </g>
                <g id="zoomMin">
                        <use xlink:href="#rim" fill="#404040">
                                <set attributeName="fill" to="#808080" begin="zoomminus.mouseover" end="zoomminus.mouseout"/>
                        </use>
                        <path d="M-4,0h8" fill="none" stroke="white" stroke-width="1.5" pointer-events="none"/>
                </g>
                <g id="dirArrow">
                        <path fill="none" stroke="white" stroke-width="1.5" d="M0,-3.0v7 M-2.5,-0.5L0,-3.0L2.5,-0.5"/>
                </g>
               <g id="resetDef">
                       <use xlink:href="#rim2" fill="#404040">
                               <set attributeName="fill" to="#808080" begin="reset.mouseover" end="reset.mouseout"/>
                       </use>
               </g>
        </defs>

<script type="text/javascript">
var viewWidth = 2389;
var viewHeight = 838;
var sectionId = 'dynsection-1';
</script>
<script xlink:href="svgpan.js"/>
<svg id="graph" class="graph">
<g id="viewport">
<title>MouseDPadSettingsDialog</title>
<polygon fill="white" stroke="transparent" points="-4,4 -4,-833.95 2385,-833.95 2385,4 -4,4"/>
<!-- Node1 -->
<g id="node1" class="node">
<title>Node1</title>
<g id="a_node1"><a xlink:title=" ">
<polygon fill="#bfbfbf" stroke="black" points="860,-772.45 860,-791.45 1005,-791.45 1005,-772.45 860,-772.45"/>
<text text-anchor="middle" x="932.5" y="-779.45" font-family="Helvetica,sans-Serif" font-size="10.00">MouseDPadSettingsDialog</text>
</a>
</g>
</g>
<!-- Node2 -->
<g id="node2" class="node">
<title>Node2</title>
<g id="a_node2"><a xlink:href="classMouseSettingsDialog.html" target="_top" xlink:title=" ">
<polygon fill="white" stroke="black" points="566,-810.45 566,-829.45 686,-829.45 686,-810.45 566,-810.45"/>
<text text-anchor="middle" x="626" y="-817.45" font-family="Helvetica,sans-Serif" font-size="10.00">MouseSettingsDialog</text>
</a>
</g>
</g>
<!-- Node2&#45;&gt;Node1 -->
<g id="edge1" class="edge">
<title>Node2&#45;&gt;Node1</title>
<path fill="none" stroke="midnightblue" d="M696.59,-813.56C738.75,-809.43 793.55,-803.59 842,-796.95 853.55,-795.36 865.9,-793.44 877.63,-791.51"/>
<polygon fill="midnightblue" stroke="midnightblue" points="696.05,-810.1 686.43,-814.55 696.72,-817.07 696.05,-810.1"/>
</g>
<!-- Node3 -->
<g id="node3" class="node">
<title>Node3</title>
<g id="a_node3"><a xlink:title=" ">
<polygon fill="white" stroke="#bfbfbf" points="307.5,-810.45 307.5,-829.45 363.5,-829.45 363.5,-810.45 307.5,-810.45"/>
<text text-anchor="middle" x="335.5" y="-817.45" font-family="Helvetica,sans-Serif" font-size="10.00">QDialog</text>
</a>
</g>
</g>
<!-- Node3&#45;&gt;Node2 -->
<g id="edge2" class="edge">
<title>Node3&#45;&gt;Node2</title>
<path fill="none" stroke="midnightblue" d="M373.73,-819.95C422.39,-819.95 508.2,-819.95 565.82,-819.95"/>
<polygon fill="midnightblue" stroke="midnightblue" points="373.64,-816.45 363.64,-819.95 373.64,-823.45 373.64,-816.45"/>
</g>
<!-- Node4 -->
<g id="node4" class="node">
<title>Node4</title>
<g id="a_node4"><a xlink:href="classSpringModeRegionPreview.html" target="_top" xlink:title=" ">
<polygon fill="white" stroke="black" points="552.5,-772.45 552.5,-791.45 699.5,-791.45 699.5,-772.45 552.5,-772.45"/>
<text text-anchor="middle" x="626" y="-779.45" font-family="Helvetica,sans-Serif" font-size="10.00">SpringModeRegionPreview</text>
</a>
</g>
</g>
<!-- Node4&#45;&gt;Node1 -->
<g id="edge3" class="edge">
<title>Node4&#45;&gt;Node1</title>
<path fill="none" stroke="#9a32cd" stroke-dasharray="5,2" d="M709.69,-781.95C756.62,-781.95 814.78,-781.95 859.77,-781.95"/>
<polygon fill="#9a32cd" stroke="#9a32cd" points="709.55,-778.45 699.55,-781.95 709.55,-785.45 709.55,-778.45"/>
<text text-anchor="middle" x="787.5" y="-784.95" font-family="Helvetica,sans-Serif" font-size="10.00"> springPreviewWidget</text>
</g>
<!-- Node5 -->
<g id="node5" class="node">
<title>Node5</title>
<g id="a_node5"><a xlink:title=" ">
<polygon fill="white" stroke="#bfbfbf" points="306,-772.45 306,-791.45 365,-791.45 365,-772.45 306,-772.45"/>
<text text-anchor="middle" x="335.5" y="-779.45" font-family="Helvetica,sans-Serif" font-size="10.00">QWidget</text>
</a>
</g>
</g>
<!-- Node5&#45;&gt;Node4 -->
<g id="edge4" class="edge">
<title>Node5&#45;&gt;Node4</title>
<path fill="none" stroke="midnightblue" d="M375.48,-781.95C420.71,-781.95 496.23,-781.95 552.37,-781.95"/>
<polygon fill="midnightblue" stroke="midnightblue" points="375.22,-778.45 365.22,-781.95 375.22,-785.45 375.22,-778.45"/>
</g>
<!-- Node6 -->
<g id="node6" class="node">
<title>Node6</title>
<g id="a_node6"><a xlink:href="classJoyDPad.html" target="_top" xlink:title=" ">
<polygon fill="white" stroke="black" points="307.5,-611.45 307.5,-630.45 363.5,-630.45 363.5,-611.45 307.5,-611.45"/>
<text text-anchor="middle" x="335.5" y="-618.45" font-family="Helvetica,sans-Serif" font-size="10.00">JoyDPad</text>
</a>
</g>
</g>
<!-- Node6&#45;&gt;Node1 -->
<g id="edge5" class="edge">
<title>Node6&#45;&gt;Node1</title>
<path fill="none" stroke="#9a32cd" stroke-dasharray="5,2" d="M373.23,-631.06C379.14,-632.5 385.22,-633.85 391,-634.95 589.44,-672.6 660.89,-601.53 842,-690.95 880.75,-710.08 912.39,-752.86 925.28,-772.17"/>
<polygon fill="#9a32cd" stroke="#9a32cd" points="374.07,-627.67 363.51,-628.62 372.35,-634.45 374.07,-627.67"/>
<text text-anchor="middle" x="626" y="-649.95" font-family="Helvetica,sans-Serif" font-size="10.00"> dpad</text>
</g>
<!-- Node17 -->
<g id="node17" class="node">
<title>Node17</title>
<g id="a_node17"><a xlink:href="classVDPad.html" target="_top" xlink:title=" ">
<polygon fill="white" stroke="black" points="602,-535.45 602,-554.45 650,-554.45 650,-535.45 602,-535.45"/>
<text text-anchor="middle" x="626" y="-542.45" font-family="Helvetica,sans-Serif" font-size="10.00">VDPad</text>
</a>
</g>
</g>
<!-- Node6&#45;&gt;Node17 -->
<g id="edge25" class="edge">
<title>Node6&#45;&gt;Node17</title>
<path fill="none" stroke="midnightblue" d="M349.68,-603.32C359.63,-591.45 374.37,-576.62 391,-568.95 462.2,-536.11 558.23,-539.03 601.79,-542.54"/>
<polygon fill="midnightblue" stroke="midnightblue" points="346.83,-601.29 343.33,-611.29 352.3,-605.65 346.83,-601.29"/>
</g>
<!-- Node27 -->
<g id="node27" class="node">
<title>Node27</title>
<g id="a_node27"><a xlink:href="classJoyDPadButton.html" target="_top" xlink:title=" ">
<polygon fill="white" stroke="black" points="1115.5,-611.45 1115.5,-630.45 1204.5,-630.45 1204.5,-611.45 1115.5,-611.45"/>
<text text-anchor="middle" x="1160" y="-618.45" font-family="Helvetica,sans-Serif" font-size="10.00">JoyDPadButton</text>
</a>
</g>
</g>
<!-- Node6&#45;&gt;Node27 -->
<g id="edge47" class="edge">
<title>Node6&#45;&gt;Node27</title>
<path fill="none" stroke="#9a32cd" stroke-dasharray="5,2" d="M374.13,-620.95C509.44,-620.95 970.92,-620.95 1115.39,-620.95"/>
<polygon fill="#9a32cd" stroke="#9a32cd" points="373.87,-617.45 363.87,-620.95 373.87,-624.45 373.87,-617.45"/>
<text text-anchor="middle" x="787.5" y="-623.95" font-family="Helvetica,sans-Serif" font-size="10.00"> m_dpad</text>
</g>
<!-- Node28 -->
<g id="node28" class="node">
<title>Node28</title>
<g id="a_node28"><a xlink:href="classMouseDpadSettingsDialogHelper.html" target="_top" xlink:title=" ">
<polygon fill="white" stroke="black" points="537,-696.45 537,-715.45 715,-715.45 715,-696.45 537,-696.45"/>
<text text-anchor="middle" x="626" y="-703.45" font-family="Helvetica,sans-Serif" font-size="10.00">MouseDpadSettingsDialogHelper</text>
</a>
</g>
</g>
<!-- Node6&#45;&gt;Node28 -->
<g id="edge50" class="edge">
<title>Node6&#45;&gt;Node28</title>
<path fill="none" stroke="#9a32cd" stroke-dasharray="5,2" d="M350.58,-638.39C360.62,-649.57 375.12,-663.37 391,-670.95 404.97,-677.62 483.63,-688.57 545.95,-696.45"/>
<polygon fill="#9a32cd" stroke="#9a32cd" points="352.98,-635.81 343.82,-630.49 347.66,-640.36 352.98,-635.81"/>
<text text-anchor="middle" x="455" y="-694.95" font-family="Helvetica,sans-Serif" font-size="10.00"> dpad</text>
</g>
<!-- Node7 -->
<g id="node7" class="node">
<title>Node7</title>
<g id="a_node7"><a xlink:title=" ">
<polygon fill="white" stroke="#bfbfbf" points="124.5,-244.45 124.5,-263.45 180.5,-263.45 180.5,-244.45 124.5,-244.45"/>
<text text-anchor="middle" x="152.5" y="-251.45" font-family="Helvetica,sans-Serif" font-size="10.00">QObject</text>
</a>
</g>
</g>
<!-- Node7&#45;&gt;Node6 -->
<g id="edge6" class="edge">
<title>Node7&#45;&gt;Node6</title>
<path fill="none" stroke="midnightblue" d="M160.75,-273.43C172.55,-304.63 197.1,-367.5 222,-418.95 258.73,-494.82 310.9,-582.14 328.47,-611.08"/>
<polygon fill="midnightblue" stroke="midnightblue" points="163.93,-271.92 157.13,-263.79 157.37,-274.38 163.93,-271.92"/>
</g>
<!-- Node9 -->
<g id="node9" class="node">
<title>Node9</title>
<g id="a_node9"><a xlink:href="classSetJoystickXml.html" target="_top" xlink:title="SetJoystick XML serialization/deserialization helper class Reads data from the supplied SetJoystick o...">
<polygon fill="white" stroke="black" points="2112,-350.45 2112,-369.45 2202,-369.45 2202,-350.45 2112,-350.45"/>
<text text-anchor="middle" x="2157" y="-357.45" font-family="Helvetica,sans-Serif" font-size="10.00">SetJoystickXml</text>
</a>
</g>
</g>
<!-- Node7&#45;&gt;Node9 -->
<g id="edge9" class="edge">
<title>Node7&#45;&gt;Node9</title>
<path fill="none" stroke="midnightblue" d="M160.64,-234.83C170.73,-210.28 191.42,-167.87 222,-142.95 263.26,-109.33 281.28,-101.95 334.5,-101.95 334.5,-101.95 334.5,-101.95 1975,-101.95 2098.66,-101.95 2145.05,-303.02 2154.22,-350.15"/>
<polygon fill="midnightblue" stroke="midnightblue" points="157.26,-233.86 156.86,-244.44 163.78,-236.42 157.26,-233.86"/>
</g>
<!-- Node10 -->
<g id="node10" class="node">
<title>Node10</title>
<g id="a_node10"><a xlink:href="classJoyAxisXml.html" target="_top" xlink:title=" ">
<polygon fill="white" stroke="black" points="1938,-346.45 1938,-365.45 2010,-365.45 2010,-346.45 1938,-346.45"/>
<text text-anchor="middle" x="1974" y="-353.45" font-family="Helvetica,sans-Serif" font-size="10.00">JoyAxisXml</text>
</a>
</g>
</g>
<!-- Node7&#45;&gt;Node10 -->
<g id="edge12" class="edge">
<title>Node7&#45;&gt;Node10</title>
<path fill="none" stroke="midnightblue" d="M165.67,-235.77C178.01,-218.63 198.58,-193.34 222,-177.95 266.1,-148.96 281.72,-139.95 334.5,-139.95 334.5,-139.95 334.5,-139.95 1786.5,-139.95 1897.23,-139.95 1956.77,-304.59 1970.1,-346.39"/>
<polygon fill="midnightblue" stroke="midnightblue" points="162.54,-234.13 159.7,-244.34 168.29,-238.14 162.54,-234.13"/>
</g>
<!-- Node11 -->
<g id="node11" class="node">
<title>Node11</title>
<g id="a_node11"><a xlink:href="classJoyAxis.html" target="_top" xlink:title="Represents single axis of of joystick (or other input)">
<polygon fill="white" stroke="black" points="1759,-350.45 1759,-369.45 1812,-369.45 1812,-350.45 1759,-350.45"/>
<text text-anchor="middle" x="1785.5" y="-357.45" font-family="Helvetica,sans-Serif" font-size="10.00">JoyAxis</text>
</a>
</g>
</g>
<!-- Node7&#45;&gt;Node11 -->
<g id="edge14" class="edge">
<title>Node7&#45;&gt;Node11</title>
<path fill="none" stroke="midnightblue" d="M190.37,-241.53C226.62,-230.45 283.73,-215.95 334.5,-215.95 334.5,-215.95 334.5,-215.95 1161,-215.95 1187.91,-215.95 1194.1,-227.8 1213,-246.95 1236.08,-270.34 1222.32,-293.25 1250,-310.95 1271.71,-324.83 1655.13,-351.32 1758.83,-358.25"/>
<polygon fill="midnightblue" stroke="midnightblue" points="189.22,-238.23 180.72,-244.55 191.31,-244.91 189.22,-238.23"/>
</g>
<!-- Node14 -->
<g id="node14" class="node">
<title>Node14</title>
<g id="a_node14"><a xlink:href="classJoyButton.html" target="_top" xlink:title="Represents a single joystick button being part of a SetJoystick Contains multiple JoyButtonSlots whic...">
<polygon fill="white" stroke="black" points="900.5,-386.45 900.5,-405.45 964.5,-405.45 964.5,-386.45 900.5,-386.45"/>
<text text-anchor="middle" x="932.5" y="-393.45" font-family="Helvetica,sans-Serif" font-size="10.00">JoyButton</text>
</a>
</g>
</g>
<!-- Node7&#45;&gt;Node14 -->
<g id="edge19" class="edge">
<title>Node7&#45;&gt;Node14</title>
<path fill="none" stroke="midnightblue" d="M190.56,-262.02C200.73,-264.1 211.77,-266.23 222,-267.95 439.96,-304.54 496.03,-303 715,-332.95 771.48,-340.67 787.59,-333.92 842,-350.95 869.55,-359.57 899,-375.93 916.31,-386.37"/>
<polygon fill="midnightblue" stroke="midnightblue" points="191.25,-258.59 180.75,-259.98 189.83,-265.44 191.25,-258.59"/>
</g>
<!-- Node15 -->
<g id="node15" class="node">
<title>Node15</title>
<g id="a_node15"><a xlink:href="classJoyButtonMouseHelper.html" target="_top" xlink:title=" ">
<polygon fill="white" stroke="black" points="391,-462.45 391,-481.45 519,-481.45 519,-462.45 391,-462.45"/>
<text text-anchor="middle" x="455" y="-469.45" font-family="Helvetica,sans-Serif" font-size="10.00">JoyButtonMouseHelper</text>
</a>
</g>
</g>
<!-- Node7&#45;&gt;Node15 -->
<g id="edge21" class="edge">
<title>Node7&#45;&gt;Node15</title>
<path fill="none" stroke="midnightblue" d="M167.18,-271.54C180.21,-287.62 200.91,-311.49 222,-328.95 293.98,-388.54 392.98,-441.3 434.47,-462.29"/>
<polygon fill="midnightblue" stroke="midnightblue" points="169.74,-269.14 160.78,-263.5 164.27,-273.5 169.74,-269.14"/>
</g>
<!-- Node16 -->
<g id="node16" class="node">
<title>Node16</title>
<g id="a_node16"><a xlink:href="classJoyButtonSlot.html" target="_top" xlink:title="Represents action which can be performed after pressing button.">
<polygon fill="white" stroke="black" points="413.5,-324.45 413.5,-343.45 496.5,-343.45 496.5,-324.45 413.5,-324.45"/>
<text text-anchor="middle" x="455" y="-331.45" font-family="Helvetica,sans-Serif" font-size="10.00">JoyButtonSlot</text>
</a>
</g>
</g>
<!-- Node7&#45;&gt;Node16 -->
<g id="edge23" class="edge">
<title>Node7&#45;&gt;Node16</title>
<path fill="none" stroke="midnightblue" d="M170.26,-270.78C183.23,-282.71 202.25,-297.95 222,-305.95 285.36,-331.6 365.82,-335.62 413.42,-335.36"/>
<polygon fill="midnightblue" stroke="midnightblue" points="172.32,-267.91 162.67,-263.53 167.49,-272.97 172.32,-267.91"/>
</g>
<!-- Node18 -->
<g id="node18" class="node">
<title>Node18</title>
<g id="a_node18"><a xlink:href="classJoyControlStick.html" target="_top" xlink:title="Represents stick of a joystick.">
<polygon fill="white" stroke="black" points="1525,-238.45 1525,-257.45 1616,-257.45 1616,-238.45 1525,-238.45"/>
<text text-anchor="middle" x="1570.5" y="-245.45" font-family="Helvetica,sans-Serif" font-size="10.00">JoyControlStick</text>
</a>
</g>
</g>
<!-- Node7&#45;&gt;Node18 -->
<g id="edge28" class="edge">
<title>Node7&#45;&gt;Node18</title>
<path fill="none" stroke="midnightblue" d="M170.94,-237.23C184,-225.62 202.85,-210.73 222,-201.95 268.48,-180.65 283.37,-177.95 334.5,-177.95 334.5,-177.95 334.5,-177.95 1232,-177.95 1349.59,-177.95 1485.51,-219.19 1542.34,-238.36"/>
<polygon fill="midnightblue" stroke="midnightblue" points="168.25,-234.94 163.24,-244.28 172.98,-240.1 168.25,-234.94"/>
</g>
<!-- Node22 -->
<g id="node22" class="node">
<title>Node22</title>
<g id="a_node22"><a xlink:href="classJoyButtonXml.html" target="_top" xlink:title=" ">
<polygon fill="white" stroke="black" points="1118.5,-386.45 1118.5,-405.45 1201.5,-405.45 1201.5,-386.45 1118.5,-386.45"/>
<text text-anchor="middle" x="1160" y="-393.45" font-family="Helvetica,sans-Serif" font-size="10.00">JoyButtonXml</text>
</a>
</g>
</g>
<!-- Node7&#45;&gt;Node22 -->
<g id="edge37" class="edge">
<title>Node7&#45;&gt;Node22</title>
<path fill="none" stroke="midnightblue" d="M190.8,-256.36C281.08,-262.45 518.45,-279.98 715,-307.95 771.87,-316.04 785.62,-320.93 842,-331.95 941.46,-351.39 1058.26,-375.23 1118.5,-387.6"/>
<polygon fill="midnightblue" stroke="midnightblue" points="190.99,-252.86 180.78,-255.69 190.52,-259.85 190.99,-252.86"/>
</g>
<!-- Node23 -->
<g id="node23" class="node">
<title>Node23</title>
<g id="a_node23"><a xlink:href="classInputDevice.html" target="_top" xlink:title="Abstract class representing a hardware input device, e.g a joystick or controller.">
<polygon fill="white" stroke="black" points="298,-32.45 298,-51.45 373,-51.45 373,-32.45 298,-32.45"/>
<text text-anchor="middle" x="335.5" y="-39.45" font-family="Helvetica,sans-Serif" font-size="10.00">InputDevice</text>
</a>
</g>
</g>
<!-- Node7&#45;&gt;Node23 -->
<g id="edge40" class="edge">
<title>Node7&#45;&gt;Node23</title>
<path fill="none" stroke="midnightblue" d="M156.58,-234.16C162.88,-199.96 180.34,-129.47 222,-87.95 233.96,-76.03 274.91,-61.04 303.95,-51.48"/>
<polygon fill="midnightblue" stroke="midnightblue" points="153.08,-233.83 154.85,-244.27 159.98,-235 153.08,-233.83"/>
</g>
<!-- Node7&#45;&gt;Node28 -->
<g id="edge49" class="edge">
<title>Node7&#45;&gt;Node28</title>
<path fill="none" stroke="midnightblue" d="M156.05,-273.75C164.88,-335.07 199.16,-524.57 298,-639.95 330.81,-678.25 342.93,-689.7 391,-704.95 447.54,-722.88 515.7,-720.68 563.83,-715.49"/>
<polygon fill="midnightblue" stroke="midnightblue" points="159.48,-272.98 154.65,-263.55 152.54,-273.93 159.48,-272.98"/>
</g>
<!-- Node8 -->
<g id="node8" class="node">
<title>Node8</title>
<g id="a_node8"><a xlink:href="classSetJoystick.html" target="_top" xlink:title="A set of mapped events which can by switched by a controller event. Contains controller input objects...">
<polygon fill="white" stroke="black" points="2310,-376.45 2310,-395.45 2381,-395.45 2381,-376.45 2310,-376.45"/>
<text text-anchor="middle" x="2345.5" y="-383.45" font-family="Helvetica,sans-Serif" font-size="10.00">SetJoystick</text>
</a>
</g>
</g>
<!-- Node8&#45;&gt;Node6 -->
<g id="edge7" class="edge">
<title>Node8&#45;&gt;Node6</title>
<path fill="none" stroke="#9a32cd" stroke-dasharray="5,2" d="M2336.37,-405.05C2314.84,-452.32 2251.49,-570.95 2158,-570.95 1159,-570.95 1159,-570.95 1159,-570.95 846.06,-570.95 467.38,-607.46 363.8,-618.08"/>
<polygon fill="#9a32cd" stroke="#9a32cd" points="2339.7,-406.2 2340.54,-395.63 2333.29,-403.37 2339.7,-406.2"/>
<text text-anchor="middle" x="1469" y="-573.95" font-family="Helvetica,sans-Serif" font-size="10.00"> m_parentSet</text>
</g>
<!-- Node8&#45;&gt;Node9 -->
<g id="edge10" class="edge">
<title>Node8&#45;&gt;Node9</title>
<path fill="none" stroke="#9a32cd" stroke-dasharray="5,2" d="M2321.89,-371.33C2312.95,-366.37 2302.35,-361.45 2292,-358.95 2262.61,-351.83 2228.51,-352.2 2202.07,-354.29"/>
<polygon fill="#9a32cd" stroke="#9a32cd" points="2320.13,-374.36 2330.52,-376.42 2323.68,-368.33 2320.13,-374.36"/>
<text text-anchor="middle" x="2256" y="-361.95" font-family="Helvetica,sans-Serif" font-size="10.00"> m_setJoystick</text>
</g>
<!-- Node8&#45;&gt;Node11 -->
<g id="edge15" class="edge">
<title>Node8&#45;&gt;Node11</title>
<path fill="none" stroke="#9a32cd" stroke-dasharray="5,2" d="M2299.71,-389.59C2297.1,-389.73 2294.52,-389.85 2292,-389.95 2260.02,-391.16 2251.99,-390.71 2220,-389.95 2062.09,-386.17 2022.07,-389.66 1865,-372.95 1847.28,-371.06 1827.49,-367.78 1812.21,-364.98"/>
<polygon fill="#9a32cd" stroke="#9a32cd" points="2300.02,-393.08 2309.79,-388.97 2299.59,-386.09 2300.02,-393.08"/>
<text text-anchor="middle" x="2061" y="-389.95" font-family="Helvetica,sans-Serif" font-size="10.00"> m_parentSet</text>
</g>
<!-- Node9&#45;&gt;Node8 -->
<g id="edge8" class="edge">
<title>Node9&#45;&gt;Node8</title>
<path fill="none" stroke="midnightblue" d="M2212.33,-370.72C2214.92,-371.15 2217.49,-371.56 2220,-371.95 2250.21,-376.56 2284.76,-380.33 2309.79,-382.79"/>
<polygon fill="midnightblue" stroke="midnightblue" points="2212.75,-367.24 2202.29,-368.96 2211.54,-374.13 2212.75,-367.24"/>
</g>
<!-- Node10&#45;&gt;Node9 -->
<g id="edge11" class="edge">
<title>Node10&#45;&gt;Node9</title>
<path fill="none" stroke="#9a32cd" stroke-dasharray="5,2" d="M2020.31,-355.9C2042.52,-355.99 2069.66,-356.26 2094,-356.95 2099.82,-357.11 2105.94,-357.34 2111.98,-357.6"/>
<polygon fill="#9a32cd" stroke="#9a32cd" points="2020.16,-352.4 2010.15,-355.88 2020.14,-359.4 2020.16,-352.4"/>
<text text-anchor="middle" x="2061" y="-359.95" font-family="Helvetica,sans-Serif" font-size="10.00"> joyAxisXml</text>
</g>
<!-- Node11&#45;&gt;Node10 -->
<g id="edge13" class="edge">
<title>Node11&#45;&gt;Node10</title>
<path fill="none" stroke="#9a32cd" stroke-dasharray="5,2" d="M1822.24,-359.18C1855.53,-358.47 1904.85,-357.41 1937.92,-356.7"/>
<polygon fill="#9a32cd" stroke="#9a32cd" points="1821.96,-355.69 1812.04,-359.4 1822.11,-362.68 1821.96,-355.69"/>
<text text-anchor="middle" x="1892.5" y="-360.95" font-family="Helvetica,sans-Serif" font-size="10.00"> m_joyAxis</text>
</g>
<!-- Node12 -->
<g id="node12" class="node">
<title>Node12</title>
<g id="a_node12"><a xlink:href="classJoyAxisButton.html" target="_top" xlink:title=" ">
<polygon fill="white" stroke="black" points="1528,-358.45 1528,-377.45 1613,-377.45 1613,-358.45 1528,-358.45"/>
<text text-anchor="middle" x="1570.5" y="-365.45" font-family="Helvetica,sans-Serif" font-size="10.00">JoyAxisButton</text>
</a>
</g>
</g>
<!-- Node11&#45;&gt;Node12 -->
<g id="edge26" class="edge">
<title>Node11&#45;&gt;Node12</title>
<path fill="none" stroke="#9a32cd" stroke-dasharray="5,2" d="M1748.76,-359.6C1718.25,-359.49 1673.21,-359.81 1634,-361.95 1627.25,-362.32 1620.11,-362.86 1613.15,-363.47"/>
<polygon fill="#9a32cd" stroke="#9a32cd" points="1748.9,-363.1 1758.91,-359.65 1748.93,-356.1 1748.9,-363.1"/>
<text text-anchor="middle" x="1670" y="-364.95" font-family="Helvetica,sans-Serif" font-size="10.00"> m_axis</text>
</g>
<!-- Node12&#45;&gt;Node11 -->
<g id="edge16" class="edge">
<title>Node12&#45;&gt;Node11</title>
<path fill="none" stroke="#9a32cd" stroke-dasharray="5,2" d="M1623.31,-374.2C1626.93,-374.5 1630.51,-374.75 1634,-374.95 1665.95,-376.73 1674.14,-377.96 1706,-374.95 1723.82,-373.26 1743.61,-369.47 1758.87,-366.11"/>
<polygon fill="#9a32cd" stroke="#9a32cd" points="1623.41,-370.7 1613.13,-373.27 1622.77,-377.67 1623.41,-370.7"/>
<text text-anchor="middle" x="1670" y="-400.95" font-family="Helvetica,sans-Serif" font-size="10.00"> paxisbutton</text>
<text text-anchor="middle" x="1670" y="-389.95" font-family="Helvetica,sans-Serif" font-size="10.00">activeButton</text>
<text text-anchor="middle" x="1670" y="-378.95" font-family="Helvetica,sans-Serif" font-size="10.00">naxisbutton</text>
</g>
<!-- Node13 -->
<g id="node13" class="node">
<title>Node13</title>
<g id="a_node13"><a xlink:href="classJoyGradientButton.html" target="_top" xlink:title=" ">
<polygon fill="white" stroke="black" points="1107,-256.45 1107,-275.45 1213,-275.45 1213,-256.45 1107,-256.45"/>
<text text-anchor="middle" x="1160" y="-263.45" font-family="Helvetica,sans-Serif" font-size="10.00">JoyGradientButton</text>
</a>
</g>
</g>
<!-- Node13&#45;&gt;Node12 -->
<g id="edge17" class="edge">
<title>Node13&#45;&gt;Node12</title>
<path fill="none" stroke="midnightblue" d="M1174.71,-283.32C1190.59,-302 1218.62,-330.78 1250,-343.95 1343.22,-383.07 1465.12,-378.74 1527.99,-372.93"/>
<polygon fill="midnightblue" stroke="midnightblue" points="1177.36,-281.04 1168.3,-275.54 1171.96,-285.49 1177.36,-281.04"/>
</g>
<!-- Node20 -->
<g id="node20" class="node">
<title>Node20</title>
<g id="a_node20"><a xlink:href="classJoyControlStickModifierButton.html" target="_top" xlink:title=" ">
<polygon fill="white" stroke="black" points="1250,-282.45 1250,-301.45 1413,-301.45 1413,-282.45 1250,-282.45"/>
<text text-anchor="middle" x="1331.5" y="-289.45" font-family="Helvetica,sans-Serif" font-size="10.00">JoyControlStickModifierButton</text>
</a>
</g>
</g>
<!-- Node13&#45;&gt;Node20 -->
<g id="edge31" class="edge">
<title>Node13&#45;&gt;Node20</title>
<path fill="none" stroke="midnightblue" d="M1223.24,-275.49C1237.94,-277.75 1253.61,-280.15 1268.31,-282.41"/>
<polygon fill="midnightblue" stroke="midnightblue" points="1223.65,-272.02 1213.24,-273.96 1222.59,-278.94 1223.65,-272.02"/>
</g>
<!-- Node21 -->
<g id="node21" class="node">
<title>Node21</title>
<g id="a_node21"><a xlink:href="classJoyControlStickButton.html" target="_top" xlink:title=" ">
<polygon fill="white" stroke="black" points="1724,-204.45 1724,-223.45 1847,-223.45 1847,-204.45 1724,-204.45"/>
<text text-anchor="middle" x="1785.5" y="-211.45" font-family="Helvetica,sans-Serif" font-size="10.00">JoyControlStickButton</text>
</a>
</g>
</g>
<!-- Node13&#45;&gt;Node21 -->
<g id="edge34" class="edge">
<title>Node13&#45;&gt;Node21</title>
<path fill="none" stroke="midnightblue" d="M1193.38,-252.48C1210.02,-246.13 1230.79,-239.05 1250,-234.95 1417.52,-199.16 1462.86,-209.29 1634,-201.95 1665.97,-200.58 1674.09,-199.52 1706,-201.95 1713.56,-202.52 1721.5,-203.4 1729.3,-204.43"/>
<polygon fill="midnightblue" stroke="midnightblue" points="1191.63,-249.41 1183.6,-256.31 1194.19,-255.92 1191.63,-249.41"/>
</g>
<!-- Node14&#45;&gt;Node13 -->
<g id="edge18" class="edge">
<title>Node14&#45;&gt;Node13</title>
<path fill="none" stroke="midnightblue" d="M958.95,-381.28C1005.54,-354.42 1103.36,-298.03 1142.39,-275.52"/>
<polygon fill="midnightblue" stroke="midnightblue" points="957,-378.36 950.08,-386.39 960.49,-384.43 957,-378.36"/>
</g>
<!-- Node14&#45;&gt;Node22 -->
<g id="edge38" class="edge">
<title>Node14&#45;&gt;Node22</title>
<path fill="none" stroke="#9a32cd" stroke-dasharray="5,2" d="M975.01,-395.95C1015.87,-395.95 1077.85,-395.95 1118.38,-395.95"/>
<polygon fill="#9a32cd" stroke="#9a32cd" points="974.85,-392.45 964.85,-395.95 974.85,-399.45 974.85,-392.45"/>
<text text-anchor="middle" x="1056" y="-398.95" font-family="Helvetica,sans-Serif" font-size="10.00"> m_joyButton</text>
</g>
<!-- Node14&#45;&gt;Node27 -->
<g id="edge46" class="edge">
<title>Node14&#45;&gt;Node27</title>
<path fill="none" stroke="midnightblue" d="M950.36,-412.77C994.87,-457.18 1114.49,-576.54 1149.35,-611.32"/>
<polygon fill="midnightblue" stroke="midnightblue" points="952.74,-410.2 943.19,-405.62 947.8,-415.16 952.74,-410.2"/>
</g>
<!-- Node15&#45;&gt;Node14 -->
<g id="edge20" class="edge">
<title>Node15&#45;&gt;Node14</title>
<path fill="none" stroke="#9a32cd" stroke-dasharray="5,2" d="M517.53,-482.96C570.39,-490.49 648.39,-496.97 715,-483.95 793.25,-468.65 878.93,-424.99 914.53,-405.52"/>
<polygon fill="#9a32cd" stroke="#9a32cd" points="518.04,-479.5 507.64,-481.5 517.02,-486.42 518.04,-479.5"/>
<text text-anchor="middle" x="626" y="-493.95" font-family="Helvetica,sans-Serif" font-size="10.00"> mouseHelper</text>
</g>
<!-- Node16&#45;&gt;Node14 -->
<g id="edge22" class="edge">
<title>Node16&#45;&gt;Node14</title>
<path fill="none" stroke="#9a32cd" stroke-dasharray="5,2" d="M506.58,-335.5C558.93,-337.57 642.98,-342.17 715,-351.95 781.51,-360.98 858.26,-378.22 900.17,-388.23"/>
<polygon fill="#9a32cd" stroke="#9a32cd" points="506.67,-332 496.54,-335.12 506.4,-339 506.67,-332"/>
<text text-anchor="middle" x="626" y="-475.95" font-family="Helvetica,sans-Serif" font-size="10.00"> currentDelay</text>
<text text-anchor="middle" x="626" y="-464.95" font-family="Helvetica,sans-Serif" font-size="10.00">lastActiveKey</text>
<text text-anchor="middle" x="626" y="-453.95" font-family="Helvetica,sans-Serif" font-size="10.00">currentSetChangeSlot</text>
<text text-anchor="middle" x="626" y="-442.95" font-family="Helvetica,sans-Serif" font-size="10.00">currentKeyPress</text>
<text text-anchor="middle" x="626" y="-431.95" font-family="Helvetica,sans-Serif" font-size="10.00">currentRelease</text>
<text text-anchor="middle" x="626" y="-420.95" font-family="Helvetica,sans-Serif" font-size="10.00">currentCycle</text>
<text text-anchor="middle" x="626" y="-409.95" font-family="Helvetica,sans-Serif" font-size="10.00">previousCycle</text>
<text text-anchor="middle" x="626" y="-398.95" font-family="Helvetica,sans-Serif" font-size="10.00">m_currentDistance</text>
<text text-anchor="middle" x="626" y="-387.95" font-family="Helvetica,sans-Serif" font-size="10.00">currentPause</text>
<text text-anchor="start" x="568" y="-376.95" font-family="Helvetica,sans-Serif" font-size="10.00">currentWheelHorizontal</text>
<text text-anchor="middle" x="626" y="-365.95" font-family="Helvetica,sans-Serif" font-size="10.00">Event</text>
<text text-anchor="middle" x="626" y="-354.95" font-family="Helvetica,sans-Serif" font-size="10.00">...</text>
</g>
<!-- Node17&#45;&gt;Node14 -->
<g id="edge24" class="edge">
<title>Node17&#45;&gt;Node14</title>
<path fill="none" stroke="#9a32cd" stroke-dasharray="5,2" d="M660.23,-548.96C704.82,-552.69 784.99,-553.4 842,-519.95 888.94,-492.4 918.09,-429.46 927.85,-405.47"/>
<polygon fill="#9a32cd" stroke="#9a32cd" points="660.51,-545.47 650.22,-548.03 659.85,-552.44 660.51,-545.47"/>
<text text-anchor="middle" x="787.5" y="-551.95" font-family="Helvetica,sans-Serif" font-size="10.00"> m_vdpad</text>
</g>
<!-- Node18&#45;&gt;Node11 -->
<g id="edge27" class="edge">
<title>Node18&#45;&gt;Node11</title>
<path fill="none" stroke="#9a32cd" stroke-dasharray="5,2" d="M1602.63,-261.49C1612.64,-265.82 1623.78,-270.61 1634,-274.95 1665.91,-288.49 1675.63,-288.24 1706,-304.95 1730.93,-318.66 1757.58,-338.6 1772.53,-350.32"/>
<polygon fill="#9a32cd" stroke="#9a32cd" points="1604.02,-258.28 1593.45,-257.51 1601.24,-264.7 1604.02,-258.28"/>
<text text-anchor="middle" x="1670" y="-307.95" font-family="Helvetica,sans-Serif" font-size="10.00"> m_stick</text>
</g>
<!-- Node18&#45;&gt;Node20 -->
<g id="edge32" class="edge">
<title>Node18&#45;&gt;Node20</title>
<path fill="none" stroke="#9a32cd" stroke-dasharray="5,2" d="M1547.38,-263.11C1535.86,-270.17 1521.25,-277.89 1507,-281.95 1477.09,-290.48 1443.15,-293.78 1413.22,-294.67"/>
<polygon fill="#9a32cd" stroke="#9a32cd" points="1549.34,-266.01 1555.88,-257.67 1545.57,-260.11 1549.34,-266.01"/>
<text text-anchor="middle" x="1469" y="-296.95" font-family="Helvetica,sans-Serif" font-size="10.00"> stick</text>
</g>
<!-- Node18&#45;&gt;Node21 -->
<g id="edge35" class="edge">
<title>Node18&#45;&gt;Node21</title>
<path fill="none" stroke="#9a32cd" stroke-dasharray="5,2" d="M1592.57,-232.57C1604.17,-225.05 1619.19,-216.81 1634,-212.95 1662.95,-205.39 1696.11,-204.8 1723.92,-206.45"/>
<polygon fill="#9a32cd" stroke="#9a32cd" points="1590.37,-229.83 1584.07,-238.34 1594.31,-235.62 1590.37,-229.83"/>
<text text-anchor="middle" x="1670" y="-215.95" font-family="Helvetica,sans-Serif" font-size="10.00"> stick</text>
</g>
<!-- Node19 -->
<g id="node19" class="node">
<title>Node19</title>
<g id="a_node19"><a xlink:href="classJoyStickDirectionsType.html" target="_top" xlink:title=" ">
<polygon fill="white" stroke="black" points="1267.5,-244.45 1267.5,-263.45 1395.5,-263.45 1395.5,-244.45 1267.5,-244.45"/>
<text text-anchor="middle" x="1331.5" y="-251.45" font-family="Helvetica,sans-Serif" font-size="10.00">JoyStickDirectionsType</text>
</a>
</g>
</g>
<!-- Node19&#45;&gt;Node18 -->
<g id="edge29" class="edge">
<title>Node19&#45;&gt;Node18</title>
<path fill="none" stroke="midnightblue" d="M1405.57,-251.65C1414.14,-251.4 1422.76,-251.16 1431,-250.95 1462.38,-250.13 1497.75,-249.37 1524.9,-248.81"/>
<polygon fill="midnightblue" stroke="midnightblue" points="1405.45,-248.15 1395.55,-251.95 1405.65,-255.15 1405.45,-248.15"/>
</g>
<!-- Node20&#45;&gt;Node18 -->
<g id="edge30" class="edge">
<title>Node20&#45;&gt;Node18</title>
<path fill="none" stroke="#9a32cd" stroke-dasharray="5,2" d="M1385.1,-280.27C1399.91,-277.11 1416.06,-273.78 1431,-270.95 1462.25,-265.02 1497.63,-259.16 1524.81,-254.84"/>
<polygon fill="#9a32cd" stroke="#9a32cd" points="1384.12,-276.9 1375.08,-282.43 1385.59,-283.75 1384.12,-276.9"/>
<text text-anchor="middle" x="1469" y="-273.95" font-family="Helvetica,sans-Serif" font-size="10.00"> modifierButton</text>
</g>
<!-- Node21&#45;&gt;Node18 -->
<g id="edge33" class="edge">
<title>Node21&#45;&gt;Node18</title>
<path fill="none" stroke="#9a32cd" stroke-dasharray="5,2" d="M1715.05,-225.03C1682.55,-230.22 1644.78,-236.25 1616.15,-240.82"/>
<polygon fill="#9a32cd" stroke="#9a32cd" points="1715.63,-228.49 1724.95,-223.45 1714.52,-221.57 1715.63,-228.49"/>
<text text-anchor="middle" x="1670" y="-262.95" font-family="Helvetica,sans-Serif" font-size="10.00"> activeButton1</text>
<text text-anchor="middle" x="1670" y="-251.95" font-family="Helvetica,sans-Serif" font-size="10.00">activeButton2</text>
<text text-anchor="middle" x="1670" y="-240.95" font-family="Helvetica,sans-Serif" font-size="10.00">activeButton3</text>
</g>
<!-- Node22&#45;&gt;Node9 -->
<g id="edge36" class="edge">
<title>Node22&#45;&gt;Node9</title>
<path fill="none" stroke="#9a32cd" stroke-dasharray="5,2" d="M1186.93,-410.54C1219.43,-427.43 1277.32,-452.95 1330.5,-452.95 1330.5,-452.95 1330.5,-452.95 1893.5,-452.95 1958.42,-452.95 1966.74,-417.45 2028,-395.95 2057.51,-385.59 2091.65,-376.11 2117.24,-369.48"/>
<polygon fill="#9a32cd" stroke="#9a32cd" points="1188.17,-407.24 1177.7,-405.62 1184.87,-413.41 1188.17,-407.24"/>
<text text-anchor="middle" x="1670" y="-455.95" font-family="Helvetica,sans-Serif" font-size="10.00"> joyButtonXml</text>
</g>
<!-- Node23&#45;&gt;Node8 -->
<g id="edge39" class="edge">
<title>Node23&#45;&gt;Node8</title>
<path fill="none" stroke="#9a32cd" stroke-dasharray="5,2" d="M383.24,-49.08C385.86,-49.39 388.46,-49.69 391,-49.95 494.64,-60.63 520.81,-63.95 625,-63.95 625,-63.95 625,-63.95 2158,-63.95 2306.26,-63.95 2338.58,-322.73 2343.68,-376.31"/>
<polygon fill="#9a32cd" stroke="#9a32cd" points="383.46,-45.57 373.09,-47.76 382.56,-52.52 383.46,-45.57"/>
<text text-anchor="middle" x="1469" y="-66.95" font-family="Helvetica,sans-Serif" font-size="10.00"> m_device</text>
</g>
<!-- Node26 -->
<g id="node26" class="node">
<title>Node26</title>
<g id="a_node26"><a xlink:href="classInputDeviceCalibration.html" target="_top" xlink:title="Calibration storage backend which can store multiple calibration items for different controllers.">
<polygon fill="white" stroke="black" points="562,-5.45 562,-24.45 690,-24.45 690,-5.45 562,-5.45"/>
<text text-anchor="middle" x="626" y="-12.45" font-family="Helvetica,sans-Serif" font-size="10.00">InputDeviceCalibration</text>
</a>
</g>
</g>
<!-- Node23&#45;&gt;Node26 -->
<g id="edge44" class="edge">
<title>Node23&#45;&gt;Node26</title>
<path fill="none" stroke="#9a32cd" stroke-dasharray="5,2" d="M357.6,-26.54C367.28,-20.41 379.2,-14.07 391,-10.95 449.92,4.64 520.13,0.58 568.17,-5.44"/>
<polygon fill="#9a32cd" stroke="#9a32cd" points="355.45,-23.77 349.1,-32.25 359.35,-29.58 355.45,-23.77"/>
<text text-anchor="middle" x="455" y="-13.95" font-family="Helvetica,sans-Serif" font-size="10.00"> m_device</text>
</g>
<!-- Node24 -->
<g id="node24" class="node">
<title>Node24</title>
<g id="a_node24"><a xlink:href="classAntiMicroSettings.html" target="_top" xlink:title=" ">
<polygon fill="white" stroke="black" points="101,-32.45 101,-51.45 204,-51.45 204,-32.45 101,-32.45"/>
<text text-anchor="middle" x="152.5" y="-39.45" font-family="Helvetica,sans-Serif" font-size="10.00">AntiMicroSettings</text>
</a>
</g>
</g>
<!-- Node24&#45;&gt;Node23 -->
<g id="edge41" class="edge">
<title>Node24&#45;&gt;Node23</title>
<path fill="none" stroke="#9a32cd" stroke-dasharray="5,2" d="M214.74,-41.95C242.3,-41.95 273.92,-41.95 297.75,-41.95"/>
<polygon fill="#9a32cd" stroke="#9a32cd" points="214.4,-38.45 204.4,-41.95 214.4,-45.45 214.4,-38.45"/>
<text text-anchor="middle" x="251" y="-44.95" font-family="Helvetica,sans-Serif" font-size="10.00"> m_settings</text>
</g>
<!-- Node25 -->
<g id="node25" class="node">
<title>Node25</title>
<g id="a_node25"><a xlink:title=" ">
<polygon fill="white" stroke="#bfbfbf" points="0,-32.45 0,-51.45 64,-51.45 64,-32.45 0,-32.45"/>
<text text-anchor="middle" x="32" y="-39.45" font-family="Helvetica,sans-Serif" font-size="10.00">QSettings</text>
</a>
</g>
</g>
<!-- Node25&#45;&gt;Node24 -->
<g id="edge42" class="edge">
<title>Node25&#45;&gt;Node24</title>
<path fill="none" stroke="midnightblue" d="M74.27,-41.95C82.86,-41.95 91.99,-41.95 100.87,-41.95"/>
<polygon fill="midnightblue" stroke="midnightblue" points="74.13,-38.45 64.13,-41.95 74.13,-45.45 74.13,-38.45"/>
</g>
<!-- Node26&#45;&gt;Node23 -->
<g id="edge43" class="edge">
<title>Node26&#45;&gt;Node23</title>
<path fill="none" stroke="#9a32cd" stroke-dasharray="5,2" d="M551.85,-21.79C494.74,-27.14 417.81,-34.34 373.04,-38.53"/>
<polygon fill="#9a32cd" stroke="#9a32cd" points="552.28,-25.27 561.91,-20.85 551.62,-18.3 552.28,-25.27"/>
<text text-anchor="middle" x="455" y="-39.95" font-family="Helvetica,sans-Serif" font-size="10.00"> m_calibrations</text>
</g>
<!-- Node27&#45;&gt;Node6 -->
<g id="edge45" class="edge">
<title>Node27&#45;&gt;Node6</title>
<path fill="none" stroke="#9a32cd" stroke-dasharray="5,2" d="M1127.06,-634.49C1070.72,-657.61 949.48,-703.94 842,-721.95 743.1,-738.52 475.73,-760.58 391,-706.95 362.17,-688.7 345.84,-649.09 339.54,-630.69"/>
<polygon fill="#9a32cd" stroke="#9a32cd" points="1128.58,-637.65 1136.49,-630.59 1125.91,-631.18 1128.58,-637.65"/>
<text text-anchor="middle" x="787.5" y="-736.95" font-family="Helvetica,sans-Serif" font-size="10.00"> activeDiagonalButton</text>
</g>
<!-- Node28&#45;&gt;Node1 -->
<g id="edge48" class="edge">
<title>Node28&#45;&gt;Node1</title>
<path fill="none" stroke="#9a32cd" stroke-dasharray="5,2" d="M708.32,-695.81C749.53,-693.64 799.67,-695.64 842,-710.95 877.07,-723.63 908.9,-755.97 923.33,-772.26"/>
<polygon fill="#9a32cd" stroke="#9a32cd" points="708.08,-692.32 698.31,-696.43 708.51,-699.31 708.08,-692.32"/>
<text text-anchor="middle" x="787.5" y="-713.95" font-family="Helvetica,sans-Serif" font-size="10.00"> helper</text>
</g>
</g>
</svg>
        <g id="navigator" transform="translate(0 0)" fill="#404254">
                <rect fill="#f2f5e9" fill-opacity="0.5" stroke="#606060" stroke-width=".5" x="0" y="0" width="60" height="60"/>
                <use id="zoomplus" xlink:href="#zoomPlus" x="17" y="9" onmousedown="handleZoom(evt,'in')"/>
                <use id="zoomminus" xlink:href="#zoomMin" x="42" y="9" onmousedown="handleZoom(evt,'out')"/>
                <use id="reset" xlink:href="#resetDef" x="30" y="36" onmousedown="handleReset()"/>
                <g id="arrowUp" xlink:href="#dirArrow" transform="translate(30 24)" onmousedown="handlePan(0,-1)">
                  <use xlink:href="#rim" fill="#404040">
                        <set attributeName="fill" to="#808080" begin="arrowUp.mouseover" end="arrowUp.mouseout"/>
                  </use>
                  <path fill="none" stroke="white" stroke-width="1.5" d="M0,-3.0v7 M-2.5,-0.5L0,-3.0L2.5,-0.5"/>
                </g>
                <g id="arrowRight" xlink:href="#dirArrow" transform="rotate(90) translate(36 -43)" onmousedown="handlePan(1,0)">
                  <use xlink:href="#rim" fill="#404040">
                        <set attributeName="fill" to="#808080" begin="arrowRight.mouseover" end="arrowRight.mouseout"/>
                  </use>
                  <path fill="none" stroke="white" stroke-width="1.5" d="M0,-3.0v7 M-2.5,-0.5L0,-3.0L2.5,-0.5"/>
                </g>
                <g id="arrowDown" xlink:href="#dirArrow" transform="rotate(180) translate(-30 -48)" onmousedown="handlePan(0,1)">
                  <use xlink:href="#rim" fill="#404040">
                        <set attributeName="fill" to="#808080" begin="arrowDown.mouseover" end="arrowDown.mouseout"/>
                  </use>
                  <path fill="none" stroke="white" stroke-width="1.5" d="M0,-3.0v7 M-2.5,-0.5L0,-3.0L2.5,-0.5"/>
                </g>
                <g id="arrowLeft" xlink:href="#dirArrow" transform="rotate(270) translate(-36 17)" onmousedown="handlePan(-1,0)">
                  <use xlink:href="#rim" fill="#404040">
                        <set attributeName="fill" to="#808080" begin="arrowLeft.mouseover" end="arrowLeft.mouseout"/>
                  </use>
                  <path fill="none" stroke="white" stroke-width="1.5" d="M0,-3.0v7 M-2.5,-0.5L0,-3.0L2.5,-0.5"/>
                </g>
        </g>
        <svg viewBox="0 0 15 15" width="100%" height="30px" preserveAspectRatio="xMaxYMin meet">
         <g id="arrow_out" transform="scale(0.3 0.3)">
          <a xlink:href="classMouseDPadSettingsDialog__coll__graph_org.svg" target="_base">
           <rect id="button" ry="5" rx="5" y="6" x="6" height="38" width="38"
                fill="#f2f5e9" fill-opacity="0.5" stroke="#606060" stroke-width="1.0"/>
           <path id="arrow"
             d="M 11.500037,31.436501 C 11.940474,20.09759 22.043105,11.32322 32.158766,21.979434 L 37.068811,17.246167 C 37.068811,17.246167 37.088388,32 37.088388,32 L 22.160133,31.978069 C 22.160133,31.978069 26.997745,27.140456 26.997745,27.140456 C 18.528582,18.264221 13.291696,25.230495 11.500037,31.436501 z"
             style="fill:#404040;"/>
          </a>
         </g>
        </svg>
</svg>
