<?xml version="1.0" encoding="UTF-8" standalone="no"?>
<!DOCTYPE svg PUBLIC "-//W3C//DTD SVG 1.1//EN"
 "http://www.w3.org/Graphics/SVG/1.1/DTD/svg11.dtd">
<!-- Generated by graphviz version 2.43.0 (0)
 -->
<!-- Title: MouseAxisSettingsDialog::changeMouseMode Pages: 1 -->
<svg width="539pt" height="252pt"
 viewBox="0.00 0.00 539.00 251.50" xmlns="http://www.w3.org/2000/svg" xmlns:xlink="http://www.w3.org/1999/xlink">
<g id="graph0" class="graph" transform="scale(1 1) rotate(0) translate(4 247.5)">
<title>MouseAxisSettingsDialog::changeMouseMode</title>
<polygon fill="white" stroke="transparent" points="-4,4 -4,-247.5 535,-247.5 535,4 -4,4"/>
<!-- Node1 -->
<g id="node1" class="node">
<title>Node1</title>
<g id="a_node1"><a xlink:title=" ">
<polygon fill="#bfbfbf" stroke="black" points="0,-120.5 0,-150.5 141,-150.5 141,-120.5 0,-120.5"/>
<text text-anchor="start" x="8" y="-138.5" font-family="Helvetica,sans-Serif" font-size="10.00">MouseAxisSettingsDialog</text>
<text text-anchor="middle" x="70.5" y="-127.5" font-family="Helvetica,sans-Serif" font-size="10.00">::changeMouseMode</text>
</a>
</g>
</g>
<!-- Node2 -->
<g id="node2" class="node">
<title>Node2</title>
<g id="a_node2"><a xlink:href="classJoyAxis.html#aae658e2a7b83ce73ce3d7d1ed13eabc6" target="_top" xlink:title=" ">
<polygon fill="white" stroke="black" points="195,-224 195,-243 330,-243 330,-224 195,-224"/>
<text text-anchor="middle" x="262.5" y="-231" font-family="Helvetica,sans-Serif" font-size="10.00">JoyAxis::getNAxisButton</text>
</a>
</g>
</g>
<!-- Node1&#45;&gt;Node2 -->
<g id="edge1" class="edge">
<title>Node1&#45;&gt;Node2</title>
<path fill="none" stroke="midnightblue" d="M87.26,-150.74C106.74,-168.72 141.67,-198.21 177,-214.5 182.34,-216.96 188.01,-219.11 193.8,-220.99"/>
<polygon fill="midnightblue" stroke="midnightblue" points="193.02,-224.41 203.61,-223.91 195.02,-217.7 193.02,-224.41"/>
</g>
<!-- Node3 -->
<g id="node3" class="node">
<title>Node3</title>
<g id="a_node3"><a xlink:href="classJoyAxis.html#ad51d55d2a95190468209f7481eae8639" target="_top" xlink:title=" ">
<polygon fill="white" stroke="black" points="196,-186 196,-205 329,-205 329,-186 196,-186"/>
<text text-anchor="middle" x="262.5" y="-193" font-family="Helvetica,sans-Serif" font-size="10.00">JoyAxis::getPAxisButton</text>
</a>
</g>
</g>
<!-- Node1&#45;&gt;Node3 -->
<g id="edge2" class="edge">
<title>Node1&#45;&gt;Node3</title>
<path fill="none" stroke="midnightblue" d="M106.68,-150.7C126.98,-159.08 153.13,-169.22 177,-176.5 185.46,-179.08 194.5,-181.48 203.4,-183.64"/>
<polygon fill="midnightblue" stroke="midnightblue" points="202.82,-187.1 213.36,-185.98 204.42,-180.29 202.82,-187.1"/>
</g>
<!-- Node4 -->
<g id="node4" class="node">
<title>Node4</title>
<g id="a_node4"><a xlink:href="classJoyAxis.html#a1d88b64f64042f2b6f3ceccf07a6a8fa" target="_top" xlink:title=" ">
<polygon fill="white" stroke="black" points="177.5,-148 177.5,-167 347.5,-167 347.5,-148 177.5,-148"/>
<text text-anchor="middle" x="262.5" y="-155" font-family="Helvetica,sans-Serif" font-size="10.00">JoyAxis::setButtonsMouseMode</text>
</a>
</g>
</g>
<!-- Node1&#45;&gt;Node4 -->
<g id="edge3" class="edge">
<title>Node1&#45;&gt;Node4</title>
<path fill="none" stroke="midnightblue" d="M141.17,-143.57C150.27,-144.62 159.7,-145.71 169.11,-146.8"/>
<polygon fill="midnightblue" stroke="midnightblue" points="168.94,-150.31 179.27,-147.98 169.74,-143.35 168.94,-150.31"/>
</g>
<!-- Node6 -->
<g id="node6" class="node">
<title>Node6</title>
<g id="a_node6"><a xlink:href="classJoyButton.html#aca69f26410f28982be9a6e952ec3c494" target="_top" xlink:title=" ">
<polygon fill="white" stroke="black" points="177,-98.5 177,-128.5 348,-128.5 348,-98.5 177,-98.5"/>
<text text-anchor="start" x="185" y="-116.5" font-family="Helvetica,sans-Serif" font-size="10.00">JoyButton::setExtraAcceleration</text>
<text text-anchor="middle" x="262.5" y="-105.5" font-family="Helvetica,sans-Serif" font-size="10.00">Status</text>
</a>
</g>
</g>
<!-- Node1&#45;&gt;Node6 -->
<g id="edge5" class="edge">
<title>Node1&#45;&gt;Node6</title>
<path fill="none" stroke="midnightblue" d="M141.17,-127.43C149.54,-126.46 158.2,-125.46 166.85,-124.46"/>
<polygon fill="midnightblue" stroke="midnightblue" points="167.46,-127.91 176.99,-123.29 166.66,-120.96 167.46,-127.91"/>
</g>
<!-- Node8 -->
<g id="node8" class="node">
<title>Node8</title>
<g id="a_node8"><a xlink:href="classSpringModeRegionPreview.html#a8d2b08d077d77697a327e2d062130cbd" target="_top" xlink:title=" ">
<polygon fill="white" stroke="black" points="189,-49.5 189,-79.5 336,-79.5 336,-49.5 189,-49.5"/>
<text text-anchor="start" x="197" y="-67.5" font-family="Helvetica,sans-Serif" font-size="10.00">SpringModeRegionPreview</text>
<text text-anchor="middle" x="262.5" y="-56.5" font-family="Helvetica,sans-Serif" font-size="10.00">::setSpringHeight</text>
</a>
</g>
</g>
<!-- Node1&#45;&gt;Node8 -->
<g id="edge7" class="edge">
<title>Node1&#45;&gt;Node8</title>
<path fill="none" stroke="midnightblue" d="M103.4,-120.36C124.12,-110.84 151.84,-98.67 177,-89.5 183.47,-87.14 190.28,-84.84 197.1,-82.65"/>
<polygon fill="midnightblue" stroke="midnightblue" points="198.59,-85.85 207.08,-79.52 196.49,-79.17 198.59,-85.85"/>
</g>
<!-- Node10 -->
<g id="node10" class="node">
<title>Node10</title>
<g id="a_node10"><a xlink:href="classSpringModeRegionPreview.html#a769d674b3f0697dee55b0a7fbfe4a48f" target="_top" xlink:title=" ">
<polygon fill="white" stroke="black" points="189,-0.5 189,-30.5 336,-30.5 336,-0.5 189,-0.5"/>
<text text-anchor="start" x="197" y="-18.5" font-family="Helvetica,sans-Serif" font-size="10.00">SpringModeRegionPreview</text>
<text text-anchor="middle" x="262.5" y="-7.5" font-family="Helvetica,sans-Serif" font-size="10.00">::setSpringWidth</text>
</a>
</g>
</g>
<!-- Node1&#45;&gt;Node10 -->
<g id="edge9" class="edge">
<title>Node1&#45;&gt;Node10</title>
<path fill="none" stroke="midnightblue" d="M84.18,-120.16C102.52,-98.97 138.48,-60.92 177,-39.5 180.26,-37.69 183.66,-36 187.16,-34.44"/>
<polygon fill="midnightblue" stroke="midnightblue" points="188.66,-37.61 196.58,-30.57 186,-31.13 188.66,-37.61"/>
</g>
<!-- Node5 -->
<g id="node5" class="node">
<title>Node5</title>
<g id="a_node5"><a xlink:href="classJoyButton.html#a28224ca61d50adb1338643ae63bab3a3" target="_top" xlink:title=" ">
<polygon fill="white" stroke="black" points="385.5,-148 385.5,-167 529.5,-167 529.5,-148 385.5,-148"/>
<text text-anchor="middle" x="457.5" y="-155" font-family="Helvetica,sans-Serif" font-size="10.00">JoyButton::setMouseMode</text>
</a>
</g>
</g>
<!-- Node4&#45;&gt;Node5 -->
<g id="edge4" class="edge">
<title>Node4&#45;&gt;Node5</title>
<path fill="none" stroke="midnightblue" d="M347.59,-157.5C356.74,-157.5 366.05,-157.5 375.16,-157.5"/>
<polygon fill="midnightblue" stroke="midnightblue" points="375.36,-161 385.36,-157.5 375.36,-154 375.36,-161"/>
</g>
<!-- Node7 -->
<g id="node7" class="node">
<title>Node7</title>
<g id="a_node7"><a xlink:href="classJoyButton.html#a77afa6c5934d2665bad6d494b812f372" target="_top" xlink:title="Check if button should be considered a part of a real controller axis. Needed for some dialogs so the...">
<polygon fill="white" stroke="black" points="387.5,-104 387.5,-123 527.5,-123 527.5,-104 387.5,-104"/>
<text text-anchor="middle" x="457.5" y="-111" font-family="Helvetica,sans-Serif" font-size="10.00">JoyButton::isPartRealAxis</text>
</a>
</g>
</g>
<!-- Node6&#45;&gt;Node7 -->
<g id="edge6" class="edge">
<title>Node6&#45;&gt;Node7</title>
<path fill="none" stroke="midnightblue" d="M348.15,-113.5C357.75,-113.5 367.5,-113.5 377.03,-113.5"/>
<polygon fill="midnightblue" stroke="midnightblue" points="377.25,-117 387.25,-113.5 377.25,-110 377.25,-117"/>
</g>
<!-- Node9 -->
<g id="node9" class="node">
<title>Node9</title>
<g id="a_node9"><a xlink:href="classSpringModeRegionPreview.html#ac11ce802ca9098d5d61a1c7550e3a4f2" target="_top" xlink:title=" ">
<polygon fill="white" stroke="black" points="384,-49.5 384,-79.5 531,-79.5 531,-49.5 384,-49.5"/>
<text text-anchor="start" x="392" y="-67.5" font-family="Helvetica,sans-Serif" font-size="10.00">SpringModeRegionPreview</text>
<text text-anchor="middle" x="457.5" y="-56.5" font-family="Helvetica,sans-Serif" font-size="10.00">::adjustSpringSizeHeight</text>
</a>
</g>
</g>
<!-- Node8&#45;&gt;Node9 -->
<g id="edge8" class="edge">
<title>Node8&#45;&gt;Node9</title>
<path fill="none" stroke="midnightblue" d="M336.19,-64.5C348.38,-64.5 361.11,-64.5 373.53,-64.5"/>
<polygon fill="midnightblue" stroke="midnightblue" points="373.88,-68 383.88,-64.5 373.88,-61 373.88,-68"/>
</g>
<!-- Node11 -->
<g id="node11" class="node">
<title>Node11</title>
<g id="a_node11"><a xlink:href="classSpringModeRegionPreview.html#a78b54db3c38d88222b2491d21bb7daac" target="_top" xlink:title=" ">
<polygon fill="white" stroke="black" points="384,-0.5 384,-30.5 531,-30.5 531,-0.5 384,-0.5"/>
<text text-anchor="start" x="392" y="-18.5" font-family="Helvetica,sans-Serif" font-size="10.00">SpringModeRegionPreview</text>
<text text-anchor="middle" x="457.5" y="-7.5" font-family="Helvetica,sans-Serif" font-size="10.00">::adjustSpringSizeWidth</text>
</a>
</g>
</g>
<!-- Node10&#45;&gt;Node11 -->
<g id="edge10" class="edge">
<title>Node10&#45;&gt;Node11</title>
<path fill="none" stroke="midnightblue" d="M336.19,-15.5C348.38,-15.5 361.11,-15.5 373.53,-15.5"/>
<polygon fill="midnightblue" stroke="midnightblue" points="373.88,-19 383.88,-15.5 373.88,-12 373.88,-19"/>
</g>
</g>
</svg>
