<?xml version="1.0" encoding="UTF-8" standalone="no"?>
<!DOCTYPE svg PUBLIC "-//W3C//DTD SVG 1.1//EN"
 "http://www.w3.org/Graphics/SVG/1.1/DTD/svg11.dtd">
<!-- Generated by graphviz version 2.43.0 (0)
 -->
<!-- Title: JoyControlStickPushButton::tryFlash Pages: 1 -->
<svg width="544pt" height="78pt"
 viewBox="0.00 0.00 544.00 77.50" xmlns="http://www.w3.org/2000/svg" xmlns:xlink="http://www.w3.org/1999/xlink">
<g id="graph0" class="graph" transform="scale(1 1) rotate(0) translate(4 73.5)">
<title>JoyControlStickPushButton::tryFlash</title>
<polygon fill="white" stroke="transparent" points="-4,4 -4,-73.5 540,-73.5 540,4 -4,4"/>
<!-- Node1 -->
<g id="node1" class="node">
<title>Node1</title>
<g id="a_node1"><a xlink:title=" ">
<polygon fill="#bfbfbf" stroke="black" points="390,-22.5 390,-52.5 536,-52.5 536,-22.5 390,-22.5"/>
<text text-anchor="start" x="398" y="-40.5" font-family="Helvetica,sans-Serif" font-size="10.00">JoyControlStickPushButton</text>
<text text-anchor="middle" x="463" y="-29.5" font-family="Helvetica,sans-Serif" font-size="10.00">::tryFlash</text>
</a>
</g>
</g>
<!-- Node2 -->
<g id="node2" class="node">
<title>Node2</title>
<g id="a_node2"><a xlink:href="classMainWindow.html#a435b6567cdb461077fee16ac1d23523c" target="_top" xlink:title=" ">
<polygon fill="white" stroke="black" points="174,-50 174,-69 354,-69 354,-50 174,-50"/>
<text text-anchor="middle" x="264" y="-57" font-family="Helvetica,sans-Serif" font-size="10.00">MainWindow::enableFlashActions</text>
</a>
</g>
</g>
<!-- Node1&#45;&gt;Node2 -->
<g id="edge1" class="edge">
<title>Node1&#45;&gt;Node2</title>
<path fill="none" stroke="midnightblue" d="M379.71,-46.69C369.98,-47.78 360.03,-48.89 350.25,-49.98"/>
<polygon fill="midnightblue" stroke="midnightblue" points="380.21,-50.16 389.76,-45.57 379.44,-43.2 380.21,-50.16"/>
</g>
<!-- Node4 -->
<g id="node4" class="node">
<title>Node4</title>
<g id="a_node4"><a xlink:href="classJoyControlStickPushButton.html#a84c9c0ebc8bab68996df6619a4969168" target="_top" xlink:title=" ">
<polygon fill="white" stroke="black" points="188,-0.5 188,-30.5 340,-30.5 340,-0.5 188,-0.5"/>
<text text-anchor="start" x="196" y="-18.5" font-family="Helvetica,sans-Serif" font-size="10.00">JoyControlStickPushButton</text>
<text text-anchor="middle" x="264" y="-7.5" font-family="Helvetica,sans-Serif" font-size="10.00">::JoyControlStickPushButton</text>
</a>
</g>
</g>
<!-- Node1&#45;&gt;Node4 -->
<g id="edge3" class="edge">
<title>Node1&#45;&gt;Node4</title>
<path fill="none" stroke="midnightblue" d="M379.82,-28.32C366.69,-26.86 353.16,-25.35 340.2,-23.9"/>
<polygon fill="midnightblue" stroke="midnightblue" points="379.44,-31.8 389.76,-29.43 380.21,-24.84 379.44,-31.8"/>
</g>
<!-- Node3 -->
<g id="node3" class="node">
<title>Node3</title>
<g id="a_node3"><a xlink:href="classMainWindow.html#a3dfe834b2836b316908ace3f38c06db2" target="_top" xlink:title=" ">
<polygon fill="white" stroke="black" points="0,-50 0,-69 138,-69 138,-50 0,-50"/>
<text text-anchor="middle" x="69" y="-57" font-family="Helvetica,sans-Serif" font-size="10.00">MainWindow::showEvent</text>
</a>
</g>
</g>
<!-- Node2&#45;&gt;Node3 -->
<g id="edge2" class="edge">
<title>Node2&#45;&gt;Node3</title>
<path fill="none" stroke="midnightblue" d="M163.74,-59.5C155.13,-59.5 146.55,-59.5 138.28,-59.5"/>
<polygon fill="midnightblue" stroke="midnightblue" points="163.84,-63 173.84,-59.5 163.84,-56 163.84,-63"/>
</g>
</g>
</svg>
