<?xml version="1.0" encoding="UTF-8" standalone="no"?>
<!DOCTYPE svg PUBLIC "-//W3C//DTD SVG 1.1//EN"
 "http://www.w3.org/Graphics/SVG/1.1/DTD/svg11.dtd">
<!-- Generated by graphviz version 2.43.0 (0)
 -->
<!-- Title: MouseButtonSettingsDialogHelper Pages: 1 -->
<!--zoomable 576 -->
<svg id="main" version="1.1" xmlns="http://www.w3.org/2000/svg" xmlns:xlink="http://www.w3.org/1999/xlink" xml:space="preserve" onload="init(evt)">
<style type="text/css"><![CDATA[
.edge:hover path { stroke: red; }
.edge:hover polygon { stroke: red; fill: red; }
]]></style>
<script type="text/javascript"><![CDATA[
var edges = document.getElementsByTagName('g');
if (edges && edges.length) {
  for (var i=0;i<edges.length;i++) {
    if (edges[i].id.substr(0,4)=='edge') {
      edges[i].setAttribute('class','edge');
    }
  }
}
]]></script>
        <defs>
                <circle id="rim" cx="0" cy="0" r="7"/>
                <circle id="rim2" cx="0" cy="0" r="3.5"/>
                <g id="zoomPlus">
                        <use xlink:href="#rim" fill="#404040">
                                <set attributeName="fill" to="#808080" begin="zoomplus.mouseover" end="zoomplus.mouseout"/>
                        </use>
                        <path d="M-4,0h8M0,-4v8" fill="none" stroke="white" stroke-width="1.5" pointer-events="none"/>
                </g>
                <g id="zoomMin">
                        <use xlink:href="#rim" fill="#404040">
                                <set attributeName="fill" to="#808080" begin="zoomminus.mouseover" end="zoomminus.mouseout"/>
                        </use>
                        <path d="M-4,0h8" fill="none" stroke="white" stroke-width="1.5" pointer-events="none"/>
                </g>
                <g id="dirArrow">
                        <path fill="none" stroke="white" stroke-width="1.5" d="M0,-3.0v7 M-2.5,-0.5L0,-3.0L2.5,-0.5"/>
                </g>
               <g id="resetDef">
                       <use xlink:href="#rim2" fill="#404040">
                               <set attributeName="fill" to="#808080" begin="reset.mouseover" end="reset.mouseout"/>
                       </use>
               </g>
        </defs>

<script type="text/javascript">
var viewWidth = 2528;
var viewHeight = 576;
var sectionId = 'dynsection-1';
</script>
<script xlink:href="svgpan.js"/>
<svg id="graph" class="graph">
<g id="viewport">
<title>MouseButtonSettingsDialogHelper</title>
<polygon fill="white" stroke="transparent" points="-4,4 -4,-572 2524,-572 2524,4 -4,4"/>
<!-- Node1 -->
<g id="node1" class="node">
<title>Node1</title>
<g id="a_node1"><a xlink:title=" ">
<polygon fill="#bfbfbf" stroke="black" points="808,-379 808,-409 960,-409 960,-379 808,-379"/>
<text text-anchor="start" x="816" y="-397" font-family="Helvetica,sans-Serif" font-size="10.00">MouseButtonSettingsDialog</text>
<text text-anchor="middle" x="884" y="-386" font-family="Helvetica,sans-Serif" font-size="10.00">Helper</text>
</a>
</g>
</g>
<!-- Node2 -->
<g id="node2" class="node">
<title>Node2</title>
<g id="a_node2"><a xlink:title=" ">
<polygon fill="white" stroke="#bfbfbf" points="124.5,-368.5 124.5,-387.5 180.5,-387.5 180.5,-368.5 124.5,-368.5"/>
<text text-anchor="middle" x="152.5" y="-375.5" font-family="Helvetica,sans-Serif" font-size="10.00">QObject</text>
</a>
</g>
</g>
<!-- Node2&#45;&gt;Node1 -->
<g id="edge1" class="edge">
<title>Node2&#45;&gt;Node1</title>
<path fill="none" stroke="midnightblue" d="M190.49,-386.52C200.66,-388.6 211.71,-390.62 222,-392 255.55,-396.51 264.19,-395.31 298,-397 516.41,-407.92 571.52,-411.38 790,-402 795.83,-401.75 801.86,-401.41 807.91,-401.02"/>
<polygon fill="midnightblue" stroke="midnightblue" points="191.2,-383.09 180.69,-384.44 189.75,-389.94 191.2,-383.09"/>
</g>
<!-- Node3 -->
<g id="node3" class="node">
<title>Node3</title>
<g id="a_node3"><a xlink:href="classJoyButton.html" target="_top" xlink:title="Represents a single joystick button being part of a SetJoystick Contains multiple JoyButtonSlots whic...">
<polygon fill="white" stroke="black" points="610,-248.5 610,-267.5 674,-267.5 674,-248.5 610,-248.5"/>
<text text-anchor="middle" x="642" y="-255.5" font-family="Helvetica,sans-Serif" font-size="10.00">JoyButton</text>
</a>
</g>
</g>
<!-- Node2&#45;&gt;Node3 -->
<g id="edge3" class="edge">
<title>Node2&#45;&gt;Node3</title>
<path fill="none" stroke="midnightblue" d="M173.45,-361.75C186.92,-350.99 205.23,-336.75 222,-325 310.79,-262.82 337.24,-242.78 444,-224 494.78,-215.07 509.46,-213.82 560,-224 583.17,-228.67 607.98,-240.15 623.95,-248.48"/>
<polygon fill="midnightblue" stroke="midnightblue" points="170.96,-359.27 165.37,-368.26 175.35,-364.72 170.96,-359.27"/>
</g>
<!-- Node4 -->
<g id="node4" class="node">
<title>Node4</title>
<g id="a_node4"><a xlink:href="classJoyButtonMouseHelper.html" target="_top" xlink:title=" ">
<polygon fill="white" stroke="black" points="298,-368.5 298,-387.5 426,-387.5 426,-368.5 298,-368.5"/>
<text text-anchor="middle" x="362" y="-375.5" font-family="Helvetica,sans-Serif" font-size="10.00">JoyButtonMouseHelper</text>
</a>
</g>
</g>
<!-- Node2&#45;&gt;Node4 -->
<g id="edge5" class="edge">
<title>Node2&#45;&gt;Node4</title>
<path fill="none" stroke="midnightblue" d="M190.96,-378C220.63,-378 262.75,-378 297.65,-378"/>
<polygon fill="midnightblue" stroke="midnightblue" points="190.63,-374.5 180.63,-378 190.63,-381.5 190.63,-374.5"/>
</g>
<!-- Node5 -->
<g id="node5" class="node">
<title>Node5</title>
<g id="a_node5"><a xlink:href="classJoyButtonSlot.html" target="_top" xlink:title="Represents action which can be performed after pressing button.">
<polygon fill="white" stroke="black" points="320.5,-286.5 320.5,-305.5 403.5,-305.5 403.5,-286.5 320.5,-286.5"/>
<text text-anchor="middle" x="362" y="-293.5" font-family="Helvetica,sans-Serif" font-size="10.00">JoyButtonSlot</text>
</a>
</g>
</g>
<!-- Node2&#45;&gt;Node5 -->
<g id="edge7" class="edge">
<title>Node2&#45;&gt;Node5</title>
<path fill="none" stroke="midnightblue" d="M187.23,-364.67C229.26,-348.06 300.02,-320.1 336.95,-305.51"/>
<polygon fill="midnightblue" stroke="midnightblue" points="185.72,-361.5 177.71,-368.43 188.3,-368.01 185.72,-361.5"/>
</g>
<!-- Node7 -->
<g id="node7" class="node">
<title>Node7</title>
<g id="a_node7"><a xlink:href="classJoyDPad.html" target="_top" xlink:title=" ">
<polygon fill="white" stroke="black" points="2230,-258.5 2230,-277.5 2286,-277.5 2286,-258.5 2230,-258.5"/>
<text text-anchor="middle" x="2258" y="-265.5" font-family="Helvetica,sans-Serif" font-size="10.00">JoyDPad</text>
</a>
</g>
</g>
<!-- Node2&#45;&gt;Node7 -->
<g id="edge10" class="edge">
<title>Node2&#45;&gt;Node7</title>
<path fill="none" stroke="midnightblue" d="M159.85,-397.54C169.46,-424.41 190.03,-472.86 222,-503 271.62,-549.78 292.8,-568 361,-568 361,-568 361,-568 2093.5,-568 2229.04,-568 2252.88,-328.99 2256.44,-277.64"/>
<polygon fill="midnightblue" stroke="midnightblue" points="163.05,-396.09 156.5,-387.76 156.43,-398.36 163.05,-396.09"/>
</g>
<!-- Node9 -->
<g id="node9" class="node">
<title>Node9</title>
<g id="a_node9"><a xlink:href="classSetJoystickXml.html" target="_top" xlink:title="SetJoystick XML serialization/deserialization helper class Reads data from the supplied SetJoystick o...">
<polygon fill="white" stroke="black" points="1859,-444.5 1859,-463.5 1949,-463.5 1949,-444.5 1859,-444.5"/>
<text text-anchor="middle" x="1904" y="-451.5" font-family="Helvetica,sans-Serif" font-size="10.00">SetJoystickXml</text>
</a>
</g>
</g>
<!-- Node2&#45;&gt;Node9 -->
<g id="edge13" class="edge">
<title>Node2&#45;&gt;Node9</title>
<path fill="none" stroke="midnightblue" d="M163.69,-396.41C175.49,-416.31 196.6,-447.88 222,-468 275.03,-510 293.36,-530 361,-530 361,-530 361,-530 1722,-530 1777.13,-530 1791.01,-518.24 1841,-495 1859.49,-486.4 1878.77,-472.8 1890.83,-463.65"/>
<polygon fill="midnightblue" stroke="midnightblue" points="166.68,-394.6 158.66,-387.67 160.61,-398.09 166.68,-394.6"/>
</g>
<!-- Node10 -->
<g id="node10" class="node">
<title>Node10</title>
<g id="a_node10"><a xlink:href="classJoyAxisXml.html" target="_top" xlink:title=" ">
<polygon fill="white" stroke="black" points="1685,-482.5 1685,-501.5 1757,-501.5 1757,-482.5 1685,-482.5"/>
<text text-anchor="middle" x="1721" y="-489.5" font-family="Helvetica,sans-Serif" font-size="10.00">JoyAxisXml</text>
</a>
</g>
</g>
<!-- Node2&#45;&gt;Node10 -->
<g id="edge16" class="edge">
<title>Node2&#45;&gt;Node10</title>
<path fill="none" stroke="midnightblue" d="M170.29,-395.02C203.54,-426.81 281.43,-492 361,-492 361,-492 361,-492 1533.5,-492 1586.28,-492 1647.45,-492 1684.94,-492"/>
<polygon fill="midnightblue" stroke="midnightblue" points="172.43,-392.21 162.83,-387.72 167.53,-397.21 172.43,-392.21"/>
</g>
<!-- Node11 -->
<g id="node11" class="node">
<title>Node11</title>
<g id="a_node11"><a xlink:href="classJoyAxis.html" target="_top" xlink:title="Represents single axis of of joystick (or other input)">
<polygon fill="white" stroke="black" points="1506,-257.5 1506,-276.5 1559,-276.5 1559,-257.5 1506,-257.5"/>
<text text-anchor="middle" x="1532.5" y="-264.5" font-family="Helvetica,sans-Serif" font-size="10.00">JoyAxis</text>
</a>
</g>
</g>
<!-- Node2&#45;&gt;Node11 -->
<g id="edge18" class="edge">
<title>Node2&#45;&gt;Node11</title>
<path fill="none" stroke="midnightblue" d="M156.29,-358.31C162.26,-322.96 179.38,-248.19 222,-203 268.67,-153.52 292.99,-139 361,-139 361,-139 361,-139 1318.5,-139 1410.39,-139 1496.83,-227.61 1523.27,-257.38"/>
<polygon fill="midnightblue" stroke="midnightblue" points="152.81,-357.9 154.73,-368.32 159.73,-358.98 152.81,-357.9"/>
</g>
<!-- Node14 -->
<g id="node14" class="node">
<title>Node14</title>
<g id="a_node14"><a xlink:href="classJoyControlStick.html" target="_top" xlink:title="Represents stick of a joystick.">
<polygon fill="white" stroke="black" points="1272,-319.5 1272,-338.5 1363,-338.5 1363,-319.5 1272,-319.5"/>
<text text-anchor="middle" x="1317.5" y="-326.5" font-family="Helvetica,sans-Serif" font-size="10.00">JoyControlStick</text>
</a>
</g>
</g>
<!-- Node2&#45;&gt;Node14 -->
<g id="edge25" class="edge">
<title>Node2&#45;&gt;Node14</title>
<path fill="none" stroke="midnightblue" d="M161.9,-358.91C185.41,-308.75 257.05,-177 361,-177 361,-177 361,-177 758,-177 976.06,-177 1225.73,-286.22 1296.75,-319.49"/>
<polygon fill="midnightblue" stroke="midnightblue" points="158.58,-357.75 157.62,-368.31 164.95,-360.66 158.58,-357.75"/>
</g>
<!-- Node18 -->
<g id="node18" class="node">
<title>Node18</title>
<g id="a_node18"><a xlink:href="classJoyButtonXml.html" target="_top" xlink:title=" ">
<polygon fill="white" stroke="black" points="842.5,-444.5 842.5,-463.5 925.5,-463.5 925.5,-444.5 842.5,-444.5"/>
<text text-anchor="middle" x="884" y="-451.5" font-family="Helvetica,sans-Serif" font-size="10.00">JoyButtonXml</text>
</a>
</g>
</g>
<!-- Node2&#45;&gt;Node18 -->
<g id="edge34" class="edge">
<title>Node2&#45;&gt;Node18</title>
<path fill="none" stroke="midnightblue" d="M180.22,-392.19C192.59,-398.1 207.69,-404.41 222,-408 254.86,-416.24 264.21,-411.51 298,-414 502.32,-429.05 746.93,-445.16 842.21,-451.36"/>
<polygon fill="midnightblue" stroke="midnightblue" points="181.46,-388.9 170.95,-387.59 178.35,-395.17 181.46,-388.9"/>
</g>
<!-- Node19 -->
<g id="node19" class="node">
<title>Node19</title>
<g id="a_node19"><a xlink:href="classInputDevice.html" target="_top" xlink:title="Abstract class representing a hardware input device, e.g a joystick or controller.">
<polygon fill="white" stroke="black" points="324.5,-72.5 324.5,-91.5 399.5,-91.5 399.5,-72.5 324.5,-72.5"/>
<text text-anchor="middle" x="362" y="-79.5" font-family="Helvetica,sans-Serif" font-size="10.00">InputDevice</text>
</a>
</g>
</g>
<!-- Node2&#45;&gt;Node19 -->
<g id="edge37" class="edge">
<title>Node2&#45;&gt;Node19</title>
<path fill="none" stroke="midnightblue" d="M152.9,-358.46C152.55,-311.69 158.34,-192.33 222,-126 236.2,-111.21 288.09,-97.52 324.28,-89.46"/>
<polygon fill="midnightblue" stroke="midnightblue" points="149.4,-358.54 153.08,-368.47 156.4,-358.41 149.4,-358.54"/>
</g>
<!-- Node3&#45;&gt;Node1 -->
<g id="edge2" class="edge">
<title>Node3&#45;&gt;Node1</title>
<path fill="none" stroke="#9a32cd" stroke-dasharray="5,2" d="M668.59,-272.5C714.32,-298.41 809.63,-352.42 856.21,-378.82"/>
<polygon fill="#9a32cd" stroke="#9a32cd" points="670.3,-269.45 659.88,-267.56 666.85,-275.54 670.3,-269.45"/>
<text text-anchor="middle" x="757" y="-341" font-family="Helvetica,sans-Serif" font-size="10.00"> button</text>
</g>
<!-- Node13 -->
<g id="node13" class="node">
<title>Node13</title>
<g id="a_node13"><a xlink:href="classJoyGradientButton.html" target="_top" xlink:title=" ">
<polygon fill="white" stroke="black" points="831,-285.5 831,-304.5 937,-304.5 937,-285.5 831,-285.5"/>
<text text-anchor="middle" x="884" y="-292.5" font-family="Helvetica,sans-Serif" font-size="10.00">JoyGradientButton</text>
</a>
</g>
</g>
<!-- Node3&#45;&gt;Node13 -->
<g id="edge22" class="edge">
<title>Node3&#45;&gt;Node13</title>
<path fill="none" stroke="midnightblue" d="M684.47,-264.39C725.08,-270.65 787.08,-280.21 830.97,-286.98"/>
<polygon fill="midnightblue" stroke="midnightblue" points="684.79,-260.9 674.38,-262.84 683.73,-267.82 684.79,-260.9"/>
</g>
<!-- Node3&#45;&gt;Node18 -->
<g id="edge35" class="edge">
<title>Node3&#45;&gt;Node18</title>
<path fill="none" stroke="#9a32cd" stroke-dasharray="5,2" d="M656.48,-275.86C671.82,-295.67 698.11,-328.13 724,-353 758.24,-385.89 767.56,-394.13 808,-419 824.28,-429.01 843.89,-438.07 858.97,-444.46"/>
<polygon fill="#9a32cd" stroke="#9a32cd" points="659.1,-273.53 650.24,-267.72 653.54,-277.78 659.1,-273.53"/>
<text text-anchor="middle" x="757" y="-409" font-family="Helvetica,sans-Serif" font-size="10.00"> m_joyButton</text>
</g>
<!-- Node23 -->
<g id="node23" class="node">
<title>Node23</title>
<g id="a_node23"><a xlink:href="classJoyDPadButton.html" target="_top" xlink:title=" ">
<polygon fill="white" stroke="black" points="2431,-225.5 2431,-244.5 2520,-244.5 2520,-225.5 2431,-225.5"/>
<text text-anchor="middle" x="2475.5" y="-232.5" font-family="Helvetica,sans-Serif" font-size="10.00">JoyDPadButton</text>
</a>
</g>
</g>
<!-- Node3&#45;&gt;Node23 -->
<g id="edge43" class="edge">
<title>Node3&#45;&gt;Node23</title>
<path fill="none" stroke="midnightblue" d="M684,-248.15C777.54,-226.56 1014.16,-177 1215,-177 1215,-177 1215,-177 2259,-177 2332.61,-177 2415.66,-208.95 2453.59,-225.42"/>
<polygon fill="midnightblue" stroke="midnightblue" points="683.04,-244.78 674.09,-250.45 684.63,-251.59 683.04,-244.78"/>
</g>
<!-- Node4&#45;&gt;Node3 -->
<g id="edge4" class="edge">
<title>Node4&#45;&gt;Node3</title>
<path fill="none" stroke="#9a32cd" stroke-dasharray="5,2" d="M430.12,-388.4C470.12,-391.36 520.6,-389.19 560,-368 602.19,-345.31 628.23,-289.94 637.34,-267.59"/>
<polygon fill="#9a32cd" stroke="#9a32cd" points="430.19,-384.89 419.93,-387.52 429.59,-391.87 430.19,-384.89"/>
<text text-anchor="middle" x="502" y="-392" font-family="Helvetica,sans-Serif" font-size="10.00"> mouseHelper</text>
</g>
<!-- Node5&#45;&gt;Node3 -->
<g id="edge6" class="edge">
<title>Node5&#45;&gt;Node3</title>
<path fill="none" stroke="#9a32cd" stroke-dasharray="5,2" d="M379.27,-278.91C394.43,-264.33 418.48,-244.42 444,-236 503.15,-216.48 577.14,-235.56 615.41,-248.41"/>
<polygon fill="#9a32cd" stroke="#9a32cd" points="376.41,-276.82 371.81,-286.36 381.36,-281.77 376.41,-276.82"/>
<text text-anchor="middle" x="502" y="-360" font-family="Helvetica,sans-Serif" font-size="10.00"> currentDelay</text>
<text text-anchor="middle" x="502" y="-349" font-family="Helvetica,sans-Serif" font-size="10.00">lastActiveKey</text>
<text text-anchor="middle" x="502" y="-338" font-family="Helvetica,sans-Serif" font-size="10.00">currentSetChangeSlot</text>
<text text-anchor="middle" x="502" y="-327" font-family="Helvetica,sans-Serif" font-size="10.00">currentKeyPress</text>
<text text-anchor="middle" x="502" y="-316" font-family="Helvetica,sans-Serif" font-size="10.00">currentRelease</text>
<text text-anchor="middle" x="502" y="-305" font-family="Helvetica,sans-Serif" font-size="10.00">currentCycle</text>
<text text-anchor="middle" x="502" y="-294" font-family="Helvetica,sans-Serif" font-size="10.00">previousCycle</text>
<text text-anchor="middle" x="502" y="-283" font-family="Helvetica,sans-Serif" font-size="10.00">m_currentDistance</text>
<text text-anchor="middle" x="502" y="-272" font-family="Helvetica,sans-Serif" font-size="10.00">currentPause</text>
<text text-anchor="start" x="444" y="-261" font-family="Helvetica,sans-Serif" font-size="10.00">currentWheelHorizontal</text>
<text text-anchor="middle" x="502" y="-250" font-family="Helvetica,sans-Serif" font-size="10.00">Event</text>
<text text-anchor="middle" x="502" y="-239" font-family="Helvetica,sans-Serif" font-size="10.00">...</text>
</g>
<!-- Node6 -->
<g id="node6" class="node">
<title>Node6</title>
<g id="a_node6"><a xlink:href="classVDPad.html" target="_top" xlink:title=" ">
<polygon fill="white" stroke="black" points="2451.5,-89.5 2451.5,-108.5 2499.5,-108.5 2499.5,-89.5 2451.5,-89.5"/>
<text text-anchor="middle" x="2475.5" y="-96.5" font-family="Helvetica,sans-Serif" font-size="10.00">VDPad</text>
</a>
</g>
</g>
<!-- Node6&#45;&gt;Node3 -->
<g id="edge8" class="edge">
<title>Node6&#45;&gt;Node3</title>
<path fill="none" stroke="#9a32cd" stroke-dasharray="5,2" d="M2454.46,-82.61C2417.96,-54.48 2337.19,0 2259,0 883,0 883,0 883,0 744.74,0 663.55,-201.07 646.42,-248.2"/>
<polygon fill="#9a32cd" stroke="#9a32cd" points="2452.73,-85.71 2462.76,-89.15 2457.07,-80.21 2452.73,-85.71"/>
<text text-anchor="middle" x="1639.5" y="-3" font-family="Helvetica,sans-Serif" font-size="10.00"> m_vdpad</text>
</g>
<!-- Node7&#45;&gt;Node6 -->
<g id="edge9" class="edge">
<title>Node7&#45;&gt;Node6</title>
<path fill="none" stroke="midnightblue" d="M2274.49,-250.8C2282.88,-241.84 2293.63,-230.93 2304,-222 2357.94,-175.57 2428.63,-128.51 2459.26,-108.71"/>
<polygon fill="midnightblue" stroke="midnightblue" points="2271.72,-248.64 2267.52,-258.36 2276.87,-253.38 2271.72,-248.64"/>
</g>
<!-- Node7&#45;&gt;Node23 -->
<g id="edge44" class="edge">
<title>Node7&#45;&gt;Node23</title>
<path fill="none" stroke="#9a32cd" stroke-dasharray="5,2" d="M2296.06,-263.55C2327.31,-259.65 2373.18,-253.59 2413,-247 2418.8,-246.04 2424.88,-244.95 2430.88,-243.83"/>
<polygon fill="#9a32cd" stroke="#9a32cd" points="2295.55,-260.09 2286.05,-264.79 2296.41,-267.03 2295.55,-260.09"/>
<text text-anchor="middle" x="2358.5" y="-266" font-family="Helvetica,sans-Serif" font-size="10.00"> m_dpad</text>
</g>
<!-- Node8 -->
<g id="node8" class="node">
<title>Node8</title>
<g id="a_node8"><a xlink:href="classSetJoystick.html" target="_top" xlink:title="A set of mapped events which can by switched by a controller event. Contains controller input objects...">
<polygon fill="white" stroke="black" points="2057,-258.5 2057,-277.5 2128,-277.5 2128,-258.5 2057,-258.5"/>
<text text-anchor="middle" x="2092.5" y="-265.5" font-family="Helvetica,sans-Serif" font-size="10.00">SetJoystick</text>
</a>
</g>
</g>
<!-- Node8&#45;&gt;Node7 -->
<g id="edge11" class="edge">
<title>Node8&#45;&gt;Node7</title>
<path fill="none" stroke="#9a32cd" stroke-dasharray="5,2" d="M2138.19,-268C2167.55,-268 2205.01,-268 2229.93,-268"/>
<polygon fill="#9a32cd" stroke="#9a32cd" points="2138.17,-264.5 2128.17,-268 2138.17,-271.5 2138.17,-264.5"/>
<text text-anchor="middle" x="2179" y="-271" font-family="Helvetica,sans-Serif" font-size="10.00"> m_parentSet</text>
</g>
<!-- Node8&#45;&gt;Node9 -->
<g id="edge14" class="edge">
<title>Node8&#45;&gt;Node9</title>
<path fill="none" stroke="#9a32cd" stroke-dasharray="5,2" d="M2085.05,-287.09C2076.96,-308.86 2061.39,-344.6 2039,-369 2006.59,-404.32 1956.33,-430.89 1927.46,-444.3"/>
<polygon fill="#9a32cd" stroke="#9a32cd" points="2088.36,-288.23 2088.42,-277.63 2081.77,-285.88 2088.36,-288.23"/>
<text text-anchor="middle" x="2003" y="-426" font-family="Helvetica,sans-Serif" font-size="10.00"> m_setJoystick</text>
</g>
<!-- Node8&#45;&gt;Node11 -->
<g id="edge19" class="edge">
<title>Node8&#45;&gt;Node11</title>
<path fill="none" stroke="#9a32cd" stroke-dasharray="5,2" d="M2046.44,-267.92C1934.6,-267.72 1647.02,-267.2 1559.29,-267.05"/>
<polygon fill="#9a32cd" stroke="#9a32cd" points="2046.69,-271.42 2056.7,-267.94 2046.71,-264.42 2046.69,-271.42"/>
<text text-anchor="middle" x="1808" y="-271" font-family="Helvetica,sans-Serif" font-size="10.00"> m_parentSet</text>
</g>
<!-- Node9&#45;&gt;Node8 -->
<g id="edge12" class="edge">
<title>Node9&#45;&gt;Node8</title>
<path fill="none" stroke="midnightblue" d="M1922.08,-436.97C1960.33,-398.82 2051.88,-307.52 2081.83,-277.64"/>
<polygon fill="midnightblue" stroke="midnightblue" points="1919.37,-434.72 1914.76,-444.26 1924.32,-439.68 1919.37,-434.72"/>
</g>
<!-- Node10&#45;&gt;Node9 -->
<g id="edge15" class="edge">
<title>Node10&#45;&gt;Node9</title>
<path fill="none" stroke="#9a32cd" stroke-dasharray="5,2" d="M1767.26,-482.5C1795.24,-476.62 1831,-469.12 1858.79,-463.28"/>
<polygon fill="#9a32cd" stroke="#9a32cd" points="1766.4,-479.1 1757.33,-484.58 1767.83,-485.95 1766.4,-479.1"/>
<text text-anchor="middle" x="1808" y="-483" font-family="Helvetica,sans-Serif" font-size="10.00"> joyAxisXml</text>
</g>
<!-- Node11&#45;&gt;Node10 -->
<g id="edge17" class="edge">
<title>Node11&#45;&gt;Node10</title>
<path fill="none" stroke="#9a32cd" stroke-dasharray="5,2" d="M1547.9,-284.38C1585.07,-329.22 1683.31,-447.74 1712.02,-482.37"/>
<polygon fill="#9a32cd" stroke="#9a32cd" points="1550.59,-282.13 1541.51,-276.67 1545.2,-286.6 1550.59,-282.13"/>
<text text-anchor="middle" x="1639.5" y="-428" font-family="Helvetica,sans-Serif" font-size="10.00"> m_joyAxis</text>
</g>
<!-- Node12 -->
<g id="node12" class="node">
<title>Node12</title>
<g id="a_node12"><a xlink:href="classJoyAxisButton.html" target="_top" xlink:title=" ">
<polygon fill="white" stroke="black" points="1275,-248.5 1275,-267.5 1360,-267.5 1360,-248.5 1275,-248.5"/>
<text text-anchor="middle" x="1317.5" y="-255.5" font-family="Helvetica,sans-Serif" font-size="10.00">JoyAxisButton</text>
</a>
</g>
</g>
<!-- Node11&#45;&gt;Node12 -->
<g id="edge23" class="edge">
<title>Node11&#45;&gt;Node12</title>
<path fill="none" stroke="#9a32cd" stroke-dasharray="5,2" d="M1495.32,-265.47C1457.86,-263.89 1399.41,-261.42 1360.07,-259.76"/>
<polygon fill="#9a32cd" stroke="#9a32cd" points="1495.62,-268.99 1505.76,-265.91 1495.92,-261.99 1495.62,-268.99"/>
<text text-anchor="middle" x="1417" y="-267" font-family="Helvetica,sans-Serif" font-size="10.00"> m_axis</text>
</g>
<!-- Node12&#45;&gt;Node11 -->
<g id="edge20" class="edge">
<title>Node12&#45;&gt;Node11</title>
<path fill="none" stroke="#9a32cd" stroke-dasharray="5,2" d="M1334.74,-241.06C1346.43,-230.15 1363.21,-216.94 1381,-211 1411.35,-200.86 1422.52,-201.24 1453,-211 1481.38,-220.09 1508.25,-243.61 1521.98,-257.1"/>
<polygon fill="#9a32cd" stroke="#9a32cd" points="1332.21,-238.63 1327.51,-248.13 1337.11,-243.64 1332.21,-238.63"/>
<text text-anchor="middle" x="1417" y="-236" font-family="Helvetica,sans-Serif" font-size="10.00"> paxisbutton</text>
<text text-anchor="middle" x="1417" y="-225" font-family="Helvetica,sans-Serif" font-size="10.00">activeButton</text>
<text text-anchor="middle" x="1417" y="-214" font-family="Helvetica,sans-Serif" font-size="10.00">naxisbutton</text>
</g>
<!-- Node13&#45;&gt;Node12 -->
<g id="edge21" class="edge">
<title>Node13&#45;&gt;Node12</title>
<path fill="none" stroke="midnightblue" d="M947.16,-283.88C963.35,-281.29 980.79,-278.78 997,-277 1096.28,-266.1 1213.66,-261.14 1274.78,-259.15"/>
<polygon fill="midnightblue" stroke="midnightblue" points="946.58,-280.43 937.27,-285.49 947.71,-287.33 946.58,-280.43"/>
</g>
<!-- Node16 -->
<g id="node16" class="node">
<title>Node16</title>
<g id="a_node16"><a xlink:href="classJoyControlStickModifierButton.html" target="_top" xlink:title=" ">
<polygon fill="white" stroke="black" points="997,-324.5 997,-343.5 1160,-343.5 1160,-324.5 997,-324.5"/>
<text text-anchor="middle" x="1078.5" y="-331.5" font-family="Helvetica,sans-Serif" font-size="10.00">JoyControlStickModifierButton</text>
</a>
</g>
</g>
<!-- Node13&#45;&gt;Node16 -->
<g id="edge28" class="edge">
<title>Node13&#45;&gt;Node16</title>
<path fill="none" stroke="midnightblue" d="M942.2,-306.59C970.38,-312.3 1003.92,-319.09 1030.56,-324.49"/>
<polygon fill="midnightblue" stroke="midnightblue" points="942.59,-303.1 932.09,-304.54 941.2,-309.96 942.59,-303.1"/>
</g>
<!-- Node17 -->
<g id="node17" class="node">
<title>Node17</title>
<g id="a_node17"><a xlink:href="classJoyControlStickButton.html" target="_top" xlink:title=" ">
<polygon fill="white" stroke="black" points="1471,-380.5 1471,-399.5 1594,-399.5 1594,-380.5 1471,-380.5"/>
<text text-anchor="middle" x="1532.5" y="-387.5" font-family="Helvetica,sans-Serif" font-size="10.00">JoyControlStickButton</text>
</a>
</g>
</g>
<!-- Node13&#45;&gt;Node17 -->
<g id="edge31" class="edge">
<title>Node13&#45;&gt;Node17</title>
<path fill="none" stroke="midnightblue" d="M908.08,-310.1C930.01,-323.68 964.4,-342.97 997,-353 1161.28,-403.55 1209.42,-388.76 1381,-399 1412.94,-400.91 1421.05,-400.83 1453,-399 1458.75,-398.67 1464.73,-398.21 1470.7,-397.66"/>
<polygon fill="midnightblue" stroke="midnightblue" points="909.81,-307.05 899.48,-304.68 906.07,-312.98 909.81,-307.05"/>
</g>
<!-- Node14&#45;&gt;Node11 -->
<g id="edge24" class="edge">
<title>Node14&#45;&gt;Node11</title>
<path fill="none" stroke="#9a32cd" stroke-dasharray="5,2" d="M1357.33,-316.32C1365.15,-313.84 1373.33,-311.3 1381,-309 1424.66,-295.93 1475.83,-281.93 1505.85,-273.84"/>
<polygon fill="#9a32cd" stroke="#9a32cd" points="1356.14,-313.03 1347.68,-319.41 1358.27,-319.7 1356.14,-313.03"/>
<text text-anchor="middle" x="1417" y="-312" font-family="Helvetica,sans-Serif" font-size="10.00"> m_stick</text>
</g>
<!-- Node14&#45;&gt;Node16 -->
<g id="edge29" class="edge">
<title>Node14&#45;&gt;Node16</title>
<path fill="none" stroke="#9a32cd" stroke-dasharray="5,2" d="M1261.69,-328.07C1259.09,-328.04 1256.52,-328.02 1254,-328 1220.22,-327.73 1211.76,-326.97 1178,-328 1172.18,-328.18 1166.16,-328.41 1160.11,-328.69"/>
<polygon fill="#9a32cd" stroke="#9a32cd" points="1261.73,-331.57 1271.78,-328.2 1261.82,-324.57 1261.73,-331.57"/>
<text text-anchor="middle" x="1216" y="-331" font-family="Helvetica,sans-Serif" font-size="10.00"> stick</text>
</g>
<!-- Node14&#45;&gt;Node17 -->
<g id="edge32" class="edge">
<title>Node14&#45;&gt;Node17</title>
<path fill="none" stroke="#9a32cd" stroke-dasharray="5,2" d="M1338.8,-344.68C1350.52,-352.93 1365.88,-362.46 1381,-368 1409.51,-378.46 1442.78,-383.96 1470.77,-386.85"/>
<polygon fill="#9a32cd" stroke="#9a32cd" points="1340.76,-341.78 1330.62,-338.71 1336.64,-347.43 1340.76,-341.78"/>
<text text-anchor="middle" x="1417" y="-387" font-family="Helvetica,sans-Serif" font-size="10.00"> stick</text>
</g>
<!-- Node15 -->
<g id="node15" class="node">
<title>Node15</title>
<g id="a_node15"><a xlink:href="classJoyStickDirectionsType.html" target="_top" xlink:title=" ">
<polygon fill="white" stroke="black" points="1014.5,-286.5 1014.5,-305.5 1142.5,-305.5 1142.5,-286.5 1014.5,-286.5"/>
<text text-anchor="middle" x="1078.5" y="-293.5" font-family="Helvetica,sans-Serif" font-size="10.00">JoyStickDirectionsType</text>
</a>
</g>
</g>
<!-- Node15&#45;&gt;Node14 -->
<g id="edge26" class="edge">
<title>Node15&#45;&gt;Node14</title>
<path fill="none" stroke="midnightblue" d="M1152.93,-306.23C1191.85,-311.64 1238.38,-318.12 1271.84,-322.78"/>
<polygon fill="midnightblue" stroke="midnightblue" points="1153.09,-302.71 1142.7,-304.8 1152.12,-309.65 1153.09,-302.71"/>
</g>
<!-- Node16&#45;&gt;Node14 -->
<g id="edge27" class="edge">
<title>Node16&#45;&gt;Node14</title>
<path fill="none" stroke="#9a32cd" stroke-dasharray="5,2" d="M1170.59,-342.29C1197.49,-343.49 1226.97,-343.57 1254,-341 1260.05,-340.42 1266.38,-339.54 1272.6,-338.51"/>
<polygon fill="#9a32cd" stroke="#9a32cd" points="1170.58,-338.79 1160.42,-341.78 1170.23,-345.78 1170.58,-338.79"/>
<text text-anchor="middle" x="1216" y="-346" font-family="Helvetica,sans-Serif" font-size="10.00"> modifierButton</text>
</g>
<!-- Node17&#45;&gt;Node14 -->
<g id="edge30" class="edge">
<title>Node17&#45;&gt;Node14</title>
<path fill="none" stroke="#9a32cd" stroke-dasharray="5,2" d="M1514.48,-373.7C1499.58,-360.58 1476.66,-343.05 1453,-335 1424.23,-325.21 1390,-323.82 1363.27,-324.82"/>
<polygon fill="#9a32cd" stroke="#9a32cd" points="1512.14,-376.3 1521.89,-380.45 1516.85,-371.13 1512.14,-376.3"/>
<text text-anchor="middle" x="1417" y="-360" font-family="Helvetica,sans-Serif" font-size="10.00"> activeButton1</text>
<text text-anchor="middle" x="1417" y="-349" font-family="Helvetica,sans-Serif" font-size="10.00">activeButton2</text>
<text text-anchor="middle" x="1417" y="-338" font-family="Helvetica,sans-Serif" font-size="10.00">activeButton3</text>
</g>
<!-- Node18&#45;&gt;Node9 -->
<g id="edge33" class="edge">
<title>Node18&#45;&gt;Node9</title>
<path fill="none" stroke="#9a32cd" stroke-dasharray="5,2" d="M935.56,-454C974.39,-454 1029.33,-454 1077.5,-454 1077.5,-454 1077.5,-454 1722,-454 1768.66,-454 1822.1,-454 1858.74,-454"/>
<polygon fill="#9a32cd" stroke="#9a32cd" points="935.56,-450.5 925.56,-454 935.56,-457.5 935.56,-450.5"/>
<text text-anchor="middle" x="1417" y="-457" font-family="Helvetica,sans-Serif" font-size="10.00"> joyButtonXml</text>
</g>
<!-- Node19&#45;&gt;Node8 -->
<g id="edge36" class="edge">
<title>Node19&#45;&gt;Node8</title>
<path fill="none" stroke="#9a32cd" stroke-dasharray="5,2" d="M409.82,-72.19C464.88,-61.53 559.16,-46 641,-46 641,-46 641,-46 1905,-46 2017.76,-46 2075.98,-215.97 2088.77,-258.46"/>
<polygon fill="#9a32cd" stroke="#9a32cd" points="408.82,-68.82 399.68,-74.19 410.17,-75.69 408.82,-68.82"/>
<text text-anchor="middle" x="1317.5" y="-49" font-family="Helvetica,sans-Serif" font-size="10.00"> m_device</text>
</g>
<!-- Node22 -->
<g id="node22" class="node">
<title>Node22</title>
<g id="a_node22"><a xlink:href="classInputDeviceCalibration.html" target="_top" xlink:title="Calibration storage backend which can store multiple calibration items for different controllers.">
<polygon fill="white" stroke="black" points="578,-83.5 578,-102.5 706,-102.5 706,-83.5 578,-83.5"/>
<text text-anchor="middle" x="642" y="-90.5" font-family="Helvetica,sans-Serif" font-size="10.00">InputDeviceCalibration</text>
</a>
</g>
</g>
<!-- Node19&#45;&gt;Node22 -->
<g id="edge41" class="edge">
<title>Node19&#45;&gt;Node22</title>
<path fill="none" stroke="#9a32cd" stroke-dasharray="5,2" d="M409.68,-88C420.9,-89.21 432.86,-90.33 444,-91 488.72,-93.7 539.26,-94.17 577.95,-93.97"/>
<polygon fill="#9a32cd" stroke="#9a32cd" points="409.96,-84.51 399.63,-86.86 409.17,-91.46 409.96,-84.51"/>
<text text-anchor="middle" x="502" y="-98" font-family="Helvetica,sans-Serif" font-size="10.00"> m_device</text>
</g>
<!-- Node20 -->
<g id="node20" class="node">
<title>Node20</title>
<g id="a_node20"><a xlink:href="classAntiMicroSettings.html" target="_top" xlink:title=" ">
<polygon fill="white" stroke="black" points="101,-72.5 101,-91.5 204,-91.5 204,-72.5 101,-72.5"/>
<text text-anchor="middle" x="152.5" y="-79.5" font-family="Helvetica,sans-Serif" font-size="10.00">AntiMicroSettings</text>
</a>
</g>
</g>
<!-- Node20&#45;&gt;Node19 -->
<g id="edge38" class="edge">
<title>Node20&#45;&gt;Node19</title>
<path fill="none" stroke="#9a32cd" stroke-dasharray="5,2" d="M214.57,-82C250.24,-82 294.07,-82 324.43,-82"/>
<polygon fill="#9a32cd" stroke="#9a32cd" points="214.26,-78.5 204.26,-82 214.26,-85.5 214.26,-78.5"/>
<text text-anchor="middle" x="251" y="-85" font-family="Helvetica,sans-Serif" font-size="10.00"> m_settings</text>
</g>
<!-- Node21 -->
<g id="node21" class="node">
<title>Node21</title>
<g id="a_node21"><a xlink:title=" ">
<polygon fill="white" stroke="#bfbfbf" points="0,-72.5 0,-91.5 64,-91.5 64,-72.5 0,-72.5"/>
<text text-anchor="middle" x="32" y="-79.5" font-family="Helvetica,sans-Serif" font-size="10.00">QSettings</text>
</a>
</g>
</g>
<!-- Node21&#45;&gt;Node20 -->
<g id="edge39" class="edge">
<title>Node21&#45;&gt;Node20</title>
<path fill="none" stroke="midnightblue" d="M74.27,-82C82.86,-82 91.99,-82 100.87,-82"/>
<polygon fill="midnightblue" stroke="midnightblue" points="74.13,-78.5 64.13,-82 74.13,-85.5 74.13,-78.5"/>
</g>
<!-- Node22&#45;&gt;Node19 -->
<g id="edge40" class="edge">
<title>Node22&#45;&gt;Node19</title>
<path fill="none" stroke="#9a32cd" stroke-dasharray="5,2" d="M579.19,-82.04C572.73,-81.21 566.24,-80.5 560,-80 504.25,-75.56 439.36,-77.6 399.74,-79.66"/>
<polygon fill="#9a32cd" stroke="#9a32cd" points="578.91,-85.54 589.29,-83.45 579.87,-78.6 578.91,-85.54"/>
<text text-anchor="middle" x="502" y="-83" font-family="Helvetica,sans-Serif" font-size="10.00"> m_calibrations</text>
</g>
<!-- Node23&#45;&gt;Node7 -->
<g id="edge42" class="edge">
<title>Node23&#45;&gt;Node7</title>
<path fill="none" stroke="#9a32cd" stroke-dasharray="5,2" d="M2420.71,-227.15C2386.48,-224.12 2341.66,-223.85 2304,-236 2290.31,-240.41 2277.22,-250.64 2268.72,-258.35"/>
<polygon fill="#9a32cd" stroke="#9a32cd" points="2420.68,-230.66 2430.97,-228.16 2421.37,-223.69 2420.68,-230.66"/>
<text text-anchor="middle" x="2358.5" y="-239" font-family="Helvetica,sans-Serif" font-size="10.00"> activeDiagonalButton</text>
</g>
</g>
</svg>
        <g id="navigator" transform="translate(0 0)" fill="#404254">
                <rect fill="#f2f5e9" fill-opacity="0.5" stroke="#606060" stroke-width=".5" x="0" y="0" width="60" height="60"/>
                <use id="zoomplus" xlink:href="#zoomPlus" x="17" y="9" onmousedown="handleZoom(evt,'in')"/>
                <use id="zoomminus" xlink:href="#zoomMin" x="42" y="9" onmousedown="handleZoom(evt,'out')"/>
                <use id="reset" xlink:href="#resetDef" x="30" y="36" onmousedown="handleReset()"/>
                <g id="arrowUp" xlink:href="#dirArrow" transform="translate(30 24)" onmousedown="handlePan(0,-1)">
                  <use xlink:href="#rim" fill="#404040">
                        <set attributeName="fill" to="#808080" begin="arrowUp.mouseover" end="arrowUp.mouseout"/>
                  </use>
                  <path fill="none" stroke="white" stroke-width="1.5" d="M0,-3.0v7 M-2.5,-0.5L0,-3.0L2.5,-0.5"/>
                </g>
                <g id="arrowRight" xlink:href="#dirArrow" transform="rotate(90) translate(36 -43)" onmousedown="handlePan(1,0)">
                  <use xlink:href="#rim" fill="#404040">
                        <set attributeName="fill" to="#808080" begin="arrowRight.mouseover" end="arrowRight.mouseout"/>
                  </use>
                  <path fill="none" stroke="white" stroke-width="1.5" d="M0,-3.0v7 M-2.5,-0.5L0,-3.0L2.5,-0.5"/>
                </g>
                <g id="arrowDown" xlink:href="#dirArrow" transform="rotate(180) translate(-30 -48)" onmousedown="handlePan(0,1)">
                  <use xlink:href="#rim" fill="#404040">
                        <set attributeName="fill" to="#808080" begin="arrowDown.mouseover" end="arrowDown.mouseout"/>
                  </use>
                  <path fill="none" stroke="white" stroke-width="1.5" d="M0,-3.0v7 M-2.5,-0.5L0,-3.0L2.5,-0.5"/>
                </g>
                <g id="arrowLeft" xlink:href="#dirArrow" transform="rotate(270) translate(-36 17)" onmousedown="handlePan(-1,0)">
                  <use xlink:href="#rim" fill="#404040">
                        <set attributeName="fill" to="#808080" begin="arrowLeft.mouseover" end="arrowLeft.mouseout"/>
                  </use>
                  <path fill="none" stroke="white" stroke-width="1.5" d="M0,-3.0v7 M-2.5,-0.5L0,-3.0L2.5,-0.5"/>
                </g>
        </g>
        <svg viewBox="0 0 15 15" width="100%" height="30px" preserveAspectRatio="xMaxYMin meet">
         <g id="arrow_out" transform="scale(0.3 0.3)">
          <a xlink:href="classMouseButtonSettingsDialogHelper__coll__graph_org.svg" target="_base">
           <rect id="button" ry="5" rx="5" y="6" x="6" height="38" width="38"
                fill="#f2f5e9" fill-opacity="0.5" stroke="#606060" stroke-width="1.0"/>
           <path id="arrow"
             d="M 11.500037,31.436501 C 11.940474,20.09759 22.043105,11.32322 32.158766,21.979434 L 37.068811,17.246167 C 37.068811,17.246167 37.088388,32 37.088388,32 L 22.160133,31.978069 C 22.160133,31.978069 26.997745,27.140456 26.997745,27.140456 C 18.528582,18.264221 13.291696,25.230495 11.500037,31.436501 z"
             style="fill:#404040;"/>
          </a>
         </g>
        </svg>
</svg>
