<?xml version="1.0" encoding="UTF-8" standalone="no"?>
<!DOCTYPE svg PUBLIC "-//W3C//DTD SVG 1.1//EN"
 "http://www.w3.org/Graphics/SVG/1.1/DTD/svg11.dtd">
<!-- Generated by graphviz version 2.43.0 (0)
 -->
<!-- Title: ButtonEditDialog::setupVirtualKeyboardMouseTabWidget Pages: 1 -->
<svg width="2840pt" height="541pt"
 viewBox="0.00 0.00 2840.00 541.47" xmlns="http://www.w3.org/2000/svg" xmlns:xlink="http://www.w3.org/1999/xlink">
<g id="graph0" class="graph" transform="scale(1 1) rotate(0) translate(4 537.47)">
<title>ButtonEditDialog::setupVirtualKeyboardMouseTabWidget</title>
<polygon fill="white" stroke="transparent" points="-4,4 -4,-537.47 2836,-537.47 2836,4 -4,4"/>
<!-- Node1 -->
<g id="node1" class="node">
<title>Node1</title>
<g id="a_node1"><a xlink:title=" ">
<polygon fill="#bfbfbf" stroke="black" points="0,-251 0,-281 164,-281 164,-251 0,-251"/>
<text text-anchor="start" x="8" y="-269" font-family="Helvetica,sans-Serif" font-size="10.00">ButtonEditDialog::setupVirtual</text>
<text text-anchor="middle" x="82" y="-258" font-family="Helvetica,sans-Serif" font-size="10.00">KeyboardMouseTabWidget</text>
</a>
</g>
</g>
<!-- Node2 -->
<g id="node2" class="node">
<title>Node2</title>
<g id="a_node2"><a xlink:href="classVirtualKeyboardMouseWidget.html#aec7fadb5f607a6410093d9fe296c3f9f" target="_top" xlink:title=" ">
<polygon fill="white" stroke="black" points="200,-245.5 200,-286.5 393,-286.5 393,-245.5 200,-245.5"/>
<text text-anchor="start" x="208" y="-274.5" font-family="Helvetica,sans-Serif" font-size="10.00">VirtualKeyboardMouseWidget</text>
<text text-anchor="start" x="208" y="-263.5" font-family="Helvetica,sans-Serif" font-size="10.00">::establishVirtualKeyboardAdvanced</text>
<text text-anchor="middle" x="296.5" y="-252.5" font-family="Helvetica,sans-Serif" font-size="10.00">SignalConnections</text>
</a>
</g>
</g>
<!-- Node1&#45;&gt;Node2 -->
<g id="edge1" class="edge">
<title>Node1&#45;&gt;Node2</title>
<path fill="none" stroke="midnightblue" d="M164.25,-266C172.58,-266 181.14,-266 189.69,-266"/>
<polygon fill="midnightblue" stroke="midnightblue" points="189.71,-269.5 199.71,-266 189.71,-262.5 189.71,-269.5"/>
</g>
<!-- Node49 -->
<g id="node46" class="node">
<title>Node49</title>
<g id="a_node46"><a xlink:href="classVirtualKeyboardMouseWidget.html#ad9f14320ae528672d40f2c6ae0cb603b" target="_top" xlink:title=" ">
<polygon fill="white" stroke="black" points="207,-169.5 207,-210.5 386,-210.5 386,-169.5 207,-169.5"/>
<text text-anchor="start" x="215" y="-198.5" font-family="Helvetica,sans-Serif" font-size="10.00">VirtualKeyboardMouseWidget</text>
<text text-anchor="start" x="215" y="-187.5" font-family="Helvetica,sans-Serif" font-size="10.00">::establishVirtualMouseAdvanced</text>
<text text-anchor="middle" x="296.5" y="-176.5" font-family="Helvetica,sans-Serif" font-size="10.00">SignalConnections</text>
</a>
</g>
</g>
<!-- Node1&#45;&gt;Node49 -->
<g id="edge58" class="edge">
<title>Node1&#45;&gt;Node49</title>
<path fill="none" stroke="midnightblue" d="M124.98,-250.98C154.38,-240.47 194.28,-226.2 228.1,-214.11"/>
<polygon fill="midnightblue" stroke="midnightblue" points="229.68,-217.26 237.92,-210.59 227.32,-210.67 229.68,-217.26"/>
</g>
<!-- Node51 -->
<g id="node48" class="node">
<title>Node51</title>
<g id="a_node48"><a xlink:href="classButtonEditDialog.html#a88d97effdbddb77cc830fe0376e425ff" target="_top" xlink:title=" ">
<polygon fill="white" stroke="black" points="226.5,-322 226.5,-352 366.5,-352 366.5,-322 226.5,-322"/>
<text text-anchor="start" x="234.5" y="-340" font-family="Helvetica,sans-Serif" font-size="10.00">ButtonEditDialog::refresh</text>
<text text-anchor="middle" x="296.5" y="-329" font-family="Helvetica,sans-Serif" font-size="10.00">SlotSummaryLabel</text>
</a>
</g>
</g>
<!-- Node1&#45;&gt;Node51 -->
<g id="edge60" class="edge">
<title>Node1&#45;&gt;Node51</title>
<path fill="none" stroke="midnightblue" d="M128.07,-281.06C161.03,-292.07 205.91,-307.07 240.91,-318.76"/>
<polygon fill="midnightblue" stroke="midnightblue" points="239.91,-322.12 250.5,-321.96 242.12,-315.48 239.91,-322.12"/>
</g>
<!-- Node3 -->
<g id="node3" class="node">
<title>Node3</title>
<g id="a_node3"><a xlink:href="classVirtualKeyboardMouseWidget.html#a1fbcd1c7493e1bcc9a573ec84aa4249e" target="_top" xlink:title=" ">
<polygon fill="white" stroke="black" points="441,-207 441,-237 602,-237 602,-207 441,-207"/>
<text text-anchor="start" x="449" y="-225" font-family="Helvetica,sans-Serif" font-size="10.00">VirtualKeyboardMouseWidget</text>
<text text-anchor="middle" x="521.5" y="-214" font-family="Helvetica,sans-Serif" font-size="10.00">::clearButtonSlots</text>
</a>
</g>
</g>
<!-- Node2&#45;&gt;Node3 -->
<g id="edge2" class="edge">
<title>Node2&#45;&gt;Node3</title>
<path fill="none" stroke="midnightblue" d="M393.04,-247.15C406.7,-244.45 420.69,-241.69 434.16,-239.04"/>
<polygon fill="midnightblue" stroke="midnightblue" points="435.21,-242.4 444.34,-237.03 433.85,-235.53 435.21,-242.4"/>
</g>
<!-- Node44 -->
<g id="node41" class="node">
<title>Node44</title>
<g id="a_node41"><a xlink:href="classVirtualKeyboardMouseWidget.html#a887b15115b62f1f9eca3508704c7daa2" target="_top" xlink:title=" ">
<polygon fill="white" stroke="black" points="441,-295 441,-325 602,-325 602,-295 441,-295"/>
<text text-anchor="start" x="449" y="-313" font-family="Helvetica,sans-Serif" font-size="10.00">VirtualKeyboardMouseWidget</text>
<text text-anchor="middle" x="521.5" y="-302" font-family="Helvetica,sans-Serif" font-size="10.00">::otherKeysActionAdvanced</text>
</a>
</g>
</g>
<!-- Node2&#45;&gt;Node44 -->
<g id="edge52" class="edge">
<title>Node2&#45;&gt;Node44</title>
<path fill="none" stroke="midnightblue" d="M393.04,-284.85C406.7,-287.55 420.69,-290.31 434.16,-292.96"/>
<polygon fill="midnightblue" stroke="midnightblue" points="433.85,-296.47 444.34,-294.97 435.21,-289.6 433.85,-296.47"/>
</g>
<!-- Node48 -->
<g id="node45" class="node">
<title>Node48</title>
<g id="a_node45"><a xlink:href="classVirtualKeyboardMouseWidget.html#a61b7bbca8f5cf43e26bb2fd06365dacc" target="_top" xlink:title=" ">
<polygon fill="white" stroke="black" points="650,-256 650,-286 849,-286 849,-256 650,-256"/>
<text text-anchor="start" x="658" y="-274" font-family="Helvetica,sans-Serif" font-size="10.00">VirtualKeyboardMouseWidget</text>
<text text-anchor="middle" x="749.5" y="-263" font-family="Helvetica,sans-Serif" font-size="10.00">::processAdvancedKeyboardSelection</text>
</a>
</g>
</g>
<!-- Node2&#45;&gt;Node48 -->
<g id="edge57" class="edge">
<title>Node2&#45;&gt;Node48</title>
<path fill="none" stroke="midnightblue" d="M393.15,-267.06C465.26,-267.86 564.24,-268.96 639.43,-269.79"/>
<polygon fill="midnightblue" stroke="midnightblue" points="639.84,-273.3 649.87,-269.91 639.91,-266.3 639.84,-273.3"/>
</g>
<!-- Node4 -->
<g id="node4" class="node">
<title>Node4</title>
<g id="a_node4"><a xlink:href="classJoyButton.html#ad2df77b5daa94a848b015265ec1869d6" target="_top" xlink:title="Generate active zone string and notify other objects.">
<polygon fill="white" stroke="black" points="675,-207 675,-237 824,-237 824,-207 675,-207"/>
<text text-anchor="start" x="683" y="-225" font-family="Helvetica,sans-Serif" font-size="10.00">JoyButton::buildActiveZone</text>
<text text-anchor="middle" x="749.5" y="-214" font-family="Helvetica,sans-Serif" font-size="10.00">SummaryString</text>
</a>
</g>
</g>
<!-- Node3&#45;&gt;Node4 -->
<g id="edge3" class="edge">
<title>Node3&#45;&gt;Node4</title>
<path fill="none" stroke="midnightblue" d="M602.18,-222C622.4,-222 644.18,-222 664.61,-222"/>
<polygon fill="midnightblue" stroke="midnightblue" points="664.83,-225.5 674.83,-222 664.83,-218.5 664.83,-225.5"/>
</g>
<!-- Node43 -->
<g id="node40" class="node">
<title>Node43</title>
<g id="a_node40"><a xlink:href="classButtonEditDialog.html#af8126f12b4a9a65a316a335288e8cb79" target="_top" xlink:title=" ">
<polygon fill="white" stroke="black" points="668.5,-168.5 668.5,-187.5 830.5,-187.5 830.5,-168.5 668.5,-168.5"/>
<text text-anchor="middle" x="749.5" y="-175.5" font-family="Helvetica,sans-Serif" font-size="10.00">ButtonEditDialog::getInstance</text>
</a>
</g>
</g>
<!-- Node3&#45;&gt;Node43 -->
<g id="edge51" class="edge">
<title>Node3&#45;&gt;Node43</title>
<path fill="none" stroke="midnightblue" d="M599.02,-206.96C615.81,-203.67 633.5,-200.21 650,-197 662.55,-194.56 675.99,-191.96 688.79,-189.49"/>
<polygon fill="midnightblue" stroke="midnightblue" points="689.73,-192.87 698.89,-187.54 688.41,-186 689.73,-192.87"/>
</g>
<!-- Node5 -->
<g id="node5" class="node">
<title>Node5</title>
<g id="a_node5"><a xlink:href="classJoyButton.html#ae76ccd3147106953d53a565730c1d8ee" target="_top" xlink:title="Generate a string that represents slots that will be activated or slots that are currently active if ...">
<polygon fill="white" stroke="black" points="897,-164 897,-194 1038,-194 1038,-164 897,-164"/>
<text text-anchor="start" x="905" y="-182" font-family="Helvetica,sans-Serif" font-size="10.00">JoyButton::getActiveZone</text>
<text text-anchor="middle" x="967.5" y="-171" font-family="Helvetica,sans-Serif" font-size="10.00">Summary</text>
</a>
</g>
</g>
<!-- Node4&#45;&gt;Node5 -->
<g id="edge4" class="edge">
<title>Node4&#45;&gt;Node5</title>
<path fill="none" stroke="midnightblue" d="M824.23,-207.32C844.4,-203.31 866.34,-198.94 886.82,-194.86"/>
<polygon fill="midnightblue" stroke="midnightblue" points="887.62,-198.27 896.74,-192.89 886.25,-191.41 887.62,-198.27"/>
</g>
<!-- Node42 -->
<g id="node39" class="node">
<title>Node42</title>
<g id="a_node39"><a xlink:href="classJoyButton.html#a1b49d9ab85f0d5d128e2eca616747018" target="_top" xlink:title=" ">
<polygon fill="white" stroke="black" points="899,-213 899,-243 1036,-243 1036,-213 899,-213"/>
<text text-anchor="start" x="907" y="-231" font-family="Helvetica,sans-Serif" font-size="10.00">JoyButton::lockForWrited</text>
<text text-anchor="middle" x="967.5" y="-220" font-family="Helvetica,sans-Serif" font-size="10.00">String</text>
</a>
</g>
</g>
<!-- Node4&#45;&gt;Node42 -->
<g id="edge50" class="edge">
<title>Node4&#45;&gt;Node42</title>
<path fill="none" stroke="midnightblue" d="M824.23,-224.05C845.03,-224.63 867.71,-225.26 888.74,-225.84"/>
<polygon fill="midnightblue" stroke="midnightblue" points="888.82,-229.34 898.91,-226.12 889.01,-222.35 888.82,-229.34"/>
</g>
<!-- Node6 -->
<g id="node6" class="node">
<title>Node6</title>
<g id="a_node6"><a xlink:href="classJoyButton.html#a9404c4ca344265ce68c0eb9b6b95048b" target="_top" xlink:title=" ">
<polygon fill="white" stroke="black" points="1090.5,-151 1090.5,-181 1239.5,-181 1239.5,-151 1090.5,-151"/>
<text text-anchor="start" x="1098.5" y="-169" font-family="Helvetica,sans-Serif" font-size="10.00">JoyButton::buildActiveZone</text>
<text text-anchor="middle" x="1165" y="-158" font-family="Helvetica,sans-Serif" font-size="10.00">Summary</text>
</a>
</g>
</g>
<!-- Node5&#45;&gt;Node6 -->
<g id="edge5" class="edge">
<title>Node5&#45;&gt;Node6</title>
<path fill="none" stroke="midnightblue" d="M1038.25,-174.36C1051.84,-173.46 1066.22,-172.5 1080.21,-171.57"/>
<polygon fill="midnightblue" stroke="midnightblue" points="1080.56,-175.06 1090.31,-170.9 1080.1,-168.07 1080.56,-175.06"/>
</g>
<!-- Node40 -->
<g id="node37" class="node">
<title>Node40</title>
<g id="a_node37"><a xlink:href="classJoyButton.html#a7494c1753b3f16ba988076e9eb34ff47" target="_top" xlink:title=" ">
<polygon fill="white" stroke="black" points="1086,-234.5 1086,-253.5 1244,-253.5 1244,-234.5 1086,-234.5"/>
<text text-anchor="middle" x="1165" y="-241.5" font-family="Helvetica,sans-Serif" font-size="10.00">JoyButton::getActiveZoneList</text>
</a>
</g>
</g>
<!-- Node5&#45;&gt;Node40 -->
<g id="edge45" class="edge">
<title>Node5&#45;&gt;Node40</title>
<path fill="none" stroke="midnightblue" d="M1021.25,-194.04C1030.85,-196.92 1040.75,-199.98 1050,-203 1076.82,-211.76 1106.84,-222.6 1129.33,-230.93"/>
<polygon fill="midnightblue" stroke="midnightblue" points="1128.2,-234.24 1138.79,-234.45 1130.64,-227.68 1128.2,-234.24"/>
</g>
<!-- Node7 -->
<g id="node7" class="node">
<title>Node7</title>
<g id="a_node7"><a xlink:href="classJoyButton.html#a773bbe39b094a62cd17776acc06efac6" target="_top" xlink:title=" ">
<polygon fill="white" stroke="black" points="1282.5,-147 1282.5,-177 1431.5,-177 1431.5,-147 1282.5,-147"/>
<text text-anchor="start" x="1290.5" y="-165" font-family="Helvetica,sans-Serif" font-size="10.00">JoyButton::buildActiveZone</text>
<text text-anchor="middle" x="1357" y="-154" font-family="Helvetica,sans-Serif" font-size="10.00">SummarySwitchSlots</text>
</a>
</g>
</g>
<!-- Node6&#45;&gt;Node7 -->
<g id="edge6" class="edge">
<title>Node6&#45;&gt;Node7</title>
<path fill="none" stroke="midnightblue" d="M1239.73,-164.45C1250.32,-164.22 1261.29,-163.99 1272.06,-163.77"/>
<polygon fill="midnightblue" stroke="midnightblue" points="1272.39,-167.26 1282.31,-163.55 1272.24,-160.26 1272.39,-167.26"/>
</g>
<!-- Node10 -->
<g id="node10" class="node">
<title>Node10</title>
<g id="a_node10"><a xlink:href="classJoyButtonSlot.html#a4fb0606a34134786bc642627bc25aedd" target="_top" xlink:title=" ">
<polygon fill="white" stroke="black" points="1673,-70.5 1673,-89.5 1819,-89.5 1819,-70.5 1673,-70.5"/>
<text text-anchor="middle" x="1746" y="-77.5" font-family="Helvetica,sans-Serif" font-size="10.00">JoyButtonSlot::getMixSlots</text>
</a>
</g>
</g>
<!-- Node6&#45;&gt;Node10 -->
<g id="edge42" class="edge">
<title>Node6&#45;&gt;Node10</title>
<path fill="none" stroke="midnightblue" d="M1184.81,-150.97C1206.36,-134.73 1243.44,-109.75 1280,-99 1409.57,-60.89 1568.19,-64.45 1662.68,-71.51"/>
<polygon fill="midnightblue" stroke="midnightblue" points="1662.51,-75 1672.75,-72.29 1663.05,-68.02 1662.51,-75"/>
</g>
<!-- Node37 -->
<g id="node34" class="node">
<title>Node37</title>
<g id="a_node34"><a xlink:href="classJoyButton.html#a64f1660931aea2fa8df1bf5e313c05ba" target="_top" xlink:title=" ">
<polygon fill="white" stroke="black" points="1287,-196.5 1287,-215.5 1427,-215.5 1427,-196.5 1287,-196.5"/>
<text text-anchor="middle" x="1357" y="-203.5" font-family="Helvetica,sans-Serif" font-size="10.00">JoyButton::getActiveSlots</text>
</a>
</g>
</g>
<!-- Node6&#45;&gt;Node37 -->
<g id="edge41" class="edge">
<title>Node6&#45;&gt;Node37</title>
<path fill="none" stroke="midnightblue" d="M1237.29,-181.01C1258.37,-185.45 1281.11,-190.23 1300.99,-194.42"/>
<polygon fill="midnightblue" stroke="midnightblue" points="1300.3,-197.85 1310.81,-196.49 1301.74,-191 1300.3,-197.85"/>
</g>
<!-- Node38 -->
<g id="node35" class="node">
<title>Node38</title>
<g id="a_node35"><a xlink:href="classJoyButtonSlot.html#a86b4a25191351f28942511012a4e4e4a" target="_top" xlink:title=" ">
<polygon fill="white" stroke="black" points="1282,-272.5 1282,-291.5 1432,-291.5 1432,-272.5 1282,-272.5"/>
<text text-anchor="middle" x="1357" y="-279.5" font-family="Helvetica,sans-Serif" font-size="10.00">JoyButtonSlot::getSlotMode</text>
</a>
</g>
</g>
<!-- Node6&#45;&gt;Node38 -->
<g id="edge43" class="edge">
<title>Node6&#45;&gt;Node38</title>
<path fill="none" stroke="midnightblue" d="M1190.84,-181.16C1227.31,-203.43 1294.96,-244.73 1331.33,-266.94"/>
<polygon fill="midnightblue" stroke="midnightblue" points="1329.93,-270.19 1340.29,-272.41 1333.58,-264.21 1329.93,-270.19"/>
</g>
<!-- Node39 -->
<g id="node36" class="node">
<title>Node39</title>
<g id="a_node36"><a xlink:href="classJoyButtonSlot.html#aa08ff979d05b38df8f584b77bb750abb" target="_top" xlink:title=" ">
<polygon fill="white" stroke="black" points="1283,-108.5 1283,-127.5 1431,-127.5 1431,-108.5 1283,-108.5"/>
<text text-anchor="middle" x="1357" y="-115.5" font-family="Helvetica,sans-Serif" font-size="10.00">JoyButtonSlot::getTextData</text>
</a>
</g>
</g>
<!-- Node6&#45;&gt;Node39 -->
<g id="edge44" class="edge">
<title>Node6&#45;&gt;Node39</title>
<path fill="none" stroke="midnightblue" d="M1224.86,-150.98C1242.58,-146.47 1262.08,-141.52 1280,-137 1289.01,-134.73 1298.62,-132.32 1307.87,-130"/>
<polygon fill="midnightblue" stroke="midnightblue" points="1308.87,-133.36 1317.72,-127.54 1307.17,-126.57 1308.87,-133.36"/>
</g>
<!-- Node8 -->
<g id="node8" class="node">
<title>Node8</title>
<g id="a_node8"><a xlink:href="classJoyButton.html#acb0ee9af0f5a44bd07ca5cfbfd026cf6" target="_top" xlink:title=" ">
<polygon fill="white" stroke="black" points="1473.5,-152.5 1473.5,-171.5 1618.5,-171.5 1618.5,-152.5 1473.5,-152.5"/>
<text text-anchor="middle" x="1546" y="-159.5" font-family="Helvetica,sans-Serif" font-size="10.00">JoyButton::findJoySlotsEnd</text>
</a>
</g>
</g>
<!-- Node7&#45;&gt;Node8 -->
<g id="edge7" class="edge">
<title>Node7&#45;&gt;Node8</title>
<path fill="none" stroke="midnightblue" d="M1431.64,-162C1442.02,-162 1452.74,-162 1463.26,-162"/>
<polygon fill="midnightblue" stroke="midnightblue" points="1463.26,-165.5 1473.26,-162 1463.26,-158.5 1463.26,-165.5"/>
</g>
<!-- Node9 -->
<g id="node9" class="node">
<title>Node9</title>
<g id="a_node9"><a xlink:href="classJoyButtonSlot.html#a6e10409ded595380cbdcfd5c827ab32a" target="_top" xlink:title=" ">
<polygon fill="white" stroke="black" points="1470,-190.5 1470,-209.5 1622,-209.5 1622,-190.5 1470,-190.5"/>
<text text-anchor="middle" x="1546" y="-197.5" font-family="Helvetica,sans-Serif" font-size="10.00">JoyButtonSlot::getSlotString</text>
</a>
</g>
</g>
<!-- Node7&#45;&gt;Node9 -->
<g id="edge8" class="edge">
<title>Node7&#45;&gt;Node9</title>
<path fill="none" stroke="midnightblue" d="M1431.64,-176.96C1450.35,-180.77 1470.17,-184.79 1487.92,-188.4"/>
<polygon fill="midnightblue" stroke="midnightblue" points="1487.61,-191.91 1498.11,-190.47 1489,-185.05 1487.61,-191.91"/>
</g>
<!-- Node9&#45;&gt;Node10 -->
<g id="edge9" class="edge">
<title>Node9&#45;&gt;Node10</title>
<path fill="none" stroke="midnightblue" d="M1600.53,-190.43C1608.01,-187.96 1615.4,-184.87 1622,-181 1642.07,-169.23 1640.5,-158.33 1658,-143 1678.18,-125.31 1703.17,-107.6 1721.18,-95.48"/>
<polygon fill="midnightblue" stroke="midnightblue" points="1723.51,-98.14 1729.9,-89.69 1719.63,-92.31 1723.51,-98.14"/>
</g>
<!-- Node12 -->
<g id="node12" class="node">
<title>Node12</title>
<g id="a_node12"><a xlink:href="namespacePadderCommon.html#aaa09739d2df84421a5a3467a06ce941c" target="_top" xlink:title="Returns the &quot;human&#45;readable&quot; name of the given profile.">
<polygon fill="white" stroke="black" points="1658,-228.5 1658,-247.5 1834,-247.5 1834,-228.5 1658,-228.5"/>
<text text-anchor="middle" x="1746" y="-235.5" font-family="Helvetica,sans-Serif" font-size="10.00">PadderCommon::getProfileName</text>
</a>
</g>
</g>
<!-- Node9&#45;&gt;Node12 -->
<g id="edge11" class="edge">
<title>Node9&#45;&gt;Node12</title>
<path fill="none" stroke="midnightblue" d="M1596.71,-209.54C1623.54,-214.69 1656.86,-221.08 1685.11,-226.51"/>
<polygon fill="midnightblue" stroke="midnightblue" points="1684.79,-230.01 1695.27,-228.46 1686.11,-223.13 1684.79,-230.01"/>
</g>
<!-- Node13 -->
<g id="node13" class="node">
<title>Node13</title>
<g id="a_node13"><a xlink:href="event_8cpp.html#a76ce89b71143c1c09343f45f038b4a67" target="_top" xlink:title=" ">
<polygon fill="white" stroke="black" points="1690,-190.5 1690,-209.5 1802,-209.5 1802,-190.5 1690,-190.5"/>
<text text-anchor="middle" x="1746" y="-197.5" font-family="Helvetica,sans-Serif" font-size="10.00">keysymToKeyString</text>
</a>
</g>
</g>
<!-- Node9&#45;&gt;Node13 -->
<g id="edge12" class="edge">
<title>Node9&#45;&gt;Node13</title>
<path fill="none" stroke="midnightblue" d="M1622.14,-200C1641.15,-200 1661.42,-200 1679.89,-200"/>
<polygon fill="midnightblue" stroke="midnightblue" points="1679.95,-203.5 1689.95,-200 1679.95,-196.5 1679.95,-203.5"/>
</g>
<!-- Node36 -->
<g id="node33" class="node">
<title>Node36</title>
<g id="a_node33"><a xlink:href="classJoyButtonSlot.html#a37ff2b523177bae4ea6a44b82f2973eb" target="_top" xlink:title=" ">
<polygon fill="white" stroke="black" points="1661,-152.5 1661,-171.5 1831,-171.5 1831,-152.5 1661,-152.5"/>
<text text-anchor="middle" x="1746" y="-159.5" font-family="Helvetica,sans-Serif" font-size="10.00">JoyButtonSlot::movementString</text>
</a>
</g>
</g>
<!-- Node9&#45;&gt;Node36 -->
<g id="edge40" class="edge">
<title>Node9&#45;&gt;Node36</title>
<path fill="none" stroke="midnightblue" d="M1596.71,-190.46C1623.54,-185.31 1656.86,-178.92 1685.11,-173.49"/>
<polygon fill="midnightblue" stroke="midnightblue" points="1686.11,-176.87 1695.27,-171.54 1684.79,-169.99 1686.11,-176.87"/>
</g>
<!-- Node11 -->
<g id="node11" class="node">
<title>Node11</title>
<g id="a_node11"><a xlink:href="classJoyButtonSlot.html#a9ba9cb0dda063a7df5575072c0aabe01" target="_top" xlink:title=" ">
<polygon fill="white" stroke="black" points="1870,-65 1870,-95 2009,-95 2009,-65 1870,-65"/>
<text text-anchor="start" x="1878" y="-83" font-family="Helvetica,sans-Serif" font-size="10.00">JoyButtonSlot::secureMix</text>
<text text-anchor="middle" x="1939.5" y="-72" font-family="Helvetica,sans-Serif" font-size="10.00">SlotsInit</text>
</a>
</g>
</g>
<!-- Node10&#45;&gt;Node11 -->
<g id="edge10" class="edge">
<title>Node10&#45;&gt;Node11</title>
<path fill="none" stroke="midnightblue" d="M1819.13,-80C1832.39,-80 1846.3,-80 1859.75,-80"/>
<polygon fill="midnightblue" stroke="midnightblue" points="1859.92,-83.5 1869.92,-80 1859.92,-76.5 1859.92,-83.5"/>
</g>
<!-- Node14 -->
<g id="node14" class="node">
<title>Node14</title>
<g id="a_node14"><a xlink:href="classX11Extras.html#a643c95dc1de8eb073a0accb41619fe83" target="_top" xlink:title="Get display instance.">
<polygon fill="white" stroke="black" points="2088,-38.5 2088,-57.5 2195,-57.5 2195,-38.5 2088,-38.5"/>
<text text-anchor="middle" x="2141.5" y="-45.5" font-family="Helvetica,sans-Serif" font-size="10.00">X11Extras::display</text>
</a>
</g>
</g>
<!-- Node13&#45;&gt;Node14 -->
<g id="edge13" class="edge">
<title>Node13&#45;&gt;Node14</title>
<path fill="none" stroke="midnightblue" d="M1802.24,-192.37C1869.2,-182.2 1977.06,-162.6 2009,-138 2035.47,-117.61 2018.58,-92.46 2045,-72 2054.61,-64.56 2066.25,-59.4 2078.05,-55.83"/>
<polygon fill="midnightblue" stroke="midnightblue" points="2079.19,-59.15 2087.95,-53.19 2077.39,-52.38 2079.19,-59.15"/>
</g>
<!-- Node15 -->
<g id="node15" class="node">
<title>Node15</title>
<g id="a_node15"><a xlink:href="classBaseEventHandler.html#a9a014e472ec57408d16b8b5eed964e90" target="_top" xlink:title=" ">
<polygon fill="white" stroke="black" points="2055.5,-0.5 2055.5,-19.5 2227.5,-19.5 2227.5,-0.5 2055.5,-0.5"/>
<text text-anchor="middle" x="2141.5" y="-7.5" font-family="Helvetica,sans-Serif" font-size="10.00">BaseEventHandler::getIdentifier</text>
</a>
</g>
</g>
<!-- Node13&#45;&gt;Node15 -->
<g id="edge14" class="edge">
<title>Node13&#45;&gt;Node15</title>
<path fill="none" stroke="midnightblue" d="M1802.01,-193.71C1813.12,-190.9 1824.35,-186.84 1834,-181 1855.32,-168.09 1848.84,-151.17 1870,-138 1923.99,-104.39 1959.61,-144.07 2009,-104 2037.71,-80.71 2015.79,-51.66 2045,-29 2047.32,-27.2 2049.76,-25.56 2052.3,-24.06"/>
<polygon fill="midnightblue" stroke="midnightblue" points="2053.93,-27.16 2061.26,-19.51 2050.76,-20.92 2053.93,-27.16"/>
</g>
<!-- Node16 -->
<g id="node16" class="node">
<title>Node16</title>
<g id="a_node16"><a xlink:href="classX11Extras.html#ace76277fced60e6bd6ff880030338182" target="_top" xlink:title=" ">
<polygon fill="white" stroke="black" points="2077,-304.5 2077,-323.5 2206,-323.5 2206,-304.5 2077,-304.5"/>
<text text-anchor="middle" x="2141.5" y="-311.5" font-family="Helvetica,sans-Serif" font-size="10.00">X11Extras::getInstance</text>
</a>
</g>
</g>
<!-- Node13&#45;&gt;Node16 -->
<g id="edge15" class="edge">
<title>Node13&#45;&gt;Node16</title>
<path fill="none" stroke="midnightblue" d="M1795.1,-209.52C1807.81,-212.3 1821.48,-215.54 1834,-219 1929.37,-245.37 1950.06,-262.14 2045,-290 2059.39,-294.22 2075.14,-298.37 2089.62,-302"/>
<polygon fill="midnightblue" stroke="midnightblue" points="2088.87,-305.42 2099.41,-304.42 2090.55,-298.62 2088.87,-305.42"/>
</g>
<!-- Node19 -->
<g id="node19" class="node">
<title>Node19</title>
<g id="a_node19"><a xlink:href="classEventHandlerFactory.html#a90ce153a19fbb91128bd52eb083ce271" target="_top" xlink:title=" ">
<polygon fill="white" stroke="black" points="2082.5,-362 2082.5,-392 2200.5,-392 2200.5,-362 2082.5,-362"/>
<text text-anchor="start" x="2090.5" y="-380" font-family="Helvetica,sans-Serif" font-size="10.00">EventHandlerFactory</text>
<text text-anchor="middle" x="2141.5" y="-369" font-family="Helvetica,sans-Serif" font-size="10.00">::getInstance</text>
</a>
</g>
</g>
<!-- Node13&#45;&gt;Node19 -->
<g id="edge18" class="edge">
<title>Node13&#45;&gt;Node19</title>
<path fill="none" stroke="midnightblue" d="M1802.3,-205.82C1813.39,-208.67 1824.54,-212.85 1834,-219 1856.66,-233.72 1848.65,-251.43 1870,-268 1930.68,-315.11 2014.45,-344.66 2072.62,-360.92"/>
<polygon fill="midnightblue" stroke="midnightblue" points="2071.88,-364.35 2082.45,-363.61 2073.73,-357.6 2071.88,-364.35"/>
</g>
<!-- Node22 -->
<g id="node22" class="node">
<title>Node22</title>
<g id="a_node22"><a xlink:href="classEventHandlerFactory.html#a4c13007f0ece5bf881080c9c04f1f20d" target="_top" xlink:title=" ">
<polygon fill="white" stroke="black" points="2484.5,-413 2484.5,-443 2602.5,-443 2602.5,-413 2484.5,-413"/>
<text text-anchor="start" x="2492.5" y="-431" font-family="Helvetica,sans-Serif" font-size="10.00">EventHandlerFactory</text>
<text text-anchor="middle" x="2543.5" y="-420" font-family="Helvetica,sans-Serif" font-size="10.00">::handler</text>
</a>
</g>
</g>
<!-- Node13&#45;&gt;Node22 -->
<g id="edge24" class="edge">
<title>Node13&#45;&gt;Node22</title>
<path fill="none" stroke="midnightblue" d="M1802.41,-203.52C1813.88,-206.47 1825.14,-211.28 1834,-219 1868.98,-249.49 1839.07,-282.41 1870,-317 2003.81,-466.65 2078.62,-472.88 2274,-519 2339.75,-534.52 2362.12,-540.99 2426,-519 2465.07,-505.55 2501.08,-473.02 2522.42,-450.73"/>
<polygon fill="midnightblue" stroke="midnightblue" points="2525.08,-453.02 2529.34,-443.32 2519.96,-448.24 2525.08,-453.02"/>
</g>
<!-- Node24 -->
<g id="node24" class="node">
<title>Node24</title>
<g id="a_node24"><a xlink:href="event_8cpp.html#ad239a34cab482dc3cad5a23a9ac1ad78" target="_top" xlink:title=" ">
<polygon fill="white" stroke="black" points="1882.5,-190.5 1882.5,-209.5 1996.5,-209.5 1996.5,-190.5 1882.5,-190.5"/>
<text text-anchor="middle" x="1939.5" y="-197.5" font-family="Helvetica,sans-Serif" font-size="10.00">keycodeToKeyString</text>
</a>
</g>
</g>
<!-- Node13&#45;&gt;Node24 -->
<g id="edge25" class="edge">
<title>Node13&#45;&gt;Node24</title>
<path fill="none" stroke="midnightblue" d="M1802.13,-200C1823.98,-200 1849.29,-200 1872.13,-200"/>
<polygon fill="midnightblue" stroke="midnightblue" points="1872.43,-203.5 1882.43,-200 1872.43,-196.5 1872.43,-203.5"/>
</g>
<!-- Node17 -->
<g id="node17" class="node">
<title>Node17</title>
<g id="a_node17"><a xlink:href="classX11Extras.html#ab9bcb016e23bacb0e988feb8175d2c88" target="_top" xlink:title=" ">
<polygon fill="white" stroke="black" points="2289,-304.5 2289,-323.5 2411,-323.5 2411,-304.5 2289,-304.5"/>
<text text-anchor="middle" x="2350" y="-311.5" font-family="Helvetica,sans-Serif" font-size="10.00">X11Extras::X11Extras</text>
</a>
</g>
</g>
<!-- Node16&#45;&gt;Node17 -->
<g id="edge16" class="edge">
<title>Node16&#45;&gt;Node17</title>
<path fill="none" stroke="midnightblue" d="M2206.14,-314C2229.06,-314 2255.04,-314 2278.51,-314"/>
<polygon fill="midnightblue" stroke="midnightblue" points="2278.74,-317.5 2288.74,-314 2278.74,-310.5 2278.74,-317.5"/>
</g>
<!-- Node18 -->
<g id="node18" class="node">
<title>Node18</title>
<g id="a_node18"><a xlink:href="classX11Extras.html#a6f63e77ed045e174546d77333672b8f0" target="_top" xlink:title=" ">
<polygon fill="white" stroke="black" points="2469.5,-299 2469.5,-329 2617.5,-329 2617.5,-299 2469.5,-299"/>
<text text-anchor="start" x="2477.5" y="-317" font-family="Helvetica,sans-Serif" font-size="10.00">X11Extras::populateKnown</text>
<text text-anchor="middle" x="2543.5" y="-306" font-family="Helvetica,sans-Serif" font-size="10.00">Aliases</text>
</a>
</g>
</g>
<!-- Node17&#45;&gt;Node18 -->
<g id="edge17" class="edge">
<title>Node17&#45;&gt;Node18</title>
<path fill="none" stroke="midnightblue" d="M2411.07,-314C2426.33,-314 2443,-314 2459.19,-314"/>
<polygon fill="midnightblue" stroke="midnightblue" points="2459.19,-317.5 2469.19,-314 2459.19,-310.5 2459.19,-317.5"/>
</g>
<!-- Node20 -->
<g id="node20" class="node">
<title>Node20</title>
<g id="a_node20"><a xlink:href="classEventHandlerFactory.html#ade5162034acc0f8683725fdb124bece0" target="_top" xlink:title=" ">
<polygon fill="white" stroke="black" points="2280,-381 2280,-411 2420,-411 2420,-381 2280,-381"/>
<text text-anchor="start" x="2288" y="-399" font-family="Helvetica,sans-Serif" font-size="10.00">EventHandlerFactory</text>
<text text-anchor="middle" x="2350" y="-388" font-family="Helvetica,sans-Serif" font-size="10.00">::buildEventGeneratorList</text>
</a>
</g>
</g>
<!-- Node19&#45;&gt;Node20 -->
<g id="edge19" class="edge">
<title>Node19&#45;&gt;Node20</title>
<path fill="none" stroke="midnightblue" d="M2200.57,-382.34C2221.98,-384.31 2246.61,-386.58 2269.58,-388.69"/>
<polygon fill="midnightblue" stroke="midnightblue" points="2269.37,-392.19 2279.65,-389.62 2270.02,-385.22 2269.37,-392.19"/>
</g>
<!-- Node21 -->
<g id="node21" class="node">
<title>Node21</title>
<g id="a_node21"><a xlink:href="classEventHandlerFactory.html#a2f843293b2ea47271fc7bd99bd871fa6" target="_top" xlink:title=" ">
<polygon fill="white" stroke="black" points="2288,-479 2288,-509 2412,-509 2412,-479 2288,-479"/>
<text text-anchor="start" x="2296" y="-497" font-family="Helvetica,sans-Serif" font-size="10.00">EventHandlerFactory</text>
<text text-anchor="middle" x="2350" y="-486" font-family="Helvetica,sans-Serif" font-size="10.00">::EventHandlerFactory</text>
</a>
</g>
</g>
<!-- Node19&#45;&gt;Node21 -->
<g id="edge20" class="edge">
<title>Node19&#45;&gt;Node21</title>
<path fill="none" stroke="midnightblue" d="M2160.1,-392.13C2184.32,-412.32 2229.96,-448.04 2274,-470 2277.72,-471.85 2281.61,-473.6 2285.58,-475.25"/>
<polygon fill="midnightblue" stroke="midnightblue" points="2284.36,-478.53 2294.94,-478.91 2286.9,-472.01 2284.36,-478.53"/>
</g>
<!-- Node19&#45;&gt;Node22 -->
<g id="edge23" class="edge">
<title>Node19&#45;&gt;Node22</title>
<path fill="none" stroke="midnightblue" d="M2200.62,-367.93C2258.52,-360.77 2349.57,-354.58 2426,-372 2456.19,-378.88 2487.68,-394.61 2510.3,-407.66"/>
<polygon fill="midnightblue" stroke="midnightblue" points="2508.73,-410.79 2519.12,-412.86 2512.29,-404.77 2508.73,-410.79"/>
</g>
<!-- Node23 -->
<g id="node23" class="node">
<title>Node23</title>
<g id="a_node23"><a xlink:href="classEventHandlerFactory.html#afa5ca0171c70b1a24f92b5c8dd00dc92" target="_top" xlink:title=" ">
<polygon fill="white" stroke="black" points="2291,-430 2291,-460 2409,-460 2409,-430 2291,-430"/>
<text text-anchor="start" x="2299" y="-448" font-family="Helvetica,sans-Serif" font-size="10.00">EventHandlerFactory</text>
<text text-anchor="middle" x="2350" y="-437" font-family="Helvetica,sans-Serif" font-size="10.00">::fallBackIdentifier</text>
</a>
</g>
</g>
<!-- Node19&#45;&gt;Node23 -->
<g id="edge22" class="edge">
<title>Node19&#45;&gt;Node23</title>
<path fill="none" stroke="midnightblue" d="M2186.89,-392.01C2212.35,-400.59 2244.94,-411.49 2274,-421 2279.88,-422.93 2286.03,-424.92 2292.17,-426.9"/>
<polygon fill="midnightblue" stroke="midnightblue" points="2291.17,-430.26 2301.76,-429.99 2293.31,-423.59 2291.17,-430.26"/>
</g>
<!-- Node21&#45;&gt;Node22 -->
<g id="edge21" class="edge">
<title>Node21&#45;&gt;Node22</title>
<path fill="none" stroke="midnightblue" d="M2399.1,-478.89C2408.06,-476 2417.33,-472.95 2426,-470 2447.88,-462.56 2471.92,-453.96 2492.45,-446.49"/>
<polygon fill="midnightblue" stroke="midnightblue" points="2493.73,-449.75 2501.92,-443.04 2491.33,-443.18 2493.73,-449.75"/>
</g>
<!-- Node24&#45;&gt;Node14 -->
<g id="edge26" class="edge">
<title>Node24&#45;&gt;Node14</title>
<path fill="none" stroke="midnightblue" d="M1986.22,-190.44C1994.6,-187.01 2002.69,-182.34 2009,-176 2043.52,-141.35 2008.94,-105.05 2045,-72 2054.25,-63.52 2066.04,-57.93 2078.16,-54.27"/>
<polygon fill="midnightblue" stroke="midnightblue" points="2079.11,-57.64 2087.91,-51.73 2077.35,-50.87 2079.11,-57.64"/>
</g>
<!-- Node24&#45;&gt;Node15 -->
<g id="edge31" class="edge">
<title>Node24&#45;&gt;Node15</title>
<path fill="none" stroke="midnightblue" d="M1954.84,-190.48C1970.28,-179.52 1994.56,-160.18 2009,-138 2036.83,-95.24 2006.78,-62.8 2045,-29 2046.57,-27.61 2048.21,-26.32 2049.91,-25.11"/>
<polygon fill="midnightblue" stroke="midnightblue" points="2052.1,-27.87 2058.86,-19.72 2048.49,-21.87 2052.1,-27.87"/>
</g>
<!-- Node24&#45;&gt;Node16 -->
<g id="edge36" class="edge">
<title>Node24&#45;&gt;Node16</title>
<path fill="none" stroke="midnightblue" d="M1951.05,-209.58C1975.41,-231.62 2034.27,-284.43 2045,-290 2054.2,-294.77 2064.4,-298.63 2074.61,-301.74"/>
<polygon fill="midnightblue" stroke="midnightblue" points="2073.79,-305.15 2084.36,-304.5 2075.69,-298.41 2073.79,-305.15"/>
</g>
<!-- Node24&#45;&gt;Node19 -->
<g id="edge37" class="edge">
<title>Node24&#45;&gt;Node19</title>
<path fill="none" stroke="midnightblue" d="M1945.86,-209.64C1959.54,-233.46 1997.98,-295.88 2045,-333 2057.58,-342.93 2072.76,-351.22 2087.27,-357.83"/>
<polygon fill="midnightblue" stroke="midnightblue" points="2086.12,-361.15 2096.69,-361.93 2088.92,-354.73 2086.12,-361.15"/>
</g>
<!-- Node24&#45;&gt;Node22 -->
<g id="edge38" class="edge">
<title>Node24&#45;&gt;Node22</title>
<path fill="none" stroke="midnightblue" d="M1972.59,-209.58C1984.45,-213.78 1997.74,-219.3 2009,-226 2027.14,-236.8 2025.59,-248.68 2045,-257 2201.4,-324.08 2276.03,-214.58 2426,-295 2448.27,-306.94 2445.52,-319.85 2462,-339 2481.68,-361.87 2504.85,-387.35 2521.27,-405.16"/>
<polygon fill="midnightblue" stroke="midnightblue" points="2518.95,-407.8 2528.3,-412.77 2524.09,-403.05 2518.95,-407.8"/>
</g>
<!-- Node25 -->
<g id="node25" class="node">
<title>Node25</title>
<g id="a_node25"><a xlink:href="classWinExtras.html#a3487e64cfb407033d7e28a761d1e76dc" target="_top" xlink:title=" ">
<polygon fill="white" stroke="black" points="2065,-190.5 2065,-209.5 2218,-209.5 2218,-190.5 2065,-190.5"/>
<text text-anchor="middle" x="2141.5" y="-197.5" font-family="Helvetica,sans-Serif" font-size="10.00">WinExtras::getDisplayString</text>
</a>
</g>
</g>
<!-- Node24&#45;&gt;Node25 -->
<g id="edge27" class="edge">
<title>Node24&#45;&gt;Node25</title>
<path fill="none" stroke="midnightblue" d="M1996.74,-200C2014.75,-200 2035.11,-200 2054.73,-200"/>
<polygon fill="midnightblue" stroke="midnightblue" points="2054.9,-203.5 2064.9,-200 2054.9,-196.5 2054.9,-203.5"/>
</g>
<!-- Node26 -->
<g id="node26" class="node">
<title>Node26</title>
<g id="a_node26"><a xlink:href="classUInputHelper.html#ac4c70c9479c1cc0eb515ab1bdf2426f5" target="_top" xlink:title=" ">
<polygon fill="white" stroke="black" points="2473.5,-75 2473.5,-105 2613.5,-105 2613.5,-75 2473.5,-75"/>
<text text-anchor="start" x="2481.5" y="-93" font-family="Helvetica,sans-Serif" font-size="10.00">UInputHelper::getDisplay</text>
<text text-anchor="middle" x="2543.5" y="-82" font-family="Helvetica,sans-Serif" font-size="10.00">String</text>
</a>
</g>
</g>
<!-- Node24&#45;&gt;Node26 -->
<g id="edge28" class="edge">
<title>Node24&#45;&gt;Node26</title>
<path fill="none" stroke="midnightblue" d="M1978.38,-190.47C1989.17,-186.41 2000.33,-180.75 2009,-173 2034.49,-150.2 2015.97,-123.08 2045,-105 2112.6,-62.9 2340.75,-73.65 2463.23,-82.97"/>
<polygon fill="midnightblue" stroke="midnightblue" points="2463.06,-86.46 2473.3,-83.75 2463.6,-79.49 2463.06,-86.46"/>
</g>
<!-- Node28 -->
<g id="node28" class="node">
<title>Node28</title>
<g id="a_node28"><a xlink:href="classX11Extras.html#abe710bac948c9802105a2d9d06815cac" target="_top" xlink:title="Get appropriate alias for a known KeySym string that might be blank or contain invalid characters whe...">
<polygon fill="white" stroke="black" points="2065,-114.5 2065,-133.5 2218,-133.5 2218,-114.5 2065,-114.5"/>
<text text-anchor="middle" x="2141.5" y="-121.5" font-family="Helvetica,sans-Serif" font-size="10.00">X11Extras::getDisplayString</text>
</a>
</g>
</g>
<!-- Node24&#45;&gt;Node28 -->
<g id="edge30" class="edge">
<title>Node24&#45;&gt;Node28</title>
<path fill="none" stroke="midnightblue" d="M1976.57,-190.4C1987.41,-186.73 1999.05,-181.96 2009,-176 2027.62,-164.85 2025.64,-152.81 2045,-143 2049.81,-140.56 2054.9,-138.44 2060.12,-136.59"/>
<polygon fill="midnightblue" stroke="midnightblue" points="2061.2,-139.92 2069.65,-133.54 2059.06,-133.25 2061.2,-139.92"/>
</g>
<!-- Node29 -->
<g id="node29" class="node">
<title>Node29</title>
<g id="a_node29"><a xlink:href="classUInputHelper.html#a61509601d3dbd8933aaa26c1e2db02f6" target="_top" xlink:title=" ">
<polygon fill="white" stroke="black" points="2069.5,-152.5 2069.5,-171.5 2213.5,-171.5 2213.5,-152.5 2069.5,-152.5"/>
<text text-anchor="middle" x="2141.5" y="-159.5" font-family="Helvetica,sans-Serif" font-size="10.00">UInputHelper::getInstance</text>
</a>
</g>
</g>
<!-- Node24&#45;&gt;Node29 -->
<g id="edge32" class="edge">
<title>Node24&#45;&gt;Node29</title>
<path fill="none" stroke="midnightblue" d="M1990.71,-190.46C2017.93,-185.29 2051.76,-178.86 2080.38,-173.42"/>
<polygon fill="midnightblue" stroke="midnightblue" points="2081.1,-176.85 2090.27,-171.54 2079.79,-169.97 2081.1,-176.85"/>
</g>
<!-- Node35 -->
<g id="node32" class="node">
<title>Node35</title>
<g id="a_node32"><a xlink:href="classWinExtras.html#a0bfa711c1abe72486dfebc8ff6fe7f5a" target="_top" xlink:title="Convert a virtual key into the corresponding keyboard scan code.">
<polygon fill="white" stroke="black" points="2045,-228.5 2045,-247.5 2238,-247.5 2238,-228.5 2045,-228.5"/>
<text text-anchor="middle" x="2141.5" y="-235.5" font-family="Helvetica,sans-Serif" font-size="10.00">WinExtras::scancodeFromVirtualKey</text>
</a>
</g>
</g>
<!-- Node24&#45;&gt;Node35 -->
<g id="edge39" class="edge">
<title>Node24&#45;&gt;Node35</title>
<path fill="none" stroke="midnightblue" d="M1990.71,-209.54C2017.93,-214.71 2051.76,-221.14 2080.38,-226.58"/>
<polygon fill="midnightblue" stroke="midnightblue" points="2079.79,-230.03 2090.27,-228.46 2081.1,-223.15 2079.79,-230.03"/>
</g>
<!-- Node27 -->
<g id="node27" class="node">
<title>Node27</title>
<g id="a_node27"><a xlink:href="classUInputHelper.html#a043b0fa7cf4ce5811d01d95f3ca318b7" target="_top" xlink:title=" ">
<polygon fill="white" stroke="black" points="2661,-99 2661,-129 2832,-129 2832,-99 2661,-99"/>
<text text-anchor="start" x="2669" y="-117" font-family="Helvetica,sans-Serif" font-size="10.00">UInputHelper::getKnownAliases</text>
<text text-anchor="middle" x="2746.5" y="-106" font-family="Helvetica,sans-Serif" font-size="10.00">VKStrings</text>
</a>
</g>
</g>
<!-- Node26&#45;&gt;Node27 -->
<g id="edge29" class="edge">
<title>Node26&#45;&gt;Node27</title>
<path fill="none" stroke="midnightblue" d="M2613.67,-98.26C2625.68,-99.69 2638.35,-101.21 2650.9,-102.7"/>
<polygon fill="midnightblue" stroke="midnightblue" points="2650.57,-106.19 2660.92,-103.9 2651.4,-99.24 2650.57,-106.19"/>
</g>
<!-- Node30 -->
<g id="node30" class="node">
<title>Node30</title>
<g id="a_node30"><a xlink:href="classUInputHelper.html#a5d56d23a0e0202435c7a5ff1aca9ce55" target="_top" xlink:title=" ">
<polygon fill="white" stroke="black" points="2274,-145.5 2274,-164.5 2426,-164.5 2426,-145.5 2274,-145.5"/>
<text text-anchor="middle" x="2350" y="-152.5" font-family="Helvetica,sans-Serif" font-size="10.00">UInputHelper::UInputHelper</text>
</a>
</g>
</g>
<!-- Node29&#45;&gt;Node30 -->
<g id="edge33" class="edge">
<title>Node29&#45;&gt;Node30</title>
<path fill="none" stroke="midnightblue" d="M2213.57,-159.59C2229.7,-159.04 2247,-158.46 2263.66,-157.89"/>
<polygon fill="midnightblue" stroke="midnightblue" points="2264.06,-161.38 2273.93,-157.54 2263.82,-154.39 2264.06,-161.38"/>
</g>
<!-- Node31 -->
<g id="node31" class="node">
<title>Node31</title>
<g id="a_node31"><a xlink:href="classUInputHelper.html#a0f4dbb4221502d86f7d0af12a9865568" target="_top" xlink:title=" ">
<polygon fill="white" stroke="red" points="2462,-137 2462,-167 2625,-167 2625,-137 2462,-137"/>
<text text-anchor="start" x="2470" y="-155" font-family="Helvetica,sans-Serif" font-size="10.00">UInputHelper::populateKnown</text>
<text text-anchor="middle" x="2543.5" y="-144" font-family="Helvetica,sans-Serif" font-size="10.00">Aliases</text>
</a>
</g>
</g>
<!-- Node30&#45;&gt;Node31 -->
<g id="edge34" class="edge">
<title>Node30&#45;&gt;Node31</title>
<path fill="none" stroke="midnightblue" d="M2426.14,-153.82C2434.57,-153.69 2443.23,-153.56 2451.83,-153.42"/>
<polygon fill="midnightblue" stroke="midnightblue" points="2451.95,-156.92 2461.89,-153.26 2451.84,-149.92 2451.95,-156.92"/>
</g>
<!-- Node31&#45;&gt;Node27 -->
<g id="edge35" class="edge">
<title>Node31&#45;&gt;Node27</title>
<path fill="none" stroke="midnightblue" d="M2623.94,-136.98C2634.42,-135 2645.22,-132.96 2655.85,-130.95"/>
<polygon fill="midnightblue" stroke="midnightblue" points="2656.8,-134.33 2665.98,-129.03 2655.5,-127.45 2656.8,-134.33"/>
</g>
<!-- Node40&#45;&gt;Node8 -->
<g id="edge46" class="edge">
<title>Node40&#45;&gt;Node8</title>
<path fill="none" stroke="midnightblue" d="M1234.12,-253.5C1290.81,-258.17 1371.98,-257.13 1434,-225 1456.44,-213.38 1448.68,-194.56 1470,-181 1473.35,-178.87 1476.92,-176.98 1480.62,-175.3"/>
<polygon fill="midnightblue" stroke="midnightblue" points="1482.04,-178.5 1490.03,-171.55 1479.45,-172 1482.04,-178.5"/>
</g>
<!-- Node40&#45;&gt;Node37 -->
<g id="edge47" class="edge">
<title>Node40&#45;&gt;Node37</title>
<path fill="none" stroke="midnightblue" d="M1213.95,-234.41C1239.58,-229.28 1271.34,-222.93 1298.32,-217.54"/>
<polygon fill="midnightblue" stroke="midnightblue" points="1299.28,-220.91 1308.4,-215.52 1297.91,-214.05 1299.28,-220.91"/>
</g>
<!-- Node40&#45;&gt;Node38 -->
<g id="edge49" class="edge">
<title>Node40&#45;&gt;Node38</title>
<path fill="none" stroke="midnightblue" d="M1213.95,-253.59C1239.58,-258.72 1271.34,-265.07 1298.32,-270.46"/>
<polygon fill="midnightblue" stroke="midnightblue" points="1297.91,-273.95 1308.4,-272.48 1299.28,-267.09 1297.91,-273.95"/>
</g>
<!-- Node41 -->
<g id="node38" class="node">
<title>Node41</title>
<g id="a_node38"><a xlink:href="classJoyButton.html#ae1d364dfa70f47fae3db99ffbcdea44b" target="_top" xlink:title=" ">
<polygon fill="white" stroke="black" points="1280,-310.5 1280,-329.5 1434,-329.5 1434,-310.5 1280,-310.5"/>
<text text-anchor="middle" x="1357" y="-317.5" font-family="Helvetica,sans-Serif" font-size="10.00">JoyButton::getAssignedSlots</text>
</a>
</g>
</g>
<!-- Node40&#45;&gt;Node41 -->
<g id="edge48" class="edge">
<title>Node40&#45;&gt;Node41</title>
<path fill="none" stroke="midnightblue" d="M1182.48,-253.69C1204.2,-266.11 1243.89,-287.64 1280,-301 1286.75,-303.5 1293.96,-305.78 1301.15,-307.82"/>
<polygon fill="midnightblue" stroke="midnightblue" points="1300.33,-311.22 1310.9,-310.45 1302.16,-304.46 1300.33,-311.22"/>
</g>
<!-- Node45 -->
<g id="node42" class="node">
<title>Node45</title>
<g id="a_node42"><a xlink:href="classAntKeyMapper.html#acd08c44a2501edcfdb1ef8a68d534b1b" target="_top" xlink:title=" ">
<polygon fill="white" stroke="black" points="674,-305.5 674,-324.5 825,-324.5 825,-305.5 674,-305.5"/>
<text text-anchor="middle" x="749.5" y="-312.5" font-family="Helvetica,sans-Serif" font-size="10.00">AntKeyMapper::getInstance</text>
</a>
</g>
</g>
<!-- Node44&#45;&gt;Node45 -->
<g id="edge53" class="edge">
<title>Node44&#45;&gt;Node45</title>
<path fill="none" stroke="midnightblue" d="M602.18,-311.76C622.07,-312.2 643.48,-312.68 663.62,-313.12"/>
<polygon fill="midnightblue" stroke="midnightblue" points="663.63,-316.62 673.7,-313.35 663.78,-309.62 663.63,-316.62"/>
</g>
<!-- Node44&#45;&gt;Node48 -->
<g id="edge56" class="edge">
<title>Node44&#45;&gt;Node48</title>
<path fill="none" stroke="midnightblue" d="M602.18,-296.25C618.07,-293.51 634.93,-290.6 651.33,-287.77"/>
<polygon fill="midnightblue" stroke="midnightblue" points="652.21,-291.17 661.47,-286.02 651.02,-284.27 652.21,-291.17"/>
</g>
<!-- Node46 -->
<g id="node43" class="node">
<title>Node46</title>
<g id="a_node43"><a xlink:href="classAntKeyMapper.html#abe4a434636d370a750d32a14b9a139d3" target="_top" xlink:title=" ">
<polygon fill="white" stroke="black" points="885,-306.5 885,-325.5 1050,-325.5 1050,-306.5 885,-306.5"/>
<text text-anchor="middle" x="967.5" y="-313.5" font-family="Helvetica,sans-Serif" font-size="10.00">AntKeyMapper::AntKeyMapper</text>
</a>
</g>
</g>
<!-- Node45&#45;&gt;Node46 -->
<g id="edge54" class="edge">
<title>Node45&#45;&gt;Node46</title>
<path fill="none" stroke="midnightblue" d="M825.14,-315.35C841.09,-315.42 858.13,-315.5 874.64,-315.57"/>
<polygon fill="midnightblue" stroke="midnightblue" points="874.83,-319.08 884.85,-315.62 874.86,-312.08 874.83,-319.08"/>
</g>
<!-- Node47 -->
<g id="node44" class="node">
<title>Node47</title>
<g id="a_node44"><a xlink:href="antkeymapper_8cpp.html#a4f87707944cf82e8e59c85d48e24951c" target="_top" xlink:title=" ">
<polygon fill="white" stroke="black" points="900.5,-268.5 900.5,-287.5 1034.5,-287.5 1034.5,-268.5 900.5,-268.5"/>
<text text-anchor="middle" x="967.5" y="-275.5" font-family="Helvetica,sans-Serif" font-size="10.00">buildEventGeneratorList</text>
</a>
</g>
</g>
<!-- Node45&#45;&gt;Node47 -->
<g id="edge55" class="edge">
<title>Node45&#45;&gt;Node47</title>
<path fill="none" stroke="midnightblue" d="M806.13,-305.47C834.99,-300.53 870.43,-294.46 900.66,-289.28"/>
<polygon fill="midnightblue" stroke="midnightblue" points="901.42,-292.7 910.69,-287.56 900.24,-285.8 901.42,-292.7"/>
</g>
<!-- Node50 -->
<g id="node47" class="node">
<title>Node50</title>
<g id="a_node47"><a xlink:href="classVirtualKeyboardMouseWidget.html#a34f7db07fdc0021751c57667866de8f9" target="_top" xlink:title=" ">
<polygon fill="white" stroke="black" points="429,-158 429,-188 614,-188 614,-158 429,-158"/>
<text text-anchor="start" x="437" y="-176" font-family="Helvetica,sans-Serif" font-size="10.00">VirtualKeyboardMouseWidget</text>
<text text-anchor="middle" x="521.5" y="-165" font-family="Helvetica,sans-Serif" font-size="10.00">::processAdvancedMouseSelection</text>
</a>
</g>
</g>
<!-- Node49&#45;&gt;Node50 -->
<g id="edge59" class="edge">
<title>Node49&#45;&gt;Node50</title>
<path fill="none" stroke="midnightblue" d="M386.28,-183.23C396.86,-182.43 407.73,-181.6 418.48,-180.78"/>
<polygon fill="midnightblue" stroke="midnightblue" points="419.04,-184.25 428.74,-179.99 418.51,-177.27 419.04,-184.25"/>
</g>
<!-- Node52 -->
<g id="node49" class="node">
<title>Node52</title>
<g id="a_node49"><a xlink:href="classJoyButton.html#a9a21207e522749f3d22092f1c0a7c886" target="_top" xlink:title="Generate a string representing all the currently assigned slots for a button.">
<polygon fill="white" stroke="black" points="1096,-344.5 1096,-363.5 1234,-363.5 1234,-344.5 1096,-344.5"/>
<text text-anchor="middle" x="1165" y="-351.5" font-family="Helvetica,sans-Serif" font-size="10.00">JoyButton::getSlotsString</text>
</a>
</g>
</g>
<!-- Node51&#45;&gt;Node52 -->
<g id="edge61" class="edge">
<title>Node51&#45;&gt;Node52</title>
<path fill="none" stroke="midnightblue" d="M366.58,-338.36C525.83,-341.48 917.88,-349.17 1085.71,-352.46"/>
<polygon fill="midnightblue" stroke="midnightblue" points="1085.88,-355.97 1095.95,-352.66 1086.02,-348.97 1085.88,-355.97"/>
</g>
<!-- Node52&#45;&gt;Node9 -->
<g id="edge65" class="edge">
<title>Node52&#45;&gt;Node9</title>
<path fill="none" stroke="midnightblue" d="M1187.85,-363.6C1235.85,-383.14 1352.68,-421.99 1434,-377 1495.82,-342.8 1527.82,-258.18 1539.6,-219.66"/>
<polygon fill="midnightblue" stroke="midnightblue" points="1543.06,-220.27 1542.5,-209.7 1536.34,-218.32 1543.06,-220.27"/>
</g>
<!-- Node52&#45;&gt;Node38 -->
<g id="edge64" class="edge">
<title>Node52&#45;&gt;Node38</title>
<path fill="none" stroke="midnightblue" d="M1183.72,-344.47C1205.77,-332.91 1244.82,-313.45 1280,-301 1287.04,-298.51 1294.56,-296.21 1302.03,-294.14"/>
<polygon fill="midnightblue" stroke="midnightblue" points="1303.01,-297.5 1311.77,-291.55 1301.21,-290.74 1303.01,-297.5"/>
</g>
<!-- Node52&#45;&gt;Node41 -->
<g id="edge62" class="edge">
<title>Node52&#45;&gt;Node41</title>
<path fill="none" stroke="midnightblue" d="M1219.18,-344.48C1242.04,-340.39 1268.94,-335.58 1292.81,-331.31"/>
<polygon fill="midnightblue" stroke="midnightblue" points="1293.61,-334.72 1302.83,-329.51 1292.37,-327.83 1293.61,-334.72"/>
</g>
<!-- Node53 -->
<g id="node50" class="node">
<title>Node53</title>
<g id="a_node50"><a xlink:href="classJoyButtonSlot.html#a1e91202fd2eac80332ed3e3ff1593769" target="_top" xlink:title=" ">
<polygon fill="white" stroke="black" points="1283,-348.5 1283,-367.5 1431,-367.5 1431,-348.5 1283,-348.5"/>
<text text-anchor="middle" x="1357" y="-355.5" font-family="Helvetica,sans-Serif" font-size="10.00">JoyButtonSlot::getSlotCode</text>
</a>
</g>
</g>
<!-- Node52&#45;&gt;Node53 -->
<g id="edge63" class="edge">
<title>Node52&#45;&gt;Node53</title>
<path fill="none" stroke="midnightblue" d="M1234.06,-355.43C1246.58,-355.7 1259.78,-355.97 1272.68,-356.25"/>
<polygon fill="midnightblue" stroke="midnightblue" points="1272.88,-359.75 1282.95,-356.46 1273.03,-352.75 1272.88,-359.75"/>
</g>
</g>
</svg>
