<?xml version="1.0" encoding="UTF-8" standalone="no"?>
<!DOCTYPE svg PUBLIC "-//W3C//DTD SVG 1.1//EN"
 "http://www.w3.org/Graphics/SVG/1.1/DTD/svg11.dtd">
<!-- Generated by graphviz version 2.43.0 (0)
 -->
<!-- Title: MainSettingsDialog::resetAutoProfSett Pages: 1 -->
<svg width="505pt" height="164pt"
 viewBox="0.00 0.00 505.00 164.00" xmlns="http://www.w3.org/2000/svg" xmlns:xlink="http://www.w3.org/1999/xlink">
<g id="graph0" class="graph" transform="scale(1 1) rotate(0) translate(4 160)">
<title>MainSettingsDialog::resetAutoProfSett</title>
<polygon fill="white" stroke="transparent" points="-4,4 -4,-160 501,-160 501,4 -4,4"/>
<!-- Node1 -->
<g id="node1" class="node">
<title>Node1</title>
<g id="a_node1"><a xlink:title=" ">
<polygon fill="#bfbfbf" stroke="black" points="0,-74 0,-104 112,-104 112,-74 0,-74"/>
<text text-anchor="start" x="8" y="-92" font-family="Helvetica,sans-Serif" font-size="10.00">MainSettingsDialog</text>
<text text-anchor="middle" x="56" y="-81" font-family="Helvetica,sans-Serif" font-size="10.00">::resetAutoProfSett</text>
</a>
</g>
</g>
<!-- Node2 -->
<g id="node2" class="node">
<title>Node2</title>
<g id="a_node2"><a xlink:href="classAutoProfileInfo.html#a79dc148898bc863eb5ceedc88d8f7638" target="_top" xlink:title=" ">
<polygon fill="white" stroke="black" points="148,-136.5 148,-155.5 321,-155.5 321,-136.5 148,-136.5"/>
<text text-anchor="middle" x="234.5" y="-143.5" font-family="Helvetica,sans-Serif" font-size="10.00">AutoProfileInfo::getDeviceName</text>
</a>
</g>
</g>
<!-- Node1&#45;&gt;Node2 -->
<g id="edge1" class="edge">
<title>Node1&#45;&gt;Node2</title>
<path fill="none" stroke="midnightblue" d="M89.33,-104.14C106.49,-111.76 128.09,-120.69 148,-127 156.13,-129.58 164.79,-131.94 173.38,-134.05"/>
<polygon fill="midnightblue" stroke="midnightblue" points="172.84,-137.52 183.37,-136.42 174.45,-130.71 172.84,-137.52"/>
</g>
<!-- Node3 -->
<g id="node3" class="node">
<title>Node3</title>
<g id="a_node3"><a xlink:href="classAutoProfileInfo.html#aba94c3fdd9e66bf8dc42a74237ff911c" target="_top" xlink:title=" ">
<polygon fill="white" stroke="black" points="157,-98.5 157,-117.5 312,-117.5 312,-98.5 157,-98.5"/>
<text text-anchor="middle" x="234.5" y="-105.5" font-family="Helvetica,sans-Serif" font-size="10.00">AutoProfileInfo::getUniqueID</text>
</a>
</g>
</g>
<!-- Node1&#45;&gt;Node3 -->
<g id="edge2" class="edge">
<title>Node1&#45;&gt;Node3</title>
<path fill="none" stroke="midnightblue" d="M112.36,-94.96C123.31,-96.14 135.04,-97.4 146.74,-98.66"/>
<polygon fill="midnightblue" stroke="midnightblue" points="146.68,-102.17 156.99,-99.76 147.43,-95.21 146.68,-102.17"/>
</g>
<!-- Node4 -->
<g id="node4" class="node">
<title>Node4</title>
<g id="a_node4"><a xlink:href="classAutoProfileInfo.html#a51f57cf7cda4e66b052d12e5a8879785" target="_top" xlink:title=" ">
<polygon fill="white" stroke="black" points="167.5,-60.5 167.5,-79.5 301.5,-79.5 301.5,-60.5 167.5,-60.5"/>
<text text-anchor="middle" x="234.5" y="-67.5" font-family="Helvetica,sans-Serif" font-size="10.00">AutoProfileInfo::isActive</text>
</a>
</g>
</g>
<!-- Node1&#45;&gt;Node4 -->
<g id="edge3" class="edge">
<title>Node1&#45;&gt;Node4</title>
<path fill="none" stroke="midnightblue" d="M112.36,-83.04C126.49,-81.52 141.93,-79.86 156.91,-78.24"/>
<polygon fill="midnightblue" stroke="midnightblue" points="157.63,-81.69 167.19,-77.14 156.88,-74.73 157.63,-81.69"/>
</g>
<!-- Node5 -->
<g id="node5" class="node">
<title>Node5</title>
<g id="a_node5"><a xlink:href="classMainSettingsDialog.html#af7d83bc727ba8b5bd545df56961c1aed" target="_top" xlink:title=" ">
<polygon fill="white" stroke="black" points="162.5,-0.5 162.5,-41.5 306.5,-41.5 306.5,-0.5 162.5,-0.5"/>
<text text-anchor="start" x="170.5" y="-29.5" font-family="Helvetica,sans-Serif" font-size="10.00">MainSettingsDialog</text>
<text text-anchor="start" x="170.5" y="-18.5" font-family="Helvetica,sans-Serif" font-size="10.00">::processAutoProfileActive</text>
<text text-anchor="middle" x="234.5" y="-7.5" font-family="Helvetica,sans-Serif" font-size="10.00">Click</text>
</a>
</g>
</g>
<!-- Node1&#45;&gt;Node5 -->
<g id="edge4" class="edge">
<title>Node1&#45;&gt;Node5</title>
<path fill="none" stroke="midnightblue" d="M91.81,-73.91C108.68,-66.73 129.3,-58.18 148,-51 153.14,-49.03 158.47,-47.03 163.85,-45.06"/>
<polygon fill="midnightblue" stroke="midnightblue" points="165.34,-48.24 173.54,-41.54 162.95,-41.66 165.34,-48.24"/>
</g>
<!-- Node6 -->
<g id="node6" class="node">
<title>Node6</title>
<g id="a_node6"><a xlink:href="classAutoProfileInfo.html#a9268ba686a854dfefe57d4840daa171d" target="_top" xlink:title=" ">
<polygon fill="white" stroke="black" points="357,-11.5 357,-30.5 497,-30.5 497,-11.5 357,-11.5"/>
<text text-anchor="middle" x="427" y="-18.5" font-family="Helvetica,sans-Serif" font-size="10.00">AutoProfileInfo::setActive</text>
</a>
</g>
</g>
<!-- Node5&#45;&gt;Node6 -->
<g id="edge5" class="edge">
<title>Node5&#45;&gt;Node6</title>
<path fill="none" stroke="midnightblue" d="M306.71,-21C319.76,-21 333.46,-21 346.73,-21"/>
<polygon fill="midnightblue" stroke="midnightblue" points="346.78,-24.5 356.78,-21 346.78,-17.5 346.78,-24.5"/>
</g>
</g>
</svg>
