<?xml version="1.0" encoding="UTF-8" standalone="no"?>
<!DOCTYPE svg PUBLIC "-//W3C//DTD SVG 1.1//EN"
 "http://www.w3.org/Graphics/SVG/1.1/DTD/svg11.dtd">
<!-- Generated by graphviz version 2.43.0 (0)
 -->
<!-- Title: JoyControlStick::determineStandardModeDirection Pages: 1 -->
<svg width="515pt" height="61pt"
 viewBox="0.00 0.00 515.00 61.00" xmlns="http://www.w3.org/2000/svg" xmlns:xlink="http://www.w3.org/1999/xlink">
<g id="graph0" class="graph" transform="scale(1 1) rotate(0) translate(4 57)">
<title>JoyControlStick::determineStandardModeDirection</title>
<polygon fill="white" stroke="transparent" points="-4,4 -4,-57 511,-57 511,4 -4,4"/>
<!-- Node1 -->
<g id="node1" class="node">
<title>Node1</title>
<g id="a_node1"><a xlink:title="Find the current stick direction based on a Standard mode stick.">
<polygon fill="#bfbfbf" stroke="black" points="360,-22.5 360,-52.5 507,-52.5 507,-22.5 360,-22.5"/>
<text text-anchor="start" x="368" y="-40.5" font-family="Helvetica,sans-Serif" font-size="10.00">JoyControlStick::determine</text>
<text text-anchor="middle" x="433.5" y="-29.5" font-family="Helvetica,sans-Serif" font-size="10.00">StandardModeDirection</text>
</a>
</g>
</g>
<!-- Node2 -->
<g id="node2" class="node">
<title>Node2</title>
<g id="a_node2"><a xlink:href="classJoyControlStick.html#aa4796b8825e4352c74e8a5ec2e009dc4" target="_top" xlink:title=" ">
<polygon fill="white" stroke="black" points="0,-22.5 0,-52.5 141,-52.5 141,-22.5 0,-22.5"/>
<text text-anchor="start" x="8" y="-40.5" font-family="Helvetica,sans-Serif" font-size="10.00">JoyControlStick::calculate</text>
<text text-anchor="middle" x="70.5" y="-29.5" font-family="Helvetica,sans-Serif" font-size="10.00">StickDirection</text>
</a>
</g>
</g>
<!-- Node1&#45;&gt;Node2 -->
<g id="edge1" class="edge">
<title>Node1&#45;&gt;Node2</title>
<path fill="none" stroke="midnightblue" d="M349.69,-40.03C341.02,-40.22 332.33,-40.38 324,-40.5 258.67,-41.4 242.33,-41.43 177,-40.5 165.37,-40.33 153.01,-40.07 141.01,-39.76"/>
<polygon fill="midnightblue" stroke="midnightblue" points="349.93,-43.52 359.84,-39.79 349.76,-36.52 349.93,-43.52"/>
</g>
<!-- Node3 -->
<g id="node3" class="node">
<title>Node3</title>
<g id="a_node3"><a xlink:href="classJoyControlStick.html#a3511f471a2d83fa4f8d7cc21ada7e99b" target="_top" xlink:title="Find the current stick direction based on a Eight Way mode stick.">
<polygon fill="white" stroke="black" points="177,-0.5 177,-30.5 324,-30.5 324,-0.5 177,-0.5"/>
<text text-anchor="start" x="185" y="-18.5" font-family="Helvetica,sans-Serif" font-size="10.00">JoyControlStick::determine</text>
<text text-anchor="middle" x="250.5" y="-7.5" font-family="Helvetica,sans-Serif" font-size="10.00">EightWayModeDirection</text>
</a>
</g>
</g>
<!-- Node1&#45;&gt;Node3 -->
<g id="edge2" class="edge">
<title>Node1&#45;&gt;Node3</title>
<path fill="none" stroke="midnightblue" d="M349.88,-27.46C341.28,-26.41 332.58,-25.35 324.09,-24.32"/>
<polygon fill="midnightblue" stroke="midnightblue" points="349.57,-30.95 359.92,-28.68 350.42,-24 349.57,-30.95"/>
</g>
<!-- Node3&#45;&gt;Node2 -->
<g id="edge3" class="edge">
<title>Node3&#45;&gt;Node2</title>
<path fill="none" stroke="midnightblue" d="M166.79,-25.72C158.18,-26.79 149.49,-27.86 141.05,-28.9"/>
<polygon fill="midnightblue" stroke="midnightblue" points="167.35,-29.18 176.84,-24.48 166.49,-22.23 167.35,-29.18"/>
</g>
</g>
</svg>
