<?xml version="1.0" encoding="UTF-8" standalone="no"?>
<!DOCTYPE svg PUBLIC "-//W3C//DTD SVG 1.1//EN"
 "http://www.w3.org/Graphics/SVG/1.1/DTD/svg11.dtd">
<!-- Generated by graphviz version 2.43.0 (0)
 -->
<!-- Title: MouseButtonSettingsDialog::MouseButtonSettingsDialog Pages: 1 -->
<svg width="601pt" height="2007pt"
 viewBox="0.00 0.00 601.00 2006.50" xmlns="http://www.w3.org/2000/svg" xmlns:xlink="http://www.w3.org/1999/xlink">
<g id="graph0" class="graph" transform="scale(1 1) rotate(0) translate(4 2002.5)">
<title>MouseButtonSettingsDialog::MouseButtonSettingsDialog</title>
<polygon fill="white" stroke="transparent" points="-4,4 -4,-2002.5 597,-2002.5 597,4 -4,4"/>
<!-- Node1 -->
<g id="node1" class="node">
<title>Node1</title>
<g id="a_node1"><a xlink:title=" ">
<polygon fill="#bfbfbf" stroke="black" points="0,-989.5 0,-1019.5 158,-1019.5 158,-989.5 0,-989.5"/>
<text text-anchor="start" x="8" y="-1007.5" font-family="Helvetica,sans-Serif" font-size="10.00">MouseButtonSettingsDialog</text>
<text text-anchor="middle" x="79" y="-996.5" font-family="Helvetica,sans-Serif" font-size="10.00">::MouseButtonSettingsDialog</text>
</a>
</g>
</g>
<!-- Node2 -->
<g id="node2" class="node">
<title>Node2</title>
<g id="a_node2"><a xlink:href="classMouseButtonSettingsDialog.html#ae15a5e00ae65fffde35a6f298e971e6b" target="_top" xlink:title=" ">
<polygon fill="white" stroke="black" points="198.5,-1907.5 198.5,-1937.5 380.5,-1937.5 380.5,-1907.5 198.5,-1907.5"/>
<text text-anchor="start" x="206.5" y="-1925.5" font-family="Helvetica,sans-Serif" font-size="10.00">MouseButtonSettingsDialog</text>
<text text-anchor="middle" x="289.5" y="-1914.5" font-family="Helvetica,sans-Serif" font-size="10.00">::calculateExtraAccelerationCurve</text>
</a>
</g>
</g>
<!-- Node1&#45;&gt;Node2 -->
<g id="edge1" class="edge">
<title>Node1&#45;&gt;Node2</title>
<path fill="none" stroke="midnightblue" d="M80.15,-1019.7C81.46,-1123.26 93.33,-1725.39 194,-1871.5 203.37,-1885.1 217.58,-1895.4 232.15,-1903.05"/>
<polygon fill="midnightblue" stroke="midnightblue" points="230.71,-1906.24 241.23,-1907.47 233.77,-1899.95 230.71,-1906.24"/>
</g>
<!-- Node5 -->
<g id="node5" class="node">
<title>Node5</title>
<g id="a_node5"><a xlink:href="classMouseButtonSettingsDialog.html#a80a3a1605d5cf324e1f865d538e9ab16" target="_top" xlink:title=" ">
<polygon fill="white" stroke="black" points="209.5,-1831.5 209.5,-1861.5 369.5,-1861.5 369.5,-1831.5 209.5,-1831.5"/>
<text text-anchor="start" x="217.5" y="-1849.5" font-family="Helvetica,sans-Serif" font-size="10.00">MouseButtonSettingsDialog</text>
<text text-anchor="middle" x="289.5" y="-1838.5" font-family="Helvetica,sans-Serif" font-size="10.00">::calculateMouseSpeedPreset</text>
</a>
</g>
</g>
<!-- Node1&#45;&gt;Node5 -->
<g id="edge4" class="edge">
<title>Node1&#45;&gt;Node5</title>
<path fill="none" stroke="midnightblue" d="M79.9,-1019.78C79.53,-1121.28 82.45,-1697.92 194,-1822.5 196.06,-1824.81 198.32,-1826.9 200.72,-1828.81"/>
<polygon fill="midnightblue" stroke="midnightblue" points="199.14,-1831.97 209.4,-1834.6 203.02,-1826.14 199.14,-1831.97"/>
</g>
<!-- Node8 -->
<g id="node8" class="node">
<title>Node8</title>
<g id="a_node8"><a xlink:href="classMouseButtonSettingsDialog.html#ab3bbeba1dc9c46e98b6b53469baadb6e" target="_top" xlink:title=" ">
<polygon fill="white" stroke="black" points="213.5,-1782.5 213.5,-1812.5 365.5,-1812.5 365.5,-1782.5 213.5,-1782.5"/>
<text text-anchor="start" x="221.5" y="-1800.5" font-family="Helvetica,sans-Serif" font-size="10.00">MouseButtonSettingsDialog</text>
<text text-anchor="middle" x="289.5" y="-1789.5" font-family="Helvetica,sans-Serif" font-size="10.00">::calculateSpringPreset</text>
</a>
</g>
</g>
<!-- Node1&#45;&gt;Node8 -->
<g id="edge7" class="edge">
<title>Node1&#45;&gt;Node8</title>
<path fill="none" stroke="midnightblue" d="M80.05,-1019.81C80.66,-1117.83 88.83,-1657.07 194,-1773.5 197.08,-1776.91 200.58,-1779.87 204.36,-1782.43"/>
<polygon fill="midnightblue" stroke="midnightblue" points="202.64,-1785.48 213.05,-1787.43 206.13,-1779.41 202.64,-1785.48"/>
</g>
<!-- Node11 -->
<g id="node11" class="node">
<title>Node11</title>
<g id="a_node11"><a xlink:href="classMouseButtonSettingsDialog.html#a63822a92010aa61f62d22413b6b16e1b" target="_top" xlink:title=" ">
<polygon fill="white" stroke="black" points="213.5,-1684.5 213.5,-1714.5 365.5,-1714.5 365.5,-1684.5 213.5,-1684.5"/>
<text text-anchor="start" x="221.5" y="-1702.5" font-family="Helvetica,sans-Serif" font-size="10.00">MouseButtonSettingsDialog</text>
<text text-anchor="middle" x="289.5" y="-1691.5" font-family="Helvetica,sans-Serif" font-size="10.00">::changeMouseCurve</text>
</a>
</g>
</g>
<!-- Node1&#45;&gt;Node11 -->
<g id="edge10" class="edge">
<title>Node1&#45;&gt;Node11</title>
<path fill="none" stroke="midnightblue" d="M80.52,-1019.66C83.87,-1109.11 105.23,-1567.59 194,-1669.5 197.22,-1673.2 200.9,-1676.45 204.89,-1679.3"/>
<polygon fill="midnightblue" stroke="midnightblue" points="203.12,-1682.32 213.47,-1684.61 206.81,-1676.37 203.12,-1682.32"/>
</g>
<!-- Node14 -->
<g id="node14" class="node">
<title>Node14</title>
<g id="a_node14"><a xlink:href="classMouseButtonSettingsDialog.html#af2f3f8cacbf6c91f0dd935c4db231612" target="_top" xlink:title=" ">
<polygon fill="white" stroke="red" points="213.5,-1558.5 213.5,-1588.5 365.5,-1588.5 365.5,-1558.5 213.5,-1558.5"/>
<text text-anchor="start" x="221.5" y="-1576.5" font-family="Helvetica,sans-Serif" font-size="10.00">MouseButtonSettingsDialog</text>
<text text-anchor="middle" x="289.5" y="-1565.5" font-family="Helvetica,sans-Serif" font-size="10.00">::changeMouseMode</text>
</a>
</g>
</g>
<!-- Node1&#45;&gt;Node14 -->
<g id="edge13" class="edge">
<title>Node1&#45;&gt;Node14</title>
<path fill="none" stroke="midnightblue" d="M81.17,-1019.53C87.56,-1098.28 120.81,-1462.68 194,-1543.5 197.29,-1547.14 201.02,-1550.33 205.05,-1553.15"/>
<polygon fill="midnightblue" stroke="midnightblue" points="203.34,-1556.2 213.71,-1558.4 206.97,-1550.22 203.34,-1556.2"/>
</g>
<!-- Node15 -->
<g id="node15" class="node">
<title>Node15</title>
<g id="a_node15"><a xlink:href="classJoyButton.html#a77afa6c5934d2665bad6d494b812f372" target="_top" xlink:title="Check if button should be considered a part of a real controller axis. Needed for some dialogs so the...">
<polygon fill="white" stroke="black" points="437,-1628 437,-1647 577,-1647 577,-1628 437,-1628"/>
<text text-anchor="middle" x="507" y="-1635" font-family="Helvetica,sans-Serif" font-size="10.00">JoyButton::isPartRealAxis</text>
</a>
</g>
</g>
<!-- Node1&#45;&gt;Node15 -->
<g id="edge32" class="edge">
<title>Node1&#45;&gt;Node15</title>
<path fill="none" stroke="midnightblue" d="M80.38,-1019.72C82.9,-1106.5 100.06,-1537.92 194,-1620.5 227.36,-1649.82 345.69,-1648.59 426.65,-1643.89"/>
<polygon fill="midnightblue" stroke="midnightblue" points="427.05,-1647.37 436.82,-1643.27 426.62,-1640.39 427.05,-1647.37"/>
</g>
<!-- Node18 -->
<g id="node16" class="node">
<title>Node18</title>
<g id="a_node16"><a xlink:href="classSpringModeRegionPreview.html#a8d2b08d077d77697a327e2d062130cbd" target="_top" xlink:title=" ">
<polygon fill="white" stroke="red" points="433.5,-1575.5 433.5,-1605.5 580.5,-1605.5 580.5,-1575.5 433.5,-1575.5"/>
<text text-anchor="start" x="441.5" y="-1593.5" font-family="Helvetica,sans-Serif" font-size="10.00">SpringModeRegionPreview</text>
<text text-anchor="middle" x="507" y="-1582.5" font-family="Helvetica,sans-Serif" font-size="10.00">::setSpringHeight</text>
</a>
</g>
</g>
<!-- Node1&#45;&gt;Node18 -->
<g id="edge36" class="edge">
<title>Node1&#45;&gt;Node18</title>
<path fill="none" stroke="midnightblue" d="M80.42,-1019.53C83.11,-1104.31 101.01,-1521.66 194,-1598.5 227.65,-1626.3 342.51,-1615.94 423.05,-1604.44"/>
<polygon fill="midnightblue" stroke="midnightblue" points="423.79,-1607.87 433.18,-1602.96 422.78,-1600.94 423.79,-1607.87"/>
</g>
<!-- Node20 -->
<g id="node17" class="node">
<title>Node20</title>
<g id="a_node17"><a xlink:href="classSpringModeRegionPreview.html#a769d674b3f0697dee55b0a7fbfe4a48f" target="_top" xlink:title=" ">
<polygon fill="white" stroke="red" points="433.5,-1521.5 433.5,-1551.5 580.5,-1551.5 580.5,-1521.5 433.5,-1521.5"/>
<text text-anchor="start" x="441.5" y="-1539.5" font-family="Helvetica,sans-Serif" font-size="10.00">SpringModeRegionPreview</text>
<text text-anchor="middle" x="507" y="-1528.5" font-family="Helvetica,sans-Serif" font-size="10.00">::setSpringWidth</text>
</a>
</g>
</g>
<!-- Node1&#45;&gt;Node20 -->
<g id="edge37" class="edge">
<title>Node1&#45;&gt;Node20</title>
<path fill="none" stroke="midnightblue" d="M81.08,-1019.64C86.89,-1096.48 117.06,-1442.35 194,-1509.5 227.05,-1538.34 342.38,-1541.55 423.14,-1539.98"/>
<polygon fill="midnightblue" stroke="midnightblue" points="423.38,-1543.48 433.3,-1539.76 423.23,-1536.48 423.38,-1543.48"/>
</g>
<!-- Node22 -->
<g id="node18" class="node">
<title>Node22</title>
<g id="a_node18"><a xlink:href="classMouseSettingsDialog.html#aa4950d5644d83623e3c3e0f8d6974636" target="_top" xlink:title=" ">
<polygon fill="white" stroke="black" points="208,-1733.5 208,-1763.5 371,-1763.5 371,-1733.5 208,-1733.5"/>
<text text-anchor="start" x="216" y="-1751.5" font-family="Helvetica,sans-Serif" font-size="10.00">MouseSettingsDialog</text>
<text text-anchor="middle" x="289.5" y="-1740.5" font-family="Helvetica,sans-Serif" font-size="10.00">::changeSettingsWidgetStatus</text>
</a>
</g>
</g>
<!-- Node1&#45;&gt;Node22 -->
<g id="edge17" class="edge">
<title>Node1&#45;&gt;Node22</title>
<path fill="none" stroke="midnightblue" d="M80.21,-1019.74C81.85,-1113.92 95.16,-1616.16 194,-1724.5 195.62,-1726.28 197.36,-1727.93 199.18,-1729.47"/>
<polygon fill="midnightblue" stroke="midnightblue" points="197.55,-1732.61 207.74,-1735.51 201.59,-1726.89 197.55,-1732.61"/>
</g>
<!-- Node23 -->
<g id="node19" class="node">
<title>Node23</title>
<g id="a_node19"><a xlink:href="classMouseSettingsDialog.html#a2c50aa11cdd3d1c30a8b86cbb5fb6d65" target="_top" xlink:title=" ">
<polygon fill="white" stroke="black" points="212,-1470.5 212,-1500.5 367,-1500.5 367,-1470.5 212,-1470.5"/>
<text text-anchor="start" x="220" y="-1488.5" font-family="Helvetica,sans-Serif" font-size="10.00">MouseSettingsDialog</text>
<text text-anchor="middle" x="289.5" y="-1477.5" font-family="Helvetica,sans-Serif" font-size="10.00">::changeSpringSectionStatus</text>
</a>
</g>
</g>
<!-- Node1&#45;&gt;Node23 -->
<g id="edge19" class="edge">
<title>Node1&#45;&gt;Node23</title>
<path fill="none" stroke="midnightblue" d="M81.72,-1019.59C90.15,-1091.08 129.39,-1395 194,-1460.5 196.72,-1463.26 199.71,-1465.73 202.9,-1467.93"/>
<polygon fill="midnightblue" stroke="midnightblue" points="201.36,-1471.09 211.75,-1473.17 204.92,-1465.06 201.36,-1471.09"/>
</g>
<!-- Node24 -->
<g id="node20" class="node">
<title>Node24</title>
<g id="a_node20"><a xlink:href="classJoyButton.html#adecd613014ea43710adc26c9c32ba2ab" target="_top" xlink:title=" ">
<polygon fill="white" stroke="black" points="221,-1421.5 221,-1451.5 358,-1451.5 358,-1421.5 221,-1421.5"/>
<text text-anchor="start" x="229" y="-1439.5" font-family="Helvetica,sans-Serif" font-size="10.00">JoyButton::getAccelExtra</text>
<text text-anchor="middle" x="289.5" y="-1428.5" font-family="Helvetica,sans-Serif" font-size="10.00">Duration</text>
</a>
</g>
</g>
<!-- Node1&#45;&gt;Node24 -->
<g id="edge20" class="edge">
<title>Node1&#45;&gt;Node24</title>
<path fill="none" stroke="midnightblue" d="M82.22,-1019.73C92.28,-1086.66 135.6,-1353.94 194,-1411.5 199.03,-1416.46 204.93,-1420.47 211.28,-1423.71"/>
<polygon fill="midnightblue" stroke="midnightblue" points="210.29,-1427.1 220.85,-1427.91 213.11,-1420.69 210.29,-1427.1"/>
</g>
<!-- Node25 -->
<g id="node21" class="node">
<title>Node25</title>
<g id="a_node21"><a xlink:href="classJoyButton.html#a4b2396063cc8b5dff26c8a54f3309479" target="_top" xlink:title=" ">
<polygon fill="white" stroke="black" points="209.5,-1383 209.5,-1402 369.5,-1402 369.5,-1383 209.5,-1383"/>
<text text-anchor="middle" x="289.5" y="-1390" font-family="Helvetica,sans-Serif" font-size="10.00">JoyButton::getEasingDuration</text>
</a>
</g>
</g>
<!-- Node1&#45;&gt;Node25 -->
<g id="edge21" class="edge">
<title>Node1&#45;&gt;Node25</title>
<path fill="none" stroke="midnightblue" d="M79.67,-1019.54C79.32,-1075.56 86.03,-1274.01 194,-1372.5 196.01,-1374.33 198.14,-1376.01 200.37,-1377.55"/>
<polygon fill="midnightblue" stroke="midnightblue" points="199.01,-1380.81 209.42,-1382.81 202.53,-1374.76 199.01,-1380.81"/>
</g>
<!-- Node26 -->
<g id="node22" class="node">
<title>Node26</title>
<g id="a_node22"><a xlink:href="classJoyButton.html#ad4007e748f2bead2dd5899fc612f94fa" target="_top" xlink:title=" ">
<polygon fill="white" stroke="black" points="203.5,-1333.5 203.5,-1363.5 375.5,-1363.5 375.5,-1333.5 203.5,-1333.5"/>
<text text-anchor="start" x="211.5" y="-1351.5" font-family="Helvetica,sans-Serif" font-size="10.00">JoyButton::getExtraAcceleration</text>
<text text-anchor="middle" x="289.5" y="-1340.5" font-family="Helvetica,sans-Serif" font-size="10.00">Multiplier</text>
</a>
</g>
</g>
<!-- Node1&#45;&gt;Node26 -->
<g id="edge22" class="edge">
<title>Node1&#45;&gt;Node26</title>
<path fill="none" stroke="midnightblue" d="M80.67,-1019.84C83.77,-1071.09 100.89,-1237.95 194,-1323.5 195.68,-1325.04 197.43,-1326.49 199.26,-1327.85"/>
<polygon fill="midnightblue" stroke="midnightblue" points="197.39,-1330.8 207.69,-1333.26 201.17,-1324.91 197.39,-1330.8"/>
</g>
<!-- Node27 -->
<g id="node23" class="node">
<title>Node27</title>
<g id="a_node23"><a xlink:href="classMouseButtonSettingsDialog.html#a1b828fb574ef5b332f2731536f458e39" target="_top" xlink:title=" ">
<polygon fill="white" stroke="black" points="213.5,-1284.5 213.5,-1314.5 365.5,-1314.5 365.5,-1284.5 213.5,-1284.5"/>
<text text-anchor="start" x="221.5" y="-1302.5" font-family="Helvetica,sans-Serif" font-size="10.00">MouseButtonSettingsDialog</text>
<text text-anchor="middle" x="289.5" y="-1291.5" font-family="Helvetica,sans-Serif" font-size="10.00">::getHelperLocal</text>
</a>
</g>
</g>
<!-- Node1&#45;&gt;Node27 -->
<g id="edge23" class="edge">
<title>Node1&#45;&gt;Node27</title>
<path fill="none" stroke="midnightblue" d="M81.77,-1019.74C87.94,-1065.68 112.74,-1203.95 194,-1274.5 197.24,-1277.32 200.77,-1279.82 204.49,-1282.05"/>
<polygon fill="midnightblue" stroke="midnightblue" points="203,-1285.22 213.49,-1286.75 206.25,-1279.01 203,-1285.22"/>
</g>
<!-- Node28 -->
<g id="node24" class="node">
<title>Node28</title>
<g id="a_node24"><a xlink:href="classJoyButton.html#a421e623fa5b3c324c95c28c34d6a485c" target="_top" xlink:title=" ">
<polygon fill="white" stroke="black" points="199,-1246 199,-1265 380,-1265 380,-1246 199,-1246"/>
<text text-anchor="middle" x="289.5" y="-1253" font-family="Helvetica,sans-Serif" font-size="10.00">JoyButton::getMaxAccelThreshold</text>
</a>
</g>
</g>
<!-- Node1&#45;&gt;Node28 -->
<g id="edge24" class="edge">
<title>Node1&#45;&gt;Node28</title>
<path fill="none" stroke="midnightblue" d="M82.66,-1019.6C90.87,-1061.42 119.87,-1179.41 194,-1236.5 196.22,-1238.21 198.56,-1239.78 200.99,-1241.22"/>
<polygon fill="midnightblue" stroke="midnightblue" points="199.62,-1244.45 210.12,-1245.87 202.8,-1238.21 199.62,-1244.45"/>
</g>
<!-- Node29 -->
<g id="node25" class="node">
<title>Node29</title>
<g id="a_node25"><a xlink:href="classJoyButton.html#ab4b60928265f82108c16be1de7ef28b3" target="_top" xlink:title=" ">
<polygon fill="white" stroke="black" points="200.5,-1208 200.5,-1227 378.5,-1227 378.5,-1208 200.5,-1208"/>
<text text-anchor="middle" x="289.5" y="-1215" font-family="Helvetica,sans-Serif" font-size="10.00">JoyButton::getMinAccelThreshold</text>
</a>
</g>
</g>
<!-- Node1&#45;&gt;Node29 -->
<g id="edge25" class="edge">
<title>Node1&#45;&gt;Node29</title>
<path fill="none" stroke="midnightblue" d="M84.17,-1019.54C95.24,-1056.52 129.09,-1152.26 194,-1198.5 196.57,-1200.33 199.28,-1202 202.09,-1203.52"/>
<polygon fill="midnightblue" stroke="midnightblue" points="200.83,-1206.79 211.37,-1207.85 203.79,-1200.45 200.83,-1206.79"/>
</g>
<!-- Node30 -->
<g id="node26" class="node">
<title>Node30</title>
<g id="a_node26"><a xlink:href="classJoyButton.html#ac401cbfb9ac4d75cef4f8bc786172118" target="_top" xlink:title=" ">
<polygon fill="white" stroke="black" points="221,-1170 221,-1189 358,-1189 358,-1170 221,-1170"/>
<text text-anchor="middle" x="289.5" y="-1177" font-family="Helvetica,sans-Serif" font-size="10.00">JoyButton::getSensitivity</text>
</a>
</g>
</g>
<!-- Node1&#45;&gt;Node30 -->
<g id="edge26" class="edge">
<title>Node1&#45;&gt;Node30</title>
<path fill="none" stroke="midnightblue" d="M86.56,-1019.72C101,-1051.28 138.69,-1123.84 194,-1159.5 199.27,-1162.9 205.02,-1165.73 211,-1168.09"/>
<polygon fill="midnightblue" stroke="midnightblue" points="209.94,-1171.43 220.53,-1171.42 212.25,-1164.82 209.94,-1171.43"/>
</g>
<!-- Node31 -->
<g id="node27" class="node">
<title>Node31</title>
<g id="a_node27"><a xlink:href="classJoyButton.html#a60ecfef194078a1d77b4bf7a5e187cbf" target="_top" xlink:title=" ">
<polygon fill="white" stroke="black" points="218.5,-1120.5 218.5,-1150.5 360.5,-1150.5 360.5,-1120.5 218.5,-1120.5"/>
<text text-anchor="start" x="226.5" y="-1138.5" font-family="Helvetica,sans-Serif" font-size="10.00">JoyButton::getSpringDead</text>
<text text-anchor="middle" x="289.5" y="-1127.5" font-family="Helvetica,sans-Serif" font-size="10.00">CircleMultiplier</text>
</a>
</g>
</g>
<!-- Node1&#45;&gt;Node31 -->
<g id="edge27" class="edge">
<title>Node1&#45;&gt;Node31</title>
<path fill="none" stroke="midnightblue" d="M91.96,-1019.62C111.05,-1042.72 150.69,-1086.62 194,-1110.5 198.74,-1113.11 203.76,-1115.46 208.92,-1117.57"/>
<polygon fill="midnightblue" stroke="midnightblue" points="207.75,-1120.87 218.34,-1121.12 210.22,-1114.32 207.75,-1120.87"/>
</g>
<!-- Node32 -->
<g id="node28" class="node">
<title>Node32</title>
<g id="a_node28"><a xlink:href="classJoyButton.html#ac9b85925d5c58f33b715a6db361012e2" target="_top" xlink:title=" ">
<polygon fill="white" stroke="black" points="222,-1071.5 222,-1101.5 357,-1101.5 357,-1071.5 222,-1071.5"/>
<text text-anchor="start" x="230" y="-1089.5" font-family="Helvetica,sans-Serif" font-size="10.00">JoyButton::getStartAccel</text>
<text text-anchor="middle" x="289.5" y="-1078.5" font-family="Helvetica,sans-Serif" font-size="10.00">Multiplier</text>
</a>
</g>
</g>
<!-- Node1&#45;&gt;Node32 -->
<g id="edge28" class="edge">
<title>Node1&#45;&gt;Node32</title>
<path fill="none" stroke="midnightblue" d="M106.48,-1019.69C129.15,-1032.22 162.95,-1049.77 194,-1061.5 200.66,-1064.01 207.67,-1066.38 214.74,-1068.57"/>
<polygon fill="midnightblue" stroke="midnightblue" points="213.81,-1071.94 224.4,-1071.45 215.82,-1065.24 213.81,-1071.94"/>
</g>
<!-- Node33 -->
<g id="node29" class="node">
<title>Node33</title>
<g id="a_node29"><a xlink:href="classJoyButton.html#a8f39bf2962ca3e935c6cd6ea248e0f54" target="_top" xlink:title=" ">
<polygon fill="white" stroke="black" points="213,-1033 213,-1052 366,-1052 366,-1033 213,-1033"/>
<text text-anchor="middle" x="289.5" y="-1040" font-family="Helvetica,sans-Serif" font-size="10.00">JoyButton::getWheelSpeedX</text>
</a>
</g>
</g>
<!-- Node1&#45;&gt;Node33 -->
<g id="edge29" class="edge">
<title>Node1&#45;&gt;Node33</title>
<path fill="none" stroke="midnightblue" d="M158.23,-1018.76C180.68,-1022.85 204.84,-1027.25 226.19,-1031.14"/>
<polygon fill="midnightblue" stroke="midnightblue" points="225.63,-1034.6 236.1,-1032.95 226.89,-1027.71 225.63,-1034.6"/>
</g>
<!-- Node34 -->
<g id="node30" class="node">
<title>Node34</title>
<g id="a_node30"><a xlink:href="classJoyButton.html#afea7d93cb110917ab2721204338f6b7c" target="_top" xlink:title=" ">
<polygon fill="white" stroke="black" points="213.5,-995 213.5,-1014 365.5,-1014 365.5,-995 213.5,-995"/>
<text text-anchor="middle" x="289.5" y="-1002" font-family="Helvetica,sans-Serif" font-size="10.00">JoyButton::getWheelSpeedY</text>
</a>
</g>
</g>
<!-- Node1&#45;&gt;Node34 -->
<g id="edge30" class="edge">
<title>Node1&#45;&gt;Node34</title>
<path fill="none" stroke="midnightblue" d="M158.23,-1004.5C172.88,-1004.5 188.26,-1004.5 203.11,-1004.5"/>
<polygon fill="midnightblue" stroke="midnightblue" points="203.29,-1008 213.29,-1004.5 203.29,-1001 203.29,-1008"/>
</g>
<!-- Node35 -->
<g id="node31" class="node">
<title>Node35</title>
<g id="a_node31"><a xlink:href="classJoyButton.html#a13a762188a2239af9e5ed25c532b98f6" target="_top" xlink:title=" ">
<polygon fill="white" stroke="black" points="207.5,-945.5 207.5,-975.5 371.5,-975.5 371.5,-945.5 207.5,-945.5"/>
<text text-anchor="start" x="215.5" y="-963.5" font-family="Helvetica,sans-Serif" font-size="10.00">JoyButton::isExtraAcceleration</text>
<text text-anchor="middle" x="289.5" y="-952.5" font-family="Helvetica,sans-Serif" font-size="10.00">Enabled</text>
</a>
</g>
</g>
<!-- Node1&#45;&gt;Node35 -->
<g id="edge31" class="edge">
<title>Node1&#45;&gt;Node35</title>
<path fill="none" stroke="midnightblue" d="M151.17,-989.48C169.27,-985.66 188.85,-981.53 207.41,-977.61"/>
<polygon fill="midnightblue" stroke="midnightblue" points="208.23,-981.02 217.3,-975.53 206.79,-974.17 208.23,-981.02"/>
</g>
<!-- Node36 -->
<g id="node32" class="node">
<title>Node36</title>
<g id="a_node32"><a xlink:href="classJoyButton.html#a79b44a6acc2c7860472759f5e2dca087" target="_top" xlink:title=" ">
<polygon fill="white" stroke="black" points="215,-907 215,-926 364,-926 364,-907 215,-907"/>
<text text-anchor="middle" x="289.5" y="-914" font-family="Helvetica,sans-Serif" font-size="10.00">JoyButton::isRelativeSpring</text>
</a>
</g>
</g>
<!-- Node1&#45;&gt;Node36 -->
<g id="edge33" class="edge">
<title>Node1&#45;&gt;Node36</title>
<path fill="none" stroke="midnightblue" d="M100.29,-989.22C122.25,-973.42 158.86,-949.18 194,-935.5 200.81,-932.85 208.04,-930.55 215.36,-928.56"/>
<polygon fill="midnightblue" stroke="midnightblue" points="216.52,-931.88 225.36,-926.03 214.8,-925.09 216.52,-931.88"/>
</g>
<!-- Node37 -->
<g id="node33" class="node">
<title>Node37</title>
<g id="a_node33"><a xlink:href="classMouseButtonSettingsDialog.html#aa410dc4a95ebe7784c375e963567c6de" target="_top" xlink:title=" ">
<polygon fill="white" stroke="red" points="200.5,-857.5 200.5,-887.5 378.5,-887.5 378.5,-857.5 200.5,-857.5"/>
<text text-anchor="start" x="208.5" y="-875.5" font-family="Helvetica,sans-Serif" font-size="10.00">MouseButtonSettingsDialog</text>
<text text-anchor="middle" x="289.5" y="-864.5" font-family="Helvetica,sans-Serif" font-size="10.00">::selectCurrentMouseModePreset</text>
</a>
</g>
</g>
<!-- Node1&#45;&gt;Node37 -->
<g id="edge34" class="edge">
<title>Node1&#45;&gt;Node37</title>
<path fill="none" stroke="midnightblue" d="M91.92,-989.24C110.97,-965.91 150.56,-921.58 194,-897.5 198.14,-895.2 202.5,-893.11 206.99,-891.21"/>
<polygon fill="midnightblue" stroke="midnightblue" points="208.3,-894.45 216.34,-887.55 205.75,-887.93 208.3,-894.45"/>
</g>
<!-- Node39 -->
<g id="node34" class="node">
<title>Node39</title>
<g id="a_node34"><a xlink:href="classJoyButton.html#afd7d3140abdc30b8f1572add36409919" target="_top" xlink:title=" ">
<polygon fill="white" stroke="black" points="210,-819 210,-838 369,-838 369,-819 210,-819"/>
<text text-anchor="middle" x="289.5" y="-826" font-family="Helvetica,sans-Serif" font-size="10.00">JoyButton::setEasingDuration</text>
</a>
</g>
</g>
<!-- Node1&#45;&gt;Node39 -->
<g id="edge35" class="edge">
<title>Node1&#45;&gt;Node39</title>
<path fill="none" stroke="midnightblue" d="M86.48,-989.04C100.75,-956.99 138.15,-883.34 194,-847.5 197.14,-845.48 200.45,-843.67 203.88,-842.05"/>
<polygon fill="midnightblue" stroke="midnightblue" points="205.31,-845.25 213.2,-838.18 202.62,-838.79 205.31,-845.25"/>
</g>
<!-- Node40 -->
<g id="node35" class="node">
<title>Node40</title>
<g id="a_node35"><a xlink:href="classMouseButtonSettingsDialog.html#a0c37f18a3f4a0544925f1867ddaeca0c" target="_top" xlink:title=" ">
<polygon fill="white" stroke="red" points="201.5,-759 201.5,-800 377.5,-800 377.5,-759 201.5,-759"/>
<text text-anchor="start" x="209.5" y="-788" font-family="Helvetica,sans-Serif" font-size="10.00">MouseButtonSettingsDialog</text>
<text text-anchor="start" x="209.5" y="-777" font-family="Helvetica,sans-Serif" font-size="10.00">::updateAccelerationCurvePreset</text>
<text text-anchor="middle" x="289.5" y="-766" font-family="Helvetica,sans-Serif" font-size="10.00">ComboBox</text>
</a>
</g>
</g>
<!-- Node1&#45;&gt;Node40 -->
<g id="edge38" class="edge">
<title>Node1&#45;&gt;Node40</title>
<path fill="none" stroke="midnightblue" d="M84.64,-989.28C96.57,-952.7 131.83,-859.22 194,-809.5 195.8,-808.06 197.67,-806.69 199.61,-805.38"/>
<polygon fill="midnightblue" stroke="midnightblue" points="201.66,-808.23 208.4,-800.06 198.04,-802.24 201.66,-808.23"/>
</g>
<!-- Node43 -->
<g id="node36" class="node">
<title>Node43</title>
<g id="a_node36"><a xlink:href="classMouseButtonSettingsDialogHelper.html#a004b32631c73e2d939f2b5f0bb01c88b" target="_top" xlink:title=" ">
<polygon fill="white" stroke="red" points="198.5,-709.5 198.5,-739.5 380.5,-739.5 380.5,-709.5 198.5,-709.5"/>
<text text-anchor="start" x="206.5" y="-727.5" font-family="Helvetica,sans-Serif" font-size="10.00">MouseButtonSettingsDialog</text>
<text text-anchor="middle" x="289.5" y="-716.5" font-family="Helvetica,sans-Serif" font-size="10.00">Helper::updateAccelExtraDuration</text>
</a>
</g>
</g>
<!-- Node1&#45;&gt;Node43 -->
<g id="edge39" class="edge">
<title>Node1&#45;&gt;Node43</title>
<path fill="none" stroke="midnightblue" d="M82.15,-989.46C89.27,-945.41 116.22,-815.61 194,-749.5 195.98,-747.82 198.06,-746.25 200.22,-744.78"/>
<polygon fill="midnightblue" stroke="midnightblue" points="202.11,-747.73 208.93,-739.63 198.55,-741.71 202.11,-747.73"/>
</g>
<!-- Node45 -->
<g id="node37" class="node">
<title>Node45</title>
<g id="a_node37"><a xlink:href="classMouseButtonSettingsDialog.html#a4ccdbcee03e3d868b213f45a7bc02bea" target="_top" xlink:title=" ">
<polygon fill="white" stroke="black" points="206,-660.5 206,-690.5 373,-690.5 373,-660.5 206,-660.5"/>
<text text-anchor="start" x="214" y="-678.5" font-family="Helvetica,sans-Serif" font-size="10.00">MouseButtonSettingsDialog</text>
<text text-anchor="middle" x="289.5" y="-667.5" font-family="Helvetica,sans-Serif" font-size="10.00">::updateConfigHorizontalSpeed</text>
</a>
</g>
</g>
<!-- Node1&#45;&gt;Node45 -->
<g id="edge40" class="edge">
<title>Node1&#45;&gt;Node45</title>
<path fill="none" stroke="midnightblue" d="M80.9,-989.43C84.69,-939.87 103.72,-780.44 194,-699.5 195.3,-698.33 196.65,-697.22 198.04,-696.17"/>
<polygon fill="midnightblue" stroke="midnightblue" points="199.99,-699.07 206.43,-690.66 196.15,-693.22 199.99,-699.07"/>
</g>
<!-- Node46 -->
<g id="node38" class="node">
<title>Node46</title>
<g id="a_node38"><a xlink:href="classMouseButtonSettingsDialog.html#a86f70f8fc7555ca44356d171e33333ea" target="_top" xlink:title=" ">
<polygon fill="white" stroke="black" points="212.5,-611.5 212.5,-641.5 366.5,-641.5 366.5,-611.5 212.5,-611.5"/>
<text text-anchor="start" x="220.5" y="-629.5" font-family="Helvetica,sans-Serif" font-size="10.00">MouseButtonSettingsDialog</text>
<text text-anchor="middle" x="289.5" y="-618.5" font-family="Helvetica,sans-Serif" font-size="10.00">::updateConfigVerticalSpeed</text>
</a>
</g>
</g>
<!-- Node1&#45;&gt;Node46 -->
<g id="edge41" class="edge">
<title>Node1&#45;&gt;Node46</title>
<path fill="none" stroke="midnightblue" d="M80.01,-989.41C80.92,-934.94 91.63,-746.63 194,-650.5 196.82,-647.85 199.89,-645.49 203.14,-643.37"/>
<polygon fill="midnightblue" stroke="midnightblue" points="205.1,-646.28 212.12,-638.35 201.69,-640.18 205.1,-646.28"/>
</g>
<!-- Node47 -->
<g id="node39" class="node">
<title>Node47</title>
<g id="a_node39"><a xlink:href="classMouseButtonSettingsDialog.html#a6d35401be722032c8035dab325b8bdbc" target="_top" xlink:title=" ">
<polygon fill="white" stroke="red" points="204,-562.5 204,-592.5 375,-592.5 375,-562.5 204,-562.5"/>
<text text-anchor="start" x="212" y="-580.5" font-family="Helvetica,sans-Serif" font-size="10.00">MouseButtonSettingsDialog</text>
<text text-anchor="middle" x="289.5" y="-569.5" font-family="Helvetica,sans-Serif" font-size="10.00">::updateExtraAccelerationCurve</text>
</a>
</g>
</g>
<!-- Node1&#45;&gt;Node47 -->
<g id="edge42" class="edge">
<title>Node1&#45;&gt;Node47</title>
<path fill="none" stroke="midnightblue" d="M79.33,-989.45C77.57,-930.51 79.37,-713.08 194,-601.5 195.1,-600.43 196.24,-599.41 197.42,-598.43"/>
<polygon fill="midnightblue" stroke="midnightblue" points="199.53,-601.21 205.66,-592.57 195.48,-595.51 199.53,-601.21"/>
</g>
<!-- Node50 -->
<g id="node40" class="node">
<title>Node50</title>
<g id="a_node40"><a xlink:href="classMouseButtonSettingsDialogHelper.html#a2b4f9cfdd1a8d98becc8fc15d2b1ee0b" target="_top" xlink:title=" ">
<polygon fill="white" stroke="red" points="202,-502 202,-543 377,-543 377,-502 202,-502"/>
<text text-anchor="start" x="210" y="-531" font-family="Helvetica,sans-Serif" font-size="10.00">MouseButtonSettingsDialog</text>
<text text-anchor="start" x="210" y="-520" font-family="Helvetica,sans-Serif" font-size="10.00">Helper::updateExtraAcceleration</text>
<text text-anchor="middle" x="289.5" y="-509" font-family="Helvetica,sans-Serif" font-size="10.00">Multiplier</text>
</a>
</g>
</g>
<!-- Node1&#45;&gt;Node50 -->
<g id="edge43" class="edge">
<title>Node1&#45;&gt;Node50</title>
<path fill="none" stroke="midnightblue" d="M81.86,-989.14C90.82,-917.71 131.59,-618.79 194,-552.5 194.93,-551.51 195.89,-550.56 196.88,-549.63"/>
<polygon fill="midnightblue" stroke="midnightblue" points="199.37,-552.12 205.01,-543.15 195.01,-546.65 199.37,-552.12"/>
</g>
<!-- Node52 -->
<g id="node41" class="node">
<title>Node52</title>
<g id="a_node41"><a xlink:href="classMouseButtonSettingsDialogHelper.html#afd32ffec3172be5b6edd58e548a497a7" target="_top" xlink:title=" ">
<polygon fill="white" stroke="red" points="202,-442 202,-483 377,-483 377,-442 202,-442"/>
<text text-anchor="start" x="210" y="-471" font-family="Helvetica,sans-Serif" font-size="10.00">MouseButtonSettingsDialog</text>
<text text-anchor="start" x="210" y="-460" font-family="Helvetica,sans-Serif" font-size="10.00">Helper::updateExtraAcceleration</text>
<text text-anchor="middle" x="289.5" y="-449" font-family="Helvetica,sans-Serif" font-size="10.00">Status</text>
</a>
</g>
</g>
<!-- Node1&#45;&gt;Node52 -->
<g id="edge44" class="edge">
<title>Node1&#45;&gt;Node52</title>
<path fill="none" stroke="midnightblue" d="M81.35,-989.47C88.48,-913.1 124.13,-568.83 194,-492.5 194.92,-491.5 195.86,-490.53 196.84,-489.6"/>
<polygon fill="midnightblue" stroke="midnightblue" points="199.35,-492.07 204.89,-483.04 194.93,-486.65 199.35,-492.07"/>
</g>
<!-- Node53 -->
<g id="node42" class="node">
<title>Node53</title>
<g id="a_node42"><a xlink:href="classMouseButtonSettingsDialogHelper.html#ad77bee93c81cbbcc1b94906192954579" target="_top" xlink:title=" ">
<polygon fill="white" stroke="red" points="197.5,-392.5 197.5,-422.5 381.5,-422.5 381.5,-392.5 197.5,-392.5"/>
<text text-anchor="start" x="205.5" y="-410.5" font-family="Helvetica,sans-Serif" font-size="10.00">MouseButtonSettingsDialog</text>
<text text-anchor="middle" x="289.5" y="-399.5" font-family="Helvetica,sans-Serif" font-size="10.00">Helper::updateMaxAccelThreshold</text>
</a>
</g>
</g>
<!-- Node1&#45;&gt;Node53 -->
<g id="edge45" class="edge">
<title>Node1&#45;&gt;Node53</title>
<path fill="none" stroke="midnightblue" d="M80.9,-989.3C86.09,-907.17 114.68,-516.89 194,-432.5 195.24,-431.18 196.54,-429.93 197.89,-428.74"/>
<polygon fill="midnightblue" stroke="midnightblue" points="200.22,-431.37 206.17,-422.61 196.05,-425.75 200.22,-431.37"/>
</g>
<!-- Node55 -->
<g id="node43" class="node">
<title>Node55</title>
<g id="a_node43"><a xlink:href="classMouseButtonSettingsDialogHelper.html#a7e82b3d1e28beec44976fe3e823b82f4" target="_top" xlink:title=" ">
<polygon fill="white" stroke="red" points="199,-343.5 199,-373.5 380,-373.5 380,-343.5 199,-343.5"/>
<text text-anchor="start" x="207" y="-361.5" font-family="Helvetica,sans-Serif" font-size="10.00">MouseButtonSettingsDialog</text>
<text text-anchor="middle" x="289.5" y="-350.5" font-family="Helvetica,sans-Serif" font-size="10.00">Helper::updateMinAccelThreshold</text>
</a>
</g>
</g>
<!-- Node1&#45;&gt;Node55 -->
<g id="edge46" class="edge">
<title>Node1&#45;&gt;Node55</title>
<path fill="none" stroke="midnightblue" d="M80.62,-989.41C84.47,-903.31 107.79,-474.73 194,-382.5 194.78,-381.67 195.59,-380.86 196.41,-380.08"/>
<polygon fill="midnightblue" stroke="midnightblue" points="198.75,-382.69 204.42,-373.74 194.41,-377.2 198.75,-382.69"/>
</g>
<!-- Node57 -->
<g id="node44" class="node">
<title>Node57</title>
<g id="a_node44"><a xlink:href="classMouseButtonSettingsDialogHelper.html#ad25ae613c02135207f862c7e8fedaa69" target="_top" xlink:title=" ">
<polygon fill="white" stroke="red" points="194,-294.5 194,-324.5 385,-324.5 385,-294.5 194,-294.5"/>
<text text-anchor="start" x="202" y="-312.5" font-family="Helvetica,sans-Serif" font-size="10.00">MouseButtonSettingsDialog</text>
<text text-anchor="middle" x="289.5" y="-301.5" font-family="Helvetica,sans-Serif" font-size="10.00">Helper::updateReleaseSpringRadius</text>
</a>
</g>
</g>
<!-- Node1&#45;&gt;Node57 -->
<g id="edge47" class="edge">
<title>Node1&#45;&gt;Node57</title>
<path fill="none" stroke="midnightblue" d="M80.4,-989.42C83.1,-899.44 101.45,-433.81 194,-333.5 194.77,-332.66 195.57,-331.85 196.4,-331.06"/>
<polygon fill="midnightblue" stroke="midnightblue" points="198.74,-333.67 204.37,-324.69 194.37,-328.2 198.74,-333.67"/>
</g>
<!-- Node59 -->
<g id="node45" class="node">
<title>Node59</title>
<g id="a_node45"><a xlink:href="classMouseButtonSettingsDialog.html#a196bee0cd8ac4b8a591c946daf522dab" target="_top" xlink:title=" ">
<polygon fill="white" stroke="red" points="213.5,-245.5 213.5,-275.5 365.5,-275.5 365.5,-245.5 213.5,-245.5"/>
<text text-anchor="start" x="221.5" y="-263.5" font-family="Helvetica,sans-Serif" font-size="10.00">MouseButtonSettingsDialog</text>
<text text-anchor="middle" x="289.5" y="-252.5" font-family="Helvetica,sans-Serif" font-size="10.00">::updateSensitivity</text>
</a>
</g>
</g>
<!-- Node1&#45;&gt;Node59 -->
<g id="edge48" class="edge">
<title>Node1&#45;&gt;Node59</title>
<path fill="none" stroke="midnightblue" d="M80.21,-989.26C81.85,-895.08 95.16,-392.84 194,-284.5 197.1,-281.1 200.61,-278.16 204.4,-275.6"/>
<polygon fill="midnightblue" stroke="midnightblue" points="206.17,-278.62 213.11,-270.62 202.69,-272.55 206.17,-278.62"/>
</g>
<!-- Node61 -->
<g id="node46" class="node">
<title>Node61</title>
<g id="a_node46"><a xlink:href="classMouseButtonSettingsDialog.html#a8f46871223acfdb08a2e0cd1721b086f" target="_top" xlink:title=" ">
<polygon fill="white" stroke="black" points="213.5,-196.5 213.5,-226.5 365.5,-226.5 365.5,-196.5 213.5,-196.5"/>
<text text-anchor="start" x="221.5" y="-214.5" font-family="Helvetica,sans-Serif" font-size="10.00">MouseButtonSettingsDialog</text>
<text text-anchor="middle" x="289.5" y="-203.5" font-family="Helvetica,sans-Serif" font-size="10.00">::updateSpringHeight</text>
</a>
</g>
</g>
<!-- Node1&#45;&gt;Node61 -->
<g id="edge49" class="edge">
<title>Node1&#45;&gt;Node61</title>
<path fill="none" stroke="midnightblue" d="M80.05,-989.19C80.66,-891.17 88.83,-351.93 194,-235.5 197.08,-232.09 200.58,-229.13 204.36,-226.57"/>
<polygon fill="midnightblue" stroke="midnightblue" points="206.13,-229.59 213.05,-221.57 202.64,-223.52 206.13,-229.59"/>
</g>
<!-- Node62 -->
<g id="node47" class="node">
<title>Node62</title>
<g id="a_node47"><a xlink:href="classMouseButtonSettingsDialogHelper.html#a4fd35e604ece8e77c5ff228ffd0433b1" target="_top" xlink:title=" ">
<polygon fill="white" stroke="red" points="194,-147.5 194,-177.5 385,-177.5 385,-147.5 194,-147.5"/>
<text text-anchor="start" x="202" y="-165.5" font-family="Helvetica,sans-Serif" font-size="10.00">MouseButtonSettingsDialog</text>
<text text-anchor="middle" x="289.5" y="-154.5" font-family="Helvetica,sans-Serif" font-size="10.00">Helper::updateSpringRelativeStatus</text>
</a>
</g>
</g>
<!-- Node1&#45;&gt;Node62 -->
<g id="edge50" class="edge">
<title>Node1&#45;&gt;Node62</title>
<path fill="none" stroke="midnightblue" d="M79.9,-989.22C79.53,-887.72 82.45,-311.08 194,-186.5 194.76,-185.65 195.55,-184.83 196.36,-184.03"/>
<polygon fill="midnightblue" stroke="midnightblue" points="198.72,-186.62 204.25,-177.58 194.29,-181.2 198.72,-186.62"/>
</g>
<!-- Node64 -->
<g id="node48" class="node">
<title>Node64</title>
<g id="a_node48"><a xlink:href="classMouseButtonSettingsDialog.html#a99c0407e2f8afcf348ac683bca423ec6" target="_top" xlink:title=" ">
<polygon fill="white" stroke="black" points="213.5,-98.5 213.5,-128.5 365.5,-128.5 365.5,-98.5 213.5,-98.5"/>
<text text-anchor="start" x="221.5" y="-116.5" font-family="Helvetica,sans-Serif" font-size="10.00">MouseButtonSettingsDialog</text>
<text text-anchor="middle" x="289.5" y="-105.5" font-family="Helvetica,sans-Serif" font-size="10.00">::updateSpringWidth</text>
</a>
</g>
</g>
<!-- Node1&#45;&gt;Node64 -->
<g id="edge51" class="edge">
<title>Node1&#45;&gt;Node64</title>
<path fill="none" stroke="midnightblue" d="M79.77,-989.33C78.47,-884.71 76.02,-270.29 194,-137.5 197.12,-133.99 200.67,-130.96 204.53,-128.34"/>
<polygon fill="midnightblue" stroke="midnightblue" points="206.47,-131.26 213.41,-123.26 202.99,-125.19 206.47,-131.26"/>
</g>
<!-- Node65 -->
<g id="node49" class="node">
<title>Node65</title>
<g id="a_node49"><a xlink:href="classMouseButtonSettingsDialogHelper.html#ac4595eed9f7d5752386f1d9d82862ebf" target="_top" xlink:title=" ">
<polygon fill="white" stroke="red" points="194,-49.5 194,-79.5 385,-79.5 385,-49.5 194,-49.5"/>
<text text-anchor="start" x="202" y="-67.5" font-family="Helvetica,sans-Serif" font-size="10.00">MouseButtonSettingsDialog</text>
<text text-anchor="middle" x="289.5" y="-56.5" font-family="Helvetica,sans-Serif" font-size="10.00">Helper::updateStartMultiPercentage</text>
</a>
</g>
</g>
<!-- Node1&#45;&gt;Node65 -->
<g id="edge52" class="edge">
<title>Node1&#45;&gt;Node65</title>
<path fill="none" stroke="midnightblue" d="M80.88,-989.18C87.53,-875 131.58,-159.25 194,-88.5 194.76,-87.64 195.54,-86.81 196.34,-86.01"/>
<polygon fill="midnightblue" stroke="midnightblue" points="198.71,-88.6 204.19,-79.53 194.25,-83.2 198.71,-88.6"/>
</g>
<!-- Node67 -->
<g id="node50" class="node">
<title>Node67</title>
<g id="a_node50"><a xlink:href="classMouseButtonSettingsDialog.html#a2f23599f16d802415aa8ea016341199b" target="_top" xlink:title=" ">
<polygon fill="white" stroke="red" points="200,-0.5 200,-30.5 379,-30.5 379,-0.5 200,-0.5"/>
<text text-anchor="start" x="208" y="-18.5" font-family="Helvetica,sans-Serif" font-size="10.00">MouseButtonSettingsDialog</text>
<text text-anchor="middle" x="289.5" y="-7.5" font-family="Helvetica,sans-Serif" font-size="10.00">::updateWindowTitleButtonName</text>
</a>
</g>
</g>
<!-- Node1&#45;&gt;Node67 -->
<g id="edge53" class="edge">
<title>Node1&#45;&gt;Node67</title>
<path fill="none" stroke="midnightblue" d="M80.76,-989.49C86.78,-872.91 128.31,-114.42 194,-39.5 194.75,-38.64 195.53,-37.81 196.34,-37.01"/>
<polygon fill="midnightblue" stroke="midnightblue" points="198.71,-39.59 204.16,-30.51 194.24,-34.2 198.71,-39.59"/>
</g>
<!-- Node3 -->
<g id="node3" class="node">
<title>Node3</title>
<g id="a_node3"><a xlink:href="classJoyButton.html#acd84988b8ba20fb677c8ff9d10f900c3" target="_top" xlink:title=" ">
<polygon fill="white" stroke="black" points="421,-1907.5 421,-1937.5 593,-1937.5 593,-1907.5 421,-1907.5"/>
<text text-anchor="start" x="429" y="-1925.5" font-family="Helvetica,sans-Serif" font-size="10.00">JoyButton::getExtraAcceleration</text>
<text text-anchor="middle" x="507" y="-1914.5" font-family="Helvetica,sans-Serif" font-size="10.00">Curve</text>
</a>
</g>
</g>
<!-- Node2&#45;&gt;Node3 -->
<g id="edge2" class="edge">
<title>Node2&#45;&gt;Node3</title>
<path fill="none" stroke="midnightblue" d="M380.64,-1922.5C390.49,-1922.5 400.53,-1922.5 410.44,-1922.5"/>
<polygon fill="midnightblue" stroke="midnightblue" points="410.7,-1926 420.7,-1922.5 410.7,-1919 410.7,-1926"/>
</g>
<!-- Node4 -->
<g id="node4" class="node">
<title>Node4</title>
<g id="a_node4"><a xlink:href="classMouseSettingsDialog.html#ab5ac51d0e5fd4f505faa11128a279109" target="_top" xlink:title=" ">
<polygon fill="white" stroke="black" points="421.5,-1957 421.5,-1998 592.5,-1998 592.5,-1957 421.5,-1957"/>
<text text-anchor="start" x="429.5" y="-1986" font-family="Helvetica,sans-Serif" font-size="10.00">MouseSettingsDialog</text>
<text text-anchor="start" x="429.5" y="-1975" font-family="Helvetica,sans-Serif" font-size="10.00">::updateExtraAccelerationCurve</text>
<text text-anchor="middle" x="507" y="-1964" font-family="Helvetica,sans-Serif" font-size="10.00">PresetComboBox</text>
</a>
</g>
</g>
<!-- Node2&#45;&gt;Node4 -->
<g id="edge3" class="edge">
<title>Node2&#45;&gt;Node4</title>
<path fill="none" stroke="midnightblue" d="M349.39,-1937.53C369.79,-1942.74 393.17,-1948.7 415.53,-1954.41"/>
<polygon fill="midnightblue" stroke="midnightblue" points="414.82,-1957.84 425.37,-1956.92 416.55,-1951.06 414.82,-1957.84"/>
</g>
<!-- Node6 -->
<g id="node6" class="node">
<title>Node6</title>
<g id="a_node6"><a xlink:href="classJoyButton.html#a76e65a13abf96d01fa11ed9fd3b08a7b" target="_top" xlink:title=" ">
<polygon fill="white" stroke="black" points="429.5,-1831 429.5,-1850 584.5,-1850 584.5,-1831 429.5,-1831"/>
<text text-anchor="middle" x="507" y="-1838" font-family="Helvetica,sans-Serif" font-size="10.00">JoyButton::getMouseSpeedX</text>
</a>
</g>
</g>
<!-- Node5&#45;&gt;Node6 -->
<g id="edge5" class="edge">
<title>Node5&#45;&gt;Node6</title>
<path fill="none" stroke="midnightblue" d="M369.52,-1844.3C385.64,-1843.85 402.68,-1843.38 419.05,-1842.92"/>
<polygon fill="midnightblue" stroke="midnightblue" points="419.25,-1846.42 429.15,-1842.64 419.05,-1839.42 419.25,-1846.42"/>
</g>
<!-- Node7 -->
<g id="node7" class="node">
<title>Node7</title>
<g id="a_node7"><a xlink:href="classJoyButton.html#a897f0f78773ace1b5916222bd757b1bc" target="_top" xlink:title=" ">
<polygon fill="white" stroke="black" points="430,-1869 430,-1888 584,-1888 584,-1869 430,-1869"/>
<text text-anchor="middle" x="507" y="-1876" font-family="Helvetica,sans-Serif" font-size="10.00">JoyButton::getMouseSpeedY</text>
</a>
</g>
</g>
<!-- Node5&#45;&gt;Node7 -->
<g id="edge6" class="edge">
<title>Node5&#45;&gt;Node7</title>
<path fill="none" stroke="midnightblue" d="M369.52,-1858.23C389.87,-1861.26 411.69,-1864.5 431.78,-1867.48"/>
<polygon fill="midnightblue" stroke="midnightblue" points="431.4,-1870.96 441.8,-1868.97 432.43,-1864.04 431.4,-1870.96"/>
</g>
<!-- Node9 -->
<g id="node9" class="node">
<title>Node9</title>
<g id="a_node9"><a xlink:href="classJoyButton.html#ae52698526b927b1780ccde48e965a1c7" target="_top" xlink:title=" ">
<polygon fill="white" stroke="black" points="432.5,-1755 432.5,-1774 581.5,-1774 581.5,-1755 432.5,-1755"/>
<text text-anchor="middle" x="507" y="-1762" font-family="Helvetica,sans-Serif" font-size="10.00">JoyButton::getSpringHeight</text>
</a>
</g>
</g>
<!-- Node8&#45;&gt;Node9 -->
<g id="edge8" class="edge">
<title>Node8&#45;&gt;Node9</title>
<path fill="none" stroke="midnightblue" d="M365.57,-1786C387.69,-1782.62 411.84,-1778.92 433.78,-1775.56"/>
<polygon fill="midnightblue" stroke="midnightblue" points="434.33,-1779.02 443.69,-1774.04 433.27,-1772.1 434.33,-1779.02"/>
</g>
<!-- Node10 -->
<g id="node10" class="node">
<title>Node10</title>
<g id="a_node10"><a xlink:href="classJoyButton.html#a51beaf1d3e91d0fd501368f52fa602f6" target="_top" xlink:title=" ">
<polygon fill="white" stroke="black" points="434.5,-1793 434.5,-1812 579.5,-1812 579.5,-1793 434.5,-1793"/>
<text text-anchor="middle" x="507" y="-1800" font-family="Helvetica,sans-Serif" font-size="10.00">JoyButton::getSpringWidth</text>
</a>
</g>
</g>
<!-- Node8&#45;&gt;Node10 -->
<g id="edge9" class="edge">
<title>Node8&#45;&gt;Node10</title>
<path fill="none" stroke="midnightblue" d="M365.57,-1799.24C384.51,-1799.68 404.95,-1800.16 424.21,-1800.6"/>
<polygon fill="midnightblue" stroke="midnightblue" points="424.38,-1804.11 434.46,-1800.84 424.55,-1797.11 424.38,-1804.11"/>
</g>
<!-- Node12 -->
<g id="node12" class="node">
<title>Node12</title>
<g id="a_node12"><a xlink:href="classMouseSettingsDialog.html#a7adbe7521ee56d97cf8c38efc39f4b6c" target="_top" xlink:title=" ">
<polygon fill="white" stroke="black" points="436.5,-1705.5 436.5,-1735.5 577.5,-1735.5 577.5,-1705.5 436.5,-1705.5"/>
<text text-anchor="start" x="444.5" y="-1723.5" font-family="Helvetica,sans-Serif" font-size="10.00">MouseSettingsDialog</text>
<text text-anchor="middle" x="507" y="-1712.5" font-family="Helvetica,sans-Serif" font-size="10.00">::getMouseCurveForIndex</text>
</a>
</g>
</g>
<!-- Node11&#45;&gt;Node12 -->
<g id="edge11" class="edge">
<title>Node11&#45;&gt;Node12</title>
<path fill="none" stroke="midnightblue" d="M365.57,-1706.82C385.12,-1708.72 406.25,-1710.78 426.05,-1712.71"/>
<polygon fill="midnightblue" stroke="midnightblue" points="425.97,-1716.22 436.26,-1713.7 426.65,-1709.25 425.97,-1716.22"/>
</g>
<!-- Node13 -->
<g id="node13" class="node">
<title>Node13</title>
<g id="a_node13"><a xlink:href="classJoyButton.html#a89b6b5b57ffe55c871447466b37b5df6" target="_top" xlink:title=" ">
<polygon fill="white" stroke="black" points="434,-1667 434,-1686 580,-1686 580,-1667 434,-1667"/>
<text text-anchor="middle" x="507" y="-1674" font-family="Helvetica,sans-Serif" font-size="10.00">JoyButton::setMouseCurve</text>
</a>
</g>
</g>
<!-- Node11&#45;&gt;Node13 -->
<g id="edge12" class="edge">
<title>Node11&#45;&gt;Node13</title>
<path fill="none" stroke="midnightblue" d="M365.57,-1691.49C384.31,-1689.49 404.51,-1687.33 423.58,-1685.3"/>
<polygon fill="midnightblue" stroke="midnightblue" points="424.17,-1688.75 433.74,-1684.21 423.42,-1681.79 424.17,-1688.75"/>
</g>
<!-- Node14&#45;&gt;Node15 -->
<g id="edge14" class="edge">
<title>Node14&#45;&gt;Node15</title>
<path fill="none" stroke="midnightblue" d="M335,-1588.53C360.13,-1596.84 392.2,-1607.15 421,-1615.5 432.67,-1618.88 445.31,-1622.29 457.18,-1625.38"/>
<polygon fill="midnightblue" stroke="midnightblue" points="456.38,-1628.79 466.94,-1627.9 458.13,-1622.01 456.38,-1628.79"/>
</g>
<!-- Node14&#45;&gt;Node18 -->
<g id="edge15" class="edge">
<title>Node14&#45;&gt;Node18</title>
<path fill="none" stroke="midnightblue" d="M365.57,-1579.42C384.21,-1580.89 404.28,-1582.48 423.26,-1583.97"/>
<polygon fill="midnightblue" stroke="midnightblue" points="423.13,-1587.47 433.38,-1584.77 423.68,-1580.5 423.13,-1587.47"/>
</g>
<!-- Node14&#45;&gt;Node20 -->
<g id="edge16" class="edge">
<title>Node14&#45;&gt;Node20</title>
<path fill="none" stroke="midnightblue" d="M365.57,-1560.61C384.21,-1557.41 404.28,-1553.96 423.26,-1550.71"/>
<polygon fill="midnightblue" stroke="midnightblue" points="424.11,-1554.11 433.38,-1548.97 422.93,-1547.21 424.11,-1554.11"/>
</g>
<!-- Node22&#45;&gt;Node12 -->
<g id="edge18" class="edge">
<title>Node22&#45;&gt;Node12</title>
<path fill="none" stroke="midnightblue" d="M371.05,-1738.03C389.02,-1735.7 408.08,-1733.22 426.02,-1730.89"/>
<polygon fill="midnightblue" stroke="midnightblue" points="426.69,-1734.33 436.16,-1729.57 425.79,-1727.39 426.69,-1734.33"/>
</g>
</g>
</svg>
