<?xml version="1.0" encoding="UTF-8" standalone="no"?>
<!DOCTYPE svg PUBLIC "-//W3C//DTD SVG 1.1//EN"
 "http://www.w3.org/Graphics/SVG/1.1/DTD/svg11.dtd">
<!-- Generated by graphviz version 2.43.0 (0)
 -->
<!-- Title: InputDevice::rawDPadButtonRelease Pages: 1 -->
<svg width="1725pt" height="274pt"
 viewBox="0.00 0.00 1725.00 274.00" xmlns="http://www.w3.org/2000/svg" xmlns:xlink="http://www.w3.org/1999/xlink">
<g id="graph0" class="graph" transform="scale(1 1) rotate(0) translate(4 270)">
<title>InputDevice::rawDPadButtonRelease</title>
<polygon fill="white" stroke="transparent" points="-4,4 -4,-270 1721,-270 1721,4 -4,4"/>
<!-- Node1 -->
<g id="node1" class="node">
<title>Node1</title>
<g id="a_node1"><a xlink:title=" ">
<polygon fill="#bfbfbf" stroke="black" points="1561,-63 1561,-93 1717,-93 1717,-63 1561,-63"/>
<text text-anchor="start" x="1569" y="-81" font-family="Helvetica,sans-Serif" font-size="10.00">InputDevice::rawDPadButton</text>
<text text-anchor="middle" x="1639" y="-70" font-family="Helvetica,sans-Serif" font-size="10.00">Release</text>
</a>
</g>
</g>
<!-- Node2 -->
<g id="node2" class="node">
<title>Node2</title>
<g id="a_node2"><a xlink:href="classGameControllerMappingDialog.html#a60b30c08f5f3aaa622bead8cb8339664" target="_top" xlink:title=" ">
<polygon fill="white" stroke="black" points="1353.5,-88 1353.5,-118 1520.5,-118 1520.5,-88 1353.5,-88"/>
<text text-anchor="start" x="1361.5" y="-106" font-family="Helvetica,sans-Serif" font-size="10.00">GameControllerMappingDialog</text>
<text text-anchor="middle" x="1437" y="-95" font-family="Helvetica,sans-Serif" font-size="10.00">::disableDeviceConnections</text>
</a>
</g>
</g>
<!-- Node1&#45;&gt;Node2 -->
<g id="edge1" class="edge">
<title>Node1&#45;&gt;Node2</title>
<path fill="none" stroke="midnightblue" d="M1550.97,-88.88C1540.9,-90.14 1530.65,-91.42 1520.64,-92.67"/>
<polygon fill="midnightblue" stroke="midnightblue" points="1551.47,-92.34 1560.96,-87.63 1550.6,-85.4 1551.47,-92.34"/>
</g>
<!-- Node5 -->
<g id="node5" class="node">
<title>Node5</title>
<g id="a_node5"><a xlink:href="classInputDevice.html#a319d498ebdfa04d092dcba9434542fb4" target="_top" xlink:title=" ">
<polygon fill="white" stroke="black" points="1349,-137 1349,-167 1525,-167 1525,-137 1349,-137"/>
<text text-anchor="start" x="1357" y="-155" font-family="Helvetica,sans-Serif" font-size="10.00">InputDevice::dpadButtonRelease</text>
<text text-anchor="middle" x="1437" y="-144" font-family="Helvetica,sans-Serif" font-size="10.00">Event</text>
</a>
</g>
</g>
<!-- Node1&#45;&gt;Node5 -->
<g id="edge4" class="edge">
<title>Node1&#45;&gt;Node5</title>
<path fill="none" stroke="midnightblue" d="M1596.94,-97.33C1575.73,-106.92 1549.26,-118.3 1525,-127 1515.24,-130.5 1504.73,-133.86 1494.5,-136.92"/>
<polygon fill="midnightblue" stroke="midnightblue" points="1598.65,-100.4 1606.3,-93.06 1595.75,-94.03 1598.65,-100.4"/>
</g>
<!-- Node21 -->
<g id="node21" class="node">
<title>Node21</title>
<g id="a_node21"><a xlink:href="classGameControllerMappingDialog.html#ae066f4c1eaab2dcbb49625577a50443b" target="_top" xlink:title=" ">
<polygon fill="white" stroke="black" points="1353.5,-39 1353.5,-69 1520.5,-69 1520.5,-39 1353.5,-39"/>
<text text-anchor="start" x="1361.5" y="-57" font-family="Helvetica,sans-Serif" font-size="10.00">GameControllerMappingDialog</text>
<text text-anchor="middle" x="1437" y="-46" font-family="Helvetica,sans-Serif" font-size="10.00">::enableDeviceConnections</text>
</a>
</g>
</g>
<!-- Node1&#45;&gt;Node21 -->
<g id="edge21" class="edge">
<title>Node1&#45;&gt;Node21</title>
<path fill="none" stroke="midnightblue" d="M1550.97,-67.56C1540.9,-66.35 1530.65,-65.12 1520.64,-63.92"/>
<polygon fill="midnightblue" stroke="midnightblue" points="1550.62,-71.04 1560.96,-68.76 1551.45,-64.09 1550.62,-71.04"/>
</g>
<!-- Node22 -->
<g id="node22" class="node">
<title>Node22</title>
<g id="a_node22"><a xlink:href="classGameController.html#a77a2f45d14a559b6eaf752d72a0404d5" target="_top" xlink:title=" ">
<polygon fill="white" stroke="black" points="1352,-0.5 1352,-19.5 1522,-19.5 1522,-0.5 1352,-0.5"/>
<text text-anchor="middle" x="1437" y="-7.5" font-family="Helvetica,sans-Serif" font-size="10.00">GameController::rawDPadEvent</text>
</a>
</g>
</g>
<!-- Node1&#45;&gt;Node22 -->
<g id="edge24" class="edge">
<title>Node1&#45;&gt;Node22</title>
<path fill="none" stroke="midnightblue" d="M1598.37,-58.56C1577.02,-48.67 1549.99,-37.06 1525,-29 1513.67,-25.34 1501.29,-22.17 1489.51,-19.52"/>
<polygon fill="midnightblue" stroke="midnightblue" points="1596.91,-61.74 1607.45,-62.82 1599.88,-55.41 1596.91,-61.74"/>
</g>
<!-- Node3 -->
<g id="node3" class="node">
<title>Node3</title>
<g id="a_node3"><a xlink:href="classGameControllerMappingDialog.html#a3969a243cd5846c91466cd663f840f07" target="_top" xlink:title=" ">
<polygon fill="white" stroke="black" points="1136,-83 1136,-113 1303,-113 1303,-83 1136,-83"/>
<text text-anchor="start" x="1144" y="-101" font-family="Helvetica,sans-Serif" font-size="10.00">GameControllerMappingDialog</text>
<text text-anchor="middle" x="1219.5" y="-90" font-family="Helvetica,sans-Serif" font-size="10.00">::discardMapping</text>
</a>
</g>
</g>
<!-- Node2&#45;&gt;Node3 -->
<g id="edge2" class="edge">
<title>Node2&#45;&gt;Node3</title>
<path fill="none" stroke="midnightblue" d="M1343.23,-100.85C1329.97,-100.54 1316.39,-100.22 1303.34,-99.92"/>
<polygon fill="midnightblue" stroke="midnightblue" points="1343.22,-104.35 1353.3,-101.08 1343.38,-97.35 1343.22,-104.35"/>
</g>
<!-- Node4 -->
<g id="node4" class="node">
<title>Node4</title>
<g id="a_node4"><a xlink:href="classGameControllerMappingDialog.html#a3b5f7c179120ccffa5c7eca5de1edafe" target="_top" xlink:title=" ">
<polygon fill="white" stroke="black" points="917,-61 917,-91 1090,-91 1090,-61 917,-61"/>
<text text-anchor="start" x="925" y="-79" font-family="Helvetica,sans-Serif" font-size="10.00">GameControllerMappingDialog</text>
<text text-anchor="middle" x="1003.5" y="-68" font-family="Helvetica,sans-Serif" font-size="10.00">::GameControllerMappingDialog</text>
</a>
</g>
</g>
<!-- Node3&#45;&gt;Node4 -->
<g id="edge3" class="edge">
<title>Node3&#45;&gt;Node4</title>
<path fill="none" stroke="midnightblue" d="M1125.52,-88.44C1113.78,-87.23 1101.82,-86 1090.2,-84.81"/>
<polygon fill="midnightblue" stroke="midnightblue" points="1125.46,-91.95 1135.76,-89.49 1126.17,-84.99 1125.46,-91.95"/>
</g>
<!-- Node6 -->
<g id="node6" class="node">
<title>Node6</title>
<g id="a_node6"><a xlink:href="classSetJoystick.html#a8d5292e67292aa93b73ecbef256b2825" target="_top" xlink:title=" ">
<polygon fill="white" stroke="black" points="1126,-142.5 1126,-161.5 1313,-161.5 1313,-142.5 1126,-142.5"/>
<text text-anchor="middle" x="1219.5" y="-149.5" font-family="Helvetica,sans-Serif" font-size="10.00">SetJoystick::enableHatConnections</text>
</a>
</g>
</g>
<!-- Node5&#45;&gt;Node6 -->
<g id="edge5" class="edge">
<title>Node5&#45;&gt;Node6</title>
<path fill="none" stroke="midnightblue" d="M1338.95,-152C1330.36,-152 1321.68,-152 1313.14,-152"/>
<polygon fill="midnightblue" stroke="midnightblue" points="1338.97,-155.5 1348.97,-152 1338.97,-148.5 1338.97,-155.5"/>
</g>
<!-- Node7 -->
<g id="node7" class="node">
<title>Node7</title>
<g id="a_node7"><a xlink:href="classSetJoystick.html#ae948ac81f57e1ae1e3e43cc704fd8c2b" target="_top" xlink:title=" ">
<polygon fill="white" stroke="black" points="936.5,-142.5 936.5,-161.5 1070.5,-161.5 1070.5,-142.5 936.5,-142.5"/>
<text text-anchor="middle" x="1003.5" y="-149.5" font-family="Helvetica,sans-Serif" font-size="10.00">SetJoystick::refreshHats</text>
</a>
</g>
</g>
<!-- Node6&#45;&gt;Node7 -->
<g id="edge6" class="edge">
<title>Node6&#45;&gt;Node7</title>
<path fill="none" stroke="midnightblue" d="M1115.79,-152C1100.39,-152 1084.87,-152 1070.5,-152"/>
<polygon fill="midnightblue" stroke="midnightblue" points="1115.88,-155.5 1125.88,-152 1115.88,-148.5 1115.88,-155.5"/>
</g>
<!-- Node8 -->
<g id="node8" class="node">
<title>Node8</title>
<g id="a_node8"><a xlink:href="classSetJoystick.html#adc322b55002b149c9a7432d1008b8537" target="_top" xlink:title="Re&#45;enumerates inputs from the associated device and resets all mappings in this set.">
<polygon fill="white" stroke="black" points="753,-142.5 753,-161.5 854,-161.5 854,-142.5 753,-142.5"/>
<text text-anchor="middle" x="803.5" y="-149.5" font-family="Helvetica,sans-Serif" font-size="10.00">SetJoystick::reset</text>
</a>
</g>
</g>
<!-- Node7&#45;&gt;Node8 -->
<g id="edge7" class="edge">
<title>Node7&#45;&gt;Node8</title>
<path fill="none" stroke="midnightblue" d="M926.07,-152C901.89,-152 875.81,-152 854.03,-152"/>
<polygon fill="midnightblue" stroke="midnightblue" points="926.29,-155.5 936.29,-152 926.29,-148.5 926.29,-155.5"/>
</g>
<!-- Node9 -->
<g id="node9" class="node">
<title>Node9</title>
<g id="a_node9"><a xlink:href="classInputDevice.html#af7b290c37a1bcae1fbd0f0274d6cf646" target="_top" xlink:title=" ">
<polygon fill="white" stroke="black" points="571.5,-186.5 571.5,-205.5 677.5,-205.5 677.5,-186.5 571.5,-186.5"/>
<text text-anchor="middle" x="624.5" y="-193.5" font-family="Helvetica,sans-Serif" font-size="10.00">InputDevice::reset</text>
</a>
</g>
</g>
<!-- Node8&#45;&gt;Node9 -->
<g id="edge8" class="edge">
<title>Node8&#45;&gt;Node9</title>
<path fill="none" stroke="midnightblue" d="M754.35,-163.97C725.9,-171.04 690.37,-179.87 663.83,-186.47"/>
<polygon fill="midnightblue" stroke="midnightblue" points="755.23,-167.36 764.09,-161.55 753.54,-160.56 755.23,-167.36"/>
</g>
<!-- Node17 -->
<g id="node17" class="node">
<title>Node17</title>
<g id="a_node17"><a xlink:href="classGameControllerSet.html#a40b9c9ac22d6fe71c15380dcbca7eb80" target="_top" xlink:title=" ">
<polygon fill="white" stroke="black" points="566.5,-137 566.5,-167 682.5,-167 682.5,-137 566.5,-137"/>
<text text-anchor="start" x="574.5" y="-155" font-family="Helvetica,sans-Serif" font-size="10.00">GameControllerSet::</text>
<text text-anchor="middle" x="624.5" y="-144" font-family="Helvetica,sans-Serif" font-size="10.00">resetSticks</text>
</a>
</g>
</g>
<!-- Node8&#45;&gt;Node17 -->
<g id="edge17" class="edge">
<title>Node8&#45;&gt;Node17</title>
<path fill="none" stroke="midnightblue" d="M742.52,-152C723.19,-152 701.83,-152 682.71,-152"/>
<polygon fill="midnightblue" stroke="midnightblue" points="742.72,-155.5 752.72,-152 742.72,-148.5 742.72,-155.5"/>
</g>
<!-- Node20 -->
<g id="node20" class="node">
<title>Node20</title>
<g id="a_node20"><a xlink:href="classSetJoystick.html#ab9d47383844cb2c08581352a6c02bdab" target="_top" xlink:title=" ">
<polygon fill="white" stroke="black" points="559,-98.5 559,-117.5 690,-117.5 690,-98.5 559,-98.5"/>
<text text-anchor="middle" x="624.5" y="-105.5" font-family="Helvetica,sans-Serif" font-size="10.00">SetJoystick::SetJoystick</text>
</a>
</g>
</g>
<!-- Node8&#45;&gt;Node20 -->
<g id="edge20" class="edge">
<title>Node8&#45;&gt;Node20</title>
<path fill="none" stroke="midnightblue" d="M754.35,-140.03C725.9,-132.96 690.37,-124.13 663.83,-117.53"/>
<polygon fill="midnightblue" stroke="midnightblue" points="753.54,-143.44 764.09,-142.45 755.23,-136.64 753.54,-143.44"/>
</g>
<!-- Node10 -->
<g id="node10" class="node">
<title>Node10</title>
<g id="a_node10"><a xlink:href="classInputDaemon.html#a70fa1dbeac61db6cc29a96cdc57a4518" target="_top" xlink:title=" ">
<polygon fill="white" stroke="black" points="362,-224.5 362,-243.5 523,-243.5 523,-224.5 362,-224.5"/>
<text text-anchor="middle" x="442.5" y="-231.5" font-family="Helvetica,sans-Serif" font-size="10.00">InputDaemon::refreshJoystick</text>
</a>
</g>
</g>
<!-- Node9&#45;&gt;Node10 -->
<g id="edge9" class="edge">
<title>Node9&#45;&gt;Node10</title>
<path fill="none" stroke="midnightblue" d="M568.17,-207.68C542.64,-213.07 512.72,-219.39 488.59,-224.48"/>
<polygon fill="midnightblue" stroke="midnightblue" points="569.02,-211.08 578.08,-205.59 567.57,-204.23 569.02,-211.08"/>
</g>
<!-- Node11 -->
<g id="node11" class="node">
<title>Node11</title>
<g id="a_node11"><a xlink:href="classInputDevice.html#a767b4db5d307c9d851affed3c7e23a30" target="_top" xlink:title="Obtain current joystick element values, create new SetJoystick objects, and then transfer most recent...">
<polygon fill="white" stroke="black" points="369,-186.5 369,-205.5 516,-205.5 516,-186.5 369,-186.5"/>
<text text-anchor="middle" x="442.5" y="-193.5" font-family="Helvetica,sans-Serif" font-size="10.00">InputDevice::transferReset</text>
</a>
</g>
</g>
<!-- Node9&#45;&gt;Node11 -->
<g id="edge10" class="edge">
<title>Node9&#45;&gt;Node11</title>
<path fill="none" stroke="midnightblue" d="M561.1,-196C546.62,-196 531.08,-196 516.2,-196"/>
<polygon fill="midnightblue" stroke="midnightblue" points="561.44,-199.5 571.44,-196 561.44,-192.5 561.44,-199.5"/>
</g>
<!-- Node12 -->
<g id="node12" class="node">
<title>Node12</title>
<g id="a_node12"><a xlink:href="classInputDeviceXml.html#a847bf9ed17b554bf87d513a1aebdcb64" target="_top" xlink:title="Deserializes the given XML stream into an InputDevice object.">
<polygon fill="white" stroke="black" points="173,-246.5 173,-265.5 326,-265.5 326,-246.5 173,-246.5"/>
<text text-anchor="middle" x="249.5" y="-253.5" font-family="Helvetica,sans-Serif" font-size="10.00">InputDeviceXml::readConfig</text>
</a>
</g>
</g>
<!-- Node11&#45;&gt;Node12 -->
<g id="edge11" class="edge">
<title>Node11&#45;&gt;Node12</title>
<path fill="none" stroke="midnightblue" d="M384.68,-208.06C376.99,-210.13 369.25,-212.45 362,-215 345.31,-220.87 342.47,-225.53 326,-232 312.43,-237.33 297.15,-242.36 283.91,-246.43"/>
<polygon fill="midnightblue" stroke="midnightblue" points="385.56,-211.45 394.37,-205.56 383.81,-204.67 385.56,-211.45"/>
</g>
<!-- Node13 -->
<g id="node13" class="node">
<title>Node13</title>
<g id="a_node13"><a xlink:href="classGameControllerXml.html#a7e47256cae0d3815419bc254413777d1" target="_top" xlink:title="Deserializes the given XML stream into a GameController object.">
<polygon fill="white" stroke="black" points="9,-181 9,-211 128,-211 128,-181 9,-181"/>
<text text-anchor="start" x="17" y="-199" font-family="Helvetica,sans-Serif" font-size="10.00">GameControllerXml::</text>
<text text-anchor="middle" x="68.5" y="-188" font-family="Helvetica,sans-Serif" font-size="10.00">readConfig</text>
</a>
</g>
</g>
<!-- Node11&#45;&gt;Node13 -->
<g id="edge12" class="edge">
<title>Node11&#45;&gt;Node13</title>
<path fill="none" stroke="midnightblue" d="M358.75,-198.41C347.74,-198.65 336.6,-198.86 326,-199 258.01,-199.88 240.99,-199.99 173,-199 158.44,-198.79 142.73,-198.41 128.06,-197.99"/>
<polygon fill="midnightblue" stroke="midnightblue" points="358.89,-201.91 368.8,-198.18 358.72,-194.91 358.89,-201.91"/>
</g>
<!-- Node14 -->
<g id="node14" class="node">
<title>Node14</title>
<g id="a_node14"><a xlink:href="classGameControllerXml.html#aaa5257d4c6fe13f1d5fc51981e247c25" target="_top" xlink:title="Reads the XML tree from a &quot;joystick&quot; tag.">
<polygon fill="white" stroke="black" points="190,-159 190,-189 309,-189 309,-159 190,-159"/>
<text text-anchor="start" x="198" y="-177" font-family="Helvetica,sans-Serif" font-size="10.00">GameControllerXml::</text>
<text text-anchor="middle" x="249.5" y="-166" font-family="Helvetica,sans-Serif" font-size="10.00">readJoystickConfig</text>
</a>
</g>
</g>
<!-- Node11&#45;&gt;Node14 -->
<g id="edge13" class="edge">
<title>Node11&#45;&gt;Node14</title>
<path fill="none" stroke="midnightblue" d="M358.48,-186.44C341.85,-184.52 324.71,-182.55 309.12,-180.75"/>
<polygon fill="midnightblue" stroke="midnightblue" points="358.41,-189.95 368.75,-187.62 359.21,-183 358.41,-189.95"/>
</g>
<!-- Node15 -->
<g id="node15" class="node">
<title>Node15</title>
<g id="a_node15"><a xlink:href="classJoyTabWidgetHelper.html#aef94ae0812f28f43eb891ddc210c341e" target="_top" xlink:title=" ">
<polygon fill="white" stroke="black" points="192,-110 192,-140 307,-140 307,-110 192,-110"/>
<text text-anchor="start" x="200" y="-128" font-family="Helvetica,sans-Serif" font-size="10.00">JoyTabWidgetHelper</text>
<text text-anchor="middle" x="249.5" y="-117" font-family="Helvetica,sans-Serif" font-size="10.00">::reInitDevice</text>
</a>
</g>
</g>
<!-- Node11&#45;&gt;Node15 -->
<g id="edge15" class="edge">
<title>Node11&#45;&gt;Node15</title>
<path fill="none" stroke="midnightblue" d="M378.61,-183.54C372.89,-181.64 367.27,-179.47 362,-177 343.9,-168.5 343.72,-159.26 326,-150 318.9,-146.29 311.15,-142.98 303.39,-140.07"/>
<polygon fill="midnightblue" stroke="midnightblue" points="377.71,-186.92 388.29,-186.48 379.74,-180.23 377.71,-186.92"/>
</g>
<!-- Node14&#45;&gt;Node13 -->
<g id="edge14" class="edge">
<title>Node14&#45;&gt;Node13</title>
<path fill="none" stroke="midnightblue" d="M179.51,-182.48C162.59,-184.56 144.63,-186.77 128.24,-188.78"/>
<polygon fill="midnightblue" stroke="midnightblue" points="180.39,-185.9 189.89,-181.2 179.54,-178.95 180.39,-185.9"/>
</g>
<!-- Node16 -->
<g id="node16" class="node">
<title>Node16</title>
<g id="a_node16"><a xlink:href="classJoyTabWidgetHelper.html#acc5d7d51e925f84f9aa2936ce267f843" target="_top" xlink:title=" ">
<polygon fill="white" stroke="black" points="0,-110 0,-140 137,-140 137,-110 0,-110"/>
<text text-anchor="start" x="8" y="-128" font-family="Helvetica,sans-Serif" font-size="10.00">JoyTabWidgetHelper</text>
<text text-anchor="middle" x="68.5" y="-117" font-family="Helvetica,sans-Serif" font-size="10.00">::reInitDeviceWithRevert</text>
</a>
</g>
</g>
<!-- Node15&#45;&gt;Node16 -->
<g id="edge16" class="edge">
<title>Node15&#45;&gt;Node16</title>
<path fill="none" stroke="midnightblue" d="M181.46,-125C166.95,-125 151.58,-125 137.04,-125"/>
<polygon fill="midnightblue" stroke="midnightblue" points="181.86,-128.5 191.86,-125 181.86,-121.5 181.86,-128.5"/>
</g>
<!-- Node18 -->
<g id="node18" class="node">
<title>Node18</title>
<g id="a_node18"><a xlink:href="classGameControllerSet.html#a9d686fa2df459f7d157d60e05707f712" target="_top" xlink:title=" ">
<polygon fill="white" stroke="black" points="384.5,-137 384.5,-167 500.5,-167 500.5,-137 384.5,-137"/>
<text text-anchor="start" x="392.5" y="-155" font-family="Helvetica,sans-Serif" font-size="10.00">GameControllerSet::</text>
<text text-anchor="middle" x="442.5" y="-144" font-family="Helvetica,sans-Serif" font-size="10.00">GameControllerSet</text>
</a>
</g>
</g>
<!-- Node17&#45;&gt;Node18 -->
<g id="edge18" class="edge">
<title>Node17&#45;&gt;Node18</title>
<path fill="none" stroke="midnightblue" d="M555.83,-152C537.68,-152 518.23,-152 500.71,-152"/>
<polygon fill="midnightblue" stroke="midnightblue" points="556.05,-155.5 566.05,-152 556.05,-148.5 556.05,-155.5"/>
</g>
<!-- Node19 -->
<g id="node19" class="node">
<title>Node19</title>
<g id="a_node19"><a xlink:href="classGameControllerSet.html#a69d798af242a07017bc0f2e2d0d8a830" target="_top" xlink:title=" ">
<polygon fill="white" stroke="black" points="384.5,-88 384.5,-118 500.5,-118 500.5,-88 384.5,-88"/>
<text text-anchor="start" x="392.5" y="-106" font-family="Helvetica,sans-Serif" font-size="10.00">GameControllerSet::</text>
<text text-anchor="middle" x="442.5" y="-95" font-family="Helvetica,sans-Serif" font-size="10.00">reset</text>
</a>
</g>
</g>
<!-- Node17&#45;&gt;Node19 -->
<g id="edge19" class="edge">
<title>Node17&#45;&gt;Node19</title>
<path fill="none" stroke="midnightblue" d="M558.3,-134.25C538.79,-128.94 517.6,-123.17 498.79,-118.05"/>
<polygon fill="midnightblue" stroke="midnightblue" points="557.46,-137.65 568.03,-136.9 559.3,-130.89 557.46,-137.65"/>
</g>
<!-- Node21&#45;&gt;Node3 -->
<g id="edge22" class="edge">
<title>Node21&#45;&gt;Node3</title>
<path fill="none" stroke="midnightblue" d="M1352.48,-71.05C1333.23,-74.98 1312.89,-79.14 1294.09,-82.97"/>
<polygon fill="midnightblue" stroke="midnightblue" points="1353.34,-74.45 1362.44,-69.02 1351.94,-67.59 1353.34,-74.45"/>
</g>
<!-- Node21&#45;&gt;Node4 -->
<g id="edge23" class="edge">
<title>Node21&#45;&gt;Node4</title>
<path fill="none" stroke="midnightblue" d="M1342.93,-58.75C1267.9,-62.57 1163.23,-67.91 1090.23,-71.63"/>
<polygon fill="midnightblue" stroke="midnightblue" points="1343.5,-62.22 1353.31,-58.22 1343.15,-55.23 1343.5,-62.22"/>
</g>
<!-- Node23 -->
<g id="node23" class="node">
<title>Node23</title>
<g id="a_node23"><a xlink:href="classInputDaemon.html#a0cf6bcd3287d97d75c32a3921c633a7a" target="_top" xlink:title="Dispatches postprocessed SDL events to the input objects like JoyAxis or JoyButton and activates them...">
<polygon fill="white" stroke="black" points="1134.5,-0.5 1134.5,-19.5 1304.5,-19.5 1304.5,-0.5 1134.5,-0.5"/>
<text text-anchor="middle" x="1219.5" y="-7.5" font-family="Helvetica,sans-Serif" font-size="10.00">InputDaemon::secondInputPass</text>
</a>
</g>
</g>
<!-- Node22&#45;&gt;Node23 -->
<g id="edge25" class="edge">
<title>Node22&#45;&gt;Node23</title>
<path fill="none" stroke="midnightblue" d="M1341.52,-10C1329.26,-10 1316.77,-10 1304.69,-10"/>
<polygon fill="midnightblue" stroke="midnightblue" points="1341.76,-13.5 1351.76,-10 1341.76,-6.5 1341.76,-13.5"/>
</g>
<!-- Node24 -->
<g id="node24" class="node">
<title>Node24</title>
<g id="a_node24"><a xlink:href="classInputDaemon.html#ad7f954b25b67cb5a84fdb1a154282bfd" target="_top" xlink:title=" ">
<polygon fill="white" stroke="black" points="951.5,-0.5 951.5,-19.5 1055.5,-19.5 1055.5,-0.5 951.5,-0.5"/>
<text text-anchor="middle" x="1003.5" y="-7.5" font-family="Helvetica,sans-Serif" font-size="10.00">InputDaemon::run</text>
</a>
</g>
</g>
<!-- Node23&#45;&gt;Node24 -->
<g id="edge26" class="edge">
<title>Node23&#45;&gt;Node24</title>
<path fill="none" stroke="midnightblue" d="M1124.19,-10C1100.63,-10 1076.23,-10 1055.66,-10"/>
<polygon fill="midnightblue" stroke="midnightblue" points="1124.23,-13.5 1134.23,-10 1124.23,-6.5 1124.23,-13.5"/>
</g>
<!-- Node25 -->
<g id="node25" class="node">
<title>Node25</title>
<g id="a_node25"><a xlink:href="classInputDaemon.html#ab7c3d331123e946ed8da490dfee5c265" target="_top" xlink:title=" ">
<polygon fill="white" stroke="black" points="726,-0.5 726,-19.5 881,-19.5 881,-0.5 726,-0.5"/>
<text text-anchor="middle" x="803.5" y="-7.5" font-family="Helvetica,sans-Serif" font-size="10.00">InputDaemon::InputDaemon</text>
</a>
</g>
</g>
<!-- Node24&#45;&gt;Node25 -->
<g id="edge27" class="edge">
<title>Node24&#45;&gt;Node25</title>
<path fill="none" stroke="midnightblue" d="M941,-10C922.11,-10 901.08,-10 881.3,-10"/>
<polygon fill="midnightblue" stroke="midnightblue" points="941.25,-13.5 951.25,-10 941.25,-6.5 941.25,-13.5"/>
</g>
</g>
</svg>
