<?xml version="1.0" encoding="UTF-8" standalone="no"?>
<!DOCTYPE svg PUBLIC "-//W3C//DTD SVG 1.1//EN"
 "http://www.w3.org/Graphics/SVG/1.1/DTD/svg11.dtd">
<!-- Generated by graphviz version 2.43.0 (0)
 -->
<!-- Title: SetJoystick::addControlStick Pages: 1 -->
<svg width="528pt" height="323pt"
 viewBox="0.00 0.00 528.00 322.50" xmlns="http://www.w3.org/2000/svg" xmlns:xlink="http://www.w3.org/1999/xlink">
<g id="graph0" class="graph" transform="scale(1 1) rotate(0) translate(4 318.5)">
<title>SetJoystick::addControlStick</title>
<polygon fill="white" stroke="transparent" points="-4,4 -4,-318.5 524,-318.5 524,4 -4,4"/>
<!-- Node1 -->
<g id="node1" class="node">
<title>Node1</title>
<g id="a_node1"><a xlink:title=" ">
<polygon fill="#bfbfbf" stroke="black" points="0,-153 0,-172 154,-172 154,-153 0,-153"/>
<text text-anchor="middle" x="77" y="-160" font-family="Helvetica,sans-Serif" font-size="10.00">SetJoystick::addControlStick</text>
</a>
</g>
</g>
<!-- Node2 -->
<g id="node2" class="node">
<title>Node2</title>
<g id="a_node2"><a xlink:href="classJoyControlStick.html#a2b073090095e78d41f83f68835412550" target="_top" xlink:title=" ">
<polygon fill="white" stroke="black" points="190,-295 190,-314 340,-314 340,-295 190,-295"/>
<text text-anchor="middle" x="265" y="-302" font-family="Helvetica,sans-Serif" font-size="10.00">JoyControlStick::getButtons</text>
</a>
</g>
</g>
<!-- Node1&#45;&gt;Node2 -->
<g id="edge1" class="edge">
<title>Node1&#45;&gt;Node2</title>
<path fill="none" stroke="midnightblue" d="M83.95,-172.25C98.78,-195.64 139.77,-255.27 190,-285.5 193.64,-287.69 197.54,-289.63 201.56,-291.35"/>
<polygon fill="midnightblue" stroke="midnightblue" points="200.52,-294.7 211.12,-294.97 203,-288.16 200.52,-294.7"/>
</g>
<!-- Node3 -->
<g id="node3" class="node">
<title>Node3</title>
<g id="a_node3"><a xlink:href="classSetJoystick.html#aeb069bf5f9e89bf2fb7dc73d89b5fbbd" target="_top" xlink:title=" ">
<polygon fill="white" stroke="black" points="194,-245.5 194,-275.5 336,-275.5 336,-245.5 194,-245.5"/>
<text text-anchor="start" x="202" y="-263.5" font-family="Helvetica,sans-Serif" font-size="10.00">SetJoystick::propogateSet</text>
<text text-anchor="middle" x="265" y="-252.5" font-family="Helvetica,sans-Serif" font-size="10.00">Change</text>
</a>
</g>
</g>
<!-- Node1&#45;&gt;Node3 -->
<g id="edge2" class="edge">
<title>Node1&#45;&gt;Node3</title>
<path fill="none" stroke="midnightblue" d="M90.1,-172.1C109.96,-187.48 151.15,-217.8 190,-236.5 193.83,-238.35 197.84,-240.1 201.93,-241.76"/>
<polygon fill="midnightblue" stroke="midnightblue" points="200.96,-245.14 211.55,-245.45 203.47,-238.6 200.96,-245.14"/>
</g>
<!-- Node4 -->
<g id="node4" class="node">
<title>Node4</title>
<g id="a_node4"><a xlink:href="classSetJoystick.html#a67ced6595586b28e10149b6e94a8fd5b" target="_top" xlink:title=" ">
<polygon fill="white" stroke="black" points="194,-196.5 194,-226.5 336,-226.5 336,-196.5 194,-196.5"/>
<text text-anchor="start" x="202" y="-214.5" font-family="Helvetica,sans-Serif" font-size="10.00">SetJoystick::propogateSet</text>
<text text-anchor="middle" x="265" y="-203.5" font-family="Helvetica,sans-Serif" font-size="10.00">StickButtonAssociation</text>
</a>
</g>
</g>
<!-- Node1&#45;&gt;Node4 -->
<g id="edge3" class="edge">
<title>Node1&#45;&gt;Node4</title>
<path fill="none" stroke="midnightblue" d="M114.3,-172.06C137.85,-178.27 169.24,-186.54 197.2,-193.9"/>
<polygon fill="midnightblue" stroke="midnightblue" points="196.36,-197.3 206.92,-196.46 198.14,-190.53 196.36,-197.3"/>
</g>
<!-- Node5 -->
<g id="node5" class="node">
<title>Node5</title>
<g id="a_node5"><a xlink:href="classSetJoystick.html#aab253b5aecb108448850005cb2f443c4" target="_top" xlink:title=" ">
<polygon fill="white" stroke="black" points="194,-98.5 194,-128.5 336,-128.5 336,-98.5 194,-98.5"/>
<text text-anchor="start" x="202" y="-116.5" font-family="Helvetica,sans-Serif" font-size="10.00">SetJoystick::propogateSet</text>
<text text-anchor="middle" x="265" y="-105.5" font-family="Helvetica,sans-Serif" font-size="10.00">StickButtonClick</text>
</a>
</g>
</g>
<!-- Node1&#45;&gt;Node5 -->
<g id="edge4" class="edge">
<title>Node1&#45;&gt;Node5</title>
<path fill="none" stroke="midnightblue" d="M114.3,-152.94C137.85,-146.73 169.24,-138.46 197.2,-131.1"/>
<polygon fill="midnightblue" stroke="midnightblue" points="198.14,-134.47 206.92,-128.54 196.36,-127.7 198.14,-134.47"/>
</g>
<!-- Node9 -->
<g id="node9" class="node">
<title>Node9</title>
<g id="a_node9"><a xlink:href="classSetJoystick.html#a6506ecba3209c605da73d86f87a10e2b" target="_top" xlink:title=" ">
<polygon fill="white" stroke="black" points="194,-49.5 194,-79.5 336,-79.5 336,-49.5 194,-49.5"/>
<text text-anchor="start" x="202" y="-67.5" font-family="Helvetica,sans-Serif" font-size="10.00">SetJoystick::propogateSet</text>
<text text-anchor="middle" x="265" y="-56.5" font-family="Helvetica,sans-Serif" font-size="10.00">StickButtonNameChange</text>
</a>
</g>
</g>
<!-- Node1&#45;&gt;Node9 -->
<g id="edge8" class="edge">
<title>Node1&#45;&gt;Node9</title>
<path fill="none" stroke="midnightblue" d="M90.48,-152.85C110.53,-137.7 151.58,-108.14 190,-89.5 194.54,-87.3 199.31,-85.21 204.17,-83.25"/>
<polygon fill="midnightblue" stroke="midnightblue" points="205.48,-86.49 213.56,-79.63 202.97,-79.96 205.48,-86.49"/>
</g>
<!-- Node11 -->
<g id="node11" class="node">
<title>Node11</title>
<g id="a_node11"><a xlink:href="classSetJoystick.html#af29af23160b680dfa735921cc4c6b4de" target="_top" xlink:title=" ">
<polygon fill="white" stroke="black" points="194,-147.5 194,-177.5 336,-177.5 336,-147.5 194,-147.5"/>
<text text-anchor="start" x="202" y="-165.5" font-family="Helvetica,sans-Serif" font-size="10.00">SetJoystick::propogateSet</text>
<text text-anchor="middle" x="265" y="-154.5" font-family="Helvetica,sans-Serif" font-size="10.00">StickButtonRelease</text>
</a>
</g>
</g>
<!-- Node1&#45;&gt;Node11 -->
<g id="edge12" class="edge">
<title>Node1&#45;&gt;Node11</title>
<path fill="none" stroke="midnightblue" d="M154.19,-162.5C163.94,-162.5 173.95,-162.5 183.77,-162.5"/>
<polygon fill="midnightblue" stroke="midnightblue" points="183.91,-166 193.91,-162.5 183.91,-159 183.91,-166"/>
</g>
<!-- Node12 -->
<g id="node12" class="node">
<title>Node12</title>
<g id="a_node12"><a xlink:href="classSetJoystick.html#a56ee7ab2c8907e4b11c44f0db1986e27" target="_top" xlink:title=" ">
<polygon fill="white" stroke="black" points="194,-0.5 194,-30.5 336,-30.5 336,-0.5 194,-0.5"/>
<text text-anchor="start" x="202" y="-18.5" font-family="Helvetica,sans-Serif" font-size="10.00">SetJoystick::propogateSet</text>
<text text-anchor="middle" x="265" y="-7.5" font-family="Helvetica,sans-Serif" font-size="10.00">StickNameChange</text>
</a>
</g>
</g>
<!-- Node1&#45;&gt;Node12 -->
<g id="edge16" class="edge">
<title>Node1&#45;&gt;Node12</title>
<path fill="none" stroke="midnightblue" d="M84.35,-152.73C99.73,-129.83 141.32,-72.18 190,-40.5 193.08,-38.5 196.34,-36.64 199.7,-34.91"/>
<polygon fill="midnightblue" stroke="midnightblue" points="201.21,-38.07 208.79,-30.66 198.25,-31.73 201.21,-38.07"/>
</g>
<!-- Node6 -->
<g id="node6" class="node">
<title>Node6</title>
<g id="a_node6"><a xlink:href="classJoyButton.html#abbccee98e377453167a47b49874eeab7" target="_top" xlink:title=" ">
<polygon fill="white" stroke="black" points="376,-147.5 376,-177.5 520,-177.5 520,-147.5 376,-147.5"/>
<text text-anchor="start" x="384" y="-165.5" font-family="Helvetica,sans-Serif" font-size="10.00">JoyButton::getIgnoreEvent</text>
<text text-anchor="middle" x="448" y="-154.5" font-family="Helvetica,sans-Serif" font-size="10.00">State</text>
</a>
</g>
</g>
<!-- Node5&#45;&gt;Node6 -->
<g id="edge5" class="edge">
<title>Node5&#45;&gt;Node6</title>
<path fill="none" stroke="midnightblue" d="M321.78,-128.6C340.71,-133.73 362.02,-139.5 381.63,-144.8"/>
<polygon fill="midnightblue" stroke="midnightblue" points="380.83,-148.21 391.4,-147.45 382.66,-141.46 380.83,-148.21"/>
</g>
<!-- Node7 -->
<g id="node7" class="node">
<title>Node7</title>
<g id="a_node7"><a xlink:href="classJoyControlStick.html#a2bf34c9768e9975e311a1ea8918468b1" target="_top" xlink:title=" ">
<polygon fill="white" stroke="black" points="378,-60 378,-79 518,-79 518,-60 378,-60"/>
<text text-anchor="middle" x="448" y="-67" font-family="Helvetica,sans-Serif" font-size="10.00">JoyControlStick::getIndex</text>
</a>
</g>
</g>
<!-- Node5&#45;&gt;Node7 -->
<g id="edge6" class="edge">
<title>Node5&#45;&gt;Node7</title>
<path fill="none" stroke="midnightblue" d="M327.78,-98.48C350.68,-92.91 376.32,-86.68 397.93,-81.43"/>
<polygon fill="midnightblue" stroke="midnightblue" points="398.98,-84.78 407.87,-79.01 397.33,-77.97 398.98,-84.78"/>
</g>
<!-- Node8 -->
<g id="node8" class="node">
<title>Node8</title>
<g id="a_node8"><a xlink:href="classJoyControlStickButton.html#a9dc9e9c5b8811ef41a0cde33c5af649e" target="_top" xlink:title=" ">
<polygon fill="white" stroke="black" points="386.5,-98.5 386.5,-128.5 509.5,-128.5 509.5,-98.5 386.5,-98.5"/>
<text text-anchor="start" x="394.5" y="-116.5" font-family="Helvetica,sans-Serif" font-size="10.00">JoyControlStickButton</text>
<text text-anchor="middle" x="448" y="-105.5" font-family="Helvetica,sans-Serif" font-size="10.00">::getStick</text>
</a>
</g>
</g>
<!-- Node5&#45;&gt;Node8 -->
<g id="edge7" class="edge">
<title>Node5&#45;&gt;Node8</title>
<path fill="none" stroke="midnightblue" d="M336.24,-113.5C349.25,-113.5 362.86,-113.5 375.9,-113.5"/>
<polygon fill="midnightblue" stroke="midnightblue" points="376.22,-117 386.22,-113.5 376.22,-110 376.22,-117"/>
</g>
<!-- Node9&#45;&gt;Node7 -->
<g id="edge9" class="edge">
<title>Node9&#45;&gt;Node7</title>
<path fill="none" stroke="midnightblue" d="M336.24,-66.44C346.63,-66.73 357.4,-67.02 367.95,-67.32"/>
<polygon fill="midnightblue" stroke="midnightblue" points="367.9,-70.82 377.99,-67.59 368.09,-63.82 367.9,-70.82"/>
</g>
<!-- Node9&#45;&gt;Node8 -->
<g id="edge11" class="edge">
<title>Node9&#45;&gt;Node8</title>
<path fill="none" stroke="midnightblue" d="M321.78,-79.6C340.71,-84.73 362.02,-90.5 381.63,-95.8"/>
<polygon fill="midnightblue" stroke="midnightblue" points="380.83,-99.21 391.4,-98.45 382.66,-92.46 380.83,-99.21"/>
</g>
<!-- Node10 -->
<g id="node10" class="node">
<title>Node10</title>
<g id="a_node10"><a xlink:href="classJoyButton.html#aa659d5a0860f5047862ca0761d8d775a" target="_top" xlink:title="Get 0 indexed number of SDL button index.">
<polygon fill="white" stroke="black" points="378,-22 378,-41 518,-41 518,-22 378,-22"/>
<text text-anchor="middle" x="448" y="-29" font-family="Helvetica,sans-Serif" font-size="10.00">JoyButton::getJoyNumber</text>
</a>
</g>
</g>
<!-- Node9&#45;&gt;Node10 -->
<g id="edge10" class="edge">
<title>Node9&#45;&gt;Node10</title>
<path fill="none" stroke="midnightblue" d="M336.24,-51.69C352.22,-48.78 369.08,-45.71 384.7,-42.86"/>
<polygon fill="midnightblue" stroke="midnightblue" points="385.55,-46.26 394.76,-41.02 384.3,-39.37 385.55,-46.26"/>
</g>
<!-- Node11&#45;&gt;Node6 -->
<g id="edge13" class="edge">
<title>Node11&#45;&gt;Node6</title>
<path fill="none" stroke="midnightblue" d="M336.24,-162.5C345.9,-162.5 355.89,-162.5 365.73,-162.5"/>
<polygon fill="midnightblue" stroke="midnightblue" points="365.91,-166 375.91,-162.5 365.91,-159 365.91,-166"/>
</g>
<!-- Node11&#45;&gt;Node7 -->
<g id="edge14" class="edge">
<title>Node11&#45;&gt;Node7</title>
<path fill="none" stroke="midnightblue" d="M324.66,-147.36C330.08,-144.83 335.29,-141.9 340,-138.5 361.91,-122.68 353.79,-104.89 376,-89.5 379.55,-87.04 383.4,-84.88 387.41,-82.98"/>
<polygon fill="midnightblue" stroke="midnightblue" points="389.08,-86.08 396.98,-79.02 386.4,-79.61 389.08,-86.08"/>
</g>
<!-- Node11&#45;&gt;Node8 -->
<g id="edge15" class="edge">
<title>Node11&#45;&gt;Node8</title>
<path fill="none" stroke="midnightblue" d="M321.78,-147.4C340.71,-142.27 362.02,-136.5 381.63,-131.2"/>
<polygon fill="midnightblue" stroke="midnightblue" points="382.66,-134.54 391.4,-128.55 380.83,-127.79 382.66,-134.54"/>
</g>
<!-- Node12&#45;&gt;Node7 -->
<g id="edge17" class="edge">
<title>Node12&#45;&gt;Node7</title>
<path fill="none" stroke="midnightblue" d="M311.61,-30.54C331.35,-36.91 354.75,-44.28 376,-50.5 383.84,-52.79 392.19,-55.13 400.31,-57.34"/>
<polygon fill="midnightblue" stroke="midnightblue" points="399.49,-60.74 410.06,-59.96 401.31,-53.98 399.49,-60.74"/>
</g>
</g>
</svg>
