<?xml version="1.0" encoding="UTF-8" standalone="no"?>
<!DOCTYPE svg PUBLIC "-//W3C//DTD SVG 1.1//EN"
 "http://www.w3.org/Graphics/SVG/1.1/DTD/svg11.dtd">
<!-- Generated by graphviz version 2.43.0 (0)
 -->
<!-- Title: JoyButton::getButtonState Pages: 1 -->
<svg width="1249pt" height="1073pt"
 viewBox="0.00 0.00 1249.00 1072.50" xmlns="http://www.w3.org/2000/svg" xmlns:xlink="http://www.w3.org/1999/xlink">
<g id="graph0" class="graph" transform="scale(1 1) rotate(0) translate(4 1068.5)">
<title>JoyButton::getButtonState</title>
<polygon fill="white" stroke="transparent" points="-4,4 -4,-1068.5 1245,-1068.5 1245,4 -4,4"/>
<!-- Node1 -->
<g id="node1" class="node">
<title>Node1</title>
<g id="a_node1"><a xlink:title="Checks if this button is currently active.">
<polygon fill="#bfbfbf" stroke="black" points="1098,-281 1098,-300 1241,-300 1241,-281 1098,-281"/>
<text text-anchor="middle" x="1169.5" y="-288" font-family="Helvetica,sans-Serif" font-size="10.00">JoyButton::getButtonState</text>
</a>
</g>
</g>
<!-- Node2 -->
<g id="node2" class="node">
<title>Node2</title>
<g id="a_node2"><a xlink:href="classJoyDPad.html#a186804e6136416d445240e79c9329284" target="_top" xlink:title=" ">
<polygon fill="white" stroke="black" points="891,-524.5 891,-554.5 1040,-554.5 1040,-524.5 891,-524.5"/>
<text text-anchor="start" x="899" y="-542.5" font-family="Helvetica,sans-Serif" font-size="10.00">JoyDPad::copyLastDistance</text>
<text text-anchor="middle" x="965.5" y="-531.5" font-family="Helvetica,sans-Serif" font-size="10.00">Values</text>
</a>
</g>
</g>
<!-- Node1&#45;&gt;Node2 -->
<g id="edge1" class="edge">
<title>Node1&#45;&gt;Node2</title>
<path fill="none" stroke="midnightblue" d="M1163.63,-310.3C1152.54,-351.45 1121.62,-446.95 1062,-501.5 1051.2,-511.38 1037.53,-518.83 1023.92,-524.39"/>
<polygon fill="midnightblue" stroke="midnightblue" points="1167.07,-310.98 1166.19,-300.42 1160.29,-309.22 1167.07,-310.98"/>
</g>
<!-- Node3 -->
<g id="node3" class="node">
<title>Node3</title>
<g id="a_node3"><a xlink:href="classInputDevice.html#aebcc4b8149c2bab8a0652323206d32bb" target="_top" xlink:title=" ">
<polygon fill="white" stroke="black" points="668,-529.5 668,-559.5 811,-559.5 811,-529.5 668,-529.5"/>
<text text-anchor="start" x="676" y="-547.5" font-family="Helvetica,sans-Serif" font-size="10.00">InputDevice::setActiveSet</text>
<text text-anchor="middle" x="739.5" y="-536.5" font-family="Helvetica,sans-Serif" font-size="10.00">Number</text>
</a>
</g>
</g>
<!-- Node1&#45;&gt;Node3 -->
<g id="edge41" class="edge">
<title>Node1&#45;&gt;Node3</title>
<path fill="none" stroke="midnightblue" d="M1161,-309.8C1146.87,-343.65 1113.03,-413.7 1062,-451.5 1040.81,-467.19 888.06,-507.38 800.95,-529.44"/>
<polygon fill="midnightblue" stroke="midnightblue" points="1164.39,-310.75 1164.9,-300.17 1157.9,-308.13 1164.39,-310.75"/>
</g>
<!-- Node61 -->
<g id="node24" class="node">
<title>Node61</title>
<g id="a_node24"><a xlink:href="classJoyControlStickButton.html#a86579104005fc594de94d9bc126fb4e9" target="_top" xlink:title=" ">
<polygon fill="white" stroke="black" points="869,-373.5 869,-403.5 1062,-403.5 1062,-373.5 869,-373.5"/>
<text text-anchor="start" x="877" y="-391.5" font-family="Helvetica,sans-Serif" font-size="10.00">JoyControlStickButton</text>
<text text-anchor="middle" x="965.5" y="-380.5" font-family="Helvetica,sans-Serif" font-size="10.00">::getCalculatedActiveZoneSummary</text>
</a>
</g>
</g>
<!-- Node1&#45;&gt;Node61 -->
<g id="edge25" class="edge">
<title>Node1&#45;&gt;Node61</title>
<path fill="none" stroke="midnightblue" d="M1149.68,-306.77C1129.34,-323.54 1095.36,-349.33 1062,-364.5 1054.53,-367.9 1046.5,-370.86 1038.39,-373.44"/>
<polygon fill="midnightblue" stroke="midnightblue" points="1152.11,-309.3 1157.52,-300.18 1147.61,-303.94 1152.11,-309.3"/>
</g>
<!-- Node63 -->
<g id="node26" class="node">
<title>Node63</title>
<g id="a_node26"><a xlink:href="classInputDeviceBitArrayStatus.html#a4255eb1af0e32f80549c0f662985d395" target="_top" xlink:title=" ">
<polygon fill="white" stroke="black" points="889.5,-324.5 889.5,-354.5 1041.5,-354.5 1041.5,-324.5 889.5,-324.5"/>
<text text-anchor="start" x="897.5" y="-342.5" font-family="Helvetica,sans-Serif" font-size="10.00">InputDeviceBitArrayStatus</text>
<text text-anchor="middle" x="965.5" y="-331.5" font-family="Helvetica,sans-Serif" font-size="10.00">::InputDeviceBitArrayStatus</text>
</a>
</g>
</g>
<!-- Node1&#45;&gt;Node63 -->
<g id="edge27" class="edge">
<title>Node1&#45;&gt;Node63</title>
<path fill="none" stroke="midnightblue" d="M1119.33,-302.43C1091.98,-309.06 1057.67,-317.39 1028.49,-324.46"/>
<polygon fill="midnightblue" stroke="midnightblue" points="1120.18,-305.82 1129.07,-300.06 1118.53,-299.02 1120.18,-305.82"/>
</g>
<!-- Node64 -->
<g id="node27" class="node">
<title>Node64</title>
<g id="a_node27"><a xlink:href="classSetJoystick.html#a34909d7126daa4494789b77ce86dea27" target="_top" xlink:title=" ">
<polygon fill="white" stroke="black" points="894.5,-226.5 894.5,-256.5 1036.5,-256.5 1036.5,-226.5 894.5,-226.5"/>
<text text-anchor="start" x="902.5" y="-244.5" font-family="Helvetica,sans-Serif" font-size="10.00">SetJoystick::propogateSet</text>
<text text-anchor="middle" x="965.5" y="-233.5" font-family="Helvetica,sans-Serif" font-size="10.00">DPadButtonClick</text>
</a>
</g>
</g>
<!-- Node1&#45;&gt;Node64 -->
<g id="edge28" class="edge">
<title>Node1&#45;&gt;Node64</title>
<path fill="none" stroke="midnightblue" d="M1119.33,-278.57C1091.98,-271.94 1057.67,-263.61 1028.49,-256.54"/>
<polygon fill="midnightblue" stroke="midnightblue" points="1118.53,-281.98 1129.07,-280.94 1120.18,-275.18 1118.53,-281.98"/>
</g>
<!-- Node82 -->
<g id="node36" class="node">
<title>Node82</title>
<g id="a_node36"><a xlink:href="classSetJoystick.html#a979ed0c246f09523b8f4480898148cf6" target="_top" xlink:title=" ">
<polygon fill="white" stroke="black" points="894.5,-275.5 894.5,-305.5 1036.5,-305.5 1036.5,-275.5 894.5,-275.5"/>
<text text-anchor="start" x="902.5" y="-293.5" font-family="Helvetica,sans-Serif" font-size="10.00">SetJoystick::propogateSet</text>
<text text-anchor="middle" x="965.5" y="-282.5" font-family="Helvetica,sans-Serif" font-size="10.00">DPadButtonRelease</text>
</a>
</g>
</g>
<!-- Node1&#45;&gt;Node82 -->
<g id="edge38" class="edge">
<title>Node1&#45;&gt;Node82</title>
<path fill="none" stroke="midnightblue" d="M1087.51,-290.5C1070.71,-290.5 1053.14,-290.5 1036.77,-290.5"/>
<polygon fill="midnightblue" stroke="midnightblue" points="1087.85,-294 1097.85,-290.5 1087.85,-287 1087.85,-294"/>
</g>
<!-- Node77 -->
<g id="node37" class="node">
<title>Node77</title>
<g id="a_node37"><a xlink:href="classInputDevice.html#a767b4db5d307c9d851affed3c7e23a30" target="_top" xlink:title="Obtain current joystick element values, create new SetJoystick objects, and then transfer most recent...">
<polygon fill="white" stroke="black" points="892,-423 892,-442 1039,-442 1039,-423 892,-423"/>
<text text-anchor="middle" x="965.5" y="-430" font-family="Helvetica,sans-Serif" font-size="10.00">InputDevice::transferReset</text>
</a>
</g>
</g>
<!-- Node1&#45;&gt;Node77 -->
<g id="edge42" class="edge">
<title>Node1&#45;&gt;Node77</title>
<path fill="none" stroke="midnightblue" d="M1158,-309.05C1141.4,-336.57 1106.36,-387.7 1062,-413.5 1054.99,-417.58 1047.24,-420.8 1039.3,-423.33"/>
<polygon fill="midnightblue" stroke="midnightblue" points="1161.23,-310.47 1163.27,-300.08 1155.19,-306.93 1161.23,-310.47"/>
</g>
<!-- Node83 -->
<g id="node41" class="node">
<title>Node83</title>
<g id="a_node41"><a xlink:href="classJoyButtonWidget.html#a0267d5a6052af73bc621af6bb25c3341" target="_top" xlink:title=" ">
<polygon fill="white" stroke="black" points="893.5,-150 893.5,-169 1037.5,-169 1037.5,-150 893.5,-150"/>
<text text-anchor="middle" x="965.5" y="-157" font-family="Helvetica,sans-Serif" font-size="10.00">JoyButtonWidget::tryFlash</text>
</a>
</g>
</g>
<!-- Node1&#45;&gt;Node83 -->
<g id="edge48" class="edge">
<title>Node1&#45;&gt;Node83</title>
<path fill="none" stroke="midnightblue" d="M1156.81,-272.49C1139.38,-247.21 1104.07,-201.67 1062,-178.5 1054.45,-174.34 1046.12,-171.08 1037.61,-168.54"/>
<polygon fill="midnightblue" stroke="midnightblue" points="1153.92,-274.47 1162.41,-280.82 1159.73,-270.56 1153.92,-274.47"/>
</g>
<!-- Node87 -->
<g id="node45" class="node">
<title>Node87</title>
<g id="a_node45"><a xlink:href="classJoyAxisWidget.html#a04a32a20c562672fd6a8b9f65bb67bbe" target="_top" xlink:title=" ">
<polygon fill="white" stroke="black" points="899,-188 899,-207 1032,-207 1032,-188 899,-188"/>
<text text-anchor="middle" x="965.5" y="-195" font-family="Helvetica,sans-Serif" font-size="10.00">JoyAxisWidget::tryFlash</text>
</a>
</g>
</g>
<!-- Node1&#45;&gt;Node87 -->
<g id="edge52" class="edge">
<title>Node1&#45;&gt;Node87</title>
<path fill="none" stroke="midnightblue" d="M1149.76,-274.2C1129.49,-257.44 1095.55,-231.83 1062,-217.5 1051.8,-213.14 1040.56,-209.7 1029.49,-207"/>
<polygon fill="midnightblue" stroke="midnightblue" points="1147.66,-277.02 1157.57,-280.78 1152.18,-271.66 1147.66,-277.02"/>
</g>
<!-- Node89 -->
<g id="node47" class="node">
<title>Node89</title>
<g id="a_node47"><a xlink:href="classJoySensorButtonPushButton.html#a22b3a5ef943f7f5b90ccb2258a9dd000" target="_top" xlink:title="Highlights the button when mapped button is active.">
<polygon fill="white" stroke="black" points="889.5,-29.5 889.5,-59.5 1041.5,-59.5 1041.5,-29.5 889.5,-29.5"/>
<text text-anchor="start" x="897.5" y="-47.5" font-family="Helvetica,sans-Serif" font-size="10.00">JoySensorButtonPushButton</text>
<text text-anchor="middle" x="965.5" y="-36.5" font-family="Helvetica,sans-Serif" font-size="10.00">::tryFlash</text>
</a>
</g>
</g>
<!-- Node1&#45;&gt;Node89 -->
<g id="edge55" class="edge">
<title>Node1&#45;&gt;Node89</title>
<path fill="none" stroke="midnightblue" d="M1162.56,-270.9C1149.9,-232.07 1116.88,-144.54 1062,-91.5 1047.65,-77.63 1028.41,-67.1 1010.96,-59.56"/>
<polygon fill="midnightblue" stroke="midnightblue" points="1159.36,-272.41 1165.71,-280.89 1166.04,-270.3 1159.36,-272.41"/>
</g>
<!-- Node91 -->
<g id="node49" class="node">
<title>Node91</title>
<g id="a_node49"><a xlink:href="classJoyControlStickButtonPushButton.html#a8722603699b75b1949fda0b4e9f194d5" target="_top" xlink:title=" ">
<polygon fill="white" stroke="black" points="892.5,-100.5 892.5,-130.5 1038.5,-130.5 1038.5,-100.5 892.5,-100.5"/>
<text text-anchor="start" x="900.5" y="-118.5" font-family="Helvetica,sans-Serif" font-size="10.00">JoyControlStickButtonPush</text>
<text text-anchor="middle" x="965.5" y="-107.5" font-family="Helvetica,sans-Serif" font-size="10.00">Button::tryFlash</text>
</a>
</g>
</g>
<!-- Node1&#45;&gt;Node91 -->
<g id="edge57" class="edge">
<title>Node1&#45;&gt;Node91</title>
<path fill="none" stroke="midnightblue" d="M1160.33,-271.44C1145.56,-239.32 1111.31,-174.58 1062,-140.5 1054.95,-135.63 1047.01,-131.71 1038.8,-128.55"/>
<polygon fill="midnightblue" stroke="midnightblue" points="1157.17,-272.93 1164.44,-280.64 1163.56,-270.08 1157.17,-272.93"/>
</g>
<!-- Node2&#45;&gt;Node3 -->
<g id="edge2" class="edge">
<title>Node2&#45;&gt;Node3</title>
<path fill="none" stroke="midnightblue" d="M880.79,-541.37C857.87,-541.88 833.26,-542.43 811.15,-542.92"/>
<polygon fill="midnightblue" stroke="midnightblue" points="880.92,-544.87 890.84,-541.14 880.77,-537.87 880.92,-544.87"/>
</g>
<!-- Node4 -->
<g id="node4" class="node">
<title>Node4</title>
<g id="a_node4"><a xlink:href="classJoyTabWidget.html#a06a18e39e415313b9ee09c41887890ac" target="_top" xlink:title=" ">
<polygon fill="white" stroke="black" points="427,-836 427,-855 603,-855 603,-836 427,-836"/>
<text text-anchor="middle" x="515" y="-843" font-family="Helvetica,sans-Serif" font-size="10.00">JoyTabWidget::changeCurrentSet</text>
</a>
</g>
</g>
<!-- Node3&#45;&gt;Node4 -->
<g id="edge3" class="edge">
<title>Node3&#45;&gt;Node4</title>
<path fill="none" stroke="midnightblue" d="M720.99,-568.18C675.34,-629.95 554.06,-794.02 523.21,-835.74"/>
<polygon fill="midnightblue" stroke="midnightblue" points="724.03,-569.96 727.16,-559.84 718.4,-565.8 724.03,-569.96"/>
</g>
<!-- Node54 -->
<g id="node17" class="node">
<title>Node54</title>
<g id="a_node17"><a xlink:href="classInputDevice.html#a6ffcebba103a7db02e82c1c7f62387bf" target="_top" xlink:title="Establishes necessary connections for set change slots.">
<polygon fill="white" stroke="black" points="420,-516 420,-535 610,-535 610,-516 420,-516"/>
<text text-anchor="middle" x="515" y="-523" font-family="Helvetica,sans-Serif" font-size="10.00">InputDevice::enableSetConnections</text>
</a>
</g>
</g>
<!-- Node3&#45;&gt;Node54 -->
<g id="edge17" class="edge">
<title>Node3&#45;&gt;Node54</title>
<path fill="none" stroke="midnightblue" d="M657.77,-537.61C642.3,-536.28 625.98,-534.89 610.13,-533.54"/>
<polygon fill="midnightblue" stroke="midnightblue" points="657.53,-541.1 667.79,-538.46 658.13,-534.12 657.53,-541.1"/>
</g>
<!-- Node57 -->
<g id="node20" class="node">
<title>Node57</title>
<g id="a_node20"><a xlink:href="classJoyTabWidgetHelper.html#ae69229b650b5a129cd2ae25d77975d0d" target="_top" xlink:title="XML read entry point for the GUI.">
<polygon fill="white" stroke="black" points="457.5,-554.5 457.5,-584.5 572.5,-584.5 572.5,-554.5 457.5,-554.5"/>
<text text-anchor="start" x="465.5" y="-572.5" font-family="Helvetica,sans-Serif" font-size="10.00">JoyTabWidgetHelper</text>
<text text-anchor="middle" x="515" y="-561.5" font-family="Helvetica,sans-Serif" font-size="10.00">::readConfigFile</text>
</a>
</g>
</g>
<!-- Node3&#45;&gt;Node57 -->
<g id="edge20" class="edge">
<title>Node3&#45;&gt;Node57</title>
<path fill="none" stroke="midnightblue" d="M657.58,-553.59C629.45,-556.75 598.54,-560.23 572.79,-563.12"/>
<polygon fill="midnightblue" stroke="midnightblue" points="658.25,-557.04 667.79,-552.44 657.47,-550.08 658.25,-557.04"/>
</g>
<!-- Node59 -->
<g id="node22" class="node">
<title>Node59</title>
<g id="a_node22"><a xlink:href="classJoyTabWidgetHelper.html#aef94ae0812f28f43eb891ddc210c341e" target="_top" xlink:title=" ">
<polygon fill="white" stroke="black" points="457.5,-447.5 457.5,-477.5 572.5,-477.5 572.5,-447.5 457.5,-447.5"/>
<text text-anchor="start" x="465.5" y="-465.5" font-family="Helvetica,sans-Serif" font-size="10.00">JoyTabWidgetHelper</text>
<text text-anchor="middle" x="515" y="-454.5" font-family="Helvetica,sans-Serif" font-size="10.00">::reInitDevice</text>
</a>
</g>
</g>
<!-- Node3&#45;&gt;Node59 -->
<g id="edge23" class="edge">
<title>Node3&#45;&gt;Node59</title>
<path fill="none" stroke="midnightblue" d="M667.46,-526.46C660.17,-524.27 652.9,-521.93 646,-519.5 611.25,-507.26 572.75,-489.88 546.73,-477.53"/>
<polygon fill="midnightblue" stroke="midnightblue" points="666.82,-529.92 677.4,-529.37 668.79,-523.2 666.82,-529.92"/>
</g>
<!-- Node5 -->
<g id="node5" class="node">
<title>Node5</title>
<g id="a_node5"><a xlink:href="classJoyTabWidget.html#aa56f32a82790b2c20d3d0fac91dc7ba1" target="_top" xlink:title=" ">
<polygon fill="white" stroke="red" points="213,-1045 213,-1064 377,-1064 377,-1045 213,-1045"/>
<text text-anchor="middle" x="295" y="-1052" font-family="Helvetica,sans-Serif" font-size="10.00">JoyTabWidget::changeSetEight</text>
</a>
</g>
</g>
<!-- Node4&#45;&gt;Node5 -->
<g id="edge4" class="edge">
<title>Node4&#45;&gt;Node5</title>
<path fill="none" stroke="midnightblue" d="M506.54,-864.95C490.52,-903.99 448.89,-991.89 384,-1035.5 378.29,-1039.34 371.95,-1042.41 365.35,-1044.88"/>
<polygon fill="midnightblue" stroke="midnightblue" points="509.93,-865.9 510.38,-855.31 503.43,-863.31 509.93,-865.9"/>
</g>
<!-- Node7 -->
<g id="node6" class="node">
<title>Node7</title>
<g id="a_node6"><a xlink:href="classJoyTabWidget.html#a0fa7b289e189af4815aee4038d1a82cf" target="_top" xlink:title=" ">
<polygon fill="white" stroke="red" points="215,-1007 215,-1026 375,-1026 375,-1007 215,-1007"/>
<text text-anchor="middle" x="295" y="-1014" font-family="Helvetica,sans-Serif" font-size="10.00">JoyTabWidget::changeSetFive</text>
</a>
</g>
</g>
<!-- Node4&#45;&gt;Node7 -->
<g id="edge5" class="edge">
<title>Node4&#45;&gt;Node7</title>
<path fill="none" stroke="midnightblue" d="M503.65,-864.16C484.55,-896.76 440.48,-963.8 384,-997.5 377.56,-1001.34 370.44,-1004.41 363.12,-1006.87"/>
<polygon fill="midnightblue" stroke="midnightblue" points="506.84,-865.65 508.77,-855.23 500.76,-862.17 506.84,-865.65"/>
</g>
<!-- Node8 -->
<g id="node7" class="node">
<title>Node8</title>
<g id="a_node7"><a xlink:href="classJoyTabWidget.html#aecac8e959e54cf6c58745e1e4c3cd904" target="_top" xlink:title=" ">
<polygon fill="white" stroke="red" points="214.5,-969 214.5,-988 375.5,-988 375.5,-969 214.5,-969"/>
<text text-anchor="middle" x="295" y="-976" font-family="Helvetica,sans-Serif" font-size="10.00">JoyTabWidget::changeSetFour</text>
</a>
</g>
</g>
<!-- Node4&#45;&gt;Node8 -->
<g id="edge6" class="edge">
<title>Node4&#45;&gt;Node8</title>
<path fill="none" stroke="midnightblue" d="M499.41,-863.01C477.22,-888.41 432.42,-935.13 384,-959.5 376.32,-963.36 367.88,-966.45 359.36,-968.9"/>
<polygon fill="midnightblue" stroke="midnightblue" points="502.19,-865.14 506.04,-855.27 496.87,-860.58 502.19,-865.14"/>
</g>
<!-- Node9 -->
<g id="node8" class="node">
<title>Node9</title>
<g id="a_node8"><a xlink:href="classJoyTabWidget.html#af06455c2dba9c9e2817a23866dfc8405" target="_top" xlink:title=" ">
<polygon fill="white" stroke="red" points="215.5,-931 215.5,-950 374.5,-950 374.5,-931 215.5,-931"/>
<text text-anchor="middle" x="295" y="-938" font-family="Helvetica,sans-Serif" font-size="10.00">JoyTabWidget::changeSetOne</text>
</a>
</g>
</g>
<!-- Node4&#45;&gt;Node9 -->
<g id="edge7" class="edge">
<title>Node4&#45;&gt;Node9</title>
<path fill="none" stroke="midnightblue" d="M492.34,-861.07C467.38,-878.31 424.58,-905.72 384,-921.5 374.24,-925.3 363.56,-928.41 353.11,-930.93"/>
<polygon fill="midnightblue" stroke="midnightblue" points="494.51,-863.83 500.69,-855.23 490.49,-858.1 494.51,-863.83"/>
</g>
<!-- Node10 -->
<g id="node9" class="node">
<title>Node10</title>
<g id="a_node9"><a xlink:href="classJoyTabWidget.html#a6347e978f16ce9bb88d7c6cfb18021a6" target="_top" xlink:title=" ">
<polygon fill="white" stroke="red" points="210,-893 210,-912 380,-912 380,-893 210,-893"/>
<text text-anchor="middle" x="295" y="-900" font-family="Helvetica,sans-Serif" font-size="10.00">JoyTabWidget::changeSetSeven</text>
</a>
</g>
</g>
<!-- Node4&#45;&gt;Node10 -->
<g id="edge8" class="edge">
<title>Node4&#45;&gt;Node10</title>
<path fill="none" stroke="midnightblue" d="M473.98,-858.01C448.37,-865.81 414.38,-875.79 384,-883.5 370.82,-886.84 356.43,-890.11 343.19,-892.96"/>
<polygon fill="midnightblue" stroke="midnightblue" points="475.16,-861.3 483.7,-855.03 473.11,-854.61 475.16,-861.3"/>
</g>
<!-- Node11 -->
<g id="node10" class="node">
<title>Node11</title>
<g id="a_node10"><a xlink:href="classJoyTabWidget.html#a89be025926664e7e539c6bb62615189c" target="_top" xlink:title=" ">
<polygon fill="white" stroke="red" points="217.5,-855 217.5,-874 372.5,-874 372.5,-855 217.5,-855"/>
<text text-anchor="middle" x="295" y="-862" font-family="Helvetica,sans-Serif" font-size="10.00">JoyTabWidget::changeSetSix</text>
</a>
</g>
</g>
<!-- Node4&#45;&gt;Node11 -->
<g id="edge9" class="edge">
<title>Node4&#45;&gt;Node11</title>
<path fill="none" stroke="midnightblue" d="M416.75,-853.98C402.01,-855.26 386.98,-856.57 372.75,-857.81"/>
<polygon fill="midnightblue" stroke="midnightblue" points="417.24,-857.45 426.9,-853.09 416.63,-850.47 417.24,-857.45"/>
</g>
<!-- Node12 -->
<g id="node11" class="node">
<title>Node12</title>
<g id="a_node11"><a xlink:href="classJoyTabWidget.html#a4a0399e1afe09559bf9b28f57eeace5e" target="_top" xlink:title=" ">
<polygon fill="white" stroke="red" points="211.5,-779 211.5,-798 378.5,-798 378.5,-779 211.5,-779"/>
<text text-anchor="middle" x="295" y="-786" font-family="Helvetica,sans-Serif" font-size="10.00">JoyTabWidget::changeSetThree</text>
</a>
</g>
</g>
<!-- Node4&#45;&gt;Node12 -->
<g id="edge10" class="edge">
<title>Node4&#45;&gt;Node12</title>
<path fill="none" stroke="midnightblue" d="M473.98,-832.99C448.37,-825.19 414.38,-815.21 384,-807.5 370.82,-804.16 356.43,-800.89 343.19,-798.04"/>
<polygon fill="midnightblue" stroke="midnightblue" points="473.11,-836.39 483.7,-835.97 475.16,-829.7 473.11,-836.39"/>
</g>
<!-- Node13 -->
<g id="node12" class="node">
<title>Node13</title>
<g id="a_node12"><a xlink:href="classJoyTabWidget.html#a8335fc1b4951f215e5ee2a155a0d5a38" target="_top" xlink:title=" ">
<polygon fill="white" stroke="red" points="216,-741 216,-760 374,-760 374,-741 216,-741"/>
<text text-anchor="middle" x="295" y="-748" font-family="Helvetica,sans-Serif" font-size="10.00">JoyTabWidget::changeSetTwo</text>
</a>
</g>
</g>
<!-- Node4&#45;&gt;Node13 -->
<g id="edge11" class="edge">
<title>Node4&#45;&gt;Node13</title>
<path fill="none" stroke="midnightblue" d="M492.34,-829.93C467.38,-812.69 424.58,-785.28 384,-769.5 374.24,-765.7 363.56,-762.59 353.11,-760.07"/>
<polygon fill="midnightblue" stroke="midnightblue" points="490.49,-832.9 500.69,-835.77 494.51,-827.17 490.49,-832.9"/>
</g>
<!-- Node14 -->
<g id="node13" class="node">
<title>Node14</title>
<g id="a_node13"><a xlink:href="classMainWindow.html#af308553aa8376a9432b47a14c486a771" target="_top" xlink:title=" ">
<polygon fill="white" stroke="red" points="215.5,-691.5 215.5,-721.5 374.5,-721.5 374.5,-691.5 215.5,-691.5"/>
<text text-anchor="start" x="223.5" y="-709.5" font-family="Helvetica,sans-Serif" font-size="10.00">MainWindow::changeStartSet</text>
<text text-anchor="middle" x="295" y="-698.5" font-family="Helvetica,sans-Serif" font-size="10.00">Number</text>
</a>
</g>
</g>
<!-- Node4&#45;&gt;Node14 -->
<g id="edge12" class="edge">
<title>Node4&#45;&gt;Node14</title>
<path fill="none" stroke="midnightblue" d="M499.2,-828.4C476.74,-803.49 431.62,-757.41 384,-731.5 377.02,-727.7 369.42,-724.44 361.69,-721.64"/>
<polygon fill="midnightblue" stroke="midnightblue" points="496.66,-830.81 505.92,-835.97 501.9,-826.16 496.66,-830.81"/>
</g>
<!-- Node17 -->
<g id="node14" class="node">
<title>Node17</title>
<g id="a_node14"><a xlink:href="classJoyTabWidget.html#adb5100f5e8c9d9bad8aea4e9b582b8bd" target="_top" xlink:title="Create and render all push buttons corresponding to joystick controls for all sets.">
<polygon fill="white" stroke="red" points="226,-817 226,-836 364,-836 364,-817 226,-817"/>
<text text-anchor="middle" x="295" y="-824" font-family="Helvetica,sans-Serif" font-size="10.00">JoyTabWidget::fillButtons</text>
</a>
</g>
</g>
<!-- Node4&#45;&gt;Node17 -->
<g id="edge13" class="edge">
<title>Node4&#45;&gt;Node17</title>
<path fill="none" stroke="midnightblue" d="M416.55,-837.01C398.87,-835.47 380.78,-833.89 364.16,-832.44"/>
<polygon fill="midnightblue" stroke="midnightblue" points="416.63,-840.53 426.9,-837.91 417.24,-833.55 416.63,-840.53"/>
</g>
<!-- Node53 -->
<g id="node16" class="node">
<title>Node53</title>
<g id="a_node16"><a xlink:href="classJoyTabWidget.html#a4cc3597f931bb61005ce806bb2fe9c34" target="_top" xlink:title=" ">
<polygon fill="white" stroke="red" points="214,-642.5 214,-672.5 376,-672.5 376,-642.5 214,-642.5"/>
<text text-anchor="start" x="222" y="-660.5" font-family="Helvetica,sans-Serif" font-size="10.00">JoyTabWidget::removeCurrent</text>
<text text-anchor="middle" x="295" y="-649.5" font-family="Helvetica,sans-Serif" font-size="10.00">Buttons</text>
</a>
</g>
</g>
<!-- Node4&#45;&gt;Node53 -->
<g id="edge15" class="edge">
<title>Node4&#45;&gt;Node53</title>
<path fill="none" stroke="midnightblue" d="M504.28,-826.79C485.65,-792.79 441.6,-720.83 384,-682.5 378.18,-678.63 371.76,-675.35 365.13,-672.57"/>
<polygon fill="midnightblue" stroke="midnightblue" points="501.24,-828.52 509.05,-835.68 507.41,-825.21 501.24,-828.52"/>
</g>
<!-- Node18 -->
<g id="node15" class="node">
<title>Node18</title>
<g id="a_node15"><a xlink:href="classJoyTabWidget.html#a47c76ec36601a5965910c3be16b9b1db" target="_top" xlink:title=" ">
<polygon fill="white" stroke="red" points="0,-648 0,-667 170,-667 170,-648 0,-648"/>
<text text-anchor="middle" x="85" y="-655" font-family="Helvetica,sans-Serif" font-size="10.00">JoyTabWidget::changeJoyConfig</text>
</a>
</g>
</g>
<!-- Node17&#45;&gt;Node18 -->
<g id="edge14" class="edge">
<title>Node17&#45;&gt;Node18</title>
<path fill="none" stroke="midnightblue" d="M216.78,-813.17C213.03,-811.5 209.42,-809.61 206,-807.5 146.74,-770.81 104.26,-694.05 90.66,-667.1"/>
<polygon fill="midnightblue" stroke="midnightblue" points="215.71,-816.51 226.3,-816.92 218.28,-810 215.71,-816.51"/>
</g>
<!-- Node53&#45;&gt;Node18 -->
<g id="edge16" class="edge">
<title>Node53&#45;&gt;Node18</title>
<path fill="none" stroke="midnightblue" d="M203.73,-657.5C192.6,-657.5 181.25,-657.5 170.22,-657.5"/>
<polygon fill="midnightblue" stroke="midnightblue" points="203.88,-661 213.88,-657.5 203.88,-654 203.88,-661"/>
</g>
<!-- Node55 -->
<g id="node18" class="node">
<title>Node55</title>
<g id="a_node18"><a xlink:href="classGameController.html#afcddb9dcc5442a9746c3ff8760ea1791" target="_top" xlink:title=" ">
<polygon fill="white" stroke="black" points="206.5,-478 206.5,-497 383.5,-497 383.5,-478 206.5,-478"/>
<text text-anchor="middle" x="295" y="-485" font-family="Helvetica,sans-Serif" font-size="10.00">GameController::GameController</text>
</a>
</g>
</g>
<!-- Node54&#45;&gt;Node55 -->
<g id="edge18" class="edge">
<title>Node54&#45;&gt;Node55</title>
<path fill="none" stroke="midnightblue" d="M449.31,-514.22C417.95,-508.76 380.69,-502.26 350.75,-497.04"/>
<polygon fill="midnightblue" stroke="midnightblue" points="448.82,-517.69 459.27,-515.96 450.02,-510.79 448.82,-517.69"/>
</g>
<!-- Node56 -->
<g id="node19" class="node">
<title>Node56</title>
<g id="a_node19"><a xlink:href="classJoystick.html#a9df5e53506876f3c95e84bdf6c9cbaf1" target="_top" xlink:title=" ">
<polygon fill="white" stroke="black" points="245.5,-516 245.5,-535 344.5,-535 344.5,-516 245.5,-516"/>
<text text-anchor="middle" x="295" y="-523" font-family="Helvetica,sans-Serif" font-size="10.00">Joystick::Joystick</text>
</a>
</g>
</g>
<!-- Node54&#45;&gt;Node56 -->
<g id="edge19" class="edge">
<title>Node54&#45;&gt;Node56</title>
<path fill="none" stroke="midnightblue" d="M409.9,-525.5C387.14,-525.5 364.09,-525.5 344.75,-525.5"/>
<polygon fill="midnightblue" stroke="midnightblue" points="409.97,-529 419.97,-525.5 409.97,-522 409.97,-529"/>
</g>
<!-- Node57&#45;&gt;Node18 -->
<g id="edge21" class="edge">
<title>Node57&#45;&gt;Node18</title>
<path fill="none" stroke="midnightblue" d="M447.33,-583.21C359.76,-601.21 208.22,-632.37 132.24,-647.99"/>
<polygon fill="midnightblue" stroke="midnightblue" points="448.07,-586.63 457.16,-581.19 446.66,-579.77 448.07,-586.63"/>
</g>
<!-- Node58 -->
<g id="node21" class="node">
<title>Node58</title>
<g id="a_node21"><a xlink:href="classJoyTabWidgetHelper.html#aab77bfeea124b5610b21540c5c95e681" target="_top" xlink:title=" ">
<polygon fill="white" stroke="black" points="221.5,-554.5 221.5,-584.5 368.5,-584.5 368.5,-554.5 221.5,-554.5"/>
<text text-anchor="start" x="229.5" y="-572.5" font-family="Helvetica,sans-Serif" font-size="10.00">JoyTabWidgetHelper</text>
<text text-anchor="middle" x="295" y="-561.5" font-family="Helvetica,sans-Serif" font-size="10.00">::readConfigFileWithRevert</text>
</a>
</g>
</g>
<!-- Node57&#45;&gt;Node58 -->
<g id="edge22" class="edge">
<title>Node57&#45;&gt;Node58</title>
<path fill="none" stroke="midnightblue" d="M447.25,-569.5C422.45,-569.5 394.2,-569.5 368.88,-569.5"/>
<polygon fill="midnightblue" stroke="midnightblue" points="447.29,-573 457.29,-569.5 447.29,-566 447.29,-573"/>
</g>
<!-- Node60 -->
<g id="node23" class="node">
<title>Node60</title>
<g id="a_node23"><a xlink:href="classJoyTabWidgetHelper.html#acc5d7d51e925f84f9aa2936ce267f843" target="_top" xlink:title=" ">
<polygon fill="white" stroke="black" points="226.5,-428.5 226.5,-458.5 363.5,-458.5 363.5,-428.5 226.5,-428.5"/>
<text text-anchor="start" x="234.5" y="-446.5" font-family="Helvetica,sans-Serif" font-size="10.00">JoyTabWidgetHelper</text>
<text text-anchor="middle" x="295" y="-435.5" font-family="Helvetica,sans-Serif" font-size="10.00">::reInitDeviceWithRevert</text>
</a>
</g>
</g>
<!-- Node59&#45;&gt;Node60 -->
<g id="edge24" class="edge">
<title>Node59&#45;&gt;Node60</title>
<path fill="none" stroke="midnightblue" d="M446.98,-456.66C420.53,-454.35 390.19,-451.71 363.67,-449.4"/>
<polygon fill="midnightblue" stroke="midnightblue" points="447.03,-460.18 457.29,-457.56 447.63,-453.2 447.03,-460.18"/>
</g>
<!-- Node62 -->
<g id="node25" class="node">
<title>Node62</title>
<g id="a_node25"><a xlink:href="classJoyControlStickButtonPushButton.html#a5f99e1a540217bddf417c2e993c19aa4" target="_top" xlink:title="Generate the string that will be displayed on the button.">
<polygon fill="white" stroke="black" points="666.5,-315.5 666.5,-345.5 812.5,-345.5 812.5,-315.5 666.5,-315.5"/>
<text text-anchor="start" x="674.5" y="-333.5" font-family="Helvetica,sans-Serif" font-size="10.00">JoyControlStickButtonPush</text>
<text text-anchor="middle" x="739.5" y="-322.5" font-family="Helvetica,sans-Serif" font-size="10.00">Button::generateLabel</text>
</a>
</g>
</g>
<!-- Node61&#45;&gt;Node62 -->
<g id="edge26" class="edge">
<title>Node61&#45;&gt;Node62</title>
<path fill="none" stroke="midnightblue" d="M894.19,-370.94C885.7,-368.78 877.15,-366.6 869,-364.5 845.31,-358.39 819.21,-351.51 796.76,-345.55"/>
<polygon fill="midnightblue" stroke="midnightblue" points="893.55,-374.38 904.1,-373.44 895.27,-367.6 893.55,-374.38"/>
</g>
<!-- Node65 -->
<g id="node28" class="node">
<title>Node65</title>
<g id="a_node28"><a xlink:href="classSetJoystick.html#a5d361ae7d236016146559f96be00685b" target="_top" xlink:title=" ">
<polygon fill="white" stroke="black" points="676.5,-277 676.5,-296 802.5,-296 802.5,-277 676.5,-277"/>
<text text-anchor="middle" x="739.5" y="-284" font-family="Helvetica,sans-Serif" font-size="10.00">SetJoystick::addVDPad</text>
</a>
</g>
</g>
<!-- Node64&#45;&gt;Node65 -->
<g id="edge29" class="edge">
<title>Node64&#45;&gt;Node65</title>
<path fill="none" stroke="midnightblue" d="M884.35,-257.6C852.02,-264.1 815.84,-271.36 787.85,-276.99"/>
<polygon fill="midnightblue" stroke="midnightblue" points="885.12,-261.02 894.24,-255.61 883.75,-254.15 885.12,-261.02"/>
</g>
<!-- Node72 -->
<g id="node33" class="node">
<title>Node72</title>
<g id="a_node33"><a xlink:href="classSetJoystick.html#a8d5292e67292aa93b73ecbef256b2825" target="_top" xlink:title=" ">
<polygon fill="white" stroke="black" points="646,-236 646,-255 833,-255 833,-236 646,-236"/>
<text text-anchor="middle" x="739.5" y="-243" font-family="Helvetica,sans-Serif" font-size="10.00">SetJoystick::enableHatConnections</text>
</a>
</g>
</g>
<!-- Node64&#45;&gt;Node72 -->
<g id="edge34" class="edge">
<title>Node64&#45;&gt;Node72</title>
<path fill="none" stroke="midnightblue" d="M884.09,-242.94C867.56,-243.23 850.04,-243.54 833.12,-243.85"/>
<polygon fill="midnightblue" stroke="midnightblue" points="884.3,-246.43 894.24,-242.75 884.18,-239.43 884.3,-246.43"/>
</g>
<!-- Node66 -->
<g id="node29" class="node">
<title>Node66</title>
<g id="a_node29"><a xlink:href="classAdvanceStickAssignmentDialog.html#af9a53f130a627d0e5973bed035907801" target="_top" xlink:title=" ">
<polygon fill="white" stroke="black" points="429,-271.5 429,-301.5 601,-301.5 601,-271.5 429,-271.5"/>
<text text-anchor="start" x="437" y="-289.5" font-family="Helvetica,sans-Serif" font-size="10.00">AdvanceStickAssignmentDialog</text>
<text text-anchor="middle" x="515" y="-278.5" font-family="Helvetica,sans-Serif" font-size="10.00">::changeStateVDPadWidgets</text>
</a>
</g>
</g>
<!-- Node65&#45;&gt;Node66 -->
<g id="edge30" class="edge">
<title>Node65&#45;&gt;Node66</title>
<path fill="none" stroke="midnightblue" d="M666.21,-286.5C645.44,-286.5 622.6,-286.5 601.14,-286.5"/>
<polygon fill="midnightblue" stroke="midnightblue" points="666.23,-290 676.23,-286.5 666.23,-283 666.23,-290"/>
</g>
<!-- Node68 -->
<g id="node31" class="node">
<title>Node68</title>
<g id="a_node31"><a xlink:href="classGameControllerSet.html#afbbd676e52346412a864cdd084b5c9ce" target="_top" xlink:title=" ">
<polygon fill="white" stroke="black" points="457,-320.5 457,-350.5 573,-350.5 573,-320.5 457,-320.5"/>
<text text-anchor="start" x="465" y="-338.5" font-family="Helvetica,sans-Serif" font-size="10.00">GameControllerSet::</text>
<text text-anchor="middle" x="515" y="-327.5" font-family="Helvetica,sans-Serif" font-size="10.00">populateSticksDPad</text>
</a>
</g>
</g>
<!-- Node65&#45;&gt;Node68 -->
<g id="edge32" class="edge">
<title>Node65&#45;&gt;Node68</title>
<path fill="none" stroke="midnightblue" d="M684.36,-298.14C671.76,-300.87 658.41,-303.77 646,-306.5 622.17,-311.73 595.91,-317.58 573.26,-322.64"/>
<polygon fill="midnightblue" stroke="midnightblue" points="685.22,-301.54 694.26,-296 683.75,-294.7 685.22,-301.54"/>
</g>
<!-- Node67 -->
<g id="node30" class="node">
<title>Node67</title>
<g id="a_node30"><a xlink:href="classAdvanceStickAssignmentDialog.html#a86cf0001cd774ce5ccec8543b7a9a50b" target="_top" xlink:title=" ">
<polygon fill="white" stroke="black" points="206,-271.5 206,-301.5 384,-301.5 384,-271.5 206,-271.5"/>
<text text-anchor="start" x="214" y="-289.5" font-family="Helvetica,sans-Serif" font-size="10.00">AdvanceStickAssignmentDialog</text>
<text text-anchor="middle" x="295" y="-278.5" font-family="Helvetica,sans-Serif" font-size="10.00">::AdvanceStickAssignmentDialog</text>
</a>
</g>
</g>
<!-- Node66&#45;&gt;Node67 -->
<g id="edge31" class="edge">
<title>Node66&#45;&gt;Node67</title>
<path fill="none" stroke="midnightblue" d="M418.72,-286.5C407.19,-286.5 395.45,-286.5 384.04,-286.5"/>
<polygon fill="midnightblue" stroke="midnightblue" points="418.78,-290 428.78,-286.5 418.78,-283 418.78,-290"/>
</g>
<!-- Node69 -->
<g id="node32" class="node">
<title>Node69</title>
<g id="a_node32"><a xlink:href="classGameControllerSet.html#a40b9c9ac22d6fe71c15380dcbca7eb80" target="_top" xlink:title=" ">
<polygon fill="white" stroke="red" points="27,-272.5 27,-302.5 143,-302.5 143,-272.5 27,-272.5"/>
<text text-anchor="start" x="35" y="-290.5" font-family="Helvetica,sans-Serif" font-size="10.00">GameControllerSet::</text>
<text text-anchor="middle" x="85" y="-279.5" font-family="Helvetica,sans-Serif" font-size="10.00">resetSticks</text>
</a>
</g>
</g>
<!-- Node68&#45;&gt;Node69 -->
<g id="edge33" class="edge">
<title>Node68&#45;&gt;Node69</title>
<path fill="none" stroke="midnightblue" d="M446.6,-332.57C384.03,-329.3 288.41,-322.91 206,-311.5 185.38,-308.64 162.96,-304.46 143.14,-300.38"/>
<polygon fill="midnightblue" stroke="midnightblue" points="446.56,-336.07 456.73,-333.09 446.92,-329.08 446.56,-336.07"/>
</g>
<!-- Node73 -->
<g id="node34" class="node">
<title>Node73</title>
<g id="a_node34"><a xlink:href="classSetJoystick.html#ae948ac81f57e1ae1e3e43cc704fd8c2b" target="_top" xlink:title=" ">
<polygon fill="white" stroke="black" points="448,-233 448,-252 582,-252 582,-233 448,-233"/>
<text text-anchor="middle" x="515" y="-240" font-family="Helvetica,sans-Serif" font-size="10.00">SetJoystick::refreshHats</text>
</a>
</g>
</g>
<!-- Node72&#45;&gt;Node73 -->
<g id="edge35" class="edge">
<title>Node72&#45;&gt;Node73</title>
<path fill="none" stroke="midnightblue" d="M635.69,-244.11C617.5,-243.87 599.01,-243.62 582.18,-243.39"/>
<polygon fill="midnightblue" stroke="midnightblue" points="635.7,-247.61 645.75,-244.25 635.8,-240.61 635.7,-247.61"/>
</g>
<!-- Node74 -->
<g id="node35" class="node">
<title>Node74</title>
<g id="a_node35"><a xlink:href="classSetJoystick.html#adc322b55002b149c9a7432d1008b8537" target="_top" xlink:title="Re&#45;enumerates inputs from the associated device and resets all mappings in this set.">
<polygon fill="white" stroke="red" points="244.5,-233 244.5,-252 345.5,-252 345.5,-233 244.5,-233"/>
<text text-anchor="middle" x="295" y="-240" font-family="Helvetica,sans-Serif" font-size="10.00">SetJoystick::reset</text>
</a>
</g>
</g>
<!-- Node73&#45;&gt;Node74 -->
<g id="edge36" class="edge">
<title>Node73&#45;&gt;Node74</title>
<path fill="none" stroke="midnightblue" d="M437.53,-242.5C407.06,-242.5 372.86,-242.5 345.71,-242.5"/>
<polygon fill="midnightblue" stroke="midnightblue" points="437.7,-246 447.7,-242.5 437.7,-239 437.7,-246"/>
</g>
<!-- Node74&#45;&gt;Node69 -->
<g id="edge37" class="edge">
<title>Node74&#45;&gt;Node69</title>
<path fill="none" stroke="midnightblue" d="M240.09,-254.16C210.32,-260.6 173.36,-268.6 143.1,-275.15"/>
<polygon fill="midnightblue" stroke="midnightblue" points="240.85,-257.58 249.89,-252.04 239.37,-250.74 240.85,-257.58"/>
</g>
<!-- Node82&#45;&gt;Node65 -->
<g id="edge39" class="edge">
<title>Node82&#45;&gt;Node65</title>
<path fill="none" stroke="midnightblue" d="M884.1,-289.06C857.26,-288.58 827.78,-288.06 802.56,-287.61"/>
<polygon fill="midnightblue" stroke="midnightblue" points="884.18,-292.57 894.24,-289.25 884.3,-285.57 884.18,-292.57"/>
</g>
<!-- Node82&#45;&gt;Node72 -->
<g id="edge40" class="edge">
<title>Node82&#45;&gt;Node72</title>
<path fill="none" stroke="midnightblue" d="M884.35,-274.4C852.02,-267.9 815.84,-260.64 787.85,-255.01"/>
<polygon fill="midnightblue" stroke="midnightblue" points="883.75,-277.85 894.24,-276.39 885.12,-270.98 883.75,-277.85"/>
</g>
<!-- Node77&#45;&gt;Node59 -->
<g id="edge47" class="edge">
<title>Node77&#45;&gt;Node59</title>
<path fill="none" stroke="midnightblue" d="M881.85,-439.71C865.66,-441.04 848.8,-442.37 833,-443.5 741.99,-450.03 636.16,-456.06 572.72,-459.5"/>
<polygon fill="midnightblue" stroke="midnightblue" points="882.16,-443.2 891.83,-438.89 881.58,-436.22 882.16,-443.2"/>
</g>
<!-- Node78 -->
<g id="node38" class="node">
<title>Node78</title>
<g id="a_node38"><a xlink:href="classInputDeviceXml.html#a847bf9ed17b554bf87d513a1aebdcb64" target="_top" xlink:title="Deserializes the given XML stream into an InputDevice object.">
<polygon fill="white" stroke="black" points="663,-491 663,-510 816,-510 816,-491 663,-491"/>
<text text-anchor="middle" x="739.5" y="-498" font-family="Helvetica,sans-Serif" font-size="10.00">InputDeviceXml::readConfig</text>
</a>
</g>
</g>
<!-- Node77&#45;&gt;Node78 -->
<g id="edge43" class="edge">
<title>Node77&#45;&gt;Node78</title>
<path fill="none" stroke="midnightblue" d="M928.18,-445.4C901.89,-454.56 865.44,-466.88 833,-476.5 815.66,-481.64 796.32,-486.76 779.82,-490.94"/>
<polygon fill="midnightblue" stroke="midnightblue" points="929.44,-448.67 937.72,-442.06 927.13,-442.06 929.44,-448.67"/>
</g>
<!-- Node79 -->
<g id="node39" class="node">
<title>Node79</title>
<g id="a_node39"><a xlink:href="classGameControllerXml.html#a7e47256cae0d3815419bc254413777d1" target="_top" xlink:title="Deserializes the given XML stream into a GameController object.">
<polygon fill="white" stroke="black" points="455.5,-383.5 455.5,-413.5 574.5,-413.5 574.5,-383.5 455.5,-383.5"/>
<text text-anchor="start" x="463.5" y="-401.5" font-family="Helvetica,sans-Serif" font-size="10.00">GameControllerXml::</text>
<text text-anchor="middle" x="515" y="-390.5" font-family="Helvetica,sans-Serif" font-size="10.00">readConfig</text>
</a>
</g>
</g>
<!-- Node77&#45;&gt;Node79 -->
<g id="edge44" class="edge">
<title>Node77&#45;&gt;Node79</title>
<path fill="none" stroke="midnightblue" d="M892.95,-420.63C884.78,-418.58 876.65,-416.21 869,-413.5 851.95,-407.45 850.56,-398.85 833,-394.5 752.33,-374.52 729.1,-393.22 646,-394.5 622.63,-394.86 596.91,-395.58 574.56,-396.32"/>
<polygon fill="midnightblue" stroke="midnightblue" points="892.37,-424.09 902.91,-422.97 893.98,-417.27 892.37,-424.09"/>
</g>
<!-- Node80 -->
<g id="node40" class="node">
<title>Node80</title>
<g id="a_node40"><a xlink:href="classGameControllerXml.html#aaa5257d4c6fe13f1d5fc51981e247c25" target="_top" xlink:title="Reads the XML tree from a &quot;joystick&quot; tag.">
<polygon fill="white" stroke="black" points="680,-403.5 680,-433.5 799,-433.5 799,-403.5 680,-403.5"/>
<text text-anchor="start" x="688" y="-421.5" font-family="Helvetica,sans-Serif" font-size="10.00">GameControllerXml::</text>
<text text-anchor="middle" x="739.5" y="-410.5" font-family="Helvetica,sans-Serif" font-size="10.00">readJoystickConfig</text>
</a>
</g>
</g>
<!-- Node77&#45;&gt;Node80 -->
<g id="edge45" class="edge">
<title>Node77&#45;&gt;Node80</title>
<path fill="none" stroke="midnightblue" d="M881.78,-427.33C854.31,-425.61 824.32,-423.74 799.06,-422.16"/>
<polygon fill="midnightblue" stroke="midnightblue" points="881.57,-430.82 891.77,-427.95 882.01,-423.84 881.57,-430.82"/>
</g>
<!-- Node80&#45;&gt;Node79 -->
<g id="edge46" class="edge">
<title>Node80&#45;&gt;Node79</title>
<path fill="none" stroke="midnightblue" d="M669.64,-412.31C639.22,-409.58 603.84,-406.4 574.69,-403.78"/>
<polygon fill="midnightblue" stroke="midnightblue" points="669.48,-415.81 679.75,-413.22 670.1,-408.84 669.48,-415.81"/>
</g>
<!-- Node84 -->
<g id="node42" class="node">
<title>Node84</title>
<g id="a_node42"><a xlink:href="classMainWindow.html#a435b6567cdb461077fee16ac1d23523c" target="_top" xlink:title=" ">
<polygon fill="white" stroke="black" points="649.5,-110 649.5,-129 829.5,-129 829.5,-110 649.5,-110"/>
<text text-anchor="middle" x="739.5" y="-117" font-family="Helvetica,sans-Serif" font-size="10.00">MainWindow::enableFlashActions</text>
</a>
</g>
</g>
<!-- Node83&#45;&gt;Node84 -->
<g id="edge49" class="edge">
<title>Node83&#45;&gt;Node84</title>
<path fill="none" stroke="midnightblue" d="M900.89,-148.14C867.08,-142.1 825.98,-134.76 793.85,-129.03"/>
<polygon fill="midnightblue" stroke="midnightblue" points="900.67,-151.66 911.13,-149.97 901.9,-144.77 900.67,-151.66"/>
</g>
<!-- Node86 -->
<g id="node44" class="node">
<title>Node86</title>
<g id="a_node44"><a xlink:href="classJoyButtonWidget.html#aeeb6cb187733cbf7c9f1c5a0fe8f7b34" target="_top" xlink:title=" ">
<polygon fill="white" stroke="black" points="663.5,-148.5 663.5,-178.5 815.5,-178.5 815.5,-148.5 663.5,-148.5"/>
<text text-anchor="start" x="671.5" y="-166.5" font-family="Helvetica,sans-Serif" font-size="10.00">JoyButtonWidget::JoyButton</text>
<text text-anchor="middle" x="739.5" y="-155.5" font-family="Helvetica,sans-Serif" font-size="10.00">Widget</text>
</a>
</g>
</g>
<!-- Node83&#45;&gt;Node86 -->
<g id="edge51" class="edge">
<title>Node83&#45;&gt;Node86</title>
<path fill="none" stroke="midnightblue" d="M883.32,-160.95C861.26,-161.34 837.47,-161.77 815.75,-162.16"/>
<polygon fill="midnightblue" stroke="midnightblue" points="883.38,-164.45 893.32,-160.77 883.26,-157.45 883.38,-164.45"/>
</g>
<!-- Node85 -->
<g id="node43" class="node">
<title>Node85</title>
<g id="a_node43"><a xlink:href="classMainWindow.html#a3dfe834b2836b316908ace3f38c06db2" target="_top" xlink:title=" ">
<polygon fill="white" stroke="black" points="446,-110 446,-129 584,-129 584,-110 446,-110"/>
<text text-anchor="middle" x="515" y="-117" font-family="Helvetica,sans-Serif" font-size="10.00">MainWindow::showEvent</text>
</a>
</g>
</g>
<!-- Node84&#45;&gt;Node85 -->
<g id="edge50" class="edge">
<title>Node84&#45;&gt;Node85</title>
<path fill="none" stroke="midnightblue" d="M639.07,-119.5C620.57,-119.5 601.64,-119.5 584.34,-119.5"/>
<polygon fill="midnightblue" stroke="midnightblue" points="639.28,-123 649.28,-119.5 639.28,-116 639.28,-123"/>
</g>
<!-- Node87&#45;&gt;Node84 -->
<g id="edge53" class="edge">
<title>Node87&#45;&gt;Node84</title>
<path fill="none" stroke="midnightblue" d="M889.16,-187.25C882.13,-184.9 875.29,-182.02 869,-178.5 848.42,-166.97 853.48,-151.2 833,-139.5 825.44,-135.18 817.04,-131.79 808.49,-129.13"/>
<polygon fill="midnightblue" stroke="midnightblue" points="888.26,-190.63 898.84,-190.13 890.26,-183.92 888.26,-190.63"/>
</g>
<!-- Node88 -->
<g id="node46" class="node">
<title>Node88</title>
<g id="a_node46"><a xlink:href="classJoyAxisWidget.html#af03b84951f7731c7e4a773d66c6fe414" target="_top" xlink:title=" ">
<polygon fill="white" stroke="black" points="657.5,-198 657.5,-217 821.5,-217 821.5,-198 657.5,-198"/>
<text text-anchor="middle" x="739.5" y="-205" font-family="Helvetica,sans-Serif" font-size="10.00">JoyAxisWidget::JoyAxisWidget</text>
</a>
</g>
</g>
<!-- Node87&#45;&gt;Node88 -->
<g id="edge54" class="edge">
<title>Node87&#45;&gt;Node88</title>
<path fill="none" stroke="midnightblue" d="M888.72,-200.88C867.15,-201.85 843.58,-202.9 821.7,-203.88"/>
<polygon fill="midnightblue" stroke="midnightblue" points="888.97,-204.38 898.81,-200.43 888.66,-197.38 888.97,-204.38"/>
</g>
<!-- Node90 -->
<g id="node48" class="node">
<title>Node90</title>
<g id="a_node48"><a xlink:href="classJoySensorButtonPushButton.html#a25a8a13e559cc9b5c37ea0049224cf94" target="_top" xlink:title=" ">
<polygon fill="white" stroke="black" points="660.5,-0.5 660.5,-30.5 818.5,-30.5 818.5,-0.5 660.5,-0.5"/>
<text text-anchor="start" x="668.5" y="-18.5" font-family="Helvetica,sans-Serif" font-size="10.00">JoySensorButtonPushButton</text>
<text text-anchor="middle" x="739.5" y="-7.5" font-family="Helvetica,sans-Serif" font-size="10.00">::JoySensorButtonPushButton</text>
</a>
</g>
</g>
<!-- Node89&#45;&gt;Node90 -->
<g id="edge56" class="edge">
<title>Node89&#45;&gt;Node90</title>
<path fill="none" stroke="midnightblue" d="M879.29,-33.47C859.35,-30.89 838.19,-28.15 818.58,-25.61"/>
<polygon fill="midnightblue" stroke="midnightblue" points="878.92,-36.95 889.29,-34.76 879.82,-30.01 878.92,-36.95"/>
</g>
<!-- Node91&#45;&gt;Node84 -->
<g id="edge58" class="edge">
<title>Node91&#45;&gt;Node84</title>
<path fill="none" stroke="midnightblue" d="M881.95,-116.97C864.95,-117.28 846.97,-117.6 829.74,-117.91"/>
<polygon fill="midnightblue" stroke="midnightblue" points="882.46,-120.47 892.39,-116.79 882.33,-113.47 882.46,-120.47"/>
</g>
<!-- Node92 -->
<g id="node50" class="node">
<title>Node92</title>
<g id="a_node50"><a xlink:href="classJoyControlStickButtonPushButton.html#a5542b1bc905c0a35639b4731083852fa" target="_top" xlink:title=" ">
<polygon fill="white" stroke="black" points="647,-50 647,-91 832,-91 832,-50 647,-50"/>
<text text-anchor="start" x="655" y="-79" font-family="Helvetica,sans-Serif" font-size="10.00">JoyControlStickButtonPush</text>
<text text-anchor="start" x="655" y="-68" font-family="Helvetica,sans-Serif" font-size="10.00">Button::JoyControlStickButtonPush</text>
<text text-anchor="middle" x="739.5" y="-57" font-family="Helvetica,sans-Serif" font-size="10.00">Button</text>
</a>
</g>
</g>
<!-- Node91&#45;&gt;Node92 -->
<g id="edge59" class="edge">
<title>Node91&#45;&gt;Node92</title>
<path fill="none" stroke="midnightblue" d="M882.35,-99C866.02,-95.72 848.78,-92.25 832.15,-88.91"/>
<polygon fill="midnightblue" stroke="midnightblue" points="881.9,-102.48 892.39,-101.01 883.28,-95.61 881.9,-102.48"/>
</g>
</g>
</svg>
