<?xml version="1.0" encoding="UTF-8" standalone="no"?>
<!DOCTYPE svg PUBLIC "-//W3C//DTD SVG 1.1//EN"
 "http://www.w3.org/Graphics/SVG/1.1/DTD/svg11.dtd">
<!-- Generated by graphviz version 2.43.0 (0)
 -->
<!-- Title: QuickSetDialog::showButtonDialog Pages: 1 -->
<svg width="528pt" height="86pt"
 viewBox="0.00 0.00 528.00 86.00" xmlns="http://www.w3.org/2000/svg" xmlns:xlink="http://www.w3.org/1999/xlink">
<g id="graph0" class="graph" transform="scale(1 1) rotate(0) translate(4 82)">
<title>QuickSetDialog::showButtonDialog</title>
<!-- Node1 -->
<g id="Node000001" class="node">
<title>Node1</title>
<g id="a_Node000001"><a xlink:title=" ">
<polygon fill="#999999" stroke="#666666" points="520,-54 365,-54 365,-24 520,-24 520,-54"/>
<text text-anchor="start" x="373" y="-42" font-family="Helvetica,sans-Serif" font-size="10.00">QuickSetDialog::showButton</text>
<text text-anchor="middle" x="442.5" y="-31" font-family="Helvetica,sans-Serif" font-size="10.00">Dialog</text>
</a>
</g>
</g>
<!-- Node2 -->
<g id="Node000002" class="node">
<title>Node2</title>
<g id="a_Node000002"><a xlink:href="classQuickSetDialog.html#aecc56c37a7b9b387e3ea4afb8637596a" target="_top" xlink:title=" ">
<polygon fill="white" stroke="#666666" points="329,-54 177,-54 177,-24 329,-24 329,-54"/>
<text text-anchor="start" x="185" y="-42" font-family="Helvetica,sans-Serif" font-size="10.00">QuickSetDialog::connectBtn</text>
<text text-anchor="middle" x="253" y="-31" font-family="Helvetica,sans-Serif" font-size="10.00">ForDialog</text>
</a>
</g>
</g>
<!-- Node1&#45;&gt;Node2 -->
<g id="edge1_Node000001_Node000002" class="edge">
<title>Node1&#45;&gt;Node2</title>
<g id="a_edge1_Node000001_Node000002"><a xlink:title=" ">
<path fill="none" stroke="#63b8ff" d="M354.9,-39C346.27,-39 337.57,-39 329.08,-39"/>
<polygon fill="#63b8ff" stroke="#63b8ff" points="354.97,-42.5 364.97,-39 354.97,-35.5 354.97,-42.5"/>
</a>
</g>
</g>
<!-- Node3 -->
<g id="Node000003" class="node">
<title>Node3</title>
<g id="a_Node000003"><a xlink:href="classQuickSetDialog.html#a524c363dab8fac9758adbbb314d64888" target="_top" xlink:title=" ">
<polygon fill="white" stroke="#666666" points="141,-78 0,-78 0,-48 141,-48 141,-78"/>
<text text-anchor="start" x="8" y="-66" font-family="Helvetica,sans-Serif" font-size="10.00">QuickSetDialog::QuickSet</text>
<text text-anchor="middle" x="70.5" y="-55" font-family="Helvetica,sans-Serif" font-size="10.00">Dialog</text>
</a>
</g>
</g>
<!-- Node2&#45;&gt;Node3 -->
<g id="edge2_Node000002_Node000003" class="edge">
<title>Node2&#45;&gt;Node3</title>
<g id="a_edge2_Node000002_Node000003"><a xlink:title=" ">
<path fill="none" stroke="#63b8ff" d="M166.74,-50.34C158.16,-51.48 149.52,-52.63 141.14,-53.74"/>
<polygon fill="#63b8ff" stroke="#63b8ff" points="167.31,-53.79 176.76,-49 166.38,-46.85 167.31,-53.79"/>
</a>
</g>
</g>
<!-- Node4 -->
<g id="Node000004" class="node">
<title>Node4</title>
<g id="a_Node000004"><a xlink:href="classQuickSetDialog.html#a57726006cbe2d8534f4be91a05646dd2" target="_top" xlink:title=" ">
<polygon fill="white" stroke="#666666" points="141,-30 0,-30 0,0 141,0 141,-30"/>
<text text-anchor="start" x="8" y="-18" font-family="Helvetica,sans-Serif" font-size="10.00">QuickSetDialog::QuickSet</text>
<text text-anchor="middle" x="70.5" y="-7" font-family="Helvetica,sans-Serif" font-size="10.00">Dialog</text>
</a>
</g>
</g>
<!-- Node2&#45;&gt;Node4 -->
<g id="edge3_Node000002_Node000004" class="edge">
<title>Node2&#45;&gt;Node4</title>
<g id="a_edge3_Node000002_Node000004"><a xlink:title=" ">
<path fill="none" stroke="#63b8ff" d="M166.74,-27.66C158.16,-26.52 149.52,-25.37 141.14,-24.26"/>
<polygon fill="#63b8ff" stroke="#63b8ff" points="166.38,-31.15 176.76,-29 167.31,-24.21 166.38,-31.15"/>
</a>
</g>
</g>
</g>
</svg>
