<?xml version="1.0" encoding="UTF-8" standalone="no"?>
<!DOCTYPE svg PUBLIC "-//W3C//DTD SVG 1.1//EN"
 "http://www.w3.org/Graphics/SVG/1.1/DTD/svg11.dtd">
<!-- Generated by graphviz version 2.43.0 (0)
 -->
<!-- Title: JoyAxis::reset Pages: 1 -->
<svg width="471pt" height="66pt"
 viewBox="0.00 0.00 471.00 66.00" xmlns="http://www.w3.org/2000/svg" xmlns:xlink="http://www.w3.org/1999/xlink">
<g id="graph0" class="graph" transform="scale(1 1) rotate(0) translate(4 62)">
<title>JoyAxis::reset</title>
<polygon fill="white" stroke="transparent" points="-4,4 -4,-62 467,-62 467,4 -4,4"/>
<!-- Node1 -->
<g id="node1" class="node">
<title>Node1</title>
<g id="a_node1"><a xlink:title=" ">
<polygon fill="#bfbfbf" stroke="black" points="380,-19.5 380,-38.5 463,-38.5 463,-19.5 380,-19.5"/>
<text text-anchor="middle" x="421.5" y="-26.5" font-family="Helvetica,sans-Serif" font-size="10.00">JoyAxis::reset</text>
</a>
</g>
</g>
<!-- Node2 -->
<g id="node2" class="node">
<title>Node2</title>
<g id="a_node2"><a xlink:href="classJoyAxis.html#a854637def50e6ef091c87ee78e7dbb58" target="_top" xlink:title=" ">
<polygon fill="white" stroke="black" points="199,-38.5 199,-57.5 344,-57.5 344,-38.5 199,-38.5"/>
<text text-anchor="middle" x="271.5" y="-45.5" font-family="Helvetica,sans-Serif" font-size="10.00">JoyAxis::copyAssignments</text>
</a>
</g>
</g>
<!-- Node1&#45;&gt;Node2 -->
<g id="edge1" class="edge">
<title>Node1&#45;&gt;Node2</title>
<path fill="none" stroke="midnightblue" d="M369.54,-35.54C361.35,-36.59 352.73,-37.7 344.16,-38.8"/>
<polygon fill="midnightblue" stroke="midnightblue" points="370.19,-38.99 379.67,-34.24 369.3,-32.04 370.19,-38.99"/>
</g>
<!-- Node4 -->
<g id="node4" class="node">
<title>Node4</title>
<g id="a_node4"><a xlink:href="classJoyAxis.html#a62d21dc1238df0c8e221365a434efe50" target="_top" xlink:title=" ">
<polygon fill="white" stroke="black" points="230,-0.5 230,-19.5 313,-19.5 313,-0.5 230,-0.5"/>
<text text-anchor="middle" x="271.5" y="-7.5" font-family="Helvetica,sans-Serif" font-size="10.00">JoyAxis::reset</text>
</a>
</g>
</g>
<!-- Node1&#45;&gt;Node4 -->
<g id="edge3" class="edge">
<title>Node1&#45;&gt;Node4</title>
<path fill="none" stroke="midnightblue" d="M369.67,-22.48C351.23,-20.11 330.65,-17.47 313.2,-15.23"/>
<polygon fill="midnightblue" stroke="midnightblue" points="369.3,-25.96 379.67,-23.76 370.19,-19.01 369.3,-25.96"/>
</g>
<!-- Node3 -->
<g id="node3" class="node">
<title>Node3</title>
<g id="a_node3"><a xlink:href="classSetJoystick.html#a36b0da099fef84270b6cc7c76741e689" target="_top" xlink:title=" ">
<polygon fill="white" stroke="black" points="0,-38.5 0,-57.5 163,-57.5 163,-38.5 0,-38.5"/>
<text text-anchor="middle" x="81.5" y="-45.5" font-family="Helvetica,sans-Serif" font-size="10.00">SetJoystick::copyAssignments</text>
</a>
</g>
</g>
<!-- Node2&#45;&gt;Node3 -->
<g id="edge2" class="edge">
<title>Node2&#45;&gt;Node3</title>
<path fill="none" stroke="midnightblue" d="M188.62,-48C180.12,-48 171.5,-48 163.02,-48"/>
<polygon fill="midnightblue" stroke="midnightblue" points="188.89,-51.5 198.89,-48 188.89,-44.5 188.89,-51.5"/>
</g>
</g>
</svg>
