<?xml version="1.0" encoding="UTF-8" standalone="no"?>
<!DOCTYPE svg PUBLIC "-//W3C//DTD SVG 1.1//EN"
 "http://www.w3.org/Graphics/SVG/1.1/DTD/svg11.dtd">
<!-- Generated by graphviz version 2.43.0 (0)
 -->
<!-- Title: SetJoystick::setAxisButtonNameChange Pages: 1 -->
<!--zoomable 230 -->

<svg id="main" version="1.1" xmlns="http://www.w3.org/2000/svg" xmlns:xlink="http://www.w3.org/1999/xlink" xml:space="preserve" onload="init(evt)">
<style type="text/css"><![CDATA[
.node, .edge {opacity: 0.7;}
.node.selected, .edge.selected {opacity: 1;}
.edge:hover path { stroke: red; }
.edge:hover polygon { stroke: red; fill: red; }
]]></style>

<defs>
  <circle id="rim" cx="0" cy="0" r="7"/>
  <circle id="rim2" cx="0" cy="0" r="3.5"/>
  <g id="zoomPlus">
    <use xlink:href="#rim" fill="#404040"><set attributeName="fill" to="#808080" begin="zoomplus.mouseover" end="zoomplus.mouseout"/></use>
    <path d="M-4,0h8M0,-4v8" fill="none" stroke="white" stroke-width="1.5" pointer-events="none"/>
  </g>
  <g id="zoomMin">
    <use xlink:href="#rim" fill="#404040"><set attributeName="fill" to="#808080" begin="zoomminus.mouseover" end="zoomminus.mouseout"/></use>
    <path d="M-4,0h8" fill="none" stroke="white" stroke-width="1.5" pointer-events="none"/>
  </g>
  <g id="arrowUp" transform="translate(30 24)">
    <use xlink:href="#rim"/>
    <path pointer-events="none" fill="none" stroke="white" stroke-width="1.5" d="M0,-3.0v7 M-2.5,-0.5L0,-3.0L2.5,-0.5"/>
  </g>
  <g id="arrowRight" transform="rotate(90) translate(36 -43)">
    <use xlink:href="#rim"/>
    <path pointer-events="none" fill="none" stroke="white" stroke-width="1.5" d="M0,-3.0v7 M-2.5,-0.5L0,-3.0L2.5,-0.5"/>
  </g>
  <g id="arrowDown" transform="rotate(180) translate(-30 -48)">
    <use xlink:href="#rim"/>
    <path pointer-events="none" fill="none" stroke="white" stroke-width="1.5" d="M0,-3.0v7 M-2.5,-0.5L0,-3.0L2.5,-0.5"/>
  </g>
  <g id="arrowLeft" transform="rotate(270) translate(-36 17)">
    <use xlink:href="#rim"/>
    <path pointer-events="none" fill="none" stroke="white" stroke-width="1.5" d="M0,-3.0v7 M-2.5,-0.5L0,-3.0L2.5,-0.5"/>
  </g>
  <g id="resetDef">
    <use xlink:href="#rim2" fill="#404040"><set attributeName="fill" to="#808080" begin="reset.mouseover" end="reset.mouseout"/></use>
  </g>
</defs>
<script type="application/ecmascript">
var viewWidth = 1353;
var viewHeight = 230;
var sectionId = 'dynsection-155';
</script>
<script type="application/ecmascript" xlink:href="svg.min.js"/>
<svg id="graph" class="graph">
<g id="viewport">
<title>SetJoystick::setAxisButtonNameChange</title>
<!-- Node1 -->
<g id="Node000001" class="node">
<title>Node1</title>
<g id="a_Node000001"><a xlink:title=" ">
<polygon fill="#999999" stroke="#666666" points="1345,-187.5 1200,-187.5 1200,-157.5 1345,-157.5 1345,-187.5"/>
<text text-anchor="start" x="1208" y="-175.5" font-family="Helvetica,sans-Serif" font-size="10.00">SetJoystick::setAxisButton</text>
<text text-anchor="middle" x="1272.5" y="-164.5" font-family="Helvetica,sans-Serif" font-size="10.00">NameChange</text>
</a>
</g>
</g>
<!-- Node2 -->
<g id="Node000002" class="node">
<title>Node2</title>
<g id="a_Node000002"><a xlink:href="classInputDevice.html#a6ffcebba103a7db02e82c1c7f62387bf" target="_top" xlink:title="Establishes necessary connections for set change slots.">
<polygon fill="white" stroke="#666666" points="722,-204 532,-204 532,-185 722,-185 722,-204"/>
<text text-anchor="middle" x="627" y="-192" font-family="Helvetica,sans-Serif" font-size="10.00">InputDevice::enableSetConnections</text>
</a>
</g>
</g>
<!-- Node1&#45;&gt;Node2 -->
<g id="edge1_Node000001_Node000002" class="edge">
<title>Node1&#45;&gt;Node2</title>
<g id="a_edge1_Node000001_Node000002"><a xlink:title=" ">
<path fill="none" stroke="#63b8ff" d="M1189.63,-188.29C1181,-189.56 1172.34,-190.67 1164,-191.5 984.43,-209.35 938.45,-197.89 758,-196.5 746.38,-196.41 734.17,-196.28 722.08,-196.12"/>
<polygon fill="#63b8ff" stroke="#63b8ff" points="1190.37,-191.72 1199.72,-186.74 1189.3,-184.8 1190.37,-191.72"/>
</a>
</g>
</g>
<!-- Node5 -->
<g id="Node000005" class="node">
<title>Node5</title>
<g id="a_Node000005"><a xlink:href="classSetJoystick.html#a559203c2db1839239a1a684e717ef898" target="_top" xlink:title=" ">
<polygon fill="white" stroke="#666666" points="1145.5,-117.5 1003.5,-117.5 1003.5,-87.5 1145.5,-87.5 1145.5,-117.5"/>
<text text-anchor="start" x="1011.5" y="-105.5" font-family="Helvetica,sans-Serif" font-size="10.00">SetJoystick::propogateSet</text>
<text text-anchor="middle" x="1074.5" y="-94.5" font-family="Helvetica,sans-Serif" font-size="10.00">AxisButtonNameChange</text>
</a>
</g>
</g>
<!-- Node1&#45;&gt;Node5 -->
<g id="edge4_Node000001_Node000005" class="edge">
<title>Node1&#45;&gt;Node5</title>
<g id="a_edge4_Node000001_Node000005"><a xlink:title=" ">
<path fill="none" stroke="#63b8ff" d="M1219.87,-154.06C1188.05,-142.7 1147.75,-128.3 1117.82,-117.61"/>
<polygon fill="#63b8ff" stroke="#63b8ff" points="1218.86,-157.42 1229.45,-157.48 1221.21,-150.82 1218.86,-157.42"/>
</a>
</g>
</g>
<!-- Node15 -->
<g id="Node000015" class="node">
<title>Node15</title>
<g id="a_Node000015"><a xlink:href="classInputDevice.html#a38ee53ddc49dccd9d7b5b91a22fb1610" target="_top" xlink:title=" ">
<polygon fill="white" stroke="#666666" points="1164,-182 985,-182 985,-163 1164,-163 1164,-182"/>
<text text-anchor="middle" x="1074.5" y="-170" font-family="Helvetica,sans-Serif" font-size="10.00">InputDevice::setAxisButtonName</text>
</a>
</g>
</g>
<!-- Node1&#45;&gt;Node15 -->
<g id="edge15_Node000001_Node000015" class="edge">
<title>Node1&#45;&gt;Node15</title>
<g id="a_edge15_Node000001_Node000015"><a xlink:title=" ">
<path fill="none" stroke="#63b8ff" d="M1189.74,-172.5C1181.32,-172.5 1172.74,-172.5 1164.25,-172.5"/>
<polygon fill="#63b8ff" stroke="#63b8ff" points="1189.91,-176 1199.91,-172.5 1189.91,-169 1189.91,-176"/>
</a>
</g>
</g>
<!-- Node3 -->
<g id="Node000003" class="node">
<title>Node3</title>
<g id="a_Node000003"><a xlink:href="classGameController.html#afcddb9dcc5442a9746c3ff8760ea1791" target="_top" xlink:title=" ">
<polygon fill="white" stroke="#666666" points="496,-222 319,-222 319,-203 496,-203 496,-222"/>
<text text-anchor="middle" x="407.5" y="-210" font-family="Helvetica,sans-Serif" font-size="10.00">GameController::GameController</text>
</a>
</g>
</g>
<!-- Node2&#45;&gt;Node3 -->
<g id="edge2_Node000002_Node000003" class="edge">
<title>Node2&#45;&gt;Node3</title>
<g id="a_edge2_Node000002_Node000003"><a xlink:title=" ">
<path fill="none" stroke="#63b8ff" d="M521.85,-203.12C513.28,-203.83 504.68,-204.54 496.26,-205.24"/>
<polygon fill="#63b8ff" stroke="#63b8ff" points="522.19,-206.6 531.87,-202.29 521.61,-199.63 522.19,-206.6"/>
</a>
</g>
</g>
<!-- Node4 -->
<g id="Node000004" class="node">
<title>Node4</title>
<g id="a_Node000004"><a xlink:href="classJoystick.html#a9df5e53506876f3c95e84bdf6c9cbaf1" target="_top" xlink:title=" ">
<polygon fill="white" stroke="#666666" points="457,-185 358,-185 358,-166 457,-166 457,-185"/>
<text text-anchor="middle" x="407.5" y="-173" font-family="Helvetica,sans-Serif" font-size="10.00">Joystick::Joystick</text>
</a>
</g>
</g>
<!-- Node2&#45;&gt;Node4 -->
<g id="edge3_Node000002_Node000004" class="edge">
<title>Node2&#45;&gt;Node4</title>
<g id="a_edge3_Node000002_Node000004"><a xlink:title=" ">
<path fill="none" stroke="#63b8ff" d="M521.88,-185.4C499.31,-183.43 476.48,-181.44 457.28,-179.76"/>
<polygon fill="#63b8ff" stroke="#63b8ff" points="521.6,-188.89 531.87,-186.28 522.21,-181.92 521.6,-188.89"/>
</a>
</g>
</g>
<!-- Node5&#45;&gt;Node5 -->
<g id="edge14_Node000005_Node000005" class="edge">
<title>Node5&#45;&gt;Node5</title>
<g id="a_edge14_Node000005_Node000005"><a xlink:title=" ">
<path fill="none" stroke="#63b8ff" d="M1109.16,-128.1C1104.42,-132.47 1092.87,-135.5 1074.5,-135.5 1043.56,-135.5 1031.96,-126.91 1039.7,-117.78"/>
<polygon fill="#63b8ff" stroke="#63b8ff" points="1112.66,-127.82 1109.3,-117.78 1105.66,-127.72 1112.66,-127.82"/>
</a>
</g>
</g>
<!-- Node6 -->
<g id="Node000006" class="node">
<title>Node6</title>
<g id="a_Node000006"><a xlink:href="classSetJoystick.html#a75a8851568f88ac1966ae2ba0704ae42" target="_top" xlink:title=" ">
<polygon fill="white" stroke="#666666" points="949,-99 758,-99 758,-80 949,-80 949,-99"/>
<text text-anchor="middle" x="853.5" y="-87" font-family="Helvetica,sans-Serif" font-size="10.00">SetJoystick::enableAxisConnections</text>
</a>
</g>
</g>
<!-- Node5&#45;&gt;Node6 -->
<g id="edge5_Node000005_Node000006" class="edge">
<title>Node5&#45;&gt;Node6</title>
<g id="a_edge5_Node000005_Node000006"><a xlink:title=" ">
<path fill="none" stroke="#63b8ff" d="M993.03,-97.72C978.73,-96.87 963.71,-95.98 949.06,-95.11"/>
<polygon fill="#63b8ff" stroke="#63b8ff" points="993.11,-101.23 1003.3,-98.33 993.53,-94.25 993.11,-101.23"/>
</a>
</g>
</g>
<!-- Node7 -->
<g id="Node000007" class="node">
<title>Node7</title>
<g id="a_Node000007"><a xlink:href="classGameControllerSet.html#abd666978fe84da99c8338e8020051510" target="_top" xlink:title=" ">
<polygon fill="white" stroke="#666666" points="685,-104.5 569,-104.5 569,-74.5 685,-74.5 685,-104.5"/>
<text text-anchor="start" x="577" y="-92.5" font-family="Helvetica,sans-Serif" font-size="10.00">GameControllerSet::</text>
<text text-anchor="middle" x="627" y="-81.5" font-family="Helvetica,sans-Serif" font-size="10.00">refreshAxes</text>
</a>
</g>
</g>
<!-- Node6&#45;&gt;Node7 -->
<g id="edge6_Node000006_Node000007" class="edge">
<title>Node6&#45;&gt;Node7</title>
<g id="a_edge6_Node000006_Node000007"><a xlink:title=" ">
<path fill="none" stroke="#63b8ff" d="M747.76,-89.5C726.26,-89.5 704.38,-89.5 685.31,-89.5"/>
<polygon fill="#63b8ff" stroke="#63b8ff" points="747.94,-93 757.94,-89.5 747.94,-86 747.94,-93"/>
</a>
</g>
</g>
<!-- Node8 -->
<g id="Node000008" class="node">
<title>Node8</title>
<g id="a_Node000008"><a xlink:href="classSetJoystick.html#af8d7d16a13702ae29b6590db35801d14" target="_top" xlink:title=" ">
<polygon fill="white" stroke="#666666" points="694,-56 560,-56 560,-37 694,-37 694,-56"/>
<text text-anchor="middle" x="627" y="-44" font-family="Helvetica,sans-Serif" font-size="10.00">SetJoystick::refreshAxes</text>
</a>
</g>
</g>
<!-- Node6&#45;&gt;Node8 -->
<g id="edge7_Node000006_Node000008" class="edge">
<title>Node6&#45;&gt;Node8</title>
<g id="a_edge7_Node000006_Node000008"><a xlink:title=" ">
<path fill="none" stroke="#63b8ff" d="M792.8,-78.07C756.87,-71.18 711.66,-62.52 677.68,-56.02"/>
<polygon fill="#63b8ff" stroke="#63b8ff" points="792.2,-81.51 802.68,-79.96 793.51,-74.64 792.2,-81.51"/>
</a>
</g>
</g>
<!-- Node9 -->
<g id="Node000009" class="node">
<title>Node9</title>
<g id="a_Node000009"><a xlink:href="classSetJoystick.html#adc322b55002b149c9a7432d1008b8537" target="_top" xlink:title="Re&#45;enumerates inputs from the associated device and resets all mappings in this set.">
<polygon fill="white" stroke="#666666" points="458,-56 357,-56 357,-37 458,-37 458,-56"/>
<text text-anchor="middle" x="407.5" y="-44" font-family="Helvetica,sans-Serif" font-size="10.00">SetJoystick::reset</text>
</a>
</g>
</g>
<!-- Node8&#45;&gt;Node9 -->
<g id="edge8_Node000008_Node000009" class="edge">
<title>Node8&#45;&gt;Node9</title>
<g id="a_edge8_Node000008_Node000009"><a xlink:title=" ">
<path fill="none" stroke="#63b8ff" d="M549.71,-46.5C519.31,-46.5 485.18,-46.5 458.1,-46.5"/>
<polygon fill="#63b8ff" stroke="#63b8ff" points="549.86,-50 559.86,-46.5 549.86,-43 549.86,-50"/>
</a>
</g>
</g>
<!-- Node10 -->
<g id="Node000010" class="node">
<title>Node10</title>
<g id="a_Node000010"><a xlink:href="classGameControllerSet.html#a40b9c9ac22d6fe71c15380dcbca7eb80" target="_top" xlink:title=" ">
<polygon fill="white" stroke="#666666" points="275.5,-104.5 159.5,-104.5 159.5,-74.5 275.5,-74.5 275.5,-104.5"/>
<text text-anchor="start" x="167.5" y="-92.5" font-family="Helvetica,sans-Serif" font-size="10.00">GameControllerSet::</text>
<text text-anchor="middle" x="217.5" y="-81.5" font-family="Helvetica,sans-Serif" font-size="10.00">resetSticks</text>
</a>
</g>
</g>
<!-- Node9&#45;&gt;Node10 -->
<g id="edge9_Node000009_Node000010" class="edge">
<title>Node9&#45;&gt;Node10</title>
<g id="a_edge9_Node000009_Node000010"><a xlink:title=" ">
<path fill="none" stroke="#63b8ff" d="M354.94,-58.29C330.42,-63.9 301.01,-70.63 275.79,-76.4"/>
<polygon fill="#63b8ff" stroke="#63b8ff" points="355.81,-61.68 364.78,-56.04 354.25,-54.86 355.81,-61.68"/>
</a>
</g>
</g>
<!-- Node13 -->
<g id="Node000013" class="node">
<title>Node13</title>
<g id="a_Node000013"><a xlink:href="classSetJoystick.html#a9691a678e1bb444edc9f28368c4aeb8c" target="_top" xlink:title=" ">
<polygon fill="white" stroke="#666666" points="283,-56 152,-56 152,-37 283,-37 283,-56"/>
<text text-anchor="middle" x="217.5" y="-44" font-family="Helvetica,sans-Serif" font-size="10.00">SetJoystick::SetJoystick</text>
</a>
</g>
</g>
<!-- Node9&#45;&gt;Node13 -->
<g id="edge12_Node000009_Node000013" class="edge">
<title>Node9&#45;&gt;Node13</title>
<g id="a_edge12_Node000009_Node000013"><a xlink:title=" ">
<path fill="none" stroke="#63b8ff" d="M346.6,-46.5C326.38,-46.5 303.74,-46.5 283.17,-46.5"/>
<polygon fill="#63b8ff" stroke="#63b8ff" points="346.61,-50 356.61,-46.5 346.61,-43 346.61,-50"/>
</a>
</g>
</g>
<!-- Node14 -->
<g id="Node000014" class="node">
<title>Node14</title>
<g id="a_Node000014"><a xlink:href="classSetJoystick.html#ab9d47383844cb2c08581352a6c02bdab" target="_top" xlink:title=" ">
<polygon fill="white" stroke="#666666" points="283,-19 152,-19 152,0 283,0 283,-19"/>
<text text-anchor="middle" x="217.5" y="-7" font-family="Helvetica,sans-Serif" font-size="10.00">SetJoystick::SetJoystick</text>
</a>
</g>
</g>
<!-- Node9&#45;&gt;Node14 -->
<g id="edge13_Node000009_Node000014" class="edge">
<title>Node9&#45;&gt;Node14</title>
<g id="a_edge13_Node000009_Node000014"><a xlink:title=" ">
<path fill="none" stroke="#63b8ff" d="M347.99,-34.98C322,-29.87 291.78,-23.92 267.08,-19.06"/>
<polygon fill="#63b8ff" stroke="#63b8ff" points="347.6,-38.47 358.09,-36.97 348.95,-31.61 347.6,-38.47"/>
</a>
</g>
</g>
<!-- Node11 -->
<g id="Node000011" class="node">
<title>Node11</title>
<g id="a_Node000011"><a xlink:href="classGameControllerSet.html#a9d686fa2df459f7d157d60e05707f712" target="_top" xlink:title=" ">
<polygon fill="white" stroke="#666666" points="116,-128.5 0,-128.5 0,-98.5 116,-98.5 116,-128.5"/>
<text text-anchor="start" x="8" y="-116.5" font-family="Helvetica,sans-Serif" font-size="10.00">GameControllerSet::</text>
<text text-anchor="middle" x="58" y="-105.5" font-family="Helvetica,sans-Serif" font-size="10.00">GameControllerSet</text>
</a>
</g>
</g>
<!-- Node10&#45;&gt;Node11 -->
<g id="edge10_Node000010_Node000011" class="edge">
<title>Node10&#45;&gt;Node11</title>
<g id="a_edge10_Node000010_Node000011"><a xlink:title=" ">
<path fill="none" stroke="#63b8ff" d="M149.16,-99.76C138.12,-101.44 126.76,-103.17 116,-104.81"/>
<polygon fill="#63b8ff" stroke="#63b8ff" points="149.83,-103.2 159.19,-98.23 148.78,-96.28 149.83,-103.2"/>
</a>
</g>
</g>
<!-- Node12 -->
<g id="Node000012" class="node">
<title>Node12</title>
<g id="a_Node000012"><a xlink:href="classGameControllerSet.html#a69d798af242a07017bc0f2e2d0d8a830" target="_top" xlink:title=" ">
<polygon fill="white" stroke="#666666" points="116,-80.5 0,-80.5 0,-50.5 116,-50.5 116,-80.5"/>
<text text-anchor="start" x="8" y="-68.5" font-family="Helvetica,sans-Serif" font-size="10.00">GameControllerSet::</text>
<text text-anchor="middle" x="58" y="-57.5" font-family="Helvetica,sans-Serif" font-size="10.00">reset</text>
</a>
</g>
</g>
<!-- Node10&#45;&gt;Node12 -->
<g id="edge11_Node000010_Node000012" class="edge">
<title>Node10&#45;&gt;Node12</title>
<g id="a_edge11_Node000010_Node000012"><a xlink:title=" ">
<path fill="none" stroke="#63b8ff" d="M149.16,-79.24C138.12,-77.56 126.76,-75.83 116,-74.19"/>
<polygon fill="#63b8ff" stroke="#63b8ff" points="148.78,-82.72 159.19,-80.77 149.83,-75.8 148.78,-82.72"/>
</a>
</g>
</g>
<!-- Node16 -->
<g id="Node000016" class="node">
<title>Node16</title>
<g id="a_Node000016"><a xlink:href="classInputDeviceXml.html#a847bf9ed17b554bf87d513a1aebdcb64" target="_top" xlink:title="Deserializes the given XML stream into an InputDevice object.">
<polygon fill="white" stroke="#666666" points="930,-139 777,-139 777,-120 930,-120 930,-139"/>
<text text-anchor="middle" x="853.5" y="-127" font-family="Helvetica,sans-Serif" font-size="10.00">InputDeviceXml::readConfig</text>
</a>
</g>
</g>
<!-- Node15&#45;&gt;Node16 -->
<g id="edge16_Node000015_Node000016" class="edge">
<title>Node15&#45;&gt;Node16</title>
<g id="a_edge16_Node000015_Node000016"><a xlink:title=" ">
<path fill="none" stroke="#63b8ff" d="M1014.82,-160.98C979.84,-154.11 935.97,-145.5 902.97,-139.02"/>
<polygon fill="#63b8ff" stroke="#63b8ff" points="1014.41,-164.46 1024.9,-162.96 1015.76,-157.6 1014.41,-164.46"/>
</a>
</g>
</g>
<!-- Node18 -->
<g id="Node000018" class="node">
<title>Node18</title>
<g id="a_Node000018"><a xlink:href="classInputDevice.html#adaf073e157dca5d1e3325d916d6c4823" target="_top" xlink:title=" ">
<polygon fill="white" stroke="#666666" points="929.5,-187.5 777.5,-187.5 777.5,-157.5 929.5,-157.5 929.5,-187.5"/>
<text text-anchor="start" x="785.5" y="-175.5" font-family="Helvetica,sans-Serif" font-size="10.00">InputDevice::updateSetAxis</text>
<text text-anchor="middle" x="853.5" y="-164.5" font-family="Helvetica,sans-Serif" font-size="10.00">ButtonNames</text>
</a>
</g>
</g>
<!-- Node15&#45;&gt;Node18 -->
<g id="edge18_Node000015_Node000018" class="edge">
<title>Node15&#45;&gt;Node18</title>
<g id="a_edge18_Node000015_Node000018"><a xlink:title=" ">
<path fill="none" stroke="#63b8ff" d="M974.4,-165.78C959.38,-165.7 944.1,-165.79 929.7,-166.05"/>
<polygon fill="#63b8ff" stroke="#63b8ff" points="974.71,-169.28 984.74,-165.86 974.77,-162.28 974.71,-169.28"/>
</a>
</g>
</g>
<!-- Node17 -->
<g id="Node000017" class="node">
<title>Node17</title>
<g id="a_Node000017"><a xlink:href="classInputDeviceXml.html#a0259125eb6fe55484e263841aa00fa88" target="_top" xlink:title=" ">
<polygon fill="white" stroke="#666666" points="716.5,-142 537.5,-142 537.5,-123 716.5,-123 716.5,-142"/>
<text text-anchor="middle" x="627" y="-130" font-family="Helvetica,sans-Serif" font-size="10.00">InputDeviceXml::InputDeviceXml</text>
</a>
</g>
</g>
<!-- Node16&#45;&gt;Node17 -->
<g id="edge17_Node000016_Node000017" class="edge">
<title>Node16&#45;&gt;Node17</title>
<g id="a_edge17_Node000016_Node000017"><a xlink:title=" ">
<path fill="none" stroke="#63b8ff" d="M766.7,-130.65C750.28,-130.87 733.06,-131.1 716.55,-131.32"/>
<polygon fill="#63b8ff" stroke="#63b8ff" points="766.86,-134.14 776.81,-130.51 766.76,-127.15 766.86,-134.14"/>
</a>
</g>
</g>
<!-- Node18&#45;&gt;Node2 -->
<g id="edge19_Node000018_Node000002" class="edge">
<title>Node18&#45;&gt;Node2</title>
<g id="a_edge19_Node000018_Node000002"><a xlink:title=" ">
<path fill="none" stroke="#63b8ff" d="M767.33,-180.85C752.57,-182.29 737.15,-183.8 722.16,-185.27"/>
<polygon fill="#63b8ff" stroke="#63b8ff" points="767.82,-184.31 777.43,-179.86 767.14,-177.35 767.82,-184.31"/>
</a>
</g>
</g>
<!-- Node18&#45;&gt;Node15 -->
<g id="edge20_Node000018_Node000015" class="edge">
<title>Node18&#45;&gt;Node15</title>
<g id="a_edge20_Node000018_Node000015"><a xlink:title=" ">
<path fill="none" stroke="#63b8ff" d="M939.8,-179.1C954.54,-179.29 969.9,-179.3 984.74,-179.14"/>
<polygon fill="#63b8ff" stroke="#63b8ff" points="939.75,-175.6 929.7,-178.95 939.64,-182.6 939.75,-175.6"/>
</a>
</g>
</g>
</g>
</svg>

<g id="navigator" transform="translate(0 0)" fill="#404254">
  <rect fill="#f2f5e9" fill-opacity="0.5" stroke="#606060" stroke-width=".5" x="0" y="0" width="60" height="60"/>
  <use id="zoomplus" xlink:href="#zoomPlus" x="17" y="9" onmousedown="handleZoom(evt,'in')"/>
  <use id="zoomminus" xlink:href="#zoomMin" x="42" y="9" onmousedown="handleZoom(evt,'out')"/>
  <use id="reset" xlink:href="#resetDef" x="30" y="36" onmousedown="handleReset()"/>
   <use id="arrowup" xlink:href="#arrowUp" x="0" y="0" onmousedown="handlePan(0,-1)"/>
  <use id="arrowright" xlink:href="#arrowRight" x="0" y="0" onmousedown="handlePan(1,0)"/>
  <use id="arrowdown" xlink:href="#arrowDown" x="0" y="0" onmousedown="handlePan(0,1)"/>
  <use id="arrowleft" xlink:href="#arrowLeft" x="0" y="0" onmousedown="handlePan(-1,0)"/>
</g>
<svg viewBox="0 0 15 15" width="100%" height="30px" preserveAspectRatio="xMaxYMin meet">
 <g id="arrow_out" transform="scale(0.3 0.3)">
  <a xlink:href="classSetJoystick_a78db4a9bd7c22fde20ba1ff0a623aa14_icgraph_org.svg" target="_base">
   <rect id="button" ry="5" rx="5" y="6" x="6" height="38" width="38"
        fill="#f2f5e9" fill-opacity="0.5" stroke="#606060" stroke-width="1.0"/>
   <path id="arrow"
     d="M 11.500037,31.436501 C 11.940474,20.09759 22.043105,11.32322 32.158766,21.979434 L 37.068811,17.246167 C 37.068811,17.246167 37.088388,32 37.088388,32 L 22.160133,31.978069 C 22.160133,31.978069 26.997745,27.140456 26.997745,27.140456 C 18.528582,18.264221 13.291696,25.230495 11.500037,31.436501 z"
     style="fill:#404040;"/>
  </a>
 </g>
</svg>

<style type='text/css'>
<![CDATA[
[data-mouse-over-selected='false'] { opacity: 0.7; }
[data-mouse-over-selected='true']  { opacity: 1.0; }
]]>
</style>
<script type="application/ecmascript"><![CDATA[
document.addEventListener('DOMContentLoaded', (event) => {
  highlightEdges();
  highlightAdjacentNodes();
});
]]></script>
</svg>
