<?xml version="1.0" encoding="UTF-8" standalone="no"?>
<!DOCTYPE svg PUBLIC "-//W3C//DTD SVG 1.1//EN"
 "http://www.w3.org/Graphics/SVG/1.1/DTD/svg11.dtd">
<!-- Generated by graphviz version 2.43.0 (0)
 -->
<!-- Title: JoyButton::getRealJoyNumber Pages: 1 -->
<svg width="1224pt" height="1075pt"
 viewBox="0.00 0.00 1224.00 1075.00" xmlns="http://www.w3.org/2000/svg" xmlns:xlink="http://www.w3.org/1999/xlink">
<g id="graph0" class="graph" transform="scale(1 1) rotate(0) translate(4 1071)">
<title>JoyButton::getRealJoyNumber</title>
<polygon fill="white" stroke="transparent" points="-4,4 -4,-1071 1220,-1071 1220,4 -4,4"/>
<!-- Node1 -->
<g id="node1" class="node">
<title>Node1</title>
<g id="a_node1"><a xlink:title="Get a 1 indexed number of button.">
<polygon fill="#bfbfbf" stroke="black" points="1055,-189 1055,-208 1216,-208 1216,-189 1055,-189"/>
<text text-anchor="middle" x="1135.5" y="-196" font-family="Helvetica,sans-Serif" font-size="10.00">JoyButton::getRealJoyNumber</text>
</a>
</g>
</g>
<!-- Node2 -->
<g id="node2" class="node">
<title>Node2</title>
<g id="a_node2"><a xlink:href="classJoyButton.html#acf2e65dcec7b0d2a8a2c21c36c489ad6" target="_top" xlink:title=" ">
<polygon fill="white" stroke="black" points="860,-521 860,-540 1006,-540 1006,-521 860,-521"/>
<text text-anchor="middle" x="933" y="-528" font-family="Helvetica,sans-Serif" font-size="10.00">JoyButton::getPartialName</text>
</a>
</g>
</g>
<!-- Node1&#45;&gt;Node2 -->
<g id="edge1" class="edge">
<title>Node1&#45;&gt;Node2</title>
<path fill="none" stroke="midnightblue" d="M1123.52,-216.69C1086.57,-277.87 967.53,-474.98 939.81,-520.88"/>
<polygon fill="midnightblue" stroke="midnightblue" points="1126.54,-218.45 1128.72,-208.08 1120.55,-214.83 1126.54,-218.45"/>
</g>
<!-- Node176 -->
<g id="node36" class="node">
<title>Node176</title>
<g id="a_node36"><a xlink:href="classJoyButtonStatusBox.html#ad07dbdf53545fc5080cea81f2845bd30" target="_top" xlink:title=" ">
<polygon fill="white" stroke="black" points="873.5,-254.5 873.5,-284.5 992.5,-284.5 992.5,-254.5 873.5,-254.5"/>
<text text-anchor="start" x="881.5" y="-272.5" font-family="Helvetica,sans-Serif" font-size="10.00">JoyButtonStatusBox</text>
<text text-anchor="middle" x="933" y="-261.5" font-family="Helvetica,sans-Serif" font-size="10.00">::JoyButtonStatusBox</text>
</a>
</g>
</g>
<!-- Node1&#45;&gt;Node176 -->
<g id="edge45" class="edge">
<title>Node1&#45;&gt;Node176</title>
<path fill="none" stroke="midnightblue" d="M1103.79,-212.09C1080.72,-222.03 1048.2,-235.47 1019,-245.5 1009.86,-248.64 1000.08,-251.68 990.51,-254.5"/>
<polygon fill="midnightblue" stroke="midnightblue" points="1105.28,-215.26 1113.06,-208.06 1102.49,-208.83 1105.28,-215.26"/>
</g>
<!-- Node177 -->
<g id="node37" class="node">
<title>Node177</title>
<g id="a_node37"><a xlink:href="classAdvanceStickAssignmentDialog.html#a98a6d5afe4f544f71039543e3aa8055f" target="_top" xlink:title=" ">
<polygon fill="white" stroke="black" points="847,-205.5 847,-235.5 1019,-235.5 1019,-205.5 847,-205.5"/>
<text text-anchor="start" x="855" y="-223.5" font-family="Helvetica,sans-Serif" font-size="10.00">AdvanceStickAssignmentDialog</text>
<text text-anchor="middle" x="933" y="-212.5" font-family="Helvetica,sans-Serif" font-size="10.00">::refreshVDPadConf</text>
</a>
</g>
</g>
<!-- Node1&#45;&gt;Node177 -->
<g id="edge46" class="edge">
<title>Node1&#45;&gt;Node177</title>
<path fill="none" stroke="midnightblue" d="M1044.93,-208.33C1036.32,-209.27 1027.6,-210.23 1019.04,-211.17"/>
<polygon fill="midnightblue" stroke="midnightblue" points="1045.41,-211.8 1054.97,-207.23 1044.65,-204.84 1045.41,-211.8"/>
</g>
<!-- Node179 -->
<g id="node39" class="node">
<title>Node179</title>
<g id="a_node39"><a xlink:href="classJoyButtonXml.html#a766e87947104bfd54fc15b96b267ebdd" target="_top" xlink:title=" ">
<polygon fill="white" stroke="black" points="860.5,-167 860.5,-186 1005.5,-186 1005.5,-167 860.5,-167"/>
<text text-anchor="middle" x="933" y="-174" font-family="Helvetica,sans-Serif" font-size="10.00">JoyButtonXml::writeConfig</text>
</a>
</g>
</g>
<!-- Node1&#45;&gt;Node179 -->
<g id="edge49" class="edge">
<title>Node1&#45;&gt;Node179</title>
<path fill="none" stroke="midnightblue" d="M1044.96,-188.68C1031.79,-187.23 1018.38,-185.76 1005.63,-184.36"/>
<polygon fill="midnightblue" stroke="midnightblue" points="1044.65,-192.16 1054.97,-189.77 1045.41,-185.2 1044.65,-192.16"/>
</g>
<!-- Node185 -->
<g id="node45" class="node">
<title>Node185</title>
<g id="a_node45"><a xlink:href="classInputDeviceXml.html#a12bf094c5ab0ab10dae089e41fbc778c" target="_top" xlink:title="Serializes an InputDevice object into the the given XML stream.">
<polygon fill="white" stroke="black" points="855,-110 855,-129 1011,-129 1011,-110 855,-110"/>
<text text-anchor="middle" x="933" y="-117" font-family="Helvetica,sans-Serif" font-size="10.00">InputDeviceXml::writeConfig</text>
</a>
</g>
</g>
<!-- Node1&#45;&gt;Node185 -->
<g id="edge55" class="edge">
<title>Node1&#45;&gt;Node185</title>
<path fill="none" stroke="midnightblue" d="M1100.91,-185.26C1060.58,-169.37 993.92,-143.11 958.27,-129.06"/>
<polygon fill="midnightblue" stroke="midnightblue" points="1099.73,-188.56 1110.32,-188.97 1102.29,-182.05 1099.73,-188.56"/>
</g>
<!-- Node188 -->
<g id="node48" class="node">
<title>Node188</title>
<g id="a_node48"><a xlink:href="classGameControllerXml.html#a58cc6838bb726b635eb2875c192b144a" target="_top" xlink:title=" ">
<polygon fill="white" stroke="black" points="873.5,-22.5 873.5,-52.5 992.5,-52.5 992.5,-22.5 873.5,-22.5"/>
<text text-anchor="start" x="881.5" y="-40.5" font-family="Helvetica,sans-Serif" font-size="10.00">GameControllerXml::</text>
<text text-anchor="middle" x="933" y="-29.5" font-family="Helvetica,sans-Serif" font-size="10.00">writeXmlAxBtn</text>
</a>
</g>
</g>
<!-- Node1&#45;&gt;Node188 -->
<g id="edge58" class="edge">
<title>Node1&#45;&gt;Node188</title>
<path fill="none" stroke="midnightblue" d="M1115.76,-181.94C1093.17,-162.13 1053.89,-128.18 1019,-100.5 997.7,-83.6 972.62,-65.19 955.25,-52.66"/>
<polygon fill="midnightblue" stroke="midnightblue" points="1113.73,-184.82 1123.55,-188.79 1118.35,-179.56 1113.73,-184.82"/>
</g>
<!-- Node3 -->
<g id="node3" class="node">
<title>Node3</title>
<g id="a_node3"><a xlink:href="classSetJoystick.html#aeb1c9e91e6e43f5884deecd3c80ba886" target="_top" xlink:title=" ">
<polygon fill="white" stroke="black" points="653,-715.5 653,-745.5 790,-745.5 790,-715.5 653,-715.5"/>
<text text-anchor="start" x="661" y="-733.5" font-family="Helvetica,sans-Serif" font-size="10.00">SetJoystick::getCountBtn</text>
<text text-anchor="middle" x="721.5" y="-722.5" font-family="Helvetica,sans-Serif" font-size="10.00">InList</text>
</a>
</g>
</g>
<!-- Node2&#45;&gt;Node3 -->
<g id="edge2" class="edge">
<title>Node2&#45;&gt;Node3</title>
<path fill="none" stroke="midnightblue" d="M924.15,-549.57C908.3,-585.67 868.98,-664.06 811,-705.5 804.64,-710.05 797.47,-713.77 790.03,-716.82"/>
<polygon fill="midnightblue" stroke="midnightblue" points="927.44,-550.77 928.15,-540.2 921.01,-548.02 927.44,-550.77"/>
</g>
<!-- Node4 -->
<g id="node4" class="node">
<title>Node4</title>
<g id="a_node4"><a xlink:href="classJoyButton.html#ab227ec29550f974ac09dd1f891c93440" target="_top" xlink:title=" ">
<polygon fill="white" stroke="black" points="664,-677 664,-696 779,-696 779,-677 664,-677"/>
<text text-anchor="middle" x="721.5" y="-684" font-family="Helvetica,sans-Serif" font-size="10.00">JoyButton::getName</text>
</a>
</g>
</g>
<!-- Node2&#45;&gt;Node4 -->
<g id="edge3" class="edge">
<title>Node2&#45;&gt;Node4</title>
<path fill="none" stroke="midnightblue" d="M920.32,-548.81C901.07,-577.47 859.91,-632.73 811,-662.5 800.67,-668.79 788.67,-673.46 776.9,-676.92"/>
<polygon fill="midnightblue" stroke="midnightblue" points="923.42,-550.46 925.99,-540.18 917.57,-546.62 923.42,-550.46"/>
</g>
<!-- Node61 -->
<g id="node12" class="node">
<title>Node61</title>
<g id="a_node12"><a xlink:href="classJoyButton.html#abb09326682e89c3c32975519ee73dfb0" target="_top" xlink:title="Activates mapped slots and generates QT events which highlight pressed controller buttons.">
<polygon fill="white" stroke="black" points="453.5,-595 453.5,-614 566.5,-614 566.5,-595 453.5,-595"/>
<text text-anchor="middle" x="510" y="-602" font-family="Helvetica,sans-Serif" font-size="10.00">JoyButton::joyEvent</text>
</a>
</g>
</g>
<!-- Node2&#45;&gt;Node61 -->
<g id="edge32" class="edge">
<title>Node2&#45;&gt;Node61</title>
<path fill="none" stroke="midnightblue" d="M917.86,-547.9C897.28,-571.68 856.53,-613.25 811,-629.5 715.26,-663.67 591.83,-631.49 538.05,-614.05"/>
<polygon fill="midnightblue" stroke="midnightblue" points="920.73,-549.92 924.5,-540.02 915.38,-545.41 920.73,-549.92"/>
</g>
<!-- Node146 -->
<g id="node26" class="node">
<title>Node146</title>
<g id="a_node26"><a xlink:href="classSetJoystick.html#aebf06091232daf15963e454e5fe7760f" target="_top" xlink:title=" ">
<polygon fill="white" stroke="black" points="650.5,-491.5 650.5,-521.5 792.5,-521.5 792.5,-491.5 650.5,-491.5"/>
<text text-anchor="start" x="658.5" y="-509.5" font-family="Helvetica,sans-Serif" font-size="10.00">SetJoystick::propogateSet</text>
<text text-anchor="middle" x="721.5" y="-498.5" font-family="Helvetica,sans-Serif" font-size="10.00">ButtonClick</text>
</a>
</g>
</g>
<!-- Node2&#45;&gt;Node146 -->
<g id="edge33" class="edge">
<title>Node2&#45;&gt;Node146</title>
<path fill="none" stroke="midnightblue" d="M849.82,-521.09C830.9,-518.92 810.96,-516.63 792.61,-514.53"/>
<polygon fill="midnightblue" stroke="midnightblue" points="849.57,-524.58 859.9,-522.24 850.37,-517.63 849.57,-524.58"/>
</g>
<!-- Node157 -->
<g id="node28" class="node">
<title>Node157</title>
<g id="a_node28"><a xlink:href="classJoyButton.html#afb5704003e2483ff61e142c7a7bd4699" target="_top" xlink:title=" ">
<polygon fill="white" stroke="black" points="651.5,-589.5 651.5,-619.5 791.5,-619.5 791.5,-589.5 651.5,-589.5"/>
<text text-anchor="start" x="659.5" y="-607.5" font-family="Helvetica,sans-Serif" font-size="10.00">JoyButton::startSequence</text>
<text text-anchor="middle" x="721.5" y="-596.5" font-family="Helvetica,sans-Serif" font-size="10.00">OfPressActive</text>
</a>
</g>
</g>
<!-- Node2&#45;&gt;Node157 -->
<g id="edge35" class="edge">
<title>Node2&#45;&gt;Node157</title>
<path fill="none" stroke="midnightblue" d="M901.53,-544.36C877.3,-555.06 842.39,-569.81 811,-580.5 801.81,-583.63 791.97,-586.63 782.32,-589.39"/>
<polygon fill="midnightblue" stroke="midnightblue" points="903.18,-547.45 910.89,-540.18 900.33,-541.06 903.18,-547.45"/>
</g>
<!-- Node158 -->
<g id="node29" class="node">
<title>Node158</title>
<g id="a_node29"><a xlink:href="classJoyButton.html#ab0ca3b9966d8da06279d2f347e42e78b" target="_top" xlink:title=" ">
<polygon fill="white" stroke="black" points="640,-540.5 640,-570.5 803,-570.5 803,-540.5 640,-540.5"/>
<text text-anchor="start" x="648" y="-558.5" font-family="Helvetica,sans-Serif" font-size="10.00">JoyButton::updateParamsAfter</text>
<text text-anchor="middle" x="721.5" y="-547.5" font-family="Helvetica,sans-Serif" font-size="10.00">DistEvent</text>
</a>
</g>
</g>
<!-- Node2&#45;&gt;Node158 -->
<g id="edge37" class="edge">
<title>Node2&#45;&gt;Node158</title>
<path fill="none" stroke="midnightblue" d="M849.95,-540.29C834.63,-542.12 818.63,-544.03 803.35,-545.85"/>
<polygon fill="midnightblue" stroke="midnightblue" points="850.39,-543.76 859.9,-539.1 849.56,-536.81 850.39,-543.76"/>
</g>
<!-- Node159 -->
<g id="node30" class="node">
<title>Node159</title>
<g id="a_node30"><a xlink:href="classMouseButtonSettingsDialog.html#a2f23599f16d802415aa8ea016341199b" target="_top" xlink:title=" ">
<polygon fill="white" stroke="black" points="632,-442.5 632,-472.5 811,-472.5 811,-442.5 632,-442.5"/>
<text text-anchor="start" x="640" y="-460.5" font-family="Helvetica,sans-Serif" font-size="10.00">MouseButtonSettingsDialog</text>
<text text-anchor="middle" x="721.5" y="-449.5" font-family="Helvetica,sans-Serif" font-size="10.00">::updateWindowTitleButtonName</text>
</a>
</g>
</g>
<!-- Node2&#45;&gt;Node159 -->
<g id="edge39" class="edge">
<title>Node2&#45;&gt;Node159</title>
<path fill="none" stroke="midnightblue" d="M900.56,-517C876.32,-506.85 841.85,-492.95 811,-482.5 800.72,-479.02 789.65,-475.62 778.95,-472.51"/>
<polygon fill="midnightblue" stroke="midnightblue" points="899.38,-520.3 909.95,-520.96 902.1,-513.85 899.38,-520.3"/>
</g>
<!-- Node161 -->
<g id="node32" class="node">
<title>Node161</title>
<g id="a_node32"><a xlink:href="classAdvanceButtonDialog.html#a371dbf9d2c49e736d8e7d8fba3739aff" target="_top" xlink:title=" ">
<polygon fill="white" stroke="black" points="632,-393.5 632,-423.5 811,-423.5 811,-393.5 632,-393.5"/>
<text text-anchor="start" x="640" y="-411.5" font-family="Helvetica,sans-Serif" font-size="10.00">AdvanceButtonDialog</text>
<text text-anchor="middle" x="721.5" y="-400.5" font-family="Helvetica,sans-Serif" font-size="10.00">::updateWindowTitleButtonName</text>
</a>
</g>
</g>
<!-- Node2&#45;&gt;Node161 -->
<g id="edge41" class="edge">
<title>Node2&#45;&gt;Node161</title>
<path fill="none" stroke="midnightblue" d="M915.74,-513.83C893.85,-492.29 852.78,-455.02 811,-433.5 803.62,-429.7 795.58,-426.41 787.47,-423.58"/>
<polygon fill="midnightblue" stroke="midnightblue" points="913.36,-516.4 922.91,-520.99 918.31,-511.45 913.36,-516.4"/>
</g>
<!-- Node163 -->
<g id="node34" class="node">
<title>Node163</title>
<g id="a_node34"><a xlink:href="classButtonEditDialog.html#a0057dab454e3f52eeab3e3ba1fd336e0" target="_top" xlink:title=" ">
<polygon fill="white" stroke="black" points="652,-344.5 652,-374.5 791,-374.5 791,-344.5 652,-344.5"/>
<text text-anchor="start" x="660" y="-362.5" font-family="Helvetica,sans-Serif" font-size="10.00">ButtonEditDialog::update</text>
<text text-anchor="middle" x="721.5" y="-351.5" font-family="Helvetica,sans-Serif" font-size="10.00">WindowTitleButtonName</text>
</a>
</g>
</g>
<!-- Node2&#45;&gt;Node163 -->
<g id="edge43" class="edge">
<title>Node2&#45;&gt;Node163</title>
<path fill="none" stroke="midnightblue" d="M921.81,-512.06C903.68,-480.97 862.78,-418.21 811,-384.5 804.84,-380.49 798.04,-377.12 791.03,-374.28"/>
<polygon fill="midnightblue" stroke="midnightblue" points="918.89,-514.01 926.89,-520.97 924.98,-510.54 918.89,-514.01"/>
</g>
<!-- Node5 -->
<g id="node5" class="node">
<title>Node5</title>
<g id="a_node5"><a xlink:href="classJoyTabWidget.html#a02c71b1d40a6b60dd5aff9b2bbbf210a" target="_top" xlink:title=" ">
<polygon fill="white" stroke="red" points="433,-944 433,-963 587,-963 587,-944 433,-944"/>
<text text-anchor="middle" x="510" y="-951" font-family="Helvetica,sans-Serif" font-size="10.00">JoyTabWidget::fillSetButtons</text>
</a>
</g>
</g>
<!-- Node4&#45;&gt;Node5 -->
<g id="edge4" class="edge">
<title>Node4&#45;&gt;Node5</title>
<path fill="none" stroke="midnightblue" d="M653.99,-694.58C646.07,-697.49 638.5,-701.36 632,-706.5 549.76,-771.49 519.59,-906.62 512.66,-943.83"/>
<polygon fill="midnightblue" stroke="midnightblue" points="655.29,-697.84 663.78,-691.49 653.19,-691.17 655.29,-697.84"/>
</g>
<!-- Node60 -->
<g id="node11" class="node">
<title>Node60</title>
<g id="a_node11"><a xlink:href="classJoyButtonWidget.html#a73f4114ba7e98c2cdeb7d3d0ea2629a2" target="_top" xlink:title=" ">
<polygon fill="white" stroke="black" points="436,-671.5 436,-701.5 584,-701.5 584,-671.5 436,-671.5"/>
<text text-anchor="start" x="444" y="-689.5" font-family="Helvetica,sans-Serif" font-size="10.00">JoyButtonWidget::generate</text>
<text text-anchor="middle" x="510" y="-678.5" font-family="Helvetica,sans-Serif" font-size="10.00">Label</text>
</a>
</g>
</g>
<!-- Node4&#45;&gt;Node60 -->
<g id="edge15" class="edge">
<title>Node4&#45;&gt;Node60</title>
<path fill="none" stroke="midnightblue" d="M653.53,-686.5C631.47,-686.5 606.81,-686.5 584.3,-686.5"/>
<polygon fill="midnightblue" stroke="midnightblue" points="653.81,-690 663.81,-686.5 653.81,-683 653.81,-690"/>
</g>
<!-- Node4&#45;&gt;Node61 -->
<g id="edge16" class="edge">
<title>Node4&#45;&gt;Node61</title>
<path fill="none" stroke="midnightblue" d="M669.31,-674.32C656.96,-670.91 643.89,-666.92 632,-662.5 594.01,-648.38 551.76,-626.66 528.6,-614.19"/>
<polygon fill="midnightblue" stroke="midnightblue" points="668.47,-677.72 679.03,-676.92 670.28,-670.95 668.47,-677.72"/>
</g>
<!-- Node6 -->
<g id="node6" class="node">
<title>Node6</title>
<g id="a_node6"><a xlink:href="classJoyTabWidget.html#a4db3576922612c949496c748af5be0ac" target="_top" xlink:title=" ">
<polygon fill="white" stroke="red" points="216,-1036.5 216,-1066.5 386,-1066.5 386,-1036.5 216,-1036.5"/>
<text text-anchor="start" x="224" y="-1054.5" font-family="Helvetica,sans-Serif" font-size="10.00">JoyTabWidget::checkAxisButton</text>
<text text-anchor="middle" x="301" y="-1043.5" font-family="Helvetica,sans-Serif" font-size="10.00">Display</text>
</a>
</g>
</g>
<!-- Node5&#45;&gt;Node6 -->
<g id="edge5" class="edge">
<title>Node5&#45;&gt;Node6</title>
<path fill="none" stroke="midnightblue" d="M477.84,-968.45C454.15,-983.08 420.23,-1004.47 388,-1018.5 371.09,-1025.86 351.31,-1031.57 335,-1036.47"/>
<polygon fill="midnightblue" stroke="midnightblue" points="479.7,-971.42 486.4,-963.21 476.04,-965.45 479.7,-971.42"/>
</g>
<!-- Node8 -->
<g id="node7" class="node">
<title>Node8</title>
<g id="a_node7"><a xlink:href="classJoyTabWidget.html#acbf83e52c8f201b76a32045252add763" target="_top" xlink:title=" ">
<polygon fill="white" stroke="red" points="216,-987.5 216,-1017.5 386,-1017.5 386,-987.5 216,-987.5"/>
<text text-anchor="start" x="224" y="-1005.5" font-family="Helvetica,sans-Serif" font-size="10.00">JoyTabWidget::checkAxisButton</text>
<text text-anchor="middle" x="301" y="-994.5" font-family="Helvetica,sans-Serif" font-size="10.00">EmptyDisplay</text>
</a>
</g>
</g>
<!-- Node5&#45;&gt;Node8 -->
<g id="edge7" class="edge">
<title>Node5&#45;&gt;Node8</title>
<path fill="none" stroke="midnightblue" d="M431.64,-965.26C401.28,-971.98 367.71,-980.29 342.34,-987.47"/>
<polygon fill="midnightblue" stroke="midnightblue" points="432.77,-968.59 441.79,-963.04 431.28,-961.75 432.77,-968.59"/>
</g>
<!-- Node9 -->
<g id="node8" class="node">
<title>Node9</title>
<g id="a_node8"><a xlink:href="classJoyTabWidget.html#a91ac7fc812883c76bf381f134cd3ca57" target="_top" xlink:title=" ">
<polygon fill="white" stroke="red" points="226.5,-938.5 226.5,-968.5 375.5,-968.5 375.5,-938.5 226.5,-938.5"/>
<text text-anchor="start" x="234.5" y="-956.5" font-family="Helvetica,sans-Serif" font-size="10.00">JoyTabWidget::checkButton</text>
<text text-anchor="middle" x="301" y="-945.5" font-family="Helvetica,sans-Serif" font-size="10.00">Display</text>
</a>
</g>
</g>
<!-- Node5&#45;&gt;Node9 -->
<g id="edge9" class="edge">
<title>Node5&#45;&gt;Node9</title>
<path fill="none" stroke="midnightblue" d="M422.63,-946.83C407,-946.68 390.84,-946.74 375.62,-947.01"/>
<polygon fill="midnightblue" stroke="midnightblue" points="422.76,-950.33 432.8,-946.96 422.85,-943.34 422.76,-950.33"/>
</g>
<!-- Node10 -->
<g id="node9" class="node">
<title>Node10</title>
<g id="a_node9"><a xlink:href="classJoyTabWidget.html#ae7b45dc0d9134f5232a0beecef644eef" target="_top" xlink:title=" ">
<polygon fill="white" stroke="red" points="226.5,-889.5 226.5,-919.5 375.5,-919.5 375.5,-889.5 226.5,-889.5"/>
<text text-anchor="start" x="234.5" y="-907.5" font-family="Helvetica,sans-Serif" font-size="10.00">JoyTabWidget::checkButton</text>
<text text-anchor="middle" x="301" y="-896.5" font-family="Helvetica,sans-Serif" font-size="10.00">EmptyDisplay</text>
</a>
</g>
</g>
<!-- Node5&#45;&gt;Node10 -->
<g id="edge11" class="edge">
<title>Node5&#45;&gt;Node10</title>
<path fill="none" stroke="midnightblue" d="M477.18,-940.94C450.24,-932.97 410.57,-923.1 375.79,-915.47"/>
<polygon fill="midnightblue" stroke="midnightblue" points="476.26,-944.31 486.85,-943.89 478.3,-937.62 476.26,-944.31"/>
</g>
<!-- Node11 -->
<g id="node10" class="node">
<title>Node11</title>
<g id="a_node10"><a xlink:href="classJoyTabWidget.html#af5593b7dc745abae81eec87d9c5ccde5" target="_top" xlink:title=" ">
<polygon fill="white" stroke="red" points="214,-840.5 214,-870.5 388,-870.5 388,-840.5 214,-840.5"/>
<text text-anchor="start" x="222" y="-858.5" font-family="Helvetica,sans-Serif" font-size="10.00">JoyTabWidget::checkDPadButton</text>
<text text-anchor="middle" x="301" y="-847.5" font-family="Helvetica,sans-Serif" font-size="10.00">Display</text>
</a>
</g>
</g>
<!-- Node5&#45;&gt;Node11 -->
<g id="edge13" class="edge">
<title>Node5&#45;&gt;Node11</title>
<path fill="none" stroke="midnightblue" d="M494.39,-937.14C472.31,-918.42 428.67,-889.32 388,-871.5 387.29,-871.19 386.57,-870.88 385.85,-870.57"/>
<polygon fill="midnightblue" stroke="midnightblue" points="492.22,-939.89 501.99,-943.99 496.91,-934.69 492.22,-939.89"/>
</g>
<!-- Node6&#45;&gt;Node5 -->
<g id="edge6" class="edge">
<title>Node6&#45;&gt;Node5</title>
<path fill="none" stroke="midnightblue" d="M395.58,-1033.03C440.57,-1011.87 485.19,-979.87 502.02,-963.12"/>
<polygon fill="midnightblue" stroke="midnightblue" points="393.95,-1029.92 386.28,-1037.24 396.84,-1036.3 393.95,-1029.92"/>
</g>
<!-- Node8&#45;&gt;Node5 -->
<g id="edge8" class="edge">
<title>Node8&#45;&gt;Node5</title>
<path fill="none" stroke="midnightblue" d="M396.09,-986.95C429.83,-979.14 464.92,-970.05 486.85,-963.11"/>
<polygon fill="midnightblue" stroke="midnightblue" points="395.12,-983.58 386.15,-989.22 396.68,-990.41 395.12,-983.58"/>
</g>
<!-- Node9&#45;&gt;Node5 -->
<g id="edge10" class="edge">
<title>Node9&#45;&gt;Node5</title>
<path fill="none" stroke="midnightblue" d="M385.74,-960.14C401.3,-960.32 417.48,-960.28 432.8,-960.04"/>
<polygon fill="midnightblue" stroke="midnightblue" points="385.67,-956.64 375.62,-959.99 385.57,-963.64 385.67,-956.64"/>
</g>
<!-- Node10&#45;&gt;Node5 -->
<g id="edge12" class="edge">
<title>Node10&#45;&gt;Node5</title>
<path fill="none" stroke="midnightblue" d="M352.31,-922.29C379.21,-929.62 412.69,-937.71 441.79,-943.96"/>
<polygon fill="midnightblue" stroke="midnightblue" points="352.92,-918.83 342.34,-919.53 351.04,-925.58 352.92,-918.83"/>
</g>
<!-- Node11&#45;&gt;Node5 -->
<g id="edge14" class="edge">
<title>Node11&#45;&gt;Node5</title>
<path fill="none" stroke="midnightblue" d="M343.05,-873.56C357.54,-878.09 373.77,-883.27 388,-889.5 423.96,-905.25 462.23,-929.83 485.88,-943.85"/>
<polygon fill="midnightblue" stroke="midnightblue" points="343.92,-870.17 333.33,-870.52 341.83,-876.85 343.92,-870.17"/>
</g>
<!-- Node62 -->
<g id="node13" class="node">
<title>Node62</title>
<g id="a_node13"><a xlink:href="classJoyButton.html#a4acc0f1d2e12a34874522f558e1e9d3f" target="_top" xlink:title=" ">
<polygon fill="white" stroke="red" points="226.5,-791.5 226.5,-821.5 375.5,-821.5 375.5,-791.5 226.5,-791.5"/>
<text text-anchor="start" x="234.5" y="-809.5" font-family="Helvetica,sans-Serif" font-size="10.00">JoyButton::activatePending</text>
<text text-anchor="middle" x="301" y="-798.5" font-family="Helvetica,sans-Serif" font-size="10.00">Event</text>
</a>
</g>
</g>
<!-- Node61&#45;&gt;Node62 -->
<g id="edge17" class="edge">
<title>Node61&#45;&gt;Node62</title>
<path fill="none" stroke="midnightblue" d="M478.31,-618.76C460.11,-628.66 437.95,-643.49 424,-662.5 391.32,-707.05 427.28,-742.64 388,-781.5 384.13,-785.33 379.71,-788.58 374.97,-791.33"/>
<polygon fill="midnightblue" stroke="midnightblue" points="480.14,-621.75 487.4,-614.03 476.91,-615.54 480.14,-621.75"/>
</g>
<!-- Node90 -->
<g id="node14" class="node">
<title>Node90</title>
<g id="a_node14"><a xlink:href="classJoySensor.html#aafd5dae106262d6040b720be271cf800" target="_top" xlink:title="Find the position of the three sensor axes, deactivate no longer used sensor direction button and the...">
<polygon fill="white" stroke="red" points="224,-753 224,-772 378,-772 378,-753 224,-753"/>
<text text-anchor="middle" x="301" y="-760" font-family="Helvetica,sans-Serif" font-size="10.00">JoySensor::createDeskEvent</text>
</a>
</g>
</g>
<!-- Node61&#45;&gt;Node90 -->
<g id="edge18" class="edge">
<title>Node61&#45;&gt;Node90</title>
<path fill="none" stroke="midnightblue" d="M479.81,-619.01C461.8,-629.15 439.3,-644.16 424,-662.5 398.77,-692.75 418.51,-718.58 388,-743.5 383.38,-747.27 378.17,-750.34 372.67,-752.82"/>
<polygon fill="midnightblue" stroke="midnightblue" points="481.64,-622 488.76,-614.15 478.3,-615.84 481.64,-622"/>
</g>
<!-- Node96 -->
<g id="node15" class="node">
<title>Node96</title>
<g id="a_node15"><a xlink:href="classJoyDPad.html#a1f5c5db45f36b205d1c4a43f1616950a" target="_top" xlink:title=" ">
<polygon fill="white" stroke="red" points="228,-715 228,-734 374,-734 374,-715 228,-715"/>
<text text-anchor="middle" x="301" y="-722" font-family="Helvetica,sans-Serif" font-size="10.00">JoyDPad::createDeskEvent</text>
</a>
</g>
</g>
<!-- Node61&#45;&gt;Node96 -->
<g id="edge19" class="edge">
<title>Node61&#45;&gt;Node96</title>
<path fill="none" stroke="midnightblue" d="M483.42,-619.37C465.81,-630.2 442.37,-645.85 424,-662.5 405.53,-679.24 409.31,-692.57 388,-705.5 381.6,-709.39 374.49,-712.48 367.19,-714.95"/>
<polygon fill="midnightblue" stroke="midnightblue" points="485.29,-622.33 492.04,-614.16 481.67,-616.34 485.29,-622.33"/>
</g>
<!-- Node117 -->
<g id="node16" class="node">
<title>Node117</title>
<g id="a_node16"><a xlink:href="classJoyAxis.html#a0e85739f3da15defbb1ad9ffb7def2d9" target="_top" xlink:title=" ">
<polygon fill="white" stroke="red" points="230,-677 230,-696 372,-696 372,-677 230,-677"/>
<text text-anchor="middle" x="301" y="-684" font-family="Helvetica,sans-Serif" font-size="10.00">JoyAxis::createDeskEvent</text>
</a>
</g>
</g>
<!-- Node61&#45;&gt;Node117 -->
<g id="edge20" class="edge">
<title>Node61&#45;&gt;Node117</title>
<path fill="none" stroke="midnightblue" d="M482.49,-618.87C458.36,-631.55 421.5,-649.91 388,-662.5 373.2,-668.06 356.54,-673 341.85,-676.93"/>
<polygon fill="midnightblue" stroke="midnightblue" points="484.19,-621.93 491.39,-614.15 480.91,-615.74 484.19,-621.93"/>
</g>
<!-- Node121 -->
<g id="node17" class="node">
<title>Node121</title>
<g id="a_node17"><a xlink:href="classJoyControlStick.html#a18e586ffa9f2fc09004dd1ebc895b3a8" target="_top" xlink:title="Find the position of the two stick axes, deactivate no longer used stick direction button and then ac...">
<polygon fill="white" stroke="red" points="13,-589.5 13,-619.5 165,-619.5 165,-589.5 13,-589.5"/>
<text text-anchor="start" x="21" y="-607.5" font-family="Helvetica,sans-Serif" font-size="10.00">JoyControlStick::createDesk</text>
<text text-anchor="middle" x="89" y="-596.5" font-family="Helvetica,sans-Serif" font-size="10.00">Event</text>
</a>
</g>
</g>
<!-- Node61&#45;&gt;Node121 -->
<g id="edge21" class="edge">
<title>Node61&#45;&gt;Node121</title>
<path fill="none" stroke="midnightblue" d="M462.84,-616.34C440.42,-621.5 412.98,-626.95 388,-629.5 311.07,-637.36 290.95,-637.18 214,-629.5 193.68,-627.47 171.76,-623.62 152.08,-619.53"/>
<polygon fill="midnightblue" stroke="midnightblue" points="463.84,-619.7 472.77,-614 462.23,-612.89 463.84,-619.7"/>
</g>
<!-- Node129 -->
<g id="node18" class="node">
<title>Node129</title>
<g id="a_node18"><a xlink:href="classJoyControlStick.html#a0bd5c24e572f9485780820d54f755b88" target="_top" xlink:title="Activate a stick direction button.">
<polygon fill="white" stroke="black" points="233,-589.5 233,-619.5 369,-619.5 369,-589.5 233,-589.5"/>
<text text-anchor="start" x="241" y="-607.5" font-family="Helvetica,sans-Serif" font-size="10.00">JoyControlStick::perform</text>
<text text-anchor="middle" x="301" y="-596.5" font-family="Helvetica,sans-Serif" font-size="10.00">ButtonPress</text>
</a>
</g>
</g>
<!-- Node61&#45;&gt;Node129 -->
<g id="edge22" class="edge">
<title>Node61&#45;&gt;Node129</title>
<path fill="none" stroke="midnightblue" d="M443.02,-604.5C419.47,-604.5 392.93,-604.5 369.27,-604.5"/>
<polygon fill="midnightblue" stroke="midnightblue" points="443.26,-608 453.26,-604.5 443.26,-601 443.26,-608"/>
</g>
<!-- Node130 -->
<g id="node19" class="node">
<title>Node130</title>
<g id="a_node19"><a xlink:href="classJoyControlStick.html#a32b6c7a796ec7b24e9c0124a6bcffd2e" target="_top" xlink:title="Stick direction button to release.">
<polygon fill="white" stroke="black" points="233,-540.5 233,-570.5 369,-570.5 369,-540.5 233,-540.5"/>
<text text-anchor="start" x="241" y="-558.5" font-family="Helvetica,sans-Serif" font-size="10.00">JoyControlStick::perform</text>
<text text-anchor="middle" x="301" y="-547.5" font-family="Helvetica,sans-Serif" font-size="10.00">ButtonRelease</text>
</a>
</g>
</g>
<!-- Node61&#45;&gt;Node130 -->
<g id="edge24" class="edge">
<title>Node61&#45;&gt;Node130</title>
<path fill="none" stroke="midnightblue" d="M458.62,-592.57C430.58,-585.94 395.42,-577.61 365.52,-570.54"/>
<polygon fill="midnightblue" stroke="midnightblue" points="458.06,-596.04 468.6,-594.94 459.67,-589.23 458.06,-596.04"/>
</g>
<!-- Node107 -->
<g id="node20" class="node">
<title>Node107</title>
<g id="a_node20"><a xlink:href="classSetJoystick.html#aa93108aaa5ccbf15f1b56b22ec73798b" target="_top" xlink:title="Perform a release of all elements of a set. Stick and vdpad releases will be handled by the associate...">
<polygon fill="white" stroke="red" points="244.5,-502 244.5,-521 357.5,-521 357.5,-502 244.5,-502"/>
<text text-anchor="middle" x="301" y="-509" font-family="Helvetica,sans-Serif" font-size="10.00">SetJoystick::release</text>
</a>
</g>
</g>
<!-- Node61&#45;&gt;Node107 -->
<g id="edge26" class="edge">
<title>Node61&#45;&gt;Node107</title>
<path fill="none" stroke="midnightblue" d="M487.88,-588.92C464.55,-572.4 425.33,-546.65 388,-531.5 377.63,-527.29 366.18,-523.86 355.11,-521.1"/>
<polygon fill="midnightblue" stroke="midnightblue" points="486.13,-591.97 496.29,-594.96 490.21,-586.28 486.13,-591.97"/>
</g>
<!-- Node131 -->
<g id="node22" class="node">
<title>Node131</title>
<g id="a_node22"><a xlink:href="classJoyDPad.html#aa20b65bef79d9e80894a9be835b441c1" target="_top" xlink:title=" ">
<polygon fill="white" stroke="red" points="219,-464 219,-483 383,-483 383,-464 219,-464"/>
<text text-anchor="middle" x="301" y="-471" font-family="Helvetica,sans-Serif" font-size="10.00">JoyDPad::releaseButtonEvents</text>
</a>
</g>
</g>
<!-- Node61&#45;&gt;Node131 -->
<g id="edge28" class="edge">
<title>Node61&#45;&gt;Node131</title>
<path fill="none" stroke="midnightblue" d="M489.18,-588.58C471.59,-574.19 445.41,-552.16 424,-531.5 407.02,-515.12 408.45,-504.25 388,-492.5 381.24,-488.62 373.76,-485.52 366.11,-483.07"/>
<polygon fill="midnightblue" stroke="midnightblue" points="487.11,-591.41 497.08,-594.99 491.52,-585.97 487.11,-591.41"/>
</g>
<!-- Node134 -->
<g id="node23" class="node">
<title>Node134</title>
<g id="a_node23"><a xlink:href="classJoyControlStick.html#a295a9b9b1a5c4d3a49c9d9697a9527e0" target="_top" xlink:title=" ">
<polygon fill="white" stroke="red" points="234.5,-414.5 234.5,-444.5 367.5,-444.5 367.5,-414.5 234.5,-414.5"/>
<text text-anchor="start" x="242.5" y="-432.5" font-family="Helvetica,sans-Serif" font-size="10.00">JoyControlStick::release</text>
<text text-anchor="middle" x="301" y="-421.5" font-family="Helvetica,sans-Serif" font-size="10.00">ButtonEvents</text>
</a>
</g>
</g>
<!-- Node61&#45;&gt;Node134 -->
<g id="edge29" class="edge">
<title>Node61&#45;&gt;Node134</title>
<path fill="none" stroke="midnightblue" d="M486.18,-589.1C467.56,-575.63 441.56,-554.64 424,-531.5 401.16,-501.41 416.69,-479.07 388,-454.5 381.98,-449.34 374.94,-445.25 367.53,-442"/>
<polygon fill="midnightblue" stroke="midnightblue" points="484.22,-592 494.41,-594.91 488.26,-586.28 484.22,-592"/>
</g>
<!-- Node144 -->
<g id="node24" class="node">
<title>Node144</title>
<g id="a_node24"><a xlink:href="classJoyAxis.html#a8df3e761cbf9876ab5a3db30c1a02fc3" target="_top" xlink:title=" ">
<polygon fill="white" stroke="red" points="234.5,-376 234.5,-395 367.5,-395 367.5,-376 234.5,-376"/>
<text text-anchor="middle" x="301" y="-383" font-family="Helvetica,sans-Serif" font-size="10.00">JoyAxis::removeVDPads</text>
</a>
</g>
</g>
<!-- Node61&#45;&gt;Node144 -->
<g id="edge30" class="edge">
<title>Node61&#45;&gt;Node144</title>
<path fill="none" stroke="midnightblue" d="M484.52,-589.33C465.38,-576.25 439.49,-555.68 424,-531.5 392.58,-482.46 430.2,-445.64 388,-405.5 382.23,-400.01 375.25,-395.92 367.79,-392.89"/>
<polygon fill="midnightblue" stroke="midnightblue" points="482.77,-592.37 493.04,-594.96 486.64,-586.53 482.77,-592.37"/>
</g>
<!-- Node145 -->
<g id="node25" class="node">
<title>Node145</title>
<g id="a_node25"><a xlink:href="classJoyButton.html#ad152d22f7f7d8ea561f363d43903e059" target="_top" xlink:title=" ">
<polygon fill="white" stroke="red" points="243,-338 243,-357 359,-357 359,-338 243,-338"/>
<text text-anchor="middle" x="301" y="-345" font-family="Helvetica,sans-Serif" font-size="10.00">JoyButton::setVDPad</text>
</a>
</g>
</g>
<!-- Node61&#45;&gt;Node145 -->
<g id="edge31" class="edge">
<title>Node61&#45;&gt;Node145</title>
<path fill="none" stroke="midnightblue" d="M483.77,-589.36C464.42,-576.41 438.63,-556.01 424,-531.5 385.54,-467.04 441,-419.64 388,-366.5 380.23,-358.71 370.02,-353.79 359.37,-350.76"/>
<polygon fill="midnightblue" stroke="midnightblue" points="482.1,-592.45 492.4,-594.93 485.9,-586.57 482.1,-592.45"/>
</g>
<!-- Node129&#45;&gt;Node121 -->
<g id="edge23" class="edge">
<title>Node129&#45;&gt;Node121</title>
<path fill="none" stroke="midnightblue" d="M222.95,-604.5C204.08,-604.5 183.91,-604.5 165.13,-604.5"/>
<polygon fill="midnightblue" stroke="midnightblue" points="222.98,-608 232.98,-604.5 222.98,-601 222.98,-608"/>
</g>
<!-- Node130&#45;&gt;Node121 -->
<g id="edge25" class="edge">
<title>Node130&#45;&gt;Node121</title>
<path fill="none" stroke="midnightblue" d="M225.72,-572.83C202.41,-578.27 176.88,-584.23 154.31,-589.49"/>
<polygon fill="midnightblue" stroke="midnightblue" points="226.62,-576.22 235.57,-570.53 225.03,-569.4 226.62,-576.22"/>
</g>
<!-- Node108 -->
<g id="node21" class="node">
<title>Node108</title>
<g id="a_node21"><a xlink:href="classAdvanceStickAssignmentDialog.html#a86cf0001cd774ce5ccec8543b7a9a50b" target="_top" xlink:title=" ">
<polygon fill="white" stroke="black" points="0,-395.5 0,-425.5 178,-425.5 178,-395.5 0,-395.5"/>
<text text-anchor="start" x="8" y="-413.5" font-family="Helvetica,sans-Serif" font-size="10.00">AdvanceStickAssignmentDialog</text>
<text text-anchor="middle" x="89" y="-402.5" font-family="Helvetica,sans-Serif" font-size="10.00">::AdvanceStickAssignmentDialog</text>
</a>
</g>
</g>
<!-- Node107&#45;&gt;Node108 -->
<g id="edge27" class="edge">
<title>Node107&#45;&gt;Node108</title>
<path fill="none" stroke="midnightblue" d="M234.75,-499.76C227.63,-497.69 220.58,-495.29 214,-492.5 173.13,-475.18 131.2,-444.12 108.09,-425.6"/>
<polygon fill="midnightblue" stroke="midnightblue" points="233.9,-503.16 244.47,-502.37 235.72,-496.4 233.9,-503.16"/>
</g>
<!-- Node147 -->
<g id="node27" class="node">
<title>Node147</title>
<g id="a_node27"><a xlink:href="classSetJoystick.html#a35a6e4800b346b637eba5a66345e73ee" target="_top" xlink:title=" ">
<polygon fill="white" stroke="red" points="439,-491.5 439,-521.5 581,-521.5 581,-491.5 439,-491.5"/>
<text text-anchor="start" x="447" y="-509.5" font-family="Helvetica,sans-Serif" font-size="10.00">SetJoystick::enableButton</text>
<text text-anchor="middle" x="510" y="-498.5" font-family="Helvetica,sans-Serif" font-size="10.00">Connections</text>
</a>
</g>
</g>
<!-- Node146&#45;&gt;Node147 -->
<g id="edge34" class="edge">
<title>Node146&#45;&gt;Node147</title>
<path fill="none" stroke="midnightblue" d="M640.4,-506.5C620.95,-506.5 600.3,-506.5 581.34,-506.5"/>
<polygon fill="midnightblue" stroke="midnightblue" points="640.45,-510 650.45,-506.5 640.45,-503 640.45,-510"/>
</g>
<!-- Node157&#45;&gt;Node61 -->
<g id="edge36" class="edge">
<title>Node157&#45;&gt;Node61</title>
<path fill="none" stroke="midnightblue" d="M641.17,-604.5C616.3,-604.5 589.39,-604.5 566.53,-604.5"/>
<polygon fill="midnightblue" stroke="midnightblue" points="641.32,-608 651.32,-604.5 641.32,-601 641.32,-608"/>
</g>
<!-- Node158&#45;&gt;Node61 -->
<g id="edge38" class="edge">
<title>Node158&#45;&gt;Node61</title>
<path fill="none" stroke="midnightblue" d="M646.07,-572.91C614.32,-580.33 578.51,-588.71 551.74,-594.97"/>
<polygon fill="midnightblue" stroke="midnightblue" points="647.28,-576.22 656.22,-570.53 645.69,-569.4 647.28,-576.22"/>
</g>
<!-- Node160 -->
<g id="node31" class="node">
<title>Node160</title>
<g id="a_node31"><a xlink:href="classMouseButtonSettingsDialog.html#a181bfdf388907056ec492d58d85f5d34" target="_top" xlink:title=" ">
<polygon fill="white" stroke="black" points="431,-442.5 431,-472.5 589,-472.5 589,-442.5 431,-442.5"/>
<text text-anchor="start" x="439" y="-460.5" font-family="Helvetica,sans-Serif" font-size="10.00">MouseButtonSettingsDialog</text>
<text text-anchor="middle" x="510" y="-449.5" font-family="Helvetica,sans-Serif" font-size="10.00">::MouseButtonSettingsDialog</text>
</a>
</g>
</g>
<!-- Node159&#45;&gt;Node160 -->
<g id="edge40" class="edge">
<title>Node159&#45;&gt;Node160</title>
<path fill="none" stroke="midnightblue" d="M621.93,-457.5C610.97,-457.5 599.92,-457.5 589.26,-457.5"/>
<polygon fill="midnightblue" stroke="midnightblue" points="621.96,-461 631.96,-457.5 621.96,-454 621.96,-461"/>
</g>
<!-- Node162 -->
<g id="node33" class="node">
<title>Node162</title>
<g id="a_node33"><a xlink:href="classAdvanceButtonDialog.html#a4f9a1a007f50de1c3cca1403d08a0790" target="_top" xlink:title=" ">
<polygon fill="white" stroke="black" points="446,-393.5 446,-423.5 574,-423.5 574,-393.5 446,-393.5"/>
<text text-anchor="start" x="454" y="-411.5" font-family="Helvetica,sans-Serif" font-size="10.00">AdvanceButtonDialog</text>
<text text-anchor="middle" x="510" y="-400.5" font-family="Helvetica,sans-Serif" font-size="10.00">::AdvanceButtonDialog</text>
</a>
</g>
</g>
<!-- Node161&#45;&gt;Node162 -->
<g id="edge42" class="edge">
<title>Node161&#45;&gt;Node162</title>
<path fill="none" stroke="midnightblue" d="M621.88,-408.5C605.64,-408.5 589.2,-408.5 574.14,-408.5"/>
<polygon fill="midnightblue" stroke="midnightblue" points="621.96,-412 631.96,-408.5 621.96,-405 621.96,-412"/>
</g>
<!-- Node164 -->
<g id="node35" class="node">
<title>Node164</title>
<g id="a_node35"><a xlink:href="classButtonEditDialog.html#a82f6d5a24f90b015034e1a3985c410b8" target="_top" xlink:title=" ">
<polygon fill="white" stroke="red" points="440,-344.5 440,-374.5 580,-374.5 580,-344.5 440,-344.5"/>
<text text-anchor="start" x="448" y="-362.5" font-family="Helvetica,sans-Serif" font-size="10.00">ButtonEditDialog::refresh</text>
<text text-anchor="middle" x="510" y="-351.5" font-family="Helvetica,sans-Serif" font-size="10.00">ForLastBtn</text>
</a>
</g>
</g>
<!-- Node163&#45;&gt;Node164 -->
<g id="edge44" class="edge">
<title>Node163&#45;&gt;Node164</title>
<path fill="none" stroke="midnightblue" d="M641.76,-359.5C621.5,-359.5 599.85,-359.5 580.11,-359.5"/>
<polygon fill="midnightblue" stroke="midnightblue" points="641.9,-363 651.9,-359.5 641.9,-356 641.9,-363"/>
</g>
<!-- Node178 -->
<g id="node38" class="node">
<title>Node178</title>
<g id="a_node38"><a xlink:href="classAdvanceStickAssignmentDialog.html#a2c866fcfc9b377d6cabdd4b0f7f4e824" target="_top" xlink:title=" ">
<polygon fill="white" stroke="black" points="424,-295.5 424,-325.5 596,-325.5 596,-295.5 424,-295.5"/>
<text text-anchor="start" x="432" y="-313.5" font-family="Helvetica,sans-Serif" font-size="10.00">AdvanceStickAssignmentDialog</text>
<text text-anchor="middle" x="510" y="-302.5" font-family="Helvetica,sans-Serif" font-size="10.00">::refreshVDPadsConfiguration</text>
</a>
</g>
</g>
<!-- Node177&#45;&gt;Node178 -->
<g id="edge47" class="edge">
<title>Node177&#45;&gt;Node178</title>
<path fill="none" stroke="midnightblue" d="M856,-239.95C852.88,-241.65 849.86,-243.5 847,-245.5 824.88,-261.02 834.78,-281.66 811,-294.5 745.26,-330.01 659.16,-330.79 596.06,-324.59"/>
<polygon fill="midnightblue" stroke="midnightblue" points="857.61,-243.06 865.07,-235.54 854.55,-236.77 857.61,-243.06"/>
</g>
<!-- Node178&#45;&gt;Node108 -->
<g id="edge48" class="edge">
<title>Node178&#45;&gt;Node108</title>
<path fill="none" stroke="midnightblue" d="M413.77,-303.97C354.78,-302.91 278.29,-307.01 214,-328.5 171.16,-342.82 128.95,-375.88 106.52,-395.37"/>
<polygon fill="midnightblue" stroke="midnightblue" points="413.75,-307.47 423.82,-304.2 413.91,-300.47 413.75,-307.47"/>
</g>
<!-- Node180 -->
<g id="node40" class="node">
<title>Node180</title>
<g id="a_node40"><a xlink:href="classGameControllerTriggerXml.html#a382a32a139351f790192dc0991dea637" target="_top" xlink:title=" ">
<polygon fill="white" stroke="black" points="648.5,-254.5 648.5,-284.5 794.5,-284.5 794.5,-254.5 648.5,-254.5"/>
<text text-anchor="start" x="656.5" y="-272.5" font-family="Helvetica,sans-Serif" font-size="10.00">GameControllerTriggerXml</text>
<text text-anchor="middle" x="721.5" y="-261.5" font-family="Helvetica,sans-Serif" font-size="10.00">::writeConfig</text>
</a>
</g>
</g>
<!-- Node179&#45;&gt;Node180 -->
<g id="edge50" class="edge">
<title>Node179&#45;&gt;Node180</title>
<path fill="none" stroke="midnightblue" d="M859.13,-189.86C854.88,-191.79 850.8,-193.99 847,-196.5 824.46,-211.4 833.29,-230.22 811,-245.5 806.01,-248.92 800.55,-251.85 794.87,-254.37"/>
<polygon fill="midnightblue" stroke="midnightblue" points="860.63,-193.03 868.62,-186.08 858.04,-186.53 860.63,-193.03"/>
</g>
<!-- Node181 -->
<g id="node41" class="node">
<title>Node181</title>
<g id="a_node41"><a xlink:href="classJoyDPadXml.html#ac78c8fd1ad107f6a3baed4910863cb0c" target="_top" xlink:title=" ">
<polygon fill="white" stroke="black" points="639.5,-205.5 639.5,-235.5 803.5,-235.5 803.5,-205.5 639.5,-205.5"/>
<text text-anchor="start" x="647.5" y="-223.5" font-family="Helvetica,sans-Serif" font-size="10.00">JoyDPadXml&lt; GameController</text>
<text text-anchor="middle" x="721.5" y="-212.5" font-family="Helvetica,sans-Serif" font-size="10.00">DPad &gt;::writeConfig</text>
</a>
</g>
</g>
<!-- Node179&#45;&gt;Node181 -->
<g id="edge51" class="edge">
<title>Node179&#45;&gt;Node181</title>
<path fill="none" stroke="midnightblue" d="M876.43,-188.17C851.23,-193.46 821.11,-199.79 794.23,-205.43"/>
<polygon fill="midnightblue" stroke="midnightblue" points="877.47,-191.53 886.54,-186.05 876.04,-184.68 877.47,-191.53"/>
</g>
<!-- Node182 -->
<g id="node42" class="node">
<title>Node182</title>
<g id="a_node42"><a xlink:href="classSetJoystickXml.html#a11eec051c05deac5ebe47b9582e83b6f" target="_top" xlink:title="Serializes a SetJoystick object into the the given XML stream.">
<polygon fill="white" stroke="black" points="645.5,-167 645.5,-186 797.5,-186 797.5,-167 645.5,-167"/>
<text text-anchor="middle" x="721.5" y="-174" font-family="Helvetica,sans-Serif" font-size="10.00">SetJoystickXml::writeConfig</text>
</a>
</g>
</g>
<!-- Node179&#45;&gt;Node182 -->
<g id="edge52" class="edge">
<title>Node179&#45;&gt;Node182</title>
<path fill="none" stroke="midnightblue" d="M850.38,-176.5C833,-176.5 814.74,-176.5 797.62,-176.5"/>
<polygon fill="midnightblue" stroke="midnightblue" points="850.49,-180 860.49,-176.5 850.49,-173 850.49,-180"/>
</g>
<!-- Node183 -->
<g id="node43" class="node">
<title>Node183</title>
<g id="a_node43"><a xlink:href="classJoySensor.html#a92d38c3baf6dc85d28d66e7a7df4b4c3" target="_top" xlink:title="Write the status of the properties of a sensor and direction buttons to an XML stream.">
<polygon fill="white" stroke="black" points="658.5,-129 658.5,-148 784.5,-148 784.5,-129 658.5,-129"/>
<text text-anchor="middle" x="721.5" y="-136" font-family="Helvetica,sans-Serif" font-size="10.00">JoySensor::writeConfig</text>
</a>
</g>
</g>
<!-- Node179&#45;&gt;Node183 -->
<g id="edge53" class="edge">
<title>Node179&#45;&gt;Node183</title>
<path fill="none" stroke="midnightblue" d="M869.44,-165.15C839.38,-159.7 803.76,-153.24 775.12,-148.04"/>
<polygon fill="midnightblue" stroke="midnightblue" points="868.94,-168.62 879.4,-166.96 870.19,-161.73 868.94,-168.62"/>
</g>
<!-- Node184 -->
<g id="node44" class="node">
<title>Node184</title>
<g id="a_node44"><a xlink:href="classJoyControlStick.html#a3ab1764a44e806d2d3896023f82fa3b1" target="_top" xlink:title="Write the status of the properties of a stick and direction buttons to an XML stream.">
<polygon fill="white" stroke="black" points="645.5,-91 645.5,-110 797.5,-110 797.5,-91 645.5,-91"/>
<text text-anchor="middle" x="721.5" y="-98" font-family="Helvetica,sans-Serif" font-size="10.00">JoyControlStick::writeConfig</text>
</a>
</g>
</g>
<!-- Node179&#45;&gt;Node184 -->
<g id="edge54" class="edge">
<title>Node179&#45;&gt;Node184</title>
<path fill="none" stroke="midnightblue" d="M899.99,-162.78C883.96,-155.76 864.33,-146.94 847,-138.5 830.73,-130.58 828,-125.68 811,-119.5 800.66,-115.74 789.36,-112.62 778.39,-110.07"/>
<polygon fill="midnightblue" stroke="midnightblue" points="898.88,-166.11 909.45,-166.89 901.67,-159.69 898.88,-166.11"/>
</g>
<!-- Node186 -->
<g id="node46" class="node">
<title>Node186</title>
<g id="a_node46"><a xlink:href="classXMLConfigWriter.html#aacd0a3991eedf223f3586d33559903d4" target="_top" xlink:title="Write input device config from the current object into XML file.">
<polygon fill="white" stroke="black" points="657,-53 657,-72 786,-72 786,-53 657,-53"/>
<text text-anchor="middle" x="721.5" y="-60" font-family="Helvetica,sans-Serif" font-size="10.00">XMLConfigWriter::write</text>
</a>
</g>
</g>
<!-- Node185&#45;&gt;Node186 -->
<g id="edge56" class="edge">
<title>Node185&#45;&gt;Node186</title>
<path fill="none" stroke="midnightblue" d="M894.18,-106.63C870.45,-98.8 839.13,-88.92 811,-81.5 798.08,-78.09 783.99,-74.85 770.92,-72.05"/>
<polygon fill="midnightblue" stroke="midnightblue" points="893.26,-110.01 903.86,-109.85 895.47,-103.37 893.26,-110.01"/>
</g>
<!-- Node187 -->
<g id="node47" class="node">
<title>Node187</title>
<g id="a_node47"><a xlink:href="classJoyTabWidgetHelper.html#ad1754369989cbe4a3e10c8c01e3fb89b" target="_top" xlink:title="XML write entry point for the GUI.">
<polygon fill="white" stroke="black" points="452.5,-49.5 452.5,-79.5 567.5,-79.5 567.5,-49.5 452.5,-49.5"/>
<text text-anchor="start" x="460.5" y="-67.5" font-family="Helvetica,sans-Serif" font-size="10.00">JoyTabWidgetHelper</text>
<text text-anchor="middle" x="510" y="-56.5" font-family="Helvetica,sans-Serif" font-size="10.00">::writeConfigFile</text>
</a>
</g>
</g>
<!-- Node186&#45;&gt;Node187 -->
<g id="edge57" class="edge">
<title>Node186&#45;&gt;Node187</title>
<path fill="none" stroke="midnightblue" d="M646.62,-63.21C620.68,-63.45 591.96,-63.73 567.65,-63.96"/>
<polygon fill="midnightblue" stroke="midnightblue" points="646.82,-66.7 656.79,-63.11 646.76,-59.7 646.82,-66.7"/>
</g>
<!-- Node189 -->
<g id="node49" class="node">
<title>Node189</title>
<g id="a_node49"><a xlink:href="classGameControllerXml.html#a43ba30d58802f57ca877b5c85ec1e018" target="_top" xlink:title=" ">
<polygon fill="white" stroke="black" points="662,-2.5 662,-32.5 781,-32.5 781,-2.5 662,-2.5"/>
<text text-anchor="start" x="670" y="-20.5" font-family="Helvetica,sans-Serif" font-size="10.00">GameControllerXml::</text>
<text text-anchor="middle" x="721.5" y="-9.5" font-family="Helvetica,sans-Serif" font-size="10.00">writeXmlForAxes</text>
</a>
</g>
</g>
<!-- Node188&#45;&gt;Node189 -->
<g id="edge59" class="edge">
<title>Node188&#45;&gt;Node189</title>
<path fill="none" stroke="midnightblue" d="M863.37,-30.95C836.78,-28.41 806.67,-25.53 781.12,-23.1"/>
<polygon fill="midnightblue" stroke="midnightblue" points="863.08,-34.44 873.36,-31.9 863.74,-27.47 863.08,-34.44"/>
</g>
<!-- Node190 -->
<g id="node50" class="node">
<title>Node190</title>
<g id="a_node50"><a xlink:href="classGameControllerXml.html#ac87bc51a0dcdb01143d969a732b5188f" target="_top" xlink:title="Serializes a GameController object into the the given XML stream.">
<polygon fill="white" stroke="black" points="450.5,-0.5 450.5,-30.5 569.5,-30.5 569.5,-0.5 450.5,-0.5"/>
<text text-anchor="start" x="458.5" y="-18.5" font-family="Helvetica,sans-Serif" font-size="10.00">GameControllerXml::</text>
<text text-anchor="middle" x="510" y="-7.5" font-family="Helvetica,sans-Serif" font-size="10.00">writeConfig</text>
</a>
</g>
</g>
<!-- Node189&#45;&gt;Node190 -->
<g id="edge60" class="edge">
<title>Node189&#45;&gt;Node190</title>
<path fill="none" stroke="midnightblue" d="M651.51,-16.84C625.02,-16.59 595.05,-16.3 569.62,-16.06"/>
<polygon fill="midnightblue" stroke="midnightblue" points="651.83,-20.34 661.86,-16.94 651.9,-13.34 651.83,-20.34"/>
</g>
</g>
</svg>
