<?xml version="1.0" encoding="UTF-8" standalone="no"?>
<!DOCTYPE svg PUBLIC "-//W3C//DTD SVG 1.1//EN"
 "http://www.w3.org/Graphics/SVG/1.1/DTD/svg11.dtd">
<!-- Generated by graphviz version 2.43.0 (0)
 -->
<!-- Title: InputDevice::profileNameEdited Pages: 1 -->
<!--zoomable 537 -->
<svg id="main" version="1.1" xmlns="http://www.w3.org/2000/svg" xmlns:xlink="http://www.w3.org/1999/xlink" xml:space="preserve" onload="init(evt)">
<style type="text/css"><![CDATA[
.edge:hover path { stroke: red; }
.edge:hover polygon { stroke: red; fill: red; }
]]></style>
<script type="text/javascript"><![CDATA[
var edges = document.getElementsByTagName('g');
if (edges && edges.length) {
  for (var i=0;i<edges.length;i++) {
    if (edges[i].id.substr(0,4)=='edge') {
      edges[i].setAttribute('class','edge');
    }
  }
}
]]></script>
        <defs>
                <circle id="rim" cx="0" cy="0" r="7"/>
                <circle id="rim2" cx="0" cy="0" r="3.5"/>
                <g id="zoomPlus">
                        <use xlink:href="#rim" fill="#404040">
                                <set attributeName="fill" to="#808080" begin="zoomplus.mouseover" end="zoomplus.mouseout"/>
                        </use>
                        <path d="M-4,0h8M0,-4v8" fill="none" stroke="white" stroke-width="1.5" pointer-events="none"/>
                </g>
                <g id="zoomMin">
                        <use xlink:href="#rim" fill="#404040">
                                <set attributeName="fill" to="#808080" begin="zoomminus.mouseover" end="zoomminus.mouseout"/>
                        </use>
                        <path d="M-4,0h8" fill="none" stroke="white" stroke-width="1.5" pointer-events="none"/>
                </g>
                <g id="dirArrow">
                        <path fill="none" stroke="white" stroke-width="1.5" d="M0,-3.0v7 M-2.5,-0.5L0,-3.0L2.5,-0.5"/>
                </g>
               <g id="resetDef">
                       <use xlink:href="#rim2" fill="#404040">
                               <set attributeName="fill" to="#808080" begin="reset.mouseover" end="reset.mouseout"/>
                       </use>
               </g>
        </defs>

<script type="text/javascript">
var viewWidth = 3240;
var viewHeight = 537;
var sectionId = 'dynsection-131';
</script>
<script xlink:href="svgpan.js"/>
<svg id="graph" class="graph">
<g id="viewport">
<title>InputDevice::profileNameEdited</title>
<polygon fill="white" stroke="transparent" points="-4,4 -4,-532.68 3236,-532.68 3236,4 -4,4"/>
<!-- Node1 -->
<g id="node1" class="node">
<title>Node1</title>
<g id="a_node1"><a xlink:title=" ">
<polygon fill="#bfbfbf" stroke="black" points="3091,-229 3091,-259 3232,-259 3232,-229 3091,-229"/>
<text text-anchor="start" x="3099" y="-247" font-family="Helvetica,sans-Serif" font-size="10.00">InputDevice::profileName</text>
<text text-anchor="middle" x="3161.5" y="-236" font-family="Helvetica,sans-Serif" font-size="10.00">Edited</text>
</a>
</g>
</g>
<!-- Node2 -->
<g id="node2" class="node">
<title>Node2</title>
<g id="a_node2"><a xlink:href="classJoyTabWidget.html#ab5a344375911c53432349e37f0ceb23b" target="_top" xlink:title=" ">
<polygon fill="white" stroke="black" points="1739,-218 1739,-248 1880,-248 1880,-218 1739,-218"/>
<text text-anchor="start" x="1747" y="-236" font-family="Helvetica,sans-Serif" font-size="10.00">JoyTabWidget::disconnect</text>
<text text-anchor="middle" x="1809.5" y="-225" font-family="Helvetica,sans-Serif" font-size="10.00">MainComboBoxEvents</text>
</a>
</g>
</g>
<!-- Node1&#45;&gt;Node2 -->
<g id="edge1" class="edge">
<title>Node1&#45;&gt;Node2</title>
<path fill="none" stroke="midnightblue" d="M3080.34,-244C3004.81,-244 2888.47,-244 2787.5,-244 2787.5,-244 2787.5,-244 2188.5,-244 2080.83,-244 1955.98,-239.49 1880.15,-236.24"/>
<polygon fill="midnightblue" stroke="midnightblue" points="3080.72,-247.5 3090.72,-244 3080.72,-240.5 3080.72,-247.5"/>
</g>
<!-- Node24 -->
<g id="node24" class="node">
<title>Node24</title>
<g id="a_node24"><a xlink:href="classJoyTabWidget.html#adb4e4e9dded721d91549af6e16268014" target="_top" xlink:title=" ">
<polygon fill="white" stroke="black" points="1729,-267 1729,-297 1890,-297 1890,-267 1729,-267"/>
<text text-anchor="start" x="1737" y="-285" font-family="Helvetica,sans-Serif" font-size="10.00">JoyTabWidget::reconnectMain</text>
<text text-anchor="middle" x="1809.5" y="-274" font-family="Helvetica,sans-Serif" font-size="10.00">ComboBoxEvents</text>
</a>
</g>
</g>
<!-- Node1&#45;&gt;Node24 -->
<g id="edge45" class="edge">
<title>Node1&#45;&gt;Node24</title>
<path fill="none" stroke="midnightblue" d="M3081.04,-256.82C3005.69,-267.85 2889.2,-282 2787.5,-282 2787.5,-282 2787.5,-282 2188.5,-282 2085.47,-282 1966.64,-282 1890.14,-282"/>
<polygon fill="midnightblue" stroke="midnightblue" points="3081.56,-260.28 3090.94,-255.35 3080.53,-253.35 3081.56,-260.28"/>
</g>
<!-- Node25 -->
<g id="node25" class="node">
<title>Node25</title>
<g id="a_node25"><a xlink:href="classInputDevice.html#ad27a114484ca7b3cd7d9e60055351799" target="_top" xlink:title=" ">
<polygon fill="white" stroke="black" points="2899,-190.5 2899,-209.5 3055,-209.5 3055,-190.5 2899,-190.5"/>
<text text-anchor="middle" x="2977" y="-197.5" font-family="Helvetica,sans-Serif" font-size="10.00">InputDevice::setProfileName</text>
</a>
</g>
</g>
<!-- Node1&#45;&gt;Node25 -->
<g id="edge52" class="edge">
<title>Node1&#45;&gt;Node25</title>
<path fill="none" stroke="midnightblue" d="M3088.34,-226.6C3064.19,-220.78 3038.16,-214.5 3017.45,-209.51"/>
<polygon fill="midnightblue" stroke="midnightblue" points="3087.66,-230.04 3098.2,-228.98 3089.3,-223.23 3087.66,-230.04"/>
</g>
<!-- Node3 -->
<g id="node3" class="node">
<title>Node3</title>
<g id="a_node3"><a xlink:href="classJoyTabWidget.html#a52897728ad18ff62995aa44194412948" target="_top" xlink:title=" ">
<polygon fill="white" stroke="black" points="1518,-243 1518,-273 1693,-273 1693,-243 1518,-243"/>
<text text-anchor="start" x="1526" y="-261" font-family="Helvetica,sans-Serif" font-size="10.00">JoyTabWidget::checkForUnsaved</text>
<text text-anchor="middle" x="1605.5" y="-250" font-family="Helvetica,sans-Serif" font-size="10.00">Profile</text>
</a>
</g>
</g>
<!-- Node2&#45;&gt;Node3 -->
<g id="edge2" class="edge">
<title>Node2&#45;&gt;Node3</title>
<path fill="none" stroke="midnightblue" d="M1728.84,-242.86C1717.16,-244.3 1705.09,-245.8 1693.28,-247.26"/>
<polygon fill="midnightblue" stroke="midnightblue" points="1729.49,-246.31 1738.98,-241.6 1728.63,-239.36 1729.49,-246.31"/>
</g>
<!-- Node5 -->
<g id="node5" class="node">
<title>Node5</title>
<g id="a_node5"><a xlink:href="classJoyTabWidget.html#a3a406264aca24134162a4ee13e998b55" target="_top" xlink:title=" ">
<polygon fill="white" stroke="black" points="916,-161 916,-191 1083,-191 1083,-161 916,-161"/>
<text text-anchor="start" x="924" y="-179" font-family="Helvetica,sans-Serif" font-size="10.00">JoyTabWidget::discardUnsaved</text>
<text text-anchor="middle" x="999.5" y="-168" font-family="Helvetica,sans-Serif" font-size="10.00">ProfileChanges</text>
</a>
</g>
</g>
<!-- Node2&#45;&gt;Node5 -->
<g id="edge41" class="edge">
<title>Node2&#45;&gt;Node5</title>
<path fill="none" stroke="midnightblue" d="M1795.94,-208.79C1778,-177.15 1741.73,-123.18 1693,-101 1460.81,4.7 1363.81,-28.24 1119,-100 1078.43,-111.89 1038.57,-142.42 1017,-160.96"/>
<polygon fill="midnightblue" stroke="midnightblue" points="1793.03,-210.76 1800.92,-217.83 1799.16,-207.38 1793.03,-210.76"/>
</g>
<!-- Node16 -->
<g id="node16" class="node">
<title>Node16</title>
<g id="a_node16"><a xlink:href="classJoyTabWidget.html#aa64541df4b5629b43351dd13c9651b2a" target="_top" xlink:title=" ">
<polygon fill="white" stroke="black" points="1120,-355.5 1120,-374.5 1278,-374.5 1278,-355.5 1120,-355.5"/>
<text text-anchor="middle" x="1199" y="-362.5" font-family="Helvetica,sans-Serif" font-size="10.00">JoyTabWidget::loadConfigFile</text>
</a>
</g>
</g>
<!-- Node2&#45;&gt;Node16 -->
<g id="edge42" class="edge">
<title>Node2&#45;&gt;Node16</title>
<path fill="none" stroke="midnightblue" d="M1736.25,-252.98C1733.73,-254.53 1731.3,-256.2 1729,-258 1704.8,-276.93 1718.89,-300.47 1693,-317 1555.09,-405.02 1349.88,-388.73 1253.57,-374.55"/>
<polygon fill="midnightblue" stroke="midnightblue" points="1738.03,-256 1745.15,-248.16 1734.69,-249.85 1738.03,-256"/>
</g>
<!-- Node21 -->
<g id="node21" class="node">
<title>Node21</title>
<g id="a_node21"><a xlink:href="classJoyTabWidget.html#a7e15bfce4bac6297eda8fc3a4e9d7196" target="_top" xlink:title=" ">
<polygon fill="white" stroke="black" points="1121.5,-317.5 1121.5,-336.5 1276.5,-336.5 1276.5,-317.5 1121.5,-317.5"/>
<text text-anchor="middle" x="1199" y="-324.5" font-family="Helvetica,sans-Serif" font-size="10.00">JoyTabWidget::saveAsConfig</text>
</a>
</g>
</g>
<!-- Node2&#45;&gt;Node21 -->
<g id="edge43" class="edge">
<title>Node2&#45;&gt;Node21</title>
<path fill="none" stroke="midnightblue" d="M1743.36,-251.68C1738.43,-253.64 1733.59,-255.75 1729,-258 1711.51,-266.58 1711.21,-276.09 1693,-283 1553.4,-335.94 1376.19,-337.29 1276.74,-332.69"/>
<polygon fill="midnightblue" stroke="midnightblue" points="1744.78,-254.89 1752.92,-248.1 1742.32,-248.34 1744.78,-254.89"/>
</g>
<!-- Node22 -->
<g id="node22" class="node">
<title>Node22</title>
<g id="a_node22"><a xlink:href="classJoyTabWidget.html#a6b09ad1532669ed27aac287e6aa63faf" target="_top" xlink:title=" ">
<polygon fill="white" stroke="black" points="1119,-165.5 1119,-184.5 1279,-184.5 1279,-165.5 1119,-165.5"/>
<text text-anchor="middle" x="1199" y="-172.5" font-family="Helvetica,sans-Serif" font-size="10.00">JoyTabWidget::saveConfigFile</text>
</a>
</g>
</g>
<!-- Node2&#45;&gt;Node22 -->
<g id="edge44" class="edge">
<title>Node2&#45;&gt;Node22</title>
<path fill="none" stroke="midnightblue" d="M1789.54,-210.07C1768.68,-186.81 1732.79,-152.26 1693,-138 1534.85,-81.32 1480.97,-111.96 1315,-138 1281.85,-143.2 1245.21,-156.35 1222.4,-165.49"/>
<polygon fill="midnightblue" stroke="midnightblue" points="1787.06,-212.54 1796.28,-217.77 1792.33,-207.94 1787.06,-212.54"/>
</g>
<!-- Node4 -->
<g id="node4" class="node">
<title>Node4</title>
<g id="a_node4"><a xlink:href="classJoyTabWidget.html#a46cbb4d5798f46f5b9aaab65090ebe24" target="_top" xlink:title=" ">
<polygon fill="white" stroke="black" points="1328,-268 1328,-298 1469,-298 1469,-268 1328,-268"/>
<text text-anchor="start" x="1336" y="-286" font-family="Helvetica,sans-Serif" font-size="10.00">JoyTabWidget::disconnect</text>
<text text-anchor="middle" x="1398.5" y="-275" font-family="Helvetica,sans-Serif" font-size="10.00">CheckUnsavedEvent</text>
</a>
</g>
</g>
<!-- Node3&#45;&gt;Node4 -->
<g id="edge3" class="edge">
<title>Node3&#45;&gt;Node4</title>
<path fill="none" stroke="midnightblue" d="M1507.88,-263.04C1494.79,-264.6 1481.56,-266.31 1469.07,-268.09"/>
<polygon fill="midnightblue" stroke="midnightblue" points="1508.33,-266.51 1517.86,-261.89 1507.52,-259.56 1508.33,-266.51"/>
</g>
<!-- Node3&#45;&gt;Node16 -->
<g id="edge33" class="edge">
<title>Node3&#45;&gt;Node16</title>
<path fill="none" stroke="midnightblue" d="M1563.07,-277.19C1539.66,-287.45 1509.64,-299.65 1482,-308 1408.85,-330.11 1322.41,-346.15 1264.69,-355.48"/>
<polygon fill="midnightblue" stroke="midnightblue" points="1564.63,-280.33 1572.35,-273.07 1561.79,-273.93 1564.63,-280.33"/>
</g>
<!-- Node23 -->
<g id="node23" class="node">
<title>Node23</title>
<g id="a_node23"><a xlink:href="classJoyTabWidget.html#addfb2efb312a0ce8b5c1b9bcc8543bef" target="_top" xlink:title=" ">
<polygon fill="white" stroke="black" points="1315,-219 1315,-249 1482,-249 1482,-219 1315,-219"/>
<text text-anchor="start" x="1323" y="-237" font-family="Helvetica,sans-Serif" font-size="10.00">JoyTabWidget::reconnectCheck</text>
<text text-anchor="middle" x="1398.5" y="-226" font-family="Helvetica,sans-Serif" font-size="10.00">UnsavedEvent</text>
</a>
</g>
</g>
<!-- Node3&#45;&gt;Node23 -->
<g id="edge34" class="edge">
<title>Node3&#45;&gt;Node23</title>
<path fill="none" stroke="midnightblue" d="M1521.4,-241.63C1508.49,-239.97 1495.15,-238.41 1482.25,-237.05"/>
<polygon fill="midnightblue" stroke="midnightblue" points="1521.28,-245.14 1531.65,-242.98 1522.19,-238.2 1521.28,-245.14"/>
</g>
<!-- Node4&#45;&gt;Node3 -->
<g id="edge4" class="edge">
<title>Node4&#45;&gt;Node3</title>
<path fill="none" stroke="midnightblue" d="M1479.28,-279.87C1497.41,-277.9 1516.54,-275.52 1534.24,-273.01"/>
<polygon fill="midnightblue" stroke="midnightblue" points="1478.9,-276.39 1469.32,-280.92 1479.64,-283.35 1478.9,-276.39"/>
</g>
<!-- Node4&#45;&gt;Node5 -->
<g id="edge5" class="edge">
<title>Node4&#45;&gt;Node5</title>
<path fill="none" stroke="midnightblue" d="M1318.06,-267.44C1261.98,-255.8 1185.32,-238.57 1119,-219 1091.61,-210.92 1061.35,-199.9 1038.26,-191.04"/>
<polygon fill="midnightblue" stroke="midnightblue" points="1317.43,-270.89 1327.93,-269.48 1318.85,-264.03 1317.43,-270.89"/>
</g>
<!-- Node4&#45;&gt;Node16 -->
<g id="edge20" class="edge">
<title>Node4&#45;&gt;Node16</title>
<path fill="none" stroke="midnightblue" d="M1364.65,-303.37C1341.43,-317.03 1309.2,-334.55 1279,-346 1269.24,-349.7 1258.52,-352.85 1248.21,-355.46"/>
<polygon fill="midnightblue" stroke="midnightblue" points="1366.59,-306.29 1373.39,-298.16 1363.01,-300.28 1366.59,-306.29"/>
</g>
<!-- Node4&#45;&gt;Node21 -->
<g id="edge27" class="edge">
<title>Node4&#45;&gt;Node21</title>
<path fill="none" stroke="midnightblue" d="M1320.11,-300.24C1293.77,-306.11 1265.31,-312.45 1242.7,-317.49"/>
<polygon fill="midnightblue" stroke="midnightblue" points="1321.08,-303.61 1330.08,-298.02 1319.56,-296.78 1321.08,-303.61"/>
</g>
<!-- Node4&#45;&gt;Node22 -->
<g id="edge29" class="edge">
<title>Node4&#45;&gt;Node22</title>
<path fill="none" stroke="midnightblue" d="M1326.96,-264.3C1322.86,-262.65 1318.84,-260.89 1315,-259 1293.15,-248.25 1236.83,-204.3 1212.03,-184.62"/>
<polygon fill="midnightblue" stroke="midnightblue" points="1326.06,-267.7 1336.65,-267.94 1328.52,-261.15 1326.06,-267.7"/>
</g>
<!-- Node6 -->
<g id="node6" class="node">
<title>Node6</title>
<g id="a_node6"><a xlink:href="classMainWindow.html#a59aa0e5214cb820e8743dea1b81b7d9a" target="_top" xlink:title=" ">
<polygon fill="white" stroke="black" points="727,-166.5 727,-185.5 872,-185.5 872,-166.5 727,-166.5"/>
<text text-anchor="middle" x="799.5" y="-173.5" font-family="Helvetica,sans-Serif" font-size="10.00">MainWindow::quitProgram</text>
</a>
</g>
</g>
<!-- Node5&#45;&gt;Node6 -->
<g id="edge6" class="edge">
<title>Node5&#45;&gt;Node6</title>
<path fill="none" stroke="midnightblue" d="M905.68,-176C894.43,-176 883.07,-176 872.19,-176"/>
<polygon fill="midnightblue" stroke="midnightblue" points="905.96,-179.5 915.96,-176 905.96,-172.5 905.96,-179.5"/>
</g>
<!-- Node7 -->
<g id="node7" class="node">
<title>Node7</title>
<g id="a_node7"><a xlink:href="classMainWindow.html#a4b00208df3ff47236e6b46f308647a97" target="_top" xlink:title=" ">
<polygon fill="white" stroke="black" points="515,-176.5 515,-195.5 683,-195.5 683,-176.5 515,-176.5"/>
<text text-anchor="middle" x="599" y="-183.5" font-family="Helvetica,sans-Serif" font-size="10.00">MainWindow::populateTrayIcon</text>
</a>
</g>
</g>
<!-- Node6&#45;&gt;Node7 -->
<g id="edge7" class="edge">
<title>Node6&#45;&gt;Node7</title>
<path fill="none" stroke="midnightblue" d="M716.72,-180.12C705.6,-180.68 694.18,-181.26 683.03,-181.82"/>
<polygon fill="midnightblue" stroke="midnightblue" points="717.03,-183.61 726.84,-179.61 716.67,-176.62 717.03,-183.61"/>
</g>
<!-- Node8 -->
<g id="node8" class="node">
<title>Node8</title>
<g id="a_node8"><a xlink:href="classMainWindow.html#a9738583d1ab872fb2784c0faee89cb46" target="_top" xlink:title=" ">
<polygon fill="white" stroke="black" points="310.5,-22.5 310.5,-41.5 444.5,-41.5 444.5,-22.5 310.5,-22.5"/>
<text text-anchor="middle" x="377.5" y="-29.5" font-family="Helvetica,sans-Serif" font-size="10.00">MainWindow::addJoyTab</text>
</a>
</g>
</g>
<!-- Node7&#45;&gt;Node8 -->
<g id="edge8" class="edge">
<title>Node7&#45;&gt;Node8</title>
<path fill="none" stroke="midnightblue" d="M576.05,-170.6C530.99,-138.98 429.17,-67.55 392.23,-41.63"/>
<polygon fill="midnightblue" stroke="midnightblue" points="574.07,-173.49 584.27,-176.37 578.09,-167.76 574.07,-173.49"/>
</g>
<!-- Node10 -->
<g id="node10" class="node">
<title>Node10</title>
<g id="a_node10"><a xlink:href="classMainWindow.html#aef8941c9dc542d8ff8416fff1caf8ad7" target="_top" xlink:title=" ">
<polygon fill="white" stroke="black" points="300,-129.5 300,-148.5 455,-148.5 455,-129.5 300,-129.5"/>
<text text-anchor="middle" x="377.5" y="-136.5" font-family="Helvetica,sans-Serif" font-size="10.00">MainWindow::fillButtonsMap</text>
</a>
</g>
</g>
<!-- Node7&#45;&gt;Node10 -->
<g id="edge10" class="edge">
<title>Node7&#45;&gt;Node10</title>
<path fill="none" stroke="midnightblue" d="M543.45,-174.32C506.4,-166.39 458.01,-156.02 423.23,-148.58"/>
<polygon fill="midnightblue" stroke="midnightblue" points="543.07,-177.82 553.58,-176.49 544.54,-170.97 543.07,-177.82"/>
</g>
<!-- Node12 -->
<g id="node12" class="node">
<title>Node12</title>
<g id="a_node12"><a xlink:href="classMainWindow.html#ae9f72ff45056908317963a1e7fa634a0" target="_top" xlink:title="Build list of current input devices and pass it to settings dialog instance. Open Settings dialog.">
<polygon fill="white" stroke="black" points="291,-259 291,-289 464,-289 464,-259 291,-259"/>
<text text-anchor="start" x="299" y="-277" font-family="Helvetica,sans-Serif" font-size="10.00">MainWindow::openMainSettings</text>
<text text-anchor="middle" x="377.5" y="-266" font-family="Helvetica,sans-Serif" font-size="10.00">Dialog</text>
</a>
</g>
</g>
<!-- Node7&#45;&gt;Node12 -->
<g id="edge14" class="edge">
<title>Node7&#45;&gt;Node12</title>
<path fill="none" stroke="midnightblue" d="M568.78,-199.84C544.87,-210.96 510.05,-226.7 479,-239 461.31,-246.01 441.58,-253.04 424.32,-258.95"/>
<polygon fill="midnightblue" stroke="midnightblue" points="570.43,-202.93 578.01,-195.52 567.46,-196.59 570.43,-202.93"/>
</g>
<!-- Node14 -->
<g id="node14" class="node">
<title>Node14</title>
<g id="a_node14"><a xlink:href="classMainWindow.html#ac398cc635954d370088390a0a5bee878" target="_top" xlink:title=" ">
<polygon fill="white" stroke="black" points="81.5,-224.5 81.5,-243.5 235.5,-243.5 235.5,-224.5 81.5,-224.5"/>
<text text-anchor="middle" x="158.5" y="-231.5" font-family="Helvetica,sans-Serif" font-size="10.00">MainWindow::removeJoyTab</text>
</a>
</g>
</g>
<!-- Node7&#45;&gt;Node14 -->
<g id="edge16" class="edge">
<title>Node7&#45;&gt;Node14</title>
<path fill="none" stroke="midnightblue" d="M536.81,-197.24C518.28,-200.38 497.85,-203.59 479,-206 396.01,-216.59 300.38,-224.4 235.53,-229.04"/>
<polygon fill="midnightblue" stroke="midnightblue" points="537.62,-200.65 546.88,-195.5 536.43,-193.75 537.62,-200.65"/>
</g>
<!-- Node15 -->
<g id="node15" class="node">
<title>Node15</title>
<g id="a_node15"><a xlink:href="classMainWindow.html#a2a0aba59f5d3bf3c6fb97f0de103b36f" target="_top" xlink:title=" ">
<polygon fill="white" stroke="black" points="276,-177.5 276,-196.5 479,-196.5 479,-177.5 276,-177.5"/>
<text text-anchor="middle" x="377.5" y="-184.5" font-family="Helvetica,sans-Serif" font-size="10.00">MainWindow::testMappingUpdateNow</text>
</a>
</g>
</g>
<!-- Node7&#45;&gt;Node15 -->
<g id="edge18" class="edge">
<title>Node7&#45;&gt;Node15</title>
<path fill="none" stroke="midnightblue" d="M504.51,-186.43C496.1,-186.46 487.55,-186.5 479.08,-186.54"/>
<polygon fill="midnightblue" stroke="midnightblue" points="504.72,-189.93 514.7,-186.38 504.69,-182.93 504.72,-189.93"/>
</g>
<!-- Node9 -->
<g id="node9" class="node">
<title>Node9</title>
<g id="a_node9"><a xlink:href="main_8cpp.html#a0ddf1224851353fc92bfbff6f499fa97" target="_top" xlink:title=" ">
<polygon fill="white" stroke="black" points="0,-148.5 0,-167.5 41,-167.5 41,-148.5 0,-148.5"/>
<text text-anchor="middle" x="20.5" y="-155.5" font-family="Helvetica,sans-Serif" font-size="10.00">main</text>
</a>
</g>
</g>
<!-- Node8&#45;&gt;Node9 -->
<g id="edge9" class="edge">
<title>Node8&#45;&gt;Node9</title>
<path fill="none" stroke="midnightblue" d="M322.57,-20.82C258.53,-10.66 151.08,-3.72 77,-52 42.19,-74.68 27.9,-126.62 23.31,-148.26"/>
<polygon fill="midnightblue" stroke="midnightblue" points="322.02,-24.28 332.46,-22.47 323.17,-17.37 322.02,-24.28"/>
</g>
<!-- Node10&#45;&gt;Node9 -->
<g id="edge13" class="edge">
<title>Node10&#45;&gt;Node9</title>
<path fill="none" stroke="midnightblue" d="M289.71,-143.64C206.67,-148.09 87.4,-154.47 41,-156.96"/>
<polygon fill="midnightblue" stroke="midnightblue" points="290.11,-147.13 299.91,-143.1 289.73,-140.14 290.11,-147.13"/>
</g>
<!-- Node11 -->
<g id="node11" class="node">
<title>Node11</title>
<g id="a_node11"><a xlink:href="classMainWindow.html#a5d25ebfdfec433fc449d7e35803a9c7c" target="_top" xlink:title=" ">
<polygon fill="white" stroke="black" points="91.5,-110.5 91.5,-129.5 225.5,-129.5 225.5,-110.5 91.5,-110.5"/>
<text text-anchor="middle" x="158.5" y="-117.5" font-family="Helvetica,sans-Serif" font-size="10.00">MainWindow::fillButtons</text>
</a>
</g>
</g>
<!-- Node10&#45;&gt;Node11 -->
<g id="edge11" class="edge">
<title>Node10&#45;&gt;Node11</title>
<path fill="none" stroke="midnightblue" d="M289.92,-131.42C268.49,-129.54 245.87,-127.56 225.6,-125.79"/>
<polygon fill="midnightblue" stroke="midnightblue" points="289.73,-134.92 299.99,-132.3 290.34,-127.94 289.73,-134.92"/>
</g>
<!-- Node11&#45;&gt;Node9 -->
<g id="edge12" class="edge">
<title>Node11&#45;&gt;Node9</title>
<path fill="none" stroke="midnightblue" d="M113.4,-132.32C89,-139.14 59.89,-147.27 41.07,-152.53"/>
<polygon fill="midnightblue" stroke="midnightblue" points="114.49,-135.65 123.18,-129.59 112.61,-128.91 114.49,-135.65"/>
</g>
<!-- Node13 -->
<g id="node13" class="node">
<title>Node13</title>
<g id="a_node13"><a xlink:href="classMainWindow.html#a2f0c03d3d51748ab794e698322110614" target="_top" xlink:title=" ">
<polygon fill="white" stroke="black" points="84.5,-308.5 84.5,-327.5 232.5,-327.5 232.5,-308.5 84.5,-308.5"/>
<text text-anchor="middle" x="158.5" y="-315.5" font-family="Helvetica,sans-Serif" font-size="10.00">MainWindow::MainWindow</text>
</a>
</g>
</g>
<!-- Node12&#45;&gt;Node13 -->
<g id="edge15" class="edge">
<title>Node12&#45;&gt;Node13</title>
<path fill="none" stroke="midnightblue" d="M292.62,-291.01C263.36,-296.94 231.58,-303.38 206.41,-308.49"/>
<polygon fill="midnightblue" stroke="midnightblue" points="293.32,-294.44 302.43,-289.02 291.93,-287.58 293.32,-294.44"/>
</g>
<!-- Node14&#45;&gt;Node9 -->
<g id="edge17" class="edge">
<title>Node14&#45;&gt;Node9</title>
<path fill="none" stroke="midnightblue" d="M102.57,-221.36C93.72,-218.28 84.89,-214.53 77,-210 57.53,-198.82 39.45,-179.56 29.49,-167.88"/>
<polygon fill="midnightblue" stroke="midnightblue" points="101.53,-224.7 112.12,-224.44 103.68,-218.04 101.53,-224.7"/>
</g>
<!-- Node15&#45;&gt;Node9 -->
<g id="edge19" class="edge">
<title>Node15&#45;&gt;Node9</title>
<path fill="none" stroke="midnightblue" d="M265.88,-179.33C209.34,-175.2 139.46,-169.77 77,-164 65.03,-162.89 51.64,-161.45 41.01,-160.26"/>
<polygon fill="midnightblue" stroke="midnightblue" points="265.69,-182.82 275.92,-180.06 266.2,-175.84 265.69,-182.82"/>
</g>
<!-- Node17 -->
<g id="node17" class="node">
<title>Node17</title>
<g id="a_node17"><a xlink:href="classMainWindow.html#a0a756973a707af418c4ce416c9c8312c" target="_top" xlink:title=" ">
<polygon fill="white" stroke="black" points="719,-313.5 719,-332.5 880,-332.5 880,-313.5 719,-313.5"/>
<text text-anchor="middle" x="799.5" y="-320.5" font-family="Helvetica,sans-Serif" font-size="10.00">MainWindow::autoprofileLoad</text>
</a>
</g>
</g>
<!-- Node16&#45;&gt;Node17 -->
<g id="edge21" class="edge">
<title>Node16&#45;&gt;Node17</title>
<path fill="none" stroke="midnightblue" d="M1136.13,-353.82C1118.96,-350.97 1100.29,-348.13 1083,-346 1014.75,-337.6 936.83,-331.52 880.13,-327.72"/>
<polygon fill="midnightblue" stroke="midnightblue" points="1135.59,-357.27 1146.04,-355.48 1136.75,-350.37 1135.59,-357.27"/>
</g>
<!-- Node18 -->
<g id="node18" class="node">
<title>Node18</title>
<g id="a_node18"><a xlink:href="classJoyTabWidget.html#a6a6bd9ccd83557de08b6e698598f2123" target="_top" xlink:title=" ">
<polygon fill="white" stroke="black" points="922,-279.5 922,-298.5 1077,-298.5 1077,-279.5 922,-279.5"/>
<text text-anchor="middle" x="999.5" y="-286.5" font-family="Helvetica,sans-Serif" font-size="10.00">JoyTabWidget::JoyTabWidget</text>
</a>
</g>
</g>
<!-- Node16&#45;&gt;Node18 -->
<g id="edge23" class="edge">
<title>Node16&#45;&gt;Node18</title>
<path fill="none" stroke="midnightblue" d="M1132.54,-352.07C1127.85,-350.29 1123.29,-348.28 1119,-346 1099.84,-335.8 1101.92,-323.64 1083,-313 1072.08,-306.86 1059.44,-302.16 1047.39,-298.62"/>
<polygon fill="midnightblue" stroke="midnightblue" points="1131.7,-355.48 1142.29,-355.38 1133.95,-348.85 1131.7,-355.48"/>
</g>
<!-- Node19 -->
<g id="node19" class="node">
<title>Node19</title>
<g id="a_node19"><a xlink:href="classMainWindow.html#a781de6ce6a0b73b8caadfad15e7c7147" target="_top" xlink:title=" ">
<polygon fill="white" stroke="black" points="922.5,-355.5 922.5,-374.5 1076.5,-374.5 1076.5,-355.5 922.5,-355.5"/>
<text text-anchor="middle" x="999.5" y="-362.5" font-family="Helvetica,sans-Serif" font-size="10.00">MainWindow::loadConfigFile</text>
</a>
</g>
</g>
<!-- Node16&#45;&gt;Node19 -->
<g id="edge24" class="edge">
<title>Node16&#45;&gt;Node19</title>
<path fill="none" stroke="midnightblue" d="M1109.85,-365C1098.79,-365 1087.55,-365 1076.7,-365"/>
<polygon fill="midnightblue" stroke="midnightblue" points="1109.94,-368.5 1119.94,-365 1109.94,-361.5 1109.94,-368.5"/>
</g>
<!-- Node17&#45;&gt;Node13 -->
<g id="edge22" class="edge">
<title>Node17&#45;&gt;Node13</title>
<path fill="none" stroke="midnightblue" d="M708.74,-322.3C581.31,-321.3 350.4,-319.49 232.72,-318.57"/>
<polygon fill="midnightblue" stroke="midnightblue" points="708.84,-325.8 718.86,-322.38 708.89,-318.8 708.84,-325.8"/>
</g>
<!-- Node20 -->
<g id="node20" class="node">
<title>Node20</title>
<g id="a_node20"><a xlink:href="classMainWindow.html#a58c2bb4b8456b8dd246c6beb3623b3d2" target="_top" xlink:title=" ">
<polygon fill="white" stroke="black" points="77,-348 77,-378 240,-378 240,-348 77,-348"/>
<text text-anchor="start" x="85" y="-366" font-family="Helvetica,sans-Serif" font-size="10.00">MainWindow::alterConfigFrom</text>
<text text-anchor="middle" x="158.5" y="-355" font-family="Helvetica,sans-Serif" font-size="10.00">Settings</text>
</a>
</g>
</g>
<!-- Node19&#45;&gt;Node20 -->
<g id="edge25" class="edge">
<title>Node19&#45;&gt;Node20</title>
<path fill="none" stroke="midnightblue" d="M911.72,-364.79C748.57,-364.4 398.34,-363.57 240.07,-363.19"/>
<polygon fill="midnightblue" stroke="midnightblue" points="912.18,-368.29 922.19,-364.82 912.2,-361.29 912.18,-368.29"/>
</g>
<!-- Node20&#45;&gt;Node9 -->
<g id="edge26" class="edge">
<title>Node20&#45;&gt;Node9</title>
<path fill="none" stroke="midnightblue" d="M82.93,-342.23C80.84,-340.61 78.85,-338.87 77,-337 28.51,-287.94 22.27,-197.38 21.56,-167.7"/>
<polygon fill="midnightblue" stroke="midnightblue" points="81.21,-345.28 91.49,-347.85 85.06,-339.43 81.21,-345.28"/>
</g>
<!-- Node21&#45;&gt;Node18 -->
<g id="edge28" class="edge">
<title>Node21&#45;&gt;Node18</title>
<path fill="none" stroke="midnightblue" d="M1138.29,-315.51C1110.11,-310.09 1076.87,-303.69 1050.1,-298.54"/>
<polygon fill="midnightblue" stroke="midnightblue" points="1137.94,-319.01 1148.42,-317.46 1139.26,-312.13 1137.94,-319.01"/>
</g>
<!-- Node22&#45;&gt;Node3 -->
<g id="edge30" class="edge">
<title>Node22&#45;&gt;Node3</title>
<path fill="none" stroke="midnightblue" d="M1289.33,-180.35C1345.32,-185.11 1418.64,-193.92 1482,-210 1513.66,-218.03 1548.17,-232.07 1572.47,-242.89"/>
<polygon fill="midnightblue" stroke="midnightblue" points="1289.33,-176.84 1279.08,-179.51 1288.76,-183.82 1289.33,-176.84"/>
</g>
<!-- Node22&#45;&gt;Node5 -->
<g id="edge31" class="edge">
<title>Node22&#45;&gt;Node5</title>
<path fill="none" stroke="midnightblue" d="M1108.58,-175.45C1100.15,-175.5 1091.63,-175.54 1083.26,-175.58"/>
<polygon fill="midnightblue" stroke="midnightblue" points="1108.83,-178.95 1118.81,-175.4 1108.79,-171.95 1108.83,-178.95"/>
</g>
<!-- Node22&#45;&gt;Node18 -->
<g id="edge32" class="edge">
<title>Node22&#45;&gt;Node18</title>
<path fill="none" stroke="midnightblue" d="M1172.65,-189.63C1131.6,-213.33 1051.66,-259.47 1017.09,-279.42"/>
<polygon fill="midnightblue" stroke="midnightblue" points="1174.59,-192.55 1181.5,-184.52 1171.09,-186.49 1174.59,-192.55"/>
</g>
<!-- Node23&#45;&gt;Node3 -->
<g id="edge35" class="edge">
<title>Node23&#45;&gt;Node3</title>
<path fill="none" stroke="midnightblue" d="M1482.4,-250.34C1494.08,-251.85 1506.11,-253.27 1517.86,-254.53"/>
<polygon fill="midnightblue" stroke="midnightblue" points="1482.61,-246.84 1472.24,-249.01 1481.7,-253.78 1482.61,-246.84"/>
</g>
<!-- Node23&#45;&gt;Node5 -->
<g id="edge36" class="edge">
<title>Node23&#45;&gt;Node5</title>
<path fill="none" stroke="midnightblue" d="M1304.98,-220.9C1250.77,-213.18 1180.98,-203.16 1119,-194 1107.37,-192.28 1095.1,-190.44 1083.04,-188.63"/>
<polygon fill="midnightblue" stroke="midnightblue" points="1304.52,-224.37 1314.91,-222.32 1305.51,-217.44 1304.52,-224.37"/>
</g>
<!-- Node23&#45;&gt;Node16 -->
<g id="edge38" class="edge">
<title>Node23&#45;&gt;Node16</title>
<path fill="none" stroke="midnightblue" d="M1320.4,-254.63C1318.52,-255.99 1316.71,-257.45 1315,-259 1283.99,-287.1 1310.81,-318.81 1279,-346 1274.5,-349.85 1269.34,-352.95 1263.88,-355.44"/>
<polygon fill="midnightblue" stroke="midnightblue" points="1322.46,-257.47 1329.08,-249.2 1318.75,-251.53 1322.46,-257.47"/>
</g>
<!-- Node23&#45;&gt;Node18 -->
<g id="edge37" class="edge">
<title>Node23&#45;&gt;Node18</title>
<path fill="none" stroke="midnightblue" d="M1304.77,-246.85C1232.72,-256.83 1134.4,-270.45 1069.26,-279.47"/>
<polygon fill="midnightblue" stroke="midnightblue" points="1305.33,-250.3 1314.76,-245.46 1304.37,-243.37 1305.33,-250.3"/>
</g>
<!-- Node23&#45;&gt;Node21 -->
<g id="edge39" class="edge">
<title>Node23&#45;&gt;Node21</title>
<path fill="none" stroke="midnightblue" d="M1324.28,-253.52C1321.06,-255.2 1317.95,-257.03 1315,-259 1294,-273.05 1300,-288.94 1279,-303 1269.59,-309.3 1258.47,-314 1247.58,-317.48"/>
<polygon fill="midnightblue" stroke="midnightblue" points="1326.03,-256.57 1333.58,-249.14 1323.05,-250.23 1326.03,-256.57"/>
</g>
<!-- Node23&#45;&gt;Node22 -->
<g id="edge40" class="edge">
<title>Node23&#45;&gt;Node22</title>
<path fill="none" stroke="midnightblue" d="M1337.13,-215.96C1302.47,-205.61 1260.35,-193.03 1232.01,-184.56"/>
<polygon fill="midnightblue" stroke="midnightblue" points="1336.57,-219.45 1347.15,-218.96 1338.57,-212.74 1336.57,-219.45"/>
</g>
<!-- Node24&#45;&gt;Node3 -->
<g id="edge46" class="edge">
<title>Node24&#45;&gt;Node3</title>
<path fill="none" stroke="midnightblue" d="M1719,-271.37C1710.46,-270.35 1701.82,-269.32 1693.31,-268.31"/>
<polygon fill="midnightblue" stroke="midnightblue" points="1718.61,-274.84 1728.95,-272.55 1719.44,-267.89 1718.61,-274.84"/>
</g>
<!-- Node24&#45;&gt;Node5 -->
<g id="edge47" class="edge">
<title>Node24&#45;&gt;Node5</title>
<path fill="none" stroke="midnightblue" d="M1733.19,-261.35C1731.74,-260.29 1730.34,-259.17 1729,-258 1699.95,-232.61 1724.74,-200.94 1693,-179 1488.02,-37.34 1161.06,-123.08 1043.97,-160.87"/>
<polygon fill="midnightblue" stroke="midnightblue" points="1731.61,-264.49 1741.93,-266.86 1735.34,-258.57 1731.61,-264.49"/>
</g>
<!-- Node24&#45;&gt;Node16 -->
<g id="edge49" class="edge">
<title>Node24&#45;&gt;Node16</title>
<path fill="none" stroke="midnightblue" d="M1800.56,-306.74C1786.3,-346.5 1752.18,-423.35 1693,-455 1618.93,-494.61 1394.41,-482.38 1315,-455 1267.78,-438.72 1225.14,-394.2 1207.99,-374.54"/>
<polygon fill="midnightblue" stroke="midnightblue" points="1803.88,-307.85 1803.84,-297.25 1797.26,-305.56 1803.88,-307.85"/>
</g>
<!-- Node24&#45;&gt;Node18 -->
<g id="edge48" class="edge">
<title>Node24&#45;&gt;Node18</title>
<path fill="none" stroke="midnightblue" d="M1802.68,-306.81C1790.77,-351.17 1759.02,-442.98 1693,-481 1547.41,-564.83 1478.58,-519.26 1315,-481 1220.36,-458.86 1197.19,-441.73 1119,-384 1100.28,-370.18 1100.67,-361.14 1083,-346 1061.32,-327.42 1033.56,-309.25 1016.41,-298.6"/>
<polygon fill="midnightblue" stroke="midnightblue" points="1806.07,-307.67 1805.16,-297.11 1799.29,-305.93 1806.07,-307.67"/>
</g>
<!-- Node24&#45;&gt;Node21 -->
<g id="edge50" class="edge">
<title>Node24&#45;&gt;Node21</title>
<path fill="none" stroke="midnightblue" d="M1778.03,-302.64C1755.6,-316.52 1723.79,-333.59 1693,-341 1533.58,-379.36 1336.8,-352.5 1247.76,-336.52"/>
<polygon fill="midnightblue" stroke="midnightblue" points="1780.16,-305.42 1786.73,-297.11 1776.41,-299.51 1780.16,-305.42"/>
</g>
<!-- Node24&#45;&gt;Node22 -->
<g id="edge51" class="edge">
<title>Node24&#45;&gt;Node22</title>
<path fill="none" stroke="midnightblue" d="M1741.67,-263.42C1737.33,-261.73 1733.07,-259.92 1729,-258 1711.61,-249.8 1710.53,-241.91 1693,-234 1604.56,-194.11 1578.14,-191.06 1482,-178 1413.96,-168.76 1335.83,-168.74 1279.09,-170.62"/>
<polygon fill="midnightblue" stroke="midnightblue" points="1740.68,-266.79 1751.27,-266.95 1743.1,-260.22 1740.68,-266.79"/>
</g>
<!-- Node26 -->
<g id="node26" class="node">
<title>Node26</title>
<g id="a_node26"><a xlink:href="classExtraProfileSettingsDialog.html#ad5751d1a02ef93bdff60ef334839d12f" target="_top" xlink:title=" ">
<polygon fill="white" stroke="black" points="2711.5,-185 2711.5,-215 2861.5,-215 2861.5,-185 2711.5,-185"/>
<text text-anchor="start" x="2719.5" y="-203" font-family="Helvetica,sans-Serif" font-size="10.00">ExtraProfileSettingsDialog</text>
<text text-anchor="middle" x="2786.5" y="-192" font-family="Helvetica,sans-Serif" font-size="10.00">::ExtraProfileSettingsDialog</text>
</a>
</g>
</g>
<!-- Node25&#45;&gt;Node26 -->
<g id="edge53" class="edge">
<title>Node25&#45;&gt;Node26</title>
<path fill="none" stroke="midnightblue" d="M2888.62,-200C2879.57,-200 2870.44,-200 2861.55,-200"/>
<polygon fill="midnightblue" stroke="midnightblue" points="2888.79,-203.5 2898.79,-200 2888.79,-196.5 2888.79,-203.5"/>
</g>
<!-- Node27 -->
<g id="node27" class="node">
<title>Node27</title>
<g id="a_node27"><a xlink:href="classInputDeviceXml.html#a847bf9ed17b554bf87d513a1aebdcb64" target="_top" xlink:title="Deserializes the given XML stream into an InputDevice object.">
<polygon fill="white" stroke="black" points="2710,-146.5 2710,-165.5 2863,-165.5 2863,-146.5 2710,-146.5"/>
<text text-anchor="middle" x="2786.5" y="-153.5" font-family="Helvetica,sans-Serif" font-size="10.00">InputDeviceXml::readConfig</text>
</a>
</g>
</g>
<!-- Node25&#45;&gt;Node27 -->
<g id="edge54" class="edge">
<title>Node25&#45;&gt;Node27</title>
<path fill="none" stroke="midnightblue" d="M2925.12,-188.12C2894.76,-181.04 2856.71,-172.16 2828.32,-165.53"/>
<polygon fill="midnightblue" stroke="midnightblue" points="2924.56,-191.59 2935.1,-190.45 2926.16,-184.77 2924.56,-191.59"/>
</g>
<!-- Node28 -->
<g id="node28" class="node">
<title>Node28</title>
<g id="a_node28"><a xlink:href="classInputDeviceXml.html#a0259125eb6fe55484e263841aa00fa88" target="_top" xlink:title=" ">
<polygon fill="white" stroke="black" points="2495,-184.5 2495,-203.5 2674,-203.5 2674,-184.5 2495,-184.5"/>
<text text-anchor="middle" x="2584.5" y="-191.5" font-family="Helvetica,sans-Serif" font-size="10.00">InputDeviceXml::InputDeviceXml</text>
</a>
</g>
</g>
<!-- Node27&#45;&gt;Node28 -->
<g id="edge55" class="edge">
<title>Node27&#45;&gt;Node28</title>
<path fill="none" stroke="midnightblue" d="M2725.4,-167.42C2696.79,-172.86 2662.96,-179.28 2635.73,-184.46"/>
<polygon fill="midnightblue" stroke="midnightblue" points="2726.12,-170.85 2735.29,-165.54 2724.81,-163.97 2726.12,-170.85"/>
</g>
<!-- Node29 -->
<g id="node29" class="node">
<title>Node29</title>
<g id="a_node29"><a xlink:href="classXMLConfigReader.html#af80a2c189a5d07caec8f3543765d4023" target="_top" xlink:title=" ">
<polygon fill="white" stroke="black" points="2519,-146.5 2519,-165.5 2650,-165.5 2650,-146.5 2519,-146.5"/>
<text text-anchor="middle" x="2584.5" y="-153.5" font-family="Helvetica,sans-Serif" font-size="10.00">XMLConfigReader::read</text>
</a>
</g>
</g>
<!-- Node27&#45;&gt;Node29 -->
<g id="edge56" class="edge">
<title>Node27&#45;&gt;Node29</title>
<path fill="none" stroke="midnightblue" d="M2699.63,-156C2683.03,-156 2665.89,-156 2650.1,-156"/>
<polygon fill="midnightblue" stroke="midnightblue" points="2699.89,-159.5 2709.89,-156 2699.89,-152.5 2699.89,-159.5"/>
</g>
<!-- Node30 -->
<g id="node30" class="node">
<title>Node30</title>
<g id="a_node30"><a xlink:href="classXMLConfigReader.html#a525fd14f51f6045160942d9a0a1425c5" target="_top" xlink:title="Read input device config from the current XML file into the InputDevice object.">
<polygon fill="white" stroke="black" points="2283,-149.5 2283,-168.5 2459,-168.5 2459,-149.5 2283,-149.5"/>
<text text-anchor="middle" x="2371" y="-156.5" font-family="Helvetica,sans-Serif" font-size="10.00">XMLConfigReader::configJoystick</text>
</a>
</g>
</g>
<!-- Node29&#45;&gt;Node30 -->
<g id="edge57" class="edge">
<title>Node29&#45;&gt;Node30</title>
<path fill="none" stroke="midnightblue" d="M2508.56,-157.06C2492.59,-157.29 2475.58,-157.53 2459.19,-157.76"/>
<polygon fill="midnightblue" stroke="midnightblue" points="2508.94,-160.56 2518.89,-156.92 2508.85,-153.56 2508.94,-160.56"/>
</g>
<!-- Node31 -->
<g id="node31" class="node">
<title>Node31</title>
<g id="a_node31"><a xlink:href="classJoyTabWidgetHelper.html#ae69229b650b5a129cd2ae25d77975d0d" target="_top" xlink:title="XML read entry point for the GUI.">
<polygon fill="white" stroke="black" points="2132,-145 2132,-175 2247,-175 2247,-145 2132,-145"/>
<text text-anchor="start" x="2140" y="-163" font-family="Helvetica,sans-Serif" font-size="10.00">JoyTabWidgetHelper</text>
<text text-anchor="middle" x="2189.5" y="-152" font-family="Helvetica,sans-Serif" font-size="10.00">::readConfigFile</text>
</a>
</g>
</g>
<!-- Node30&#45;&gt;Node31 -->
<g id="edge58" class="edge">
<title>Node30&#45;&gt;Node31</title>
<path fill="none" stroke="midnightblue" d="M2272.63,-159.54C2263.93,-159.59 2255.32,-159.64 2247.13,-159.68"/>
<polygon fill="midnightblue" stroke="midnightblue" points="2272.9,-163.04 2282.88,-159.49 2272.86,-156.04 2272.9,-163.04"/>
</g>
<!-- Node32 -->
<g id="node32" class="node">
<title>Node32</title>
<g id="a_node32"><a xlink:href="classJoyTabWidget.html#a47c76ec36601a5965910c3be16b9b1db" target="_top" xlink:title=" ">
<polygon fill="white" stroke="black" points="1926,-195.5 1926,-214.5 2096,-214.5 2096,-195.5 1926,-195.5"/>
<text text-anchor="middle" x="2011" y="-202.5" font-family="Helvetica,sans-Serif" font-size="10.00">JoyTabWidget::changeJoyConfig</text>
</a>
</g>
</g>
<!-- Node31&#45;&gt;Node32 -->
<g id="edge59" class="edge">
<title>Node31&#45;&gt;Node32</title>
<path fill="none" stroke="midnightblue" d="M2124.08,-177.68C2114.67,-180.18 2105.09,-182.69 2096,-185 2082.05,-188.54 2066.75,-192.24 2053.08,-195.48"/>
<polygon fill="midnightblue" stroke="midnightblue" points="2125.04,-181.05 2133.79,-175.08 2123.23,-174.28 2125.04,-181.05"/>
</g>
<!-- Node37 -->
<g id="node37" class="node">
<title>Node37</title>
<g id="a_node37"><a xlink:href="classJoyTabWidgetHelper.html#aab77bfeea124b5610b21540c5c95e681" target="_top" xlink:title=" ">
<polygon fill="white" stroke="black" points="1937.5,-145 1937.5,-175 2084.5,-175 2084.5,-145 1937.5,-145"/>
<text text-anchor="start" x="1945.5" y="-163" font-family="Helvetica,sans-Serif" font-size="10.00">JoyTabWidgetHelper</text>
<text text-anchor="middle" x="2011" y="-152" font-family="Helvetica,sans-Serif" font-size="10.00">::readConfigFileWithRevert</text>
</a>
</g>
</g>
<!-- Node31&#45;&gt;Node37 -->
<g id="edge69" class="edge">
<title>Node31&#45;&gt;Node37</title>
<path fill="none" stroke="midnightblue" d="M2121.65,-160C2109.52,-160 2096.82,-160 2084.53,-160"/>
<polygon fill="midnightblue" stroke="midnightblue" points="2121.68,-163.5 2131.68,-160 2121.68,-156.5 2121.68,-163.5"/>
</g>
<!-- Node32&#45;&gt;Node2 -->
<g id="edge60" class="edge">
<title>Node32&#45;&gt;Node2</title>
<path fill="none" stroke="midnightblue" d="M1932.2,-215.92C1915.05,-218.33 1896.98,-220.86 1880.17,-223.22"/>
<polygon fill="midnightblue" stroke="midnightblue" points="1932.76,-219.37 1942.18,-214.52 1931.79,-212.44 1932.76,-219.37"/>
</g>
<!-- Node32&#45;&gt;Node24 -->
<g id="edge68" class="edge">
<title>Node32&#45;&gt;Node24</title>
<path fill="none" stroke="midnightblue" d="M1981.09,-218.97C1957.03,-230.3 1921.72,-246.26 1890,-258 1881.62,-261.1 1872.63,-264.11 1863.83,-266.89"/>
<polygon fill="midnightblue" stroke="midnightblue" points="1982.82,-222.02 1990.35,-214.57 1979.81,-215.7 1982.82,-222.02"/>
</g>
<!-- Node33 -->
<g id="node33" class="node">
<title>Node33</title>
<g id="a_node33"><a xlink:href="classJoyTabWidget.html#af8bff794dd26441ea01dff33ca8ee29c" target="_top" xlink:title=" ">
<polygon fill="white" stroke="black" points="725,-22.5 725,-41.5 874,-41.5 874,-22.5 725,-22.5"/>
<text text-anchor="middle" x="799.5" y="-29.5" font-family="Helvetica,sans-Serif" font-size="10.00">JoyTabWidget::loadSettings</text>
</a>
</g>
</g>
<!-- Node32&#45;&gt;Node33 -->
<g id="edge61" class="edge">
<title>Node32&#45;&gt;Node33</title>
<path fill="none" stroke="midnightblue" d="M1948.37,-192.83C1940.71,-190.59 1933.09,-188 1926,-185 1774.85,-121.13 1770.59,0 1606.5,0 1606.5,0 1606.5,0 1198,0 1084.8,0 954.06,-13.05 874.35,-22.49"/>
<polygon fill="midnightblue" stroke="midnightblue" points="1947.48,-196.22 1958.05,-195.48 1949.33,-189.47 1947.48,-196.22"/>
</g>
<!-- Node34 -->
<g id="node34" class="node">
<title>Node34</title>
<g id="a_node34"><a xlink:href="classMainWindow.html#a35cd3e8600502e124a63d32e1d457710" target="_top" xlink:title=" ">
<polygon fill="white" stroke="black" points="521.5,-66.5 521.5,-85.5 676.5,-85.5 676.5,-66.5 521.5,-66.5"/>
<text text-anchor="middle" x="599" y="-73.5" font-family="Helvetica,sans-Serif" font-size="10.00">MainWindow::loadAppConfig</text>
</a>
</g>
</g>
<!-- Node33&#45;&gt;Node34 -->
<g id="edge62" class="edge">
<title>Node33&#45;&gt;Node34</title>
<path fill="none" stroke="midnightblue" d="M745.34,-43.78C713.29,-50.89 673.01,-59.82 642.99,-66.47"/>
<polygon fill="midnightblue" stroke="midnightblue" points="746.42,-47.13 755.43,-41.55 744.91,-40.29 746.42,-47.13"/>
</g>
<!-- Node36 -->
<g id="node36" class="node">
<title>Node36</title>
<g id="a_node36"><a xlink:href="classJoyTabWidget.html#a7fc1e549dce3dd0e945e43b94644fc0a" target="_top" xlink:title=" ">
<polygon fill="white" stroke="black" points="527.5,-17 527.5,-47 670.5,-47 670.5,-17 527.5,-17"/>
<text text-anchor="start" x="535.5" y="-35" font-family="Helvetica,sans-Serif" font-size="10.00">JoyTabWidget::loadDevice</text>
<text text-anchor="middle" x="599" y="-24" font-family="Helvetica,sans-Serif" font-size="10.00">Settings</text>
</a>
</g>
</g>
<!-- Node33&#45;&gt;Node36 -->
<g id="edge66" class="edge">
<title>Node33&#45;&gt;Node36</title>
<path fill="none" stroke="midnightblue" d="M714.77,-32C700.05,-32 684.86,-32 670.55,-32"/>
<polygon fill="midnightblue" stroke="midnightblue" points="714.87,-35.5 724.87,-32 714.87,-28.5 714.87,-35.5"/>
</g>
<!-- Node34&#45;&gt;Node10 -->
<g id="edge63" class="edge">
<title>Node34&#45;&gt;Node10</title>
<path fill="none" stroke="midnightblue" d="M555,-88.34C513.03,-100.39 450.08,-118.46 411.79,-129.45"/>
<polygon fill="midnightblue" stroke="midnightblue" points="556.02,-91.69 564.66,-85.57 554.09,-84.96 556.02,-91.69"/>
</g>
<!-- Node35 -->
<g id="node35" class="node">
<title>Node35</title>
<g id="a_node35"><a xlink:href="classMainWindow.html#ae857ce9d70cf899eb823a9caeb7a99cd" target="_top" xlink:title=" ">
<polygon fill="white" stroke="black" points="79,-61 79,-91 238,-91 238,-61 79,-61"/>
<text text-anchor="start" x="87" y="-79" font-family="Helvetica,sans-Serif" font-size="10.00">MainWindow::handleInstance</text>
<text text-anchor="middle" x="158.5" y="-68" font-family="Helvetica,sans-Serif" font-size="10.00">Disconnect</text>
</a>
</g>
</g>
<!-- Node34&#45;&gt;Node35 -->
<g id="edge64" class="edge">
<title>Node34&#45;&gt;Node35</title>
<path fill="none" stroke="midnightblue" d="M510.89,-76C431.41,-76 314.98,-76 238.24,-76"/>
<polygon fill="midnightblue" stroke="midnightblue" points="511.37,-79.5 521.37,-76 511.37,-72.5 511.37,-79.5"/>
</g>
<!-- Node35&#45;&gt;Node9 -->
<g id="edge65" class="edge">
<title>Node35&#45;&gt;Node9</title>
<path fill="none" stroke="midnightblue" d="M87.72,-95.2C84.01,-96.98 80.41,-98.91 77,-101 56.51,-113.56 38.23,-135.38 28.63,-148.07"/>
<polygon fill="midnightblue" stroke="midnightblue" points="89.37,-98.3 97.13,-91.08 86.57,-91.89 89.37,-98.3"/>
</g>
<!-- Node36&#45;&gt;Node8 -->
<g id="edge67" class="edge">
<title>Node36&#45;&gt;Node8</title>
<path fill="none" stroke="midnightblue" d="M517.23,-32C493.31,-32 467.42,-32 444.55,-32"/>
<polygon fill="midnightblue" stroke="midnightblue" points="517.34,-35.5 527.34,-32 517.34,-28.5 517.34,-35.5"/>
</g>
</g>
</svg>
        <g id="navigator" transform="translate(0 0)" fill="#404254">
                <rect fill="#f2f5e9" fill-opacity="0.5" stroke="#606060" stroke-width=".5" x="0" y="0" width="60" height="60"/>
                <use id="zoomplus" xlink:href="#zoomPlus" x="17" y="9" onmousedown="handleZoom(evt,'in')"/>
                <use id="zoomminus" xlink:href="#zoomMin" x="42" y="9" onmousedown="handleZoom(evt,'out')"/>
                <use id="reset" xlink:href="#resetDef" x="30" y="36" onmousedown="handleReset()"/>
                <g id="arrowUp" xlink:href="#dirArrow" transform="translate(30 24)" onmousedown="handlePan(0,-1)">
                  <use xlink:href="#rim" fill="#404040">
                        <set attributeName="fill" to="#808080" begin="arrowUp.mouseover" end="arrowUp.mouseout"/>
                  </use>
                  <path fill="none" stroke="white" stroke-width="1.5" d="M0,-3.0v7 M-2.5,-0.5L0,-3.0L2.5,-0.5"/>
                </g>
                <g id="arrowRight" xlink:href="#dirArrow" transform="rotate(90) translate(36 -43)" onmousedown="handlePan(1,0)">
                  <use xlink:href="#rim" fill="#404040">
                        <set attributeName="fill" to="#808080" begin="arrowRight.mouseover" end="arrowRight.mouseout"/>
                  </use>
                  <path fill="none" stroke="white" stroke-width="1.5" d="M0,-3.0v7 M-2.5,-0.5L0,-3.0L2.5,-0.5"/>
                </g>
                <g id="arrowDown" xlink:href="#dirArrow" transform="rotate(180) translate(-30 -48)" onmousedown="handlePan(0,1)">
                  <use xlink:href="#rim" fill="#404040">
                        <set attributeName="fill" to="#808080" begin="arrowDown.mouseover" end="arrowDown.mouseout"/>
                  </use>
                  <path fill="none" stroke="white" stroke-width="1.5" d="M0,-3.0v7 M-2.5,-0.5L0,-3.0L2.5,-0.5"/>
                </g>
                <g id="arrowLeft" xlink:href="#dirArrow" transform="rotate(270) translate(-36 17)" onmousedown="handlePan(-1,0)">
                  <use xlink:href="#rim" fill="#404040">
                        <set attributeName="fill" to="#808080" begin="arrowLeft.mouseover" end="arrowLeft.mouseout"/>
                  </use>
                  <path fill="none" stroke="white" stroke-width="1.5" d="M0,-3.0v7 M-2.5,-0.5L0,-3.0L2.5,-0.5"/>
                </g>
        </g>
        <svg viewBox="0 0 15 15" width="100%" height="30px" preserveAspectRatio="xMaxYMin meet">
         <g id="arrow_out" transform="scale(0.3 0.3)">
          <a xlink:href="classInputDevice_ab75bd2ab57cc303f47ff0270891fbabb_icgraph_org.svg" target="_base">
           <rect id="button" ry="5" rx="5" y="6" x="6" height="38" width="38"
                fill="#f2f5e9" fill-opacity="0.5" stroke="#606060" stroke-width="1.0"/>
           <path id="arrow"
             d="M 11.500037,31.436501 C 11.940474,20.09759 22.043105,11.32322 32.158766,21.979434 L 37.068811,17.246167 C 37.068811,17.246167 37.088388,32 37.088388,32 L 22.160133,31.978069 C 22.160133,31.978069 26.997745,27.140456 26.997745,27.140456 C 18.528582,18.264221 13.291696,25.230495 11.500037,31.436501 z"
             style="fill:#404040;"/>
          </a>
         </g>
        </svg>
</svg>
