<?xml version="1.0" encoding="UTF-8" standalone="no"?>
<!DOCTYPE svg PUBLIC "-//W3C//DTD SVG 1.1//EN"
 "http://www.w3.org/Graphics/SVG/1.1/DTD/svg11.dtd">
<!-- Generated by graphviz version 2.43.0 (0)
 -->
<!-- Title: MouseButtonSettingsDialog Pages: 1 -->
<svg width="2634pt" height="664pt"
 viewBox="0.00 0.00 2634.00 664.25" xmlns="http://www.w3.org/2000/svg" xmlns:xlink="http://www.w3.org/1999/xlink">
<g id="graph0" class="graph" transform="scale(1 1) rotate(0) translate(4 660.25)">
<title>MouseButtonSettingsDialog</title>
<polygon fill="white" stroke="transparent" points="-4,4 -4,-660.25 2630,-660.25 2630,4 -4,4"/>
<!-- Node1 -->
<g id="node1" class="node">
<title>Node1</title>
<g id="a_node1"><a xlink:title=" ">
<polygon fill="#bfbfbf" stroke="black" points="1108.5,-532.75 1108.5,-551.75 1260.5,-551.75 1260.5,-532.75 1108.5,-532.75"/>
<text text-anchor="middle" x="1184.5" y="-539.75" font-family="Helvetica,sans-Serif" font-size="10.00">MouseButtonSettingsDialog</text>
</a>
</g>
</g>
<!-- Node2 -->
<g id="node2" class="node">
<title>Node2</title>
<g id="a_node2"><a xlink:href="classMouseSettingsDialog.html" target="_top" xlink:title=" ">
<polygon fill="white" stroke="black" points="824,-504.75 824,-523.75 944,-523.75 944,-504.75 824,-504.75"/>
<text text-anchor="middle" x="884" y="-511.75" font-family="Helvetica,sans-Serif" font-size="10.00">MouseSettingsDialog</text>
</a>
</g>
</g>
<!-- Node2&#45;&gt;Node1 -->
<g id="edge1" class="edge">
<title>Node2&#45;&gt;Node1</title>
<path fill="none" stroke="midnightblue" d="M954.54,-520.77C1000.65,-525.1 1061.14,-530.77 1108.36,-535.2"/>
<polygon fill="midnightblue" stroke="midnightblue" points="954.61,-517.26 944.33,-519.81 953.96,-524.23 954.61,-517.26"/>
</g>
<!-- Node3 -->
<g id="node3" class="node">
<title>Node3</title>
<g id="a_node3"><a xlink:title=" ">
<polygon fill="white" stroke="#bfbfbf" points="614,-504.75 614,-523.75 670,-523.75 670,-504.75 614,-504.75"/>
<text text-anchor="middle" x="642" y="-511.75" font-family="Helvetica,sans-Serif" font-size="10.00">QDialog</text>
</a>
</g>
</g>
<!-- Node3&#45;&gt;Node2 -->
<g id="edge2" class="edge">
<title>Node3&#45;&gt;Node2</title>
<path fill="none" stroke="midnightblue" d="M680.25,-514.25C718.54,-514.25 778.74,-514.25 823.6,-514.25"/>
<polygon fill="midnightblue" stroke="midnightblue" points="680.06,-510.75 670.06,-514.25 680.06,-517.75 680.06,-510.75"/>
</g>
<!-- Node4 -->
<g id="node4" class="node">
<title>Node4</title>
<g id="a_node4"><a xlink:href="classSpringModeRegionPreview.html" target="_top" xlink:title=" ">
<polygon fill="white" stroke="black" points="810.5,-633.75 810.5,-652.75 957.5,-652.75 957.5,-633.75 810.5,-633.75"/>
<text text-anchor="middle" x="884" y="-640.75" font-family="Helvetica,sans-Serif" font-size="10.00">SpringModeRegionPreview</text>
</a>
</g>
</g>
<!-- Node4&#45;&gt;Node1 -->
<g id="edge3" class="edge">
<title>Node4&#45;&gt;Node1</title>
<path fill="none" stroke="#9a32cd" stroke-dasharray="5,2" d="M922.66,-630.51C983.31,-609.99 1101.27,-570.07 1155.28,-551.8"/>
<polygon fill="#9a32cd" stroke="#9a32cd" points="921.43,-627.23 913.08,-633.75 923.68,-633.86 921.43,-627.23"/>
<text text-anchor="middle" x="1031.5" y="-613.25" font-family="Helvetica,sans-Serif" font-size="10.00"> springPreviewWidget</text>
</g>
<!-- Node5 -->
<g id="node5" class="node">
<title>Node5</title>
<g id="a_node5"><a xlink:title=" ">
<polygon fill="white" stroke="#bfbfbf" points="612.5,-636.75 612.5,-655.75 671.5,-655.75 671.5,-636.75 612.5,-636.75"/>
<text text-anchor="middle" x="642" y="-643.75" font-family="Helvetica,sans-Serif" font-size="10.00">QWidget</text>
</a>
</g>
</g>
<!-- Node5&#45;&gt;Node4 -->
<g id="edge4" class="edge">
<title>Node5&#45;&gt;Node4</title>
<path fill="none" stroke="midnightblue" d="M682.14,-645.76C716.8,-645.33 768.3,-644.68 810.48,-644.15"/>
<polygon fill="midnightblue" stroke="midnightblue" points="681.91,-642.26 671.95,-645.89 681.99,-649.26 681.91,-642.26"/>
</g>
<!-- Node6 -->
<g id="node6" class="node">
<title>Node6</title>
<g id="a_node6"><a xlink:href="classMouseButtonSettingsDialogHelper.html" target="_top" xlink:title=" ">
<polygon fill="white" stroke="black" points="808,-543.25 808,-573.25 960,-573.25 960,-543.25 808,-543.25"/>
<text text-anchor="start" x="816" y="-561.25" font-family="Helvetica,sans-Serif" font-size="10.00">MouseButtonSettingsDialog</text>
<text text-anchor="middle" x="884" y="-550.25" font-family="Helvetica,sans-Serif" font-size="10.00">Helper</text>
</a>
</g>
</g>
<!-- Node6&#45;&gt;Node1 -->
<g id="edge5" class="edge">
<title>Node6&#45;&gt;Node1</title>
<path fill="none" stroke="#9a32cd" stroke-dasharray="5,2" d="M970.31,-543.96C972.9,-543.7 975.47,-543.46 978,-543.25 1021.02,-539.7 1069.29,-539.28 1108.22,-539.83"/>
<polygon fill="#9a32cd" stroke="#9a32cd" points="969.8,-540.5 960.25,-545.1 970.58,-547.45 969.8,-540.5"/>
<text text-anchor="middle" x="1031.5" y="-546.25" font-family="Helvetica,sans-Serif" font-size="10.00"> helper</text>
</g>
<!-- Node7 -->
<g id="node7" class="node">
<title>Node7</title>
<g id="a_node7"><a xlink:title=" ">
<polygon fill="white" stroke="#bfbfbf" points="124.5,-248.75 124.5,-267.75 180.5,-267.75 180.5,-248.75 124.5,-248.75"/>
<text text-anchor="middle" x="152.5" y="-255.75" font-family="Helvetica,sans-Serif" font-size="10.00">QObject</text>
</a>
</g>
</g>
<!-- Node7&#45;&gt;Node6 -->
<g id="edge6" class="edge">
<title>Node7&#45;&gt;Node6</title>
<path fill="none" stroke="midnightblue" d="M159.24,-278.01C168.83,-308.9 190.26,-369.59 222,-413.25 248.65,-449.91 257.32,-461.26 298,-481.25 466.02,-563.81 692.27,-567.74 807.99,-563.22"/>
<polygon fill="midnightblue" stroke="midnightblue" points="162.48,-276.63 156.24,-268.07 155.78,-278.65 162.48,-276.63"/>
</g>
<!-- Node8 -->
<g id="node8" class="node">
<title>Node8</title>
<g id="a_node8"><a xlink:href="classJoyButton.html" target="_top" xlink:title="Represents a single joystick button being part of a SetJoystick Contains multiple JoyButtonSlots whic...">
<polygon fill="white" stroke="black" points="610,-465.75 610,-484.75 674,-484.75 674,-465.75 610,-465.75"/>
<text text-anchor="middle" x="642" y="-472.75" font-family="Helvetica,sans-Serif" font-size="10.00">JoyButton</text>
</a>
</g>
</g>
<!-- Node7&#45;&gt;Node8 -->
<g id="edge8" class="edge">
<title>Node7&#45;&gt;Node8</title>
<path fill="none" stroke="midnightblue" d="M162.54,-277.11C181.74,-314.95 230.39,-400.02 298,-441.25 399.21,-502.97 442.02,-502.79 560,-491.25 576.55,-489.63 594.73,-486.19 609.67,-482.92"/>
<polygon fill="midnightblue" stroke="midnightblue" points="165.49,-275.18 157.92,-267.77 159.22,-278.28 165.49,-275.18"/>
</g>
<!-- Node9 -->
<g id="node9" class="node">
<title>Node9</title>
<g id="a_node9"><a xlink:href="classJoyButtonMouseHelper.html" target="_top" xlink:title=" ">
<polygon fill="white" stroke="black" points="298,-412.75 298,-431.75 426,-431.75 426,-412.75 298,-412.75"/>
<text text-anchor="middle" x="362" y="-419.75" font-family="Helvetica,sans-Serif" font-size="10.00">JoyButtonMouseHelper</text>
</a>
</g>
</g>
<!-- Node7&#45;&gt;Node9 -->
<g id="edge10" class="edge">
<title>Node7&#45;&gt;Node9</title>
<path fill="none" stroke="midnightblue" d="M167.46,-276.02C180.55,-292.04 201.18,-315.71 222,-333.25 261.88,-366.85 315.31,-397.66 342.87,-412.66"/>
<polygon fill="midnightblue" stroke="midnightblue" points="170.01,-273.6 161.01,-267.99 164.55,-277.98 170.01,-273.6"/>
</g>
<!-- Node10 -->
<g id="node10" class="node">
<title>Node10</title>
<g id="a_node10"><a xlink:href="classJoyButtonSlot.html" target="_top" xlink:title="Represents action which can be performed after pressing button.">
<polygon fill="white" stroke="black" points="320.5,-324.75 320.5,-343.75 403.5,-343.75 403.5,-324.75 320.5,-324.75"/>
<text text-anchor="middle" x="362" y="-331.75" font-family="Helvetica,sans-Serif" font-size="10.00">JoyButtonSlot</text>
</a>
</g>
</g>
<!-- Node7&#45;&gt;Node10 -->
<g id="edge12" class="edge">
<title>Node7&#45;&gt;Node10</title>
<path fill="none" stroke="midnightblue" d="M170.84,-275.2C183.85,-286.91 202.68,-301.85 222,-310.25 253.33,-323.87 291.79,-329.77 320.31,-332.32"/>
<polygon fill="midnightblue" stroke="midnightblue" points="172.88,-272.32 163.18,-268.06 168.11,-277.44 172.88,-272.32"/>
</g>
<!-- Node12 -->
<g id="node12" class="node">
<title>Node12</title>
<g id="a_node12"><a xlink:href="classJoyDPad.html" target="_top" xlink:title=" ">
<polygon fill="white" stroke="black" points="2336,-269.75 2336,-288.75 2392,-288.75 2392,-269.75 2336,-269.75"/>
<text text-anchor="middle" x="2364" y="-276.75" font-family="Helvetica,sans-Serif" font-size="10.00">JoyDPad</text>
</a>
</g>
</g>
<!-- Node7&#45;&gt;Node12 -->
<g id="edge15" class="edge">
<title>Node7&#45;&gt;Node12</title>
<path fill="none" stroke="midnightblue" d="M160.75,-238.83C170.85,-214.32 191.43,-172.46 222,-148.25 273.12,-107.75 295.79,-101.25 361,-101.25 361,-101.25 361,-101.25 2199.5,-101.25 2291.81,-101.25 2346.21,-232.71 2359.69,-269.68"/>
<polygon fill="midnightblue" stroke="midnightblue" points="157.37,-237.86 156.96,-248.45 163.88,-240.43 157.37,-237.86"/>
</g>
<!-- Node14 -->
<g id="node14" class="node">
<title>Node14</title>
<g id="a_node14"><a xlink:href="classSetJoystickXml.html" target="_top" xlink:title="SetJoystick XML serialization/deserialization helper class Reads data from the supplied SetJoystick o...">
<polygon fill="white" stroke="black" points="1965,-185.75 1965,-204.75 2055,-204.75 2055,-185.75 1965,-185.75"/>
<text text-anchor="middle" x="2010" y="-192.75" font-family="Helvetica,sans-Serif" font-size="10.00">SetJoystickXml</text>
</a>
</g>
</g>
<!-- Node7&#45;&gt;Node14 -->
<g id="edge18" class="edge">
<title>Node7&#45;&gt;Node14</title>
<path fill="none" stroke="midnightblue" d="M165.66,-240.22C177.99,-223.23 198.55,-198.23 222,-183.25 276.6,-148.36 296.2,-139.25 361,-139.25 361,-139.25 361,-139.25 1828,-139.25 1890,-139.25 1958.83,-169.61 1990.82,-185.62"/>
<polygon fill="midnightblue" stroke="midnightblue" points="162.58,-238.52 159.69,-248.71 168.3,-242.54 162.58,-238.52"/>
</g>
<!-- Node15 -->
<g id="node15" class="node">
<title>Node15</title>
<g id="a_node15"><a xlink:href="classJoyAxisXml.html" target="_top" xlink:title=" ">
<polygon fill="white" stroke="black" points="1791,-205.75 1791,-224.75 1863,-224.75 1863,-205.75 1791,-205.75"/>
<text text-anchor="middle" x="1827" y="-212.75" font-family="Helvetica,sans-Serif" font-size="10.00">JoyAxisXml</text>
</a>
</g>
</g>
<!-- Node7&#45;&gt;Node15 -->
<g id="edge21" class="edge">
<title>Node7&#45;&gt;Node15</title>
<path fill="none" stroke="midnightblue" d="M190.98,-255.09C312.26,-245.17 704.96,-215.25 1030.5,-215.25 1030.5,-215.25 1030.5,-215.25 1639.5,-215.25 1692.28,-215.25 1753.45,-215.25 1790.94,-215.25"/>
<polygon fill="midnightblue" stroke="midnightblue" points="190.43,-251.63 180.76,-255.94 191.01,-258.6 190.43,-251.63"/>
</g>
<!-- Node16 -->
<g id="node16" class="node">
<title>Node16</title>
<g id="a_node16"><a xlink:href="classJoyAxis.html" target="_top" xlink:title="Represents single axis of of joystick (or other input)">
<polygon fill="white" stroke="black" points="1612,-264.75 1612,-283.75 1665,-283.75 1665,-264.75 1612,-264.75"/>
<text text-anchor="middle" x="1638.5" y="-271.75" font-family="Helvetica,sans-Serif" font-size="10.00">JoyAxis</text>
</a>
</g>
</g>
<!-- Node7&#45;&gt;Node16 -->
<g id="edge23" class="edge">
<title>Node7&#45;&gt;Node16</title>
<path fill="none" stroke="midnightblue" d="M190.86,-258.12C406.91,-257.38 1489.01,-254.01 1559,-260.25 1576.79,-261.83 1596.58,-265.38 1611.84,-268.5"/>
<polygon fill="midnightblue" stroke="midnightblue" points="190.66,-254.62 180.67,-258.15 190.68,-261.62 190.66,-254.62"/>
</g>
<!-- Node19 -->
<g id="node19" class="node">
<title>Node19</title>
<g id="a_node19"><a xlink:href="classJoyControlStick.html" target="_top" xlink:title="Represents stick of a joystick.">
<polygon fill="white" stroke="black" points="1378,-412.75 1378,-431.75 1469,-431.75 1469,-412.75 1378,-412.75"/>
<text text-anchor="middle" x="1423.5" y="-419.75" font-family="Helvetica,sans-Serif" font-size="10.00">JoyControlStick</text>
</a>
</g>
</g>
<!-- Node7&#45;&gt;Node19 -->
<g id="edge30" class="edge">
<title>Node7&#45;&gt;Node19</title>
<path fill="none" stroke="midnightblue" d="M190.54,-266.47C200.7,-268.55 211.75,-270.64 222,-272.25 724.68,-351.05 866.37,-273.85 1360,-397.25 1374.74,-400.93 1390.63,-407.32 1402.69,-412.72"/>
<polygon fill="midnightblue" stroke="midnightblue" points="191.23,-263.04 180.73,-264.41 189.8,-269.89 191.23,-263.04"/>
</g>
<!-- Node23 -->
<g id="node23" class="node">
<title>Node23</title>
<g id="a_node23"><a xlink:href="classJoyButtonXml.html" target="_top" xlink:title=" ">
<polygon fill="white" stroke="black" points="842.5,-167.75 842.5,-186.75 925.5,-186.75 925.5,-167.75 842.5,-167.75"/>
<text text-anchor="middle" x="884" y="-174.75" font-family="Helvetica,sans-Serif" font-size="10.00">JoyButtonXml</text>
</a>
</g>
</g>
<!-- Node7&#45;&gt;Node23 -->
<g id="edge39" class="edge">
<title>Node7&#45;&gt;Node23</title>
<path fill="none" stroke="midnightblue" d="M168.52,-240.58C181.22,-227.06 200.7,-209.39 222,-201.25 335.97,-157.68 716.18,-169.9 842.1,-175.32"/>
<polygon fill="midnightblue" stroke="midnightblue" points="165.63,-238.56 161.54,-248.34 170.83,-243.24 165.63,-238.56"/>
</g>
<!-- Node24 -->
<g id="node24" class="node">
<title>Node24</title>
<g id="a_node24"><a xlink:href="classInputDevice.html" target="_top" xlink:title="Abstract class representing a hardware input device, e.g a joystick or controller.">
<polygon fill="white" stroke="black" points="324.5,-30.75 324.5,-49.75 399.5,-49.75 399.5,-30.75 324.5,-30.75"/>
<text text-anchor="middle" x="362" y="-37.75" font-family="Helvetica,sans-Serif" font-size="10.00">InputDevice</text>
</a>
</g>
</g>
<!-- Node7&#45;&gt;Node24 -->
<g id="edge42" class="edge">
<title>Node7&#45;&gt;Node24</title>
<path fill="none" stroke="midnightblue" d="M155.98,-238.56C161.44,-203.29 177.78,-129.1 222,-87.25 236.94,-73.11 288.35,-58.1 324.27,-48.95"/>
<polygon fill="midnightblue" stroke="midnightblue" points="152.5,-238.16 154.56,-248.55 159.43,-239.14 152.5,-238.16"/>
</g>
<!-- Node8&#45;&gt;Node1 -->
<g id="edge50" class="edge">
<title>Node8&#45;&gt;Node1</title>
<path fill="none" stroke="#9a32cd" stroke-dasharray="5,2" d="M684.58,-473.46C745.4,-471.52 862.04,-470.33 960,-484.25 996.81,-489.48 1097.63,-517.58 1150.36,-532.66"/>
<polygon fill="#9a32cd" stroke="#9a32cd" points="684.12,-469.97 674.24,-473.82 684.36,-476.97 684.12,-469.97"/>
<text text-anchor="middle" x="884" y="-487.25" font-family="Helvetica,sans-Serif" font-size="10.00"> button</text>
</g>
<!-- Node8&#45;&gt;Node6 -->
<g id="edge7" class="edge">
<title>Node8&#45;&gt;Node6</title>
<path fill="none" stroke="#9a32cd" stroke-dasharray="5,2" d="M684,-487.94C691.34,-490.31 698.91,-492.81 706,-495.25 751.74,-511.02 762.38,-517.15 808,-533.25 817.32,-536.54 827.33,-539.95 836.9,-543.16"/>
<polygon fill="#9a32cd" stroke="#9a32cd" points="684.77,-484.51 674.18,-484.81 682.65,-491.18 684.77,-484.51"/>
<text text-anchor="middle" x="757" y="-528.25" font-family="Helvetica,sans-Serif" font-size="10.00"> button</text>
</g>
<!-- Node18 -->
<g id="node18" class="node">
<title>Node18</title>
<g id="a_node18"><a xlink:href="classJoyGradientButton.html" target="_top" xlink:title=" ">
<polygon fill="white" stroke="black" points="831,-419.75 831,-438.75 937,-438.75 937,-419.75 831,-419.75"/>
<text text-anchor="middle" x="884" y="-426.75" font-family="Helvetica,sans-Serif" font-size="10.00">JoyGradientButton</text>
</a>
</g>
</g>
<!-- Node8&#45;&gt;Node18 -->
<g id="edge27" class="edge">
<title>Node8&#45;&gt;Node18</title>
<path fill="none" stroke="midnightblue" d="M684.37,-467.32C725.69,-459.4 789.21,-447.23 833.24,-438.78"/>
<polygon fill="midnightblue" stroke="midnightblue" points="683.54,-463.91 674.38,-469.23 684.86,-470.79 683.54,-463.91"/>
</g>
<!-- Node8&#45;&gt;Node23 -->
<g id="edge40" class="edge">
<title>Node8&#45;&gt;Node23</title>
<path fill="none" stroke="#9a32cd" stroke-dasharray="5,2" d="M648.37,-455.49C658.59,-420.51 683.53,-346.64 724,-296.25 764.91,-245.3 832.38,-204.58 864.67,-186.85"/>
<polygon fill="#9a32cd" stroke="#9a32cd" points="644.92,-454.82 645.56,-465.4 651.65,-456.73 644.92,-454.82"/>
<text text-anchor="middle" x="757" y="-299.25" font-family="Helvetica,sans-Serif" font-size="10.00"> m_joyButton</text>
</g>
<!-- Node28 -->
<g id="node28" class="node">
<title>Node28</title>
<g id="a_node28"><a xlink:href="classJoyDPadButton.html" target="_top" xlink:title=" ">
<polygon fill="white" stroke="black" points="2537,-303.75 2537,-322.75 2626,-322.75 2626,-303.75 2537,-303.75"/>
<text text-anchor="middle" x="2581.5" y="-310.75" font-family="Helvetica,sans-Serif" font-size="10.00">JoyDPadButton</text>
</a>
</g>
</g>
<!-- Node8&#45;&gt;Node28 -->
<g id="edge48" class="edge">
<title>Node8&#45;&gt;Node28</title>
<path fill="none" stroke="midnightblue" d="M673.72,-461.54C706.49,-447.3 760.16,-425.07 808,-410.25 936.52,-370.43 969.31,-357.46 1103,-342.25 1339.94,-315.29 1399.03,-389.25 1637.5,-389.25 1637.5,-389.25 1637.5,-389.25 2365,-389.25 2443.95,-389.25 2530.37,-343.32 2564.95,-322.87"/>
<polygon fill="midnightblue" stroke="midnightblue" points="672.01,-458.47 664.25,-465.69 674.82,-464.88 672.01,-458.47"/>
</g>
<!-- Node9&#45;&gt;Node8 -->
<g id="edge9" class="edge">
<title>Node9&#45;&gt;Node8</title>
<path fill="none" stroke="#9a32cd" stroke-dasharray="5,2" d="M386.77,-437.1C402.41,-446.07 423.68,-456.79 444,-462.25 500.94,-477.53 570.29,-478.15 609.68,-476.91"/>
<polygon fill="#9a32cd" stroke="#9a32cd" points="388.21,-433.88 377.82,-431.8 384.64,-439.91 388.21,-433.88"/>
<text text-anchor="middle" x="502" y="-479.25" font-family="Helvetica,sans-Serif" font-size="10.00"> mouseHelper</text>
</g>
<!-- Node10&#45;&gt;Node8 -->
<g id="edge11" class="edge">
<title>Node10&#45;&gt;Node8</title>
<path fill="none" stroke="#9a32cd" stroke-dasharray="5,2" d="M399.21,-321.67C441.06,-309.51 510.53,-296.83 560,-326.25 613.15,-357.85 633.61,-437.87 639.24,-465.61"/>
<polygon fill="#9a32cd" stroke="#9a32cd" points="397.99,-318.39 389.44,-324.65 400.03,-325.08 397.99,-318.39"/>
<text text-anchor="middle" x="502" y="-450.25" font-family="Helvetica,sans-Serif" font-size="10.00"> currentDelay</text>
<text text-anchor="middle" x="502" y="-439.25" font-family="Helvetica,sans-Serif" font-size="10.00">lastActiveKey</text>
<text text-anchor="middle" x="502" y="-428.25" font-family="Helvetica,sans-Serif" font-size="10.00">currentSetChangeSlot</text>
<text text-anchor="middle" x="502" y="-417.25" font-family="Helvetica,sans-Serif" font-size="10.00">currentKeyPress</text>
<text text-anchor="middle" x="502" y="-406.25" font-family="Helvetica,sans-Serif" font-size="10.00">currentRelease</text>
<text text-anchor="middle" x="502" y="-395.25" font-family="Helvetica,sans-Serif" font-size="10.00">currentCycle</text>
<text text-anchor="middle" x="502" y="-384.25" font-family="Helvetica,sans-Serif" font-size="10.00">previousCycle</text>
<text text-anchor="middle" x="502" y="-373.25" font-family="Helvetica,sans-Serif" font-size="10.00">m_currentDistance</text>
<text text-anchor="middle" x="502" y="-362.25" font-family="Helvetica,sans-Serif" font-size="10.00">currentPause</text>
<text text-anchor="start" x="444" y="-351.25" font-family="Helvetica,sans-Serif" font-size="10.00">currentWheelHorizontal</text>
<text text-anchor="middle" x="502" y="-340.25" font-family="Helvetica,sans-Serif" font-size="10.00">Event</text>
<text text-anchor="middle" x="502" y="-329.25" font-family="Helvetica,sans-Serif" font-size="10.00">...</text>
</g>
<!-- Node11 -->
<g id="node11" class="node">
<title>Node11</title>
<g id="a_node11"><a xlink:href="classVDPad.html" target="_top" xlink:title=" ">
<polygon fill="white" stroke="black" points="2557.5,-538.75 2557.5,-557.75 2605.5,-557.75 2605.5,-538.75 2557.5,-538.75"/>
<text text-anchor="middle" x="2581.5" y="-545.75" font-family="Helvetica,sans-Serif" font-size="10.00">VDPad</text>
</a>
</g>
</g>
<!-- Node11&#45;&gt;Node8 -->
<g id="edge13" class="edge">
<title>Node11&#45;&gt;Node8</title>
<path fill="none" stroke="#9a32cd" stroke-dasharray="5,2" d="M2548.69,-561.43C2507.19,-577.42 2431.95,-602.25 2365,-602.25 1030.5,-602.25 1030.5,-602.25 1030.5,-602.25 931.25,-602.25 903.41,-610.6 808,-583.25 767.68,-571.69 752.25,-571.25 724,-540.25 709.49,-524.33 721.78,-509.91 706,-495.25 697.26,-487.12 685.22,-482.3 674.01,-479.43"/>
<polygon fill="#9a32cd" stroke="#9a32cd" points="2549.97,-564.69 2558,-557.78 2547.42,-558.18 2549.97,-564.69"/>
<text text-anchor="middle" x="1745.5" y="-605.25" font-family="Helvetica,sans-Serif" font-size="10.00"> m_vdpad</text>
</g>
<!-- Node12&#45;&gt;Node11 -->
<g id="edge14" class="edge">
<title>Node12&#45;&gt;Node11</title>
<path fill="none" stroke="midnightblue" d="M2379.02,-296.74C2420.35,-348.34 2540.84,-498.74 2572.7,-538.51"/>
<polygon fill="midnightblue" stroke="midnightblue" points="2381.65,-294.44 2372.67,-288.82 2376.19,-298.81 2381.65,-294.44"/>
</g>
<!-- Node12&#45;&gt;Node28 -->
<g id="edge49" class="edge">
<title>Node12&#45;&gt;Node28</title>
<path fill="none" stroke="#9a32cd" stroke-dasharray="5,2" d="M2402.38,-273.6C2434,-270.1 2480.22,-267.99 2519,-278.25 2537.53,-283.15 2556.31,-295.08 2568.16,-303.64"/>
<polygon fill="#9a32cd" stroke="#9a32cd" points="2401.75,-270.15 2392.25,-274.83 2402.59,-277.1 2401.75,-270.15"/>
<text text-anchor="middle" x="2464.5" y="-281.25" font-family="Helvetica,sans-Serif" font-size="10.00"> m_dpad</text>
</g>
<!-- Node13 -->
<g id="node13" class="node">
<title>Node13</title>
<g id="a_node13"><a xlink:href="classSetJoystick.html" target="_top" xlink:title="A set of mapped events which can by switched by a controller event. Contains controller input objects...">
<polygon fill="white" stroke="black" points="2163,-218.75 2163,-237.75 2234,-237.75 2234,-218.75 2163,-218.75"/>
<text text-anchor="middle" x="2198.5" y="-225.75" font-family="Helvetica,sans-Serif" font-size="10.00">SetJoystick</text>
</a>
</g>
</g>
<!-- Node13&#45;&gt;Node12 -->
<g id="edge16" class="edge">
<title>Node13&#45;&gt;Node12</title>
<path fill="none" stroke="#9a32cd" stroke-dasharray="5,2" d="M2239.98,-240.87C2269.88,-250.2 2309.78,-262.65 2335.91,-270.8"/>
<polygon fill="#9a32cd" stroke="#9a32cd" points="2240.84,-237.48 2230.25,-237.84 2238.76,-244.16 2240.84,-237.48"/>
<text text-anchor="middle" x="2285" y="-267.25" font-family="Helvetica,sans-Serif" font-size="10.00"> m_parentSet</text>
</g>
<!-- Node13&#45;&gt;Node14 -->
<g id="edge19" class="edge">
<title>Node13&#45;&gt;Node14</title>
<path fill="none" stroke="#9a32cd" stroke-dasharray="5,2" d="M2152.78,-220.35C2129.07,-216.17 2099.45,-210.93 2073,-206.25 2067.19,-205.22 2061.07,-204.13 2055.03,-203.06"/>
<polygon fill="#9a32cd" stroke="#9a32cd" points="2152.43,-223.85 2162.88,-222.14 2153.64,-216.95 2152.43,-223.85"/>
<text text-anchor="middle" x="2109" y="-222.25" font-family="Helvetica,sans-Serif" font-size="10.00"> m_setJoystick</text>
</g>
<!-- Node13&#45;&gt;Node16 -->
<g id="edge24" class="edge">
<title>Node13&#45;&gt;Node16</title>
<path fill="none" stroke="#9a32cd" stroke-dasharray="5,2" d="M2152.71,-233.47C2150.1,-233.74 2147.52,-234 2145,-234.25 1961.2,-252.02 1739.24,-267.52 1665.04,-272.54"/>
<polygon fill="#9a32cd" stroke="#9a32cd" points="2153.21,-236.94 2162.78,-232.39 2152.47,-229.98 2153.21,-236.94"/>
<text text-anchor="middle" x="1914" y="-260.25" font-family="Helvetica,sans-Serif" font-size="10.00"> m_parentSet</text>
</g>
<!-- Node14&#45;&gt;Node13 -->
<g id="edge17" class="edge">
<title>Node14&#45;&gt;Node13</title>
<path fill="none" stroke="midnightblue" d="M2065.41,-197.92C2089.95,-199.89 2119.17,-203.32 2145,-209.25 2155.01,-211.55 2165.74,-215.2 2174.86,-218.69"/>
<polygon fill="midnightblue" stroke="midnightblue" points="2065.43,-194.41 2055.2,-197.16 2064.91,-201.39 2065.43,-194.41"/>
</g>
<!-- Node15&#45;&gt;Node14 -->
<g id="edge20" class="edge">
<title>Node15&#45;&gt;Node14</title>
<path fill="none" stroke="#9a32cd" stroke-dasharray="5,2" d="M1873.63,-210.21C1901.56,-207.12 1937.12,-203.19 1964.79,-200.13"/>
<polygon fill="#9a32cd" stroke="#9a32cd" points="1872.88,-206.77 1863.33,-211.34 1873.65,-213.72 1872.88,-206.77"/>
<text text-anchor="middle" x="1914" y="-213.25" font-family="Helvetica,sans-Serif" font-size="10.00"> joyAxisXml</text>
</g>
<!-- Node16&#45;&gt;Node15 -->
<g id="edge22" class="edge">
<title>Node16&#45;&gt;Node15</title>
<path fill="none" stroke="#9a32cd" stroke-dasharray="5,2" d="M1675.13,-262.87C1688.57,-258.59 1703.98,-253.69 1718,-249.25 1744.05,-241 1773.65,-231.69 1795.27,-224.89"/>
<polygon fill="#9a32cd" stroke="#9a32cd" points="1673.77,-259.63 1665.3,-266.01 1675.89,-266.3 1673.77,-259.63"/>
<text text-anchor="middle" x="1745.5" y="-252.25" font-family="Helvetica,sans-Serif" font-size="10.00"> m_joyAxis</text>
</g>
<!-- Node17 -->
<g id="node17" class="node">
<title>Node17</title>
<g id="a_node17"><a xlink:href="classJoyAxisButton.html" target="_top" xlink:title=" ">
<polygon fill="white" stroke="black" points="1381,-319.75 1381,-338.75 1466,-338.75 1466,-319.75 1381,-319.75"/>
<text text-anchor="middle" x="1423.5" y="-326.75" font-family="Helvetica,sans-Serif" font-size="10.00">JoyAxisButton</text>
</a>
</g>
</g>
<!-- Node16&#45;&gt;Node17 -->
<g id="edge28" class="edge">
<title>Node16&#45;&gt;Node17</title>
<path fill="none" stroke="#9a32cd" stroke-dasharray="5,2" d="M1608.8,-288.23C1594.19,-294.86 1575.97,-302.37 1559,-307.25 1528.53,-316.01 1493.11,-321.63 1466.26,-324.99"/>
<polygon fill="#9a32cd" stroke="#9a32cd" points="1610.69,-291.22 1618.28,-283.83 1607.74,-284.87 1610.69,-291.22"/>
<text text-anchor="middle" x="1523" y="-325.25" font-family="Helvetica,sans-Serif" font-size="10.00"> m_axis</text>
</g>
<!-- Node17&#45;&gt;Node16 -->
<g id="edge25" class="edge">
<title>Node17&#45;&gt;Node16</title>
<path fill="none" stroke="#9a32cd" stroke-dasharray="5,2" d="M1438.26,-311.64C1449.7,-298.54 1467.25,-281.7 1487,-274.25 1528.44,-258.61 1580.98,-263.68 1611.76,-268.89"/>
<polygon fill="#9a32cd" stroke="#9a32cd" points="1435.37,-309.64 1431.67,-319.57 1440.75,-314.12 1435.37,-309.64"/>
<text text-anchor="middle" x="1523" y="-299.25" font-family="Helvetica,sans-Serif" font-size="10.00"> paxisbutton</text>
<text text-anchor="middle" x="1523" y="-288.25" font-family="Helvetica,sans-Serif" font-size="10.00">activeButton</text>
<text text-anchor="middle" x="1523" y="-277.25" font-family="Helvetica,sans-Serif" font-size="10.00">naxisbutton</text>
</g>
<!-- Node18&#45;&gt;Node17 -->
<g id="edge26" class="edge">
<title>Node18&#45;&gt;Node17</title>
<path fill="none" stroke="midnightblue" d="M946.54,-417.8C1057.16,-397.22 1286.83,-354.49 1380.92,-336.98"/>
<polygon fill="midnightblue" stroke="midnightblue" points="945.73,-414.39 936.54,-419.66 947.01,-421.27 945.73,-414.39"/>
</g>
<!-- Node21 -->
<g id="node21" class="node">
<title>Node21</title>
<g id="a_node21"><a xlink:href="classJoyControlStickModifierButton.html" target="_top" xlink:title=" ">
<polygon fill="white" stroke="black" points="1103,-418.75 1103,-437.75 1266,-437.75 1266,-418.75 1103,-418.75"/>
<text text-anchor="middle" x="1184.5" y="-425.75" font-family="Helvetica,sans-Serif" font-size="10.00">JoyControlStickModifierButton</text>
</a>
</g>
</g>
<!-- Node18&#45;&gt;Node21 -->
<g id="edge33" class="edge">
<title>Node18&#45;&gt;Node21</title>
<path fill="none" stroke="midnightblue" d="M947.57,-429.04C992.69,-428.89 1053.98,-428.68 1102.79,-428.52"/>
<polygon fill="midnightblue" stroke="midnightblue" points="947.32,-425.54 937.34,-429.07 947.35,-432.54 947.32,-425.54"/>
</g>
<!-- Node22 -->
<g id="node22" class="node">
<title>Node22</title>
<g id="a_node22"><a xlink:href="classJoyControlStickButton.html" target="_top" xlink:title=" ">
<polygon fill="white" stroke="black" points="1577,-446.75 1577,-465.75 1700,-465.75 1700,-446.75 1577,-446.75"/>
<text text-anchor="middle" x="1638.5" y="-453.75" font-family="Helvetica,sans-Serif" font-size="10.00">JoyControlStickButton</text>
</a>
</g>
</g>
<!-- Node18&#45;&gt;Node22 -->
<g id="edge36" class="edge">
<title>Node18&#45;&gt;Node22</title>
<path fill="none" stroke="midnightblue" d="M922.53,-441.97C965.53,-455.82 1038.4,-477.08 1103,-485.25 1165.77,-493.18 1510.11,-489.19 1559,-481.25 1577.92,-478.18 1598.54,-471.47 1613.9,-465.78"/>
<polygon fill="midnightblue" stroke="midnightblue" points="923.37,-438.56 912.78,-438.79 921.2,-445.22 923.37,-438.56"/>
</g>
<!-- Node19&#45;&gt;Node16 -->
<g id="edge29" class="edge">
<title>Node19&#45;&gt;Node16</title>
<path fill="none" stroke="#9a32cd" stroke-dasharray="5,2" d="M1449.99,-407.31C1477.46,-390.95 1522.2,-363.52 1559,-337.25 1583.89,-319.48 1611.43,-296.56 1626.37,-283.84"/>
<polygon fill="#9a32cd" stroke="#9a32cd" points="1447.86,-404.51 1441.04,-412.62 1451.42,-410.53 1447.86,-404.51"/>
<text text-anchor="middle" x="1523" y="-385.25" font-family="Helvetica,sans-Serif" font-size="10.00"> m_stick</text>
</g>
<!-- Node19&#45;&gt;Node21 -->
<g id="edge34" class="edge">
<title>Node19&#45;&gt;Node21</title>
<path fill="none" stroke="#9a32cd" stroke-dasharray="5,2" d="M1367.41,-423.64C1337.3,-424.41 1299.44,-425.36 1266.07,-426.21"/>
<polygon fill="#9a32cd" stroke="#9a32cd" points="1367.81,-427.13 1377.72,-423.38 1367.63,-420.14 1367.81,-427.13"/>
<text text-anchor="middle" x="1322" y="-428.25" font-family="Helvetica,sans-Serif" font-size="10.00"> stick</text>
</g>
<!-- Node19&#45;&gt;Node22 -->
<g id="edge37" class="edge">
<title>Node19&#45;&gt;Node22</title>
<path fill="none" stroke="#9a32cd" stroke-dasharray="5,2" d="M1479.44,-416.51C1504.03,-415.31 1533.22,-415.76 1559,-421.25 1581.77,-426.09 1605.94,-438.03 1621.35,-446.62"/>
<polygon fill="#9a32cd" stroke="#9a32cd" points="1478.98,-413.04 1469.21,-417.12 1479.4,-420.02 1478.98,-413.04"/>
<text text-anchor="middle" x="1523" y="-424.25" font-family="Helvetica,sans-Serif" font-size="10.00"> stick</text>
</g>
<!-- Node20 -->
<g id="node20" class="node">
<title>Node20</title>
<g id="a_node20"><a xlink:href="classJoyStickDirectionsType.html" target="_top" xlink:title=" ">
<polygon fill="white" stroke="black" points="1120.5,-456.75 1120.5,-475.75 1248.5,-475.75 1248.5,-456.75 1120.5,-456.75"/>
<text text-anchor="middle" x="1184.5" y="-463.75" font-family="Helvetica,sans-Serif" font-size="10.00">JoyStickDirectionsType</text>
</a>
</g>
</g>
<!-- Node20&#45;&gt;Node19 -->
<g id="edge31" class="edge">
<title>Node20&#45;&gt;Node19</title>
<path fill="none" stroke="midnightblue" d="M1258.83,-457.52C1290.17,-453.23 1327.05,-447.41 1360,-440.25 1370.7,-437.92 1382.27,-434.77 1392.51,-431.76"/>
<polygon fill="midnightblue" stroke="midnightblue" points="1258.31,-454.06 1248.87,-458.86 1259.24,-461 1258.31,-454.06"/>
</g>
<!-- Node21&#45;&gt;Node19 -->
<g id="edge32" class="edge">
<title>Node21&#45;&gt;Node19</title>
<path fill="none" stroke="#9a32cd" stroke-dasharray="5,2" d="M1227.79,-416.13C1245.06,-411.77 1265.33,-407.4 1284,-405.25 1317.56,-401.38 1326.52,-400.78 1360,-405.25 1371.15,-406.74 1383.12,-409.66 1393.58,-412.66"/>
<polygon fill="#9a32cd" stroke="#9a32cd" points="1226.8,-412.77 1218,-418.68 1228.56,-419.54 1226.8,-412.77"/>
<text text-anchor="middle" x="1322" y="-408.25" font-family="Helvetica,sans-Serif" font-size="10.00"> modifierButton</text>
</g>
<!-- Node22&#45;&gt;Node19 -->
<g id="edge35" class="edge">
<title>Node22&#45;&gt;Node19</title>
<path fill="none" stroke="#9a32cd" stroke-dasharray="5,2" d="M1566.77,-446.57C1541.56,-442.95 1512.97,-438.64 1487,-434.25 1481.23,-433.27 1475.16,-432.19 1469.18,-431.08"/>
<polygon fill="#9a32cd" stroke="#9a32cd" points="1566.59,-450.08 1576.99,-448.03 1567.58,-443.15 1566.59,-450.08"/>
<text text-anchor="middle" x="1523" y="-469.25" font-family="Helvetica,sans-Serif" font-size="10.00"> activeButton1</text>
<text text-anchor="middle" x="1523" y="-458.25" font-family="Helvetica,sans-Serif" font-size="10.00">activeButton2</text>
<text text-anchor="middle" x="1523" y="-447.25" font-family="Helvetica,sans-Serif" font-size="10.00">activeButton3</text>
</g>
<!-- Node23&#45;&gt;Node14 -->
<g id="edge38" class="edge">
<title>Node23&#45;&gt;Node14</title>
<path fill="none" stroke="#9a32cd" stroke-dasharray="5,2" d="M935.79,-177.25C995.19,-177.25 1096.48,-177.25 1183.5,-177.25 1183.5,-177.25 1183.5,-177.25 1828,-177.25 1874.89,-177.25 1928.29,-183.3 1964.86,-188.39"/>
<polygon fill="#9a32cd" stroke="#9a32cd" points="935.56,-173.75 925.56,-177.25 935.56,-180.75 935.56,-173.75"/>
<text text-anchor="middle" x="1523" y="-180.25" font-family="Helvetica,sans-Serif" font-size="10.00"> joyButtonXml</text>
</g>
<!-- Node24&#45;&gt;Node13 -->
<g id="edge41" class="edge">
<title>Node24&#45;&gt;Node13</title>
<path fill="none" stroke="#9a32cd" stroke-dasharray="5,2" d="M409.97,-46.24C465.17,-52.76 559.58,-62.25 641,-62.25 641,-62.25 641,-62.25 1323,-62.25 1462.78,-62.25 1497.72,-63.25 1637.5,-63.25 1637.5,-63.25 1637.5,-63.25 1915,-63.25 2038.82,-63.25 2156.62,-182.9 2188.86,-218.42"/>
<polygon fill="#9a32cd" stroke="#9a32cd" points="410.15,-42.74 399.8,-45.02 409.31,-49.69 410.15,-42.74"/>
<text text-anchor="middle" x="1423.5" y="-66.25" font-family="Helvetica,sans-Serif" font-size="10.00"> m_device</text>
</g>
<!-- Node27 -->
<g id="node27" class="node">
<title>Node27</title>
<g id="a_node27"><a xlink:href="classInputDeviceCalibration.html" target="_top" xlink:title="Calibration storage backend which can store multiple calibration items for different controllers.">
<polygon fill="white" stroke="black" points="578,-3.75 578,-22.75 706,-22.75 706,-3.75 578,-3.75"/>
<text text-anchor="middle" x="642" y="-10.75" font-family="Helvetica,sans-Serif" font-size="10.00">InputDeviceCalibration</text>
</a>
</g>
</g>
<!-- Node24&#45;&gt;Node27 -->
<g id="edge46" class="edge">
<title>Node24&#45;&gt;Node27</title>
<path fill="none" stroke="#9a32cd" stroke-dasharray="5,2" d="M389.02,-26.2C404.5,-18.65 424.81,-10.11 444,-6.25 488.62,2.74 540.05,0.5 579.17,-3.73"/>
<polygon fill="#9a32cd" stroke="#9a32cd" points="387.4,-23.1 380.05,-30.73 390.56,-29.34 387.4,-23.1"/>
<text text-anchor="middle" x="502" y="-9.25" font-family="Helvetica,sans-Serif" font-size="10.00"> m_device</text>
</g>
<!-- Node25 -->
<g id="node25" class="node">
<title>Node25</title>
<g id="a_node25"><a xlink:href="classAntiMicroSettings.html" target="_top" xlink:title=" ">
<polygon fill="white" stroke="black" points="101,-30.75 101,-49.75 204,-49.75 204,-30.75 101,-30.75"/>
<text text-anchor="middle" x="152.5" y="-37.75" font-family="Helvetica,sans-Serif" font-size="10.00">AntiMicroSettings</text>
</a>
</g>
</g>
<!-- Node25&#45;&gt;Node24 -->
<g id="edge43" class="edge">
<title>Node25&#45;&gt;Node24</title>
<path fill="none" stroke="#9a32cd" stroke-dasharray="5,2" d="M214.57,-40.25C250.24,-40.25 294.07,-40.25 324.43,-40.25"/>
<polygon fill="#9a32cd" stroke="#9a32cd" points="214.26,-36.75 204.26,-40.25 214.26,-43.75 214.26,-36.75"/>
<text text-anchor="middle" x="251" y="-43.25" font-family="Helvetica,sans-Serif" font-size="10.00"> m_settings</text>
</g>
<!-- Node26 -->
<g id="node26" class="node">
<title>Node26</title>
<g id="a_node26"><a xlink:title=" ">
<polygon fill="white" stroke="#bfbfbf" points="0,-30.75 0,-49.75 64,-49.75 64,-30.75 0,-30.75"/>
<text text-anchor="middle" x="32" y="-37.75" font-family="Helvetica,sans-Serif" font-size="10.00">QSettings</text>
</a>
</g>
</g>
<!-- Node26&#45;&gt;Node25 -->
<g id="edge44" class="edge">
<title>Node26&#45;&gt;Node25</title>
<path fill="none" stroke="midnightblue" d="M74.27,-40.25C82.86,-40.25 91.99,-40.25 100.87,-40.25"/>
<polygon fill="midnightblue" stroke="midnightblue" points="74.13,-36.75 64.13,-40.25 74.13,-43.75 74.13,-36.75"/>
</g>
<!-- Node27&#45;&gt;Node24 -->
<g id="edge45" class="edge">
<title>Node27&#45;&gt;Node24</title>
<path fill="none" stroke="#9a32cd" stroke-dasharray="5,2" d="M567.7,-20.37C513.59,-25.62 442.22,-32.55 399.63,-36.69"/>
<polygon fill="#9a32cd" stroke="#9a32cd" points="568.32,-23.82 577.94,-19.37 567.65,-16.86 568.32,-23.82"/>
<text text-anchor="middle" x="502" y="-36.25" font-family="Helvetica,sans-Serif" font-size="10.00"> m_calibrations</text>
</g>
<!-- Node28&#45;&gt;Node12 -->
<g id="edge47" class="edge">
<title>Node28&#45;&gt;Node12</title>
<path fill="none" stroke="#9a32cd" stroke-dasharray="5,2" d="M2526.69,-308.15C2492.99,-304.5 2448.75,-298.88 2410,-291.25 2404.29,-290.12 2398.23,-288.68 2392.47,-287.19"/>
<polygon fill="#9a32cd" stroke="#9a32cd" points="2526.48,-311.65 2536.8,-309.22 2527.22,-304.68 2526.48,-311.65"/>
<text text-anchor="middle" x="2464.5" y="-310.25" font-family="Helvetica,sans-Serif" font-size="10.00"> activeDiagonalButton</text>
</g>
</g>
</svg>
