<?xml version="1.0" encoding="UTF-8" standalone="no"?>
<!DOCTYPE svg PUBLIC "-//W3C//DTD SVG 1.1//EN"
 "http://www.w3.org/Graphics/SVG/1.1/DTD/svg11.dtd">
<!-- Generated by graphviz version 2.43.0 (0)
 -->
<!-- Title: Calibration::onStickGainData Pages: 1 -->
<!--zoomable 462 -->
<svg id="main" version="1.1" xmlns="http://www.w3.org/2000/svg" xmlns:xlink="http://www.w3.org/1999/xlink" xml:space="preserve" onload="init(evt)">
<style type="text/css"><![CDATA[
.edge:hover path { stroke: red; }
.edge:hover polygon { stroke: red; fill: red; }
]]></style>
<script type="text/javascript"><![CDATA[
var edges = document.getElementsByTagName('g');
if (edges && edges.length) {
  for (var i=0;i<edges.length;i++) {
    if (edges[i].id.substr(0,4)=='edge') {
      edges[i].setAttribute('class','edge');
    }
  }
}
]]></script>
        <defs>
                <circle id="rim" cx="0" cy="0" r="7"/>
                <circle id="rim2" cx="0" cy="0" r="3.5"/>
                <g id="zoomPlus">
                        <use xlink:href="#rim" fill="#404040">
                                <set attributeName="fill" to="#808080" begin="zoomplus.mouseover" end="zoomplus.mouseout"/>
                        </use>
                        <path d="M-4,0h8M0,-4v8" fill="none" stroke="white" stroke-width="1.5" pointer-events="none"/>
                </g>
                <g id="zoomMin">
                        <use xlink:href="#rim" fill="#404040">
                                <set attributeName="fill" to="#808080" begin="zoomminus.mouseover" end="zoomminus.mouseout"/>
                        </use>
                        <path d="M-4,0h8" fill="none" stroke="white" stroke-width="1.5" pointer-events="none"/>
                </g>
                <g id="dirArrow">
                        <path fill="none" stroke="white" stroke-width="1.5" d="M0,-3.0v7 M-2.5,-0.5L0,-3.0L2.5,-0.5"/>
                </g>
               <g id="resetDef">
                       <use xlink:href="#rim2" fill="#404040">
                               <set attributeName="fill" to="#808080" begin="reset.mouseover" end="reset.mouseout"/>
                       </use>
               </g>
        </defs>

<script type="text/javascript">
var viewWidth = 926;
var viewHeight = 462;
var sectionId = 'dynsection-10';
</script>
<script xlink:href="svgpan.js"/>
<svg id="graph" class="graph">
<g id="viewport">
<title>Calibration::onStickGainData</title>
<polygon fill="white" stroke="transparent" points="-4,4 -4,-458 922,-458 922,4 -4,4"/>
<!-- Node1 -->
<g id="node1" class="node">
<title>Node1</title>
<g id="a_node1"><a xlink:title="Stick data event handler. Performs stick gain estimation and stops itself if the value was found or t...">
<polygon fill="#bfbfbf" stroke="black" points="0,-221 0,-240 158,-240 158,-221 0,-221"/>
<text text-anchor="middle" x="79" y="-228" font-family="Helvetica,sans-Serif" font-size="10.00">Calibration::onStickGainData</text>
</a>
</g>
</g>
<!-- Node2 -->
<g id="node2" class="node">
<title>Node2</title>
<g id="a_node2"><a xlink:href="classStatisticsEstimator.html#a4bb6b7ae19cdbc218a2ce1f352d054e4" target="_top" xlink:title="Calculates the squared relative three sigma error range, i.e. the squared estimation accuracy in perc...">
<polygon fill="white" stroke="black" points="612,-423.5 612,-453.5 755,-453.5 755,-423.5 612,-423.5"/>
<text text-anchor="start" x="620" y="-441.5" font-family="Helvetica,sans-Serif" font-size="10.00">StatisticsEstimator</text>
<text text-anchor="middle" x="683.5" y="-430.5" font-family="Helvetica,sans-Serif" font-size="10.00">::calculateRelativeErrorSq</text>
</a>
</g>
</g>
<!-- Node1&#45;&gt;Node2 -->
<g id="edge1" class="edge">
<title>Node1&#45;&gt;Node2</title>
<path fill="none" stroke="midnightblue" d="M85.16,-240.11C99.07,-265 139.96,-331.81 194,-363.5 321.74,-438.39 499.24,-446.4 601.37,-443.66"/>
<polygon fill="midnightblue" stroke="midnightblue" points="601.74,-447.15 611.62,-443.34 601.52,-440.15 601.74,-447.15"/>
</g>
<!-- Node4 -->
<g id="node4" class="node">
<title>Node4</title>
<g id="a_node4"><a xlink:href="classStatisticsEstimator.html#a9f08ed1df807774ff9ecb23cfc0a9b82" target="_top" xlink:title="Gets the amount of processed samples.">
<polygon fill="white" stroke="black" points="629,-374.5 629,-404.5 738,-404.5 738,-374.5 629,-374.5"/>
<text text-anchor="start" x="637" y="-392.5" font-family="Helvetica,sans-Serif" font-size="10.00">StatisticsEstimator</text>
<text text-anchor="middle" x="683.5" y="-381.5" font-family="Helvetica,sans-Serif" font-size="10.00">::getCount</text>
</a>
</g>
</g>
<!-- Node1&#45;&gt;Node4 -->
<g id="edge3" class="edge">
<title>Node1&#45;&gt;Node4</title>
<path fill="none" stroke="midnightblue" d="M87.96,-240.17C105.05,-260.2 147.49,-306.1 194,-327.5 335.06,-392.4 521.86,-396.42 618.49,-393.27"/>
<polygon fill="midnightblue" stroke="midnightblue" points="618.82,-396.76 628.69,-392.9 618.57,-389.77 618.82,-396.76"/>
</g>
<!-- Node5 -->
<g id="node5" class="node">
<title>Node5</title>
<g id="a_node5"><a xlink:href="classJoyControlStick.html#a2798057ca20a52307ced3f75eb5d9aaa" target="_top" xlink:title="Get the assigned dead zone value.">
<polygon fill="white" stroke="black" points="602,-336 602,-355 765,-355 765,-336 602,-336"/>
<text text-anchor="middle" x="683.5" y="-343" font-family="Helvetica,sans-Serif" font-size="10.00">JoyControlStick::getDeadZone</text>
</a>
</g>
</g>
<!-- Node1&#45;&gt;Node5 -->
<g id="edge4" class="edge">
<title>Node1&#45;&gt;Node5</title>
<path fill="none" stroke="midnightblue" d="M92.88,-240.2C113.19,-254.96 154.45,-282.81 194,-296.5 326.96,-342.54 491.57,-349.58 591.73,-348.77"/>
<polygon fill="midnightblue" stroke="midnightblue" points="591.86,-352.27 601.82,-348.66 591.78,-345.27 591.86,-352.27"/>
</g>
<!-- Node6 -->
<g id="node6" class="node">
<title>Node6</title>
<g id="a_node6"><a xlink:href="classPT1Filter.html#a4119f510213a816516ed16fb41a53ef8" target="_top" xlink:title="Get the current filter output value.">
<polygon fill="white" stroke="black" points="629.5,-298 629.5,-317 737.5,-317 737.5,-298 629.5,-298"/>
<text text-anchor="middle" x="683.5" y="-305" font-family="Helvetica,sans-Serif" font-size="10.00">PT1Filter::getValue</text>
</a>
</g>
</g>
<!-- Node1&#45;&gt;Node6 -->
<g id="edge5" class="edge">
<title>Node1&#45;&gt;Node6</title>
<path fill="none" stroke="midnightblue" d="M108.39,-240.09C161.52,-257.47 279.95,-293.6 383,-306.5 463.96,-316.64 558.2,-314.72 619.02,-311.72"/>
<polygon fill="midnightblue" stroke="midnightblue" points="619.43,-315.21 629.23,-311.19 619.07,-308.21 619.43,-315.21"/>
</g>
<!-- Node7 -->
<g id="node7" class="node">
<title>Node7</title>
<g id="a_node7"><a xlink:href="classPT1Filter.html#a30421d33f61b781f9422577b6db07e1b" target="_top" xlink:title="Processes a new sample.">
<polygon fill="white" stroke="black" points="632,-260 632,-279 735,-279 735,-260 632,-260"/>
<text text-anchor="middle" x="683.5" y="-267" font-family="Helvetica,sans-Serif" font-size="10.00">PT1Filter::process</text>
</a>
</g>
</g>
<!-- Node1&#45;&gt;Node7 -->
<g id="edge6" class="edge">
<title>Node1&#45;&gt;Node7</title>
<path fill="none" stroke="midnightblue" d="M158.15,-235.56C279.68,-243.43 511.42,-258.43 621.51,-265.55"/>
<polygon fill="midnightblue" stroke="midnightblue" points="621.57,-269.06 631.77,-266.22 622.02,-262.08 621.57,-269.06"/>
</g>
<!-- Node8 -->
<g id="node8" class="node">
<title>Node8</title>
<g id="a_node8"><a xlink:href="classStatisticsEstimator.html#a63a3c46de3af4b5bb1be407bcfe44ad8" target="_top" xlink:title="Processes a new sample of the current data stream and updates internal intermediate values.">
<polygon fill="white" stroke="black" points="629,-209.5 629,-239.5 738,-239.5 738,-209.5 629,-209.5"/>
<text text-anchor="start" x="637" y="-227.5" font-family="Helvetica,sans-Serif" font-size="10.00">StatisticsEstimator</text>
<text text-anchor="middle" x="683.5" y="-216.5" font-family="Helvetica,sans-Serif" font-size="10.00">::process</text>
</a>
</g>
</g>
<!-- Node1&#45;&gt;Node8 -->
<g id="edge7" class="edge">
<title>Node1&#45;&gt;Node8</title>
<path fill="none" stroke="midnightblue" d="M158.15,-229.72C278.72,-228.52 507.77,-226.24 618.88,-225.13"/>
<polygon fill="midnightblue" stroke="midnightblue" points="618.97,-228.63 628.94,-225.03 618.9,-221.63 618.97,-228.63"/>
</g>
<!-- Node9 -->
<g id="node9" class="node">
<title>Node9</title>
<g id="a_node9"><a xlink:href="classCalibration.html#ada69dfce5bbe35ea761528dedf593ef3" target="_top" xlink:title="Shows the stick offset and gain calibration values to the user.">
<polygon fill="white" stroke="black" points="594,-158.5 594,-188.5 773,-188.5 773,-158.5 594,-158.5"/>
<text text-anchor="start" x="602" y="-176.5" font-family="Helvetica,sans-Serif" font-size="10.00">Calibration::showStickCalibration</text>
<text text-anchor="middle" x="683.5" y="-165.5" font-family="Helvetica,sans-Serif" font-size="10.00">Values</text>
</a>
</g>
</g>
<!-- Node1&#45;&gt;Node9 -->
<g id="edge8" class="edge">
<title>Node1&#45;&gt;Node9</title>
<path fill="none" stroke="midnightblue" d="M158.15,-223.11C267.05,-212.8 464.45,-194.13 583.51,-182.86"/>
<polygon fill="midnightblue" stroke="midnightblue" points="584.09,-186.33 593.72,-181.9 583.44,-179.36 584.09,-186.33"/>
</g>
<!-- Node10 -->
<g id="node10" class="node">
<title>Node10</title>
<g id="a_node10"><a xlink:href="classCalibration.html#ab574aecefa0f5d607f57f94487af38a8" target="_top" xlink:title="Shows user instructions for stick offset calibration, initializes estimators and connects stick data ...">
<polygon fill="white" stroke="black" points="194.5,-98.5 194.5,-128.5 346.5,-128.5 346.5,-98.5 194.5,-98.5"/>
<text text-anchor="start" x="202.5" y="-116.5" font-family="Helvetica,sans-Serif" font-size="10.00">Calibration::startStickOffset</text>
<text text-anchor="middle" x="270.5" y="-105.5" font-family="Helvetica,sans-Serif" font-size="10.00">Calibration</text>
</a>
</g>
</g>
<!-- Node1&#45;&gt;Node10 -->
<g id="edge9" class="edge">
<title>Node1&#45;&gt;Node10</title>
<path fill="none" stroke="midnightblue" d="M95.46,-220.81C117.35,-207.09 158.66,-181.27 194,-159.5 207.7,-151.06 222.83,-141.82 235.94,-133.85"/>
<polygon fill="midnightblue" stroke="midnightblue" points="237.91,-136.75 244.64,-128.56 234.28,-130.77 237.91,-136.75"/>
</g>
<!-- Node17 -->
<g id="node17" class="node">
<title>Node17</title>
<g id="a_node17"><a xlink:href="classCalibration.html#a2c31bf6d13664e99f18699d6959cc4dc" target="_top" xlink:title="Performs linear regression on the measurement values of one axis to determine offset and gain.">
<polygon fill="white" stroke="black" points="194,-22 194,-41 347,-41 347,-22 194,-22"/>
<text text-anchor="middle" x="270.5" y="-29" font-family="Helvetica,sans-Serif" font-size="10.00">Calibration::stickRegression</text>
</a>
</g>
</g>
<!-- Node1&#45;&gt;Node17 -->
<g id="edge26" class="edge">
<title>Node1&#45;&gt;Node17</title>
<path fill="none" stroke="midnightblue" d="M83.52,-220.89C94.79,-191.52 132.83,-102.06 194,-55.5 199.72,-51.15 206.25,-47.57 213.02,-44.64"/>
<polygon fill="midnightblue" stroke="midnightblue" points="214.29,-47.9 222.35,-41.02 211.76,-41.37 214.29,-47.9"/>
</g>
<!-- Node3 -->
<g id="node3" class="node">
<title>Node3</title>
<g id="a_node3"><a xlink:href="classStatisticsEstimator.html#a8895a3729d2ed7bca9ce078fb17bb05a" target="_top" xlink:title="Calculates the sample variance of the processed data stream from internal intermediate values.">
<polygon fill="white" stroke="black" points="809,-423.5 809,-453.5 918,-453.5 918,-423.5 809,-423.5"/>
<text text-anchor="start" x="817" y="-441.5" font-family="Helvetica,sans-Serif" font-size="10.00">StatisticsEstimator</text>
<text text-anchor="middle" x="863.5" y="-430.5" font-family="Helvetica,sans-Serif" font-size="10.00">::calculateVariance</text>
</a>
</g>
</g>
<!-- Node2&#45;&gt;Node3 -->
<g id="edge2" class="edge">
<title>Node2&#45;&gt;Node3</title>
<path fill="none" stroke="midnightblue" d="M755.11,-438.5C769.48,-438.5 784.52,-438.5 798.64,-438.5"/>
<polygon fill="midnightblue" stroke="midnightblue" points="798.74,-442 808.74,-438.5 798.74,-435 798.74,-442"/>
</g>
<!-- Node11 -->
<g id="node11" class="node">
<title>Node11</title>
<g id="a_node11"><a xlink:href="classCalibration.html#abec21f8927d3e2d63b81b20044d99bdc" target="_top" xlink:title="Asks the user for confirmation with a given message if the given condition is false.">
<polygon fill="white" stroke="black" points="392.5,-126 392.5,-145 548.5,-145 548.5,-126 392.5,-126"/>
<text text-anchor="middle" x="470.5" y="-133" font-family="Helvetica,sans-Serif" font-size="10.00">Calibration::askConfirmation</text>
</a>
</g>
</g>
<!-- Node10&#45;&gt;Node11 -->
<g id="edge10" class="edge">
<title>Node10&#45;&gt;Node11</title>
<path fill="none" stroke="midnightblue" d="M346.64,-121.85C358.35,-123.15 370.53,-124.5 382.48,-125.83"/>
<polygon fill="midnightblue" stroke="midnightblue" points="382.11,-129.31 392.44,-126.94 382.89,-122.35 382.11,-129.31"/>
</g>
<!-- Node12 -->
<g id="node12" class="node">
<title>Node12</title>
<g id="a_node12"><a xlink:href="classCalibration.html#a810f48e8f8960b9fe9218f52b05be2bd" target="_top" xlink:title="Stick data event handler. Performs stick offset estimation and stops itself if the value was found or...">
<polygon fill="white" stroke="black" points="388.5,-278 388.5,-297 552.5,-297 552.5,-278 388.5,-278"/>
<text text-anchor="middle" x="470.5" y="-285" font-family="Helvetica,sans-Serif" font-size="10.00">Calibration::onStickOffsetData</text>
</a>
</g>
</g>
<!-- Node10&#45;&gt;Node12 -->
<g id="edge11" class="edge">
<title>Node10&#45;&gt;Node12</title>
<path fill="none" stroke="midnightblue" d="M288.72,-128.64C325.64,-161.08 412.12,-237.08 450.54,-270.84"/>
<polygon fill="midnightblue" stroke="midnightblue" points="448.56,-273.76 458.39,-277.73 453.19,-268.5 448.56,-273.76"/>
</g>
<!-- Node13 -->
<g id="node13" class="node">
<title>Node13</title>
<g id="a_node13"><a xlink:href="classStatisticsEstimator.html#aaab49a2dc276528c02522b5a59d6c9ff" target="_top" xlink:title="Resets the StatisticsEstimator so that it is ready to process a new data stream.">
<polygon fill="white" stroke="black" points="629,-63.5 629,-93.5 738,-93.5 738,-63.5 629,-63.5"/>
<text text-anchor="start" x="637" y="-81.5" font-family="Helvetica,sans-Serif" font-size="10.00">StatisticsEstimator</text>
<text text-anchor="middle" x="683.5" y="-70.5" font-family="Helvetica,sans-Serif" font-size="10.00">::reset</text>
</a>
</g>
</g>
<!-- Node10&#45;&gt;Node13 -->
<g id="edge19" class="edge">
<title>Node10&#45;&gt;Node13</title>
<path fill="none" stroke="midnightblue" d="M346.88,-107.08C424.9,-100.44 545.43,-90.17 618.83,-83.92"/>
<polygon fill="midnightblue" stroke="midnightblue" points="619.2,-87.4 628.86,-83.07 618.6,-80.43 619.2,-87.4"/>
</g>
<!-- Node14 -->
<g id="node14" class="node">
<title>Node14</title>
<g id="a_node14"><a xlink:href="classJoyControlStick.html#a7f99f881b46a50a7a12192d5d9d4314a" target="_top" xlink:title="Resets the calibration of both stick axes back to uncalibrated state.">
<polygon fill="white" stroke="black" points="383,-50 383,-69 558,-69 558,-50 383,-50"/>
<text text-anchor="middle" x="470.5" y="-57" font-family="Helvetica,sans-Serif" font-size="10.00">JoyControlStick::resetCalibration</text>
</a>
</g>
</g>
<!-- Node10&#45;&gt;Node14 -->
<g id="edge20" class="edge">
<title>Node10&#45;&gt;Node14</title>
<path fill="none" stroke="midnightblue" d="M326.65,-98.46C357.57,-90.03 395.63,-79.65 424.68,-71.72"/>
<polygon fill="midnightblue" stroke="midnightblue" points="425.83,-75.04 434.56,-69.03 423.99,-68.28 425.83,-75.04"/>
</g>
<!-- Node15 -->
<g id="node15" class="node">
<title>Node15</title>
<g id="a_node15"><a xlink:href="classCalibration.html#adbb2662b3b1e21cb667df5325abc68cc" target="_top" xlink:title="Shows user instructions for stick gain calibration, initializes estimators and connects stick data ev...">
<polygon fill="white" stroke="black" points="398,-0.5 398,-30.5 543,-30.5 543,-0.5 398,-0.5"/>
<text text-anchor="start" x="406" y="-18.5" font-family="Helvetica,sans-Serif" font-size="10.00">Calibration::startStickGain</text>
<text text-anchor="middle" x="470.5" y="-7.5" font-family="Helvetica,sans-Serif" font-size="10.00">Calibration</text>
</a>
</g>
</g>
<!-- Node10&#45;&gt;Node15 -->
<g id="edge21" class="edge">
<title>Node10&#45;&gt;Node15</title>
<path fill="none" stroke="midnightblue" d="M298.63,-98.42C313.79,-92.46 332.48,-85 347,-74.5 367.2,-59.9 362.12,-45.11 383,-31.5 384.72,-30.38 386.49,-29.31 388.3,-28.29"/>
<polygon fill="midnightblue" stroke="midnightblue" points="390.3,-31.2 397.66,-23.57 387.15,-24.95 390.3,-31.2"/>
</g>
<!-- Node12&#45;&gt;Node2 -->
<g id="edge12" class="edge">
<title>Node12&#45;&gt;Node2</title>
<path fill="none" stroke="midnightblue" d="M477.95,-297.15C494.36,-320.93 540.21,-382.69 594,-414.5 596.88,-416.2 599.88,-417.79 602.96,-419.26"/>
<polygon fill="midnightblue" stroke="midnightblue" points="601.86,-422.6 612.43,-423.36 604.64,-416.17 601.86,-422.6"/>
</g>
<!-- Node12&#45;&gt;Node4 -->
<g id="edge13" class="edge">
<title>Node12&#45;&gt;Node4</title>
<path fill="none" stroke="midnightblue" d="M484.05,-297.11C505.5,-313.13 551.07,-345.42 594,-364.5 601.95,-368.03 610.53,-371.2 619.1,-373.98"/>
<polygon fill="midnightblue" stroke="midnightblue" points="618.16,-377.36 628.75,-376.97 620.23,-370.67 618.16,-377.36"/>
</g>
<!-- Node12&#45;&gt;Node5 -->
<g id="edge14" class="edge">
<title>Node12&#45;&gt;Node5</title>
<path fill="none" stroke="midnightblue" d="M499.01,-297.1C523.69,-305.51 561,-317.73 594,-326.5 603.68,-329.07 614.03,-331.54 624.11,-333.8"/>
<polygon fill="midnightblue" stroke="midnightblue" points="623.55,-337.26 634.07,-335.99 625.05,-330.43 623.55,-337.26"/>
</g>
<!-- Node12&#45;&gt;Node6 -->
<g id="edge15" class="edge">
<title>Node12&#45;&gt;Node6</title>
<path fill="none" stroke="midnightblue" d="M552.78,-295.2C574.82,-297.29 598.37,-299.53 619.26,-301.51"/>
<polygon fill="midnightblue" stroke="midnightblue" points="619,-305 629.28,-302.46 619.66,-298.03 619,-305"/>
</g>
<!-- Node12&#45;&gt;Node7 -->
<g id="edge16" class="edge">
<title>Node12&#45;&gt;Node7</title>
<path fill="none" stroke="midnightblue" d="M552.78,-280.57C575.73,-278.61 600.29,-276.51 621.81,-274.68"/>
<polygon fill="midnightblue" stroke="midnightblue" points="622.12,-278.16 631.78,-273.83 621.52,-271.19 622.12,-278.16"/>
</g>
<!-- Node12&#45;&gt;Node8 -->
<g id="edge17" class="edge">
<title>Node12&#45;&gt;Node8</title>
<path fill="none" stroke="midnightblue" d="M502.95,-277.93C527.68,-270.42 563.02,-259.73 594,-250.5 602.79,-247.88 612.08,-245.13 621.2,-242.44"/>
<polygon fill="midnightblue" stroke="midnightblue" points="622.4,-245.74 631,-239.56 620.42,-239.02 622.4,-245.74"/>
</g>
<!-- Node12&#45;&gt;Node9 -->
<g id="edge18" class="edge">
<title>Node12&#45;&gt;Node9</title>
<path fill="none" stroke="midnightblue" d="M482.53,-277.77C503.1,-260.09 549.29,-222.48 594,-200.5 600.2,-197.45 606.81,-194.67 613.53,-192.14"/>
<polygon fill="midnightblue" stroke="midnightblue" points="615.15,-195.28 623.4,-188.63 612.8,-188.69 615.15,-195.28"/>
</g>
<!-- Node15&#45;&gt;Node1 -->
<g id="edge22" class="edge">
<title>Node15&#45;&gt;Node1</title>
<path fill="none" stroke="midnightblue" d="M417.54,-30.51C390.58,-38.26 360.51,-46.85 347,-50.5 279.26,-68.81 253.07,-51.62 194,-89.5 144.72,-121.1 106.88,-181.2 89.86,-211.72"/>
<polygon fill="midnightblue" stroke="midnightblue" points="86.6,-210.39 84.9,-220.85 92.75,-213.73 86.6,-210.39"/>
</g>
<!-- Node15&#45;&gt;Node10 -->
<g id="edge25" class="edge">
<title>Node15&#45;&gt;Node10</title>
<path fill="none" stroke="midnightblue" d="M428.2,-30.61C413.13,-34.95 396.49,-40.71 383,-49.5 362.12,-63.11 367.2,-77.9 347,-92.5 346.82,-92.63 346.64,-92.76 346.46,-92.89"/>
<polygon fill="midnightblue" stroke="midnightblue" points="344.51,-89.98 338,-98.34 348.3,-95.86 344.51,-89.98"/>
</g>
<!-- Node15&#45;&gt;Node13 -->
<g id="edge23" class="edge">
<title>Node15&#45;&gt;Node13</title>
<path fill="none" stroke="midnightblue" d="M524.14,-30.58C535.33,-33.82 547.06,-37.25 558,-40.5 579.6,-46.92 603.26,-54.1 624.1,-60.48"/>
<polygon fill="midnightblue" stroke="midnightblue" points="623.18,-63.86 633.77,-63.44 625.23,-57.17 623.18,-63.86"/>
</g>
<!-- Node16 -->
<g id="node16" class="node">
<title>Node16</title>
<g id="a_node16"><a xlink:href="classPT1Filter.html#a674d30fb88a821087c6e056313177432" target="_top" xlink:title="Resets the filter state to default.">
<polygon fill="white" stroke="black" points="638.5,-6 638.5,-25 728.5,-25 728.5,-6 638.5,-6"/>
<text text-anchor="middle" x="683.5" y="-13" font-family="Helvetica,sans-Serif" font-size="10.00">PT1Filter::reset</text>
</a>
</g>
</g>
<!-- Node15&#45;&gt;Node16 -->
<g id="edge24" class="edge">
<title>Node15&#45;&gt;Node16</title>
<path fill="none" stroke="midnightblue" d="M543.23,-15.5C571.07,-15.5 602.43,-15.5 628.32,-15.5"/>
<polygon fill="midnightblue" stroke="midnightblue" points="628.33,-19 638.33,-15.5 628.33,-12 628.33,-19"/>
</g>
</g>
</svg>
        <g id="navigator" transform="translate(0 0)" fill="#404254">
                <rect fill="#f2f5e9" fill-opacity="0.5" stroke="#606060" stroke-width=".5" x="0" y="0" width="60" height="60"/>
                <use id="zoomplus" xlink:href="#zoomPlus" x="17" y="9" onmousedown="handleZoom(evt,'in')"/>
                <use id="zoomminus" xlink:href="#zoomMin" x="42" y="9" onmousedown="handleZoom(evt,'out')"/>
                <use id="reset" xlink:href="#resetDef" x="30" y="36" onmousedown="handleReset()"/>
                <g id="arrowUp" xlink:href="#dirArrow" transform="translate(30 24)" onmousedown="handlePan(0,-1)">
                  <use xlink:href="#rim" fill="#404040">
                        <set attributeName="fill" to="#808080" begin="arrowUp.mouseover" end="arrowUp.mouseout"/>
                  </use>
                  <path fill="none" stroke="white" stroke-width="1.5" d="M0,-3.0v7 M-2.5,-0.5L0,-3.0L2.5,-0.5"/>
                </g>
                <g id="arrowRight" xlink:href="#dirArrow" transform="rotate(90) translate(36 -43)" onmousedown="handlePan(1,0)">
                  <use xlink:href="#rim" fill="#404040">
                        <set attributeName="fill" to="#808080" begin="arrowRight.mouseover" end="arrowRight.mouseout"/>
                  </use>
                  <path fill="none" stroke="white" stroke-width="1.5" d="M0,-3.0v7 M-2.5,-0.5L0,-3.0L2.5,-0.5"/>
                </g>
                <g id="arrowDown" xlink:href="#dirArrow" transform="rotate(180) translate(-30 -48)" onmousedown="handlePan(0,1)">
                  <use xlink:href="#rim" fill="#404040">
                        <set attributeName="fill" to="#808080" begin="arrowDown.mouseover" end="arrowDown.mouseout"/>
                  </use>
                  <path fill="none" stroke="white" stroke-width="1.5" d="M0,-3.0v7 M-2.5,-0.5L0,-3.0L2.5,-0.5"/>
                </g>
                <g id="arrowLeft" xlink:href="#dirArrow" transform="rotate(270) translate(-36 17)" onmousedown="handlePan(-1,0)">
                  <use xlink:href="#rim" fill="#404040">
                        <set attributeName="fill" to="#808080" begin="arrowLeft.mouseover" end="arrowLeft.mouseout"/>
                  </use>
                  <path fill="none" stroke="white" stroke-width="1.5" d="M0,-3.0v7 M-2.5,-0.5L0,-3.0L2.5,-0.5"/>
                </g>
        </g>
        <svg viewBox="0 0 15 15" width="100%" height="30px" preserveAspectRatio="xMaxYMin meet">
         <g id="arrow_out" transform="scale(0.3 0.3)">
          <a xlink:href="classCalibration_a1e79902d8c7fa6e66eb578c7252e7ef7_cgraph_org.svg" target="_base">
           <rect id="button" ry="5" rx="5" y="6" x="6" height="38" width="38"
                fill="#f2f5e9" fill-opacity="0.5" stroke="#606060" stroke-width="1.0"/>
           <path id="arrow"
             d="M 11.500037,31.436501 C 11.940474,20.09759 22.043105,11.32322 32.158766,21.979434 L 37.068811,17.246167 C 37.068811,17.246167 37.088388,32 37.088388,32 L 22.160133,31.978069 C 22.160133,31.978069 26.997745,27.140456 26.997745,27.140456 C 18.528582,18.264221 13.291696,25.230495 11.500037,31.436501 z"
             style="fill:#404040;"/>
          </a>
         </g>
        </svg>
</svg>
