<?xml version="1.0" encoding="UTF-8" standalone="no"?>
<!DOCTYPE svg PUBLIC "-//W3C//DTD SVG 1.1//EN"
 "http://www.w3.org/Graphics/SVG/1.1/DTD/svg11.dtd">
<!-- Generated by graphviz version 2.43.0 (0)
 -->
<!-- Title: InputDaemon::refreshMapping Pages: 1 -->
<svg width="602pt" height="220pt"
 viewBox="0.00 0.00 602.00 219.50" xmlns="http://www.w3.org/2000/svg" xmlns:xlink="http://www.w3.org/1999/xlink">
<g id="graph0" class="graph" transform="scale(1 1) rotate(0) translate(4 215.5)">
<title>InputDaemon::refreshMapping</title>
<polygon fill="white" stroke="transparent" points="-4,4 -4,-215.5 598,-215.5 598,4 -4,4"/>
<!-- Node1 -->
<g id="node1" class="node">
<title>Node1</title>
<g id="a_node1"><a xlink:title=" ">
<polygon fill="#bfbfbf" stroke="black" points="0,-116 0,-135 165,-135 165,-116 0,-116"/>
<text text-anchor="middle" x="82.5" y="-123" font-family="Helvetica,sans-Serif" font-size="10.00">InputDaemon::refreshMapping</text>
</a>
</g>
</g>
<!-- Node2 -->
<g id="node2" class="node">
<title>Node2</title>
<g id="a_node2"><a xlink:href="classInputDevice.html#a742f2b9fe5f01464cb5351c042c76c8c" target="_top" xlink:title=" ">
<polygon fill="white" stroke="black" points="208,-192 208,-211 367,-211 367,-192 208,-192"/>
<text text-anchor="middle" x="287.5" y="-199" font-family="Helvetica,sans-Serif" font-size="10.00">InputDevice::closeSDLDevice</text>
</a>
</g>
</g>
<!-- Node1&#45;&gt;Node2 -->
<g id="edge1" class="edge">
<title>Node1&#45;&gt;Node2</title>
<path fill="none" stroke="midnightblue" d="M100.09,-135.09C122.38,-147.61 163.53,-169.45 201,-182.5 208.55,-185.13 216.61,-187.48 224.65,-189.56"/>
<polygon fill="midnightblue" stroke="midnightblue" points="223.87,-192.97 234.41,-191.96 225.54,-186.17 223.87,-192.97"/>
</g>
<!-- Node3 -->
<g id="node3" class="node">
<title>Node3</title>
<g id="a_node3"><a xlink:href="classInputDaemon.html#a3ef328c9a60fe354fda90eb396c8f31b" target="_top" xlink:title=" ">
<polygon fill="white" stroke="black" points="218.5,-154 218.5,-173 356.5,-173 356.5,-154 218.5,-154"/>
<text text-anchor="middle" x="287.5" y="-161" font-family="Helvetica,sans-Serif" font-size="10.00">InputDaemon::getJoyInfo</text>
</a>
</g>
</g>
<!-- Node1&#45;&gt;Node3 -->
<g id="edge2" class="edge">
<title>Node1&#45;&gt;Node3</title>
<path fill="none" stroke="midnightblue" d="M134.46,-135.04C162.09,-140.21 196.43,-146.64 225.48,-152.08"/>
<polygon fill="midnightblue" stroke="midnightblue" points="225.04,-155.56 235.52,-153.96 226.33,-148.68 225.04,-155.56"/>
</g>
<!-- Node4 -->
<g id="node4" class="node">
<title>Node4</title>
<g id="a_node4"><a xlink:href="classInputDevice.html#a10a2388bfb4b6d6183752f837dfe4638" target="_top" xlink:title=" ">
<polygon fill="white" stroke="black" points="205.5,-116 205.5,-135 369.5,-135 369.5,-116 205.5,-116"/>
<text text-anchor="middle" x="287.5" y="-123" font-family="Helvetica,sans-Serif" font-size="10.00">InputDevice::getSDLJoystickID</text>
</a>
</g>
</g>
<!-- Node1&#45;&gt;Node4 -->
<g id="edge3" class="edge">
<title>Node1&#45;&gt;Node4</title>
<path fill="none" stroke="midnightblue" d="M165.19,-125.5C175,-125.5 185.07,-125.5 195.01,-125.5"/>
<polygon fill="midnightblue" stroke="midnightblue" points="195.31,-129 205.31,-125.5 195.31,-122 195.31,-129"/>
</g>
<!-- Node5 -->
<g id="node5" class="node">
<title>Node5</title>
<g id="a_node5"><a xlink:href="classInputDaemon.html#a80e732bfe962966009eecb2156575af1" target="_top" xlink:title=" ">
<polygon fill="white" stroke="black" points="201,-66.5 201,-96.5 374,-96.5 374,-66.5 201,-66.5"/>
<text text-anchor="start" x="209" y="-84.5" font-family="Helvetica,sans-Serif" font-size="10.00">InputDaemon::getTrackjoysticks</text>
<text text-anchor="middle" x="287.5" y="-73.5" font-family="Helvetica,sans-Serif" font-size="10.00">Local</text>
</a>
</g>
</g>
<!-- Node1&#45;&gt;Node5 -->
<g id="edge4" class="edge">
<title>Node1&#45;&gt;Node5</title>
<path fill="none" stroke="midnightblue" d="M127.55,-115.95C150.81,-110.91 180.08,-104.57 207.14,-98.7"/>
<polygon fill="midnightblue" stroke="midnightblue" points="207.96,-102.1 216.99,-96.57 206.48,-95.26 207.96,-102.1"/>
</g>
<!-- Node6 -->
<g id="node6" class="node">
<title>Node6</title>
<g id="a_node6"><a xlink:href="classSDLEventReader.html#a1c33e74e1c8363dc7e839c7f3a98a25a" target="_top" xlink:title="Method to block activity on the SDLEventReader object and its thread event loop.">
<polygon fill="white" stroke="black" points="205.5,-28 205.5,-47 369.5,-47 369.5,-28 205.5,-28"/>
<text text-anchor="middle" x="287.5" y="-35" font-family="Helvetica,sans-Serif" font-size="10.00">SDLEventReader::haltServices</text>
</a>
</g>
</g>
<!-- Node1&#45;&gt;Node6 -->
<g id="edge5" class="edge">
<title>Node1&#45;&gt;Node6</title>
<path fill="none" stroke="midnightblue" d="M96.93,-115.94C118.09,-101.31 160.9,-73.39 201,-57.5 208.56,-54.51 216.68,-51.89 224.79,-49.63"/>
<polygon fill="midnightblue" stroke="midnightblue" points="225.87,-52.96 234.66,-47.04 224.1,-46.19 225.87,-52.96"/>
</g>
<!-- Node7 -->
<g id="node7" class="node">
<title>Node7</title>
<g id="a_node7"><a xlink:href="namespacePadderCommon.html#a354573bde6a47232b838ceccca533b02" target="_top" xlink:title=" ">
<polygon fill="white" stroke="black" points="410,-50 410,-69 594,-69 594,-50 410,-50"/>
<text text-anchor="middle" x="502" y="-57" font-family="Helvetica,sans-Serif" font-size="10.00">PadderCommon::lockInputDevices</text>
</a>
</g>
</g>
<!-- Node6&#45;&gt;Node7 -->
<g id="edge6" class="edge">
<title>Node6&#45;&gt;Node7</title>
<path fill="none" stroke="midnightblue" d="M369.75,-45.91C379.59,-46.93 389.73,-47.98 399.82,-49.02"/>
<polygon fill="midnightblue" stroke="midnightblue" points="399.56,-52.52 409.87,-50.07 400.28,-45.55 399.56,-52.52"/>
</g>
<!-- Node8 -->
<g id="node8" class="node">
<title>Node8</title>
<g id="a_node8"><a xlink:href="namespacePadderCommon.html#a5de97eeb52ef44a36a1caba613b7a343" target="_top" xlink:title=" ">
<polygon fill="white" stroke="black" points="423.5,-0.5 423.5,-30.5 580.5,-30.5 580.5,-0.5 423.5,-0.5"/>
<text text-anchor="start" x="431.5" y="-18.5" font-family="Helvetica,sans-Serif" font-size="10.00">PadderCommon::unlockInput</text>
<text text-anchor="middle" x="502" y="-7.5" font-family="Helvetica,sans-Serif" font-size="10.00">Devices</text>
</a>
</g>
</g>
<!-- Node6&#45;&gt;Node8 -->
<g id="edge7" class="edge">
<title>Node6&#45;&gt;Node8</title>
<path fill="none" stroke="midnightblue" d="M369.75,-29.09C383.89,-27.62 398.66,-26.1 412.97,-24.61"/>
<polygon fill="midnightblue" stroke="midnightblue" points="413.71,-28.06 423.3,-23.54 412.99,-21.09 413.71,-28.06"/>
</g>
</g>
</svg>
