<?xml version="1.0" encoding="UTF-8" standalone="no"?>
<!DOCTYPE svg PUBLIC "-//W3C//DTD SVG 1.1//EN"
 "http://www.w3.org/Graphics/SVG/1.1/DTD/svg11.dtd">
<!-- Generated by graphviz version 2.43.0 (0)
 -->
<!-- Title: JoySensor::deadZoneChanged Pages: 1 -->
<svg width="686pt" height="78pt"
 viewBox="0.00 0.00 686.00 77.50" xmlns="http://www.w3.org/2000/svg" xmlns:xlink="http://www.w3.org/1999/xlink">
<g id="graph0" class="graph" transform="scale(1 1) rotate(0) translate(4 73.5)">
<title>JoySensor::deadZoneChanged</title>
<polygon fill="white" stroke="transparent" points="-4,4 -4,-73.5 682,-73.5 682,4 -4,4"/>
<!-- Node1 -->
<g id="node1" class="node">
<title>Node1</title>
<g id="a_node1"><a xlink:title=" ">
<polygon fill="#bfbfbf" stroke="black" points="516,-22.5 516,-41.5 678,-41.5 678,-22.5 516,-22.5"/>
<text text-anchor="middle" x="597" y="-29.5" font-family="Helvetica,sans-Serif" font-size="10.00">JoySensor::deadZoneChanged</text>
</a>
</g>
</g>
<!-- Node2 -->
<g id="node2" class="node">
<title>Node2</title>
<g id="a_node2"><a xlink:href="classJoySensor.html#a4572b9f66468a2e390634591d6d4ecbc" target="_top" xlink:title="Sets the dead zone of the sensor to the given value.">
<polygon fill="white" stroke="black" points="344,-22.5 344,-41.5 480,-41.5 480,-22.5 344,-22.5"/>
<text text-anchor="middle" x="412" y="-29.5" font-family="Helvetica,sans-Serif" font-size="10.00">JoySensor::setDeadZone</text>
</a>
</g>
</g>
<!-- Node1&#45;&gt;Node2 -->
<g id="edge1" class="edge">
<title>Node1&#45;&gt;Node2</title>
<path fill="none" stroke="midnightblue" d="M505.89,-32C497.26,-32 488.61,-32 480.26,-32"/>
<polygon fill="midnightblue" stroke="midnightblue" points="506,-35.5 516,-32 506,-28.5 506,-35.5"/>
</g>
<!-- Node3 -->
<g id="node3" class="node">
<title>Node3</title>
<g id="a_node3"><a xlink:href="classJoySensorEditDialog.html#a1522c8803924c1d7b596bff2b1d64cde" target="_top" xlink:title=" ">
<polygon fill="white" stroke="black" points="186,-39 186,-69 307,-69 307,-39 186,-39"/>
<text text-anchor="start" x="194" y="-57" font-family="Helvetica,sans-Serif" font-size="10.00">JoySensorEditDialog</text>
<text text-anchor="middle" x="246.5" y="-46" font-family="Helvetica,sans-Serif" font-size="10.00">::JoySensorEditDialog</text>
</a>
</g>
</g>
<!-- Node2&#45;&gt;Node3 -->
<g id="edge2" class="edge">
<title>Node2&#45;&gt;Node3</title>
<path fill="none" stroke="midnightblue" d="M333.59,-42.42C324.73,-43.61 315.79,-44.81 307.21,-45.97"/>
<polygon fill="midnightblue" stroke="midnightblue" points="334.11,-45.88 343.55,-41.08 333.18,-38.94 334.11,-45.88"/>
</g>
<!-- Node4 -->
<g id="node4" class="node">
<title>Node4</title>
<g id="a_node4"><a xlink:href="classJoySensor.html#a2c42a88f7b51fe7bc04ad13266756ed9" target="_top" xlink:title="Take a XML stream and set the sensor and direction button properties according to the values containe...">
<polygon fill="white" stroke="black" points="185,-0.5 185,-19.5 308,-19.5 308,-0.5 185,-0.5"/>
<text text-anchor="middle" x="246.5" y="-7.5" font-family="Helvetica,sans-Serif" font-size="10.00">JoySensor::readConfig</text>
</a>
</g>
</g>
<!-- Node2&#45;&gt;Node4 -->
<g id="edge3" class="edge">
<title>Node2&#45;&gt;Node4</title>
<path fill="none" stroke="midnightblue" d="M333.61,-21.59C325.09,-20.44 316.52,-19.29 308.25,-18.17"/>
<polygon fill="midnightblue" stroke="midnightblue" points="333.18,-25.06 343.55,-22.92 334.11,-18.12 333.18,-25.06"/>
</g>
<!-- Node5 -->
<g id="node5" class="node">
<title>Node5</title>
<g id="a_node5"><a xlink:href="classSetJoystickXml.html#aa95423a01fab878cbc69bffb7f6121f3" target="_top" xlink:title="Deserializes the given XML stream into a SetJoystick object.">
<polygon fill="white" stroke="black" points="0,-0.5 0,-19.5 149,-19.5 149,-0.5 0,-0.5"/>
<text text-anchor="middle" x="74.5" y="-7.5" font-family="Helvetica,sans-Serif" font-size="10.00">SetJoystickXml::readConfig</text>
</a>
</g>
</g>
<!-- Node4&#45;&gt;Node5 -->
<g id="edge4" class="edge">
<title>Node4&#45;&gt;Node5</title>
<path fill="none" stroke="midnightblue" d="M174.47,-10C166.07,-10 157.47,-10 149.04,-10"/>
<polygon fill="midnightblue" stroke="midnightblue" points="174.61,-13.5 184.61,-10 174.61,-6.5 174.61,-13.5"/>
</g>
</g>
</svg>
