<?xml version="1.0" encoding="UTF-8" standalone="no"?>
<!DOCTYPE svg PUBLIC "-//W3C//DTD SVG 1.1//EN"
 "http://www.w3.org/Graphics/SVG/1.1/DTD/svg11.dtd">
<!-- Generated by graphviz version 2.43.0 (0)
 -->
<!-- Title: JoySensorStatusBox::drawArtificialHorizon Pages: 1 -->
<svg width="482pt" height="370pt"
 viewBox="0.00 0.00 482.00 370.00" xmlns="http://www.w3.org/2000/svg" xmlns:xlink="http://www.w3.org/1999/xlink">
<g id="graph0" class="graph" transform="scale(1 1) rotate(0) translate(4 366)">
<title>JoySensorStatusBox::drawArtificialHorizon</title>
<polygon fill="white" stroke="transparent" points="-4,4 -4,-366 478,-366 478,4 -4,4"/>
<!-- Node1 -->
<g id="node1" class="node">
<title>Node1</title>
<g id="a_node1"><a xlink:title="draws the artificial horizon instrument on the screen">
<polygon fill="#bfbfbf" stroke="black" points="0,-166 0,-196 125,-196 125,-166 0,-166"/>
<text text-anchor="start" x="8" y="-184" font-family="Helvetica,sans-Serif" font-size="10.00">JoySensorStatusBox</text>
<text text-anchor="middle" x="62.5" y="-173" font-family="Helvetica,sans-Serif" font-size="10.00">::drawArtificialHorizon</text>
</a>
</g>
</g>
<!-- Node2 -->
<g id="node2" class="node">
<title>Node2</title>
<g id="a_node2"><a xlink:href="classJoySensor.html#a26dc7cb527982f4672f0c23f08ea515c" target="_top" xlink:title="Calculate the pitch angle (in degrees) corresponding to the current position of controller.">
<polygon fill="white" stroke="black" points="172,-342.5 172,-361.5 311,-361.5 311,-342.5 172,-342.5"/>
<text text-anchor="middle" x="241.5" y="-349.5" font-family="Helvetica,sans-Serif" font-size="10.00">JoySensor::calculatePitch</text>
</a>
</g>
</g>
<!-- Node1&#45;&gt;Node2 -->
<g id="edge1" class="edge">
<title>Node1&#45;&gt;Node2</title>
<path fill="none" stroke="midnightblue" d="M68.8,-196.27C80.36,-227.22 110.9,-297.42 161,-333 163.72,-334.93 166.61,-336.67 169.61,-338.23"/>
<polygon fill="midnightblue" stroke="midnightblue" points="168.37,-341.51 178.93,-342.41 171.24,-335.12 168.37,-341.51"/>
</g>
<!-- Node3 -->
<g id="node3" class="node">
<title>Node3</title>
<g id="a_node3"><a xlink:href="classJoySensor.html#a94fdaad9a9aad4e79b6f2535083ffcac" target="_top" xlink:title="Calculate the roll angle (in degrees) corresponding to the current position of controller.">
<polygon fill="white" stroke="black" points="174.5,-304.5 174.5,-323.5 308.5,-323.5 308.5,-304.5 174.5,-304.5"/>
<text text-anchor="middle" x="241.5" y="-311.5" font-family="Helvetica,sans-Serif" font-size="10.00">JoySensor::calculateRoll</text>
</a>
</g>
</g>
<!-- Node1&#45;&gt;Node3 -->
<g id="edge2" class="edge">
<title>Node1&#45;&gt;Node3</title>
<path fill="none" stroke="midnightblue" d="M72.11,-196.24C86.93,-221 119.68,-269.73 161,-295 164.44,-297.11 168.1,-298.98 171.89,-300.64"/>
<polygon fill="midnightblue" stroke="midnightblue" points="170.91,-304.02 181.5,-304.37 173.44,-297.49 170.91,-304.02"/>
</g>
<!-- Node4 -->
<g id="node4" class="node">
<title>Node4</title>
<g id="a_node4"><a xlink:href="classJoySensor.html#a0b34f1efa12ae7a48f32f91846157c32" target="_top" xlink:title="Get the assigned dead zone value.">
<polygon fill="white" stroke="black" points="173,-266.5 173,-285.5 310,-285.5 310,-266.5 173,-266.5"/>
<text text-anchor="middle" x="241.5" y="-273.5" font-family="Helvetica,sans-Serif" font-size="10.00">JoySensor::getDeadZone</text>
</a>
</g>
</g>
<!-- Node1&#45;&gt;Node4 -->
<g id="edge3" class="edge">
<title>Node1&#45;&gt;Node4</title>
<path fill="none" stroke="midnightblue" d="M80.65,-196.29C99.27,-212.18 130.44,-236.81 161,-252 170,-256.48 180,-260.29 189.79,-263.48"/>
<polygon fill="midnightblue" stroke="midnightblue" points="188.87,-266.86 199.46,-266.46 190.93,-260.17 188.87,-266.86"/>
</g>
<!-- Node5 -->
<g id="node5" class="node">
<title>Node5</title>
<g id="a_node5"><a xlink:href="classJoySensor.html#a7f5dc7750d227b2a4bc2eb71a6dd3898" target="_top" xlink:title="Utility function which converts a given value from radians to degree.">
<polygon fill="white" stroke="black" points="358,-209.5 358,-228.5 474,-228.5 474,-209.5 358,-209.5"/>
<text text-anchor="middle" x="416" y="-216.5" font-family="Helvetica,sans-Serif" font-size="10.00">JoySensor::radToDeg</text>
</a>
</g>
</g>
<!-- Node1&#45;&gt;Node5 -->
<g id="edge13" class="edge">
<title>Node1&#45;&gt;Node5</title>
<path fill="none" stroke="midnightblue" d="M93.81,-196.19C112.63,-204.76 137.61,-214.6 161,-219 223.57,-230.76 296.35,-229.26 347.93,-225.71"/>
<polygon fill="midnightblue" stroke="midnightblue" points="348.23,-229.2 357.95,-224.98 347.72,-222.21 348.23,-229.2"/>
</g>
<!-- Node6 -->
<g id="node6" class="node">
<title>Node6</title>
<g id="a_node6"><a xlink:href="classJoySensor.html#ae49eef2995a76f3cca07ad59ce32b4a5" target="_top" xlink:title="Get the assigned diagonal range value.">
<polygon fill="white" stroke="black" points="161,-190.5 161,-209.5 322,-209.5 322,-190.5 161,-190.5"/>
<text text-anchor="middle" x="241.5" y="-197.5" font-family="Helvetica,sans-Serif" font-size="10.00">JoySensor::getDiagonalRange</text>
</a>
</g>
</g>
<!-- Node1&#45;&gt;Node6 -->
<g id="edge5" class="edge">
<title>Node1&#45;&gt;Node6</title>
<path fill="none" stroke="midnightblue" d="M125.41,-187.65C133.65,-188.53 142.23,-189.45 150.82,-190.37"/>
<polygon fill="midnightblue" stroke="midnightblue" points="150.58,-193.87 160.9,-191.45 151.33,-186.91 150.58,-193.87"/>
</g>
<!-- Node7 -->
<g id="node7" class="node">
<title>Node7</title>
<g id="a_node7"><a xlink:href="classJoySensor.html#abd75b7dcf094405eeece6878d1dd1ffe" target="_top" xlink:title="Get the assigned max zone value.">
<polygon fill="white" stroke="black" points="175.5,-152.5 175.5,-171.5 307.5,-171.5 307.5,-152.5 175.5,-152.5"/>
<text text-anchor="middle" x="241.5" y="-159.5" font-family="Helvetica,sans-Serif" font-size="10.00">JoySensor::getMaxZone</text>
</a>
</g>
</g>
<!-- Node1&#45;&gt;Node7 -->
<g id="edge7" class="edge">
<title>Node1&#45;&gt;Node7</title>
<path fill="none" stroke="midnightblue" d="M125.41,-174.35C138.28,-172.97 151.97,-171.5 165.26,-170.08"/>
<polygon fill="midnightblue" stroke="midnightblue" points="165.75,-173.54 175.32,-169 165.01,-166.58 165.75,-173.54"/>
</g>
<!-- Node8 -->
<g id="node8" class="node">
<title>Node8</title>
<g id="a_node8"><a xlink:href="classJoySensor.html#a40f39fed32b3e7e6d1c7128cc3d7a264" target="_top" xlink:title="Returns the sensor type.">
<polygon fill="white" stroke="black" points="187,-114.5 187,-133.5 296,-133.5 296,-114.5 187,-114.5"/>
<text text-anchor="middle" x="241.5" y="-121.5" font-family="Helvetica,sans-Serif" font-size="10.00">JoySensor::getType</text>
</a>
</g>
</g>
<!-- Node1&#45;&gt;Node8 -->
<g id="edge9" class="edge">
<title>Node1&#45;&gt;Node8</title>
<path fill="none" stroke="midnightblue" d="M98.74,-165.92C117.09,-158.41 140.02,-149.56 161,-143 168.98,-140.5 177.5,-138.15 185.89,-136"/>
<polygon fill="midnightblue" stroke="midnightblue" points="186.77,-139.39 195.64,-133.59 185.09,-132.6 186.77,-139.39"/>
</g>
<!-- Node9 -->
<g id="node9" class="node">
<title>Node9</title>
<g id="a_node9"><a xlink:href="classJoySensor.html#a5f5569cbac7611959c23a68866310094" target="_top" xlink:title=" ">
<polygon fill="white" stroke="black" points="168.5,-76.5 168.5,-95.5 314.5,-95.5 314.5,-76.5 168.5,-76.5"/>
<text text-anchor="middle" x="241.5" y="-83.5" font-family="Helvetica,sans-Serif" font-size="10.00">JoySensor::getXCoordinate</text>
</a>
</g>
</g>
<!-- Node1&#45;&gt;Node9 -->
<g id="edge10" class="edge">
<title>Node1&#45;&gt;Node9</title>
<path fill="none" stroke="midnightblue" d="M78.62,-165.77C96.67,-148.48 128.51,-120.63 161,-105 166.04,-102.58 171.4,-100.45 176.88,-98.59"/>
<polygon fill="midnightblue" stroke="midnightblue" points="178.3,-101.81 186.81,-95.51 176.22,-95.13 178.3,-101.81"/>
</g>
<!-- Node10 -->
<g id="node10" class="node">
<title>Node10</title>
<g id="a_node10"><a xlink:href="classJoySensor.html#a8ede92b92d962399b706bcfe80ac7458" target="_top" xlink:title=" ">
<polygon fill="white" stroke="black" points="169,-38.5 169,-57.5 314,-57.5 314,-38.5 169,-38.5"/>
<text text-anchor="middle" x="241.5" y="-45.5" font-family="Helvetica,sans-Serif" font-size="10.00">JoySensor::getYCoordinate</text>
</a>
</g>
</g>
<!-- Node1&#45;&gt;Node10 -->
<g id="edge11" class="edge">
<title>Node1&#45;&gt;Node10</title>
<path fill="none" stroke="midnightblue" d="M72.11,-165.76C86.93,-141 119.68,-92.27 161,-67 164.44,-64.89 168.1,-63.02 171.89,-61.36"/>
<polygon fill="midnightblue" stroke="midnightblue" points="173.44,-64.51 181.5,-57.63 170.91,-57.98 173.44,-64.51"/>
</g>
<!-- Node11 -->
<g id="node11" class="node">
<title>Node11</title>
<g id="a_node11"><a xlink:href="classJoySensor.html#a80ca5058beac30c05ac2b0b688ee3f52" target="_top" xlink:title=" ">
<polygon fill="white" stroke="black" points="168.5,-0.5 168.5,-19.5 314.5,-19.5 314.5,-0.5 168.5,-0.5"/>
<text text-anchor="middle" x="241.5" y="-7.5" font-family="Helvetica,sans-Serif" font-size="10.00">JoySensor::getZCoordinate</text>
</a>
</g>
</g>
<!-- Node1&#45;&gt;Node11 -->
<g id="edge12" class="edge">
<title>Node1&#45;&gt;Node11</title>
<path fill="none" stroke="midnightblue" d="M68.8,-165.73C80.36,-134.78 110.9,-64.58 161,-29 163.72,-27.07 166.61,-25.33 169.61,-23.77"/>
<polygon fill="midnightblue" stroke="midnightblue" points="171.24,-26.88 178.93,-19.59 168.37,-20.49 171.24,-26.88"/>
</g>
<!-- Node4&#45;&gt;Node5 -->
<g id="edge4" class="edge">
<title>Node4&#45;&gt;Node5</title>
<path fill="none" stroke="midnightblue" d="M275.49,-266.43C289.83,-262.16 306.79,-256.99 322,-252 341.05,-245.75 362.12,-238.32 379.38,-232.09"/>
<polygon fill="midnightblue" stroke="midnightblue" points="380.85,-235.28 389.06,-228.58 378.46,-228.7 380.85,-235.28"/>
</g>
<!-- Node6&#45;&gt;Node5 -->
<g id="edge6" class="edge">
<title>Node6&#45;&gt;Node5</title>
<path fill="none" stroke="midnightblue" d="M322.19,-208.78C330.72,-209.72 339.34,-210.67 347.71,-211.59"/>
<polygon fill="midnightblue" stroke="midnightblue" points="347.45,-215.08 357.78,-212.7 348.22,-208.12 347.45,-215.08"/>
</g>
<!-- Node7&#45;&gt;Node5 -->
<g id="edge8" class="edge">
<title>Node7&#45;&gt;Node5</title>
<path fill="none" stroke="midnightblue" d="M287.82,-171.56C299.08,-174.29 311.06,-177.48 322,-181 343.43,-187.9 366.9,-197.5 384.9,-205.33"/>
<polygon fill="midnightblue" stroke="midnightblue" points="383.72,-208.63 394.29,-209.46 386.55,-202.23 383.72,-208.63"/>
</g>
</g>
</svg>
