<?xml version="1.0" encoding="UTF-8" standalone="no"?>
<!DOCTYPE svg PUBLIC "-//W3C//DTD SVG 1.1//EN"
 "http://www.w3.org/Graphics/SVG/1.1/DTD/svg11.dtd">
<!-- Generated by graphviz version 2.43.0 (0)
 -->
<!-- Title: JoyControlStick::stickDelayChanged Pages: 1 -->
<svg width="726pt" height="100pt"
 viewBox="0.00 0.00 726.00 99.50" xmlns="http://www.w3.org/2000/svg" xmlns:xlink="http://www.w3.org/1999/xlink">
<g id="graph0" class="graph" transform="scale(1 1) rotate(0) translate(4 95.5)">
<title>JoyControlStick::stickDelayChanged</title>
<polygon fill="white" stroke="transparent" points="-4,4 -4,-95.5 722,-95.5 722,4 -4,4"/>
<!-- Node1 -->
<g id="node1" class="node">
<title>Node1</title>
<g id="a_node1"><a xlink:title=" ">
<polygon fill="#bfbfbf" stroke="black" points="569,-61 569,-91 718,-91 718,-61 569,-61"/>
<text text-anchor="start" x="577" y="-79" font-family="Helvetica,sans-Serif" font-size="10.00">JoyControlStick::stickDelay</text>
<text text-anchor="middle" x="643.5" y="-68" font-family="Helvetica,sans-Serif" font-size="10.00">Changed</text>
</a>
</g>
</g>
<!-- Node2 -->
<g id="node2" class="node">
<title>Node2</title>
<g id="a_node2"><a xlink:href="classJoyControlStickEditDialog.html#a2baa35c50ff7528a03ec6f2ba1ed657d" target="_top" xlink:title=" ">
<polygon fill="white" stroke="black" points="1,-61 1,-91 148,-91 148,-61 1,-61"/>
<text text-anchor="start" x="9" y="-79" font-family="Helvetica,sans-Serif" font-size="10.00">JoyControlStickEditDialog</text>
<text text-anchor="middle" x="74.5" y="-68" font-family="Helvetica,sans-Serif" font-size="10.00">::JoyControlStickEditDialog</text>
</a>
</g>
</g>
<!-- Node1&#45;&gt;Node2 -->
<g id="edge1" class="edge">
<title>Node1&#45;&gt;Node2</title>
<path fill="none" stroke="midnightblue" d="M558.71,-78.53C550.03,-78.72 541.34,-78.89 533,-79 378.35,-81.12 339.65,-81.12 185,-79 173.12,-78.84 160.51,-78.58 148.24,-78.27"/>
<polygon fill="midnightblue" stroke="midnightblue" points="558.96,-82.03 568.88,-78.29 558.8,-75.03 558.96,-82.03"/>
</g>
<!-- Node3 -->
<g id="node3" class="node">
<title>Node3</title>
<g id="a_node3"><a xlink:href="classJoyControlStick.html#ac13e6601f793905edae978fd8f1e8a2b" target="_top" xlink:title=" ">
<polygon fill="white" stroke="black" points="397,-39 397,-69 533,-69 533,-39 397,-39"/>
<text text-anchor="start" x="405" y="-57" font-family="Helvetica,sans-Serif" font-size="10.00">JoyControlStick::setStick</text>
<text text-anchor="middle" x="465" y="-46" font-family="Helvetica,sans-Serif" font-size="10.00">Delay</text>
</a>
</g>
</g>
<!-- Node1&#45;&gt;Node3 -->
<g id="edge2" class="edge">
<title>Node1&#45;&gt;Node3</title>
<path fill="none" stroke="midnightblue" d="M558.88,-65.58C550.29,-64.51 541.64,-63.43 533.25,-62.38"/>
<polygon fill="midnightblue" stroke="midnightblue" points="558.57,-69.07 568.93,-66.83 559.44,-62.12 558.57,-69.07"/>
</g>
<!-- Node4 -->
<g id="node4" class="node">
<title>Node4</title>
<g id="a_node4"><a xlink:href="classJoyControlStick.html#ab6ce741115ee3d436c1a7e866abd21e6" target="_top" xlink:title="Take a XML stream and set the stick and direction button properties according to the values contained...">
<polygon fill="white" stroke="black" points="198.5,-0.5 198.5,-19.5 347.5,-19.5 347.5,-0.5 198.5,-0.5"/>
<text text-anchor="middle" x="273" y="-7.5" font-family="Helvetica,sans-Serif" font-size="10.00">JoyControlStick::readConfig</text>
</a>
</g>
</g>
<!-- Node3&#45;&gt;Node4 -->
<g id="edge3" class="edge">
<title>Node3&#45;&gt;Node4</title>
<path fill="none" stroke="midnightblue" d="M393.23,-36.6C382.45,-34.01 371.43,-31.41 361,-29 347.29,-25.84 332.33,-22.53 318.75,-19.57"/>
<polygon fill="midnightblue" stroke="midnightblue" points="392.51,-40.02 403.06,-38.96 394.15,-33.22 392.51,-40.02"/>
</g>
<!-- Node6 -->
<g id="node6" class="node">
<title>Node6</title>
<g id="a_node6"><a xlink:href="classJoyControlStickEditDialogHelper.html#aa89c6dafde2e62360d537b05f3cc19c0" target="_top" xlink:title=" ">
<polygon fill="white" stroke="black" points="185,-39 185,-69 361,-69 361,-39 185,-39"/>
<text text-anchor="start" x="193" y="-57" font-family="Helvetica,sans-Serif" font-size="10.00">JoyControlStickEditDialog</text>
<text text-anchor="middle" x="273" y="-46" font-family="Helvetica,sans-Serif" font-size="10.00">Helper::updateControlStickDelay</text>
</a>
</g>
</g>
<!-- Node3&#45;&gt;Node6 -->
<g id="edge5" class="edge">
<title>Node3&#45;&gt;Node6</title>
<path fill="none" stroke="midnightblue" d="M386.62,-54C378.22,-54 369.63,-54 361.13,-54"/>
<polygon fill="midnightblue" stroke="midnightblue" points="386.75,-57.5 396.75,-54 386.75,-50.5 386.75,-57.5"/>
</g>
<!-- Node5 -->
<g id="node5" class="node">
<title>Node5</title>
<g id="a_node5"><a xlink:href="classSetJoystickXml.html#aa95423a01fab878cbc69bffb7f6121f3" target="_top" xlink:title="Deserializes the given XML stream into a SetJoystick object.">
<polygon fill="white" stroke="black" points="0,-0.5 0,-19.5 149,-19.5 149,-0.5 0,-0.5"/>
<text text-anchor="middle" x="74.5" y="-7.5" font-family="Helvetica,sans-Serif" font-size="10.00">SetJoystickXml::readConfig</text>
</a>
</g>
</g>
<!-- Node4&#45;&gt;Node5 -->
<g id="edge4" class="edge">
<title>Node4&#45;&gt;Node5</title>
<path fill="none" stroke="midnightblue" d="M188.03,-10C175.16,-10 161.95,-10 149.31,-10"/>
<polygon fill="midnightblue" stroke="midnightblue" points="188.27,-13.5 198.27,-10 188.27,-6.5 188.27,-13.5"/>
</g>
<!-- Node6&#45;&gt;Node2 -->
<g id="edge6" class="edge">
<title>Node6&#45;&gt;Node2</title>
<path fill="none" stroke="midnightblue" d="M174.81,-64.88C165.81,-65.89 156.8,-66.9 148.07,-67.87"/>
<polygon fill="midnightblue" stroke="midnightblue" points="175.41,-68.34 184.95,-63.75 174.63,-61.38 175.41,-68.34"/>
</g>
</g>
</svg>
