<?xml version="1.0" encoding="UTF-8" standalone="no"?>
<!DOCTYPE svg PUBLIC "-//W3C//DTD SVG 1.1//EN"
 "http://www.w3.org/Graphics/SVG/1.1/DTD/svg11.dtd">
<!-- Generated by graphviz version 2.43.0 (0)
 -->
<!-- Title: JoyAxisXml::readMainConfig Pages: 1 -->
<!--zoomable 654 -->
<svg id="main" version="1.1" xmlns="http://www.w3.org/2000/svg" xmlns:xlink="http://www.w3.org/1999/xlink" xml:space="preserve" onload="init(evt)">
<style type="text/css"><![CDATA[
.edge:hover path { stroke: red; }
.edge:hover polygon { stroke: red; fill: red; }
]]></style>
<script type="text/javascript"><![CDATA[
var edges = document.getElementsByTagName('g');
if (edges && edges.length) {
  for (var i=0;i<edges.length;i++) {
    if (edges[i].id.substr(0,4)=='edge') {
      edges[i].setAttribute('class','edge');
    }
  }
}
]]></script>
        <defs>
                <circle id="rim" cx="0" cy="0" r="7"/>
                <circle id="rim2" cx="0" cy="0" r="3.5"/>
                <g id="zoomPlus">
                        <use xlink:href="#rim" fill="#404040">
                                <set attributeName="fill" to="#808080" begin="zoomplus.mouseover" end="zoomplus.mouseout"/>
                        </use>
                        <path d="M-4,0h8M0,-4v8" fill="none" stroke="white" stroke-width="1.5" pointer-events="none"/>
                </g>
                <g id="zoomMin">
                        <use xlink:href="#rim" fill="#404040">
                                <set attributeName="fill" to="#808080" begin="zoomminus.mouseover" end="zoomminus.mouseout"/>
                        </use>
                        <path d="M-4,0h8" fill="none" stroke="white" stroke-width="1.5" pointer-events="none"/>
                </g>
                <g id="dirArrow">
                        <path fill="none" stroke="white" stroke-width="1.5" d="M0,-3.0v7 M-2.5,-0.5L0,-3.0L2.5,-0.5"/>
                </g>
               <g id="resetDef">
                       <use xlink:href="#rim2" fill="#404040">
                               <set attributeName="fill" to="#808080" begin="reset.mouseover" end="reset.mouseout"/>
                       </use>
               </g>
        </defs>

<script type="text/javascript">
var viewWidth = 710;
var viewHeight = 654;
var sectionId = 'dynsection-6';
</script>
<script xlink:href="svgpan.js"/>
<svg id="graph" class="graph">
<g id="viewport">
<title>JoyAxisXml::readMainConfig</title>
<polygon fill="white" stroke="transparent" points="-4,4 -4,-649.9 706,-649.9 706,4 -4,4"/>
<!-- Node1 -->
<g id="node1" class="node">
<title>Node1</title>
<g id="a_node1"><a xlink:title=" ">
<polygon fill="#bfbfbf" stroke="black" points="0,-317 0,-336 155,-336 155,-317 0,-317"/>
<text text-anchor="middle" x="77.5" y="-324" font-family="Helvetica,sans-Serif" font-size="10.00">JoyAxisXml::readMainConfig</text>
</a>
</g>
</g>
<!-- Node2 -->
<g id="node2" class="node">
<title>Node2</title>
<g id="a_node2"><a xlink:href="classJoyAxis.html#a06d99d722b314998440165a01b0f87b3" target="_top" xlink:title=" ">
<polygon fill="white" stroke="black" points="555,-357.5 555,-387.5 702,-387.5 702,-357.5 555,-357.5"/>
<text text-anchor="start" x="563" y="-375.5" font-family="Helvetica,sans-Serif" font-size="10.00">JoyAxis::calculateThrottled</text>
<text text-anchor="middle" x="628.5" y="-364.5" font-family="Helvetica,sans-Serif" font-size="10.00">Value</text>
</a>
</g>
</g>
<!-- Node1&#45;&gt;Node2 -->
<g id="edge1" class="edge">
<title>Node1&#45;&gt;Node2</title>
<path fill="none" stroke="midnightblue" d="M78.63,-336.13C79.77,-378.66 90.63,-550.53 191,-619.5 346.12,-726.1 550.51,-476.56 610.35,-396.32"/>
<polygon fill="midnightblue" stroke="midnightblue" points="613.5,-397.95 616.62,-387.83 607.86,-393.8 613.5,-397.95"/>
</g>
<!-- Node3 -->
<g id="node3" class="node">
<title>Node3</title>
<g id="a_node3"><a xlink:href="classHapticTriggerPs5.html#ab870e3eaddce540cb46f3bbb1c2e69b6" target="_top" xlink:title="Converts a HapticTriggerModePs5 from string representation.">
<polygon fill="white" stroke="black" points="213.5,-579.5 213.5,-609.5 341.5,-609.5 341.5,-579.5 213.5,-579.5"/>
<text text-anchor="start" x="221.5" y="-597.5" font-family="Helvetica,sans-Serif" font-size="10.00">HapticTriggerPs5::from</text>
<text text-anchor="middle" x="277.5" y="-586.5" font-family="Helvetica,sans-Serif" font-size="10.00">_string</text>
</a>
</g>
</g>
<!-- Node1&#45;&gt;Node3 -->
<g id="edge2" class="edge">
<title>Node1&#45;&gt;Node3</title>
<path fill="none" stroke="midnightblue" d="M80.04,-336.1C86.37,-372.46 113.85,-503.07 191,-569.5 194.93,-572.88 199.29,-575.81 203.91,-578.34"/>
<polygon fill="midnightblue" stroke="midnightblue" points="202.54,-581.56 213.06,-582.73 205.56,-575.25 202.54,-581.56"/>
</g>
<!-- Node4 -->
<g id="node4" class="node">
<title>Node4</title>
<g id="a_node4"><a xlink:href="classJoyAxis.html#a0580ab0df546a1c03b4e8f755ad00272" target="_top" xlink:title=" ">
<polygon fill="white" stroke="black" points="198.5,-541 198.5,-560 356.5,-560 356.5,-541 198.5,-541"/>
<text text-anchor="middle" x="277.5" y="-548" font-family="Helvetica,sans-Serif" font-size="10.00">JoyAxis::getCurrentRawValue</text>
</a>
</g>
</g>
<!-- Node1&#45;&gt;Node4 -->
<g id="edge3" class="edge">
<title>Node1&#45;&gt;Node4</title>
<path fill="none" stroke="midnightblue" d="M80.74,-336.1C88.99,-369.11 120.86,-478.87 191,-531.5 193.47,-533.36 196.1,-535.04 198.82,-536.56"/>
<polygon fill="midnightblue" stroke="midnightblue" points="197.33,-539.73 207.86,-540.9 200.36,-533.42 197.33,-539.73"/>
</g>
<!-- Node5 -->
<g id="node5" class="node">
<title>Node5</title>
<g id="a_node5"><a xlink:href="classJoyAxis.html#a04bb9e15b6c99f5e5559b1804eac74c8" target="_top" xlink:title=" ">
<polygon fill="white" stroke="black" points="200,-491.5 200,-521.5 355,-521.5 355,-491.5 200,-491.5"/>
<text text-anchor="start" x="208" y="-509.5" font-family="Helvetica,sans-Serif" font-size="10.00">JoyAxis::getCurrentThrottled</text>
<text text-anchor="middle" x="277.5" y="-498.5" font-family="Helvetica,sans-Serif" font-size="10.00">DeadValue</text>
</a>
</g>
</g>
<!-- Node1&#45;&gt;Node5 -->
<g id="edge4" class="edge">
<title>Node1&#45;&gt;Node5</title>
<path fill="none" stroke="midnightblue" d="M82.74,-336.21C95.16,-363.49 134.19,-441.48 191,-481.5 193.72,-483.41 196.58,-485.18 199.55,-486.82"/>
<polygon fill="midnightblue" stroke="midnightblue" points="198.2,-490.06 208.72,-491.33 201.29,-483.78 198.2,-490.06"/>
</g>
<!-- Node6 -->
<g id="node6" class="node">
<title>Node6</title>
<g id="a_node6"><a xlink:href="classJoyAxis.html#afddf7399e2086fda738fe588f5e7d7cd" target="_top" xlink:title=" ">
<polygon fill="white" stroke="black" points="227,-453 227,-472 328,-472 328,-453 227,-453"/>
<text text-anchor="middle" x="277.5" y="-460" font-family="Helvetica,sans-Serif" font-size="10.00">JoyAxis::getIndex</text>
</a>
</g>
</g>
<!-- Node1&#45;&gt;Node6 -->
<g id="edge5" class="edge">
<title>Node1&#45;&gt;Node6</title>
<path fill="none" stroke="midnightblue" d="M84.78,-336.2C100.02,-358.89 141.37,-415.62 191,-443.5 198.98,-447.98 207.94,-451.41 216.97,-454.03"/>
<polygon fill="midnightblue" stroke="midnightblue" points="216.21,-457.44 226.76,-456.56 217.96,-450.67 216.21,-457.44"/>
</g>
<!-- Node7 -->
<g id="node7" class="node">
<title>Node7</title>
<g id="a_node7"><a xlink:href="classSetJoystick.html#af641cbddd22e358218ba68497e40e4e3" target="_top" xlink:title=" ">
<polygon fill="white" stroke="black" points="202,-415 202,-434 353,-434 353,-415 202,-415"/>
<text text-anchor="middle" x="277.5" y="-422" font-family="Helvetica,sans-Serif" font-size="10.00">SetJoystick::getInputDevice</text>
</a>
</g>
</g>
<!-- Node1&#45;&gt;Node7 -->
<g id="edge6" class="edge">
<title>Node1&#45;&gt;Node7</title>
<path fill="none" stroke="midnightblue" d="M89.1,-336.16C108.08,-352.91 149.73,-387.3 191,-405.5 196.75,-408.04 202.88,-410.25 209.1,-412.18"/>
<polygon fill="midnightblue" stroke="midnightblue" points="208.35,-415.6 218.93,-414.98 210.27,-408.87 208.35,-415.6"/>
</g>
<!-- Node8 -->
<g id="node8" class="node">
<title>Node8</title>
<g id="a_node8"><a xlink:href="classJoyAxis.html#a12c4147c5f4a320aee710f8753263aa6" target="_top" xlink:title=" ">
<polygon fill="white" stroke="black" points="217,-377 217,-396 338,-396 338,-377 217,-377"/>
<text text-anchor="middle" x="277.5" y="-384" font-family="Helvetica,sans-Serif" font-size="10.00">JoyAxis::getParentSet</text>
</a>
</g>
</g>
<!-- Node1&#45;&gt;Node8 -->
<g id="edge7" class="edge">
<title>Node1&#45;&gt;Node8</title>
<path fill="none" stroke="midnightblue" d="M101.91,-336.05C124.46,-345 159.67,-358.35 191,-367.5 199.79,-370.07 209.18,-372.48 218.39,-374.66"/>
<polygon fill="midnightblue" stroke="midnightblue" points="217.75,-378.11 228.29,-376.94 219.33,-371.29 217.75,-378.11"/>
</g>
<!-- Node9 -->
<g id="node9" class="node">
<title>Node9</title>
<g id="a_node9"><a xlink:href="classJoyAxis.html#a01dfb4ec2c2e85304a479f21b9cffe49" target="_top" xlink:title=" ">
<polygon fill="white" stroke="black" points="221,-339 221,-358 334,-358 334,-339 221,-339"/>
<text text-anchor="middle" x="277.5" y="-346" font-family="Helvetica,sans-Serif" font-size="10.00">JoyAxis::getThrottle</text>
</a>
</g>
</g>
<!-- Node1&#45;&gt;Node9 -->
<g id="edge8" class="edge">
<title>Node1&#45;&gt;Node9</title>
<path fill="none" stroke="midnightblue" d="M155.05,-335.01C173.34,-337.04 192.7,-339.19 210.46,-341.16"/>
<polygon fill="midnightblue" stroke="midnightblue" points="210.39,-344.68 220.72,-342.3 211.17,-337.72 210.39,-344.68"/>
</g>
<!-- Node10 -->
<g id="node10" class="node">
<title>Node10</title>
<g id="a_node10"><a xlink:href="classInputDevice.html#a2dca8e1dc3480828fde3b0fe2871fbc9" target="_top" xlink:title=" ">
<polygon fill="white" stroke="black" points="201.5,-289.5 201.5,-319.5 353.5,-319.5 353.5,-289.5 201.5,-289.5"/>
<text text-anchor="start" x="209.5" y="-307.5" font-family="Helvetica,sans-Serif" font-size="10.00">InputDevice::hasCalibration</text>
<text text-anchor="middle" x="277.5" y="-296.5" font-family="Helvetica,sans-Serif" font-size="10.00">Throttle</text>
</a>
</g>
</g>
<!-- Node1&#45;&gt;Node10 -->
<g id="edge9" class="edge">
<title>Node1&#45;&gt;Node10</title>
<path fill="none" stroke="midnightblue" d="M155.05,-317.99C166.95,-316.67 179.31,-315.3 191.39,-313.96"/>
<polygon fill="midnightblue" stroke="midnightblue" points="191.9,-317.42 201.46,-312.84 191.13,-310.46 191.9,-317.42"/>
</g>
<!-- Node12 -->
<g id="node12" class="node">
<title>Node12</title>
<g id="a_node12"><a xlink:href="classInputDevice.html#adc85b0c774b371178623c1c84349ce24" target="_top" xlink:title=" ">
<polygon fill="white" stroke="black" points="203,-240.5 203,-270.5 352,-270.5 352,-240.5 203,-240.5"/>
<text text-anchor="start" x="211" y="-258.5" font-family="Helvetica,sans-Serif" font-size="10.00">InputDevice::setCalibration</text>
<text text-anchor="middle" x="277.5" y="-247.5" font-family="Helvetica,sans-Serif" font-size="10.00">Status</text>
</a>
</g>
</g>
<!-- Node1&#45;&gt;Node12 -->
<g id="edge11" class="edge">
<title>Node1&#45;&gt;Node12</title>
<path fill="none" stroke="midnightblue" d="M100.23,-316.83C122.7,-307.01 158.93,-291.71 191,-280.5 197.82,-278.11 205.01,-275.77 212.19,-273.52"/>
<polygon fill="midnightblue" stroke="midnightblue" points="213.42,-276.81 221.95,-270.53 211.37,-270.11 213.42,-276.81"/>
</g>
<!-- Node13 -->
<g id="node13" class="node">
<title>Node13</title>
<g id="a_node13"><a xlink:href="classJoyAxis.html#acb36ca26562c203a587fbb937f168200" target="_top" xlink:title=" ">
<polygon fill="white" stroke="black" points="198.5,-202 198.5,-221 356.5,-221 356.5,-202 198.5,-202"/>
<text text-anchor="middle" x="277.5" y="-209" font-family="Helvetica,sans-Serif" font-size="10.00">JoyAxis::setCurrentRawValue</text>
</a>
</g>
</g>
<!-- Node1&#45;&gt;Node13 -->
<g id="edge13" class="edge">
<title>Node1&#45;&gt;Node13</title>
<path fill="none" stroke="midnightblue" d="M86.72,-316.85C103.94,-297.3 145.96,-252.96 191,-230.5 195.85,-228.08 201,-225.97 206.28,-224.12"/>
<polygon fill="midnightblue" stroke="midnightblue" points="207.41,-227.44 215.89,-221.08 205.3,-220.77 207.41,-227.44"/>
</g>
<!-- Node14 -->
<g id="node14" class="node">
<title>Node14</title>
<g id="a_node14"><a xlink:href="classJoyAxis.html#a368b17910df9a49089bd6f46cab2ff1c" target="_top" xlink:title=" ">
<polygon fill="white" stroke="black" points="215.5,-164 215.5,-183 339.5,-183 339.5,-164 215.5,-164"/>
<text text-anchor="middle" x="277.5" y="-171" font-family="Helvetica,sans-Serif" font-size="10.00">JoyAxis::setDeadZone</text>
</a>
</g>
</g>
<!-- Node1&#45;&gt;Node14 -->
<g id="edge14" class="edge">
<title>Node1&#45;&gt;Node14</title>
<path fill="none" stroke="midnightblue" d="M83.58,-316.88C97.26,-291.95 137.51,-224.97 191,-192.5 195.63,-189.69 200.63,-187.29 205.8,-185.25"/>
<polygon fill="midnightblue" stroke="midnightblue" points="206.98,-188.55 215.26,-181.94 204.67,-181.94 206.98,-188.55"/>
</g>
<!-- Node15 -->
<g id="node15" class="node">
<title>Node15</title>
<g id="a_node15"><a xlink:href="classJoyAxis.html#acc8703fa51f25216175c957121310245" target="_top" xlink:title="Changes the haptic trigger effect mode.">
<polygon fill="white" stroke="black" points="195,-126 195,-145 360,-145 360,-126 195,-126"/>
<text text-anchor="middle" x="277.5" y="-133" font-family="Helvetica,sans-Serif" font-size="10.00">JoyAxis::setHapticTriggerMode</text>
</a>
</g>
</g>
<!-- Node1&#45;&gt;Node15 -->
<g id="edge15" class="edge">
<title>Node1&#45;&gt;Node15</title>
<path fill="none" stroke="midnightblue" d="M81.81,-316.82C92.46,-287.25 128.79,-197.53 191,-154.5 193.9,-152.49 196.98,-150.69 200.18,-149.08"/>
<polygon fill="midnightblue" stroke="midnightblue" points="201.71,-152.23 209.47,-145.01 198.9,-145.82 201.71,-152.23"/>
</g>
<!-- Node16 -->
<g id="node16" class="node">
<title>Node16</title>
<g id="a_node16"><a xlink:href="classJoyAxis.html#ad57d8fa2942d408ed534a348962ae72c" target="_top" xlink:title=" ">
<polygon fill="white" stroke="black" points="204.5,-88 204.5,-107 350.5,-107 350.5,-88 204.5,-88"/>
<text text-anchor="middle" x="277.5" y="-95" font-family="Helvetica,sans-Serif" font-size="10.00">JoyAxis::setMaxZoneValue</text>
</a>
</g>
</g>
<!-- Node1&#45;&gt;Node16 -->
<g id="edge16" class="edge">
<title>Node1&#45;&gt;Node16</title>
<path fill="none" stroke="midnightblue" d="M80.67,-316.68C88.66,-282.87 119.82,-170.48 191,-116.5 193.46,-114.63 196.08,-112.94 198.8,-111.41"/>
<polygon fill="midnightblue" stroke="midnightblue" points="200.34,-114.55 207.82,-107.04 197.29,-108.25 200.34,-114.55"/>
</g>
<!-- Node17 -->
<g id="node17" class="node">
<title>Node17</title>
<g id="a_node17"><a xlink:href="classJoyAxis.html#aa4be4a311b6656e63eacfdde5ce6861a" target="_top" xlink:title="Set throttle value for axis.">
<polygon fill="white" stroke="black" points="221.5,-50 221.5,-69 333.5,-69 333.5,-50 221.5,-50"/>
<text text-anchor="middle" x="277.5" y="-57" font-family="Helvetica,sans-Serif" font-size="10.00">JoyAxis::setThrottle</text>
</a>
</g>
</g>
<!-- Node1&#45;&gt;Node17 -->
<g id="edge17" class="edge">
<title>Node1&#45;&gt;Node17</title>
<path fill="none" stroke="midnightblue" d="M79.79,-316.8C85.32,-279.47 110.42,-143.9 191,-78.5 197.06,-73.58 204.13,-69.87 211.55,-67.08"/>
<polygon fill="midnightblue" stroke="midnightblue" points="212.65,-70.41 221.1,-64.02 210.51,-63.74 212.65,-70.41"/>
</g>
<!-- Node19 -->
<g id="node19" class="node">
<title>Node19</title>
<g id="a_node19"><a xlink:href="classJoyAxis.html#a91976d2688346e4270237afb57462dcf" target="_top" xlink:title=" ">
<polygon fill="white" stroke="black" points="191,-0.5 191,-30.5 364,-30.5 364,-0.5 191,-0.5"/>
<text text-anchor="start" x="199" y="-18.5" font-family="Helvetica,sans-Serif" font-size="10.00">JoyAxis::updateCurrentThrottled</text>
<text text-anchor="middle" x="277.5" y="-7.5" font-family="Helvetica,sans-Serif" font-size="10.00">Value</text>
</a>
</g>
</g>
<!-- Node1&#45;&gt;Node19 -->
<g id="edge20" class="edge">
<title>Node1&#45;&gt;Node19</title>
<path fill="none" stroke="midnightblue" d="M79.3,-316.93C83.17,-276.8 103.55,-120.39 191,-40.5 192.72,-38.93 194.53,-37.46 196.41,-36.08"/>
<polygon fill="midnightblue" stroke="midnightblue" points="198.51,-38.9 205.12,-30.61 194.79,-32.97 198.51,-38.9"/>
</g>
<!-- Node11 -->
<g id="node11" class="node">
<title>Node11</title>
<g id="a_node11"><a xlink:href="classInputDevice.html#a7a7e979f61e7ad7ab12d32913004a81b" target="_top" xlink:title=" ">
<polygon fill="white" stroke="black" points="401.5,-270 401.5,-289 517.5,-289 517.5,-270 401.5,-270"/>
<text text-anchor="middle" x="459.5" y="-277" font-family="Helvetica,sans-Serif" font-size="10.00">InputDevice::getCali</text>
</a>
</g>
</g>
<!-- Node10&#45;&gt;Node11 -->
<g id="edge10" class="edge">
<title>Node10&#45;&gt;Node11</title>
<path fill="none" stroke="midnightblue" d="M353.53,-294.08C366.04,-292.34 378.95,-290.55 391.25,-288.84"/>
<polygon fill="midnightblue" stroke="midnightblue" points="392,-292.27 401.42,-287.43 391.03,-285.34 392,-292.27"/>
</g>
<!-- Node12&#45;&gt;Node11 -->
<g id="edge12" class="edge">
<title>Node12&#45;&gt;Node11</title>
<path fill="none" stroke="midnightblue" d="M352.23,-265.33C365.18,-267.06 378.59,-268.85 391.35,-270.55"/>
<polygon fill="midnightblue" stroke="midnightblue" points="391.04,-274.04 401.41,-271.89 391.96,-267.1 391.04,-274.04"/>
</g>
<!-- Node18 -->
<g id="node18" class="node">
<title>Node18</title>
<g id="a_node18"><a xlink:href="classJoyAxis.html#a211c80f9aa20fa22c8f91a5cdcb0831a" target="_top" xlink:title=" ">
<polygon fill="white" stroke="black" points="400,-153 400,-172 519,-172 519,-153 400,-153"/>
<text text-anchor="middle" x="459.5" y="-160" font-family="Helvetica,sans-Serif" font-size="10.00">JoyAxis::adjustRange</text>
</a>
</g>
</g>
<!-- Node17&#45;&gt;Node18 -->
<g id="edge18" class="edge">
<title>Node17&#45;&gt;Node18</title>
<path fill="none" stroke="midnightblue" d="M333.76,-67.46C344.14,-70.14 354.66,-73.72 364,-78.5 396.69,-95.21 427,-125.94 444.09,-145.24"/>
<polygon fill="midnightblue" stroke="midnightblue" points="441.58,-147.69 450.77,-152.97 446.88,-143.12 441.58,-147.69"/>
</g>
<!-- Node18&#45;&gt;Node2 -->
<g id="edge19" class="edge">
<title>Node18&#45;&gt;Node2</title>
<path fill="none" stroke="midnightblue" d="M468.11,-172.07C493.04,-203.42 572.73,-303.63 609.09,-349.35"/>
<polygon fill="midnightblue" stroke="midnightblue" points="606.39,-351.58 615.36,-357.23 611.87,-347.22 606.39,-351.58"/>
</g>
</g>
</svg>
        <g id="navigator" transform="translate(0 0)" fill="#404254">
                <rect fill="#f2f5e9" fill-opacity="0.5" stroke="#606060" stroke-width=".5" x="0" y="0" width="60" height="60"/>
                <use id="zoomplus" xlink:href="#zoomPlus" x="17" y="9" onmousedown="handleZoom(evt,'in')"/>
                <use id="zoomminus" xlink:href="#zoomMin" x="42" y="9" onmousedown="handleZoom(evt,'out')"/>
                <use id="reset" xlink:href="#resetDef" x="30" y="36" onmousedown="handleReset()"/>
                <g id="arrowUp" xlink:href="#dirArrow" transform="translate(30 24)" onmousedown="handlePan(0,-1)">
                  <use xlink:href="#rim" fill="#404040">
                        <set attributeName="fill" to="#808080" begin="arrowUp.mouseover" end="arrowUp.mouseout"/>
                  </use>
                  <path fill="none" stroke="white" stroke-width="1.5" d="M0,-3.0v7 M-2.5,-0.5L0,-3.0L2.5,-0.5"/>
                </g>
                <g id="arrowRight" xlink:href="#dirArrow" transform="rotate(90) translate(36 -43)" onmousedown="handlePan(1,0)">
                  <use xlink:href="#rim" fill="#404040">
                        <set attributeName="fill" to="#808080" begin="arrowRight.mouseover" end="arrowRight.mouseout"/>
                  </use>
                  <path fill="none" stroke="white" stroke-width="1.5" d="M0,-3.0v7 M-2.5,-0.5L0,-3.0L2.5,-0.5"/>
                </g>
                <g id="arrowDown" xlink:href="#dirArrow" transform="rotate(180) translate(-30 -48)" onmousedown="handlePan(0,1)">
                  <use xlink:href="#rim" fill="#404040">
                        <set attributeName="fill" to="#808080" begin="arrowDown.mouseover" end="arrowDown.mouseout"/>
                  </use>
                  <path fill="none" stroke="white" stroke-width="1.5" d="M0,-3.0v7 M-2.5,-0.5L0,-3.0L2.5,-0.5"/>
                </g>
                <g id="arrowLeft" xlink:href="#dirArrow" transform="rotate(270) translate(-36 17)" onmousedown="handlePan(-1,0)">
                  <use xlink:href="#rim" fill="#404040">
                        <set attributeName="fill" to="#808080" begin="arrowLeft.mouseover" end="arrowLeft.mouseout"/>
                  </use>
                  <path fill="none" stroke="white" stroke-width="1.5" d="M0,-3.0v7 M-2.5,-0.5L0,-3.0L2.5,-0.5"/>
                </g>
        </g>
        <svg viewBox="0 0 15 15" width="100%" height="30px" preserveAspectRatio="xMaxYMin meet">
         <g id="arrow_out" transform="scale(0.3 0.3)">
          <a xlink:href="classJoyAxisXml_a722916013ad49036b2ad38ab8ec30484_cgraph_org.svg" target="_base">
           <rect id="button" ry="5" rx="5" y="6" x="6" height="38" width="38"
                fill="#f2f5e9" fill-opacity="0.5" stroke="#606060" stroke-width="1.0"/>
           <path id="arrow"
             d="M 11.500037,31.436501 C 11.940474,20.09759 22.043105,11.32322 32.158766,21.979434 L 37.068811,17.246167 C 37.068811,17.246167 37.088388,32 37.088388,32 L 22.160133,31.978069 C 22.160133,31.978069 26.997745,27.140456 26.997745,27.140456 C 18.528582,18.264221 13.291696,25.230495 11.500037,31.436501 z"
             style="fill:#404040;"/>
          </a>
         </g>
        </svg>
</svg>
