<?xml version="1.0" encoding="UTF-8" standalone="no"?>
<!DOCTYPE svg PUBLIC "-//W3C//DTD SVG 1.1//EN"
 "http://www.w3.org/Graphics/SVG/1.1/DTD/svg11.dtd">
<!-- Generated by graphviz version 2.43.0 (0)
 -->
<!-- Title: JoyAxisContextMenu::openMouseSettingsDialog Pages: 1 -->
<svg width="886pt" height="88pt"
 viewBox="0.00 0.00 886.00 88.00" xmlns="http://www.w3.org/2000/svg" xmlns:xlink="http://www.w3.org/1999/xlink">
<g id="graph0" class="graph" transform="scale(1 1) rotate(0) translate(4 84)">
<title>JoyAxisContextMenu::openMouseSettingsDialog</title>
<polygon fill="white" stroke="transparent" points="-4,4 -4,-84 882,-84 882,4 -4,4"/>
<!-- Node1 -->
<g id="node1" class="node">
<title>Node1</title>
<g id="a_node1"><a xlink:title=" ">
<polygon fill="#bfbfbf" stroke="black" points="728,-24.5 728,-54.5 878,-54.5 878,-24.5 728,-24.5"/>
<text text-anchor="start" x="736" y="-42.5" font-family="Helvetica,sans-Serif" font-size="10.00">JoyAxisContextMenu</text>
<text text-anchor="middle" x="803" y="-31.5" font-family="Helvetica,sans-Serif" font-size="10.00">::openMouseSettingsDialog</text>
</a>
</g>
</g>
<!-- Node2 -->
<g id="node2" class="node">
<title>Node2</title>
<g id="a_node2"><a xlink:href="classJoyAxisContextMenu.html#aab4c898a84b58ede5c3a2740287cc898" target="_top" xlink:title=" ">
<polygon fill="white" stroke="black" points="574,-49.5 574,-79.5 692,-79.5 692,-49.5 574,-49.5"/>
<text text-anchor="start" x="582" y="-67.5" font-family="Helvetica,sans-Serif" font-size="10.00">JoyAxisContextMenu</text>
<text text-anchor="middle" x="633" y="-56.5" font-family="Helvetica,sans-Serif" font-size="10.00">::buildAxisMenu</text>
</a>
</g>
</g>
<!-- Node1&#45;&gt;Node2 -->
<g id="edge1" class="edge">
<title>Node1&#45;&gt;Node2</title>
<path fill="none" stroke="midnightblue" d="M717.7,-52.05C709.05,-53.33 700.41,-54.62 692.14,-55.85"/>
<polygon fill="midnightblue" stroke="midnightblue" points="718.45,-55.47 727.82,-50.54 717.42,-48.55 718.45,-55.47"/>
</g>
<!-- Node6 -->
<g id="node6" class="node">
<title>Node6</title>
<g id="a_node6"><a xlink:href="classJoyAxisContextMenu.html#adf4373314a4567689fb16a2e4cf484e1" target="_top" xlink:title=" ">
<polygon fill="white" stroke="black" points="574,-0.5 574,-30.5 692,-30.5 692,-0.5 574,-0.5"/>
<text text-anchor="start" x="582" y="-18.5" font-family="Helvetica,sans-Serif" font-size="10.00">JoyAxisContextMenu</text>
<text text-anchor="middle" x="633" y="-7.5" font-family="Helvetica,sans-Serif" font-size="10.00">::buildTriggerMenu</text>
</a>
</g>
</g>
<!-- Node1&#45;&gt;Node6 -->
<g id="edge5" class="edge">
<title>Node1&#45;&gt;Node6</title>
<path fill="none" stroke="midnightblue" d="M717.7,-27.46C709.05,-26.22 700.41,-24.99 692.14,-23.81"/>
<polygon fill="midnightblue" stroke="midnightblue" points="717.43,-30.95 727.82,-28.9 718.42,-24.02 717.43,-30.95"/>
</g>
<!-- Node3 -->
<g id="node3" class="node">
<title>Node3</title>
<g id="a_node3"><a xlink:href="classJoyAxisContextMenu.html#a0bf2f720c91a60d7085d8fd322593f1b" target="_top" xlink:title=" ">
<polygon fill="white" stroke="black" points="420,-24.5 420,-54.5 538,-54.5 538,-24.5 420,-24.5"/>
<text text-anchor="start" x="428" y="-42.5" font-family="Helvetica,sans-Serif" font-size="10.00">JoyAxisContextMenu</text>
<text text-anchor="middle" x="479" y="-31.5" font-family="Helvetica,sans-Serif" font-size="10.00">::buildMenu</text>
</a>
</g>
</g>
<!-- Node2&#45;&gt;Node3 -->
<g id="edge2" class="edge">
<title>Node2&#45;&gt;Node3</title>
<path fill="none" stroke="midnightblue" d="M563.74,-53.27C555.2,-51.87 546.54,-50.44 538.18,-49.07"/>
<polygon fill="midnightblue" stroke="midnightblue" points="563.23,-56.74 573.67,-54.91 564.37,-49.83 563.23,-56.74"/>
</g>
<!-- Node4 -->
<g id="node4" class="node">
<title>Node4</title>
<g id="a_node4"><a xlink:href="classJoyAxisWidget.html#a7788b7cc52a2682d0695e31a5841cee2" target="_top" xlink:title=" ">
<polygon fill="white" stroke="black" points="200,-30 200,-49 384,-49 384,-30 200,-30"/>
<text text-anchor="middle" x="292" y="-37" font-family="Helvetica,sans-Serif" font-size="10.00">JoyAxisWidget::showContextMenu</text>
</a>
</g>
</g>
<!-- Node3&#45;&gt;Node4 -->
<g id="edge3" class="edge">
<title>Node3&#45;&gt;Node4</title>
<path fill="none" stroke="midnightblue" d="M409.86,-39.5C401.44,-39.5 392.73,-39.5 384.03,-39.5"/>
<polygon fill="midnightblue" stroke="midnightblue" points="409.97,-43 419.97,-39.5 409.97,-36 409.97,-43"/>
</g>
<!-- Node5 -->
<g id="node5" class="node">
<title>Node5</title>
<g id="a_node5"><a xlink:href="classJoyAxisWidget.html#af03b84951f7731c7e4a773d66c6fe414" target="_top" xlink:title=" ">
<polygon fill="white" stroke="black" points="0,-30 0,-49 164,-49 164,-30 0,-30"/>
<text text-anchor="middle" x="82" y="-37" font-family="Helvetica,sans-Serif" font-size="10.00">JoyAxisWidget::JoyAxisWidget</text>
</a>
</g>
</g>
<!-- Node4&#45;&gt;Node5 -->
<g id="edge4" class="edge">
<title>Node4&#45;&gt;Node5</title>
<path fill="none" stroke="midnightblue" d="M189.69,-39.5C181.08,-39.5 172.45,-39.5 164.03,-39.5"/>
<polygon fill="midnightblue" stroke="midnightblue" points="189.77,-43 199.77,-39.5 189.77,-36 189.77,-43"/>
</g>
<!-- Node6&#45;&gt;Node3 -->
<g id="edge6" class="edge">
<title>Node6&#45;&gt;Node3</title>
<path fill="none" stroke="midnightblue" d="M563.74,-26.28C555.2,-27.63 546.54,-28.99 538.18,-30.31"/>
<polygon fill="midnightblue" stroke="midnightblue" points="564.34,-29.73 573.67,-24.71 563.24,-22.81 564.34,-29.73"/>
</g>
</g>
</svg>
