<?xml version="1.0" encoding="UTF-8" standalone="no"?>
<!DOCTYPE svg PUBLIC "-//W3C//DTD SVG 1.1//EN"
 "http://www.w3.org/Graphics/SVG/1.1/DTD/svg11.dtd">
<!-- Generated by graphviz version 2.43.0 (0)
 -->
<!-- Title: JoyControlStick::setStickName Pages: 1 -->
<!--zoomable 512 -->
<svg id="main" version="1.1" xmlns="http://www.w3.org/2000/svg" xmlns:xlink="http://www.w3.org/1999/xlink" xml:space="preserve" onload="init(evt)">
<style type="text/css"><![CDATA[
.edge:hover path { stroke: red; }
.edge:hover polygon { stroke: red; fill: red; }
]]></style>
<script type="text/javascript"><![CDATA[
var edges = document.getElementsByTagName('g');
if (edges && edges.length) {
  for (var i=0;i<edges.length;i++) {
    if (edges[i].id.substr(0,4)=='edge') {
      edges[i].setAttribute('class','edge');
    }
  }
}
]]></script>
        <defs>
                <circle id="rim" cx="0" cy="0" r="7"/>
                <circle id="rim2" cx="0" cy="0" r="3.5"/>
                <g id="zoomPlus">
                        <use xlink:href="#rim" fill="#404040">
                                <set attributeName="fill" to="#808080" begin="zoomplus.mouseover" end="zoomplus.mouseout"/>
                        </use>
                        <path d="M-4,0h8M0,-4v8" fill="none" stroke="white" stroke-width="1.5" pointer-events="none"/>
                </g>
                <g id="zoomMin">
                        <use xlink:href="#rim" fill="#404040">
                                <set attributeName="fill" to="#808080" begin="zoomminus.mouseover" end="zoomminus.mouseout"/>
                        </use>
                        <path d="M-4,0h8" fill="none" stroke="white" stroke-width="1.5" pointer-events="none"/>
                </g>
                <g id="dirArrow">
                        <path fill="none" stroke="white" stroke-width="1.5" d="M0,-3.0v7 M-2.5,-0.5L0,-3.0L2.5,-0.5"/>
                </g>
               <g id="resetDef">
                       <use xlink:href="#rim2" fill="#404040">
                               <set attributeName="fill" to="#808080" begin="reset.mouseover" end="reset.mouseout"/>
                       </use>
               </g>
        </defs>

<script type="text/javascript">
var viewWidth = 1059;
var viewHeight = 512;
var sectionId = 'dynsection-222';
</script>
<script xlink:href="svgpan.js"/>
<svg id="graph" class="graph">
<g id="viewport">
<title>JoyControlStick::setStickName</title>
<polygon fill="white" stroke="transparent" points="-4,4 -4,-507.5 1055,-507.5 1055,4 -4,4"/>
<!-- Node1 -->
<g id="node1" class="node">
<title>Node1</title>
<g id="a_node1"><a xlink:title=" ">
<polygon fill="#bfbfbf" stroke="black" points="886,-199.5 886,-218.5 1051,-218.5 1051,-199.5 886,-199.5"/>
<text text-anchor="middle" x="968.5" y="-206.5" font-family="Helvetica,sans-Serif" font-size="10.00">JoyControlStick::setStickName</text>
</a>
</g>
</g>
<!-- Node2 -->
<g id="node2" class="node">
<title>Node2</title>
<g id="a_node2"><a xlink:href="classJoyControlStick.html#a15845226575e7d1c81bf119653c86a3d" target="_top" xlink:title=" ">
<polygon fill="white" stroke="black" points="677,-341.5 677,-360.5 850,-360.5 850,-341.5 677,-341.5"/>
<text text-anchor="middle" x="763.5" y="-348.5" font-family="Helvetica,sans-Serif" font-size="10.00">JoyControlStick::getPartialName</text>
</a>
</g>
</g>
<!-- Node1&#45;&gt;Node2 -->
<g id="edge1" class="edge">
<title>Node1&#45;&gt;Node2</title>
<path fill="none" stroke="midnightblue" d="M945.44,-224.43C903.4,-253.84 812.94,-317.12 778.34,-341.32"/>
<polygon fill="midnightblue" stroke="midnightblue" points="947.68,-227.14 953.87,-218.54 943.66,-221.4 947.68,-227.14"/>
</g>
<!-- Node10 -->
<g id="node10" class="node">
<title>Node10</title>
<g id="a_node10"><a xlink:href="classJoyControlStickEditDialog.html#a2baa35c50ff7528a03ec6f2ba1ed657d" target="_top" xlink:title=" ">
<polygon fill="white" stroke="black" points="234.5,-213 234.5,-243 381.5,-243 381.5,-213 234.5,-213"/>
<text text-anchor="start" x="242.5" y="-231" font-family="Helvetica,sans-Serif" font-size="10.00">JoyControlStickEditDialog</text>
<text text-anchor="middle" x="308" y="-220" font-family="Helvetica,sans-Serif" font-size="10.00">::JoyControlStickEditDialog</text>
</a>
</g>
</g>
<!-- Node1&#45;&gt;Node10 -->
<g id="edge10" class="edge">
<title>Node1&#45;&gt;Node10</title>
<path fill="none" stroke="midnightblue" d="M875.66,-211.65C743.43,-215.47 502.1,-222.43 381.56,-225.91"/>
<polygon fill="midnightblue" stroke="midnightblue" points="875.87,-215.15 885.76,-211.36 875.67,-208.15 875.87,-215.15"/>
</g>
<!-- Node11 -->
<g id="node11" class="node">
<title>Node11</title>
<g id="a_node11"><a xlink:href="classInputDevice.html#a9864bb0b4f6e9ac1001306d23eec455f" target="_top" xlink:title=" ">
<polygon fill="white" stroke="black" points="689,-93.5 689,-112.5 838,-112.5 838,-93.5 689,-93.5"/>
<text text-anchor="middle" x="763.5" y="-100.5" font-family="Helvetica,sans-Serif" font-size="10.00">InputDevice::setStickName</text>
</a>
</g>
</g>
<!-- Node1&#45;&gt;Node11 -->
<g id="edge11" class="edge">
<title>Node1&#45;&gt;Node11</title>
<path fill="none" stroke="midnightblue" d="M940.02,-194.65C897.98,-172.7 818.83,-131.37 782.98,-112.65"/>
<polygon fill="midnightblue" stroke="midnightblue" points="938.64,-197.88 949.13,-199.41 941.88,-191.68 938.64,-197.88"/>
</g>
<!-- Node3 -->
<g id="node3" class="node">
<title>Node3</title>
<g id="a_node3"><a xlink:href="classJoyControlStickPushButton.html#a0059ca289c5b44dd334330d2b7db5b79" target="_top" xlink:title="Generate the string that will be displayed on the button.">
<polygon fill="white" stroke="black" points="467,-473 467,-503 613,-503 613,-473 467,-473"/>
<text text-anchor="start" x="475" y="-491" font-family="Helvetica,sans-Serif" font-size="10.00">JoyControlStickPushButton</text>
<text text-anchor="middle" x="540" y="-480" font-family="Helvetica,sans-Serif" font-size="10.00">::generateLabel</text>
</a>
</g>
</g>
<!-- Node2&#45;&gt;Node3 -->
<g id="edge2" class="edge">
<title>Node2&#45;&gt;Node3</title>
<path fill="none" stroke="midnightblue" d="M748.37,-368.72C727.54,-393.62 686.17,-438.63 641,-463 632.34,-467.67 622.78,-471.49 613.12,-474.61"/>
<polygon fill="midnightblue" stroke="midnightblue" points="751.21,-370.77 754.85,-360.82 745.8,-366.33 751.21,-370.77"/>
</g>
<!-- Node4 -->
<g id="node4" class="node">
<title>Node4</title>
<g id="a_node4"><a xlink:href="classJoyControlStick.html#ab76489911cda31a32731a0efce3b10dd" target="_top" xlink:title=" ">
<polygon fill="white" stroke="black" points="469,-434.5 469,-453.5 611,-453.5 611,-434.5 469,-434.5"/>
<text text-anchor="middle" x="540" y="-441.5" font-family="Helvetica,sans-Serif" font-size="10.00">JoyControlStick::getName</text>
</a>
</g>
</g>
<!-- Node2&#45;&gt;Node4 -->
<g id="edge3" class="edge">
<title>Node2&#45;&gt;Node4</title>
<path fill="none" stroke="midnightblue" d="M742.12,-366.6C718.9,-383.59 679.22,-410.29 641,-425 630.94,-428.87 620,-431.98 609.16,-434.46"/>
<polygon fill="midnightblue" stroke="midnightblue" points="744.24,-369.39 750.17,-360.61 740.06,-363.77 744.24,-369.39"/>
</g>
<!-- Node5 -->
<g id="node5" class="node">
<title>Node5</title>
<g id="a_node5"><a xlink:href="classJoyControlStickModifierButton.html#a2666f594ac56d2c9d06f74b2b07a23e4" target="_top" xlink:title=" ">
<polygon fill="white" stroke="black" points="458.5,-385 458.5,-415 621.5,-415 621.5,-385 458.5,-385"/>
<text text-anchor="start" x="466.5" y="-403" font-family="Helvetica,sans-Serif" font-size="10.00">JoyControlStickModifierButton</text>
<text text-anchor="middle" x="540" y="-392" font-family="Helvetica,sans-Serif" font-size="10.00">::getPartialName</text>
</a>
</g>
</g>
<!-- Node2&#45;&gt;Node5 -->
<g id="edge4" class="edge">
<title>Node2&#45;&gt;Node5</title>
<path fill="none" stroke="midnightblue" d="M709.64,-362.69C679.53,-369.36 641.47,-377.77 609.13,-384.93"/>
<polygon fill="midnightblue" stroke="midnightblue" points="710.52,-366.08 719.53,-360.51 709.01,-359.25 710.52,-366.08"/>
</g>
<!-- Node6 -->
<g id="node6" class="node">
<title>Node6</title>
<g id="a_node6"><a xlink:href="classJoyControlStickButton.html#a1d8721f560ffcdee6bb8cf331b43ec50" target="_top" xlink:title=" ">
<polygon fill="white" stroke="black" points="478.5,-336 478.5,-366 601.5,-366 601.5,-336 478.5,-336"/>
<text text-anchor="start" x="486.5" y="-354" font-family="Helvetica,sans-Serif" font-size="10.00">JoyControlStickButton</text>
<text text-anchor="middle" x="540" y="-343" font-family="Helvetica,sans-Serif" font-size="10.00">::getPartialName</text>
</a>
</g>
</g>
<!-- Node2&#45;&gt;Node6 -->
<g id="edge5" class="edge">
<title>Node2&#45;&gt;Node6</title>
<path fill="none" stroke="midnightblue" d="M666.79,-351C644.71,-351 621.81,-351 601.71,-351"/>
<polygon fill="midnightblue" stroke="midnightblue" points="666.86,-354.5 676.86,-351 666.86,-347.5 666.86,-354.5"/>
</g>
<!-- Node7 -->
<g id="node7" class="node">
<title>Node7</title>
<g id="a_node7"><a xlink:href="classMouseControlStickSettingsDialog.html#a8ff60a784173b38c871484c83b670571" target="_top" xlink:title=" ">
<polygon fill="white" stroke="black" points="439,-287 439,-317 641,-317 641,-287 439,-287"/>
<text text-anchor="start" x="447" y="-305" font-family="Helvetica,sans-Serif" font-size="10.00">MouseControlStickSettings</text>
<text text-anchor="middle" x="540" y="-294" font-family="Helvetica,sans-Serif" font-size="10.00">Dialog::updateWindowTitleStickName</text>
</a>
</g>
</g>
<!-- Node2&#45;&gt;Node7 -->
<g id="edge6" class="edge">
<title>Node2&#45;&gt;Node7</title>
<path fill="none" stroke="midnightblue" d="M709.64,-339.31C679.53,-332.64 641.47,-324.23 609.13,-317.07"/>
<polygon fill="midnightblue" stroke="midnightblue" points="709.01,-342.75 719.53,-341.49 710.52,-335.92 709.01,-342.75"/>
</g>
<!-- Node9 -->
<g id="node9" class="node">
<title>Node9</title>
<g id="a_node9"><a xlink:href="classJoyControlStickEditDialog.html#af7427cbc037e7ff1361237c910ad708b" target="_top" xlink:title=" ">
<polygon fill="white" stroke="black" points="455,-238 455,-268 625,-268 625,-238 455,-238"/>
<text text-anchor="start" x="463" y="-256" font-family="Helvetica,sans-Serif" font-size="10.00">JoyControlStickEditDialog</text>
<text text-anchor="middle" x="540" y="-245" font-family="Helvetica,sans-Serif" font-size="10.00">::updateWindowTitleStickName</text>
</a>
</g>
</g>
<!-- Node2&#45;&gt;Node9 -->
<g id="edge8" class="edge">
<title>Node2&#45;&gt;Node9</title>
<path fill="none" stroke="midnightblue" d="M741.17,-335.49C717.68,-319.08 678.29,-293.46 641,-278 631.91,-274.23 622.11,-270.93 612.32,-268.06"/>
<polygon fill="midnightblue" stroke="midnightblue" points="739.17,-338.37 749.35,-341.29 743.21,-332.66 739.17,-338.37"/>
</g>
<!-- Node8 -->
<g id="node8" class="node">
<title>Node8</title>
<g id="a_node8"><a xlink:href="classMouseControlStickSettingsDialog.html#aac9d5ef09dced4cee0df95d99ae13369" target="_top" xlink:title=" ">
<polygon fill="white" stroke="black" points="215.5,-281.5 215.5,-322.5 400.5,-322.5 400.5,-281.5 215.5,-281.5"/>
<text text-anchor="start" x="223.5" y="-310.5" font-family="Helvetica,sans-Serif" font-size="10.00">MouseControlStickSettings</text>
<text text-anchor="start" x="223.5" y="-299.5" font-family="Helvetica,sans-Serif" font-size="10.00">Dialog::MouseControlStickSettings</text>
<text text-anchor="middle" x="308" y="-288.5" font-family="Helvetica,sans-Serif" font-size="10.00">Dialog</text>
</a>
</g>
</g>
<!-- Node7&#45;&gt;Node8 -->
<g id="edge7" class="edge">
<title>Node7&#45;&gt;Node8</title>
<path fill="none" stroke="midnightblue" d="M428.62,-302C419.22,-302 409.78,-302 400.56,-302"/>
<polygon fill="midnightblue" stroke="midnightblue" points="428.79,-305.5 438.79,-302 428.79,-298.5 428.79,-305.5"/>
</g>
<!-- Node9&#45;&gt;Node10 -->
<g id="edge9" class="edge">
<title>Node9&#45;&gt;Node10</title>
<path fill="none" stroke="midnightblue" d="M444.76,-242.76C423.75,-240.47 401.78,-238.08 381.78,-235.91"/>
<polygon fill="midnightblue" stroke="midnightblue" points="444.67,-246.27 454.99,-243.87 445.43,-239.31 444.67,-246.27"/>
</g>
<!-- Node12 -->
<g id="node12" class="node">
<title>Node12</title>
<g id="a_node12"><a xlink:href="classInputDeviceXml.html#a847bf9ed17b554bf87d513a1aebdcb64" target="_top" xlink:title="Deserializes the given XML stream into an InputDevice object.">
<polygon fill="white" stroke="black" points="463.5,-161.5 463.5,-180.5 616.5,-180.5 616.5,-161.5 463.5,-161.5"/>
<text text-anchor="middle" x="540" y="-168.5" font-family="Helvetica,sans-Serif" font-size="10.00">InputDeviceXml::readConfig</text>
</a>
</g>
</g>
<!-- Node11&#45;&gt;Node12 -->
<g id="edge12" class="edge">
<title>Node11&#45;&gt;Node12</title>
<path fill="none" stroke="midnightblue" d="M732.95,-116.82C708.7,-127.69 673.22,-142.54 641,-152 628.37,-155.71 614.62,-158.87 601.47,-161.48"/>
<polygon fill="midnightblue" stroke="midnightblue" points="734.64,-119.89 742.3,-112.57 731.74,-113.52 734.64,-119.89"/>
</g>
<!-- Node13 -->
<g id="node13" class="node">
<title>Node13</title>
<g id="a_node13"><a xlink:href="classGameControllerXml.html#aaa5257d4c6fe13f1d5fc51981e247c25" target="_top" xlink:title="Reads the XML tree from a &quot;joystick&quot; tag.">
<polygon fill="white" stroke="black" points="480.5,-112 480.5,-142 599.5,-142 599.5,-112 480.5,-112"/>
<text text-anchor="start" x="488.5" y="-130" font-family="Helvetica,sans-Serif" font-size="10.00">GameControllerXml::</text>
<text text-anchor="middle" x="540" y="-119" font-family="Helvetica,sans-Serif" font-size="10.00">readJoystickConfig</text>
</a>
</g>
</g>
<!-- Node11&#45;&gt;Node13 -->
<g id="edge13" class="edge">
<title>Node11&#45;&gt;Node13</title>
<path fill="none" stroke="midnightblue" d="M678.77,-112.07C652.45,-114.92 623.95,-118.01 599.74,-120.63"/>
<polygon fill="midnightblue" stroke="midnightblue" points="679.18,-115.55 688.74,-110.99 678.42,-108.59 679.18,-115.55"/>
</g>
<!-- Node15 -->
<g id="node15" class="node">
<title>Node15</title>
<g id="a_node15"><a xlink:href="classGameControllerXml.html#a6cc4ca448e7b6462630d535f75f3a96b" target="_top" xlink:title=" ">
<polygon fill="white" stroke="black" points="480.5,-63 480.5,-93 599.5,-93 599.5,-63 480.5,-63"/>
<text text-anchor="start" x="488.5" y="-81" font-family="Helvetica,sans-Serif" font-size="10.00">GameControllerXml::</text>
<text text-anchor="middle" x="540" y="-70" font-family="Helvetica,sans-Serif" font-size="10.00">readXmlNamesShort</text>
</a>
</g>
</g>
<!-- Node11&#45;&gt;Node15 -->
<g id="edge15" class="edge">
<title>Node11&#45;&gt;Node15</title>
<path fill="none" stroke="midnightblue" d="M678.77,-93.55C652.45,-90.58 623.95,-87.36 599.74,-84.63"/>
<polygon fill="midnightblue" stroke="midnightblue" points="678.41,-97.03 688.74,-94.68 679.2,-90.08 678.41,-97.03"/>
</g>
<!-- Node16 -->
<g id="node16" class="node">
<title>Node16</title>
<g id="a_node16"><a xlink:href="classInputDevice.html#a839d9cdc5886588a012275b477d860fa" target="_top" xlink:title=" ">
<polygon fill="white" stroke="black" points="462.5,-14 462.5,-44 617.5,-44 617.5,-14 462.5,-14"/>
<text text-anchor="start" x="470.5" y="-32" font-family="Helvetica,sans-Serif" font-size="10.00">InputDevice::updateSetStick</text>
<text text-anchor="middle" x="540" y="-21" font-family="Helvetica,sans-Serif" font-size="10.00">Names</text>
</a>
</g>
</g>
<!-- Node11&#45;&gt;Node16 -->
<g id="edge17" class="edge">
<title>Node11&#45;&gt;Node16</title>
<path fill="none" stroke="midnightblue" d="M743.97,-88.33C720.39,-75.11 678.26,-57.11 641,-45 633.51,-42.57 625.64,-40.23 617.75,-38.08"/>
<polygon fill="midnightblue" stroke="midnightblue" points="742.22,-91.36 752.59,-93.5 745.81,-85.36 742.22,-91.36"/>
</g>
<!-- Node14 -->
<g id="node14" class="node">
<title>Node14</title>
<g id="a_node14"><a xlink:href="classGameControllerXml.html#a7e47256cae0d3815419bc254413777d1" target="_top" xlink:title="Deserializes the given XML stream into a GameController object.">
<polygon fill="white" stroke="black" points="248.5,-87 248.5,-117 367.5,-117 367.5,-87 248.5,-87"/>
<text text-anchor="start" x="256.5" y="-105" font-family="Helvetica,sans-Serif" font-size="10.00">GameControllerXml::</text>
<text text-anchor="middle" x="308" y="-94" font-family="Helvetica,sans-Serif" font-size="10.00">readConfig</text>
</a>
</g>
</g>
<!-- Node13&#45;&gt;Node14 -->
<g id="edge14" class="edge">
<title>Node13&#45;&gt;Node14</title>
<path fill="none" stroke="midnightblue" d="M470.41,-119.54C437.66,-115.98 398.87,-111.77 367.53,-108.36"/>
<polygon fill="midnightblue" stroke="midnightblue" points="470.05,-123.03 480.37,-120.63 470.8,-116.07 470.05,-123.03"/>
</g>
<!-- Node15&#45;&gt;Node14 -->
<g id="edge16" class="edge">
<title>Node15&#45;&gt;Node14</title>
<path fill="none" stroke="midnightblue" d="M470.41,-85.16C437.66,-88.57 398.87,-92.62 367.53,-95.89"/>
<polygon fill="midnightblue" stroke="midnightblue" points="470.78,-88.64 480.37,-84.12 470.06,-81.68 470.78,-88.64"/>
</g>
<!-- Node16&#45;&gt;Node11 -->
<g id="edge21" class="edge">
<title>Node16&#45;&gt;Node11</title>
<path fill="none" stroke="midnightblue" d="M584.69,-46.88C602.33,-51.74 622.79,-57.08 641,-63 669.01,-72.1 699.78,-84.53 723.34,-93.43"/>
<polygon fill="midnightblue" stroke="midnightblue" points="585.23,-43.4 574.66,-44.07 583.34,-50.14 585.23,-43.4"/>
</g>
<!-- Node17 -->
<g id="node17" class="node">
<title>Node17</title>
<g id="a_node17"><a xlink:href="classInputDevice.html#a6ffcebba103a7db02e82c1c7f62387bf" target="_top" xlink:title="Establishes necessary connections for set change slots.">
<polygon fill="white" stroke="black" points="213,-19.5 213,-38.5 403,-38.5 403,-19.5 213,-19.5"/>
<text text-anchor="middle" x="308" y="-26.5" font-family="Helvetica,sans-Serif" font-size="10.00">InputDevice::enableSetConnections</text>
</a>
</g>
</g>
<!-- Node16&#45;&gt;Node17 -->
<g id="edge18" class="edge">
<title>Node16&#45;&gt;Node17</title>
<path fill="none" stroke="midnightblue" d="M452.06,-29C436.12,-29 419.41,-29 403.26,-29"/>
<polygon fill="midnightblue" stroke="midnightblue" points="452.41,-32.5 462.41,-29 452.41,-25.5 452.41,-32.5"/>
</g>
<!-- Node18 -->
<g id="node18" class="node">
<title>Node18</title>
<g id="a_node18"><a xlink:href="classGameController.html#afcddb9dcc5442a9746c3ff8760ea1791" target="_top" xlink:title=" ">
<polygon fill="white" stroke="black" points="0,-38.5 0,-57.5 177,-57.5 177,-38.5 0,-38.5"/>
<text text-anchor="middle" x="88.5" y="-45.5" font-family="Helvetica,sans-Serif" font-size="10.00">GameController::GameController</text>
</a>
</g>
</g>
<!-- Node17&#45;&gt;Node18 -->
<g id="edge19" class="edge">
<title>Node17&#45;&gt;Node18</title>
<path fill="none" stroke="midnightblue" d="M202.85,-38.1C194.28,-38.85 185.68,-39.6 177.26,-40.33"/>
<polygon fill="midnightblue" stroke="midnightblue" points="203.21,-41.58 212.87,-37.22 202.6,-34.61 203.21,-41.58"/>
</g>
<!-- Node19 -->
<g id="node19" class="node">
<title>Node19</title>
<g id="a_node19"><a xlink:href="classJoystick.html#a9df5e53506876f3c95e84bdf6c9cbaf1" target="_top" xlink:title=" ">
<polygon fill="white" stroke="black" points="39,-0.5 39,-19.5 138,-19.5 138,-0.5 39,-0.5"/>
<text text-anchor="middle" x="88.5" y="-7.5" font-family="Helvetica,sans-Serif" font-size="10.00">Joystick::Joystick</text>
</a>
</g>
</g>
<!-- Node17&#45;&gt;Node19 -->
<g id="edge20" class="edge">
<title>Node17&#45;&gt;Node19</title>
<path fill="none" stroke="midnightblue" d="M202.88,-19.9C180.31,-17.93 157.48,-15.94 138.28,-14.26"/>
<polygon fill="midnightblue" stroke="midnightblue" points="202.6,-23.39 212.87,-20.78 203.21,-16.42 202.6,-23.39"/>
</g>
</g>
</svg>
        <g id="navigator" transform="translate(0 0)" fill="#404254">
                <rect fill="#f2f5e9" fill-opacity="0.5" stroke="#606060" stroke-width=".5" x="0" y="0" width="60" height="60"/>
                <use id="zoomplus" xlink:href="#zoomPlus" x="17" y="9" onmousedown="handleZoom(evt,'in')"/>
                <use id="zoomminus" xlink:href="#zoomMin" x="42" y="9" onmousedown="handleZoom(evt,'out')"/>
                <use id="reset" xlink:href="#resetDef" x="30" y="36" onmousedown="handleReset()"/>
                <g id="arrowUp" xlink:href="#dirArrow" transform="translate(30 24)" onmousedown="handlePan(0,-1)">
                  <use xlink:href="#rim" fill="#404040">
                        <set attributeName="fill" to="#808080" begin="arrowUp.mouseover" end="arrowUp.mouseout"/>
                  </use>
                  <path fill="none" stroke="white" stroke-width="1.5" d="M0,-3.0v7 M-2.5,-0.5L0,-3.0L2.5,-0.5"/>
                </g>
                <g id="arrowRight" xlink:href="#dirArrow" transform="rotate(90) translate(36 -43)" onmousedown="handlePan(1,0)">
                  <use xlink:href="#rim" fill="#404040">
                        <set attributeName="fill" to="#808080" begin="arrowRight.mouseover" end="arrowRight.mouseout"/>
                  </use>
                  <path fill="none" stroke="white" stroke-width="1.5" d="M0,-3.0v7 M-2.5,-0.5L0,-3.0L2.5,-0.5"/>
                </g>
                <g id="arrowDown" xlink:href="#dirArrow" transform="rotate(180) translate(-30 -48)" onmousedown="handlePan(0,1)">
                  <use xlink:href="#rim" fill="#404040">
                        <set attributeName="fill" to="#808080" begin="arrowDown.mouseover" end="arrowDown.mouseout"/>
                  </use>
                  <path fill="none" stroke="white" stroke-width="1.5" d="M0,-3.0v7 M-2.5,-0.5L0,-3.0L2.5,-0.5"/>
                </g>
                <g id="arrowLeft" xlink:href="#dirArrow" transform="rotate(270) translate(-36 17)" onmousedown="handlePan(-1,0)">
                  <use xlink:href="#rim" fill="#404040">
                        <set attributeName="fill" to="#808080" begin="arrowLeft.mouseover" end="arrowLeft.mouseout"/>
                  </use>
                  <path fill="none" stroke="white" stroke-width="1.5" d="M0,-3.0v7 M-2.5,-0.5L0,-3.0L2.5,-0.5"/>
                </g>
        </g>
        <svg viewBox="0 0 15 15" width="100%" height="30px" preserveAspectRatio="xMaxYMin meet">
         <g id="arrow_out" transform="scale(0.3 0.3)">
          <a xlink:href="classJoyControlStick_acaa44dff5cfea5fa898837b603f603c0_icgraph_org.svg" target="_base">
           <rect id="button" ry="5" rx="5" y="6" x="6" height="38" width="38"
                fill="#f2f5e9" fill-opacity="0.5" stroke="#606060" stroke-width="1.0"/>
           <path id="arrow"
             d="M 11.500037,31.436501 C 11.940474,20.09759 22.043105,11.32322 32.158766,21.979434 L 37.068811,17.246167 C 37.068811,17.246167 37.088388,32 37.088388,32 L 22.160133,31.978069 C 22.160133,31.978069 26.997745,27.140456 26.997745,27.140456 C 18.528582,18.264221 13.291696,25.230495 11.500037,31.436501 z"
             style="fill:#404040;"/>
          </a>
         </g>
        </svg>
</svg>
