<?xml version="1.0" encoding="UTF-8" standalone="no"?>
<!DOCTYPE svg PUBLIC "-//W3C//DTD SVG 1.1//EN"
 "http://www.w3.org/Graphics/SVG/1.1/DTD/svg11.dtd">
<!-- Generated by graphviz version 2.43.0 (0)
 -->
<!-- Title: JoyControlStick::calculateLastAccelerationDirectionalDistance Pages: 1 -->
<svg width="566pt" height="161pt"
 viewBox="0.00 0.00 566.00 161.00" xmlns="http://www.w3.org/2000/svg" xmlns:xlink="http://www.w3.org/1999/xlink">
<g id="graph0" class="graph" transform="scale(1 1) rotate(0) translate(4 157)">
<title>JoyControlStick::calculateLastAccelerationDirectionalDistance</title>
<polygon fill="white" stroke="transparent" points="-4,4 -4,-157 562,-157 562,4 -4,4"/>
<!-- Node1 -->
<g id="node1" class="node">
<title>Node1</title>
<g id="a_node1"><a xlink:title=" ">
<polygon fill="#bfbfbf" stroke="black" points="0,-49.5 0,-79.5 194,-79.5 194,-49.5 0,-49.5"/>
<text text-anchor="start" x="8" y="-67.5" font-family="Helvetica,sans-Serif" font-size="10.00">JoyControlStick::calculate</text>
<text text-anchor="middle" x="97" y="-56.5" font-family="Helvetica,sans-Serif" font-size="10.00">LastAccelerationDirectionalDistance</text>
</a>
</g>
</g>
<!-- Node2 -->
<g id="node2" class="node">
<title>Node2</title>
<g id="a_node2"><a xlink:href="classJoyControlStick.html#ae90f62171258764a4d5840fa7af02c57" target="_top" xlink:title=" ">
<polygon fill="white" stroke="black" points="230,-98.5 230,-128.5 379,-128.5 379,-98.5 230,-98.5"/>
<text text-anchor="start" x="238" y="-116.5" font-family="Helvetica,sans-Serif" font-size="10.00">JoyControlStick::calculate</text>
<text text-anchor="middle" x="304.5" y="-105.5" font-family="Helvetica,sans-Serif" font-size="10.00">EightWayDiagonalDistance</text>
</a>
</g>
</g>
<!-- Node1&#45;&gt;Node2 -->
<g id="edge1" class="edge">
<title>Node1&#45;&gt;Node2</title>
<path fill="none" stroke="midnightblue" d="M161.05,-79.53C183.05,-84.78 207.91,-90.71 230.63,-96.13"/>
<polygon fill="midnightblue" stroke="midnightblue" points="230.03,-99.58 240.57,-98.49 231.65,-92.77 230.03,-99.58"/>
</g>
<!-- Node5 -->
<g id="node5" class="node">
<title>Node5</title>
<g id="a_node5"><a xlink:href="classJoyControlStick.html#a382e793296ce44f3382df46cc571b88a" target="_top" xlink:title=" ">
<polygon fill="white" stroke="black" points="234,-49.5 234,-79.5 375,-79.5 375,-49.5 234,-49.5"/>
<text text-anchor="start" x="242" y="-67.5" font-family="Helvetica,sans-Serif" font-size="10.00">JoyControlStick::calculate</text>
<text text-anchor="middle" x="304.5" y="-56.5" font-family="Helvetica,sans-Serif" font-size="10.00">XAxisDistance</text>
</a>
</g>
</g>
<!-- Node1&#45;&gt;Node5 -->
<g id="edge4" class="edge">
<title>Node1&#45;&gt;Node5</title>
<path fill="none" stroke="midnightblue" d="M194.13,-64.5C204.06,-64.5 214.06,-64.5 223.78,-64.5"/>
<polygon fill="midnightblue" stroke="midnightblue" points="223.78,-68 233.78,-64.5 223.78,-61 223.78,-68"/>
</g>
<!-- Node6 -->
<g id="node6" class="node">
<title>Node6</title>
<g id="a_node6"><a xlink:href="classJoyControlStick.html#a1938cd9ca4c5da529ab5fb7edd9674df" target="_top" xlink:title=" ">
<polygon fill="white" stroke="black" points="234,-0.5 234,-30.5 375,-30.5 375,-0.5 234,-0.5"/>
<text text-anchor="start" x="242" y="-18.5" font-family="Helvetica,sans-Serif" font-size="10.00">JoyControlStick::calculate</text>
<text text-anchor="middle" x="304.5" y="-7.5" font-family="Helvetica,sans-Serif" font-size="10.00">YAxisDistance</text>
</a>
</g>
</g>
<!-- Node1&#45;&gt;Node6 -->
<g id="edge5" class="edge">
<title>Node1&#45;&gt;Node6</title>
<path fill="none" stroke="midnightblue" d="M161.05,-49.47C183.05,-44.22 207.91,-38.29 230.63,-32.87"/>
<polygon fill="midnightblue" stroke="midnightblue" points="231.65,-36.23 240.57,-30.51 230.03,-29.42 231.65,-36.23"/>
</g>
<!-- Node3 -->
<g id="node3" class="node">
<title>Node3</title>
<g id="a_node3"><a xlink:href="classJoyControlStick.html#a033cec8c362b923e61ec638645e7a80c" target="_top" xlink:title="Calculate the bearing (in degrees) corresponding to the current position of the X and Y axes of a sti...">
<polygon fill="white" stroke="black" points="416,-122.5 416,-152.5 557,-152.5 557,-122.5 416,-122.5"/>
<text text-anchor="start" x="424" y="-140.5" font-family="Helvetica,sans-Serif" font-size="10.00">JoyControlStick::calculate</text>
<text text-anchor="middle" x="486.5" y="-129.5" font-family="Helvetica,sans-Serif" font-size="10.00">Bearing</text>
</a>
</g>
</g>
<!-- Node2&#45;&gt;Node3 -->
<g id="edge2" class="edge">
<title>Node2&#45;&gt;Node3</title>
<path fill="none" stroke="midnightblue" d="M379.23,-123.33C388.05,-124.51 397.08,-125.71 405.98,-126.9"/>
<polygon fill="midnightblue" stroke="midnightblue" points="405.57,-130.37 415.94,-128.23 406.49,-123.43 405.57,-130.37"/>
</g>
<!-- Node4 -->
<g id="node4" class="node">
<title>Node4</title>
<g id="a_node4"><a xlink:href="classJoyControlStick.html#af4ceb950523eedb36857e695d259d383" target="_top" xlink:title=" ">
<polygon fill="white" stroke="black" points="415,-73.5 415,-103.5 558,-103.5 558,-73.5 415,-73.5"/>
<text text-anchor="start" x="423" y="-91.5" font-family="Helvetica,sans-Serif" font-size="10.00">JoyControlStick::getRadial</text>
<text text-anchor="middle" x="486.5" y="-80.5" font-family="Helvetica,sans-Serif" font-size="10.00">Distance</text>
</a>
</g>
</g>
<!-- Node2&#45;&gt;Node4 -->
<g id="edge3" class="edge">
<title>Node2&#45;&gt;Node4</title>
<path fill="none" stroke="midnightblue" d="M379.23,-103.26C387.68,-102.09 396.32,-100.89 404.85,-99.7"/>
<polygon fill="midnightblue" stroke="midnightblue" points="405.36,-103.16 414.79,-98.32 404.4,-96.23 405.36,-103.16"/>
</g>
</g>
</svg>
