<?xml version="1.0" encoding="UTF-8" standalone="no"?>
<!DOCTYPE svg PUBLIC "-//W3C//DTD SVG 1.1//EN"
 "http://www.w3.org/Graphics/SVG/1.1/DTD/svg11.dtd">
<!-- Generated by graphviz version 2.43.0 (0)
 -->
<!-- Title: GameControllerXml::writeXmlForVDpad Pages: 1 -->
<svg width="507pt" height="166pt"
 viewBox="0.00 0.00 507.00 165.50" xmlns="http://www.w3.org/2000/svg" xmlns:xlink="http://www.w3.org/1999/xlink">
<g id="graph0" class="graph" transform="scale(1 1) rotate(0) translate(4 161.5)">
<title>GameControllerXml::writeXmlForVDpad</title>
<polygon fill="white" stroke="transparent" points="-4,4 -4,-161.5 503,-161.5 503,4 -4,4"/>
<!-- Node1 -->
<g id="node1" class="node">
<title>Node1</title>
<g id="a_node1"><a xlink:title=" ">
<polygon fill="#bfbfbf" stroke="black" points="0,-61 0,-91 119,-91 119,-61 0,-61"/>
<text text-anchor="start" x="8" y="-79" font-family="Helvetica,sans-Serif" font-size="10.00">GameControllerXml::</text>
<text text-anchor="middle" x="59.5" y="-68" font-family="Helvetica,sans-Serif" font-size="10.00">writeXmlForVDpad</text>
</a>
</g>
</g>
<!-- Node2 -->
<g id="node2" class="node">
<title>Node2</title>
<g id="a_node2"><a xlink:href="classInputDevice.html#abc23a70bef37f2fc70248cd129af170b" target="_top" xlink:title=" ">
<polygon fill="white" stroke="black" points="157,-127 157,-157 300,-157 300,-127 157,-127"/>
<text text-anchor="start" x="165" y="-145" font-family="Helvetica,sans-Serif" font-size="10.00">InputDevice::getActiveSet</text>
<text text-anchor="middle" x="228.5" y="-134" font-family="Helvetica,sans-Serif" font-size="10.00">Joystick</text>
</a>
</g>
</g>
<!-- Node1&#45;&gt;Node2 -->
<g id="edge1" class="edge">
<title>Node1&#45;&gt;Node2</title>
<path fill="none" stroke="midnightblue" d="M93.48,-91.05C111.51,-99.1 134.33,-108.97 155,-117 160.56,-119.16 166.4,-121.34 172.25,-123.45"/>
<polygon fill="midnightblue" stroke="midnightblue" points="171.46,-126.88 182.05,-126.93 173.81,-120.28 171.46,-126.88"/>
</g>
<!-- Node4 -->
<g id="node4" class="node">
<title>Node4</title>
<g id="a_node4"><a xlink:href="classJoyButton.html#a7123f5432bda7b5b9d4b2b95bdabf4db" target="_top" xlink:title=" ">
<polygon fill="white" stroke="black" points="155,-88.5 155,-107.5 302,-107.5 302,-88.5 155,-88.5"/>
<text text-anchor="middle" x="228.5" y="-95.5" font-family="Helvetica,sans-Serif" font-size="10.00">JoyButton::getButtonName</text>
</a>
</g>
</g>
<!-- Node1&#45;&gt;Node4 -->
<g id="edge3" class="edge">
<title>Node1&#45;&gt;Node4</title>
<path fill="none" stroke="midnightblue" d="M119.38,-83.76C127.68,-84.85 136.34,-85.99 144.98,-87.13"/>
<polygon fill="midnightblue" stroke="midnightblue" points="144.73,-90.63 155.1,-88.46 145.65,-83.69 144.73,-90.63"/>
</g>
<!-- Node5 -->
<g id="node5" class="node">
<title>Node5</title>
<g id="a_node5"><a xlink:href="classJoyDPadButton.html#ae6a39626f57db823f682ef1d028b1ef6" target="_top" xlink:title="Get a 1 indexed number of button.">
<polygon fill="white" stroke="black" points="155,-39 155,-69 302,-69 302,-39 155,-39"/>
<text text-anchor="start" x="163" y="-57" font-family="Helvetica,sans-Serif" font-size="10.00">JoyDPadButton::getRealJoy</text>
<text text-anchor="middle" x="228.5" y="-46" font-family="Helvetica,sans-Serif" font-size="10.00">Number</text>
</a>
</g>
</g>
<!-- Node1&#45;&gt;Node5 -->
<g id="edge4" class="edge">
<title>Node1&#45;&gt;Node5</title>
<path fill="none" stroke="midnightblue" d="M119.38,-68.24C127.61,-67.16 136.2,-66.03 144.77,-64.9"/>
<polygon fill="midnightblue" stroke="midnightblue" points="145.35,-68.35 154.81,-63.58 144.44,-61.41 145.35,-68.35"/>
</g>
<!-- Node6 -->
<g id="node6" class="node">
<title>Node6</title>
<g id="a_node6"><a xlink:href="classSetJoystick.html#ad859311bfde76dbdaac274cb5ede63d6" target="_top" xlink:title=" ">
<polygon fill="white" stroke="black" points="164.5,-0.5 164.5,-19.5 292.5,-19.5 292.5,-0.5 164.5,-0.5"/>
<text text-anchor="middle" x="228.5" y="-7.5" font-family="Helvetica,sans-Serif" font-size="10.00">SetJoystick::getVdpads</text>
</a>
</g>
</g>
<!-- Node1&#45;&gt;Node6 -->
<g id="edge5" class="edge">
<title>Node1&#45;&gt;Node6</title>
<path fill="none" stroke="midnightblue" d="M88.02,-60.93C106.57,-51.2 131.78,-38.77 155,-30 162.3,-27.24 170.14,-24.68 177.88,-22.38"/>
<polygon fill="midnightblue" stroke="midnightblue" points="178.92,-25.72 187.57,-19.6 176.99,-18.99 178.92,-25.72"/>
</g>
<!-- Node3 -->
<g id="node3" class="node">
<title>Node3</title>
<g id="a_node3"><a xlink:href="classInputDevice.html#a1c4c65d9e509a5c3bde064871d7e1849" target="_top" xlink:title=" ">
<polygon fill="white" stroke="black" points="338,-132.5 338,-151.5 499,-151.5 499,-132.5 338,-132.5"/>
<text text-anchor="middle" x="418.5" y="-139.5" font-family="Helvetica,sans-Serif" font-size="10.00">InputDevice::getJoystick_sets</text>
</a>
</g>
</g>
<!-- Node2&#45;&gt;Node3 -->
<g id="edge2" class="edge">
<title>Node2&#45;&gt;Node3</title>
<path fill="none" stroke="midnightblue" d="M300.04,-142C309.07,-142 318.41,-142 327.69,-142"/>
<polygon fill="midnightblue" stroke="midnightblue" points="327.72,-145.5 337.72,-142 327.72,-138.5 327.72,-145.5"/>
</g>
</g>
</svg>
