<?xml version="1.0" encoding="UTF-8" standalone="no"?>
<!DOCTYPE svg PUBLIC "-//W3C//DTD SVG 1.1//EN"
 "http://www.w3.org/Graphics/SVG/1.1/DTD/svg11.dtd">
<!-- Generated by graphviz version 2.43.0 (0)
 -->
<!-- Title: MouseAxisSettingsDialog::updateWheelSpeedVerticalSpeed Pages: 1 -->
<svg width="552pt" height="39pt"
 viewBox="0.00 0.00 552.00 39.00" xmlns="http://www.w3.org/2000/svg" xmlns:xlink="http://www.w3.org/1999/xlink">
<g id="graph0" class="graph" transform="scale(1 1) rotate(0) translate(4 35)">
<title>MouseAxisSettingsDialog::updateWheelSpeedVerticalSpeed</title>
<polygon fill="white" stroke="transparent" points="-4,4 -4,-35 548,-35 548,4 -4,4"/>
<!-- Node1 -->
<g id="node1" class="node">
<title>Node1</title>
<g id="a_node1"><a xlink:title=" ">
<polygon fill="#bfbfbf" stroke="black" points="0,-0.5 0,-30.5 184,-30.5 184,-0.5 0,-0.5"/>
<text text-anchor="start" x="8" y="-18.5" font-family="Helvetica,sans-Serif" font-size="10.00">MouseAxisSettingsDialog</text>
<text text-anchor="middle" x="92" y="-7.5" font-family="Helvetica,sans-Serif" font-size="10.00">::updateWheelSpeedVerticalSpeed</text>
</a>
</g>
</g>
<!-- Node2 -->
<g id="node2" class="node">
<title>Node2</title>
<g id="a_node2"><a xlink:href="classJoyAxis.html#a429c4d81ef067652a91e1fe1d19b3e89" target="_top" xlink:title=" ">
<polygon fill="white" stroke="black" points="220,-0.5 220,-30.5 362,-30.5 362,-0.5 220,-0.5"/>
<text text-anchor="start" x="228" y="-18.5" font-family="Helvetica,sans-Serif" font-size="10.00">JoyAxis::setButtonsWheel</text>
<text text-anchor="middle" x="291" y="-7.5" font-family="Helvetica,sans-Serif" font-size="10.00">SpeedY</text>
</a>
</g>
</g>
<!-- Node1&#45;&gt;Node2 -->
<g id="edge1" class="edge">
<title>Node1&#45;&gt;Node2</title>
<path fill="none" stroke="midnightblue" d="M184,-15.5C192.53,-15.5 201.14,-15.5 209.56,-15.5"/>
<polygon fill="midnightblue" stroke="midnightblue" points="209.72,-19 219.72,-15.5 209.72,-12 209.72,-19"/>
</g>
<!-- Node3 -->
<g id="node3" class="node">
<title>Node3</title>
<g id="a_node3"><a xlink:href="classJoyButton.html#a7f76ad6c68868cd464b66b5963689332" target="_top" xlink:title=" ">
<polygon fill="white" stroke="black" points="398,-6 398,-25 544,-25 544,-6 398,-6"/>
<text text-anchor="middle" x="471" y="-13" font-family="Helvetica,sans-Serif" font-size="10.00">JoyButton::setWheelSpeed</text>
</a>
</g>
</g>
<!-- Node2&#45;&gt;Node3 -->
<g id="edge2" class="edge">
<title>Node2&#45;&gt;Node3</title>
<path fill="none" stroke="midnightblue" d="M362.09,-15.5C370.56,-15.5 379.26,-15.5 387.87,-15.5"/>
<polygon fill="midnightblue" stroke="midnightblue" points="387.92,-19 397.92,-15.5 387.92,-12 387.92,-19"/>
</g>
</g>
</svg>
