<?xml version="1.0" encoding="UTF-8" standalone="no"?>
<!DOCTYPE svg PUBLIC "-//W3C//DTD SVG 1.1//EN"
 "http://www.w3.org/Graphics/SVG/1.1/DTD/svg11.dtd">
<!-- Generated by graphviz version 2.43.0 (0)
 -->
<!-- Title: MainWindow::joystickRefreshRequested Pages: 1 -->
<svg width="1061pt" height="270pt"
 viewBox="0.00 0.00 1061.00 270.30" xmlns="http://www.w3.org/2000/svg" xmlns:xlink="http://www.w3.org/1999/xlink">
<g id="graph0" class="graph" transform="scale(1 1) rotate(0) translate(4 266.3)">
<title>MainWindow::joystickRefreshRequested</title>
<polygon fill="white" stroke="transparent" points="-4,4 -4,-266.3 1057,-266.3 1057,4 -4,4"/>
<!-- Node1 -->
<g id="node1" class="node">
<title>Node1</title>
<g id="a_node1"><a xlink:title=" ">
<polygon fill="#bfbfbf" stroke="black" points="892,-159.39 892,-189.39 1053,-189.39 1053,-159.39 892,-159.39"/>
<text text-anchor="start" x="900" y="-177.39" font-family="Helvetica,sans-Serif" font-size="10.00">MainWindow::joystickRefresh</text>
<text text-anchor="middle" x="972.5" y="-166.39" font-family="Helvetica,sans-Serif" font-size="10.00">Requested</text>
</a>
</g>
</g>
<!-- Node2 -->
<g id="node2" class="node">
<title>Node2</title>
<g id="a_node2"><a xlink:href="main_8cpp.html#a0ddf1224851353fc92bfbff6f499fa97" target="_top" xlink:title=" ">
<polygon fill="white" stroke="black" points="0,-142.89 0,-161.89 41,-161.89 41,-142.89 0,-142.89"/>
<text text-anchor="middle" x="20.5" y="-149.89" font-family="Helvetica,sans-Serif" font-size="10.00">main</text>
</a>
</g>
</g>
<!-- Node1&#45;&gt;Node2 -->
<g id="edge1" class="edge">
<title>Node1&#45;&gt;Node2</title>
<path fill="none" stroke="midnightblue" d="M914.28,-192.39C840.39,-214.01 707.44,-247.39 591,-247.39 591,-247.39 591,-247.39 367.5,-247.39 238.11,-247.39 190.38,-290.72 77,-228.39 49.8,-213.43 32.4,-178.81 25.24,-161.95"/>
<polygon fill="midnightblue" stroke="midnightblue" points="915.71,-195.62 924.3,-189.42 913.72,-188.91 915.71,-195.62"/>
</g>
<!-- Node3 -->
<g id="node3" class="node">
<title>Node3</title>
<g id="a_node3"><a xlink:href="classMainWindow.html#a6b5fc3b3507391509211864f168ebfa9" target="_top" xlink:title=" ">
<polygon fill="white" stroke="black" points="710,-137.39 710,-167.39 856,-167.39 856,-137.39 710,-137.39"/>
<text text-anchor="start" x="718" y="-155.39" font-family="Helvetica,sans-Serif" font-size="10.00">MainWindow::startJoystick</text>
<text text-anchor="middle" x="783" y="-144.39" font-family="Helvetica,sans-Serif" font-size="10.00">Refresh</text>
</a>
</g>
</g>
<!-- Node1&#45;&gt;Node3 -->
<g id="edge2" class="edge">
<title>Node1&#45;&gt;Node3</title>
<path fill="none" stroke="midnightblue" d="M881.9,-163.87C873.29,-162.86 864.62,-161.85 856.2,-160.86"/>
<polygon fill="midnightblue" stroke="midnightblue" points="881.64,-167.37 891.98,-165.06 882.46,-160.41 881.64,-167.37"/>
</g>
<!-- Node4 -->
<g id="node4" class="node">
<title>Node4</title>
<g id="a_node4"><a xlink:href="classMainWindow.html#a4b00208df3ff47236e6b46f308647a97" target="_top" xlink:title=" ">
<polygon fill="white" stroke="black" points="506,-113.89 506,-132.89 674,-132.89 674,-113.89 506,-113.89"/>
<text text-anchor="middle" x="590" y="-120.89" font-family="Helvetica,sans-Serif" font-size="10.00">MainWindow::populateTrayIcon</text>
</a>
</g>
</g>
<!-- Node3&#45;&gt;Node4 -->
<g id="edge3" class="edge">
<title>Node3&#45;&gt;Node4</title>
<path fill="none" stroke="midnightblue" d="M699.72,-139.89C684.27,-137.55 668.35,-135.13 653.62,-132.89"/>
<polygon fill="midnightblue" stroke="midnightblue" points="699.38,-143.38 709.79,-141.42 700.43,-136.46 699.38,-143.38"/>
</g>
<!-- Node5 -->
<g id="node5" class="node">
<title>Node5</title>
<g id="a_node5"><a xlink:href="classMainWindow.html#a9738583d1ab872fb2784c0faee89cb46" target="_top" xlink:title=" ">
<polygon fill="white" stroke="black" points="87,-199.89 87,-218.89 221,-218.89 221,-199.89 87,-199.89"/>
<text text-anchor="middle" x="154" y="-206.89" font-family="Helvetica,sans-Serif" font-size="10.00">MainWindow::addJoyTab</text>
</a>
</g>
</g>
<!-- Node4&#45;&gt;Node5 -->
<g id="edge4" class="edge">
<title>Node4&#45;&gt;Node5</title>
<path fill="none" stroke="midnightblue" d="M556.16,-136.59C532.54,-145.62 499.74,-157.21 470,-164.39 385.29,-184.83 285.37,-197.17 221.15,-203.62"/>
<polygon fill="midnightblue" stroke="midnightblue" points="557.63,-139.78 565.69,-132.9 555.1,-133.25 557.63,-139.78"/>
</g>
<!-- Node6 -->
<g id="node6" class="node">
<title>Node6</title>
<g id="a_node6"><a xlink:href="classMainWindow.html#aef8941c9dc542d8ff8416fff1caf8ad7" target="_top" xlink:title=" ">
<polygon fill="white" stroke="black" points="291,-135.89 291,-154.89 446,-154.89 446,-135.89 291,-135.89"/>
<text text-anchor="middle" x="368.5" y="-142.89" font-family="Helvetica,sans-Serif" font-size="10.00">MainWindow::fillButtonsMap</text>
</a>
</g>
</g>
<!-- Node4&#45;&gt;Node6 -->
<g id="edge6" class="edge">
<title>Node4&#45;&gt;Node6</title>
<path fill="none" stroke="midnightblue" d="M495.54,-132.75C479.1,-134.4 462.16,-136.1 446.24,-137.69"/>
<polygon fill="midnightblue" stroke="midnightblue" points="496.1,-136.21 505.7,-131.73 495.4,-129.25 496.1,-136.21"/>
</g>
<!-- Node8 -->
<g id="node8" class="node">
<title>Node8</title>
<g id="a_node8"><a xlink:href="classMainWindow.html#ae9f72ff45056908317963a1e7fa634a0" target="_top" xlink:title="Build list of current input devices and pass it to settings dialog instance. Open Settings dialog.">
<polygon fill="white" stroke="black" points="282,-86.39 282,-116.39 455,-116.39 455,-86.39 282,-86.39"/>
<text text-anchor="start" x="290" y="-104.39" font-family="Helvetica,sans-Serif" font-size="10.00">MainWindow::openMainSettings</text>
<text text-anchor="middle" x="368.5" y="-93.39" font-family="Helvetica,sans-Serif" font-size="10.00">Dialog</text>
</a>
</g>
</g>
<!-- Node4&#45;&gt;Node8 -->
<g id="edge10" class="edge">
<title>Node4&#45;&gt;Node8</title>
<path fill="none" stroke="midnightblue" d="M495.56,-114.02C482.2,-112.68 468.5,-111.31 455.29,-109.98"/>
<polygon fill="midnightblue" stroke="midnightblue" points="495.4,-117.52 505.7,-115.04 496.1,-110.56 495.4,-117.52"/>
</g>
<!-- Node10 -->
<g id="node10" class="node">
<title>Node10</title>
<g id="a_node10"><a xlink:href="classMainWindow.html#ac398cc635954d370088390a0a5bee878" target="_top" xlink:title=" ">
<polygon fill="white" stroke="black" points="77,-47.89 77,-66.89 231,-66.89 231,-47.89 77,-47.89"/>
<text text-anchor="middle" x="154" y="-54.89" font-family="Helvetica,sans-Serif" font-size="10.00">MainWindow::removeJoyTab</text>
</a>
</g>
</g>
<!-- Node4&#45;&gt;Node10 -->
<g id="edge12" class="edge">
<title>Node4&#45;&gt;Node10</title>
<path fill="none" stroke="midnightblue" d="M561.14,-109.46C537.52,-98.38 502.4,-83.57 470,-76.39 389.77,-58.6 295.41,-55.13 231.03,-55.31"/>
<polygon fill="midnightblue" stroke="midnightblue" points="559.68,-112.65 570.22,-113.8 562.71,-106.33 559.68,-112.65"/>
</g>
<!-- Node11 -->
<g id="node11" class="node">
<title>Node11</title>
<g id="a_node11"><a xlink:href="classMainWindow.html#a2a0aba59f5d3bf3c6fb97f0de103b36f" target="_top" xlink:title=" ">
<polygon fill="white" stroke="black" points="267,-9.89 267,-28.89 470,-28.89 470,-9.89 267,-9.89"/>
<text text-anchor="middle" x="368.5" y="-16.89" font-family="Helvetica,sans-Serif" font-size="10.00">MainWindow::testMappingUpdateNow</text>
</a>
</g>
</g>
<!-- Node4&#45;&gt;Node11 -->
<g id="edge14" class="edge">
<title>Node4&#45;&gt;Node11</title>
<path fill="none" stroke="midnightblue" d="M569.9,-107.35C547.39,-89.24 508.21,-60.14 470,-43.39 455.87,-37.19 439.89,-32.45 424.9,-28.89"/>
<polygon fill="midnightblue" stroke="midnightblue" points="567.71,-110.08 577.67,-113.7 572.14,-104.66 567.71,-110.08"/>
</g>
<!-- Node5&#45;&gt;Node2 -->
<g id="edge5" class="edge">
<title>Node5&#45;&gt;Node2</title>
<path fill="none" stroke="midnightblue" d="M106.95,-196.72C96.92,-193.45 86.47,-189.63 77,-185.39 62.27,-178.79 46.55,-169.17 35.61,-162.02"/>
<polygon fill="midnightblue" stroke="midnightblue" points="106.21,-200.16 116.8,-199.81 108.31,-193.48 106.21,-200.16"/>
</g>
<!-- Node6&#45;&gt;Node2 -->
<g id="edge9" class="edge">
<title>Node6&#45;&gt;Node2</title>
<path fill="none" stroke="midnightblue" d="M280.5,-150.52C264.07,-151.3 247.01,-151.98 231,-152.39 161.19,-154.17 78.25,-153.28 41.14,-152.72"/>
<polygon fill="midnightblue" stroke="midnightblue" points="280.83,-154 290.64,-150.02 280.48,-147.01 280.83,-154"/>
</g>
<!-- Node7 -->
<g id="node7" class="node">
<title>Node7</title>
<g id="a_node7"><a xlink:href="classMainWindow.html#a5d25ebfdfec433fc449d7e35803a9c7c" target="_top" xlink:title=" ">
<polygon fill="white" stroke="black" points="87,-123.89 87,-142.89 221,-142.89 221,-123.89 87,-123.89"/>
<text text-anchor="middle" x="154" y="-130.89" font-family="Helvetica,sans-Serif" font-size="10.00">MainWindow::fillButtons</text>
</a>
</g>
</g>
<!-- Node6&#45;&gt;Node7 -->
<g id="edge7" class="edge">
<title>Node6&#45;&gt;Node7</title>
<path fill="none" stroke="midnightblue" d="M280.78,-140.49C260.84,-139.36 239.96,-138.18 221.07,-137.12"/>
<polygon fill="midnightblue" stroke="midnightblue" points="280.6,-143.98 290.78,-141.05 281,-137 280.6,-143.98"/>
</g>
<!-- Node7&#45;&gt;Node2 -->
<g id="edge8" class="edge">
<title>Node7&#45;&gt;Node2</title>
<path fill="none" stroke="midnightblue" d="M76.69,-144.41C63.5,-146.32 50.88,-148.14 41.05,-149.56"/>
<polygon fill="midnightblue" stroke="midnightblue" points="77.47,-147.84 86.86,-142.94 76.47,-140.91 77.47,-147.84"/>
</g>
<!-- Node9 -->
<g id="node9" class="node">
<title>Node9</title>
<g id="a_node9"><a xlink:href="classMainWindow.html#a2f0c03d3d51748ab794e698322110614" target="_top" xlink:title=" ">
<polygon fill="white" stroke="black" points="80,-85.89 80,-104.89 228,-104.89 228,-85.89 80,-85.89"/>
<text text-anchor="middle" x="154" y="-92.89" font-family="Helvetica,sans-Serif" font-size="10.00">MainWindow::MainWindow</text>
</a>
</g>
</g>
<!-- Node8&#45;&gt;Node9 -->
<g id="edge11" class="edge">
<title>Node8&#45;&gt;Node9</title>
<path fill="none" stroke="midnightblue" d="M271.86,-98.69C257.15,-98.27 242.16,-97.85 228.05,-97.45"/>
<polygon fill="midnightblue" stroke="midnightblue" points="271.89,-102.19 281.99,-98.97 272.09,-95.19 271.89,-102.19"/>
</g>
<!-- Node10&#45;&gt;Node2 -->
<g id="edge13" class="edge">
<title>Node10&#45;&gt;Node2</title>
<path fill="none" stroke="midnightblue" d="M86.41,-71C83.13,-72.6 79.97,-74.39 77,-76.39 51.52,-93.54 33.53,-126.49 25.77,-142.78"/>
<polygon fill="midnightblue" stroke="midnightblue" points="88.07,-74.1 95.92,-66.97 85.34,-67.65 88.07,-74.1"/>
</g>
<!-- Node11&#45;&gt;Node2 -->
<g id="edge15" class="edge">
<title>Node11&#45;&gt;Node2</title>
<path fill="none" stroke="midnightblue" d="M315.1,-8.12C252.77,2.2 148.24,9.47 77,-38.39 40.09,-63.18 26.87,-119.83 22.94,-142.62"/>
<polygon fill="midnightblue" stroke="midnightblue" points="314.65,-11.59 325.1,-9.86 315.85,-4.7 314.65,-11.59"/>
</g>
</g>
</svg>
