<?xml version="1.0" encoding="UTF-8" standalone="no"?>
<!DOCTYPE svg PUBLIC "-//W3C//DTD SVG 1.1//EN"
 "http://www.w3.org/Graphics/SVG/1.1/DTD/svg11.dtd">
<!-- Generated by graphviz version 2.43.0 (0)
 -->
<!-- Title: JoyControlStickEditDialog::updateWindowTitleStickName Pages: 1 -->
<svg width="588pt" height="218pt"
 viewBox="0.00 0.00 588.00 218.00" xmlns="http://www.w3.org/2000/svg" xmlns:xlink="http://www.w3.org/1999/xlink">
<g id="graph0" class="graph" transform="scale(1 1) rotate(0) translate(4 214)">
<title>JoyControlStickEditDialog::updateWindowTitleStickName</title>
<polygon fill="white" stroke="transparent" points="-4,4 -4,-214 584,-214 584,4 -4,4"/>
<!-- Node1 -->
<g id="node1" class="node">
<title>Node1</title>
<g id="a_node1"><a xlink:title=" ">
<polygon fill="#bfbfbf" stroke="black" points="0,-90 0,-120 170,-120 170,-90 0,-90"/>
<text text-anchor="start" x="8" y="-108" font-family="Helvetica,sans-Serif" font-size="10.00">JoyControlStickEditDialog</text>
<text text-anchor="middle" x="85" y="-97" font-family="Helvetica,sans-Serif" font-size="10.00">::updateWindowTitleStickName</text>
</a>
</g>
</g>
<!-- Node2 -->
<g id="node2" class="node">
<title>Node2</title>
<g id="a_node2"><a xlink:href="classSetJoystick.html#a3a7ae87b62fac9deace237039cb5ea85" target="_top" xlink:title=" ">
<polygon fill="white" stroke="black" points="233,-190.5 233,-209.5 352,-209.5 352,-190.5 233,-190.5"/>
<text text-anchor="middle" x="292.5" y="-197.5" font-family="Helvetica,sans-Serif" font-size="10.00">SetJoystick::getIndex</text>
</a>
</g>
</g>
<!-- Node1&#45;&gt;Node2 -->
<g id="edge1" class="edge">
<title>Node1&#45;&gt;Node2</title>
<path fill="none" stroke="midnightblue" d="M105.22,-120.16C127.99,-137.4 167.71,-165.19 206,-181 212.23,-183.57 218.87,-185.83 225.59,-187.79"/>
<polygon fill="midnightblue" stroke="midnightblue" points="224.88,-191.22 235.45,-190.47 226.71,-184.47 224.88,-191.22"/>
</g>
<!-- Node3 -->
<g id="node3" class="node">
<title>Node3</title>
<g id="a_node3"><a xlink:href="classSetJoystick.html#a102a4bbc464b9dfc5a8227c0fb4611c8" target="_top" xlink:title=" ">
<polygon fill="white" stroke="black" points="231.5,-152.5 231.5,-171.5 353.5,-171.5 353.5,-152.5 231.5,-152.5"/>
<text text-anchor="middle" x="292.5" y="-159.5" font-family="Helvetica,sans-Serif" font-size="10.00">SetJoystick::getName</text>
</a>
</g>
</g>
<!-- Node1&#45;&gt;Node3 -->
<g id="edge2" class="edge">
<title>Node1&#45;&gt;Node3</title>
<path fill="none" stroke="midnightblue" d="M130.18,-120.01C152.73,-127.42 180.68,-136.19 206,-143 215.37,-145.52 225.39,-147.96 235.14,-150.21"/>
<polygon fill="midnightblue" stroke="midnightblue" points="234.64,-153.69 245.17,-152.48 236.19,-146.86 234.64,-153.69"/>
</g>
<!-- Node4 -->
<g id="node4" class="node">
<title>Node4</title>
<g id="a_node4"><a xlink:href="classJoyControlStick.html#a368fdbc00c4a4a9cf3f3e49d6736da65" target="_top" xlink:title="Get pointer to the set that a stick belongs to.">
<polygon fill="white" stroke="black" points="213,-114.5 213,-133.5 372,-133.5 372,-114.5 213,-114.5"/>
<text text-anchor="middle" x="292.5" y="-121.5" font-family="Helvetica,sans-Serif" font-size="10.00">JoyControlStick::getParentSet</text>
</a>
</g>
</g>
<!-- Node1&#45;&gt;Node4 -->
<g id="edge3" class="edge">
<title>Node1&#45;&gt;Node4</title>
<path fill="none" stroke="midnightblue" d="M170.18,-112.78C180.85,-113.77 191.79,-114.78 202.53,-115.77"/>
<polygon fill="midnightblue" stroke="midnightblue" points="202.47,-119.28 212.75,-116.72 203.11,-112.31 202.47,-119.28"/>
</g>
<!-- Node5 -->
<g id="node5" class="node">
<title>Node5</title>
<g id="a_node5"><a xlink:href="classJoyControlStick.html#a15845226575e7d1c81bf119653c86a3d" target="_top" xlink:title=" ">
<polygon fill="white" stroke="black" points="206,-76.5 206,-95.5 379,-95.5 379,-76.5 206,-76.5"/>
<text text-anchor="middle" x="292.5" y="-83.5" font-family="Helvetica,sans-Serif" font-size="10.00">JoyControlStick::getPartialName</text>
</a>
</g>
</g>
<!-- Node1&#45;&gt;Node5 -->
<g id="edge4" class="edge">
<title>Node1&#45;&gt;Node5</title>
<path fill="none" stroke="midnightblue" d="M170.18,-97.22C178.62,-96.44 187.24,-95.64 195.79,-94.85"/>
<polygon fill="midnightblue" stroke="midnightblue" points="196.15,-98.33 205.79,-93.92 195.51,-91.36 196.15,-98.33"/>
</g>
<!-- Node8 -->
<g id="node8" class="node">
<title>Node8</title>
<g id="a_node8"><a xlink:href="classSetJoystick.html#a00ecd09902d11bbfe7e6e82ad25ae456" target="_top" xlink:title=" ">
<polygon fill="white" stroke="black" points="222,-38.5 222,-57.5 363,-57.5 363,-38.5 222,-38.5"/>
<text text-anchor="middle" x="292.5" y="-45.5" font-family="Helvetica,sans-Serif" font-size="10.00">SetJoystick::getRealIndex</text>
</a>
</g>
</g>
<!-- Node1&#45;&gt;Node8 -->
<g id="edge7" class="edge">
<title>Node1&#45;&gt;Node8</title>
<path fill="none" stroke="midnightblue" d="M130.18,-89.99C152.73,-82.58 180.68,-73.81 206,-67 215.37,-64.48 225.39,-62.04 235.14,-59.79"/>
<polygon fill="midnightblue" stroke="midnightblue" points="236.19,-63.14 245.17,-57.52 234.64,-56.31 236.19,-63.14"/>
</g>
<!-- Node9 -->
<g id="node9" class="node">
<title>Node9</title>
<g id="a_node9"><a xlink:href="classJoyControlStick.html#a3665f4f4ae6cc0f7ca44502b61f7c3ea" target="_top" xlink:title=" ">
<polygon fill="white" stroke="black" points="209.5,-0.5 209.5,-19.5 375.5,-19.5 375.5,-0.5 209.5,-0.5"/>
<text text-anchor="middle" x="292.5" y="-7.5" font-family="Helvetica,sans-Serif" font-size="10.00">JoyControlStick::getStickName</text>
</a>
</g>
</g>
<!-- Node1&#45;&gt;Node9 -->
<g id="edge8" class="edge">
<title>Node1&#45;&gt;Node9</title>
<path fill="none" stroke="midnightblue" d="M105.22,-89.84C127.99,-72.6 167.71,-44.81 206,-29 212.23,-26.43 218.87,-24.17 225.59,-22.21"/>
<polygon fill="midnightblue" stroke="midnightblue" points="226.71,-25.53 235.45,-19.53 224.88,-18.78 226.71,-25.53"/>
</g>
<!-- Node6 -->
<g id="node6" class="node">
<title>Node6</title>
<g id="a_node6"><a xlink:href="classJoyControlStick.html#a56be6df75476edd92b67205c4517b9d5" target="_top" xlink:title=" ">
<polygon fill="white" stroke="black" points="430.5,-93 430.5,-123 564.5,-123 564.5,-93 430.5,-93"/>
<text text-anchor="start" x="438.5" y="-111" font-family="Helvetica,sans-Serif" font-size="10.00">JoyControlStick::getReal</text>
<text text-anchor="middle" x="497.5" y="-100" font-family="Helvetica,sans-Serif" font-size="10.00">JoyIndex</text>
</a>
</g>
</g>
<!-- Node5&#45;&gt;Node6 -->
<g id="edge5" class="edge">
<title>Node5&#45;&gt;Node6</title>
<path fill="none" stroke="midnightblue" d="M379,-95.27C392.64,-96.74 406.68,-98.27 420.1,-99.72"/>
<polygon fill="midnightblue" stroke="midnightblue" points="419.9,-103.22 430.22,-100.82 420.65,-96.26 419.9,-103.22"/>
</g>
<!-- Node7 -->
<g id="node7" class="node">
<title>Node7</title>
<g id="a_node7"><a xlink:href="classJoyControlStick.html#acaa44dff5cfea5fa898837b603f603c0" target="_top" xlink:title=" ">
<polygon fill="white" stroke="black" points="415,-54.5 415,-73.5 580,-73.5 580,-54.5 415,-54.5"/>
<text text-anchor="middle" x="497.5" y="-61.5" font-family="Helvetica,sans-Serif" font-size="10.00">JoyControlStick::setStickName</text>
</a>
</g>
</g>
<!-- Node5&#45;&gt;Node7 -->
<g id="edge6" class="edge">
<title>Node5&#45;&gt;Node7</title>
<path fill="none" stroke="midnightblue" d="M379,-76.73C387.57,-75.81 396.29,-74.86 404.92,-73.93"/>
<polygon fill="midnightblue" stroke="midnightblue" points="405.42,-77.39 414.99,-72.83 404.67,-70.43 405.42,-77.39"/>
</g>
</g>
</svg>
