<?xml version="1.0" encoding="UTF-8" standalone="no"?>
<!DOCTYPE svg PUBLIC "-//W3C//DTD SVG 1.1//EN"
 "http://www.w3.org/Graphics/SVG/1.1/DTD/svg11.dtd">
<!-- Generated by graphviz version 2.43.0 (0)
 -->
<!-- Title: QuickSetDialog::restoreButtonsStates Pages: 1 -->
<svg width="358pt" height="166pt"
 viewBox="0.00 0.00 358.00 165.50" xmlns="http://www.w3.org/2000/svg" xmlns:xlink="http://www.w3.org/1999/xlink">
<g id="graph0" class="graph" transform="scale(1 1) rotate(0) translate(4 161.5)">
<title>QuickSetDialog::restoreButtonsStates</title>
<polygon fill="white" stroke="transparent" points="-4,4 -4,-161.5 354,-161.5 354,4 -4,4"/>
<!-- Node1 -->
<g id="node1" class="node">
<title>Node1</title>
<g id="a_node1"><a xlink:title=" ">
<polygon fill="#bfbfbf" stroke="black" points="0,-66.5 0,-96.5 170,-96.5 170,-66.5 0,-66.5"/>
<text text-anchor="start" x="8" y="-84.5" font-family="Helvetica,sans-Serif" font-size="10.00">QuickSetDialog::restoreButtons</text>
<text text-anchor="middle" x="85" y="-73.5" font-family="Helvetica,sans-Serif" font-size="10.00">States</text>
</a>
</g>
</g>
<!-- Node2 -->
<g id="node2" class="node">
<title>Node2</title>
<g id="a_node2"><a xlink:href="classSetJoystick.html#ac5baae46a0b3924a83b523ad89819a53" target="_top" xlink:title=" ">
<polygon fill="white" stroke="black" points="213,-138 213,-157 343,-157 343,-138 213,-138"/>
<text text-anchor="middle" x="278" y="-145" font-family="Helvetica,sans-Serif" font-size="10.00">SetJoystick::getButtons</text>
</a>
</g>
</g>
<!-- Node1&#45;&gt;Node2 -->
<g id="edge1" class="edge">
<title>Node1&#45;&gt;Node2</title>
<path fill="none" stroke="midnightblue" d="M121.33,-96.54C145.03,-106.33 177.09,-119 206,-128.5 213.16,-130.85 220.81,-133.13 228.32,-135.25"/>
<polygon fill="midnightblue" stroke="midnightblue" points="227.51,-138.65 238.08,-137.92 229.36,-131.9 227.51,-138.65"/>
</g>
<!-- Node3 -->
<g id="node3" class="node">
<title>Node3</title>
<g id="a_node3"><a xlink:href="classJoyButton.html#abbccee98e377453167a47b49874eeab7" target="_top" xlink:title=" ">
<polygon fill="white" stroke="black" points="206,-88.5 206,-118.5 350,-118.5 350,-88.5 206,-88.5"/>
<text text-anchor="start" x="214" y="-106.5" font-family="Helvetica,sans-Serif" font-size="10.00">JoyButton::getIgnoreEvent</text>
<text text-anchor="middle" x="278" y="-95.5" font-family="Helvetica,sans-Serif" font-size="10.00">State</text>
</a>
</g>
</g>
<!-- Node1&#45;&gt;Node3 -->
<g id="edge2" class="edge">
<title>Node1&#45;&gt;Node3</title>
<path fill="none" stroke="midnightblue" d="M170.05,-91.18C178.52,-92.16 187.11,-93.15 195.55,-94.12"/>
<polygon fill="midnightblue" stroke="midnightblue" points="195.42,-97.63 205.75,-95.29 196.22,-90.67 195.42,-97.63"/>
</g>
<!-- Node4 -->
<g id="node4" class="node">
<title>Node4</title>
<g id="a_node4"><a xlink:href="classJoyButton.html#a6dd1ad602ca81b63035a872724c96e98" target="_top" xlink:title=" ">
<polygon fill="white" stroke="black" points="214,-50 214,-69 342,-69 342,-50 214,-50"/>
<text text-anchor="middle" x="278" y="-57" font-family="Helvetica,sans-Serif" font-size="10.00">JoyButton::isPartVDPad</text>
</a>
</g>
</g>
<!-- Node1&#45;&gt;Node4 -->
<g id="edge3" class="edge">
<title>Node1&#45;&gt;Node4</title>
<path fill="none" stroke="midnightblue" d="M170.05,-71.82C181.32,-70.52 192.8,-69.2 203.85,-67.93"/>
<polygon fill="midnightblue" stroke="midnightblue" points="204.34,-71.39 213.87,-66.77 203.53,-64.44 204.34,-71.39"/>
</g>
<!-- Node5 -->
<g id="node5" class="node">
<title>Node5</title>
<g id="a_node5"><a xlink:href="classJoyButton.html#aa8eaea52cff793034b943af1eb292b6c" target="_top" xlink:title=" ">
<polygon fill="white" stroke="black" points="206.5,-0.5 206.5,-30.5 349.5,-30.5 349.5,-0.5 206.5,-0.5"/>
<text text-anchor="start" x="214.5" y="-18.5" font-family="Helvetica,sans-Serif" font-size="10.00">JoyButton::setIgnoreEvent</text>
<text text-anchor="middle" x="278" y="-7.5" font-family="Helvetica,sans-Serif" font-size="10.00">State</text>
</a>
</g>
</g>
<!-- Node1&#45;&gt;Node5 -->
<g id="edge4" class="edge">
<title>Node1&#45;&gt;Node5</title>
<path fill="none" stroke="midnightblue" d="M129.82,-66.36C157.72,-56.72 194.05,-44.16 223.63,-33.94"/>
<polygon fill="midnightblue" stroke="midnightblue" points="225.08,-37.15 233.38,-30.57 222.79,-30.53 225.08,-37.15"/>
</g>
</g>
</svg>
