<?xml version="1.0" encoding="UTF-8" standalone="no"?>
<!DOCTYPE svg PUBLIC "-//W3C//DTD SVG 1.1//EN"
 "http://www.w3.org/Graphics/SVG/1.1/DTD/svg11.dtd">
<!-- Generated by graphviz version 2.43.0 (0)
 -->
<!-- Title: JoyButtonWidget::generateLabel Pages: 1 -->
<svg width="687pt" height="105pt"
 viewBox="0.00 0.00 687.00 105.00" xmlns="http://www.w3.org/2000/svg" xmlns:xlink="http://www.w3.org/1999/xlink">
<g id="graph0" class="graph" transform="scale(1 1) rotate(0) translate(4 101)">
<title>JoyButtonWidget::generateLabel</title>
<polygon fill="white" stroke="transparent" points="-4,4 -4,-101 683,-101 683,4 -4,4"/>
<!-- Node1 -->
<g id="node1" class="node">
<title>Node1</title>
<g id="a_node1"><a xlink:title=" ">
<polygon fill="#bfbfbf" stroke="black" points="0,-22.5 0,-52.5 148,-52.5 148,-22.5 0,-22.5"/>
<text text-anchor="start" x="8" y="-40.5" font-family="Helvetica,sans-Serif" font-size="10.00">JoyButtonWidget::generate</text>
<text text-anchor="middle" x="74" y="-29.5" font-family="Helvetica,sans-Serif" font-size="10.00">Label</text>
</a>
</g>
</g>
<!-- Node2 -->
<g id="node2" class="node">
<title>Node2</title>
<g id="a_node2"><a xlink:href="classJoyButton.html#ab227ec29550f974ac09dd1f891c93440" target="_top" xlink:title=" ">
<polygon fill="white" stroke="black" points="184.5,-50 184.5,-69 299.5,-69 299.5,-50 184.5,-50"/>
<text text-anchor="middle" x="242" y="-57" font-family="Helvetica,sans-Serif" font-size="10.00">JoyButton::getName</text>
</a>
</g>
</g>
<!-- Node1&#45;&gt;Node2 -->
<g id="edge1" class="edge">
<title>Node1&#45;&gt;Node2</title>
<path fill="none" stroke="midnightblue" d="M148.29,-47.21C156.97,-48.36 165.79,-49.53 174.37,-50.67"/>
<polygon fill="midnightblue" stroke="midnightblue" points="173.93,-54.14 184.3,-51.99 174.85,-47.2 173.93,-54.14"/>
</g>
<!-- Node7 -->
<g id="node7" class="node">
<title>Node7</title>
<g id="a_node7"><a xlink:href="classFlashButtonWidget.html#aff41eff76f8396ff1b9e2539d680c4cf" target="_top" xlink:title=" ">
<polygon fill="white" stroke="black" points="184,-0.5 184,-30.5 300,-30.5 300,-0.5 184,-0.5"/>
<text text-anchor="start" x="192" y="-18.5" font-family="Helvetica,sans-Serif" font-size="10.00">FlashButtonWidget::</text>
<text text-anchor="middle" x="242" y="-7.5" font-family="Helvetica,sans-Serif" font-size="10.00">ifDisplayNames</text>
</a>
</g>
</g>
<!-- Node1&#45;&gt;Node7 -->
<g id="edge6" class="edge">
<title>Node1&#45;&gt;Node7</title>
<path fill="none" stroke="midnightblue" d="M148.29,-27.79C156.75,-26.67 165.35,-25.53 173.72,-24.42"/>
<polygon fill="midnightblue" stroke="midnightblue" points="174.35,-27.86 183.8,-23.08 173.43,-20.92 174.35,-27.86"/>
</g>
<!-- Node3 -->
<g id="node3" class="node">
<title>Node3</title>
<g id="a_node3"><a xlink:href="classJoyButton.html#a075d1d6380be607fcf69994f0d941afe" target="_top" xlink:title=" ">
<polygon fill="white" stroke="black" points="340.5,-66.5 340.5,-96.5 477.5,-96.5 477.5,-66.5 340.5,-66.5"/>
<text text-anchor="start" x="348.5" y="-84.5" font-family="Helvetica,sans-Serif" font-size="10.00">JoyButton::getCalculated</text>
<text text-anchor="middle" x="409" y="-73.5" font-family="Helvetica,sans-Serif" font-size="10.00">ActiveZoneSummary</text>
</a>
</g>
</g>
<!-- Node2&#45;&gt;Node3 -->
<g id="edge2" class="edge">
<title>Node2&#45;&gt;Node3</title>
<path fill="none" stroke="midnightblue" d="M299.78,-67.07C309.57,-68.38 319.9,-69.75 330.13,-71.12"/>
<polygon fill="midnightblue" stroke="midnightblue" points="329.93,-74.62 340.3,-72.47 330.85,-67.68 329.93,-74.62"/>
</g>
<!-- Node5 -->
<g id="node5" class="node">
<title>Node5</title>
<g id="a_node5"><a xlink:href="classJoyButton.html#acf2e65dcec7b0d2a8a2c21c36c489ad6" target="_top" xlink:title=" ">
<polygon fill="white" stroke="black" points="336,-28 336,-47 482,-47 482,-28 336,-28"/>
<text text-anchor="middle" x="409" y="-35" font-family="Helvetica,sans-Serif" font-size="10.00">JoyButton::getPartialName</text>
</a>
</g>
</g>
<!-- Node2&#45;&gt;Node5 -->
<g id="edge4" class="edge">
<title>Node2&#45;&gt;Node5</title>
<path fill="none" stroke="midnightblue" d="M299.78,-51.93C308.39,-50.78 317.4,-49.58 326.4,-48.38"/>
<polygon fill="midnightblue" stroke="midnightblue" points="327.09,-51.82 336.54,-47.03 326.16,-44.88 327.09,-51.82"/>
</g>
<!-- Node4 -->
<g id="node4" class="node">
<title>Node4</title>
<g id="a_node4"><a xlink:href="classJoyButton.html#a1b49d9ab85f0d5d128e2eca616747018" target="_top" xlink:title=" ">
<polygon fill="white" stroke="black" points="530,-66.5 530,-96.5 667,-96.5 667,-66.5 530,-66.5"/>
<text text-anchor="start" x="538" y="-84.5" font-family="Helvetica,sans-Serif" font-size="10.00">JoyButton::lockForWrited</text>
<text text-anchor="middle" x="598.5" y="-73.5" font-family="Helvetica,sans-Serif" font-size="10.00">String</text>
</a>
</g>
</g>
<!-- Node3&#45;&gt;Node4 -->
<g id="edge3" class="edge">
<title>Node3&#45;&gt;Node4</title>
<path fill="none" stroke="midnightblue" d="M477.69,-81.5C491.37,-81.5 505.84,-81.5 519.83,-81.5"/>
<polygon fill="midnightblue" stroke="midnightblue" points="519.91,-85 529.91,-81.5 519.91,-78 519.91,-85"/>
</g>
<!-- Node6 -->
<g id="node6" class="node">
<title>Node6</title>
<g id="a_node6"><a xlink:href="classJoyButton.html#a39c9ccaf641bb8bf50b29d4c4e04c165" target="_top" xlink:title="Get a 1 indexed number of button.">
<polygon fill="white" stroke="black" points="518,-28 518,-47 679,-47 679,-28 518,-28"/>
<text text-anchor="middle" x="598.5" y="-35" font-family="Helvetica,sans-Serif" font-size="10.00">JoyButton::getRealJoyNumber</text>
</a>
</g>
</g>
<!-- Node5&#45;&gt;Node6 -->
<g id="edge5" class="edge">
<title>Node5&#45;&gt;Node6</title>
<path fill="none" stroke="midnightblue" d="M482.22,-37.5C490.6,-37.5 499.22,-37.5 507.8,-37.5"/>
<polygon fill="midnightblue" stroke="midnightblue" points="507.83,-41 517.83,-37.5 507.83,-34 507.83,-41"/>
</g>
</g>
</svg>
