<?xml version="1.0" encoding="UTF-8" standalone="no"?>
<!DOCTYPE svg PUBLIC "-//W3C//DTD SVG 1.1//EN"
 "http://www.w3.org/Graphics/SVG/1.1/DTD/svg11.dtd">
<!-- Generated by graphviz version 2.43.0 (0)
 -->
<!-- Title: SetJoystick::deleteSensors Pages: 1 -->
<!--zoomable 187 -->
<svg id="main" version="1.1" xmlns="http://www.w3.org/2000/svg" xmlns:xlink="http://www.w3.org/1999/xlink" xml:space="preserve" onload="init(evt)">
<style type="text/css"><![CDATA[
.edge:hover path { stroke: red; }
.edge:hover polygon { stroke: red; fill: red; }
]]></style>
<script type="text/javascript"><![CDATA[
var edges = document.getElementsByTagName('g');
if (edges && edges.length) {
  for (var i=0;i<edges.length;i++) {
    if (edges[i].id.substr(0,4)=='edge') {
      edges[i].setAttribute('class','edge');
    }
  }
}
]]></script>
        <defs>
                <circle id="rim" cx="0" cy="0" r="7"/>
                <circle id="rim2" cx="0" cy="0" r="3.5"/>
                <g id="zoomPlus">
                        <use xlink:href="#rim" fill="#404040">
                                <set attributeName="fill" to="#808080" begin="zoomplus.mouseover" end="zoomplus.mouseout"/>
                        </use>
                        <path d="M-4,0h8M0,-4v8" fill="none" stroke="white" stroke-width="1.5" pointer-events="none"/>
                </g>
                <g id="zoomMin">
                        <use xlink:href="#rim" fill="#404040">
                                <set attributeName="fill" to="#808080" begin="zoomminus.mouseover" end="zoomminus.mouseout"/>
                        </use>
                        <path d="M-4,0h8" fill="none" stroke="white" stroke-width="1.5" pointer-events="none"/>
                </g>
                <g id="dirArrow">
                        <path fill="none" stroke="white" stroke-width="1.5" d="M0,-3.0v7 M-2.5,-0.5L0,-3.0L2.5,-0.5"/>
                </g>
               <g id="resetDef">
                       <use xlink:href="#rim2" fill="#404040">
                               <set attributeName="fill" to="#808080" begin="reset.mouseover" end="reset.mouseout"/>
                       </use>
               </g>
        </defs>

<script type="text/javascript">
var viewWidth = 1202;
var viewHeight = 187;
var sectionId = 'dynsection-17';
</script>
<script xlink:href="svgpan.js"/>
<svg id="graph" class="graph">
<g id="viewport">
<title>SetJoystick::deleteSensors</title>
<polygon fill="white" stroke="transparent" points="-4,4 -4,-182.5 1198,-182.5 1198,4 -4,4"/>
<!-- Node1 -->
<g id="node1" class="node">
<title>Node1</title>
<g id="a_node1"><a xlink:title="Destroy all sensor objects in this set.">
<polygon fill="#bfbfbf" stroke="black" points="1048,-55 1048,-74 1194,-74 1194,-55 1048,-55"/>
<text text-anchor="middle" x="1121" y="-62" font-family="Helvetica,sans-Serif" font-size="10.00">SetJoystick::deleteSensors</text>
</a>
</g>
</g>
<!-- Node2 -->
<g id="node2" class="node">
<title>Node2</title>
<g id="a_node2"><a xlink:href="classSetJoystick.html#a517ad0a1738d42824b4671746f5a1af5" target="_top" xlink:title="Setup sensor objects for all available hardware sensors.">
<polygon fill="white" stroke="black" points="863,-74 863,-93 1012,-93 1012,-74 863,-74"/>
<text text-anchor="middle" x="937.5" y="-81" font-family="Helvetica,sans-Serif" font-size="10.00">SetJoystick::refreshSensors</text>
</a>
</g>
</g>
<!-- Node1&#45;&gt;Node2 -->
<g id="edge1" class="edge">
<title>Node1&#45;&gt;Node2</title>
<path fill="none" stroke="midnightblue" d="M1037.54,-73.13C1029.12,-74.01 1020.61,-74.9 1012.29,-75.78"/>
<polygon fill="midnightblue" stroke="midnightblue" points="1038.16,-76.59 1047.74,-72.06 1037.43,-69.62 1038.16,-76.59"/>
</g>
<!-- Node3 -->
<g id="node3" class="node">
<title>Node3</title>
<g id="a_node3"><a xlink:href="classSetJoystick.html#adc322b55002b149c9a7432d1008b8537" target="_top" xlink:title="Re&#45;enumerates inputs from the associated device and resets all mappings in this set.">
<polygon fill="white" stroke="black" points="726,-55 726,-74 827,-74 827,-55 726,-55"/>
<text text-anchor="middle" x="776.5" y="-62" font-family="Helvetica,sans-Serif" font-size="10.00">SetJoystick::reset</text>
</a>
</g>
</g>
<!-- Node1&#45;&gt;Node3 -->
<g id="edge16" class="edge">
<title>Node1&#45;&gt;Node3</title>
<path fill="none" stroke="midnightblue" d="M1037.47,-64.5C971.86,-64.5 882.25,-64.5 827.2,-64.5"/>
<polygon fill="midnightblue" stroke="midnightblue" points="1037.78,-68 1047.78,-64.5 1037.78,-61 1037.78,-68"/>
</g>
<!-- Node2&#45;&gt;Node3 -->
<g id="edge2" class="edge">
<title>Node2&#45;&gt;Node3</title>
<path fill="none" stroke="midnightblue" d="M852.44,-73.46C843.81,-72.42 835.25,-71.4 827.17,-70.44"/>
<polygon fill="midnightblue" stroke="midnightblue" points="852.24,-76.96 862.59,-74.67 853.07,-70.01 852.24,-76.96"/>
</g>
<!-- Node4 -->
<g id="node4" class="node">
<title>Node4</title>
<g id="a_node4"><a xlink:href="classInputDevice.html#af7b290c37a1bcae1fbd0f0274d6cf646" target="_top" xlink:title=" ">
<polygon fill="white" stroke="black" points="571.5,-99 571.5,-118 677.5,-118 677.5,-99 571.5,-99"/>
<text text-anchor="middle" x="624.5" y="-106" font-family="Helvetica,sans-Serif" font-size="10.00">InputDevice::reset</text>
</a>
</g>
</g>
<!-- Node3&#45;&gt;Node4 -->
<g id="edge3" class="edge">
<title>Node3&#45;&gt;Node4</title>
<path fill="none" stroke="midnightblue" d="M733.11,-76.93C709.27,-83.93 679.99,-92.52 657.98,-98.97"/>
<polygon fill="midnightblue" stroke="midnightblue" points="734.34,-80.22 742.95,-74.05 732.37,-73.5 734.34,-80.22"/>
</g>
<!-- Node12 -->
<g id="node12" class="node">
<title>Node12</title>
<g id="a_node12"><a xlink:href="classGameControllerSet.html#a40b9c9ac22d6fe71c15380dcbca7eb80" target="_top" xlink:title=" ">
<polygon fill="white" stroke="black" points="566.5,-49.5 566.5,-79.5 682.5,-79.5 682.5,-49.5 566.5,-49.5"/>
<text text-anchor="start" x="574.5" y="-67.5" font-family="Helvetica,sans-Serif" font-size="10.00">GameControllerSet::</text>
<text text-anchor="middle" x="624.5" y="-56.5" font-family="Helvetica,sans-Serif" font-size="10.00">resetSticks</text>
</a>
</g>
</g>
<!-- Node3&#45;&gt;Node12 -->
<g id="edge12" class="edge">
<title>Node3&#45;&gt;Node12</title>
<path fill="none" stroke="midnightblue" d="M715.66,-64.5C704.73,-64.5 693.36,-64.5 682.52,-64.5"/>
<polygon fill="midnightblue" stroke="midnightblue" points="715.97,-68 725.97,-64.5 715.97,-61 715.97,-68"/>
</g>
<!-- Node15 -->
<g id="node15" class="node">
<title>Node15</title>
<g id="a_node15"><a xlink:href="classSetJoystick.html#ab9d47383844cb2c08581352a6c02bdab" target="_top" xlink:title=" ">
<polygon fill="white" stroke="black" points="559,-11 559,-30 690,-30 690,-11 559,-11"/>
<text text-anchor="middle" x="624.5" y="-18" font-family="Helvetica,sans-Serif" font-size="10.00">SetJoystick::SetJoystick</text>
</a>
</g>
</g>
<!-- Node3&#45;&gt;Node15 -->
<g id="edge15" class="edge">
<title>Node3&#45;&gt;Node15</title>
<path fill="none" stroke="midnightblue" d="M733.11,-52.07C709.27,-45.07 679.99,-36.48 657.98,-30.03"/>
<polygon fill="midnightblue" stroke="midnightblue" points="732.37,-55.5 742.95,-54.95 734.34,-48.78 732.37,-55.5"/>
</g>
<!-- Node5 -->
<g id="node5" class="node">
<title>Node5</title>
<g id="a_node5"><a xlink:href="classInputDaemon.html#a70fa1dbeac61db6cc29a96cdc57a4518" target="_top" xlink:title=" ">
<polygon fill="white" stroke="black" points="362,-137 362,-156 523,-156 523,-137 362,-137"/>
<text text-anchor="middle" x="442.5" y="-144" font-family="Helvetica,sans-Serif" font-size="10.00">InputDaemon::refreshJoystick</text>
</a>
</g>
</g>
<!-- Node4&#45;&gt;Node5 -->
<g id="edge4" class="edge">
<title>Node4&#45;&gt;Node5</title>
<path fill="none" stroke="midnightblue" d="M568.17,-120.18C542.64,-125.57 512.72,-131.89 488.59,-136.98"/>
<polygon fill="midnightblue" stroke="midnightblue" points="569.02,-123.58 578.08,-118.09 567.57,-116.73 569.02,-123.58"/>
</g>
<!-- Node6 -->
<g id="node6" class="node">
<title>Node6</title>
<g id="a_node6"><a xlink:href="classInputDevice.html#a767b4db5d307c9d851affed3c7e23a30" target="_top" xlink:title="Obtain current joystick element values, create new SetJoystick objects, and then transfer most recent...">
<polygon fill="white" stroke="black" points="369,-99 369,-118 516,-118 516,-99 369,-99"/>
<text text-anchor="middle" x="442.5" y="-106" font-family="Helvetica,sans-Serif" font-size="10.00">InputDevice::transferReset</text>
</a>
</g>
</g>
<!-- Node4&#45;&gt;Node6 -->
<g id="edge5" class="edge">
<title>Node4&#45;&gt;Node6</title>
<path fill="none" stroke="midnightblue" d="M561.1,-108.5C546.62,-108.5 531.08,-108.5 516.2,-108.5"/>
<polygon fill="midnightblue" stroke="midnightblue" points="561.44,-112 571.44,-108.5 561.44,-105 561.44,-112"/>
</g>
<!-- Node7 -->
<g id="node7" class="node">
<title>Node7</title>
<g id="a_node7"><a xlink:href="classInputDeviceXml.html#a847bf9ed17b554bf87d513a1aebdcb64" target="_top" xlink:title="Deserializes the given XML stream into an InputDevice object.">
<polygon fill="white" stroke="black" points="173,-159 173,-178 326,-178 326,-159 173,-159"/>
<text text-anchor="middle" x="249.5" y="-166" font-family="Helvetica,sans-Serif" font-size="10.00">InputDeviceXml::readConfig</text>
</a>
</g>
</g>
<!-- Node6&#45;&gt;Node7 -->
<g id="edge6" class="edge">
<title>Node6&#45;&gt;Node7</title>
<path fill="none" stroke="midnightblue" d="M384.68,-120.56C376.99,-122.63 369.25,-124.95 362,-127.5 345.31,-133.37 342.47,-138.03 326,-144.5 312.43,-149.83 297.15,-154.86 283.91,-158.93"/>
<polygon fill="midnightblue" stroke="midnightblue" points="385.56,-123.95 394.37,-118.06 383.81,-117.17 385.56,-123.95"/>
</g>
<!-- Node8 -->
<g id="node8" class="node">
<title>Node8</title>
<g id="a_node8"><a xlink:href="classGameControllerXml.html#a7e47256cae0d3815419bc254413777d1" target="_top" xlink:title="Deserializes the given XML stream into a GameController object.">
<polygon fill="white" stroke="black" points="9,-93.5 9,-123.5 128,-123.5 128,-93.5 9,-93.5"/>
<text text-anchor="start" x="17" y="-111.5" font-family="Helvetica,sans-Serif" font-size="10.00">GameControllerXml::</text>
<text text-anchor="middle" x="68.5" y="-100.5" font-family="Helvetica,sans-Serif" font-size="10.00">readConfig</text>
</a>
</g>
</g>
<!-- Node6&#45;&gt;Node8 -->
<g id="edge7" class="edge">
<title>Node6&#45;&gt;Node8</title>
<path fill="none" stroke="midnightblue" d="M358.74,-110.11C347.73,-110.27 336.59,-110.41 326,-110.5 258,-111.09 241,-111.16 173,-110.5 158.44,-110.36 142.74,-110.11 128.06,-109.83"/>
<polygon fill="midnightblue" stroke="midnightblue" points="358.85,-113.61 368.8,-109.95 358.75,-106.61 358.85,-113.61"/>
</g>
<!-- Node9 -->
<g id="node9" class="node">
<title>Node9</title>
<g id="a_node9"><a xlink:href="classGameControllerXml.html#aaa5257d4c6fe13f1d5fc51981e247c25" target="_top" xlink:title="Reads the XML tree from a &quot;joystick&quot; tag.">
<polygon fill="white" stroke="black" points="190,-71.5 190,-101.5 309,-101.5 309,-71.5 190,-71.5"/>
<text text-anchor="start" x="198" y="-89.5" font-family="Helvetica,sans-Serif" font-size="10.00">GameControllerXml::</text>
<text text-anchor="middle" x="249.5" y="-78.5" font-family="Helvetica,sans-Serif" font-size="10.00">readJoystickConfig</text>
</a>
</g>
</g>
<!-- Node6&#45;&gt;Node9 -->
<g id="edge8" class="edge">
<title>Node6&#45;&gt;Node9</title>
<path fill="none" stroke="midnightblue" d="M358.48,-98.94C341.85,-97.02 324.71,-95.05 309.12,-93.25"/>
<polygon fill="midnightblue" stroke="midnightblue" points="358.41,-102.45 368.75,-100.12 359.21,-95.5 358.41,-102.45"/>
</g>
<!-- Node10 -->
<g id="node10" class="node">
<title>Node10</title>
<g id="a_node10"><a xlink:href="classJoyTabWidgetHelper.html#aef94ae0812f28f43eb891ddc210c341e" target="_top" xlink:title=" ">
<polygon fill="white" stroke="black" points="192,-22.5 192,-52.5 307,-52.5 307,-22.5 192,-22.5"/>
<text text-anchor="start" x="200" y="-40.5" font-family="Helvetica,sans-Serif" font-size="10.00">JoyTabWidgetHelper</text>
<text text-anchor="middle" x="249.5" y="-29.5" font-family="Helvetica,sans-Serif" font-size="10.00">::reInitDevice</text>
</a>
</g>
</g>
<!-- Node6&#45;&gt;Node10 -->
<g id="edge10" class="edge">
<title>Node6&#45;&gt;Node10</title>
<path fill="none" stroke="midnightblue" d="M381.14,-96.04C374.55,-93.88 368.04,-91.38 362,-88.5 343.95,-79.89 343.78,-70.66 326,-61.5 319.52,-58.16 312.49,-55.18 305.41,-52.54"/>
<polygon fill="midnightblue" stroke="midnightblue" points="380.24,-99.42 390.82,-98.96 382.26,-92.72 380.24,-99.42"/>
</g>
<!-- Node9&#45;&gt;Node8 -->
<g id="edge9" class="edge">
<title>Node9&#45;&gt;Node8</title>
<path fill="none" stroke="midnightblue" d="M179.51,-94.98C162.59,-97.06 144.63,-99.27 128.24,-101.28"/>
<polygon fill="midnightblue" stroke="midnightblue" points="180.39,-98.4 189.89,-93.7 179.54,-91.45 180.39,-98.4"/>
</g>
<!-- Node11 -->
<g id="node11" class="node">
<title>Node11</title>
<g id="a_node11"><a xlink:href="classJoyTabWidgetHelper.html#acc5d7d51e925f84f9aa2936ce267f843" target="_top" xlink:title=" ">
<polygon fill="white" stroke="black" points="0,-22.5 0,-52.5 137,-52.5 137,-22.5 0,-22.5"/>
<text text-anchor="start" x="8" y="-40.5" font-family="Helvetica,sans-Serif" font-size="10.00">JoyTabWidgetHelper</text>
<text text-anchor="middle" x="68.5" y="-29.5" font-family="Helvetica,sans-Serif" font-size="10.00">::reInitDeviceWithRevert</text>
</a>
</g>
</g>
<!-- Node10&#45;&gt;Node11 -->
<g id="edge11" class="edge">
<title>Node10&#45;&gt;Node11</title>
<path fill="none" stroke="midnightblue" d="M181.46,-37.5C166.95,-37.5 151.58,-37.5 137.04,-37.5"/>
<polygon fill="midnightblue" stroke="midnightblue" points="181.86,-41 191.86,-37.5 181.86,-34 181.86,-41"/>
</g>
<!-- Node13 -->
<g id="node13" class="node">
<title>Node13</title>
<g id="a_node13"><a xlink:href="classGameControllerSet.html#a9d686fa2df459f7d157d60e05707f712" target="_top" xlink:title=" ">
<polygon fill="white" stroke="black" points="384.5,-49.5 384.5,-79.5 500.5,-79.5 500.5,-49.5 384.5,-49.5"/>
<text text-anchor="start" x="392.5" y="-67.5" font-family="Helvetica,sans-Serif" font-size="10.00">GameControllerSet::</text>
<text text-anchor="middle" x="442.5" y="-56.5" font-family="Helvetica,sans-Serif" font-size="10.00">GameControllerSet</text>
</a>
</g>
</g>
<!-- Node12&#45;&gt;Node13 -->
<g id="edge13" class="edge">
<title>Node12&#45;&gt;Node13</title>
<path fill="none" stroke="midnightblue" d="M555.83,-64.5C537.68,-64.5 518.23,-64.5 500.71,-64.5"/>
<polygon fill="midnightblue" stroke="midnightblue" points="556.05,-68 566.05,-64.5 556.05,-61 556.05,-68"/>
</g>
<!-- Node14 -->
<g id="node14" class="node">
<title>Node14</title>
<g id="a_node14"><a xlink:href="classGameControllerSet.html#a69d798af242a07017bc0f2e2d0d8a830" target="_top" xlink:title=" ">
<polygon fill="white" stroke="black" points="384.5,-0.5 384.5,-30.5 500.5,-30.5 500.5,-0.5 384.5,-0.5"/>
<text text-anchor="start" x="392.5" y="-18.5" font-family="Helvetica,sans-Serif" font-size="10.00">GameControllerSet::</text>
<text text-anchor="middle" x="442.5" y="-7.5" font-family="Helvetica,sans-Serif" font-size="10.00">reset</text>
</a>
</g>
</g>
<!-- Node12&#45;&gt;Node14 -->
<g id="edge14" class="edge">
<title>Node12&#45;&gt;Node14</title>
<path fill="none" stroke="midnightblue" d="M558.3,-46.75C538.79,-41.44 517.6,-35.67 498.79,-30.55"/>
<polygon fill="midnightblue" stroke="midnightblue" points="557.46,-50.15 568.03,-49.4 559.3,-43.39 557.46,-50.15"/>
</g>
</g>
</svg>
        <g id="navigator" transform="translate(0 0)" fill="#404254">
                <rect fill="#f2f5e9" fill-opacity="0.5" stroke="#606060" stroke-width=".5" x="0" y="0" width="60" height="60"/>
                <use id="zoomplus" xlink:href="#zoomPlus" x="17" y="9" onmousedown="handleZoom(evt,'in')"/>
                <use id="zoomminus" xlink:href="#zoomMin" x="42" y="9" onmousedown="handleZoom(evt,'out')"/>
                <use id="reset" xlink:href="#resetDef" x="30" y="36" onmousedown="handleReset()"/>
                <g id="arrowUp" xlink:href="#dirArrow" transform="translate(30 24)" onmousedown="handlePan(0,-1)">
                  <use xlink:href="#rim" fill="#404040">
                        <set attributeName="fill" to="#808080" begin="arrowUp.mouseover" end="arrowUp.mouseout"/>
                  </use>
                  <path fill="none" stroke="white" stroke-width="1.5" d="M0,-3.0v7 M-2.5,-0.5L0,-3.0L2.5,-0.5"/>
                </g>
                <g id="arrowRight" xlink:href="#dirArrow" transform="rotate(90) translate(36 -43)" onmousedown="handlePan(1,0)">
                  <use xlink:href="#rim" fill="#404040">
                        <set attributeName="fill" to="#808080" begin="arrowRight.mouseover" end="arrowRight.mouseout"/>
                  </use>
                  <path fill="none" stroke="white" stroke-width="1.5" d="M0,-3.0v7 M-2.5,-0.5L0,-3.0L2.5,-0.5"/>
                </g>
                <g id="arrowDown" xlink:href="#dirArrow" transform="rotate(180) translate(-30 -48)" onmousedown="handlePan(0,1)">
                  <use xlink:href="#rim" fill="#404040">
                        <set attributeName="fill" to="#808080" begin="arrowDown.mouseover" end="arrowDown.mouseout"/>
                  </use>
                  <path fill="none" stroke="white" stroke-width="1.5" d="M0,-3.0v7 M-2.5,-0.5L0,-3.0L2.5,-0.5"/>
                </g>
                <g id="arrowLeft" xlink:href="#dirArrow" transform="rotate(270) translate(-36 17)" onmousedown="handlePan(-1,0)">
                  <use xlink:href="#rim" fill="#404040">
                        <set attributeName="fill" to="#808080" begin="arrowLeft.mouseover" end="arrowLeft.mouseout"/>
                  </use>
                  <path fill="none" stroke="white" stroke-width="1.5" d="M0,-3.0v7 M-2.5,-0.5L0,-3.0L2.5,-0.5"/>
                </g>
        </g>
        <svg viewBox="0 0 15 15" width="100%" height="30px" preserveAspectRatio="xMaxYMin meet">
         <g id="arrow_out" transform="scale(0.3 0.3)">
          <a xlink:href="classSetJoystick_a4f19cad0e22518b9e29ba509d9723f5b_icgraph_org.svg" target="_base">
           <rect id="button" ry="5" rx="5" y="6" x="6" height="38" width="38"
                fill="#f2f5e9" fill-opacity="0.5" stroke="#606060" stroke-width="1.0"/>
           <path id="arrow"
             d="M 11.500037,31.436501 C 11.940474,20.09759 22.043105,11.32322 32.158766,21.979434 L 37.068811,17.246167 C 37.068811,17.246167 37.088388,32 37.088388,32 L 22.160133,31.978069 C 22.160133,31.978069 26.997745,27.140456 26.997745,27.140456 C 18.528582,18.264221 13.291696,25.230495 11.500037,31.436501 z"
             style="fill:#404040;"/>
          </a>
         </g>
        </svg>
</svg>
