<?xml version="1.0" encoding="UTF-8" standalone="no"?>
<!DOCTYPE svg PUBLIC "-//W3C//DTD SVG 1.1//EN"
 "http://www.w3.org/Graphics/SVG/1.1/DTD/svg11.dtd">
<!-- Generated by graphviz version 2.43.0 (0)
 -->
<!-- Title: ButtonEditDialogHelper::setUseTurbo Pages: 1 -->
<svg width="689pt" height="91pt"
 viewBox="0.00 0.00 689.00 90.50" xmlns="http://www.w3.org/2000/svg" xmlns:xlink="http://www.w3.org/1999/xlink">
<g id="graph0" class="graph" transform="scale(1 1) rotate(0) translate(4 86.5)">
<title>ButtonEditDialogHelper::setUseTurbo</title>
<polygon fill="white" stroke="transparent" points="-4,4 -4,-86.5 685,-86.5 685,4 -4,4"/>
<!-- Node1 -->
<g id="node1" class="node">
<title>Node1</title>
<g id="a_node1"><a xlink:title=" ">
<polygon fill="#bfbfbf" stroke="black" points="0,-0.5 0,-30.5 131,-30.5 131,-0.5 0,-0.5"/>
<text text-anchor="start" x="8" y="-18.5" font-family="Helvetica,sans-Serif" font-size="10.00">ButtonEditDialogHelper</text>
<text text-anchor="middle" x="65.5" y="-7.5" font-family="Helvetica,sans-Serif" font-size="10.00">::setUseTurbo</text>
</a>
</g>
</g>
<!-- Node2 -->
<g id="node2" class="node">
<title>Node2</title>
<g id="a_node2"><a xlink:href="classJoyButton.html#a0750530dac3901ece7c78c19d15e0d54" target="_top" xlink:title=" ">
<polygon fill="white" stroke="black" points="167,-6 167,-25 297,-25 297,-6 167,-6"/>
<text text-anchor="middle" x="232" y="-13" font-family="Helvetica,sans-Serif" font-size="10.00">JoyButton::setUseTurbo</text>
</a>
</g>
</g>
<!-- Node1&#45;&gt;Node2 -->
<g id="edge1" class="edge">
<title>Node1&#45;&gt;Node2</title>
<path fill="none" stroke="midnightblue" d="M131.04,-15.5C139.52,-15.5 148.26,-15.5 156.87,-15.5"/>
<polygon fill="midnightblue" stroke="midnightblue" points="156.91,-19 166.91,-15.5 156.91,-12 156.91,-19"/>
</g>
<!-- Node3 -->
<g id="node3" class="node">
<title>Node3</title>
<g id="a_node3"><a xlink:href="classJoyButton.html#a6e3ee0e05fe5d243b142c5f22011c2e9" target="_top" xlink:title=" ">
<polygon fill="white" stroke="black" points="333,-44 333,-63 491,-63 491,-44 333,-44"/>
<text text-anchor="middle" x="412" y="-51" font-family="Helvetica,sans-Serif" font-size="10.00">JoyButton::containsSequence</text>
</a>
</g>
</g>
<!-- Node2&#45;&gt;Node3 -->
<g id="edge2" class="edge">
<title>Node2&#45;&gt;Node3</title>
<path fill="none" stroke="midnightblue" d="M277.92,-25.09C301.83,-30.19 331.42,-36.51 356.62,-41.89"/>
<polygon fill="midnightblue" stroke="midnightblue" points="355.9,-45.31 366.41,-43.98 357.36,-38.47 355.9,-45.31"/>
</g>
<!-- Node6 -->
<g id="node6" class="node">
<title>Node6</title>
<g id="a_node6"><a xlink:href="classJoyButton.html#a42d517ef696229862b238c52c4ff345c" target="_top" xlink:title=" ">
<polygon fill="white" stroke="black" points="337.5,-6 337.5,-25 486.5,-25 486.5,-6 337.5,-6"/>
<text text-anchor="middle" x="412" y="-13" font-family="Helvetica,sans-Serif" font-size="10.00">JoyButton::setTurboInterval</text>
</a>
</g>
</g>
<!-- Node2&#45;&gt;Node6 -->
<g id="edge5" class="edge">
<title>Node2&#45;&gt;Node6</title>
<path fill="none" stroke="midnightblue" d="M297.01,-8.99C306.8,-8.8 317.03,-8.72 327.18,-8.76"/>
<polygon fill="midnightblue" stroke="midnightblue" points="327.24,-12.26 337.27,-8.84 327.3,-5.26 327.24,-12.26"/>
</g>
<!-- Node4 -->
<g id="node4" class="node">
<title>Node4</title>
<g id="a_node4"><a xlink:href="classJoyButton.html#ae1d364dfa70f47fae3db99ffbcdea44b" target="_top" xlink:title=" ">
<polygon fill="white" stroke="black" points="527,-63 527,-82 681,-82 681,-63 527,-63"/>
<text text-anchor="middle" x="604" y="-70" font-family="Helvetica,sans-Serif" font-size="10.00">JoyButton::getAssignedSlots</text>
</a>
</g>
</g>
<!-- Node3&#45;&gt;Node4 -->
<g id="edge3" class="edge">
<title>Node3&#45;&gt;Node4</title>
<path fill="none" stroke="midnightblue" d="M491.1,-61.31C499.56,-62.16 508.21,-63.02 516.76,-63.88"/>
<polygon fill="midnightblue" stroke="midnightblue" points="516.43,-67.36 526.73,-64.87 517.13,-60.4 516.43,-67.36"/>
</g>
<!-- Node5 -->
<g id="node5" class="node">
<title>Node5</title>
<g id="a_node5"><a xlink:href="classJoyButtonSlot.html#a86b4a25191351f28942511012a4e4e4a" target="_top" xlink:title=" ">
<polygon fill="white" stroke="black" points="529,-25 529,-44 679,-44 679,-25 529,-25"/>
<text text-anchor="middle" x="604" y="-32" font-family="Helvetica,sans-Serif" font-size="10.00">JoyButtonSlot::getSlotMode</text>
</a>
</g>
</g>
<!-- Node3&#45;&gt;Node5 -->
<g id="edge4" class="edge">
<title>Node3&#45;&gt;Node5</title>
<path fill="none" stroke="midnightblue" d="M491.1,-45.69C500.27,-44.77 509.66,-43.83 518.91,-42.91"/>
<polygon fill="midnightblue" stroke="midnightblue" points="519.27,-46.39 528.87,-41.91 518.57,-39.43 519.27,-46.39"/>
</g>
<!-- Node6&#45;&gt;Node2 -->
<g id="edge6" class="edge">
<title>Node6&#45;&gt;Node2</title>
<path fill="none" stroke="midnightblue" d="M337.27,-22.16C327.35,-22.28 317.17,-22.28 307.24,-22.17"/>
<polygon fill="midnightblue" stroke="midnightblue" points="307.06,-18.66 297.01,-22.01 306.95,-25.66 307.06,-18.66"/>
</g>
</g>
</svg>
