<?xml version="1.0" encoding="UTF-8" standalone="no"?>
<!DOCTYPE svg PUBLIC "-//W3C//DTD SVG 1.1//EN"
 "http://www.w3.org/Graphics/SVG/1.1/DTD/svg11.dtd">
<!-- Generated by graphviz version 2.43.0 (0)
 -->
<!-- Title: ExtraProfileSettingsDialog Pages: 1 -->
<svg width="301pt" height="219pt"
 viewBox="0.00 0.00 301.00 219.00" xmlns="http://www.w3.org/2000/svg" xmlns:xlink="http://www.w3.org/1999/xlink">
<g id="graph0" class="graph" transform="scale(1 1) rotate(0) translate(4 215)">
<title>ExtraProfileSettingsDialog</title>
<polygon fill="white" stroke="transparent" points="-4,4 -4,-215 297,-215 297,4 -4,4"/>
<!-- Node1 -->
<g id="node1" class="node">
<title>Node1</title>
<g id="a_node1"><a xlink:title=" ">
<polygon fill="#bfbfbf" stroke="black" points="0,-0.5 0,-19.5 144,-19.5 144,-0.5 0,-0.5"/>
<text text-anchor="middle" x="72" y="-7.5" font-family="Helvetica,sans-Serif" font-size="10.00">ExtraProfileSettingsDialog</text>
</a>
</g>
</g>
<!-- Node2 -->
<g id="node2" class="node">
<title>Node2</title>
<g id="a_node2"><a xlink:title=" ">
<polygon fill="white" stroke="#bfbfbf" points="38,-67.5 38,-86.5 94,-86.5 94,-67.5 38,-67.5"/>
<text text-anchor="middle" x="66" y="-74.5" font-family="Helvetica,sans-Serif" font-size="10.00">QDialog</text>
</a>
</g>
</g>
<!-- Node2&#45;&gt;Node1 -->
<g id="edge1" class="edge">
<title>Node2&#45;&gt;Node1</title>
<path fill="none" stroke="midnightblue" d="M67.75,-57.04C68.89,-44.67 70.33,-29.12 71.2,-19.63"/>
<polygon fill="midnightblue" stroke="midnightblue" points="64.24,-56.95 66.81,-67.23 71.21,-57.6 64.24,-56.95"/>
</g>
<!-- Node3 -->
<g id="node3" class="node">
<title>Node3</title>
<g id="a_node3"><a xlink:href="classInputDevice.html" target="_top" xlink:title="Abstract class representing a hardware input device, e.g a joystick or controller.">
<polygon fill="white" stroke="black" points="120.5,-67.5 120.5,-86.5 195.5,-86.5 195.5,-67.5 120.5,-67.5"/>
<text text-anchor="middle" x="158" y="-74.5" font-family="Helvetica,sans-Serif" font-size="10.00">InputDevice</text>
</a>
</g>
</g>
<!-- Node3&#45;&gt;Node1 -->
<g id="edge2" class="edge">
<title>Node3&#45;&gt;Node1</title>
<path fill="none" stroke="#9a32cd" stroke-dasharray="5,2" d="M132.32,-62.32C125.51,-58.33 118.31,-53.75 112,-49 100.06,-40.01 87.82,-27.87 80.08,-19.75"/>
<polygon fill="#9a32cd" stroke="#9a32cd" points="130.81,-65.49 141.24,-67.38 134.26,-59.4 130.81,-65.49"/>
<text text-anchor="middle" x="130" y="-41" font-family="Helvetica,sans-Serif" font-size="10.00"> device</text>
</g>
<!-- Node7 -->
<g id="node7" class="node">
<title>Node7</title>
<g id="a_node7"><a xlink:href="classInputDeviceCalibration.html" target="_top" xlink:title="Calibration storage backend which can store multiple calibration items for different controllers.">
<polygon fill="white" stroke="black" points="165,-0.5 165,-19.5 293,-19.5 293,-0.5 165,-0.5"/>
<text text-anchor="middle" x="229" y="-7.5" font-family="Helvetica,sans-Serif" font-size="10.00">InputDeviceCalibration</text>
</a>
</g>
</g>
<!-- Node3&#45;&gt;Node7 -->
<g id="edge7" class="edge">
<title>Node3&#45;&gt;Node7</title>
<path fill="none" stroke="#9a32cd" stroke-dasharray="5,2" d="M151.9,-57.62C150.81,-50.92 151.07,-43.62 155,-38 160.96,-29.48 169.9,-23.64 179.53,-19.64"/>
<polygon fill="#9a32cd" stroke="#9a32cd" points="148.51,-58.5 154.38,-67.32 155.29,-56.77 148.51,-58.5"/>
<text text-anchor="middle" x="180.5" y="-41" font-family="Helvetica,sans-Serif" font-size="10.00"> m_device</text>
</g>
<!-- Node4 -->
<g id="node4" class="node">
<title>Node4</title>
<g id="a_node4"><a xlink:title=" ">
<polygon fill="white" stroke="#bfbfbf" points="98,-134.5 98,-153.5 154,-153.5 154,-134.5 98,-134.5"/>
<text text-anchor="middle" x="126" y="-141.5" font-family="Helvetica,sans-Serif" font-size="10.00">QObject</text>
</a>
</g>
</g>
<!-- Node4&#45;&gt;Node3 -->
<g id="edge3" class="edge">
<title>Node4&#45;&gt;Node3</title>
<path fill="none" stroke="midnightblue" d="M134.78,-125.16C140.95,-112.63 148.94,-96.41 153.75,-86.63"/>
<polygon fill="midnightblue" stroke="midnightblue" points="131.59,-123.72 130.32,-134.23 137.87,-126.81 131.59,-123.72"/>
</g>
<!-- Node5 -->
<g id="node5" class="node">
<title>Node5</title>
<g id="a_node5"><a xlink:href="classAntiMicroSettings.html" target="_top" xlink:title=" ">
<polygon fill="white" stroke="black" points="172.5,-134.5 172.5,-153.5 275.5,-153.5 275.5,-134.5 172.5,-134.5"/>
<text text-anchor="middle" x="224" y="-141.5" font-family="Helvetica,sans-Serif" font-size="10.00">AntiMicroSettings</text>
</a>
</g>
</g>
<!-- Node5&#45;&gt;Node3 -->
<g id="edge4" class="edge">
<title>Node5&#45;&gt;Node3</title>
<path fill="none" stroke="#9a32cd" stroke-dasharray="5,2" d="M207.75,-127C194.81,-114.25 177.19,-96.89 166.76,-86.63"/>
<polygon fill="#9a32cd" stroke="#9a32cd" points="205.52,-129.71 215.1,-134.23 210.43,-124.72 205.52,-129.71"/>
<text text-anchor="middle" x="223" y="-108" font-family="Helvetica,sans-Serif" font-size="10.00"> m_settings</text>
</g>
<!-- Node6 -->
<g id="node6" class="node">
<title>Node6</title>
<g id="a_node6"><a xlink:title=" ">
<polygon fill="white" stroke="#bfbfbf" points="192,-191.5 192,-210.5 256,-210.5 256,-191.5 192,-191.5"/>
<text text-anchor="middle" x="224" y="-198.5" font-family="Helvetica,sans-Serif" font-size="10.00">QSettings</text>
</a>
</g>
</g>
<!-- Node6&#45;&gt;Node5 -->
<g id="edge5" class="edge">
<title>Node6&#45;&gt;Node5</title>
<path fill="none" stroke="midnightblue" d="M224,-181.12C224,-171.82 224,-161.06 224,-153.71"/>
<polygon fill="midnightblue" stroke="midnightblue" points="220.5,-181.41 224,-191.41 227.5,-181.41 220.5,-181.41"/>
</g>
<!-- Node7&#45;&gt;Node3 -->
<g id="edge6" class="edge">
<title>Node7&#45;&gt;Node3</title>
<path fill="none" stroke="#9a32cd" stroke-dasharray="5,2" d="M222.52,-29.56C219.5,-36.28 215.37,-43.55 210,-49 202.15,-56.97 191.44,-63.08 181.79,-67.45"/>
<polygon fill="#9a32cd" stroke="#9a32cd" points="225.96,-30.38 226.37,-19.79 219.45,-27.81 225.96,-30.38"/>
<text text-anchor="middle" x="255" y="-41" font-family="Helvetica,sans-Serif" font-size="10.00"> m_calibrations</text>
</g>
</g>
</svg>
