<?xml version="1.0" encoding="UTF-8" standalone="no"?>
<!DOCTYPE svg PUBLIC "-//W3C//DTD SVG 1.1//EN"
 "http://www.w3.org/Graphics/SVG/1.1/DTD/svg11.dtd">
<!-- Generated by graphviz version 2.43.0 (0)
 -->
<!-- Title: JoyDPad::getButtonsPresetSpringHeight Pages: 1 -->
<svg width="522pt" height="39pt"
 viewBox="0.00 0.00 522.00 39.00" xmlns="http://www.w3.org/2000/svg" xmlns:xlink="http://www.w3.org/1999/xlink">
<g id="graph0" class="graph" transform="scale(1 1) rotate(0) translate(4 35)">
<title>JoyDPad::getButtonsPresetSpringHeight</title>
<polygon fill="white" stroke="transparent" points="-4,4 -4,-35 518,-35 518,4 -4,4"/>
<!-- Node1 -->
<g id="node1" class="node">
<title>Node1</title>
<g id="a_node1"><a xlink:title=" ">
<polygon fill="#bfbfbf" stroke="black" points="368,-0.5 368,-30.5 514,-30.5 514,-0.5 368,-0.5"/>
<text text-anchor="start" x="376" y="-18.5" font-family="Helvetica,sans-Serif" font-size="10.00">JoyDPad::getButtonsPreset</text>
<text text-anchor="middle" x="441" y="-7.5" font-family="Helvetica,sans-Serif" font-size="10.00">SpringHeight</text>
</a>
</g>
</g>
<!-- Node2 -->
<g id="node2" class="node">
<title>Node2</title>
<g id="a_node2"><a xlink:href="classMouseDPadSettingsDialog.html#a9e18b35e7b6209e7376e1120e08d4c15" target="_top" xlink:title=" ">
<polygon fill="white" stroke="black" points="187,-0.5 187,-30.5 332,-30.5 332,-0.5 187,-0.5"/>
<text text-anchor="start" x="195" y="-18.5" font-family="Helvetica,sans-Serif" font-size="10.00">MouseDPadSettingsDialog</text>
<text text-anchor="middle" x="259.5" y="-7.5" font-family="Helvetica,sans-Serif" font-size="10.00">::calculateSpringPreset</text>
</a>
</g>
</g>
<!-- Node1&#45;&gt;Node2 -->
<g id="edge1" class="edge">
<title>Node1&#45;&gt;Node2</title>
<path fill="none" stroke="midnightblue" d="M357.74,-15.5C349.15,-15.5 340.46,-15.5 332,-15.5"/>
<polygon fill="midnightblue" stroke="midnightblue" points="357.77,-19 367.77,-15.5 357.77,-12 357.77,-19"/>
</g>
<!-- Node3 -->
<g id="node3" class="node">
<title>Node3</title>
<g id="a_node3"><a xlink:href="classMouseDPadSettingsDialog.html#a51ae7b4e5b371e35d4f470787f5fc846" target="_top" xlink:title=" ">
<polygon fill="white" stroke="black" points="0,-0.5 0,-30.5 151,-30.5 151,-0.5 0,-0.5"/>
<text text-anchor="start" x="8" y="-18.5" font-family="Helvetica,sans-Serif" font-size="10.00">MouseDPadSettingsDialog</text>
<text text-anchor="middle" x="75.5" y="-7.5" font-family="Helvetica,sans-Serif" font-size="10.00">::MouseDPadSettingsDialog</text>
</a>
</g>
</g>
<!-- Node2&#45;&gt;Node3 -->
<g id="edge2" class="edge">
<title>Node2&#45;&gt;Node3</title>
<path fill="none" stroke="midnightblue" d="M176.56,-15.5C168.08,-15.5 159.49,-15.5 151.1,-15.5"/>
<polygon fill="midnightblue" stroke="midnightblue" points="176.83,-19 186.83,-15.5 176.83,-12 176.83,-19"/>
</g>
</g>
</svg>
