<?xml version="1.0" encoding="UTF-8" standalone="no"?>
<!DOCTYPE svg PUBLIC "-//W3C//DTD SVG 1.1//EN"
 "http://www.w3.org/Graphics/SVG/1.1/DTD/svg11.dtd">
<!-- Generated by graphviz version 2.43.0 (0)
 -->
<!-- Title: MouseControlStickSettingsDialog::updateWheelSpeedHorizontalSpeed Pages: 1 -->
<svg width="604pt" height="39pt"
 viewBox="0.00 0.00 604.00 39.00" xmlns="http://www.w3.org/2000/svg" xmlns:xlink="http://www.w3.org/1999/xlink">
<g id="graph0" class="graph" transform="scale(1 1) rotate(0) translate(4 35)">
<title>MouseControlStickSettingsDialog::updateWheelSpeedHorizontalSpeed</title>
<polygon fill="white" stroke="transparent" points="-4,4 -4,-35 600,-35 600,4 -4,4"/>
<!-- Node1 -->
<g id="node1" class="node">
<title>Node1</title>
<g id="a_node1"><a xlink:title=" ">
<polygon fill="#bfbfbf" stroke="black" points="0,-0.5 0,-30.5 229,-30.5 229,-0.5 0,-0.5"/>
<text text-anchor="start" x="8" y="-18.5" font-family="Helvetica,sans-Serif" font-size="10.00">MouseControlStickSettings</text>
<text text-anchor="middle" x="114.5" y="-7.5" font-family="Helvetica,sans-Serif" font-size="10.00">Dialog::updateWheelSpeedHorizontalSpeed</text>
</a>
</g>
</g>
<!-- Node2 -->
<g id="node2" class="node">
<title>Node2</title>
<g id="a_node2"><a xlink:href="classJoyControlStick.html#ad375c60c5e1ba54851918d3d1d97d650" target="_top" xlink:title=" ">
<polygon fill="white" stroke="black" points="265,-0.5 265,-30.5 414,-30.5 414,-0.5 265,-0.5"/>
<text text-anchor="start" x="273" y="-18.5" font-family="Helvetica,sans-Serif" font-size="10.00">JoyControlStick::setButtons</text>
<text text-anchor="middle" x="339.5" y="-7.5" font-family="Helvetica,sans-Serif" font-size="10.00">WheelSpeedX</text>
</a>
</g>
</g>
<!-- Node1&#45;&gt;Node2 -->
<g id="edge1" class="edge">
<title>Node1&#45;&gt;Node2</title>
<path fill="none" stroke="midnightblue" d="M229.29,-15.5C237.84,-15.5 246.37,-15.5 254.68,-15.5"/>
<polygon fill="midnightblue" stroke="midnightblue" points="254.7,-19 264.7,-15.5 254.7,-12 254.7,-19"/>
</g>
<!-- Node3 -->
<g id="node3" class="node">
<title>Node3</title>
<g id="a_node3"><a xlink:href="classJoyButton.html#a7f76ad6c68868cd464b66b5963689332" target="_top" xlink:title=" ">
<polygon fill="white" stroke="black" points="450,-6 450,-25 596,-25 596,-6 450,-6"/>
<text text-anchor="middle" x="523" y="-13" font-family="Helvetica,sans-Serif" font-size="10.00">JoyButton::setWheelSpeed</text>
</a>
</g>
</g>
<!-- Node2&#45;&gt;Node3 -->
<g id="edge2" class="edge">
<title>Node2&#45;&gt;Node3</title>
<path fill="none" stroke="midnightblue" d="M414.06,-15.5C422.54,-15.5 431.22,-15.5 439.8,-15.5"/>
<polygon fill="midnightblue" stroke="midnightblue" points="439.81,-19 449.81,-15.5 439.81,-12 439.81,-19"/>
</g>
</g>
</svg>
