<?xml version="1.0" encoding="UTF-8" standalone="no"?>
<!DOCTYPE svg PUBLIC "-//W3C//DTD SVG 1.1//EN"
 "http://www.w3.org/Graphics/SVG/1.1/DTD/svg11.dtd">
<!-- Generated by graphviz version 2.43.0 (0)
 -->
<!-- Title: InputDevice::updateSetVDPadNames Pages: 1 -->
<svg width="560pt" height="154pt"
 viewBox="0.00 0.00 560.00 153.50" xmlns="http://www.w3.org/2000/svg" xmlns:xlink="http://www.w3.org/1999/xlink">
<g id="graph0" class="graph" transform="scale(1 1) rotate(0) translate(4 149.5)">
<title>InputDevice::updateSetVDPadNames</title>
<polygon fill="white" stroke="transparent" points="-4,4 -4,-149.5 556,-149.5 556,4 -4,4"/>
<!-- Node1 -->
<g id="node1" class="node">
<title>Node1</title>
<g id="a_node1"><a xlink:title=" ">
<polygon fill="#bfbfbf" stroke="black" points="0,-33 0,-63 162,-63 162,-33 0,-33"/>
<text text-anchor="start" x="8" y="-51" font-family="Helvetica,sans-Serif" font-size="10.00">InputDevice::updateSetVDPad</text>
<text text-anchor="middle" x="81" y="-40" font-family="Helvetica,sans-Serif" font-size="10.00">Names</text>
</a>
</g>
</g>
<!-- Node2 -->
<g id="node2" class="node">
<title>Node2</title>
<g id="a_node2"><a xlink:href="classInputDevice.html#abc23a70bef37f2fc70248cd129af170b" target="_top" xlink:title=" ">
<polygon fill="white" stroke="black" points="205,-115 205,-145 348,-145 348,-115 205,-115"/>
<text text-anchor="start" x="213" y="-133" font-family="Helvetica,sans-Serif" font-size="10.00">InputDevice::getActiveSet</text>
<text text-anchor="middle" x="276.5" y="-122" font-family="Helvetica,sans-Serif" font-size="10.00">Joystick</text>
</a>
</g>
</g>
<!-- Node1&#45;&gt;Node2 -->
<g id="edge1" class="edge">
<title>Node1&#45;&gt;Node2</title>
<path fill="none" stroke="midnightblue" d="M110.08,-63.23C133.25,-75.44 167.21,-92.55 198,-105 203.54,-107.24 209.37,-109.42 215.23,-111.51"/>
<polygon fill="midnightblue" stroke="midnightblue" points="214.5,-114.96 225.09,-114.91 216.78,-108.34 214.5,-114.96"/>
</g>
<!-- Node4 -->
<g id="node4" class="node">
<title>Node4</title>
<g id="a_node4"><a xlink:href="classJoyDPad.html#a45b740263205203bd20f34e375f40ac2" target="_top" xlink:title=" ">
<polygon fill="white" stroke="black" points="210,-76.5 210,-95.5 343,-95.5 343,-76.5 210,-76.5"/>
<text text-anchor="middle" x="276.5" y="-83.5" font-family="Helvetica,sans-Serif" font-size="10.00">JoyDPad::getDpadName</text>
</a>
</g>
</g>
<!-- Node1&#45;&gt;Node4 -->
<g id="edge3" class="edge">
<title>Node1&#45;&gt;Node4</title>
<path fill="none" stroke="midnightblue" d="M158.48,-63.02C178,-66.85 198.67,-70.91 217.12,-74.54"/>
<polygon fill="midnightblue" stroke="midnightblue" points="216.63,-78.01 227.12,-76.5 217.98,-71.14 216.63,-78.01"/>
</g>
<!-- Node5 -->
<g id="node5" class="node">
<title>Node5</title>
<g id="a_node5"><a xlink:href="classSetJoystick.html#abcdc88c96a95fb0f5d8a721582d22851" target="_top" xlink:title=" ">
<polygon fill="white" stroke="black" points="214.5,-0.5 214.5,-19.5 338.5,-19.5 338.5,-0.5 214.5,-0.5"/>
<text text-anchor="middle" x="276.5" y="-7.5" font-family="Helvetica,sans-Serif" font-size="10.00">SetJoystick::getVDPad</text>
</a>
</g>
</g>
<!-- Node1&#45;&gt;Node5 -->
<g id="edge4" class="edge">
<title>Node1&#45;&gt;Node5</title>
<path fill="none" stroke="midnightblue" d="M158.48,-32.98C178,-29.15 198.67,-25.09 217.12,-21.46"/>
<polygon fill="midnightblue" stroke="midnightblue" points="217.98,-24.86 227.12,-19.5 216.63,-17.99 217.98,-24.86"/>
</g>
<!-- Node7 -->
<g id="node7" class="node">
<title>Node7</title>
<g id="a_node7"><a xlink:href="classInputDevice.html#a36abcec4baeb617b7f20b8818bb48358" target="_top" xlink:title=" ">
<polygon fill="white" stroke="black" points="198,-38.5 198,-57.5 355,-57.5 355,-38.5 198,-38.5"/>
<text text-anchor="middle" x="276.5" y="-45.5" font-family="Helvetica,sans-Serif" font-size="10.00">InputDevice::setVDPadName</text>
</a>
</g>
</g>
<!-- Node1&#45;&gt;Node7 -->
<g id="edge6" class="edge">
<title>Node1&#45;&gt;Node7</title>
<path fill="none" stroke="midnightblue" d="M162.1,-41.34C170.62,-41.25 179.32,-41.23 187.92,-41.28"/>
<polygon fill="midnightblue" stroke="midnightblue" points="187.92,-44.78 197.95,-41.37 187.98,-37.78 187.92,-44.78"/>
</g>
<!-- Node3 -->
<g id="node3" class="node">
<title>Node3</title>
<g id="a_node3"><a xlink:href="classInputDevice.html#af6633e823a5d5d441940cf923d9249a6" target="_top" xlink:title=" ">
<polygon fill="white" stroke="black" points="391,-98.5 391,-117.5 552,-117.5 552,-98.5 391,-98.5"/>
<text text-anchor="middle" x="471.5" y="-105.5" font-family="Helvetica,sans-Serif" font-size="10.00">InputDevice::getJoystick_sets</text>
</a>
</g>
</g>
<!-- Node2&#45;&gt;Node3 -->
<g id="edge2" class="edge">
<title>Node2&#45;&gt;Node3</title>
<path fill="none" stroke="midnightblue" d="M348.27,-121.93C358.9,-120.72 369.97,-119.46 380.92,-118.21"/>
<polygon fill="midnightblue" stroke="midnightblue" points="381.4,-121.68 390.94,-117.07 380.6,-114.72 381.4,-121.68"/>
</g>
<!-- Node6 -->
<g id="node6" class="node">
<title>Node6</title>
<g id="a_node6"><a xlink:href="classSetJoystick.html#ad859311bfde76dbdaac274cb5ede63d6" target="_top" xlink:title=" ">
<polygon fill="white" stroke="black" points="407.5,-0.5 407.5,-19.5 535.5,-19.5 535.5,-0.5 407.5,-0.5"/>
<text text-anchor="middle" x="471.5" y="-7.5" font-family="Helvetica,sans-Serif" font-size="10.00">SetJoystick::getVdpads</text>
</a>
</g>
</g>
<!-- Node5&#45;&gt;Node6 -->
<g id="edge5" class="edge">
<title>Node5&#45;&gt;Node6</title>
<path fill="none" stroke="midnightblue" d="M338.57,-10C357.1,-10 377.66,-10 396.93,-10"/>
<polygon fill="midnightblue" stroke="midnightblue" points="397.17,-13.5 407.17,-10 397.17,-6.5 397.17,-13.5"/>
</g>
<!-- Node7&#45;&gt;Node1 -->
<g id="edge9" class="edge">
<title>Node7&#45;&gt;Node1</title>
<path fill="none" stroke="midnightblue" d="M197.95,-54.63C189.47,-54.74 180.78,-54.77 172.17,-54.74"/>
<polygon fill="midnightblue" stroke="midnightblue" points="172.13,-51.24 162.1,-54.66 172.07,-58.24 172.13,-51.24"/>
</g>
<!-- Node7&#45;&gt;Node3 -->
<g id="edge7" class="edge">
<title>Node7&#45;&gt;Node3</title>
<path fill="none" stroke="midnightblue" d="M319.94,-57.59C331.39,-60.4 343.72,-63.62 355,-67 382.7,-75.29 413.54,-86.33 436.38,-94.87"/>
<polygon fill="midnightblue" stroke="midnightblue" points="435.36,-98.23 445.95,-98.48 437.83,-91.67 435.36,-98.23"/>
</g>
<!-- Node8 -->
<g id="node8" class="node">
<title>Node8</title>
<g id="a_node8"><a xlink:href="classJoyDPad.html#a0892468175ee5ae8e21d0d3a2958eb75" target="_top" xlink:title=" ">
<polygon fill="white" stroke="black" points="406,-38.5 406,-57.5 537,-57.5 537,-38.5 406,-38.5"/>
<text text-anchor="middle" x="471.5" y="-45.5" font-family="Helvetica,sans-Serif" font-size="10.00">JoyDPad::setDPadName</text>
</a>
</g>
</g>
<!-- Node7&#45;&gt;Node8 -->
<g id="edge8" class="edge">
<title>Node7&#45;&gt;Node8</title>
<path fill="none" stroke="midnightblue" d="M355.17,-48C368.6,-48 382.55,-48 395.9,-48"/>
<polygon fill="midnightblue" stroke="midnightblue" points="395.98,-51.5 405.98,-48 395.98,-44.5 395.98,-51.5"/>
</g>
</g>
</svg>
