<?xml version="1.0" encoding="UTF-8" standalone="no"?>
<!DOCTYPE svg PUBLIC "-//W3C//DTD SVG 1.1//EN"
 "http://www.w3.org/Graphics/SVG/1.1/DTD/svg11.dtd">
<!-- Generated by graphviz version 2.43.0 (0)
 -->
<!-- Title: JoyTabWidgetContainer::enableFlashes Pages: 1 -->
<svg width="483pt" height="88pt"
 viewBox="0.00 0.00 483.00 88.00" xmlns="http://www.w3.org/2000/svg" xmlns:xlink="http://www.w3.org/1999/xlink">
<g id="graph0" class="graph" transform="scale(1 1) rotate(0) translate(4 84)">
<title>JoyTabWidgetContainer::enableFlashes</title>
<polygon fill="white" stroke="transparent" points="-4,4 -4,-84 479,-84 479,4 -4,4"/>
<!-- Node1 -->
<g id="node1" class="node">
<title>Node1</title>
<g id="a_node1"><a xlink:title=" ">
<polygon fill="#bfbfbf" stroke="black" points="0,-24.5 0,-54.5 130,-54.5 130,-24.5 0,-24.5"/>
<text text-anchor="start" x="8" y="-42.5" font-family="Helvetica,sans-Serif" font-size="10.00">JoyTabWidgetContainer</text>
<text text-anchor="middle" x="65" y="-31.5" font-family="Helvetica,sans-Serif" font-size="10.00">::enableFlashes</text>
</a>
</g>
</g>
<!-- Node2 -->
<g id="node2" class="node">
<title>Node2</title>
<g id="a_node2"><a xlink:href="classJoyTabWidgetContainer.html#a6689df09f425f32d878cee6a958100a0" target="_top" xlink:title=" ">
<polygon fill="white" stroke="black" points="166,-49.5 166,-79.5 296,-79.5 296,-49.5 166,-49.5"/>
<text text-anchor="start" x="174" y="-67.5" font-family="Helvetica,sans-Serif" font-size="10.00">JoyTabWidgetContainer</text>
<text text-anchor="middle" x="231" y="-56.5" font-family="Helvetica,sans-Serif" font-size="10.00">::flash</text>
</a>
</g>
</g>
<!-- Node1&#45;&gt;Node2 -->
<g id="edge1" class="edge">
<title>Node1&#45;&gt;Node2</title>
<path fill="none" stroke="midnightblue" d="M130.35,-49.31C138.73,-50.59 147.37,-51.9 155.9,-53.2"/>
<polygon fill="midnightblue" stroke="midnightblue" points="155.43,-56.67 165.84,-54.72 156.48,-49.75 155.43,-56.67"/>
</g>
<!-- Node4 -->
<g id="node4" class="node">
<title>Node4</title>
<g id="a_node4"><a xlink:href="classJoyTabWidgetContainer.html#aa6f7bad0bd1e28b25ff977bbaf57d961" target="_top" xlink:title=" ">
<polygon fill="white" stroke="black" points="166,-0.5 166,-30.5 296,-30.5 296,-0.5 166,-0.5"/>
<text text-anchor="start" x="174" y="-18.5" font-family="Helvetica,sans-Serif" font-size="10.00">JoyTabWidgetContainer</text>
<text text-anchor="middle" x="231" y="-7.5" font-family="Helvetica,sans-Serif" font-size="10.00">::unflash</text>
</a>
</g>
</g>
<!-- Node1&#45;&gt;Node4 -->
<g id="edge3" class="edge">
<title>Node1&#45;&gt;Node4</title>
<path fill="none" stroke="midnightblue" d="M130.35,-30.08C138.73,-28.86 147.37,-27.59 155.9,-26.34"/>
<polygon fill="midnightblue" stroke="midnightblue" points="156.45,-29.8 165.84,-24.89 155.44,-22.87 156.45,-29.8"/>
</g>
<!-- Node3 -->
<g id="node3" class="node">
<title>Node3</title>
<g id="a_node3"><a xlink:href="classJoyTabWidget.html#a2b7d0077726b2b2bf406be8a4fa631af" target="_top" xlink:title=" ">
<polygon fill="white" stroke="black" points="332,-30 332,-49 475,-49 475,-30 332,-30"/>
<text text-anchor="middle" x="403.5" y="-37" font-family="Helvetica,sans-Serif" font-size="10.00">JoyTabWidget::getJoystick</text>
</a>
</g>
</g>
<!-- Node2&#45;&gt;Node3 -->
<g id="edge2" class="edge">
<title>Node2&#45;&gt;Node3</title>
<path fill="none" stroke="midnightblue" d="M296.46,-55.05C306.68,-53.55 317.32,-51.99 327.75,-50.46"/>
<polygon fill="midnightblue" stroke="midnightblue" points="328.28,-53.92 337.67,-49.01 327.27,-46.99 328.28,-53.92"/>
</g>
<!-- Node4&#45;&gt;Node3 -->
<g id="edge4" class="edge">
<title>Node4&#45;&gt;Node3</title>
<path fill="none" stroke="midnightblue" d="M296.46,-24.57C305.67,-25.87 315.22,-27.21 324.66,-28.54"/>
<polygon fill="midnightblue" stroke="midnightblue" points="324.43,-32.05 334.82,-29.97 325.41,-25.11 324.43,-32.05"/>
</g>
</g>
</svg>
