<?xml version="1.0" encoding="UTF-8" standalone="no"?>
<!DOCTYPE svg PUBLIC "-//W3C//DTD SVG 1.1//EN"
 "http://www.w3.org/Graphics/SVG/1.1/DTD/svg11.dtd">
<!-- Generated by graphviz version 2.43.0 (0)
 -->
<!-- Title: SetJoystick::setChangeActivated Pages: 1 -->
<!--zoomable 398 -->
<svg id="main" version="1.1" xmlns="http://www.w3.org/2000/svg" xmlns:xlink="http://www.w3.org/1999/xlink" xml:space="preserve" onload="init(evt)">
<style type="text/css"><![CDATA[
.edge:hover path { stroke: red; }
.edge:hover polygon { stroke: red; fill: red; }
]]></style>
<script type="text/javascript"><![CDATA[
var edges = document.getElementsByTagName('g');
if (edges && edges.length) {
  for (var i=0;i<edges.length;i++) {
    if (edges[i].id.substr(0,4)=='edge') {
      edges[i].setAttribute('class','edge');
    }
  }
}
]]></script>
        <defs>
                <circle id="rim" cx="0" cy="0" r="7"/>
                <circle id="rim2" cx="0" cy="0" r="3.5"/>
                <g id="zoomPlus">
                        <use xlink:href="#rim" fill="#404040">
                                <set attributeName="fill" to="#808080" begin="zoomplus.mouseover" end="zoomplus.mouseout"/>
                        </use>
                        <path d="M-4,0h8M0,-4v8" fill="none" stroke="white" stroke-width="1.5" pointer-events="none"/>
                </g>
                <g id="zoomMin">
                        <use xlink:href="#rim" fill="#404040">
                                <set attributeName="fill" to="#808080" begin="zoomminus.mouseover" end="zoomminus.mouseout"/>
                        </use>
                        <path d="M-4,0h8" fill="none" stroke="white" stroke-width="1.5" pointer-events="none"/>
                </g>
                <g id="dirArrow">
                        <path fill="none" stroke="white" stroke-width="1.5" d="M0,-3.0v7 M-2.5,-0.5L0,-3.0L2.5,-0.5"/>
                </g>
               <g id="resetDef">
                       <use xlink:href="#rim2" fill="#404040">
                               <set attributeName="fill" to="#808080" begin="reset.mouseover" end="reset.mouseout"/>
                       </use>
               </g>
        </defs>

<script type="text/javascript">
var viewWidth = 1796;
var viewHeight = 398;
var sectionId = 'dynsection-162';
</script>
<script xlink:href="svgpan.js"/>
<svg id="graph" class="graph">
<g id="viewport">
<title>SetJoystick::setChangeActivated</title>
<polygon fill="white" stroke="transparent" points="-4,4 -4,-394 1792,-394 1792,4 -4,4"/>
<!-- Node1 -->
<g id="node1" class="node">
<title>Node1</title>
<g id="a_node1"><a xlink:title=" ">
<polygon fill="#bfbfbf" stroke="black" points="1613,-229 1613,-248 1788,-248 1788,-229 1613,-229"/>
<text text-anchor="middle" x="1700.5" y="-236" font-family="Helvetica,sans-Serif" font-size="10.00">SetJoystick::setChangeActivated</text>
</a>
</g>
</g>
<!-- Node2 -->
<g id="node2" class="node">
<title>Node2</title>
<g id="a_node2"><a xlink:href="classInputDevice.html#a6ffcebba103a7db02e82c1c7f62387bf" target="_top" xlink:title="Establishes necessary connections for set change slots.">
<polygon fill="white" stroke="black" points="1387,-303 1387,-322 1577,-322 1577,-303 1387,-303"/>
<text text-anchor="middle" x="1482" y="-310" font-family="Helvetica,sans-Serif" font-size="10.00">InputDevice::enableSetConnections</text>
</a>
</g>
</g>
<!-- Node1&#45;&gt;Node2 -->
<g id="edge1" class="edge">
<title>Node1&#45;&gt;Node2</title>
<path fill="none" stroke="midnightblue" d="M1662.11,-251.28C1619.17,-265.96 1549.68,-289.71 1511.1,-302.9"/>
<polygon fill="midnightblue" stroke="midnightblue" points="1663.31,-254.57 1671.64,-248.02 1661.05,-247.95 1663.31,-254.57"/>
</g>
<!-- Node5 -->
<g id="node5" class="node">
<title>Node5</title>
<g id="a_node5"><a xlink:href="classSetJoystick.html#aeb069bf5f9e89bf2fb7dc73d89b5fbbd" target="_top" xlink:title=" ">
<polygon fill="white" stroke="black" points="1411,-154.5 1411,-184.5 1553,-184.5 1553,-154.5 1411,-154.5"/>
<text text-anchor="start" x="1419" y="-172.5" font-family="Helvetica,sans-Serif" font-size="10.00">SetJoystick::propogateSet</text>
<text text-anchor="middle" x="1482" y="-161.5" font-family="Helvetica,sans-Serif" font-size="10.00">Change</text>
</a>
</g>
</g>
<!-- Node1&#45;&gt;Node5 -->
<g id="edge4" class="edge">
<title>Node1&#45;&gt;Node5</title>
<path fill="none" stroke="midnightblue" d="M1659.59,-225.78C1623.08,-214.14 1569.01,-196.91 1530.33,-184.58"/>
<polygon fill="midnightblue" stroke="midnightblue" points="1658.81,-229.2 1669.4,-228.91 1660.93,-222.53 1658.81,-229.2"/>
</g>
<!-- Node3 -->
<g id="node3" class="node">
<title>Node3</title>
<g id="a_node3"><a xlink:href="classGameController.html#afcddb9dcc5442a9746c3ff8760ea1791" target="_top" xlink:title=" ">
<polygon fill="white" stroke="black" points="1167,-341 1167,-360 1344,-360 1344,-341 1167,-341"/>
<text text-anchor="middle" x="1255.5" y="-348" font-family="Helvetica,sans-Serif" font-size="10.00">GameController::GameController</text>
</a>
</g>
</g>
<!-- Node2&#45;&gt;Node3 -->
<g id="edge2" class="edge">
<title>Node2&#45;&gt;Node3</title>
<path fill="none" stroke="midnightblue" d="M1414.38,-323.78C1382.08,-329.24 1343.71,-335.74 1312.88,-340.96"/>
<polygon fill="midnightblue" stroke="midnightblue" points="1415.36,-327.16 1424.64,-322.04 1414.2,-320.26 1415.36,-327.16"/>
</g>
<!-- Node4 -->
<g id="node4" class="node">
<title>Node4</title>
<g id="a_node4"><a xlink:href="classJoystick.html#a9df5e53506876f3c95e84bdf6c9cbaf1" target="_top" xlink:title=" ">
<polygon fill="white" stroke="black" points="1206,-303 1206,-322 1305,-322 1305,-303 1206,-303"/>
<text text-anchor="middle" x="1255.5" y="-310" font-family="Helvetica,sans-Serif" font-size="10.00">Joystick::Joystick</text>
</a>
</g>
</g>
<!-- Node2&#45;&gt;Node4 -->
<g id="edge3" class="edge">
<title>Node2&#45;&gt;Node4</title>
<path fill="none" stroke="midnightblue" d="M1376.51,-312.5C1351.6,-312.5 1326.17,-312.5 1305.18,-312.5"/>
<polygon fill="midnightblue" stroke="midnightblue" points="1376.77,-316 1386.77,-312.5 1376.77,-309 1376.77,-316"/>
</g>
<!-- Node6 -->
<g id="node6" class="node">
<title>Node6</title>
<g id="a_node6"><a xlink:href="classSetJoystick.html#a65a723b0018e2f387b44e7a0acfffc5b" target="_top" xlink:title=" ">
<polygon fill="white" stroke="black" points="1178.5,-265 1178.5,-284 1332.5,-284 1332.5,-265 1178.5,-265"/>
<text text-anchor="middle" x="1255.5" y="-272" font-family="Helvetica,sans-Serif" font-size="10.00">SetJoystick::addControlStick</text>
</a>
</g>
</g>
<!-- Node5&#45;&gt;Node6 -->
<g id="edge5" class="edge">
<title>Node5&#45;&gt;Node6</title>
<path fill="none" stroke="midnightblue" d="M1452.51,-190.87C1427.08,-209.04 1388.2,-234.64 1351,-250.5 1336.83,-256.54 1320.79,-261.32 1306.01,-264.97"/>
<polygon fill="midnightblue" stroke="midnightblue" points="1454.88,-193.48 1460.92,-184.78 1450.77,-187.81 1454.88,-193.48"/>
</g>
<!-- Node14 -->
<g id="node14" class="node">
<title>Node14</title>
<g id="a_node14"><a xlink:href="classSetJoystick.html#a5d361ae7d236016146559f96be00685b" target="_top" xlink:title=" ">
<polygon fill="white" stroke="black" points="1192.5,-222 1192.5,-241 1318.5,-241 1318.5,-222 1192.5,-222"/>
<text text-anchor="middle" x="1255.5" y="-229" font-family="Helvetica,sans-Serif" font-size="10.00">SetJoystick::addVDPad</text>
</a>
</g>
</g>
<!-- Node5&#45;&gt;Node14 -->
<g id="edge13" class="edge">
<title>Node5&#45;&gt;Node14</title>
<path fill="none" stroke="midnightblue" d="M1416.77,-187.24C1375.89,-198.53 1324.53,-212.71 1291.14,-221.93"/>
<polygon fill="midnightblue" stroke="midnightblue" points="1417.95,-190.54 1426.65,-184.51 1416.08,-183.8 1417.95,-190.54"/>
</g>
<!-- Node17 -->
<g id="node17" class="node">
<title>Node17</title>
<g id="a_node17"><a xlink:href="classSetJoystick.html#a75a8851568f88ac1966ae2ba0704ae42" target="_top" xlink:title=" ">
<polygon fill="white" stroke="black" points="1160,-160 1160,-179 1351,-179 1351,-160 1160,-160"/>
<text text-anchor="middle" x="1255.5" y="-167" font-family="Helvetica,sans-Serif" font-size="10.00">SetJoystick::enableAxisConnections</text>
</a>
</g>
</g>
<!-- Node5&#45;&gt;Node17 -->
<g id="edge17" class="edge">
<title>Node5&#45;&gt;Node17</title>
<path fill="none" stroke="midnightblue" d="M1400.53,-169.5C1384.54,-169.5 1367.6,-169.5 1351.18,-169.5"/>
<polygon fill="midnightblue" stroke="midnightblue" points="1400.89,-173 1410.89,-169.5 1400.89,-166 1400.89,-173"/>
</g>
<!-- Node30 -->
<g id="node30" class="node">
<title>Node30</title>
<g id="a_node30"><a xlink:href="classSetJoystick.html#a35a6e4800b346b637eba5a66345e73ee" target="_top" xlink:title=" ">
<polygon fill="white" stroke="black" points="1184.5,-108.5 1184.5,-138.5 1326.5,-138.5 1326.5,-108.5 1184.5,-108.5"/>
<text text-anchor="start" x="1192.5" y="-126.5" font-family="Helvetica,sans-Serif" font-size="10.00">SetJoystick::enableButton</text>
<text text-anchor="middle" x="1255.5" y="-115.5" font-family="Helvetica,sans-Serif" font-size="10.00">Connections</text>
</a>
</g>
</g>
<!-- Node5&#45;&gt;Node30 -->
<g id="edge32" class="edge">
<title>Node5&#45;&gt;Node30</title>
<path fill="none" stroke="midnightblue" d="M1401.02,-153.11C1376.8,-148.15 1350.39,-142.74 1326.85,-137.91"/>
<polygon fill="midnightblue" stroke="midnightblue" points="1400.39,-156.56 1410.89,-155.13 1401.8,-149.7 1400.39,-156.56"/>
</g>
<!-- Node32 -->
<g id="node32" class="node">
<title>Node32</title>
<g id="a_node32"><a xlink:href="classSetJoystick.html#a8d5292e67292aa93b73ecbef256b2825" target="_top" xlink:title=" ">
<polygon fill="white" stroke="black" points="1162,-67 1162,-86 1349,-86 1349,-67 1162,-67"/>
<text text-anchor="middle" x="1255.5" y="-74" font-family="Helvetica,sans-Serif" font-size="10.00">SetJoystick::enableHatConnections</text>
</a>
</g>
</g>
<!-- Node5&#45;&gt;Node32 -->
<g id="edge35" class="edge">
<title>Node5&#45;&gt;Node32</title>
<path fill="none" stroke="midnightblue" d="M1449.42,-149.08C1423.79,-133.29 1386.25,-111.94 1351,-98.5 1337.62,-93.4 1322.71,-89.26 1308.76,-86.01"/>
<polygon fill="midnightblue" stroke="midnightblue" points="1447.63,-152.08 1457.97,-154.4 1451.33,-146.14 1447.63,-152.08"/>
</g>
<!-- Node34 -->
<g id="node34" class="node">
<title>Node34</title>
<g id="a_node34"><a xlink:href="classSetJoystick.html#a736c16bf85c0aaea7d64ab961f319a69" target="_top" xlink:title="Establishes connections for event propagation between JoySensor and InputDevice.">
<polygon fill="white" stroke="black" points="1184,-11.5 1184,-41.5 1327,-41.5 1327,-11.5 1184,-11.5"/>
<text text-anchor="start" x="1192" y="-29.5" font-family="Helvetica,sans-Serif" font-size="10.00">SetJoystick::enableSensor</text>
<text text-anchor="middle" x="1255.5" y="-18.5" font-family="Helvetica,sans-Serif" font-size="10.00">Connections</text>
</a>
</g>
</g>
<!-- Node5&#45;&gt;Node34 -->
<g id="edge38" class="edge">
<title>Node5&#45;&gt;Node34</title>
<path fill="none" stroke="midnightblue" d="M1460.07,-146.74C1435.95,-121.71 1394.07,-81.82 1351,-57.5 1339.72,-51.13 1326.94,-45.83 1314.51,-41.53"/>
<polygon fill="midnightblue" stroke="midnightblue" points="1457.84,-149.46 1467.26,-154.3 1462.91,-144.64 1457.84,-149.46"/>
</g>
<!-- Node7 -->
<g id="node7" class="node">
<title>Node7</title>
<g id="a_node7"><a xlink:href="classAdvanceStickAssignmentDialog.html#a3d447d0544efde715f4774ff0789b9b1" target="_top" xlink:title=" ">
<polygon fill="white" stroke="black" points="950,-314.5 950,-344.5 1124,-344.5 1124,-314.5 950,-314.5"/>
<text text-anchor="start" x="958" y="-332.5" font-family="Helvetica,sans-Serif" font-size="10.00">AdvanceStickAssignmentDialog</text>
<text text-anchor="middle" x="1037" y="-321.5" font-family="Helvetica,sans-Serif" font-size="10.00">::checkForAxisAssignmentSticks</text>
</a>
</g>
</g>
<!-- Node6&#45;&gt;Node7 -->
<g id="edge6" class="edge">
<title>Node6&#45;&gt;Node7</title>
<path fill="none" stroke="midnightblue" d="M1192.45,-286.07C1181.59,-288.35 1170.43,-290.86 1160,-293.5 1143.78,-297.6 1140.03,-299.72 1124,-304.5 1113.12,-307.74 1101.46,-311.17 1090.33,-314.41"/>
<polygon fill="midnightblue" stroke="midnightblue" points="1193.21,-289.49 1202.3,-284.04 1191.8,-282.63 1193.21,-289.49"/>
</g>
<!-- Node10 -->
<g id="node10" class="node">
<title>Node10</title>
<g id="a_node10"><a xlink:href="classGameControllerSet.html#afbbd676e52346412a864cdd084b5c9ce" target="_top" xlink:title=" ">
<polygon fill="white" stroke="black" points="979,-265.5 979,-295.5 1095,-295.5 1095,-265.5 979,-265.5"/>
<text text-anchor="start" x="987" y="-283.5" font-family="Helvetica,sans-Serif" font-size="10.00">GameControllerSet::</text>
<text text-anchor="middle" x="1037" y="-272.5" font-family="Helvetica,sans-Serif" font-size="10.00">populateSticksDPad</text>
</a>
</g>
</g>
<!-- Node6&#45;&gt;Node10 -->
<g id="edge9" class="edge">
<title>Node6&#45;&gt;Node10</title>
<path fill="none" stroke="midnightblue" d="M1168.4,-276.89C1143.76,-277.57 1117.52,-278.3 1095.09,-278.92"/>
<polygon fill="midnightblue" stroke="midnightblue" points="1168.58,-280.38 1178.47,-276.61 1168.38,-273.39 1168.58,-280.38"/>
</g>
<!-- Node8 -->
<g id="node8" class="node">
<title>Node8</title>
<g id="a_node8"><a xlink:href="classAdvanceStickAssignmentDialog.html#a0558948fa11d0753485a53d6729e1e53" target="_top" xlink:title=" ">
<polygon fill="white" stroke="black" points="726,-359.5 726,-389.5 914,-389.5 914,-359.5 726,-359.5"/>
<text text-anchor="start" x="734" y="-377.5" font-family="Helvetica,sans-Serif" font-size="10.00">AdvanceStickAssignmentDialog</text>
<text text-anchor="middle" x="820" y="-366.5" font-family="Helvetica,sans-Serif" font-size="10.00">::checkForAxisAssignmentStickOne</text>
</a>
</g>
</g>
<!-- Node7&#45;&gt;Node8 -->
<g id="edge7" class="edge">
<title>Node7&#45;&gt;Node8</title>
<path fill="none" stroke="midnightblue" d="M954.3,-346.6C934.07,-350.83 912.54,-355.34 892.82,-359.47"/>
<polygon fill="midnightblue" stroke="midnightblue" points="955.04,-350.02 964.11,-344.55 953.6,-343.17 955.04,-350.02"/>
</g>
<!-- Node9 -->
<g id="node9" class="node">
<title>Node9</title>
<g id="a_node9"><a xlink:href="classAdvanceStickAssignmentDialog.html#a60498e3f0a4ade4f6644478cb78d3cbc" target="_top" xlink:title=" ">
<polygon fill="white" stroke="black" points="726,-310.5 726,-340.5 914,-340.5 914,-310.5 726,-310.5"/>
<text text-anchor="start" x="734" y="-328.5" font-family="Helvetica,sans-Serif" font-size="10.00">AdvanceStickAssignmentDialog</text>
<text text-anchor="middle" x="820" y="-317.5" font-family="Helvetica,sans-Serif" font-size="10.00">::checkForAxisAssignmentStickTwo</text>
</a>
</g>
</g>
<!-- Node7&#45;&gt;Node9 -->
<g id="edge8" class="edge">
<title>Node7&#45;&gt;Node9</title>
<path fill="none" stroke="midnightblue" d="M939.59,-327.71C931.17,-327.55 922.66,-327.39 914.28,-327.24"/>
<polygon fill="midnightblue" stroke="midnightblue" points="939.73,-331.21 949.79,-327.9 939.86,-324.21 939.73,-331.21"/>
</g>
<!-- Node11 -->
<g id="node11" class="node">
<title>Node11</title>
<g id="a_node11"><a xlink:href="classGameControllerSet.html#a40b9c9ac22d6fe71c15380dcbca7eb80" target="_top" xlink:title=" ">
<polygon fill="white" stroke="black" points="566.5,-167.5 566.5,-197.5 682.5,-197.5 682.5,-167.5 566.5,-167.5"/>
<text text-anchor="start" x="574.5" y="-185.5" font-family="Helvetica,sans-Serif" font-size="10.00">GameControllerSet::</text>
<text text-anchor="middle" x="624.5" y="-174.5" font-family="Helvetica,sans-Serif" font-size="10.00">resetSticks</text>
</a>
</g>
</g>
<!-- Node10&#45;&gt;Node11 -->
<g id="edge10" class="edge">
<title>Node10&#45;&gt;Node11</title>
<path fill="none" stroke="midnightblue" d="M968.85,-285.36C904.51,-287.66 805.67,-284.98 726,-255.5 691.82,-242.85 658.97,-215.09 640.59,-197.68"/>
<polygon fill="midnightblue" stroke="midnightblue" points="969.03,-288.85 978.88,-284.95 968.74,-281.86 969.03,-288.85"/>
</g>
<!-- Node12 -->
<g id="node12" class="node">
<title>Node12</title>
<g id="a_node12"><a xlink:href="classGameControllerSet.html#a9d686fa2df459f7d157d60e05707f712" target="_top" xlink:title=" ">
<polygon fill="white" stroke="black" points="384.5,-211.5 384.5,-241.5 500.5,-241.5 500.5,-211.5 384.5,-211.5"/>
<text text-anchor="start" x="392.5" y="-229.5" font-family="Helvetica,sans-Serif" font-size="10.00">GameControllerSet::</text>
<text text-anchor="middle" x="442.5" y="-218.5" font-family="Helvetica,sans-Serif" font-size="10.00">GameControllerSet</text>
</a>
</g>
</g>
<!-- Node11&#45;&gt;Node12 -->
<g id="edge11" class="edge">
<title>Node11&#45;&gt;Node12</title>
<path fill="none" stroke="midnightblue" d="M556.34,-198.92C538.04,-203.39 518.4,-208.19 500.71,-212.52"/>
<polygon fill="midnightblue" stroke="midnightblue" points="557.17,-202.32 566.05,-196.54 555.51,-195.52 557.17,-202.32"/>
</g>
<!-- Node13 -->
<g id="node13" class="node">
<title>Node13</title>
<g id="a_node13"><a xlink:href="classGameControllerSet.html#a69d798af242a07017bc0f2e2d0d8a830" target="_top" xlink:title=" ">
<polygon fill="white" stroke="black" points="384.5,-162.5 384.5,-192.5 500.5,-192.5 500.5,-162.5 384.5,-162.5"/>
<text text-anchor="start" x="392.5" y="-180.5" font-family="Helvetica,sans-Serif" font-size="10.00">GameControllerSet::</text>
<text text-anchor="middle" x="442.5" y="-169.5" font-family="Helvetica,sans-Serif" font-size="10.00">reset</text>
</a>
</g>
</g>
<!-- Node11&#45;&gt;Node13 -->
<g id="edge12" class="edge">
<title>Node11&#45;&gt;Node13</title>
<path fill="none" stroke="midnightblue" d="M555.83,-180.62C537.68,-180.12 518.23,-179.58 500.71,-179.09"/>
<polygon fill="midnightblue" stroke="midnightblue" points="555.96,-184.13 566.05,-180.9 556.15,-177.13 555.96,-184.13"/>
</g>
<!-- Node14&#45;&gt;Node10 -->
<g id="edge16" class="edge">
<title>Node14&#45;&gt;Node10</title>
<path fill="none" stroke="midnightblue" d="M1202.33,-243.31C1169.94,-250.64 1128.29,-260.06 1095.03,-267.59"/>
<polygon fill="midnightblue" stroke="midnightblue" points="1203.52,-246.63 1212.5,-241.01 1201.97,-239.8 1203.52,-246.63"/>
</g>
<!-- Node15 -->
<g id="node15" class="node">
<title>Node15</title>
<g id="a_node15"><a xlink:href="classAdvanceStickAssignmentDialog.html#af9a53f130a627d0e5973bed035907801" target="_top" xlink:title=" ">
<polygon fill="white" stroke="black" points="951,-216.5 951,-246.5 1123,-246.5 1123,-216.5 951,-216.5"/>
<text text-anchor="start" x="959" y="-234.5" font-family="Helvetica,sans-Serif" font-size="10.00">AdvanceStickAssignmentDialog</text>
<text text-anchor="middle" x="1037" y="-223.5" font-family="Helvetica,sans-Serif" font-size="10.00">::changeStateVDPadWidgets</text>
</a>
</g>
</g>
<!-- Node14&#45;&gt;Node15 -->
<g id="edge14" class="edge">
<title>Node14&#45;&gt;Node15</title>
<path fill="none" stroke="midnightblue" d="M1182.39,-231.5C1163.37,-231.5 1142.67,-231.5 1123.04,-231.5"/>
<polygon fill="midnightblue" stroke="midnightblue" points="1182.46,-235 1192.46,-231.5 1182.46,-228 1182.46,-235"/>
</g>
<!-- Node16 -->
<g id="node16" class="node">
<title>Node16</title>
<g id="a_node16"><a xlink:href="classAdvanceStickAssignmentDialog.html#a86cf0001cd774ce5ccec8543b7a9a50b" target="_top" xlink:title=" ">
<polygon fill="white" stroke="black" points="731,-216.5 731,-246.5 909,-246.5 909,-216.5 731,-216.5"/>
<text text-anchor="start" x="739" y="-234.5" font-family="Helvetica,sans-Serif" font-size="10.00">AdvanceStickAssignmentDialog</text>
<text text-anchor="middle" x="820" y="-223.5" font-family="Helvetica,sans-Serif" font-size="10.00">::AdvanceStickAssignmentDialog</text>
</a>
</g>
</g>
<!-- Node15&#45;&gt;Node16 -->
<g id="edge15" class="edge">
<title>Node15&#45;&gt;Node16</title>
<path fill="none" stroke="midnightblue" d="M940.44,-231.5C930.1,-231.5 919.6,-231.5 909.35,-231.5"/>
<polygon fill="midnightblue" stroke="midnightblue" points="940.72,-235 950.72,-231.5 940.72,-228 940.72,-235"/>
</g>
<!-- Node18 -->
<g id="node18" class="node">
<title>Node18</title>
<g id="a_node18"><a xlink:href="classGameControllerSet.html#abd666978fe84da99c8338e8020051510" target="_top" xlink:title=" ">
<polygon fill="white" stroke="black" points="979,-167.5 979,-197.5 1095,-197.5 1095,-167.5 979,-167.5"/>
<text text-anchor="start" x="987" y="-185.5" font-family="Helvetica,sans-Serif" font-size="10.00">GameControllerSet::</text>
<text text-anchor="middle" x="1037" y="-174.5" font-family="Helvetica,sans-Serif" font-size="10.00">refreshAxes</text>
</a>
</g>
</g>
<!-- Node17&#45;&gt;Node18 -->
<g id="edge18" class="edge">
<title>Node17&#45;&gt;Node18</title>
<path fill="none" stroke="midnightblue" d="M1149.73,-175.79C1130.89,-176.92 1111.92,-178.06 1095.08,-179.07"/>
<polygon fill="midnightblue" stroke="midnightblue" points="1150.08,-179.28 1159.85,-175.18 1149.66,-172.29 1150.08,-179.28"/>
</g>
<!-- Node19 -->
<g id="node19" class="node">
<title>Node19</title>
<g id="a_node19"><a xlink:href="classSetJoystick.html#af8d7d16a13702ae29b6590db35801d14" target="_top" xlink:title=" ">
<polygon fill="white" stroke="black" points="970,-129 970,-148 1104,-148 1104,-129 970,-129"/>
<text text-anchor="middle" x="1037" y="-136" font-family="Helvetica,sans-Serif" font-size="10.00">SetJoystick::refreshAxes</text>
</a>
</g>
</g>
<!-- Node17&#45;&gt;Node19 -->
<g id="edge19" class="edge">
<title>Node17&#45;&gt;Node19</title>
<path fill="none" stroke="midnightblue" d="M1177.93,-158.54C1153.89,-155.09 1127.57,-151.32 1104.3,-147.99"/>
<polygon fill="midnightblue" stroke="midnightblue" points="1177.68,-162.04 1188.07,-159.99 1178.67,-155.11 1177.68,-162.04"/>
</g>
<!-- Node20 -->
<g id="node20" class="node">
<title>Node20</title>
<g id="a_node20"><a xlink:href="classSetJoystick.html#adc322b55002b149c9a7432d1008b8537" target="_top" xlink:title="Re&#45;enumerates inputs from the associated device and resets all mappings in this set.">
<polygon fill="white" stroke="black" points="769.5,-91 769.5,-110 870.5,-110 870.5,-91 769.5,-91"/>
<text text-anchor="middle" x="820" y="-98" font-family="Helvetica,sans-Serif" font-size="10.00">SetJoystick::reset</text>
</a>
</g>
</g>
<!-- Node19&#45;&gt;Node20 -->
<g id="edge20" class="edge">
<title>Node19&#45;&gt;Node20</title>
<path fill="none" stroke="midnightblue" d="M972.16,-127.22C939.68,-121.48 900.78,-114.6 870.58,-109.26"/>
<polygon fill="midnightblue" stroke="midnightblue" points="971.57,-130.67 982.02,-128.96 972.79,-123.77 971.57,-130.67"/>
</g>
<!-- Node20&#45;&gt;Node11 -->
<g id="edge30" class="edge">
<title>Node20&#45;&gt;Node11</title>
<path fill="none" stroke="midnightblue" d="M786.78,-114.15C752.07,-128.86 696.99,-152.21 661.04,-167.44"/>
<polygon fill="midnightblue" stroke="midnightblue" points="788.58,-117.19 796.42,-110.07 785.85,-110.75 788.58,-117.19"/>
</g>
<!-- Node21 -->
<g id="node21" class="node">
<title>Node21</title>
<g id="a_node21"><a xlink:href="classInputDevice.html#af7b290c37a1bcae1fbd0f0274d6cf646" target="_top" xlink:title=" ">
<polygon fill="white" stroke="black" points="571.5,-110 571.5,-129 677.5,-129 677.5,-110 571.5,-110"/>
<text text-anchor="middle" x="624.5" y="-117" font-family="Helvetica,sans-Serif" font-size="10.00">InputDevice::reset</text>
</a>
</g>
</g>
<!-- Node20&#45;&gt;Node21 -->
<g id="edge21" class="edge">
<title>Node20&#45;&gt;Node21</title>
<path fill="none" stroke="midnightblue" d="M759.27,-106.36C733.17,-108.93 702.84,-111.91 677.66,-114.38"/>
<polygon fill="midnightblue" stroke="midnightblue" points="759.81,-109.83 769.42,-105.37 759.13,-102.86 759.81,-109.83"/>
</g>
<!-- Node29 -->
<g id="node29" class="node">
<title>Node29</title>
<g id="a_node29"><a xlink:href="classSetJoystick.html#ab9d47383844cb2c08581352a6c02bdab" target="_top" xlink:title=" ">
<polygon fill="white" stroke="black" points="559,-72 559,-91 690,-91 690,-72 559,-72"/>
<text text-anchor="middle" x="624.5" y="-79" font-family="Helvetica,sans-Serif" font-size="10.00">SetJoystick::SetJoystick</text>
</a>
</g>
</g>
<!-- Node20&#45;&gt;Node29 -->
<g id="edge31" class="edge">
<title>Node20&#45;&gt;Node29</title>
<path fill="none" stroke="midnightblue" d="M759.28,-94.64C737.42,-92.49 712.58,-90.05 690.3,-87.86"/>
<polygon fill="midnightblue" stroke="midnightblue" points="759.13,-98.14 769.42,-95.63 759.81,-91.17 759.13,-98.14"/>
</g>
<!-- Node22 -->
<g id="node22" class="node">
<title>Node22</title>
<g id="a_node22"><a xlink:href="classInputDaemon.html#a70fa1dbeac61db6cc29a96cdc57a4518" target="_top" xlink:title=" ">
<polygon fill="white" stroke="black" points="362,-115 362,-134 523,-134 523,-115 362,-115"/>
<text text-anchor="middle" x="442.5" y="-122" font-family="Helvetica,sans-Serif" font-size="10.00">InputDaemon::refreshJoystick</text>
</a>
</g>
</g>
<!-- Node21&#45;&gt;Node22 -->
<g id="edge22" class="edge">
<title>Node21&#45;&gt;Node22</title>
<path fill="none" stroke="midnightblue" d="M561.33,-121.23C549.06,-121.57 536.02,-121.93 523.26,-122.28"/>
<polygon fill="midnightblue" stroke="midnightblue" points="561.54,-124.72 571.44,-120.95 561.34,-117.73 561.54,-124.72"/>
</g>
<!-- Node23 -->
<g id="node23" class="node">
<title>Node23</title>
<g id="a_node23"><a xlink:href="classInputDevice.html#a767b4db5d307c9d851affed3c7e23a30" target="_top" xlink:title="Obtain current joystick element values, create new SetJoystick objects, and then transfer most recent...">
<polygon fill="white" stroke="black" points="369,-77 369,-96 516,-96 516,-77 369,-77"/>
<text text-anchor="middle" x="442.5" y="-84" font-family="Helvetica,sans-Serif" font-size="10.00">InputDevice::transferReset</text>
</a>
</g>
</g>
<!-- Node21&#45;&gt;Node23 -->
<g id="edge23" class="edge">
<title>Node21&#45;&gt;Node23</title>
<path fill="none" stroke="midnightblue" d="M561.42,-108.12C539.91,-104.18 516.05,-99.8 495.45,-96.02"/>
<polygon fill="midnightblue" stroke="midnightblue" points="560.97,-111.59 571.44,-109.96 562.23,-104.71 560.97,-111.59"/>
</g>
<!-- Node24 -->
<g id="node24" class="node">
<title>Node24</title>
<g id="a_node24"><a xlink:href="classInputDeviceXml.html#a847bf9ed17b554bf87d513a1aebdcb64" target="_top" xlink:title="Deserializes the given XML stream into an InputDevice object.">
<polygon fill="white" stroke="black" points="173,-137 173,-156 326,-156 326,-137 173,-137"/>
<text text-anchor="middle" x="249.5" y="-144" font-family="Helvetica,sans-Serif" font-size="10.00">InputDeviceXml::readConfig</text>
</a>
</g>
</g>
<!-- Node23&#45;&gt;Node24 -->
<g id="edge24" class="edge">
<title>Node23&#45;&gt;Node24</title>
<path fill="none" stroke="midnightblue" d="M384.68,-98.56C376.99,-100.63 369.25,-102.95 362,-105.5 345.31,-111.37 342.47,-116.03 326,-122.5 312.43,-127.83 297.15,-132.86 283.91,-136.93"/>
<polygon fill="midnightblue" stroke="midnightblue" points="385.56,-101.95 394.37,-96.06 383.81,-95.17 385.56,-101.95"/>
</g>
<!-- Node25 -->
<g id="node25" class="node">
<title>Node25</title>
<g id="a_node25"><a xlink:href="classGameControllerXml.html#a7e47256cae0d3815419bc254413777d1" target="_top" xlink:title="Deserializes the given XML stream into a GameController object.">
<polygon fill="white" stroke="black" points="9,-71.5 9,-101.5 128,-101.5 128,-71.5 9,-71.5"/>
<text text-anchor="start" x="17" y="-89.5" font-family="Helvetica,sans-Serif" font-size="10.00">GameControllerXml::</text>
<text text-anchor="middle" x="68.5" y="-78.5" font-family="Helvetica,sans-Serif" font-size="10.00">readConfig</text>
</a>
</g>
</g>
<!-- Node23&#45;&gt;Node25 -->
<g id="edge25" class="edge">
<title>Node23&#45;&gt;Node25</title>
<path fill="none" stroke="midnightblue" d="M358.74,-88.11C347.73,-88.27 336.59,-88.41 326,-88.5 258,-89.09 241,-89.16 173,-88.5 158.44,-88.36 142.74,-88.11 128.06,-87.83"/>
<polygon fill="midnightblue" stroke="midnightblue" points="358.85,-91.61 368.8,-87.95 358.75,-84.61 358.85,-91.61"/>
</g>
<!-- Node26 -->
<g id="node26" class="node">
<title>Node26</title>
<g id="a_node26"><a xlink:href="classGameControllerXml.html#aaa5257d4c6fe13f1d5fc51981e247c25" target="_top" xlink:title="Reads the XML tree from a &quot;joystick&quot; tag.">
<polygon fill="white" stroke="black" points="190,-49.5 190,-79.5 309,-79.5 309,-49.5 190,-49.5"/>
<text text-anchor="start" x="198" y="-67.5" font-family="Helvetica,sans-Serif" font-size="10.00">GameControllerXml::</text>
<text text-anchor="middle" x="249.5" y="-56.5" font-family="Helvetica,sans-Serif" font-size="10.00">readJoystickConfig</text>
</a>
</g>
</g>
<!-- Node23&#45;&gt;Node26 -->
<g id="edge26" class="edge">
<title>Node23&#45;&gt;Node26</title>
<path fill="none" stroke="midnightblue" d="M358.48,-76.94C341.85,-75.02 324.71,-73.05 309.12,-71.25"/>
<polygon fill="midnightblue" stroke="midnightblue" points="358.41,-80.45 368.75,-78.12 359.21,-73.5 358.41,-80.45"/>
</g>
<!-- Node27 -->
<g id="node27" class="node">
<title>Node27</title>
<g id="a_node27"><a xlink:href="classJoyTabWidgetHelper.html#aef94ae0812f28f43eb891ddc210c341e" target="_top" xlink:title=" ">
<polygon fill="white" stroke="black" points="192,-0.5 192,-30.5 307,-30.5 307,-0.5 192,-0.5"/>
<text text-anchor="start" x="200" y="-18.5" font-family="Helvetica,sans-Serif" font-size="10.00">JoyTabWidgetHelper</text>
<text text-anchor="middle" x="249.5" y="-7.5" font-family="Helvetica,sans-Serif" font-size="10.00">::reInitDevice</text>
</a>
</g>
</g>
<!-- Node23&#45;&gt;Node27 -->
<g id="edge28" class="edge">
<title>Node23&#45;&gt;Node27</title>
<path fill="none" stroke="midnightblue" d="M410.26,-73.01C387.17,-63.23 354.86,-49.94 326,-39.5 317.59,-36.46 308.59,-33.41 299.83,-30.57"/>
<polygon fill="midnightblue" stroke="midnightblue" points="408.99,-76.27 419.56,-76.97 411.73,-69.83 408.99,-76.27"/>
</g>
<!-- Node26&#45;&gt;Node25 -->
<g id="edge27" class="edge">
<title>Node26&#45;&gt;Node25</title>
<path fill="none" stroke="midnightblue" d="M179.51,-72.98C162.59,-75.06 144.63,-77.27 128.24,-79.28"/>
<polygon fill="midnightblue" stroke="midnightblue" points="180.39,-76.4 189.89,-71.7 179.54,-69.45 180.39,-76.4"/>
</g>
<!-- Node28 -->
<g id="node28" class="node">
<title>Node28</title>
<g id="a_node28"><a xlink:href="classJoyTabWidgetHelper.html#acc5d7d51e925f84f9aa2936ce267f843" target="_top" xlink:title=" ">
<polygon fill="white" stroke="black" points="0,-0.5 0,-30.5 137,-30.5 137,-0.5 0,-0.5"/>
<text text-anchor="start" x="8" y="-18.5" font-family="Helvetica,sans-Serif" font-size="10.00">JoyTabWidgetHelper</text>
<text text-anchor="middle" x="68.5" y="-7.5" font-family="Helvetica,sans-Serif" font-size="10.00">::reInitDeviceWithRevert</text>
</a>
</g>
</g>
<!-- Node27&#45;&gt;Node28 -->
<g id="edge29" class="edge">
<title>Node27&#45;&gt;Node28</title>
<path fill="none" stroke="midnightblue" d="M181.46,-15.5C166.95,-15.5 151.58,-15.5 137.04,-15.5"/>
<polygon fill="midnightblue" stroke="midnightblue" points="181.86,-19 191.86,-15.5 181.86,-12 181.86,-19"/>
</g>
<!-- Node31 -->
<g id="node31" class="node">
<title>Node31</title>
<g id="a_node31"><a xlink:href="classSetJoystick.html#ae963eb0bae6e55ff9308c2173cf94db7" target="_top" xlink:title=" ">
<polygon fill="white" stroke="black" points="962.5,-91 962.5,-110 1111.5,-110 1111.5,-91 962.5,-91"/>
<text text-anchor="middle" x="1037" y="-98" font-family="Helvetica,sans-Serif" font-size="10.00">SetJoystick::refreshButtons</text>
</a>
</g>
</g>
<!-- Node30&#45;&gt;Node31 -->
<g id="edge33" class="edge">
<title>Node30&#45;&gt;Node31</title>
<path fill="none" stroke="midnightblue" d="M1173.99,-114.95C1153.57,-112.78 1131.73,-110.46 1111.66,-108.33"/>
<polygon fill="midnightblue" stroke="midnightblue" points="1173.89,-118.46 1184.21,-116.03 1174.63,-111.5 1173.89,-118.46"/>
</g>
<!-- Node31&#45;&gt;Node20 -->
<g id="edge34" class="edge">
<title>Node31&#45;&gt;Node20</title>
<path fill="none" stroke="midnightblue" d="M952.25,-100.5C924.63,-100.5 894.82,-100.5 870.59,-100.5"/>
<polygon fill="midnightblue" stroke="midnightblue" points="952.31,-104 962.31,-100.5 952.31,-97 952.31,-104"/>
</g>
<!-- Node33 -->
<g id="node33" class="node">
<title>Node33</title>
<g id="a_node33"><a xlink:href="classSetJoystick.html#ae948ac81f57e1ae1e3e43cc704fd8c2b" target="_top" xlink:title=" ">
<polygon fill="white" stroke="black" points="970,-53 970,-72 1104,-72 1104,-53 970,-53"/>
<text text-anchor="middle" x="1037" y="-60" font-family="Helvetica,sans-Serif" font-size="10.00">SetJoystick::refreshHats</text>
</a>
</g>
</g>
<!-- Node32&#45;&gt;Node33 -->
<g id="edge36" class="edge">
<title>Node32&#45;&gt;Node33</title>
<path fill="none" stroke="midnightblue" d="M1151.69,-69.85C1135.5,-68.8 1119.15,-67.75 1104.08,-66.77"/>
<polygon fill="midnightblue" stroke="midnightblue" points="1151.54,-73.35 1161.74,-70.5 1151.99,-66.36 1151.54,-73.35"/>
</g>
<!-- Node33&#45;&gt;Node20 -->
<g id="edge37" class="edge">
<title>Node33&#45;&gt;Node20</title>
<path fill="none" stroke="midnightblue" d="M972.16,-73.78C939.68,-79.52 900.78,-86.4 870.58,-91.74"/>
<polygon fill="midnightblue" stroke="midnightblue" points="972.79,-77.23 982.02,-72.04 971.57,-70.33 972.79,-77.23"/>
</g>
<!-- Node35 -->
<g id="node35" class="node">
<title>Node35</title>
<g id="a_node35"><a xlink:href="classSetJoystick.html#a517ad0a1738d42824b4671746f5a1af5" target="_top" xlink:title="Setup sensor objects for all available hardware sensors.">
<polygon fill="white" stroke="black" points="962.5,-15 962.5,-34 1111.5,-34 1111.5,-15 962.5,-15"/>
<text text-anchor="middle" x="1037" y="-22" font-family="Helvetica,sans-Serif" font-size="10.00">SetJoystick::refreshSensors</text>
</a>
</g>
</g>
<!-- Node34&#45;&gt;Node35 -->
<g id="edge39" class="edge">
<title>Node34&#45;&gt;Node35</title>
<path fill="none" stroke="midnightblue" d="M1173.76,-25.75C1153.46,-25.57 1131.78,-25.37 1111.84,-25.18"/>
<polygon fill="midnightblue" stroke="midnightblue" points="1173.88,-29.26 1183.91,-25.85 1173.94,-22.26 1173.88,-29.26"/>
</g>
<!-- Node35&#45;&gt;Node20 -->
<g id="edge40" class="edge">
<title>Node35&#45;&gt;Node20</title>
<path fill="none" stroke="midnightblue" d="M974.81,-36.44C966.4,-38.54 957.94,-40.9 950,-43.5 909.52,-56.77 864.47,-78.33 839.77,-90.79"/>
<polygon fill="midnightblue" stroke="midnightblue" points="975.7,-39.83 984.62,-34.1 974.08,-33.02 975.7,-39.83"/>
</g>
</g>
</svg>
        <g id="navigator" transform="translate(0 0)" fill="#404254">
                <rect fill="#f2f5e9" fill-opacity="0.5" stroke="#606060" stroke-width=".5" x="0" y="0" width="60" height="60"/>
                <use id="zoomplus" xlink:href="#zoomPlus" x="17" y="9" onmousedown="handleZoom(evt,'in')"/>
                <use id="zoomminus" xlink:href="#zoomMin" x="42" y="9" onmousedown="handleZoom(evt,'out')"/>
                <use id="reset" xlink:href="#resetDef" x="30" y="36" onmousedown="handleReset()"/>
                <g id="arrowUp" xlink:href="#dirArrow" transform="translate(30 24)" onmousedown="handlePan(0,-1)">
                  <use xlink:href="#rim" fill="#404040">
                        <set attributeName="fill" to="#808080" begin="arrowUp.mouseover" end="arrowUp.mouseout"/>
                  </use>
                  <path fill="none" stroke="white" stroke-width="1.5" d="M0,-3.0v7 M-2.5,-0.5L0,-3.0L2.5,-0.5"/>
                </g>
                <g id="arrowRight" xlink:href="#dirArrow" transform="rotate(90) translate(36 -43)" onmousedown="handlePan(1,0)">
                  <use xlink:href="#rim" fill="#404040">
                        <set attributeName="fill" to="#808080" begin="arrowRight.mouseover" end="arrowRight.mouseout"/>
                  </use>
                  <path fill="none" stroke="white" stroke-width="1.5" d="M0,-3.0v7 M-2.5,-0.5L0,-3.0L2.5,-0.5"/>
                </g>
                <g id="arrowDown" xlink:href="#dirArrow" transform="rotate(180) translate(-30 -48)" onmousedown="handlePan(0,1)">
                  <use xlink:href="#rim" fill="#404040">
                        <set attributeName="fill" to="#808080" begin="arrowDown.mouseover" end="arrowDown.mouseout"/>
                  </use>
                  <path fill="none" stroke="white" stroke-width="1.5" d="M0,-3.0v7 M-2.5,-0.5L0,-3.0L2.5,-0.5"/>
                </g>
                <g id="arrowLeft" xlink:href="#dirArrow" transform="rotate(270) translate(-36 17)" onmousedown="handlePan(-1,0)">
                  <use xlink:href="#rim" fill="#404040">
                        <set attributeName="fill" to="#808080" begin="arrowLeft.mouseover" end="arrowLeft.mouseout"/>
                  </use>
                  <path fill="none" stroke="white" stroke-width="1.5" d="M0,-3.0v7 M-2.5,-0.5L0,-3.0L2.5,-0.5"/>
                </g>
        </g>
        <svg viewBox="0 0 15 15" width="100%" height="30px" preserveAspectRatio="xMaxYMin meet">
         <g id="arrow_out" transform="scale(0.3 0.3)">
          <a xlink:href="classSetJoystick_ae87f1703fd9ebad2509a5516a30f0dfe_icgraph_org.svg" target="_base">
           <rect id="button" ry="5" rx="5" y="6" x="6" height="38" width="38"
                fill="#f2f5e9" fill-opacity="0.5" stroke="#606060" stroke-width="1.0"/>
           <path id="arrow"
             d="M 11.500037,31.436501 C 11.940474,20.09759 22.043105,11.32322 32.158766,21.979434 L 37.068811,17.246167 C 37.068811,17.246167 37.088388,32 37.088388,32 L 22.160133,31.978069 C 22.160133,31.978069 26.997745,27.140456 26.997745,27.140456 C 18.528582,18.264221 13.291696,25.230495 11.500037,31.436501 z"
             style="fill:#404040;"/>
          </a>
         </g>
        </svg>
</svg>
