<?xml version="1.0" encoding="UTF-8" standalone="no"?>
<!DOCTYPE svg PUBLIC "-//W3C//DTD SVG 1.1//EN"
 "http://www.w3.org/Graphics/SVG/1.1/DTD/svg11.dtd">
<!-- Generated by graphviz version 2.43.0 (0)
 -->
<!-- Title: InputDevice::updateStickCalibration Pages: 1 -->
<svg width="574pt" height="119pt"
 viewBox="0.00 0.00 574.00 118.50" xmlns="http://www.w3.org/2000/svg" xmlns:xlink="http://www.w3.org/1999/xlink">
<g id="graph0" class="graph" transform="scale(1 1) rotate(0) translate(4 114.5)">
<title>InputDevice::updateStickCalibration</title>
<polygon fill="white" stroke="transparent" points="-4,4 -4,-114.5 570,-114.5 570,4 -4,4"/>
<!-- Node1 -->
<g id="node1" class="node">
<title>Node1</title>
<g id="a_node1"><a xlink:title="Updates stored calibration for this controller and applies calibration to the specified stick in all ...">
<polygon fill="#bfbfbf" stroke="black" points="0,-63.5 0,-93.5 139,-93.5 139,-63.5 0,-63.5"/>
<text text-anchor="start" x="8" y="-81.5" font-family="Helvetica,sans-Serif" font-size="10.00">InputDevice::updateStick</text>
<text text-anchor="middle" x="69.5" y="-70.5" font-family="Helvetica,sans-Serif" font-size="10.00">Calibration</text>
</a>
</g>
</g>
<!-- Node2 -->
<g id="node2" class="node">
<title>Node2</title>
<g id="a_node2"><a xlink:href="classInputDevice.html#a3cafa58f87991e5ebbb3a24314417adf" target="_top" xlink:title="Applies calibration to the specified stick in all sets See JoyControlStick::setCalibration.">
<polygon fill="white" stroke="black" points="175,-91 175,-110 360,-110 360,-91 175,-91"/>
<text text-anchor="middle" x="267.5" y="-98" font-family="Helvetica,sans-Serif" font-size="10.00">InputDevice::applyStickCalibration</text>
</a>
</g>
</g>
<!-- Node1&#45;&gt;Node2 -->
<g id="edge1" class="edge">
<title>Node1&#45;&gt;Node2</title>
<path fill="none" stroke="midnightblue" d="M139.05,-86.19C149.62,-87.38 160.68,-88.62 171.7,-89.86"/>
<polygon fill="midnightblue" stroke="midnightblue" points="171.45,-93.35 181.78,-90.99 172.24,-86.4 171.45,-93.35"/>
</g>
<!-- Node4 -->
<g id="node4" class="node">
<title>Node4</title>
<g id="a_node4"><a xlink:href="classInputDeviceCalibration.html#a2d055fdeb19863038e21803dadbac47c" target="_top" xlink:title="Updates the stored calibration for the given stick from the parent controller.">
<polygon fill="white" stroke="black" points="203.5,-41.5 203.5,-71.5 331.5,-71.5 331.5,-41.5 203.5,-41.5"/>
<text text-anchor="start" x="211.5" y="-59.5" font-family="Helvetica,sans-Serif" font-size="10.00">InputDeviceCalibration</text>
<text text-anchor="middle" x="267.5" y="-48.5" font-family="Helvetica,sans-Serif" font-size="10.00">::setStickCalibration</text>
</a>
</g>
</g>
<!-- Node1&#45;&gt;Node4 -->
<g id="edge3" class="edge">
<title>Node1&#45;&gt;Node4</title>
<path fill="none" stroke="midnightblue" d="M139.05,-70.81C156.49,-68.85 175.31,-66.74 192.98,-64.75"/>
<polygon fill="midnightblue" stroke="midnightblue" points="193.69,-68.19 203.24,-63.6 192.91,-61.24 193.69,-68.19"/>
</g>
<!-- Node3 -->
<g id="node3" class="node">
<title>Node3</title>
<g id="a_node3"><a xlink:href="classJoyControlStick.html#af8061d7792e96912abc05a9c863f76fe" target="_top" xlink:title="Sets the axis calibration values and sets the calibration flag. Calibrated value is calculated by the...">
<polygon fill="white" stroke="black" points="398.5,-91 398.5,-110 563.5,-110 563.5,-91 398.5,-91"/>
<text text-anchor="middle" x="481" y="-98" font-family="Helvetica,sans-Serif" font-size="10.00">JoyControlStick::setCalibration</text>
</a>
</g>
</g>
<!-- Node2&#45;&gt;Node3 -->
<g id="edge2" class="edge">
<title>Node2&#45;&gt;Node3</title>
<path fill="none" stroke="midnightblue" d="M360.04,-100.5C369.38,-100.5 378.88,-100.5 388.23,-100.5"/>
<polygon fill="midnightblue" stroke="midnightblue" points="388.3,-104 398.3,-100.5 388.3,-97 388.3,-104"/>
</g>
<!-- Node5 -->
<g id="node5" class="node">
<title>Node5</title>
<g id="a_node5"><a xlink:href="classInputDevice.html#a54e08a512ad52a902c81b8b146e2091b" target="_top" xlink:title=" ">
<polygon fill="white" stroke="black" points="396,-50 396,-69 566,-69 566,-50 396,-50"/>
<text text-anchor="middle" x="481" y="-57" font-family="Helvetica,sans-Serif" font-size="10.00">InputDevice::getUniqueIDString</text>
</a>
</g>
</g>
<!-- Node4&#45;&gt;Node5 -->
<g id="edge4" class="edge">
<title>Node4&#45;&gt;Node5</title>
<path fill="none" stroke="midnightblue" d="M331.67,-57.4C348.62,-57.64 367.31,-57.9 385.56,-58.16"/>
<polygon fill="midnightblue" stroke="midnightblue" points="385.58,-61.66 395.63,-58.3 385.68,-54.66 385.58,-61.66"/>
</g>
<!-- Node6 -->
<g id="node6" class="node">
<title>Node6</title>
<g id="a_node6"><a xlink:href="classInputDeviceCalibration.html#a1e50d8e332ea04b947698ca04c9aa989" target="_top" xlink:title="Updated the given CalibrationData structure of the controller with the given ID in the calibration st...">
<polygon fill="white" stroke="black" points="417,-0.5 417,-30.5 545,-30.5 545,-0.5 417,-0.5"/>
<text text-anchor="start" x="425" y="-18.5" font-family="Helvetica,sans-Serif" font-size="10.00">InputDeviceCalibration</text>
<text text-anchor="middle" x="481" y="-7.5" font-family="Helvetica,sans-Serif" font-size="10.00">::setCalibration</text>
</a>
</g>
</g>
<!-- Node4&#45;&gt;Node6 -->
<g id="edge5" class="edge">
<title>Node4&#45;&gt;Node6</title>
<path fill="none" stroke="midnightblue" d="M331.67,-44.25C355.31,-39.67 382.37,-34.43 406.84,-29.68"/>
<polygon fill="midnightblue" stroke="midnightblue" points="407.64,-33.09 416.79,-27.75 406.31,-26.22 407.64,-33.09"/>
</g>
</g>
</svg>
