<?xml version="1.0" encoding="UTF-8" standalone="no"?>
<!DOCTYPE svg PUBLIC "-//W3C//DTD SVG 1.1//EN"
 "http://www.w3.org/Graphics/SVG/1.1/DTD/svg11.dtd">
<!-- Generated by graphviz version 2.43.0 (0)
 -->
<!-- Title: InputDaemon::createUnplugEventBitArray Pages: 1 -->
<svg width="575pt" height="252pt"
 viewBox="0.00 0.00 575.00 251.50" xmlns="http://www.w3.org/2000/svg" xmlns:xlink="http://www.w3.org/1999/xlink">
<g id="graph0" class="graph" transform="scale(1 1) rotate(0) translate(4 247.5)">
<title>InputDaemon::createUnplugEventBitArray</title>
<polygon fill="white" stroke="transparent" points="-4,4 -4,-247.5 571,-247.5 571,4 -4,4"/>
<!-- Node1 -->
<g id="node1" class="node">
<title>Node1</title>
<g id="a_node1"><a xlink:title=" ">
<polygon fill="#bfbfbf" stroke="black" points="0,-93 0,-123 154,-123 154,-93 0,-93"/>
<text text-anchor="start" x="8" y="-111" font-family="Helvetica,sans-Serif" font-size="10.00">InputDaemon::createUnplug</text>
<text text-anchor="middle" x="77" y="-100" font-family="Helvetica,sans-Serif" font-size="10.00">EventBitArray</text>
</a>
</g>
</g>
<!-- Node2 -->
<g id="node2" class="node">
<title>Node2</title>
<g id="a_node2"><a xlink:href="classInputDeviceBitArrayStatus.html#a35514bf58f4d47039ca42afed37f5758" target="_top" xlink:title=" ">
<polygon fill="white" stroke="black" points="207,-213 207,-243 353,-243 353,-213 207,-213"/>
<text text-anchor="start" x="215" y="-231" font-family="Helvetica,sans-Serif" font-size="10.00">InputDeviceBitArrayStatus</text>
<text text-anchor="middle" x="280" y="-220" font-family="Helvetica,sans-Serif" font-size="10.00">::changeAxesStatus</text>
</a>
</g>
</g>
<!-- Node1&#45;&gt;Node2 -->
<g id="edge1" class="edge">
<title>Node1&#45;&gt;Node2</title>
<path fill="none" stroke="midnightblue" d="M91.3,-123.02C110.86,-144.18 149.47,-182.59 190,-204 193.56,-205.88 197.28,-207.62 201.09,-209.24"/>
<polygon fill="midnightblue" stroke="midnightblue" points="200.14,-212.62 210.73,-212.99 202.68,-206.1 200.14,-212.62"/>
</g>
<!-- Node3 -->
<g id="node3" class="node">
<title>Node3</title>
<g id="a_node3"><a xlink:href="classInputDeviceBitArrayStatus.html#ab6387b47d14d21e3b79d5294f60f8a73" target="_top" xlink:title=" ">
<polygon fill="white" stroke="black" points="207,-164 207,-194 353,-194 353,-164 207,-164"/>
<text text-anchor="start" x="215" y="-182" font-family="Helvetica,sans-Serif" font-size="10.00">InputDeviceBitArrayStatus</text>
<text text-anchor="middle" x="280" y="-171" font-family="Helvetica,sans-Serif" font-size="10.00">::generateFinalBitArray</text>
</a>
</g>
</g>
<!-- Node1&#45;&gt;Node3 -->
<g id="edge2" class="edge">
<title>Node1&#45;&gt;Node3</title>
<path fill="none" stroke="midnightblue" d="M111.92,-123.13C133.93,-132.65 163.37,-144.83 190,-154 197.07,-156.44 204.51,-158.81 211.96,-161.07"/>
<polygon fill="midnightblue" stroke="midnightblue" points="211.14,-164.48 221.72,-163.97 213.13,-157.77 211.14,-164.48"/>
</g>
<!-- Node5 -->
<g id="node5" class="node">
<title>Node5</title>
<g id="a_node5"><a xlink:href="classInputDevice.html#abc23a70bef37f2fc70248cd129af170b" target="_top" xlink:title=" ">
<polygon fill="white" stroke="black" points="208.5,-115 208.5,-145 351.5,-145 351.5,-115 208.5,-115"/>
<text text-anchor="start" x="216.5" y="-133" font-family="Helvetica,sans-Serif" font-size="10.00">InputDevice::getActiveSet</text>
<text text-anchor="middle" x="280" y="-122" font-family="Helvetica,sans-Serif" font-size="10.00">Joystick</text>
</a>
</g>
</g>
<!-- Node1&#45;&gt;Node5 -->
<g id="edge4" class="edge">
<title>Node1&#45;&gt;Node5</title>
<path fill="none" stroke="midnightblue" d="M154.28,-116.35C168.71,-117.93 183.86,-119.59 198.43,-121.18"/>
<polygon fill="midnightblue" stroke="midnightblue" points="198.08,-124.66 208.4,-122.27 198.84,-117.71 198.08,-124.66"/>
</g>
<!-- Node7 -->
<g id="node7" class="node">
<title>Node7</title>
<g id="a_node7"><a xlink:href="classSetJoystick.html#a7c8f524fe045b89901ba945c5e1045cf" target="_top" xlink:title=" ">
<polygon fill="white" stroke="black" points="216,-76.5 216,-95.5 344,-95.5 344,-76.5 216,-76.5"/>
<text text-anchor="middle" x="280" y="-83.5" font-family="Helvetica,sans-Serif" font-size="10.00">SetJoystick::getJoyAxis</text>
</a>
</g>
</g>
<!-- Node1&#45;&gt;Node7 -->
<g id="edge6" class="edge">
<title>Node1&#45;&gt;Node7</title>
<path fill="none" stroke="midnightblue" d="M154.28,-99.65C171.11,-97.81 188.9,-95.86 205.61,-94.03"/>
<polygon fill="midnightblue" stroke="midnightblue" points="206.3,-97.48 215.86,-92.91 205.54,-90.52 206.3,-97.48"/>
</g>
<!-- Node8 -->
<g id="node8" class="node">
<title>Node8</title>
<g id="a_node8"><a xlink:href="classInputDevice.html#ab370bf7bbf5f75d11f0513360d3a2dd2" target="_top" xlink:title=" ">
<polygon fill="white" stroke="black" points="190,-38.5 190,-57.5 370,-57.5 370,-38.5 190,-38.5"/>
<text text-anchor="middle" x="280" y="-45.5" font-family="Helvetica,sans-Serif" font-size="10.00">InputDevice::getNumberRawAxes</text>
</a>
</g>
</g>
<!-- Node1&#45;&gt;Node8 -->
<g id="edge7" class="edge">
<title>Node1&#45;&gt;Node8</title>
<path fill="none" stroke="midnightblue" d="M115.15,-92.91C136.75,-84.51 164.63,-74.31 190,-67 199.13,-64.37 208.87,-61.93 218.45,-59.73"/>
<polygon fill="midnightblue" stroke="midnightblue" points="219.33,-63.12 228.33,-57.53 217.81,-56.29 219.33,-63.12"/>
</g>
<!-- Node9 -->
<g id="node9" class="node">
<title>Node9</title>
<g id="a_node9"><a xlink:href="classJoyAxis.html#a01dfb4ec2c2e85304a479f21b9cffe49" target="_top" xlink:title=" ">
<polygon fill="white" stroke="black" points="223.5,-0.5 223.5,-19.5 336.5,-19.5 336.5,-0.5 223.5,-0.5"/>
<text text-anchor="middle" x="280" y="-7.5" font-family="Helvetica,sans-Serif" font-size="10.00">JoyAxis::getThrottle</text>
</a>
</g>
</g>
<!-- Node1&#45;&gt;Node9 -->
<g id="edge8" class="edge">
<title>Node1&#45;&gt;Node9</title>
<path fill="none" stroke="midnightblue" d="M94.88,-92.73C115.71,-74.73 152.94,-45.21 190,-29 197.41,-25.76 205.41,-23.05 213.48,-20.8"/>
<polygon fill="midnightblue" stroke="midnightblue" points="214.5,-24.15 223.31,-18.27 212.76,-17.37 214.5,-24.15"/>
</g>
<!-- Node4 -->
<g id="node4" class="node">
<title>Node4</title>
<g id="a_node4"><a xlink:href="classInputDeviceBitArrayStatus.html#aa2d24f289cc48038bc2dd9d0524ecc05" target="_top" xlink:title=" ">
<polygon fill="white" stroke="black" points="413.5,-164 413.5,-194 559.5,-194 559.5,-164 413.5,-164"/>
<text text-anchor="start" x="421.5" y="-182" font-family="Helvetica,sans-Serif" font-size="10.00">InputDeviceBitArrayStatus</text>
<text text-anchor="middle" x="486.5" y="-171" font-family="Helvetica,sans-Serif" font-size="10.00">::getButtonStatusLocal</text>
</a>
</g>
</g>
<!-- Node3&#45;&gt;Node4 -->
<g id="edge3" class="edge">
<title>Node3&#45;&gt;Node4</title>
<path fill="none" stroke="midnightblue" d="M353.1,-179C369.29,-179 386.58,-179 403.16,-179"/>
<polygon fill="midnightblue" stroke="midnightblue" points="403.36,-182.5 413.36,-179 403.36,-175.5 403.36,-182.5"/>
</g>
<!-- Node6 -->
<g id="node6" class="node">
<title>Node6</title>
<g id="a_node6"><a xlink:href="classInputDevice.html#af6633e823a5d5d441940cf923d9249a6" target="_top" xlink:title=" ">
<polygon fill="white" stroke="black" points="406,-120.5 406,-139.5 567,-139.5 567,-120.5 406,-120.5"/>
<text text-anchor="middle" x="486.5" y="-127.5" font-family="Helvetica,sans-Serif" font-size="10.00">InputDevice::getJoystick_sets</text>
</a>
</g>
</g>
<!-- Node5&#45;&gt;Node6 -->
<g id="edge5" class="edge">
<title>Node5&#45;&gt;Node6</title>
<path fill="none" stroke="midnightblue" d="M351.66,-130C365.83,-130 380.89,-130 395.6,-130"/>
<polygon fill="midnightblue" stroke="midnightblue" points="395.72,-133.5 405.72,-130 395.72,-126.5 395.72,-133.5"/>
</g>
</g>
</svg>
