<?xml version="1.0" encoding="UTF-8" standalone="no"?>
<!DOCTYPE svg PUBLIC "-//W3C//DTD SVG 1.1//EN"
 "http://www.w3.org/Graphics/SVG/1.1/DTD/svg11.dtd">
<!-- Generated by graphviz version 2.43.0 (0)
 -->
<!-- Title: JoyAxisButton::getAxis Pages: 1 -->
<svg width="1648pt" height="458pt"
 viewBox="0.00 0.00 1648.00 457.50" xmlns="http://www.w3.org/2000/svg" xmlns:xlink="http://www.w3.org/1999/xlink">
<g id="graph0" class="graph" transform="scale(1 1) rotate(0) translate(4 453.5)">
<title>JoyAxisButton::getAxis</title>
<polygon fill="white" stroke="transparent" points="-4,4 -4,-453.5 1644,-453.5 1644,4 -4,4"/>
<!-- Node1 -->
<g id="node1" class="node">
<title>Node1</title>
<g id="a_node1"><a xlink:title=" ">
<polygon fill="#bfbfbf" stroke="black" points="1512,-201 1512,-220 1640,-220 1640,-201 1512,-201"/>
<text text-anchor="middle" x="1576" y="-208" font-family="Helvetica,sans-Serif" font-size="10.00">JoyAxisButton::getAxis</text>
</a>
</g>
</g>
<!-- Node2 -->
<g id="node2" class="node">
<title>Node2</title>
<g id="a_node2"><a xlink:href="classSetJoystick.html#a57e40bcd1589c61ab7084f9e43dcd9ab" target="_top" xlink:title=" ">
<polygon fill="white" stroke="black" points="1319,-391.5 1319,-421.5 1461,-421.5 1461,-391.5 1319,-391.5"/>
<text text-anchor="start" x="1327" y="-409.5" font-family="Helvetica,sans-Serif" font-size="10.00">SetJoystick::propogateSet</text>
<text text-anchor="middle" x="1390" y="-398.5" font-family="Helvetica,sans-Serif" font-size="10.00">AxisButtonClick</text>
</a>
</g>
</g>
<!-- Node1&#45;&gt;Node2 -->
<g id="edge1" class="edge">
<title>Node1&#45;&gt;Node2</title>
<path fill="none" stroke="midnightblue" d="M1569.34,-229.68C1557.82,-265.32 1528.22,-341.82 1476,-382.5 1471.52,-385.99 1466.57,-388.97 1461.36,-391.51"/>
<polygon fill="midnightblue" stroke="midnightblue" points="1572.72,-230.61 1572.34,-220.02 1566.03,-228.53 1572.72,-230.61"/>
</g>
<!-- Node19 -->
<g id="node19" class="node">
<title>Node19</title>
<g id="a_node19"><a xlink:href="classSetJoystick.html#a559203c2db1839239a1a684e717ef898" target="_top" xlink:title=" ">
<polygon fill="white" stroke="black" points="1319,-342.5 1319,-372.5 1461,-372.5 1461,-342.5 1319,-342.5"/>
<text text-anchor="start" x="1327" y="-360.5" font-family="Helvetica,sans-Serif" font-size="10.00">SetJoystick::propogateSet</text>
<text text-anchor="middle" x="1390" y="-349.5" font-family="Helvetica,sans-Serif" font-size="10.00">AxisButtonNameChange</text>
</a>
</g>
</g>
<!-- Node1&#45;&gt;Node19 -->
<g id="edge19" class="edge">
<title>Node1&#45;&gt;Node19</title>
<path fill="none" stroke="midnightblue" d="M1565.09,-229.03C1549.67,-256.09 1517.34,-306.17 1476,-333.5 1470.76,-336.97 1465.01,-339.94 1459.06,-342.49"/>
<polygon fill="midnightblue" stroke="midnightblue" points="1568.21,-230.63 1570,-220.19 1562.09,-227.24 1568.21,-230.63"/>
</g>
<!-- Node20 -->
<g id="node20" class="node">
<title>Node20</title>
<g id="a_node20"><a xlink:href="classSetJoystick.html#af056c3429ac49876a0510f92923d0d13" target="_top" xlink:title=" ">
<polygon fill="white" stroke="black" points="1319,-293.5 1319,-323.5 1461,-323.5 1461,-293.5 1319,-293.5"/>
<text text-anchor="start" x="1327" y="-311.5" font-family="Helvetica,sans-Serif" font-size="10.00">SetJoystick::propogateSet</text>
<text text-anchor="middle" x="1390" y="-300.5" font-family="Helvetica,sans-Serif" font-size="10.00">AxisButtonRelease</text>
</a>
</g>
</g>
<!-- Node1&#45;&gt;Node20 -->
<g id="edge21" class="edge">
<title>Node1&#45;&gt;Node20</title>
<path fill="none" stroke="midnightblue" d="M1557.38,-226.87C1538.55,-243.56 1507.18,-269.11 1476,-284.5 1469.13,-287.89 1461.69,-290.88 1454.18,-293.48"/>
<polygon fill="midnightblue" stroke="midnightblue" points="1559.79,-229.41 1564.87,-220.11 1555.1,-224.21 1559.79,-229.41"/>
</g>
<!-- Node21 -->
<g id="node21" class="node">
<title>Node21</title>
<g id="a_node21"><a xlink:href="classAdvanceStickAssignmentDialog.html#a1a67f3a99c78be314eb5222ac0773f1d" target="_top" xlink:title=" ">
<polygon fill="white" stroke="black" points="1304,-244.5 1304,-274.5 1476,-274.5 1476,-244.5 1304,-244.5"/>
<text text-anchor="start" x="1312" y="-262.5" font-family="Helvetica,sans-Serif" font-size="10.00">AdvanceStickAssignmentDialog</text>
<text text-anchor="middle" x="1390" y="-251.5" font-family="Helvetica,sans-Serif" font-size="10.00">::quickAssignVDPadDown</text>
</a>
</g>
</g>
<!-- Node1&#45;&gt;Node21 -->
<g id="edge23" class="edge">
<title>Node1&#45;&gt;Node21</title>
<path fill="none" stroke="midnightblue" d="M1529.23,-222.69C1504.48,-229.28 1473.69,-237.48 1447.47,-244.46"/>
<polygon fill="midnightblue" stroke="midnightblue" points="1530.32,-226.02 1539.09,-220.06 1528.52,-219.26 1530.32,-226.02"/>
</g>
<!-- Node22 -->
<g id="node22" class="node">
<title>Node22</title>
<g id="a_node22"><a xlink:href="classAdvanceStickAssignmentDialog.html#a63cb70e69d23b5eb140e3717fd342428" target="_top" xlink:title=" ">
<polygon fill="white" stroke="black" points="1304,-195.5 1304,-225.5 1476,-225.5 1476,-195.5 1304,-195.5"/>
<text text-anchor="start" x="1312" y="-213.5" font-family="Helvetica,sans-Serif" font-size="10.00">AdvanceStickAssignmentDialog</text>
<text text-anchor="middle" x="1390" y="-202.5" font-family="Helvetica,sans-Serif" font-size="10.00">::quickAssignVDPadLeft</text>
</a>
</g>
</g>
<!-- Node1&#45;&gt;Node22 -->
<g id="edge24" class="edge">
<title>Node1&#45;&gt;Node22</title>
<path fill="none" stroke="midnightblue" d="M1501.77,-210.5C1493.33,-210.5 1484.68,-210.5 1476.1,-210.5"/>
<polygon fill="midnightblue" stroke="midnightblue" points="1501.94,-214 1511.94,-210.5 1501.94,-207 1501.94,-214"/>
</g>
<!-- Node23 -->
<g id="node23" class="node">
<title>Node23</title>
<g id="a_node23"><a xlink:href="classAdvanceStickAssignmentDialog.html#aa4be111fa8be7b003f553256557bb017" target="_top" xlink:title=" ">
<polygon fill="white" stroke="black" points="1304,-146.5 1304,-176.5 1476,-176.5 1476,-146.5 1304,-146.5"/>
<text text-anchor="start" x="1312" y="-164.5" font-family="Helvetica,sans-Serif" font-size="10.00">AdvanceStickAssignmentDialog</text>
<text text-anchor="middle" x="1390" y="-153.5" font-family="Helvetica,sans-Serif" font-size="10.00">::quickAssignVDPadRight</text>
</a>
</g>
</g>
<!-- Node1&#45;&gt;Node23 -->
<g id="edge25" class="edge">
<title>Node1&#45;&gt;Node23</title>
<path fill="none" stroke="midnightblue" d="M1529.23,-198.31C1504.48,-191.72 1473.69,-183.52 1447.47,-176.54"/>
<polygon fill="midnightblue" stroke="midnightblue" points="1528.52,-201.74 1539.09,-200.94 1530.32,-194.98 1528.52,-201.74"/>
</g>
<!-- Node24 -->
<g id="node24" class="node">
<title>Node24</title>
<g id="a_node24"><a xlink:href="classAdvanceStickAssignmentDialog.html#a8fc75a31a42b2f1804ee9c08472b96b3" target="_top" xlink:title=" ">
<polygon fill="white" stroke="black" points="1304,-97.5 1304,-127.5 1476,-127.5 1476,-97.5 1304,-97.5"/>
<text text-anchor="start" x="1312" y="-115.5" font-family="Helvetica,sans-Serif" font-size="10.00">AdvanceStickAssignmentDialog</text>
<text text-anchor="middle" x="1390" y="-104.5" font-family="Helvetica,sans-Serif" font-size="10.00">::quickAssignVDPadUp</text>
</a>
</g>
</g>
<!-- Node1&#45;&gt;Node24 -->
<g id="edge26" class="edge">
<title>Node1&#45;&gt;Node24</title>
<path fill="none" stroke="midnightblue" d="M1557,-194.16C1538.07,-177.77 1506.83,-152.8 1476,-137.5 1468.42,-133.74 1460.18,-130.44 1451.9,-127.58"/>
<polygon fill="midnightblue" stroke="midnightblue" points="1554.73,-196.83 1564.54,-200.82 1559.36,-191.58 1554.73,-196.83"/>
</g>
<!-- Node25 -->
<g id="node25" class="node">
<title>Node25</title>
<g id="a_node25"><a xlink:href="classAdvanceStickAssignmentDialog.html#a98a6d5afe4f544f71039543e3aa8055f" target="_top" xlink:title=" ">
<polygon fill="white" stroke="black" points="1304,-48.5 1304,-78.5 1476,-78.5 1476,-48.5 1304,-48.5"/>
<text text-anchor="start" x="1312" y="-66.5" font-family="Helvetica,sans-Serif" font-size="10.00">AdvanceStickAssignmentDialog</text>
<text text-anchor="middle" x="1390" y="-55.5" font-family="Helvetica,sans-Serif" font-size="10.00">::refreshVDPadConf</text>
</a>
</g>
</g>
<!-- Node1&#45;&gt;Node25 -->
<g id="edge27" class="edge">
<title>Node1&#45;&gt;Node25</title>
<path fill="none" stroke="midnightblue" d="M1565.02,-192.18C1549.49,-165.41 1517.04,-115.84 1476,-88.5 1470.24,-84.66 1463.88,-81.4 1457.3,-78.63"/>
<polygon fill="midnightblue" stroke="midnightblue" points="1561.99,-193.94 1569.95,-200.92 1568.08,-190.5 1561.99,-193.94"/>
</g>
<!-- Node28 -->
<g id="node28" class="node">
<title>Node28</title>
<g id="a_node28"><a xlink:href="classInputDeviceXml.html#a12bf094c5ab0ab10dae089e41fbc778c" target="_top" xlink:title="Serializes an InputDevice object into the the given XML stream.">
<polygon fill="white" stroke="black" points="1312,-9 1312,-28 1468,-28 1468,-9 1312,-9"/>
<text text-anchor="middle" x="1390" y="-16" font-family="Helvetica,sans-Serif" font-size="10.00">InputDeviceXml::writeConfig</text>
</a>
</g>
</g>
<!-- Node1&#45;&gt;Node28 -->
<g id="edge30" class="edge">
<title>Node1&#45;&gt;Node28</title>
<path fill="none" stroke="midnightblue" d="M1569.5,-191.1C1558.26,-155.1 1529.1,-78.02 1476,-38.5 1470.16,-34.16 1463.53,-30.74 1456.59,-28.05"/>
<polygon fill="midnightblue" stroke="midnightblue" points="1566.21,-192.29 1572.42,-200.87 1572.91,-190.28 1566.21,-192.29"/>
</g>
<!-- Node3 -->
<g id="node3" class="node">
<title>Node3</title>
<g id="a_node3"><a xlink:href="classSetJoystick.html#a75a8851568f88ac1966ae2ba0704ae42" target="_top" xlink:title=" ">
<polygon fill="white" stroke="black" points="1077,-348 1077,-367 1268,-367 1268,-348 1077,-348"/>
<text text-anchor="middle" x="1172.5" y="-355" font-family="Helvetica,sans-Serif" font-size="10.00">SetJoystick::enableAxisConnections</text>
</a>
</g>
</g>
<!-- Node2&#45;&gt;Node3 -->
<g id="edge2" class="edge">
<title>Node2&#45;&gt;Node3</title>
<path fill="none" stroke="midnightblue" d="M1312.86,-389.19C1280.1,-381.74 1243.06,-373.32 1215.4,-367.03"/>
<polygon fill="midnightblue" stroke="midnightblue" points="1312.35,-392.66 1322.88,-391.47 1313.9,-385.84 1312.35,-392.66"/>
</g>
<!-- Node4 -->
<g id="node4" class="node">
<title>Node4</title>
<g id="a_node4"><a xlink:href="classGameControllerSet.html#abd666978fe84da99c8338e8020051510" target="_top" xlink:title=" ">
<polygon fill="white" stroke="black" points="894,-364.5 894,-394.5 1010,-394.5 1010,-364.5 894,-364.5"/>
<text text-anchor="start" x="902" y="-382.5" font-family="Helvetica,sans-Serif" font-size="10.00">GameControllerSet::</text>
<text text-anchor="middle" x="952" y="-371.5" font-family="Helvetica,sans-Serif" font-size="10.00">refreshAxes</text>
</a>
</g>
</g>
<!-- Node3&#45;&gt;Node4 -->
<g id="edge3" class="edge">
<title>Node3&#45;&gt;Node4</title>
<path fill="none" stroke="midnightblue" d="M1066.77,-368.04C1047.28,-370.01 1027.6,-371.99 1010.21,-373.74"/>
<polygon fill="midnightblue" stroke="midnightblue" points="1067.33,-371.51 1076.93,-367.02 1066.63,-364.54 1067.33,-371.51"/>
</g>
<!-- Node5 -->
<g id="node5" class="node">
<title>Node5</title>
<g id="a_node5"><a xlink:href="classSetJoystick.html#af8d7d16a13702ae29b6590db35801d14" target="_top" xlink:title=" ">
<polygon fill="white" stroke="black" points="885,-326 885,-345 1019,-345 1019,-326 885,-326"/>
<text text-anchor="middle" x="952" y="-333" font-family="Helvetica,sans-Serif" font-size="10.00">SetJoystick::refreshAxes</text>
</a>
</g>
</g>
<!-- Node3&#45;&gt;Node5 -->
<g id="edge4" class="edge">
<title>Node3&#45;&gt;Node5</title>
<path fill="none" stroke="midnightblue" d="M1066.84,-346.96C1050.58,-345.32 1034.18,-343.67 1019.1,-342.15"/>
<polygon fill="midnightblue" stroke="midnightblue" points="1066.63,-350.46 1076.93,-347.98 1067.33,-343.49 1066.63,-350.46"/>
</g>
<!-- Node6 -->
<g id="node6" class="node">
<title>Node6</title>
<g id="a_node6"><a xlink:href="classSetJoystick.html#adc322b55002b149c9a7432d1008b8537" target="_top" xlink:title="Re&#45;enumerates inputs from the associated device and resets all mappings in this set.">
<polygon fill="white" stroke="black" points="726,-326 726,-345 827,-345 827,-326 726,-326"/>
<text text-anchor="middle" x="776.5" y="-333" font-family="Helvetica,sans-Serif" font-size="10.00">SetJoystick::reset</text>
</a>
</g>
</g>
<!-- Node5&#45;&gt;Node6 -->
<g id="edge5" class="edge">
<title>Node5&#45;&gt;Node6</title>
<path fill="none" stroke="midnightblue" d="M874.47,-335.5C858.45,-335.5 841.95,-335.5 827.21,-335.5"/>
<polygon fill="midnightblue" stroke="midnightblue" points="874.91,-339 884.91,-335.5 874.91,-332 874.91,-339"/>
</g>
<!-- Node7 -->
<g id="node7" class="node">
<title>Node7</title>
<g id="a_node7"><a xlink:href="classInputDevice.html#af7b290c37a1bcae1fbd0f0274d6cf646" target="_top" xlink:title=" ">
<polygon fill="white" stroke="black" points="571.5,-370 571.5,-389 677.5,-389 677.5,-370 571.5,-370"/>
<text text-anchor="middle" x="624.5" y="-377" font-family="Helvetica,sans-Serif" font-size="10.00">InputDevice::reset</text>
</a>
</g>
</g>
<!-- Node6&#45;&gt;Node7 -->
<g id="edge6" class="edge">
<title>Node6&#45;&gt;Node7</title>
<path fill="none" stroke="midnightblue" d="M733.11,-347.93C709.27,-354.93 679.99,-363.52 657.98,-369.97"/>
<polygon fill="midnightblue" stroke="midnightblue" points="734.34,-351.22 742.95,-345.05 732.37,-344.5 734.34,-351.22"/>
</g>
<!-- Node15 -->
<g id="node15" class="node">
<title>Node15</title>
<g id="a_node15"><a xlink:href="classGameControllerSet.html#a40b9c9ac22d6fe71c15380dcbca7eb80" target="_top" xlink:title=" ">
<polygon fill="white" stroke="black" points="566.5,-320.5 566.5,-350.5 682.5,-350.5 682.5,-320.5 566.5,-320.5"/>
<text text-anchor="start" x="574.5" y="-338.5" font-family="Helvetica,sans-Serif" font-size="10.00">GameControllerSet::</text>
<text text-anchor="middle" x="624.5" y="-327.5" font-family="Helvetica,sans-Serif" font-size="10.00">resetSticks</text>
</a>
</g>
</g>
<!-- Node6&#45;&gt;Node15 -->
<g id="edge15" class="edge">
<title>Node6&#45;&gt;Node15</title>
<path fill="none" stroke="midnightblue" d="M715.66,-335.5C704.73,-335.5 693.36,-335.5 682.52,-335.5"/>
<polygon fill="midnightblue" stroke="midnightblue" points="715.97,-339 725.97,-335.5 715.97,-332 715.97,-339"/>
</g>
<!-- Node18 -->
<g id="node18" class="node">
<title>Node18</title>
<g id="a_node18"><a xlink:href="classSetJoystick.html#ab9d47383844cb2c08581352a6c02bdab" target="_top" xlink:title=" ">
<polygon fill="white" stroke="black" points="559,-282 559,-301 690,-301 690,-282 559,-282"/>
<text text-anchor="middle" x="624.5" y="-289" font-family="Helvetica,sans-Serif" font-size="10.00">SetJoystick::SetJoystick</text>
</a>
</g>
</g>
<!-- Node6&#45;&gt;Node18 -->
<g id="edge18" class="edge">
<title>Node6&#45;&gt;Node18</title>
<path fill="none" stroke="midnightblue" d="M733.11,-323.07C709.27,-316.07 679.99,-307.48 657.98,-301.03"/>
<polygon fill="midnightblue" stroke="midnightblue" points="732.37,-326.5 742.95,-325.95 734.34,-319.78 732.37,-326.5"/>
</g>
<!-- Node8 -->
<g id="node8" class="node">
<title>Node8</title>
<g id="a_node8"><a xlink:href="classInputDaemon.html#a70fa1dbeac61db6cc29a96cdc57a4518" target="_top" xlink:title=" ">
<polygon fill="white" stroke="black" points="362,-408 362,-427 523,-427 523,-408 362,-408"/>
<text text-anchor="middle" x="442.5" y="-415" font-family="Helvetica,sans-Serif" font-size="10.00">InputDaemon::refreshJoystick</text>
</a>
</g>
</g>
<!-- Node7&#45;&gt;Node8 -->
<g id="edge7" class="edge">
<title>Node7&#45;&gt;Node8</title>
<path fill="none" stroke="midnightblue" d="M568.17,-391.18C542.64,-396.57 512.72,-402.89 488.59,-407.98"/>
<polygon fill="midnightblue" stroke="midnightblue" points="569.02,-394.58 578.08,-389.09 567.57,-387.73 569.02,-394.58"/>
</g>
<!-- Node9 -->
<g id="node9" class="node">
<title>Node9</title>
<g id="a_node9"><a xlink:href="classInputDevice.html#a767b4db5d307c9d851affed3c7e23a30" target="_top" xlink:title="Obtain current joystick element values, create new SetJoystick objects, and then transfer most recent...">
<polygon fill="white" stroke="black" points="369,-370 369,-389 516,-389 516,-370 369,-370"/>
<text text-anchor="middle" x="442.5" y="-377" font-family="Helvetica,sans-Serif" font-size="10.00">InputDevice::transferReset</text>
</a>
</g>
</g>
<!-- Node7&#45;&gt;Node9 -->
<g id="edge8" class="edge">
<title>Node7&#45;&gt;Node9</title>
<path fill="none" stroke="midnightblue" d="M561.1,-379.5C546.62,-379.5 531.08,-379.5 516.2,-379.5"/>
<polygon fill="midnightblue" stroke="midnightblue" points="561.44,-383 571.44,-379.5 561.44,-376 561.44,-383"/>
</g>
<!-- Node10 -->
<g id="node10" class="node">
<title>Node10</title>
<g id="a_node10"><a xlink:href="classInputDeviceXml.html#a847bf9ed17b554bf87d513a1aebdcb64" target="_top" xlink:title="Deserializes the given XML stream into an InputDevice object.">
<polygon fill="white" stroke="black" points="173,-430 173,-449 326,-449 326,-430 173,-430"/>
<text text-anchor="middle" x="249.5" y="-437" font-family="Helvetica,sans-Serif" font-size="10.00">InputDeviceXml::readConfig</text>
</a>
</g>
</g>
<!-- Node9&#45;&gt;Node10 -->
<g id="edge9" class="edge">
<title>Node9&#45;&gt;Node10</title>
<path fill="none" stroke="midnightblue" d="M384.68,-391.56C376.99,-393.63 369.25,-395.95 362,-398.5 345.31,-404.37 342.47,-409.03 326,-415.5 312.43,-420.83 297.15,-425.86 283.91,-429.93"/>
<polygon fill="midnightblue" stroke="midnightblue" points="385.56,-394.95 394.37,-389.06 383.81,-388.17 385.56,-394.95"/>
</g>
<!-- Node11 -->
<g id="node11" class="node">
<title>Node11</title>
<g id="a_node11"><a xlink:href="classGameControllerXml.html#a7e47256cae0d3815419bc254413777d1" target="_top" xlink:title="Deserializes the given XML stream into a GameController object.">
<polygon fill="white" stroke="black" points="9,-364.5 9,-394.5 128,-394.5 128,-364.5 9,-364.5"/>
<text text-anchor="start" x="17" y="-382.5" font-family="Helvetica,sans-Serif" font-size="10.00">GameControllerXml::</text>
<text text-anchor="middle" x="68.5" y="-371.5" font-family="Helvetica,sans-Serif" font-size="10.00">readConfig</text>
</a>
</g>
</g>
<!-- Node9&#45;&gt;Node11 -->
<g id="edge10" class="edge">
<title>Node9&#45;&gt;Node11</title>
<path fill="none" stroke="midnightblue" d="M358.75,-381.91C347.74,-382.15 336.6,-382.36 326,-382.5 258.01,-383.38 240.99,-383.49 173,-382.5 158.44,-382.29 142.73,-381.91 128.06,-381.49"/>
<polygon fill="midnightblue" stroke="midnightblue" points="358.89,-385.41 368.8,-381.68 358.72,-378.41 358.89,-385.41"/>
</g>
<!-- Node12 -->
<g id="node12" class="node">
<title>Node12</title>
<g id="a_node12"><a xlink:href="classGameControllerXml.html#aaa5257d4c6fe13f1d5fc51981e247c25" target="_top" xlink:title="Reads the XML tree from a &quot;joystick&quot; tag.">
<polygon fill="white" stroke="black" points="190,-342.5 190,-372.5 309,-372.5 309,-342.5 190,-342.5"/>
<text text-anchor="start" x="198" y="-360.5" font-family="Helvetica,sans-Serif" font-size="10.00">GameControllerXml::</text>
<text text-anchor="middle" x="249.5" y="-349.5" font-family="Helvetica,sans-Serif" font-size="10.00">readJoystickConfig</text>
</a>
</g>
</g>
<!-- Node9&#45;&gt;Node12 -->
<g id="edge11" class="edge">
<title>Node9&#45;&gt;Node12</title>
<path fill="none" stroke="midnightblue" d="M358.48,-369.94C341.85,-368.02 324.71,-366.05 309.12,-364.25"/>
<polygon fill="midnightblue" stroke="midnightblue" points="358.41,-373.45 368.75,-371.12 359.21,-366.5 358.41,-373.45"/>
</g>
<!-- Node13 -->
<g id="node13" class="node">
<title>Node13</title>
<g id="a_node13"><a xlink:href="classJoyTabWidgetHelper.html#aef94ae0812f28f43eb891ddc210c341e" target="_top" xlink:title=" ">
<polygon fill="white" stroke="black" points="192,-293.5 192,-323.5 307,-323.5 307,-293.5 192,-293.5"/>
<text text-anchor="start" x="200" y="-311.5" font-family="Helvetica,sans-Serif" font-size="10.00">JoyTabWidgetHelper</text>
<text text-anchor="middle" x="249.5" y="-300.5" font-family="Helvetica,sans-Serif" font-size="10.00">::reInitDevice</text>
</a>
</g>
</g>
<!-- Node9&#45;&gt;Node13 -->
<g id="edge13" class="edge">
<title>Node9&#45;&gt;Node13</title>
<path fill="none" stroke="midnightblue" d="M378.61,-367.04C372.89,-365.14 367.27,-362.97 362,-360.5 343.9,-352 343.72,-342.76 326,-333.5 318.9,-329.79 311.15,-326.48 303.39,-323.57"/>
<polygon fill="midnightblue" stroke="midnightblue" points="377.71,-370.42 388.29,-369.98 379.74,-363.73 377.71,-370.42"/>
</g>
<!-- Node12&#45;&gt;Node11 -->
<g id="edge12" class="edge">
<title>Node12&#45;&gt;Node11</title>
<path fill="none" stroke="midnightblue" d="M179.51,-365.98C162.59,-368.06 144.63,-370.27 128.24,-372.28"/>
<polygon fill="midnightblue" stroke="midnightblue" points="180.39,-369.4 189.89,-364.7 179.54,-362.45 180.39,-369.4"/>
</g>
<!-- Node14 -->
<g id="node14" class="node">
<title>Node14</title>
<g id="a_node14"><a xlink:href="classJoyTabWidgetHelper.html#acc5d7d51e925f84f9aa2936ce267f843" target="_top" xlink:title=" ">
<polygon fill="white" stroke="black" points="0,-293.5 0,-323.5 137,-323.5 137,-293.5 0,-293.5"/>
<text text-anchor="start" x="8" y="-311.5" font-family="Helvetica,sans-Serif" font-size="10.00">JoyTabWidgetHelper</text>
<text text-anchor="middle" x="68.5" y="-300.5" font-family="Helvetica,sans-Serif" font-size="10.00">::reInitDeviceWithRevert</text>
</a>
</g>
</g>
<!-- Node13&#45;&gt;Node14 -->
<g id="edge14" class="edge">
<title>Node13&#45;&gt;Node14</title>
<path fill="none" stroke="midnightblue" d="M181.46,-308.5C166.95,-308.5 151.58,-308.5 137.04,-308.5"/>
<polygon fill="midnightblue" stroke="midnightblue" points="181.86,-312 191.86,-308.5 181.86,-305 181.86,-312"/>
</g>
<!-- Node16 -->
<g id="node16" class="node">
<title>Node16</title>
<g id="a_node16"><a xlink:href="classGameControllerSet.html#a9d686fa2df459f7d157d60e05707f712" target="_top" xlink:title=" ">
<polygon fill="white" stroke="black" points="384.5,-320.5 384.5,-350.5 500.5,-350.5 500.5,-320.5 384.5,-320.5"/>
<text text-anchor="start" x="392.5" y="-338.5" font-family="Helvetica,sans-Serif" font-size="10.00">GameControllerSet::</text>
<text text-anchor="middle" x="442.5" y="-327.5" font-family="Helvetica,sans-Serif" font-size="10.00">GameControllerSet</text>
</a>
</g>
</g>
<!-- Node15&#45;&gt;Node16 -->
<g id="edge16" class="edge">
<title>Node15&#45;&gt;Node16</title>
<path fill="none" stroke="midnightblue" d="M555.83,-335.5C537.68,-335.5 518.23,-335.5 500.71,-335.5"/>
<polygon fill="midnightblue" stroke="midnightblue" points="556.05,-339 566.05,-335.5 556.05,-332 556.05,-339"/>
</g>
<!-- Node17 -->
<g id="node17" class="node">
<title>Node17</title>
<g id="a_node17"><a xlink:href="classGameControllerSet.html#a69d798af242a07017bc0f2e2d0d8a830" target="_top" xlink:title=" ">
<polygon fill="white" stroke="black" points="384.5,-271.5 384.5,-301.5 500.5,-301.5 500.5,-271.5 384.5,-271.5"/>
<text text-anchor="start" x="392.5" y="-289.5" font-family="Helvetica,sans-Serif" font-size="10.00">GameControllerSet::</text>
<text text-anchor="middle" x="442.5" y="-278.5" font-family="Helvetica,sans-Serif" font-size="10.00">reset</text>
</a>
</g>
</g>
<!-- Node15&#45;&gt;Node17 -->
<g id="edge17" class="edge">
<title>Node15&#45;&gt;Node17</title>
<path fill="none" stroke="midnightblue" d="M558.3,-317.75C538.79,-312.44 517.6,-306.67 498.79,-301.55"/>
<polygon fill="midnightblue" stroke="midnightblue" points="557.46,-321.15 568.03,-320.4 559.3,-314.39 557.46,-321.15"/>
</g>
<!-- Node19&#45;&gt;Node3 -->
<g id="edge20" class="edge">
<title>Node19&#45;&gt;Node3</title>
<path fill="none" stroke="midnightblue" d="M1308.4,-357.5C1295.34,-357.5 1281.71,-357.5 1268.35,-357.5"/>
<polygon fill="midnightblue" stroke="midnightblue" points="1308.74,-361 1318.74,-357.5 1308.74,-354 1308.74,-361"/>
</g>
<!-- Node20&#45;&gt;Node3 -->
<g id="edge22" class="edge">
<title>Node20&#45;&gt;Node3</title>
<path fill="none" stroke="midnightblue" d="M1312.86,-325.81C1280.1,-333.26 1243.06,-341.68 1215.4,-347.97"/>
<polygon fill="midnightblue" stroke="midnightblue" points="1313.9,-329.16 1322.88,-323.53 1312.35,-322.34 1313.9,-329.16"/>
</g>
<!-- Node26 -->
<g id="node26" class="node">
<title>Node26</title>
<g id="a_node26"><a xlink:href="classAdvanceStickAssignmentDialog.html#a2c866fcfc9b377d6cabdd4b0f7f4e824" target="_top" xlink:title=" ">
<polygon fill="white" stroke="black" points="1086.5,-48.5 1086.5,-78.5 1258.5,-78.5 1258.5,-48.5 1086.5,-48.5"/>
<text text-anchor="start" x="1094.5" y="-66.5" font-family="Helvetica,sans-Serif" font-size="10.00">AdvanceStickAssignmentDialog</text>
<text text-anchor="middle" x="1172.5" y="-55.5" font-family="Helvetica,sans-Serif" font-size="10.00">::refreshVDPadsConfiguration</text>
</a>
</g>
</g>
<!-- Node25&#45;&gt;Node26 -->
<g id="edge28" class="edge">
<title>Node25&#45;&gt;Node26</title>
<path fill="none" stroke="midnightblue" d="M1293.68,-63.5C1282.05,-63.5 1270.23,-63.5 1258.76,-63.5"/>
<polygon fill="midnightblue" stroke="midnightblue" points="1293.83,-67 1303.83,-63.5 1293.83,-60 1293.83,-67"/>
</g>
<!-- Node27 -->
<g id="node27" class="node">
<title>Node27</title>
<g id="a_node27"><a xlink:href="classAdvanceStickAssignmentDialog.html#a86cf0001cd774ce5ccec8543b7a9a50b" target="_top" xlink:title=" ">
<polygon fill="white" stroke="black" points="863,-49.5 863,-79.5 1041,-79.5 1041,-49.5 863,-49.5"/>
<text text-anchor="start" x="871" y="-67.5" font-family="Helvetica,sans-Serif" font-size="10.00">AdvanceStickAssignmentDialog</text>
<text text-anchor="middle" x="952" y="-56.5" font-family="Helvetica,sans-Serif" font-size="10.00">::AdvanceStickAssignmentDialog</text>
</a>
</g>
</g>
<!-- Node26&#45;&gt;Node27 -->
<g id="edge29" class="edge">
<title>Node26&#45;&gt;Node27</title>
<path fill="none" stroke="midnightblue" d="M1076.21,-63.94C1064.55,-63.99 1052.67,-64.04 1041.11,-64.1"/>
<polygon fill="midnightblue" stroke="midnightblue" points="1076.41,-67.44 1086.4,-63.89 1076.38,-60.44 1076.41,-67.44"/>
</g>
<!-- Node29 -->
<g id="node29" class="node">
<title>Node29</title>
<g id="a_node29"><a xlink:href="classXMLConfigWriter.html#aacd0a3991eedf223f3586d33559903d4" target="_top" xlink:title="Write input device config from the current object into XML file.">
<polygon fill="white" stroke="black" points="1108,-8 1108,-27 1237,-27 1237,-8 1108,-8"/>
<text text-anchor="middle" x="1172.5" y="-15" font-family="Helvetica,sans-Serif" font-size="10.00">XMLConfigWriter::write</text>
</a>
</g>
</g>
<!-- Node28&#45;&gt;Node29 -->
<g id="edge31" class="edge">
<title>Node28&#45;&gt;Node29</title>
<path fill="none" stroke="midnightblue" d="M1301.64,-18.09C1280.02,-17.99 1257.27,-17.89 1237.03,-17.79"/>
<polygon fill="midnightblue" stroke="midnightblue" points="1301.79,-21.6 1311.81,-18.14 1301.82,-14.6 1301.79,-21.6"/>
</g>
<!-- Node30 -->
<g id="node30" class="node">
<title>Node30</title>
<g id="a_node30"><a xlink:href="classJoyTabWidgetHelper.html#ad1754369989cbe4a3e10c8c01e3fb89b" target="_top" xlink:title="XML write entry point for the GUI.">
<polygon fill="white" stroke="black" points="894.5,-0.5 894.5,-30.5 1009.5,-30.5 1009.5,-0.5 894.5,-0.5"/>
<text text-anchor="start" x="902.5" y="-18.5" font-family="Helvetica,sans-Serif" font-size="10.00">JoyTabWidgetHelper</text>
<text text-anchor="middle" x="952" y="-7.5" font-family="Helvetica,sans-Serif" font-size="10.00">::writeConfigFile</text>
</a>
</g>
</g>
<!-- Node29&#45;&gt;Node30 -->
<g id="edge32" class="edge">
<title>Node29&#45;&gt;Node30</title>
<path fill="none" stroke="midnightblue" d="M1097.35,-16.82C1068.73,-16.56 1036.52,-16.26 1009.8,-16.02"/>
<polygon fill="midnightblue" stroke="midnightblue" points="1097.68,-20.32 1107.71,-16.92 1097.75,-13.32 1097.68,-20.32"/>
</g>
</g>
</svg>
