<?xml version="1.0" encoding="UTF-8" standalone="no"?>
<!DOCTYPE svg PUBLIC "-//W3C//DTD SVG 1.1//EN"
 "http://www.w3.org/Graphics/SVG/1.1/DTD/svg11.dtd">
<!-- Generated by graphviz version 2.43.0 (0)
 -->
<!-- Title: XTestEventHandler::sendMouseEvent Pages: 1 -->
<svg width="630pt" height="72pt"
 viewBox="0.00 0.00 630.00 71.50" xmlns="http://www.w3.org/2000/svg" xmlns:xlink="http://www.w3.org/1999/xlink">
<g id="graph0" class="graph" transform="scale(1 1) rotate(0) translate(4 67.5)">
<title>XTestEventHandler::sendMouseEvent</title>
<polygon fill="white" stroke="transparent" points="-4,4 -4,-67.5 626,-67.5 626,4 -4,4"/>
<!-- Node1 -->
<g id="node1" class="node">
<title>Node1</title>
<g id="a_node1"><a xlink:title="Move cursor to selected relative location (deltax delaty)">
<polygon fill="#bfbfbf" stroke="black" points="0,-19.5 0,-49.5 115,-49.5 115,-19.5 0,-19.5"/>
<text text-anchor="start" x="8" y="-37.5" font-family="Helvetica,sans-Serif" font-size="10.00">XTestEventHandler::</text>
<text text-anchor="middle" x="57.5" y="-26.5" font-family="Helvetica,sans-Serif" font-size="10.00">sendMouseEvent</text>
</a>
</g>
</g>
<!-- Node2 -->
<g id="node2" class="node">
<title>Node2</title>
<g id="a_node2"><a xlink:href="classX11Extras.html#a643c95dc1de8eb073a0accb41619fe83" target="_top" xlink:title="Get display instance.">
<polygon fill="white" stroke="black" points="162,-44 162,-63 269,-63 269,-44 162,-44"/>
<text text-anchor="middle" x="215.5" y="-51" font-family="Helvetica,sans-Serif" font-size="10.00">X11Extras::display</text>
</a>
</g>
</g>
<!-- Node1&#45;&gt;Node2 -->
<g id="edge1" class="edge">
<title>Node1&#45;&gt;Node2</title>
<path fill="none" stroke="midnightblue" d="M115.26,-41.41C127.17,-42.86 139.8,-44.4 151.91,-45.88"/>
<polygon fill="midnightblue" stroke="midnightblue" points="151.58,-49.36 161.93,-47.1 152.43,-42.41 151.58,-49.36"/>
</g>
<!-- Node3 -->
<g id="node3" class="node">
<title>Node3</title>
<g id="a_node3"><a xlink:href="classX11Extras.html#ace76277fced60e6bd6ff880030338182" target="_top" xlink:title=" ">
<polygon fill="white" stroke="black" points="151,-6 151,-25 280,-25 280,-6 151,-6"/>
<text text-anchor="middle" x="215.5" y="-13" font-family="Helvetica,sans-Serif" font-size="10.00">X11Extras::getInstance</text>
</a>
</g>
</g>
<!-- Node1&#45;&gt;Node3 -->
<g id="edge2" class="edge">
<title>Node1&#45;&gt;Node3</title>
<path fill="none" stroke="midnightblue" d="M115.26,-27.59C123.59,-26.57 132.27,-25.52 140.87,-24.47"/>
<polygon fill="midnightblue" stroke="midnightblue" points="141.41,-27.93 150.92,-23.24 140.57,-20.98 141.41,-27.93"/>
</g>
<!-- Node4 -->
<g id="node4" class="node">
<title>Node4</title>
<g id="a_node4"><a xlink:href="classX11Extras.html#ab9bcb016e23bacb0e988feb8175d2c88" target="_top" xlink:title=" ">
<polygon fill="white" stroke="black" points="316,-6 316,-25 438,-25 438,-6 316,-6"/>
<text text-anchor="middle" x="377" y="-13" font-family="Helvetica,sans-Serif" font-size="10.00">X11Extras::X11Extras</text>
</a>
</g>
</g>
<!-- Node3&#45;&gt;Node4 -->
<g id="edge3" class="edge">
<title>Node3&#45;&gt;Node4</title>
<path fill="none" stroke="midnightblue" d="M280.46,-15.5C288.77,-15.5 297.33,-15.5 305.74,-15.5"/>
<polygon fill="midnightblue" stroke="midnightblue" points="305.91,-19 315.91,-15.5 305.91,-12 305.91,-19"/>
</g>
<!-- Node5 -->
<g id="node5" class="node">
<title>Node5</title>
<g id="a_node5"><a xlink:href="classX11Extras.html#a6f63e77ed045e174546d77333672b8f0" target="_top" xlink:title=" ">
<polygon fill="white" stroke="black" points="474,-0.5 474,-30.5 622,-30.5 622,-0.5 474,-0.5"/>
<text text-anchor="start" x="482" y="-18.5" font-family="Helvetica,sans-Serif" font-size="10.00">X11Extras::populateKnown</text>
<text text-anchor="middle" x="548" y="-7.5" font-family="Helvetica,sans-Serif" font-size="10.00">Aliases</text>
</a>
</g>
</g>
<!-- Node4&#45;&gt;Node5 -->
<g id="edge4" class="edge">
<title>Node4&#45;&gt;Node5</title>
<path fill="none" stroke="midnightblue" d="M438.06,-15.5C446.38,-15.5 455.04,-15.5 463.69,-15.5"/>
<polygon fill="midnightblue" stroke="midnightblue" points="463.81,-19 473.81,-15.5 463.81,-12 463.81,-19"/>
</g>
</g>
</svg>
