<?xml version="1.0" encoding="UTF-8" standalone="no"?>
<!DOCTYPE svg PUBLIC "-//W3C//DTD SVG 1.1//EN"
 "http://www.w3.org/Graphics/SVG/1.1/DTD/svg11.dtd">
<!-- Generated by graphviz version 2.43.0 (0)
 -->
<!-- Title: MainSettingsDialog::fillAllAutoProfilesTable Pages: 1 -->
<svg width="354pt" height="280pt"
 viewBox="0.00 0.00 354.00 280.00" xmlns="http://www.w3.org/2000/svg" xmlns:xlink="http://www.w3.org/1999/xlink">
<g id="graph0" class="graph" transform="scale(1 1) rotate(0) translate(4 276)">
<title>MainSettingsDialog::fillAllAutoProfilesTable</title>
<polygon fill="white" stroke="transparent" points="-4,4 -4,-276 350,-276 350,4 -4,4"/>
<!-- Node1 -->
<g id="node1" class="node">
<title>Node1</title>
<g id="a_node1"><a xlink:title=" ">
<polygon fill="#bfbfbf" stroke="black" points="0,-121 0,-151 131,-151 131,-121 0,-121"/>
<text text-anchor="start" x="8" y="-139" font-family="Helvetica,sans-Serif" font-size="10.00">MainSettingsDialog</text>
<text text-anchor="middle" x="65.5" y="-128" font-family="Helvetica,sans-Serif" font-size="10.00">::fillAllAutoProfilesTable</text>
</a>
</g>
</g>
<!-- Node2 -->
<g id="node2" class="node">
<title>Node2</title>
<g id="a_node2"><a xlink:href="classAutoProfileInfo.html#a79dc148898bc863eb5ceedc88d8f7638" target="_top" xlink:title=" ">
<polygon fill="white" stroke="black" points="170,-252.5 170,-271.5 343,-271.5 343,-252.5 170,-252.5"/>
<text text-anchor="middle" x="256.5" y="-259.5" font-family="Helvetica,sans-Serif" font-size="10.00">AutoProfileInfo::getDeviceName</text>
</a>
</g>
</g>
<!-- Node1&#45;&gt;Node2 -->
<g id="edge1" class="edge">
<title>Node1&#45;&gt;Node2</title>
<path fill="none" stroke="midnightblue" d="M76.19,-151.16C92.11,-174.75 126.17,-219.94 167,-243 170.96,-245.23 175.15,-247.21 179.47,-248.95"/>
<polygon fill="midnightblue" stroke="midnightblue" points="178.51,-252.32 189.1,-252.4 180.87,-245.73 178.51,-252.32"/>
</g>
<!-- Node3 -->
<g id="node3" class="node">
<title>Node3</title>
<g id="a_node3"><a xlink:href="classAutoProfileInfo.html#a2c94a2f2793b09a153adbabc8c555eda" target="_top" xlink:title=" ">
<polygon fill="white" stroke="black" points="192.5,-214.5 192.5,-233.5 320.5,-233.5 320.5,-214.5 192.5,-214.5"/>
<text text-anchor="middle" x="256.5" y="-221.5" font-family="Helvetica,sans-Serif" font-size="10.00">AutoProfileInfo::getExe</text>
</a>
</g>
</g>
<!-- Node1&#45;&gt;Node3 -->
<g id="edge2" class="edge">
<title>Node1&#45;&gt;Node3</title>
<path fill="none" stroke="midnightblue" d="M83.76,-151.01C102.84,-166.82 135.12,-191.27 167,-205 172.87,-207.53 179.11,-209.73 185.46,-211.65"/>
<polygon fill="midnightblue" stroke="midnightblue" points="184.9,-215.13 195.48,-214.44 186.78,-208.39 184.9,-215.13"/>
</g>
<!-- Node4 -->
<g id="node4" class="node">
<title>Node4</title>
<g id="a_node4"><a xlink:href="classAutoProfileInfo.html#a542720df3f705eb79255b4b85af7b1a5" target="_top" xlink:title=" ">
<polygon fill="white" stroke="black" points="186,-165 186,-195 327,-195 327,-165 186,-165"/>
<text text-anchor="start" x="194" y="-183" font-family="Helvetica,sans-Serif" font-size="10.00">AutoProfileInfo::getProfile</text>
<text text-anchor="middle" x="256.5" y="-172" font-family="Helvetica,sans-Serif" font-size="10.00">Location</text>
</a>
</g>
</g>
<!-- Node1&#45;&gt;Node4 -->
<g id="edge3" class="edge">
<title>Node1&#45;&gt;Node4</title>
<path fill="none" stroke="midnightblue" d="M131.01,-151.02C147.04,-154.75 164.36,-158.78 180.83,-162.62"/>
<polygon fill="midnightblue" stroke="midnightblue" points="180.42,-166.12 190.96,-164.97 182.01,-159.3 180.42,-166.12"/>
</g>
<!-- Node5 -->
<g id="node5" class="node">
<title>Node5</title>
<g id="a_node5"><a xlink:href="classAutoProfileInfo.html#aba94c3fdd9e66bf8dc42a74237ff911c" target="_top" xlink:title=" ">
<polygon fill="white" stroke="black" points="179,-126.5 179,-145.5 334,-145.5 334,-126.5 179,-126.5"/>
<text text-anchor="middle" x="256.5" y="-133.5" font-family="Helvetica,sans-Serif" font-size="10.00">AutoProfileInfo::getUniqueID</text>
</a>
</g>
</g>
<!-- Node1&#45;&gt;Node5 -->
<g id="edge4" class="edge">
<title>Node1&#45;&gt;Node5</title>
<path fill="none" stroke="midnightblue" d="M131.01,-136C143.17,-136 156.05,-136 168.75,-136"/>
<polygon fill="midnightblue" stroke="midnightblue" points="168.88,-139.5 178.88,-136 168.88,-132.5 168.88,-139.5"/>
</g>
<!-- Node6 -->
<g id="node6" class="node">
<title>Node6</title>
<g id="a_node6"><a xlink:href="classAutoProfileInfo.html#a37dfba098d3c8a8e90beca36b2f3561b" target="_top" xlink:title=" ">
<polygon fill="white" stroke="black" points="182,-77 182,-107 331,-107 331,-77 182,-77"/>
<text text-anchor="start" x="190" y="-95" font-family="Helvetica,sans-Serif" font-size="10.00">AutoProfileInfo::getWindow</text>
<text text-anchor="middle" x="256.5" y="-84" font-family="Helvetica,sans-Serif" font-size="10.00">Class</text>
</a>
</g>
</g>
<!-- Node1&#45;&gt;Node6 -->
<g id="edge5" class="edge">
<title>Node1&#45;&gt;Node6</title>
<path fill="none" stroke="midnightblue" d="M131.01,-120.98C147.04,-117.25 164.36,-113.22 180.83,-109.38"/>
<polygon fill="midnightblue" stroke="midnightblue" points="182.01,-112.7 190.96,-107.03 180.42,-105.88 182.01,-112.7"/>
</g>
<!-- Node7 -->
<g id="node7" class="node">
<title>Node7</title>
<g id="a_node7"><a xlink:href="classAutoProfileInfo.html#a8136af0d4f8e0fcdc0f6562dd6ec9c48" target="_top" xlink:title=" ">
<polygon fill="white" stroke="black" points="167,-38.5 167,-57.5 346,-57.5 346,-38.5 167,-38.5"/>
<text text-anchor="middle" x="256.5" y="-45.5" font-family="Helvetica,sans-Serif" font-size="10.00">AutoProfileInfo::getWindowName</text>
</a>
</g>
</g>
<!-- Node1&#45;&gt;Node7 -->
<g id="edge6" class="edge">
<title>Node1&#45;&gt;Node7</title>
<path fill="none" stroke="midnightblue" d="M84.18,-121C103.36,-105.48 135.49,-81.64 167,-68 173.94,-65 181.38,-62.42 188.9,-60.21"/>
<polygon fill="midnightblue" stroke="midnightblue" points="190.06,-63.52 198.79,-57.51 188.22,-56.77 190.06,-63.52"/>
</g>
<!-- Node8 -->
<g id="node8" class="node">
<title>Node8</title>
<g id="a_node8"><a xlink:href="classAutoProfileInfo.html#a51f57cf7cda4e66b052d12e5a8879785" target="_top" xlink:title=" ">
<polygon fill="white" stroke="black" points="189.5,-0.5 189.5,-19.5 323.5,-19.5 323.5,-0.5 189.5,-0.5"/>
<text text-anchor="middle" x="256.5" y="-7.5" font-family="Helvetica,sans-Serif" font-size="10.00">AutoProfileInfo::isActive</text>
</a>
</g>
</g>
<!-- Node1&#45;&gt;Node8 -->
<g id="edge7" class="edge">
<title>Node1&#45;&gt;Node8</title>
<path fill="none" stroke="midnightblue" d="M76.19,-120.84C92.11,-97.25 126.17,-52.06 167,-29 170.96,-26.77 175.15,-24.79 179.47,-23.05"/>
<polygon fill="midnightblue" stroke="midnightblue" points="180.87,-26.27 189.1,-19.6 178.51,-19.68 180.87,-26.27"/>
</g>
</g>
</svg>
