<?xml version="1.0" encoding="UTF-8" standalone="no"?>
<!DOCTYPE svg PUBLIC "-//W3C//DTD SVG 1.1//EN"
 "http://www.w3.org/Graphics/SVG/1.1/DTD/svg11.dtd">
<!-- Generated by graphviz version 2.43.0 (0)
 -->
<!-- Title: GameControllerMappingDialog::saveChanges Pages: 1 -->
<!--zoomable 215 -->
<svg id="main" version="1.1" xmlns="http://www.w3.org/2000/svg" xmlns:xlink="http://www.w3.org/1999/xlink" xml:space="preserve" onload="init(evt)">
<style type="text/css"><![CDATA[
.edge:hover path { stroke: red; }
.edge:hover polygon { stroke: red; fill: red; }
]]></style>
<script type="text/javascript"><![CDATA[
var edges = document.getElementsByTagName('g');
if (edges && edges.length) {
  for (var i=0;i<edges.length;i++) {
    if (edges[i].id.substr(0,4)=='edge') {
      edges[i].setAttribute('class','edge');
    }
  }
}
]]></script>
        <defs>
                <circle id="rim" cx="0" cy="0" r="7"/>
                <circle id="rim2" cx="0" cy="0" r="3.5"/>
                <g id="zoomPlus">
                        <use xlink:href="#rim" fill="#404040">
                                <set attributeName="fill" to="#808080" begin="zoomplus.mouseover" end="zoomplus.mouseout"/>
                        </use>
                        <path d="M-4,0h8M0,-4v8" fill="none" stroke="white" stroke-width="1.5" pointer-events="none"/>
                </g>
                <g id="zoomMin">
                        <use xlink:href="#rim" fill="#404040">
                                <set attributeName="fill" to="#808080" begin="zoomminus.mouseover" end="zoomminus.mouseout"/>
                        </use>
                        <path d="M-4,0h8" fill="none" stroke="white" stroke-width="1.5" pointer-events="none"/>
                </g>
                <g id="dirArrow">
                        <path fill="none" stroke="white" stroke-width="1.5" d="M0,-3.0v7 M-2.5,-0.5L0,-3.0L2.5,-0.5"/>
                </g>
               <g id="resetDef">
                       <use xlink:href="#rim2" fill="#404040">
                               <set attributeName="fill" to="#808080" begin="reset.mouseover" end="reset.mouseout"/>
                       </use>
               </g>
        </defs>

<script type="text/javascript">
var viewWidth = 584;
var viewHeight = 215;
var sectionId = 'dynsection-34';
</script>
<script xlink:href="svgpan.js"/>
<svg id="graph" class="graph">
<g id="viewport">
<title>GameControllerMappingDialog::saveChanges</title>
<polygon fill="white" stroke="transparent" points="-4,4 -4,-211 580,-211 580,4 -4,4"/>
<!-- Node1 -->
<g id="node1" class="node">
<title>Node1</title>
<g id="a_node1"><a xlink:title=" ">
<polygon fill="#bfbfbf" stroke="black" points="0,-88.5 0,-118.5 167,-118.5 167,-88.5 0,-88.5"/>
<text text-anchor="start" x="8" y="-106.5" font-family="Helvetica,sans-Serif" font-size="10.00">GameControllerMappingDialog</text>
<text text-anchor="middle" x="83.5" y="-95.5" font-family="Helvetica,sans-Serif" font-size="10.00">::saveChanges</text>
</a>
</g>
</g>
<!-- Node2 -->
<g id="node2" class="node">
<title>Node2</title>
<g id="a_node2"><a xlink:href="classInputDevice.html#ae4e713204751aa99d92ab8ff3f3b2192" target="_top" xlink:title=" ">
<polygon fill="white" stroke="black" points="205,-176.5 205,-206.5 368,-206.5 368,-176.5 205,-176.5"/>
<text text-anchor="start" x="213" y="-194.5" font-family="Helvetica,sans-Serif" font-size="10.00">InputDevice::convertToUnique</text>
<text text-anchor="middle" x="286.5" y="-183.5" font-family="Helvetica,sans-Serif" font-size="10.00">MappSett</text>
</a>
</g>
</g>
<!-- Node1&#45;&gt;Node2 -->
<g id="edge1" class="edge">
<title>Node1&#45;&gt;Node2</title>
<path fill="none" stroke="midnightblue" d="M113.32,-118.68C137.07,-130.92 171.8,-148.24 203,-161.5 212.26,-165.44 222.22,-169.34 231.92,-172.96"/>
<polygon fill="midnightblue" stroke="midnightblue" points="230.9,-176.31 241.49,-176.48 233.31,-169.74 230.9,-176.31"/>
</g>
<!-- Node3 -->
<g id="node3" class="node">
<title>Node3</title>
<g id="a_node3"><a xlink:href="classInputDevice.html#aec61eac8077fc952657151bf38e97ed6" target="_top" xlink:title=" ">
<polygon fill="white" stroke="black" points="415.5,-175 415.5,-194 566.5,-194 566.5,-175 415.5,-175"/>
<text text-anchor="middle" x="491" y="-182" font-family="Helvetica,sans-Serif" font-size="10.00">InputDevice::getGUIDString</text>
</a>
</g>
</g>
<!-- Node1&#45;&gt;Node3 -->
<g id="edge7" class="edge">
<title>Node1&#45;&gt;Node3</title>
<path fill="none" stroke="midnightblue" d="M154.96,-118.55C170.76,-121.87 187.44,-125.34 203,-128.5 281.26,-144.39 371.71,-161.9 429.82,-173.03"/>
<polygon fill="midnightblue" stroke="midnightblue" points="429.44,-176.52 439.92,-174.97 430.76,-169.65 429.44,-176.52"/>
</g>
<!-- Node4 -->
<g id="node4" class="node">
<title>Node4</title>
<g id="a_node4"><a xlink:href="classGameControllerMappingDialog.html#a1a77b5b6f04786c2d21ad2ffa4ddab42" target="_top" xlink:title=" ">
<polygon fill="white" stroke="black" points="203,-88.5 203,-118.5 370,-118.5 370,-88.5 203,-88.5"/>
<text text-anchor="start" x="211" y="-106.5" font-family="Helvetica,sans-Serif" font-size="10.00">GameControllerMappingDialog</text>
<text text-anchor="middle" x="286.5" y="-95.5" font-family="Helvetica,sans-Serif" font-size="10.00">::generateSDLMappingString</text>
</a>
</g>
</g>
<!-- Node1&#45;&gt;Node4 -->
<g id="edge3" class="edge">
<title>Node1&#45;&gt;Node4</title>
<path fill="none" stroke="midnightblue" d="M167.12,-103.5C175.61,-103.5 184.27,-103.5 192.85,-103.5"/>
<polygon fill="midnightblue" stroke="midnightblue" points="192.87,-107 202.87,-103.5 192.87,-100 192.87,-107"/>
</g>
<!-- Node7 -->
<g id="node7" class="node">
<title>Node7</title>
<g id="a_node7"><a xlink:href="classInputDevice.html#a54e08a512ad52a902c81b8b146e2091b" target="_top" xlink:title=" ">
<polygon fill="white" stroke="black" points="406,-53 406,-72 576,-72 576,-53 406,-53"/>
<text text-anchor="middle" x="491" y="-60" font-family="Helvetica,sans-Serif" font-size="10.00">InputDevice::getUniqueIDString</text>
</a>
</g>
</g>
<!-- Node1&#45;&gt;Node7 -->
<g id="edge9" class="edge">
<title>Node1&#45;&gt;Node7</title>
<path fill="none" stroke="midnightblue" d="M146.92,-88.47C164.92,-84.65 184.66,-80.93 203,-78.5 266.92,-70.03 339.43,-66.03 395.57,-64.15"/>
<polygon fill="midnightblue" stroke="midnightblue" points="395.97,-67.64 405.86,-63.82 395.75,-60.64 395.97,-67.64"/>
</g>
<!-- Node8 -->
<g id="node8" class="node">
<title>Node8</title>
<g id="a_node8"><a xlink:href="classAntiMicroSettings.html#a4f172ffefe55eeba5afff3d54182f881" target="_top" xlink:title=" ">
<polygon fill="white" stroke="black" points="232,-0.5 232,-30.5 341,-30.5 341,-0.5 232,-0.5"/>
<text text-anchor="start" x="240" y="-18.5" font-family="Helvetica,sans-Serif" font-size="10.00">AntiMicroSettings::</text>
<text text-anchor="middle" x="286.5" y="-7.5" font-family="Helvetica,sans-Serif" font-size="10.00">getLock</text>
</a>
</g>
</g>
<!-- Node1&#45;&gt;Node8 -->
<g id="edge8" class="edge">
<title>Node1&#45;&gt;Node8</title>
<path fill="none" stroke="midnightblue" d="M113.32,-88.32C137.07,-76.08 171.8,-58.76 203,-45.5 212.26,-41.56 222.22,-37.66 231.92,-34.04"/>
<polygon fill="midnightblue" stroke="midnightblue" points="233.31,-37.26 241.49,-30.52 230.9,-30.69 233.31,-37.26"/>
</g>
<!-- Node2&#45;&gt;Node3 -->
<g id="edge2" class="edge">
<title>Node2&#45;&gt;Node3</title>
<path fill="none" stroke="midnightblue" d="M368.12,-188.71C380.26,-188.29 392.83,-187.86 405.07,-187.44"/>
<polygon fill="midnightblue" stroke="midnightblue" points="405.38,-190.93 415.25,-187.08 405.14,-183.93 405.38,-190.93"/>
</g>
<!-- Node5 -->
<g id="node5" class="node">
<title>Node5</title>
<g id="a_node5"><a xlink:href="classInputDevice.html#a3184377c2e251949cae1a0937aaef78c" target="_top" xlink:title=" ">
<polygon fill="white" stroke="black" points="418.5,-130 418.5,-149 563.5,-149 563.5,-130 418.5,-130"/>
<text text-anchor="middle" x="491" y="-137" font-family="Helvetica,sans-Serif" font-size="10.00">InputDevice::getSDLName</text>
</a>
</g>
</g>
<!-- Node4&#45;&gt;Node5 -->
<g id="edge4" class="edge">
<title>Node4&#45;&gt;Node5</title>
<path fill="none" stroke="midnightblue" d="M370.16,-118.19C388.81,-121.51 408.33,-124.98 426.07,-128.13"/>
<polygon fill="midnightblue" stroke="midnightblue" points="425.83,-131.65 436.29,-129.95 427.06,-124.76 425.83,-131.65"/>
</g>
<!-- Node6 -->
<g id="node6" class="node">
<title>Node6</title>
<g id="a_node6"><a xlink:href="classInputDevice.html#a9621d2cced8732848d09941f3448c2ee" target="_top" xlink:title=" ">
<polygon fill="white" stroke="black" points="412,-92 412,-111 570,-111 570,-92 412,-92"/>
<text text-anchor="middle" x="491" y="-99" font-family="Helvetica,sans-Serif" font-size="10.00">InputDevice::getSDLPlatform</text>
</a>
</g>
</g>
<!-- Node4&#45;&gt;Node6 -->
<g id="edge5" class="edge">
<title>Node4&#45;&gt;Node6</title>
<path fill="none" stroke="midnightblue" d="M370.16,-102.68C380.6,-102.58 391.31,-102.47 401.84,-102.37"/>
<polygon fill="midnightblue" stroke="midnightblue" points="401.89,-105.87 411.85,-102.27 401.82,-98.87 401.89,-105.87"/>
</g>
<!-- Node4&#45;&gt;Node7 -->
<g id="edge6" class="edge">
<title>Node4&#45;&gt;Node7</title>
<path fill="none" stroke="midnightblue" d="M361.75,-88.47C385.25,-83.71 410.83,-78.53 432.92,-74.06"/>
<polygon fill="midnightblue" stroke="midnightblue" points="433.7,-77.47 442.81,-72.05 432.31,-70.61 433.7,-77.47"/>
</g>
</g>
</svg>
        <g id="navigator" transform="translate(0 0)" fill="#404254">
                <rect fill="#f2f5e9" fill-opacity="0.5" stroke="#606060" stroke-width=".5" x="0" y="0" width="60" height="60"/>
                <use id="zoomplus" xlink:href="#zoomPlus" x="17" y="9" onmousedown="handleZoom(evt,'in')"/>
                <use id="zoomminus" xlink:href="#zoomMin" x="42" y="9" onmousedown="handleZoom(evt,'out')"/>
                <use id="reset" xlink:href="#resetDef" x="30" y="36" onmousedown="handleReset()"/>
                <g id="arrowUp" xlink:href="#dirArrow" transform="translate(30 24)" onmousedown="handlePan(0,-1)">
                  <use xlink:href="#rim" fill="#404040">
                        <set attributeName="fill" to="#808080" begin="arrowUp.mouseover" end="arrowUp.mouseout"/>
                  </use>
                  <path fill="none" stroke="white" stroke-width="1.5" d="M0,-3.0v7 M-2.5,-0.5L0,-3.0L2.5,-0.5"/>
                </g>
                <g id="arrowRight" xlink:href="#dirArrow" transform="rotate(90) translate(36 -43)" onmousedown="handlePan(1,0)">
                  <use xlink:href="#rim" fill="#404040">
                        <set attributeName="fill" to="#808080" begin="arrowRight.mouseover" end="arrowRight.mouseout"/>
                  </use>
                  <path fill="none" stroke="white" stroke-width="1.5" d="M0,-3.0v7 M-2.5,-0.5L0,-3.0L2.5,-0.5"/>
                </g>
                <g id="arrowDown" xlink:href="#dirArrow" transform="rotate(180) translate(-30 -48)" onmousedown="handlePan(0,1)">
                  <use xlink:href="#rim" fill="#404040">
                        <set attributeName="fill" to="#808080" begin="arrowDown.mouseover" end="arrowDown.mouseout"/>
                  </use>
                  <path fill="none" stroke="white" stroke-width="1.5" d="M0,-3.0v7 M-2.5,-0.5L0,-3.0L2.5,-0.5"/>
                </g>
                <g id="arrowLeft" xlink:href="#dirArrow" transform="rotate(270) translate(-36 17)" onmousedown="handlePan(-1,0)">
                  <use xlink:href="#rim" fill="#404040">
                        <set attributeName="fill" to="#808080" begin="arrowLeft.mouseover" end="arrowLeft.mouseout"/>
                  </use>
                  <path fill="none" stroke="white" stroke-width="1.5" d="M0,-3.0v7 M-2.5,-0.5L0,-3.0L2.5,-0.5"/>
                </g>
        </g>
        <svg viewBox="0 0 15 15" width="100%" height="30px" preserveAspectRatio="xMaxYMin meet">
         <g id="arrow_out" transform="scale(0.3 0.3)">
          <a xlink:href="classGameControllerMappingDialog_a12fb7328d4a9e9579ff6eb37c76813ab_cgraph_org.svg" target="_base">
           <rect id="button" ry="5" rx="5" y="6" x="6" height="38" width="38"
                fill="#f2f5e9" fill-opacity="0.5" stroke="#606060" stroke-width="1.0"/>
           <path id="arrow"
             d="M 11.500037,31.436501 C 11.940474,20.09759 22.043105,11.32322 32.158766,21.979434 L 37.068811,17.246167 C 37.068811,17.246167 37.088388,32 37.088388,32 L 22.160133,31.978069 C 22.160133,31.978069 26.997745,27.140456 26.997745,27.140456 C 18.528582,18.264221 13.291696,25.230495 11.500037,31.436501 z"
             style="fill:#404040;"/>
          </a>
         </g>
        </svg>
</svg>
