<?xml version="1.0" encoding="UTF-8" standalone="no"?>
<!DOCTYPE svg PUBLIC "-//W3C//DTD SVG 1.1//EN"
 "http://www.w3.org/Graphics/SVG/1.1/DTD/svg11.dtd">
<!-- Generated by graphviz version 2.43.0 (0)
 -->
<!-- Title: JoyControlStick::getRealJoyIndex Pages: 1 -->
<!--zoomable 323 -->
<svg id="main" version="1.1" xmlns="http://www.w3.org/2000/svg" xmlns:xlink="http://www.w3.org/1999/xlink" xml:space="preserve" onload="init(evt)">
<style type="text/css"><![CDATA[
.edge:hover path { stroke: red; }
.edge:hover polygon { stroke: red; fill: red; }
]]></style>
<script type="text/javascript"><![CDATA[
var edges = document.getElementsByTagName('g');
if (edges && edges.length) {
  for (var i=0;i<edges.length;i++) {
    if (edges[i].id.substr(0,4)=='edge') {
      edges[i].setAttribute('class','edge');
    }
  }
}
]]></script>
        <defs>
                <circle id="rim" cx="0" cy="0" r="7"/>
                <circle id="rim2" cx="0" cy="0" r="3.5"/>
                <g id="zoomPlus">
                        <use xlink:href="#rim" fill="#404040">
                                <set attributeName="fill" to="#808080" begin="zoomplus.mouseover" end="zoomplus.mouseout"/>
                        </use>
                        <path d="M-4,0h8M0,-4v8" fill="none" stroke="white" stroke-width="1.5" pointer-events="none"/>
                </g>
                <g id="zoomMin">
                        <use xlink:href="#rim" fill="#404040">
                                <set attributeName="fill" to="#808080" begin="zoomminus.mouseover" end="zoomminus.mouseout"/>
                        </use>
                        <path d="M-4,0h8" fill="none" stroke="white" stroke-width="1.5" pointer-events="none"/>
                </g>
                <g id="dirArrow">
                        <path fill="none" stroke="white" stroke-width="1.5" d="M0,-3.0v7 M-2.5,-0.5L0,-3.0L2.5,-0.5"/>
                </g>
               <g id="resetDef">
                       <use xlink:href="#rim2" fill="#404040">
                               <set attributeName="fill" to="#808080" begin="reset.mouseover" end="reset.mouseout"/>
                       </use>
               </g>
        </defs>

<script type="text/javascript">
var viewWidth = 810;
var viewHeight = 323;
var sectionId = 'dynsection-126';
</script>
<script xlink:href="svgpan.js"/>
<svg id="graph" class="graph">
<g id="viewport">
<title>JoyControlStick::getRealJoyIndex</title>
<polygon fill="white" stroke="transparent" points="-4,4 -4,-319 806,-319 806,4 -4,4"/>
<!-- Node1 -->
<g id="node1" class="node">
<title>Node1</title>
<g id="a_node1"><a xlink:title=" ">
<polygon fill="#bfbfbf" stroke="black" points="668,-76.5 668,-106.5 802,-106.5 802,-76.5 668,-76.5"/>
<text text-anchor="start" x="676" y="-94.5" font-family="Helvetica,sans-Serif" font-size="10.00">JoyControlStick::getReal</text>
<text text-anchor="middle" x="735" y="-83.5" font-family="Helvetica,sans-Serif" font-size="10.00">JoyIndex</text>
</a>
</g>
</g>
<!-- Node2 -->
<g id="node2" class="node">
<title>Node2</title>
<g id="a_node2"><a xlink:href="classJoyControlStick.html#a15845226575e7d1c81bf119653c86a3d" target="_top" xlink:title=" ">
<polygon fill="white" stroke="black" points="459,-153 459,-172 632,-172 632,-153 459,-153"/>
<text text-anchor="middle" x="545.5" y="-160" font-family="Helvetica,sans-Serif" font-size="10.00">JoyControlStick::getPartialName</text>
</a>
</g>
</g>
<!-- Node1&#45;&gt;Node2 -->
<g id="edge1" class="edge">
<title>Node1&#45;&gt;Node2</title>
<path fill="none" stroke="midnightblue" d="M684.81,-110.12C648.55,-123.86 600.7,-141.98 571.84,-152.91"/>
<polygon fill="midnightblue" stroke="midnightblue" points="686.12,-113.37 694.24,-106.56 683.64,-106.83 686.12,-113.37"/>
</g>
<!-- Node11 -->
<g id="node11" class="node">
<title>Node11</title>
<g id="a_node11"><a xlink:href="classInputDeviceXml.html#a12bf094c5ab0ab10dae089e41fbc778c" target="_top" xlink:title="Serializes an InputDevice object into the the given XML stream.">
<polygon fill="white" stroke="black" points="467.5,-63 467.5,-82 623.5,-82 623.5,-63 467.5,-63"/>
<text text-anchor="middle" x="545.5" y="-70" font-family="Helvetica,sans-Serif" font-size="10.00">InputDeviceXml::writeConfig</text>
</a>
</g>
</g>
<!-- Node1&#45;&gt;Node11 -->
<g id="edge10" class="edge">
<title>Node1&#45;&gt;Node11</title>
<path fill="none" stroke="midnightblue" d="M657.68,-83.77C646.42,-82.63 634.82,-81.45 623.55,-80.31"/>
<polygon fill="midnightblue" stroke="midnightblue" points="657.59,-87.28 667.89,-84.8 658.3,-80.31 657.59,-87.28"/>
</g>
<!-- Node3 -->
<g id="node3" class="node">
<title>Node3</title>
<g id="a_node3"><a xlink:href="classJoyControlStickPushButton.html#a0059ca289c5b44dd334330d2b7db5b79" target="_top" xlink:title="Generate the string that will be displayed on the button.">
<polygon fill="white" stroke="black" points="249,-284.5 249,-314.5 395,-314.5 395,-284.5 249,-284.5"/>
<text text-anchor="start" x="257" y="-302.5" font-family="Helvetica,sans-Serif" font-size="10.00">JoyControlStickPushButton</text>
<text text-anchor="middle" x="322" y="-291.5" font-family="Helvetica,sans-Serif" font-size="10.00">::generateLabel</text>
</a>
</g>
</g>
<!-- Node2&#45;&gt;Node3 -->
<g id="edge2" class="edge">
<title>Node2&#45;&gt;Node3</title>
<path fill="none" stroke="midnightblue" d="M530.37,-180.22C509.54,-205.12 468.17,-250.13 423,-274.5 414.34,-279.17 404.78,-282.99 395.12,-286.11"/>
<polygon fill="midnightblue" stroke="midnightblue" points="533.21,-182.27 536.85,-172.32 527.8,-177.83 533.21,-182.27"/>
</g>
<!-- Node4 -->
<g id="node4" class="node">
<title>Node4</title>
<g id="a_node4"><a xlink:href="classJoyControlStick.html#ab76489911cda31a32731a0efce3b10dd" target="_top" xlink:title=" ">
<polygon fill="white" stroke="black" points="251,-246 251,-265 393,-265 393,-246 251,-246"/>
<text text-anchor="middle" x="322" y="-253" font-family="Helvetica,sans-Serif" font-size="10.00">JoyControlStick::getName</text>
</a>
</g>
</g>
<!-- Node2&#45;&gt;Node4 -->
<g id="edge3" class="edge">
<title>Node2&#45;&gt;Node4</title>
<path fill="none" stroke="midnightblue" d="M524.12,-178.1C500.9,-195.09 461.22,-221.79 423,-236.5 412.94,-240.37 402,-243.48 391.16,-245.96"/>
<polygon fill="midnightblue" stroke="midnightblue" points="526.24,-180.89 532.17,-172.11 522.06,-175.27 526.24,-180.89"/>
</g>
<!-- Node5 -->
<g id="node5" class="node">
<title>Node5</title>
<g id="a_node5"><a xlink:href="classJoyControlStickModifierButton.html#a2666f594ac56d2c9d06f74b2b07a23e4" target="_top" xlink:title=" ">
<polygon fill="white" stroke="black" points="240.5,-196.5 240.5,-226.5 403.5,-226.5 403.5,-196.5 240.5,-196.5"/>
<text text-anchor="start" x="248.5" y="-214.5" font-family="Helvetica,sans-Serif" font-size="10.00">JoyControlStickModifierButton</text>
<text text-anchor="middle" x="322" y="-203.5" font-family="Helvetica,sans-Serif" font-size="10.00">::getPartialName</text>
</a>
</g>
</g>
<!-- Node2&#45;&gt;Node5 -->
<g id="edge4" class="edge">
<title>Node2&#45;&gt;Node5</title>
<path fill="none" stroke="midnightblue" d="M491.64,-174.19C461.53,-180.86 423.47,-189.27 391.13,-196.43"/>
<polygon fill="midnightblue" stroke="midnightblue" points="492.52,-177.58 501.53,-172.01 491.01,-170.75 492.52,-177.58"/>
</g>
<!-- Node6 -->
<g id="node6" class="node">
<title>Node6</title>
<g id="a_node6"><a xlink:href="classJoyControlStickButton.html#a1d8721f560ffcdee6bb8cf331b43ec50" target="_top" xlink:title=" ">
<polygon fill="white" stroke="black" points="260.5,-147.5 260.5,-177.5 383.5,-177.5 383.5,-147.5 260.5,-147.5"/>
<text text-anchor="start" x="268.5" y="-165.5" font-family="Helvetica,sans-Serif" font-size="10.00">JoyControlStickButton</text>
<text text-anchor="middle" x="322" y="-154.5" font-family="Helvetica,sans-Serif" font-size="10.00">::getPartialName</text>
</a>
</g>
</g>
<!-- Node2&#45;&gt;Node6 -->
<g id="edge5" class="edge">
<title>Node2&#45;&gt;Node6</title>
<path fill="none" stroke="midnightblue" d="M448.79,-162.5C426.71,-162.5 403.81,-162.5 383.71,-162.5"/>
<polygon fill="midnightblue" stroke="midnightblue" points="448.86,-166 458.86,-162.5 448.86,-159 448.86,-166"/>
</g>
<!-- Node7 -->
<g id="node7" class="node">
<title>Node7</title>
<g id="a_node7"><a xlink:href="classMouseControlStickSettingsDialog.html#a8ff60a784173b38c871484c83b670571" target="_top" xlink:title=" ">
<polygon fill="white" stroke="black" points="221,-98.5 221,-128.5 423,-128.5 423,-98.5 221,-98.5"/>
<text text-anchor="start" x="229" y="-116.5" font-family="Helvetica,sans-Serif" font-size="10.00">MouseControlStickSettings</text>
<text text-anchor="middle" x="322" y="-105.5" font-family="Helvetica,sans-Serif" font-size="10.00">Dialog::updateWindowTitleStickName</text>
</a>
</g>
</g>
<!-- Node2&#45;&gt;Node7 -->
<g id="edge6" class="edge">
<title>Node2&#45;&gt;Node7</title>
<path fill="none" stroke="midnightblue" d="M491.64,-150.81C461.53,-144.14 423.47,-135.73 391.13,-128.57"/>
<polygon fill="midnightblue" stroke="midnightblue" points="491.01,-154.25 501.53,-152.99 492.52,-147.42 491.01,-154.25"/>
</g>
<!-- Node9 -->
<g id="node9" class="node">
<title>Node9</title>
<g id="a_node9"><a xlink:href="classJoyControlStickEditDialog.html#af7427cbc037e7ff1361237c910ad708b" target="_top" xlink:title=" ">
<polygon fill="white" stroke="black" points="237,-49.5 237,-79.5 407,-79.5 407,-49.5 237,-49.5"/>
<text text-anchor="start" x="245" y="-67.5" font-family="Helvetica,sans-Serif" font-size="10.00">JoyControlStickEditDialog</text>
<text text-anchor="middle" x="322" y="-56.5" font-family="Helvetica,sans-Serif" font-size="10.00">::updateWindowTitleStickName</text>
</a>
</g>
</g>
<!-- Node2&#45;&gt;Node9 -->
<g id="edge8" class="edge">
<title>Node2&#45;&gt;Node9</title>
<path fill="none" stroke="midnightblue" d="M523.17,-146.99C499.68,-130.58 460.29,-104.96 423,-89.5 413.91,-85.73 404.11,-82.43 394.32,-79.56"/>
<polygon fill="midnightblue" stroke="midnightblue" points="521.17,-149.87 531.35,-152.79 525.21,-144.16 521.17,-149.87"/>
</g>
<!-- Node8 -->
<g id="node8" class="node">
<title>Node8</title>
<g id="a_node8"><a xlink:href="classMouseControlStickSettingsDialog.html#aac9d5ef09dced4cee0df95d99ae13369" target="_top" xlink:title=" ">
<polygon fill="white" stroke="black" points="0,-99 0,-140 185,-140 185,-99 0,-99"/>
<text text-anchor="start" x="8" y="-128" font-family="Helvetica,sans-Serif" font-size="10.00">MouseControlStickSettings</text>
<text text-anchor="start" x="8" y="-117" font-family="Helvetica,sans-Serif" font-size="10.00">Dialog::MouseControlStickSettings</text>
<text text-anchor="middle" x="92.5" y="-106" font-family="Helvetica,sans-Serif" font-size="10.00">Dialog</text>
</a>
</g>
</g>
<!-- Node7&#45;&gt;Node8 -->
<g id="edge7" class="edge">
<title>Node7&#45;&gt;Node8</title>
<path fill="none" stroke="midnightblue" d="M210.79,-116.41C202.17,-116.63 193.52,-116.86 185.05,-117.09"/>
<polygon fill="midnightblue" stroke="midnightblue" points="210.98,-119.9 220.88,-116.14 210.8,-112.91 210.98,-119.9"/>
</g>
<!-- Node10 -->
<g id="node10" class="node">
<title>Node10</title>
<g id="a_node10"><a xlink:href="classJoyControlStickEditDialog.html#a2baa35c50ff7528a03ec6f2ba1ed657d" target="_top" xlink:title=" ">
<polygon fill="white" stroke="black" points="19,-49.5 19,-79.5 166,-79.5 166,-49.5 19,-49.5"/>
<text text-anchor="start" x="27" y="-67.5" font-family="Helvetica,sans-Serif" font-size="10.00">JoyControlStickEditDialog</text>
<text text-anchor="middle" x="92.5" y="-56.5" font-family="Helvetica,sans-Serif" font-size="10.00">::JoyControlStickEditDialog</text>
</a>
</g>
</g>
<!-- Node9&#45;&gt;Node10 -->
<g id="edge9" class="edge">
<title>Node9&#45;&gt;Node10</title>
<path fill="none" stroke="midnightblue" d="M226.74,-64.5C206.45,-64.5 185.31,-64.5 166,-64.5"/>
<polygon fill="midnightblue" stroke="midnightblue" points="226.93,-68 236.93,-64.5 226.93,-61 226.93,-68"/>
</g>
<!-- Node12 -->
<g id="node12" class="node">
<title>Node12</title>
<g id="a_node12"><a xlink:href="classXMLConfigWriter.html#aacd0a3991eedf223f3586d33559903d4" target="_top" xlink:title="Write input device config from the current object into XML file.">
<polygon fill="white" stroke="black" points="257.5,-9 257.5,-28 386.5,-28 386.5,-9 257.5,-9"/>
<text text-anchor="middle" x="322" y="-16" font-family="Helvetica,sans-Serif" font-size="10.00">XMLConfigWriter::write</text>
</a>
</g>
</g>
<!-- Node11&#45;&gt;Node12 -->
<g id="edge11" class="edge">
<title>Node11&#45;&gt;Node12</title>
<path fill="none" stroke="midnightblue" d="M501.5,-60.17C478.33,-53.69 449.19,-45.8 423,-39.5 406.18,-35.45 387.67,-31.44 371.19,-28.03"/>
<polygon fill="midnightblue" stroke="midnightblue" points="500.8,-63.6 511.37,-62.94 502.69,-56.87 500.8,-63.6"/>
</g>
<!-- Node13 -->
<g id="node13" class="node">
<title>Node13</title>
<g id="a_node13"><a xlink:href="classJoyTabWidgetHelper.html#ad1754369989cbe4a3e10c8c01e3fb89b" target="_top" xlink:title="XML write entry point for the GUI.">
<polygon fill="white" stroke="black" points="35,-0.5 35,-30.5 150,-30.5 150,-0.5 35,-0.5"/>
<text text-anchor="start" x="43" y="-18.5" font-family="Helvetica,sans-Serif" font-size="10.00">JoyTabWidgetHelper</text>
<text text-anchor="middle" x="92.5" y="-7.5" font-family="Helvetica,sans-Serif" font-size="10.00">::writeConfigFile</text>
</a>
</g>
</g>
<!-- Node12&#45;&gt;Node13 -->
<g id="edge12" class="edge">
<title>Node12&#45;&gt;Node13</title>
<path fill="none" stroke="midnightblue" d="M247.27,-17.53C215.76,-17.11 179.54,-16.63 150.17,-16.25"/>
<polygon fill="midnightblue" stroke="midnightblue" points="247.28,-21.03 257.33,-17.66 247.37,-14.03 247.28,-21.03"/>
</g>
</g>
</svg>
        <g id="navigator" transform="translate(0 0)" fill="#404254">
                <rect fill="#f2f5e9" fill-opacity="0.5" stroke="#606060" stroke-width=".5" x="0" y="0" width="60" height="60"/>
                <use id="zoomplus" xlink:href="#zoomPlus" x="17" y="9" onmousedown="handleZoom(evt,'in')"/>
                <use id="zoomminus" xlink:href="#zoomMin" x="42" y="9" onmousedown="handleZoom(evt,'out')"/>
                <use id="reset" xlink:href="#resetDef" x="30" y="36" onmousedown="handleReset()"/>
                <g id="arrowUp" xlink:href="#dirArrow" transform="translate(30 24)" onmousedown="handlePan(0,-1)">
                  <use xlink:href="#rim" fill="#404040">
                        <set attributeName="fill" to="#808080" begin="arrowUp.mouseover" end="arrowUp.mouseout"/>
                  </use>
                  <path fill="none" stroke="white" stroke-width="1.5" d="M0,-3.0v7 M-2.5,-0.5L0,-3.0L2.5,-0.5"/>
                </g>
                <g id="arrowRight" xlink:href="#dirArrow" transform="rotate(90) translate(36 -43)" onmousedown="handlePan(1,0)">
                  <use xlink:href="#rim" fill="#404040">
                        <set attributeName="fill" to="#808080" begin="arrowRight.mouseover" end="arrowRight.mouseout"/>
                  </use>
                  <path fill="none" stroke="white" stroke-width="1.5" d="M0,-3.0v7 M-2.5,-0.5L0,-3.0L2.5,-0.5"/>
                </g>
                <g id="arrowDown" xlink:href="#dirArrow" transform="rotate(180) translate(-30 -48)" onmousedown="handlePan(0,1)">
                  <use xlink:href="#rim" fill="#404040">
                        <set attributeName="fill" to="#808080" begin="arrowDown.mouseover" end="arrowDown.mouseout"/>
                  </use>
                  <path fill="none" stroke="white" stroke-width="1.5" d="M0,-3.0v7 M-2.5,-0.5L0,-3.0L2.5,-0.5"/>
                </g>
                <g id="arrowLeft" xlink:href="#dirArrow" transform="rotate(270) translate(-36 17)" onmousedown="handlePan(-1,0)">
                  <use xlink:href="#rim" fill="#404040">
                        <set attributeName="fill" to="#808080" begin="arrowLeft.mouseover" end="arrowLeft.mouseout"/>
                  </use>
                  <path fill="none" stroke="white" stroke-width="1.5" d="M0,-3.0v7 M-2.5,-0.5L0,-3.0L2.5,-0.5"/>
                </g>
        </g>
        <svg viewBox="0 0 15 15" width="100%" height="30px" preserveAspectRatio="xMaxYMin meet">
         <g id="arrow_out" transform="scale(0.3 0.3)">
          <a xlink:href="classJoyControlStick_a56be6df75476edd92b67205c4517b9d5_icgraph_org.svg" target="_base">
           <rect id="button" ry="5" rx="5" y="6" x="6" height="38" width="38"
                fill="#f2f5e9" fill-opacity="0.5" stroke="#606060" stroke-width="1.0"/>
           <path id="arrow"
             d="M 11.500037,31.436501 C 11.940474,20.09759 22.043105,11.32322 32.158766,21.979434 L 37.068811,17.246167 C 37.068811,17.246167 37.088388,32 37.088388,32 L 22.160133,31.978069 C 22.160133,31.978069 26.997745,27.140456 26.997745,27.140456 C 18.528582,18.264221 13.291696,25.230495 11.500037,31.436501 z"
             style="fill:#404040;"/>
          </a>
         </g>
        </svg>
</svg>
