<?xml version="1.0" encoding="UTF-8" standalone="no"?>
<!DOCTYPE svg PUBLIC "-//W3C//DTD SVG 1.1//EN"
 "http://www.w3.org/Graphics/SVG/1.1/DTD/svg11.dtd">
<!-- Generated by graphviz version 2.43.0 (0)
 -->
<!-- Title: AdvanceButtonDialog::clearAllSlots Pages: 1 -->
<svg width="516pt" height="86pt"
 viewBox="0.00 0.00 516.00 86.00" xmlns="http://www.w3.org/2000/svg" xmlns:xlink="http://www.w3.org/1999/xlink">
<g id="graph0" class="graph" transform="scale(1 1) rotate(0) translate(4 82)">
<title>AdvanceButtonDialog::clearAllSlots</title>
<!-- Node1 -->
<g id="Node000001" class="node">
<title>Node1</title>
<g id="a_Node000001"><a xlink:title=" ">
<polygon fill="#999999" stroke="#666666" points="508,-54 386,-54 386,-24 508,-24 508,-54"/>
<text text-anchor="start" x="394" y="-42" font-family="Helvetica,sans-Serif" font-size="10.00">AdvanceButtonDialog</text>
<text text-anchor="middle" x="447" y="-31" font-family="Helvetica,sans-Serif" font-size="10.00">::clearAllSlots</text>
</a>
</g>
</g>
<!-- Node2 -->
<g id="Node000002" class="node">
<title>Node2</title>
<g id="a_Node000002"><a xlink:href="classAdvanceButtonDialog.html#a4f9a1a007f50de1c3cca1403d08a0790" target="_top" xlink:title=" ">
<polygon fill="white" stroke="#666666" points="325.5,-78 197.5,-78 197.5,-48 325.5,-48 325.5,-78"/>
<text text-anchor="start" x="205.5" y="-66" font-family="Helvetica,sans-Serif" font-size="10.00">AdvanceButtonDialog</text>
<text text-anchor="middle" x="261.5" y="-55" font-family="Helvetica,sans-Serif" font-size="10.00">::AdvanceButtonDialog</text>
</a>
</g>
</g>
<!-- Node1&#45;&gt;Node2 -->
<g id="edge1_Node000001_Node000002" class="edge">
<title>Node1&#45;&gt;Node2</title>
<g id="a_edge1_Node000001_Node000002"><a xlink:title=" ">
<path fill="none" stroke="#63b8ff" d="M375.78,-48.18C359.25,-50.35 341.74,-52.64 325.56,-54.75"/>
<polygon fill="#63b8ff" stroke="#63b8ff" points="376.45,-51.63 385.92,-46.86 375.55,-44.68 376.45,-51.63"/>
</a>
</g>
</g>
<!-- Node3 -->
<g id="Node000003" class="node">
<title>Node3</title>
<g id="a_Node000003"><a xlink:href="classButtonEditDialog.html#ade8d1ee4ae03d1080932a70c8170d488" target="_top" xlink:title=" ">
<polygon fill="white" stroke="#666666" points="350,-30 173,-30 173,0 350,0 350,-30"/>
<text text-anchor="start" x="181" y="-18" font-family="Helvetica,sans-Serif" font-size="10.00">ButtonEditDialog::openAdvanced</text>
<text text-anchor="middle" x="261.5" y="-7" font-family="Helvetica,sans-Serif" font-size="10.00">Dialog</text>
</a>
</g>
</g>
<!-- Node1&#45;&gt;Node3 -->
<g id="edge2_Node000001_Node000003" class="edge">
<title>Node1&#45;&gt;Node3</title>
<g id="a_edge2_Node000001_Node000003"><a xlink:title=" ">
<path fill="none" stroke="#63b8ff" d="M375.78,-29.82C367.34,-28.71 358.65,-27.58 350.01,-26.45"/>
<polygon fill="#63b8ff" stroke="#63b8ff" points="375.55,-33.32 385.92,-31.14 376.45,-26.37 375.55,-33.32"/>
</a>
</g>
</g>
<!-- Node4 -->
<g id="Node000004" class="node">
<title>Node4</title>
<g id="a_Node000004"><a xlink:href="classButtonEditDialog.html#a3e9feede100cbb6a11c9d87659c196ea" target="_top" xlink:title=" ">
<polygon fill="white" stroke="#666666" points="137,-30 0,-30 0,0 137,0 137,-30"/>
<text text-anchor="start" x="8" y="-18" font-family="Helvetica,sans-Serif" font-size="10.00">ButtonEditDialog::Button</text>
<text text-anchor="middle" x="68.5" y="-7" font-family="Helvetica,sans-Serif" font-size="10.00">EditDialog</text>
</a>
</g>
</g>
<!-- Node3&#45;&gt;Node4 -->
<g id="edge3_Node000003_Node000004" class="edge">
<title>Node3&#45;&gt;Node4</title>
<g id="a_edge3_Node000003_Node000004"><a xlink:title=" ">
<path fill="none" stroke="#63b8ff" d="M162.71,-15C154.09,-15 145.49,-15 137.2,-15"/>
<polygon fill="#63b8ff" stroke="#63b8ff" points="162.83,-18.5 172.83,-15 162.83,-11.5 162.83,-18.5"/>
</a>
</g>
</g>
</g>
</svg>
