<?xml version="1.0" encoding="UTF-8" standalone="no"?>
<!DOCTYPE svg PUBLIC "-//W3C//DTD SVG 1.1//EN"
 "http://www.w3.org/Graphics/SVG/1.1/DTD/svg11.dtd">
<!-- Generated by graphviz version 2.43.0 (0)
 -->
<!-- Title: InputDevice::changeSetAxisButtonAssociation Pages: 1 -->
<!--zoomable 496 -->
<svg id="main" version="1.1" xmlns="http://www.w3.org/2000/svg" xmlns:xlink="http://www.w3.org/1999/xlink" xml:space="preserve" onload="init(evt)">
<style type="text/css"><![CDATA[
.edge:hover path { stroke: red; }
.edge:hover polygon { stroke: red; fill: red; }
]]></style>
<script type="text/javascript"><![CDATA[
var edges = document.getElementsByTagName('g');
if (edges && edges.length) {
  for (var i=0;i<edges.length;i++) {
    if (edges[i].id.substr(0,4)=='edge') {
      edges[i].setAttribute('class','edge');
    }
  }
}
]]></script>
        <defs>
                <circle id="rim" cx="0" cy="0" r="7"/>
                <circle id="rim2" cx="0" cy="0" r="3.5"/>
                <g id="zoomPlus">
                        <use xlink:href="#rim" fill="#404040">
                                <set attributeName="fill" to="#808080" begin="zoomplus.mouseover" end="zoomplus.mouseout"/>
                        </use>
                        <path d="M-4,0h8M0,-4v8" fill="none" stroke="white" stroke-width="1.5" pointer-events="none"/>
                </g>
                <g id="zoomMin">
                        <use xlink:href="#rim" fill="#404040">
                                <set attributeName="fill" to="#808080" begin="zoomminus.mouseover" end="zoomminus.mouseout"/>
                        </use>
                        <path d="M-4,0h8" fill="none" stroke="white" stroke-width="1.5" pointer-events="none"/>
                </g>
                <g id="dirArrow">
                        <path fill="none" stroke="white" stroke-width="1.5" d="M0,-3.0v7 M-2.5,-0.5L0,-3.0L2.5,-0.5"/>
                </g>
               <g id="resetDef">
                       <use xlink:href="#rim2" fill="#404040">
                               <set attributeName="fill" to="#808080" begin="reset.mouseover" end="reset.mouseout"/>
                       </use>
               </g>
        </defs>

<script type="text/javascript">
var viewWidth = 2720;
var viewHeight = 496;
var sectionId = 'dynsection-33';
</script>
<script xlink:href="svgpan.js"/>
<svg id="graph" class="graph">
<g id="viewport">
<title>InputDevice::changeSetAxisButtonAssociation</title>
<polygon fill="white" stroke="transparent" points="-4,4 -4,-492 2716,-492 2716,4 -4,4"/>
<!-- Node1 -->
<g id="node1" class="node">
<title>Node1</title>
<g id="a_node1"><a xlink:title=" ">
<polygon fill="#bfbfbf" stroke="black" points="0,-126.5 0,-156.5 153,-156.5 153,-126.5 0,-126.5"/>
<text text-anchor="start" x="8" y="-144.5" font-family="Helvetica,sans-Serif" font-size="10.00">InputDevice::changeSetAxis</text>
<text text-anchor="middle" x="76.5" y="-133.5" font-family="Helvetica,sans-Serif" font-size="10.00">ButtonAssociation</text>
</a>
</g>
</g>
<!-- Node2 -->
<g id="node2" class="node">
<title>Node2</title>
<g id="a_node2"><a xlink:href="classInputDevice.html#af6633e823a5d5d441940cf923d9249a6" target="_top" xlink:title=" ">
<polygon fill="white" stroke="black" points="189,-176 189,-195 350,-195 350,-176 189,-176"/>
<text text-anchor="middle" x="269.5" y="-183" font-family="Helvetica,sans-Serif" font-size="10.00">InputDevice::getJoystick_sets</text>
</a>
</g>
</g>
<!-- Node1&#45;&gt;Node2 -->
<g id="edge1" class="edge">
<title>Node1&#45;&gt;Node2</title>
<path fill="none" stroke="midnightblue" d="M142.7,-156.52C167.08,-162.14 194.4,-168.43 217.34,-173.71"/>
<polygon fill="midnightblue" stroke="midnightblue" points="216.68,-177.15 227.21,-175.99 218.25,-170.33 216.68,-177.15"/>
</g>
<!-- Node3 -->
<g id="node3" class="node">
<title>Node3</title>
<g id="a_node3"><a xlink:href="classJoyAxisButton.html#a739f27b3f9c6714869cade651c62aa00" target="_top" xlink:title=" ">
<polygon fill="white" stroke="black" points="198,-126.5 198,-156.5 341,-156.5 341,-126.5 198,-126.5"/>
<text text-anchor="start" x="206" y="-144.5" font-family="Helvetica,sans-Serif" font-size="10.00">JoyAxisButton::setChange</text>
<text text-anchor="middle" x="269.5" y="-133.5" font-family="Helvetica,sans-Serif" font-size="10.00">SetCondition</text>
</a>
</g>
</g>
<!-- Node1&#45;&gt;Node3 -->
<g id="edge2" class="edge">
<title>Node1&#45;&gt;Node3</title>
<path fill="none" stroke="midnightblue" d="M153.26,-141.5C164.51,-141.5 176.13,-141.5 187.48,-141.5"/>
<polygon fill="midnightblue" stroke="midnightblue" points="187.8,-145 197.8,-141.5 187.8,-138 187.8,-145"/>
</g>
<!-- Node44 -->
<g id="node44" class="node">
<title>Node44</title>
<g id="a_node44"><a xlink:href="classJoyButton.html#af7ffbb38754f3f898935e6cc975ebb6a" target="_top" xlink:title=" ">
<polygon fill="white" stroke="black" points="386,-91 386,-110 568,-110 568,-91 386,-91"/>
<text text-anchor="middle" x="477" y="-98" font-family="Helvetica,sans-Serif" font-size="10.00">JoyButton::setChangeSetSelection</text>
</a>
</g>
</g>
<!-- Node1&#45;&gt;Node44 -->
<g id="edge57" class="edge">
<title>Node1&#45;&gt;Node44</title>
<path fill="none" stroke="midnightblue" d="M136.19,-126.44C153.13,-122.61 171.71,-118.9 189,-116.5 250.66,-107.93 320.37,-103.91 375.64,-102.05"/>
<polygon fill="midnightblue" stroke="midnightblue" points="375.91,-105.54 385.79,-101.72 375.68,-98.54 375.91,-105.54"/>
</g>
<!-- Node4 -->
<g id="node4" class="node">
<title>Node4</title>
<g id="a_node4"><a xlink:href="classJoyButton.html#ad2df77b5daa94a848b015265ec1869d6" target="_top" xlink:title="Generate active zone string and notify other objects.">
<polygon fill="white" stroke="black" points="604,-123.5 604,-153.5 753,-153.5 753,-123.5 604,-123.5"/>
<text text-anchor="start" x="612" y="-141.5" font-family="Helvetica,sans-Serif" font-size="10.00">JoyButton::buildActiveZone</text>
<text text-anchor="middle" x="678.5" y="-130.5" font-family="Helvetica,sans-Serif" font-size="10.00">SummaryString</text>
</a>
</g>
</g>
<!-- Node3&#45;&gt;Node4 -->
<g id="edge3" class="edge">
<title>Node3&#45;&gt;Node4</title>
<path fill="none" stroke="midnightblue" d="M341.19,-152.86C355.96,-154.79 371.46,-156.5 386,-157.5 466.7,-163.06 487.41,-164.44 568,-157.5 576.36,-156.78 585.04,-155.76 593.69,-154.55"/>
<polygon fill="midnightblue" stroke="midnightblue" points="594.42,-157.98 603.8,-153.07 593.4,-151.06 594.42,-157.98"/>
</g>
<!-- Node43 -->
<g id="node43" class="node">
<title>Node43</title>
<g id="a_node43"><a xlink:href="classJoyAxis.html#afddf7399e2086fda738fe588f5e7d7cd" target="_top" xlink:title=" ">
<polygon fill="white" stroke="black" points="426.5,-129 426.5,-148 527.5,-148 527.5,-129 426.5,-129"/>
<text text-anchor="middle" x="477" y="-136" font-family="Helvetica,sans-Serif" font-size="10.00">JoyAxis::getIndex</text>
</a>
</g>
</g>
<!-- Node3&#45;&gt;Node43 -->
<g id="edge54" class="edge">
<title>Node3&#45;&gt;Node43</title>
<path fill="none" stroke="midnightblue" d="M341.22,-140.47C365.59,-140.11 392.64,-139.72 416.07,-139.37"/>
<polygon fill="midnightblue" stroke="midnightblue" points="416.26,-142.87 426.21,-139.23 416.16,-135.87 416.26,-142.87"/>
</g>
<!-- Node3&#45;&gt;Node44 -->
<g id="edge55" class="edge">
<title>Node3&#45;&gt;Node44</title>
<path fill="none" stroke="midnightblue" d="M341.22,-127.39C366.31,-122.38 394.24,-116.81 418.13,-112.05"/>
<polygon fill="midnightblue" stroke="midnightblue" points="418.98,-115.44 428.11,-110.06 417.61,-108.58 418.98,-115.44"/>
</g>
<!-- Node5 -->
<g id="node5" class="node">
<title>Node5</title>
<g id="a_node5"><a xlink:href="classJoyButton.html#ae76ccd3147106953d53a565730c1d8ee" target="_top" xlink:title="Generate a string that represents slots that will be activated or slots that are currently active if ...">
<polygon fill="white" stroke="black" points="789,-148.5 789,-178.5 930,-178.5 930,-148.5 789,-148.5"/>
<text text-anchor="start" x="797" y="-166.5" font-family="Helvetica,sans-Serif" font-size="10.00">JoyButton::getActiveZone</text>
<text text-anchor="middle" x="859.5" y="-155.5" font-family="Helvetica,sans-Serif" font-size="10.00">Summary</text>
</a>
</g>
</g>
<!-- Node4&#45;&gt;Node5 -->
<g id="edge4" class="edge">
<title>Node4&#45;&gt;Node5</title>
<path fill="none" stroke="midnightblue" d="M753.08,-148.78C761.61,-149.97 770.33,-151.19 778.93,-152.39"/>
<polygon fill="midnightblue" stroke="midnightblue" points="778.56,-155.87 788.95,-153.79 779.53,-148.94 778.56,-155.87"/>
</g>
<!-- Node42 -->
<g id="node42" class="node">
<title>Node42</title>
<g id="a_node42"><a xlink:href="classJoyButton.html#a1b49d9ab85f0d5d128e2eca616747018" target="_top" xlink:title=" ">
<polygon fill="white" stroke="black" points="791,-99.5 791,-129.5 928,-129.5 928,-99.5 791,-99.5"/>
<text text-anchor="start" x="799" y="-117.5" font-family="Helvetica,sans-Serif" font-size="10.00">JoyButton::lockForWrited</text>
<text text-anchor="middle" x="859.5" y="-106.5" font-family="Helvetica,sans-Serif" font-size="10.00">String</text>
</a>
</g>
</g>
<!-- Node4&#45;&gt;Node42 -->
<g id="edge53" class="edge">
<title>Node4&#45;&gt;Node42</title>
<path fill="none" stroke="midnightblue" d="M753.08,-128.63C762.29,-127.4 771.72,-126.13 780.99,-124.89"/>
<polygon fill="midnightblue" stroke="midnightblue" points="781.51,-128.35 790.95,-123.56 780.58,-121.42 781.51,-128.35"/>
</g>
<!-- Node6 -->
<g id="node6" class="node">
<title>Node6</title>
<g id="a_node6"><a xlink:href="classJoyButton.html#a9404c4ca344265ce68c0eb9b6b95048b" target="_top" xlink:title=" ">
<polygon fill="white" stroke="black" points="970.5,-118.5 970.5,-148.5 1119.5,-148.5 1119.5,-118.5 970.5,-118.5"/>
<text text-anchor="start" x="978.5" y="-136.5" font-family="Helvetica,sans-Serif" font-size="10.00">JoyButton::buildActiveZone</text>
<text text-anchor="middle" x="1045" y="-125.5" font-family="Helvetica,sans-Serif" font-size="10.00">Summary</text>
</a>
</g>
</g>
<!-- Node5&#45;&gt;Node6 -->
<g id="edge5" class="edge">
<title>Node5&#45;&gt;Node6</title>
<path fill="none" stroke="midnightblue" d="M930.14,-152.12C940.02,-150.5 950.27,-148.82 960.39,-147.17"/>
<polygon fill="midnightblue" stroke="midnightblue" points="961.14,-150.59 970.44,-145.53 960.01,-143.69 961.14,-150.59"/>
</g>
<!-- Node40 -->
<g id="node40" class="node">
<title>Node40</title>
<g id="a_node40"><a xlink:href="classJoyButton.html#a7494c1753b3f16ba988076e9eb34ff47" target="_top" xlink:title=" ">
<polygon fill="white" stroke="black" points="966,-184 966,-203 1124,-203 1124,-184 966,-184"/>
<text text-anchor="middle" x="1045" y="-191" font-family="Helvetica,sans-Serif" font-size="10.00">JoyButton::getActiveZoneList</text>
</a>
</g>
</g>
<!-- Node5&#45;&gt;Node40 -->
<g id="edge48" class="edge">
<title>Node5&#45;&gt;Node40</title>
<path fill="none" stroke="midnightblue" d="M930.14,-174.88C945.05,-177.32 960.78,-179.9 975.65,-182.32"/>
<polygon fill="midnightblue" stroke="midnightblue" points="975.34,-185.82 985.77,-183.98 976.47,-178.91 975.34,-185.82"/>
</g>
<!-- Node7 -->
<g id="node7" class="node">
<title>Node7</title>
<g id="a_node7"><a xlink:href="classJoyButton.html#a773bbe39b094a62cd17776acc06efac6" target="_top" xlink:title=" ">
<polygon fill="white" stroke="black" points="1162.5,-58.5 1162.5,-88.5 1311.5,-88.5 1311.5,-58.5 1162.5,-58.5"/>
<text text-anchor="start" x="1170.5" y="-76.5" font-family="Helvetica,sans-Serif" font-size="10.00">JoyButton::buildActiveZone</text>
<text text-anchor="middle" x="1237" y="-65.5" font-family="Helvetica,sans-Serif" font-size="10.00">SummarySwitchSlots</text>
</a>
</g>
</g>
<!-- Node6&#45;&gt;Node7 -->
<g id="edge6" class="edge">
<title>Node6&#45;&gt;Node7</title>
<path fill="none" stroke="midnightblue" d="M1093.95,-118.36C1119.7,-110.23 1151.62,-100.15 1178.67,-91.6"/>
<polygon fill="midnightblue" stroke="midnightblue" points="1179.92,-94.88 1188.4,-88.53 1177.81,-88.21 1179.92,-94.88"/>
</g>
<!-- Node10 -->
<g id="node10" class="node">
<title>Node10</title>
<g id="a_node10"><a xlink:href="classJoyButtonSlot.html#a4fb0606a34134786bc642627bc25aedd" target="_top" xlink:title=" ">
<polygon fill="white" stroke="black" points="1553,-20 1553,-39 1699,-39 1699,-20 1553,-20"/>
<text text-anchor="middle" x="1626" y="-27" font-family="Helvetica,sans-Serif" font-size="10.00">JoyButtonSlot::getMixSlots</text>
</a>
</g>
</g>
<!-- Node6&#45;&gt;Node10 -->
<g id="edge45" class="edge">
<title>Node6&#45;&gt;Node10</title>
<path fill="none" stroke="midnightblue" d="M1060.1,-118.38C1080.08,-98.15 1118.82,-63.1 1160,-48.5 1289.31,-2.65 1451.68,-9.26 1546.34,-18.92"/>
<polygon fill="midnightblue" stroke="midnightblue" points="1546.1,-22.41 1556.42,-19.98 1546.84,-15.45 1546.1,-22.41"/>
</g>
<!-- Node37 -->
<g id="node37" class="node">
<title>Node37</title>
<g id="a_node37"><a xlink:href="classJoyButton.html#a64f1660931aea2fa8df1bf5e313c05ba" target="_top" xlink:title=" ">
<polygon fill="white" stroke="black" points="1167,-184 1167,-203 1307,-203 1307,-184 1167,-184"/>
<text text-anchor="middle" x="1237" y="-191" font-family="Helvetica,sans-Serif" font-size="10.00">JoyButton::getActiveSlots</text>
</a>
</g>
</g>
<!-- Node6&#45;&gt;Node37 -->
<g id="edge44" class="edge">
<title>Node6&#45;&gt;Node37</title>
<path fill="none" stroke="midnightblue" d="M1084.72,-148.52C1106.63,-156.74 1134.64,-166.79 1160,-174.5 1168.04,-176.95 1176.63,-179.32 1185.04,-181.51"/>
<polygon fill="midnightblue" stroke="midnightblue" points="1184.22,-184.91 1194.77,-183.99 1185.95,-178.13 1184.22,-184.91"/>
</g>
<!-- Node38 -->
<g id="node38" class="node">
<title>Node38</title>
<g id="a_node38"><a xlink:href="classJoyButtonSlot.html#a86b4a25191351f28942511012a4e4e4a" target="_top" xlink:title=" ">
<polygon fill="white" stroke="black" points="1162,-146 1162,-165 1312,-165 1312,-146 1162,-146"/>
<text text-anchor="middle" x="1237" y="-153" font-family="Helvetica,sans-Serif" font-size="10.00">JoyButtonSlot::getSlotMode</text>
</a>
</g>
</g>
<!-- Node6&#45;&gt;Node38 -->
<g id="edge46" class="edge">
<title>Node6&#45;&gt;Node38</title>
<path fill="none" stroke="midnightblue" d="M1119.73,-142.04C1130.24,-143.25 1141.12,-144.51 1151.82,-145.75"/>
<polygon fill="midnightblue" stroke="midnightblue" points="1151.66,-149.26 1162,-146.93 1152.47,-142.3 1151.66,-149.26"/>
</g>
<!-- Node39 -->
<g id="node39" class="node">
<title>Node39</title>
<g id="a_node39"><a xlink:href="classJoyButtonSlot.html#aa08ff979d05b38df8f584b77bb750abb" target="_top" xlink:title=" ">
<polygon fill="white" stroke="black" points="1163,-108 1163,-127 1311,-127 1311,-108 1163,-108"/>
<text text-anchor="middle" x="1237" y="-115" font-family="Helvetica,sans-Serif" font-size="10.00">JoyButtonSlot::getTextData</text>
</a>
</g>
</g>
<!-- Node6&#45;&gt;Node39 -->
<g id="edge47" class="edge">
<title>Node6&#45;&gt;Node39</title>
<path fill="none" stroke="midnightblue" d="M1119.73,-127.29C1130.59,-126.38 1141.84,-125.43 1152.88,-124.5"/>
<polygon fill="midnightblue" stroke="midnightblue" points="1153.26,-127.98 1162.94,-123.65 1152.68,-121 1153.26,-127.98"/>
</g>
<!-- Node8 -->
<g id="node8" class="node">
<title>Node8</title>
<g id="a_node8"><a xlink:href="classJoyButton.html#acb0ee9af0f5a44bd07ca5cfbfd026cf6" target="_top" xlink:title=" ">
<polygon fill="white" stroke="black" points="1353.5,-181 1353.5,-200 1498.5,-200 1498.5,-181 1353.5,-181"/>
<text text-anchor="middle" x="1426" y="-188" font-family="Helvetica,sans-Serif" font-size="10.00">JoyButton::findJoySlotsEnd</text>
</a>
</g>
</g>
<!-- Node7&#45;&gt;Node8 -->
<g id="edge7" class="edge">
<title>Node7&#45;&gt;Node8</title>
<path fill="none" stroke="midnightblue" d="M1292.22,-88.54C1299.73,-91.42 1307.19,-94.74 1314,-98.5 1351.32,-119.13 1388.13,-153.05 1408.58,-173.43"/>
<polygon fill="midnightblue" stroke="midnightblue" points="1406.31,-176.11 1415.82,-180.77 1411.29,-171.2 1406.31,-176.11"/>
</g>
<!-- Node9 -->
<g id="node9" class="node">
<title>Node9</title>
<g id="a_node9"><a xlink:href="classJoyButtonSlot.html#a6e10409ded595380cbdcfd5c827ab32a" target="_top" xlink:title=" ">
<polygon fill="white" stroke="black" points="1350,-64 1350,-83 1502,-83 1502,-64 1350,-64"/>
<text text-anchor="middle" x="1426" y="-71" font-family="Helvetica,sans-Serif" font-size="10.00">JoyButtonSlot::getSlotString</text>
</a>
</g>
</g>
<!-- Node7&#45;&gt;Node9 -->
<g id="edge8" class="edge">
<title>Node7&#45;&gt;Node9</title>
<path fill="none" stroke="midnightblue" d="M1311.64,-73.5C1320.87,-73.5 1330.37,-73.5 1339.76,-73.5"/>
<polygon fill="midnightblue" stroke="midnightblue" points="1339.89,-77 1349.89,-73.5 1339.89,-70 1339.89,-77"/>
</g>
<!-- Node9&#45;&gt;Node10 -->
<g id="edge9" class="edge">
<title>Node9&#45;&gt;Node10</title>
<path fill="none" stroke="midnightblue" d="M1469.96,-63.95C1499.93,-57.29 1540.11,-48.36 1572.06,-41.26"/>
<polygon fill="midnightblue" stroke="midnightblue" points="1573.12,-44.61 1582.12,-39.03 1571.6,-37.78 1573.12,-44.61"/>
</g>
<!-- Node12 -->
<g id="node12" class="node">
<title>Node12</title>
<g id="a_node12"><a xlink:href="namespacePadderCommon.html#aaa09739d2df84421a5a3467a06ce941c" target="_top" xlink:title="Returns the &quot;human&#45;readable&quot; name of the given profile.">
<polygon fill="white" stroke="black" points="1538,-61 1538,-80 1714,-80 1714,-61 1538,-61"/>
<text text-anchor="middle" x="1626" y="-68" font-family="Helvetica,sans-Serif" font-size="10.00">PadderCommon::getProfileName</text>
</a>
</g>
</g>
<!-- Node9&#45;&gt;Node12 -->
<g id="edge11" class="edge">
<title>Node9&#45;&gt;Node12</title>
<path fill="none" stroke="midnightblue" d="M1502.14,-72.36C1510.55,-72.23 1519.21,-72.1 1527.85,-71.97"/>
<polygon fill="midnightblue" stroke="midnightblue" points="1528.02,-75.47 1537.97,-71.82 1527.91,-68.47 1528.02,-75.47"/>
</g>
<!-- Node13 -->
<g id="node13" class="node">
<title>Node13</title>
<g id="a_node13"><a xlink:href="event_8cpp.html#a76ce89b71143c1c09343f45f038b4a67" target="_top" xlink:title=" ">
<polygon fill="white" stroke="black" points="1570,-147 1570,-166 1682,-166 1682,-147 1570,-147"/>
<text text-anchor="middle" x="1626" y="-154" font-family="Helvetica,sans-Serif" font-size="10.00">keysymToKeyString</text>
</a>
</g>
</g>
<!-- Node9&#45;&gt;Node13 -->
<g id="edge12" class="edge">
<title>Node9&#45;&gt;Node13</title>
<path fill="none" stroke="midnightblue" d="M1444.74,-83.03C1466.39,-94.44 1504.27,-113.74 1538,-127.5 1552.49,-133.41 1568.69,-139.06 1583.13,-143.77"/>
<polygon fill="midnightblue" stroke="midnightblue" points="1582.23,-147.16 1592.82,-146.88 1584.36,-140.49 1582.23,-147.16"/>
</g>
<!-- Node36 -->
<g id="node36" class="node">
<title>Node36</title>
<g id="a_node36"><a xlink:href="classJoyButtonSlot.html#a37ff2b523177bae4ea6a44b82f2973eb" target="_top" xlink:title=" ">
<polygon fill="white" stroke="black" points="1541,-99 1541,-118 1711,-118 1711,-99 1541,-99"/>
<text text-anchor="middle" x="1626" y="-106" font-family="Helvetica,sans-Serif" font-size="10.00">JoyButtonSlot::movementString</text>
</a>
</g>
</g>
<!-- Node9&#45;&gt;Node36 -->
<g id="edge43" class="edge">
<title>Node9&#45;&gt;Node36</title>
<path fill="none" stroke="midnightblue" d="M1480.84,-83.02C1505.61,-87.4 1535.18,-92.62 1561.07,-97.2"/>
<polygon fill="midnightblue" stroke="midnightblue" points="1560.71,-100.69 1571.17,-98.98 1561.93,-93.8 1560.71,-100.69"/>
</g>
<!-- Node11 -->
<g id="node11" class="node">
<title>Node11</title>
<g id="a_node11"><a xlink:href="classJoyButtonSlot.html#a9ba9cb0dda063a7df5575072c0aabe01" target="_top" xlink:title=" ">
<polygon fill="white" stroke="black" points="1750,-0.5 1750,-30.5 1889,-30.5 1889,-0.5 1750,-0.5"/>
<text text-anchor="start" x="1758" y="-18.5" font-family="Helvetica,sans-Serif" font-size="10.00">JoyButtonSlot::secureMix</text>
<text text-anchor="middle" x="1819.5" y="-7.5" font-family="Helvetica,sans-Serif" font-size="10.00">SlotsInit</text>
</a>
</g>
</g>
<!-- Node10&#45;&gt;Node11 -->
<g id="edge10" class="edge">
<title>Node10&#45;&gt;Node11</title>
<path fill="none" stroke="midnightblue" d="M1699.13,-24.23C1712.39,-23.26 1726.3,-22.24 1739.75,-21.26"/>
<polygon fill="midnightblue" stroke="midnightblue" points="1740.2,-24.73 1749.92,-20.51 1739.69,-17.75 1740.2,-24.73"/>
</g>
<!-- Node14 -->
<g id="node14" class="node">
<title>Node14</title>
<g id="a_node14"><a xlink:href="classX11Extras.html#a643c95dc1de8eb073a0accb41619fe83" target="_top" xlink:title="Get display instance.">
<polygon fill="white" stroke="black" points="1968,-147 1968,-166 2075,-166 2075,-147 1968,-147"/>
<text text-anchor="middle" x="2021.5" y="-154" font-family="Helvetica,sans-Serif" font-size="10.00">X11Extras::display</text>
</a>
</g>
</g>
<!-- Node13&#45;&gt;Node14 -->
<g id="edge13" class="edge">
<title>Node13&#45;&gt;Node14</title>
<path fill="none" stroke="midnightblue" d="M1682.13,-156.5C1754.55,-156.5 1881.43,-156.5 1957.55,-156.5"/>
<polygon fill="midnightblue" stroke="midnightblue" points="1957.94,-160 1967.94,-156.5 1957.94,-153 1957.94,-160"/>
</g>
<!-- Node15 -->
<g id="node15" class="node">
<title>Node15</title>
<g id="a_node15"><a xlink:href="classBaseEventHandler.html#a9a014e472ec57408d16b8b5eed964e90" target="_top" xlink:title=" ">
<polygon fill="white" stroke="black" points="1935.5,-109 1935.5,-128 2107.5,-128 2107.5,-109 1935.5,-109"/>
<text text-anchor="middle" x="2021.5" y="-116" font-family="Helvetica,sans-Serif" font-size="10.00">BaseEventHandler::getIdentifier</text>
</a>
</g>
</g>
<!-- Node13&#45;&gt;Node15 -->
<g id="edge14" class="edge">
<title>Node13&#45;&gt;Node15</title>
<path fill="none" stroke="midnightblue" d="M1682.13,-151.18C1745.08,-145.1 1849.19,-135.04 1925.33,-127.69"/>
<polygon fill="midnightblue" stroke="midnightblue" points="1925.8,-131.16 1935.41,-126.72 1925.12,-124.19 1925.8,-131.16"/>
</g>
<!-- Node16 -->
<g id="node16" class="node">
<title>Node16</title>
<g id="a_node16"><a xlink:href="classX11Extras.html#ace76277fced60e6bd6ff880030338182" target="_top" xlink:title=" ">
<polygon fill="white" stroke="black" points="1957,-463 1957,-482 2086,-482 2086,-463 1957,-463"/>
<text text-anchor="middle" x="2021.5" y="-470" font-family="Helvetica,sans-Serif" font-size="10.00">X11Extras::getInstance</text>
</a>
</g>
</g>
<!-- Node13&#45;&gt;Node16 -->
<g id="edge15" class="edge">
<title>Node13&#45;&gt;Node16</title>
<path fill="none" stroke="midnightblue" d="M1633.41,-166.14C1661.79,-207.98 1781.17,-375 1925,-448.5 1934.23,-453.22 1944.44,-457.04 1954.66,-460.14"/>
<polygon fill="midnightblue" stroke="midnightblue" points="1953.84,-463.55 1964.42,-462.89 1955.74,-456.81 1953.84,-463.55"/>
</g>
<!-- Node19 -->
<g id="node19" class="node">
<title>Node19</title>
<g id="a_node19"><a xlink:href="classEventHandlerFactory.html#a90ce153a19fbb91128bd52eb083ce271" target="_top" xlink:title=" ">
<polygon fill="white" stroke="black" points="1962.5,-185.5 1962.5,-215.5 2080.5,-215.5 2080.5,-185.5 1962.5,-185.5"/>
<text text-anchor="start" x="1970.5" y="-203.5" font-family="Helvetica,sans-Serif" font-size="10.00">EventHandlerFactory</text>
<text text-anchor="middle" x="2021.5" y="-192.5" font-family="Helvetica,sans-Serif" font-size="10.00">::getInstance</text>
</a>
</g>
</g>
<!-- Node13&#45;&gt;Node19 -->
<g id="edge18" class="edge">
<title>Node13&#45;&gt;Node19</title>
<path fill="none" stroke="midnightblue" d="M1682.1,-162.81C1703.32,-165.23 1727.79,-168 1750,-170.5 1818.81,-178.23 1897.49,-186.94 1952.18,-192.98"/>
<polygon fill="midnightblue" stroke="midnightblue" points="1952.13,-196.49 1962.45,-194.11 1952.9,-189.54 1952.13,-196.49"/>
</g>
<!-- Node22 -->
<g id="node22" class="node">
<title>Node22</title>
<g id="a_node22"><a xlink:href="classEventHandlerFactory.html#a4c13007f0ece5bf881080c9c04f1f20d" target="_top" xlink:title=" ">
<polygon fill="white" stroke="black" points="2364.5,-153.5 2364.5,-183.5 2482.5,-183.5 2482.5,-153.5 2364.5,-153.5"/>
<text text-anchor="start" x="2372.5" y="-171.5" font-family="Helvetica,sans-Serif" font-size="10.00">EventHandlerFactory</text>
<text text-anchor="middle" x="2423.5" y="-160.5" font-family="Helvetica,sans-Serif" font-size="10.00">::handler</text>
</a>
</g>
</g>
<!-- Node13&#45;&gt;Node22 -->
<g id="edge24" class="edge">
<title>Node13&#45;&gt;Node22</title>
<path fill="none" stroke="midnightblue" d="M1654.85,-146.9C1748.74,-116.01 2061.43,-25.21 2306,-95.5 2340.78,-105.5 2375.23,-129.26 2397.54,-146.98"/>
<polygon fill="midnightblue" stroke="midnightblue" points="2395.51,-149.83 2405.47,-153.43 2399.92,-144.4 2395.51,-149.83"/>
</g>
<!-- Node24 -->
<g id="node24" class="node">
<title>Node24</title>
<g id="a_node24"><a xlink:href="event_8cpp.html#ad239a34cab482dc3cad5a23a9ac1ad78" target="_top" xlink:title=" ">
<polygon fill="white" stroke="black" points="1762.5,-273 1762.5,-292 1876.5,-292 1876.5,-273 1762.5,-273"/>
<text text-anchor="middle" x="1819.5" y="-280" font-family="Helvetica,sans-Serif" font-size="10.00">keycodeToKeyString</text>
</a>
</g>
</g>
<!-- Node13&#45;&gt;Node24 -->
<g id="edge25" class="edge">
<title>Node13&#45;&gt;Node24</title>
<path fill="none" stroke="midnightblue" d="M1641.71,-166.18C1674.86,-187.99 1755.62,-241.13 1795.48,-267.35"/>
<polygon fill="midnightblue" stroke="midnightblue" points="1793.73,-270.39 1804,-272.96 1797.57,-264.54 1793.73,-270.39"/>
</g>
<!-- Node17 -->
<g id="node17" class="node">
<title>Node17</title>
<g id="a_node17"><a xlink:href="classX11Extras.html#ab9bcb016e23bacb0e988feb8175d2c88" target="_top" xlink:title=" ">
<polygon fill="white" stroke="black" points="2169,-463 2169,-482 2291,-482 2291,-463 2169,-463"/>
<text text-anchor="middle" x="2230" y="-470" font-family="Helvetica,sans-Serif" font-size="10.00">X11Extras::X11Extras</text>
</a>
</g>
</g>
<!-- Node16&#45;&gt;Node17 -->
<g id="edge16" class="edge">
<title>Node16&#45;&gt;Node17</title>
<path fill="none" stroke="midnightblue" d="M2086.14,-472.5C2109.06,-472.5 2135.04,-472.5 2158.51,-472.5"/>
<polygon fill="midnightblue" stroke="midnightblue" points="2158.74,-476 2168.74,-472.5 2158.74,-469 2158.74,-476"/>
</g>
<!-- Node18 -->
<g id="node18" class="node">
<title>Node18</title>
<g id="a_node18"><a xlink:href="classX11Extras.html#a6f63e77ed045e174546d77333672b8f0" target="_top" xlink:title=" ">
<polygon fill="white" stroke="black" points="2349.5,-457.5 2349.5,-487.5 2497.5,-487.5 2497.5,-457.5 2349.5,-457.5"/>
<text text-anchor="start" x="2357.5" y="-475.5" font-family="Helvetica,sans-Serif" font-size="10.00">X11Extras::populateKnown</text>
<text text-anchor="middle" x="2423.5" y="-464.5" font-family="Helvetica,sans-Serif" font-size="10.00">Aliases</text>
</a>
</g>
</g>
<!-- Node17&#45;&gt;Node18 -->
<g id="edge17" class="edge">
<title>Node17&#45;&gt;Node18</title>
<path fill="none" stroke="midnightblue" d="M2291.07,-472.5C2306.33,-472.5 2323,-472.5 2339.19,-472.5"/>
<polygon fill="midnightblue" stroke="midnightblue" points="2339.19,-476 2349.19,-472.5 2339.19,-469 2339.19,-476"/>
</g>
<!-- Node20 -->
<g id="node20" class="node">
<title>Node20</title>
<g id="a_node20"><a xlink:href="classEventHandlerFactory.html#ade5162034acc0f8683725fdb124bece0" target="_top" xlink:title=" ">
<polygon fill="white" stroke="black" points="2160,-126.5 2160,-156.5 2300,-156.5 2300,-126.5 2160,-126.5"/>
<text text-anchor="start" x="2168" y="-144.5" font-family="Helvetica,sans-Serif" font-size="10.00">EventHandlerFactory</text>
<text text-anchor="middle" x="2230" y="-133.5" font-family="Helvetica,sans-Serif" font-size="10.00">::buildEventGeneratorList</text>
</a>
</g>
</g>
<!-- Node19&#45;&gt;Node20 -->
<g id="edge19" class="edge">
<title>Node19&#45;&gt;Node20</title>
<path fill="none" stroke="midnightblue" d="M2080.68,-185.68C2093.03,-182.42 2105.96,-178.92 2118,-175.5 2135.42,-170.55 2154.29,-164.89 2171.44,-159.62"/>
<polygon fill="midnightblue" stroke="midnightblue" points="2172.8,-162.87 2181.32,-156.58 2170.73,-156.18 2172.8,-162.87"/>
</g>
<!-- Node21 -->
<g id="node21" class="node">
<title>Node21</title>
<g id="a_node21"><a xlink:href="classEventHandlerFactory.html#a2f843293b2ea47271fc7bd99bd871fa6" target="_top" xlink:title=" ">
<polygon fill="white" stroke="black" points="2168,-224.5 2168,-254.5 2292,-254.5 2292,-224.5 2168,-224.5"/>
<text text-anchor="start" x="2176" y="-242.5" font-family="Helvetica,sans-Serif" font-size="10.00">EventHandlerFactory</text>
<text text-anchor="middle" x="2230" y="-231.5" font-family="Helvetica,sans-Serif" font-size="10.00">::EventHandlerFactory</text>
</a>
</g>
</g>
<!-- Node19&#45;&gt;Node21 -->
<g id="edge20" class="edge">
<title>Node19&#45;&gt;Node21</title>
<path fill="none" stroke="midnightblue" d="M2080.57,-211.47C2104.58,-216 2132.65,-221.3 2157.88,-226.07"/>
<polygon fill="midnightblue" stroke="midnightblue" points="2157.29,-229.52 2167.76,-227.93 2158.59,-222.64 2157.29,-229.52"/>
</g>
<!-- Node19&#45;&gt;Node22 -->
<g id="edge23" class="edge">
<title>Node19&#45;&gt;Node22</title>
<path fill="none" stroke="midnightblue" d="M2080.75,-192.76C2093.88,-189.05 2107.14,-183.58 2118,-175.5 2142.65,-157.17 2127.21,-131.54 2154,-116.5 2230.17,-73.75 2335.51,-119.29 2388.77,-148.31"/>
<polygon fill="midnightblue" stroke="midnightblue" points="2387.34,-151.52 2397.78,-153.33 2390.75,-145.4 2387.34,-151.52"/>
</g>
<!-- Node23 -->
<g id="node23" class="node">
<title>Node23</title>
<g id="a_node23"><a xlink:href="classEventHandlerFactory.html#afa5ca0171c70b1a24f92b5c8dd00dc92" target="_top" xlink:title=" ">
<polygon fill="white" stroke="black" points="2171,-175.5 2171,-205.5 2289,-205.5 2289,-175.5 2171,-175.5"/>
<text text-anchor="start" x="2179" y="-193.5" font-family="Helvetica,sans-Serif" font-size="10.00">EventHandlerFactory</text>
<text text-anchor="middle" x="2230" y="-182.5" font-family="Helvetica,sans-Serif" font-size="10.00">::fallBackIdentifier</text>
</a>
</g>
</g>
<!-- Node19&#45;&gt;Node23 -->
<g id="edge22" class="edge">
<title>Node19&#45;&gt;Node23</title>
<path fill="none" stroke="midnightblue" d="M2080.57,-197.69C2105.43,-196.48 2134.63,-195.07 2160.53,-193.82"/>
<polygon fill="midnightblue" stroke="midnightblue" points="2160.83,-197.31 2170.65,-193.33 2160.49,-190.31 2160.83,-197.31"/>
</g>
<!-- Node21&#45;&gt;Node22 -->
<g id="edge21" class="edge">
<title>Node21&#45;&gt;Node22</title>
<path fill="none" stroke="midnightblue" d="M2277.55,-224.42C2287,-221.24 2296.84,-217.83 2306,-214.5 2329.39,-205.99 2355.16,-195.89 2376.5,-187.33"/>
<polygon fill="midnightblue" stroke="midnightblue" points="2378,-190.5 2385.97,-183.52 2375.38,-184.01 2378,-190.5"/>
</g>
<!-- Node24&#45;&gt;Node14 -->
<g id="edge26" class="edge">
<title>Node24&#45;&gt;Node14</title>
<path fill="none" stroke="midnightblue" d="M1826.76,-272.93C1841.24,-251.64 1879.35,-200.25 1925,-175.5 1935.11,-170.02 1946.6,-166.11 1958.02,-163.32"/>
<polygon fill="midnightblue" stroke="midnightblue" points="1958.97,-166.69 1967.99,-161.15 1957.48,-159.85 1958.97,-166.69"/>
</g>
<!-- Node24&#45;&gt;Node15 -->
<g id="edge31" class="edge">
<title>Node24&#45;&gt;Node15</title>
<path fill="none" stroke="midnightblue" d="M1824.42,-272.8C1835.65,-246.31 1870.71,-172.4 1925,-137.5 1928.17,-135.46 1931.52,-133.63 1934.98,-131.99"/>
<polygon fill="midnightblue" stroke="midnightblue" points="1936.5,-135.15 1944.39,-128.08 1933.81,-128.69 1936.5,-135.15"/>
</g>
<!-- Node24&#45;&gt;Node16 -->
<g id="edge39" class="edge">
<title>Node24&#45;&gt;Node16</title>
<path fill="none" stroke="midnightblue" d="M1827.64,-292.22C1840.49,-309.84 1868.1,-348.41 1889,-382.5 1906.46,-410.99 1898.58,-428.04 1925,-448.5 1931.53,-453.56 1939.01,-457.56 1946.83,-460.73"/>
<polygon fill="midnightblue" stroke="midnightblue" points="1945.91,-464.12 1956.51,-464.19 1948.27,-457.53 1945.91,-464.12"/>
</g>
<!-- Node24&#45;&gt;Node19 -->
<g id="edge40" class="edge">
<title>Node24&#45;&gt;Node19</title>
<path fill="none" stroke="midnightblue" d="M1835.17,-273C1854.89,-260.58 1891.38,-238.84 1925,-225.5 1933.81,-222.01 1943.27,-218.85 1952.68,-216.06"/>
<polygon fill="midnightblue" stroke="midnightblue" points="1953.79,-219.38 1962.45,-213.28 1951.88,-212.65 1953.79,-219.38"/>
</g>
<!-- Node24&#45;&gt;Node22 -->
<g id="edge41" class="edge">
<title>Node24&#45;&gt;Node22</title>
<path fill="none" stroke="midnightblue" d="M1876.53,-284.72C1987.03,-288.38 2228.98,-292.63 2306,-263.5 2345.74,-248.47 2382.05,-214.13 2403.22,-191.13"/>
<polygon fill="midnightblue" stroke="midnightblue" points="2405.98,-193.29 2410.06,-183.51 2400.78,-188.61 2405.98,-193.29"/>
</g>
<!-- Node25 -->
<g id="node25" class="node">
<title>Node25</title>
<g id="a_node25"><a xlink:href="classWinExtras.html#a3487e64cfb407033d7e28a761d1e76dc" target="_top" xlink:title=" ">
<polygon fill="white" stroke="black" points="1945,-349 1945,-368 2098,-368 2098,-349 1945,-349"/>
<text text-anchor="middle" x="2021.5" y="-356" font-family="Helvetica,sans-Serif" font-size="10.00">WinExtras::getDisplayString</text>
</a>
</g>
</g>
<!-- Node24&#45;&gt;Node25 -->
<g id="edge27" class="edge">
<title>Node24&#45;&gt;Node25</title>
<path fill="none" stroke="midnightblue" d="M1834.72,-292.09C1854.24,-304.81 1890.81,-327.1 1925,-339.5 1932.51,-342.22 1940.51,-344.59 1948.55,-346.64"/>
<polygon fill="midnightblue" stroke="midnightblue" points="1947.82,-350.06 1958.36,-348.98 1949.44,-343.25 1947.82,-350.06"/>
</g>
<!-- Node26 -->
<g id="node26" class="node">
<title>Node26</title>
<g id="a_node26"><a xlink:href="classUInputHelper.html#ac4c70c9479c1cc0eb515ab1bdf2426f5" target="_top" xlink:title=" ">
<polygon fill="white" stroke="black" points="2353.5,-407.5 2353.5,-437.5 2493.5,-437.5 2493.5,-407.5 2353.5,-407.5"/>
<text text-anchor="start" x="2361.5" y="-425.5" font-family="Helvetica,sans-Serif" font-size="10.00">UInputHelper::getDisplay</text>
<text text-anchor="middle" x="2423.5" y="-414.5" font-family="Helvetica,sans-Serif" font-size="10.00">String</text>
</a>
</g>
</g>
<!-- Node24&#45;&gt;Node26 -->
<g id="edge28" class="edge">
<title>Node24&#45;&gt;Node26</title>
<path fill="none" stroke="midnightblue" d="M1855.27,-292.01C1867.29,-296.78 1880,-303.69 1889,-313.5 1921.51,-348.92 1885.95,-387.46 1925,-415.5 1989.75,-462 2219.72,-445.09 2343.02,-432.03"/>
<polygon fill="midnightblue" stroke="midnightblue" points="2343.6,-435.49 2353.16,-430.94 2342.85,-428.53 2343.6,-435.49"/>
</g>
<!-- Node28 -->
<g id="node28" class="node">
<title>Node28</title>
<g id="a_node28"><a xlink:href="classX11Extras.html#abe710bac948c9802105a2d9d06815cac" target="_top" xlink:title="Get appropriate alias for a known KeySym string that might be blank or contain invalid characters whe...">
<polygon fill="white" stroke="black" points="1945,-235 1945,-254 2098,-254 2098,-235 1945,-235"/>
<text text-anchor="middle" x="2021.5" y="-242" font-family="Helvetica,sans-Serif" font-size="10.00">X11Extras::getDisplayString</text>
</a>
</g>
</g>
<!-- Node24&#45;&gt;Node28 -->
<g id="edge30" class="edge">
<title>Node24&#45;&gt;Node28</title>
<path fill="none" stroke="midnightblue" d="M1870.71,-272.96C1897.93,-267.79 1931.76,-261.36 1960.38,-255.92"/>
<polygon fill="midnightblue" stroke="midnightblue" points="1961.1,-259.35 1970.27,-254.04 1959.79,-252.47 1961.1,-259.35"/>
</g>
<!-- Node29 -->
<g id="node29" class="node">
<title>Node29</title>
<g id="a_node29"><a xlink:href="classUInputHelper.html#a61509601d3dbd8933aaa26c1e2db02f6" target="_top" xlink:title=" ">
<polygon fill="white" stroke="black" points="1949.5,-311 1949.5,-330 2093.5,-330 2093.5,-311 1949.5,-311"/>
<text text-anchor="middle" x="2021.5" y="-318" font-family="Helvetica,sans-Serif" font-size="10.00">UInputHelper::getInstance</text>
</a>
</g>
</g>
<!-- Node24&#45;&gt;Node29 -->
<g id="edge32" class="edge">
<title>Node24&#45;&gt;Node29</title>
<path fill="none" stroke="midnightblue" d="M1870.71,-292.04C1897.93,-297.21 1931.76,-303.64 1960.38,-309.08"/>
<polygon fill="midnightblue" stroke="midnightblue" points="1959.79,-312.53 1970.27,-310.96 1961.1,-305.65 1959.79,-312.53"/>
</g>
<!-- Node35 -->
<g id="node35" class="node">
<title>Node35</title>
<g id="a_node35"><a xlink:href="classWinExtras.html#a0bfa711c1abe72486dfebc8ff6fe7f5a" target="_top" xlink:title="Convert a virtual key into the corresponding keyboard scan code.">
<polygon fill="white" stroke="black" points="1925,-387 1925,-406 2118,-406 2118,-387 1925,-387"/>
<text text-anchor="middle" x="2021.5" y="-394" font-family="Helvetica,sans-Serif" font-size="10.00">WinExtras::scancodeFromVirtualKey</text>
</a>
</g>
</g>
<!-- Node24&#45;&gt;Node35 -->
<g id="edge42" class="edge">
<title>Node24&#45;&gt;Node35</title>
<path fill="none" stroke="midnightblue" d="M1827.96,-292.14C1843.63,-311.67 1882.09,-355.86 1925,-377.5 1929.81,-379.93 1934.9,-382.04 1940.14,-383.89"/>
<polygon fill="midnightblue" stroke="midnightblue" points="1939.08,-387.23 1949.67,-386.93 1941.21,-380.56 1939.08,-387.23"/>
</g>
<!-- Node27 -->
<g id="node27" class="node">
<title>Node27</title>
<g id="a_node27"><a xlink:href="classUInputHelper.html#a043b0fa7cf4ce5811d01d95f3ca318b7" target="_top" xlink:title=" ">
<polygon fill="white" stroke="black" points="2541,-407.5 2541,-437.5 2712,-437.5 2712,-407.5 2541,-407.5"/>
<text text-anchor="start" x="2549" y="-425.5" font-family="Helvetica,sans-Serif" font-size="10.00">UInputHelper::getKnownAliases</text>
<text text-anchor="middle" x="2626.5" y="-414.5" font-family="Helvetica,sans-Serif" font-size="10.00">VKStrings</text>
</a>
</g>
</g>
<!-- Node26&#45;&gt;Node27 -->
<g id="edge29" class="edge">
<title>Node26&#45;&gt;Node27</title>
<path fill="none" stroke="midnightblue" d="M2493.67,-422.5C2505.68,-422.5 2518.35,-422.5 2530.9,-422.5"/>
<polygon fill="midnightblue" stroke="midnightblue" points="2530.92,-426 2540.92,-422.5 2530.92,-419 2530.92,-426"/>
</g>
<!-- Node30 -->
<g id="node30" class="node">
<title>Node30</title>
<g id="a_node30"><a xlink:href="classUInputHelper.html#a5d56d23a0e0202435c7a5ff1aca9ce55" target="_top" xlink:title=" ">
<polygon fill="white" stroke="black" points="2154,-313 2154,-332 2306,-332 2306,-313 2154,-313"/>
<text text-anchor="middle" x="2230" y="-320" font-family="Helvetica,sans-Serif" font-size="10.00">UInputHelper::UInputHelper</text>
</a>
</g>
</g>
<!-- Node29&#45;&gt;Node30 -->
<g id="edge33" class="edge">
<title>Node29&#45;&gt;Node30</title>
<path fill="none" stroke="midnightblue" d="M2093.57,-321.19C2109.7,-321.34 2127,-321.51 2143.66,-321.67"/>
<polygon fill="midnightblue" stroke="midnightblue" points="2143.9,-325.18 2153.93,-321.77 2143.97,-318.18 2143.9,-325.18"/>
</g>
<!-- Node31 -->
<g id="node31" class="node">
<title>Node31</title>
<g id="a_node31"><a xlink:href="classUInputHelper.html#a0f4dbb4221502d86f7d0af12a9865568" target="_top" xlink:title=" ">
<polygon fill="white" stroke="black" points="2342,-307.5 2342,-337.5 2505,-337.5 2505,-307.5 2342,-307.5"/>
<text text-anchor="start" x="2350" y="-325.5" font-family="Helvetica,sans-Serif" font-size="10.00">UInputHelper::populateKnown</text>
<text text-anchor="middle" x="2423.5" y="-314.5" font-family="Helvetica,sans-Serif" font-size="10.00">Aliases</text>
</a>
</g>
</g>
<!-- Node30&#45;&gt;Node31 -->
<g id="edge34" class="edge">
<title>Node30&#45;&gt;Node31</title>
<path fill="none" stroke="midnightblue" d="M2306.14,-322.5C2314.57,-322.5 2323.23,-322.5 2331.83,-322.5"/>
<polygon fill="midnightblue" stroke="midnightblue" points="2331.89,-326 2341.89,-322.5 2331.89,-319 2331.89,-326"/>
</g>
<!-- Node31&#45;&gt;Node27 -->
<g id="edge35" class="edge">
<title>Node31&#45;&gt;Node27</title>
<path fill="none" stroke="midnightblue" d="M2445.07,-337.62C2467.67,-353.7 2505.49,-379.02 2541,-395.5 2547.63,-398.58 2554.7,-401.44 2561.82,-404.06"/>
<polygon fill="midnightblue" stroke="midnightblue" points="2560.94,-407.46 2571.54,-407.49 2563.27,-400.86 2560.94,-407.46"/>
</g>
<!-- Node32 -->
<g id="node32" class="node">
<title>Node32</title>
<g id="a_node32"><a xlink:href="classUInputHelper.html#a8f3fe71ae635cd3c46eaab79dd11c2e0" target="_top" xlink:title=" ">
<polygon fill="white" stroke="black" points="2541,-356.5 2541,-386.5 2712,-386.5 2712,-356.5 2541,-356.5"/>
<text text-anchor="start" x="2549" y="-374.5" font-family="Helvetica,sans-Serif" font-size="10.00">UInputHelper::getKnownAliases</text>
<text text-anchor="middle" x="2626.5" y="-363.5" font-family="Helvetica,sans-Serif" font-size="10.00">X11SymVK</text>
</a>
</g>
</g>
<!-- Node31&#45;&gt;Node32 -->
<g id="edge36" class="edge">
<title>Node31&#45;&gt;Node32</title>
<path fill="none" stroke="midnightblue" d="M2486.17,-337.53C2507.59,-342.76 2531.78,-348.65 2553.93,-354.05"/>
<polygon fill="midnightblue" stroke="midnightblue" points="2553.4,-357.53 2563.94,-356.49 2555.06,-350.72 2553.4,-357.53"/>
</g>
<!-- Node33 -->
<g id="node33" class="node">
<title>Node33</title>
<g id="a_node33"><a xlink:href="classUInputHelper.html#a9793030329fbbe1106b255814ef2bd0f" target="_top" xlink:title=" ">
<polygon fill="white" stroke="black" points="2552,-307.5 2552,-337.5 2701,-337.5 2701,-307.5 2552,-307.5"/>
<text text-anchor="start" x="2560" y="-325.5" font-family="Helvetica,sans-Serif" font-size="10.00">UInputHelper::populateX11</text>
<text text-anchor="middle" x="2626.5" y="-314.5" font-family="Helvetica,sans-Serif" font-size="10.00">SymVk</text>
</a>
</g>
</g>
<!-- Node31&#45;&gt;Node33 -->
<g id="edge37" class="edge">
<title>Node31&#45;&gt;Node33</title>
<path fill="none" stroke="midnightblue" d="M2505.1,-322.5C2517.13,-322.5 2529.55,-322.5 2541.65,-322.5"/>
<polygon fill="midnightblue" stroke="midnightblue" points="2541.72,-326 2551.72,-322.5 2541.72,-319 2541.72,-326"/>
</g>
<!-- Node34 -->
<g id="node34" class="node">
<title>Node34</title>
<g id="a_node34"><a xlink:href="classUInputHelper.html#af02574de230bb0550eebb63f5a669681" target="_top" xlink:title=" ">
<polygon fill="white" stroke="black" points="2552,-258.5 2552,-288.5 2701,-288.5 2701,-258.5 2552,-258.5"/>
<text text-anchor="start" x="2560" y="-276.5" font-family="Helvetica,sans-Serif" font-size="10.00">UInputHelper::populateXVk</text>
<text text-anchor="middle" x="2626.5" y="-265.5" font-family="Helvetica,sans-Serif" font-size="10.00">Strings</text>
</a>
</g>
</g>
<!-- Node31&#45;&gt;Node34 -->
<g id="edge38" class="edge">
<title>Node31&#45;&gt;Node34</title>
<path fill="none" stroke="midnightblue" d="M2486.17,-307.47C2507.59,-302.24 2531.78,-296.35 2553.93,-290.95"/>
<polygon fill="midnightblue" stroke="midnightblue" points="2555.06,-294.28 2563.94,-288.51 2553.4,-287.47 2555.06,-294.28"/>
</g>
<!-- Node40&#45;&gt;Node8 -->
<g id="edge49" class="edge">
<title>Node40&#45;&gt;Node8</title>
<path fill="none" stroke="midnightblue" d="M1059.93,-203.17C1080.62,-216.89 1121.24,-241.35 1160,-250.5 1226.61,-266.23 1247.65,-267.29 1314,-250.5 1347.82,-241.94 1382.52,-220.81 1403.91,-206.07"/>
<polygon fill="midnightblue" stroke="midnightblue" points="1406.08,-208.82 1412.23,-200.19 1402.04,-203.1 1406.08,-208.82"/>
</g>
<!-- Node40&#45;&gt;Node37 -->
<g id="edge50" class="edge">
<title>Node40&#45;&gt;Node37</title>
<path fill="none" stroke="midnightblue" d="M1124.1,-193.5C1134.81,-193.5 1145.81,-193.5 1156.53,-193.5"/>
<polygon fill="midnightblue" stroke="midnightblue" points="1156.72,-197 1166.72,-193.5 1156.72,-190 1156.72,-197"/>
</g>
<!-- Node40&#45;&gt;Node38 -->
<g id="edge52" class="edge">
<title>Node40&#45;&gt;Node38</title>
<path fill="none" stroke="midnightblue" d="M1093.95,-183.91C1119.58,-178.78 1151.34,-172.43 1178.32,-167.04"/>
<polygon fill="midnightblue" stroke="midnightblue" points="1179.28,-170.41 1188.4,-165.02 1177.91,-163.55 1179.28,-170.41"/>
</g>
<!-- Node41 -->
<g id="node41" class="node">
<title>Node41</title>
<g id="a_node41"><a xlink:href="classJoyButton.html#ae1d364dfa70f47fae3db99ffbcdea44b" target="_top" xlink:title=" ">
<polygon fill="white" stroke="black" points="1160,-222 1160,-241 1314,-241 1314,-222 1160,-222"/>
<text text-anchor="middle" x="1237" y="-229" font-family="Helvetica,sans-Serif" font-size="10.00">JoyButton::getAssignedSlots</text>
</a>
</g>
</g>
<!-- Node40&#45;&gt;Node41 -->
<g id="edge51" class="edge">
<title>Node40&#45;&gt;Node41</title>
<path fill="none" stroke="midnightblue" d="M1093.95,-203.09C1119.58,-208.22 1151.34,-214.57 1178.32,-219.96"/>
<polygon fill="midnightblue" stroke="midnightblue" points="1177.91,-223.45 1188.4,-221.98 1179.28,-216.59 1177.91,-223.45"/>
</g>
<!-- Node44&#45;&gt;Node4 -->
<g id="edge56" class="edge">
<title>Node44&#45;&gt;Node4</title>
<path fill="none" stroke="midnightblue" d="M528.08,-110.04C547.99,-113.83 571.44,-118.3 593.79,-122.56"/>
<polygon fill="midnightblue" stroke="midnightblue" points="593.15,-126 603.62,-124.43 594.46,-119.12 593.15,-126"/>
</g>
</g>
</svg>
        <g id="navigator" transform="translate(0 0)" fill="#404254">
                <rect fill="#f2f5e9" fill-opacity="0.5" stroke="#606060" stroke-width=".5" x="0" y="0" width="60" height="60"/>
                <use id="zoomplus" xlink:href="#zoomPlus" x="17" y="9" onmousedown="handleZoom(evt,'in')"/>
                <use id="zoomminus" xlink:href="#zoomMin" x="42" y="9" onmousedown="handleZoom(evt,'out')"/>
                <use id="reset" xlink:href="#resetDef" x="30" y="36" onmousedown="handleReset()"/>
                <g id="arrowUp" xlink:href="#dirArrow" transform="translate(30 24)" onmousedown="handlePan(0,-1)">
                  <use xlink:href="#rim" fill="#404040">
                        <set attributeName="fill" to="#808080" begin="arrowUp.mouseover" end="arrowUp.mouseout"/>
                  </use>
                  <path fill="none" stroke="white" stroke-width="1.5" d="M0,-3.0v7 M-2.5,-0.5L0,-3.0L2.5,-0.5"/>
                </g>
                <g id="arrowRight" xlink:href="#dirArrow" transform="rotate(90) translate(36 -43)" onmousedown="handlePan(1,0)">
                  <use xlink:href="#rim" fill="#404040">
                        <set attributeName="fill" to="#808080" begin="arrowRight.mouseover" end="arrowRight.mouseout"/>
                  </use>
                  <path fill="none" stroke="white" stroke-width="1.5" d="M0,-3.0v7 M-2.5,-0.5L0,-3.0L2.5,-0.5"/>
                </g>
                <g id="arrowDown" xlink:href="#dirArrow" transform="rotate(180) translate(-30 -48)" onmousedown="handlePan(0,1)">
                  <use xlink:href="#rim" fill="#404040">
                        <set attributeName="fill" to="#808080" begin="arrowDown.mouseover" end="arrowDown.mouseout"/>
                  </use>
                  <path fill="none" stroke="white" stroke-width="1.5" d="M0,-3.0v7 M-2.5,-0.5L0,-3.0L2.5,-0.5"/>
                </g>
                <g id="arrowLeft" xlink:href="#dirArrow" transform="rotate(270) translate(-36 17)" onmousedown="handlePan(-1,0)">
                  <use xlink:href="#rim" fill="#404040">
                        <set attributeName="fill" to="#808080" begin="arrowLeft.mouseover" end="arrowLeft.mouseout"/>
                  </use>
                  <path fill="none" stroke="white" stroke-width="1.5" d="M0,-3.0v7 M-2.5,-0.5L0,-3.0L2.5,-0.5"/>
                </g>
        </g>
        <svg viewBox="0 0 15 15" width="100%" height="30px" preserveAspectRatio="xMaxYMin meet">
         <g id="arrow_out" transform="scale(0.3 0.3)">
          <a xlink:href="classInputDevice_a8c4b7481037b00a0f8d4efaeb520a9dd_cgraph_org.svg" target="_base">
           <rect id="button" ry="5" rx="5" y="6" x="6" height="38" width="38"
                fill="#f2f5e9" fill-opacity="0.5" stroke="#606060" stroke-width="1.0"/>
           <path id="arrow"
             d="M 11.500037,31.436501 C 11.940474,20.09759 22.043105,11.32322 32.158766,21.979434 L 37.068811,17.246167 C 37.068811,17.246167 37.088388,32 37.088388,32 L 22.160133,31.978069 C 22.160133,31.978069 26.997745,27.140456 26.997745,27.140456 C 18.528582,18.264221 13.291696,25.230495 11.500037,31.436501 z"
             style="fill:#404040;"/>
          </a>
         </g>
        </svg>
</svg>
