<?xml version="1.0" encoding="UTF-8" standalone="no"?>
<!DOCTYPE svg PUBLIC "-//W3C//DTD SVG 1.1//EN"
 "http://www.w3.org/Graphics/SVG/1.1/DTD/svg11.dtd">
<!-- Generated by graphviz version 2.43.0 (0)
 -->
<!-- Title: JoyButton::setChangeSetSelection Pages: 1 -->
<svg width="1502pt" height="598pt"
 viewBox="0.00 0.00 1502.00 597.50" xmlns="http://www.w3.org/2000/svg" xmlns:xlink="http://www.w3.org/1999/xlink">
<g id="graph0" class="graph" transform="scale(1 1) rotate(0) translate(4 593.5)">
<title>JoyButton::setChangeSetSelection</title>
<polygon fill="white" stroke="transparent" points="-4,4 -4,-593.5 1498,-593.5 1498,4 -4,4"/>
<!-- Node1 -->
<g id="node1" class="node">
<title>Node1</title>
<g id="a_node1"><a xlink:title=" ">
<polygon fill="#bfbfbf" stroke="black" points="1312,-284.5 1312,-303.5 1494,-303.5 1494,-284.5 1312,-284.5"/>
<text text-anchor="middle" x="1403" y="-291.5" font-family="Helvetica,sans-Serif" font-size="10.00">JoyButton::setChangeSetSelection</text>
</a>
</g>
</g>
<!-- Node2 -->
<g id="node2" class="node">
<title>Node2</title>
<g id="a_node2"><a xlink:href="classInputDevice.html#a8c4b7481037b00a0f8d4efaeb520a9dd" target="_top" xlink:title=" ">
<polygon fill="white" stroke="black" points="897,-515 897,-545 1050,-545 1050,-515 897,-515"/>
<text text-anchor="start" x="905" y="-533" font-family="Helvetica,sans-Serif" font-size="10.00">InputDevice::changeSetAxis</text>
<text text-anchor="middle" x="973.5" y="-522" font-family="Helvetica,sans-Serif" font-size="10.00">ButtonAssociation</text>
</a>
</g>
</g>
<!-- Node1&#45;&gt;Node2 -->
<g id="edge1" class="edge">
<title>Node1&#45;&gt;Node2</title>
<path fill="none" stroke="midnightblue" d="M1396.41,-313.46C1383.25,-355.38 1346.01,-453.95 1276,-498 1208.39,-540.54 1115,-543.89 1050.14,-539.57"/>
<polygon fill="midnightblue" stroke="midnightblue" points="1399.77,-314.46 1399.31,-303.88 1393.06,-312.44 1399.77,-314.46"/>
</g>
<!-- Node6 -->
<g id="node6" class="node">
<title>Node6</title>
<g id="a_node6"><a xlink:href="classInputDevice.html#adfaa12cfd6363502a049a8bb32b1e992" target="_top" xlink:title=" ">
<polygon fill="white" stroke="black" points="891.5,-194 891.5,-224 1055.5,-224 1055.5,-194 891.5,-194"/>
<text text-anchor="start" x="899.5" y="-212" font-family="Helvetica,sans-Serif" font-size="10.00">InputDevice::changeSetButton</text>
<text text-anchor="middle" x="973.5" y="-201" font-family="Helvetica,sans-Serif" font-size="10.00">Association</text>
</a>
</g>
</g>
<!-- Node1&#45;&gt;Node6 -->
<g id="edge5" class="edge">
<title>Node1&#45;&gt;Node6</title>
<path fill="none" stroke="midnightblue" d="M1377.25,-279.5C1352.51,-265.77 1312.93,-245.84 1276,-236 1203.13,-216.59 1117.22,-210.45 1055.78,-208.81"/>
<polygon fill="midnightblue" stroke="midnightblue" points="1375.54,-282.56 1385.96,-284.43 1378.98,-276.46 1375.54,-282.56"/>
</g>
<!-- Node7 -->
<g id="node7" class="node">
<title>Node7</title>
<g id="a_node7"><a xlink:href="classInputDevice.html#ae6abc0024490060e5694e3750e3e0aea" target="_top" xlink:title=" ">
<polygon fill="white" stroke="black" points="895,-252 895,-282 1052,-282 1052,-252 895,-252"/>
<text text-anchor="start" x="903" y="-270" font-family="Helvetica,sans-Serif" font-size="10.00">InputDevice::changeSetDPad</text>
<text text-anchor="middle" x="973.5" y="-259" font-family="Helvetica,sans-Serif" font-size="10.00">ButtonAssociation</text>
</a>
</g>
</g>
<!-- Node1&#45;&gt;Node7 -->
<g id="edge7" class="edge">
<title>Node1&#45;&gt;Node7</title>
<path fill="none" stroke="midnightblue" d="M1373.73,-280.12C1348.72,-268.66 1310.89,-253.3 1276,-247 1199.59,-233.21 1110.76,-242.05 1049.41,-251.96"/>
<polygon fill="midnightblue" stroke="midnightblue" points="1372.43,-283.37 1382.97,-284.44 1375.4,-277.03 1372.43,-283.37"/>
</g>
<!-- Node8 -->
<g id="node8" class="node">
<title>Node8</title>
<g id="a_node8"><a xlink:href="classInputDevice.html#a4ac83581ace56d9a9d051c309def30c9" target="_top" xlink:title="Creates reverse set change button mapping for toggle and while&#45;hold set change mappings.">
<polygon fill="white" stroke="black" points="891,-433 891,-463 1056,-463 1056,-433 891,-433"/>
<text text-anchor="start" x="899" y="-451" font-family="Helvetica,sans-Serif" font-size="10.00">InputDevice::changeSetSensor</text>
<text text-anchor="middle" x="973.5" y="-440" font-family="Helvetica,sans-Serif" font-size="10.00">ButtonAssociation</text>
</a>
</g>
</g>
<!-- Node1&#45;&gt;Node8 -->
<g id="edge9" class="edge">
<title>Node1&#45;&gt;Node8</title>
<path fill="none" stroke="midnightblue" d="M1395.29,-313.47C1380.69,-352.34 1341.98,-438.76 1276,-473 1189.76,-517.76 1070.71,-484.77 1011.31,-463.03"/>
<polygon fill="midnightblue" stroke="midnightblue" points="1398.66,-314.44 1398.77,-303.85 1392.07,-312.06 1398.66,-314.44"/>
</g>
<!-- Node9 -->
<g id="node9" class="node">
<title>Node9</title>
<g id="a_node9"><a xlink:href="classInputDevice.html#a5aa8a74d0cc3739e08e6f753dc6df9cd" target="_top" xlink:title=" ">
<polygon fill="white" stroke="black" points="895.5,-350 895.5,-380 1051.5,-380 1051.5,-350 895.5,-350"/>
<text text-anchor="start" x="903.5" y="-368" font-family="Helvetica,sans-Serif" font-size="10.00">InputDevice::changeSetStick</text>
<text text-anchor="middle" x="973.5" y="-357" font-family="Helvetica,sans-Serif" font-size="10.00">ButtonAssociation</text>
</a>
</g>
</g>
<!-- Node1&#45;&gt;Node9 -->
<g id="edge11" class="edge">
<title>Node1&#45;&gt;Node9</title>
<path fill="none" stroke="midnightblue" d="M1385.77,-310.85C1363.45,-332.67 1320.92,-369.61 1276,-384 1192.72,-410.69 1090.01,-394.55 1028.52,-380.05"/>
<polygon fill="midnightblue" stroke="midnightblue" points="1388.45,-313.11 1393.04,-303.56 1383.5,-308.17 1388.45,-313.11"/>
</g>
<!-- Node10 -->
<g id="node10" class="node">
<title>Node10</title>
<g id="a_node10"><a xlink:href="classInputDevice.html#acce02eff964fce3cc49baae950641702" target="_top" xlink:title=" ">
<polygon fill="white" stroke="black" points="891.5,-301 891.5,-331 1055.5,-331 1055.5,-301 891.5,-301"/>
<text text-anchor="start" x="899.5" y="-319" font-family="Helvetica,sans-Serif" font-size="10.00">InputDevice::changeSetVDPad</text>
<text text-anchor="middle" x="973.5" y="-308" font-family="Helvetica,sans-Serif" font-size="10.00">ButtonAssociation</text>
</a>
</g>
</g>
<!-- Node1&#45;&gt;Node10 -->
<g id="edge13" class="edge">
<title>Node1&#45;&gt;Node10</title>
<path fill="none" stroke="midnightblue" d="M1301.47,-299.17C1226.6,-303.03 1125.68,-308.22 1055.85,-311.81"/>
<polygon fill="midnightblue" stroke="midnightblue" points="1302.05,-302.65 1311.86,-298.64 1301.69,-295.66 1302.05,-302.65"/>
</g>
<!-- Node11 -->
<g id="node11" class="node">
<title>Node11</title>
<g id="a_node11"><a xlink:href="classJoyButtonXml.html#a9d7b2a6324a2f8fe4f424f78aa43d261" target="_top" xlink:title=" ">
<polygon fill="white" stroke="black" points="902,-145 902,-175 1045,-175 1045,-145 902,-145"/>
<text text-anchor="start" x="910" y="-163" font-family="Helvetica,sans-Serif" font-size="10.00">JoyButtonXml::readButton</text>
<text text-anchor="middle" x="973.5" y="-152" font-family="Helvetica,sans-Serif" font-size="10.00">Config</text>
</a>
</g>
</g>
<!-- Node1&#45;&gt;Node11 -->
<g id="edge15" class="edge">
<title>Node1&#45;&gt;Node11</title>
<path fill="none" stroke="midnightblue" d="M1383.88,-277.48C1360.7,-257.35 1318.44,-223.93 1276,-207 1200.71,-176.98 1107.72,-166.05 1045.08,-162.12"/>
<polygon fill="midnightblue" stroke="midnightblue" points="1381.71,-280.24 1391.52,-284.24 1386.35,-274.99 1381.71,-280.24"/>
</g>
<!-- Node16 -->
<g id="node16" class="node">
<title>Node16</title>
<g id="a_node16"><a xlink:href="classJoyDPadButton.html#a17abae87cce39aa7c8356f269ce2154b" target="_top" xlink:title=" ">
<polygon fill="white" stroke="black" points="1111,-257 1111,-287 1257,-287 1257,-257 1111,-257"/>
<text text-anchor="start" x="1119" y="-275" font-family="Helvetica,sans-Serif" font-size="10.00">JoyDPadButton::setChange</text>
<text text-anchor="middle" x="1184" y="-264" font-family="Helvetica,sans-Serif" font-size="10.00">SetCondition</text>
</a>
</g>
</g>
<!-- Node1&#45;&gt;Node16 -->
<g id="edge21" class="edge">
<title>Node1&#45;&gt;Node16</title>
<path fill="none" stroke="midnightblue" d="M1301.51,-283.81C1286.5,-282.29 1271.29,-280.75 1257.02,-279.3"/>
<polygon fill="midnightblue" stroke="midnightblue" points="1301.56,-287.33 1311.86,-284.86 1302.26,-280.37 1301.56,-287.33"/>
</g>
<!-- Node17 -->
<g id="node17" class="node">
<title>Node17</title>
<g id="a_node17"><a xlink:href="classJoyAxisButton.html#a739f27b3f9c6714869cade651c62aa00" target="_top" xlink:title=" ">
<polygon fill="white" stroke="black" points="1112.5,-559 1112.5,-589 1255.5,-589 1255.5,-559 1112.5,-559"/>
<text text-anchor="start" x="1120.5" y="-577" font-family="Helvetica,sans-Serif" font-size="10.00">JoyAxisButton::setChange</text>
<text text-anchor="middle" x="1184" y="-566" font-family="Helvetica,sans-Serif" font-size="10.00">SetCondition</text>
</a>
</g>
</g>
<!-- Node1&#45;&gt;Node17 -->
<g id="edge24" class="edge">
<title>Node1&#45;&gt;Node17</title>
<path fill="none" stroke="midnightblue" d="M1397.68,-313.28C1386.25,-359.89 1350.82,-479.53 1276,-544 1268.94,-550.08 1260.62,-554.94 1251.92,-558.81"/>
<polygon fill="midnightblue" stroke="midnightblue" points="1401.09,-314.09 1399.98,-303.55 1394.27,-312.48 1401.09,-314.09"/>
</g>
<!-- Node18 -->
<g id="node18" class="node">
<title>Node18</title>
<g id="a_node18"><a xlink:href="classJoySensorButton.html#af02f47f2d03928e8a6bac08edd92eb86" target="_top" xlink:title=" ">
<polygon fill="white" stroke="black" points="1106.5,-433 1106.5,-463 1261.5,-463 1261.5,-433 1106.5,-433"/>
<text text-anchor="start" x="1114.5" y="-451" font-family="Helvetica,sans-Serif" font-size="10.00">JoySensorButton::setChange</text>
<text text-anchor="middle" x="1184" y="-440" font-family="Helvetica,sans-Serif" font-size="10.00">SetCondition</text>
</a>
</g>
</g>
<!-- Node1&#45;&gt;Node18 -->
<g id="edge26" class="edge">
<title>Node1&#45;&gt;Node18</title>
<path fill="none" stroke="midnightblue" d="M1388.59,-311.63C1367.43,-338.29 1323.78,-388.84 1276,-418 1266.2,-423.98 1255.08,-428.91 1244.05,-432.93"/>
<polygon fill="midnightblue" stroke="midnightblue" points="1391.48,-313.61 1394.87,-303.57 1385.96,-309.3 1391.48,-313.61"/>
</g>
<!-- Node19 -->
<g id="node19" class="node">
<title>Node19</title>
<g id="a_node19"><a xlink:href="classJoyControlStickButton.html#af18ce44fbabeb525ede1a777cbc67de2" target="_top" xlink:title=" ">
<polygon fill="white" stroke="black" points="1115.5,-345 1115.5,-375 1252.5,-375 1252.5,-345 1115.5,-345"/>
<text text-anchor="start" x="1123.5" y="-363" font-family="Helvetica,sans-Serif" font-size="10.00">JoyControlStickButton</text>
<text text-anchor="middle" x="1184" y="-352" font-family="Helvetica,sans-Serif" font-size="10.00">::setChangeSetCondition</text>
</a>
</g>
</g>
<!-- Node1&#45;&gt;Node19 -->
<g id="edge28" class="edge">
<title>Node1&#45;&gt;Node19</title>
<path fill="none" stroke="midnightblue" d="M1360.78,-306.54C1324.91,-317.45 1272.83,-333.29 1234.67,-344.89"/>
<polygon fill="midnightblue" stroke="midnightblue" points="1361.9,-309.86 1370.45,-303.6 1359.86,-303.16 1361.9,-309.86"/>
</g>
<!-- Node20 -->
<g id="node20" class="node">
<title>Node20</title>
<g id="a_node20"><a xlink:href="classJoyButton.html#a451a0eaac9ee0a8804107a8b8c6659d1" target="_top" xlink:title=" ">
<polygon fill="white" stroke="black" points="1092,-104.5 1092,-123.5 1276,-123.5 1276,-104.5 1092,-104.5"/>
<text text-anchor="middle" x="1184" y="-111.5" font-family="Helvetica,sans-Serif" font-size="10.00">JoyButton::setChangeSetCondition</text>
</a>
</g>
</g>
<!-- Node1&#45;&gt;Node20 -->
<g id="edge30" class="edge">
<title>Node1&#45;&gt;Node20</title>
<path fill="none" stroke="midnightblue" d="M1392.09,-275.1C1373.77,-242.04 1331.35,-173.84 1276,-138 1266.26,-131.69 1254.93,-127.04 1243.63,-123.61"/>
<polygon fill="midnightblue" stroke="midnightblue" points="1389.16,-277.03 1396.99,-284.16 1395.31,-273.69 1389.16,-277.03"/>
</g>
<!-- Node29 -->
<g id="node29" class="node">
<title>Node29</title>
<g id="a_node29"><a xlink:href="classJoyButtonContextMenu.html#ad163e6b82faaf5467255ba1ffcbe003d" target="_top" xlink:title=" ">
<polygon fill="white" stroke="black" points="909,-57 909,-87 1038,-87 1038,-57 909,-57"/>
<text text-anchor="start" x="917" y="-75" font-family="Helvetica,sans-Serif" font-size="10.00">JoyButtonContextMenu</text>
<text text-anchor="middle" x="973.5" y="-64" font-family="Helvetica,sans-Serif" font-size="10.00">::switchSetMode</text>
</a>
</g>
</g>
<!-- Node1&#45;&gt;Node29 -->
<g id="edge46" class="edge">
<title>Node1&#45;&gt;Node29</title>
<path fill="none" stroke="midnightblue" d="M1396.27,-274.58C1382.92,-233.22 1345.49,-136.77 1276,-95 1203.45,-51.39 1102.67,-53.59 1038.02,-61.2"/>
<polygon fill="midnightblue" stroke="midnightblue" points="1392.97,-275.76 1399.28,-284.28 1399.66,-273.69 1392.97,-275.76"/>
</g>
<!-- Node31 -->
<g id="node31" class="node">
<title>Node31</title>
<g id="a_node31"><a xlink:href="classAdvanceButtonDialog.html#aa9ce9cbd457fb41cbea00da74c01334b" target="_top" xlink:title=" ">
<polygon fill="white" stroke="black" points="912.5,-8 912.5,-38 1034.5,-38 1034.5,-8 912.5,-8"/>
<text text-anchor="start" x="920.5" y="-26" font-family="Helvetica,sans-Serif" font-size="10.00">AdvanceButtonDialog</text>
<text text-anchor="middle" x="973.5" y="-15" font-family="Helvetica,sans-Serif" font-size="10.00">::updateSetSelection</text>
</a>
</g>
</g>
<!-- Node1&#45;&gt;Node31 -->
<g id="edge47" class="edge">
<title>Node1&#45;&gt;Node31</title>
<path fill="none" stroke="midnightblue" d="M1398.35,-274.66C1388.33,-227.55 1355.68,-106.83 1276,-53 1204.19,-4.49 1099.94,-5.99 1034.74,-13.23"/>
<polygon fill="midnightblue" stroke="midnightblue" points="1394.92,-275.38 1400.33,-284.49 1401.78,-274 1394.92,-275.38"/>
</g>
<!-- Node3 -->
<g id="node3" class="node">
<title>Node3</title>
<g id="a_node3"><a xlink:href="classInputDevice.html#a6ffcebba103a7db02e82c1c7f62387bf" target="_top" xlink:title="Establishes necessary connections for set change slots.">
<polygon fill="white" stroke="black" points="665,-330.5 665,-349.5 855,-349.5 855,-330.5 665,-330.5"/>
<text text-anchor="middle" x="760" y="-337.5" font-family="Helvetica,sans-Serif" font-size="10.00">InputDevice::enableSetConnections</text>
</a>
</g>
</g>
<!-- Node2&#45;&gt;Node3 -->
<g id="edge2" class="edge">
<title>Node2&#45;&gt;Node3</title>
<path fill="none" stroke="midnightblue" d="M939.82,-509.18C924.5,-498.92 906.3,-485.98 891,-473 841.26,-430.81 789.08,-372.39 769.27,-349.62"/>
<polygon fill="midnightblue" stroke="midnightblue" points="938.19,-512.3 948.46,-514.89 942.05,-506.46 938.19,-512.3"/>
</g>
<!-- Node4 -->
<g id="node4" class="node">
<title>Node4</title>
<g id="a_node4"><a xlink:href="classGameController.html#afcddb9dcc5442a9746c3ff8760ea1791" target="_top" xlink:title=" ">
<polygon fill="white" stroke="black" points="452,-349.5 452,-368.5 629,-368.5 629,-349.5 452,-349.5"/>
<text text-anchor="middle" x="540.5" y="-356.5" font-family="Helvetica,sans-Serif" font-size="10.00">GameController::GameController</text>
</a>
</g>
</g>
<!-- Node3&#45;&gt;Node4 -->
<g id="edge3" class="edge">
<title>Node3&#45;&gt;Node4</title>
<path fill="none" stroke="midnightblue" d="M654.85,-349.1C646.28,-349.85 637.68,-350.6 629.26,-351.33"/>
<polygon fill="midnightblue" stroke="midnightblue" points="655.21,-352.58 664.87,-348.22 654.6,-345.61 655.21,-352.58"/>
</g>
<!-- Node5 -->
<g id="node5" class="node">
<title>Node5</title>
<g id="a_node5"><a xlink:href="classJoystick.html#a9df5e53506876f3c95e84bdf6c9cbaf1" target="_top" xlink:title=" ">
<polygon fill="white" stroke="black" points="491,-311.5 491,-330.5 590,-330.5 590,-311.5 491,-311.5"/>
<text text-anchor="middle" x="540.5" y="-318.5" font-family="Helvetica,sans-Serif" font-size="10.00">Joystick::Joystick</text>
</a>
</g>
</g>
<!-- Node3&#45;&gt;Node5 -->
<g id="edge4" class="edge">
<title>Node3&#45;&gt;Node5</title>
<path fill="none" stroke="midnightblue" d="M654.88,-330.9C632.31,-328.93 609.48,-326.94 590.28,-325.26"/>
<polygon fill="midnightblue" stroke="midnightblue" points="654.6,-334.39 664.87,-331.78 655.21,-327.42 654.6,-334.39"/>
</g>
<!-- Node6&#45;&gt;Node3 -->
<g id="edge6" class="edge">
<title>Node6&#45;&gt;Node3</title>
<path fill="none" stroke="midnightblue" d="M919.9,-227.94C910.08,-232.13 900.06,-236.87 891,-242 843.29,-269.02 793.23,-311.37 771.79,-330.29"/>
<polygon fill="midnightblue" stroke="midnightblue" points="921.31,-231.14 929.22,-224.09 918.64,-224.67 921.31,-231.14"/>
</g>
<!-- Node7&#45;&gt;Node3 -->
<g id="edge8" class="edge">
<title>Node7&#45;&gt;Node3</title>
<path fill="none" stroke="midnightblue" d="M909.46,-285.06C903.21,-287 896.97,-289 891,-291 853.49,-303.57 810.69,-320.15 784.77,-330.43"/>
<polygon fill="midnightblue" stroke="midnightblue" points="910.74,-288.33 919.28,-282.06 908.69,-281.63 910.74,-288.33"/>
</g>
<!-- Node8&#45;&gt;Node3 -->
<g id="edge10" class="edge">
<title>Node8&#45;&gt;Node3</title>
<path fill="none" stroke="midnightblue" d="M934.1,-428.39C888.53,-405.12 814.39,-367.26 779.83,-349.62"/>
<polygon fill="midnightblue" stroke="midnightblue" points="932.59,-431.55 943.09,-432.98 935.78,-425.32 932.59,-431.55"/>
</g>
<!-- Node9&#45;&gt;Node3 -->
<g id="edge12" class="edge">
<title>Node9&#45;&gt;Node3</title>
<path fill="none" stroke="midnightblue" d="M884.9,-354.65C870.56,-352.95 855.76,-351.2 841.6,-349.53"/>
<polygon fill="midnightblue" stroke="midnightblue" points="884.9,-358.17 895.25,-355.87 885.73,-351.22 884.9,-358.17"/>
</g>
<!-- Node10&#45;&gt;Node3 -->
<g id="edge14" class="edge">
<title>Node10&#45;&gt;Node3</title>
<path fill="none" stroke="midnightblue" d="M881.23,-326.36C869.11,-327.73 856.73,-329.14 844.75,-330.5"/>
<polygon fill="midnightblue" stroke="midnightblue" points="881.79,-329.82 891.33,-325.21 881,-322.86 881.79,-329.82"/>
</g>
<!-- Node12 -->
<g id="node12" class="node">
<title>Node12</title>
<g id="a_node12"><a xlink:href="classJoyButtonXml.html#a9d79d75b14b57419ed1fc5639dde8515" target="_top" xlink:title=" ">
<polygon fill="white" stroke="black" points="689,-153.5 689,-172.5 831,-172.5 831,-153.5 689,-153.5"/>
<text text-anchor="middle" x="760" y="-160.5" font-family="Helvetica,sans-Serif" font-size="10.00">JoyButtonXml::readConfig</text>
</a>
</g>
</g>
<!-- Node11&#45;&gt;Node12 -->
<g id="edge16" class="edge">
<title>Node11&#45;&gt;Node12</title>
<path fill="none" stroke="midnightblue" d="M891.53,-161.15C871.68,-161.43 850.6,-161.73 831.29,-162"/>
<polygon fill="midnightblue" stroke="midnightblue" points="891.83,-164.64 901.78,-161 891.73,-157.65 891.83,-164.64"/>
</g>
<!-- Node13 -->
<g id="node13" class="node">
<title>Node13</title>
<g id="a_node13"><a xlink:href="classSetJoystickXml.html#aa95423a01fab878cbc69bffb7f6121f3" target="_top" xlink:title="Deserializes the given XML stream into a SetJoystick object.">
<polygon fill="white" stroke="black" points="244,-172.5 244,-191.5 393,-191.5 393,-172.5 244,-172.5"/>
<text text-anchor="middle" x="318.5" y="-179.5" font-family="Helvetica,sans-Serif" font-size="10.00">SetJoystickXml::readConfig</text>
</a>
</g>
</g>
<!-- Node12&#45;&gt;Node13 -->
<g id="edge17" class="edge">
<title>Node12&#45;&gt;Node13</title>
<path fill="none" stroke="midnightblue" d="M696.18,-174.06C674.92,-177.3 651,-180.4 629,-182 548.48,-187.85 455.86,-186.84 393.09,-185"/>
<polygon fill="midnightblue" stroke="midnightblue" points="696.72,-177.52 706.06,-172.51 695.64,-170.6 696.72,-177.52"/>
</g>
<!-- Node14 -->
<g id="node14" class="node">
<title>Node14</title>
<g id="a_node14"><a xlink:href="classJoyControlStick.html#ab6ce741115ee3d436c1a7e866abd21e6" target="_top" xlink:title="Take a XML stream and set the stick and direction button properties according to the values contained...">
<polygon fill="white" stroke="black" points="466,-153.5 466,-172.5 615,-172.5 615,-153.5 466,-153.5"/>
<text text-anchor="middle" x="540.5" y="-160.5" font-family="Helvetica,sans-Serif" font-size="10.00">JoyControlStick::readConfig</text>
</a>
</g>
</g>
<!-- Node12&#45;&gt;Node14 -->
<g id="edge18" class="edge">
<title>Node12&#45;&gt;Node14</title>
<path fill="none" stroke="midnightblue" d="M678.88,-163C658.02,-163 635.64,-163 615.13,-163"/>
<polygon fill="midnightblue" stroke="midnightblue" points="678.98,-166.5 688.98,-163 678.98,-159.5 678.98,-166.5"/>
</g>
<!-- Node15 -->
<g id="node15" class="node">
<title>Node15</title>
<g id="a_node15"><a xlink:href="classJoyDPadXml.html#ae9a3556242b984c81fc6945acafc5586" target="_top" xlink:title=" ">
<polygon fill="white" stroke="black" points="461.5,-115.5 461.5,-134.5 619.5,-134.5 619.5,-115.5 461.5,-115.5"/>
<text text-anchor="middle" x="540.5" y="-122.5" font-family="Helvetica,sans-Serif" font-size="10.00">JoyDPadXml::readMainConfig</text>
</a>
</g>
</g>
<!-- Node12&#45;&gt;Node15 -->
<g id="edge20" class="edge">
<title>Node12&#45;&gt;Node15</title>
<path fill="none" stroke="midnightblue" d="M694.46,-151.72C663.17,-146.26 625.99,-139.76 596.13,-134.54"/>
<polygon fill="midnightblue" stroke="midnightblue" points="693.94,-155.19 704.4,-153.46 695.15,-148.29 693.94,-155.19"/>
</g>
<!-- Node14&#45;&gt;Node13 -->
<g id="edge19" class="edge">
<title>Node14&#45;&gt;Node13</title>
<path fill="none" stroke="midnightblue" d="M455.95,-170.22C435.36,-171.99 413.46,-173.89 393.37,-175.62"/>
<polygon fill="midnightblue" stroke="midnightblue" points="456.28,-173.7 465.94,-169.35 455.67,-166.73 456.28,-173.7"/>
</g>
<!-- Node16&#45;&gt;Node7 -->
<g id="edge22" class="edge">
<title>Node16&#45;&gt;Node7</title>
<path fill="none" stroke="midnightblue" d="M1100.6,-270.02C1084.67,-269.64 1068.02,-269.24 1052.24,-268.86"/>
<polygon fill="midnightblue" stroke="midnightblue" points="1100.87,-273.53 1110.95,-270.27 1101.04,-266.53 1100.87,-273.53"/>
</g>
<!-- Node16&#45;&gt;Node10 -->
<g id="edge23" class="edge">
<title>Node16&#45;&gt;Node10</title>
<path fill="none" stroke="midnightblue" d="M1101.94,-289.11C1083.39,-293.02 1063.81,-297.15 1045.7,-300.97"/>
<polygon fill="midnightblue" stroke="midnightblue" points="1102.77,-292.51 1111.83,-287.02 1101.32,-285.66 1102.77,-292.51"/>
</g>
<!-- Node17&#45;&gt;Node2 -->
<g id="edge25" class="edge">
<title>Node17&#45;&gt;Node2</title>
<path fill="none" stroke="midnightblue" d="M1102.45,-557C1083.76,-553.06 1063.99,-548.88 1045.73,-545.03"/>
<polygon fill="midnightblue" stroke="midnightblue" points="1101.9,-560.46 1112.41,-559.1 1103.35,-553.61 1101.9,-560.46"/>
</g>
<!-- Node18&#45;&gt;Node8 -->
<g id="edge27" class="edge">
<title>Node18&#45;&gt;Node8</title>
<path fill="none" stroke="midnightblue" d="M1096.24,-448C1083.03,-448 1069.44,-448 1056.34,-448"/>
<polygon fill="midnightblue" stroke="midnightblue" points="1096.25,-451.5 1106.25,-448 1096.25,-444.5 1096.25,-451.5"/>
</g>
<!-- Node19&#45;&gt;Node9 -->
<g id="edge29" class="edge">
<title>Node19&#45;&gt;Node9</title>
<path fill="none" stroke="midnightblue" d="M1105.14,-361.87C1087.65,-362.29 1069.09,-362.73 1051.62,-363.15"/>
<polygon fill="midnightblue" stroke="midnightblue" points="1105.39,-365.36 1115.31,-361.62 1105.22,-358.36 1105.39,-365.36"/>
</g>
<!-- Node20&#45;&gt;Node6 -->
<g id="edge31" class="edge">
<title>Node20&#45;&gt;Node6</title>
<path fill="none" stroke="midnightblue" d="M1159.11,-129.12C1134.13,-144.47 1093.41,-168.15 1056,-184 1047.41,-187.64 1038.12,-191 1028.98,-194"/>
<polygon fill="midnightblue" stroke="midnightblue" points="1161.22,-131.93 1167.88,-123.69 1157.53,-125.98 1161.22,-131.93"/>
</g>
<!-- Node20&#45;&gt;Node11 -->
<g id="edge40" class="edge">
<title>Node20&#45;&gt;Node11</title>
<path fill="none" stroke="midnightblue" d="M1129.94,-125.71C1103.42,-131.56 1071.02,-138.7 1042.68,-144.96"/>
<polygon fill="midnightblue" stroke="midnightblue" points="1130.79,-129.1 1139.8,-123.53 1129.28,-122.27 1130.79,-129.1"/>
</g>
<!-- Node21 -->
<g id="node21" class="node">
<title>Node21</title>
<g id="a_node21"><a xlink:href="classJoyButtonContextMenu.html#af87e510b98bc2c294281e7de7507c956" target="_top" xlink:title=" ">
<polygon fill="white" stroke="black" points="695.5,-104 695.5,-134 824.5,-134 824.5,-104 695.5,-104"/>
<text text-anchor="start" x="703.5" y="-122" font-family="Helvetica,sans-Serif" font-size="10.00">JoyButtonContextMenu</text>
<text text-anchor="middle" x="760" y="-111" font-family="Helvetica,sans-Serif" font-size="10.00">::disableSetMode</text>
</a>
</g>
</g>
<!-- Node20&#45;&gt;Node21 -->
<g id="edge32" class="edge">
<title>Node20&#45;&gt;Node21</title>
<path fill="none" stroke="midnightblue" d="M1081.87,-115.2C1001.99,-116.14 892.97,-117.44 824.8,-118.24"/>
<polygon fill="midnightblue" stroke="midnightblue" points="1081.99,-118.7 1091.95,-115.08 1081.91,-111.7 1081.99,-118.7"/>
</g>
<!-- Node20&#45;&gt;Node29 -->
<g id="edge41" class="edge">
<title>Node20&#45;&gt;Node29</title>
<path fill="none" stroke="midnightblue" d="M1125.59,-102.43C1098.49,-96.98 1066.07,-90.45 1038.23,-84.84"/>
<polygon fill="midnightblue" stroke="midnightblue" points="1125.19,-105.93 1135.69,-104.47 1126.58,-99.06 1125.19,-105.93"/>
</g>
<!-- Node20&#45;&gt;Node31 -->
<g id="edge44" class="edge">
<title>Node20&#45;&gt;Node31</title>
<path fill="none" stroke="midnightblue" d="M1158.64,-99.27C1133.57,-84.57 1093.07,-62.06 1056,-47 1048.07,-43.78 1039.56,-40.79 1031.12,-38.08"/>
<polygon fill="midnightblue" stroke="midnightblue" points="1157.06,-102.41 1167.45,-104.49 1160.63,-96.38 1157.06,-102.41"/>
</g>
<!-- Node22 -->
<g id="node22" class="node">
<title>Node22</title>
<g id="a_node22"><a xlink:href="classJoyButtonContextMenu.html#a6d0d9eb23e12fc8291d419ec0599971e" target="_top" xlink:title=" ">
<polygon fill="white" stroke="black" points="476,-61 476,-91 605,-91 605,-61 476,-61"/>
<text text-anchor="start" x="484" y="-79" font-family="Helvetica,sans-Serif" font-size="10.00">JoyButtonContextMenu</text>
<text text-anchor="middle" x="540.5" y="-68" font-family="Helvetica,sans-Serif" font-size="10.00">::buildMenu</text>
</a>
</g>
</g>
<!-- Node21&#45;&gt;Node22 -->
<g id="edge33" class="edge">
<title>Node21&#45;&gt;Node22</title>
<path fill="none" stroke="midnightblue" d="M685.07,-104.38C659.15,-99.26 630.3,-93.55 605.29,-88.61"/>
<polygon fill="midnightblue" stroke="midnightblue" points="684.72,-107.88 695.21,-106.39 686.08,-101.02 684.72,-107.88"/>
</g>
<!-- Node23 -->
<g id="node23" class="node">
<title>Node23</title>
<g id="a_node23"><a xlink:href="classJoyButtonWidget.html#a681d3c384a94a2febb23b1f733cfcbaf" target="_top" xlink:title=" ">
<polygon fill="white" stroke="black" points="221,-113.5 221,-132.5 416,-132.5 416,-113.5 221,-113.5"/>
<text text-anchor="middle" x="318.5" y="-120.5" font-family="Helvetica,sans-Serif" font-size="10.00">JoyButtonWidget::showContextMenu</text>
</a>
</g>
</g>
<!-- Node22&#45;&gt;Node23 -->
<g id="edge34" class="edge">
<title>Node22&#45;&gt;Node23</title>
<path fill="none" stroke="midnightblue" d="M466.04,-91.69C432.3,-98.9 393.39,-107.21 364.15,-113.46"/>
<polygon fill="midnightblue" stroke="midnightblue" points="466.82,-95.11 475.87,-89.59 465.36,-88.26 466.82,-95.11"/>
</g>
<!-- Node25 -->
<g id="node25" class="node">
<title>Node25</title>
<g id="a_node25"><a xlink:href="classJoySensorButtonPushButton.html#a5d9bfef1442a8e19c22b0761bdf75d8f" target="_top" xlink:title="Shows sensor context menu.">
<polygon fill="white" stroke="black" points="242.5,-61 242.5,-91 394.5,-91 394.5,-61 242.5,-61"/>
<text text-anchor="start" x="250.5" y="-79" font-family="Helvetica,sans-Serif" font-size="10.00">JoySensorButtonPushButton</text>
<text text-anchor="middle" x="318.5" y="-68" font-family="Helvetica,sans-Serif" font-size="10.00">::showContextMenu</text>
</a>
</g>
</g>
<!-- Node22&#45;&gt;Node25 -->
<g id="edge36" class="edge">
<title>Node22&#45;&gt;Node25</title>
<path fill="none" stroke="midnightblue" d="M465.87,-76C442.95,-76 417.67,-76 394.65,-76"/>
<polygon fill="midnightblue" stroke="midnightblue" points="465.87,-79.5 475.87,-76 465.87,-72.5 465.87,-79.5"/>
</g>
<!-- Node27 -->
<g id="node27" class="node">
<title>Node27</title>
<g id="a_node27"><a xlink:href="classJoyControlStickButtonPushButton.html#abde61056729a9ef096bc23ff81129ab6" target="_top" xlink:title=" ">
<polygon fill="white" stroke="black" points="245.5,-9 245.5,-39 391.5,-39 391.5,-9 245.5,-9"/>
<text text-anchor="start" x="253.5" y="-27" font-family="Helvetica,sans-Serif" font-size="10.00">JoyControlStickButtonPush</text>
<text text-anchor="middle" x="318.5" y="-16" font-family="Helvetica,sans-Serif" font-size="10.00">Button::showContextMenu</text>
</a>
</g>
</g>
<!-- Node22&#45;&gt;Node27 -->
<g id="edge38" class="edge">
<title>Node22&#45;&gt;Node27</title>
<path fill="none" stroke="midnightblue" d="M466.11,-58.65C439.19,-52.29 408.97,-45.15 382.99,-39.01"/>
<polygon fill="midnightblue" stroke="midnightblue" points="465.33,-62.07 475.87,-60.96 466.94,-55.25 465.33,-62.07"/>
</g>
<!-- Node24 -->
<g id="node24" class="node">
<title>Node24</title>
<g id="a_node24"><a xlink:href="classJoyButtonWidget.html#aeeb6cb187733cbf7c9f1c5a0fe8f7b34" target="_top" xlink:title=" ">
<polygon fill="white" stroke="black" points="16.5,-110 16.5,-140 168.5,-140 168.5,-110 16.5,-110"/>
<text text-anchor="start" x="24.5" y="-128" font-family="Helvetica,sans-Serif" font-size="10.00">JoyButtonWidget::JoyButton</text>
<text text-anchor="middle" x="92.5" y="-117" font-family="Helvetica,sans-Serif" font-size="10.00">Widget</text>
</a>
</g>
</g>
<!-- Node23&#45;&gt;Node24 -->
<g id="edge35" class="edge">
<title>Node23&#45;&gt;Node24</title>
<path fill="none" stroke="midnightblue" d="M210.56,-123.95C196.36,-124.08 182.04,-124.21 168.53,-124.33"/>
<polygon fill="midnightblue" stroke="midnightblue" points="210.91,-127.45 220.88,-123.86 210.85,-120.45 210.91,-127.45"/>
</g>
<!-- Node26 -->
<g id="node26" class="node">
<title>Node26</title>
<g id="a_node26"><a xlink:href="classJoySensorButtonPushButton.html#a25a8a13e559cc9b5c37ea0049224cf94" target="_top" xlink:title=" ">
<polygon fill="white" stroke="black" points="13.5,-61 13.5,-91 171.5,-91 171.5,-61 13.5,-61"/>
<text text-anchor="start" x="21.5" y="-79" font-family="Helvetica,sans-Serif" font-size="10.00">JoySensorButtonPushButton</text>
<text text-anchor="middle" x="92.5" y="-68" font-family="Helvetica,sans-Serif" font-size="10.00">::JoySensorButtonPushButton</text>
</a>
</g>
</g>
<!-- Node25&#45;&gt;Node26 -->
<g id="edge37" class="edge">
<title>Node25&#45;&gt;Node26</title>
<path fill="none" stroke="midnightblue" d="M232.02,-76C212.15,-76 191.1,-76 171.58,-76"/>
<polygon fill="midnightblue" stroke="midnightblue" points="232.29,-79.5 242.29,-76 232.29,-72.5 232.29,-79.5"/>
</g>
<!-- Node28 -->
<g id="node28" class="node">
<title>Node28</title>
<g id="a_node28"><a xlink:href="classJoyControlStickButtonPushButton.html#a5542b1bc905c0a35639b4731083852fa" target="_top" xlink:title=" ">
<polygon fill="white" stroke="black" points="0,-0.5 0,-41.5 185,-41.5 185,-0.5 0,-0.5"/>
<text text-anchor="start" x="8" y="-29.5" font-family="Helvetica,sans-Serif" font-size="10.00">JoyControlStickButtonPush</text>
<text text-anchor="start" x="8" y="-18.5" font-family="Helvetica,sans-Serif" font-size="10.00">Button::JoyControlStickButtonPush</text>
<text text-anchor="middle" x="92.5" y="-7.5" font-family="Helvetica,sans-Serif" font-size="10.00">Button</text>
</a>
</g>
</g>
<!-- Node27&#45;&gt;Node28 -->
<g id="edge39" class="edge">
<title>Node27&#45;&gt;Node28</title>
<path fill="none" stroke="midnightblue" d="M235.35,-22.9C219.02,-22.68 201.78,-22.45 185.15,-22.23"/>
<polygon fill="midnightblue" stroke="midnightblue" points="235.35,-26.4 245.39,-23.03 235.44,-19.4 235.35,-26.4"/>
</g>
<!-- Node30 -->
<g id="node30" class="node">
<title>Node30</title>
<g id="a_node30"><a xlink:href="classJoyButtonContextMenu.html#a4fdfe771c441058419ab8dcdc0a17574" target="_top" xlink:title=" ">
<polygon fill="white" stroke="black" points="695.5,-55 695.5,-85 824.5,-85 824.5,-55 695.5,-55"/>
<text text-anchor="start" x="703.5" y="-73" font-family="Helvetica,sans-Serif" font-size="10.00">JoyButtonContextMenu</text>
<text text-anchor="middle" x="760" y="-62" font-family="Helvetica,sans-Serif" font-size="10.00">::createActionForGroup</text>
</a>
</g>
</g>
<!-- Node29&#45;&gt;Node30 -->
<g id="edge42" class="edge">
<title>Node29&#45;&gt;Node30</title>
<path fill="none" stroke="midnightblue" d="M898.58,-71.3C874.47,-71.07 847.91,-70.82 824.61,-70.6"/>
<polygon fill="midnightblue" stroke="midnightblue" points="898.72,-74.8 908.76,-71.4 898.79,-67.8 898.72,-74.8"/>
</g>
<!-- Node30&#45;&gt;Node22 -->
<g id="edge43" class="edge">
<title>Node30&#45;&gt;Node22</title>
<path fill="none" stroke="midnightblue" d="M685.07,-72.04C659.15,-72.75 630.3,-73.55 605.29,-74.24"/>
<polygon fill="midnightblue" stroke="midnightblue" points="685.31,-75.53 695.21,-71.76 685.12,-68.54 685.31,-75.53"/>
</g>
<!-- Node32 -->
<g id="node32" class="node">
<title>Node32</title>
<g id="a_node32"><a xlink:href="classAdvanceButtonDialog.html#a4f9a1a007f50de1c3cca1403d08a0790" target="_top" xlink:title=" ">
<polygon fill="white" stroke="black" points="696,-6 696,-36 824,-36 824,-6 696,-6"/>
<text text-anchor="start" x="704" y="-24" font-family="Helvetica,sans-Serif" font-size="10.00">AdvanceButtonDialog</text>
<text text-anchor="middle" x="760" y="-13" font-family="Helvetica,sans-Serif" font-size="10.00">::AdvanceButtonDialog</text>
</a>
</g>
</g>
<!-- Node31&#45;&gt;Node32 -->
<g id="edge45" class="edge">
<title>Node31&#45;&gt;Node32</title>
<path fill="none" stroke="midnightblue" d="M902.22,-22.34C877,-22.1 848.73,-21.83 824.14,-21.6"/>
<polygon fill="midnightblue" stroke="midnightblue" points="902.43,-25.84 912.46,-22.43 902.49,-18.84 902.43,-25.84"/>
</g>
</g>
</svg>
