<?xml version="1.0" encoding="UTF-8" standalone="no"?>
<!DOCTYPE svg PUBLIC "-//W3C//DTD SVG 1.1//EN"
 "http://www.w3.org/Graphics/SVG/1.1/DTD/svg11.dtd">
<!-- Generated by graphviz version 2.43.0 (0)
 -->
<!-- Title: JoyControlStick::setButtonsExtraAccelerationStatus Pages: 1 -->
<svg width="620pt" height="100pt"
 viewBox="0.00 0.00 620.00 99.50" xmlns="http://www.w3.org/2000/svg" xmlns:xlink="http://www.w3.org/1999/xlink">
<g id="graph0" class="graph" transform="scale(1 1) rotate(0) translate(4 95.5)">
<title>JoyControlStick::setButtonsExtraAccelerationStatus</title>
<polygon fill="white" stroke="transparent" points="-4,4 -4,-95.5 616,-95.5 616,4 -4,4"/>
<!-- Node1 -->
<g id="node1" class="node">
<title>Node1</title>
<g id="a_node1"><a xlink:title=" ">
<polygon fill="#bfbfbf" stroke="black" points="463,-33 463,-63 612,-63 612,-33 463,-33"/>
<text text-anchor="start" x="471" y="-51" font-family="Helvetica,sans-Serif" font-size="10.00">JoyControlStick::setButtons</text>
<text text-anchor="middle" x="537.5" y="-40" font-family="Helvetica,sans-Serif" font-size="10.00">ExtraAccelerationStatus</text>
</a>
</g>
</g>
<!-- Node2 -->
<g id="node2" class="node">
<title>Node2</title>
<g id="a_node2"><a xlink:href="classMouseControlStickSettingsDialog.html#a476f86c223a02146ad662276ed96a6aa" target="_top" xlink:title=" ">
<polygon fill="white" stroke="black" points="249.5,-61 249.5,-91 398.5,-91 398.5,-61 249.5,-61"/>
<text text-anchor="start" x="257.5" y="-79" font-family="Helvetica,sans-Serif" font-size="10.00">MouseControlStickSettings</text>
<text text-anchor="middle" x="324" y="-68" font-family="Helvetica,sans-Serif" font-size="10.00">Dialog::changeMouseMode</text>
</a>
</g>
</g>
<!-- Node1&#45;&gt;Node2 -->
<g id="edge1" class="edge">
<title>Node1&#45;&gt;Node2</title>
<path fill="none" stroke="midnightblue" d="M452.48,-59.12C434.73,-61.47 416.11,-63.94 398.77,-66.23"/>
<polygon fill="midnightblue" stroke="midnightblue" points="453.37,-62.54 462.82,-57.75 452.45,-55.6 453.37,-62.54"/>
</g>
<!-- Node4 -->
<g id="node4" class="node">
<title>Node4</title>
<g id="a_node4"><a xlink:href="classMouseControlStickSettingsDialogHelper.html#aaffa5888388face9ed9fb4acbf4601b6" target="_top" xlink:title=" ">
<polygon fill="white" stroke="black" points="221,-0.5 221,-41.5 427,-41.5 427,-0.5 221,-0.5"/>
<text text-anchor="start" x="229" y="-29.5" font-family="Helvetica,sans-Serif" font-size="10.00">MouseControlStickSettings</text>
<text text-anchor="start" x="229" y="-18.5" font-family="Helvetica,sans-Serif" font-size="10.00">DialogHelper::updateExtraAcceleration</text>
<text text-anchor="middle" x="324" y="-7.5" font-family="Helvetica,sans-Serif" font-size="10.00">Status</text>
</a>
</g>
</g>
<!-- Node1&#45;&gt;Node4 -->
<g id="edge3" class="edge">
<title>Node1&#45;&gt;Node4</title>
<path fill="none" stroke="midnightblue" d="M452.67,-37.3C444.25,-36.22 435.64,-35.12 427.07,-34.03"/>
<polygon fill="midnightblue" stroke="midnightblue" points="452.46,-40.8 462.82,-38.59 453.35,-33.86 452.46,-40.8"/>
</g>
<!-- Node3 -->
<g id="node3" class="node">
<title>Node3</title>
<g id="a_node3"><a xlink:href="classMouseControlStickSettingsDialog.html#aac9d5ef09dced4cee0df95d99ae13369" target="_top" xlink:title=" ">
<polygon fill="white" stroke="black" points="0,-27.5 0,-68.5 185,-68.5 185,-27.5 0,-27.5"/>
<text text-anchor="start" x="8" y="-56.5" font-family="Helvetica,sans-Serif" font-size="10.00">MouseControlStickSettings</text>
<text text-anchor="start" x="8" y="-45.5" font-family="Helvetica,sans-Serif" font-size="10.00">Dialog::MouseControlStickSettings</text>
<text text-anchor="middle" x="92.5" y="-34.5" font-family="Helvetica,sans-Serif" font-size="10.00">Dialog</text>
</a>
</g>
</g>
<!-- Node2&#45;&gt;Node3 -->
<g id="edge2" class="edge">
<title>Node2&#45;&gt;Node3</title>
<path fill="none" stroke="midnightblue" d="M239.22,-65.78C221.64,-63.63 203.02,-61.36 185.17,-59.18"/>
<polygon fill="midnightblue" stroke="midnightblue" points="239.09,-69.29 249.44,-67.03 239.94,-62.34 239.09,-69.29"/>
</g>
<!-- Node4&#45;&gt;Node3 -->
<g id="edge4" class="edge">
<title>Node4&#45;&gt;Node3</title>
<path fill="none" stroke="midnightblue" d="M210.65,-34.22C202.1,-35.22 193.54,-36.23 185.14,-37.22"/>
<polygon fill="midnightblue" stroke="midnightblue" points="211.14,-37.68 220.67,-33.04 210.33,-30.73 211.14,-37.68"/>
</g>
</g>
</svg>
