<?xml version="1.0" encoding="UTF-8" standalone="no"?>
<!DOCTYPE svg PUBLIC "-//W3C//DTD SVG 1.1//EN"
 "http://www.w3.org/Graphics/SVG/1.1/DTD/svg11.dtd">
<!-- Generated by graphviz version 2.43.0 (0)
 -->
<!-- Title: AdvanceStickAssignmentDialog::changeVDPadRightButton Pages: 1 -->
<svg width="602pt" height="88pt"
 viewBox="0.00 0.00 602.00 88.00" xmlns="http://www.w3.org/2000/svg" xmlns:xlink="http://www.w3.org/1999/xlink">
<g id="graph0" class="graph" transform="scale(1 1) rotate(0) translate(4 84)">
<title>AdvanceStickAssignmentDialog::changeVDPadRightButton</title>
<polygon fill="white" stroke="transparent" points="-4,4 -4,-84 598,-84 598,4 -4,4"/>
<!-- Node1 -->
<g id="node1" class="node">
<title>Node1</title>
<g id="a_node1"><a xlink:title=" ">
<polygon fill="#bfbfbf" stroke="black" points="422,-24.5 422,-54.5 594,-54.5 594,-24.5 422,-24.5"/>
<text text-anchor="start" x="430" y="-42.5" font-family="Helvetica,sans-Serif" font-size="10.00">AdvanceStickAssignmentDialog</text>
<text text-anchor="middle" x="508" y="-31.5" font-family="Helvetica,sans-Serif" font-size="10.00">::changeVDPadRightButton</text>
</a>
</g>
</g>
<!-- Node2 -->
<g id="node2" class="node">
<title>Node2</title>
<g id="a_node2"><a xlink:href="classAdvanceStickAssignmentDialog.html#a1902ff095496e25a6ed9b37b1b7e752f" target="_top" xlink:title=" ">
<polygon fill="white" stroke="black" points="214,-49.5 214,-79.5 386,-79.5 386,-49.5 214,-49.5"/>
<text text-anchor="start" x="222" y="-67.5" font-family="Helvetica,sans-Serif" font-size="10.00">AdvanceStickAssignmentDialog</text>
<text text-anchor="middle" x="300" y="-56.5" font-family="Helvetica,sans-Serif" font-size="10.00">::disableVDPadComboBoxes</text>
</a>
</g>
</g>
<!-- Node1&#45;&gt;Node2 -->
<g id="edge1" class="edge">
<title>Node1&#45;&gt;Node2</title>
<path fill="none" stroke="midnightblue" d="M411.76,-51.06C403.24,-52.09 394.64,-53.14 386.21,-54.16"/>
<polygon fill="midnightblue" stroke="midnightblue" points="412.22,-54.53 421.72,-49.85 411.38,-47.58 412.22,-54.53"/>
</g>
<!-- Node4 -->
<g id="node4" class="node">
<title>Node4</title>
<g id="a_node4"><a xlink:href="classAdvanceStickAssignmentDialog.html#ad77eed9b3307d10e6c00bc864365fe36" target="_top" xlink:title=" ">
<polygon fill="white" stroke="black" points="214,-0.5 214,-30.5 386,-30.5 386,-0.5 214,-0.5"/>
<text text-anchor="start" x="222" y="-18.5" font-family="Helvetica,sans-Serif" font-size="10.00">AdvanceStickAssignmentDialog</text>
<text text-anchor="middle" x="300" y="-7.5" font-family="Helvetica,sans-Serif" font-size="10.00">::enableVDPadComboBoxes</text>
</a>
</g>
</g>
<!-- Node1&#45;&gt;Node4 -->
<g id="edge3" class="edge">
<title>Node1&#45;&gt;Node4</title>
<path fill="none" stroke="midnightblue" d="M411.76,-28.4C403.24,-27.41 394.64,-26.41 386.21,-25.43"/>
<polygon fill="midnightblue" stroke="midnightblue" points="411.39,-31.88 421.72,-29.57 412.2,-24.93 411.39,-31.88"/>
</g>
<!-- Node3 -->
<g id="node3" class="node">
<title>Node3</title>
<g id="a_node3"><a xlink:href="classAdvanceStickAssignmentDialog.html#a86cf0001cd774ce5ccec8543b7a9a50b" target="_top" xlink:title=" ">
<polygon fill="white" stroke="black" points="0,-24.5 0,-54.5 178,-54.5 178,-24.5 0,-24.5"/>
<text text-anchor="start" x="8" y="-42.5" font-family="Helvetica,sans-Serif" font-size="10.00">AdvanceStickAssignmentDialog</text>
<text text-anchor="middle" x="89" y="-31.5" font-family="Helvetica,sans-Serif" font-size="10.00">::AdvanceStickAssignmentDialog</text>
</a>
</g>
</g>
<!-- Node2&#45;&gt;Node3 -->
<g id="edge2" class="edge">
<title>Node2&#45;&gt;Node3</title>
<path fill="none" stroke="midnightblue" d="M204.01,-53.14C195.46,-52.11 186.82,-51.08 178.33,-50.07"/>
<polygon fill="midnightblue" stroke="midnightblue" points="203.65,-56.62 213.99,-54.33 204.48,-49.67 203.65,-56.62"/>
</g>
<!-- Node4&#45;&gt;Node3 -->
<g id="edge4" class="edge">
<title>Node4&#45;&gt;Node3</title>
<path fill="none" stroke="midnightblue" d="M204.01,-26.41C195.46,-27.39 186.82,-28.38 178.33,-29.36"/>
<polygon fill="midnightblue" stroke="midnightblue" points="204.46,-29.88 213.99,-25.26 203.66,-22.93 204.46,-29.88"/>
</g>
</g>
</svg>
