<?xml version="1.0" encoding="UTF-8" standalone="no"?>
<!DOCTYPE svg PUBLIC "-//W3C//DTD SVG 1.1//EN"
 "http://www.w3.org/Graphics/SVG/1.1/DTD/svg11.dtd">
<!-- Generated by graphviz version 2.43.0 (0)
 -->
<!-- Title: JoyButtonSlot::setExtraData Pages: 1 -->
<svg width="1502pt" height="160pt"
 viewBox="0.00 0.00 1502.00 159.50" xmlns="http://www.w3.org/2000/svg" xmlns:xlink="http://www.w3.org/1999/xlink">
<g id="graph0" class="graph" transform="scale(1 1) rotate(0) translate(4 155.5)">
<title>JoyButtonSlot::setExtraData</title>
<polygon fill="white" stroke="transparent" points="-4,4 -4,-155.5 1498,-155.5 1498,4 -4,4"/>
<!-- Node1 -->
<g id="node1" class="node">
<title>Node1</title>
<g id="a_node1"><a xlink:title=" ">
<polygon fill="#bfbfbf" stroke="black" points="1342,-101.5 1342,-120.5 1494,-120.5 1494,-101.5 1342,-101.5"/>
<text text-anchor="middle" x="1418" y="-108.5" font-family="Helvetica,sans-Serif" font-size="10.00">JoyButtonSlot::setExtraData</text>
</a>
</g>
</g>
<!-- Node2 -->
<g id="node2" class="node">
<title>Node2</title>
<g id="a_node2"><a xlink:href="classAdvanceButtonDialog.html#a4f9a1a007f50de1c3cca1403d08a0790" target="_top" xlink:title=" ">
<polygon fill="white" stroke="black" points="564.5,-121 564.5,-151 692.5,-151 692.5,-121 564.5,-121"/>
<text text-anchor="start" x="572.5" y="-139" font-family="Helvetica,sans-Serif" font-size="10.00">AdvanceButtonDialog</text>
<text text-anchor="middle" x="628.5" y="-128" font-family="Helvetica,sans-Serif" font-size="10.00">::AdvanceButtonDialog</text>
</a>
</g>
</g>
<!-- Node1&#45;&gt;Node2 -->
<g id="edge1" class="edge">
<title>Node1&#45;&gt;Node2</title>
<path fill="none" stroke="midnightblue" d="M1373.42,-123.14C1353.11,-128.19 1328.5,-133.47 1306,-136 1081.62,-161.23 812.73,-148.57 692.72,-140.69"/>
<polygon fill="midnightblue" stroke="midnightblue" points="1374.5,-126.47 1383.32,-120.61 1372.77,-119.69 1374.5,-126.47"/>
</g>
<!-- Node3 -->
<g id="node3" class="node">
<title>Node3</title>
<g id="a_node3"><a xlink:href="classAdvanceButtonDialog.html#a3f6402907f85d2edb4bfbb77a2381882" target="_top" xlink:title=" ">
<polygon fill="white" stroke="black" points="1162.5,-96 1162.5,-126 1284.5,-126 1284.5,-96 1162.5,-96"/>
<text text-anchor="start" x="1170.5" y="-114" font-family="Helvetica,sans-Serif" font-size="10.00">AdvanceButtonDialog</text>
<text text-anchor="middle" x="1223.5" y="-103" font-family="Helvetica,sans-Serif" font-size="10.00">::insertExecuteSlot</text>
</a>
</g>
</g>
<!-- Node1&#45;&gt;Node3 -->
<g id="edge2" class="edge">
<title>Node1&#45;&gt;Node3</title>
<path fill="none" stroke="midnightblue" d="M1331.42,-111C1315.6,-111 1299.38,-111 1284.52,-111"/>
<polygon fill="midnightblue" stroke="midnightblue" points="1331.75,-114.5 1341.75,-111 1331.75,-107.5 1331.75,-114.5"/>
</g>
<!-- Node6 -->
<g id="node6" class="node">
<title>Node6</title>
<g id="a_node6"><a xlink:href="classJoyButtonSlotXml.html#a1df87c1930541705c06f0d29d57648c4" target="_top" xlink:title=" ">
<polygon fill="white" stroke="black" points="1141,-57.5 1141,-76.5 1306,-76.5 1306,-57.5 1141,-57.5"/>
<text text-anchor="middle" x="1223.5" y="-64.5" font-family="Helvetica,sans-Serif" font-size="10.00">JoyButtonSlotXml::setSlotData</text>
</a>
</g>
</g>
<!-- Node1&#45;&gt;Node6 -->
<g id="edge7" class="edge">
<title>Node1&#45;&gt;Node6</title>
<path fill="none" stroke="midnightblue" d="M1365.44,-99.22C1334.37,-92.11 1295.31,-83.18 1266.19,-76.53"/>
<polygon fill="midnightblue" stroke="midnightblue" points="1364.7,-102.64 1375.23,-101.45 1366.26,-95.81 1364.7,-102.64"/>
</g>
<!-- Node4 -->
<g id="node4" class="node">
<title>Node4</title>
<g id="a_node4"><a xlink:href="classAdvanceButtonDialog.html#a973a9cf7b58950cda18e39fdffb87e09" target="_top" xlink:title=" ">
<polygon fill="white" stroke="black" points="958,-96 958,-126 1080,-126 1080,-96 958,-96"/>
<text text-anchor="start" x="966" y="-114" font-family="Helvetica,sans-Serif" font-size="10.00">AdvanceButtonDialog</text>
<text text-anchor="middle" x="1019" y="-103" font-family="Helvetica,sans-Serif" font-size="10.00">::insertSlot</text>
</a>
</g>
</g>
<!-- Node3&#45;&gt;Node4 -->
<g id="edge3" class="edge">
<title>Node3&#45;&gt;Node4</title>
<path fill="none" stroke="midnightblue" d="M1152.09,-111C1128.7,-111 1102.88,-111 1080.33,-111"/>
<polygon fill="midnightblue" stroke="midnightblue" points="1152.29,-114.5 1162.29,-111 1152.29,-107.5 1152.29,-114.5"/>
</g>
<!-- Node4&#45;&gt;Node2 -->
<g id="edge4" class="edge">
<title>Node4&#45;&gt;Node2</title>
<path fill="none" stroke="midnightblue" d="M947.3,-115.55C874.67,-120.22 762.64,-127.43 692.82,-131.93"/>
<polygon fill="midnightblue" stroke="midnightblue" points="947.97,-119.01 957.72,-114.88 947.52,-112.03 947.97,-119.01"/>
</g>
<!-- Node5 -->
<g id="node5" class="node">
<title>Node5</title>
<g id="a_node5"><a xlink:href="classAdvanceButtonDialog.html#af8430c4a355c90c657d69a44a85e6b84" target="_top" xlink:title=" ">
<polygon fill="white" stroke="black" points="742.5,-77 742.5,-107 890.5,-107 890.5,-77 742.5,-77"/>
<text text-anchor="start" x="750.5" y="-95" font-family="Helvetica,sans-Serif" font-size="10.00">AdvanceButtonDialog</text>
<text text-anchor="middle" x="816.5" y="-84" font-family="Helvetica,sans-Serif" font-size="10.00">::showSelectProfileWindow</text>
</a>
</g>
</g>
<!-- Node4&#45;&gt;Node5 -->
<g id="edge5" class="edge">
<title>Node4&#45;&gt;Node5</title>
<path fill="none" stroke="midnightblue" d="M947.76,-104.34C929.3,-102.59 909.34,-100.7 890.73,-98.94"/>
<polygon fill="midnightblue" stroke="midnightblue" points="947.56,-107.84 957.84,-105.3 948.22,-100.87 947.56,-107.84"/>
</g>
<!-- Node5&#45;&gt;Node2 -->
<g id="edge6" class="edge">
<title>Node5&#45;&gt;Node2</title>
<path fill="none" stroke="midnightblue" d="M741.99,-109.39C725.69,-113.25 708.55,-117.3 692.7,-121.05"/>
<polygon fill="midnightblue" stroke="midnightblue" points="743.08,-112.73 752.01,-107.02 741.47,-105.92 743.08,-112.73"/>
</g>
<!-- Node7 -->
<g id="node7" class="node">
<title>Node7</title>
<g id="a_node7"><a xlink:href="classJoyButtonSlotXml.html#a09e2c08735c879d0db1e9c8697bff18b" target="_top" xlink:title=" ">
<polygon fill="white" stroke="black" points="933,-57.5 933,-76.5 1105,-76.5 1105,-57.5 933,-57.5"/>
<text text-anchor="middle" x="1019" y="-64.5" font-family="Helvetica,sans-Serif" font-size="10.00">JoyButtonSlotXml::readEachSlot</text>
</a>
</g>
</g>
<!-- Node6&#45;&gt;Node7 -->
<g id="edge8" class="edge">
<title>Node6&#45;&gt;Node7</title>
<path fill="none" stroke="midnightblue" d="M1130.46,-67C1122,-67 1113.45,-67 1105.06,-67"/>
<polygon fill="midnightblue" stroke="midnightblue" points="1130.72,-70.5 1140.72,-67 1130.72,-63.5 1130.72,-70.5"/>
</g>
<!-- Node8 -->
<g id="node8" class="node">
<title>Node8</title>
<g id="a_node8"><a xlink:href="classJoyButtonSlotXml.html#ae1a67e6f62ab1e8753d43416775b420a" target="_top" xlink:title=" ">
<polygon fill="white" stroke="black" points="736,-38.5 736,-57.5 897,-57.5 897,-38.5 736,-38.5"/>
<text text-anchor="middle" x="816.5" y="-45.5" font-family="Helvetica,sans-Serif" font-size="10.00">JoyButtonSlotXml::readConfig</text>
</a>
</g>
</g>
<!-- Node7&#45;&gt;Node8 -->
<g id="edge9" class="edge">
<title>Node7&#45;&gt;Node8</title>
<path fill="none" stroke="midnightblue" d="M922.92,-57.99C914.33,-57.18 905.68,-56.36 897.24,-55.56"/>
<polygon fill="midnightblue" stroke="midnightblue" points="922.68,-61.48 932.97,-58.94 923.34,-54.51 922.68,-61.48"/>
</g>
<!-- Node9 -->
<g id="node9" class="node">
<title>Node9</title>
<g id="a_node9"><a xlink:href="classJoyButtonXml.html#a9d7b2a6324a2f8fe4f424f78aa43d261" target="_top" xlink:title=" ">
<polygon fill="white" stroke="black" points="557,-33 557,-63 700,-63 700,-33 557,-33"/>
<text text-anchor="start" x="565" y="-51" font-family="Helvetica,sans-Serif" font-size="10.00">JoyButtonXml::readButton</text>
<text text-anchor="middle" x="628.5" y="-40" font-family="Helvetica,sans-Serif" font-size="10.00">Config</text>
</a>
</g>
</g>
<!-- Node8&#45;&gt;Node9 -->
<g id="edge10" class="edge">
<title>Node8&#45;&gt;Node9</title>
<path fill="none" stroke="midnightblue" d="M725.77,-48C717.2,-48 708.58,-48 700.22,-48"/>
<polygon fill="midnightblue" stroke="midnightblue" points="725.81,-51.5 735.81,-48 725.81,-44.5 725.81,-51.5"/>
</g>
<!-- Node10 -->
<g id="node10" class="node">
<title>Node10</title>
<g id="a_node10"><a xlink:href="classJoyButtonXml.html#a9d79d75b14b57419ed1fc5639dde8515" target="_top" xlink:title=" ">
<polygon fill="white" stroke="black" points="379,-38.5 379,-57.5 521,-57.5 521,-38.5 379,-38.5"/>
<text text-anchor="middle" x="450" y="-45.5" font-family="Helvetica,sans-Serif" font-size="10.00">JoyButtonXml::readConfig</text>
</a>
</g>
</g>
<!-- Node9&#45;&gt;Node10 -->
<g id="edge11" class="edge">
<title>Node9&#45;&gt;Node10</title>
<path fill="none" stroke="midnightblue" d="M546.93,-48C538.31,-48 529.6,-48 521.12,-48"/>
<polygon fill="midnightblue" stroke="midnightblue" points="546.98,-51.5 556.98,-48 546.98,-44.5 546.98,-51.5"/>
</g>
<!-- Node11 -->
<g id="node11" class="node">
<title>Node11</title>
<g id="a_node11"><a xlink:href="classSetJoystickXml.html#aa95423a01fab878cbc69bffb7f6121f3" target="_top" xlink:title="Deserializes the given XML stream into a SetJoystick object.">
<polygon fill="white" stroke="black" points="0,-57.5 0,-76.5 149,-76.5 149,-57.5 0,-57.5"/>
<text text-anchor="middle" x="74.5" y="-64.5" font-family="Helvetica,sans-Serif" font-size="10.00">SetJoystickXml::readConfig</text>
</a>
</g>
</g>
<!-- Node10&#45;&gt;Node11 -->
<g id="edge12" class="edge">
<title>Node10&#45;&gt;Node11</title>
<path fill="none" stroke="midnightblue" d="M395.73,-59.45C378.94,-62.55 360.27,-65.46 343,-67 277.66,-72.81 202.99,-72.21 149.17,-70.5"/>
<polygon fill="midnightblue" stroke="midnightblue" points="396.74,-62.82 405.91,-57.51 395.43,-55.95 396.74,-62.82"/>
</g>
<!-- Node12 -->
<g id="node12" class="node">
<title>Node12</title>
<g id="a_node12"><a xlink:href="classJoyControlStick.html#ab6ce741115ee3d436c1a7e866abd21e6" target="_top" xlink:title="Take a XML stream and set the stick and direction button properties according to the values contained...">
<polygon fill="white" stroke="black" points="189.5,-38.5 189.5,-57.5 338.5,-57.5 338.5,-38.5 189.5,-38.5"/>
<text text-anchor="middle" x="264" y="-45.5" font-family="Helvetica,sans-Serif" font-size="10.00">JoyControlStick::readConfig</text>
</a>
</g>
</g>
<!-- Node10&#45;&gt;Node12 -->
<g id="edge13" class="edge">
<title>Node10&#45;&gt;Node12</title>
<path fill="none" stroke="midnightblue" d="M368.91,-48C358.82,-48 348.54,-48 338.56,-48"/>
<polygon fill="midnightblue" stroke="midnightblue" points="368.91,-51.5 378.91,-48 368.91,-44.5 368.91,-51.5"/>
</g>
<!-- Node13 -->
<g id="node13" class="node">
<title>Node13</title>
<g id="a_node13"><a xlink:href="classJoyDPadXml.html#ae9a3556242b984c81fc6945acafc5586" target="_top" xlink:title=" ">
<polygon fill="white" stroke="black" points="185,-0.5 185,-19.5 343,-19.5 343,-0.5 185,-0.5"/>
<text text-anchor="middle" x="264" y="-7.5" font-family="Helvetica,sans-Serif" font-size="10.00">JoyDPadXml::readMainConfig</text>
</a>
</g>
</g>
<!-- Node10&#45;&gt;Node13 -->
<g id="edge15" class="edge">
<title>Node10&#45;&gt;Node13</title>
<path fill="none" stroke="midnightblue" d="M392.44,-36.32C366.35,-30.93 335.76,-24.61 311.1,-19.52"/>
<polygon fill="midnightblue" stroke="midnightblue" points="392.07,-39.82 402.57,-38.41 393.48,-32.96 392.07,-39.82"/>
</g>
<!-- Node12&#45;&gt;Node11 -->
<g id="edge14" class="edge">
<title>Node12&#45;&gt;Node11</title>
<path fill="none" stroke="midnightblue" d="M179.42,-56.47C169.33,-57.49 159.09,-58.53 149.16,-59.54"/>
<polygon fill="midnightblue" stroke="midnightblue" points="179.84,-59.95 189.43,-55.45 179.13,-52.98 179.84,-59.95"/>
</g>
</g>
</svg>
