<?xml version="1.0" encoding="UTF-8" standalone="no"?>
<!DOCTYPE svg PUBLIC "-//W3C//DTD SVG 1.1//EN"
 "http://www.w3.org/Graphics/SVG/1.1/DTD/svg11.dtd">
<!-- Generated by graphviz version 2.43.0 (0)
 -->
<!-- Title: InputDevice::propogateSetAxisThrottleChange Pages: 1 -->
<svg width="351pt" height="104pt"
 viewBox="0.00 0.00 351.00 104.00" xmlns="http://www.w3.org/2000/svg" xmlns:xlink="http://www.w3.org/1999/xlink">
<g id="graph0" class="graph" transform="scale(1 1) rotate(0) translate(4 100)">
<title>InputDevice::propogateSetAxisThrottleChange</title>
<polygon fill="white" stroke="transparent" points="-4,4 -4,-100 347,-100 347,4 -4,4"/>
<!-- Node1 -->
<g id="node1" class="node">
<title>Node1</title>
<g id="a_node1"><a xlink:title=" ">
<polygon fill="#bfbfbf" stroke="black" points="0,-33 0,-63 146,-63 146,-33 0,-33"/>
<text text-anchor="start" x="8" y="-51" font-family="Helvetica,sans-Serif" font-size="10.00">InputDevice::propogateSet</text>
<text text-anchor="middle" x="73" y="-40" font-family="Helvetica,sans-Serif" font-size="10.00">AxisThrottleChange</text>
</a>
</g>
</g>
<!-- Node2 -->
<g id="node2" class="node">
<title>Node2</title>
<g id="a_node2"><a xlink:href="classSetJoystick.html#a7c8f524fe045b89901ba945c5e1045cf" target="_top" xlink:title=" ">
<polygon fill="white" stroke="black" points="198.5,-76.5 198.5,-95.5 326.5,-95.5 326.5,-76.5 198.5,-76.5"/>
<text text-anchor="middle" x="262.5" y="-83.5" font-family="Helvetica,sans-Serif" font-size="10.00">SetJoystick::getJoyAxis</text>
</a>
</g>
</g>
<!-- Node1&#45;&gt;Node2 -->
<g id="edge1" class="edge">
<title>Node1&#45;&gt;Node2</title>
<path fill="none" stroke="midnightblue" d="M146.22,-62.64C165.55,-66.55 186.16,-70.73 204.53,-74.46"/>
<polygon fill="midnightblue" stroke="midnightblue" points="203.99,-77.92 214.49,-76.47 205.38,-71.06 203.99,-77.92"/>
</g>
<!-- Node3 -->
<g id="node3" class="node">
<title>Node3</title>
<g id="a_node3"><a xlink:href="classInputDevice.html#af6633e823a5d5d441940cf923d9249a6" target="_top" xlink:title=" ">
<polygon fill="white" stroke="black" points="182,-38.5 182,-57.5 343,-57.5 343,-38.5 182,-38.5"/>
<text text-anchor="middle" x="262.5" y="-45.5" font-family="Helvetica,sans-Serif" font-size="10.00">InputDevice::getJoystick_sets</text>
</a>
</g>
</g>
<!-- Node1&#45;&gt;Node3 -->
<g id="edge2" class="edge">
<title>Node1&#45;&gt;Node3</title>
<path fill="none" stroke="midnightblue" d="M146.22,-48C154.6,-48 163.22,-48 171.8,-48"/>
<polygon fill="midnightblue" stroke="midnightblue" points="171.83,-51.5 181.83,-48 171.83,-44.5 171.83,-51.5"/>
</g>
<!-- Node4 -->
<g id="node4" class="node">
<title>Node4</title>
<g id="a_node4"><a xlink:href="classJoyAxis.html#a01dfb4ec2c2e85304a479f21b9cffe49" target="_top" xlink:title=" ">
<polygon fill="white" stroke="black" points="206,-0.5 206,-19.5 319,-19.5 319,-0.5 206,-0.5"/>
<text text-anchor="middle" x="262.5" y="-7.5" font-family="Helvetica,sans-Serif" font-size="10.00">JoyAxis::getThrottle</text>
</a>
</g>
</g>
<!-- Node1&#45;&gt;Node4 -->
<g id="edge3" class="edge">
<title>Node1&#45;&gt;Node4</title>
<path fill="none" stroke="midnightblue" d="M146.22,-33.36C165.55,-29.45 186.16,-25.27 204.53,-21.54"/>
<polygon fill="midnightblue" stroke="midnightblue" points="205.38,-24.94 214.49,-19.53 203.99,-18.08 205.38,-24.94"/>
</g>
</g>
</svg>
