<?xml version="1.0" encoding="UTF-8" standalone="no"?>
<!DOCTYPE svg PUBLIC "-//W3C//DTD SVG 1.1//EN"
 "http://www.w3.org/Graphics/SVG/1.1/DTD/svg11.dtd">
<!-- Generated by graphviz version 2.43.0 (0)
 -->
<!-- Title: CommandLineUtility::isTrayHidden Pages: 1 -->
<svg width="320pt" height="78pt"
 viewBox="0.00 0.00 320.00 77.50" xmlns="http://www.w3.org/2000/svg" xmlns:xlink="http://www.w3.org/1999/xlink">
<g id="graph0" class="graph" transform="scale(1 1) rotate(0) translate(4 73.5)">
<title>CommandLineUtility::isTrayHidden</title>
<polygon fill="white" stroke="transparent" points="-4,4 -4,-73.5 316,-73.5 316,4 -4,4"/>
<!-- Node1 -->
<g id="node1" class="node">
<title>Node1</title>
<g id="a_node1"><a xlink:title=" ">
<polygon fill="#bfbfbf" stroke="black" points="195,-17 195,-47 312,-47 312,-17 195,-17"/>
<text text-anchor="start" x="203" y="-35" font-family="Helvetica,sans-Serif" font-size="10.00">CommandLineUtility</text>
<text text-anchor="middle" x="253.5" y="-24" font-family="Helvetica,sans-Serif" font-size="10.00">::isTrayHidden</text>
</a>
</g>
</g>
<!-- Node2 -->
<g id="node2" class="node">
<title>Node2</title>
<g id="a_node2"><a xlink:href="classMainWindow.html#affe344f13315c09bd280d0bc200e94ca" target="_top" xlink:title=" ">
<polygon fill="white" stroke="black" points="0,-39 0,-69 159,-69 159,-39 0,-39"/>
<text text-anchor="start" x="8" y="-57" font-family="Helvetica,sans-Serif" font-size="10.00">MainWindow::changeWindow</text>
<text text-anchor="middle" x="79.5" y="-46" font-family="Helvetica,sans-Serif" font-size="10.00">Status</text>
</a>
</g>
</g>
<!-- Node1&#45;&gt;Node2 -->
<g id="edge1" class="edge">
<title>Node1&#45;&gt;Node2</title>
<path fill="none" stroke="midnightblue" d="M184.68,-40.67C176.31,-41.74 167.7,-42.85 159.19,-43.94"/>
<polygon fill="midnightblue" stroke="midnightblue" points="185.27,-44.13 194.75,-39.39 184.38,-37.18 185.27,-44.13"/>
</g>
<!-- Node3 -->
<g id="node3" class="node">
<title>Node3</title>
<g id="a_node3"><a xlink:href="classMainWindow.html#a2f0c03d3d51748ab794e698322110614" target="_top" xlink:title=" ">
<polygon fill="white" stroke="black" points="5.5,-0.5 5.5,-19.5 153.5,-19.5 153.5,-0.5 5.5,-0.5"/>
<text text-anchor="middle" x="79.5" y="-7.5" font-family="Helvetica,sans-Serif" font-size="10.00">MainWindow::MainWindow</text>
</a>
</g>
</g>
<!-- Node1&#45;&gt;Node3 -->
<g id="edge2" class="edge">
<title>Node1&#45;&gt;Node3</title>
<path fill="none" stroke="midnightblue" d="M184.7,-23.33C174.52,-22.03 163.97,-20.68 153.68,-19.36"/>
<polygon fill="midnightblue" stroke="midnightblue" points="184.38,-26.82 194.75,-24.61 185.27,-19.87 184.38,-26.82"/>
</g>
</g>
</svg>
