<?xml version="1.0" encoding="UTF-8" standalone="no"?>
<!DOCTYPE svg PUBLIC "-//W3C//DTD SVG 1.1//EN"
 "http://www.w3.org/Graphics/SVG/1.1/DTD/svg11.dtd">
<!-- Generated by graphviz version 2.43.0 (0)
 -->
<!-- Title: SimpleKeyGrabberButton::eventFilter Pages: 1 -->
<!--zoomable 668 -->

<svg id="main" version="1.1" xmlns="http://www.w3.org/2000/svg" xmlns:xlink="http://www.w3.org/1999/xlink" xml:space="preserve" onload="init(evt)">
<style type="text/css"><![CDATA[
.node, .edge {opacity: 0.7;}
.node.selected, .edge.selected {opacity: 1;}
.edge:hover path { stroke: red; }
.edge:hover polygon { stroke: red; fill: red; }
]]></style>

<defs>
  <circle id="rim" cx="0" cy="0" r="7"/>
  <circle id="rim2" cx="0" cy="0" r="3.5"/>
  <g id="zoomPlus">
    <use xlink:href="#rim" fill="#404040"><set attributeName="fill" to="#808080" begin="zoomplus.mouseover" end="zoomplus.mouseout"/></use>
    <path d="M-4,0h8M0,-4v8" fill="none" stroke="white" stroke-width="1.5" pointer-events="none"/>
  </g>
  <g id="zoomMin">
    <use xlink:href="#rim" fill="#404040"><set attributeName="fill" to="#808080" begin="zoomminus.mouseover" end="zoomminus.mouseout"/></use>
    <path d="M-4,0h8" fill="none" stroke="white" stroke-width="1.5" pointer-events="none"/>
  </g>
  <g id="arrowUp" transform="translate(30 24)">
    <use xlink:href="#rim"/>
    <path pointer-events="none" fill="none" stroke="white" stroke-width="1.5" d="M0,-3.0v7 M-2.5,-0.5L0,-3.0L2.5,-0.5"/>
  </g>
  <g id="arrowRight" transform="rotate(90) translate(36 -43)">
    <use xlink:href="#rim"/>
    <path pointer-events="none" fill="none" stroke="white" stroke-width="1.5" d="M0,-3.0v7 M-2.5,-0.5L0,-3.0L2.5,-0.5"/>
  </g>
  <g id="arrowDown" transform="rotate(180) translate(-30 -48)">
    <use xlink:href="#rim"/>
    <path pointer-events="none" fill="none" stroke="white" stroke-width="1.5" d="M0,-3.0v7 M-2.5,-0.5L0,-3.0L2.5,-0.5"/>
  </g>
  <g id="arrowLeft" transform="rotate(270) translate(-36 17)">
    <use xlink:href="#rim"/>
    <path pointer-events="none" fill="none" stroke="white" stroke-width="1.5" d="M0,-3.0v7 M-2.5,-0.5L0,-3.0L2.5,-0.5"/>
  </g>
  <g id="resetDef">
    <use xlink:href="#rim2" fill="#404040"><set attributeName="fill" to="#808080" begin="reset.mouseover" end="reset.mouseout"/></use>
  </g>
</defs>
<script type="application/ecmascript">
var viewWidth = 1359;
var viewHeight = 668;
var sectionId = 'dynsection-3';
</script>
<script type="application/ecmascript" xlink:href="svg.min.js"/>
<svg id="graph" class="graph">
<g id="viewport">
<title>SimpleKeyGrabberButton::eventFilter</title>
<!-- Node1 -->
<g id="Node000001" class="node">
<title>Node1</title>
<g id="a_Node000001"><a xlink:title=" ">
<polygon fill="#999999" stroke="#666666" points="140,-241.5 0,-241.5 0,-211.5 140,-211.5 140,-241.5"/>
<text text-anchor="start" x="8" y="-229.5" font-family="Helvetica,sans-Serif" font-size="10.00">SimpleKeyGrabberButton</text>
<text text-anchor="middle" x="70" y="-218.5" font-family="Helvetica,sans-Serif" font-size="10.00">::eventFilter</text>
</a>
</g>
</g>
<!-- Node2 -->
<g id="Node000002" class="node">
<title>Node2</title>
<g id="a_Node000002"><a xlink:href="classSimpleKeyGrabberButton.html#a365ee8b3c43a1499e0fd5cda58d855c1" target="_top" xlink:title=" ">
<polygon fill="white" stroke="#666666" points="324,-659.5 184,-659.5 184,-629.5 324,-629.5 324,-659.5"/>
<text text-anchor="start" x="192" y="-647.5" font-family="Helvetica,sans-Serif" font-size="10.00">SimpleKeyGrabberButton</text>
<text text-anchor="middle" x="254" y="-636.5" font-family="Helvetica,sans-Serif" font-size="10.00">::buttonCodeChanged</text>
</a>
</g>
</g>
<!-- Node1&#45;&gt;Node2 -->
<g id="edge1_Node000001_Node000002" class="edge">
<title>Node1&#45;&gt;Node2</title>
<g id="a_edge1_Node000001_Node000002"><a xlink:title=" ">
<path fill="none" stroke="#63b8ff" d="M73.06,-241.61C82.24,-306.85 121.36,-563.54 176,-620.5 176.93,-621.47 177.89,-622.39 178.89,-623.28"/>
<polygon fill="#63b8ff" stroke="#63b8ff" points="177.03,-626.26 187.15,-629.41 181.2,-620.64 177.03,-626.26"/>
</a>
</g>
</g>
<!-- Node3 -->
<g id="Node000003" class="node">
<title>Node3</title>
<g id="a_Node000003"><a xlink:href="classWinExtras.html#a0a256f3e0cfa4aae5937dae5b51fb24b" target="_top" xlink:title="Obtain a more specific virtual key (unsigned int) for a key grab event.">
<polygon fill="white" stroke="#666666" points="332,-611 176,-611 176,-592 332,-592 332,-611"/>
<text text-anchor="middle" x="254" y="-599" font-family="Helvetica,sans-Serif" font-size="10.00">WinExtras::correctVirtualKey</text>
</a>
</g>
</g>
<!-- Node1&#45;&gt;Node3 -->
<g id="edge2_Node000001_Node000003" class="edge">
<title>Node1&#45;&gt;Node3</title>
<g id="a_edge2_Node000001_Node000003"><a xlink:title=" ">
<path fill="none" stroke="#63b8ff" d="M70.81,-241.62C70.99,-295.39 78.96,-479.34 176,-577.5 179.88,-581.42 184.38,-584.7 189.23,-587.45"/>
<polygon fill="#63b8ff" stroke="#63b8ff" points="187.75,-590.62 198.27,-591.84 190.8,-584.32 187.75,-590.62"/>
</a>
</g>
</g>
<!-- Node4 -->
<g id="Node000004" class="node">
<title>Node4</title>
<g id="a_Node000004"><a xlink:href="classBaseEventHandler.html#a9a014e472ec57408d16b8b5eed964e90" target="_top" xlink:title=" ">
<polygon fill="white" stroke="#666666" points="1133.5,-612 961.5,-612 961.5,-593 1133.5,-593 1133.5,-612"/>
<text text-anchor="middle" x="1047.5" y="-600" font-family="Helvetica,sans-Serif" font-size="10.00">BaseEventHandler::getIdentifier</text>
</a>
</g>
</g>
<!-- Node1&#45;&gt;Node4 -->
<g id="edge3_Node000001_Node000004" class="edge">
<title>Node1&#45;&gt;Node4</title>
<g id="a_edge3_Node000001_Node000004"><a xlink:title=" ">
<path fill="none" stroke="#63b8ff" d="M78.26,-241.86C110.62,-307.78 248.67,-563.5 443,-563.5 443,-563.5 443,-563.5 645,-563.5 761.52,-563.5 896.18,-579.97 976.18,-591.51"/>
<polygon fill="#63b8ff" stroke="#63b8ff" points="975.74,-594.98 986.14,-592.96 976.75,-588.05 975.74,-594.98"/>
</a>
</g>
</g>
<!-- Node5 -->
<g id="Node000005" class="node">
<title>Node5</title>
<g id="a_Node000005"><a xlink:href="classAntKeyMapper.html#acd08c44a2501edcfdb1ef8a68d534b1b" target="_top" xlink:title="Obtain the singleton instance.">
<polygon fill="white" stroke="#666666" points="329.5,-93 178.5,-93 178.5,-74 329.5,-74 329.5,-93"/>
<text text-anchor="middle" x="254" y="-81" font-family="Helvetica,sans-Serif" font-size="10.00">AntKeyMapper::getInstance</text>
</a>
</g>
</g>
<!-- Node1&#45;&gt;Node5 -->
<g id="edge4_Node000001_Node000005" class="edge">
<title>Node1&#45;&gt;Node5</title>
<g id="a_edge4_Node000001_Node000005"><a xlink:title=" ">
<path fill="none" stroke="#63b8ff" d="M79.5,-211.24C95.05,-184.79 130.69,-130.6 176,-102.5 179.55,-100.3 183.35,-98.35 187.28,-96.62"/>
<polygon fill="#63b8ff" stroke="#63b8ff" points="188.57,-99.88 196.64,-93 186.05,-93.35 188.57,-99.88"/>
</a>
</g>
</g>
<!-- Node7 -->
<g id="Node000007" class="node">
<title>Node7</title>
<g id="a_Node000007"><a xlink:href="classEventHandlerFactory.html#a90ce153a19fbb91128bd52eb083ce271" target="_top" xlink:title=" ">
<polygon fill="white" stroke="#666666" points="1106.5,-574.5 988.5,-574.5 988.5,-544.5 1106.5,-544.5 1106.5,-574.5"/>
<text text-anchor="start" x="996.5" y="-562.5" font-family="Helvetica,sans-Serif" font-size="10.00">EventHandlerFactory</text>
<text text-anchor="middle" x="1047.5" y="-551.5" font-family="Helvetica,sans-Serif" font-size="10.00">::getInstance</text>
</a>
</g>
</g>
<!-- Node1&#45;&gt;Node7 -->
<g id="edge6_Node000001_Node000007" class="edge">
<title>Node1&#45;&gt;Node7</title>
<g id="a_edge6_Node000001_Node000007"><a xlink:title=" ">
<path fill="none" stroke="#63b8ff" d="M81.51,-241.66C121.5,-297.36 270.62,-487.5 443,-487.5 443,-487.5 443,-487.5 645,-487.5 767.75,-487.5 908.34,-520.51 986.34,-541.83"/>
<polygon fill="#63b8ff" stroke="#63b8ff" points="985.43,-545.21 996,-544.49 987.29,-538.46 985.43,-545.21"/>
</a>
</g>
</g>
<!-- Node11 -->
<g id="Node000011" class="node">
<title>Node11</title>
<g id="a_Node000011"><a xlink:href="classJoyButtonSlot.html#a6e10409ded595380cbdcfd5c827ab32a" target="_top" xlink:title=" ">
<polygon fill="white" stroke="#666666" points="520,-136 368,-136 368,-117 520,-117 520,-136"/>
<text text-anchor="middle" x="444" y="-124" font-family="Helvetica,sans-Serif" font-size="10.00">JoyButtonSlot::getSlotString</text>
</a>
</g>
</g>
<!-- Node1&#45;&gt;Node11 -->
<g id="edge10_Node000001_Node000011" class="edge">
<title>Node1&#45;&gt;Node11</title>
<g id="a_edge10_Node000001_Node000011"><a xlink:title=" ">
<path fill="none" stroke="#63b8ff" d="M116.83,-211.46C135.16,-205.61 156.51,-199 176,-193.5 250.53,-172.46 337.7,-151.21 391.63,-138.44"/>
<polygon fill="#63b8ff" stroke="#63b8ff" points="392.71,-141.79 401.64,-136.08 391.1,-134.97 392.71,-141.79"/>
</a>
</g>
</g>
<!-- Node15 -->
<g id="Node000015" class="node">
<title>Node15</title>
<g id="a_Node000015"><a xlink:href="classJoyDPadXml.html#aee163ecdea6d6e34eebc93ff16ce2763" target="_top" xlink:title=" ">
<polygon fill="white" stroke="#666666" points="1336,-179 1195,-179 1195,-160 1336,-160 1336,-179"/>
<text text-anchor="middle" x="1265.5" y="-167" font-family="Helvetica,sans-Serif" font-size="10.00">JoyDPadXml::JoyDPadXml</text>
</a>
</g>
</g>
<!-- Node1&#45;&gt;Node15 -->
<g id="edge35_Node000001_Node000015" class="edge">
<title>Node1&#45;&gt;Node15</title>
<g id="a_edge35_Node000001_Node000015"><a xlink:title=" ">
<path fill="none" stroke="#63b8ff" d="M140.24,-222.71C265.49,-215.9 538.03,-201.3 768,-190.5 914.91,-183.6 1086.32,-176.58 1184.46,-172.66"/>
<polygon fill="#63b8ff" stroke="#63b8ff" points="1184.75,-176.15 1194.6,-172.25 1184.47,-169.15 1184.75,-176.15"/>
</a>
</g>
</g>
<!-- Node16 -->
<g id="Node000016" class="node">
<title>Node16</title>
<g id="a_Node000016"><a xlink:href="event_8cpp.html#a76ce89b71143c1c09343f45f038b4a67" target="_top" xlink:title=" ">
<polygon fill="white" stroke="#666666" points="700,-402 588,-402 588,-383 700,-383 700,-402"/>
<text text-anchor="middle" x="644" y="-390" font-family="Helvetica,sans-Serif" font-size="10.00">keysymToKeyString</text>
</a>
</g>
</g>
<!-- Node1&#45;&gt;Node16 -->
<g id="edge36_Node000001_Node000016" class="edge">
<title>Node1&#45;&gt;Node16</title>
<g id="a_edge36_Node000001_Node000016"><a xlink:title=" ">
<path fill="none" stroke="#63b8ff" d="M117.96,-241.56C136.06,-247.28 156.96,-253.8 176,-259.5 330.66,-305.82 515.27,-357.27 598.47,-380.25"/>
<polygon fill="#63b8ff" stroke="#63b8ff" points="597.77,-383.69 608.34,-382.98 599.63,-376.94 597.77,-383.69"/>
</a>
</g>
</g>
<!-- Node27 -->
<g id="Node000027" class="node">
<title>Node27</title>
<g id="a_Node000027"><a xlink:href="classSimpleKeyGrabberButton.html#a4f7da5dfa576992eb688e4cde774d5cc" target="_top" xlink:title=" ">
<polygon fill="white" stroke="#666666" points="324,-141.5 184,-141.5 184,-111.5 324,-111.5 324,-141.5"/>
<text text-anchor="start" x="192" y="-129.5" font-family="Helvetica,sans-Serif" font-size="10.00">SimpleKeyGrabberButton</text>
<text text-anchor="middle" x="254" y="-118.5" font-family="Helvetica,sans-Serif" font-size="10.00">::refreshButtonLabel</text>
</a>
</g>
</g>
<!-- Node1&#45;&gt;Node27 -->
<g id="edge37_Node000001_Node000027" class="edge">
<title>Node1&#45;&gt;Node27</title>
<g id="a_edge37_Node000001_Node000027"><a xlink:title=" ">
<path fill="none" stroke="#63b8ff" d="M90.27,-211.44C110.7,-195.96 144.34,-171.88 176,-155.5 182.96,-151.9 190.47,-148.51 197.98,-145.41"/>
<polygon fill="#63b8ff" stroke="#63b8ff" points="199.45,-148.59 207.44,-141.64 196.86,-142.09 199.45,-148.59"/>
</a>
</g>
</g>
<!-- Node28 -->
<g id="Node000028" class="node">
<title>Node28</title>
<g id="a_Node000028"><a xlink:href="classJoyButtonSlot.html#a23e2639dee82e872b1ebf3958b0db68c" target="_top" xlink:title=" ">
<polygon fill="white" stroke="#666666" points="327.5,-56 180.5,-56 180.5,-37 327.5,-37 327.5,-56"/>
<text text-anchor="middle" x="254" y="-44" font-family="Helvetica,sans-Serif" font-size="10.00">JoyButtonSlot::setSlotCode</text>
</a>
</g>
</g>
<!-- Node1&#45;&gt;Node28 -->
<g id="edge39_Node000001_Node000028" class="edge">
<title>Node1&#45;&gt;Node28</title>
<g id="a_edge39_Node000001_Node000028"><a xlink:title=" ">
<path fill="none" stroke="#63b8ff" d="M76.37,-211.2C88.59,-178.7 121.71,-102.66 176,-64.5 178.11,-63.01 180.33,-61.65 182.63,-60.4"/>
<polygon fill="#63b8ff" stroke="#63b8ff" points="184.24,-63.51 191.82,-56.1 181.28,-57.17 184.24,-63.51"/>
</a>
</g>
</g>
<!-- Node29 -->
<g id="Node000029" class="node">
<title>Node29</title>
<g id="a_Node000029"><a xlink:href="classJoyButtonSlot.html#aa2af2756eb5c633fbe46018773f20bfb" target="_top" xlink:title=" ">
<polygon fill="white" stroke="#666666" points="328.5,-19 179.5,-19 179.5,0 328.5,0 328.5,-19"/>
<text text-anchor="middle" x="254" y="-7" font-family="Helvetica,sans-Serif" font-size="10.00">JoyButtonSlot::setSlotMode</text>
</a>
</g>
</g>
<!-- Node1&#45;&gt;Node29 -->
<g id="edge40_Node000001_Node000029" class="edge">
<title>Node1&#45;&gt;Node29</title>
<g id="a_edge40_Node000001_Node000029"><a xlink:title=" ">
<path fill="none" stroke="#63b8ff" d="M74.43,-211.23C83.7,-173.65 112.92,-76.2 176,-27.5 177.63,-26.24 179.33,-25.07 181.1,-23.98"/>
<polygon fill="#63b8ff" stroke="#63b8ff" points="183.09,-26.88 190.34,-19.15 179.85,-20.68 183.09,-26.88"/>
</a>
</g>
</g>
<!-- Node30 -->
<g id="Node000030" class="node">
<title>Node30</title>
<g id="a_Node000030"><a xlink:href="event_8cpp.html#a720e476fc47628b6581dba3eb6ce9657" target="_top" xlink:title=" ">
<polygon fill="white" stroke="#666666" points="915,-255 768,-255 768,-236 915,-236 915,-255"/>
<text text-anchor="middle" x="841.5" y="-243" font-family="Helvetica,sans-Serif" font-size="10.00">X11KeyCodeToX11KeySym</text>
</a>
</g>
</g>
<!-- Node1&#45;&gt;Node30 -->
<g id="edge41_Node000001_Node000030" class="edge">
<title>Node1&#45;&gt;Node30</title>
<g id="a_edge41_Node000001_Node000030"><a xlink:title=" ">
<path fill="none" stroke="#63b8ff" d="M140.3,-228.21C282.14,-231.71 604.97,-239.68 757.61,-243.45"/>
<polygon fill="#63b8ff" stroke="#63b8ff" points="757.77,-246.96 767.86,-243.71 757.94,-239.96 757.77,-246.96"/>
</a>
</g>
</g>
<!-- Node6 -->
<g id="Node000006" class="node">
<title>Node6</title>
<g id="a_Node000006"><a xlink:href="antkeymapper_8cpp.html#a4f87707944cf82e8e59c85d48e24951c" target="_top" xlink:title=" ">
<polygon fill="white" stroke="#666666" points="511,-93 377,-93 377,-74 511,-74 511,-93"/>
<text text-anchor="middle" x="444" y="-81" font-family="Helvetica,sans-Serif" font-size="10.00">buildEventGeneratorList</text>
</a>
</g>
</g>
<!-- Node5&#45;&gt;Node6 -->
<g id="edge5_Node000005_Node000006" class="edge">
<title>Node5&#45;&gt;Node6</title>
<g id="a_edge5_Node000005_Node000006"><a xlink:title=" ">
<path fill="none" stroke="#63b8ff" d="M329.57,-83.5C341.75,-83.5 354.37,-83.5 366.59,-83.5"/>
<polygon fill="#63b8ff" stroke="#63b8ff" points="366.74,-87 376.74,-83.5 366.74,-80 366.74,-87"/>
</a>
</g>
</g>
<!-- Node8 -->
<g id="Node000008" class="node">
<title>Node8</title>
<g id="a_Node000008"><a xlink:href="classEventHandlerFactory.html#ade5162034acc0f8683725fdb124bece0" target="_top" xlink:title=" ">
<polygon fill="white" stroke="#666666" points="1335.5,-622.5 1195.5,-622.5 1195.5,-592.5 1335.5,-592.5 1335.5,-622.5"/>
<text text-anchor="start" x="1203.5" y="-610.5" font-family="Helvetica,sans-Serif" font-size="10.00">EventHandlerFactory</text>
<text text-anchor="middle" x="1265.5" y="-599.5" font-family="Helvetica,sans-Serif" font-size="10.00">::buildEventGeneratorList</text>
</a>
</g>
</g>
<!-- Node7&#45;&gt;Node8 -->
<g id="edge7_Node000007_Node000008" class="edge">
<title>Node7&#45;&gt;Node8</title>
<g id="a_edge7_Node000007_Node000008"><a xlink:title=" ">
<path fill="none" stroke="#63b8ff" d="M1106.67,-572.43C1131.27,-577.89 1160.28,-584.34 1186.68,-590.21"/>
<polygon fill="#63b8ff" stroke="#63b8ff" points="1186.13,-593.67 1196.65,-592.42 1187.65,-586.84 1186.13,-593.67"/>
</a>
</g>
</g>
<!-- Node9 -->
<g id="Node000009" class="node">
<title>Node9</title>
<g id="a_Node000009"><a xlink:href="classEventHandlerFactory.html#afa5ca0171c70b1a24f92b5c8dd00dc92" target="_top" xlink:title=" ">
<polygon fill="white" stroke="#666666" points="1324.5,-574.5 1206.5,-574.5 1206.5,-544.5 1324.5,-544.5 1324.5,-574.5"/>
<text text-anchor="start" x="1214.5" y="-562.5" font-family="Helvetica,sans-Serif" font-size="10.00">EventHandlerFactory</text>
<text text-anchor="middle" x="1265.5" y="-551.5" font-family="Helvetica,sans-Serif" font-size="10.00">::fallBackIdentifier</text>
</a>
</g>
</g>
<!-- Node7&#45;&gt;Node9 -->
<g id="edge8_Node000007_Node000009" class="edge">
<title>Node7&#45;&gt;Node9</title>
<g id="a_edge8_Node000007_Node000009"><a xlink:title=" ">
<path fill="none" stroke="#63b8ff" d="M1106.67,-559.5C1134.16,-559.5 1167.16,-559.5 1195.86,-559.5"/>
<polygon fill="#63b8ff" stroke="#63b8ff" points="1196.23,-563 1206.23,-559.5 1196.23,-556 1196.23,-563"/>
</a>
</g>
</g>
<!-- Node10 -->
<g id="Node000010" class="node">
<title>Node10</title>
<g id="a_Node000010"><a xlink:href="classEventHandlerFactory.html#a4c13007f0ece5bf881080c9c04f1f20d" target="_top" xlink:title=" ">
<polygon fill="white" stroke="#666666" points="1324.5,-526.5 1206.5,-526.5 1206.5,-496.5 1324.5,-496.5 1324.5,-526.5"/>
<text text-anchor="start" x="1214.5" y="-514.5" font-family="Helvetica,sans-Serif" font-size="10.00">EventHandlerFactory</text>
<text text-anchor="middle" x="1265.5" y="-503.5" font-family="Helvetica,sans-Serif" font-size="10.00">::handler</text>
</a>
</g>
</g>
<!-- Node7&#45;&gt;Node10 -->
<g id="edge9_Node000007_Node000010" class="edge">
<title>Node7&#45;&gt;Node10</title>
<g id="a_edge9_Node000007_Node000010"><a xlink:title=" ">
<path fill="none" stroke="#63b8ff" d="M1106.67,-546.57C1134.28,-540.44 1167.45,-533.07 1196.24,-526.67"/>
<polygon fill="#63b8ff" stroke="#63b8ff" points="1197.23,-530.04 1206.23,-524.45 1195.71,-523.2 1197.23,-530.04"/>
</a>
</g>
</g>
<!-- Node12 -->
<g id="Node000012" class="node">
<title>Node12</title>
<g id="a_Node000012"><a xlink:href="classJoyButtonSlot.html#a4fb0606a34134786bc642627bc25aedd" target="_top" xlink:title=" ">
<polygon fill="white" stroke="#666666" points="717,-103 571,-103 571,-84 717,-84 717,-103"/>
<text text-anchor="middle" x="644" y="-91" font-family="Helvetica,sans-Serif" font-size="10.00">JoyButtonSlot::getMixSlots</text>
</a>
</g>
</g>
<!-- Node11&#45;&gt;Node12 -->
<g id="edge11_Node000011_Node000012" class="edge">
<title>Node11&#45;&gt;Node12</title>
<g id="a_edge11_Node000011_Node000012"><a xlink:title=" ">
<path fill="none" stroke="#63b8ff" d="M502,-117C525,-113.17 551.7,-108.72 575.64,-104.73"/>
<polygon fill="#63b8ff" stroke="#63b8ff" points="576.42,-108.14 585.71,-103.05 575.27,-101.24 576.42,-108.14"/>
</a>
</g>
</g>
<!-- Node14 -->
<g id="Node000014" class="node">
<title>Node14</title>
<g id="a_Node000014"><a xlink:href="namespacePadderCommon.html#aaa09739d2df84421a5a3467a06ce941c" target="_top" xlink:title="Returns the &quot;human&#45;readable&quot; name of the given profile.">
<polygon fill="white" stroke="#666666" points="732,-66 556,-66 556,-47 732,-47 732,-66"/>
<text text-anchor="middle" x="644" y="-54" font-family="Helvetica,sans-Serif" font-size="10.00">PadderCommon::getProfileName</text>
</a>
</g>
</g>
<!-- Node11&#45;&gt;Node14 -->
<g id="edge13_Node000011_Node000014" class="edge">
<title>Node11&#45;&gt;Node14</title>
<g id="a_edge13_Node000011_Node000014"><a xlink:title=" ">
<path fill="none" stroke="#63b8ff" d="M481.45,-116.94C494.02,-112.97 507.96,-107.81 520,-101.5 537.72,-92.22 537.77,-82.72 556,-74.5 560.63,-72.41 565.5,-70.57 570.48,-68.93"/>
<polygon fill="#63b8ff" stroke="#63b8ff" points="571.58,-72.25 580.16,-66.04 569.58,-65.55 571.58,-72.25"/>
</a>
</g>
</g>
<!-- Node11&#45;&gt;Node15 -->
<g id="edge14_Node000011_Node000015" class="edge">
<title>Node11&#45;&gt;Node15</title>
<g id="a_edge14_Node000011_Node000015"><a xlink:title=" ">
<path fill="none" stroke="#63b8ff" d="M520.11,-127.79C648.25,-130.4 917.27,-137.65 1144,-155.5 1157.13,-156.53 1171.04,-157.9 1184.57,-159.37"/>
<polygon fill="#63b8ff" stroke="#63b8ff" points="1184.49,-162.88 1194.81,-160.51 1185.26,-155.93 1184.49,-162.88"/>
</a>
</g>
</g>
<!-- Node11&#45;&gt;Node16 -->
<g id="edge15_Node000011_Node000016" class="edge">
<title>Node11&#45;&gt;Node16</title>
<g id="a_edge15_Node000011_Node000016"><a xlink:title=" ">
<path fill="none" stroke="#63b8ff" d="M452.28,-136.28C481.64,-175.72 591.53,-323.36 629.78,-374.74"/>
<polygon fill="#63b8ff" stroke="#63b8ff" points="627.08,-376.98 635.86,-382.91 632.7,-372.8 627.08,-376.98"/>
</a>
</g>
</g>
<!-- Node26 -->
<g id="Node000026" class="node">
<title>Node26</title>
<g id="a_Node000026"><a xlink:href="classJoyButtonSlot.html#a37ff2b523177bae4ea6a44b82f2973eb" target="_top" xlink:title=" ">
<polygon fill="white" stroke="#666666" points="729,-29 559,-29 559,-10 729,-10 729,-29"/>
<text text-anchor="middle" x="644" y="-17" font-family="Helvetica,sans-Serif" font-size="10.00">JoyButtonSlot::movementString</text>
</a>
</g>
</g>
<!-- Node11&#45;&gt;Node26 -->
<g id="edge34_Node000011_Node000026" class="edge">
<title>Node11&#45;&gt;Node26</title>
<g id="a_edge34_Node000011_Node000026"><a xlink:title=" ">
<path fill="none" stroke="#63b8ff" d="M491.38,-116.93C501.56,-113.3 511.74,-108.32 520,-101.5 545.17,-80.72 529.65,-56.76 556,-37.5 557.87,-36.13 559.82,-34.86 561.84,-33.68"/>
<polygon fill="#63b8ff" stroke="#63b8ff" points="563.66,-36.69 571.04,-29.09 560.53,-30.43 563.66,-36.69"/>
</a>
</g>
</g>
<!-- Node13 -->
<g id="Node000013" class="node">
<title>Node13</title>
<g id="a_Node000013"><a xlink:href="classJoyButtonSlot.html#a9ba9cb0dda063a7df5575072c0aabe01" target="_top" xlink:title=" ">
<polygon fill="white" stroke="#666666" points="911,-103.5 772,-103.5 772,-73.5 911,-73.5 911,-103.5"/>
<text text-anchor="start" x="780" y="-91.5" font-family="Helvetica,sans-Serif" font-size="10.00">JoyButtonSlot::secureMix</text>
<text text-anchor="middle" x="841.5" y="-80.5" font-family="Helvetica,sans-Serif" font-size="10.00">SlotsInit</text>
</a>
</g>
</g>
<!-- Node12&#45;&gt;Node13 -->
<g id="edge12_Node000012_Node000013" class="edge">
<title>Node12&#45;&gt;Node13</title>
<g id="a_edge12_Node000012_Node000013"><a xlink:title=" ">
<path fill="none" stroke="#63b8ff" d="M717.24,-91.65C731.74,-91.28 747.03,-90.89 761.74,-90.51"/>
<polygon fill="#63b8ff" stroke="#63b8ff" points="761.89,-94.01 771.8,-90.26 761.72,-87.01 761.89,-94.01"/>
</a>
</g>
</g>
<!-- Node16&#45;&gt;Node4 -->
<g id="edge17_Node000016_Node000004" class="edge">
<title>Node16&#45;&gt;Node4</title>
<g id="a_edge17_Node000016_Node000004"><a xlink:title=" ">
<path fill="none" stroke="#63b8ff" d="M661.3,-402.08C684.83,-415.9 729.72,-442.23 768,-464.5 833.23,-502.45 854.49,-504.4 915,-549.5 932.65,-562.65 931.44,-573.4 951,-583.5 955.62,-585.89 960.51,-587.97 965.54,-589.8"/>
<polygon fill="#63b8ff" stroke="#63b8ff" points="964.75,-593.22 975.35,-593 966.92,-586.57 964.75,-593.22"/>
</a>
</g>
</g>
<!-- Node16&#45;&gt;Node7 -->
<g id="edge19_Node000016_Node000007" class="edge">
<title>Node16&#45;&gt;Node7</title>
<g id="a_edge19_Node000016_Node000007"><a xlink:title=" ">
<path fill="none" stroke="#63b8ff" d="M679.08,-402.04C749.51,-421.84 905.37,-466.18 915,-473.5 938.86,-491.62 927.17,-512.34 951,-530.5 959.25,-536.79 968.87,-541.72 978.75,-545.59"/>
<polygon fill="#63b8ff" stroke="#63b8ff" points="977.69,-548.92 988.28,-548.98 980.04,-542.33 977.69,-548.92"/>
</a>
</g>
</g>
<!-- Node16&#45;&gt;Node10 -->
<g id="edge20_Node000016_Node000010" class="edge">
<title>Node16&#45;&gt;Node10</title>
<g id="a_edge20_Node000016_Node000010"><a xlink:title=" ">
<path fill="none" stroke="#63b8ff" d="M700.24,-393.33C768.91,-395.35 881.2,-402.24 915,-425.5 943.17,-444.89 922.22,-475.03 951,-493.5 1024.42,-540.63 1128.56,-535.87 1196.32,-525.68"/>
<polygon fill="#63b8ff" stroke="#63b8ff" points="1197.13,-529.09 1206.46,-524.07 1196.03,-522.18 1197.13,-529.09"/>
</a>
</g>
</g>
<!-- Node17 -->
<g id="Node000017" class="node">
<title>Node17</title>
<g id="a_Node000017"><a xlink:href="classX11Extras.html#a643c95dc1de8eb073a0accb41619fe83" target="_top" xlink:title="Get display instance.">
<polygon fill="white" stroke="#666666" points="1101,-254 994,-254 994,-235 1101,-235 1101,-254"/>
<text text-anchor="middle" x="1047.5" y="-242" font-family="Helvetica,sans-Serif" font-size="10.00">X11Extras::display</text>
</a>
</g>
</g>
<!-- Node16&#45;&gt;Node17 -->
<g id="edge16_Node000016_Node000017" class="edge">
<title>Node16&#45;&gt;Node17</title>
<g id="a_edge16_Node000016_Node000017"><a xlink:title=" ">
<path fill="none" stroke="#63b8ff" d="M663.45,-382.99C710.28,-359.22 838.03,-296.71 951,-262.5 961.51,-259.32 972.85,-256.59 983.91,-254.29"/>
<polygon fill="#63b8ff" stroke="#63b8ff" points="984.84,-257.68 993.97,-252.3 983.48,-250.81 984.84,-257.68"/>
</a>
</g>
</g>
<!-- Node18 -->
<g id="Node000018" class="node">
<title>Node18</title>
<g id="a_Node000018"><a xlink:href="classX11Extras.html#ace76277fced60e6bd6ff880030338182" target="_top" xlink:title=" ">
<polygon fill="white" stroke="#666666" points="1112,-217 983,-217 983,-198 1112,-198 1112,-217"/>
<text text-anchor="middle" x="1047.5" y="-205" font-family="Helvetica,sans-Serif" font-size="10.00">X11Extras::getInstance</text>
</a>
</g>
</g>
<!-- Node16&#45;&gt;Node18 -->
<g id="edge18_Node000016_Node000018" class="edge">
<title>Node16&#45;&gt;Node18</title>
<g id="a_edge18_Node000016_Node000018"><a xlink:title=" ">
<path fill="none" stroke="#63b8ff" d="M648.74,-382.71C660.72,-352.89 701.29,-263 768,-226.5 832.91,-190.99 919.45,-191.08 978.73,-196.93"/>
<polygon fill="#63b8ff" stroke="#63b8ff" points="978.42,-200.42 988.74,-198 979.17,-193.46 978.42,-200.42"/>
</a>
</g>
</g>
<!-- Node19 -->
<g id="Node000019" class="node">
<title>Node19</title>
<g id="a_Node000019"><a xlink:href="event_8cpp.html#ad239a34cab482dc3cad5a23a9ac1ad78" target="_top" xlink:title=" ">
<polygon fill="white" stroke="#666666" points="898.5,-383 784.5,-383 784.5,-364 898.5,-364 898.5,-383"/>
<text text-anchor="middle" x="841.5" y="-371" font-family="Helvetica,sans-Serif" font-size="10.00">keycodeToKeyString</text>
</a>
</g>
</g>
<!-- Node16&#45;&gt;Node19 -->
<g id="edge21_Node000016_Node000019" class="edge">
<title>Node16&#45;&gt;Node19</title>
<g id="a_edge21_Node000016_Node000019"><a xlink:title=" ">
<path fill="none" stroke="#63b8ff" d="M700.24,-387.13C723.26,-384.89 750.19,-382.28 774.26,-379.94"/>
<polygon fill="#63b8ff" stroke="#63b8ff" points="774.77,-383.41 784.38,-378.95 774.09,-376.44 774.77,-383.41"/>
</a>
</g>
</g>
<!-- Node19&#45;&gt;Node4 -->
<g id="edge27_Node000019_Node000004" class="edge">
<title>Node19&#45;&gt;Node4</title>
<g id="a_edge27_Node000019_Node000004"><a xlink:title=" ">
<path fill="none" stroke="#63b8ff" d="M847.67,-383.17C859.64,-405.63 890.19,-463.09 915,-511.5 931.32,-543.34 922.56,-561.8 951,-583.5 953.33,-585.28 955.78,-586.9 958.33,-588.39"/>
<polygon fill="#63b8ff" stroke="#63b8ff" points="956.82,-591.54 967.33,-592.91 959.96,-585.29 956.82,-591.54"/>
</a>
</g>
</g>
<!-- Node19&#45;&gt;Node7 -->
<g id="edge30_Node000019_Node000007" class="edge">
<title>Node19&#45;&gt;Node7</title>
<g id="a_edge30_Node000019_Node000007"><a xlink:title=" ">
<path fill="none" stroke="#63b8ff" d="M856.13,-383.19C871.56,-394.57 896.9,-414.59 915,-435.5 934.61,-458.16 930.33,-470.81 951,-492.5 968.37,-510.73 991.39,-527.05 1010.47,-539.02"/>
<polygon fill="#63b8ff" stroke="#63b8ff" points="1008.85,-542.14 1019.21,-544.37 1012.51,-536.17 1008.85,-542.14"/>
</a>
</g>
</g>
<!-- Node19&#45;&gt;Node10 -->
<g id="edge31_Node000019_Node000010" class="edge">
<title>Node19&#45;&gt;Node10</title>
<g id="a_edge31_Node000019_Node000010"><a xlink:title=" ">
<path fill="none" stroke="#63b8ff" d="M888.4,-383.12C897.86,-386.57 907.28,-391.23 915,-397.5 939.73,-417.59 924.78,-441.39 951,-459.5 989.74,-486.26 1116.2,-500.46 1196.18,-506.94"/>
<polygon fill="#63b8ff" stroke="#63b8ff" points="1195.93,-510.43 1206.18,-507.73 1196.48,-503.45 1195.93,-510.43"/>
</a>
</g>
</g>
<!-- Node19&#45;&gt;Node17 -->
<g id="edge22_Node000019_Node000017" class="edge">
<title>Node19&#45;&gt;Node17</title>
<g id="a_edge22_Node000019_Node000017"><a xlink:title=" ">
<path fill="none" stroke="#63b8ff" d="M867.05,-363.96C882.34,-357.05 901.57,-346.47 915,-332.5 939.24,-307.28 922.96,-283.42 951,-262.5 960.61,-255.33 972.25,-250.75 984.05,-247.88"/>
<polygon fill="#63b8ff" stroke="#63b8ff" points="984.86,-251.29 993.96,-245.85 983.46,-244.43 984.86,-251.29"/>
</a>
</g>
</g>
<!-- Node19&#45;&gt;Node18 -->
<g id="edge29_Node000019_Node000018" class="edge">
<title>Node19&#45;&gt;Node18</title>
<g id="a_edge29_Node000019_Node000018"><a xlink:title=" ">
<path fill="none" stroke="#63b8ff" d="M848.23,-363.91C866.24,-334.03 922.29,-243.59 951,-225.5 957.8,-221.22 965.37,-217.9 973.2,-215.35"/>
<polygon fill="#63b8ff" stroke="#63b8ff" points="974.19,-218.71 982.84,-212.59 972.26,-211.98 974.19,-218.71"/>
</a>
</g>
</g>
<!-- Node20 -->
<g id="Node000020" class="node">
<title>Node20</title>
<g id="a_Node000020"><a xlink:href="classUInputHelper.html#ac4c70c9479c1cc0eb515ab1bdf2426f5" target="_top" xlink:title=" ">
<polygon fill="white" stroke="#666666" points="1117.5,-450.5 977.5,-450.5 977.5,-420.5 1117.5,-420.5 1117.5,-450.5"/>
<text text-anchor="start" x="985.5" y="-438.5" font-family="Helvetica,sans-Serif" font-size="10.00">UInputHelper::getDisplay</text>
<text text-anchor="middle" x="1047.5" y="-427.5" font-family="Helvetica,sans-Serif" font-size="10.00">String</text>
</a>
</g>
</g>
<!-- Node19&#45;&gt;Node20 -->
<g id="edge23_Node000019_Node000020" class="edge">
<title>Node19&#45;&gt;Node20</title>
<g id="a_edge23_Node000019_Node000020"><a xlink:title=" ">
<path fill="none" stroke="#63b8ff" d="M872.6,-383.08C885.68,-387.35 901.15,-392.52 915,-397.5 931.15,-403.31 934.64,-406.29 951,-411.5 957.83,-413.68 964.99,-415.79 972.18,-417.79"/>
<polygon fill="#63b8ff" stroke="#63b8ff" points="971.41,-421.21 981.98,-420.45 973.25,-414.45 971.41,-421.21"/>
</a>
</g>
</g>
<!-- Node22 -->
<g id="Node000022" class="node">
<title>Node22</title>
<g id="a_Node000022"><a xlink:href="classX11Extras.html#abe710bac948c9802105a2d9d06815cac" target="_top" xlink:title="Get appropriate alias for a known KeySym string that might be blank or contain invalid characters whe...">
<polygon fill="white" stroke="#666666" points="1124,-402 971,-402 971,-383 1124,-383 1124,-402"/>
<text text-anchor="middle" x="1047.5" y="-390" font-family="Helvetica,sans-Serif" font-size="10.00">X11Extras::getDisplayString</text>
</a>
</g>
</g>
<!-- Node19&#45;&gt;Node22 -->
<g id="edge25_Node000019_Node000022" class="edge">
<title>Node19&#45;&gt;Node22</title>
<g id="a_edge25_Node000019_Node000022"><a xlink:title=" ">
<path fill="none" stroke="#63b8ff" d="M898.51,-378.72C917.67,-380.5 939.57,-382.54 960.54,-384.49"/>
<polygon fill="#63b8ff" stroke="#63b8ff" points="960.46,-388 970.74,-385.44 961.11,-381.03 960.46,-388"/>
</a>
</g>
</g>
<!-- Node23 -->
<g id="Node000023" class="node">
<title>Node23</title>
<g id="a_Node000023"><a xlink:href="classWinExtras.html#a3487e64cfb407033d7e28a761d1e76dc" target="_top" xlink:title=" ">
<polygon fill="white" stroke="#666666" points="1124,-365 971,-365 971,-346 1124,-346 1124,-365"/>
<text text-anchor="middle" x="1047.5" y="-353" font-family="Helvetica,sans-Serif" font-size="10.00">WinExtras::getDisplayString</text>
</a>
</g>
</g>
<!-- Node19&#45;&gt;Node23 -->
<g id="edge26_Node000019_Node000023" class="edge">
<title>Node19&#45;&gt;Node23</title>
<g id="a_edge26_Node000019_Node000023"><a xlink:title=" ">
<path fill="none" stroke="#63b8ff" d="M898.51,-368.56C917.67,-366.87 939.57,-364.94 960.54,-363.09"/>
<polygon fill="#63b8ff" stroke="#63b8ff" points="961.09,-366.55 970.74,-362.18 960.47,-359.58 961.09,-366.55"/>
</a>
</g>
</g>
<!-- Node24 -->
<g id="Node000024" class="node">
<title>Node24</title>
<g id="a_Node000024"><a xlink:href="classUInputHelper.html#a61509601d3dbd8933aaa26c1e2db02f6" target="_top" xlink:title=" ">
<polygon fill="white" stroke="#666666" points="1119.5,-328 975.5,-328 975.5,-309 1119.5,-309 1119.5,-328"/>
<text text-anchor="middle" x="1047.5" y="-316" font-family="Helvetica,sans-Serif" font-size="10.00">UInputHelper::getInstance</text>
</a>
</g>
</g>
<!-- Node19&#45;&gt;Node24 -->
<g id="edge28_Node000019_Node000024" class="edge">
<title>Node19&#45;&gt;Node24</title>
<g id="a_edge28_Node000019_Node000024"><a xlink:title=" ">
<path fill="none" stroke="#63b8ff" d="M868.54,-363.85C890.35,-356.01 922.41,-345.06 951,-337.5 961.09,-334.83 971.88,-332.35 982.43,-330.11"/>
<polygon fill="#63b8ff" stroke="#63b8ff" points="983.36,-333.49 992.44,-328.04 981.94,-326.64 983.36,-333.49"/>
</a>
</g>
</g>
<!-- Node25 -->
<g id="Node000025" class="node">
<title>Node25</title>
<g id="a_Node000025"><a xlink:href="classWinExtras.html#a0bfa711c1abe72486dfebc8ff6fe7f5a" target="_top" xlink:title="Convert a virtual key into the corresponding keyboard scan code.">
<polygon fill="white" stroke="#666666" points="1144,-291 951,-291 951,-272 1144,-272 1144,-291"/>
<text text-anchor="middle" x="1047.5" y="-279" font-family="Helvetica,sans-Serif" font-size="10.00">WinExtras::scancodeFromVirtualKey</text>
</a>
</g>
</g>
<!-- Node19&#45;&gt;Node25 -->
<g id="edge32_Node000019_Node000025" class="edge">
<title>Node19&#45;&gt;Node25</title>
<g id="a_edge32_Node000019_Node000025"><a xlink:title=" ">
<path fill="none" stroke="#63b8ff" d="M861.95,-363.94C876.95,-356.23 897.94,-344.69 915,-332.5 932.41,-320.05 931.83,-310.03 951,-300.5 955.92,-298.05 961.13,-295.92 966.48,-294.06"/>
<polygon fill="#63b8ff" stroke="#63b8ff" points="967.72,-297.34 976.21,-291.01 965.63,-290.66 967.72,-297.34"/>
</a>
</g>
</g>
<!-- Node21 -->
<g id="Node000021" class="node">
<title>Node21</title>
<g id="a_Node000021"><a xlink:href="classUInputHelper.html#a9593958d5b802acdbb78ef7fe060b2d8" target="_top" xlink:title=" ">
<polygon fill="white" stroke="#666666" points="1351,-450.5 1180,-450.5 1180,-420.5 1351,-420.5 1351,-450.5"/>
<text text-anchor="start" x="1188" y="-438.5" font-family="Helvetica,sans-Serif" font-size="10.00">UInputHelper::getKnownAliases</text>
<text text-anchor="middle" x="1265.5" y="-427.5" font-family="Helvetica,sans-Serif" font-size="10.00">VKStrings</text>
</a>
</g>
</g>
<!-- Node20&#45;&gt;Node21 -->
<g id="edge24_Node000020_Node000021" class="edge">
<title>Node20&#45;&gt;Node21</title>
<g id="a_edge24_Node000020_Node000021"><a xlink:title=" ">
<path fill="none" stroke="#63b8ff" d="M1117.74,-435.5C1134.24,-435.5 1152.14,-435.5 1169.57,-435.5"/>
<polygon fill="#63b8ff" stroke="#63b8ff" points="1169.77,-439 1179.77,-435.5 1169.77,-432 1169.77,-439"/>
</a>
</g>
</g>
<!-- Node25&#45;&gt;Node15 -->
<g id="edge33_Node000025_Node000015" class="edge">
<title>Node25&#45;&gt;Node15</title>
<g id="a_edge33_Node000025_Node000015"><a xlink:title=" ">
<path fill="none" stroke="#63b8ff" d="M1116.76,-271.94C1126.13,-269.48 1135.46,-266.38 1144,-262.5 1185.78,-243.5 1226.33,-207.48 1248.09,-186.27"/>
<polygon fill="#63b8ff" stroke="#63b8ff" points="1250.59,-188.72 1255.23,-179.19 1245.66,-183.75 1250.59,-188.72"/>
</a>
</g>
</g>
<!-- Node27&#45;&gt;Node11 -->
<g id="edge38_Node000027_Node000011" class="edge">
<title>Node27&#45;&gt;Node11</title>
<g id="a_edge38_Node000027_Node000011"><a xlink:title=" ">
<path fill="none" stroke="#63b8ff" d="M324.2,-126.5C335.1,-126.5 346.49,-126.5 357.7,-126.5"/>
<polygon fill="#63b8ff" stroke="#63b8ff" points="357.93,-130 367.93,-126.5 357.93,-123 357.93,-130"/>
</a>
</g>
</g>
<!-- Node30&#45;&gt;Node17 -->
<g id="edge42_Node000030_Node000017" class="edge">
<title>Node30&#45;&gt;Node17</title>
<g id="a_edge42_Node000030_Node000017"><a xlink:title=" ">
<path fill="none" stroke="#63b8ff" d="M915.28,-245.14C937.71,-245.03 962.19,-244.91 983.87,-244.81"/>
<polygon fill="#63b8ff" stroke="#63b8ff" points="983.95,-248.31 993.94,-244.76 983.92,-241.31 983.95,-248.31"/>
</a>
</g>
</g>
<!-- Node30&#45;&gt;Node18 -->
<g id="edge43_Node000030_Node000018" class="edge">
<title>Node30&#45;&gt;Node18</title>
<g id="a_edge43_Node000030_Node000018"><a xlink:title=" ">
<path fill="none" stroke="#63b8ff" d="M893.71,-235.96C921.48,-230.79 955.99,-224.36 985.18,-218.92"/>
<polygon fill="#63b8ff" stroke="#63b8ff" points="986.07,-222.32 995.26,-217.04 984.79,-215.43 986.07,-222.32"/>
</a>
</g>
</g>
</g>
</svg>

<g id="navigator" transform="translate(0 0)" fill="#404254">
  <rect fill="#f2f5e9" fill-opacity="0.5" stroke="#606060" stroke-width=".5" x="0" y="0" width="60" height="60"/>
  <use id="zoomplus" xlink:href="#zoomPlus" x="17" y="9" onmousedown="handleZoom(evt,'in')"/>
  <use id="zoomminus" xlink:href="#zoomMin" x="42" y="9" onmousedown="handleZoom(evt,'out')"/>
  <use id="reset" xlink:href="#resetDef" x="30" y="36" onmousedown="handleReset()"/>
   <use id="arrowup" xlink:href="#arrowUp" x="0" y="0" onmousedown="handlePan(0,-1)"/>
  <use id="arrowright" xlink:href="#arrowRight" x="0" y="0" onmousedown="handlePan(1,0)"/>
  <use id="arrowdown" xlink:href="#arrowDown" x="0" y="0" onmousedown="handlePan(0,1)"/>
  <use id="arrowleft" xlink:href="#arrowLeft" x="0" y="0" onmousedown="handlePan(-1,0)"/>
</g>
<svg viewBox="0 0 15 15" width="100%" height="30px" preserveAspectRatio="xMaxYMin meet">
 <g id="arrow_out" transform="scale(0.3 0.3)">
  <a xlink:href="classSimpleKeyGrabberButton_ab6a33975387e7840e45cf0a6e5a701df_cgraph_org.svg" target="_base">
   <rect id="button" ry="5" rx="5" y="6" x="6" height="38" width="38"
        fill="#f2f5e9" fill-opacity="0.5" stroke="#606060" stroke-width="1.0"/>
   <path id="arrow"
     d="M 11.500037,31.436501 C 11.940474,20.09759 22.043105,11.32322 32.158766,21.979434 L 37.068811,17.246167 C 37.068811,17.246167 37.088388,32 37.088388,32 L 22.160133,31.978069 C 22.160133,31.978069 26.997745,27.140456 26.997745,27.140456 C 18.528582,18.264221 13.291696,25.230495 11.500037,31.436501 z"
     style="fill:#404040;"/>
  </a>
 </g>
</svg>

<style type='text/css'>
<![CDATA[
[data-mouse-over-selected='false'] { opacity: 0.7; }
[data-mouse-over-selected='true']  { opacity: 1.0; }
]]>
</style>
<script type="application/ecmascript"><![CDATA[
document.addEventListener('DOMContentLoaded', (event) => {
  highlightEdges();
  highlightAdjacentNodes();
});
]]></script>
</svg>
