<?xml version="1.0" encoding="UTF-8" standalone="no"?>
<!DOCTYPE svg PUBLIC "-//W3C//DTD SVG 1.1//EN"
 "http://www.w3.org/Graphics/SVG/1.1/DTD/svg11.dtd">
<!-- Generated by graphviz version 2.43.0 (0)
 -->
<!-- Title: AdvanceButtonDialog::slotsChanged Pages: 1 -->
<!--zoomable 730 -->
<svg id="main" version="1.1" xmlns="http://www.w3.org/2000/svg" xmlns:xlink="http://www.w3.org/1999/xlink" xml:space="preserve" onload="init(evt)">
<style type="text/css"><![CDATA[
.edge:hover path { stroke: red; }
.edge:hover polygon { stroke: red; fill: red; }
]]></style>
<script type="text/javascript"><![CDATA[
var edges = document.getElementsByTagName('g');
if (edges && edges.length) {
  for (var i=0;i<edges.length;i++) {
    if (edges[i].id.substr(0,4)=='edge') {
      edges[i].setAttribute('class','edge');
    }
  }
}
]]></script>
        <defs>
                <circle id="rim" cx="0" cy="0" r="7"/>
                <circle id="rim2" cx="0" cy="0" r="3.5"/>
                <g id="zoomPlus">
                        <use xlink:href="#rim" fill="#404040">
                                <set attributeName="fill" to="#808080" begin="zoomplus.mouseover" end="zoomplus.mouseout"/>
                        </use>
                        <path d="M-4,0h8M0,-4v8" fill="none" stroke="white" stroke-width="1.5" pointer-events="none"/>
                </g>
                <g id="zoomMin">
                        <use xlink:href="#rim" fill="#404040">
                                <set attributeName="fill" to="#808080" begin="zoomminus.mouseover" end="zoomminus.mouseout"/>
                        </use>
                        <path d="M-4,0h8" fill="none" stroke="white" stroke-width="1.5" pointer-events="none"/>
                </g>
                <g id="dirArrow">
                        <path fill="none" stroke="white" stroke-width="1.5" d="M0,-3.0v7 M-2.5,-0.5L0,-3.0L2.5,-0.5"/>
                </g>
               <g id="resetDef">
                       <use xlink:href="#rim2" fill="#404040">
                               <set attributeName="fill" to="#808080" begin="reset.mouseover" end="reset.mouseout"/>
                       </use>
               </g>
        </defs>

<script type="text/javascript">
var viewWidth = 1596;
var viewHeight = 730;
var sectionId = 'dynsection-75';
</script>
<script xlink:href="svgpan.js"/>
<svg id="graph" class="graph">
<g id="viewport">
<title>AdvanceButtonDialog::slotsChanged</title>
<polygon fill="white" stroke="transparent" points="-4,4 -4,-725.5 1592,-725.5 1592,4 -4,4"/>
<!-- Node1 -->
<g id="node1" class="node">
<title>Node1</title>
<g id="a_node1"><a xlink:title=" ">
<polygon fill="#bfbfbf" stroke="black" points="1466,-302 1466,-332 1588,-332 1588,-302 1466,-302"/>
<text text-anchor="start" x="1474" y="-320" font-family="Helvetica,sans-Serif" font-size="10.00">AdvanceButtonDialog</text>
<text text-anchor="middle" x="1527" y="-309" font-family="Helvetica,sans-Serif" font-size="10.00">::slotsChanged</text>
</a>
</g>
</g>
<!-- Node2 -->
<g id="node2" class="node">
<title>Node2</title>
<g id="a_node2"><a xlink:href="classAdvanceButtonDialog.html#aa97a397aca5e36a6b580309e04ac3a9d" target="_top" xlink:title=" ">
<polygon fill="white" stroke="black" points="386,-617 386,-647 508,-647 508,-617 386,-617"/>
<text text-anchor="start" x="394" y="-635" font-family="Helvetica,sans-Serif" font-size="10.00">AdvanceButtonDialog</text>
<text text-anchor="middle" x="447" y="-624" font-family="Helvetica,sans-Serif" font-size="10.00">::clearAllSlots</text>
</a>
</g>
</g>
<!-- Node1&#45;&gt;Node2 -->
<g id="edge1" class="edge">
<title>Node1&#45;&gt;Node2</title>
<path fill="none" stroke="midnightblue" d="M1516.65,-341.93C1485.13,-421.15 1374.77,-662 1198,-662 1198,-662 1198,-662 816,-662 707.19,-662 580.88,-648.81 508.12,-639.92"/>
<polygon fill="midnightblue" stroke="midnightblue" points="1520.04,-342.86 1520.41,-332.27 1513.52,-340.31 1520.04,-342.86"/>
</g>
<!-- Node6 -->
<g id="node6" class="node">
<title>Node6</title>
<g id="a_node6"><a xlink:href="classAdvanceButtonDialog.html#a5e7b569639f67d97fdcf89f6733f4421" target="_top" xlink:title=" ">
<polygon fill="white" stroke="black" points="386,-302 386,-332 508,-332 508,-302 386,-302"/>
<text text-anchor="start" x="394" y="-320" font-family="Helvetica,sans-Serif" font-size="10.00">AdvanceButtonDialog</text>
<text text-anchor="middle" x="447" y="-309" font-family="Helvetica,sans-Serif" font-size="10.00">::deleteSlot</text>
</a>
</g>
</g>
<!-- Node1&#45;&gt;Node6 -->
<g id="edge5" class="edge">
<title>Node1&#45;&gt;Node6</title>
<path fill="none" stroke="midnightblue" d="M1513.07,-292.91C1474.78,-225.18 1354.76,-38 1198,-38 1198,-38 1198,-38 816,-38 639.62,-38 494.61,-244.05 457.32,-302"/>
<polygon fill="midnightblue" stroke="midnightblue" points="1510.21,-294.96 1518.12,-302 1516.32,-291.56 1510.21,-294.96"/>
</g>
<!-- Node9 -->
<g id="node9" class="node">
<title>Node9</title>
<g id="a_node9"><a xlink:href="classAdvanceButtonDialog.html#a5284c1fc58683ba8649b1811d615e71c" target="_top" xlink:title=" ">
<polygon fill="white" stroke="black" points="1300,-302 1300,-332 1430,-332 1430,-302 1300,-302"/>
<text text-anchor="start" x="1308" y="-320" font-family="Helvetica,sans-Serif" font-size="10.00">AdvanceButtonDialog</text>
<text text-anchor="middle" x="1365" y="-309" font-family="Helvetica,sans-Serif" font-size="10.00">::updateSlotsScrollArea</text>
</a>
</g>
</g>
<!-- Node1&#45;&gt;Node9 -->
<g id="edge11" class="edge">
<title>Node1&#45;&gt;Node9</title>
<path fill="none" stroke="midnightblue" d="M1455.69,-317C1447.18,-317 1438.53,-317 1430.12,-317"/>
<polygon fill="midnightblue" stroke="midnightblue" points="1455.97,-320.5 1465.97,-317 1455.97,-313.5 1455.97,-320.5"/>
</g>
<!-- Node3 -->
<g id="node3" class="node">
<title>Node3</title>
<g id="a_node3"><a xlink:href="classAdvanceButtonDialog.html#a4f9a1a007f50de1c3cca1403d08a0790" target="_top" xlink:title=" ">
<polygon fill="white" stroke="black" points="4.5,-395 4.5,-425 132.5,-425 132.5,-395 4.5,-395"/>
<text text-anchor="start" x="12.5" y="-413" font-family="Helvetica,sans-Serif" font-size="10.00">AdvanceButtonDialog</text>
<text text-anchor="middle" x="68.5" y="-402" font-family="Helvetica,sans-Serif" font-size="10.00">::AdvanceButtonDialog</text>
</a>
</g>
</g>
<!-- Node2&#45;&gt;Node3 -->
<g id="edge2" class="edge">
<title>Node2&#45;&gt;Node3</title>
<path fill="none" stroke="midnightblue" d="M375.41,-637.61C316.38,-638.75 232.51,-631.73 173,-591 112.66,-549.7 83.1,-460.88 73.32,-425.25"/>
<polygon fill="midnightblue" stroke="midnightblue" points="375.86,-641.1 385.76,-637.32 375.67,-634.1 375.86,-641.1"/>
</g>
<!-- Node4 -->
<g id="node4" class="node">
<title>Node4</title>
<g id="a_node4"><a xlink:href="classButtonEditDialog.html#ade8d1ee4ae03d1080932a70c8170d488" target="_top" xlink:title=" ">
<polygon fill="white" stroke="black" points="173,-671 173,-701 350,-701 350,-671 173,-671"/>
<text text-anchor="start" x="181" y="-689" font-family="Helvetica,sans-Serif" font-size="10.00">ButtonEditDialog::openAdvanced</text>
<text text-anchor="middle" x="261.5" y="-678" font-family="Helvetica,sans-Serif" font-size="10.00">Dialog</text>
</a>
</g>
</g>
<!-- Node2&#45;&gt;Node4 -->
<g id="edge3" class="edge">
<title>Node2&#45;&gt;Node4</title>
<path fill="none" stroke="midnightblue" d="M385.16,-649.9C361.99,-656.72 335.84,-664.42 313.66,-670.95"/>
<polygon fill="midnightblue" stroke="midnightblue" points="386.28,-653.22 394.89,-647.04 384.3,-646.51 386.28,-653.22"/>
</g>
<!-- Node5 -->
<g id="node5" class="node">
<title>Node5</title>
<g id="a_node5"><a xlink:href="classButtonEditDialog.html#a3e9feede100cbb6a11c9d87659c196ea" target="_top" xlink:title=" ">
<polygon fill="white" stroke="black" points="0,-671 0,-701 137,-701 137,-671 0,-671"/>
<text text-anchor="start" x="8" y="-689" font-family="Helvetica,sans-Serif" font-size="10.00">ButtonEditDialog::Button</text>
<text text-anchor="middle" x="68.5" y="-678" font-family="Helvetica,sans-Serif" font-size="10.00">EditDialog</text>
</a>
</g>
</g>
<!-- Node4&#45;&gt;Node5 -->
<g id="edge4" class="edge">
<title>Node4&#45;&gt;Node5</title>
<path fill="none" stroke="midnightblue" d="M162.71,-686C154.09,-686 145.49,-686 137.2,-686"/>
<polygon fill="midnightblue" stroke="midnightblue" points="162.83,-689.5 172.83,-686 162.83,-682.5 162.83,-689.5"/>
</g>
<!-- Node6&#45;&gt;Node3 -->
<g id="edge6" class="edge">
<title>Node6&#45;&gt;Node3</title>
<path fill="none" stroke="midnightblue" d="M397.61,-298.6C341.08,-280.18 246,-258.93 173,-292 125.84,-313.37 91.67,-368.02 77.19,-394.78"/>
<polygon fill="midnightblue" stroke="midnightblue" points="396.77,-302.01 407.37,-301.87 399,-295.37 396.77,-302.01"/>
</g>
<!-- Node7 -->
<g id="node7" class="node">
<title>Node7</title>
<g id="a_node7"><a xlink:href="classAdvanceButtonDialog.html#ad40bcfad2f4380b746002defc689a2b6" target="_top" xlink:title=" ">
<polygon fill="white" stroke="black" points="200.5,-351 200.5,-381 322.5,-381 322.5,-351 200.5,-351"/>
<text text-anchor="start" x="208.5" y="-369" font-family="Helvetica,sans-Serif" font-size="10.00">AdvanceButtonDialog</text>
<text text-anchor="middle" x="261.5" y="-358" font-family="Helvetica,sans-Serif" font-size="10.00">::joinSlot</text>
</a>
</g>
</g>
<!-- Node6&#45;&gt;Node7 -->
<g id="edge7" class="edge">
<title>Node6&#45;&gt;Node7</title>
<path fill="none" stroke="midnightblue" d="M380,-334.62C359.93,-339.98 338.06,-345.82 318.7,-350.99"/>
<polygon fill="midnightblue" stroke="midnightblue" points="380.94,-338 389.7,-332.03 379.13,-331.23 380.94,-338"/>
</g>
<!-- Node8 -->
<g id="node8" class="node">
<title>Node8</title>
<g id="a_node8"><a xlink:href="classAdvanceButtonDialog.html#adde227692a4a5abc4f4e9cc027ba5866" target="_top" xlink:title=" ">
<polygon fill="white" stroke="black" points="200.5,-302 200.5,-332 322.5,-332 322.5,-302 200.5,-302"/>
<text text-anchor="start" x="208.5" y="-320" font-family="Helvetica,sans-Serif" font-size="10.00">AdvanceButtonDialog</text>
<text text-anchor="middle" x="261.5" y="-309" font-family="Helvetica,sans-Serif" font-size="10.00">::splitSlot</text>
</a>
</g>
</g>
<!-- Node6&#45;&gt;Node8 -->
<g id="edge9" class="edge">
<title>Node6&#45;&gt;Node8</title>
<path fill="none" stroke="midnightblue" d="M375.77,-317C358.28,-317 339.68,-317 322.72,-317"/>
<polygon fill="midnightblue" stroke="midnightblue" points="375.92,-320.5 385.92,-317 375.92,-313.5 375.92,-320.5"/>
</g>
<!-- Node7&#45;&gt;Node3 -->
<g id="edge8" class="edge">
<title>Node7&#45;&gt;Node3</title>
<path fill="none" stroke="midnightblue" d="M190.57,-382.11C171.62,-386.48 151.22,-391.17 132.67,-395.45"/>
<polygon fill="midnightblue" stroke="midnightblue" points="191.37,-385.52 200.33,-379.86 189.8,-378.7 191.37,-385.52"/>
</g>
<!-- Node8&#45;&gt;Node3 -->
<g id="edge10" class="edge">
<title>Node8&#45;&gt;Node3</title>
<path fill="none" stroke="midnightblue" d="M190.7,-333.94C184.62,-336.08 178.64,-338.43 173,-341 141.17,-355.52 108.18,-379.29 88.24,-394.79"/>
<polygon fill="midnightblue" stroke="midnightblue" points="191.9,-337.23 200.29,-330.77 189.7,-330.59 191.9,-337.23"/>
</g>
<!-- Node10 -->
<g id="node10" class="node">
<title>Node10</title>
<g id="a_node10"><a xlink:href="classAdvanceButtonDialog.html#af758d9978d99adab296ebd584020fa1b" target="_top" xlink:title=" ">
<polygon fill="white" stroke="black" points="743,-379 743,-409 891,-409 891,-379 743,-379"/>
<text text-anchor="start" x="751" y="-397" font-family="Helvetica,sans-Serif" font-size="10.00">AdvanceButtonDialog</text>
<text text-anchor="middle" x="817" y="-386" font-family="Helvetica,sans-Serif" font-size="10.00">::checkSlotDistanceUpdate</text>
</a>
</g>
</g>
<!-- Node9&#45;&gt;Node10 -->
<g id="edge12" class="edge">
<title>Node9&#45;&gt;Node10</title>
<path fill="none" stroke="midnightblue" d="M1327.51,-336.65C1309.01,-345.67 1285.89,-355.55 1264,-361 1135.55,-393 980.36,-397.02 891.03,-396.13"/>
<polygon fill="midnightblue" stroke="midnightblue" points="1329.08,-339.78 1336.46,-332.18 1325.95,-333.52 1329.08,-339.78"/>
</g>
<!-- Node12 -->
<g id="node12" class="node">
<title>Node12</title>
<g id="a_node12"><a xlink:href="classAdvanceButtonDialog.html#a289c7e5a38da6675e6ae2dd1b333c81e" target="_top" xlink:title=" ">
<polygon fill="white" stroke="black" points="738,-330 738,-360 896,-360 896,-330 738,-330"/>
<text text-anchor="start" x="746" y="-348" font-family="Helvetica,sans-Serif" font-size="10.00">AdvanceButtonDialog</text>
<text text-anchor="middle" x="817" y="-337" font-family="Helvetica,sans-Serif" font-size="10.00">::checkSlotMouseModUpdate</text>
</a>
</g>
</g>
<!-- Node9&#45;&gt;Node12 -->
<g id="edge18" class="edge">
<title>Node9&#45;&gt;Node12</title>
<path fill="none" stroke="midnightblue" d="M1301.47,-334.3C1289.14,-337.06 1276.23,-339.5 1264,-341 1135.84,-356.75 985.41,-353.68 896.1,-349.62"/>
<polygon fill="midnightblue" stroke="midnightblue" points="1302.27,-337.71 1311.21,-332.03 1300.68,-330.89 1302.27,-337.71"/>
</g>
<!-- Node13 -->
<g id="node13" class="node">
<title>Node13</title>
<g id="a_node13"><a xlink:href="classAdvanceButtonDialog.html#a7fa5ece36cbdc4d0f2c74690b15e6527" target="_top" xlink:title=" ">
<polygon fill="white" stroke="black" points="738,-565 738,-595 896,-595 896,-565 738,-565"/>
<text text-anchor="start" x="746" y="-583" font-family="Helvetica,sans-Serif" font-size="10.00">AdvanceButtonDialog</text>
<text text-anchor="middle" x="817" y="-572" font-family="Helvetica,sans-Serif" font-size="10.00">::checkSlotSetChangeUpdate</text>
</a>
</g>
</g>
<!-- Node9&#45;&gt;Node13 -->
<g id="edge21" class="edge">
<title>Node9&#45;&gt;Node13</title>
<path fill="none" stroke="midnightblue" d="M1356.25,-341.74C1343.2,-379.47 1313.33,-451.27 1264,-492 1159.17,-578.56 993.49,-588.47 896.31,-585.7"/>
<polygon fill="midnightblue" stroke="midnightblue" points="1359.63,-342.66 1359.49,-332.06 1353,-340.44 1359.63,-342.66"/>
</g>
<!-- Node14 -->
<g id="node14" class="node">
<title>Node14</title>
<g id="a_node14"><a xlink:href="classAdvanceButtonDialog.html#aec7b800bbe03360bef5ec50c7699be12" target="_top" xlink:title=" ">
<polygon fill="white" stroke="black" points="1132,-453 1132,-483 1262,-483 1262,-453 1132,-453"/>
<text text-anchor="start" x="1140" y="-471" font-family="Helvetica,sans-Serif" font-size="10.00">AdvanceButtonDialog</text>
<text text-anchor="middle" x="1197" y="-460" font-family="Helvetica,sans-Serif" font-size="10.00">::checkSlotTimeUpdate</text>
</a>
</g>
</g>
<!-- Node9&#45;&gt;Node14 -->
<g id="edge24" class="edge">
<title>Node9&#45;&gt;Node14</title>
<path fill="none" stroke="midnightblue" d="M1341.6,-339.38C1321.61,-359.14 1291.35,-388.53 1264,-413 1248.44,-426.92 1230.16,-442.07 1216.79,-452.93"/>
<polygon fill="midnightblue" stroke="midnightblue" points="1344.09,-341.84 1348.73,-332.31 1339.16,-336.87 1344.09,-341.84"/>
</g>
<!-- Node19 -->
<g id="node19" class="node">
<title>Node19</title>
<g id="a_node19"><a xlink:href="classAdvanceButtonDialog.html#a9a53f03e9d1da8abc0d59c7e1d06f2fa" target="_top" xlink:title=" ">
<polygon fill="white" stroke="black" points="1136,-302 1136,-332 1258,-332 1258,-302 1136,-302"/>
<text text-anchor="start" x="1144" y="-320" font-family="Helvetica,sans-Serif" font-size="10.00">AdvanceButtonDialog</text>
<text text-anchor="middle" x="1197" y="-309" font-family="Helvetica,sans-Serif" font-size="10.00">::insertCycleSlot</text>
</a>
</g>
</g>
<!-- Node9&#45;&gt;Node19 -->
<g id="edge33" class="edge">
<title>Node9&#45;&gt;Node19</title>
<path fill="none" stroke="midnightblue" d="M1289.77,-317C1279.21,-317 1268.45,-317 1258.2,-317"/>
<polygon fill="midnightblue" stroke="midnightblue" points="1289.82,-320.5 1299.82,-317 1289.82,-313.5 1289.82,-320.5"/>
</g>
<!-- Node20 -->
<g id="node20" class="node">
<title>Node20</title>
<g id="a_node20"><a xlink:href="classAdvanceButtonDialog.html#a973a9cf7b58950cda18e39fdffb87e09" target="_top" xlink:title=" ">
<polygon fill="white" stroke="black" points="952,-189 952,-219 1074,-219 1074,-189 952,-189"/>
<text text-anchor="start" x="960" y="-207" font-family="Helvetica,sans-Serif" font-size="10.00">AdvanceButtonDialog</text>
<text text-anchor="middle" x="1013" y="-196" font-family="Helvetica,sans-Serif" font-size="10.00">::insertSlot</text>
</a>
</g>
</g>
<!-- Node9&#45;&gt;Node20 -->
<g id="edge42" class="edge">
<title>Node9&#45;&gt;Node20</title>
<path fill="none" stroke="midnightblue" d="M1295.79,-299.42C1238.23,-284.38 1160.47,-263.55 1130,-253 1101.28,-243.06 1069.55,-229.47 1046.55,-219.12"/>
<polygon fill="midnightblue" stroke="midnightblue" points="1295,-302.83 1305.56,-301.96 1296.77,-296.06 1295,-302.83"/>
</g>
<!-- Node22 -->
<g id="node22" class="node">
<title>Node22</title>
<g id="a_node22"><a xlink:href="classAdvanceButtonDialog.html#a3f6402907f85d2edb4bfbb77a2381882" target="_top" xlink:title=" ">
<polygon fill="white" stroke="black" points="1136,-214 1136,-244 1258,-244 1258,-214 1136,-214"/>
<text text-anchor="start" x="1144" y="-232" font-family="Helvetica,sans-Serif" font-size="10.00">AdvanceButtonDialog</text>
<text text-anchor="middle" x="1197" y="-221" font-family="Helvetica,sans-Serif" font-size="10.00">::insertExecuteSlot</text>
</a>
</g>
</g>
<!-- Node9&#45;&gt;Node22 -->
<g id="edge38" class="edge">
<title>Node9&#45;&gt;Node22</title>
<path fill="none" stroke="midnightblue" d="M1330.63,-296.53C1311.4,-285.03 1286.64,-270.67 1264,-259 1254.04,-253.87 1243.03,-248.68 1232.9,-244.09"/>
<polygon fill="midnightblue" stroke="midnightblue" points="1328.94,-299.6 1339.31,-301.76 1332.55,-293.61 1328.94,-299.6"/>
</g>
<!-- Node23 -->
<g id="node23" class="node">
<title>Node23</title>
<g id="a_node23"><a xlink:href="classAdvanceButtonDialog.html#a86ab584db16c039fde480a23cce5dfde" target="_top" xlink:title=" ">
<polygon fill="white" stroke="black" points="1136,-165 1136,-195 1258,-195 1258,-165 1136,-165"/>
<text text-anchor="start" x="1144" y="-183" font-family="Helvetica,sans-Serif" font-size="10.00">AdvanceButtonDialog</text>
<text text-anchor="middle" x="1197" y="-172" font-family="Helvetica,sans-Serif" font-size="10.00">::insertKindOfSlot</text>
</a>
</g>
</g>
<!-- Node9&#45;&gt;Node23 -->
<g id="edge40" class="edge">
<title>Node9&#45;&gt;Node23</title>
<path fill="none" stroke="midnightblue" d="M1348.49,-293.35C1330.79,-268.04 1299.65,-228.26 1264,-204 1259.06,-200.64 1253.59,-197.68 1247.98,-195.11"/>
<polygon fill="midnightblue" stroke="midnightblue" points="1345.64,-295.37 1354.18,-301.65 1351.41,-291.42 1345.64,-295.37"/>
</g>
<!-- Node24 -->
<g id="node24" class="node">
<title>Node24</title>
<g id="a_node24"><a xlink:href="classAdvanceButtonDialog.html#a2efe6c11e48224ea986a09e05bc96353" target="_top" xlink:title=" ">
<polygon fill="white" stroke="black" points="1136,-116 1136,-146 1258,-146 1258,-116 1136,-116"/>
<text text-anchor="start" x="1144" y="-134" font-family="Helvetica,sans-Serif" font-size="10.00">AdvanceButtonDialog</text>
<text text-anchor="middle" x="1197" y="-123" font-family="Helvetica,sans-Serif" font-size="10.00">::insertTextEntrySlot</text>
</a>
</g>
</g>
<!-- Node9&#45;&gt;Node24 -->
<g id="edge43" class="edge">
<title>Node9&#45;&gt;Node24</title>
<path fill="none" stroke="midnightblue" d="M1354.83,-292.16C1340.59,-256.89 1309.96,-192.41 1264,-155 1259.84,-151.61 1255.16,-148.68 1250.26,-146.15"/>
<polygon fill="midnightblue" stroke="midnightblue" points="1351.66,-293.67 1358.56,-301.7 1358.17,-291.11 1351.66,-293.67"/>
</g>
<!-- Node25 -->
<g id="node25" class="node">
<title>Node25</title>
<g id="a_node25"><a xlink:href="classAdvanceButtonDialog.html#a437fdaa04ca6082ebb7416cf7ac4e6b5" target="_top" xlink:title=" ">
<polygon fill="white" stroke="black" points="562,-691 562,-721 684,-721 684,-691 562,-691"/>
<text text-anchor="start" x="570" y="-709" font-family="Helvetica,sans-Serif" font-size="10.00">AdvanceButtonDialog</text>
<text text-anchor="middle" x="623" y="-698" font-family="Helvetica,sans-Serif" font-size="10.00">::placeNewSlot</text>
</a>
</g>
</g>
<!-- Node9&#45;&gt;Node25 -->
<g id="edge45" class="edge">
<title>Node9&#45;&gt;Node25</title>
<path fill="none" stroke="midnightblue" d="M1359.71,-342.33C1350.57,-388.46 1324.82,-486.33 1264,-540 1094.88,-689.25 808.31,-707.18 684.24,-707.45"/>
<polygon fill="midnightblue" stroke="midnightblue" points="1363.19,-342.76 1361.6,-332.29 1356.31,-341.47 1363.19,-342.76"/>
</g>
<!-- Node26 -->
<g id="node26" class="node">
<title>Node26</title>
<g id="a_node26"><a xlink:href="classAdvanceButtonDialog.html#a537e84c8a495aa615b417b3851b59b62" target="_top" xlink:title=" ">
<polygon fill="white" stroke="black" points="1130,-67 1130,-97 1264,-97 1264,-67 1130,-67"/>
<text text-anchor="start" x="1138" y="-85" font-family="Helvetica,sans-Serif" font-size="10.00">AdvanceButtonDialog</text>
<text text-anchor="middle" x="1197" y="-74" font-family="Helvetica,sans-Serif" font-size="10.00">::showSelectProfileWind</text>
</a>
</g>
</g>
<!-- Node9&#45;&gt;Node26 -->
<g id="edge47" class="edge">
<title>Node9&#45;&gt;Node26</title>
<path fill="none" stroke="midnightblue" d="M1358.74,-292.07C1348.27,-248.37 1320.77,-157.68 1264,-106 1260.21,-102.55 1255.89,-99.59 1251.32,-97.05"/>
<polygon fill="midnightblue" stroke="midnightblue" points="1355.34,-292.91 1360.99,-301.87 1362.17,-291.35 1355.34,-292.91"/>
</g>
<!-- Node10&#45;&gt;Node3 -->
<g id="edge13" class="edge">
<title>Node10&#45;&gt;Node3</title>
<path fill="none" stroke="midnightblue" d="M732.77,-398.18C639.56,-402.64 484,-409.41 350,-412 271.35,-413.52 251.66,-412.76 173,-412 159.97,-411.87 146.02,-411.66 132.72,-411.42"/>
<polygon fill="midnightblue" stroke="midnightblue" points="733.16,-401.67 742.98,-397.69 732.82,-394.68 733.16,-401.67"/>
</g>
<!-- Node11 -->
<g id="node11" class="node">
<title>Node11</title>
<g id="a_node11"><a xlink:href="classAdvanceButtonDialog.html#a31e78ce60334e0bcef5dad4cd43ee1e9" target="_top" xlink:title=" ">
<polygon fill="white" stroke="black" points="544,-477 544,-507 702,-507 702,-477 544,-477"/>
<text text-anchor="start" x="552" y="-495" font-family="Helvetica,sans-Serif" font-size="10.00">AdvanceButtonDialog</text>
<text text-anchor="middle" x="623" y="-484" font-family="Helvetica,sans-Serif" font-size="10.00">::performStatsWidgetRefresh</text>
</a>
</g>
</g>
<!-- Node10&#45;&gt;Node11 -->
<g id="edge14" class="edge">
<title>Node10&#45;&gt;Node11</title>
<path fill="none" stroke="midnightblue" d="M745.15,-413.66C742.69,-415.02 740.29,-416.46 738,-418 717.03,-432.09 722.47,-447.19 702,-462 693.77,-467.95 684.21,-472.89 674.66,-476.93"/>
<polygon fill="midnightblue" stroke="midnightblue" points="746.93,-416.69 754.36,-409.14 743.84,-410.4 746.93,-416.69"/>
</g>
<!-- Node11&#45;&gt;Node2 -->
<g id="edge16" class="edge">
<title>Node11&#45;&gt;Node2</title>
<path fill="none" stroke="midnightblue" d="M595.01,-513.71C559.38,-542.39 497.54,-592.14 466.67,-616.98"/>
<polygon fill="midnightblue" stroke="midnightblue" points="597.45,-516.24 603.05,-507.25 593.06,-510.79 597.45,-516.24"/>
</g>
<!-- Node11&#45;&gt;Node3 -->
<g id="edge15" class="edge">
<title>Node11&#45;&gt;Node3</title>
<path fill="none" stroke="midnightblue" d="M533.71,-496.31C441.91,-498.45 294.87,-495.22 173,-462 143.7,-454.01 112.96,-437.36 92.67,-425.04"/>
<polygon fill="midnightblue" stroke="midnightblue" points="533.89,-499.81 543.79,-496.05 533.7,-492.81 533.89,-499.81"/>
</g>
<!-- Node11&#45;&gt;Node6 -->
<g id="edge17" class="edge">
<title>Node11&#45;&gt;Node6</title>
<path fill="none" stroke="midnightblue" d="M599.72,-469.59C563.71,-433.37 493.64,-362.9 462.98,-332.06"/>
<polygon fill="midnightblue" stroke="midnightblue" points="597.33,-472.15 606.86,-476.78 602.29,-467.22 597.33,-472.15"/>
</g>
<!-- Node12&#45;&gt;Node3 -->
<g id="edge19" class="edge">
<title>Node12&#45;&gt;Node3</title>
<path fill="none" stroke="midnightblue" d="M775.4,-325.62C669.67,-278.15 379.69,-167.21 173,-271 120.57,-297.33 87.96,-364.2 75.4,-394.57"/>
<polygon fill="midnightblue" stroke="midnightblue" points="774.2,-328.93 784.75,-329.88 777.1,-322.55 774.2,-328.93"/>
</g>
<!-- Node12&#45;&gt;Node11 -->
<g id="edge20" class="edge">
<title>Node12&#45;&gt;Node11</title>
<path fill="none" stroke="midnightblue" d="M746.17,-364.38C743.35,-365.82 740.61,-367.36 738,-369 691.65,-398.12 651.9,-450.8 634.05,-476.74"/>
<polygon fill="midnightblue" stroke="midnightblue" points="747.78,-367.49 755.39,-360.12 744.84,-361.14 747.78,-367.49"/>
</g>
<!-- Node13&#45;&gt;Node3 -->
<g id="edge22" class="edge">
<title>Node13&#45;&gt;Node3</title>
<path fill="none" stroke="midnightblue" d="M727.63,-585.06C574.32,-592.34 266.48,-599.91 173,-550 121.01,-522.24 88.17,-455.54 75.47,-425.33"/>
<polygon fill="midnightblue" stroke="midnightblue" points="728.13,-588.54 737.95,-584.56 727.79,-581.55 728.13,-588.54"/>
</g>
<!-- Node13&#45;&gt;Node11 -->
<g id="edge23" class="edge">
<title>Node13&#45;&gt;Node11</title>
<path fill="none" stroke="midnightblue" d="M773.48,-560.51C738.31,-544.39 689.1,-521.84 656.9,-507.08"/>
<polygon fill="midnightblue" stroke="midnightblue" points="772.45,-563.89 782.99,-564.87 775.36,-557.52 772.45,-563.89"/>
</g>
<!-- Node14&#45;&gt;Node3 -->
<g id="edge25" class="edge">
<title>Node14&#45;&gt;Node3</title>
<path fill="none" stroke="midnightblue" d="M1131.28,-487.35C1130.85,-487.56 1130.43,-487.78 1130,-488 1112,-497.32 1112.92,-508.73 1094,-516 979.19,-560.09 940.99,-536 818,-536 818,-536 818,-536 446,-536 323.03,-536 285.6,-540.43 173,-491 136.86,-475.13 102.3,-443.72 83.69,-425.02"/>
<polygon fill="midnightblue" stroke="midnightblue" points="1132.99,-490.41 1140.65,-483.1 1130.1,-484.04 1132.99,-490.41"/>
</g>
<!-- Node15 -->
<g id="node15" class="node">
<title>Node15</title>
<g id="a_node15"><a xlink:href="classAdvanceButtonDialog.html#ae845213154214835f35b01653c3c8cd6" target="_top" xlink:title=" ">
<polygon fill="white" stroke="black" points="939,-477 939,-507 1087,-507 1087,-477 939,-477"/>
<text text-anchor="start" x="947" y="-495" font-family="Helvetica,sans-Serif" font-size="10.00">AdvanceButtonDialog</text>
<text text-anchor="middle" x="1013" y="-484" font-family="Helvetica,sans-Serif" font-size="10.00">::connectTimeBoxesEvents</text>
</a>
</g>
</g>
<!-- Node14&#45;&gt;Node15 -->
<g id="edge26" class="edge">
<title>Node14&#45;&gt;Node15</title>
<path fill="none" stroke="midnightblue" d="M1121.89,-477.77C1110.45,-479.28 1098.64,-480.84 1087.22,-482.35"/>
<polygon fill="midnightblue" stroke="midnightblue" points="1122.38,-481.24 1131.83,-476.46 1121.46,-474.3 1122.38,-481.24"/>
</g>
<!-- Node18 -->
<g id="node18" class="node">
<title>Node18</title>
<g id="a_node18"><a xlink:href="classAdvanceButtonDialog.html#addf68258b6fb4eeae4dde34fc0fb92e7" target="_top" xlink:title=" ">
<polygon fill="white" stroke="black" points="932,-428 932,-458 1094,-458 1094,-428 932,-428"/>
<text text-anchor="start" x="940" y="-446" font-family="Helvetica,sans-Serif" font-size="10.00">AdvanceButtonDialog</text>
<text text-anchor="middle" x="1013" y="-435" font-family="Helvetica,sans-Serif" font-size="10.00">::disconnectTimeBoxesEvents</text>
</a>
</g>
</g>
<!-- Node14&#45;&gt;Node18 -->
<g id="edge30" class="edge">
<title>Node14&#45;&gt;Node18</title>
<path fill="none" stroke="midnightblue" d="M1121.71,-457.79C1112.63,-456.55 1103.33,-455.27 1094.17,-454.01"/>
<polygon fill="midnightblue" stroke="midnightblue" points="1121.45,-461.29 1131.83,-459.19 1122.4,-454.36 1121.45,-461.29"/>
</g>
<!-- Node16 -->
<g id="node16" class="node">
<title>Node16</title>
<g id="a_node16"><a xlink:href="classAdvanceButtonDialog.html#a31876eda1370e7e4190f02c8c5863755" target="_top" xlink:title=" ">
<polygon fill="white" stroke="black" points="744,-477 744,-507 890,-507 890,-477 744,-477"/>
<text text-anchor="start" x="752" y="-495" font-family="Helvetica,sans-Serif" font-size="10.00">AdvanceButtonDialog</text>
<text text-anchor="middle" x="817" y="-484" font-family="Helvetica,sans-Serif" font-size="10.00">::refreshTimeComboBoxes</text>
</a>
</g>
</g>
<!-- Node15&#45;&gt;Node16 -->
<g id="edge27" class="edge">
<title>Node15&#45;&gt;Node16</title>
<path fill="none" stroke="midnightblue" d="M928.7,-492C915.83,-492 902.63,-492 890.04,-492"/>
<polygon fill="midnightblue" stroke="midnightblue" points="928.93,-495.5 938.93,-492 928.93,-488.5 928.93,-495.5"/>
</g>
<!-- Node17 -->
<g id="node17" class="node">
<title>Node17</title>
<g id="a_node17"><a xlink:href="classAdvanceButtonDialog.html#a634243c95c88918cdb195f5417a585fa" target="_top" xlink:title=" ">
<polygon fill="white" stroke="black" points="756,-428 756,-458 878,-458 878,-428 756,-428"/>
<text text-anchor="start" x="764" y="-446" font-family="Helvetica,sans-Serif" font-size="10.00">AdvanceButtonDialog</text>
<text text-anchor="middle" x="817" y="-435" font-family="Helvetica,sans-Serif" font-size="10.00">::resetTimeBoxes</text>
</a>
</g>
</g>
<!-- Node15&#45;&gt;Node17 -->
<g id="edge29" class="edge">
<title>Node15&#45;&gt;Node17</title>
<path fill="none" stroke="midnightblue" d="M942.52,-474.45C921.21,-469.07 897.98,-463.2 877.41,-458.01"/>
<polygon fill="midnightblue" stroke="midnightblue" points="941.92,-477.91 952.48,-476.97 943.64,-471.12 941.92,-477.91"/>
</g>
<!-- Node16&#45;&gt;Node11 -->
<g id="edge28" class="edge">
<title>Node16&#45;&gt;Node11</title>
<path fill="none" stroke="midnightblue" d="M733.63,-492C723.22,-492 712.58,-492 702.23,-492"/>
<polygon fill="midnightblue" stroke="midnightblue" points="733.96,-495.5 743.96,-492 733.96,-488.5 733.96,-495.5"/>
</g>
<!-- Node18&#45;&gt;Node16 -->
<g id="edge31" class="edge">
<title>Node18&#45;&gt;Node16</title>
<path fill="none" stroke="midnightblue" d="M942.52,-460.55C921.21,-465.93 897.98,-471.8 877.41,-476.99"/>
<polygon fill="midnightblue" stroke="midnightblue" points="943.64,-463.88 952.48,-458.03 941.92,-457.09 943.64,-463.88"/>
</g>
<!-- Node18&#45;&gt;Node17 -->
<g id="edge32" class="edge">
<title>Node18&#45;&gt;Node17</title>
<path fill="none" stroke="midnightblue" d="M921.81,-443C907.05,-443 892.08,-443 878.28,-443"/>
<polygon fill="midnightblue" stroke="midnightblue" points="921.97,-446.5 931.97,-443 921.97,-439.5 921.97,-446.5"/>
</g>
<!-- Node19&#45;&gt;Node20 -->
<g id="edge34" class="edge">
<title>Node19&#45;&gt;Node20</title>
<path fill="none" stroke="midnightblue" d="M1150.13,-297.55C1143.27,-294.24 1136.37,-290.68 1130,-287 1093.98,-266.19 1055.28,-236.95 1032.93,-219.3"/>
<polygon fill="midnightblue" stroke="midnightblue" points="1148.86,-300.82 1159.4,-301.89 1151.82,-294.48 1148.86,-300.82"/>
</g>
<!-- Node20&#45;&gt;Node3 -->
<g id="edge35" class="edge">
<title>Node20&#45;&gt;Node3</title>
<path fill="none" stroke="midnightblue" d="M989.62,-182.1C933.32,-129.43 779.18,0 624,0 624,0 624,0 446,0 227.11,0 100.82,-320.95 74.63,-394.92"/>
<polygon fill="midnightblue" stroke="midnightblue" points="987.24,-184.66 996.9,-189 992.05,-179.58 987.24,-184.66"/>
</g>
<!-- Node21 -->
<g id="node21" class="node">
<title>Node21</title>
<g id="a_node21"><a xlink:href="classAdvanceButtonDialog.html#af8430c4a355c90c657d69a44a85e6b84" target="_top" xlink:title=" ">
<polygon fill="white" stroke="black" points="549,-327 549,-357 697,-357 697,-327 549,-327"/>
<text text-anchor="start" x="557" y="-345" font-family="Helvetica,sans-Serif" font-size="10.00">AdvanceButtonDialog</text>
<text text-anchor="middle" x="623" y="-334" font-family="Helvetica,sans-Serif" font-size="10.00">::showSelectProfileWindow</text>
</a>
</g>
</g>
<!-- Node20&#45;&gt;Node21 -->
<g id="edge36" class="edge">
<title>Node20&#45;&gt;Node21</title>
<path fill="none" stroke="midnightblue" d="M960.16,-222.44C882.58,-250.03 737.75,-301.54 666.21,-326.99"/>
<polygon fill="midnightblue" stroke="midnightblue" points="961.49,-225.68 969.74,-219.03 959.14,-219.08 961.49,-225.68"/>
</g>
<!-- Node21&#45;&gt;Node3 -->
<g id="edge37" class="edge">
<title>Node21&#45;&gt;Node3</title>
<path fill="none" stroke="midnightblue" d="M538.57,-359.03C484.92,-369.41 413.6,-382.14 350,-390 275.62,-399.19 189.59,-404.55 132.62,-407.37"/>
<polygon fill="midnightblue" stroke="midnightblue" points="539.57,-362.4 548.71,-357.05 538.23,-355.53 539.57,-362.4"/>
</g>
<!-- Node22&#45;&gt;Node20 -->
<g id="edge39" class="edge">
<title>Node22&#45;&gt;Node20</title>
<path fill="none" stroke="midnightblue" d="M1125.96,-219.38C1108.83,-217.03 1090.65,-214.53 1074.03,-212.25"/>
<polygon fill="midnightblue" stroke="midnightblue" points="1125.52,-222.85 1135.9,-220.74 1126.47,-215.92 1125.52,-222.85"/>
</g>
<!-- Node23&#45;&gt;Node20 -->
<g id="edge41" class="edge">
<title>Node23&#45;&gt;Node20</title>
<path fill="none" stroke="midnightblue" d="M1125.96,-189.24C1108.83,-191.5 1090.65,-193.89 1074.03,-196.08"/>
<polygon fill="midnightblue" stroke="midnightblue" points="1126.45,-192.7 1135.9,-187.93 1125.53,-185.76 1126.45,-192.7"/>
</g>
<!-- Node24&#45;&gt;Node20 -->
<g id="edge44" class="edge">
<title>Node24&#45;&gt;Node20</title>
<path fill="none" stroke="midnightblue" d="M1143.95,-149.65C1139.22,-151.43 1134.51,-153.23 1130,-155 1102.33,-165.87 1071.32,-179.02 1048.33,-188.96"/>
<polygon fill="midnightblue" stroke="midnightblue" points="1145.48,-152.81 1153.63,-146.05 1143.04,-146.25 1145.48,-152.81"/>
</g>
<!-- Node25&#45;&gt;Node4 -->
<g id="edge46" class="edge">
<title>Node25&#45;&gt;Node4</title>
<path fill="none" stroke="midnightblue" d="M551.71,-702.09C494.05,-698.88 412.12,-694.32 350.17,-690.88"/>
<polygon fill="midnightblue" stroke="midnightblue" points="551.65,-705.59 561.83,-702.65 552.04,-698.6 551.65,-705.59"/>
</g>
<!-- Node26&#45;&gt;Node20 -->
<g id="edge48" class="edge">
<title>Node26&#45;&gt;Node20</title>
<path fill="none" stroke="midnightblue" d="M1138.89,-101.29C1135.83,-102.78 1132.85,-104.35 1130,-106 1089.4,-129.53 1049.18,-167.72 1028.44,-188.8"/>
<polygon fill="midnightblue" stroke="midnightblue" points="1140.54,-104.39 1148.21,-97.08 1137.66,-98.01 1140.54,-104.39"/>
</g>
</g>
</svg>
        <g id="navigator" transform="translate(0 0)" fill="#404254">
                <rect fill="#f2f5e9" fill-opacity="0.5" stroke="#606060" stroke-width=".5" x="0" y="0" width="60" height="60"/>
                <use id="zoomplus" xlink:href="#zoomPlus" x="17" y="9" onmousedown="handleZoom(evt,'in')"/>
                <use id="zoomminus" xlink:href="#zoomMin" x="42" y="9" onmousedown="handleZoom(evt,'out')"/>
                <use id="reset" xlink:href="#resetDef" x="30" y="36" onmousedown="handleReset()"/>
                <g id="arrowUp" xlink:href="#dirArrow" transform="translate(30 24)" onmousedown="handlePan(0,-1)">
                  <use xlink:href="#rim" fill="#404040">
                        <set attributeName="fill" to="#808080" begin="arrowUp.mouseover" end="arrowUp.mouseout"/>
                  </use>
                  <path fill="none" stroke="white" stroke-width="1.5" d="M0,-3.0v7 M-2.5,-0.5L0,-3.0L2.5,-0.5"/>
                </g>
                <g id="arrowRight" xlink:href="#dirArrow" transform="rotate(90) translate(36 -43)" onmousedown="handlePan(1,0)">
                  <use xlink:href="#rim" fill="#404040">
                        <set attributeName="fill" to="#808080" begin="arrowRight.mouseover" end="arrowRight.mouseout"/>
                  </use>
                  <path fill="none" stroke="white" stroke-width="1.5" d="M0,-3.0v7 M-2.5,-0.5L0,-3.0L2.5,-0.5"/>
                </g>
                <g id="arrowDown" xlink:href="#dirArrow" transform="rotate(180) translate(-30 -48)" onmousedown="handlePan(0,1)">
                  <use xlink:href="#rim" fill="#404040">
                        <set attributeName="fill" to="#808080" begin="arrowDown.mouseover" end="arrowDown.mouseout"/>
                  </use>
                  <path fill="none" stroke="white" stroke-width="1.5" d="M0,-3.0v7 M-2.5,-0.5L0,-3.0L2.5,-0.5"/>
                </g>
                <g id="arrowLeft" xlink:href="#dirArrow" transform="rotate(270) translate(-36 17)" onmousedown="handlePan(-1,0)">
                  <use xlink:href="#rim" fill="#404040">
                        <set attributeName="fill" to="#808080" begin="arrowLeft.mouseover" end="arrowLeft.mouseout"/>
                  </use>
                  <path fill="none" stroke="white" stroke-width="1.5" d="M0,-3.0v7 M-2.5,-0.5L0,-3.0L2.5,-0.5"/>
                </g>
        </g>
        <svg viewBox="0 0 15 15" width="100%" height="30px" preserveAspectRatio="xMaxYMin meet">
         <g id="arrow_out" transform="scale(0.3 0.3)">
          <a xlink:href="classAdvanceButtonDialog_a4113d445669142105e86b546979ac258_icgraph_org.svg" target="_base">
           <rect id="button" ry="5" rx="5" y="6" x="6" height="38" width="38"
                fill="#f2f5e9" fill-opacity="0.5" stroke="#606060" stroke-width="1.0"/>
           <path id="arrow"
             d="M 11.500037,31.436501 C 11.940474,20.09759 22.043105,11.32322 32.158766,21.979434 L 37.068811,17.246167 C 37.068811,17.246167 37.088388,32 37.088388,32 L 22.160133,31.978069 C 22.160133,31.978069 26.997745,27.140456 26.997745,27.140456 C 18.528582,18.264221 13.291696,25.230495 11.500037,31.436501 z"
             style="fill:#404040;"/>
          </a>
         </g>
        </svg>
</svg>
