<?xml version="1.0" encoding="UTF-8" standalone="no"?>
<!DOCTYPE svg PUBLIC "-//W3C//DTD SVG 1.1//EN"
 "http://www.w3.org/Graphics/SVG/1.1/DTD/svg11.dtd">
<!-- Generated by graphviz version 2.43.0 (0)
 -->
<!-- Title: MainWindow::makeJoystickTabs Pages: 1 -->
<svg width="375pt" height="142pt"
 viewBox="0.00 0.00 375.00 142.00" xmlns="http://www.w3.org/2000/svg" xmlns:xlink="http://www.w3.org/1999/xlink">
<g id="graph0" class="graph" transform="scale(1 1) rotate(0) translate(4 138)">
<title>MainWindow::makeJoystickTabs</title>
<polygon fill="white" stroke="transparent" points="-4,4 -4,-138 371,-138 371,4 -4,4"/>
<!-- Node1 -->
<g id="node1" class="node">
<title>Node1</title>
<g id="a_node1"><a xlink:title=" ">
<polygon fill="#bfbfbf" stroke="black" points="0,-57.5 0,-76.5 172,-76.5 172,-57.5 0,-57.5"/>
<text text-anchor="middle" x="86" y="-64.5" font-family="Helvetica,sans-Serif" font-size="10.00">MainWindow::makeJoystickTabs</text>
</a>
</g>
</g>
<!-- Node2 -->
<g id="node2" class="node">
<title>Node2</title>
<g id="a_node2"><a xlink:href="classInputDevice.html#a197e76d4113e8258e6637981830dd219" target="_top" xlink:title=" ">
<polygon fill="white" stroke="black" points="212,-114.5 212,-133.5 363,-133.5 363,-114.5 212,-114.5"/>
<text text-anchor="middle" x="287.5" y="-121.5" font-family="Helvetica,sans-Serif" font-size="10.00">InputDevice::getJoyNumber</text>
</a>
</g>
</g>
<!-- Node1&#45;&gt;Node2 -->
<g id="edge1" class="edge">
<title>Node1&#45;&gt;Node2</title>
<path fill="none" stroke="midnightblue" d="M115.69,-76.6C140.1,-84.64 176.18,-96.16 208,-105 216.64,-107.4 225.86,-109.78 234.83,-112.01"/>
<polygon fill="midnightblue" stroke="midnightblue" points="234.27,-115.48 244.81,-114.46 235.93,-108.68 234.27,-115.48"/>
</g>
<!-- Node3 -->
<g id="node3" class="node">
<title>Node3</title>
<g id="a_node3"><a xlink:href="classInputDevice.html#a21f76b23650db2edd90f8f4b6951845a" target="_top" xlink:title=" ">
<polygon fill="white" stroke="black" points="224.5,-76.5 224.5,-95.5 350.5,-95.5 350.5,-76.5 224.5,-76.5"/>
<text text-anchor="middle" x="287.5" y="-83.5" font-family="Helvetica,sans-Serif" font-size="10.00">InputDevice::getName</text>
</a>
</g>
</g>
<!-- Node1&#45;&gt;Node3 -->
<g id="edge2" class="edge">
<title>Node1&#45;&gt;Node3</title>
<path fill="none" stroke="midnightblue" d="M172.18,-75.11C186.11,-76.44 200.42,-77.8 214,-79.1"/>
<polygon fill="midnightblue" stroke="midnightblue" points="213.94,-82.61 224.23,-80.07 214.61,-75.64 213.94,-82.61"/>
</g>
<!-- Node4 -->
<g id="node4" class="node">
<title>Node4</title>
<g id="a_node4"><a xlink:href="classInputDevice.html#a3184377c2e251949cae1a0937aaef78c" target="_top" xlink:title=" ">
<polygon fill="white" stroke="black" points="215,-38.5 215,-57.5 360,-57.5 360,-38.5 215,-38.5"/>
<text text-anchor="middle" x="287.5" y="-45.5" font-family="Helvetica,sans-Serif" font-size="10.00">InputDevice::getSDLName</text>
</a>
</g>
</g>
<!-- Node1&#45;&gt;Node4 -->
<g id="edge3" class="edge">
<title>Node1&#45;&gt;Node4</title>
<path fill="none" stroke="midnightblue" d="M172.18,-58.89C182.94,-57.86 193.92,-56.82 204.63,-55.8"/>
<polygon fill="midnightblue" stroke="midnightblue" points="205.16,-59.26 214.78,-54.83 204.5,-52.29 205.16,-59.26"/>
</g>
<!-- Node5 -->
<g id="node5" class="node">
<title>Node5</title>
<g id="a_node5"><a xlink:href="classMainWindow.html#a5f2ca2a86e915e6bc3d85880b2dca600" target="_top" xlink:title=" ">
<polygon fill="white" stroke="black" points="208,-0.5 208,-19.5 367,-19.5 367,-0.5 208,-0.5"/>
<text text-anchor="middle" x="287.5" y="-7.5" font-family="Helvetica,sans-Serif" font-size="10.00">MainWindow::removeJoyTabs</text>
</a>
</g>
</g>
<!-- Node1&#45;&gt;Node5 -->
<g id="edge4" class="edge">
<title>Node1&#45;&gt;Node5</title>
<path fill="none" stroke="midnightblue" d="M115.69,-57.4C140.1,-49.36 176.18,-37.84 208,-29 216.64,-26.6 225.86,-24.22 234.83,-21.99"/>
<polygon fill="midnightblue" stroke="midnightblue" points="235.93,-25.32 244.81,-19.54 234.27,-18.52 235.93,-25.32"/>
</g>
</g>
</svg>
