<?xml version="1.0" encoding="UTF-8" standalone="no"?>
<!DOCTYPE svg PUBLIC "-//W3C//DTD SVG 1.1//EN"
 "http://www.w3.org/Graphics/SVG/1.1/DTD/svg11.dtd">
<!-- Generated by graphviz version 2.43.0 (0)
 -->
<!-- Title: AddEditAutoProfileDialog::checkForDefaultStatus Pages: 1 -->
<svg width="328pt" height="88pt"
 viewBox="0.00 0.00 328.00 88.00" xmlns="http://www.w3.org/2000/svg" xmlns:xlink="http://www.w3.org/1999/xlink">
<g id="graph0" class="graph" transform="scale(1 1) rotate(0) translate(4 84)">
<title>AddEditAutoProfileDialog::checkForDefaultStatus</title>
<polygon fill="white" stroke="transparent" points="-4,4 -4,-84 324,-84 324,4 -4,4"/>
<!-- Node1 -->
<g id="node1" class="node">
<title>Node1</title>
<g id="a_node1"><a xlink:title=" ">
<polygon fill="#bfbfbf" stroke="black" points="181,-24.5 181,-54.5 320,-54.5 320,-24.5 181,-24.5"/>
<text text-anchor="start" x="189" y="-42.5" font-family="Helvetica,sans-Serif" font-size="10.00">AddEditAutoProfileDialog</text>
<text text-anchor="middle" x="250.5" y="-31.5" font-family="Helvetica,sans-Serif" font-size="10.00">::checkForDefaultStatus</text>
</a>
</g>
</g>
<!-- Node2 -->
<g id="node2" class="node">
<title>Node2</title>
<g id="a_node2"><a xlink:href="classAddEditAutoProfileDialog.html#a518993ac329de2e2bee5eeb392d124ec" target="_top" xlink:title=" ">
<polygon fill="white" stroke="black" points="0,-49.5 0,-79.5 145,-79.5 145,-49.5 0,-49.5"/>
<text text-anchor="start" x="8" y="-67.5" font-family="Helvetica,sans-Serif" font-size="10.00">AddEditAutoProfileDialog</text>
<text text-anchor="middle" x="72.5" y="-56.5" font-family="Helvetica,sans-Serif" font-size="10.00">::AddEditAutoProfileDialog</text>
</a>
</g>
</g>
<!-- Node1&#45;&gt;Node2 -->
<g id="edge1" class="edge">
<title>Node1&#45;&gt;Node2</title>
<path fill="none" stroke="midnightblue" d="M170.92,-50.66C162.31,-51.89 153.58,-53.13 145.06,-54.34"/>
<polygon fill="midnightblue" stroke="midnightblue" points="171.54,-54.11 180.95,-49.24 170.56,-47.18 171.54,-54.11"/>
</g>
<!-- Node3 -->
<g id="node3" class="node">
<title>Node3</title>
<g id="a_node3"><a xlink:href="classAddEditAutoProfileDialog.html#a6b3575eaa504bf2cde9a47d577c93ecf" target="_top" xlink:title=" ">
<polygon fill="white" stroke="black" points="2.5,-0.5 2.5,-30.5 142.5,-30.5 142.5,-0.5 2.5,-0.5"/>
<text text-anchor="start" x="10.5" y="-18.5" font-family="Helvetica,sans-Serif" font-size="10.00">AddEditAutoProfileDialog</text>
<text text-anchor="middle" x="72.5" y="-7.5" font-family="Helvetica,sans-Serif" font-size="10.00">::windowPropAssignment</text>
</a>
</g>
</g>
<!-- Node1&#45;&gt;Node3 -->
<g id="edge2" class="edge">
<title>Node1&#45;&gt;Node3</title>
<path fill="none" stroke="midnightblue" d="M170.85,-28.78C161.48,-27.5 151.96,-26.2 142.73,-24.94"/>
<polygon fill="midnightblue" stroke="midnightblue" points="170.57,-32.27 180.95,-30.15 171.51,-25.33 170.57,-32.27"/>
</g>
</g>
</svg>
