<?xml version="1.0" encoding="UTF-8" standalone="no"?>
<!DOCTYPE svg PUBLIC "-//W3C//DTD SVG 1.1//EN"
 "http://www.w3.org/Graphics/SVG/1.1/DTD/svg11.dtd">
<!-- Generated by graphviz version 2.43.0 (0)
 -->
<!-- Title: JoyControlStickContextMenu::getPresetIndex Pages: 1 -->
<svg width="601pt" height="230pt"
 viewBox="0.00 0.00 601.00 230.00" xmlns="http://www.w3.org/2000/svg" xmlns:xlink="http://www.w3.org/1999/xlink">
<g id="graph0" class="graph" transform="scale(1 1) rotate(0) translate(4 226)">
<title>JoyControlStickContextMenu::getPresetIndex</title>
<polygon fill="white" stroke="transparent" points="-4,4 -4,-226 597,-226 597,4 -4,4"/>
<!-- Node1 -->
<g id="node1" class="node">
<title>Node1</title>
<g id="a_node1"><a xlink:title=" ">
<polygon fill="#bfbfbf" stroke="black" points="0,-90 0,-120 156,-120 156,-90 0,-90"/>
<text text-anchor="start" x="8" y="-108" font-family="Helvetica,sans-Serif" font-size="10.00">JoyControlStickContextMenu</text>
<text text-anchor="middle" x="78" y="-97" font-family="Helvetica,sans-Serif" font-size="10.00">::getPresetIndex</text>
</a>
</g>
</g>
<!-- Node2 -->
<g id="node2" class="node">
<title>Node2</title>
<g id="a_node2"><a xlink:href="classJoyButton.html#ae1d364dfa70f47fae3db99ffbcdea44b" target="_top" xlink:title=" ">
<polygon fill="white" stroke="black" points="201.5,-202.5 201.5,-221.5 355.5,-221.5 355.5,-202.5 201.5,-202.5"/>
<text text-anchor="middle" x="278.5" y="-209.5" font-family="Helvetica,sans-Serif" font-size="10.00">JoyButton::getAssignedSlots</text>
</a>
</g>
</g>
<!-- Node1&#45;&gt;Node2 -->
<g id="edge1" class="edge">
<title>Node1&#45;&gt;Node2</title>
<path fill="none" stroke="midnightblue" d="M93.96,-120.29C114.28,-140.14 152.63,-174.46 192,-193 197.29,-195.49 202.91,-197.66 208.66,-199.55"/>
<polygon fill="midnightblue" stroke="midnightblue" points="207.82,-202.95 218.4,-202.48 209.83,-196.25 207.82,-202.95"/>
</g>
<!-- Node3 -->
<g id="node3" class="node">
<title>Node3</title>
<g id="a_node3"><a xlink:href="classJoyControlStick.html#ae57242ae6e71190d82ef4dbf31f11dd0" target="_top" xlink:title="Get a pointer to the stick direction button for the desired direction.">
<polygon fill="white" stroke="black" points="200,-153 200,-183 357,-183 357,-153 200,-153"/>
<text text-anchor="start" x="208" y="-171" font-family="Helvetica,sans-Serif" font-size="10.00">JoyControlStick::getDirection</text>
<text text-anchor="middle" x="278.5" y="-160" font-family="Helvetica,sans-Serif" font-size="10.00">Button</text>
</a>
</g>
</g>
<!-- Node1&#45;&gt;Node3 -->
<g id="edge2" class="edge">
<title>Node1&#45;&gt;Node3</title>
<path fill="none" stroke="midnightblue" d="M122.33,-120.02C143.31,-127.18 168.9,-135.74 192,-143 199.47,-145.35 207.33,-147.74 215.13,-150.08"/>
<polygon fill="midnightblue" stroke="midnightblue" points="214.37,-153.5 224.95,-152.99 216.36,-146.79 214.37,-153.5"/>
</g>
<!-- Node4 -->
<g id="node4" class="node">
<title>Node4</title>
<g id="a_node4"><a xlink:href="classAntKeyMapper.html#acd08c44a2501edcfdb1ef8a68d534b1b" target="_top" xlink:title=" ">
<polygon fill="white" stroke="black" points="203,-114.5 203,-133.5 354,-133.5 354,-114.5 203,-114.5"/>
<text text-anchor="middle" x="278.5" y="-121.5" font-family="Helvetica,sans-Serif" font-size="10.00">AntKeyMapper::getInstance</text>
</a>
</g>
</g>
<!-- Node1&#45;&gt;Node4 -->
<g id="edge3" class="edge">
<title>Node1&#45;&gt;Node4</title>
<path fill="none" stroke="midnightblue" d="M156.03,-112.37C168.03,-113.52 180.5,-114.71 192.66,-115.88"/>
<polygon fill="midnightblue" stroke="midnightblue" points="192.51,-119.38 202.8,-116.85 193.18,-112.41 192.51,-119.38"/>
</g>
<!-- Node7 -->
<g id="node7" class="node">
<title>Node7</title>
<g id="a_node7"><a xlink:href="classJoyButtonSlot.html#a1e91202fd2eac80332ed3e3ff1593769" target="_top" xlink:title=" ">
<polygon fill="white" stroke="black" points="204.5,-76.5 204.5,-95.5 352.5,-95.5 352.5,-76.5 204.5,-76.5"/>
<text text-anchor="middle" x="278.5" y="-83.5" font-family="Helvetica,sans-Serif" font-size="10.00">JoyButtonSlot::getSlotCode</text>
</a>
</g>
</g>
<!-- Node1&#45;&gt;Node7 -->
<g id="edge6" class="edge">
<title>Node1&#45;&gt;Node7</title>
<path fill="none" stroke="midnightblue" d="M156.03,-97.63C168.58,-96.43 181.64,-95.18 194.33,-93.96"/>
<polygon fill="midnightblue" stroke="midnightblue" points="194.8,-97.43 204.42,-93 194.13,-90.46 194.8,-97.43"/>
</g>
<!-- Node8 -->
<g id="node8" class="node">
<title>Node8</title>
<g id="a_node8"><a xlink:href="classJoyButtonSlot.html#a86b4a25191351f28942511012a4e4e4a" target="_top" xlink:title=" ">
<polygon fill="white" stroke="black" points="203.5,-38.5 203.5,-57.5 353.5,-57.5 353.5,-38.5 203.5,-38.5"/>
<text text-anchor="middle" x="278.5" y="-45.5" font-family="Helvetica,sans-Serif" font-size="10.00">JoyButtonSlot::getSlotMode</text>
</a>
</g>
</g>
<!-- Node1&#45;&gt;Node8 -->
<g id="edge7" class="edge">
<title>Node1&#45;&gt;Node8</title>
<path fill="none" stroke="midnightblue" d="M120.27,-89.95C141.53,-82.5 167.97,-73.69 192,-67 201.13,-64.46 210.89,-62.03 220.42,-59.8"/>
<polygon fill="midnightblue" stroke="midnightblue" points="221.27,-63.2 230.24,-57.57 219.71,-56.38 221.27,-63.2"/>
</g>
<!-- Node9 -->
<g id="node9" class="node">
<title>Node9</title>
<g id="a_node9"><a xlink:href="classAntKeyMapper.html#a07957c1e2baac6c4266678d89dc7c3a6" target="_top" xlink:title=" ">
<polygon fill="white" stroke="black" points="192,-0.5 192,-19.5 365,-19.5 365,-0.5 192,-0.5"/>
<text text-anchor="middle" x="278.5" y="-7.5" font-family="Helvetica,sans-Serif" font-size="10.00">AntKeyMapper::returnVirtualKey</text>
</a>
</g>
</g>
<!-- Node1&#45;&gt;Node9 -->
<g id="edge8" class="edge">
<title>Node1&#45;&gt;Node9</title>
<path fill="none" stroke="midnightblue" d="M96.94,-89.79C118.24,-72.5 155.5,-44.66 192,-29 197.87,-26.48 204.11,-24.28 210.45,-22.35"/>
<polygon fill="midnightblue" stroke="midnightblue" points="211.76,-25.62 220.45,-19.55 209.88,-18.88 211.76,-25.62"/>
</g>
<!-- Node5 -->
<g id="node5" class="node">
<title>Node5</title>
<g id="a_node5"><a xlink:href="classAntKeyMapper.html#abe4a434636d370a750d32a14b9a139d3" target="_top" xlink:title=" ">
<polygon fill="white" stroke="black" points="414.5,-133.5 414.5,-152.5 579.5,-152.5 579.5,-133.5 414.5,-133.5"/>
<text text-anchor="middle" x="497" y="-140.5" font-family="Helvetica,sans-Serif" font-size="10.00">AntKeyMapper::AntKeyMapper</text>
</a>
</g>
</g>
<!-- Node4&#45;&gt;Node5 -->
<g id="edge4" class="edge">
<title>Node4&#45;&gt;Node5</title>
<path fill="none" stroke="midnightblue" d="M354.01,-130.54C370.11,-131.95 387.33,-133.46 404.01,-134.93"/>
<polygon fill="midnightblue" stroke="midnightblue" points="404.05,-138.44 414.32,-135.83 404.66,-131.47 404.05,-138.44"/>
</g>
<!-- Node6 -->
<g id="node6" class="node">
<title>Node6</title>
<g id="a_node6"><a xlink:href="antkeymapper_8cpp.html#a4f87707944cf82e8e59c85d48e24951c" target="_top" xlink:title=" ">
<polygon fill="white" stroke="black" points="430,-95.5 430,-114.5 564,-114.5 564,-95.5 430,-95.5"/>
<text text-anchor="middle" x="497" y="-102.5" font-family="Helvetica,sans-Serif" font-size="10.00">buildEventGeneratorList</text>
</a>
</g>
</g>
<!-- Node4&#45;&gt;Node6 -->
<g id="edge5" class="edge">
<title>Node4&#45;&gt;Node6</title>
<path fill="none" stroke="midnightblue" d="M354.01,-117.46C375.23,-115.6 398.38,-113.57 419.71,-111.7"/>
<polygon fill="midnightblue" stroke="midnightblue" points="420.03,-115.18 429.69,-110.82 419.42,-108.21 420.03,-115.18"/>
</g>
<!-- Node10 -->
<g id="node10" class="node">
<title>Node10</title>
<g id="a_node10"><a xlink:href="classQtKeyMapperBase.html#a5df0f313bce11847f8495126373e7178" target="_top" xlink:title=" ">
<polygon fill="white" stroke="black" points="401,-0.5 401,-19.5 593,-19.5 593,-0.5 401,-0.5"/>
<text text-anchor="middle" x="497" y="-7.5" font-family="Helvetica,sans-Serif" font-size="10.00">QtKeyMapperBase::returnVirtualKey</text>
</a>
</g>
</g>
<!-- Node9&#45;&gt;Node10 -->
<g id="edge9" class="edge">
<title>Node9&#45;&gt;Node10</title>
<path fill="none" stroke="midnightblue" d="M365.07,-10C373.48,-10 382.08,-10 390.66,-10"/>
<polygon fill="midnightblue" stroke="midnightblue" points="390.7,-13.5 400.7,-10 390.7,-6.5 390.7,-13.5"/>
</g>
</g>
</svg>
