<?xml version="1.0" encoding="UTF-8" standalone="no"?>
<!DOCTYPE svg PUBLIC "-//W3C//DTD SVG 1.1//EN"
 "http://www.w3.org/Graphics/SVG/1.1/DTD/svg11.dtd">
<!-- Generated by graphviz version 2.43.0 (0)
 -->
<!-- Title: ExtraProfileSettingsDialog::ExtraProfileSettingsDialog Pages: 1 -->
<svg width="535pt" height="165pt"
 viewBox="0.00 0.00 535.00 164.50" xmlns="http://www.w3.org/2000/svg" xmlns:xlink="http://www.w3.org/1999/xlink">
<g id="graph0" class="graph" transform="scale(1 1) rotate(0) translate(4 160.5)">
<title>ExtraProfileSettingsDialog::ExtraProfileSettingsDialog</title>
<polygon fill="white" stroke="transparent" points="-4,4 -4,-160.5 531,-160.5 531,4 -4,4"/>
<!-- Node1 -->
<g id="node1" class="node">
<title>Node1</title>
<g id="a_node1"><a xlink:title=" ">
<polygon fill="#bfbfbf" stroke="black" points="0,-55 0,-85 150,-85 150,-55 0,-55"/>
<text text-anchor="start" x="8" y="-73" font-family="Helvetica,sans-Serif" font-size="10.00">ExtraProfileSettingsDialog</text>
<text text-anchor="middle" x="75" y="-62" font-family="Helvetica,sans-Serif" font-size="10.00">::ExtraProfileSettingsDialog</text>
</a>
</g>
</g>
<!-- Node2 -->
<g id="node2" class="node">
<title>Node2</title>
<g id="a_node2"><a xlink:href="classExtraProfileSettingsDialog.html#a584bc443f3f3e839776b9f62fbd72f85" target="_top" xlink:title=" ">
<polygon fill="white" stroke="black" points="192.5,-126 192.5,-156 336.5,-156 336.5,-126 192.5,-126"/>
<text text-anchor="start" x="200.5" y="-144" font-family="Helvetica,sans-Serif" font-size="10.00">ExtraProfileSettingsDialog</text>
<text text-anchor="middle" x="264.5" y="-133" font-family="Helvetica,sans-Serif" font-size="10.00">::changeDeviceKeyPress</text>
</a>
</g>
</g>
<!-- Node1&#45;&gt;Node2 -->
<g id="edge1" class="edge">
<title>Node1&#45;&gt;Node2</title>
<path fill="none" stroke="midnightblue" d="M108.86,-85.09C130.53,-94.79 159.68,-107.33 186,-117 191.42,-118.99 197.09,-120.96 202.8,-122.86"/>
<polygon fill="midnightblue" stroke="midnightblue" points="201.8,-126.22 212.39,-126 203.97,-119.56 201.8,-126.22"/>
</g>
<!-- Node4 -->
<g id="node4" class="node">
<title>Node4</title>
<g id="a_node4"><a xlink:href="classInputDevice.html#a15ce72c69139dfded93523e17d48c7ab" target="_top" xlink:title=" ">
<polygon fill="white" stroke="black" points="190,-77 190,-107 339,-107 339,-77 190,-77"/>
<text text-anchor="start" x="198" y="-95" font-family="Helvetica,sans-Serif" font-size="10.00">InputDevice::getDeviceKey</text>
<text text-anchor="middle" x="264.5" y="-84" font-family="Helvetica,sans-Serif" font-size="10.00">PressTime</text>
</a>
</g>
</g>
<!-- Node1&#45;&gt;Node4 -->
<g id="edge3" class="edge">
<title>Node1&#45;&gt;Node4</title>
<path fill="none" stroke="midnightblue" d="M150.1,-78.69C159.83,-79.84 169.85,-81.01 179.72,-82.17"/>
<polygon fill="midnightblue" stroke="midnightblue" points="179.59,-85.68 189.93,-83.37 180.41,-78.73 179.59,-85.68"/>
</g>
<!-- Node5 -->
<g id="node5" class="node">
<title>Node5</title>
<g id="a_node5"><a xlink:href="classInputDevice.html#a0e5ec1f9ff969ada1f54b4a71020f54c" target="_top" xlink:title=" ">
<polygon fill="white" stroke="black" points="186,-38.5 186,-57.5 343,-57.5 343,-38.5 186,-38.5"/>
<text text-anchor="middle" x="264.5" y="-45.5" font-family="Helvetica,sans-Serif" font-size="10.00">InputDevice::getProfileName</text>
</a>
</g>
</g>
<!-- Node1&#45;&gt;Node5 -->
<g id="edge4" class="edge">
<title>Node1&#45;&gt;Node5</title>
<path fill="none" stroke="midnightblue" d="M150.1,-61.31C158.57,-60.31 167.25,-59.29 175.87,-58.28"/>
<polygon fill="midnightblue" stroke="midnightblue" points="176.41,-61.74 185.93,-57.1 175.59,-54.79 176.41,-61.74"/>
</g>
<!-- Node6 -->
<g id="node6" class="node">
<title>Node6</title>
<g id="a_node6"><a xlink:href="classInputDevice.html#ad27a114484ca7b3cd7d9e60055351799" target="_top" xlink:title=" ">
<polygon fill="white" stroke="black" points="186.5,-0.5 186.5,-19.5 342.5,-19.5 342.5,-0.5 186.5,-0.5"/>
<text text-anchor="middle" x="264.5" y="-7.5" font-family="Helvetica,sans-Serif" font-size="10.00">InputDevice::setProfileName</text>
</a>
</g>
</g>
<!-- Node1&#45;&gt;Node6 -->
<g id="edge5" class="edge">
<title>Node1&#45;&gt;Node6</title>
<path fill="none" stroke="midnightblue" d="M113.05,-54.96C134.21,-46.68 161.36,-36.58 186,-29 193.99,-26.54 202.53,-24.18 210.9,-22.02"/>
<polygon fill="midnightblue" stroke="midnightblue" points="211.78,-25.41 220.62,-19.57 210.07,-18.62 211.78,-25.41"/>
</g>
<!-- Node3 -->
<g id="node3" class="node">
<title>Node3</title>
<g id="a_node3"><a xlink:href="classInputDevice.html#a4c29ccb8fbb979b7cfffeba529868bb1" target="_top" xlink:title=" ">
<polygon fill="white" stroke="black" points="379,-126 379,-156 527,-156 527,-126 379,-126"/>
<text text-anchor="start" x="387" y="-144" font-family="Helvetica,sans-Serif" font-size="10.00">InputDevice::setDeviceKey</text>
<text text-anchor="middle" x="453" y="-133" font-family="Helvetica,sans-Serif" font-size="10.00">PressTime</text>
</a>
</g>
</g>
<!-- Node2&#45;&gt;Node3 -->
<g id="edge2" class="edge">
<title>Node2&#45;&gt;Node3</title>
<path fill="none" stroke="midnightblue" d="M336.54,-141C347.07,-141 358,-141 368.76,-141"/>
<polygon fill="midnightblue" stroke="midnightblue" points="368.99,-144.5 378.99,-141 368.99,-137.5 368.99,-144.5"/>
</g>
</g>
</svg>
