<?xml version="1.0" encoding="UTF-8" standalone="no"?>
<!DOCTYPE svg PUBLIC "-//W3C//DTD SVG 1.1//EN"
 "http://www.w3.org/Graphics/SVG/1.1/DTD/svg11.dtd">
<!-- Generated by graphviz version 2.43.0 (0)
 -->
<!-- Title: JoyButton::setEasingDuration Pages: 1 -->
<!--zoomable 247 -->
<svg id="main" version="1.1" xmlns="http://www.w3.org/2000/svg" xmlns:xlink="http://www.w3.org/1999/xlink" xml:space="preserve" onload="init(evt)">
<style type="text/css"><![CDATA[
.edge:hover path { stroke: red; }
.edge:hover polygon { stroke: red; fill: red; }
]]></style>
<script type="text/javascript"><![CDATA[
var edges = document.getElementsByTagName('g');
if (edges && edges.length) {
  for (var i=0;i<edges.length;i++) {
    if (edges[i].id.substr(0,4)=='edge') {
      edges[i].setAttribute('class','edge');
    }
  }
}
]]></script>
        <defs>
                <circle id="rim" cx="0" cy="0" r="7"/>
                <circle id="rim2" cx="0" cy="0" r="3.5"/>
                <g id="zoomPlus">
                        <use xlink:href="#rim" fill="#404040">
                                <set attributeName="fill" to="#808080" begin="zoomplus.mouseover" end="zoomplus.mouseout"/>
                        </use>
                        <path d="M-4,0h8M0,-4v8" fill="none" stroke="white" stroke-width="1.5" pointer-events="none"/>
                </g>
                <g id="zoomMin">
                        <use xlink:href="#rim" fill="#404040">
                                <set attributeName="fill" to="#808080" begin="zoomminus.mouseover" end="zoomminus.mouseout"/>
                        </use>
                        <path d="M-4,0h8" fill="none" stroke="white" stroke-width="1.5" pointer-events="none"/>
                </g>
                <g id="dirArrow">
                        <path fill="none" stroke="white" stroke-width="1.5" d="M0,-3.0v7 M-2.5,-0.5L0,-3.0L2.5,-0.5"/>
                </g>
               <g id="resetDef">
                       <use xlink:href="#rim2" fill="#404040">
                               <set attributeName="fill" to="#808080" begin="reset.mouseover" end="reset.mouseout"/>
                       </use>
               </g>
        </defs>

<script type="text/javascript">
var viewWidth = 961;
var viewHeight = 247;
var sectionId = 'dynsection-237';
</script>
<script xlink:href="svgpan.js"/>
<svg id="graph" class="graph">
<g id="viewport">
<title>JoyButton::setEasingDuration</title>
<polygon fill="white" stroke="transparent" points="-4,4 -4,-242.5 957,-242.5 957,4 -4,4"/>
<!-- Node1 -->
<g id="node1" class="node">
<title>Node1</title>
<g id="a_node1"><a xlink:title=" ">
<polygon fill="#bfbfbf" stroke="black" points="794,-115.5 794,-134.5 953,-134.5 953,-115.5 794,-115.5"/>
<text text-anchor="middle" x="873.5" y="-122.5" font-family="Helvetica,sans-Serif" font-size="10.00">JoyButton::setEasingDuration</text>
</a>
</g>
</g>
<!-- Node2 -->
<g id="node2" class="node">
<title>Node2</title>
<g id="a_node2"><a xlink:href="classMouseButtonSettingsDialog.html#a181bfdf388907056ec492d58d85f5d34" target="_top" xlink:title=" ">
<polygon fill="white" stroke="black" points="600,-208 600,-238 758,-238 758,-208 600,-208"/>
<text text-anchor="start" x="608" y="-226" font-family="Helvetica,sans-Serif" font-size="10.00">MouseButtonSettingsDialog</text>
<text text-anchor="middle" x="679" y="-215" font-family="Helvetica,sans-Serif" font-size="10.00">::MouseButtonSettingsDialog</text>
</a>
</g>
</g>
<!-- Node1&#45;&gt;Node2 -->
<g id="edge1" class="edge">
<title>Node1&#45;&gt;Node2</title>
<path fill="none" stroke="midnightblue" d="M852.12,-140.65C829.97,-157.06 793.04,-182.67 758,-199 750.94,-202.29 743.31,-205.28 735.68,-207.94"/>
<polygon fill="midnightblue" stroke="midnightblue" points="854.22,-143.45 860.12,-134.65 850.02,-137.85 854.22,-143.45"/>
</g>
<!-- Node3 -->
<g id="node3" class="node">
<title>Node3</title>
<g id="a_node3"><a xlink:href="classJoyButtonXml.html#a9d7b2a6324a2f8fe4f424f78aa43d261" target="_top" xlink:title=" ">
<polygon fill="white" stroke="black" points="607.5,-159 607.5,-189 750.5,-189 750.5,-159 607.5,-159"/>
<text text-anchor="start" x="615.5" y="-177" font-family="Helvetica,sans-Serif" font-size="10.00">JoyButtonXml::readButton</text>
<text text-anchor="middle" x="679" y="-166" font-family="Helvetica,sans-Serif" font-size="10.00">Config</text>
</a>
</g>
</g>
<!-- Node1&#45;&gt;Node3 -->
<g id="edge2" class="edge">
<title>Node1&#45;&gt;Node3</title>
<path fill="none" stroke="midnightblue" d="M824.96,-137.1C799,-143.71 766.64,-151.95 739.07,-158.96"/>
<polygon fill="midnightblue" stroke="midnightblue" points="826.1,-140.42 834.93,-134.56 824.37,-133.64 826.1,-140.42"/>
</g>
<!-- Node8 -->
<g id="node8" class="node">
<title>Node8</title>
<g id="a_node8"><a xlink:href="classJoyDPad.html#ab8af58218742db8297018253e56be941" target="_top" xlink:title=" ">
<polygon fill="white" stroke="black" points="605.5,-110 605.5,-140 752.5,-140 752.5,-110 605.5,-110"/>
<text text-anchor="start" x="613.5" y="-128" font-family="Helvetica,sans-Serif" font-size="10.00">JoyDPad::setButtonsEasing</text>
<text text-anchor="middle" x="679" y="-117" font-family="Helvetica,sans-Serif" font-size="10.00">Duration</text>
</a>
</g>
</g>
<!-- Node1&#45;&gt;Node8 -->
<g id="edge8" class="edge">
<title>Node1&#45;&gt;Node8</title>
<path fill="none" stroke="midnightblue" d="M783.64,-125C773.29,-125 762.83,-125 752.74,-125"/>
<polygon fill="midnightblue" stroke="midnightblue" points="783.93,-128.5 793.93,-125 783.93,-121.5 783.93,-128.5"/>
</g>
<!-- Node10 -->
<g id="node10" class="node">
<title>Node10</title>
<g id="a_node10"><a xlink:href="classJoyAxis.html#a5ab74d320efaec601fc1129d5766e60e" target="_top" xlink:title=" ">
<polygon fill="white" stroke="black" points="607.5,-61 607.5,-91 750.5,-91 750.5,-61 607.5,-61"/>
<text text-anchor="start" x="615.5" y="-79" font-family="Helvetica,sans-Serif" font-size="10.00">JoyAxis::setButtonsEasing</text>
<text text-anchor="middle" x="679" y="-68" font-family="Helvetica,sans-Serif" font-size="10.00">Duration</text>
</a>
</g>
</g>
<!-- Node1&#45;&gt;Node10 -->
<g id="edge10" class="edge">
<title>Node1&#45;&gt;Node10</title>
<path fill="none" stroke="midnightblue" d="M824.96,-112.9C799,-106.29 766.64,-98.05 739.07,-91.04"/>
<polygon fill="midnightblue" stroke="midnightblue" points="824.37,-116.36 834.93,-115.44 826.1,-109.58 824.37,-116.36"/>
</g>
<!-- Node12 -->
<g id="node12" class="node">
<title>Node12</title>
<g id="a_node12"><a xlink:href="classJoyControlStick.html#a64ab53253b61809a5ef7625ac6f0b891" target="_top" xlink:title=" ">
<polygon fill="white" stroke="black" points="604.5,-9 604.5,-39 753.5,-39 753.5,-9 604.5,-9"/>
<text text-anchor="start" x="612.5" y="-27" font-family="Helvetica,sans-Serif" font-size="10.00">JoyControlStick::setButtons</text>
<text text-anchor="middle" x="679" y="-16" font-family="Helvetica,sans-Serif" font-size="10.00">EasingDuration</text>
</a>
</g>
</g>
<!-- Node1&#45;&gt;Node12 -->
<g id="edge12" class="edge">
<title>Node1&#45;&gt;Node12</title>
<path fill="none" stroke="midnightblue" d="M851.65,-109.32C829.36,-93.11 792.56,-67.84 758,-51 748.98,-46.61 739.07,-42.6 729.41,-39.09"/>
<polygon fill="midnightblue" stroke="midnightblue" points="849.58,-112.15 859.71,-115.26 853.73,-106.51 849.58,-112.15"/>
</g>
<!-- Node4 -->
<g id="node4" class="node">
<title>Node4</title>
<g id="a_node4"><a xlink:href="classJoyButtonXml.html#a9d79d75b14b57419ed1fc5639dde8515" target="_top" xlink:title=" ">
<polygon fill="white" stroke="black" points="400.5,-164.5 400.5,-183.5 542.5,-183.5 542.5,-164.5 400.5,-164.5"/>
<text text-anchor="middle" x="471.5" y="-171.5" font-family="Helvetica,sans-Serif" font-size="10.00">JoyButtonXml::readConfig</text>
</a>
</g>
</g>
<!-- Node3&#45;&gt;Node4 -->
<g id="edge3" class="edge">
<title>Node3&#45;&gt;Node4</title>
<path fill="none" stroke="midnightblue" d="M597.1,-174C579.11,-174 560.18,-174 542.66,-174"/>
<polygon fill="midnightblue" stroke="midnightblue" points="597.28,-177.5 607.28,-174 597.28,-170.5 597.28,-177.5"/>
</g>
<!-- Node5 -->
<g id="node5" class="node">
<title>Node5</title>
<g id="a_node5"><a xlink:href="classSetJoystickXml.html#aa95423a01fab878cbc69bffb7f6121f3" target="_top" xlink:title="Deserializes the given XML stream into a SetJoystick object.">
<polygon fill="white" stroke="black" points="0,-183.5 0,-202.5 149,-202.5 149,-183.5 0,-183.5"/>
<text text-anchor="middle" x="74.5" y="-190.5" font-family="Helvetica,sans-Serif" font-size="10.00">SetJoystickXml::readConfig</text>
</a>
</g>
</g>
<!-- Node4&#45;&gt;Node5 -->
<g id="edge4" class="edge">
<title>Node4&#45;&gt;Node5</title>
<path fill="none" stroke="midnightblue" d="M408.61,-185.1C387.83,-188.33 364.48,-191.41 343,-193 277.58,-197.85 202.92,-197.35 149.12,-195.92"/>
<polygon fill="midnightblue" stroke="midnightblue" points="409.26,-188.54 418.59,-183.51 408.16,-181.63 409.26,-188.54"/>
</g>
<!-- Node6 -->
<g id="node6" class="node">
<title>Node6</title>
<g id="a_node6"><a xlink:href="classJoyControlStick.html#ab6ce741115ee3d436c1a7e866abd21e6" target="_top" xlink:title="Take a XML stream and set the stick and direction button properties according to the values contained...">
<polygon fill="white" stroke="black" points="189.5,-164.5 189.5,-183.5 338.5,-183.5 338.5,-164.5 189.5,-164.5"/>
<text text-anchor="middle" x="264" y="-171.5" font-family="Helvetica,sans-Serif" font-size="10.00">JoyControlStick::readConfig</text>
</a>
</g>
</g>
<!-- Node4&#45;&gt;Node6 -->
<g id="edge5" class="edge">
<title>Node4&#45;&gt;Node6</title>
<path fill="none" stroke="midnightblue" d="M389.96,-174C373.06,-174 355.32,-174 338.69,-174"/>
<polygon fill="midnightblue" stroke="midnightblue" points="390.35,-177.5 400.35,-174 390.35,-170.5 390.35,-177.5"/>
</g>
<!-- Node7 -->
<g id="node7" class="node">
<title>Node7</title>
<g id="a_node7"><a xlink:href="classJoyDPadXml.html#ae9a3556242b984c81fc6945acafc5586" target="_top" xlink:title=" ">
<polygon fill="white" stroke="black" points="185,-126.5 185,-145.5 343,-145.5 343,-126.5 185,-126.5"/>
<text text-anchor="middle" x="264" y="-133.5" font-family="Helvetica,sans-Serif" font-size="10.00">JoyDPadXml::readMainConfig</text>
</a>
</g>
</g>
<!-- Node4&#45;&gt;Node7 -->
<g id="edge7" class="edge">
<title>Node4&#45;&gt;Node7</title>
<path fill="none" stroke="midnightblue" d="M408.75,-162.58C379.35,-157.14 344.59,-150.72 316.61,-145.54"/>
<polygon fill="midnightblue" stroke="midnightblue" points="408.44,-166.08 418.91,-164.46 409.71,-159.2 408.44,-166.08"/>
</g>
<!-- Node6&#45;&gt;Node5 -->
<g id="edge6" class="edge">
<title>Node6&#45;&gt;Node5</title>
<path fill="none" stroke="midnightblue" d="M179.42,-182.47C169.33,-183.49 159.09,-184.53 149.16,-185.54"/>
<polygon fill="midnightblue" stroke="midnightblue" points="179.84,-185.95 189.43,-181.45 179.13,-178.98 179.84,-185.95"/>
</g>
<!-- Node9 -->
<g id="node9" class="node">
<title>Node9</title>
<g id="a_node9"><a xlink:href="classMouseDPadSettingsDialog.html#a51ae7b4e5b371e35d4f470787f5fc846" target="_top" xlink:title=" ">
<polygon fill="white" stroke="black" points="396,-110 396,-140 547,-140 547,-110 396,-110"/>
<text text-anchor="start" x="404" y="-128" font-family="Helvetica,sans-Serif" font-size="10.00">MouseDPadSettingsDialog</text>
<text text-anchor="middle" x="471.5" y="-117" font-family="Helvetica,sans-Serif" font-size="10.00">::MouseDPadSettingsDialog</text>
</a>
</g>
</g>
<!-- Node8&#45;&gt;Node9 -->
<g id="edge9" class="edge">
<title>Node8&#45;&gt;Node9</title>
<path fill="none" stroke="midnightblue" d="M594.99,-125C579.19,-125 562.75,-125 547.23,-125"/>
<polygon fill="midnightblue" stroke="midnightblue" points="595.26,-128.5 605.26,-125 595.26,-121.5 595.26,-128.5"/>
</g>
<!-- Node11 -->
<g id="node11" class="node">
<title>Node11</title>
<g id="a_node11"><a xlink:href="classMouseAxisSettingsDialog.html#a33546e4b608264ce6d2758678eb6d2e7" target="_top" xlink:title=" ">
<polygon fill="white" stroke="black" points="398,-61 398,-91 545,-91 545,-61 398,-61"/>
<text text-anchor="start" x="406" y="-79" font-family="Helvetica,sans-Serif" font-size="10.00">MouseAxisSettingsDialog</text>
<text text-anchor="middle" x="471.5" y="-68" font-family="Helvetica,sans-Serif" font-size="10.00">::MouseAxisSettingsDialog</text>
</a>
</g>
</g>
<!-- Node10&#45;&gt;Node11 -->
<g id="edge11" class="edge">
<title>Node10&#45;&gt;Node11</title>
<path fill="none" stroke="midnightblue" d="M597.26,-76C580.05,-76 561.98,-76 545.1,-76"/>
<polygon fill="midnightblue" stroke="midnightblue" points="597.28,-79.5 607.28,-76 597.28,-72.5 597.28,-79.5"/>
</g>
<!-- Node13 -->
<g id="node13" class="node">
<title>Node13</title>
<g id="a_node13"><a xlink:href="classMouseControlStickSettingsDialog.html#aac9d5ef09dced4cee0df95d99ae13369" target="_top" xlink:title=" ">
<polygon fill="white" stroke="black" points="379,-0.5 379,-41.5 564,-41.5 564,-0.5 379,-0.5"/>
<text text-anchor="start" x="387" y="-29.5" font-family="Helvetica,sans-Serif" font-size="10.00">MouseControlStickSettings</text>
<text text-anchor="start" x="387" y="-18.5" font-family="Helvetica,sans-Serif" font-size="10.00">Dialog::MouseControlStickSettings</text>
<text text-anchor="middle" x="471.5" y="-7.5" font-family="Helvetica,sans-Serif" font-size="10.00">Dialog</text>
</a>
</g>
</g>
<!-- Node12&#45;&gt;Node13 -->
<g id="edge13" class="edge">
<title>Node12&#45;&gt;Node13</title>
<path fill="none" stroke="midnightblue" d="M594.21,-22.78C584.33,-22.63 574.22,-22.48 564.24,-22.34"/>
<polygon fill="midnightblue" stroke="midnightblue" points="594.34,-26.28 604.39,-22.93 594.44,-19.28 594.34,-26.28"/>
</g>
</g>
</svg>
        <g id="navigator" transform="translate(0 0)" fill="#404254">
                <rect fill="#f2f5e9" fill-opacity="0.5" stroke="#606060" stroke-width=".5" x="0" y="0" width="60" height="60"/>
                <use id="zoomplus" xlink:href="#zoomPlus" x="17" y="9" onmousedown="handleZoom(evt,'in')"/>
                <use id="zoomminus" xlink:href="#zoomMin" x="42" y="9" onmousedown="handleZoom(evt,'out')"/>
                <use id="reset" xlink:href="#resetDef" x="30" y="36" onmousedown="handleReset()"/>
                <g id="arrowUp" xlink:href="#dirArrow" transform="translate(30 24)" onmousedown="handlePan(0,-1)">
                  <use xlink:href="#rim" fill="#404040">
                        <set attributeName="fill" to="#808080" begin="arrowUp.mouseover" end="arrowUp.mouseout"/>
                  </use>
                  <path fill="none" stroke="white" stroke-width="1.5" d="M0,-3.0v7 M-2.5,-0.5L0,-3.0L2.5,-0.5"/>
                </g>
                <g id="arrowRight" xlink:href="#dirArrow" transform="rotate(90) translate(36 -43)" onmousedown="handlePan(1,0)">
                  <use xlink:href="#rim" fill="#404040">
                        <set attributeName="fill" to="#808080" begin="arrowRight.mouseover" end="arrowRight.mouseout"/>
                  </use>
                  <path fill="none" stroke="white" stroke-width="1.5" d="M0,-3.0v7 M-2.5,-0.5L0,-3.0L2.5,-0.5"/>
                </g>
                <g id="arrowDown" xlink:href="#dirArrow" transform="rotate(180) translate(-30 -48)" onmousedown="handlePan(0,1)">
                  <use xlink:href="#rim" fill="#404040">
                        <set attributeName="fill" to="#808080" begin="arrowDown.mouseover" end="arrowDown.mouseout"/>
                  </use>
                  <path fill="none" stroke="white" stroke-width="1.5" d="M0,-3.0v7 M-2.5,-0.5L0,-3.0L2.5,-0.5"/>
                </g>
                <g id="arrowLeft" xlink:href="#dirArrow" transform="rotate(270) translate(-36 17)" onmousedown="handlePan(-1,0)">
                  <use xlink:href="#rim" fill="#404040">
                        <set attributeName="fill" to="#808080" begin="arrowLeft.mouseover" end="arrowLeft.mouseout"/>
                  </use>
                  <path fill="none" stroke="white" stroke-width="1.5" d="M0,-3.0v7 M-2.5,-0.5L0,-3.0L2.5,-0.5"/>
                </g>
        </g>
        <svg viewBox="0 0 15 15" width="100%" height="30px" preserveAspectRatio="xMaxYMin meet">
         <g id="arrow_out" transform="scale(0.3 0.3)">
          <a xlink:href="classJoyButton_afd7d3140abdc30b8f1572add36409919_icgraph_org.svg" target="_base">
           <rect id="button" ry="5" rx="5" y="6" x="6" height="38" width="38"
                fill="#f2f5e9" fill-opacity="0.5" stroke="#606060" stroke-width="1.0"/>
           <path id="arrow"
             d="M 11.500037,31.436501 C 11.940474,20.09759 22.043105,11.32322 32.158766,21.979434 L 37.068811,17.246167 C 37.068811,17.246167 37.088388,32 37.088388,32 L 22.160133,31.978069 C 22.160133,31.978069 26.997745,27.140456 26.997745,27.140456 C 18.528582,18.264221 13.291696,25.230495 11.500037,31.436501 z"
             style="fill:#404040;"/>
          </a>
         </g>
        </svg>
</svg>
