<?xml version="1.0" encoding="UTF-8" standalone="no"?>
<!DOCTYPE svg PUBLIC "-//W3C//DTD SVG 1.1//EN"
 "http://www.w3.org/Graphics/SVG/1.1/DTD/svg11.dtd">
<!-- Generated by graphviz version 2.43.0 (0)
 -->
<!-- Title: AutoProfileInfo::getExe Pages: 1 -->
<svg width="1070pt" height="354pt"
 viewBox="0.00 0.00 1070.00 354.00" xmlns="http://www.w3.org/2000/svg" xmlns:xlink="http://www.w3.org/1999/xlink">
<g id="graph0" class="graph" transform="scale(1 1) rotate(0) translate(4 350)">
<title>AutoProfileInfo::getExe</title>
<polygon fill="white" stroke="transparent" points="-4,4 -4,-350 1066,-350 1066,4 -4,4"/>
<!-- Node1 -->
<g id="node1" class="node">
<title>Node1</title>
<g id="a_node1"><a xlink:title=" ">
<polygon fill="#bfbfbf" stroke="black" points="934,-208 934,-227 1062,-227 1062,-208 934,-208"/>
<text text-anchor="middle" x="998" y="-215" font-family="Helvetica,sans-Serif" font-size="10.00">AutoProfileInfo::getExe</text>
</a>
</g>
</g>
<!-- Node2 -->
<g id="node2" class="node">
<title>Node2</title>
<g id="a_node2"><a xlink:href="classAddEditAutoProfileDialog.html#a518993ac329de2e2bee5eeb392d124ec" target="_top" xlink:title=" ">
<polygon fill="white" stroke="black" points="753,-315.5 753,-345.5 898,-345.5 898,-315.5 753,-315.5"/>
<text text-anchor="start" x="761" y="-333.5" font-family="Helvetica,sans-Serif" font-size="10.00">AddEditAutoProfileDialog</text>
<text text-anchor="middle" x="825.5" y="-322.5" font-family="Helvetica,sans-Serif" font-size="10.00">::AddEditAutoProfileDialog</text>
</a>
</g>
</g>
<!-- Node1&#45;&gt;Node2 -->
<g id="edge1" class="edge">
<title>Node1&#45;&gt;Node2</title>
<path fill="none" stroke="midnightblue" d="M980.47,-234.08C961.74,-252.19 929.67,-281.19 898,-300.5 888.8,-306.11 878.37,-311.14 868.38,-315.41"/>
<polygon fill="midnightblue" stroke="midnightblue" points="982.96,-236.55 987.64,-227.05 978.05,-231.55 982.96,-236.55"/>
</g>
<!-- Node3 -->
<g id="node3" class="node">
<title>Node3</title>
<g id="a_node3"><a xlink:href="classMainSettingsDialog.html#a93b08d27242d0c828ef66623b30b9645" target="_top" xlink:title=" ">
<polygon fill="white" stroke="black" points="371,-274.5 371,-304.5 487,-304.5 487,-274.5 371,-274.5"/>
<text text-anchor="start" x="379" y="-292.5" font-family="Helvetica,sans-Serif" font-size="10.00">MainSettingsDialog</text>
<text text-anchor="middle" x="429" y="-281.5" font-family="Helvetica,sans-Serif" font-size="10.00">::addNewAutoProfile</text>
</a>
</g>
</g>
<!-- Node1&#45;&gt;Node3 -->
<g id="edge2" class="edge">
<title>Node1&#45;&gt;Node3</title>
<path fill="none" stroke="midnightblue" d="M973.99,-232.65C954.6,-244.53 925.68,-260.21 898,-267.5 754.05,-305.38 576.75,-300.35 487.35,-294.39"/>
<polygon fill="midnightblue" stroke="midnightblue" points="976.08,-235.47 982.69,-227.19 972.36,-229.54 976.08,-235.47"/>
</g>
<!-- Node6 -->
<g id="node6" class="node">
<title>Node6</title>
<g id="a_node6"><a xlink:href="classMainSettingsDialog.html#a6e176b5dc44c096dd539136f8e658f03" target="_top" xlink:title=" ">
<polygon fill="white" stroke="black" points="760,-227.5 760,-257.5 891,-257.5 891,-227.5 760,-227.5"/>
<text text-anchor="start" x="768" y="-245.5" font-family="Helvetica,sans-Serif" font-size="10.00">MainSettingsDialog</text>
<text text-anchor="middle" x="825.5" y="-234.5" font-family="Helvetica,sans-Serif" font-size="10.00">::fillAllAutoProfilesTable</text>
</a>
</g>
</g>
<!-- Node1&#45;&gt;Node6 -->
<g id="edge5" class="edge">
<title>Node1&#45;&gt;Node6</title>
<path fill="none" stroke="midnightblue" d="M924.07,-228.19C913.16,-229.79 901.97,-231.43 891.24,-233.01"/>
<polygon fill="midnightblue" stroke="midnightblue" points="924.61,-231.65 934,-226.74 923.59,-224.73 924.61,-231.65"/>
</g>
<!-- Node11 -->
<g id="node11" class="node">
<title>Node11</title>
<g id="a_node11"><a xlink:href="classMainSettingsDialog.html#a53dc880eb4ceb43930813957d5e2d283" target="_top" xlink:title=" ">
<polygon fill="white" stroke="black" points="766,-178.5 766,-208.5 885,-208.5 885,-178.5 766,-178.5"/>
<text text-anchor="start" x="774" y="-196.5" font-family="Helvetica,sans-Serif" font-size="10.00">MainSettingsDialog</text>
<text text-anchor="middle" x="825.5" y="-185.5" font-family="Helvetica,sans-Serif" font-size="10.00">::fillAutoProfilesTable</text>
</a>
</g>
</g>
<!-- Node1&#45;&gt;Node11 -->
<g id="edge15" class="edge">
<title>Node1&#45;&gt;Node11</title>
<path fill="none" stroke="midnightblue" d="M923.72,-207.19C910.79,-205.36 897.47,-203.49 885.01,-201.74"/>
<polygon fill="midnightblue" stroke="midnightblue" points="923.61,-210.7 934,-208.63 924.58,-203.77 923.61,-210.7"/>
</g>
<!-- Node12 -->
<g id="node12" class="node">
<title>Node12</title>
<g id="a_node12"><a xlink:href="classAutoProfileWatcher.html#ae6ec8b944a048017f3e9958525ccfb62" target="_top" xlink:title=" ">
<polygon fill="white" stroke="black" points="770.5,-23.5 770.5,-53.5 880.5,-53.5 880.5,-23.5 770.5,-23.5"/>
<text text-anchor="start" x="778.5" y="-41.5" font-family="Helvetica,sans-Serif" font-size="10.00">AutoProfileWatcher</text>
<text text-anchor="middle" x="825.5" y="-30.5" font-family="Helvetica,sans-Serif" font-size="10.00">::runAppCheck</text>
</a>
</g>
</g>
<!-- Node1&#45;&gt;Node12 -->
<g id="edge17" class="edge">
<title>Node1&#45;&gt;Node12</title>
<path fill="none" stroke="midnightblue" d="M983.2,-199.8C964.71,-176.45 930.44,-134.46 898,-101.5 880.94,-84.17 859.9,-65.97 845.07,-53.61"/>
<polygon fill="midnightblue" stroke="midnightblue" points="980.54,-202.08 989.48,-207.78 986.04,-197.76 980.54,-202.08"/>
</g>
<!-- Node14 -->
<g id="node14" class="node">
<title>Node14</title>
<g id="a_node14"><a xlink:href="classMainSettingsDialog.html#a2ac3157f0e50f95986221adbbb008239" target="_top" xlink:title=" ">
<polygon fill="white" stroke="black" points="756,-110.5 756,-140.5 895,-140.5 895,-110.5 756,-110.5"/>
<text text-anchor="start" x="764" y="-128.5" font-family="Helvetica,sans-Serif" font-size="10.00">MainSettingsDialog</text>
<text text-anchor="middle" x="825.5" y="-117.5" font-family="Helvetica,sans-Serif" font-size="10.00">::saveAutoProfileSettings</text>
</a>
</g>
</g>
<!-- Node1&#45;&gt;Node14 -->
<g id="edge19" class="edge">
<title>Node1&#45;&gt;Node14</title>
<path fill="none" stroke="midnightblue" d="M969.99,-202.92C938.46,-185.91 886.56,-157.91 854.58,-140.65"/>
<polygon fill="midnightblue" stroke="midnightblue" points="968.61,-206.16 979.08,-207.83 971.94,-200 968.61,-206.16"/>
</g>
<!-- Node4 -->
<g id="node4" class="node">
<title>Node4</title>
<g id="a_node4"><a xlink:href="classMainSettingsDialog.html#a8395cc7c66e5b30092f4b36f3e47a808" target="_top" xlink:title=" ">
<polygon fill="white" stroke="black" points="154,-274.5 154,-304.5 304,-304.5 304,-274.5 154,-274.5"/>
<text text-anchor="start" x="162" y="-292.5" font-family="Helvetica,sans-Serif" font-size="10.00">MainSettingsDialog</text>
<text text-anchor="middle" x="229" y="-281.5" font-family="Helvetica,sans-Serif" font-size="10.00">::openAddAutoProfileDialog</text>
</a>
</g>
</g>
<!-- Node3&#45;&gt;Node4 -->
<g id="edge3" class="edge">
<title>Node3&#45;&gt;Node4</title>
<path fill="none" stroke="midnightblue" d="M360.79,-289.5C342.62,-289.5 322.84,-289.5 304.3,-289.5"/>
<polygon fill="midnightblue" stroke="midnightblue" points="361,-293 371,-289.5 361,-286 361,-293"/>
</g>
<!-- Node5 -->
<g id="node5" class="node">
<title>Node5</title>
<g id="a_node5"><a xlink:href="classMainSettingsDialog.html#aeee272ff5482aca59310558ffdb9ebbe" target="_top" xlink:title=" ">
<polygon fill="white" stroke="black" points="0,-192.5 0,-222.5 118,-222.5 118,-192.5 0,-192.5"/>
<text text-anchor="start" x="8" y="-210.5" font-family="Helvetica,sans-Serif" font-size="10.00">MainSettingsDialog</text>
<text text-anchor="middle" x="59" y="-199.5" font-family="Helvetica,sans-Serif" font-size="10.00">::MainSettingsDialog</text>
</a>
</g>
</g>
<!-- Node4&#45;&gt;Node5 -->
<g id="edge4" class="edge">
<title>Node4&#45;&gt;Node5</title>
<path fill="none" stroke="midnightblue" d="M179.05,-270.62C170.62,-267.1 162,-263.32 154,-259.5 130.27,-248.18 104.16,-233.55 85.5,-222.7"/>
<polygon fill="midnightblue" stroke="midnightblue" points="177.87,-273.92 188.45,-274.49 180.53,-267.45 177.87,-273.92"/>
</g>
<!-- Node6&#45;&gt;Node5 -->
<g id="edge14" class="edge">
<title>Node6&#45;&gt;Node5</title>
<path fill="none" stroke="midnightblue" d="M749.53,-241.79C625.48,-240.17 369.77,-234.96 154,-218.5 142.37,-217.61 129.96,-216.37 118.1,-215.04"/>
<polygon fill="midnightblue" stroke="midnightblue" points="749.63,-245.29 759.68,-241.92 749.72,-238.29 749.63,-245.29"/>
</g>
<!-- Node7 -->
<g id="node7" class="node">
<title>Node7</title>
<g id="a_node7"><a xlink:href="classMainSettingsDialog.html#af6cf8a841503ca703d48c336a8e2de4c" target="_top" xlink:title=" ">
<polygon fill="white" stroke="black" points="554,-183.5 554,-213.5 717,-213.5 717,-183.5 554,-183.5"/>
<text text-anchor="start" x="562" y="-201.5" font-family="Helvetica,sans-Serif" font-size="10.00">MainSettingsDialog</text>
<text text-anchor="middle" x="635.5" y="-190.5" font-family="Helvetica,sans-Serif" font-size="10.00">::changeDeviceForProfileTable</text>
</a>
</g>
</g>
<!-- Node6&#45;&gt;Node7 -->
<g id="edge6" class="edge">
<title>Node6&#45;&gt;Node7</title>
<path fill="none" stroke="midnightblue" d="M750.25,-225.12C733.87,-221.29 716.65,-217.26 700.7,-213.53"/>
<polygon fill="midnightblue" stroke="midnightblue" points="749.79,-228.61 760.33,-227.48 751.39,-221.79 749.79,-228.61"/>
</g>
<!-- Node7&#45;&gt;Node3 -->
<g id="edge7" class="edge">
<title>Node7&#45;&gt;Node3</title>
<path fill="none" stroke="midnightblue" d="M591.45,-217.66C553.43,-234.57 498.77,-258.9 463.82,-274.45"/>
<polygon fill="midnightblue" stroke="midnightblue" points="593.02,-220.79 600.73,-213.53 590.17,-214.39 593.02,-220.79"/>
</g>
<!-- Node7&#45;&gt;Node5 -->
<g id="edge8" class="edge">
<title>Node7&#45;&gt;Node5</title>
<path fill="none" stroke="midnightblue" d="M543.5,-199.93C424.18,-201.79 218.28,-205.02 118.11,-206.59"/>
<polygon fill="midnightblue" stroke="midnightblue" points="543.77,-203.42 553.71,-199.77 543.66,-196.42 543.77,-203.42"/>
</g>
<!-- Node8 -->
<g id="node8" class="node">
<title>Node8</title>
<g id="a_node8"><a xlink:href="classMainSettingsDialog.html#aaf6959912e05c9922d76c4dc7256dc9d" target="_top" xlink:title=" ">
<polygon fill="white" stroke="black" points="362,-138 362,-179 496,-179 496,-138 362,-138"/>
<text text-anchor="start" x="370" y="-167" font-family="Helvetica,sans-Serif" font-size="10.00">MainSettingsDialog</text>
<text text-anchor="start" x="370" y="-156" font-family="Helvetica,sans-Serif" font-size="10.00">::transferAllProfileEditTo</text>
<text text-anchor="middle" x="429" y="-145" font-family="Helvetica,sans-Serif" font-size="10.00">CurrentTableRow</text>
</a>
</g>
</g>
<!-- Node7&#45;&gt;Node8 -->
<g id="edge9" class="edge">
<title>Node7&#45;&gt;Node8</title>
<path fill="none" stroke="midnightblue" d="M547.68,-181.52C530.41,-178.14 512.54,-174.64 496.09,-171.43"/>
<polygon fill="midnightblue" stroke="midnightblue" points="547.28,-185.01 557.77,-183.49 548.63,-178.14 547.28,-185.01"/>
</g>
<!-- Node10 -->
<g id="node10" class="node">
<title>Node10</title>
<g id="a_node10"><a xlink:href="classMainSettingsDialog.html#a4436dd11af937b91f0c1c6f18601d976" target="_top" xlink:title=" ">
<polygon fill="white" stroke="black" points="340,-88.5 340,-118.5 518,-118.5 518,-88.5 340,-88.5"/>
<text text-anchor="start" x="348" y="-106.5" font-family="Helvetica,sans-Serif" font-size="10.00">MainSettingsDialog</text>
<text text-anchor="middle" x="429" y="-95.5" font-family="Helvetica,sans-Serif" font-size="10.00">::transferEditsToCurrentTableRow</text>
</a>
</g>
</g>
<!-- Node7&#45;&gt;Node10 -->
<g id="edge12" class="edge">
<title>Node7&#45;&gt;Node10</title>
<path fill="none" stroke="midnightblue" d="M604.55,-177.47C581.69,-162.19 548.96,-141.92 518,-128.5 509.4,-124.77 500.09,-121.44 490.86,-118.51"/>
<polygon fill="midnightblue" stroke="midnightblue" points="602.86,-180.55 613.1,-183.27 606.78,-174.76 602.86,-180.55"/>
</g>
<!-- Node9 -->
<g id="node9" class="node">
<title>Node9</title>
<g id="a_node9"><a xlink:href="classMainSettingsDialog.html#ad5b67a6742eafcd666fc73752f94a638" target="_top" xlink:title=" ">
<polygon fill="white" stroke="black" points="154,-143.5 154,-173.5 304,-173.5 304,-143.5 154,-143.5"/>
<text text-anchor="start" x="162" y="-161.5" font-family="Helvetica,sans-Serif" font-size="10.00">MainSettingsDialog</text>
<text text-anchor="middle" x="229" y="-150.5" font-family="Helvetica,sans-Serif" font-size="10.00">::openEditAutoProfileDialog</text>
</a>
</g>
</g>
<!-- Node8&#45;&gt;Node9 -->
<g id="edge10" class="edge">
<title>Node8&#45;&gt;Node9</title>
<path fill="none" stroke="midnightblue" d="M351.71,-158.5C336.16,-158.5 319.82,-158.5 304.34,-158.5"/>
<polygon fill="midnightblue" stroke="midnightblue" points="351.79,-162 361.79,-158.5 351.79,-155 351.79,-162"/>
</g>
<!-- Node9&#45;&gt;Node5 -->
<g id="edge11" class="edge">
<title>Node9&#45;&gt;Node5</title>
<path fill="none" stroke="midnightblue" d="M166.4,-176.47C148.4,-181.72 128.92,-187.4 111.61,-192.45"/>
<polygon fill="midnightblue" stroke="midnightblue" points="167.6,-179.76 176.22,-173.6 165.64,-173.04 167.6,-179.76"/>
</g>
<!-- Node10&#45;&gt;Node9 -->
<g id="edge13" class="edge">
<title>Node10&#45;&gt;Node9</title>
<path fill="none" stroke="midnightblue" d="M364.19,-121.23C338.33,-128.41 308.8,-136.61 284.04,-143.49"/>
<polygon fill="midnightblue" stroke="midnightblue" points="365.2,-124.58 373.9,-118.53 363.32,-117.83 365.2,-124.58"/>
</g>
<!-- Node11&#45;&gt;Node7 -->
<g id="edge16" class="edge">
<title>Node11&#45;&gt;Node7</title>
<path fill="none" stroke="midnightblue" d="M755.49,-195.34C743.02,-195.67 729.92,-196.02 717.16,-196.35"/>
<polygon fill="midnightblue" stroke="midnightblue" points="755.89,-198.83 765.79,-195.06 755.7,-191.83 755.89,-198.83"/>
</g>
<!-- Node13 -->
<g id="node13" class="node">
<title>Node13</title>
<g id="a_node13"><a xlink:href="classAutoProfileWatcher.html#a6c9832eb02480c6909f49cbb05d5113c" target="_top" xlink:title=" ">
<polygon fill="white" stroke="black" points="577.5,-0.5 577.5,-30.5 693.5,-30.5 693.5,-0.5 577.5,-0.5"/>
<text text-anchor="start" x="585.5" y="-18.5" font-family="Helvetica,sans-Serif" font-size="10.00">AutoProfileWatcher</text>
<text text-anchor="middle" x="635.5" y="-7.5" font-family="Helvetica,sans-Serif" font-size="10.00">::AutoProfileWatcher</text>
</a>
</g>
</g>
<!-- Node12&#45;&gt;Node13 -->
<g id="edge18" class="edge">
<title>Node12&#45;&gt;Node13</title>
<path fill="none" stroke="midnightblue" d="M760.28,-30.64C738.61,-27.99 714.59,-25.05 693.52,-22.48"/>
<polygon fill="midnightblue" stroke="midnightblue" points="760.02,-34.14 770.37,-31.88 760.87,-27.19 760.02,-34.14"/>
</g>
<!-- Node15 -->
<g id="node15" class="node">
<title>Node15</title>
<g id="a_node15"><a xlink:href="classMainSettingsDialog.html#a07b54c6c80f72c4c5b28b32a58cbcca6" target="_top" xlink:title=" ">
<polygon fill="white" stroke="black" points="173,-69.5 173,-99.5 285,-99.5 285,-69.5 173,-69.5"/>
<text text-anchor="start" x="181" y="-87.5" font-family="Helvetica,sans-Serif" font-size="10.00">MainSettingsDialog</text>
<text text-anchor="middle" x="229" y="-76.5" font-family="Helvetica,sans-Serif" font-size="10.00">::saveNewSettings</text>
</a>
</g>
</g>
<!-- Node14&#45;&gt;Node15 -->
<g id="edge20" class="edge">
<title>Node14&#45;&gt;Node15</title>
<path fill="none" stroke="midnightblue" d="M745.7,-110.37C684.01,-99.32 595.9,-85.31 518,-79.5 439.11,-73.61 419.09,-77.7 340,-79.5 322.13,-79.91 302.64,-80.68 285.1,-81.5"/>
<polygon fill="midnightblue" stroke="midnightblue" points="745.29,-113.85 755.75,-112.18 746.53,-106.96 745.29,-113.85"/>
</g>
<!-- Node15&#45;&gt;Node5 -->
<g id="edge21" class="edge">
<title>Node15&#45;&gt;Node5</title>
<path fill="none" stroke="midnightblue" d="M196.39,-105.19C183.16,-114.02 167.7,-124.57 154,-134.5 127.4,-153.78 97.58,-177.27 78.8,-192.31"/>
<polygon fill="midnightblue" stroke="midnightblue" points="198.34,-108.1 204.73,-99.65 194.46,-102.27 198.34,-108.1"/>
</g>
</g>
</svg>
