<?xml version="1.0" encoding="UTF-8" standalone="no"?>
<!DOCTYPE svg PUBLIC "-//W3C//DTD SVG 1.1//EN"
 "http://www.w3.org/Graphics/SVG/1.1/DTD/svg11.dtd">
<!-- Generated by graphviz version 2.43.0 (0)
 -->
<!-- Title: AddEditAutoProfileDialog::windowPropAssignment Pages: 1 -->
<svg width="334pt" height="284pt"
 viewBox="0.00 0.00 334.00 284.00" xmlns="http://www.w3.org/2000/svg" xmlns:xlink="http://www.w3.org/1999/xlink">
<g id="graph0" class="graph" transform="scale(1 1) rotate(0) translate(4 280)">
<title>AddEditAutoProfileDialog::windowPropAssignment</title>
<polygon fill="white" stroke="transparent" points="-4,4 -4,-280 330,-280 330,4 -4,4"/>
<!-- Node1 -->
<g id="node1" class="node">
<title>Node1</title>
<g id="a_node1"><a xlink:title=" ">
<polygon fill="#bfbfbf" stroke="black" points="0,-122.5 0,-152.5 140,-152.5 140,-122.5 0,-122.5"/>
<text text-anchor="start" x="8" y="-140.5" font-family="Helvetica,sans-Serif" font-size="10.00">AddEditAutoProfileDialog</text>
<text text-anchor="middle" x="70" y="-129.5" font-family="Helvetica,sans-Serif" font-size="10.00">::windowPropAssignment</text>
</a>
</g>
</g>
<!-- Node2 -->
<g id="node2" class="node">
<title>Node2</title>
<g id="a_node2"><a xlink:href="classAddEditAutoProfileDialog.html#aa166e5c0e217e1ef7cc895040f71c0a6" target="_top" xlink:title=" ">
<polygon fill="white" stroke="black" points="181.5,-245.5 181.5,-275.5 320.5,-275.5 320.5,-245.5 181.5,-245.5"/>
<text text-anchor="start" x="189.5" y="-263.5" font-family="Helvetica,sans-Serif" font-size="10.00">AddEditAutoProfileDialog</text>
<text text-anchor="middle" x="251" y="-252.5" font-family="Helvetica,sans-Serif" font-size="10.00">::checkForDefaultStatus</text>
</a>
</g>
</g>
<!-- Node1&#45;&gt;Node2 -->
<g id="edge1" class="edge">
<title>Node1&#45;&gt;Node2</title>
<path fill="none" stroke="midnightblue" d="M83.31,-152.78C101.45,-174.35 137.42,-213.64 176,-236.5 178.85,-238.19 181.83,-239.77 184.89,-241.25"/>
<polygon fill="midnightblue" stroke="midnightblue" points="183.7,-244.56 194.26,-245.42 186.54,-238.16 183.7,-244.56"/>
</g>
<!-- Node3 -->
<g id="node3" class="node">
<title>Node3</title>
<g id="a_node3"><a xlink:href="classCapturedWindowInfoDialog.html#ac3d240fb4abed8fdc56674a194cb7a83" target="_top" xlink:title=" ">
<polygon fill="white" stroke="black" points="176,-196.5 176,-226.5 326,-226.5 326,-196.5 176,-196.5"/>
<text text-anchor="start" x="184" y="-214.5" font-family="Helvetica,sans-Serif" font-size="10.00">CapturedWindowInfoDialog</text>
<text text-anchor="middle" x="251" y="-203.5" font-family="Helvetica,sans-Serif" font-size="10.00">::getSelectedOptions</text>
</a>
</g>
</g>
<!-- Node1&#45;&gt;Node3 -->
<g id="edge2" class="edge">
<title>Node1&#45;&gt;Node3</title>
<path fill="none" stroke="midnightblue" d="M99.96,-152.55C120.8,-163.07 149.74,-177.04 176,-187.5 180.74,-189.39 185.69,-191.24 190.69,-193.03"/>
<polygon fill="midnightblue" stroke="midnightblue" points="189.73,-196.4 200.32,-196.38 192.03,-189.79 189.73,-196.4"/>
</g>
<!-- Node4 -->
<g id="node4" class="node">
<title>Node4</title>
<g id="a_node4"><a xlink:href="classCapturedWindowInfoDialog.html#ab2d91ee6fba008c437256fed547fd3c4" target="_top" xlink:title=" ">
<polygon fill="white" stroke="black" points="176,-147.5 176,-177.5 326,-177.5 326,-147.5 176,-147.5"/>
<text text-anchor="start" x="184" y="-165.5" font-family="Helvetica,sans-Serif" font-size="10.00">CapturedWindowInfoDialog</text>
<text text-anchor="middle" x="251" y="-154.5" font-family="Helvetica,sans-Serif" font-size="10.00">::getWindowClass</text>
</a>
</g>
</g>
<!-- Node1&#45;&gt;Node4 -->
<g id="edge3" class="edge">
<title>Node1&#45;&gt;Node4</title>
<path fill="none" stroke="midnightblue" d="M140.21,-147.17C148.62,-148.34 157.29,-149.55 165.89,-150.75"/>
<polygon fill="midnightblue" stroke="midnightblue" points="165.55,-154.24 175.94,-152.16 166.52,-147.31 165.55,-154.24"/>
</g>
<!-- Node5 -->
<g id="node5" class="node">
<title>Node5</title>
<g id="a_node5"><a xlink:href="classCapturedWindowInfoDialog.html#a7093a286ca8fac8160979fa91e56700a" target="_top" xlink:title=" ">
<polygon fill="white" stroke="black" points="176,-98.5 176,-128.5 326,-128.5 326,-98.5 176,-98.5"/>
<text text-anchor="start" x="184" y="-116.5" font-family="Helvetica,sans-Serif" font-size="10.00">CapturedWindowInfoDialog</text>
<text text-anchor="middle" x="251" y="-105.5" font-family="Helvetica,sans-Serif" font-size="10.00">::getWindowName</text>
</a>
</g>
</g>
<!-- Node1&#45;&gt;Node5 -->
<g id="edge4" class="edge">
<title>Node1&#45;&gt;Node5</title>
<path fill="none" stroke="midnightblue" d="M140.21,-128.22C148.62,-127.09 157.29,-125.93 165.89,-124.78"/>
<polygon fill="midnightblue" stroke="midnightblue" points="166.49,-128.23 175.94,-123.43 165.56,-121.29 166.49,-128.23"/>
</g>
<!-- Node6 -->
<g id="node6" class="node">
<title>Node6</title>
<g id="a_node6"><a xlink:href="classCapturedWindowInfoDialog.html#a754c68068cabd48e5d5f65c627014785" target="_top" xlink:title=" ">
<polygon fill="white" stroke="black" points="176,-49.5 176,-79.5 326,-79.5 326,-49.5 176,-49.5"/>
<text text-anchor="start" x="184" y="-67.5" font-family="Helvetica,sans-Serif" font-size="10.00">CapturedWindowInfoDialog</text>
<text text-anchor="middle" x="251" y="-56.5" font-family="Helvetica,sans-Serif" font-size="10.00">::getWindowPath</text>
</a>
</g>
</g>
<!-- Node1&#45;&gt;Node6 -->
<g id="edge5" class="edge">
<title>Node1&#45;&gt;Node6</title>
<path fill="none" stroke="midnightblue" d="M101.88,-122.37C122.61,-112.46 150.66,-99.54 176,-89.5 181.57,-87.29 187.43,-85.1 193.3,-82.99"/>
<polygon fill="midnightblue" stroke="midnightblue" points="194.89,-86.14 203.15,-79.51 192.56,-79.54 194.89,-86.14"/>
</g>
<!-- Node7 -->
<g id="node7" class="node">
<title>Node7</title>
<g id="a_node7"><a xlink:href="classCapturedWindowInfoDialog.html#aef9a63e65cb029f83e780cd7a928999e" target="_top" xlink:title=" ">
<polygon fill="white" stroke="black" points="176,-0.5 176,-30.5 326,-30.5 326,-0.5 176,-0.5"/>
<text text-anchor="start" x="184" y="-18.5" font-family="Helvetica,sans-Serif" font-size="10.00">CapturedWindowInfoDialog</text>
<text text-anchor="middle" x="251" y="-7.5" font-family="Helvetica,sans-Serif" font-size="10.00">::useFullWindowPath</text>
</a>
</g>
</g>
<!-- Node1&#45;&gt;Node7 -->
<g id="edge6" class="edge">
<title>Node1&#45;&gt;Node7</title>
<path fill="none" stroke="midnightblue" d="M83.72,-122.25C102.09,-101.14 138.02,-63.05 176,-40.5 179.44,-38.46 183.08,-36.55 186.81,-34.78"/>
<polygon fill="midnightblue" stroke="midnightblue" points="188.49,-37.86 196.25,-30.65 185.69,-31.45 188.49,-37.86"/>
</g>
</g>
</svg>
