<?xml version="1.0" encoding="UTF-8" standalone="no"?>
<!DOCTYPE svg PUBLIC "-//W3C//DTD SVG 1.1//EN"
 "http://www.w3.org/Graphics/SVG/1.1/DTD/svg11.dtd">
<!-- Generated by graphviz version 2.43.0 (0)
 -->
<!-- Title: JoyButton::resetAllProperties Pages: 1 -->
<svg width="373pt" height="252pt"
 viewBox="0.00 0.00 373.00 252.00" xmlns="http://www.w3.org/2000/svg" xmlns:xlink="http://www.w3.org/1999/xlink">
<g id="graph0" class="graph" transform="scale(1 1) rotate(0) translate(4 248)">
<title>JoyButton::resetAllProperties</title>
<polygon fill="white" stroke="transparent" points="-4,4 -4,-248 369,-248 369,4 -4,4"/>
<!-- Node1 -->
<g id="node1" class="node">
<title>Node1</title>
<g id="a_node1"><a xlink:title=" ">
<polygon fill="#bfbfbf" stroke="black" points="0,-107 0,-126 157,-126 157,-107 0,-107"/>
<text text-anchor="middle" x="78.5" y="-114" font-family="Helvetica,sans-Serif" font-size="10.00">JoyButton::resetAllProperties</text>
</a>
</g>
</g>
<!-- Node2 -->
<g id="node2" class="node">
<title>Node2</title>
<g id="a_node2"><a xlink:href="classJoyButton.html#a6cbb7efc0329d7f86455f62b1957a644" target="_top" xlink:title="Returns the default mouse curve for this JoyButton type. Can be overwritten by subclasses.">
<polygon fill="white" stroke="black" points="202,-213.5 202,-243.5 356,-243.5 356,-213.5 202,-213.5"/>
<text text-anchor="start" x="210" y="-231.5" font-family="Helvetica,sans-Serif" font-size="10.00">JoyButton::getDefaultMouse</text>
<text text-anchor="middle" x="279" y="-220.5" font-family="Helvetica,sans-Serif" font-size="10.00">Curve</text>
</a>
</g>
</g>
<!-- Node1&#45;&gt;Node2 -->
<g id="edge1" class="edge">
<title>Node1&#45;&gt;Node2</title>
<path fill="none" stroke="midnightblue" d="M89.22,-126.21C107.79,-144.22 150.26,-182.93 193,-204.5 196.77,-206.4 200.72,-208.18 204.76,-209.82"/>
<polygon fill="midnightblue" stroke="midnightblue" points="203.72,-213.17 214.31,-213.44 206.2,-206.63 203.72,-213.17"/>
</g>
<!-- Node3 -->
<g id="node3" class="node">
<title>Node3</title>
<g id="a_node3"><a xlink:href="classJoyButton.html#a1b49d9ab85f0d5d128e2eca616747018" target="_top" xlink:title=" ">
<polygon fill="white" stroke="black" points="210.5,-164.5 210.5,-194.5 347.5,-194.5 347.5,-164.5 210.5,-164.5"/>
<text text-anchor="start" x="218.5" y="-182.5" font-family="Helvetica,sans-Serif" font-size="10.00">JoyButton::lockForWrited</text>
<text text-anchor="middle" x="279" y="-171.5" font-family="Helvetica,sans-Serif" font-size="10.00">String</text>
</a>
</g>
</g>
<!-- Node1&#45;&gt;Node3 -->
<g id="edge2" class="edge">
<title>Node1&#45;&gt;Node3</title>
<path fill="none" stroke="midnightblue" d="M106.93,-126C129.86,-133.87 163.46,-145.22 193,-154.5 200.43,-156.84 208.24,-159.22 216,-161.56"/>
<polygon fill="midnightblue" stroke="midnightblue" points="215.18,-164.96 225.76,-164.47 217.18,-158.25 215.18,-164.96"/>
</g>
<!-- Node4 -->
<g id="node4" class="node">
<title>Node4</title>
<g id="a_node4"><a xlink:href="classJoyButton.html#af8a98076a27dc74098b6a307c49702b8" target="_top" xlink:title=" ">
<polygon fill="white" stroke="black" points="209,-126 209,-145 349,-145 349,-126 209,-126"/>
<text text-anchor="middle" x="279" y="-133" font-family="Helvetica,sans-Serif" font-size="10.00">JoyButton::resetSlotsProp</text>
</a>
</g>
</g>
<!-- Node1&#45;&gt;Node4 -->
<g id="edge3" class="edge">
<title>Node1&#45;&gt;Node4</title>
<path fill="none" stroke="midnightblue" d="M157.1,-123.93C170.7,-125.23 184.88,-126.59 198.53,-127.89"/>
<polygon fill="midnightblue" stroke="midnightblue" points="198.56,-131.41 208.85,-128.88 199.23,-124.44 198.56,-131.41"/>
</g>
<!-- Node5 -->
<g id="node5" class="node">
<title>Node5</title>
<g id="a_node5"><a xlink:href="classJoyButton.html#a9ae35a773dd8085e8c810d4f739bcdcb" target="_top" xlink:title=" ">
<polygon fill="white" stroke="black" points="197,-88 197,-107 361,-107 361,-88 197,-88"/>
<text text-anchor="middle" x="279" y="-95" font-family="Helvetica,sans-Serif" font-size="10.00">JoyButton::restartAccelParams</text>
</a>
</g>
</g>
<!-- Node1&#45;&gt;Node5 -->
<g id="edge4" class="edge">
<title>Node1&#45;&gt;Node5</title>
<path fill="none" stroke="midnightblue" d="M157.1,-109.07C166.78,-108.15 176.76,-107.19 186.63,-106.25"/>
<polygon fill="midnightblue" stroke="midnightblue" points="187.23,-109.7 196.86,-105.27 186.57,-102.74 187.23,-109.7"/>
</g>
<!-- Node6 -->
<g id="node6" class="node">
<title>Node6</title>
<g id="a_node6"><a xlink:href="classJoyButton.html#a056b480fe5132bb36d65d22de0fe9934" target="_top" xlink:title=" ">
<polygon fill="white" stroke="black" points="193,-50 193,-69 365,-69 365,-50 193,-50"/>
<text text-anchor="middle" x="279" y="-57" font-family="Helvetica,sans-Serif" font-size="10.00">JoyButton::updateMouseParams</text>
</a>
</g>
</g>
<!-- Node1&#45;&gt;Node6 -->
<g id="edge5" class="edge">
<title>Node1&#45;&gt;Node6</title>
<path fill="none" stroke="midnightblue" d="M105.41,-106.97C128.26,-98.78 162.57,-86.97 193,-78.5 202.08,-75.97 211.78,-73.55 221.26,-71.33"/>
<polygon fill="midnightblue" stroke="midnightblue" points="222.05,-74.74 231.02,-69.09 220.49,-67.91 222.05,-74.74"/>
</g>
<!-- Node7 -->
<g id="node7" class="node">
<title>Node7</title>
<g id="a_node7"><a xlink:href="classJoyButton.html#a17144dd5f389044443f12f6e239d24ca" target="_top" xlink:title=" ">
<polygon fill="white" stroke="black" points="207.5,-0.5 207.5,-30.5 350.5,-30.5 350.5,-0.5 207.5,-0.5"/>
<text text-anchor="start" x="215.5" y="-18.5" font-family="Helvetica,sans-Serif" font-size="10.00">JoyButton::updatePending</text>
<text text-anchor="middle" x="279" y="-7.5" font-family="Helvetica,sans-Serif" font-size="10.00">Params</text>
</a>
</g>
</g>
<!-- Node1&#45;&gt;Node7 -->
<g id="edge6" class="edge">
<title>Node1&#45;&gt;Node7</title>
<path fill="none" stroke="midnightblue" d="M91.36,-106.76C111.24,-90.85 153.06,-59.21 193,-40.5 197.96,-38.18 203.19,-36.01 208.51,-34.01"/>
<polygon fill="midnightblue" stroke="midnightblue" points="209.9,-37.23 218.16,-30.59 207.56,-30.64 209.9,-37.23"/>
</g>
</g>
</svg>
