<?xml version="1.0" encoding="UTF-8" standalone="no"?>
<!DOCTYPE svg PUBLIC "-//W3C//DTD SVG 1.1//EN"
 "http://www.w3.org/Graphics/SVG/1.1/DTD/svg11.dtd">
<!-- Generated by graphviz version 2.43.0 (0)
 -->
<!-- Title: JoyButton::getVDPad Pages: 1 -->
<svg width="755pt" height="39pt"
 viewBox="0.00 0.00 755.00 39.00" xmlns="http://www.w3.org/2000/svg" xmlns:xlink="http://www.w3.org/1999/xlink">
<g id="graph0" class="graph" transform="scale(1 1) rotate(0) translate(4 35)">
<title>JoyButton::getVDPad</title>
<polygon fill="white" stroke="transparent" points="-4,4 -4,-35 751,-35 751,4 -4,4"/>
<!-- Node1 -->
<g id="node1" class="node">
<title>Node1</title>
<g id="a_node1"><a xlink:title=" ">
<polygon fill="#bfbfbf" stroke="black" points="630,-6 630,-25 747,-25 747,-6 630,-6"/>
<text text-anchor="middle" x="688.5" y="-13" font-family="Helvetica,sans-Serif" font-size="10.00">JoyButton::getVDPad</text>
</a>
</g>
</g>
<!-- Node2 -->
<g id="node2" class="node">
<title>Node2</title>
<g id="a_node2"><a xlink:href="classAdvanceStickAssignmentDialog.html#a98a6d5afe4f544f71039543e3aa8055f" target="_top" xlink:title=" ">
<polygon fill="white" stroke="black" points="422,-0.5 422,-30.5 594,-30.5 594,-0.5 422,-0.5"/>
<text text-anchor="start" x="430" y="-18.5" font-family="Helvetica,sans-Serif" font-size="10.00">AdvanceStickAssignmentDialog</text>
<text text-anchor="middle" x="508" y="-7.5" font-family="Helvetica,sans-Serif" font-size="10.00">::refreshVDPadConf</text>
</a>
</g>
</g>
<!-- Node1&#45;&gt;Node2 -->
<g id="edge1" class="edge">
<title>Node1&#45;&gt;Node2</title>
<path fill="none" stroke="midnightblue" d="M619.3,-15.5C611.09,-15.5 602.63,-15.5 594.21,-15.5"/>
<polygon fill="midnightblue" stroke="midnightblue" points="619.55,-19 629.55,-15.5 619.55,-12 619.55,-19"/>
</g>
<!-- Node3 -->
<g id="node3" class="node">
<title>Node3</title>
<g id="a_node3"><a xlink:href="classAdvanceStickAssignmentDialog.html#a2c866fcfc9b377d6cabdd4b0f7f4e824" target="_top" xlink:title=" ">
<polygon fill="white" stroke="black" points="214,-0.5 214,-30.5 386,-30.5 386,-0.5 214,-0.5"/>
<text text-anchor="start" x="222" y="-18.5" font-family="Helvetica,sans-Serif" font-size="10.00">AdvanceStickAssignmentDialog</text>
<text text-anchor="middle" x="300" y="-7.5" font-family="Helvetica,sans-Serif" font-size="10.00">::refreshVDPadsConfiguration</text>
</a>
</g>
</g>
<!-- Node2&#45;&gt;Node3 -->
<g id="edge2" class="edge">
<title>Node2&#45;&gt;Node3</title>
<path fill="none" stroke="midnightblue" d="M411.49,-15.5C403.05,-15.5 394.55,-15.5 386.21,-15.5"/>
<polygon fill="midnightblue" stroke="midnightblue" points="411.72,-19 421.72,-15.5 411.72,-12 411.72,-19"/>
</g>
<!-- Node4 -->
<g id="node4" class="node">
<title>Node4</title>
<g id="a_node4"><a xlink:href="classAdvanceStickAssignmentDialog.html#a86cf0001cd774ce5ccec8543b7a9a50b" target="_top" xlink:title=" ">
<polygon fill="white" stroke="black" points="0,-0.5 0,-30.5 178,-30.5 178,-0.5 0,-0.5"/>
<text text-anchor="start" x="8" y="-18.5" font-family="Helvetica,sans-Serif" font-size="10.00">AdvanceStickAssignmentDialog</text>
<text text-anchor="middle" x="89" y="-7.5" font-family="Helvetica,sans-Serif" font-size="10.00">::AdvanceStickAssignmentDialog</text>
</a>
</g>
</g>
<!-- Node3&#45;&gt;Node4 -->
<g id="edge3" class="edge">
<title>Node3&#45;&gt;Node4</title>
<path fill="none" stroke="midnightblue" d="M203.73,-15.5C195.27,-15.5 186.73,-15.5 178.33,-15.5"/>
<polygon fill="midnightblue" stroke="midnightblue" points="203.99,-19 213.99,-15.5 203.99,-12 203.99,-19"/>
</g>
</g>
</svg>
