<?xml version="1.0" encoding="UTF-8" standalone="no"?>
<!DOCTYPE svg PUBLIC "-//W3C//DTD SVG 1.1//EN"
 "http://www.w3.org/Graphics/SVG/1.1/DTD/svg11.dtd">
<!-- Generated by graphviz version 2.43.0 (0)
 -->
<!-- Title: JoySensor::determineSensorEvent Pages: 1 -->
<!--zoomable 78 -->
<svg id="main" version="1.1" xmlns="http://www.w3.org/2000/svg" xmlns:xlink="http://www.w3.org/1999/xlink" xml:space="preserve" onload="init(evt)">
<style type="text/css"><![CDATA[
.edge:hover path { stroke: red; }
.edge:hover polygon { stroke: red; fill: red; }
]]></style>
<script type="text/javascript"><![CDATA[
var edges = document.getElementsByTagName('g');
if (edges && edges.length) {
  for (var i=0;i<edges.length;i++) {
    if (edges[i].id.substr(0,4)=='edge') {
      edges[i].setAttribute('class','edge');
    }
  }
}
]]></script>
        <defs>
                <circle id="rim" cx="0" cy="0" r="7"/>
                <circle id="rim2" cx="0" cy="0" r="3.5"/>
                <g id="zoomPlus">
                        <use xlink:href="#rim" fill="#404040">
                                <set attributeName="fill" to="#808080" begin="zoomplus.mouseover" end="zoomplus.mouseout"/>
                        </use>
                        <path d="M-4,0h8M0,-4v8" fill="none" stroke="white" stroke-width="1.5" pointer-events="none"/>
                </g>
                <g id="zoomMin">
                        <use xlink:href="#rim" fill="#404040">
                                <set attributeName="fill" to="#808080" begin="zoomminus.mouseover" end="zoomminus.mouseout"/>
                        </use>
                        <path d="M-4,0h8" fill="none" stroke="white" stroke-width="1.5" pointer-events="none"/>
                </g>
                <g id="dirArrow">
                        <path fill="none" stroke="white" stroke-width="1.5" d="M0,-3.0v7 M-2.5,-0.5L0,-3.0L2.5,-0.5"/>
                </g>
               <g id="resetDef">
                       <use xlink:href="#rim2" fill="#404040">
                               <set attributeName="fill" to="#808080" begin="reset.mouseover" end="reset.mouseout"/>
                       </use>
               </g>
        </defs>

<script type="text/javascript">
var viewWidth = 1470;
var viewHeight = 78;
var sectionId = 'dynsection-27';
</script>
<script xlink:href="svgpan.js"/>
<svg id="graph" class="graph">
<g id="viewport">
<title>JoySensor::determineSensorEvent</title>
<polygon fill="white" stroke="transparent" points="-4,4 -4,-73.5 1466,-73.5 1466,4 -4,4"/>
<!-- Node1 -->
<g id="node1" class="node">
<title>Node1</title>
<g id="a_node1"><a xlink:title="Set buttons for current sensor direction zone.">
<polygon fill="#bfbfbf" stroke="black" points="1308,-22.5 1308,-52.5 1462,-52.5 1462,-22.5 1308,-22.5"/>
<text text-anchor="start" x="1316" y="-40.5" font-family="Helvetica,sans-Serif" font-size="10.00">JoySensor::determineSensor</text>
<text text-anchor="middle" x="1385" y="-29.5" font-family="Helvetica,sans-Serif" font-size="10.00">Event</text>
</a>
</g>
</g>
<!-- Node2 -->
<g id="node2" class="node">
<title>Node2</title>
<g id="a_node2"><a xlink:href="classJoySensor.html#aafd5dae106262d6040b720be271cf800" target="_top" xlink:title="Find the position of the three sensor axes, deactivate no longer used sensor direction button and the...">
<polygon fill="white" stroke="black" points="1118,-28 1118,-47 1272,-47 1272,-28 1118,-28"/>
<text text-anchor="middle" x="1195" y="-35" font-family="Helvetica,sans-Serif" font-size="10.00">JoySensor::createDeskEvent</text>
</a>
</g>
</g>
<!-- Node1&#45;&gt;Node2 -->
<g id="edge1" class="edge">
<title>Node1&#45;&gt;Node2</title>
<path fill="none" stroke="midnightblue" d="M1297.58,-37.5C1289.14,-37.5 1280.63,-37.5 1272.3,-37.5"/>
<polygon fill="midnightblue" stroke="midnightblue" points="1297.8,-41 1307.8,-37.5 1297.8,-34 1297.8,-41"/>
</g>
<!-- Node3 -->
<g id="node3" class="node">
<title>Node3</title>
<g id="a_node3"><a xlink:href="classJoySensor.html#a846477c350f77e608cf39d6f450edd51" target="_top" xlink:title="Slot called when m_delay_timer has timed out. The method will call createDeskEvent.">
<polygon fill="white" stroke="black" points="919,-48 919,-67 1082,-67 1082,-48 919,-48"/>
<text text-anchor="middle" x="1000.5" y="-55" font-family="Helvetica,sans-Serif" font-size="10.00">JoySensor::delayTimerExpired</text>
</a>
</g>
</g>
<!-- Node2&#45;&gt;Node3 -->
<g id="edge2" class="edge">
<title>Node2&#45;&gt;Node3</title>
<path fill="none" stroke="midnightblue" d="M1107.9,-46.45C1099.32,-47.34 1090.62,-48.24 1082.09,-49.13"/>
<polygon fill="midnightblue" stroke="midnightblue" points="1108.33,-49.92 1117.92,-45.4 1107.61,-42.96 1108.33,-49.92"/>
</g>
<!-- Node5 -->
<g id="node5" class="node">
<title>Node5</title>
<g id="a_node5"><a xlink:href="classJoySensor.html#ade1aa521f8031e35a3befc406ba60219" target="_top" xlink:title="Main sensor mapping function. When activated, it generates a &quot;moved&quot; QT event which updates various p...">
<polygon fill="white" stroke="black" points="944,-9 944,-28 1057,-28 1057,-9 944,-9"/>
<text text-anchor="middle" x="1000.5" y="-16" font-family="Helvetica,sans-Serif" font-size="10.00">JoySensor::joyEvent</text>
</a>
</g>
</g>
<!-- Node2&#45;&gt;Node5 -->
<g id="edge4" class="edge">
<title>Node2&#45;&gt;Node5</title>
<path fill="none" stroke="midnightblue" d="M1107.85,-29C1090.64,-27.3 1072.99,-25.56 1057.14,-23.99"/>
<polygon fill="midnightblue" stroke="midnightblue" points="1107.62,-32.49 1117.92,-29.99 1108.31,-25.53 1107.62,-32.49"/>
</g>
<!-- Node4 -->
<g id="node4" class="node">
<title>Node4</title>
<g id="a_node4"><a xlink:href="classJoySensor.html#af9b16315366b758eba4fb5759e7ee13e" target="_top" xlink:title=" ">
<polygon fill="white" stroke="black" points="749,-50 749,-69 868,-69 868,-50 749,-50"/>
<text text-anchor="middle" x="808.5" y="-57" font-family="Helvetica,sans-Serif" font-size="10.00">JoySensor::JoySensor</text>
</a>
</g>
</g>
<!-- Node3&#45;&gt;Node4 -->
<g id="edge3" class="edge">
<title>Node3&#45;&gt;Node4</title>
<path fill="none" stroke="midnightblue" d="M908.85,-58.45C894.97,-58.6 880.96,-58.75 868.01,-58.88"/>
<polygon fill="midnightblue" stroke="midnightblue" points="908.96,-61.95 918.92,-58.35 908.89,-54.95 908.96,-61.95"/>
</g>
<!-- Node6 -->
<g id="node6" class="node">
<title>Node6</title>
<g id="a_node6"><a xlink:href="classJoySensor.html#acbaa34beb6de8290766eb925876be45f" target="_top" xlink:title="Activates previously queued movement event This is called by InputDevice.">
<polygon fill="white" stroke="black" points="734,-0.5 734,-30.5 883,-30.5 883,-0.5 734,-0.5"/>
<text text-anchor="start" x="742" y="-18.5" font-family="Helvetica,sans-Serif" font-size="10.00">JoySensor::activatePending</text>
<text text-anchor="middle" x="808.5" y="-7.5" font-family="Helvetica,sans-Serif" font-size="10.00">Event</text>
</a>
</g>
</g>
<!-- Node5&#45;&gt;Node6 -->
<g id="edge5" class="edge">
<title>Node5&#45;&gt;Node6</title>
<path fill="none" stroke="midnightblue" d="M933.34,-17.46C917.16,-17.2 899.74,-16.92 883.23,-16.66"/>
<polygon fill="midnightblue" stroke="midnightblue" points="933.72,-20.96 943.78,-17.62 933.83,-13.96 933.72,-20.96"/>
</g>
<!-- Node7 -->
<g id="node7" class="node">
<title>Node7</title>
<g id="a_node7"><a xlink:href="classInputDevice.html#a720179cfcf5f65f0b29a2b9efc55624a" target="_top" xlink:title=" ">
<polygon fill="white" stroke="black" points="537,-0.5 537,-30.5 698,-30.5 698,-0.5 537,-0.5"/>
<text text-anchor="start" x="545" y="-18.5" font-family="Helvetica,sans-Serif" font-size="10.00">InputDevice::activatePossible</text>
<text text-anchor="middle" x="617.5" y="-7.5" font-family="Helvetica,sans-Serif" font-size="10.00">SensorEvents</text>
</a>
</g>
</g>
<!-- Node6&#45;&gt;Node7 -->
<g id="edge6" class="edge">
<title>Node6&#45;&gt;Node7</title>
<path fill="none" stroke="midnightblue" d="M723.64,-15.5C715.17,-15.5 706.59,-15.5 698.17,-15.5"/>
<polygon fill="midnightblue" stroke="midnightblue" points="723.89,-19 733.89,-15.5 723.89,-12 723.89,-19"/>
</g>
<!-- Node8 -->
<g id="node8" class="node">
<title>Node8</title>
<g id="a_node8"><a xlink:href="classInputDaemon.html#a0cf6bcd3287d97d75c32a3921c633a7a" target="_top" xlink:title="Dispatches postprocessed SDL events to the input objects like JoyAxis or JoyButton and activates them...">
<polygon fill="white" stroke="black" points="331,-6 331,-25 501,-25 501,-6 331,-6"/>
<text text-anchor="middle" x="416" y="-13" font-family="Helvetica,sans-Serif" font-size="10.00">InputDaemon::secondInputPass</text>
</a>
</g>
</g>
<!-- Node7&#45;&gt;Node8 -->
<g id="edge7" class="edge">
<title>Node7&#45;&gt;Node8</title>
<path fill="none" stroke="midnightblue" d="M526.55,-15.5C518.1,-15.5 509.55,-15.5 501.16,-15.5"/>
<polygon fill="midnightblue" stroke="midnightblue" points="526.79,-19 536.79,-15.5 526.79,-12 526.79,-19"/>
</g>
<!-- Node9 -->
<g id="node9" class="node">
<title>Node9</title>
<g id="a_node9"><a xlink:href="classInputDaemon.html#ad7f954b25b67cb5a84fdb1a154282bfd" target="_top" xlink:title=" ">
<polygon fill="white" stroke="black" points="191,-6 191,-25 295,-25 295,-6 191,-6"/>
<text text-anchor="middle" x="243" y="-13" font-family="Helvetica,sans-Serif" font-size="10.00">InputDaemon::run</text>
</a>
</g>
</g>
<!-- Node8&#45;&gt;Node9 -->
<g id="edge8" class="edge">
<title>Node8&#45;&gt;Node9</title>
<path fill="none" stroke="midnightblue" d="M320.52,-15.5C311.84,-15.5 303.28,-15.5 295.21,-15.5"/>
<polygon fill="midnightblue" stroke="midnightblue" points="320.75,-19 330.75,-15.5 320.75,-12 320.75,-19"/>
</g>
<!-- Node10 -->
<g id="node10" class="node">
<title>Node10</title>
<g id="a_node10"><a xlink:href="classInputDaemon.html#ab7c3d331123e946ed8da490dfee5c265" target="_top" xlink:title=" ">
<polygon fill="white" stroke="black" points="0,-6 0,-25 155,-25 155,-6 0,-6"/>
<text text-anchor="middle" x="77.5" y="-13" font-family="Helvetica,sans-Serif" font-size="10.00">InputDaemon::InputDaemon</text>
</a>
</g>
</g>
<!-- Node9&#45;&gt;Node10 -->
<g id="edge9" class="edge">
<title>Node9&#45;&gt;Node10</title>
<path fill="none" stroke="midnightblue" d="M180.69,-15.5C172.32,-15.5 163.65,-15.5 155.05,-15.5"/>
<polygon fill="midnightblue" stroke="midnightblue" points="180.72,-19 190.72,-15.5 180.72,-12 180.72,-19"/>
</g>
</g>
</svg>
        <g id="navigator" transform="translate(0 0)" fill="#404254">
                <rect fill="#f2f5e9" fill-opacity="0.5" stroke="#606060" stroke-width=".5" x="0" y="0" width="60" height="60"/>
                <use id="zoomplus" xlink:href="#zoomPlus" x="17" y="9" onmousedown="handleZoom(evt,'in')"/>
                <use id="zoomminus" xlink:href="#zoomMin" x="42" y="9" onmousedown="handleZoom(evt,'out')"/>
                <use id="reset" xlink:href="#resetDef" x="30" y="36" onmousedown="handleReset()"/>
                <g id="arrowUp" xlink:href="#dirArrow" transform="translate(30 24)" onmousedown="handlePan(0,-1)">
                  <use xlink:href="#rim" fill="#404040">
                        <set attributeName="fill" to="#808080" begin="arrowUp.mouseover" end="arrowUp.mouseout"/>
                  </use>
                  <path fill="none" stroke="white" stroke-width="1.5" d="M0,-3.0v7 M-2.5,-0.5L0,-3.0L2.5,-0.5"/>
                </g>
                <g id="arrowRight" xlink:href="#dirArrow" transform="rotate(90) translate(36 -43)" onmousedown="handlePan(1,0)">
                  <use xlink:href="#rim" fill="#404040">
                        <set attributeName="fill" to="#808080" begin="arrowRight.mouseover" end="arrowRight.mouseout"/>
                  </use>
                  <path fill="none" stroke="white" stroke-width="1.5" d="M0,-3.0v7 M-2.5,-0.5L0,-3.0L2.5,-0.5"/>
                </g>
                <g id="arrowDown" xlink:href="#dirArrow" transform="rotate(180) translate(-30 -48)" onmousedown="handlePan(0,1)">
                  <use xlink:href="#rim" fill="#404040">
                        <set attributeName="fill" to="#808080" begin="arrowDown.mouseover" end="arrowDown.mouseout"/>
                  </use>
                  <path fill="none" stroke="white" stroke-width="1.5" d="M0,-3.0v7 M-2.5,-0.5L0,-3.0L2.5,-0.5"/>
                </g>
                <g id="arrowLeft" xlink:href="#dirArrow" transform="rotate(270) translate(-36 17)" onmousedown="handlePan(-1,0)">
                  <use xlink:href="#rim" fill="#404040">
                        <set attributeName="fill" to="#808080" begin="arrowLeft.mouseover" end="arrowLeft.mouseout"/>
                  </use>
                  <path fill="none" stroke="white" stroke-width="1.5" d="M0,-3.0v7 M-2.5,-0.5L0,-3.0L2.5,-0.5"/>
                </g>
        </g>
        <svg viewBox="0 0 15 15" width="100%" height="30px" preserveAspectRatio="xMaxYMin meet">
         <g id="arrow_out" transform="scale(0.3 0.3)">
          <a xlink:href="classJoySensor_a9bd86a0388eeee49b5ab55ead1d506a7_icgraph_org.svg" target="_base">
           <rect id="button" ry="5" rx="5" y="6" x="6" height="38" width="38"
                fill="#f2f5e9" fill-opacity="0.5" stroke="#606060" stroke-width="1.0"/>
           <path id="arrow"
             d="M 11.500037,31.436501 C 11.940474,20.09759 22.043105,11.32322 32.158766,21.979434 L 37.068811,17.246167 C 37.068811,17.246167 37.088388,32 37.088388,32 L 22.160133,31.978069 C 22.160133,31.978069 26.997745,27.140456 26.997745,27.140456 C 18.528582,18.264221 13.291696,25.230495 11.500037,31.436501 z"
             style="fill:#404040;"/>
          </a>
         </g>
        </svg>
</svg>
