<?xml version="1.0" encoding="UTF-8" standalone="no"?>
<!DOCTYPE svg PUBLIC "-//W3C//DTD SVG 1.1//EN"
 "http://www.w3.org/Graphics/SVG/1.1/DTD/svg11.dtd">
<!-- Generated by graphviz version 2.43.0 (0)
 -->
<!-- Title: InputDevice::updateSetSensorButtonNames Pages: 1 -->
<svg width="767pt" height="154pt"
 viewBox="0.00 0.00 767.00 153.50" xmlns="http://www.w3.org/2000/svg" xmlns:xlink="http://www.w3.org/1999/xlink">
<g id="graph0" class="graph" transform="scale(1 1) rotate(0) translate(4 149.5)">
<title>InputDevice::updateSetSensorButtonNames</title>
<polygon fill="white" stroke="transparent" points="-4,4 -4,-149.5 763,-149.5 763,4 -4,4"/>
<!-- Node1 -->
<g id="node1" class="node">
<title>Node1</title>
<g id="a_node1"><a xlink:title="Rename mapped sensor button in all sets to the name in the active set.">
<polygon fill="#bfbfbf" stroke="black" points="595,-44.5 595,-74.5 759,-74.5 759,-44.5 595,-44.5"/>
<text text-anchor="start" x="603" y="-62.5" font-family="Helvetica,sans-Serif" font-size="10.00">InputDevice::updateSetSensor</text>
<text text-anchor="middle" x="677" y="-51.5" font-family="Helvetica,sans-Serif" font-size="10.00">ButtonNames</text>
</a>
</g>
</g>
<!-- Node2 -->
<g id="node2" class="node">
<title>Node2</title>
<g id="a_node2"><a xlink:href="classInputDevice.html#a6ffcebba103a7db02e82c1c7f62387bf" target="_top" xlink:title="Establishes necessary connections for set change slots.">
<polygon fill="white" stroke="black" points="368.5,-88 368.5,-107 558.5,-107 558.5,-88 368.5,-88"/>
<text text-anchor="middle" x="463.5" y="-95" font-family="Helvetica,sans-Serif" font-size="10.00">InputDevice::enableSetConnections</text>
</a>
</g>
</g>
<!-- Node1&#45;&gt;Node2 -->
<g id="edge1" class="edge">
<title>Node1&#45;&gt;Node2</title>
<path fill="none" stroke="midnightblue" d="M584.74,-75.9C561.85,-80.01 538.02,-84.29 517.68,-87.94"/>
<polygon fill="midnightblue" stroke="midnightblue" points="585.61,-79.3 594.83,-74.08 584.37,-72.41 585.61,-79.3"/>
</g>
<!-- Node5 -->
<g id="node5" class="node">
<title>Node5</title>
<g id="a_node5"><a xlink:href="classInputDevice.html#a85f69eb270f134d0d6970ac68ec9cbed" target="_top" xlink:title="Sets the name of a mapped sensor button in all sets Used during XML loading.">
<polygon fill="white" stroke="black" points="368,-50 368,-69 559,-69 559,-50 368,-50"/>
<text text-anchor="middle" x="463.5" y="-57" font-family="Helvetica,sans-Serif" font-size="10.00">InputDevice::setSensorButtonName</text>
</a>
</g>
</g>
<!-- Node1&#45;&gt;Node5 -->
<g id="edge4" class="edge">
<title>Node1&#45;&gt;Node5</title>
<path fill="none" stroke="midnightblue" d="M584.64,-52.81C576.22,-52.74 567.68,-52.73 559.23,-52.78"/>
<polygon fill="midnightblue" stroke="midnightblue" points="584.8,-56.31 594.83,-52.91 584.87,-49.31 584.8,-56.31"/>
</g>
<!-- Node3 -->
<g id="node3" class="node">
<title>Node3</title>
<g id="a_node3"><a xlink:href="classGameController.html#afcddb9dcc5442a9746c3ff8760ea1791" target="_top" xlink:title=" ">
<polygon fill="white" stroke="black" points="155,-126 155,-145 332,-145 332,-126 155,-126"/>
<text text-anchor="middle" x="243.5" y="-133" font-family="Helvetica,sans-Serif" font-size="10.00">GameController::GameController</text>
</a>
</g>
</g>
<!-- Node2&#45;&gt;Node3 -->
<g id="edge2" class="edge">
<title>Node2&#45;&gt;Node3</title>
<path fill="none" stroke="midnightblue" d="M397.81,-108.78C366.45,-114.24 329.19,-120.74 299.25,-125.96"/>
<polygon fill="midnightblue" stroke="midnightblue" points="398.52,-112.21 407.77,-107.04 397.32,-105.31 398.52,-112.21"/>
</g>
<!-- Node4 -->
<g id="node4" class="node">
<title>Node4</title>
<g id="a_node4"><a xlink:href="classJoystick.html#a9df5e53506876f3c95e84bdf6c9cbaf1" target="_top" xlink:title=" ">
<polygon fill="white" stroke="black" points="194,-88 194,-107 293,-107 293,-88 194,-88"/>
<text text-anchor="middle" x="243.5" y="-95" font-family="Helvetica,sans-Serif" font-size="10.00">Joystick::Joystick</text>
</a>
</g>
</g>
<!-- Node2&#45;&gt;Node4 -->
<g id="edge3" class="edge">
<title>Node2&#45;&gt;Node4</title>
<path fill="none" stroke="midnightblue" d="M358.4,-97.5C335.64,-97.5 312.59,-97.5 293.25,-97.5"/>
<polygon fill="midnightblue" stroke="midnightblue" points="358.47,-101 368.47,-97.5 358.47,-94 358.47,-101"/>
</g>
<!-- Node5&#45;&gt;Node1 -->
<g id="edge8" class="edge">
<title>Node5&#45;&gt;Node1</title>
<path fill="none" stroke="midnightblue" d="M569.29,-66.25C577.87,-66.25 586.46,-66.2 594.83,-66.09"/>
<polygon fill="midnightblue" stroke="midnightblue" points="569.24,-62.75 559.23,-66.22 569.22,-69.75 569.24,-62.75"/>
</g>
<!-- Node6 -->
<g id="node6" class="node">
<title>Node6</title>
<g id="a_node6"><a xlink:href="classInputDeviceXml.html#a847bf9ed17b554bf87d513a1aebdcb64" target="_top" xlink:title="Deserializes the given XML stream into an InputDevice object.">
<polygon fill="white" stroke="black" points="167,-50 167,-69 320,-69 320,-50 167,-50"/>
<text text-anchor="middle" x="243.5" y="-57" font-family="Helvetica,sans-Serif" font-size="10.00">InputDeviceXml::readConfig</text>
</a>
</g>
</g>
<!-- Node5&#45;&gt;Node6 -->
<g id="edge5" class="edge">
<title>Node5&#45;&gt;Node6</title>
<path fill="none" stroke="midnightblue" d="M357.68,-59.5C344.99,-59.5 332.22,-59.5 320.07,-59.5"/>
<polygon fill="midnightblue" stroke="midnightblue" points="357.83,-63 367.83,-59.5 357.83,-56 357.83,-63"/>
</g>
<!-- Node7 -->
<g id="node7" class="node">
<title>Node7</title>
<g id="a_node7"><a xlink:href="classGameControllerXml.html#aaa5257d4c6fe13f1d5fc51981e247c25" target="_top" xlink:title="Reads the XML tree from a &quot;joystick&quot; tag.">
<polygon fill="white" stroke="black" points="184,-0.5 184,-30.5 303,-30.5 303,-0.5 184,-0.5"/>
<text text-anchor="start" x="192" y="-18.5" font-family="Helvetica,sans-Serif" font-size="10.00">GameControllerXml::</text>
<text text-anchor="middle" x="243.5" y="-7.5" font-family="Helvetica,sans-Serif" font-size="10.00">readJoystickConfig</text>
</a>
</g>
</g>
<!-- Node5&#45;&gt;Node7 -->
<g id="edge6" class="edge">
<title>Node5&#45;&gt;Node7</title>
<path fill="none" stroke="midnightblue" d="M405.29,-47.95C373.89,-41.62 335.03,-33.77 303.38,-27.38"/>
<polygon fill="midnightblue" stroke="midnightblue" points="404.7,-51.4 415.2,-49.95 406.09,-44.54 404.7,-51.4"/>
</g>
<!-- Node8 -->
<g id="node8" class="node">
<title>Node8</title>
<g id="a_node8"><a xlink:href="classGameControllerXml.html#a7e47256cae0d3815419bc254413777d1" target="_top" xlink:title="Deserializes the given XML stream into a GameController object.">
<polygon fill="white" stroke="black" points="0,-0.5 0,-30.5 119,-30.5 119,-0.5 0,-0.5"/>
<text text-anchor="start" x="8" y="-18.5" font-family="Helvetica,sans-Serif" font-size="10.00">GameControllerXml::</text>
<text text-anchor="middle" x="59.5" y="-7.5" font-family="Helvetica,sans-Serif" font-size="10.00">readConfig</text>
</a>
</g>
</g>
<!-- Node7&#45;&gt;Node8 -->
<g id="edge7" class="edge">
<title>Node7&#45;&gt;Node8</title>
<path fill="none" stroke="midnightblue" d="M173.8,-15.5C155.85,-15.5 136.67,-15.5 119.29,-15.5"/>
<polygon fill="midnightblue" stroke="midnightblue" points="173.91,-19 183.91,-15.5 173.91,-12 173.91,-19"/>
</g>
</g>
</svg>
