<?xml version="1.0" encoding="UTF-8" standalone="no"?>
<!DOCTYPE svg PUBLIC "-//W3C//DTD SVG 1.1//EN"
 "http://www.w3.org/Graphics/SVG/1.1/DTD/svg11.dtd">
<!-- Generated by graphviz version 2.43.0 (0)
 -->
<!-- Title: JoyButtonSlotXml::writeConfig Pages: 1 -->
<svg width="729pt" height="142pt"
 viewBox="0.00 0.00 729.00 142.00" xmlns="http://www.w3.org/2000/svg" xmlns:xlink="http://www.w3.org/1999/xlink">
<g id="graph0" class="graph" transform="scale(1 1) rotate(0) translate(4 138)">
<title>JoyButtonSlotXml::writeConfig</title>
<polygon fill="white" stroke="transparent" points="-4,4 -4,-138 725,-138 725,4 -4,4"/>
<!-- Node1 -->
<g id="node1" class="node">
<title>Node1</title>
<g id="a_node1"><a xlink:title=" ">
<polygon fill="#bfbfbf" stroke="black" points="557,-57.5 557,-76.5 721,-76.5 721,-57.5 557,-57.5"/>
<text text-anchor="middle" x="639" y="-64.5" font-family="Helvetica,sans-Serif" font-size="10.00">JoyButtonSlotXml::writeConfig</text>
</a>
</g>
</g>
<!-- Node2 -->
<g id="node2" class="node">
<title>Node2</title>
<g id="a_node2"><a xlink:href="classJoyButtonXml.html#a766e87947104bfd54fc15b96b267ebdd" target="_top" xlink:title=" ">
<polygon fill="white" stroke="black" points="376,-57.5 376,-76.5 521,-76.5 521,-57.5 376,-57.5"/>
<text text-anchor="middle" x="448.5" y="-64.5" font-family="Helvetica,sans-Serif" font-size="10.00">JoyButtonXml::writeConfig</text>
</a>
</g>
</g>
<!-- Node1&#45;&gt;Node2 -->
<g id="edge1" class="edge">
<title>Node1&#45;&gt;Node2</title>
<path fill="none" stroke="midnightblue" d="M546.9,-67C538.29,-67 529.65,-67 521.26,-67"/>
<polygon fill="midnightblue" stroke="midnightblue" points="546.97,-70.5 556.97,-67 546.97,-63.5 546.97,-70.5"/>
</g>
<!-- Node3 -->
<g id="node3" class="node">
<title>Node3</title>
<g id="a_node3"><a xlink:href="classJoyDPadXml.html#ac78c8fd1ad107f6a3baed4910863cb0c" target="_top" xlink:title=" ">
<polygon fill="white" stroke="black" points="195.5,-114.5 195.5,-133.5 332.5,-133.5 332.5,-114.5 195.5,-114.5"/>
<text text-anchor="middle" x="264" y="-121.5" font-family="Helvetica,sans-Serif" font-size="10.00">JoyDPadXml::writeConfig</text>
</a>
</g>
</g>
<!-- Node2&#45;&gt;Node3 -->
<g id="edge2" class="edge">
<title>Node2&#45;&gt;Node3</title>
<path fill="none" stroke="midnightblue" d="M406.98,-79.66C373.34,-90.16 326.21,-104.88 295.65,-114.43"/>
<polygon fill="midnightblue" stroke="midnightblue" points="408.45,-82.86 416.95,-76.54 406.36,-76.18 408.45,-82.86"/>
</g>
<!-- Node4 -->
<g id="node4" class="node">
<title>Node4</title>
<g id="a_node4"><a xlink:href="classSetJoystickXml.html#a11eec051c05deac5ebe47b9582e83b6f" target="_top" xlink:title="Serializes a SetJoystick object into the the given XML stream.">
<polygon fill="white" stroke="black" points="0,-95.5 0,-114.5 152,-114.5 152,-95.5 0,-95.5"/>
<text text-anchor="middle" x="76" y="-102.5" font-family="Helvetica,sans-Serif" font-size="10.00">SetJoystickXml::writeConfig</text>
</a>
</g>
</g>
<!-- Node2&#45;&gt;Node4 -->
<g id="edge4" class="edge">
<title>Node2&#45;&gt;Node4</title>
<path fill="none" stroke="midnightblue" d="M365.61,-75.4C301.87,-81.94 214.13,-90.93 152.17,-97.29"/>
<polygon fill="midnightblue" stroke="midnightblue" points="366.03,-78.87 375.62,-74.37 365.32,-71.91 366.03,-78.87"/>
</g>
<!-- Node5 -->
<g id="node5" class="node">
<title>Node5</title>
<g id="a_node5"><a xlink:href="classJoySensor.html#a92d38c3baf6dc85d28d66e7a7df4b4c3" target="_top" xlink:title="Write the status of the properties of a sensor and direction buttons to an XML stream.">
<polygon fill="white" stroke="black" points="201,-38.5 201,-57.5 327,-57.5 327,-38.5 201,-38.5"/>
<text text-anchor="middle" x="264" y="-45.5" font-family="Helvetica,sans-Serif" font-size="10.00">JoySensor::writeConfig</text>
</a>
</g>
</g>
<!-- Node2&#45;&gt;Node5 -->
<g id="edge5" class="edge">
<title>Node2&#45;&gt;Node5</title>
<path fill="none" stroke="midnightblue" d="M365.63,-58.48C352.73,-57.13 339.58,-55.76 327.23,-54.48"/>
<polygon fill="midnightblue" stroke="midnightblue" points="365.59,-61.99 375.89,-59.55 366.31,-55.03 365.59,-61.99"/>
</g>
<!-- Node6 -->
<g id="node6" class="node">
<title>Node6</title>
<g id="a_node6"><a xlink:href="classJoyControlStick.html#a3ab1764a44e806d2d3896023f82fa3b1" target="_top" xlink:title="Write the status of the properties of a stick and direction buttons to an XML stream.">
<polygon fill="white" stroke="black" points="188,-0.5 188,-19.5 340,-19.5 340,-0.5 188,-0.5"/>
<text text-anchor="middle" x="264" y="-7.5" font-family="Helvetica,sans-Serif" font-size="10.00">JoyControlStick::writeConfig</text>
</a>
</g>
</g>
<!-- Node2&#45;&gt;Node6 -->
<g id="edge6" class="edge">
<title>Node2&#45;&gt;Node6</title>
<path fill="none" stroke="midnightblue" d="M413.08,-53.93C392.12,-46.19 364.7,-36.48 340,-29 328.94,-25.65 316.85,-22.41 305.67,-19.58"/>
<polygon fill="midnightblue" stroke="midnightblue" points="411.93,-57.23 422.52,-57.44 414.37,-50.67 411.93,-57.23"/>
</g>
<!-- Node3&#45;&gt;Node4 -->
<g id="edge3" class="edge">
<title>Node3&#45;&gt;Node4</title>
<path fill="none" stroke="midnightblue" d="M185.35,-116.07C174.37,-114.95 163.1,-113.8 152.17,-112.68"/>
<polygon fill="midnightblue" stroke="midnightblue" points="185.02,-119.55 195.32,-117.09 185.73,-112.59 185.02,-119.55"/>
</g>
</g>
</svg>
