<?xml version="1.0" encoding="UTF-8" standalone="no"?>
<!DOCTYPE svg PUBLIC "-//W3C//DTD SVG 1.1//EN"
 "http://www.w3.org/Graphics/SVG/1.1/DTD/svg11.dtd">
<!-- Generated by graphviz version 2.43.0 (0)
 -->
<!-- Title: MouseSensorSettingsDialog::MouseSensorSettingsDialog Pages: 1 -->
<svg width="782pt" height="592pt"
 viewBox="0.00 0.00 782.00 592.00" xmlns="http://www.w3.org/2000/svg" xmlns:xlink="http://www.w3.org/1999/xlink">
<g id="graph0" class="graph" transform="scale(1 1) rotate(0) translate(4 588)">
<title>MouseSensorSettingsDialog::MouseSensorSettingsDialog</title>
<polygon fill="white" stroke="transparent" points="-4,4 -4,-588 778,-588 778,4 -4,4"/>
<!-- Node1 -->
<g id="node1" class="node">
<title>Node1</title>
<g id="a_node1"><a xlink:title=" ">
<polygon fill="#bfbfbf" stroke="black" points="0,-345 0,-375 159,-375 159,-345 0,-345"/>
<text text-anchor="start" x="8" y="-363" font-family="Helvetica,sans-Serif" font-size="10.00">MouseSensorSettingsDialog</text>
<text text-anchor="middle" x="79.5" y="-352" font-family="Helvetica,sans-Serif" font-size="10.00">::MouseSensorSettingsDialog</text>
</a>
</g>
</g>
<!-- Node2 -->
<g id="node2" class="node">
<title>Node2</title>
<g id="a_node2"><a xlink:href="classMouseSensorSettingsDialog.html#a5c9a8f19997296227928dc8037bd051f" target="_top" xlink:title="Get the maximum mouse speed used by the buttons of the associated sensor and set the UI values to it.">
<polygon fill="white" stroke="black" points="213.5,-419 213.5,-449 373.5,-449 373.5,-419 213.5,-419"/>
<text text-anchor="start" x="221.5" y="-437" font-family="Helvetica,sans-Serif" font-size="10.00">MouseSensorSettingsDialog</text>
<text text-anchor="middle" x="293.5" y="-426" font-family="Helvetica,sans-Serif" font-size="10.00">::calculateMouseSpeedPreset</text>
</a>
</g>
</g>
<!-- Node1&#45;&gt;Node2 -->
<g id="edge1" class="edge">
<title>Node1&#45;&gt;Node2</title>
<path fill="none" stroke="midnightblue" d="M111.04,-375.04C133.79,-385.82 165.83,-400.12 195,-410 201.43,-412.18 208.17,-414.25 214.96,-416.2"/>
<polygon fill="midnightblue" stroke="midnightblue" points="214.36,-419.66 224.93,-418.96 216.23,-412.92 214.36,-419.66"/>
</g>
<!-- Node6 -->
<g id="node6" class="node">
<title>Node6</title>
<g id="a_node6"><a xlink:href="classMouseSensorSettingsDialog.html#a49f6f634ca8f57c4d9ca27a42be4d57b" target="_top" xlink:title="Get the maximum mouse wheel speed used by the buttons of the associated sensor and set the UI values ...">
<polygon fill="white" stroke="black" points="214.5,-519 214.5,-549 372.5,-549 372.5,-519 214.5,-519"/>
<text text-anchor="start" x="222.5" y="-537" font-family="Helvetica,sans-Serif" font-size="10.00">MouseSensorSettingsDialog</text>
<text text-anchor="middle" x="293.5" y="-526" font-family="Helvetica,sans-Serif" font-size="10.00">::calculateWheelSpeedPreset</text>
</a>
</g>
</g>
<!-- Node1&#45;&gt;Node6 -->
<g id="edge5" class="edge">
<title>Node1&#45;&gt;Node6</title>
<path fill="none" stroke="midnightblue" d="M87.92,-375.23C103.42,-405.42 142.24,-472.94 195,-508 198.75,-510.49 202.74,-512.75 206.87,-514.79"/>
<polygon fill="midnightblue" stroke="midnightblue" points="205.55,-518.03 216.11,-518.92 208.41,-511.64 205.55,-518.03"/>
</g>
<!-- Node9 -->
<g id="node9" class="node">
<title>Node9</title>
<g id="a_node9"><a xlink:href="classMouseSettingsDialog.html#aa4950d5644d83623e3c3e0f8d6974636" target="_top" xlink:title=" ">
<polygon fill="white" stroke="black" points="212,-223 212,-253 375,-253 375,-223 212,-223"/>
<text text-anchor="start" x="220" y="-241" font-family="Helvetica,sans-Serif" font-size="10.00">MouseSettingsDialog</text>
<text text-anchor="middle" x="293.5" y="-230" font-family="Helvetica,sans-Serif" font-size="10.00">::changeSettingsWidgetStatus</text>
</a>
</g>
</g>
<!-- Node1&#45;&gt;Node9 -->
<g id="edge9" class="edge">
<title>Node1&#45;&gt;Node9</title>
<path fill="none" stroke="midnightblue" d="M94.1,-344.76C114.1,-323.3 153.57,-284.41 195,-263 199.54,-260.65 204.32,-258.52 209.22,-256.57"/>
<polygon fill="midnightblue" stroke="midnightblue" points="210.58,-259.8 218.76,-253.07 208.16,-253.23 210.58,-259.8"/>
</g>
<!-- Node11 -->
<g id="node11" class="node">
<title>Node11</title>
<g id="a_node11"><a xlink:href="classMouseSensorSettingsDialog.html#aebea5b3a1dd63190c90ef3fdf3b200b4" target="_top" xlink:title="Horizontal mouse speed change UI event handler Updates horizontal mouse speed on all buttons of the a...">
<polygon fill="white" stroke="black" points="210,-468 210,-498 377,-498 377,-468 210,-468"/>
<text text-anchor="start" x="218" y="-486" font-family="Helvetica,sans-Serif" font-size="10.00">MouseSensorSettingsDialog</text>
<text text-anchor="middle" x="293.5" y="-475" font-family="Helvetica,sans-Serif" font-size="10.00">::updateConfigHorizontalSpeed</text>
</a>
</g>
</g>
<!-- Node1&#45;&gt;Node11 -->
<g id="edge11" class="edge">
<title>Node1&#45;&gt;Node11</title>
<path fill="none" stroke="midnightblue" d="M93.67,-375.25C113.44,-397.16 152.98,-437.28 195,-459 198.75,-460.94 202.65,-462.72 206.66,-464.37"/>
<polygon fill="midnightblue" stroke="midnightblue" points="205.57,-467.69 216.16,-467.95 208.04,-461.15 205.57,-467.69"/>
</g>
<!-- Node13 -->
<g id="node13" class="node">
<title>Node13</title>
<g id="a_node13"><a xlink:href="classMouseSensorSettingsDialog.html#a23334646c992cd27e6a129c6c2501bd2" target="_top" xlink:title="Vertical mouse speed change UI event handler Updates vertical mouse speed on all buttons of the assoc...">
<polygon fill="white" stroke="black" points="216.5,-370 216.5,-400 370.5,-400 370.5,-370 216.5,-370"/>
<text text-anchor="start" x="224.5" y="-388" font-family="Helvetica,sans-Serif" font-size="10.00">MouseSensorSettingsDialog</text>
<text text-anchor="middle" x="293.5" y="-377" font-family="Helvetica,sans-Serif" font-size="10.00">::updateConfigVerticalSpeed</text>
</a>
</g>
</g>
<!-- Node1&#45;&gt;Node13 -->
<g id="edge14" class="edge">
<title>Node1&#45;&gt;Node13</title>
<path fill="none" stroke="midnightblue" d="M159.14,-369.27C174.51,-371.09 190.7,-373 206.3,-374.84"/>
<polygon fill="midnightblue" stroke="midnightblue" points="206.11,-378.34 216.45,-376.03 206.93,-371.39 206.11,-378.34"/>
</g>
<!-- Node15 -->
<g id="node15" class="node">
<title>Node15</title>
<g id="a_node15"><a xlink:href="classMouseSensorSettingsDialog.html#a27a9be4f873e6f4c53bcecbb51947cec" target="_top" xlink:title="Horizontal mouse wheel speed change UI event handler Updates horizontal mouse wheel speed on all butt...">
<polygon fill="white" stroke="black" points="195,-321 195,-351 392,-351 392,-321 195,-321"/>
<text text-anchor="start" x="203" y="-339" font-family="Helvetica,sans-Serif" font-size="10.00">MouseSensorSettingsDialog</text>
<text text-anchor="middle" x="293.5" y="-328" font-family="Helvetica,sans-Serif" font-size="10.00">::updateWheelSpeedHorizontalSpeed</text>
</a>
</g>
</g>
<!-- Node1&#45;&gt;Node15 -->
<g id="edge17" class="edge">
<title>Node1&#45;&gt;Node15</title>
<path fill="none" stroke="midnightblue" d="M159.14,-351.1C167.52,-350.15 176.15,-349.17 184.8,-348.19"/>
<polygon fill="midnightblue" stroke="midnightblue" points="185.4,-351.65 194.94,-347.04 184.61,-344.69 185.4,-351.65"/>
</g>
<!-- Node17 -->
<g id="node17" class="node">
<title>Node17</title>
<g id="a_node17"><a xlink:href="classMouseSensorSettingsDialog.html#a8a98e3ac22b2c2c44f98c80f0395bb46" target="_top" xlink:title="Vertical mouse wheel speed change UI event handler Updates vertical mouse wheel speed on all buttons ...">
<polygon fill="white" stroke="black" points="201.5,-272 201.5,-302 385.5,-302 385.5,-272 201.5,-272"/>
<text text-anchor="start" x="209.5" y="-290" font-family="Helvetica,sans-Serif" font-size="10.00">MouseSensorSettingsDialog</text>
<text text-anchor="middle" x="293.5" y="-279" font-family="Helvetica,sans-Serif" font-size="10.00">::updateWheelSpeedVerticalSpeed</text>
</a>
</g>
</g>
<!-- Node1&#45;&gt;Node17 -->
<g id="edge20" class="edge">
<title>Node1&#45;&gt;Node17</title>
<path fill="none" stroke="midnightblue" d="M113.08,-344.84C135.73,-334.68 166.8,-321.47 195,-312 202.6,-309.45 210.6,-307.01 218.62,-304.72"/>
<polygon fill="midnightblue" stroke="midnightblue" points="219.69,-308.06 228.39,-302.02 217.81,-301.32 219.69,-308.06"/>
</g>
<!-- Node18 -->
<g id="node18" class="node">
<title>Node18</title>
<g id="a_node18"><a xlink:href="classMouseSensorSettingsDialog.html#a3a49370a1061187645fcd8eda0ebc4ca" target="_top" xlink:title="Shows the sensor name in dialog title.">
<polygon fill="white" stroke="black" points="204,-109 204,-139 383,-139 383,-109 204,-109"/>
<text text-anchor="start" x="212" y="-127" font-family="Helvetica,sans-Serif" font-size="10.00">MouseSensorSettingsDialog</text>
<text text-anchor="middle" x="293.5" y="-116" font-family="Helvetica,sans-Serif" font-size="10.00">::updateWindowTitleSensorName</text>
</a>
</g>
</g>
<!-- Node1&#45;&gt;Node18 -->
<g id="edge23" class="edge">
<title>Node1&#45;&gt;Node18</title>
<path fill="none" stroke="midnightblue" d="M91.13,-344.86C110.53,-317.62 153.5,-258.98 195,-214 217.89,-189.19 246.53,-163.29 266.83,-145.68"/>
<polygon fill="midnightblue" stroke="midnightblue" points="269.14,-148.31 274.44,-139.13 264.57,-143 269.14,-148.31"/>
</g>
<!-- Node3 -->
<g id="node3" class="node">
<title>Node3</title>
<g id="a_node3"><a xlink:href="classJoySensor.html#ade5fe9722741d61eeac6811fe6a53cf2" target="_top" xlink:title="Returns a QHash which maps the SensorDirection to the corresponding JoySensorButton.">
<polygon fill="white" stroke="black" points="443.5,-374.5 443.5,-393.5 567.5,-393.5 567.5,-374.5 443.5,-374.5"/>
<text text-anchor="middle" x="505.5" y="-381.5" font-family="Helvetica,sans-Serif" font-size="10.00">JoySensor::getButtons</text>
</a>
</g>
</g>
<!-- Node2&#45;&gt;Node3 -->
<g id="edge2" class="edge">
<title>Node2&#45;&gt;Node3</title>
<path fill="none" stroke="midnightblue" d="M357.51,-419C388.52,-411.61 425.39,-402.83 454.45,-395.92"/>
<polygon fill="midnightblue" stroke="midnightblue" points="455.46,-399.27 464.38,-393.55 453.84,-392.46 455.46,-399.27"/>
</g>
<!-- Node4 -->
<g id="node4" class="node">
<title>Node4</title>
<g id="a_node4"><a xlink:href="classJoyButton.html#a76e65a13abf96d01fa11ed9fd3b08a7b" target="_top" xlink:title=" ">
<polygon fill="white" stroke="black" points="428,-412.5 428,-431.5 583,-431.5 583,-412.5 428,-412.5"/>
<text text-anchor="middle" x="505.5" y="-419.5" font-family="Helvetica,sans-Serif" font-size="10.00">JoyButton::getMouseSpeedX</text>
</a>
</g>
</g>
<!-- Node2&#45;&gt;Node4 -->
<g id="edge3" class="edge">
<title>Node2&#45;&gt;Node4</title>
<path fill="none" stroke="midnightblue" d="M373.59,-429.48C388.05,-428.65 403.2,-427.79 417.86,-426.95"/>
<polygon fill="midnightblue" stroke="midnightblue" points="418.13,-430.44 427.91,-426.38 417.73,-423.45 418.13,-430.44"/>
</g>
<!-- Node5 -->
<g id="node5" class="node">
<title>Node5</title>
<g id="a_node5"><a xlink:href="classJoyButton.html#a897f0f78773ace1b5916222bd757b1bc" target="_top" xlink:title=" ">
<polygon fill="white" stroke="black" points="428.5,-450.5 428.5,-469.5 582.5,-469.5 582.5,-450.5 428.5,-450.5"/>
<text text-anchor="middle" x="505.5" y="-457.5" font-family="Helvetica,sans-Serif" font-size="10.00">JoyButton::getMouseSpeedY</text>
</a>
</g>
</g>
<!-- Node2&#45;&gt;Node5 -->
<g id="edge4" class="edge">
<title>Node2&#45;&gt;Node5</title>
<path fill="none" stroke="midnightblue" d="M373.59,-443.79C388.14,-445.59 403.4,-447.48 418.14,-449.31"/>
<polygon fill="midnightblue" stroke="midnightblue" points="417.91,-452.81 428.26,-450.56 418.77,-445.86 417.91,-452.81"/>
</g>
<!-- Node6&#45;&gt;Node3 -->
<g id="edge6" class="edge">
<title>Node6&#45;&gt;Node3</title>
<path fill="none" stroke="midnightblue" d="M372.75,-520.86C379.78,-517.48 386.36,-513.26 392,-508 428.08,-474.35 391.63,-436.34 428,-403 429.94,-401.22 432.02,-399.6 434.22,-398.13"/>
<polygon fill="midnightblue" stroke="midnightblue" points="436.12,-401.07 443.13,-393.14 432.7,-394.96 436.12,-401.07"/>
</g>
<!-- Node7 -->
<g id="node7" class="node">
<title>Node7</title>
<g id="a_node7"><a xlink:href="classJoyButton.html#a8f39bf2962ca3e935c6cd6ea248e0f54" target="_top" xlink:title=" ">
<polygon fill="white" stroke="black" points="429,-526.5 429,-545.5 582,-545.5 582,-526.5 429,-526.5"/>
<text text-anchor="middle" x="505.5" y="-533.5" font-family="Helvetica,sans-Serif" font-size="10.00">JoyButton::getWheelSpeedX</text>
</a>
</g>
</g>
<!-- Node6&#45;&gt;Node7 -->
<g id="edge7" class="edge">
<title>Node6&#45;&gt;Node7</title>
<path fill="none" stroke="midnightblue" d="M372.7,-534.74C387.57,-534.89 403.22,-535.04 418.32,-535.18"/>
<polygon fill="midnightblue" stroke="midnightblue" points="418.65,-538.68 428.68,-535.28 418.71,-531.68 418.65,-538.68"/>
</g>
<!-- Node8 -->
<g id="node8" class="node">
<title>Node8</title>
<g id="a_node8"><a xlink:href="classJoyButton.html#afea7d93cb110917ab2721204338f6b7c" target="_top" xlink:title=" ">
<polygon fill="white" stroke="black" points="429.5,-564.5 429.5,-583.5 581.5,-583.5 581.5,-564.5 429.5,-564.5"/>
<text text-anchor="middle" x="505.5" y="-571.5" font-family="Helvetica,sans-Serif" font-size="10.00">JoyButton::getWheelSpeedY</text>
</a>
</g>
</g>
<!-- Node6&#45;&gt;Node8 -->
<g id="edge8" class="edge">
<title>Node6&#45;&gt;Node8</title>
<path fill="none" stroke="midnightblue" d="M372.7,-548.89C396.46,-553.42 422.19,-558.32 444.55,-562.58"/>
<polygon fill="midnightblue" stroke="midnightblue" points="444.09,-566.06 454.57,-564.49 445.4,-559.18 444.09,-566.06"/>
</g>
<!-- Node10 -->
<g id="node10" class="node">
<title>Node10</title>
<g id="a_node10"><a xlink:href="classMouseSettingsDialog.html#a7adbe7521ee56d97cf8c38efc39f4b6c" target="_top" xlink:title=" ">
<polygon fill="white" stroke="black" points="435,-229 435,-259 576,-259 576,-229 435,-229"/>
<text text-anchor="start" x="443" y="-247" font-family="Helvetica,sans-Serif" font-size="10.00">MouseSettingsDialog</text>
<text text-anchor="middle" x="505.5" y="-236" font-family="Helvetica,sans-Serif" font-size="10.00">::getMouseCurveForIndex</text>
</a>
</g>
</g>
<!-- Node9&#45;&gt;Node10 -->
<g id="edge10" class="edge">
<title>Node9&#45;&gt;Node10</title>
<path fill="none" stroke="midnightblue" d="M375.09,-240.3C391.22,-240.76 408.16,-241.25 424.28,-241.71"/>
<polygon fill="midnightblue" stroke="midnightblue" points="424.64,-245.22 434.74,-242.01 424.84,-238.22 424.64,-245.22"/>
</g>
<!-- Node11&#45;&gt;Node3 -->
<g id="edge12" class="edge">
<title>Node11&#45;&gt;Node3</title>
<path fill="none" stroke="midnightblue" d="M376.42,-467.93C381.92,-465.4 387.18,-462.45 392,-459 416.07,-441.8 403.94,-420.23 428,-403 430.73,-401.05 433.63,-399.3 436.66,-397.72"/>
<polygon fill="midnightblue" stroke="midnightblue" points="438.34,-400.8 446.03,-393.52 435.47,-394.42 438.34,-400.8"/>
</g>
<!-- Node12 -->
<g id="node12" class="node">
<title>Node12</title>
<g id="a_node12"><a xlink:href="classJoyButton.html#aefd93c829a4c316a3b1e11dd8499f9ed" target="_top" xlink:title=" ">
<polygon fill="white" stroke="black" points="428.5,-488.5 428.5,-507.5 582.5,-507.5 582.5,-488.5 428.5,-488.5"/>
<text text-anchor="middle" x="505.5" y="-495.5" font-family="Helvetica,sans-Serif" font-size="10.00">JoyButton::setMouseSpeedX</text>
</a>
</g>
</g>
<!-- Node11&#45;&gt;Node12 -->
<g id="edge13" class="edge">
<title>Node11&#45;&gt;Node12</title>
<path fill="none" stroke="midnightblue" d="M377.2,-488.91C390.64,-489.87 404.6,-490.86 418.13,-491.83"/>
<polygon fill="midnightblue" stroke="midnightblue" points="418.15,-495.34 428.38,-492.56 418.65,-488.36 418.15,-495.34"/>
</g>
<!-- Node13&#45;&gt;Node3 -->
<g id="edge15" class="edge">
<title>Node13&#45;&gt;Node3</title>
<path fill="none" stroke="midnightblue" d="M370.61,-384.64C391.1,-384.54 413.17,-384.43 433.37,-384.34"/>
<polygon fill="midnightblue" stroke="midnightblue" points="433.45,-387.84 443.44,-384.29 433.42,-380.84 433.45,-387.84"/>
</g>
<!-- Node14 -->
<g id="node14" class="node">
<title>Node14</title>
<g id="a_node14"><a xlink:href="classJoyButton.html#a89f7b0307899674a9d36ba8d2a56f95c" target="_top" xlink:title=" ">
<polygon fill="white" stroke="black" points="429,-336.5 429,-355.5 582,-355.5 582,-336.5 429,-336.5"/>
<text text-anchor="middle" x="505.5" y="-343.5" font-family="Helvetica,sans-Serif" font-size="10.00">JoyButton::setMouseSpeedY</text>
</a>
</g>
</g>
<!-- Node13&#45;&gt;Node14 -->
<g id="edge16" class="edge">
<title>Node13&#45;&gt;Node14</title>
<path fill="none" stroke="midnightblue" d="M370.61,-370.86C394.54,-366.42 420.63,-361.58 443.38,-357.35"/>
<polygon fill="midnightblue" stroke="midnightblue" points="444.05,-360.79 453.24,-355.52 442.77,-353.9 444.05,-360.79"/>
</g>
<!-- Node15&#45;&gt;Node3 -->
<g id="edge18" class="edge">
<title>Node15&#45;&gt;Node3</title>
<path fill="none" stroke="midnightblue" d="M360.37,-351.06C390.15,-357.86 424.83,-365.79 452.71,-372.16"/>
<polygon fill="midnightblue" stroke="midnightblue" points="452.13,-375.62 462.66,-374.44 453.69,-368.8 452.13,-375.62"/>
</g>
<!-- Node16 -->
<g id="node16" class="node">
<title>Node16</title>
<g id="a_node16"><a xlink:href="classJoyButton.html#a7f76ad6c68868cd464b66b5963689332" target="_top" xlink:title=" ">
<polygon fill="white" stroke="black" points="432.5,-291.5 432.5,-310.5 578.5,-310.5 578.5,-291.5 432.5,-291.5"/>
<text text-anchor="middle" x="505.5" y="-298.5" font-family="Helvetica,sans-Serif" font-size="10.00">JoyButton::setWheelSpeed</text>
</a>
</g>
</g>
<!-- Node15&#45;&gt;Node16 -->
<g id="edge19" class="edge">
<title>Node15&#45;&gt;Node16</title>
<path fill="none" stroke="midnightblue" d="M384.78,-320.95C402.36,-318.02 420.51,-315 437.19,-312.22"/>
<polygon fill="midnightblue" stroke="midnightblue" points="438.08,-315.62 447.37,-310.52 436.93,-308.71 438.08,-315.62"/>
</g>
<!-- Node17&#45;&gt;Node3 -->
<g id="edge21" class="edge">
<title>Node17&#45;&gt;Node3</title>
<path fill="none" stroke="midnightblue" d="M374.37,-302.2C380.6,-304.95 386.57,-308.18 392,-312 415.3,-328.37 404.64,-348.72 428,-365 430.89,-367.02 433.98,-368.82 437.19,-370.43"/>
<polygon fill="midnightblue" stroke="midnightblue" points="435.95,-373.71 446.52,-374.49 438.75,-367.29 435.95,-373.71"/>
</g>
<!-- Node17&#45;&gt;Node16 -->
<g id="edge22" class="edge">
<title>Node17&#45;&gt;Node16</title>
<path fill="none" stroke="midnightblue" d="M385.69,-293.08C397.89,-293.89 410.33,-294.72 422.36,-295.52"/>
<polygon fill="midnightblue" stroke="midnightblue" points="422.13,-299.02 432.35,-296.19 422.6,-292.03 422.13,-299.02"/>
</g>
<!-- Node19 -->
<g id="node19" class="node">
<title>Node19</title>
<g id="a_node19"><a xlink:href="classSetJoystick.html#a3a7ae87b62fac9deace237039cb5ea85" target="_top" xlink:title=" ">
<polygon fill="white" stroke="black" points="446,-76.5 446,-95.5 565,-95.5 565,-76.5 446,-76.5"/>
<text text-anchor="middle" x="505.5" y="-83.5" font-family="Helvetica,sans-Serif" font-size="10.00">SetJoystick::getIndex</text>
</a>
</g>
</g>
<!-- Node18&#45;&gt;Node19 -->
<g id="edge24" class="edge">
<title>Node18&#45;&gt;Node19</title>
<path fill="none" stroke="midnightblue" d="M377.5,-108.98C398.98,-105.09 421.74,-100.98 441.97,-97.31"/>
<polygon fill="midnightblue" stroke="midnightblue" points="442.78,-100.73 451.99,-95.5 441.53,-93.84 442.78,-100.73"/>
</g>
<!-- Node20 -->
<g id="node20" class="node">
<title>Node20</title>
<g id="a_node20"><a xlink:href="classSetJoystick.html#a102a4bbc464b9dfc5a8227c0fb4611c8" target="_top" xlink:title=" ">
<polygon fill="white" stroke="black" points="444.5,-38.5 444.5,-57.5 566.5,-57.5 566.5,-38.5 444.5,-38.5"/>
<text text-anchor="middle" x="505.5" y="-45.5" font-family="Helvetica,sans-Serif" font-size="10.00">SetJoystick::getName</text>
</a>
</g>
</g>
<!-- Node18&#45;&gt;Node20 -->
<g id="edge25" class="edge">
<title>Node18&#45;&gt;Node20</title>
<path fill="none" stroke="midnightblue" d="M325.78,-108.96C352.49,-96.52 392.16,-79.02 428,-67 435.39,-64.52 443.28,-62.21 451.08,-60.1"/>
<polygon fill="midnightblue" stroke="midnightblue" points="452.07,-63.46 460.86,-57.56 450.3,-56.69 452.07,-63.46"/>
</g>
<!-- Node21 -->
<g id="node21" class="node">
<title>Node21</title>
<g id="a_node21"><a xlink:href="classJoySensor.html#a16cfaa1a8dd4daeb043b91a4f8f4d020" target="_top" xlink:title="Get pointer to the set that a sensor belongs to.">
<polygon fill="white" stroke="black" points="439,-0.5 439,-19.5 572,-19.5 572,-0.5 439,-0.5"/>
<text text-anchor="middle" x="505.5" y="-7.5" font-family="Helvetica,sans-Serif" font-size="10.00">JoySensor::getParentSet</text>
</a>
</g>
</g>
<!-- Node18&#45;&gt;Node21 -->
<g id="edge26" class="edge">
<title>Node18&#45;&gt;Node21</title>
<path fill="none" stroke="midnightblue" d="M311.32,-108.81C335.42,-87.82 382,-50.15 428,-29 433.34,-26.55 439.03,-24.38 444.82,-22.48"/>
<polygon fill="midnightblue" stroke="midnightblue" points="446.04,-25.76 454.6,-19.51 444.01,-19.06 446.04,-25.76"/>
</g>
<!-- Node22 -->
<g id="node22" class="node">
<title>Node22</title>
<g id="a_node22"><a xlink:href="classJoySensor.html#ad06f47ea3f0d796b838ae74d4f913b25" target="_top" xlink:title="Get the name of this sensor.">
<polygon fill="white" stroke="black" points="432.5,-190.5 432.5,-209.5 578.5,-209.5 578.5,-190.5 432.5,-190.5"/>
<text text-anchor="middle" x="505.5" y="-197.5" font-family="Helvetica,sans-Serif" font-size="10.00">JoySensor::getPartialName</text>
</a>
</g>
</g>
<!-- Node18&#45;&gt;Node22 -->
<g id="edge27" class="edge">
<title>Node18&#45;&gt;Node22</title>
<path fill="none" stroke="midnightblue" d="M325.78,-139.04C352.49,-151.48 392.16,-168.98 428,-181 435.39,-183.48 443.28,-185.79 451.08,-187.9"/>
<polygon fill="midnightblue" stroke="midnightblue" points="450.3,-191.31 460.86,-190.44 452.07,-184.54 450.3,-191.31"/>
</g>
<!-- Node24 -->
<g id="node24" class="node">
<title>Node24</title>
<g id="a_node24"><a xlink:href="classSetJoystick.html#a00ecd09902d11bbfe7e6e82ad25ae456" target="_top" xlink:title=" ">
<polygon fill="white" stroke="black" points="435,-152.5 435,-171.5 576,-171.5 576,-152.5 435,-152.5"/>
<text text-anchor="middle" x="505.5" y="-159.5" font-family="Helvetica,sans-Serif" font-size="10.00">SetJoystick::getRealIndex</text>
</a>
</g>
</g>
<!-- Node18&#45;&gt;Node24 -->
<g id="edge29" class="edge">
<title>Node18&#45;&gt;Node24</title>
<path fill="none" stroke="midnightblue" d="M377.5,-139.02C398.98,-142.91 421.74,-147.02 441.97,-150.69"/>
<polygon fill="midnightblue" stroke="midnightblue" points="441.53,-154.16 451.99,-152.5 442.78,-147.27 441.53,-154.16"/>
</g>
<!-- Node25 -->
<g id="node25" class="node">
<title>Node25</title>
<g id="a_node25"><a xlink:href="classJoySensor.html#a392b664e69bc7975935d4f4bb8e91ec7" target="_top" xlink:title="Returns the sensor name.">
<polygon fill="white" stroke="black" points="431,-114.5 431,-133.5 580,-133.5 580,-114.5 431,-114.5"/>
<text text-anchor="middle" x="505.5" y="-121.5" font-family="Helvetica,sans-Serif" font-size="10.00">JoySensor::getSensorName</text>
</a>
</g>
</g>
<!-- Node18&#45;&gt;Node25 -->
<g id="edge30" class="edge">
<title>Node18&#45;&gt;Node25</title>
<path fill="none" stroke="midnightblue" d="M383.25,-124C395.67,-124 408.4,-124 420.72,-124"/>
<polygon fill="midnightblue" stroke="midnightblue" points="420.96,-127.5 430.96,-124 420.96,-120.5 420.96,-127.5"/>
</g>
<!-- Node23 -->
<g id="node23" class="node">
<title>Node23</title>
<g id="a_node23"><a xlink:href="classJoySensor.html#ab87d04540552c4a31eebfb656357838e" target="_top" xlink:title=" ">
<polygon fill="white" stroke="black" points="619,-190.5 619,-209.5 774,-209.5 774,-190.5 619,-190.5"/>
<text text-anchor="middle" x="696.5" y="-197.5" font-family="Helvetica,sans-Serif" font-size="10.00">JoySensor::sensorTypeName</text>
</a>
</g>
</g>
<!-- Node22&#45;&gt;Node23 -->
<g id="edge28" class="edge">
<title>Node22&#45;&gt;Node23</title>
<path fill="none" stroke="midnightblue" d="M578.76,-200C588.61,-200 598.8,-200 608.87,-200"/>
<polygon fill="midnightblue" stroke="midnightblue" points="608.88,-203.5 618.88,-200 608.88,-196.5 608.88,-203.5"/>
</g>
</g>
</svg>
