<?xml version="1.0" encoding="UTF-8" standalone="no"?>
<!DOCTYPE svg PUBLIC "-//W3C//DTD SVG 1.1//EN"
 "http://www.w3.org/Graphics/SVG/1.1/DTD/svg11.dtd">
<!-- Generated by graphviz version 2.43.0 (0)
 -->
<!-- Title: JoySensorStatusBox Pages: 1 -->
<svg width="1198pt" height="831pt"
 viewBox="0.00 0.00 1197.60 831.00" xmlns="http://www.w3.org/2000/svg" xmlns:xlink="http://www.w3.org/1999/xlink">
<g id="graph0" class="graph" transform="scale(1 1) rotate(0) translate(4 827)">
<title>JoySensorStatusBox</title>
<polygon fill="white" stroke="transparent" points="-4,4 -4,-827 1193.6,-827 1193.6,4 -4,4"/>
<!-- Node1 -->
<g id="node1" class="node">
<title>Node1</title>
<g id="a_node1"><a xlink:title="The GUI sensor position indicator widget.">
<polygon fill="#bfbfbf" stroke="black" points="366,-134.5 366,-153.5 480,-153.5 480,-134.5 366,-134.5"/>
<text text-anchor="middle" x="423" y="-141.5" font-family="Helvetica,sans-Serif" font-size="10.00">JoySensorStatusBox</text>
</a>
</g>
</g>
<!-- Node2 -->
<g id="node2" class="node">
<title>Node2</title>
<g id="a_node2"><a xlink:title=" ">
<polygon fill="white" stroke="#bfbfbf" points="366.5,-201.5 366.5,-220.5 425.5,-220.5 425.5,-201.5 366.5,-201.5"/>
<text text-anchor="middle" x="396" y="-208.5" font-family="Helvetica,sans-Serif" font-size="10.00">QWidget</text>
</a>
</g>
</g>
<!-- Node2&#45;&gt;Node1 -->
<g id="edge1" class="edge">
<title>Node2&#45;&gt;Node1</title>
<path fill="none" stroke="midnightblue" d="M403.56,-191.79C408.75,-179.31 415.39,-163.31 419.42,-153.63"/>
<polygon fill="midnightblue" stroke="midnightblue" points="400.25,-190.66 399.64,-201.23 406.71,-193.34 400.25,-190.66"/>
</g>
<!-- Node3 -->
<g id="node3" class="node">
<title>Node3</title>
<g id="a_node3"><a xlink:href="classJoySensor.html" target="_top" xlink:title="Represents one sensor in a SetJoystick and its connections to other parts of the application....">
<polygon fill="white" stroke="black" points="568.5,-201.5 568.5,-220.5 633.5,-220.5 633.5,-201.5 568.5,-201.5"/>
<text text-anchor="middle" x="601" y="-208.5" font-family="Helvetica,sans-Serif" font-size="10.00">JoySensor</text>
</a>
</g>
</g>
<!-- Node3&#45;&gt;Node1 -->
<g id="edge2" class="edge">
<title>Node3&#45;&gt;Node1</title>
<path fill="none" stroke="#9a32cd" stroke-dasharray="5,2" d="M558.22,-204.98C533.7,-201.06 502.77,-194.32 477,-183 460,-175.53 442.89,-162.3 432.62,-153.59"/>
<polygon fill="#9a32cd" stroke="#9a32cd" points="557.9,-208.47 568.31,-206.49 558.93,-201.55 557.9,-208.47"/>
<text text-anchor="middle" x="502.5" y="-175" font-family="Helvetica,sans-Serif" font-size="10.00"> m_sensor</text>
</g>
<!-- Node26 -->
<g id="node26" class="node">
<title>Node26</title>
<g id="a_node26"><a xlink:href="classJoySensorButton.html" target="_top" xlink:title="Represents a sensor mapping in a SetJoystick.">
<polygon fill="white" stroke="black" points="498.5,-134.5 498.5,-153.5 595.5,-153.5 595.5,-134.5 498.5,-134.5"/>
<text text-anchor="middle" x="547" y="-141.5" font-family="Helvetica,sans-Serif" font-size="10.00">JoySensorButton</text>
</a>
</g>
</g>
<!-- Node3&#45;&gt;Node26 -->
<g id="edge49" class="edge">
<title>Node3&#45;&gt;Node26</title>
<path fill="none" stroke="#9a32cd" stroke-dasharray="5,2" d="M558.63,-201.53C548.97,-197.53 539.84,-191.65 534,-183 527.91,-173.99 534.07,-161.85 539.81,-153.74"/>
<polygon fill="#9a32cd" stroke="#9a32cd" points="557.77,-204.94 568.36,-204.93 560.08,-198.33 557.77,-204.94"/>
<text text-anchor="middle" x="559.5" y="-175" font-family="Helvetica,sans-Serif" font-size="10.00"> m_sensor</text>
</g>
<!-- Node4 -->
<g id="node4" class="node">
<title>Node4</title>
<g id="a_node4"><a xlink:title=" ">
<polygon fill="white" stroke="#bfbfbf" points="573,-746.5 573,-765.5 629,-765.5 629,-746.5 573,-746.5"/>
<text text-anchor="middle" x="601" y="-753.5" font-family="Helvetica,sans-Serif" font-size="10.00">QObject</text>
</a>
</g>
</g>
<!-- Node4&#45;&gt;Node3 -->
<g id="edge3" class="edge">
<title>Node4&#45;&gt;Node3</title>
<path fill="none" stroke="midnightblue" d="M601,-736.13C601,-723.16 601,-705.54 601,-690 601,-690 601,-690 601,-333 601,-290.78 601,-240.26 601,-220.51"/>
<polygon fill="midnightblue" stroke="midnightblue" points="597.5,-736.17 601,-746.17 604.5,-736.17 597.5,-736.17"/>
</g>
<!-- Node6 -->
<g id="node6" class="node">
<title>Node6</title>
<g id="a_node6"><a xlink:href="classSetJoystickXml.html" target="_top" xlink:title="SetJoystick XML serialization/deserialization helper class Reads data from the supplied SetJoystick o...">
<polygon fill="white" stroke="black" points="687,-447.5 687,-466.5 777,-466.5 777,-447.5 687,-447.5"/>
<text text-anchor="middle" x="732" y="-454.5" font-family="Helvetica,sans-Serif" font-size="10.00">SetJoystickXml</text>
</a>
</g>
</g>
<!-- Node4&#45;&gt;Node6 -->
<g id="edge6" class="edge">
<title>Node4&#45;&gt;Node6</title>
<path fill="none" stroke="midnightblue" d="M617.03,-738.69C627.41,-726.37 639,-708.48 639,-690 639,-690 639,-690 639,-523 639,-492.96 672,-475.64 698.69,-466.55"/>
<polygon fill="midnightblue" stroke="midnightblue" points="614.3,-736.5 610.2,-746.27 619.5,-741.19 614.3,-736.5"/>
</g>
<!-- Node7 -->
<g id="node7" class="node">
<title>Node7</title>
<g id="a_node7"><a xlink:href="classJoyAxisXml.html" target="_top" xlink:title=" ">
<polygon fill="white" stroke="black" points="696,-514.5 696,-533.5 768,-533.5 768,-514.5 696,-514.5"/>
<text text-anchor="middle" x="732" y="-521.5" font-family="Helvetica,sans-Serif" font-size="10.00">JoyAxisXml</text>
</a>
</g>
</g>
<!-- Node4&#45;&gt;Node7 -->
<g id="edge9" class="edge">
<title>Node4&#45;&gt;Node7</title>
<path fill="none" stroke="midnightblue" d="M634.97,-741.89C641.58,-738.17 648,-733.57 653,-728 707.57,-667.21 726.29,-564.49 730.81,-533.87"/>
<polygon fill="midnightblue" stroke="midnightblue" points="633.31,-738.81 625.95,-746.44 636.46,-745.06 633.31,-738.81"/>
</g>
<!-- Node8 -->
<g id="node8" class="node">
<title>Node8</title>
<g id="a_node8"><a xlink:href="classJoyAxis.html" target="_top" xlink:title="Represents single axis of of joystick (or other input)">
<polygon fill="white" stroke="black" points="780.5,-590.5 780.5,-609.5 833.5,-609.5 833.5,-590.5 780.5,-590.5"/>
<text text-anchor="middle" x="807" y="-597.5" font-family="Helvetica,sans-Serif" font-size="10.00">JoyAxis</text>
</a>
</g>
</g>
<!-- Node4&#45;&gt;Node8 -->
<g id="edge11" class="edge">
<title>Node4&#45;&gt;Node8</title>
<path fill="none" stroke="midnightblue" d="M639.09,-751.4C656.79,-747.93 676.98,-741.16 691,-728 725.55,-695.56 694.07,-661.09 728,-628 742.01,-614.34 763.21,-607.58 780.13,-604.24"/>
<polygon fill="midnightblue" stroke="midnightblue" points="638.3,-747.98 629.02,-753.08 639.46,-754.88 638.3,-747.98"/>
</g>
<!-- Node11 -->
<g id="node11" class="node">
<title>Node11</title>
<g id="a_node11"><a xlink:href="classJoyButton.html" target="_top" xlink:title="Represents a single joystick button being part of a SetJoystick Contains multiple JoyButtonSlots whic...">
<polygon fill="white" stroke="black" points="287,-67.5 287,-86.5 351,-86.5 351,-67.5 287,-67.5"/>
<text text-anchor="middle" x="319" y="-74.5" font-family="Helvetica,sans-Serif" font-size="10.00">JoyButton</text>
</a>
</g>
</g>
<!-- Node4&#45;&gt;Node11 -->
<g id="edge16" class="edge">
<title>Node4&#45;&gt;Node11</title>
<path fill="none" stroke="midnightblue" d="M584.7,-739.29C554.51,-709.38 489.57,-641.05 452,-572 441.14,-552.05 332.52,-204.76 326,-183 315.95,-149.46 312.43,-139.92 315,-105 315.45,-98.95 316.45,-92.2 317.33,-86.96"/>
<polygon fill="midnightblue" stroke="midnightblue" points="582.32,-741.87 591.92,-746.37 587.22,-736.87 582.32,-741.87"/>
</g>
<!-- Node12 -->
<g id="node12" class="node">
<title>Node12</title>
<g id="a_node12"><a xlink:href="classJoyButtonMouseHelper.html" target="_top" xlink:title=" ">
<polygon fill="white" stroke="black" points="110,-635 110,-654 238,-654 238,-635 110,-635"/>
<text text-anchor="middle" x="174" y="-642" font-family="Helvetica,sans-Serif" font-size="10.00">JoyButtonMouseHelper</text>
</a>
</g>
</g>
<!-- Node4&#45;&gt;Node12 -->
<g id="edge18" class="edge">
<title>Node4&#45;&gt;Node12</title>
<path fill="none" stroke="midnightblue" d="M562.9,-750.9C525.31,-746.52 466.35,-738.71 416,-728 369.48,-718.1 358.13,-714 313,-699 270.3,-684.81 221.43,-665.19 194.51,-654.08"/>
<polygon fill="midnightblue" stroke="midnightblue" points="562.57,-754.39 572.91,-752.05 563.37,-747.43 562.57,-754.39"/>
</g>
<!-- Node13 -->
<g id="node13" class="node">
<title>Node13</title>
<g id="a_node13"><a xlink:href="classJoyButtonSlot.html" target="_top" xlink:title="Represents action which can be performed after pressing button.">
<polygon fill="white" stroke="black" points="502.5,-552.5 502.5,-571.5 585.5,-571.5 585.5,-552.5 502.5,-552.5"/>
<text text-anchor="middle" x="544" y="-559.5" font-family="Helvetica,sans-Serif" font-size="10.00">JoyButtonSlot</text>
</a>
</g>
</g>
<!-- Node4&#45;&gt;Node13 -->
<g id="edge20" class="edge">
<title>Node4&#45;&gt;Node13</title>
<path fill="none" stroke="midnightblue" d="M591.09,-737.25C589.6,-734.22 588.17,-731.06 587,-728 564.82,-670.24 550.2,-596.82 545.57,-571.8"/>
<polygon fill="midnightblue" stroke="midnightblue" points="588.06,-739.01 595.82,-746.23 594.26,-735.75 588.06,-739.01"/>
</g>
<!-- Node15 -->
<g id="node15" class="node">
<title>Node15</title>
<g id="a_node15"><a xlink:href="classJoyDPad.html" target="_top" xlink:title=" ">
<polygon fill="white" stroke="black" points="801,-201.5 801,-220.5 857,-220.5 857,-201.5 801,-201.5"/>
<text text-anchor="middle" x="829" y="-208.5" font-family="Helvetica,sans-Serif" font-size="10.00">JoyDPad</text>
</a>
</g>
</g>
<!-- Node4&#45;&gt;Node15 -->
<g id="edge23" class="edge">
<title>Node4&#45;&gt;Node15</title>
<path fill="none" stroke="midnightblue" d="M639.13,-747.93C700.05,-736.43 816.47,-713.47 856,-699 889.98,-686.56 905.9,-689.65 928,-661 944.73,-639.32 942,-628.38 942,-601 942,-601 942,-601 942,-333 942,-285.89 927.64,-270.93 893,-239 882.98,-229.76 869.34,-223.42 857.22,-219.22"/>
<polygon fill="midnightblue" stroke="midnightblue" points="638.33,-744.52 629.14,-749.81 639.62,-751.4 638.33,-744.52"/>
</g>
<!-- Node17 -->
<g id="node17" class="node">
<title>Node17</title>
<g id="a_node17"><a xlink:href="classJoyControlStick.html" target="_top" xlink:title="Represents stick of a joystick.">
<polygon fill="white" stroke="black" points="918.5,-679.5 918.5,-698.5 1009.5,-698.5 1009.5,-679.5 918.5,-679.5"/>
<text text-anchor="middle" x="964" y="-686.5" font-family="Helvetica,sans-Serif" font-size="10.00">JoyControlStick</text>
</a>
</g>
</g>
<!-- Node4&#45;&gt;Node17 -->
<g id="edge30" class="edge">
<title>Node4&#45;&gt;Node17</title>
<path fill="none" stroke="midnightblue" d="M639.42,-750.5C678.28,-745.74 740.02,-737.6 793,-728 840.58,-719.38 895.02,-706.81 929.45,-698.52"/>
<polygon fill="midnightblue" stroke="midnightblue" points="638.6,-747.08 629.09,-751.75 639.44,-754.03 638.6,-747.08"/>
</g>
<!-- Node21 -->
<g id="node21" class="node">
<title>Node21</title>
<g id="a_node21"><a xlink:href="classJoyButtonXml.html" target="_top" xlink:title=" ">
<polygon fill="white" stroke="black" points="277.5,-0.5 277.5,-19.5 360.5,-19.5 360.5,-0.5 277.5,-0.5"/>
<text text-anchor="middle" x="319" y="-7.5" font-family="Helvetica,sans-Serif" font-size="10.00">JoyButtonXml</text>
</a>
</g>
</g>
<!-- Node4&#45;&gt;Node21 -->
<g id="edge39" class="edge">
<title>Node4&#45;&gt;Node21</title>
<path fill="none" stroke="midnightblue" d="M562.48,-752.18C515.9,-748.39 435.27,-740.64 367,-728 342.27,-723.42 110.23,-662.27 109,-661 89.9,-641.38 95,-628.38 95,-601 95,-601 95,-601 95,-76 95,-38.44 212.61,-21.19 277.39,-14.53"/>
<polygon fill="midnightblue" stroke="midnightblue" points="562.47,-755.69 572.72,-752.99 563.03,-748.71 562.47,-755.69"/>
</g>
<!-- Node22 -->
<g id="node22" class="node">
<title>Node22</title>
<g id="a_node22"><a xlink:href="classInputDevice.html" target="_top" xlink:title="Abstract class representing a hardware input device, e.g a joystick or controller.">
<polygon fill="white" stroke="black" points="322.5,-679.5 322.5,-698.5 397.5,-698.5 397.5,-679.5 322.5,-679.5"/>
<text text-anchor="middle" x="360" y="-686.5" font-family="Helvetica,sans-Serif" font-size="10.00">InputDevice</text>
</a>
</g>
</g>
<!-- Node4&#45;&gt;Node22 -->
<g id="edge42" class="edge">
<title>Node4&#45;&gt;Node22</title>
<path fill="none" stroke="midnightblue" d="M562.82,-750.56C531.96,-746.41 487.62,-739.15 450,-728 423.82,-720.24 394.97,-707.21 377.17,-698.61"/>
<polygon fill="midnightblue" stroke="midnightblue" points="562.37,-754.04 572.74,-751.86 563.27,-747.09 562.37,-754.04"/>
</g>
<!-- Node5 -->
<g id="node5" class="node">
<title>Node5</title>
<g id="a_node5"><a xlink:href="classSetJoystick.html" target="_top" xlink:title="A set of mapped events which can by switched by a controller event. Contains controller input objects...">
<polygon fill="white" stroke="black" points="769.5,-324.5 769.5,-343.5 840.5,-343.5 840.5,-324.5 769.5,-324.5"/>
<text text-anchor="middle" x="805" y="-331.5" font-family="Helvetica,sans-Serif" font-size="10.00">SetJoystick</text>
</a>
</g>
</g>
<!-- Node5&#45;&gt;Node3 -->
<g id="edge4" class="edge">
<title>Node5&#45;&gt;Node3</title>
<path fill="none" stroke="#9a32cd" stroke-dasharray="5,2" d="M781.89,-319.29C739.53,-294.17 650.61,-241.42 615.6,-220.66"/>
<polygon fill="#9a32cd" stroke="#9a32cd" points="780.27,-322.4 790.66,-324.49 783.84,-316.38 780.27,-322.4"/>
<text text-anchor="middle" x="697" y="-242" font-family="Helvetica,sans-Serif" font-size="10.00"> m_parent_set</text>
</g>
<!-- Node5&#45;&gt;Node6 -->
<g id="edge7" class="edge">
<title>Node5&#45;&gt;Node6</title>
<path fill="none" stroke="#9a32cd" stroke-dasharray="5,2" d="M791.15,-351.64C778.19,-367.82 758.95,-393.46 746,-418 740.95,-427.58 736.91,-439.38 734.49,-447.27"/>
<polygon fill="#9a32cd" stroke="#9a32cd" points="794.02,-353.66 797.62,-343.7 788.59,-349.24 794.02,-353.66"/>
<text text-anchor="middle" x="782" y="-421" font-family="Helvetica,sans-Serif" font-size="10.00"> m_setJoystick</text>
</g>
<!-- Node5&#45;&gt;Node8 -->
<g id="edge12" class="edge">
<title>Node5&#45;&gt;Node8</title>
<path fill="none" stroke="#9a32cd" stroke-dasharray="5,2" d="M814.4,-352.85C822.47,-369.26 833.51,-394.54 838,-418 850.87,-485.22 865.06,-509.57 837,-572 833.61,-579.54 826.97,-585.87 820.8,-590.5"/>
<polygon fill="#9a32cd" stroke="#9a32cd" points="817.49,-351.2 809.84,-343.87 811.24,-354.37 817.49,-351.2"/>
<text text-anchor="middle" x="885" y="-488" font-family="Helvetica,sans-Serif" font-size="10.00"> m_parentSet</text>
</g>
<!-- Node5&#45;&gt;Node15 -->
<g id="edge24" class="edge">
<title>Node5&#45;&gt;Node15</title>
<path fill="none" stroke="#9a32cd" stroke-dasharray="5,2" d="M808.7,-314.35C813.97,-287.77 823.43,-240.08 827.29,-220.62"/>
<polygon fill="#9a32cd" stroke="#9a32cd" points="805.24,-313.81 806.73,-324.3 812.1,-315.17 805.24,-313.81"/>
<text text-anchor="middle" x="856" y="-242" font-family="Helvetica,sans-Serif" font-size="10.00"> m_parentSet</text>
</g>
<!-- Node6&#45;&gt;Node5 -->
<g id="edge5" class="edge">
<title>Node6&#45;&gt;Node5</title>
<path fill="none" stroke="midnightblue" d="M787.23,-451C800.69,-447.01 813.62,-440.27 822,-429 841.5,-402.79 820.92,-361.25 810.4,-343.5"/>
<polygon fill="midnightblue" stroke="midnightblue" points="786.25,-447.63 777.39,-453.44 787.93,-454.43 786.25,-447.63"/>
</g>
<!-- Node7&#45;&gt;Node6 -->
<g id="edge8" class="edge">
<title>Node7&#45;&gt;Node6</title>
<path fill="none" stroke="#9a32cd" stroke-dasharray="5,2" d="M732,-504.04C732,-491.67 732,-476.12 732,-466.63"/>
<polygon fill="#9a32cd" stroke="#9a32cd" points="728.5,-504.23 732,-514.23 735.5,-504.23 728.5,-504.23"/>
<text text-anchor="middle" x="761.5" y="-488" font-family="Helvetica,sans-Serif" font-size="10.00"> joyAxisXml</text>
</g>
<!-- Node8&#45;&gt;Node7 -->
<g id="edge10" class="edge">
<title>Node8&#45;&gt;Node7</title>
<path fill="none" stroke="#9a32cd" stroke-dasharray="5,2" d="M790.85,-583.06C775.56,-567.98 753.17,-545.89 740.89,-533.77"/>
<polygon fill="#9a32cd" stroke="#9a32cd" points="788.53,-585.69 798.1,-590.22 793.44,-580.71 788.53,-585.69"/>
<text text-anchor="middle" x="805.5" y="-559.5" font-family="Helvetica,sans-Serif" font-size="10.00"> m_joyAxis</text>
</g>
<!-- Node9 -->
<g id="node9" class="node">
<title>Node9</title>
<g id="a_node9"><a xlink:href="classJoyAxisButton.html" target="_top" xlink:title=" ">
<polygon fill="white" stroke="black" points="761.5,-679.5 761.5,-698.5 846.5,-698.5 846.5,-679.5 761.5,-679.5"/>
<text text-anchor="middle" x="804" y="-686.5" font-family="Helvetica,sans-Serif" font-size="10.00">JoyAxisButton</text>
</a>
</g>
</g>
<!-- Node8&#45;&gt;Node9 -->
<g id="edge28" class="edge">
<title>Node8&#45;&gt;Node9</title>
<path fill="none" stroke="#9a32cd" stroke-dasharray="5,2" d="M806.35,-619.76C805.72,-638.2 804.77,-665.53 804.3,-679.34"/>
<polygon fill="#9a32cd" stroke="#9a32cd" points="809.86,-619.74 806.7,-609.62 802.86,-619.5 809.86,-619.74"/>
<text text-anchor="middle" x="825.5" y="-642" font-family="Helvetica,sans-Serif" font-size="10.00"> m_axis</text>
</g>
<!-- Node9&#45;&gt;Node8 -->
<g id="edge13" class="edge">
<title>Node9&#45;&gt;Node8</title>
<path fill="none" stroke="#9a32cd" stroke-dasharray="5,2" d="M753.09,-674.81C747.15,-671.25 741.85,-666.73 738,-661 729.82,-648.82 729.73,-640.11 738,-628 747.43,-614.19 765.07,-607.44 780.16,-604.15"/>
<polygon fill="#9a32cd" stroke="#9a32cd" points="751.65,-678 762.16,-679.36 754.8,-671.74 751.65,-678"/>
<text text-anchor="middle" x="769.5" y="-653" font-family="Helvetica,sans-Serif" font-size="10.00"> paxisbutton</text>
<text text-anchor="middle" x="769.5" y="-642" font-family="Helvetica,sans-Serif" font-size="10.00">activeButton</text>
<text text-anchor="middle" x="769.5" y="-631" font-family="Helvetica,sans-Serif" font-size="10.00">naxisbutton</text>
</g>
<!-- Node10 -->
<g id="node10" class="node">
<title>Node10</title>
<g id="a_node10"><a xlink:href="classJoyGradientButton.html" target="_top" xlink:title=" ">
<polygon fill="white" stroke="black" points="751,-803.5 751,-822.5 857,-822.5 857,-803.5 751,-803.5"/>
<text text-anchor="middle" x="804" y="-810.5" font-family="Helvetica,sans-Serif" font-size="10.00">JoyGradientButton</text>
</a>
</g>
</g>
<!-- Node10&#45;&gt;Node9 -->
<g id="edge14" class="edge">
<title>Node10&#45;&gt;Node9</title>
<path fill="none" stroke="midnightblue" d="M804,-793.19C804,-766.4 804,-718.31 804,-698.69"/>
<polygon fill="midnightblue" stroke="midnightblue" points="800.5,-793.23 804,-803.23 807.5,-793.23 800.5,-793.23"/>
</g>
<!-- Node19 -->
<g id="node19" class="node">
<title>Node19</title>
<g id="a_node19"><a xlink:href="classJoyControlStickModifierButton.html" target="_top" xlink:title=" ">
<polygon fill="white" stroke="black" points="832.5,-746.5 832.5,-765.5 995.5,-765.5 995.5,-746.5 832.5,-746.5"/>
<text text-anchor="middle" x="914" y="-753.5" font-family="Helvetica,sans-Serif" font-size="10.00">JoyControlStickModifierButton</text>
</a>
</g>
</g>
<!-- Node10&#45;&gt;Node19 -->
<g id="edge33" class="edge">
<title>Node10&#45;&gt;Node19</title>
<path fill="none" stroke="midnightblue" d="M830.37,-798.82C851.02,-788.49 879.14,-774.43 896.93,-765.53"/>
<polygon fill="midnightblue" stroke="midnightblue" points="828.57,-795.8 821.19,-803.41 831.7,-802.06 828.57,-795.8"/>
</g>
<!-- Node20 -->
<g id="node20" class="node">
<title>Node20</title>
<g id="a_node20"><a xlink:href="classJoyControlStickButton.html" target="_top" xlink:title=" ">
<polygon fill="white" stroke="black" points="970.5,-590.5 970.5,-609.5 1093.5,-609.5 1093.5,-590.5 970.5,-590.5"/>
<text text-anchor="middle" x="1032" y="-597.5" font-family="Helvetica,sans-Serif" font-size="10.00">JoyControlStickButton</text>
</a>
</g>
</g>
<!-- Node10&#45;&gt;Node20 -->
<g id="edge36" class="edge">
<title>Node10&#45;&gt;Node20</title>
<path fill="none" stroke="midnightblue" d="M867.21,-808.07C962.19,-801.52 1132.62,-786.98 1151,-766 1183.6,-728.79 1238.03,-761.96 1100,-628 1091.25,-619.51 1079.5,-613.59 1068.23,-609.51"/>
<polygon fill="midnightblue" stroke="midnightblue" points="866.88,-804.59 857.14,-808.76 867.36,-811.57 866.88,-804.59"/>
</g>
<!-- Node10&#45;&gt;Node26 -->
<g id="edge48" class="edge">
<title>Node10&#45;&gt;Node26</title>
<path fill="none" stroke="midnightblue" d="M740.72,-805.37C649.84,-794.5 488.97,-769.83 450,-728 401.21,-675.63 421.65,-642.62 410,-572 402.38,-525.82 405.01,-513.71 402,-467 400.6,-445.25 397.65,-439.67 400,-418 403.02,-390.18 434.88,-192.43 454,-172 460.89,-164.63 481.76,-158.24 501.98,-153.53"/>
<polygon fill="midnightblue" stroke="midnightblue" points="740.57,-808.87 750.9,-806.56 741.38,-801.92 740.57,-808.87"/>
</g>
<!-- Node11&#45;&gt;Node10 -->
<g id="edge15" class="edge">
<title>Node11&#45;&gt;Node10</title>
<path fill="none" stroke="midnightblue" d="M276.92,-84.85C202.87,-98.1 57,-130.09 57,-176.5 57,-757 57,-757 57,-757 57,-791.83 580.22,-806.88 750.88,-810.87"/>
<polygon fill="midnightblue" stroke="midnightblue" points="277.63,-88.28 286.87,-83.1 276.42,-81.38 277.63,-88.28"/>
</g>
<!-- Node16 -->
<g id="node16" class="node">
<title>Node16</title>
<g id="a_node16"><a xlink:href="classJoyDPadButton.html" target="_top" xlink:title=" ">
<polygon fill="white" stroke="black" points="784.5,-0.5 784.5,-19.5 873.5,-19.5 873.5,-0.5 784.5,-0.5"/>
<text text-anchor="middle" x="829" y="-7.5" font-family="Helvetica,sans-Serif" font-size="10.00">JoyDPadButton</text>
</a>
</g>
</g>
<!-- Node11&#45;&gt;Node16 -->
<g id="edge26" class="edge">
<title>Node11&#45;&gt;Node16</title>
<path fill="none" stroke="midnightblue" d="M361.42,-70.59C456.63,-58.46 686.65,-29.14 784.14,-16.72"/>
<polygon fill="midnightblue" stroke="midnightblue" points="360.77,-67.15 351.29,-71.88 361.65,-74.09 360.77,-67.15"/>
</g>
<!-- Node11&#45;&gt;Node21 -->
<g id="edge40" class="edge">
<title>Node11&#45;&gt;Node21</title>
<path fill="none" stroke="#9a32cd" stroke-dasharray="5,2" d="M319,-57.04C319,-44.67 319,-29.12 319,-19.63"/>
<polygon fill="#9a32cd" stroke="#9a32cd" points="315.5,-57.23 319,-67.23 322.5,-57.23 315.5,-57.23"/>
<text text-anchor="middle" x="352" y="-41" font-family="Helvetica,sans-Serif" font-size="10.00"> m_joyButton</text>
</g>
<!-- Node12&#45;&gt;Node11 -->
<g id="edge17" class="edge">
<title>Node12&#45;&gt;Node11</title>
<path fill="none" stroke="#9a32cd" stroke-dasharray="5,2" d="M176.62,-624.24C178.61,-607.96 181,-584 181,-563 181,-563 181,-563 181,-143 181,-96.39 246.23,-83.15 286.99,-79.42"/>
<polygon fill="#9a32cd" stroke="#9a32cd" points="173.09,-624.22 175.28,-634.59 180.04,-625.12 173.09,-624.22"/>
<text text-anchor="middle" x="215.5" y="-421" font-family="Helvetica,sans-Serif" font-size="10.00"> mouseHelper</text>
</g>
<!-- Node13&#45;&gt;Node11 -->
<g id="edge19" class="edge">
<title>Node13&#45;&gt;Node11</title>
<path fill="none" stroke="#9a32cd" stroke-dasharray="5,2" d="M544.86,-542.18C544.74,-533.43 543.85,-523 541,-514 523.02,-457.33 495.87,-454.01 471,-400 439.55,-331.7 472.96,-291.37 419,-239 398.41,-219.02 377.06,-241.52 357,-221 319.47,-182.61 317.89,-111.59 318.58,-86.81"/>
<polygon fill="#9a32cd" stroke="#9a32cd" points="541.36,-542.39 544.67,-552.45 548.36,-542.52 541.36,-542.39"/>
<text text-anchor="middle" x="529" y="-392" font-family="Helvetica,sans-Serif" font-size="10.00"> currentDelay</text>
<text text-anchor="middle" x="529" y="-381" font-family="Helvetica,sans-Serif" font-size="10.00">lastActiveKey</text>
<text text-anchor="middle" x="529" y="-370" font-family="Helvetica,sans-Serif" font-size="10.00">currentSetChangeSlot</text>
<text text-anchor="middle" x="529" y="-359" font-family="Helvetica,sans-Serif" font-size="10.00">currentKeyPress</text>
<text text-anchor="middle" x="529" y="-348" font-family="Helvetica,sans-Serif" font-size="10.00">currentRelease</text>
<text text-anchor="middle" x="529" y="-337" font-family="Helvetica,sans-Serif" font-size="10.00">currentCycle</text>
<text text-anchor="middle" x="529" y="-326" font-family="Helvetica,sans-Serif" font-size="10.00">previousCycle</text>
<text text-anchor="middle" x="529" y="-315" font-family="Helvetica,sans-Serif" font-size="10.00">m_currentDistance</text>
<text text-anchor="middle" x="529" y="-304" font-family="Helvetica,sans-Serif" font-size="10.00">currentPause</text>
<text text-anchor="start" x="471" y="-293" font-family="Helvetica,sans-Serif" font-size="10.00">currentWheelHorizontal</text>
<text text-anchor="middle" x="529" y="-282" font-family="Helvetica,sans-Serif" font-size="10.00">Event</text>
<text text-anchor="middle" x="529" y="-271" font-family="Helvetica,sans-Serif" font-size="10.00">...</text>
</g>
<!-- Node14 -->
<g id="node14" class="node">
<title>Node14</title>
<g id="a_node14"><a xlink:href="classVDPad.html" target="_top" xlink:title=" ">
<polygon fill="white" stroke="black" points="750,-134.5 750,-153.5 798,-153.5 798,-134.5 750,-134.5"/>
<text text-anchor="middle" x="774" y="-141.5" font-family="Helvetica,sans-Serif" font-size="10.00">VDPad</text>
</a>
</g>
</g>
<!-- Node14&#45;&gt;Node11 -->
<g id="edge21" class="edge">
<title>Node14&#45;&gt;Node11</title>
<path fill="none" stroke="#9a32cd" stroke-dasharray="5,2" d="M739.94,-138.13C654.85,-125.98 433.88,-94.41 351.01,-82.57"/>
<polygon fill="#9a32cd" stroke="#9a32cd" points="739.46,-141.6 749.86,-139.55 740.45,-134.67 739.46,-141.6"/>
<text text-anchor="middle" x="598.5" y="-108" font-family="Helvetica,sans-Serif" font-size="10.00"> m_vdpad</text>
</g>
<!-- Node15&#45;&gt;Node14 -->
<g id="edge22" class="edge">
<title>Node15&#45;&gt;Node14</title>
<path fill="none" stroke="midnightblue" d="M814.84,-193.27C804.12,-180.6 789.82,-163.7 781.3,-153.63"/>
<polygon fill="midnightblue" stroke="midnightblue" points="812.45,-195.86 821.58,-201.23 817.79,-191.34 812.45,-195.86"/>
</g>
<!-- Node15&#45;&gt;Node16 -->
<g id="edge27" class="edge">
<title>Node15&#45;&gt;Node16</title>
<path fill="none" stroke="#9a32cd" stroke-dasharray="5,2" d="M827.96,-191.18C826.91,-170.17 825.52,-135.15 826,-105 826.5,-73.65 827.94,-36.45 828.63,-19.81"/>
<polygon fill="#9a32cd" stroke="#9a32cd" points="824.47,-191.49 828.49,-201.29 831.46,-191.12 824.47,-191.49"/>
<text text-anchor="middle" x="847.5" y="-108" font-family="Helvetica,sans-Serif" font-size="10.00"> m_dpad</text>
</g>
<!-- Node16&#45;&gt;Node15 -->
<g id="edge25" class="edge">
<title>Node16&#45;&gt;Node15</title>
<path fill="none" stroke="#9a32cd" stroke-dasharray="5,2" d="M842.97,-27.51C858.35,-47.68 880.01,-83.17 873,-116 865.81,-149.66 844.86,-185.42 834.68,-201.41"/>
<polygon fill="#9a32cd" stroke="#9a32cd" points="845.65,-25.25 836.68,-19.62 840.18,-29.62 845.65,-25.25"/>
<text text-anchor="middle" x="928.5" y="-108" font-family="Helvetica,sans-Serif" font-size="10.00"> activeDiagonalButton</text>
</g>
<!-- Node17&#45;&gt;Node8 -->
<g id="edge29" class="edge">
<title>Node17&#45;&gt;Node8</title>
<path fill="none" stroke="#9a32cd" stroke-dasharray="5,2" d="M939.77,-674.57C907.17,-656.51 850.1,-624.88 822.63,-609.66"/>
<polygon fill="#9a32cd" stroke="#9a32cd" points="938.22,-677.71 948.66,-679.5 941.61,-671.59 938.22,-677.71"/>
<text text-anchor="middle" x="934" y="-642" font-family="Helvetica,sans-Serif" font-size="10.00"> m_stick</text>
</g>
<!-- Node17&#45;&gt;Node19 -->
<g id="edge34" class="edge">
<title>Node17&#45;&gt;Node19</title>
<path fill="none" stroke="#9a32cd" stroke-dasharray="5,2" d="M924.85,-703.44C919.34,-707 914.4,-711.45 911,-717 905.54,-725.92 907.96,-738.3 910.62,-746.48"/>
<polygon fill="#9a32cd" stroke="#9a32cd" points="926.73,-706.4 933.84,-698.55 923.38,-700.25 926.73,-706.4"/>
<text text-anchor="middle" x="924.5" y="-720" font-family="Helvetica,sans-Serif" font-size="10.00"> stick</text>
</g>
<!-- Node17&#45;&gt;Node20 -->
<g id="edge37" class="edge">
<title>Node17&#45;&gt;Node20</title>
<path fill="none" stroke="#9a32cd" stroke-dasharray="5,2" d="M963.94,-669.23C964.81,-656.41 967.86,-639.69 977,-628 983.55,-619.62 993.38,-613.67 1002.92,-609.53"/>
<polygon fill="#9a32cd" stroke="#9a32cd" points="960.44,-669.17 963.63,-679.27 967.44,-669.38 960.44,-669.17"/>
<text text-anchor="middle" x="990.5" y="-642" font-family="Helvetica,sans-Serif" font-size="10.00"> stick</text>
</g>
<!-- Node18 -->
<g id="node18" class="node">
<title>Node18</title>
<g id="a_node18"><a xlink:href="classJoyStickDirectionsType.html" target="_top" xlink:title=" ">
<polygon fill="white" stroke="black" points="1014,-746.5 1014,-765.5 1142,-765.5 1142,-746.5 1014,-746.5"/>
<text text-anchor="middle" x="1078" y="-753.5" font-family="Helvetica,sans-Serif" font-size="10.00">JoyStickDirectionsType</text>
</a>
</g>
</g>
<!-- Node18&#45;&gt;Node17 -->
<g id="edge31" class="edge">
<title>Node18&#45;&gt;Node17</title>
<path fill="none" stroke="midnightblue" d="M1060.6,-739.67C1051.58,-732.21 1040.14,-723.48 1029,-717 1016.32,-709.63 1001.25,-703.24 988.81,-698.52"/>
<polygon fill="midnightblue" stroke="midnightblue" points="1058.53,-742.51 1068.42,-746.32 1063.07,-737.17 1058.53,-742.51"/>
</g>
<!-- Node19&#45;&gt;Node17 -->
<g id="edge32" class="edge">
<title>Node19&#45;&gt;Node17</title>
<path fill="none" stroke="#9a32cd" stroke-dasharray="5,2" d="M931.83,-739.26C935.39,-735.73 938.97,-731.87 942,-728 949.33,-718.64 955.9,-706.57 959.91,-698.58"/>
<polygon fill="#9a32cd" stroke="#9a32cd" points="929.16,-736.97 924.27,-746.37 933.96,-742.07 929.16,-736.97"/>
<text text-anchor="middle" x="987" y="-720" font-family="Helvetica,sans-Serif" font-size="10.00"> modifierButton</text>
</g>
<!-- Node20&#45;&gt;Node17 -->
<g id="edge35" class="edge">
<title>Node20&#45;&gt;Node17</title>
<path fill="none" stroke="#9a32cd" stroke-dasharray="5,2" d="M1027.86,-619.61C1024.28,-632.36 1018.07,-649.06 1008,-661 1001.53,-668.67 992.3,-674.8 983.96,-679.27"/>
<polygon fill="#9a32cd" stroke="#9a32cd" points="1031.32,-620.19 1030.35,-609.64 1024.53,-618.49 1031.32,-620.19"/>
<text text-anchor="middle" x="1060" y="-653" font-family="Helvetica,sans-Serif" font-size="10.00"> activeButton1</text>
<text text-anchor="middle" x="1060" y="-642" font-family="Helvetica,sans-Serif" font-size="10.00">activeButton2</text>
<text text-anchor="middle" x="1060" y="-631" font-family="Helvetica,sans-Serif" font-size="10.00">activeButton3</text>
</g>
<!-- Node21&#45;&gt;Node6 -->
<g id="edge38" class="edge">
<title>Node21&#45;&gt;Node6</title>
<path fill="none" stroke="#9a32cd" stroke-dasharray="5,2" d="M370.72,-14.1C478.87,-21.27 719,-41.11 719,-76 719,-212 719,-212 719,-212 719,-304.05 728.34,-415.37 731.19,-447.15"/>
<polygon fill="#9a32cd" stroke="#9a32cd" points="370.88,-10.6 360.68,-13.44 370.43,-17.59 370.88,-10.6"/>
<text text-anchor="middle" x="754" y="-175" font-family="Helvetica,sans-Serif" font-size="10.00"> joyButtonXml</text>
</g>
<!-- Node22&#45;&gt;Node5 -->
<g id="edge41" class="edge">
<title>Node22&#45;&gt;Node5</title>
<path fill="none" stroke="#9a32cd" stroke-dasharray="5,2" d="M391.26,-674.72C397.95,-670.94 404.62,-666.36 410,-661 462.68,-608.49 437.89,-567.08 490,-514 578.8,-423.56 722.96,-364.59 780.32,-343.59"/>
<polygon fill="#9a32cd" stroke="#9a32cd" points="389.51,-671.69 382.23,-679.39 392.73,-677.91 389.51,-671.69"/>
<text text-anchor="middle" x="515.5" y="-521.5" font-family="Helvetica,sans-Serif" font-size="10.00"> m_device</text>
</g>
<!-- Node25 -->
<g id="node25" class="node">
<title>Node25</title>
<g id="a_node25"><a xlink:href="classInputDeviceCalibration.html" target="_top" xlink:title="Calibration storage backend which can store multiple calibration items for different controllers.">
<polygon fill="white" stroke="black" points="230,-590.5 230,-609.5 358,-609.5 358,-590.5 230,-590.5"/>
<text text-anchor="middle" x="294" y="-597.5" font-family="Helvetica,sans-Serif" font-size="10.00">InputDeviceCalibration</text>
</a>
</g>
</g>
<!-- Node22&#45;&gt;Node25 -->
<g id="edge46" class="edge">
<title>Node22&#45;&gt;Node25</title>
<path fill="none" stroke="#9a32cd" stroke-dasharray="5,2" d="M356.55,-669.4C353.43,-656.65 347.78,-639.95 338,-628 331.64,-620.23 322.43,-614.09 314.07,-609.64"/>
<polygon fill="#9a32cd" stroke="#9a32cd" points="353.17,-670.31 358.68,-679.36 360.01,-668.85 353.17,-670.31"/>
<text text-anchor="middle" x="380.5" y="-642" font-family="Helvetica,sans-Serif" font-size="10.00"> m_device</text>
</g>
<!-- Node23 -->
<g id="node23" class="node">
<title>Node23</title>
<g id="a_node23"><a xlink:href="classAntiMicroSettings.html" target="_top" xlink:title=" ">
<polygon fill="white" stroke="black" points="85.5,-746.5 85.5,-765.5 188.5,-765.5 188.5,-746.5 85.5,-746.5"/>
<text text-anchor="middle" x="137" y="-753.5" font-family="Helvetica,sans-Serif" font-size="10.00">AntiMicroSettings</text>
</a>
</g>
</g>
<!-- Node23&#45;&gt;Node22 -->
<g id="edge43" class="edge">
<title>Node23&#45;&gt;Node22</title>
<path fill="none" stroke="#9a32cd" stroke-dasharray="5,2" d="M176.42,-743.51C220.55,-730.65 291.06,-710.09 330.62,-698.56"/>
<polygon fill="#9a32cd" stroke="#9a32cd" points="175.23,-740.21 166.61,-746.37 177.19,-746.93 175.23,-740.21"/>
<text text-anchor="middle" x="291" y="-720" font-family="Helvetica,sans-Serif" font-size="10.00"> m_settings</text>
</g>
<!-- Node24 -->
<g id="node24" class="node">
<title>Node24</title>
<g id="a_node24"><a xlink:title=" ">
<polygon fill="white" stroke="#bfbfbf" points="0,-803.5 0,-822.5 64,-822.5 64,-803.5 0,-803.5"/>
<text text-anchor="middle" x="32" y="-810.5" font-family="Helvetica,sans-Serif" font-size="10.00">QSettings</text>
</a>
</g>
</g>
<!-- Node24&#45;&gt;Node23 -->
<g id="edge44" class="edge">
<title>Node24&#45;&gt;Node23</title>
<path fill="none" stroke="midnightblue" d="M57.44,-798.68C77.12,-788.36 103.8,-774.39 120.71,-765.53"/>
<polygon fill="midnightblue" stroke="midnightblue" points="55.64,-795.67 48.41,-803.41 58.89,-801.87 55.64,-795.67"/>
</g>
<!-- Node25&#45;&gt;Node22 -->
<g id="edge45" class="edge">
<title>Node25&#45;&gt;Node22</title>
<path fill="none" stroke="#9a32cd" stroke-dasharray="5,2" d="M271.08,-615.91C267.4,-619.41 264.11,-623.46 262,-628 255.82,-641.3 253.11,-649.33 262,-661 275.9,-679.25 300.96,-685.93 322.25,-688.08"/>
<polygon fill="#9a32cd" stroke="#9a32cd" points="273.39,-618.55 278.94,-609.53 268.97,-613.12 273.39,-618.55"/>
<text text-anchor="middle" x="300" y="-642" font-family="Helvetica,sans-Serif" font-size="10.00"> m_calibrations</text>
</g>
<!-- Node26&#45;&gt;Node3 -->
<g id="edge47" class="edge">
<title>Node26&#45;&gt;Node3</title>
<path fill="none" stroke="#9a32cd" stroke-dasharray="5,2" d="M575.08,-159.15C580.26,-162.77 585.22,-167.06 589,-172 595.64,-180.68 598.65,-193.12 599.99,-201.38"/>
<polygon fill="#9a32cd" stroke="#9a32cd" points="576.66,-156.01 566.32,-153.7 572.96,-161.95 576.66,-156.01"/>
<text text-anchor="middle" x="637.5" y="-175" font-family="Helvetica,sans-Serif" font-size="10.00"> m_active_button</text>
</g>
</g>
</svg>
