<?xml version="1.0" encoding="UTF-8" standalone="no"?>
<!DOCTYPE svg PUBLIC "-//W3C//DTD SVG 1.1//EN"
 "http://www.w3.org/Graphics/SVG/1.1/DTD/svg11.dtd">
<!-- Generated by graphviz version 2.43.0 (0)
 -->
<!-- Title: InputDaemon::deviceAdded Pages: 1 -->
<svg width="900pt" height="117pt"
 viewBox="0.00 0.00 900.00 116.97" xmlns="http://www.w3.org/2000/svg" xmlns:xlink="http://www.w3.org/1999/xlink">
<g id="graph0" class="graph" transform="scale(1 1) rotate(0) translate(4 112.97)">
<title>InputDaemon::deviceAdded</title>
<polygon fill="white" stroke="transparent" points="-4,4 -4,-112.97 896,-112.97 896,4 -4,4"/>
<!-- Node1 -->
<g id="node1" class="node">
<title>Node1</title>
<g id="a_node1"><a xlink:title=" ">
<polygon fill="#bfbfbf" stroke="black" points="740,-51.47 740,-70.47 892,-70.47 892,-51.47 740,-51.47"/>
<text text-anchor="middle" x="816" y="-58.47" font-family="Helvetica,sans-Serif" font-size="10.00">InputDaemon::deviceAdded</text>
</a>
</g>
</g>
<!-- Node2 -->
<g id="node2" class="node">
<title>Node2</title>
<g id="a_node2"><a xlink:href="classInputDaemon.html#a5dceec80700a55f0e82e35d44d6d171a" target="_top" xlink:title=" ">
<polygon fill="white" stroke="black" points="538,-89.47 538,-108.47 703,-108.47 703,-89.47 538,-89.47"/>
<text text-anchor="middle" x="620.5" y="-96.47" font-family="Helvetica,sans-Serif" font-size="10.00">InputDaemon::addInputDevice</text>
</a>
</g>
</g>
<!-- Node1&#45;&gt;Node2 -->
<g id="edge1" class="edge">
<title>Node1&#45;&gt;Node2</title>
<path fill="none" stroke="midnightblue" d="M756.25,-72.51C728.65,-77.93 696.15,-84.31 669.98,-89.45"/>
<polygon fill="midnightblue" stroke="midnightblue" points="757.03,-75.92 766.17,-70.56 755.68,-69.05 757.03,-75.92"/>
</g>
<!-- Node6 -->
<g id="node6" class="node">
<title>Node6</title>
<g id="a_node6"><a xlink:href="main_8cpp.html#a0ddf1224851353fc92bfbff6f499fa97" target="_top" xlink:title=" ">
<polygon fill="white" stroke="black" points="222.5,-32.47 222.5,-51.47 263.5,-51.47 263.5,-32.47 222.5,-32.47"/>
<text text-anchor="middle" x="243" y="-39.47" font-family="Helvetica,sans-Serif" font-size="10.00">main</text>
</a>
</g>
</g>
<!-- Node1&#45;&gt;Node6 -->
<g id="edge5" class="edge">
<title>Node1&#45;&gt;Node6</title>
<path fill="none" stroke="midnightblue" d="M729.39,-58.12C593.44,-53.6 336.1,-45.04 263.51,-42.62"/>
<polygon fill="midnightblue" stroke="midnightblue" points="729.65,-61.63 739.76,-58.47 729.89,-54.64 729.65,-61.63"/>
</g>
<!-- Node7 -->
<g id="node7" class="node">
<title>Node7</title>
<g id="a_node7"><a xlink:href="classInputDaemon.html#a7fa47112e0cac297ba679920c594a838" target="_top" xlink:title=" ">
<polygon fill="white" stroke="black" points="537,-13.47 537,-32.47 704,-32.47 704,-13.47 537,-13.47"/>
<text text-anchor="middle" x="620.5" y="-20.47" font-family="Helvetica,sans-Serif" font-size="10.00">InputDaemon::refreshJoysticks</text>
</a>
</g>
</g>
<!-- Node1&#45;&gt;Node7 -->
<g id="edge6" class="edge">
<title>Node1&#45;&gt;Node7</title>
<path fill="none" stroke="midnightblue" d="M756.25,-49.43C728.65,-44.01 696.15,-37.63 669.98,-32.49"/>
<polygon fill="midnightblue" stroke="midnightblue" points="755.68,-52.89 766.17,-51.38 757.03,-46.02 755.68,-52.89"/>
</g>
<!-- Node3 -->
<g id="node3" class="node">
<title>Node3</title>
<g id="a_node3"><a xlink:href="classInputDaemon.html#a0cf6bcd3287d97d75c32a3921c633a7a" target="_top" xlink:title="Dispatches postprocessed SDL events to the input objects like JoyAxis or JoyButton and activates them...">
<polygon fill="white" stroke="black" points="331,-89.47 331,-108.47 501,-108.47 501,-89.47 331,-89.47"/>
<text text-anchor="middle" x="416" y="-96.47" font-family="Helvetica,sans-Serif" font-size="10.00">InputDaemon::secondInputPass</text>
</a>
</g>
</g>
<!-- Node2&#45;&gt;Node3 -->
<g id="edge2" class="edge">
<title>Node2&#45;&gt;Node3</title>
<path fill="none" stroke="midnightblue" d="M527.46,-98.97C518.66,-98.97 509.78,-98.97 501.07,-98.97"/>
<polygon fill="midnightblue" stroke="midnightblue" points="527.72,-102.47 537.72,-98.97 527.72,-95.47 527.72,-102.47"/>
</g>
<!-- Node4 -->
<g id="node4" class="node">
<title>Node4</title>
<g id="a_node4"><a xlink:href="classInputDaemon.html#ad7f954b25b67cb5a84fdb1a154282bfd" target="_top" xlink:title=" ">
<polygon fill="white" stroke="black" points="191,-79.47 191,-98.47 295,-98.47 295,-79.47 191,-79.47"/>
<text text-anchor="middle" x="243" y="-86.47" font-family="Helvetica,sans-Serif" font-size="10.00">InputDaemon::run</text>
</a>
</g>
</g>
<!-- Node3&#45;&gt;Node4 -->
<g id="edge3" class="edge">
<title>Node3&#45;&gt;Node4</title>
<path fill="none" stroke="midnightblue" d="M320.52,-93.45C311.84,-92.94 303.28,-92.44 295.21,-91.97"/>
<polygon fill="midnightblue" stroke="midnightblue" points="320.57,-96.96 330.75,-94.05 320.97,-89.97 320.57,-96.96"/>
</g>
<!-- Node5 -->
<g id="node5" class="node">
<title>Node5</title>
<g id="a_node5"><a xlink:href="classInputDaemon.html#ab7c3d331123e946ed8da490dfee5c265" target="_top" xlink:title=" ">
<polygon fill="white" stroke="black" points="0,-13.47 0,-32.47 155,-32.47 155,-13.47 0,-13.47"/>
<text text-anchor="middle" x="77.5" y="-20.47" font-family="Helvetica,sans-Serif" font-size="10.00">InputDaemon::InputDaemon</text>
</a>
</g>
</g>
<!-- Node4&#45;&gt;Node5 -->
<g id="edge4" class="edge">
<title>Node4&#45;&gt;Node5</title>
<path fill="none" stroke="midnightblue" d="M208.91,-75.62C177.19,-62.81 130.1,-43.8 102.04,-32.47"/>
<polygon fill="midnightblue" stroke="midnightblue" points="207.64,-78.88 218.23,-79.38 210.26,-72.39 207.64,-78.88"/>
</g>
<!-- Node7&#45;&gt;Node5 -->
<g id="edge7" class="edge">
<title>Node7&#45;&gt;Node5</title>
<path fill="none" stroke="midnightblue" d="M561.22,-11.74C542.11,-8.56 520.72,-5.54 501,-3.97 380.41,5.63 240.05,-4.99 155.31,-13.79"/>
<polygon fill="midnightblue" stroke="midnightblue" points="560.83,-15.22 571.28,-13.46 562.01,-8.32 560.83,-15.22"/>
</g>
<!-- Node8 -->
<g id="node8" class="node">
<title>Node8</title>
<g id="a_node8"><a xlink:href="classInputDaemon.html#a7dbb5a72a490efb5b6f881528f1186ba" target="_top" xlink:title=" ">
<polygon fill="white" stroke="black" points="354.5,-13.47 354.5,-32.47 477.5,-32.47 477.5,-13.47 354.5,-13.47"/>
<text text-anchor="middle" x="416" y="-20.47" font-family="Helvetica,sans-Serif" font-size="10.00">InputDaemon::refresh</text>
</a>
</g>
</g>
<!-- Node7&#45;&gt;Node8 -->
<g id="edge8" class="edge">
<title>Node7&#45;&gt;Node8</title>
<path fill="none" stroke="midnightblue" d="M526.57,-22.97C509.97,-22.97 493.08,-22.97 477.68,-22.97"/>
<polygon fill="midnightblue" stroke="midnightblue" points="526.84,-26.47 536.84,-22.97 526.84,-19.47 526.84,-26.47"/>
</g>
<!-- Node8&#45;&gt;Node6 -->
<g id="edge9" class="edge">
<title>Node8&#45;&gt;Node6</title>
<path fill="none" stroke="midnightblue" d="M344.06,-30.85C314.99,-34.09 283.59,-37.57 263.87,-39.76"/>
<polygon fill="midnightblue" stroke="midnightblue" points="344.68,-34.31 354.23,-29.72 343.9,-27.35 344.68,-34.31"/>
</g>
</g>
</svg>
