<?xml version="1.0" encoding="UTF-8" standalone="no"?>
<!DOCTYPE svg PUBLIC "-//W3C//DTD SVG 1.1//EN"
 "http://www.w3.org/Graphics/SVG/1.1/DTD/svg11.dtd">
<!-- Generated by graphviz version 2.43.0 (0)
 -->
<!-- Title: JoyControlStick::getName Pages: 1 -->
<svg width="1770pt" height="465pt"
 viewBox="0.00 0.00 1770.00 465.23" xmlns="http://www.w3.org/2000/svg" xmlns:xlink="http://www.w3.org/1999/xlink">
<g id="graph0" class="graph" transform="scale(1 1) rotate(0) translate(4 461.23)">
<title>JoyControlStick::getName</title>
<polygon fill="white" stroke="transparent" points="-4,4 -4,-461.23 1766,-461.23 1766,4 -4,4"/>
<!-- Node1 -->
<g id="node1" class="node">
<title>Node1</title>
<g id="a_node1"><a xlink:title=" ">
<polygon fill="#bfbfbf" stroke="black" points="0,-342.73 0,-361.73 142,-361.73 142,-342.73 0,-342.73"/>
<text text-anchor="middle" x="71" y="-349.73" font-family="Helvetica,sans-Serif" font-size="10.00">JoyControlStick::getName</text>
</a>
</g>
</g>
<!-- Node2 -->
<g id="node2" class="node">
<title>Node2</title>
<g id="a_node2"><a xlink:href="classJoyButton.html#a7123f5432bda7b5b9d4b2b95bdabf4db" target="_top" xlink:title=" ">
<polygon fill="white" stroke="black" points="191,-380.73 191,-399.73 338,-399.73 338,-380.73 191,-380.73"/>
<text text-anchor="middle" x="264.5" y="-387.73" font-family="Helvetica,sans-Serif" font-size="10.00">JoyButton::getButtonName</text>
</a>
</g>
</g>
<!-- Node1&#45;&gt;Node2 -->
<g id="edge1" class="edge">
<title>Node1&#45;&gt;Node2</title>
<path fill="none" stroke="midnightblue" d="M120.32,-361.82C146.16,-366.95 178.17,-373.3 205.36,-378.7"/>
<polygon fill="midnightblue" stroke="midnightblue" points="205.03,-382.2 215.52,-380.71 206.4,-375.34 205.03,-382.2"/>
</g>
<!-- Node3 -->
<g id="node3" class="node">
<title>Node3</title>
<g id="a_node3"><a xlink:href="classJoyControlStick.html#a15845226575e7d1c81bf119653c86a3d" target="_top" xlink:title=" ">
<polygon fill="white" stroke="black" points="178,-342.73 178,-361.73 351,-361.73 351,-342.73 178,-342.73"/>
<text text-anchor="middle" x="264.5" y="-349.73" font-family="Helvetica,sans-Serif" font-size="10.00">JoyControlStick::getPartialName</text>
</a>
</g>
</g>
<!-- Node1&#45;&gt;Node3 -->
<g id="edge2" class="edge">
<title>Node1&#45;&gt;Node3</title>
<path fill="none" stroke="midnightblue" d="M142.22,-352.23C150.58,-352.23 159.23,-352.23 167.87,-352.23"/>
<polygon fill="midnightblue" stroke="midnightblue" points="168,-355.73 178,-352.23 168,-348.73 168,-355.73"/>
</g>
<!-- Node6 -->
<g id="node6" class="node">
<title>Node6</title>
<g id="a_node6"><a xlink:href="classJoyButton.html#ad0e91e7eea8ee9487ee3acf57f1bdc41" target="_top" xlink:title="Generate a string representing a summary of the slots currently assigned to a button.">
<polygon fill="white" stroke="black" points="186,-304.73 186,-323.73 343,-323.73 343,-304.73 186,-304.73"/>
<text text-anchor="middle" x="264.5" y="-311.73" font-family="Helvetica,sans-Serif" font-size="10.00">JoyButton::getSlotsSummary</text>
</a>
</g>
</g>
<!-- Node1&#45;&gt;Node6 -->
<g id="edge5" class="edge">
<title>Node1&#45;&gt;Node6</title>
<path fill="none" stroke="midnightblue" d="M120.32,-342.65C146.16,-337.52 178.17,-331.17 205.36,-325.77"/>
<polygon fill="midnightblue" stroke="midnightblue" points="206.4,-329.13 215.52,-323.75 205.03,-322.27 206.4,-329.13"/>
</g>
<!-- Node4 -->
<g id="node4" class="node">
<title>Node4</title>
<g id="a_node4"><a xlink:href="classJoyControlStick.html#a56be6df75476edd92b67205c4517b9d5" target="_top" xlink:title=" ">
<polygon fill="white" stroke="black" points="402.5,-381.23 402.5,-411.23 536.5,-411.23 536.5,-381.23 402.5,-381.23"/>
<text text-anchor="start" x="410.5" y="-399.23" font-family="Helvetica,sans-Serif" font-size="10.00">JoyControlStick::getReal</text>
<text text-anchor="middle" x="469.5" y="-388.23" font-family="Helvetica,sans-Serif" font-size="10.00">JoyIndex</text>
</a>
</g>
</g>
<!-- Node3&#45;&gt;Node4 -->
<g id="edge3" class="edge">
<title>Node3&#45;&gt;Node4</title>
<path fill="none" stroke="midnightblue" d="M309.55,-361.78C333.64,-367 364.18,-373.62 392.03,-379.66"/>
<polygon fill="midnightblue" stroke="midnightblue" points="391.64,-383.16 402.15,-381.85 393.12,-376.32 391.64,-383.16"/>
</g>
<!-- Node5 -->
<g id="node5" class="node">
<title>Node5</title>
<g id="a_node5"><a xlink:href="classJoyControlStick.html#acaa44dff5cfea5fa898837b603f603c0" target="_top" xlink:title=" ">
<polygon fill="white" stroke="black" points="387,-342.73 387,-361.73 552,-361.73 552,-342.73 387,-342.73"/>
<text text-anchor="middle" x="469.5" y="-349.73" font-family="Helvetica,sans-Serif" font-size="10.00">JoyControlStick::setStickName</text>
</a>
</g>
</g>
<!-- Node3&#45;&gt;Node5 -->
<g id="edge4" class="edge">
<title>Node3&#45;&gt;Node5</title>
<path fill="none" stroke="midnightblue" d="M351,-352.23C359.57,-352.23 368.29,-352.23 376.92,-352.23"/>
<polygon fill="midnightblue" stroke="midnightblue" points="376.99,-355.73 386.99,-352.23 376.99,-348.73 376.99,-355.73"/>
</g>
<!-- Node7 -->
<g id="node7" class="node">
<title>Node7</title>
<g id="a_node7"><a xlink:href="classJoyButton.html#ae1d364dfa70f47fae3db99ffbcdea44b" target="_top" xlink:title=" ">
<polygon fill="white" stroke="black" points="392.5,-304.73 392.5,-323.73 546.5,-323.73 546.5,-304.73 392.5,-304.73"/>
<text text-anchor="middle" x="469.5" y="-311.73" font-family="Helvetica,sans-Serif" font-size="10.00">JoyButton::getAssignedSlots</text>
</a>
</g>
</g>
<!-- Node6&#45;&gt;Node7 -->
<g id="edge6" class="edge">
<title>Node6&#45;&gt;Node7</title>
<path fill="none" stroke="midnightblue" d="M343.11,-314.23C355.83,-314.23 369.08,-314.23 382,-314.23"/>
<polygon fill="midnightblue" stroke="midnightblue" points="382.27,-317.73 392.27,-314.23 382.27,-310.73 382.27,-317.73"/>
</g>
<!-- Node8 -->
<g id="node8" class="node">
<title>Node8</title>
<g id="a_node8"><a xlink:href="classJoyButtonSlot.html#a6e10409ded595380cbdcfd5c827ab32a" target="_top" xlink:title=" ">
<polygon fill="white" stroke="black" points="393.5,-266.73 393.5,-285.73 545.5,-285.73 545.5,-266.73 393.5,-266.73"/>
<text text-anchor="middle" x="469.5" y="-273.73" font-family="Helvetica,sans-Serif" font-size="10.00">JoyButtonSlot::getSlotString</text>
</a>
</g>
</g>
<!-- Node6&#45;&gt;Node8 -->
<g id="edge7" class="edge">
<title>Node6&#45;&gt;Node8</title>
<path fill="none" stroke="midnightblue" d="M316.46,-304.69C344.09,-299.52 378.43,-293.09 407.48,-287.66"/>
<polygon fill="midnightblue" stroke="midnightblue" points="408.33,-291.06 417.52,-285.78 407.04,-284.18 408.33,-291.06"/>
</g>
<!-- Node9 -->
<g id="node9" class="node">
<title>Node9</title>
<g id="a_node9"><a xlink:href="classJoyButtonSlot.html#a4fb0606a34134786bc642627bc25aedd" target="_top" xlink:title=" ">
<polygon fill="white" stroke="black" points="603,-345.73 603,-364.73 749,-364.73 749,-345.73 603,-345.73"/>
<text text-anchor="middle" x="676" y="-352.73" font-family="Helvetica,sans-Serif" font-size="10.00">JoyButtonSlot::getMixSlots</text>
</a>
</g>
</g>
<!-- Node8&#45;&gt;Node9 -->
<g id="edge8" class="edge">
<title>Node8&#45;&gt;Node9</title>
<path fill="none" stroke="midnightblue" d="M520.67,-285.79C531.17,-288.39 542.06,-291.52 552,-295.23 568.95,-301.56 571.81,-306.15 588,-314.23 606.73,-323.59 627.99,-333.61 644.8,-341.41"/>
<polygon fill="midnightblue" stroke="midnightblue" points="643.58,-344.7 654.13,-345.72 646.52,-338.35 643.58,-344.7"/>
</g>
<!-- Node11 -->
<g id="node11" class="node">
<title>Node11</title>
<g id="a_node11"><a xlink:href="namespacePadderCommon.html#aaa09739d2df84421a5a3467a06ce941c" target="_top" xlink:title="Returns the &quot;human&#45;readable&quot; name of the given profile.">
<polygon fill="white" stroke="black" points="588,-285.73 588,-304.73 764,-304.73 764,-285.73 588,-285.73"/>
<text text-anchor="middle" x="676" y="-292.73" font-family="Helvetica,sans-Serif" font-size="10.00">PadderCommon::getProfileName</text>
</a>
</g>
</g>
<!-- Node8&#45;&gt;Node11 -->
<g id="edge10" class="edge">
<title>Node8&#45;&gt;Node11</title>
<path fill="none" stroke="midnightblue" d="M545.78,-283.23C556.13,-284.19 566.89,-285.19 577.57,-286.18"/>
<polygon fill="midnightblue" stroke="midnightblue" points="577.5,-289.69 587.78,-287.13 578.14,-282.72 577.5,-289.69"/>
</g>
<!-- Node12 -->
<g id="node12" class="node">
<title>Node12</title>
<g id="a_node12"><a xlink:href="event_8cpp.html#a76ce89b71143c1c09343f45f038b4a67" target="_top" xlink:title=" ">
<polygon fill="white" stroke="black" points="620,-247.73 620,-266.73 732,-266.73 732,-247.73 620,-247.73"/>
<text text-anchor="middle" x="676" y="-254.73" font-family="Helvetica,sans-Serif" font-size="10.00">keysymToKeyString</text>
</a>
</g>
</g>
<!-- Node8&#45;&gt;Node12 -->
<g id="edge11" class="edge">
<title>Node8&#45;&gt;Node12</title>
<path fill="none" stroke="midnightblue" d="M545.78,-269.24C566.72,-267.29 589.3,-265.2 609.62,-263.31"/>
<polygon fill="midnightblue" stroke="midnightblue" points="610.08,-266.78 619.72,-262.37 609.44,-259.81 610.08,-266.78"/>
</g>
<!-- Node35 -->
<g id="node35" class="node">
<title>Node35</title>
<g id="a_node35"><a xlink:href="classJoyButtonSlot.html#a37ff2b523177bae4ea6a44b82f2973eb" target="_top" xlink:title=" ">
<polygon fill="white" stroke="black" points="591,-209.73 591,-228.73 761,-228.73 761,-209.73 591,-209.73"/>
<text text-anchor="middle" x="676" y="-216.73" font-family="Helvetica,sans-Serif" font-size="10.00">JoyButtonSlot::movementString</text>
</a>
</g>
</g>
<!-- Node8&#45;&gt;Node35 -->
<g id="edge42" class="edge">
<title>Node8&#45;&gt;Node35</title>
<path fill="none" stroke="midnightblue" d="M497.34,-266.72C521.02,-258.54 556.54,-246.74 588,-238.23 597.51,-235.66 607.69,-233.2 617.6,-230.94"/>
<polygon fill="midnightblue" stroke="midnightblue" points="618.39,-234.35 627.39,-228.75 616.86,-227.51 618.39,-234.35"/>
</g>
<!-- Node10 -->
<g id="node10" class="node">
<title>Node10</title>
<g id="a_node10"><a xlink:href="classJoyButtonSlot.html#a9ba9cb0dda063a7df5575072c0aabe01" target="_top" xlink:title=" ">
<polygon fill="white" stroke="black" points="800,-362.23 800,-392.23 939,-392.23 939,-362.23 800,-362.23"/>
<text text-anchor="start" x="808" y="-380.23" font-family="Helvetica,sans-Serif" font-size="10.00">JoyButtonSlot::secureMix</text>
<text text-anchor="middle" x="869.5" y="-369.23" font-family="Helvetica,sans-Serif" font-size="10.00">SlotsInit</text>
</a>
</g>
</g>
<!-- Node9&#45;&gt;Node10 -->
<g id="edge9" class="edge">
<title>Node9&#45;&gt;Node10</title>
<path fill="none" stroke="midnightblue" d="M749.13,-363.52C762.39,-365.04 776.3,-366.64 789.75,-368.19"/>
<polygon fill="midnightblue" stroke="midnightblue" points="789.59,-371.69 799.92,-369.36 790.39,-364.74 789.59,-371.69"/>
</g>
<!-- Node13 -->
<g id="node13" class="node">
<title>Node13</title>
<g id="a_node13"><a xlink:href="classX11Extras.html#a643c95dc1de8eb073a0accb41619fe83" target="_top" xlink:title="Get display instance.">
<polygon fill="white" stroke="black" points="1018,-83.73 1018,-102.73 1125,-102.73 1125,-83.73 1018,-83.73"/>
<text text-anchor="middle" x="1071.5" y="-90.73" font-family="Helvetica,sans-Serif" font-size="10.00">X11Extras::display</text>
</a>
</g>
</g>
<!-- Node12&#45;&gt;Node13 -->
<g id="edge12" class="edge">
<title>Node12&#45;&gt;Node13</title>
<path fill="none" stroke="midnightblue" d="M732.09,-252.64C743.44,-249.74 754.74,-245.22 764,-238.23 790.98,-217.87 774.12,-192.98 800,-171.23 862.73,-118.52 895.88,-134.56 975,-113.23 986.13,-110.23 998.1,-107.42 1009.66,-104.89"/>
<polygon fill="midnightblue" stroke="midnightblue" points="1010.64,-108.26 1019.69,-102.76 1009.18,-101.42 1010.64,-108.26"/>
</g>
<!-- Node14 -->
<g id="node14" class="node">
<title>Node14</title>
<g id="a_node14"><a xlink:href="classBaseEventHandler.html#a9a014e472ec57408d16b8b5eed964e90" target="_top" xlink:title=" ">
<polygon fill="white" stroke="black" points="985.5,-437.73 985.5,-456.73 1157.5,-456.73 1157.5,-437.73 985.5,-437.73"/>
<text text-anchor="middle" x="1071.5" y="-444.73" font-family="Helvetica,sans-Serif" font-size="10.00">BaseEventHandler::getIdentifier</text>
</a>
</g>
</g>
<!-- Node12&#45;&gt;Node14 -->
<g id="edge13" class="edge">
<title>Node12&#45;&gt;Node14</title>
<path fill="none" stroke="midnightblue" d="M732.2,-264.09C743.18,-266.87 754.31,-270.76 764,-276.23 784.26,-287.67 780.08,-302.21 800,-314.23 854.93,-347.39 889.86,-311.98 939,-353.23 967.32,-377.01 945.79,-405.57 975,-428.23 977.32,-430.03 979.76,-431.67 982.3,-433.17"/>
<polygon fill="midnightblue" stroke="midnightblue" points="980.76,-436.31 991.26,-437.73 983.93,-430.08 980.76,-436.31"/>
</g>
<!-- Node15 -->
<g id="node15" class="node">
<title>Node15</title>
<g id="a_node15"><a xlink:href="classX11Extras.html#ace76277fced60e6bd6ff880030338182" target="_top" xlink:title=" ">
<polygon fill="white" stroke="black" points="1007,-399.73 1007,-418.73 1136,-418.73 1136,-399.73 1007,-399.73"/>
<text text-anchor="middle" x="1071.5" y="-406.73" font-family="Helvetica,sans-Serif" font-size="10.00">X11Extras::getInstance</text>
</a>
</g>
</g>
<!-- Node12&#45;&gt;Node15 -->
<g id="edge14" class="edge">
<title>Node12&#45;&gt;Node15</title>
<path fill="none" stroke="midnightblue" d="M727.32,-266.75C798.67,-280.6 922.46,-306.1 939,-319.23 966.7,-341.24 946.81,-368.85 975,-390.23 981.68,-395.3 989.35,-399.12 997.39,-401.98"/>
<polygon fill="midnightblue" stroke="midnightblue" points="996.36,-405.32 1006.95,-404.92 998.42,-398.63 996.36,-405.32"/>
</g>
<!-- Node18 -->
<g id="node18" class="node">
<title>Node18</title>
<g id="a_node18"><a xlink:href="classEventHandlerFactory.html#a90ce153a19fbb91128bd52eb083ce271" target="_top" xlink:title=" ">
<polygon fill="white" stroke="black" points="1012.5,-122.23 1012.5,-152.23 1130.5,-152.23 1130.5,-122.23 1012.5,-122.23"/>
<text text-anchor="start" x="1020.5" y="-140.23" font-family="Helvetica,sans-Serif" font-size="10.00">EventHandlerFactory</text>
<text text-anchor="middle" x="1071.5" y="-129.23" font-family="Helvetica,sans-Serif" font-size="10.00">::getInstance</text>
</a>
</g>
</g>
<!-- Node12&#45;&gt;Node18 -->
<g id="edge17" class="edge">
<title>Node12&#45;&gt;Node18</title>
<path fill="none" stroke="midnightblue" d="M726.06,-247.7C738.51,-244.95 751.82,-241.74 764,-238.23 859.78,-210.65 879.8,-191.77 975,-162.23 983.93,-159.46 993.39,-156.74 1002.75,-154.17"/>
<polygon fill="midnightblue" stroke="midnightblue" points="1003.7,-157.53 1012.44,-151.54 1001.87,-150.78 1003.7,-157.53"/>
</g>
<!-- Node21 -->
<g id="node21" class="node">
<title>Node21</title>
<g id="a_node21"><a xlink:href="classEventHandlerFactory.html#a4c13007f0ece5bf881080c9c04f1f20d" target="_top" xlink:title=" ">
<polygon fill="white" stroke="black" points="1414.5,-120.23 1414.5,-150.23 1532.5,-150.23 1532.5,-120.23 1414.5,-120.23"/>
<text text-anchor="start" x="1422.5" y="-138.23" font-family="Helvetica,sans-Serif" font-size="10.00">EventHandlerFactory</text>
<text text-anchor="middle" x="1473.5" y="-127.23" font-family="Helvetica,sans-Serif" font-size="10.00">::handler</text>
</a>
</g>
</g>
<!-- Node12&#45;&gt;Node21 -->
<g id="edge23" class="edge">
<title>Node12&#45;&gt;Node21</title>
<path fill="none" stroke="midnightblue" d="M732.33,-254.24C743.93,-251.28 755.28,-246.33 764,-238.23 805.12,-200.06 759.55,-156.12 800,-117.23 933.59,11.18 1020.14,-37.3 1204,-14.23 1271.03,-5.82 1293.83,12.21 1356,-14.23 1402.25,-33.91 1439.03,-81.93 1458.13,-111.22"/>
<polygon fill="midnightblue" stroke="midnightblue" points="1455.39,-113.44 1463.7,-120.01 1461.3,-109.69 1455.39,-113.44"/>
</g>
<!-- Node23 -->
<g id="node23" class="node">
<title>Node23</title>
<g id="a_node23"><a xlink:href="event_8cpp.html#ad239a34cab482dc3cad5a23a9ac1ad78" target="_top" xlink:title=" ">
<polygon fill="white" stroke="black" points="812.5,-247.73 812.5,-266.73 926.5,-266.73 926.5,-247.73 812.5,-247.73"/>
<text text-anchor="middle" x="869.5" y="-254.73" font-family="Helvetica,sans-Serif" font-size="10.00">keycodeToKeyString</text>
</a>
</g>
</g>
<!-- Node12&#45;&gt;Node23 -->
<g id="edge24" class="edge">
<title>Node12&#45;&gt;Node23</title>
<path fill="none" stroke="midnightblue" d="M732.13,-257.23C753.98,-257.23 779.29,-257.23 802.13,-257.23"/>
<polygon fill="midnightblue" stroke="midnightblue" points="802.43,-260.73 812.43,-257.23 802.43,-253.73 802.43,-260.73"/>
</g>
<!-- Node16 -->
<g id="node16" class="node">
<title>Node16</title>
<g id="a_node16"><a xlink:href="classX11Extras.html#ab9bcb016e23bacb0e988feb8175d2c88" target="_top" xlink:title=" ">
<polygon fill="white" stroke="black" points="1219,-399.73 1219,-418.73 1341,-418.73 1341,-399.73 1219,-399.73"/>
<text text-anchor="middle" x="1280" y="-406.73" font-family="Helvetica,sans-Serif" font-size="10.00">X11Extras::X11Extras</text>
</a>
</g>
</g>
<!-- Node15&#45;&gt;Node16 -->
<g id="edge15" class="edge">
<title>Node15&#45;&gt;Node16</title>
<path fill="none" stroke="midnightblue" d="M1136.14,-409.23C1159.06,-409.23 1185.04,-409.23 1208.51,-409.23"/>
<polygon fill="midnightblue" stroke="midnightblue" points="1208.74,-412.73 1218.74,-409.23 1208.74,-405.73 1208.74,-412.73"/>
</g>
<!-- Node17 -->
<g id="node17" class="node">
<title>Node17</title>
<g id="a_node17"><a xlink:href="classX11Extras.html#a6f63e77ed045e174546d77333672b8f0" target="_top" xlink:title=" ">
<polygon fill="white" stroke="black" points="1399.5,-394.23 1399.5,-424.23 1547.5,-424.23 1547.5,-394.23 1399.5,-394.23"/>
<text text-anchor="start" x="1407.5" y="-412.23" font-family="Helvetica,sans-Serif" font-size="10.00">X11Extras::populateKnown</text>
<text text-anchor="middle" x="1473.5" y="-401.23" font-family="Helvetica,sans-Serif" font-size="10.00">Aliases</text>
</a>
</g>
</g>
<!-- Node16&#45;&gt;Node17 -->
<g id="edge16" class="edge">
<title>Node16&#45;&gt;Node17</title>
<path fill="none" stroke="midnightblue" d="M1341.07,-409.23C1356.33,-409.23 1373,-409.23 1389.19,-409.23"/>
<polygon fill="midnightblue" stroke="midnightblue" points="1389.19,-412.73 1399.19,-409.23 1389.19,-405.73 1389.19,-412.73"/>
</g>
<!-- Node19 -->
<g id="node19" class="node">
<title>Node19</title>
<g id="a_node19"><a xlink:href="classEventHandlerFactory.html#ade5162034acc0f8683725fdb124bece0" target="_top" xlink:title=" ">
<polygon fill="white" stroke="black" points="1210,-122.23 1210,-152.23 1350,-152.23 1350,-122.23 1210,-122.23"/>
<text text-anchor="start" x="1218" y="-140.23" font-family="Helvetica,sans-Serif" font-size="10.00">EventHandlerFactory</text>
<text text-anchor="middle" x="1280" y="-129.23" font-family="Helvetica,sans-Serif" font-size="10.00">::buildEventGeneratorList</text>
</a>
</g>
</g>
<!-- Node18&#45;&gt;Node19 -->
<g id="edge18" class="edge">
<title>Node18&#45;&gt;Node19</title>
<path fill="none" stroke="midnightblue" d="M1130.57,-137.23C1151.98,-137.23 1176.61,-137.23 1199.58,-137.23"/>
<polygon fill="midnightblue" stroke="midnightblue" points="1199.65,-140.73 1209.65,-137.23 1199.65,-133.73 1199.65,-140.73"/>
</g>
<!-- Node20 -->
<g id="node20" class="node">
<title>Node20</title>
<g id="a_node20"><a xlink:href="classEventHandlerFactory.html#a2f843293b2ea47271fc7bd99bd871fa6" target="_top" xlink:title=" ">
<polygon fill="white" stroke="black" points="1218,-73.23 1218,-103.23 1342,-103.23 1342,-73.23 1218,-73.23"/>
<text text-anchor="start" x="1226" y="-91.23" font-family="Helvetica,sans-Serif" font-size="10.00">EventHandlerFactory</text>
<text text-anchor="middle" x="1280" y="-80.23" font-family="Helvetica,sans-Serif" font-size="10.00">::EventHandlerFactory</text>
</a>
</g>
</g>
<!-- Node18&#45;&gt;Node20 -->
<g id="edge19" class="edge">
<title>Node18&#45;&gt;Node20</title>
<path fill="none" stroke="midnightblue" d="M1130.57,-123.45C1154.58,-117.76 1182.65,-111.1 1207.88,-105.11"/>
<polygon fill="midnightblue" stroke="midnightblue" points="1208.84,-108.48 1217.76,-102.77 1207.23,-101.67 1208.84,-108.48"/>
</g>
<!-- Node18&#45;&gt;Node21 -->
<g id="edge22" class="edge">
<title>Node18&#45;&gt;Node21</title>
<path fill="none" stroke="midnightblue" d="M1130.75,-150.75C1153.47,-155.37 1179.82,-159.96 1204,-162.23 1271.26,-168.57 1288.88,-169.91 1356,-162.23 1373.5,-160.23 1392.2,-156.59 1409.38,-152.62"/>
<polygon fill="midnightblue" stroke="midnightblue" points="1410.38,-155.98 1419.3,-150.25 1408.76,-149.17 1410.38,-155.98"/>
</g>
<!-- Node22 -->
<g id="node22" class="node">
<title>Node22</title>
<g id="a_node22"><a xlink:href="classEventHandlerFactory.html#afa5ca0171c70b1a24f92b5c8dd00dc92" target="_top" xlink:title=" ">
<polygon fill="white" stroke="black" points="1221,-24.23 1221,-54.23 1339,-54.23 1339,-24.23 1221,-24.23"/>
<text text-anchor="start" x="1229" y="-42.23" font-family="Helvetica,sans-Serif" font-size="10.00">EventHandlerFactory</text>
<text text-anchor="middle" x="1280" y="-31.23" font-family="Helvetica,sans-Serif" font-size="10.00">::fallBackIdentifier</text>
</a>
</g>
</g>
<!-- Node18&#45;&gt;Node22 -->
<g id="edge21" class="edge">
<title>Node18&#45;&gt;Node22</title>
<path fill="none" stroke="midnightblue" d="M1130.77,-128.68C1143.76,-125 1156.94,-119.75 1168,-112.23 1190.36,-97.05 1182.06,-79.01 1204,-63.23 1206.39,-61.51 1208.92,-59.91 1211.53,-58.42"/>
<polygon fill="midnightblue" stroke="midnightblue" points="1213.36,-61.42 1220.7,-53.78 1210.2,-55.17 1213.36,-61.42"/>
</g>
<!-- Node20&#45;&gt;Node21 -->
<g id="edge20" class="edge">
<title>Node20&#45;&gt;Node21</title>
<path fill="none" stroke="midnightblue" d="M1342.12,-103.23C1361.97,-108.11 1384.11,-113.54 1404.43,-118.53"/>
<polygon fill="midnightblue" stroke="midnightblue" points="1403.7,-121.95 1414.24,-120.94 1405.37,-115.15 1403.7,-121.95"/>
</g>
<!-- Node23&#45;&gt;Node13 -->
<g id="edge25" class="edge">
<title>Node23&#45;&gt;Node13</title>
<path fill="none" stroke="midnightblue" d="M874.46,-247.63C885.79,-221.39 921.07,-148.16 975,-113.23 984.79,-106.9 996.22,-102.52 1007.7,-99.51"/>
<polygon fill="midnightblue" stroke="midnightblue" points="1008.79,-102.85 1017.76,-97.2 1007.23,-96.03 1008.79,-102.85"/>
</g>
<!-- Node23&#45;&gt;Node14 -->
<g id="edge30" class="edge">
<title>Node23&#45;&gt;Node14</title>
<path fill="none" stroke="midnightblue" d="M884.84,-266.76C900.28,-277.71 924.56,-297.05 939,-319.23 966.83,-361.99 936.78,-394.44 975,-428.23 976.57,-429.62 978.21,-430.92 979.91,-432.13"/>
<polygon fill="midnightblue" stroke="midnightblue" points="978.49,-435.36 988.86,-437.51 982.1,-429.36 978.49,-435.36"/>
</g>
<!-- Node23&#45;&gt;Node15 -->
<g id="edge38" class="edge">
<title>Node23&#45;&gt;Node15</title>
<path fill="none" stroke="midnightblue" d="M916.65,-266.87C924.9,-270.3 932.82,-274.94 939,-281.23 974.75,-317.63 936.78,-356.44 975,-390.23 981.37,-395.87 988.93,-400.02 996.96,-403.06"/>
<polygon fill="midnightblue" stroke="midnightblue" points="995.96,-406.42 1006.55,-406.13 998.1,-399.75 995.96,-406.42"/>
</g>
<!-- Node23&#45;&gt;Node18 -->
<g id="edge39" class="edge">
<title>Node23&#45;&gt;Node18</title>
<path fill="none" stroke="midnightblue" d="M880.68,-247.47C904.76,-224.43 964.06,-168.17 975,-162.23 983.64,-157.55 993.21,-153.7 1002.85,-150.56"/>
<polygon fill="midnightblue" stroke="midnightblue" points="1003.93,-153.9 1012.49,-147.65 1001.9,-147.2 1003.93,-153.9"/>
</g>
<!-- Node23&#45;&gt;Node21 -->
<g id="edge40" class="edge">
<title>Node23&#45;&gt;Node21</title>
<path fill="none" stroke="midnightblue" d="M921.48,-247.72C938.49,-244.61 957.55,-241.2 975,-238.23 1144.01,-209.57 1190.12,-221.46 1356,-178.23 1380.24,-171.92 1406.48,-162.48 1427.91,-154.05"/>
<polygon fill="midnightblue" stroke="midnightblue" points="1429.4,-157.22 1437.39,-150.26 1426.81,-150.72 1429.4,-157.22"/>
</g>
<!-- Node24 -->
<g id="node24" class="node">
<title>Node24</title>
<g id="a_node24"><a xlink:href="classWinExtras.html#a3487e64cfb407033d7e28a761d1e76dc" target="_top" xlink:title=" ">
<polygon fill="white" stroke="black" points="995,-323.73 995,-342.73 1148,-342.73 1148,-323.73 995,-323.73"/>
<text text-anchor="middle" x="1071.5" y="-330.73" font-family="Helvetica,sans-Serif" font-size="10.00">WinExtras::getDisplayString</text>
</a>
</g>
</g>
<!-- Node23&#45;&gt;Node24 -->
<g id="edge26" class="edge">
<title>Node23&#45;&gt;Node24</title>
<path fill="none" stroke="midnightblue" d="M904.53,-266.74C915.83,-270.52 928.27,-275.39 939,-281.23 956.8,-290.94 956.78,-300.35 975,-309.23 984.76,-314 995.57,-317.87 1006.29,-321.01"/>
<polygon fill="midnightblue" stroke="midnightblue" points="1005.51,-324.42 1016.08,-323.69 1007.36,-317.67 1005.51,-324.42"/>
</g>
<!-- Node25 -->
<g id="node25" class="node">
<title>Node25</title>
<g id="a_node25"><a xlink:href="classUInputHelper.html#ac4c70c9479c1cc0eb515ab1bdf2426f5" target="_top" xlink:title=" ">
<polygon fill="white" stroke="black" points="1403.5,-285.23 1403.5,-315.23 1543.5,-315.23 1543.5,-285.23 1403.5,-285.23"/>
<text text-anchor="start" x="1411.5" y="-303.23" font-family="Helvetica,sans-Serif" font-size="10.00">UInputHelper::getDisplay</text>
<text text-anchor="middle" x="1473.5" y="-292.23" font-family="Helvetica,sans-Serif" font-size="10.00">String</text>
</a>
</g>
</g>
<!-- Node23&#45;&gt;Node25 -->
<g id="edge27" class="edge">
<title>Node23&#45;&gt;Node25</title>
<path fill="none" stroke="midnightblue" d="M915.57,-266.77C933.93,-270.3 955.4,-273.99 975,-276.23 1122.07,-293.08 1294.92,-298.13 1393.3,-299.62"/>
<polygon fill="midnightblue" stroke="midnightblue" points="1393.41,-303.13 1403.46,-299.77 1393.51,-296.13 1393.41,-303.13"/>
</g>
<!-- Node27 -->
<g id="node27" class="node">
<title>Node27</title>
<g id="a_node27"><a xlink:href="classX11Extras.html#abe710bac948c9802105a2d9d06815cac" target="_top" xlink:title="Get appropriate alias for a known KeySym string that might be blank or contain invalid characters whe...">
<polygon fill="white" stroke="black" points="995,-171.73 995,-190.73 1148,-190.73 1148,-171.73 995,-171.73"/>
<text text-anchor="middle" x="1071.5" y="-178.73" font-family="Helvetica,sans-Serif" font-size="10.00">X11Extras::getDisplayString</text>
</a>
</g>
</g>
<!-- Node23&#45;&gt;Node27 -->
<g id="edge29" class="edge">
<title>Node23&#45;&gt;Node27</title>
<path fill="none" stroke="midnightblue" d="M887.02,-247.62C907.21,-236.19 942.69,-217.18 975,-205.23 987.52,-200.61 1001.29,-196.57 1014.38,-193.19"/>
<polygon fill="midnightblue" stroke="midnightblue" points="1015.37,-196.55 1024.23,-190.74 1013.68,-189.76 1015.37,-196.55"/>
</g>
<!-- Node28 -->
<g id="node28" class="node">
<title>Node28</title>
<g id="a_node28"><a xlink:href="classUInputHelper.html#a61509601d3dbd8933aaa26c1e2db02f6" target="_top" xlink:title=" ">
<polygon fill="white" stroke="black" points="999.5,-247.73 999.5,-266.73 1143.5,-266.73 1143.5,-247.73 999.5,-247.73"/>
<text text-anchor="middle" x="1071.5" y="-254.73" font-family="Helvetica,sans-Serif" font-size="10.00">UInputHelper::getInstance</text>
</a>
</g>
</g>
<!-- Node23&#45;&gt;Node28 -->
<g id="edge31" class="edge">
<title>Node23&#45;&gt;Node28</title>
<path fill="none" stroke="midnightblue" d="M926.74,-257.23C946.1,-257.23 968.19,-257.23 989.15,-257.23"/>
<polygon fill="midnightblue" stroke="midnightblue" points="989.33,-260.73 999.33,-257.23 989.33,-253.73 989.33,-260.73"/>
</g>
<!-- Node34 -->
<g id="node34" class="node">
<title>Node34</title>
<g id="a_node34"><a xlink:href="classWinExtras.html#a0bfa711c1abe72486dfebc8ff6fe7f5a" target="_top" xlink:title="Convert a virtual key into the corresponding keyboard scan code.">
<polygon fill="white" stroke="black" points="975,-361.73 975,-380.73 1168,-380.73 1168,-361.73 975,-361.73"/>
<text text-anchor="middle" x="1071.5" y="-368.73" font-family="Helvetica,sans-Serif" font-size="10.00">WinExtras::scancodeFromVirtualKey</text>
</a>
</g>
</g>
<!-- Node23&#45;&gt;Node34 -->
<g id="edge41" class="edge">
<title>Node23&#45;&gt;Node34</title>
<path fill="none" stroke="midnightblue" d="M913.79,-266.79C922.83,-270.25 931.8,-274.93 939,-281.23 965.62,-304.54 946.81,-330.85 975,-352.23 977.34,-354.01 979.79,-355.63 982.35,-357.1"/>
<polygon fill="midnightblue" stroke="midnightblue" points="980.84,-360.26 991.35,-361.61 983.97,-354 980.84,-360.26"/>
</g>
<!-- Node26 -->
<g id="node26" class="node">
<title>Node26</title>
<g id="a_node26"><a xlink:href="classUInputHelper.html#a043b0fa7cf4ce5811d01d95f3ca318b7" target="_top" xlink:title=" ">
<polygon fill="white" stroke="black" points="1591,-285.23 1591,-315.23 1762,-315.23 1762,-285.23 1591,-285.23"/>
<text text-anchor="start" x="1599" y="-303.23" font-family="Helvetica,sans-Serif" font-size="10.00">UInputHelper::getKnownAliases</text>
<text text-anchor="middle" x="1676.5" y="-292.23" font-family="Helvetica,sans-Serif" font-size="10.00">VKStrings</text>
</a>
</g>
</g>
<!-- Node25&#45;&gt;Node26 -->
<g id="edge28" class="edge">
<title>Node25&#45;&gt;Node26</title>
<path fill="none" stroke="midnightblue" d="M1543.67,-300.23C1555.68,-300.23 1568.35,-300.23 1580.9,-300.23"/>
<polygon fill="midnightblue" stroke="midnightblue" points="1580.92,-303.73 1590.92,-300.23 1580.92,-296.73 1580.92,-303.73"/>
</g>
<!-- Node29 -->
<g id="node29" class="node">
<title>Node29</title>
<g id="a_node29"><a xlink:href="classUInputHelper.html#a5d56d23a0e0202435c7a5ff1aca9ce55" target="_top" xlink:title=" ">
<polygon fill="white" stroke="black" points="1204,-247.73 1204,-266.73 1356,-266.73 1356,-247.73 1204,-247.73"/>
<text text-anchor="middle" x="1280" y="-254.73" font-family="Helvetica,sans-Serif" font-size="10.00">UInputHelper::UInputHelper</text>
</a>
</g>
</g>
<!-- Node28&#45;&gt;Node29 -->
<g id="edge32" class="edge">
<title>Node28&#45;&gt;Node29</title>
<path fill="none" stroke="midnightblue" d="M1143.57,-257.23C1159.7,-257.23 1177,-257.23 1193.66,-257.23"/>
<polygon fill="midnightblue" stroke="midnightblue" points="1193.93,-260.73 1203.93,-257.23 1193.93,-253.73 1193.93,-260.73"/>
</g>
<!-- Node30 -->
<g id="node30" class="node">
<title>Node30</title>
<g id="a_node30"><a xlink:href="classUInputHelper.html#a0f4dbb4221502d86f7d0af12a9865568" target="_top" xlink:title=" ">
<polygon fill="white" stroke="black" points="1392,-236.23 1392,-266.23 1555,-266.23 1555,-236.23 1392,-236.23"/>
<text text-anchor="start" x="1400" y="-254.23" font-family="Helvetica,sans-Serif" font-size="10.00">UInputHelper::populateKnown</text>
<text text-anchor="middle" x="1473.5" y="-243.23" font-family="Helvetica,sans-Serif" font-size="10.00">Aliases</text>
</a>
</g>
</g>
<!-- Node29&#45;&gt;Node30 -->
<g id="edge33" class="edge">
<title>Node29&#45;&gt;Node30</title>
<path fill="none" stroke="midnightblue" d="M1356.14,-254.88C1364.57,-254.62 1373.23,-254.34 1381.83,-254.08"/>
<polygon fill="midnightblue" stroke="midnightblue" points="1382.01,-257.57 1391.89,-253.76 1381.79,-250.58 1382.01,-257.57"/>
</g>
<!-- Node30&#45;&gt;Node26 -->
<g id="edge34" class="edge">
<title>Node30&#45;&gt;Node26</title>
<path fill="none" stroke="midnightblue" d="M1536.17,-266.27C1557.59,-271.49 1581.78,-277.39 1603.93,-282.79"/>
<polygon fill="midnightblue" stroke="midnightblue" points="1603.4,-286.26 1613.94,-285.23 1605.06,-279.46 1603.4,-286.26"/>
</g>
<!-- Node31 -->
<g id="node31" class="node">
<title>Node31</title>
<g id="a_node31"><a xlink:href="classUInputHelper.html#a8f3fe71ae635cd3c46eaab79dd11c2e0" target="_top" xlink:title=" ">
<polygon fill="white" stroke="black" points="1591,-236.23 1591,-266.23 1762,-266.23 1762,-236.23 1591,-236.23"/>
<text text-anchor="start" x="1599" y="-254.23" font-family="Helvetica,sans-Serif" font-size="10.00">UInputHelper::getKnownAliases</text>
<text text-anchor="middle" x="1676.5" y="-243.23" font-family="Helvetica,sans-Serif" font-size="10.00">X11SymVK</text>
</a>
</g>
</g>
<!-- Node30&#45;&gt;Node31 -->
<g id="edge35" class="edge">
<title>Node30&#45;&gt;Node31</title>
<path fill="none" stroke="midnightblue" d="M1555.1,-251.23C1563.57,-251.23 1572.25,-251.23 1580.87,-251.23"/>
<polygon fill="midnightblue" stroke="midnightblue" points="1580.94,-254.73 1590.94,-251.23 1580.94,-247.73 1580.94,-254.73"/>
</g>
<!-- Node32 -->
<g id="node32" class="node">
<title>Node32</title>
<g id="a_node32"><a xlink:href="classUInputHelper.html#a9793030329fbbe1106b255814ef2bd0f" target="_top" xlink:title=" ">
<polygon fill="white" stroke="black" points="1602,-187.23 1602,-217.23 1751,-217.23 1751,-187.23 1602,-187.23"/>
<text text-anchor="start" x="1610" y="-205.23" font-family="Helvetica,sans-Serif" font-size="10.00">UInputHelper::populateX11</text>
<text text-anchor="middle" x="1676.5" y="-194.23" font-family="Helvetica,sans-Serif" font-size="10.00">SymVk</text>
</a>
</g>
</g>
<!-- Node30&#45;&gt;Node32 -->
<g id="edge36" class="edge">
<title>Node30&#45;&gt;Node32</title>
<path fill="none" stroke="midnightblue" d="M1536.17,-236.2C1557.59,-230.98 1581.78,-225.08 1603.93,-219.68"/>
<polygon fill="midnightblue" stroke="midnightblue" points="1605.06,-223.01 1613.94,-217.24 1603.4,-216.21 1605.06,-223.01"/>
</g>
<!-- Node33 -->
<g id="node33" class="node">
<title>Node33</title>
<g id="a_node33"><a xlink:href="classUInputHelper.html#af02574de230bb0550eebb63f5a669681" target="_top" xlink:title=" ">
<polygon fill="white" stroke="black" points="1602,-138.23 1602,-168.23 1751,-168.23 1751,-138.23 1602,-138.23"/>
<text text-anchor="start" x="1610" y="-156.23" font-family="Helvetica,sans-Serif" font-size="10.00">UInputHelper::populateXVk</text>
<text text-anchor="middle" x="1676.5" y="-145.23" font-family="Helvetica,sans-Serif" font-size="10.00">Strings</text>
</a>
</g>
</g>
<!-- Node30&#45;&gt;Node33 -->
<g id="edge37" class="edge">
<title>Node30&#45;&gt;Node33</title>
<path fill="none" stroke="midnightblue" d="M1495,-235.96C1517.54,-219.76 1555.32,-194.33 1591,-178.23 1596.27,-175.86 1601.83,-173.64 1607.47,-171.58"/>
<polygon fill="midnightblue" stroke="midnightblue" points="1608.71,-174.85 1617.01,-168.27 1606.42,-168.24 1608.71,-174.85"/>
</g>
</g>
</svg>
