<?xml version="1.0" encoding="UTF-8" standalone="no"?>
<!DOCTYPE svg PUBLIC "-//W3C//DTD SVG 1.1//EN"
 "http://www.w3.org/Graphics/SVG/1.1/DTD/svg11.dtd">
<!-- Generated by graphviz version 2.43.0 (0)
 -->
<!-- Title: JoyAxisContextMenu::buildMenu Pages: 1 -->
<svg width="903pt" height="306pt"
 viewBox="0.00 0.00 903.00 305.50" xmlns="http://www.w3.org/2000/svg" xmlns:xlink="http://www.w3.org/1999/xlink">
<g id="graph0" class="graph" transform="scale(1 1) rotate(0) translate(4 301.5)">
<title>JoyAxisContextMenu::buildMenu</title>
<polygon fill="white" stroke="transparent" points="-4,4 -4,-301.5 899,-301.5 899,4 -4,4"/>
<!-- Node1 -->
<g id="node1" class="node">
<title>Node1</title>
<g id="a_node1"><a xlink:title=" ">
<polygon fill="#bfbfbf" stroke="black" points="0,-132 0,-162 118,-162 118,-132 0,-132"/>
<text text-anchor="start" x="8" y="-150" font-family="Helvetica,sans-Serif" font-size="10.00">JoyAxisContextMenu</text>
<text text-anchor="middle" x="59" y="-139" font-family="Helvetica,sans-Serif" font-size="10.00">::buildMenu</text>
</a>
</g>
</g>
<!-- Node2 -->
<g id="node2" class="node">
<title>Node2</title>
<g id="a_node2"><a xlink:href="classJoyAxisContextMenu.html#aab4c898a84b58ede5c3a2740287cc898" target="_top" xlink:title=" ">
<polygon fill="white" stroke="black" points="154,-132 154,-162 272,-162 272,-132 154,-132"/>
<text text-anchor="start" x="162" y="-150" font-family="Helvetica,sans-Serif" font-size="10.00">JoyAxisContextMenu</text>
<text text-anchor="middle" x="213" y="-139" font-family="Helvetica,sans-Serif" font-size="10.00">::buildAxisMenu</text>
</a>
</g>
</g>
<!-- Node1&#45;&gt;Node2 -->
<g id="edge1" class="edge">
<title>Node1&#45;&gt;Node2</title>
<path fill="none" stroke="midnightblue" d="M118.33,-147C126.61,-147 135.17,-147 143.62,-147"/>
<polygon fill="midnightblue" stroke="midnightblue" points="143.82,-150.5 153.82,-147 143.82,-143.5 143.82,-150.5"/>
</g>
<!-- Node17 -->
<g id="node17" class="node">
<title>Node17</title>
<g id="a_node17"><a xlink:href="classJoyAxisContextMenu.html#adf4373314a4567689fb16a2e4cf484e1" target="_top" xlink:title=" ">
<polygon fill="white" stroke="black" points="154,-205 154,-235 272,-235 272,-205 154,-205"/>
<text text-anchor="start" x="162" y="-223" font-family="Helvetica,sans-Serif" font-size="10.00">JoyAxisContextMenu</text>
<text text-anchor="middle" x="213" y="-212" font-family="Helvetica,sans-Serif" font-size="10.00">::buildTriggerMenu</text>
</a>
</g>
</g>
<!-- Node1&#45;&gt;Node17 -->
<g id="edge19" class="edge">
<title>Node1&#45;&gt;Node17</title>
<path fill="none" stroke="midnightblue" d="M91.49,-162.13C114.63,-173.23 146.25,-188.42 171.3,-200.45"/>
<polygon fill="midnightblue" stroke="midnightblue" points="170.02,-203.72 180.55,-204.89 173.05,-197.41 170.02,-203.72"/>
</g>
<!-- Node20 -->
<g id="node20" class="node">
<title>Node20</title>
<g id="a_node20"><a xlink:href="classJoyAxis.html#a01dfb4ec2c2e85304a479f21b9cffe49" target="_top" xlink:title=" ">
<polygon fill="white" stroke="black" points="156.5,-93.5 156.5,-112.5 269.5,-112.5 269.5,-93.5 156.5,-93.5"/>
<text text-anchor="middle" x="213" y="-100.5" font-family="Helvetica,sans-Serif" font-size="10.00">JoyAxis::getThrottle</text>
</a>
</g>
</g>
<!-- Node1&#45;&gt;Node20 -->
<g id="edge31" class="edge">
<title>Node1&#45;&gt;Node20</title>
<path fill="none" stroke="midnightblue" d="M111.88,-131.98C130.43,-126.61 151.12,-120.62 168.85,-115.49"/>
<polygon fill="midnightblue" stroke="midnightblue" points="170.28,-118.72 178.91,-112.58 168.33,-112 170.28,-118.72"/>
</g>
<!-- Node3 -->
<g id="node3" class="node">
<title>Node3</title>
<g id="a_node3"><a xlink:href="classJoyAxisContextMenu.html#acac6fe6c01df44b32d84d95913f2c3c7" target="_top" xlink:title=" ">
<polygon fill="white" stroke="black" points="324,-71 324,-101 442,-101 442,-71 324,-71"/>
<text text-anchor="start" x="332" y="-89" font-family="Helvetica,sans-Serif" font-size="10.00">JoyAxisContextMenu</text>
<text text-anchor="middle" x="383" y="-78" font-family="Helvetica,sans-Serif" font-size="10.00">::getPresetIndex</text>
</a>
</g>
</g>
<!-- Node2&#45;&gt;Node3 -->
<g id="edge2" class="edge">
<title>Node2&#45;&gt;Node3</title>
<path fill="none" stroke="midnightblue" d="M252.29,-131.94C269.29,-125.35 289.59,-117.63 308,-111 314.03,-108.83 320.35,-106.61 326.66,-104.43"/>
<polygon fill="midnightblue" stroke="midnightblue" points="328.18,-107.61 336.5,-101.05 325.91,-100.98 328.18,-107.61"/>
</g>
<!-- Node14 -->
<g id="node14" class="node">
<title>Node14</title>
<g id="a_node14"><a xlink:href="classJoyAxisContextMenu.html#a04da5e38929b25e9d606937e256ed22b" target="_top" xlink:title=" ">
<polygon fill="white" stroke="black" points="308,-169 308,-199 458,-199 458,-169 308,-169"/>
<text text-anchor="start" x="316" y="-187" font-family="Helvetica,sans-Serif" font-size="10.00">JoyAxisContextMenu</text>
<text text-anchor="middle" x="383" y="-176" font-family="Helvetica,sans-Serif" font-size="10.00">::openMouseSettingsDialog</text>
</a>
</g>
</g>
<!-- Node2&#45;&gt;Node14 -->
<g id="edge13" class="edge">
<title>Node2&#45;&gt;Node14</title>
<path fill="none" stroke="midnightblue" d="M272.29,-159.84C282.41,-162.07 293.09,-164.42 303.65,-166.74"/>
<polygon fill="midnightblue" stroke="midnightblue" points="303.2,-170.23 313.71,-168.96 304.7,-163.39 303.2,-170.23"/>
</g>
<!-- Node15 -->
<g id="node15" class="node">
<title>Node15</title>
<g id="a_node15"><a xlink:href="classJoyAxisContextMenu.html#aa369997b4c8bc45e220281a2f3a32d96" target="_top" xlink:title=" ">
<polygon fill="white" stroke="black" points="324,-120 324,-150 442,-150 442,-120 324,-120"/>
<text text-anchor="start" x="332" y="-138" font-family="Helvetica,sans-Serif" font-size="10.00">JoyAxisContextMenu</text>
<text text-anchor="middle" x="383" y="-127" font-family="Helvetica,sans-Serif" font-size="10.00">::setAxisPreset</text>
</a>
</g>
</g>
<!-- Node2&#45;&gt;Node15 -->
<g id="edge14" class="edge">
<title>Node2&#45;&gt;Node15</title>
<path fill="none" stroke="midnightblue" d="M272.29,-142.84C285.58,-141.89 299.82,-140.87 313.5,-139.89"/>
<polygon fill="midnightblue" stroke="midnightblue" points="314.09,-143.36 323.82,-139.16 313.59,-136.38 314.09,-143.36"/>
</g>
<!-- Node4 -->
<g id="node4" class="node">
<title>Node4</title>
<g id="a_node4"><a xlink:href="classJoyButton.html#ae1d364dfa70f47fae3db99ffbcdea44b" target="_top" xlink:title=" ">
<polygon fill="white" stroke="black" points="503.5,-114.5 503.5,-133.5 657.5,-133.5 657.5,-114.5 503.5,-114.5"/>
<text text-anchor="middle" x="580.5" y="-121.5" font-family="Helvetica,sans-Serif" font-size="10.00">JoyButton::getAssignedSlots</text>
</a>
</g>
</g>
<!-- Node3&#45;&gt;Node4 -->
<g id="edge3" class="edge">
<title>Node3&#45;&gt;Node4</title>
<path fill="none" stroke="midnightblue" d="M442.13,-97.3C466.86,-102.11 495.66,-107.7 520.49,-112.53"/>
<polygon fill="midnightblue" stroke="midnightblue" points="520.02,-116 530.5,-114.48 521.36,-109.13 520.02,-116"/>
</g>
<!-- Node5 -->
<g id="node5" class="node">
<title>Node5</title>
<g id="a_node5"><a xlink:href="classAntKeyMapper.html#acd08c44a2501edcfdb1ef8a68d534b1b" target="_top" xlink:title=" ">
<polygon fill="white" stroke="black" points="505,-76.5 505,-95.5 656,-95.5 656,-76.5 505,-76.5"/>
<text text-anchor="middle" x="580.5" y="-83.5" font-family="Helvetica,sans-Serif" font-size="10.00">AntKeyMapper::getInstance</text>
</a>
</g>
</g>
<!-- Node3&#45;&gt;Node5 -->
<g id="edge4" class="edge">
<title>Node3&#45;&gt;Node5</title>
<path fill="none" stroke="midnightblue" d="M442.13,-86C458.59,-86 476.86,-86 494.56,-86"/>
<polygon fill="midnightblue" stroke="midnightblue" points="494.9,-89.5 504.9,-86 494.9,-82.5 494.9,-89.5"/>
</g>
<!-- Node8 -->
<g id="node8" class="node">
<title>Node8</title>
<g id="a_node8"><a xlink:href="classJoyAxis.html#aae658e2a7b83ce73ce3d7d1ed13eabc6" target="_top" xlink:title=" ">
<polygon fill="white" stroke="black" points="513,-38.5 513,-57.5 648,-57.5 648,-38.5 513,-38.5"/>
<text text-anchor="middle" x="580.5" y="-45.5" font-family="Helvetica,sans-Serif" font-size="10.00">JoyAxis::getNAxisButton</text>
</a>
</g>
</g>
<!-- Node3&#45;&gt;Node8 -->
<g id="edge7" class="edge">
<title>Node3&#45;&gt;Node8</title>
<path fill="none" stroke="midnightblue" d="M442.13,-74.7C466.86,-69.89 495.66,-64.3 520.49,-59.47"/>
<polygon fill="midnightblue" stroke="midnightblue" points="521.36,-62.87 530.5,-57.52 520.02,-56 521.36,-62.87"/>
</g>
<!-- Node9 -->
<g id="node9" class="node">
<title>Node9</title>
<g id="a_node9"><a xlink:href="classJoyAxis.html#ad51d55d2a95190468209f7481eae8639" target="_top" xlink:title=" ">
<polygon fill="white" stroke="black" points="514,-228.5 514,-247.5 647,-247.5 647,-228.5 514,-228.5"/>
<text text-anchor="middle" x="580.5" y="-235.5" font-family="Helvetica,sans-Serif" font-size="10.00">JoyAxis::getPAxisButton</text>
</a>
</g>
</g>
<!-- Node3&#45;&gt;Node9 -->
<g id="edge8" class="edge">
<title>Node3&#45;&gt;Node9</title>
<path fill="none" stroke="midnightblue" d="M442.07,-99.56C447.93,-102.63 453.41,-106.39 458,-111 493.7,-146.85 456.43,-185.11 494,-219 497.24,-221.92 500.83,-224.43 504.64,-226.57"/>
<polygon fill="midnightblue" stroke="midnightblue" points="503.37,-229.84 513.91,-230.95 506.36,-223.51 503.37,-229.84"/>
</g>
<!-- Node10 -->
<g id="node10" class="node">
<title>Node10</title>
<g id="a_node10"><a xlink:href="classJoyButtonSlot.html#a1e91202fd2eac80332ed3e3ff1593769" target="_top" xlink:title=" ">
<polygon fill="white" stroke="black" points="506.5,-152.5 506.5,-171.5 654.5,-171.5 654.5,-152.5 506.5,-152.5"/>
<text text-anchor="middle" x="580.5" y="-159.5" font-family="Helvetica,sans-Serif" font-size="10.00">JoyButtonSlot::getSlotCode</text>
</a>
</g>
</g>
<!-- Node3&#45;&gt;Node10 -->
<g id="edge9" class="edge">
<title>Node3&#45;&gt;Node10</title>
<path fill="none" stroke="midnightblue" d="M437.29,-101.11C444.46,-103.96 451.55,-107.25 458,-111 476.51,-121.75 474.94,-133.25 494,-143 498.62,-145.36 503.53,-147.43 508.56,-149.25"/>
<polygon fill="midnightblue" stroke="midnightblue" points="507.77,-152.67 518.37,-152.43 509.94,-146.01 507.77,-152.67"/>
</g>
<!-- Node11 -->
<g id="node11" class="node">
<title>Node11</title>
<g id="a_node11"><a xlink:href="classJoyButtonSlot.html#a86b4a25191351f28942511012a4e4e4a" target="_top" xlink:title=" ">
<polygon fill="white" stroke="black" points="505.5,-190.5 505.5,-209.5 655.5,-209.5 655.5,-190.5 505.5,-190.5"/>
<text text-anchor="middle" x="580.5" y="-197.5" font-family="Helvetica,sans-Serif" font-size="10.00">JoyButtonSlot::getSlotMode</text>
</a>
</g>
</g>
<!-- Node3&#45;&gt;Node11 -->
<g id="edge10" class="edge">
<title>Node3&#45;&gt;Node11</title>
<path fill="none" stroke="midnightblue" d="M442.15,-100.65C447.85,-103.52 453.27,-106.93 458,-111 484.51,-133.82 466.3,-159.63 494,-181 496.31,-182.79 498.76,-184.41 501.31,-185.89"/>
<polygon fill="midnightblue" stroke="midnightblue" points="499.81,-189.05 510.32,-190.37 502.92,-182.78 499.81,-189.05"/>
</g>
<!-- Node12 -->
<g id="node12" class="node">
<title>Node12</title>
<g id="a_node12"><a xlink:href="classAntKeyMapper.html#a07957c1e2baac6c4266678d89dc7c3a6" target="_top" xlink:title=" ">
<polygon fill="white" stroke="black" points="494,-0.5 494,-19.5 667,-19.5 667,-0.5 494,-0.5"/>
<text text-anchor="middle" x="580.5" y="-7.5" font-family="Helvetica,sans-Serif" font-size="10.00">AntKeyMapper::returnVirtualKey</text>
</a>
</g>
</g>
<!-- Node3&#45;&gt;Node12 -->
<g id="edge11" class="edge">
<title>Node3&#45;&gt;Node12</title>
<path fill="none" stroke="midnightblue" d="M408.5,-70.95C430.25,-58.16 463.27,-40.16 494,-29 501.24,-26.37 508.95,-24.04 516.68,-21.99"/>
<polygon fill="midnightblue" stroke="midnightblue" points="517.59,-25.37 526.43,-19.54 515.88,-18.58 517.59,-25.37"/>
</g>
<!-- Node6 -->
<g id="node6" class="node">
<title>Node6</title>
<g id="a_node6"><a xlink:href="classAntKeyMapper.html#abe4a434636d370a750d32a14b9a139d3" target="_top" xlink:title=" ">
<polygon fill="white" stroke="black" points="716.5,-95.5 716.5,-114.5 881.5,-114.5 881.5,-95.5 716.5,-95.5"/>
<text text-anchor="middle" x="799" y="-102.5" font-family="Helvetica,sans-Serif" font-size="10.00">AntKeyMapper::AntKeyMapper</text>
</a>
</g>
</g>
<!-- Node5&#45;&gt;Node6 -->
<g id="edge5" class="edge">
<title>Node5&#45;&gt;Node6</title>
<path fill="none" stroke="midnightblue" d="M656.01,-92.54C672.11,-93.95 689.33,-95.46 706.01,-96.93"/>
<polygon fill="midnightblue" stroke="midnightblue" points="706.05,-100.44 716.32,-97.83 706.66,-93.47 706.05,-100.44"/>
</g>
<!-- Node7 -->
<g id="node7" class="node">
<title>Node7</title>
<g id="a_node7"><a xlink:href="antkeymapper_8cpp.html#a4f87707944cf82e8e59c85d48e24951c" target="_top" xlink:title=" ">
<polygon fill="white" stroke="black" points="732,-57.5 732,-76.5 866,-76.5 866,-57.5 732,-57.5"/>
<text text-anchor="middle" x="799" y="-64.5" font-family="Helvetica,sans-Serif" font-size="10.00">buildEventGeneratorList</text>
</a>
</g>
</g>
<!-- Node5&#45;&gt;Node7 -->
<g id="edge6" class="edge">
<title>Node5&#45;&gt;Node7</title>
<path fill="none" stroke="midnightblue" d="M656.01,-79.46C677.23,-77.6 700.38,-75.57 721.71,-73.7"/>
<polygon fill="midnightblue" stroke="midnightblue" points="722.03,-77.18 731.69,-72.82 721.42,-70.21 722.03,-77.18"/>
</g>
<!-- Node13 -->
<g id="node13" class="node">
<title>Node13</title>
<g id="a_node13"><a xlink:href="classQtKeyMapperBase.html#a5df0f313bce11847f8495126373e7178" target="_top" xlink:title=" ">
<polygon fill="white" stroke="black" points="703,-0.5 703,-19.5 895,-19.5 895,-0.5 703,-0.5"/>
<text text-anchor="middle" x="799" y="-7.5" font-family="Helvetica,sans-Serif" font-size="10.00">QtKeyMapperBase::returnVirtualKey</text>
</a>
</g>
</g>
<!-- Node12&#45;&gt;Node13 -->
<g id="edge12" class="edge">
<title>Node12&#45;&gt;Node13</title>
<path fill="none" stroke="midnightblue" d="M667.07,-10C675.48,-10 684.08,-10 692.66,-10"/>
<polygon fill="midnightblue" stroke="midnightblue" points="692.7,-13.5 702.7,-10 692.7,-6.5 692.7,-13.5"/>
</g>
<!-- Node15&#45;&gt;Node5 -->
<g id="edge15" class="edge">
<title>Node15&#45;&gt;Node5</title>
<path fill="none" stroke="midnightblue" d="M437.02,-119.99C455.05,-115.03 475.36,-109.61 494,-105 503.85,-102.56 514.38,-100.11 524.56,-97.8"/>
<polygon fill="midnightblue" stroke="midnightblue" points="525.59,-101.16 534.59,-95.56 524.07,-94.33 525.59,-101.16"/>
</g>
<!-- Node15&#45;&gt;Node10 -->
<g id="edge16" class="edge">
<title>Node15&#45;&gt;Node10</title>
<path fill="none" stroke="midnightblue" d="M442.13,-143.03C460.43,-145.56 480.97,-148.39 500.48,-151.09"/>
<polygon fill="midnightblue" stroke="midnightblue" points="500.18,-154.58 510.57,-152.48 501.14,-147.64 500.18,-154.58"/>
</g>
<!-- Node15&#45;&gt;Node11 -->
<g id="edge18" class="edge">
<title>Node15&#45;&gt;Node11</title>
<path fill="none" stroke="midnightblue" d="M433.11,-150.03C441.53,-153.05 450.1,-156.41 458,-160 474.86,-167.67 476.75,-174.24 494,-181 500.62,-183.59 507.67,-185.87 514.78,-187.87"/>
<polygon fill="midnightblue" stroke="midnightblue" points="513.91,-191.26 524.47,-190.41 515.69,-184.49 513.91,-191.26"/>
</g>
<!-- Node16 -->
<g id="node16" class="node">
<title>Node16</title>
<g id="a_node16"><a xlink:href="classJoyButtonSlot.html#a509e28e2c92e8aea3433a19f2d0311b2" target="_top" xlink:title=" ">
<polygon fill="white" stroke="black" points="506.5,-267 506.5,-297 654.5,-297 654.5,-267 506.5,-267"/>
<text text-anchor="start" x="514.5" y="-285" font-family="Helvetica,sans-Serif" font-size="10.00">JoyButtonSlot::getSlotCode</text>
<text text-anchor="middle" x="580.5" y="-274" font-family="Helvetica,sans-Serif" font-size="10.00">Alias</text>
</a>
</g>
</g>
<!-- Node15&#45;&gt;Node16 -->
<g id="edge17" class="edge">
<title>Node15&#45;&gt;Node16</title>
<path fill="none" stroke="midnightblue" d="M442.29,-148.9C448.04,-151.91 453.43,-155.56 458,-160 490.99,-192.03 460.35,-225.66 494,-257 495.7,-258.58 497.5,-260.07 499.37,-261.46"/>
<polygon fill="midnightblue" stroke="midnightblue" points="497.72,-264.56 508.03,-266.98 501.48,-258.65 497.72,-264.56"/>
</g>
<!-- Node17&#45;&gt;Node14 -->
<g id="edge25" class="edge">
<title>Node17&#45;&gt;Node14</title>
<path fill="none" stroke="midnightblue" d="M272.29,-207.51C281.88,-205.45 291.97,-203.29 301.99,-201.15"/>
<polygon fill="midnightblue" stroke="midnightblue" points="302.91,-204.53 311.96,-199.01 301.45,-197.68 302.91,-204.53"/>
</g>
<!-- Node18 -->
<g id="node18" class="node">
<title>Node18</title>
<g id="a_node18"><a xlink:href="classJoyAxisContextMenu.html#aefe9a7c14fe59c960c16d2374be439fa" target="_top" xlink:title=" ">
<polygon fill="white" stroke="black" points="318.5,-218 318.5,-248 447.5,-248 447.5,-218 318.5,-218"/>
<text text-anchor="start" x="326.5" y="-236" font-family="Helvetica,sans-Serif" font-size="10.00">JoyAxisContextMenu</text>
<text text-anchor="middle" x="383" y="-225" font-family="Helvetica,sans-Serif" font-size="10.00">::getTriggerPresetIndex</text>
</a>
</g>
</g>
<!-- Node17&#45;&gt;Node18 -->
<g id="edge20" class="edge">
<title>Node17&#45;&gt;Node18</title>
<path fill="none" stroke="midnightblue" d="M272.29,-224.51C283.91,-225.41 296.26,-226.37 308.32,-227.3"/>
<polygon fill="midnightblue" stroke="midnightblue" points="308.13,-230.79 318.37,-228.08 308.67,-223.81 308.13,-230.79"/>
</g>
<!-- Node19 -->
<g id="node19" class="node">
<title>Node19</title>
<g id="a_node19"><a xlink:href="classJoyAxisContextMenu.html#ab1be92f7657d1e9ceaf561bb2b85c43a" target="_top" xlink:title=" ">
<polygon fill="white" stroke="black" points="324,-267 324,-297 442,-297 442,-267 324,-267"/>
<text text-anchor="start" x="332" y="-285" font-family="Helvetica,sans-Serif" font-size="10.00">JoyAxisContextMenu</text>
<text text-anchor="middle" x="383" y="-274" font-family="Helvetica,sans-Serif" font-size="10.00">::setTriggerPreset</text>
</a>
</g>
</g>
<!-- Node17&#45;&gt;Node19 -->
<g id="edge26" class="edge">
<title>Node17&#45;&gt;Node19</title>
<path fill="none" stroke="midnightblue" d="M249.48,-235.03C266.98,-242.27 288.48,-250.9 308,-258 313.24,-259.9 318.71,-261.82 324.2,-263.69"/>
<polygon fill="midnightblue" stroke="midnightblue" points="323.47,-267.14 334.06,-267 325.7,-260.5 323.47,-267.14"/>
</g>
<!-- Node18&#45;&gt;Node4 -->
<g id="edge21" class="edge">
<title>Node18&#45;&gt;Node4</title>
<path fill="none" stroke="midnightblue" d="M444.26,-217.94C449.18,-215.41 453.84,-212.45 458,-209 483.72,-187.67 467.3,-163.09 494,-143 496.47,-141.14 499.09,-139.46 501.82,-137.93"/>
<polygon fill="midnightblue" stroke="midnightblue" points="503.36,-141.08 510.85,-133.58 500.32,-134.77 503.36,-141.08"/>
</g>
<!-- Node18&#45;&gt;Node9 -->
<g id="edge22" class="edge">
<title>Node18&#45;&gt;Node9</title>
<path fill="none" stroke="midnightblue" d="M447.74,-234.63C465.61,-235.09 485.2,-235.59 503.69,-236.06"/>
<polygon fill="midnightblue" stroke="midnightblue" points="503.74,-239.56 513.83,-236.32 503.92,-232.57 503.74,-239.56"/>
</g>
<!-- Node18&#45;&gt;Node10 -->
<g id="edge23" class="edge">
<title>Node18&#45;&gt;Node10</title>
<path fill="none" stroke="midnightblue" d="M437.87,-217.98C444.8,-215.34 451.68,-212.35 458,-209 475.91,-199.51 475.66,-189.63 494,-181 499.29,-178.51 504.92,-176.34 510.66,-174.45"/>
<polygon fill="midnightblue" stroke="midnightblue" points="511.83,-177.75 520.41,-171.53 509.82,-171.05 511.83,-177.75"/>
</g>
<!-- Node18&#45;&gt;Node11 -->
<g id="edge24" class="edge">
<title>Node18&#45;&gt;Node11</title>
<path fill="none" stroke="midnightblue" d="M447.74,-222.24C468.71,-218.7 492.07,-214.76 513.22,-211.19"/>
<polygon fill="midnightblue" stroke="midnightblue" points="513.81,-214.64 523.09,-209.52 512.65,-207.74 513.81,-214.64"/>
</g>
<!-- Node19&#45;&gt;Node9 -->
<g id="edge27" class="edge">
<title>Node19&#45;&gt;Node9</title>
<path fill="none" stroke="midnightblue" d="M442.13,-268.92C469.17,-262.83 501.09,-255.65 527.35,-249.74"/>
<polygon fill="midnightblue" stroke="midnightblue" points="528.13,-253.15 537.12,-247.54 526.59,-246.32 528.13,-253.15"/>
</g>
<!-- Node19&#45;&gt;Node10 -->
<g id="edge28" class="edge">
<title>Node19&#45;&gt;Node10</title>
<path fill="none" stroke="midnightblue" d="M442.29,-268.35C447.97,-265.52 453.34,-262.11 458,-258 486.31,-232.99 464.53,-204.64 494,-181 496.08,-179.33 498.27,-177.81 500.55,-176.41"/>
<polygon fill="midnightblue" stroke="midnightblue" points="502.49,-179.35 509.74,-171.62 499.26,-173.14 502.49,-179.35"/>
</g>
<!-- Node19&#45;&gt;Node11 -->
<g id="edge30" class="edge">
<title>Node19&#45;&gt;Node11</title>
<path fill="none" stroke="midnightblue" d="M440.74,-266.97C446.78,-264.4 452.65,-261.42 458,-258 477.87,-245.28 473.55,-230.76 494,-219 497.89,-216.76 502.01,-214.79 506.27,-213.05"/>
<polygon fill="midnightblue" stroke="midnightblue" points="507.56,-216.31 515.76,-209.6 505.17,-209.73 507.56,-216.31"/>
</g>
<!-- Node19&#45;&gt;Node16 -->
<g id="edge29" class="edge">
<title>Node19&#45;&gt;Node16</title>
<path fill="none" stroke="midnightblue" d="M442.13,-282C459.13,-282 478.05,-282 496.28,-282"/>
<polygon fill="midnightblue" stroke="midnightblue" points="496.33,-285.5 506.33,-282 496.33,-278.5 496.33,-285.5"/>
</g>
</g>
</svg>
