<?xml version="1.0" encoding="UTF-8" standalone="no"?>
<!DOCTYPE svg PUBLIC "-//W3C//DTD SVG 1.1//EN"
 "http://www.w3.org/Graphics/SVG/1.1/DTD/svg11.dtd">
<!-- Generated by graphviz version 2.43.0 (0)
 -->
<!-- Title: JoyButton::setMouseMode Pages: 1 -->
<!--zoomable 359 -->
<svg id="main" version="1.1" xmlns="http://www.w3.org/2000/svg" xmlns:xlink="http://www.w3.org/1999/xlink" xml:space="preserve" onload="init(evt)">
<style type="text/css"><![CDATA[
.edge:hover path { stroke: red; }
.edge:hover polygon { stroke: red; fill: red; }
]]></style>
<script type="text/javascript"><![CDATA[
var edges = document.getElementsByTagName('g');
if (edges && edges.length) {
  for (var i=0;i<edges.length;i++) {
    if (edges[i].id.substr(0,4)=='edge') {
      edges[i].setAttribute('class','edge');
    }
  }
}
]]></script>
        <defs>
                <circle id="rim" cx="0" cy="0" r="7"/>
                <circle id="rim2" cx="0" cy="0" r="3.5"/>
                <g id="zoomPlus">
                        <use xlink:href="#rim" fill="#404040">
                                <set attributeName="fill" to="#808080" begin="zoomplus.mouseover" end="zoomplus.mouseout"/>
                        </use>
                        <path d="M-4,0h8M0,-4v8" fill="none" stroke="white" stroke-width="1.5" pointer-events="none"/>
                </g>
                <g id="zoomMin">
                        <use xlink:href="#rim" fill="#404040">
                                <set attributeName="fill" to="#808080" begin="zoomminus.mouseover" end="zoomminus.mouseout"/>
                        </use>
                        <path d="M-4,0h8" fill="none" stroke="white" stroke-width="1.5" pointer-events="none"/>
                </g>
                <g id="dirArrow">
                        <path fill="none" stroke="white" stroke-width="1.5" d="M0,-3.0v7 M-2.5,-0.5L0,-3.0L2.5,-0.5"/>
                </g>
               <g id="resetDef">
                       <use xlink:href="#rim2" fill="#404040">
                               <set attributeName="fill" to="#808080" begin="reset.mouseover" end="reset.mouseout"/>
                       </use>
               </g>
        </defs>

<script type="text/javascript">
var viewWidth = 1273;
var viewHeight = 359;
var sectionId = 'dynsection-249';
</script>
<script xlink:href="svgpan.js"/>
<svg id="graph" class="graph">
<g id="viewport">
<title>JoyButton::setMouseMode</title>
<polygon fill="white" stroke="transparent" points="-4,4 -4,-355.25 1269,-355.25 1269,4 -4,4"/>
<!-- Node1 -->
<g id="node1" class="node">
<title>Node1</title>
<g id="a_node1"><a xlink:title=" ">
<polygon fill="#bfbfbf" stroke="black" points="1121,-156 1121,-175 1265,-175 1265,-156 1121,-156"/>
<text text-anchor="middle" x="1193" y="-163" font-family="Helvetica,sans-Serif" font-size="10.00">JoyButton::setMouseMode</text>
</a>
</g>
</g>
<!-- Node2 -->
<g id="node2" class="node">
<title>Node2</title>
<g id="a_node2"><a xlink:href="classMouseButtonSettingsDialog.html#af2f3f8cacbf6c91f0dd935c4db231612" target="_top" xlink:title=" ">
<polygon fill="white" stroke="black" points="922,-270.5 922,-300.5 1074,-300.5 1074,-270.5 922,-270.5"/>
<text text-anchor="start" x="930" y="-288.5" font-family="Helvetica,sans-Serif" font-size="10.00">MouseButtonSettingsDialog</text>
<text text-anchor="middle" x="998" y="-277.5" font-family="Helvetica,sans-Serif" font-size="10.00">::changeMouseMode</text>
</a>
</g>
</g>
<!-- Node1&#45;&gt;Node2 -->
<g id="edge1" class="edge">
<title>Node1&#45;&gt;Node2</title>
<path fill="none" stroke="midnightblue" d="M1170.86,-181.19C1149.61,-196.7 1115.7,-220.76 1085,-239.5 1066.94,-250.53 1046.01,-261.75 1029.32,-270.36"/>
<polygon fill="midnightblue" stroke="midnightblue" points="1173.15,-183.85 1179.14,-175.11 1169.01,-178.2 1173.15,-183.85"/>
</g>
<!-- Node4 -->
<g id="node4" class="node">
<title>Node4</title>
<g id="a_node4"><a xlink:href="classJoyButtonXml.html#a9d7b2a6324a2f8fe4f424f78aa43d261" target="_top" xlink:title=" ">
<polygon fill="white" stroke="black" points="926.5,-199.5 926.5,-229.5 1069.5,-229.5 1069.5,-199.5 926.5,-199.5"/>
<text text-anchor="start" x="934.5" y="-217.5" font-family="Helvetica,sans-Serif" font-size="10.00">JoyButtonXml::readButton</text>
<text text-anchor="middle" x="998" y="-206.5" font-family="Helvetica,sans-Serif" font-size="10.00">Config</text>
</a>
</g>
</g>
<!-- Node1&#45;&gt;Node4 -->
<g id="edge3" class="edge">
<title>Node1&#45;&gt;Node4</title>
<path fill="none" stroke="midnightblue" d="M1144.33,-177.6C1118.31,-184.21 1085.86,-192.45 1058.23,-199.46"/>
<polygon fill="midnightblue" stroke="midnightblue" points="1145.5,-180.92 1154.33,-175.06 1143.78,-174.13 1145.5,-180.92"/>
</g>
<!-- Node14 -->
<g id="node14" class="node">
<title>Node14</title>
<g id="a_node14"><a xlink:href="classJoyDPad.html#a16141810b2675be301c8f17f5d85df35" target="_top" xlink:title=" ">
<polygon fill="white" stroke="black" points="911,-156 911,-175 1085,-175 1085,-156 911,-156"/>
<text text-anchor="middle" x="998" y="-163" font-family="Helvetica,sans-Serif" font-size="10.00">JoyDPad::setButtonsMouseMode</text>
</a>
</g>
</g>
<!-- Node1&#45;&gt;Node14 -->
<g id="edge14" class="edge">
<title>Node1&#45;&gt;Node14</title>
<path fill="none" stroke="midnightblue" d="M1110.78,-165.5C1102.35,-165.5 1093.76,-165.5 1085.28,-165.5"/>
<polygon fill="midnightblue" stroke="midnightblue" points="1110.96,-169 1120.96,-165.5 1110.96,-162 1110.96,-169"/>
</g>
<!-- Node17 -->
<g id="node17" class="node">
<title>Node17</title>
<g id="a_node17"><a xlink:href="classJoyAxis.html#a1d88b64f64042f2b6f3ceccf07a6a8fa" target="_top" xlink:title=" ">
<polygon fill="white" stroke="black" points="913,-113 913,-132 1083,-132 1083,-113 913,-113"/>
<text text-anchor="middle" x="998" y="-120" font-family="Helvetica,sans-Serif" font-size="10.00">JoyAxis::setButtonsMouseMode</text>
</a>
</g>
</g>
<!-- Node1&#45;&gt;Node17 -->
<g id="edge17" class="edge">
<title>Node1&#45;&gt;Node17</title>
<path fill="none" stroke="midnightblue" d="M1139.09,-153.71C1108.46,-146.89 1070.42,-138.41 1041.71,-132.02"/>
<polygon fill="midnightblue" stroke="midnightblue" points="1138.65,-157.2 1149.17,-155.96 1140.17,-150.37 1138.65,-157.2"/>
</g>
<!-- Node20 -->
<g id="node20" class="node">
<title>Node20</title>
<g id="a_node20"><a xlink:href="classJoyControlStick.html#ac695c4212005e61e5ecfbde0305501d1" target="_top" xlink:title=" ">
<polygon fill="white" stroke="black" points="923.5,-49.5 923.5,-79.5 1072.5,-79.5 1072.5,-49.5 923.5,-49.5"/>
<text text-anchor="start" x="931.5" y="-67.5" font-family="Helvetica,sans-Serif" font-size="10.00">JoyControlStick::setButtons</text>
<text text-anchor="middle" x="998" y="-56.5" font-family="Helvetica,sans-Serif" font-size="10.00">MouseMode</text>
</a>
</g>
</g>
<!-- Node1&#45;&gt;Node20 -->
<g id="edge20" class="edge">
<title>Node1&#45;&gt;Node20</title>
<path fill="none" stroke="midnightblue" d="M1167.92,-150.63C1146.48,-137.61 1114.1,-118.48 1085,-103.5 1068.68,-95.1 1050.17,-86.58 1034.52,-79.66"/>
<polygon fill="midnightblue" stroke="midnightblue" points="1166.32,-153.75 1176.68,-155.97 1169.97,-147.77 1166.32,-153.75"/>
</g>
<!-- Node3 -->
<g id="node3" class="node">
<title>Node3</title>
<g id="a_node3"><a xlink:href="classMouseButtonSettingsDialog.html#a181bfdf388907056ec492d58d85f5d34" target="_top" xlink:title=" ">
<polygon fill="white" stroke="black" points="716.5,-292.5 716.5,-322.5 874.5,-322.5 874.5,-292.5 716.5,-292.5"/>
<text text-anchor="start" x="724.5" y="-310.5" font-family="Helvetica,sans-Serif" font-size="10.00">MouseButtonSettingsDialog</text>
<text text-anchor="middle" x="795.5" y="-299.5" font-family="Helvetica,sans-Serif" font-size="10.00">::MouseButtonSettingsDialog</text>
</a>
</g>
</g>
<!-- Node2&#45;&gt;Node3 -->
<g id="edge2" class="edge">
<title>Node2&#45;&gt;Node3</title>
<path fill="none" stroke="midnightblue" d="M911.6,-294.87C899.4,-296.21 886.89,-297.58 874.83,-298.91"/>
<polygon fill="midnightblue" stroke="midnightblue" points="912.21,-298.32 921.77,-293.75 911.45,-291.37 912.21,-298.32"/>
</g>
<!-- Node5 -->
<g id="node5" class="node">
<title>Node5</title>
<g id="a_node5"><a xlink:href="classJoyButtonXml.html#a9d79d75b14b57419ed1fc5639dde8515" target="_top" xlink:title=" ">
<polygon fill="white" stroke="black" points="724.5,-254 724.5,-273 866.5,-273 866.5,-254 724.5,-254"/>
<text text-anchor="middle" x="795.5" y="-261" font-family="Helvetica,sans-Serif" font-size="10.00">JoyButtonXml::readConfig</text>
</a>
</g>
</g>
<!-- Node4&#45;&gt;Node5 -->
<g id="edge4" class="edge">
<title>Node4&#45;&gt;Node5</title>
<path fill="none" stroke="midnightblue" d="M925.37,-232C895.09,-239.41 861,-247.74 835.49,-253.97"/>
<polygon fill="midnightblue" stroke="midnightblue" points="926.6,-235.31 935.48,-229.53 924.94,-228.51 926.6,-235.31"/>
</g>
<!-- Node9 -->
<g id="node9" class="node">
<title>Node9</title>
<g id="a_node9"><a xlink:href="classGameControllerTriggerButton.html#a1c89ef4d420dfe360817c28bc1680c93" target="_top" xlink:title=" ">
<polygon fill="white" stroke="black" points="716,-199.5 716,-229.5 875,-229.5 875,-199.5 716,-199.5"/>
<text text-anchor="start" x="724" y="-217.5" font-family="Helvetica,sans-Serif" font-size="10.00">GameControllerTriggerButton</text>
<text text-anchor="middle" x="795.5" y="-206.5" font-family="Helvetica,sans-Serif" font-size="10.00">::readJoystickConfig</text>
</a>
</g>
</g>
<!-- Node4&#45;&gt;Node9 -->
<g id="edge9" class="edge">
<title>Node4&#45;&gt;Node9</title>
<path fill="none" stroke="midnightblue" d="M916.08,-214.5C902.56,-214.5 888.55,-214.5 875.09,-214.5"/>
<polygon fill="midnightblue" stroke="midnightblue" points="916.31,-218 926.31,-214.5 916.31,-211 916.31,-218"/>
</g>
<!-- Node6 -->
<g id="node6" class="node">
<title>Node6</title>
<g id="a_node6"><a xlink:href="classSetJoystickXml.html#aa95423a01fab878cbc69bffb7f6121f3" target="_top" xlink:title="Deserializes the given XML stream into a SetJoystick object.">
<polygon fill="white" stroke="black" points="310,-317 310,-336 459,-336 459,-317 310,-317"/>
<text text-anchor="middle" x="384.5" y="-324" font-family="Helvetica,sans-Serif" font-size="10.00">SetJoystickXml::readConfig</text>
</a>
</g>
</g>
<!-- Node5&#45;&gt;Node6 -->
<g id="edge5" class="edge">
<title>Node5&#45;&gt;Node6</title>
<path fill="none" stroke="midnightblue" d="M729.09,-276.72C724.52,-278.67 720.1,-280.92 716,-283.5 694.9,-296.77 702.58,-315.95 680,-326.5 594.99,-366.2 480.54,-348.98 422.53,-336.05"/>
<polygon fill="midnightblue" stroke="midnightblue" points="730.54,-279.91 738.65,-273.09 728.06,-273.36 730.54,-279.91"/>
</g>
<!-- Node7 -->
<g id="node7" class="node">
<title>Node7</title>
<g id="a_node7"><a xlink:href="classJoyControlStick.html#ab6ce741115ee3d436c1a7e866abd21e6" target="_top" xlink:title="Take a XML stream and set the stick and direction button properties according to the values contained...">
<polygon fill="white" stroke="black" points="513,-298 513,-317 662,-317 662,-298 513,-298"/>
<text text-anchor="middle" x="587.5" y="-305" font-family="Helvetica,sans-Serif" font-size="10.00">JoyControlStick::readConfig</text>
</a>
</g>
</g>
<!-- Node5&#45;&gt;Node7 -->
<g id="edge6" class="edge">
<title>Node5&#45;&gt;Node7</title>
<path fill="none" stroke="midnightblue" d="M741.46,-275.2C722.12,-279.43 700.08,-284.22 680,-288.5 665.4,-291.61 649.48,-294.94 635.07,-297.93"/>
<polygon fill="midnightblue" stroke="midnightblue" points="742.28,-278.6 751.3,-273.04 740.78,-271.77 742.28,-278.6"/>
</g>
<!-- Node8 -->
<g id="node8" class="node">
<title>Node8</title>
<g id="a_node8"><a xlink:href="classJoyDPadXml.html#ae9a3556242b984c81fc6945acafc5586" target="_top" xlink:title=" ">
<polygon fill="white" stroke="black" points="505.5,-248.5 505.5,-278.5 669.5,-278.5 669.5,-248.5 505.5,-248.5"/>
<text text-anchor="start" x="513.5" y="-266.5" font-family="Helvetica,sans-Serif" font-size="10.00">JoyDPadXml&lt; GameController</text>
<text text-anchor="middle" x="587.5" y="-255.5" font-family="Helvetica,sans-Serif" font-size="10.00">DPad &gt;::readMainConfig</text>
</a>
</g>
</g>
<!-- Node5&#45;&gt;Node8 -->
<g id="edge8" class="edge">
<title>Node5&#45;&gt;Node8</title>
<path fill="none" stroke="midnightblue" d="M714.43,-263.5C699.75,-263.5 684.41,-263.5 669.7,-263.5"/>
<polygon fill="midnightblue" stroke="midnightblue" points="714.47,-267 724.47,-263.5 714.47,-260 714.47,-267"/>
</g>
<!-- Node7&#45;&gt;Node6 -->
<g id="edge7" class="edge">
<title>Node7&#45;&gt;Node6</title>
<path fill="none" stroke="midnightblue" d="M502.44,-315.45C488.08,-316.8 473.26,-318.2 459.19,-319.53"/>
<polygon fill="midnightblue" stroke="midnightblue" points="503.17,-318.89 512.8,-314.47 502.51,-311.92 503.17,-318.89"/>
</g>
<!-- Node10 -->
<g id="node10" class="node">
<title>Node10</title>
<g id="a_node10"><a xlink:href="classGameControllerTriggerXml.html#a4578ad54daf8a24231e8b0e4e09f1587" target="_top" xlink:title=" ">
<polygon fill="white" stroke="black" points="514.5,-199.5 514.5,-229.5 660.5,-229.5 660.5,-199.5 514.5,-199.5"/>
<text text-anchor="start" x="522.5" y="-217.5" font-family="Helvetica,sans-Serif" font-size="10.00">GameControllerTriggerXml</text>
<text text-anchor="middle" x="587.5" y="-206.5" font-family="Helvetica,sans-Serif" font-size="10.00">::readJoystickConfig</text>
</a>
</g>
</g>
<!-- Node9&#45;&gt;Node10 -->
<g id="edge10" class="edge">
<title>Node9&#45;&gt;Node10</title>
<path fill="none" stroke="midnightblue" d="M705.48,-214.5C690.56,-214.5 675.23,-214.5 660.79,-214.5"/>
<polygon fill="midnightblue" stroke="midnightblue" points="705.74,-218 715.74,-214.5 705.74,-211 705.74,-218"/>
</g>
<!-- Node11 -->
<g id="node11" class="node">
<title>Node11</title>
<g id="a_node11"><a xlink:href="classGameControllerSet.html#a6b551139e353a654212d498309744025" target="_top" xlink:title=" ">
<polygon fill="white" stroke="black" points="326.5,-199.5 326.5,-229.5 442.5,-229.5 442.5,-199.5 326.5,-199.5"/>
<text text-anchor="start" x="334.5" y="-217.5" font-family="Helvetica,sans-Serif" font-size="10.00">GameControllerSet::</text>
<text text-anchor="middle" x="384.5" y="-206.5" font-family="Helvetica,sans-Serif" font-size="10.00">readJoystickConfig</text>
</a>
</g>
</g>
<!-- Node10&#45;&gt;Node11 -->
<g id="edge11" class="edge">
<title>Node10&#45;&gt;Node11</title>
<path fill="none" stroke="midnightblue" d="M504.18,-214.5C483.52,-214.5 461.8,-214.5 442.67,-214.5"/>
<polygon fill="midnightblue" stroke="midnightblue" points="504.22,-218 514.22,-214.5 504.22,-211 504.22,-218"/>
</g>
<!-- Node12 -->
<g id="node12" class="node">
<title>Node12</title>
<g id="a_node12"><a xlink:href="classGameControllerXml.html#aaa5257d4c6fe13f1d5fc51981e247c25" target="_top" xlink:title="Reads the XML tree from a &quot;joystick&quot; tag.">
<polygon fill="white" stroke="black" points="155,-199.5 155,-229.5 274,-229.5 274,-199.5 155,-199.5"/>
<text text-anchor="start" x="163" y="-217.5" font-family="Helvetica,sans-Serif" font-size="10.00">GameControllerXml::</text>
<text text-anchor="middle" x="214.5" y="-206.5" font-family="Helvetica,sans-Serif" font-size="10.00">readJoystickConfig</text>
</a>
</g>
</g>
<!-- Node11&#45;&gt;Node12 -->
<g id="edge12" class="edge">
<title>Node11&#45;&gt;Node12</title>
<path fill="none" stroke="midnightblue" d="M316.14,-214.5C302.19,-214.5 287.61,-214.5 274.02,-214.5"/>
<polygon fill="midnightblue" stroke="midnightblue" points="316.15,-218 326.15,-214.5 316.15,-211 316.15,-218"/>
</g>
<!-- Node13 -->
<g id="node13" class="node">
<title>Node13</title>
<g id="a_node13"><a xlink:href="classGameControllerXml.html#a7e47256cae0d3815419bc254413777d1" target="_top" xlink:title="Deserializes the given XML stream into a GameController object.">
<polygon fill="white" stroke="black" points="0,-199.5 0,-229.5 119,-229.5 119,-199.5 0,-199.5"/>
<text text-anchor="start" x="8" y="-217.5" font-family="Helvetica,sans-Serif" font-size="10.00">GameControllerXml::</text>
<text text-anchor="middle" x="59.5" y="-206.5" font-family="Helvetica,sans-Serif" font-size="10.00">readConfig</text>
</a>
</g>
</g>
<!-- Node12&#45;&gt;Node13 -->
<g id="edge13" class="edge">
<title>Node12&#45;&gt;Node13</title>
<path fill="none" stroke="midnightblue" d="M144.51,-214.5C136.01,-214.5 127.38,-214.5 119.06,-214.5"/>
<polygon fill="midnightblue" stroke="midnightblue" points="144.78,-218 154.78,-214.5 144.78,-211 144.78,-218"/>
</g>
<!-- Node15 -->
<g id="node15" class="node">
<title>Node15</title>
<g id="a_node15"><a xlink:href="classMouseDPadSettingsDialog.html#a4667725b1ead2b872e17507f81b5760e" target="_top" xlink:title=" ">
<polygon fill="white" stroke="black" points="723,-150.5 723,-180.5 868,-180.5 868,-150.5 723,-150.5"/>
<text text-anchor="start" x="731" y="-168.5" font-family="Helvetica,sans-Serif" font-size="10.00">MouseDPadSettingsDialog</text>
<text text-anchor="middle" x="795.5" y="-157.5" font-family="Helvetica,sans-Serif" font-size="10.00">::changeMouseMode</text>
</a>
</g>
</g>
<!-- Node14&#45;&gt;Node15 -->
<g id="edge15" class="edge">
<title>Node14&#45;&gt;Node15</title>
<path fill="none" stroke="midnightblue" d="M900.76,-165.5C889.78,-165.5 878.74,-165.5 868.16,-165.5"/>
<polygon fill="midnightblue" stroke="midnightblue" points="900.81,-169 910.81,-165.5 900.81,-162 900.81,-169"/>
</g>
<!-- Node16 -->
<g id="node16" class="node">
<title>Node16</title>
<g id="a_node16"><a xlink:href="classMouseDPadSettingsDialog.html#a51ae7b4e5b371e35d4f470787f5fc846" target="_top" xlink:title=" ">
<polygon fill="white" stroke="black" points="512,-150.5 512,-180.5 663,-180.5 663,-150.5 512,-150.5"/>
<text text-anchor="start" x="520" y="-168.5" font-family="Helvetica,sans-Serif" font-size="10.00">MouseDPadSettingsDialog</text>
<text text-anchor="middle" x="587.5" y="-157.5" font-family="Helvetica,sans-Serif" font-size="10.00">::MouseDPadSettingsDialog</text>
</a>
</g>
</g>
<!-- Node15&#45;&gt;Node16 -->
<g id="edge16" class="edge">
<title>Node15&#45;&gt;Node16</title>
<path fill="none" stroke="midnightblue" d="M712.67,-165.5C696.33,-165.5 679.24,-165.5 663.15,-165.5"/>
<polygon fill="midnightblue" stroke="midnightblue" points="712.74,-169 722.74,-165.5 712.74,-162 712.74,-169"/>
</g>
<!-- Node18 -->
<g id="node18" class="node">
<title>Node18</title>
<g id="a_node18"><a xlink:href="classMouseAxisSettingsDialog.html#a71cbcc0f06e217b497f865fc520b3da7" target="_top" xlink:title=" ">
<polygon fill="white" stroke="black" points="725,-101.5 725,-131.5 866,-131.5 866,-101.5 725,-101.5"/>
<text text-anchor="start" x="733" y="-119.5" font-family="Helvetica,sans-Serif" font-size="10.00">MouseAxisSettingsDialog</text>
<text text-anchor="middle" x="795.5" y="-108.5" font-family="Helvetica,sans-Serif" font-size="10.00">::changeMouseMode</text>
</a>
</g>
</g>
<!-- Node17&#45;&gt;Node18 -->
<g id="edge18" class="edge">
<title>Node17&#45;&gt;Node18</title>
<path fill="none" stroke="midnightblue" d="M902.58,-119.67C890.32,-119.31 877.94,-118.94 866.18,-118.59"/>
<polygon fill="midnightblue" stroke="midnightblue" points="902.74,-123.18 912.84,-119.98 902.95,-116.18 902.74,-123.18"/>
</g>
<!-- Node19 -->
<g id="node19" class="node">
<title>Node19</title>
<g id="a_node19"><a xlink:href="classMouseAxisSettingsDialog.html#a33546e4b608264ce6d2758678eb6d2e7" target="_top" xlink:title=" ">
<polygon fill="white" stroke="black" points="514,-101.5 514,-131.5 661,-131.5 661,-101.5 514,-101.5"/>
<text text-anchor="start" x="522" y="-119.5" font-family="Helvetica,sans-Serif" font-size="10.00">MouseAxisSettingsDialog</text>
<text text-anchor="middle" x="587.5" y="-108.5" font-family="Helvetica,sans-Serif" font-size="10.00">::MouseAxisSettingsDialog</text>
</a>
</g>
</g>
<!-- Node18&#45;&gt;Node19 -->
<g id="edge19" class="edge">
<title>Node18&#45;&gt;Node19</title>
<path fill="none" stroke="midnightblue" d="M714.56,-116.5C697.03,-116.5 678.57,-116.5 661.34,-116.5"/>
<polygon fill="midnightblue" stroke="midnightblue" points="714.76,-120 724.76,-116.5 714.76,-113 714.76,-120"/>
</g>
<!-- Node21 -->
<g id="node21" class="node">
<title>Node21</title>
<g id="a_node21"><a xlink:href="classMouseControlStickSettingsDialog.html#a476f86c223a02146ad662276ed96a6aa" target="_top" xlink:title=" ">
<polygon fill="white" stroke="black" points="721,-49.5 721,-79.5 870,-79.5 870,-49.5 721,-49.5"/>
<text text-anchor="start" x="729" y="-67.5" font-family="Helvetica,sans-Serif" font-size="10.00">MouseControlStickSettings</text>
<text text-anchor="middle" x="795.5" y="-56.5" font-family="Helvetica,sans-Serif" font-size="10.00">Dialog::changeMouseMode</text>
</a>
</g>
</g>
<!-- Node20&#45;&gt;Node21 -->
<g id="edge21" class="edge">
<title>Node20&#45;&gt;Node21</title>
<path fill="none" stroke="midnightblue" d="M913.15,-64.5C898.82,-64.5 884.04,-64.5 870.01,-64.5"/>
<polygon fill="midnightblue" stroke="midnightblue" points="913.48,-68 923.48,-64.5 913.48,-61 913.48,-68"/>
</g>
<!-- Node23 -->
<g id="node23" class="node">
<title>Node23</title>
<g id="a_node23"><a xlink:href="classJoyControlStickEditDialog.html#a7d4ab984e590b0be9fad8a73eeeebc10" target="_top" xlink:title=" ">
<polygon fill="white" stroke="black" points="725,-0.5 725,-30.5 866,-30.5 866,-0.5 725,-0.5"/>
<text text-anchor="start" x="733" y="-18.5" font-family="Helvetica,sans-Serif" font-size="10.00">JoyControlStickEditDialog</text>
<text text-anchor="middle" x="795.5" y="-7.5" font-family="Helvetica,sans-Serif" font-size="10.00">::updateMouseMode</text>
</a>
</g>
</g>
<!-- Node20&#45;&gt;Node23 -->
<g id="edge23" class="edge">
<title>Node20&#45;&gt;Node23</title>
<path fill="none" stroke="midnightblue" d="M925.49,-47.02C903.39,-41.62 879.26,-35.72 857.9,-30.51"/>
<polygon fill="midnightblue" stroke="midnightblue" points="924.94,-50.49 935.48,-49.47 926.6,-43.69 924.94,-50.49"/>
</g>
<!-- Node22 -->
<g id="node22" class="node">
<title>Node22</title>
<g id="a_node22"><a xlink:href="classMouseControlStickSettingsDialog.html#aac9d5ef09dced4cee0df95d99ae13369" target="_top" xlink:title=" ">
<polygon fill="white" stroke="black" points="495,-41 495,-82 680,-82 680,-41 495,-41"/>
<text text-anchor="start" x="503" y="-70" font-family="Helvetica,sans-Serif" font-size="10.00">MouseControlStickSettings</text>
<text text-anchor="start" x="503" y="-59" font-family="Helvetica,sans-Serif" font-size="10.00">Dialog::MouseControlStickSettings</text>
<text text-anchor="middle" x="587.5" y="-48" font-family="Helvetica,sans-Serif" font-size="10.00">Dialog</text>
</a>
</g>
</g>
<!-- Node21&#45;&gt;Node22 -->
<g id="edge22" class="edge">
<title>Node21&#45;&gt;Node22</title>
<path fill="none" stroke="midnightblue" d="M710.41,-63.28C700.42,-63.13 690.19,-62.98 680.11,-62.83"/>
<polygon fill="midnightblue" stroke="midnightblue" points="710.66,-66.78 720.71,-63.43 710.76,-59.78 710.66,-66.78"/>
</g>
</g>
</svg>
        <g id="navigator" transform="translate(0 0)" fill="#404254">
                <rect fill="#f2f5e9" fill-opacity="0.5" stroke="#606060" stroke-width=".5" x="0" y="0" width="60" height="60"/>
                <use id="zoomplus" xlink:href="#zoomPlus" x="17" y="9" onmousedown="handleZoom(evt,'in')"/>
                <use id="zoomminus" xlink:href="#zoomMin" x="42" y="9" onmousedown="handleZoom(evt,'out')"/>
                <use id="reset" xlink:href="#resetDef" x="30" y="36" onmousedown="handleReset()"/>
                <g id="arrowUp" xlink:href="#dirArrow" transform="translate(30 24)" onmousedown="handlePan(0,-1)">
                  <use xlink:href="#rim" fill="#404040">
                        <set attributeName="fill" to="#808080" begin="arrowUp.mouseover" end="arrowUp.mouseout"/>
                  </use>
                  <path fill="none" stroke="white" stroke-width="1.5" d="M0,-3.0v7 M-2.5,-0.5L0,-3.0L2.5,-0.5"/>
                </g>
                <g id="arrowRight" xlink:href="#dirArrow" transform="rotate(90) translate(36 -43)" onmousedown="handlePan(1,0)">
                  <use xlink:href="#rim" fill="#404040">
                        <set attributeName="fill" to="#808080" begin="arrowRight.mouseover" end="arrowRight.mouseout"/>
                  </use>
                  <path fill="none" stroke="white" stroke-width="1.5" d="M0,-3.0v7 M-2.5,-0.5L0,-3.0L2.5,-0.5"/>
                </g>
                <g id="arrowDown" xlink:href="#dirArrow" transform="rotate(180) translate(-30 -48)" onmousedown="handlePan(0,1)">
                  <use xlink:href="#rim" fill="#404040">
                        <set attributeName="fill" to="#808080" begin="arrowDown.mouseover" end="arrowDown.mouseout"/>
                  </use>
                  <path fill="none" stroke="white" stroke-width="1.5" d="M0,-3.0v7 M-2.5,-0.5L0,-3.0L2.5,-0.5"/>
                </g>
                <g id="arrowLeft" xlink:href="#dirArrow" transform="rotate(270) translate(-36 17)" onmousedown="handlePan(-1,0)">
                  <use xlink:href="#rim" fill="#404040">
                        <set attributeName="fill" to="#808080" begin="arrowLeft.mouseover" end="arrowLeft.mouseout"/>
                  </use>
                  <path fill="none" stroke="white" stroke-width="1.5" d="M0,-3.0v7 M-2.5,-0.5L0,-3.0L2.5,-0.5"/>
                </g>
        </g>
        <svg viewBox="0 0 15 15" width="100%" height="30px" preserveAspectRatio="xMaxYMin meet">
         <g id="arrow_out" transform="scale(0.3 0.3)">
          <a xlink:href="classJoyButton_a28224ca61d50adb1338643ae63bab3a3_icgraph_org.svg" target="_base">
           <rect id="button" ry="5" rx="5" y="6" x="6" height="38" width="38"
                fill="#f2f5e9" fill-opacity="0.5" stroke="#606060" stroke-width="1.0"/>
           <path id="arrow"
             d="M 11.500037,31.436501 C 11.940474,20.09759 22.043105,11.32322 32.158766,21.979434 L 37.068811,17.246167 C 37.068811,17.246167 37.088388,32 37.088388,32 L 22.160133,31.978069 C 22.160133,31.978069 26.997745,27.140456 26.997745,27.140456 C 18.528582,18.264221 13.291696,25.230495 11.500037,31.436501 z"
             style="fill:#404040;"/>
          </a>
         </g>
        </svg>
</svg>
