<?xml version="1.0" encoding="UTF-8" standalone="no"?>
<!DOCTYPE svg PUBLIC "-//W3C//DTD SVG 1.1//EN"
 "http://www.w3.org/Graphics/SVG/1.1/DTD/svg11.dtd">
<!-- Generated by graphviz version 2.43.0 (0)
 -->
<!-- Title: InputDaemon::refreshJoysticks Pages: 1 -->
<svg width="604pt" height="292pt"
 viewBox="0.00 0.00 604.00 292.00" xmlns="http://www.w3.org/2000/svg" xmlns:xlink="http://www.w3.org/1999/xlink">
<g id="graph0" class="graph" transform="scale(1 1) rotate(0) translate(4 288)">
<title>InputDaemon::refreshJoysticks</title>
<polygon fill="white" stroke="transparent" points="-4,4 -4,-288 600,-288 600,4 -4,4"/>
<!-- Node1 -->
<g id="node1" class="node">
<title>Node1</title>
<g id="a_node1"><a xlink:title=" ">
<polygon fill="#bfbfbf" stroke="black" points="0,-149 0,-168 167,-168 167,-149 0,-149"/>
<text text-anchor="middle" x="83.5" y="-156" font-family="Helvetica,sans-Serif" font-size="10.00">InputDaemon::refreshJoysticks</text>
</a>
</g>
</g>
<!-- Node2 -->
<g id="node2" class="node">
<title>Node2</title>
<g id="a_node2"><a xlink:href="classInputDaemon.html#a1518b0defd68ae40f18735f22cbe717e" target="_top" xlink:title=" ">
<polygon fill="white" stroke="black" points="203,-253.5 203,-283.5 376,-283.5 376,-253.5 203,-253.5"/>
<text text-anchor="start" x="211" y="-271.5" font-family="Helvetica,sans-Serif" font-size="10.00">InputDaemon::convertMappings</text>
<text text-anchor="middle" x="289.5" y="-260.5" font-family="Helvetica,sans-Serif" font-size="10.00">ToUnique</text>
</a>
</g>
</g>
<!-- Node1&#45;&gt;Node2 -->
<g id="edge1" class="edge">
<title>Node1&#45;&gt;Node2</title>
<path fill="none" stroke="midnightblue" d="M95.13,-168.06C114.96,-185.43 159.53,-222.32 203,-243.5 207.66,-245.77 212.56,-247.87 217.57,-249.82"/>
<polygon fill="midnightblue" stroke="midnightblue" points="216.69,-253.22 227.29,-253.36 219.09,-246.64 216.69,-253.22"/>
</g>
<!-- Node3 -->
<g id="node3" class="node">
<title>Node3</title>
<g id="a_node3"><a xlink:href="classInputDaemon.html#a3ef328c9a60fe354fda90eb396c8f31b" target="_top" xlink:title=" ">
<polygon fill="white" stroke="black" points="220.5,-215 220.5,-234 358.5,-234 358.5,-215 220.5,-215"/>
<text text-anchor="middle" x="289.5" y="-222" font-family="Helvetica,sans-Serif" font-size="10.00">InputDaemon::getJoyInfo</text>
</a>
</g>
</g>
<!-- Node1&#45;&gt;Node3 -->
<g id="edge2" class="edge">
<title>Node1&#45;&gt;Node3</title>
<path fill="none" stroke="midnightblue" d="M105.54,-168.03C128.96,-178.35 168.09,-194.77 203,-205.5 211.45,-208.1 220.47,-210.49 229.36,-212.65"/>
<polygon fill="midnightblue" stroke="midnightblue" points="228.78,-216.11 239.32,-214.97 230.38,-209.29 228.78,-216.11"/>
</g>
<!-- Node4 -->
<g id="node4" class="node">
<title>Node4</title>
<g id="a_node4"><a xlink:href="classAntiMicroSettings.html#a4f172ffefe55eeba5afff3d54182f881" target="_top" xlink:title=" ">
<polygon fill="white" stroke="black" points="235,-165.5 235,-195.5 344,-195.5 344,-165.5 235,-165.5"/>
<text text-anchor="start" x="243" y="-183.5" font-family="Helvetica,sans-Serif" font-size="10.00">AntiMicroSettings::</text>
<text text-anchor="middle" x="289.5" y="-172.5" font-family="Helvetica,sans-Serif" font-size="10.00">getLock</text>
</a>
</g>
</g>
<!-- Node1&#45;&gt;Node4 -->
<g id="edge3" class="edge">
<title>Node1&#45;&gt;Node4</title>
<path fill="none" stroke="midnightblue" d="M167.18,-167.42C186.47,-169.5 206.72,-171.68 225.02,-173.65"/>
<polygon fill="midnightblue" stroke="midnightblue" points="224.66,-177.14 234.98,-174.73 225.41,-170.18 224.66,-177.14"/>
</g>
<!-- Node5 -->
<g id="node5" class="node">
<title>Node5</title>
<g id="a_node5"><a xlink:href="classInputDaemon.html#a80e732bfe962966009eecb2156575af1" target="_top" xlink:title=" ">
<polygon fill="white" stroke="black" points="417.5,-110.5 417.5,-140.5 590.5,-140.5 590.5,-110.5 417.5,-110.5"/>
<text text-anchor="start" x="425.5" y="-128.5" font-family="Helvetica,sans-Serif" font-size="10.00">InputDaemon::getTrackjoysticks</text>
<text text-anchor="middle" x="504" y="-117.5" font-family="Helvetica,sans-Serif" font-size="10.00">Local</text>
</a>
</g>
</g>
<!-- Node1&#45;&gt;Node5 -->
<g id="edge4" class="edge">
<title>Node1&#45;&gt;Node5</title>
<path fill="none" stroke="midnightblue" d="M167.18,-151.98C236.23,-146.54 334.73,-138.77 407.21,-133.05"/>
<polygon fill="midnightblue" stroke="midnightblue" points="407.56,-136.54 417.25,-132.26 407.01,-129.56 407.56,-136.54"/>
</g>
<!-- Node6 -->
<g id="node6" class="node">
<title>Node6</title>
<g id="a_node6"><a xlink:href="classSDLEventReader.html#a1c33e74e1c8363dc7e839c7f3a98a25a" target="_top" xlink:title="Method to block activity on the SDLEventReader object and its thread event loop.">
<polygon fill="white" stroke="black" points="207.5,-39 207.5,-58 371.5,-58 371.5,-39 207.5,-39"/>
<text text-anchor="middle" x="289.5" y="-46" font-family="Helvetica,sans-Serif" font-size="10.00">SDLEventReader::haltServices</text>
</a>
</g>
</g>
<!-- Node1&#45;&gt;Node6 -->
<g id="edge5" class="edge">
<title>Node1&#45;&gt;Node6</title>
<path fill="none" stroke="midnightblue" d="M94,-148.97C112.98,-130.52 157.65,-89.83 203,-68.5 209.12,-65.62 215.68,-63.14 222.35,-61.01"/>
<polygon fill="midnightblue" stroke="midnightblue" points="223.56,-64.3 232.16,-58.12 221.58,-57.59 223.56,-64.3"/>
</g>
<!-- Node9 -->
<g id="node9" class="node">
<title>Node9</title>
<g id="a_node9"><a xlink:href="classInputDaemon.html#a2479784aa7e332c900a20b3e661260eb" target="_top" xlink:title=" ">
<polygon fill="white" stroke="black" points="214,-77.5 214,-107.5 365,-107.5 365,-77.5 214,-77.5"/>
<text text-anchor="start" x="222" y="-95.5" font-family="Helvetica,sans-Serif" font-size="10.00">InputDaemon::openJoystick</text>
<text text-anchor="middle" x="289.5" y="-84.5" font-family="Helvetica,sans-Serif" font-size="10.00">Device</text>
</a>
</g>
</g>
<!-- Node1&#45;&gt;Node9 -->
<g id="edge8" class="edge">
<title>Node1&#45;&gt;Node9</title>
<path fill="none" stroke="midnightblue" d="M114.16,-148.9C144.9,-138.96 193.69,-123.17 231.85,-110.83"/>
<polygon fill="midnightblue" stroke="midnightblue" points="233.37,-114.02 241.81,-107.61 231.21,-107.36 233.37,-114.02"/>
</g>
<!-- Node7 -->
<g id="node7" class="node">
<title>Node7</title>
<g id="a_node7"><a xlink:href="namespacePadderCommon.html#a354573bde6a47232b838ceccca533b02" target="_top" xlink:title=" ">
<polygon fill="white" stroke="black" points="412,-50 412,-69 596,-69 596,-50 412,-50"/>
<text text-anchor="middle" x="504" y="-57" font-family="Helvetica,sans-Serif" font-size="10.00">PadderCommon::lockInputDevices</text>
</a>
</g>
</g>
<!-- Node6&#45;&gt;Node7 -->
<g id="edge6" class="edge">
<title>Node6&#45;&gt;Node7</title>
<path fill="none" stroke="midnightblue" d="M371.75,-52.71C381.59,-53.22 391.73,-53.74 401.82,-54.26"/>
<polygon fill="midnightblue" stroke="midnightblue" points="401.7,-57.76 411.87,-54.78 402.06,-50.77 401.7,-57.76"/>
</g>
<!-- Node8 -->
<g id="node8" class="node">
<title>Node8</title>
<g id="a_node8"><a xlink:href="namespacePadderCommon.html#a5de97eeb52ef44a36a1caba613b7a343" target="_top" xlink:title=" ">
<polygon fill="white" stroke="black" points="425.5,-0.5 425.5,-30.5 582.5,-30.5 582.5,-0.5 425.5,-0.5"/>
<text text-anchor="start" x="433.5" y="-18.5" font-family="Helvetica,sans-Serif" font-size="10.00">PadderCommon::unlockInput</text>
<text text-anchor="middle" x="504" y="-7.5" font-family="Helvetica,sans-Serif" font-size="10.00">Devices</text>
</a>
</g>
</g>
<!-- Node6&#45;&gt;Node8 -->
<g id="edge7" class="edge">
<title>Node6&#45;&gt;Node8</title>
<path fill="none" stroke="midnightblue" d="M351.68,-39C371.47,-35.93 393.83,-32.45 415.16,-29.14"/>
<polygon fill="midnightblue" stroke="midnightblue" points="415.86,-32.57 425.21,-27.58 414.79,-25.66 415.86,-32.57"/>
</g>
<!-- Node9&#45;&gt;Node5 -->
<g id="edge9" class="edge">
<title>Node9&#45;&gt;Node5</title>
<path fill="none" stroke="midnightblue" d="M365.12,-104.09C378.69,-106.2 393.02,-108.42 407.1,-110.61"/>
<polygon fill="midnightblue" stroke="midnightblue" points="406.87,-114.11 417.29,-112.19 407.95,-107.2 406.87,-114.11"/>
</g>
</g>
</svg>
