<?xml version="1.0" encoding="UTF-8" standalone="no"?>
<!DOCTYPE svg PUBLIC "-//W3C//DTD SVG 1.1//EN"
 "http://www.w3.org/Graphics/SVG/1.1/DTD/svg11.dtd">
<!-- Generated by graphviz version 2.43.0 (0)
 -->
<!-- Title: JoyControlStickPushButton::JoyControlStickPushButton Pages: 1 -->
<svg width="1163pt" height="454pt"
 viewBox="0.00 0.00 1163.00 454.00" xmlns="http://www.w3.org/2000/svg" xmlns:xlink="http://www.w3.org/1999/xlink">
<g id="graph0" class="graph" transform="scale(1 1) rotate(0) translate(4 450)">
<title>JoyControlStickPushButton::JoyControlStickPushButton</title>
<polygon fill="white" stroke="transparent" points="-4,4 -4,-450 1159,-450 1159,4 -4,4"/>
<!-- Node1 -->
<g id="node1" class="node">
<title>Node1</title>
<g id="a_node1"><a xlink:title=" ">
<polygon fill="#bfbfbf" stroke="black" points="0,-186 0,-216 152,-216 152,-186 0,-186"/>
<text text-anchor="start" x="8" y="-204" font-family="Helvetica,sans-Serif" font-size="10.00">JoyControlStickPushButton</text>
<text text-anchor="middle" x="76" y="-193" font-family="Helvetica,sans-Serif" font-size="10.00">::JoyControlStickPushButton</text>
</a>
</g>
</g>
<!-- Node2 -->
<g id="node2" class="node">
<title>Node2</title>
<g id="a_node2"><a xlink:href="classFlashButtonWidget.html#ad8d71480fd154aad271af693af681394" target="_top" xlink:title=" ">
<polygon fill="white" stroke="black" points="390,-284 390,-314 506,-314 506,-284 390,-284"/>
<text text-anchor="start" x="398" y="-302" font-family="Helvetica,sans-Serif" font-size="10.00">FlashButtonWidget::</text>
<text text-anchor="middle" x="448" y="-291" font-family="Helvetica,sans-Serif" font-size="10.00">flash</text>
</a>
</g>
</g>
<!-- Node1&#45;&gt;Node2 -->
<g id="edge1" class="edge">
<title>Node1&#45;&gt;Node2</title>
<path fill="none" stroke="midnightblue" d="M94.01,-216.07C114.64,-233.38 151.24,-261.04 188,-274 250.54,-296.05 326.51,-301.03 379.95,-301.27"/>
<polygon fill="midnightblue" stroke="midnightblue" points="380,-304.77 390,-301.26 379.99,-297.77 380,-304.77"/>
</g>
<!-- Node3 -->
<g id="node3" class="node">
<title>Node3</title>
<g id="a_node3"><a xlink:href="classFlashButtonWidget.html#a14c9ecbbd3dfaef78b78371e17aac539" target="_top" xlink:title=" ">
<polygon fill="white" stroke="black" points="203,-186 203,-216 319,-216 319,-186 203,-186"/>
<text text-anchor="start" x="211" y="-204" font-family="Helvetica,sans-Serif" font-size="10.00">FlashButtonWidget::</text>
<text text-anchor="middle" x="261" y="-193" font-family="Helvetica,sans-Serif" font-size="10.00">refreshLabel</text>
</a>
</g>
</g>
<!-- Node1&#45;&gt;Node3 -->
<g id="edge2" class="edge">
<title>Node1&#45;&gt;Node3</title>
<path fill="none" stroke="midnightblue" d="M152.23,-201C165.6,-201 179.46,-201 192.61,-201"/>
<polygon fill="midnightblue" stroke="midnightblue" points="192.97,-204.5 202.97,-201 192.97,-197.5 192.97,-204.5"/>
</g>
<!-- Node5 -->
<g id="node5" class="node">
<title>Node5</title>
<g id="a_node5"><a xlink:href="classJoyControlStickPushButton.html#a0416eaa8614972e597a304df58fa50ab" target="_top" xlink:title=" ">
<polygon fill="white" stroke="black" points="188,-137 188,-167 334,-167 334,-137 188,-137"/>
<text text-anchor="start" x="196" y="-155" font-family="Helvetica,sans-Serif" font-size="10.00">JoyControlStickPushButton</text>
<text text-anchor="middle" x="261" y="-144" font-family="Helvetica,sans-Serif" font-size="10.00">::showContextMenu</text>
</a>
</g>
</g>
<!-- Node1&#45;&gt;Node5 -->
<g id="edge4" class="edge">
<title>Node1&#45;&gt;Node5</title>
<path fill="none" stroke="midnightblue" d="M133.4,-185.9C152.54,-180.77 174.09,-175 193.91,-169.7"/>
<polygon fill="midnightblue" stroke="midnightblue" points="195.03,-173.02 203.79,-167.05 193.22,-166.26 195.03,-173.02"/>
</g>
<!-- Node25 -->
<g id="node25" class="node">
<title>Node25</title>
<g id="a_node25"><a xlink:href="classJoyControlStickPushButton.html#a8edc7ee30c70a6ecb217c37a849f676e" target="_top" xlink:title=" ">
<polygon fill="white" stroke="black" points="188,-235 188,-265 334,-265 334,-235 188,-235"/>
<text text-anchor="start" x="196" y="-253" font-family="Helvetica,sans-Serif" font-size="10.00">JoyControlStickPushButton</text>
<text text-anchor="middle" x="261" y="-242" font-family="Helvetica,sans-Serif" font-size="10.00">::tryFlash</text>
</a>
</g>
</g>
<!-- Node1&#45;&gt;Node25 -->
<g id="edge27" class="edge">
<title>Node1&#45;&gt;Node25</title>
<path fill="none" stroke="midnightblue" d="M133.4,-216.1C152.54,-221.23 174.09,-227 193.91,-232.3"/>
<polygon fill="midnightblue" stroke="midnightblue" points="193.22,-235.74 203.79,-234.95 195.03,-228.98 193.22,-235.74"/>
</g>
<!-- Node27 -->
<g id="node27" class="node">
<title>Node27</title>
<g id="a_node27"><a xlink:href="classFlashButtonWidget.html#a84af4cf2103d6f054e117915850199ec" target="_top" xlink:title=" ">
<polygon fill="white" stroke="black" points="203,-88 203,-118 319,-118 319,-88 203,-88"/>
<text text-anchor="start" x="211" y="-106" font-family="Helvetica,sans-Serif" font-size="10.00">FlashButtonWidget::</text>
<text text-anchor="middle" x="261" y="-95" font-family="Helvetica,sans-Serif" font-size="10.00">unflash</text>
</a>
</g>
</g>
<!-- Node1&#45;&gt;Node27 -->
<g id="edge30" class="edge">
<title>Node1&#45;&gt;Node27</title>
<path fill="none" stroke="midnightblue" d="M96.09,-185.96C117.48,-169.68 153.67,-143.79 188,-127 191.73,-125.18 195.63,-123.44 199.6,-121.79"/>
<polygon fill="midnightblue" stroke="midnightblue" points="200.93,-125.03 208.97,-118.12 198.38,-118.51 200.93,-125.03"/>
</g>
<!-- Node4 -->
<g id="node4" class="node">
<title>Node4</title>
<g id="a_node4"><a xlink:href="classFlashButtonWidget.html#a15b2a9c645747d9f1f8368389da5830a" target="_top" xlink:title=" ">
<polygon fill="white" stroke="black" points="390,-186 390,-216 506,-216 506,-186 390,-186"/>
<text text-anchor="start" x="398" y="-204" font-family="Helvetica,sans-Serif" font-size="10.00">FlashButtonWidget::</text>
<text text-anchor="middle" x="448" y="-193" font-family="Helvetica,sans-Serif" font-size="10.00">generateLabel</text>
</a>
</g>
</g>
<!-- Node3&#45;&gt;Node4 -->
<g id="edge3" class="edge">
<title>Node3&#45;&gt;Node4</title>
<path fill="none" stroke="midnightblue" d="M319.02,-201C338.18,-201 359.74,-201 379.63,-201"/>
<polygon fill="midnightblue" stroke="midnightblue" points="379.85,-204.5 389.85,-201 379.85,-197.5 379.85,-204.5"/>
</g>
<!-- Node6 -->
<g id="node6" class="node">
<title>Node6</title>
<g id="a_node6"><a xlink:href="classJoyControlStickContextMenu.html#a0290b608bf0fd639af32767a20a4b7a8" target="_top" xlink:title=" ">
<polygon fill="white" stroke="black" points="370,-137 370,-167 526,-167 526,-137 370,-137"/>
<text text-anchor="start" x="378" y="-155" font-family="Helvetica,sans-Serif" font-size="10.00">JoyControlStickContextMenu</text>
<text text-anchor="middle" x="448" y="-144" font-family="Helvetica,sans-Serif" font-size="10.00">::buildMenu</text>
</a>
</g>
</g>
<!-- Node5&#45;&gt;Node6 -->
<g id="edge5" class="edge">
<title>Node5&#45;&gt;Node6</title>
<path fill="none" stroke="midnightblue" d="M334.06,-152C342.51,-152 351.21,-152 359.85,-152"/>
<polygon fill="midnightblue" stroke="midnightblue" points="359.94,-155.5 369.94,-152 359.94,-148.5 359.94,-155.5"/>
</g>
<!-- Node7 -->
<g id="node7" class="node">
<title>Node7</title>
<g id="a_node7"><a xlink:href="classJoyControlStick.html#af2228e6ed7156093dd5140e53000a918" target="_top" xlink:title=" ">
<polygon fill="white" stroke="black" points="763,-186.5 763,-205.5 918,-205.5 918,-186.5 763,-186.5"/>
<text text-anchor="middle" x="840.5" y="-193.5" font-family="Helvetica,sans-Serif" font-size="10.00">JoyControlStick::getJoyMode</text>
</a>
</g>
</g>
<!-- Node6&#45;&gt;Node7 -->
<g id="edge6" class="edge">
<title>Node6&#45;&gt;Node7</title>
<path fill="none" stroke="midnightblue" d="M512.37,-167.06C528.48,-170.44 545.82,-173.71 562,-176 625.6,-185 698,-190.05 752.89,-192.82"/>
<polygon fill="midnightblue" stroke="midnightblue" points="752.78,-196.32 762.94,-193.31 753.12,-189.33 752.78,-196.32"/>
</g>
<!-- Node8 -->
<g id="node8" class="node">
<title>Node8</title>
<g id="a_node8"><a xlink:href="classJoyControlStickContextMenu.html#ae95cb2129e13935a34fb6f4300a690f7" target="_top" xlink:title=" ">
<polygon fill="white" stroke="black" points="562,-301 562,-331 718,-331 718,-301 562,-301"/>
<text text-anchor="start" x="570" y="-319" font-family="Helvetica,sans-Serif" font-size="10.00">JoyControlStickContextMenu</text>
<text text-anchor="middle" x="640" y="-308" font-family="Helvetica,sans-Serif" font-size="10.00">::getPresetIndex</text>
</a>
</g>
</g>
<!-- Node6&#45;&gt;Node8 -->
<g id="edge7" class="edge">
<title>Node6&#45;&gt;Node8</title>
<path fill="none" stroke="midnightblue" d="M509.87,-167.17C515.54,-169.69 521.02,-172.62 526,-176 549.7,-192.1 597.46,-257.02 622.63,-292.52"/>
<polygon fill="midnightblue" stroke="midnightblue" points="619.89,-294.71 628.51,-300.87 625.61,-290.68 619.89,-294.71"/>
</g>
<!-- Node18 -->
<g id="node18" class="node">
<title>Node18</title>
<g id="a_node18"><a xlink:href="classJoyControlStickContextMenu.html#aa7763ec88ca2297cb0693c46aaffd7cb" target="_top" xlink:title=" ">
<polygon fill="white" stroke="black" points="562,-39 562,-69 718,-69 718,-39 562,-39"/>
<text text-anchor="start" x="570" y="-57" font-family="Helvetica,sans-Serif" font-size="10.00">JoyControlStickContextMenu</text>
<text text-anchor="middle" x="640" y="-46" font-family="Helvetica,sans-Serif" font-size="10.00">::openMouseSettingsDialog</text>
</a>
</g>
</g>
<!-- Node6&#45;&gt;Node18 -->
<g id="edge17" class="edge">
<title>Node6&#45;&gt;Node18</title>
<path fill="none" stroke="midnightblue" d="M468.42,-136.86C490.18,-120.48 527.01,-94.51 562,-78 566.03,-76.1 570.24,-74.3 574.53,-72.61"/>
<polygon fill="midnightblue" stroke="midnightblue" points="575.87,-75.85 584.02,-69.07 573.42,-69.29 575.87,-75.85"/>
</g>
<!-- Node19 -->
<g id="node19" class="node">
<title>Node19</title>
<g id="a_node19"><a xlink:href="classJoyControlStickContextMenu.html#ac5445252e43228e7a6a3f5ae0c994b43" target="_top" xlink:title=" ">
<polygon fill="white" stroke="black" points="562,-88 562,-118 718,-118 718,-88 562,-88"/>
<text text-anchor="start" x="570" y="-106" font-family="Helvetica,sans-Serif" font-size="10.00">JoyControlStickContextMenu</text>
<text text-anchor="middle" x="640" y="-95" font-family="Helvetica,sans-Serif" font-size="10.00">::setStickMode</text>
</a>
</g>
</g>
<!-- Node6&#45;&gt;Node19 -->
<g id="edge18" class="edge">
<title>Node6&#45;&gt;Node19</title>
<path fill="none" stroke="midnightblue" d="M507.3,-136.97C527.45,-131.77 550.21,-125.9 571.06,-120.52"/>
<polygon fill="midnightblue" stroke="midnightblue" points="572,-123.89 580.81,-118.01 570.26,-117.11 572,-123.89"/>
</g>
<!-- Node21 -->
<g id="node21" class="node">
<title>Node21</title>
<g id="a_node21"><a xlink:href="classJoyControlStickContextMenu.html#a00fe5d89b13fa5116b5cadd7480e8d93" target="_top" xlink:title=" ">
<polygon fill="white" stroke="black" points="562,-137 562,-167 718,-167 718,-137 562,-137"/>
<text text-anchor="start" x="570" y="-155" font-family="Helvetica,sans-Serif" font-size="10.00">JoyControlStickContextMenu</text>
<text text-anchor="middle" x="640" y="-144" font-family="Helvetica,sans-Serif" font-size="10.00">::setStickPreset</text>
</a>
</g>
</g>
<!-- Node6&#45;&gt;Node21 -->
<g id="edge20" class="edge">
<title>Node6&#45;&gt;Node21</title>
<path fill="none" stroke="midnightblue" d="M526.01,-152C534.51,-152 543.21,-152 551.83,-152"/>
<polygon fill="midnightblue" stroke="midnightblue" points="551.88,-155.5 561.88,-152 551.88,-148.5 551.88,-155.5"/>
</g>
<!-- Node9 -->
<g id="node9" class="node">
<title>Node9</title>
<g id="a_node9"><a xlink:href="classJoyButton.html#ae1d364dfa70f47fae3db99ffbcdea44b" target="_top" xlink:title=" ">
<polygon fill="white" stroke="black" points="763.5,-350.5 763.5,-369.5 917.5,-369.5 917.5,-350.5 763.5,-350.5"/>
<text text-anchor="middle" x="840.5" y="-357.5" font-family="Helvetica,sans-Serif" font-size="10.00">JoyButton::getAssignedSlots</text>
</a>
</g>
</g>
<!-- Node8&#45;&gt;Node9 -->
<g id="edge8" class="edge">
<title>Node8&#45;&gt;Node9</title>
<path fill="none" stroke="midnightblue" d="M708.76,-331.02C734.21,-336.66 762.75,-342.99 786.65,-348.28"/>
<polygon fill="midnightblue" stroke="midnightblue" points="786.07,-351.74 796.59,-350.49 787.58,-344.91 786.07,-351.74"/>
</g>
<!-- Node10 -->
<g id="node10" class="node">
<title>Node10</title>
<g id="a_node10"><a xlink:href="classJoyControlStick.html#ae57242ae6e71190d82ef4dbf31f11dd0" target="_top" xlink:title="Get a pointer to the stick direction button for the desired direction.">
<polygon fill="white" stroke="black" points="762,-301 762,-331 919,-331 919,-301 762,-301"/>
<text text-anchor="start" x="770" y="-319" font-family="Helvetica,sans-Serif" font-size="10.00">JoyControlStick::getDirection</text>
<text text-anchor="middle" x="840.5" y="-308" font-family="Helvetica,sans-Serif" font-size="10.00">Button</text>
</a>
</g>
</g>
<!-- Node8&#45;&gt;Node10 -->
<g id="edge9" class="edge">
<title>Node8&#45;&gt;Node10</title>
<path fill="none" stroke="midnightblue" d="M718.03,-316C729.04,-316 740.44,-316 751.64,-316"/>
<polygon fill="midnightblue" stroke="midnightblue" points="751.86,-319.5 761.86,-316 751.86,-312.5 751.86,-319.5"/>
</g>
<!-- Node11 -->
<g id="node11" class="node">
<title>Node11</title>
<g id="a_node11"><a xlink:href="classAntKeyMapper.html#acd08c44a2501edcfdb1ef8a68d534b1b" target="_top" xlink:title=" ">
<polygon fill="white" stroke="black" points="765,-224.5 765,-243.5 916,-243.5 916,-224.5 765,-224.5"/>
<text text-anchor="middle" x="840.5" y="-231.5" font-family="Helvetica,sans-Serif" font-size="10.00">AntKeyMapper::getInstance</text>
</a>
</g>
</g>
<!-- Node8&#45;&gt;Node11 -->
<g id="edge10" class="edge">
<title>Node8&#45;&gt;Node11</title>
<path fill="none" stroke="midnightblue" d="M663.42,-300.92C685.56,-286.66 720.83,-265.62 754,-253 760.84,-250.4 768.13,-248.1 775.46,-246.09"/>
<polygon fill="midnightblue" stroke="midnightblue" points="776.63,-249.4 785.44,-243.52 774.88,-242.62 776.63,-249.4"/>
</g>
<!-- Node14 -->
<g id="node14" class="node">
<title>Node14</title>
<g id="a_node14"><a xlink:href="classJoyButtonSlot.html#a1e91202fd2eac80332ed3e3ff1593769" target="_top" xlink:title=" ">
<polygon fill="white" stroke="black" points="766.5,-262.5 766.5,-281.5 914.5,-281.5 914.5,-262.5 766.5,-262.5"/>
<text text-anchor="middle" x="840.5" y="-269.5" font-family="Helvetica,sans-Serif" font-size="10.00">JoyButtonSlot::getSlotCode</text>
</a>
</g>
</g>
<!-- Node8&#45;&gt;Node14 -->
<g id="edge13" class="edge">
<title>Node8&#45;&gt;Node14</title>
<path fill="none" stroke="midnightblue" d="M708.76,-300.98C734.21,-295.34 762.75,-289.01 786.65,-283.72"/>
<polygon fill="midnightblue" stroke="midnightblue" points="787.58,-287.09 796.59,-281.51 786.07,-280.26 787.58,-287.09"/>
</g>
<!-- Node15 -->
<g id="node15" class="node">
<title>Node15</title>
<g id="a_node15"><a xlink:href="classJoyButtonSlot.html#a86b4a25191351f28942511012a4e4e4a" target="_top" xlink:title=" ">
<polygon fill="white" stroke="black" points="765.5,-426.5 765.5,-445.5 915.5,-445.5 915.5,-426.5 765.5,-426.5"/>
<text text-anchor="middle" x="840.5" y="-433.5" font-family="Helvetica,sans-Serif" font-size="10.00">JoyButtonSlot::getSlotMode</text>
</a>
</g>
</g>
<!-- Node8&#45;&gt;Node15 -->
<g id="edge14" class="edge">
<title>Node8&#45;&gt;Node15</title>
<path fill="none" stroke="midnightblue" d="M653.5,-331.33C672.68,-353.77 711.63,-395.26 754,-417 758.62,-419.37 763.52,-421.44 768.56,-423.26"/>
<polygon fill="midnightblue" stroke="midnightblue" points="767.76,-426.68 778.36,-426.45 769.93,-420.03 767.76,-426.68"/>
</g>
<!-- Node16 -->
<g id="node16" class="node">
<title>Node16</title>
<g id="a_node16"><a xlink:href="classAntKeyMapper.html#a07957c1e2baac6c4266678d89dc7c3a6" target="_top" xlink:title=" ">
<polygon fill="white" stroke="black" points="754,-388.5 754,-407.5 927,-407.5 927,-388.5 754,-388.5"/>
<text text-anchor="middle" x="840.5" y="-395.5" font-family="Helvetica,sans-Serif" font-size="10.00">AntKeyMapper::returnVirtualKey</text>
</a>
</g>
</g>
<!-- Node8&#45;&gt;Node16 -->
<g id="edge15" class="edge">
<title>Node8&#45;&gt;Node16</title>
<path fill="none" stroke="midnightblue" d="M663.42,-331.08C685.56,-345.34 720.83,-366.38 754,-379 760.84,-381.6 768.13,-383.9 775.46,-385.91"/>
<polygon fill="midnightblue" stroke="midnightblue" points="774.88,-389.38 785.44,-388.48 776.63,-382.6 774.88,-389.38"/>
</g>
<!-- Node12 -->
<g id="node12" class="node">
<title>Node12</title>
<g id="a_node12"><a xlink:href="classAntKeyMapper.html#abe4a434636d370a750d32a14b9a139d3" target="_top" xlink:title=" ">
<polygon fill="white" stroke="black" points="976.5,-243.5 976.5,-262.5 1141.5,-262.5 1141.5,-243.5 976.5,-243.5"/>
<text text-anchor="middle" x="1059" y="-250.5" font-family="Helvetica,sans-Serif" font-size="10.00">AntKeyMapper::AntKeyMapper</text>
</a>
</g>
</g>
<!-- Node11&#45;&gt;Node12 -->
<g id="edge11" class="edge">
<title>Node11&#45;&gt;Node12</title>
<path fill="none" stroke="midnightblue" d="M916.01,-240.54C932.11,-241.95 949.33,-243.46 966.01,-244.93"/>
<polygon fill="midnightblue" stroke="midnightblue" points="966.05,-248.44 976.32,-245.83 966.66,-241.47 966.05,-248.44"/>
</g>
<!-- Node13 -->
<g id="node13" class="node">
<title>Node13</title>
<g id="a_node13"><a xlink:href="antkeymapper_8cpp.html#a4f87707944cf82e8e59c85d48e24951c" target="_top" xlink:title=" ">
<polygon fill="white" stroke="black" points="992,-205.5 992,-224.5 1126,-224.5 1126,-205.5 992,-205.5"/>
<text text-anchor="middle" x="1059" y="-212.5" font-family="Helvetica,sans-Serif" font-size="10.00">buildEventGeneratorList</text>
</a>
</g>
</g>
<!-- Node11&#45;&gt;Node13 -->
<g id="edge12" class="edge">
<title>Node11&#45;&gt;Node13</title>
<path fill="none" stroke="midnightblue" d="M916.01,-227.46C937.23,-225.6 960.38,-223.57 981.71,-221.7"/>
<polygon fill="midnightblue" stroke="midnightblue" points="982.03,-225.18 991.69,-220.82 981.42,-218.21 982.03,-225.18"/>
</g>
<!-- Node17 -->
<g id="node17" class="node">
<title>Node17</title>
<g id="a_node17"><a xlink:href="classQtKeyMapperBase.html#a5df0f313bce11847f8495126373e7178" target="_top" xlink:title=" ">
<polygon fill="white" stroke="black" points="963,-388.5 963,-407.5 1155,-407.5 1155,-388.5 963,-388.5"/>
<text text-anchor="middle" x="1059" y="-395.5" font-family="Helvetica,sans-Serif" font-size="10.00">QtKeyMapperBase::returnVirtualKey</text>
</a>
</g>
</g>
<!-- Node16&#45;&gt;Node17 -->
<g id="edge16" class="edge">
<title>Node16&#45;&gt;Node17</title>
<path fill="none" stroke="midnightblue" d="M927.07,-398C935.48,-398 944.08,-398 952.66,-398"/>
<polygon fill="midnightblue" stroke="midnightblue" points="952.7,-401.5 962.7,-398 952.7,-394.5 952.7,-401.5"/>
</g>
<!-- Node20 -->
<g id="node20" class="node">
<title>Node20</title>
<g id="a_node20"><a xlink:href="classJoyControlStick.html#a7979a689bc339467288892614fffed13" target="_top" xlink:title=" ">
<polygon fill="white" stroke="black" points="763.5,-0.5 763.5,-19.5 917.5,-19.5 917.5,-0.5 763.5,-0.5"/>
<text text-anchor="middle" x="840.5" y="-7.5" font-family="Helvetica,sans-Serif" font-size="10.00">JoyControlStick::setJoyMode</text>
</a>
</g>
</g>
<!-- Node19&#45;&gt;Node20 -->
<g id="edge19" class="edge">
<title>Node19&#45;&gt;Node20</title>
<path fill="none" stroke="midnightblue" d="M700.46,-87.95C706.66,-85.16 712.65,-81.87 718,-78 739.91,-62.18 731.37,-43.76 754,-29 757.18,-26.93 760.55,-25.08 764.05,-23.43"/>
<polygon fill="midnightblue" stroke="midnightblue" points="765.65,-26.55 773.56,-19.51 762.98,-20.08 765.65,-26.55"/>
</g>
<!-- Node21&#45;&gt;Node7 -->
<g id="edge23" class="edge">
<title>Node21&#45;&gt;Node7</title>
<path fill="none" stroke="midnightblue" d="M708.76,-167.02C734.21,-172.66 762.75,-178.99 786.65,-184.28"/>
<polygon fill="midnightblue" stroke="midnightblue" points="786.07,-187.74 796.59,-186.49 787.58,-180.91 786.07,-187.74"/>
</g>
<!-- Node21&#45;&gt;Node11 -->
<g id="edge22" class="edge">
<title>Node21&#45;&gt;Node11</title>
<path fill="none" stroke="midnightblue" d="M663.42,-167.08C685.56,-181.34 720.83,-202.38 754,-215 760.84,-217.6 768.13,-219.9 775.46,-221.91"/>
<polygon fill="midnightblue" stroke="midnightblue" points="774.88,-225.38 785.44,-224.48 776.63,-218.6 774.88,-225.38"/>
</g>
<!-- Node21&#45;&gt;Node20 -->
<g id="edge25" class="edge">
<title>Node21&#45;&gt;Node20</title>
<path fill="none" stroke="midnightblue" d="M704.3,-136.97C709.29,-134.19 713.95,-130.9 718,-127 751.43,-94.82 719.08,-59.55 754,-29 755.77,-27.45 757.63,-26.03 759.58,-24.71"/>
<polygon fill="midnightblue" stroke="midnightblue" points="761.6,-27.58 768.55,-19.59 758.13,-21.5 761.6,-27.58"/>
</g>
<!-- Node22 -->
<g id="node22" class="node">
<title>Node22</title>
<g id="a_node22"><a xlink:href="classJoyControlStickContextMenu.html#ad2bcaf30656d4ef472d20e55b43a4f0d" target="_top" xlink:title=" ">
<polygon fill="white" stroke="black" points="762.5,-137 762.5,-167 918.5,-167 918.5,-137 762.5,-137"/>
<text text-anchor="start" x="770.5" y="-155" font-family="Helvetica,sans-Serif" font-size="10.00">JoyControlStickContextMenu</text>
<text text-anchor="middle" x="840.5" y="-144" font-family="Helvetica,sans-Serif" font-size="10.00">::getHelperLocal</text>
</a>
</g>
</g>
<!-- Node21&#45;&gt;Node22 -->
<g id="edge21" class="edge">
<title>Node21&#45;&gt;Node22</title>
<path fill="none" stroke="midnightblue" d="M718.03,-152C729.13,-152 740.61,-152 751.9,-152"/>
<polygon fill="midnightblue" stroke="midnightblue" points="752.19,-155.5 762.19,-152 752.19,-148.5 752.19,-155.5"/>
</g>
<!-- Node23 -->
<g id="node23" class="node">
<title>Node23</title>
<g id="a_node23"><a xlink:href="classJoyControlStick.html#abf2153ee9f2364f55640feb2a6ca60d6" target="_top" xlink:title="Set the diagonal range value for a stick.">
<polygon fill="white" stroke="black" points="763,-88 763,-118 918,-118 918,-88 763,-88"/>
<text text-anchor="start" x="771" y="-106" font-family="Helvetica,sans-Serif" font-size="10.00">JoyControlStick::setDiagonal</text>
<text text-anchor="middle" x="840.5" y="-95" font-family="Helvetica,sans-Serif" font-size="10.00">Range</text>
</a>
</g>
</g>
<!-- Node21&#45;&gt;Node23 -->
<g id="edge24" class="edge">
<title>Node21&#45;&gt;Node23</title>
<path fill="none" stroke="midnightblue" d="M701.91,-136.97C723.05,-131.74 746.95,-125.85 768.82,-120.45"/>
<polygon fill="midnightblue" stroke="midnightblue" points="769.84,-123.8 778.71,-118.01 768.16,-117 769.84,-123.8"/>
</g>
<!-- Node24 -->
<g id="node24" class="node">
<title>Node24</title>
<g id="a_node24"><a xlink:href="classJoyControlStickContextMenuHelper.html#adfdb19d552a70502449f88a5e0ad6a41" target="_top" xlink:title=" ">
<polygon fill="white" stroke="black" points="762.5,-39 762.5,-69 918.5,-69 918.5,-39 762.5,-39"/>
<text text-anchor="start" x="770.5" y="-57" font-family="Helvetica,sans-Serif" font-size="10.00">JoyControlStickContextMenu</text>
<text text-anchor="middle" x="840.5" y="-46" font-family="Helvetica,sans-Serif" font-size="10.00">Helper::setPendingSlots</text>
</a>
</g>
</g>
<!-- Node21&#45;&gt;Node24 -->
<g id="edge26" class="edge">
<title>Node21&#45;&gt;Node24</title>
<path fill="none" stroke="midnightblue" d="M700.46,-136.95C706.66,-134.16 712.65,-130.87 718,-127 739.91,-111.18 731.78,-93.38 754,-78 756.16,-76.5 758.42,-75.1 760.74,-73.78"/>
<polygon fill="midnightblue" stroke="midnightblue" points="762.64,-76.74 770.01,-69.12 759.5,-70.49 762.64,-76.74"/>
</g>
<!-- Node25&#45;&gt;Node2 -->
<g id="edge28" class="edge">
<title>Node25&#45;&gt;Node2</title>
<path fill="none" stroke="midnightblue" d="M318.76,-265.03C338.3,-270.21 360.34,-276.05 380.58,-281.41"/>
<polygon fill="midnightblue" stroke="midnightblue" points="379.78,-284.82 390.34,-283.99 381.57,-278.05 379.78,-284.82"/>
</g>
<!-- Node26 -->
<g id="node26" class="node">
<title>Node26</title>
<g id="a_node26"><a xlink:href="classJoyControlStick.html#a6558903feba928443b415f33089beef8" target="_top" xlink:title="Get the value for the currently active stick direction.">
<polygon fill="white" stroke="black" points="373.5,-235 373.5,-265 522.5,-265 522.5,-235 373.5,-235"/>
<text text-anchor="start" x="381.5" y="-253" font-family="Helvetica,sans-Serif" font-size="10.00">JoyControlStick::getCurrent</text>
<text text-anchor="middle" x="448" y="-242" font-family="Helvetica,sans-Serif" font-size="10.00">Direction</text>
</a>
</g>
</g>
<!-- Node25&#45;&gt;Node26 -->
<g id="edge29" class="edge">
<title>Node25&#45;&gt;Node26</title>
<path fill="none" stroke="midnightblue" d="M334.06,-250C343.62,-250 353.49,-250 363.23,-250"/>
<polygon fill="midnightblue" stroke="midnightblue" points="363.31,-253.5 373.31,-250 363.31,-246.5 363.31,-253.5"/>
</g>
</g>
</svg>
