<?xml version="1.0" encoding="UTF-8" standalone="no"?>
<!DOCTYPE svg PUBLIC "-//W3C//DTD SVG 1.1//EN"
 "http://www.w3.org/Graphics/SVG/1.1/DTD/svg11.dtd">
<!-- Generated by graphviz version 2.43.0 (0)
 -->
<!-- Title: JoyControlStick::getCircleYCoordinate Pages: 1 -->
<svg width="518pt" height="225pt"
 viewBox="0.00 0.00 518.00 225.00" xmlns="http://www.w3.org/2000/svg" xmlns:xlink="http://www.w3.org/1999/xlink">
<g id="graph0" class="graph" transform="scale(1 1) rotate(0) translate(4 221)">
<title>JoyControlStick::getCircleYCoordinate</title>
<polygon fill="white" stroke="transparent" points="-4,4 -4,-221 514,-221 514,4 -4,4"/>
<!-- Node1 -->
<g id="node1" class="node">
<title>Node1</title>
<g id="a_node1"><a xlink:title=" ">
<polygon fill="#bfbfbf" stroke="black" points="370,-88.5 370,-118.5 510,-118.5 510,-88.5 370,-88.5"/>
<text text-anchor="start" x="378" y="-106.5" font-family="Helvetica,sans-Serif" font-size="10.00">JoyControlStick::getCircle</text>
<text text-anchor="middle" x="440" y="-95.5" font-family="Helvetica,sans-Serif" font-size="10.00">YCoordinate</text>
</a>
</g>
</g>
<!-- Node2 -->
<g id="node2" class="node">
<title>Node2</title>
<g id="a_node2"><a xlink:href="classJoyControlStickStatusBox.html#a450e6a133de4e4d7894b967b051f9e31" target="_top" xlink:title=" ">
<polygon fill="white" stroke="black" points="188.5,-186.5 188.5,-216.5 328.5,-216.5 328.5,-186.5 188.5,-186.5"/>
<text text-anchor="start" x="196.5" y="-204.5" font-family="Helvetica,sans-Serif" font-size="10.00">JoyControlStickStatusBox</text>
<text text-anchor="middle" x="258.5" y="-193.5" font-family="Helvetica,sans-Serif" font-size="10.00">::drawEightWayBox</text>
</a>
</g>
</g>
<!-- Node1&#45;&gt;Node2 -->
<g id="edge1" class="edge">
<title>Node1&#45;&gt;Node2</title>
<path fill="none" stroke="midnightblue" d="M413.23,-125.02C392.79,-141.23 362.94,-163.06 334,-177.5 327.43,-180.78 320.32,-183.74 313.19,-186.37"/>
<polygon fill="midnightblue" stroke="midnightblue" points="415.52,-127.67 421.11,-118.68 411.13,-122.22 415.52,-127.67"/>
</g>
<!-- Node4 -->
<g id="node4" class="node">
<title>Node4</title>
<g id="a_node4"><a xlink:href="classJoyControlStickStatusBox.html#ade94a0ecf5b485ce1e8d57ecdc82617f" target="_top" xlink:title=" ">
<polygon fill="white" stroke="black" points="184.5,-137.5 184.5,-167.5 332.5,-167.5 332.5,-137.5 184.5,-137.5"/>
<text text-anchor="start" x="192.5" y="-155.5" font-family="Helvetica,sans-Serif" font-size="10.00">JoyControlStickStatusBox</text>
<text text-anchor="middle" x="258.5" y="-144.5" font-family="Helvetica,sans-Serif" font-size="10.00">::drawFourWayCardinalBox</text>
</a>
</g>
</g>
<!-- Node1&#45;&gt;Node4 -->
<g id="edge3" class="edge">
<title>Node1&#45;&gt;Node4</title>
<path fill="none" stroke="midnightblue" d="M373.98,-121.25C354.53,-126.56 333.39,-132.33 314.64,-137.45"/>
<polygon fill="midnightblue" stroke="midnightblue" points="374.95,-124.61 383.68,-118.6 373.11,-117.86 374.95,-124.61"/>
</g>
<!-- Node5 -->
<g id="node5" class="node">
<title>Node5</title>
<g id="a_node5"><a xlink:href="classJoyControlStickStatusBox.html#a6c5557dfac58f22349a66743ec3cca4b" target="_top" xlink:title=" ">
<polygon fill="white" stroke="black" points="183,-88.5 183,-118.5 334,-118.5 334,-88.5 183,-88.5"/>
<text text-anchor="start" x="191" y="-106.5" font-family="Helvetica,sans-Serif" font-size="10.00">JoyControlStickStatusBox</text>
<text text-anchor="middle" x="258.5" y="-95.5" font-family="Helvetica,sans-Serif" font-size="10.00">::drawFourWayDiagonalBox</text>
</a>
</g>
</g>
<!-- Node1&#45;&gt;Node5 -->
<g id="edge5" class="edge">
<title>Node1&#45;&gt;Node5</title>
<path fill="none" stroke="midnightblue" d="M359.65,-103.5C351.21,-103.5 342.65,-103.5 334.27,-103.5"/>
<polygon fill="midnightblue" stroke="midnightblue" points="359.86,-107 369.86,-103.5 359.86,-100 359.86,-107"/>
</g>
<!-- Node6 -->
<g id="node6" class="node">
<title>Node6</title>
<g id="a_node6"><a xlink:href="classJoyControlStickEditDialog.html#a2baa35c50ff7528a03ec6f2ba1ed657d" target="_top" xlink:title=" ">
<polygon fill="white" stroke="black" points="0,-22.5 0,-52.5 147,-52.5 147,-22.5 0,-22.5"/>
<text text-anchor="start" x="8" y="-40.5" font-family="Helvetica,sans-Serif" font-size="10.00">JoyControlStickEditDialog</text>
<text text-anchor="middle" x="73.5" y="-29.5" font-family="Helvetica,sans-Serif" font-size="10.00">::JoyControlStickEditDialog</text>
</a>
</g>
</g>
<!-- Node1&#45;&gt;Node6 -->
<g id="edge7" class="edge">
<title>Node1&#45;&gt;Node6</title>
<path fill="none" stroke="midnightblue" d="M366.5,-86.29C355.63,-83.9 344.54,-81.56 334,-79.5 271.18,-67.25 199.3,-55.82 147.15,-47.98"/>
<polygon fill="midnightblue" stroke="midnightblue" points="365.88,-89.74 376.4,-88.5 367.4,-82.9 365.88,-89.74"/>
</g>
<!-- Node7 -->
<g id="node7" class="node">
<title>Node7</title>
<g id="a_node7"><a xlink:href="classJoyControlStickEditDialog.html#aa479f7bd7941c5be7efd683d3c0c8fd2" target="_top" xlink:title=" ">
<polygon fill="white" stroke="black" points="188,-0.5 188,-30.5 329,-30.5 329,-0.5 188,-0.5"/>
<text text-anchor="start" x="196" y="-18.5" font-family="Helvetica,sans-Serif" font-size="10.00">JoyControlStickEditDialog</text>
<text text-anchor="middle" x="258.5" y="-7.5" font-family="Helvetica,sans-Serif" font-size="10.00">::refreshStickStats</text>
</a>
</g>
</g>
<!-- Node1&#45;&gt;Node7 -->
<g id="edge8" class="edge">
<title>Node1&#45;&gt;Node7</title>
<path fill="none" stroke="midnightblue" d="M404.72,-83.18C384.47,-71.52 358.14,-56.97 334,-45.5 323.04,-40.29 310.93,-35.16 299.71,-30.65"/>
<polygon fill="midnightblue" stroke="midnightblue" points="403.16,-86.32 413.57,-88.31 406.67,-80.26 403.16,-86.32"/>
</g>
<!-- Node3 -->
<g id="node3" class="node">
<title>Node3</title>
<g id="a_node3"><a xlink:href="classJoyControlStickStatusBox.html#ae321df188d9d51864893166076cf8582" target="_top" xlink:title=" ">
<polygon fill="white" stroke="black" points="3.5,-137.5 3.5,-167.5 143.5,-167.5 143.5,-137.5 3.5,-137.5"/>
<text text-anchor="start" x="11.5" y="-155.5" font-family="Helvetica,sans-Serif" font-size="10.00">JoyControlStickStatusBox</text>
<text text-anchor="middle" x="73.5" y="-144.5" font-family="Helvetica,sans-Serif" font-size="10.00">::paintEvent</text>
</a>
</g>
</g>
<!-- Node2&#45;&gt;Node3 -->
<g id="edge2" class="edge">
<title>Node2&#45;&gt;Node3</title>
<path fill="none" stroke="midnightblue" d="M191.21,-183.75C171.38,-178.44 149.83,-172.67 130.71,-167.55"/>
<polygon fill="midnightblue" stroke="midnightblue" points="190.54,-187.19 201.1,-186.4 192.35,-180.43 190.54,-187.19"/>
</g>
<!-- Node4&#45;&gt;Node3 -->
<g id="edge4" class="edge">
<title>Node4&#45;&gt;Node3</title>
<path fill="none" stroke="midnightblue" d="M174.22,-152.5C163.99,-152.5 153.62,-152.5 143.63,-152.5"/>
<polygon fill="midnightblue" stroke="midnightblue" points="174.38,-156 184.38,-152.5 174.38,-149 174.38,-156"/>
</g>
<!-- Node5&#45;&gt;Node3 -->
<g id="edge6" class="edge">
<title>Node5&#45;&gt;Node3</title>
<path fill="none" stroke="midnightblue" d="M191.21,-121.25C171.38,-126.56 149.83,-132.33 130.71,-137.45"/>
<polygon fill="midnightblue" stroke="midnightblue" points="192.35,-124.57 201.1,-118.6 190.54,-117.81 192.35,-124.57"/>
</g>
<!-- Node7&#45;&gt;Node6 -->
<g id="edge9" class="edge">
<title>Node7&#45;&gt;Node6</title>
<path fill="none" stroke="midnightblue" d="M177.69,-25.09C167.5,-26.32 157.12,-27.57 147.05,-28.78"/>
<polygon fill="midnightblue" stroke="midnightblue" points="178.28,-28.55 187.79,-23.88 177.45,-21.6 178.28,-28.55"/>
</g>
</g>
</svg>
