<?xml version="1.0" encoding="UTF-8" standalone="no"?>
<!DOCTYPE svg PUBLIC "-//W3C//DTD SVG 1.1//EN"
 "http://www.w3.org/Graphics/SVG/1.1/DTD/svg11.dtd">
<!-- Generated by graphviz version 2.43.0 (0)
 -->
<!-- Title: VirtualMousePushButton::mouseSlotCreated Pages: 1 -->
<svg width="788pt" height="187pt"
 viewBox="0.00 0.00 788.00 187.00" xmlns="http://www.w3.org/2000/svg" xmlns:xlink="http://www.w3.org/1999/xlink">
<g id="graph0" class="graph" transform="scale(1 1) rotate(0) translate(4 183)">
<title>VirtualMousePushButton::mouseSlotCreated</title>
<polygon fill="white" stroke="transparent" points="-4,4 -4,-183 784,-183 784,4 -4,4"/>
<!-- Node1 -->
<g id="node1" class="node">
<title>Node1</title>
<g id="a_node1"><a xlink:title=" ">
<polygon fill="#bfbfbf" stroke="black" points="643,-93.5 643,-123.5 780,-123.5 780,-93.5 643,-93.5"/>
<text text-anchor="start" x="651" y="-111.5" font-family="Helvetica,sans-Serif" font-size="10.00">VirtualMousePushButton</text>
<text text-anchor="middle" x="711.5" y="-100.5" font-family="Helvetica,sans-Serif" font-size="10.00">::mouseSlotCreated</text>
</a>
</g>
</g>
<!-- Node2 -->
<g id="node2" class="node">
<title>Node2</title>
<g id="a_node2"><a xlink:href="classVirtualMousePushButton.html#a444809ef5204c0447fc4467dbef28a43" target="_top" xlink:title=" ">
<polygon fill="white" stroke="black" points="428,-148.5 428,-178.5 565,-178.5 565,-148.5 428,-148.5"/>
<text text-anchor="start" x="436" y="-166.5" font-family="Helvetica,sans-Serif" font-size="10.00">VirtualMousePushButton</text>
<text text-anchor="middle" x="496.5" y="-155.5" font-family="Helvetica,sans-Serif" font-size="10.00">::createTempSlot</text>
</a>
</g>
</g>
<!-- Node1&#45;&gt;Node2 -->
<g id="edge1" class="edge">
<title>Node1&#45;&gt;Node2</title>
<path fill="none" stroke="midnightblue" d="M651.12,-126.35C636.73,-130.5 621.35,-134.79 607,-138.5 593.5,-141.99 579,-145.49 565.11,-148.71"/>
<polygon fill="midnightblue" stroke="midnightblue" points="652.28,-129.65 660.91,-123.5 650.33,-122.93 652.28,-129.65"/>
</g>
<!-- Node4 -->
<g id="node4" class="node">
<title>Node4</title>
<g id="a_node4"><a xlink:href="classVirtualKeyboardMouseWidget.html#ad9f14320ae528672d40f2c6ae0cb603b" target="_top" xlink:title=" ">
<polygon fill="white" stroke="black" points="407,-88 407,-129 586,-129 586,-88 407,-88"/>
<text text-anchor="start" x="415" y="-117" font-family="Helvetica,sans-Serif" font-size="10.00">VirtualKeyboardMouseWidget</text>
<text text-anchor="start" x="415" y="-106" font-family="Helvetica,sans-Serif" font-size="10.00">::establishVirtualMouseAdvanced</text>
<text text-anchor="middle" x="496.5" y="-95" font-family="Helvetica,sans-Serif" font-size="10.00">SignalConnections</text>
</a>
</g>
</g>
<!-- Node1&#45;&gt;Node4 -->
<g id="edge3" class="edge">
<title>Node1&#45;&gt;Node4</title>
<path fill="none" stroke="midnightblue" d="M632.51,-108.5C617.41,-108.5 601.48,-108.5 586.07,-108.5"/>
<polygon fill="midnightblue" stroke="midnightblue" points="632.81,-112 642.81,-108.5 632.81,-105 632.81,-112"/>
</g>
<!-- Node6 -->
<g id="node6" class="node">
<title>Node6</title>
<g id="a_node6"><a xlink:href="classVirtualKeyboardMouseWidget.html#ae98ecab176697aed0ca87609ceceaf06" target="_top" xlink:title=" ">
<polygon fill="white" stroke="black" points="386,-38.5 386,-68.5 607,-68.5 607,-38.5 386,-38.5"/>
<text text-anchor="start" x="394" y="-56.5" font-family="Helvetica,sans-Serif" font-size="10.00">VirtualKeyboardMouseWidget</text>
<text text-anchor="middle" x="496.5" y="-45.5" font-family="Helvetica,sans-Serif" font-size="10.00">::establishVirtualMouseSignalConnections</text>
</a>
</g>
</g>
<!-- Node1&#45;&gt;Node6 -->
<g id="edge5" class="edge">
<title>Node1&#45;&gt;Node6</title>
<path fill="none" stroke="midnightblue" d="M651.12,-90.65C636.73,-86.5 621.35,-82.21 607,-78.5 593.88,-75.1 579.81,-71.71 566.28,-68.57"/>
<polygon fill="midnightblue" stroke="midnightblue" points="650.33,-94.07 660.91,-93.5 652.28,-87.35 650.33,-94.07"/>
</g>
<!-- Node3 -->
<g id="node3" class="node">
<title>Node3</title>
<g id="a_node3"><a xlink:href="classVirtualMousePushButton.html#af2fb97fe4f04f89cc69abc3615c7c1ca" target="_top" xlink:title=" ">
<polygon fill="white" stroke="black" points="190,-148.5 190,-178.5 333,-178.5 333,-148.5 190,-148.5"/>
<text text-anchor="start" x="198" y="-166.5" font-family="Helvetica,sans-Serif" font-size="10.00">VirtualMousePushButton</text>
<text text-anchor="middle" x="261.5" y="-155.5" font-family="Helvetica,sans-Serif" font-size="10.00">::VirtualMousePushButton</text>
</a>
</g>
</g>
<!-- Node2&#45;&gt;Node3 -->
<g id="edge2" class="edge">
<title>Node2&#45;&gt;Node3</title>
<path fill="none" stroke="midnightblue" d="M417.52,-163.5C390.26,-163.5 359.84,-163.5 333.21,-163.5"/>
<polygon fill="midnightblue" stroke="midnightblue" points="417.79,-167 427.79,-163.5 417.79,-160 417.79,-167"/>
</g>
<!-- Node5 -->
<g id="node5" class="node">
<title>Node5</title>
<g id="a_node5"><a xlink:href="classButtonEditDialog.html#a3e9feede100cbb6a11c9d87659c196ea" target="_top" xlink:title=" ">
<polygon fill="white" stroke="black" points="0,-71.5 0,-101.5 137,-101.5 137,-71.5 0,-71.5"/>
<text text-anchor="start" x="8" y="-89.5" font-family="Helvetica,sans-Serif" font-size="10.00">ButtonEditDialog::Button</text>
<text text-anchor="middle" x="68.5" y="-78.5" font-family="Helvetica,sans-Serif" font-size="10.00">EditDialog</text>
</a>
</g>
</g>
<!-- Node4&#45;&gt;Node5 -->
<g id="edge4" class="edge">
<title>Node4&#45;&gt;Node5</title>
<path fill="none" stroke="midnightblue" d="M396.93,-103.41C317.29,-99.3 207.3,-93.62 137.28,-90"/>
<polygon fill="midnightblue" stroke="midnightblue" points="396.81,-106.91 406.97,-103.93 397.17,-99.92 396.81,-106.91"/>
</g>
<!-- Node7 -->
<g id="node7" class="node">
<title>Node7</title>
<g id="a_node7"><a xlink:href="classButtonEditDialog.html#ade8d1ee4ae03d1080932a70c8170d488" target="_top" xlink:title=" ">
<polygon fill="white" stroke="black" points="173,-49.5 173,-79.5 350,-79.5 350,-49.5 173,-49.5"/>
<text text-anchor="start" x="181" y="-67.5" font-family="Helvetica,sans-Serif" font-size="10.00">ButtonEditDialog::openAdvanced</text>
<text text-anchor="middle" x="261.5" y="-56.5" font-family="Helvetica,sans-Serif" font-size="10.00">Dialog</text>
</a>
</g>
</g>
<!-- Node6&#45;&gt;Node7 -->
<g id="edge6" class="edge">
<title>Node6&#45;&gt;Node7</title>
<path fill="none" stroke="midnightblue" d="M375.75,-59.15C367.17,-59.56 358.62,-59.96 350.27,-60.36"/>
<polygon fill="midnightblue" stroke="midnightblue" points="376,-62.65 385.82,-58.68 375.67,-55.65 376,-62.65"/>
</g>
<!-- Node8 -->
<g id="node8" class="node">
<title>Node8</title>
<g id="a_node8"><a xlink:href="classVirtualKeyboardMouseWidget.html#a5117686d29ac16c0d1f947da9ba7b7a4" target="_top" xlink:title=" ">
<polygon fill="white" stroke="black" points="178,-0.5 178,-30.5 345,-30.5 345,-0.5 178,-0.5"/>
<text text-anchor="start" x="186" y="-18.5" font-family="Helvetica,sans-Serif" font-size="10.00">VirtualKeyboardMouseWidget</text>
<text text-anchor="middle" x="261.5" y="-7.5" font-family="Helvetica,sans-Serif" font-size="10.00">::VirtualKeyboardMouseWidget</text>
</a>
</g>
</g>
<!-- Node6&#45;&gt;Node8 -->
<g id="edge8" class="edge">
<title>Node6&#45;&gt;Node8</title>
<path fill="none" stroke="midnightblue" d="M393.44,-36.85C377.32,-34.23 360.83,-31.54 345.23,-28.99"/>
<polygon fill="midnightblue" stroke="midnightblue" points="392.98,-40.33 403.41,-38.48 394.11,-33.42 392.98,-40.33"/>
</g>
<!-- Node7&#45;&gt;Node5 -->
<g id="edge7" class="edge">
<title>Node7&#45;&gt;Node5</title>
<path fill="none" stroke="midnightblue" d="M162.71,-75.76C154.09,-76.76 145.49,-77.75 137.2,-78.7"/>
<polygon fill="midnightblue" stroke="midnightblue" points="163.29,-79.22 172.83,-74.6 162.49,-72.27 163.29,-79.22"/>
</g>
</g>
</svg>
