<?xml version="1.0" encoding="UTF-8" standalone="no"?>
<!DOCTYPE svg PUBLIC "-//W3C//DTD SVG 1.1//EN"
 "http://www.w3.org/Graphics/SVG/1.1/DTD/svg11.dtd">
<!-- Generated by graphviz version 2.43.0 (0)
 -->
<!-- Title: JoyAxis::throttleChanged Pages: 1 -->
<svg width="1555pt" height="351pt"
 viewBox="0.00 0.00 1555.00 350.50" xmlns="http://www.w3.org/2000/svg" xmlns:xlink="http://www.w3.org/1999/xlink">
<g id="graph0" class="graph" transform="scale(1 1) rotate(0) translate(4 346.5)">
<title>JoyAxis::throttleChanged</title>
<polygon fill="white" stroke="transparent" points="-4,4 -4,-346.5 1551,-346.5 1551,4 -4,4"/>
<!-- Node1 -->
<g id="node1" class="node">
<title>Node1</title>
<g id="a_node1"><a xlink:title=" ">
<polygon fill="#bfbfbf" stroke="black" points="1410,-232.5 1410,-251.5 1547,-251.5 1547,-232.5 1410,-232.5"/>
<text text-anchor="middle" x="1478.5" y="-239.5" font-family="Helvetica,sans-Serif" font-size="10.00">JoyAxis::throttleChanged</text>
</a>
</g>
</g>
<!-- Node2 -->
<g id="node2" class="node">
<title>Node2</title>
<g id="a_node2"><a xlink:href="classJoyAxisWidget.html#af03b84951f7731c7e4a773d66c6fe414" target="_top" xlink:title=" ">
<polygon fill="white" stroke="black" points="1210,-270.5 1210,-289.5 1374,-289.5 1374,-270.5 1210,-270.5"/>
<text text-anchor="middle" x="1292" y="-277.5" font-family="Helvetica,sans-Serif" font-size="10.00">JoyAxisWidget::JoyAxisWidget</text>
</a>
</g>
</g>
<!-- Node1&#45;&gt;Node2 -->
<g id="edge1" class="edge">
<title>Node1&#45;&gt;Node2</title>
<path fill="none" stroke="midnightblue" d="M1421.13,-253.61C1394.89,-259.01 1364.06,-265.36 1339.22,-270.48"/>
<polygon fill="midnightblue" stroke="midnightblue" points="1421.85,-257.03 1430.94,-251.59 1420.44,-250.18 1421.85,-257.03"/>
</g>
<!-- Node3 -->
<g id="node3" class="node">
<title>Node3</title>
<g id="a_node3"><a xlink:href="classJoyAxis.html#a38eb99eb11dced53e58c8dc1d92f63bb" target="_top" xlink:title="Set the initial calibrated throttle based on the first event passed by SDL.">
<polygon fill="white" stroke="black" points="1222,-232.5 1222,-251.5 1362,-251.5 1362,-232.5 1222,-232.5"/>
<text text-anchor="middle" x="1292" y="-239.5" font-family="Helvetica,sans-Serif" font-size="10.00">JoyAxis::setInitialThrottle</text>
</a>
</g>
</g>
<!-- Node1&#45;&gt;Node3 -->
<g id="edge2" class="edge">
<title>Node1&#45;&gt;Node3</title>
<path fill="none" stroke="midnightblue" d="M1399.53,-242C1387.13,-242 1374.37,-242 1362.19,-242"/>
<polygon fill="midnightblue" stroke="midnightblue" points="1399.85,-245.5 1409.85,-242 1399.85,-238.5 1399.85,-245.5"/>
</g>
<!-- Node19 -->
<g id="node19" class="node">
<title>Node19</title>
<g id="a_node19"><a xlink:href="classJoyAxis.html#aa4be4a311b6656e63eacfdde5ce6861a" target="_top" xlink:title="Set throttle value for axis.">
<polygon fill="white" stroke="black" points="1236,-131.5 1236,-150.5 1348,-150.5 1348,-131.5 1236,-131.5"/>
<text text-anchor="middle" x="1292" y="-138.5" font-family="Helvetica,sans-Serif" font-size="10.00">JoyAxis::setThrottle</text>
</a>
</g>
</g>
<!-- Node1&#45;&gt;Node19 -->
<g id="edge19" class="edge">
<title>Node1&#45;&gt;Node19</title>
<path fill="none" stroke="midnightblue" d="M1451.14,-227.57C1412.86,-206.61 1342.93,-168.33 1310.45,-150.55"/>
<polygon fill="midnightblue" stroke="midnightblue" points="1449.69,-230.77 1460.14,-232.5 1453.05,-224.63 1449.69,-230.77"/>
</g>
<!-- Node4 -->
<g id="node4" class="node">
<title>Node4</title>
<g id="a_node4"><a xlink:href="classSetJoystick.html#af8d7d16a13702ae29b6590db35801d14" target="_top" xlink:title=" ">
<polygon fill="white" stroke="black" points="1019,-232.5 1019,-251.5 1153,-251.5 1153,-232.5 1019,-232.5"/>
<text text-anchor="middle" x="1086" y="-239.5" font-family="Helvetica,sans-Serif" font-size="10.00">SetJoystick::refreshAxes</text>
</a>
</g>
</g>
<!-- Node3&#45;&gt;Node4 -->
<g id="edge3" class="edge">
<title>Node3&#45;&gt;Node4</title>
<path fill="none" stroke="midnightblue" d="M1211.91,-242C1192.52,-242 1171.95,-242 1153.23,-242"/>
<polygon fill="midnightblue" stroke="midnightblue" points="1211.93,-245.5 1221.93,-242 1211.93,-238.5 1211.93,-245.5"/>
</g>
<!-- Node18 -->
<g id="node18" class="node">
<title>Node18</title>
<g id="a_node18"><a xlink:href="classSetJoystick.html#ac6daf1f765250107742c011bc2125e2e" target="_top" xlink:title=" ">
<polygon fill="white" stroke="black" points="1010.5,-270.5 1010.5,-289.5 1161.5,-289.5 1161.5,-270.5 1010.5,-270.5"/>
<text text-anchor="middle" x="1086" y="-277.5" font-family="Helvetica,sans-Serif" font-size="10.00">SetJoystick::setAxisThrottle</text>
</a>
</g>
</g>
<!-- Node3&#45;&gt;Node18 -->
<g id="edge18" class="edge">
<title>Node3&#45;&gt;Node18</title>
<path fill="none" stroke="midnightblue" d="M1229.7,-253.42C1200.51,-258.86 1166.01,-265.28 1138.24,-270.46"/>
<polygon fill="midnightblue" stroke="midnightblue" points="1230.6,-256.81 1239.79,-251.54 1229.31,-249.93 1230.6,-256.81"/>
</g>
<!-- Node5 -->
<g id="node5" class="node">
<title>Node5</title>
<g id="a_node5"><a xlink:href="classSetJoystick.html#adc322b55002b149c9a7432d1008b8537" target="_top" xlink:title="Re&#45;enumerates inputs from the associated device and resets all mappings in this set.">
<polygon fill="white" stroke="black" points="816.5,-235.5 816.5,-254.5 917.5,-254.5 917.5,-235.5 816.5,-235.5"/>
<text text-anchor="middle" x="867" y="-242.5" font-family="Helvetica,sans-Serif" font-size="10.00">SetJoystick::reset</text>
</a>
</g>
</g>
<!-- Node4&#45;&gt;Node5 -->
<g id="edge4" class="edge">
<title>Node4&#45;&gt;Node5</title>
<path fill="none" stroke="midnightblue" d="M1008.63,-243.06C978.44,-243.47 944.61,-243.94 917.69,-244.31"/>
<polygon fill="midnightblue" stroke="midnightblue" points="1008.76,-246.55 1018.71,-242.92 1008.67,-239.56 1008.76,-246.55"/>
</g>
<!-- Node6 -->
<g id="node6" class="node">
<title>Node6</title>
<g id="a_node6"><a xlink:href="classInputDevice.html#af7b290c37a1bcae1fbd0f0274d6cf646" target="_top" xlink:title=" ">
<polygon fill="white" stroke="black" points="594.5,-235.5 594.5,-254.5 700.5,-254.5 700.5,-235.5 594.5,-235.5"/>
<text text-anchor="middle" x="647.5" y="-242.5" font-family="Helvetica,sans-Serif" font-size="10.00">InputDevice::reset</text>
</a>
</g>
</g>
<!-- Node5&#45;&gt;Node6 -->
<g id="edge5" class="edge">
<title>Node5&#45;&gt;Node6</title>
<path fill="none" stroke="midnightblue" d="M806.36,-245C773.23,-245 732.4,-245 700.56,-245"/>
<polygon fill="midnightblue" stroke="midnightblue" points="806.37,-248.5 816.37,-245 806.37,-241.5 806.37,-248.5"/>
</g>
<!-- Node14 -->
<g id="node14" class="node">
<title>Node14</title>
<g id="a_node14"><a xlink:href="classGameControllerSet.html#a40b9c9ac22d6fe71c15380dcbca7eb80" target="_top" xlink:title=" ">
<polygon fill="white" stroke="black" points="589.5,-186 589.5,-216 705.5,-216 705.5,-186 589.5,-186"/>
<text text-anchor="start" x="597.5" y="-204" font-family="Helvetica,sans-Serif" font-size="10.00">GameControllerSet::</text>
<text text-anchor="middle" x="647.5" y="-193" font-family="Helvetica,sans-Serif" font-size="10.00">resetSticks</text>
</a>
</g>
</g>
<!-- Node5&#45;&gt;Node14 -->
<g id="edge14" class="edge">
<title>Node5&#45;&gt;Node14</title>
<path fill="none" stroke="midnightblue" d="M808.66,-233.41C796.55,-230.97 783.86,-228.4 772,-226 750.34,-221.62 726.55,-216.8 705.68,-212.58"/>
<polygon fill="midnightblue" stroke="midnightblue" points="808.17,-236.88 818.66,-235.43 809.55,-230.02 808.17,-236.88"/>
</g>
<!-- Node17 -->
<g id="node17" class="node">
<title>Node17</title>
<g id="a_node17"><a xlink:href="classSetJoystick.html#ab9d47383844cb2c08581352a6c02bdab" target="_top" xlink:title=" ">
<polygon fill="white" stroke="black" points="582,-273.5 582,-292.5 713,-292.5 713,-273.5 582,-273.5"/>
<text text-anchor="middle" x="647.5" y="-280.5" font-family="Helvetica,sans-Serif" font-size="10.00">SetJoystick::SetJoystick</text>
</a>
</g>
</g>
<!-- Node5&#45;&gt;Node17 -->
<g id="edge17" class="edge">
<title>Node5&#45;&gt;Node17</title>
<path fill="none" stroke="midnightblue" d="M806.2,-255.45C774.03,-261.07 734.63,-267.95 703.26,-273.43"/>
<polygon fill="midnightblue" stroke="midnightblue" points="807.13,-258.84 816.37,-253.67 805.92,-251.94 807.13,-258.84"/>
</g>
<!-- Node7 -->
<g id="node7" class="node">
<title>Node7</title>
<g id="a_node7"><a xlink:href="classInputDaemon.html#a70fa1dbeac61db6cc29a96cdc57a4518" target="_top" xlink:title=" ">
<polygon fill="white" stroke="black" points="362,-235.5 362,-254.5 523,-254.5 523,-235.5 362,-235.5"/>
<text text-anchor="middle" x="442.5" y="-242.5" font-family="Helvetica,sans-Serif" font-size="10.00">InputDaemon::refreshJoystick</text>
</a>
</g>
</g>
<!-- Node6&#45;&gt;Node7 -->
<g id="edge6" class="edge">
<title>Node6&#45;&gt;Node7</title>
<path fill="none" stroke="midnightblue" d="M584.35,-245C565.12,-245 543.65,-245 523.39,-245"/>
<polygon fill="midnightblue" stroke="midnightblue" points="584.49,-248.5 594.49,-245 584.49,-241.5 584.49,-248.5"/>
</g>
<!-- Node8 -->
<g id="node8" class="node">
<title>Node8</title>
<g id="a_node8"><a xlink:href="classInputDevice.html#a767b4db5d307c9d851affed3c7e23a30" target="_top" xlink:title="Obtain current joystick element values, create new SetJoystick objects, and then transfer most recent...">
<polygon fill="white" stroke="black" points="369,-273.5 369,-292.5 516,-292.5 516,-273.5 369,-273.5"/>
<text text-anchor="middle" x="442.5" y="-280.5" font-family="Helvetica,sans-Serif" font-size="10.00">InputDevice::transferReset</text>
</a>
</g>
</g>
<!-- Node6&#45;&gt;Node8 -->
<g id="edge7" class="edge">
<title>Node6&#45;&gt;Node8</title>
<path fill="none" stroke="midnightblue" d="M585.5,-256.42C556.46,-261.86 522.12,-268.28 494.48,-273.46"/>
<polygon fill="midnightblue" stroke="midnightblue" points="586.35,-259.82 595.54,-254.54 585.06,-252.94 586.35,-259.82"/>
</g>
<!-- Node9 -->
<g id="node9" class="node">
<title>Node9</title>
<g id="a_node9"><a xlink:href="classInputDeviceXml.html#a847bf9ed17b554bf87d513a1aebdcb64" target="_top" xlink:title="Deserializes the given XML stream into an InputDevice object.">
<polygon fill="white" stroke="black" points="173,-273.5 173,-292.5 326,-292.5 326,-273.5 173,-273.5"/>
<text text-anchor="middle" x="249.5" y="-280.5" font-family="Helvetica,sans-Serif" font-size="10.00">InputDeviceXml::readConfig</text>
</a>
</g>
</g>
<!-- Node8&#45;&gt;Node9 -->
<g id="edge8" class="edge">
<title>Node8&#45;&gt;Node9</title>
<path fill="none" stroke="midnightblue" d="M358.53,-283C347.79,-283 336.84,-283 326.22,-283"/>
<polygon fill="midnightblue" stroke="midnightblue" points="358.75,-286.5 368.75,-283 358.75,-279.5 358.75,-286.5"/>
</g>
<!-- Node10 -->
<g id="node10" class="node">
<title>Node10</title>
<g id="a_node10"><a xlink:href="classGameControllerXml.html#a7e47256cae0d3815419bc254413777d1" target="_top" xlink:title="Deserializes the given XML stream into a GameController object.">
<polygon fill="white" stroke="black" points="9,-208 9,-238 128,-238 128,-208 9,-208"/>
<text text-anchor="start" x="17" y="-226" font-family="Helvetica,sans-Serif" font-size="10.00">GameControllerXml::</text>
<text text-anchor="middle" x="68.5" y="-215" font-family="Helvetica,sans-Serif" font-size="10.00">readConfig</text>
</a>
</g>
</g>
<!-- Node8&#45;&gt;Node10 -->
<g id="edge9" class="edge">
<title>Node8&#45;&gt;Node10</title>
<path fill="none" stroke="midnightblue" d="M373.78,-271.81C358.1,-269.23 341.47,-266.51 326,-264 258.11,-252.99 180.09,-240.55 128.09,-232.29"/>
<polygon fill="midnightblue" stroke="midnightblue" points="373.5,-275.31 383.93,-273.48 374.63,-268.4 373.5,-275.31"/>
</g>
<!-- Node11 -->
<g id="node11" class="node">
<title>Node11</title>
<g id="a_node11"><a xlink:href="classGameControllerXml.html#aaa5257d4c6fe13f1d5fc51981e247c25" target="_top" xlink:title="Reads the XML tree from a &quot;joystick&quot; tag.">
<polygon fill="white" stroke="black" points="190,-186 190,-216 309,-216 309,-186 190,-186"/>
<text text-anchor="start" x="198" y="-204" font-family="Helvetica,sans-Serif" font-size="10.00">GameControllerXml::</text>
<text text-anchor="middle" x="249.5" y="-193" font-family="Helvetica,sans-Serif" font-size="10.00">readJoystickConfig</text>
</a>
</g>
</g>
<!-- Node8&#45;&gt;Node11 -->
<g id="edge10" class="edge">
<title>Node8&#45;&gt;Node11</title>
<path fill="none" stroke="midnightblue" d="M375.63,-270.09C370.91,-268.31 366.32,-266.29 362,-264 342.83,-253.82 344.39,-242.53 326,-231 316.8,-225.23 306.3,-220.22 296.12,-216.03"/>
<polygon fill="midnightblue" stroke="midnightblue" points="374.84,-273.52 385.44,-273.41 377.09,-266.89 374.84,-273.52"/>
</g>
<!-- Node12 -->
<g id="node12" class="node">
<title>Node12</title>
<g id="a_node12"><a xlink:href="classJoyTabWidgetHelper.html#aef94ae0812f28f43eb891ddc210c341e" target="_top" xlink:title=" ">
<polygon fill="white" stroke="black" points="192,-312 192,-342 307,-342 307,-312 192,-312"/>
<text text-anchor="start" x="200" y="-330" font-family="Helvetica,sans-Serif" font-size="10.00">JoyTabWidgetHelper</text>
<text text-anchor="middle" x="249.5" y="-319" font-family="Helvetica,sans-Serif" font-size="10.00">::reInitDevice</text>
</a>
</g>
</g>
<!-- Node8&#45;&gt;Node12 -->
<g id="edge12" class="edge">
<title>Node8&#45;&gt;Node12</title>
<path fill="none" stroke="midnightblue" d="M390.15,-294.83C364.51,-300.74 333.41,-307.9 307.08,-313.97"/>
<polygon fill="midnightblue" stroke="midnightblue" points="391.1,-298.2 400.06,-292.55 389.53,-291.38 391.1,-298.2"/>
</g>
<!-- Node11&#45;&gt;Node10 -->
<g id="edge11" class="edge">
<title>Node11&#45;&gt;Node10</title>
<path fill="none" stroke="midnightblue" d="M179.51,-209.48C162.59,-211.56 144.63,-213.77 128.24,-215.78"/>
<polygon fill="midnightblue" stroke="midnightblue" points="180.39,-212.9 189.89,-208.2 179.54,-205.95 180.39,-212.9"/>
</g>
<!-- Node13 -->
<g id="node13" class="node">
<title>Node13</title>
<g id="a_node13"><a xlink:href="classJoyTabWidgetHelper.html#acc5d7d51e925f84f9aa2936ce267f843" target="_top" xlink:title=" ">
<polygon fill="white" stroke="black" points="0,-312 0,-342 137,-342 137,-312 0,-312"/>
<text text-anchor="start" x="8" y="-330" font-family="Helvetica,sans-Serif" font-size="10.00">JoyTabWidgetHelper</text>
<text text-anchor="middle" x="68.5" y="-319" font-family="Helvetica,sans-Serif" font-size="10.00">::reInitDeviceWithRevert</text>
</a>
</g>
</g>
<!-- Node12&#45;&gt;Node13 -->
<g id="edge13" class="edge">
<title>Node12&#45;&gt;Node13</title>
<path fill="none" stroke="midnightblue" d="M181.46,-327C166.95,-327 151.58,-327 137.04,-327"/>
<polygon fill="midnightblue" stroke="midnightblue" points="181.86,-330.5 191.86,-327 181.86,-323.5 181.86,-330.5"/>
</g>
<!-- Node15 -->
<g id="node15" class="node">
<title>Node15</title>
<g id="a_node15"><a xlink:href="classGameControllerSet.html#a9d686fa2df459f7d157d60e05707f712" target="_top" xlink:title=" ">
<polygon fill="white" stroke="black" points="384.5,-137 384.5,-167 500.5,-167 500.5,-137 384.5,-137"/>
<text text-anchor="start" x="392.5" y="-155" font-family="Helvetica,sans-Serif" font-size="10.00">GameControllerSet::</text>
<text text-anchor="middle" x="442.5" y="-144" font-family="Helvetica,sans-Serif" font-size="10.00">GameControllerSet</text>
</a>
</g>
</g>
<!-- Node14&#45;&gt;Node15 -->
<g id="edge15" class="edge">
<title>Node14&#45;&gt;Node15</title>
<path fill="none" stroke="midnightblue" d="M579.43,-184.81C553.89,-178.64 525.04,-171.68 500.51,-165.76"/>
<polygon fill="midnightblue" stroke="midnightblue" points="578.87,-188.28 589.41,-187.22 580.51,-181.47 578.87,-188.28"/>
</g>
<!-- Node16 -->
<g id="node16" class="node">
<title>Node16</title>
<g id="a_node16"><a xlink:href="classGameControllerSet.html#a69d798af242a07017bc0f2e2d0d8a830" target="_top" xlink:title=" ">
<polygon fill="white" stroke="black" points="384.5,-186 384.5,-216 500.5,-216 500.5,-186 384.5,-186"/>
<text text-anchor="start" x="392.5" y="-204" font-family="Helvetica,sans-Serif" font-size="10.00">GameControllerSet::</text>
<text text-anchor="middle" x="442.5" y="-193" font-family="Helvetica,sans-Serif" font-size="10.00">reset</text>
</a>
</g>
</g>
<!-- Node14&#45;&gt;Node16 -->
<g id="edge16" class="edge">
<title>Node14&#45;&gt;Node16</title>
<path fill="none" stroke="midnightblue" d="M579.09,-201C553.63,-201 524.93,-201 500.51,-201"/>
<polygon fill="midnightblue" stroke="midnightblue" points="579.41,-204.5 589.41,-201 579.41,-197.5 579.41,-204.5"/>
</g>
<!-- Node20 -->
<g id="node20" class="node">
<title>Node20</title>
<g id="a_node20"><a xlink:href="classGameControllerTrigger.html#abfde3c0a5d3bacf59188fd8c81968642" target="_top" xlink:title=" ">
<polygon fill="white" stroke="black" points="1019.5,-104 1019.5,-134 1152.5,-134 1152.5,-104 1019.5,-104"/>
<text text-anchor="start" x="1027.5" y="-122" font-family="Helvetica,sans-Serif" font-size="10.00">GameControllerTrigger</text>
<text text-anchor="middle" x="1086" y="-111" font-family="Helvetica,sans-Serif" font-size="10.00">::correctJoystickThrottle</text>
</a>
</g>
</g>
<!-- Node19&#45;&gt;Node20 -->
<g id="edge20" class="edge">
<title>Node19&#45;&gt;Node20</title>
<path fill="none" stroke="midnightblue" d="M1225.66,-133.95C1202.36,-131.44 1176.11,-128.61 1152.77,-126.09"/>
<polygon fill="midnightblue" stroke="midnightblue" points="1225.48,-137.45 1235.79,-135.05 1226.23,-130.49 1225.48,-137.45"/>
</g>
<!-- Node21 -->
<g id="node21" class="node">
<title>Node21</title>
<g id="a_node21"><a xlink:href="classInputDevice.html#acd3b268edd296c66e54dce8c92652f07" target="_top" xlink:title=" ">
<polygon fill="white" stroke="black" points="1013,-16 1013,-46 1159,-46 1159,-16 1013,-16"/>
<text text-anchor="start" x="1021" y="-34" font-family="Helvetica,sans-Serif" font-size="10.00">InputDevice::propogateSet</text>
<text text-anchor="middle" x="1086" y="-23" font-family="Helvetica,sans-Serif" font-size="10.00">AxisThrottleChange</text>
</a>
</g>
</g>
<!-- Node19&#45;&gt;Node21 -->
<g id="edge21" class="edge">
<title>Node19&#45;&gt;Node21</title>
<path fill="none" stroke="midnightblue" d="M1271.3,-125.08C1248.84,-107.53 1210.49,-79.35 1174,-61 1162.72,-55.33 1150.12,-50.3 1138.09,-46.06"/>
<polygon fill="midnightblue" stroke="midnightblue" points="1269.35,-128 1279.37,-131.46 1273.7,-122.51 1269.35,-128"/>
</g>
<!-- Node25 -->
<g id="node25" class="node">
<title>Node25</title>
<g id="a_node25"><a xlink:href="classGameControllerTriggerXml.html#a4578ad54daf8a24231e8b0e4e09f1587" target="_top" xlink:title=" ">
<polygon fill="white" stroke="black" points="794,-88 794,-118 940,-118 940,-88 794,-88"/>
<text text-anchor="start" x="802" y="-106" font-family="Helvetica,sans-Serif" font-size="10.00">GameControllerTriggerXml</text>
<text text-anchor="middle" x="867" y="-95" font-family="Helvetica,sans-Serif" font-size="10.00">::readJoystickConfig</text>
</a>
</g>
</g>
<!-- Node19&#45;&gt;Node25 -->
<g id="edge25" class="edge">
<title>Node19&#45;&gt;Node25</title>
<path fill="none" stroke="midnightblue" d="M1264.25,-126.82C1241.1,-115.4 1206.35,-100.25 1174,-94 1095.08,-78.74 1002.6,-84.65 940.13,-92.05"/>
<polygon fill="midnightblue" stroke="midnightblue" points="1262.91,-130.07 1273.42,-131.45 1266.07,-123.82 1262.91,-130.07"/>
</g>
<!-- Node27 -->
<g id="node27" class="node">
<title>Node27</title>
<g id="a_node27"><a xlink:href="classJoyAxisXml.html#a722916013ad49036b2ad38ab8ec30484" target="_top" xlink:title=" ">
<polygon fill="white" stroke="black" points="1008.5,-153.5 1008.5,-172.5 1163.5,-172.5 1163.5,-153.5 1008.5,-153.5"/>
<text text-anchor="middle" x="1086" y="-160.5" font-family="Helvetica,sans-Serif" font-size="10.00">JoyAxisXml::readMainConfig</text>
</a>
</g>
</g>
<!-- Node19&#45;&gt;Node27 -->
<g id="edge28" class="edge">
<title>Node19&#45;&gt;Node27</title>
<path fill="none" stroke="midnightblue" d="M1225.69,-148.04C1205.95,-150.17 1184.1,-152.53 1163.69,-154.73"/>
<polygon fill="midnightblue" stroke="midnightblue" points="1226.23,-151.51 1235.79,-146.95 1225.48,-144.55 1226.23,-151.51"/>
</g>
<!-- Node30 -->
<g id="node30" class="node">
<title>Node30</title>
<g id="a_node30"><a xlink:href="classAxisEditDialog.html#a37e715b68fb2ba3f3ab6046d178aa065" target="_top" xlink:title=" ">
<polygon fill="white" stroke="black" points="998,-191.5 998,-210.5 1174,-210.5 1174,-191.5 998,-191.5"/>
<text text-anchor="middle" x="1086" y="-198.5" font-family="Helvetica,sans-Serif" font-size="10.00">AxisEditDialog::updateThrottleUi</text>
</a>
</g>
</g>
<!-- Node19&#45;&gt;Node30 -->
<g id="edge32" class="edge">
<title>Node19&#45;&gt;Node30</title>
<path fill="none" stroke="midnightblue" d="M1257.24,-154.06C1234.06,-162.73 1202.45,-173.94 1174,-182 1161.65,-185.5 1148.17,-188.72 1135.58,-191.49"/>
<polygon fill="midnightblue" stroke="midnightblue" points="1258.51,-157.32 1266.63,-150.52 1256.04,-150.77 1258.51,-157.32"/>
</g>
<!-- Node22 -->
<g id="node22" class="node">
<title>Node22</title>
<g id="a_node22"><a xlink:href="classInputDevice.html#a6ffcebba103a7db02e82c1c7f62387bf" target="_top" xlink:title="Establishes necessary connections for set change slots.">
<polygon fill="white" stroke="black" points="772,-21.5 772,-40.5 962,-40.5 962,-21.5 772,-21.5"/>
<text text-anchor="middle" x="867" y="-28.5" font-family="Helvetica,sans-Serif" font-size="10.00">InputDevice::enableSetConnections</text>
</a>
</g>
</g>
<!-- Node21&#45;&gt;Node22 -->
<g id="edge22" class="edge">
<title>Node21&#45;&gt;Node22</title>
<path fill="none" stroke="midnightblue" d="M1002.38,-31C989.29,-31 975.67,-31 962.33,-31"/>
<polygon fill="midnightblue" stroke="midnightblue" points="1002.74,-34.5 1012.74,-31 1002.74,-27.5 1002.74,-34.5"/>
</g>
<!-- Node23 -->
<g id="node23" class="node">
<title>Node23</title>
<g id="a_node23"><a xlink:href="classGameController.html#afcddb9dcc5442a9746c3ff8760ea1791" target="_top" xlink:title=" ">
<polygon fill="white" stroke="black" points="559,-0.5 559,-19.5 736,-19.5 736,-0.5 559,-0.5"/>
<text text-anchor="middle" x="647.5" y="-7.5" font-family="Helvetica,sans-Serif" font-size="10.00">GameController::GameController</text>
</a>
</g>
</g>
<!-- Node22&#45;&gt;Node23 -->
<g id="edge23" class="edge">
<title>Node22&#45;&gt;Node23</title>
<path fill="none" stroke="midnightblue" d="M761.85,-20.94C753.28,-20.12 744.68,-19.29 736.26,-18.47"/>
<polygon fill="midnightblue" stroke="midnightblue" points="761.58,-24.43 771.87,-21.91 762.25,-17.47 761.58,-24.43"/>
</g>
<!-- Node24 -->
<g id="node24" class="node">
<title>Node24</title>
<g id="a_node24"><a xlink:href="classJoystick.html#a9df5e53506876f3c95e84bdf6c9cbaf1" target="_top" xlink:title=" ">
<polygon fill="white" stroke="black" points="598,-38.5 598,-57.5 697,-57.5 697,-38.5 598,-38.5"/>
<text text-anchor="middle" x="647.5" y="-45.5" font-family="Helvetica,sans-Serif" font-size="10.00">Joystick::Joystick</text>
</a>
</g>
</g>
<!-- Node22&#45;&gt;Node24 -->
<g id="edge24" class="edge">
<title>Node22&#45;&gt;Node24</title>
<path fill="none" stroke="midnightblue" d="M761.88,-39.14C739.31,-40.9 716.48,-42.69 697.28,-44.19"/>
<polygon fill="midnightblue" stroke="midnightblue" points="762.17,-42.63 771.87,-38.36 761.62,-35.65 762.17,-42.63"/>
</g>
<!-- Node26 -->
<g id="node26" class="node">
<title>Node26</title>
<g id="a_node26"><a xlink:href="classGameControllerSet.html#a6b551139e353a654212d498309744025" target="_top" xlink:title=" ">
<polygon fill="white" stroke="black" points="384.5,-88 384.5,-118 500.5,-118 500.5,-88 384.5,-88"/>
<text text-anchor="start" x="392.5" y="-106" font-family="Helvetica,sans-Serif" font-size="10.00">GameControllerSet::</text>
<text text-anchor="middle" x="442.5" y="-95" font-family="Helvetica,sans-Serif" font-size="10.00">readJoystickConfig</text>
</a>
</g>
</g>
<!-- Node25&#45;&gt;Node26 -->
<g id="edge26" class="edge">
<title>Node25&#45;&gt;Node26</title>
<path fill="none" stroke="midnightblue" d="M783.66,-103C700.35,-103 573.74,-103 500.78,-103"/>
<polygon fill="midnightblue" stroke="midnightblue" points="783.85,-106.5 793.85,-103 783.85,-99.5 783.85,-106.5"/>
</g>
<!-- Node26&#45;&gt;Node11 -->
<g id="edge27" class="edge">
<title>Node26&#45;&gt;Node11</title>
<path fill="none" stroke="midnightblue" d="M374.68,-121.59C370.33,-123.28 366.07,-125.08 362,-127 327.31,-143.31 291.02,-169.34 269.6,-185.78"/>
<polygon fill="midnightblue" stroke="midnightblue" points="376.1,-124.79 384.28,-118.06 373.69,-118.22 376.1,-124.79"/>
</g>
<!-- Node27&#45;&gt;Node25 -->
<g id="edge31" class="edge">
<title>Node27&#45;&gt;Node25</title>
<path fill="none" stroke="midnightblue" d="M1030.75,-151.17C1019.87,-148.62 1008.54,-145.83 998,-143 969.95,-135.47 938.84,-125.94 914.09,-118.07"/>
<polygon fill="midnightblue" stroke="midnightblue" points="1030.06,-154.6 1040.59,-153.44 1031.63,-147.78 1030.06,-154.6"/>
</g>
<!-- Node28 -->
<g id="node28" class="node">
<title>Node28</title>
<g id="a_node28"><a xlink:href="classJoyAxisXml.html#abfcf483748d22f52a9f76d2bf23e9a3d" target="_top" xlink:title=" ">
<polygon fill="white" stroke="black" points="801.5,-147.5 801.5,-166.5 932.5,-166.5 932.5,-147.5 801.5,-147.5"/>
<text text-anchor="middle" x="867" y="-154.5" font-family="Helvetica,sans-Serif" font-size="10.00">JoyAxisXml::readConfig</text>
</a>
</g>
</g>
<!-- Node27&#45;&gt;Node28 -->
<g id="edge29" class="edge">
<title>Node27&#45;&gt;Node28</title>
<path fill="none" stroke="midnightblue" d="M998.21,-160.6C976.35,-160 953.25,-159.36 932.68,-158.79"/>
<polygon fill="midnightblue" stroke="midnightblue" points="998.4,-164.11 1008.49,-160.88 998.59,-157.11 998.4,-164.11"/>
</g>
<!-- Node29 -->
<g id="node29" class="node">
<title>Node29</title>
<g id="a_node29"><a xlink:href="classSetJoystickXml.html#aa95423a01fab878cbc69bffb7f6121f3" target="_top" xlink:title="Deserializes the given XML stream into a SetJoystick object.">
<polygon fill="white" stroke="black" points="573,-147.5 573,-166.5 722,-166.5 722,-147.5 573,-147.5"/>
<text text-anchor="middle" x="647.5" y="-154.5" font-family="Helvetica,sans-Serif" font-size="10.00">SetJoystickXml::readConfig</text>
</a>
</g>
</g>
<!-- Node28&#45;&gt;Node29 -->
<g id="edge30" class="edge">
<title>Node28&#45;&gt;Node29</title>
<path fill="none" stroke="midnightblue" d="M791.22,-157C768.86,-157 744.36,-157 722.08,-157"/>
<polygon fill="midnightblue" stroke="midnightblue" points="791.33,-160.5 801.33,-157 791.33,-153.5 791.33,-160.5"/>
</g>
<!-- Node31 -->
<g id="node31" class="node">
<title>Node31</title>
<g id="a_node31"><a xlink:href="classAxisEditDialog.html#a702a1718f3a1dd6b64b4474ea19b71cd" target="_top" xlink:title=" ">
<polygon fill="white" stroke="black" points="800,-186 800,-216 934,-216 934,-186 800,-186"/>
<text text-anchor="start" x="808" y="-204" font-family="Helvetica,sans-Serif" font-size="10.00">AxisEditDialog::AxisEdit</text>
<text text-anchor="middle" x="867" y="-193" font-family="Helvetica,sans-Serif" font-size="10.00">Dialog</text>
</a>
</g>
</g>
<!-- Node30&#45;&gt;Node31 -->
<g id="edge33" class="edge">
<title>Node30&#45;&gt;Node31</title>
<path fill="none" stroke="midnightblue" d="M987.97,-201C969.83,-201 951.26,-201 934.31,-201"/>
<polygon fill="midnightblue" stroke="midnightblue" points="987.99,-204.5 997.99,-201 987.99,-197.5 987.99,-204.5"/>
</g>
</g>
</svg>
