<?xml version="1.0" encoding="UTF-8" standalone="no"?>
<!DOCTYPE svg PUBLIC "-//W3C//DTD SVG 1.1//EN"
 "http://www.w3.org/Graphics/SVG/1.1/DTD/svg11.dtd">
<!-- Generated by graphviz version 2.43.0 (0)
 -->
<!-- Title: JoyButton::setStartAccelMultiplier Pages: 1 -->
<!--zoomable 305 -->
<svg id="main" version="1.1" xmlns="http://www.w3.org/2000/svg" xmlns:xlink="http://www.w3.org/1999/xlink" xml:space="preserve" onload="init(evt)">
<style type="text/css"><![CDATA[
.edge:hover path { stroke: red; }
.edge:hover polygon { stroke: red; fill: red; }
]]></style>
<script type="text/javascript"><![CDATA[
var edges = document.getElementsByTagName('g');
if (edges && edges.length) {
  for (var i=0;i<edges.length;i++) {
    if (edges[i].id.substr(0,4)=='edge') {
      edges[i].setAttribute('class','edge');
    }
  }
}
]]></script>
        <defs>
                <circle id="rim" cx="0" cy="0" r="7"/>
                <circle id="rim2" cx="0" cy="0" r="3.5"/>
                <g id="zoomPlus">
                        <use xlink:href="#rim" fill="#404040">
                                <set attributeName="fill" to="#808080" begin="zoomplus.mouseover" end="zoomplus.mouseout"/>
                        </use>
                        <path d="M-4,0h8M0,-4v8" fill="none" stroke="white" stroke-width="1.5" pointer-events="none"/>
                </g>
                <g id="zoomMin">
                        <use xlink:href="#rim" fill="#404040">
                                <set attributeName="fill" to="#808080" begin="zoomminus.mouseover" end="zoomminus.mouseout"/>
                        </use>
                        <path d="M-4,0h8" fill="none" stroke="white" stroke-width="1.5" pointer-events="none"/>
                </g>
                <g id="dirArrow">
                        <path fill="none" stroke="white" stroke-width="1.5" d="M0,-3.0v7 M-2.5,-0.5L0,-3.0L2.5,-0.5"/>
                </g>
               <g id="resetDef">
                       <use xlink:href="#rim2" fill="#404040">
                               <set attributeName="fill" to="#808080" begin="reset.mouseover" end="reset.mouseout"/>
                       </use>
               </g>
        </defs>

<script type="text/javascript">
var viewWidth = 1289;
var viewHeight = 305;
var sectionId = 'dynsection-263';
</script>
<script xlink:href="svgpan.js"/>
<svg id="graph" class="graph">
<g id="viewport">
<title>JoyButton::setStartAccelMultiplier</title>
<polygon fill="white" stroke="transparent" points="-4,4 -4,-300.57 1285,-300.57 1285,4 -4,4"/>
<!-- Node1 -->
<g id="node1" class="node">
<title>Node1</title>
<g id="a_node1"><a xlink:title=" ">
<polygon fill="#bfbfbf" stroke="black" points="1147,-77.5 1147,-107.5 1281,-107.5 1281,-77.5 1147,-77.5"/>
<text text-anchor="start" x="1155" y="-95.5" font-family="Helvetica,sans-Serif" font-size="10.00">JoyButton::setStartAccel</text>
<text text-anchor="middle" x="1214" y="-84.5" font-family="Helvetica,sans-Serif" font-size="10.00">Multiplier</text>
</a>
</g>
</g>
<!-- Node2 -->
<g id="node2" class="node">
<title>Node2</title>
<g id="a_node2"><a xlink:href="classJoyButtonXml.html#a9d7b2a6324a2f8fe4f424f78aa43d261" target="_top" xlink:title=" ">
<polygon fill="white" stroke="black" points="944,-159.5 944,-189.5 1087,-189.5 1087,-159.5 944,-159.5"/>
<text text-anchor="start" x="952" y="-177.5" font-family="Helvetica,sans-Serif" font-size="10.00">JoyButtonXml::readButton</text>
<text text-anchor="middle" x="1015.5" y="-166.5" font-family="Helvetica,sans-Serif" font-size="10.00">Config</text>
</a>
</g>
</g>
<!-- Node1&#45;&gt;Node2 -->
<g id="edge1" class="edge">
<title>Node1&#45;&gt;Node2</title>
<path fill="none" stroke="midnightblue" d="M1174.74,-112.13C1155.79,-121.53 1132.43,-132.64 1111,-141.5 1095.58,-147.87 1078.44,-154.11 1063.03,-159.41"/>
<polygon fill="midnightblue" stroke="midnightblue" points="1176.56,-115.14 1183.93,-107.53 1173.43,-108.88 1176.56,-115.14"/>
</g>
<!-- Node12 -->
<g id="node12" class="node">
<title>Node12</title>
<g id="a_node12"><a xlink:href="classJoyControlStick.html#a237ff228bac1d97a01fdf7351878d4c6" target="_top" xlink:title=" ">
<polygon fill="white" stroke="black" points="941,-101.5 941,-131.5 1090,-131.5 1090,-101.5 941,-101.5"/>
<text text-anchor="start" x="949" y="-119.5" font-family="Helvetica,sans-Serif" font-size="10.00">JoyControlStick::setButtons</text>
<text text-anchor="middle" x="1015.5" y="-108.5" font-family="Helvetica,sans-Serif" font-size="10.00">StartAccelerationMultiplier</text>
</a>
</g>
</g>
<!-- Node1&#45;&gt;Node12 -->
<g id="edge12" class="edge">
<title>Node1&#45;&gt;Node12</title>
<path fill="none" stroke="midnightblue" d="M1136.82,-101.8C1121.51,-103.67 1105.45,-105.64 1090.24,-107.49"/>
<polygon fill="midnightblue" stroke="midnightblue" points="1137.25,-105.28 1146.75,-100.59 1136.4,-98.33 1137.25,-105.28"/>
</g>
<!-- Node15 -->
<g id="node15" class="node">
<title>Node15</title>
<g id="a_node15"><a xlink:href="classMouseButtonSettingsDialogHelper.html#ac4595eed9f7d5752386f1d9d82862ebf" target="_top" xlink:title=" ">
<polygon fill="white" stroke="black" points="920,-50.5 920,-80.5 1111,-80.5 1111,-50.5 920,-50.5"/>
<text text-anchor="start" x="928" y="-68.5" font-family="Helvetica,sans-Serif" font-size="10.00">MouseButtonSettingsDialog</text>
<text text-anchor="middle" x="1015.5" y="-57.5" font-family="Helvetica,sans-Serif" font-size="10.00">Helper::updateStartMultiPercentage</text>
</a>
</g>
</g>
<!-- Node1&#45;&gt;Node15 -->
<g id="edge15" class="edge">
<title>Node1&#45;&gt;Node15</title>
<path fill="none" stroke="midnightblue" d="M1136.65,-82.01C1128.27,-80.86 1119.66,-79.67 1111.09,-78.5"/>
<polygon fill="midnightblue" stroke="midnightblue" points="1136.36,-85.5 1146.75,-83.4 1137.32,-78.57 1136.36,-85.5"/>
</g>
<!-- Node17 -->
<g id="node17" class="node">
<title>Node17</title>
<g id="a_node17"><a xlink:href="classMouseAxisSettingsDialogHelper.html#a93778efb5ba0ee4618826fd8a9c6e6f0" target="_top" xlink:title=" ">
<polygon fill="white" stroke="black" points="929,-1.5 929,-31.5 1102,-31.5 1102,-1.5 929,-1.5"/>
<text text-anchor="start" x="937" y="-19.5" font-family="Helvetica,sans-Serif" font-size="10.00">MouseAxisSettingsDialogHelper</text>
<text text-anchor="middle" x="1015.5" y="-8.5" font-family="Helvetica,sans-Serif" font-size="10.00">::updateStartMultiPercentage</text>
</a>
</g>
</g>
<!-- Node1&#45;&gt;Node17 -->
<g id="edge17" class="edge">
<title>Node1&#45;&gt;Node17</title>
<path fill="none" stroke="midnightblue" d="M1178.56,-72.51C1159.19,-61.89 1134.29,-49.27 1111,-40.5 1102.21,-37.19 1092.79,-34.19 1083.42,-31.51"/>
<polygon fill="midnightblue" stroke="midnightblue" points="1176.87,-75.58 1187.31,-77.38 1180.27,-69.46 1176.87,-75.58"/>
</g>
<!-- Node3 -->
<g id="node3" class="node">
<title>Node3</title>
<g id="a_node3"><a xlink:href="classJoyButtonXml.html#a9d79d75b14b57419ed1fc5639dde8515" target="_top" xlink:title=" ">
<polygon fill="white" stroke="black" points="729,-236 729,-255 871,-255 871,-236 729,-236"/>
<text text-anchor="middle" x="800" y="-243" font-family="Helvetica,sans-Serif" font-size="10.00">JoyButtonXml::readConfig</text>
</a>
</g>
</g>
<!-- Node2&#45;&gt;Node3 -->
<g id="edge2" class="edge">
<title>Node2&#45;&gt;Node3</title>
<path fill="none" stroke="midnightblue" d="M959.55,-192.78C918.13,-206.55 862.99,-224.88 829.85,-235.91"/>
<polygon fill="midnightblue" stroke="midnightblue" points="960.84,-196.03 969.22,-189.56 958.63,-189.39 960.84,-196.03"/>
</g>
<!-- Node7 -->
<g id="node7" class="node">
<title>Node7</title>
<g id="a_node7"><a xlink:href="classGameControllerTriggerButton.html#a1c89ef4d420dfe360817c28bc1680c93" target="_top" xlink:title=" ">
<polygon fill="white" stroke="black" points="720.5,-159.5 720.5,-189.5 879.5,-189.5 879.5,-159.5 720.5,-159.5"/>
<text text-anchor="start" x="728.5" y="-177.5" font-family="Helvetica,sans-Serif" font-size="10.00">GameControllerTriggerButton</text>
<text text-anchor="middle" x="800" y="-166.5" font-family="Helvetica,sans-Serif" font-size="10.00">::readJoystickConfig</text>
</a>
</g>
</g>
<!-- Node2&#45;&gt;Node7 -->
<g id="edge7" class="edge">
<title>Node2&#45;&gt;Node7</title>
<path fill="none" stroke="midnightblue" d="M933.46,-174.5C915.84,-174.5 897.23,-174.5 879.71,-174.5"/>
<polygon fill="midnightblue" stroke="midnightblue" points="933.7,-178 943.7,-174.5 933.7,-171 933.7,-178"/>
</g>
<!-- Node4 -->
<g id="node4" class="node">
<title>Node4</title>
<g id="a_node4"><a xlink:href="classSetJoystickXml.html#aa95423a01fab878cbc69bffb7f6121f3" target="_top" xlink:title="Deserializes the given XML stream into a SetJoystick object.">
<polygon fill="white" stroke="black" points="310,-277 310,-296 459,-296 459,-277 310,-277"/>
<text text-anchor="middle" x="384.5" y="-284" font-family="Helvetica,sans-Serif" font-size="10.00">SetJoystickXml::readConfig</text>
</a>
</g>
</g>
<!-- Node3&#45;&gt;Node4 -->
<g id="edge3" class="edge">
<title>Node3&#45;&gt;Node4</title>
<path fill="none" stroke="midnightblue" d="M768.6,-259.12C744.98,-268.92 711.12,-281.29 680,-286.5 605.62,-298.95 519.19,-297.06 459.28,-293.21"/>
<polygon fill="midnightblue" stroke="midnightblue" points="770.22,-262.23 778.06,-255.1 767.49,-255.79 770.22,-262.23"/>
</g>
<!-- Node5 -->
<g id="node5" class="node">
<title>Node5</title>
<g id="a_node5"><a xlink:href="classJoyControlStick.html#ab6ce741115ee3d436c1a7e866abd21e6" target="_top" xlink:title="Take a XML stream and set the stick and direction button properties according to the values contained...">
<polygon fill="white" stroke="black" points="513,-258 513,-277 662,-277 662,-258 513,-258"/>
<text text-anchor="middle" x="587.5" y="-265" font-family="Helvetica,sans-Serif" font-size="10.00">JoyControlStick::readConfig</text>
</a>
</g>
</g>
<!-- Node3&#45;&gt;Node5 -->
<g id="edge4" class="edge">
<title>Node3&#45;&gt;Node5</title>
<path fill="none" stroke="midnightblue" d="M718.73,-253.89C700.17,-255.83 680.52,-257.88 662.25,-259.79"/>
<polygon fill="midnightblue" stroke="midnightblue" points="719.32,-257.35 728.91,-252.83 718.6,-250.38 719.32,-257.35"/>
</g>
<!-- Node6 -->
<g id="node6" class="node">
<title>Node6</title>
<g id="a_node6"><a xlink:href="classJoyDPadXml.html#ae9a3556242b984c81fc6945acafc5586" target="_top" xlink:title=" ">
<polygon fill="white" stroke="black" points="505.5,-208.5 505.5,-238.5 669.5,-238.5 669.5,-208.5 505.5,-208.5"/>
<text text-anchor="start" x="513.5" y="-226.5" font-family="Helvetica,sans-Serif" font-size="10.00">JoyDPadXml&lt; GameController</text>
<text text-anchor="middle" x="587.5" y="-215.5" font-family="Helvetica,sans-Serif" font-size="10.00">DPad &gt;::readMainConfig</text>
</a>
</g>
</g>
<!-- Node3&#45;&gt;Node6 -->
<g id="edge6" class="edge">
<title>Node3&#45;&gt;Node6</title>
<path fill="none" stroke="midnightblue" d="M718.5,-237.09C702.47,-235.41 685.63,-233.65 669.58,-231.97"/>
<polygon fill="midnightblue" stroke="midnightblue" points="718.6,-240.62 728.91,-238.17 719.32,-233.65 718.6,-240.62"/>
</g>
<!-- Node5&#45;&gt;Node4 -->
<g id="edge5" class="edge">
<title>Node5&#45;&gt;Node4</title>
<path fill="none" stroke="midnightblue" d="M502.44,-275.45C488.08,-276.8 473.26,-278.2 459.19,-279.53"/>
<polygon fill="midnightblue" stroke="midnightblue" points="503.17,-278.89 512.8,-274.47 502.51,-271.92 503.17,-278.89"/>
</g>
<!-- Node8 -->
<g id="node8" class="node">
<title>Node8</title>
<g id="a_node8"><a xlink:href="classGameControllerTriggerXml.html#a4578ad54daf8a24231e8b0e4e09f1587" target="_top" xlink:title=" ">
<polygon fill="white" stroke="black" points="514.5,-159.5 514.5,-189.5 660.5,-189.5 660.5,-159.5 514.5,-159.5"/>
<text text-anchor="start" x="522.5" y="-177.5" font-family="Helvetica,sans-Serif" font-size="10.00">GameControllerTriggerXml</text>
<text text-anchor="middle" x="587.5" y="-166.5" font-family="Helvetica,sans-Serif" font-size="10.00">::readJoystickConfig</text>
</a>
</g>
</g>
<!-- Node7&#45;&gt;Node8 -->
<g id="edge8" class="edge">
<title>Node7&#45;&gt;Node8</title>
<path fill="none" stroke="midnightblue" d="M710.16,-174.5C693.71,-174.5 676.72,-174.5 660.83,-174.5"/>
<polygon fill="midnightblue" stroke="midnightblue" points="710.32,-178 720.32,-174.5 710.32,-171 710.32,-178"/>
</g>
<!-- Node9 -->
<g id="node9" class="node">
<title>Node9</title>
<g id="a_node9"><a xlink:href="classGameControllerSet.html#a6b551139e353a654212d498309744025" target="_top" xlink:title=" ">
<polygon fill="white" stroke="black" points="326.5,-159.5 326.5,-189.5 442.5,-189.5 442.5,-159.5 326.5,-159.5"/>
<text text-anchor="start" x="334.5" y="-177.5" font-family="Helvetica,sans-Serif" font-size="10.00">GameControllerSet::</text>
<text text-anchor="middle" x="384.5" y="-166.5" font-family="Helvetica,sans-Serif" font-size="10.00">readJoystickConfig</text>
</a>
</g>
</g>
<!-- Node8&#45;&gt;Node9 -->
<g id="edge9" class="edge">
<title>Node8&#45;&gt;Node9</title>
<path fill="none" stroke="midnightblue" d="M504.18,-174.5C483.52,-174.5 461.8,-174.5 442.67,-174.5"/>
<polygon fill="midnightblue" stroke="midnightblue" points="504.22,-178 514.22,-174.5 504.22,-171 504.22,-178"/>
</g>
<!-- Node10 -->
<g id="node10" class="node">
<title>Node10</title>
<g id="a_node10"><a xlink:href="classGameControllerXml.html#aaa5257d4c6fe13f1d5fc51981e247c25" target="_top" xlink:title="Reads the XML tree from a &quot;joystick&quot; tag.">
<polygon fill="white" stroke="black" points="155,-159.5 155,-189.5 274,-189.5 274,-159.5 155,-159.5"/>
<text text-anchor="start" x="163" y="-177.5" font-family="Helvetica,sans-Serif" font-size="10.00">GameControllerXml::</text>
<text text-anchor="middle" x="214.5" y="-166.5" font-family="Helvetica,sans-Serif" font-size="10.00">readJoystickConfig</text>
</a>
</g>
</g>
<!-- Node9&#45;&gt;Node10 -->
<g id="edge10" class="edge">
<title>Node9&#45;&gt;Node10</title>
<path fill="none" stroke="midnightblue" d="M316.14,-174.5C302.19,-174.5 287.61,-174.5 274.02,-174.5"/>
<polygon fill="midnightblue" stroke="midnightblue" points="316.15,-178 326.15,-174.5 316.15,-171 316.15,-178"/>
</g>
<!-- Node11 -->
<g id="node11" class="node">
<title>Node11</title>
<g id="a_node11"><a xlink:href="classGameControllerXml.html#a7e47256cae0d3815419bc254413777d1" target="_top" xlink:title="Deserializes the given XML stream into a GameController object.">
<polygon fill="white" stroke="black" points="0,-159.5 0,-189.5 119,-189.5 119,-159.5 0,-159.5"/>
<text text-anchor="start" x="8" y="-177.5" font-family="Helvetica,sans-Serif" font-size="10.00">GameControllerXml::</text>
<text text-anchor="middle" x="59.5" y="-166.5" font-family="Helvetica,sans-Serif" font-size="10.00">readConfig</text>
</a>
</g>
</g>
<!-- Node10&#45;&gt;Node11 -->
<g id="edge11" class="edge">
<title>Node10&#45;&gt;Node11</title>
<path fill="none" stroke="midnightblue" d="M144.51,-174.5C136.01,-174.5 127.38,-174.5 119.06,-174.5"/>
<polygon fill="midnightblue" stroke="midnightblue" points="144.78,-178 154.78,-174.5 144.78,-171 144.78,-178"/>
</g>
<!-- Node13 -->
<g id="node13" class="node">
<title>Node13</title>
<g id="a_node13"><a xlink:href="classMouseControlStickSettingsDialogHelper.html#a681a90cd56689f9a1a55e31de851736b" target="_top" xlink:title=" ">
<polygon fill="white" stroke="black" points="716,-99 716,-140 884,-140 884,-99 716,-99"/>
<text text-anchor="start" x="724" y="-128" font-family="Helvetica,sans-Serif" font-size="10.00">MouseControlStickSettings</text>
<text text-anchor="start" x="724" y="-117" font-family="Helvetica,sans-Serif" font-size="10.00">DialogHelper::updateStartMulti</text>
<text text-anchor="middle" x="800" y="-106" font-family="Helvetica,sans-Serif" font-size="10.00">Percentage</text>
</a>
</g>
</g>
<!-- Node12&#45;&gt;Node13 -->
<g id="edge13" class="edge">
<title>Node12&#45;&gt;Node13</title>
<path fill="none" stroke="midnightblue" d="M930.36,-117.68C915.2,-117.9 899.42,-118.12 884.29,-118.33"/>
<polygon fill="midnightblue" stroke="midnightblue" points="930.78,-121.18 940.73,-117.54 930.68,-114.18 930.78,-121.18"/>
</g>
<!-- Node14 -->
<g id="node14" class="node">
<title>Node14</title>
<g id="a_node14"><a xlink:href="classMouseControlStickSettingsDialog.html#aac9d5ef09dced4cee0df95d99ae13369" target="_top" xlink:title=" ">
<polygon fill="white" stroke="black" points="495,-99 495,-140 680,-140 680,-99 495,-99"/>
<text text-anchor="start" x="503" y="-128" font-family="Helvetica,sans-Serif" font-size="10.00">MouseControlStickSettings</text>
<text text-anchor="start" x="503" y="-117" font-family="Helvetica,sans-Serif" font-size="10.00">Dialog::MouseControlStickSettings</text>
<text text-anchor="middle" x="587.5" y="-106" font-family="Helvetica,sans-Serif" font-size="10.00">Dialog</text>
</a>
</g>
</g>
<!-- Node13&#45;&gt;Node14 -->
<g id="edge14" class="edge">
<title>Node13&#45;&gt;Node14</title>
<path fill="none" stroke="midnightblue" d="M705.56,-119.5C697.11,-119.5 688.55,-119.5 680.11,-119.5"/>
<polygon fill="midnightblue" stroke="midnightblue" points="705.8,-123 715.8,-119.5 705.8,-116 705.8,-123"/>
</g>
<!-- Node16 -->
<g id="node16" class="node">
<title>Node16</title>
<g id="a_node16"><a xlink:href="classMouseButtonSettingsDialog.html#a181bfdf388907056ec492d58d85f5d34" target="_top" xlink:title=" ">
<polygon fill="white" stroke="black" points="721,-49.5 721,-79.5 879,-79.5 879,-49.5 721,-49.5"/>
<text text-anchor="start" x="729" y="-67.5" font-family="Helvetica,sans-Serif" font-size="10.00">MouseButtonSettingsDialog</text>
<text text-anchor="middle" x="800" y="-56.5" font-family="Helvetica,sans-Serif" font-size="10.00">::MouseButtonSettingsDialog</text>
</a>
</g>
</g>
<!-- Node15&#45;&gt;Node16 -->
<g id="edge16" class="edge">
<title>Node15&#45;&gt;Node16</title>
<path fill="none" stroke="midnightblue" d="M909.68,-65.01C899.42,-64.96 889.13,-64.91 879.2,-64.87"/>
<polygon fill="midnightblue" stroke="midnightblue" points="909.91,-68.51 919.92,-65.06 909.94,-61.51 909.91,-68.51"/>
</g>
<!-- Node18 -->
<g id="node18" class="node">
<title>Node18</title>
<g id="a_node18"><a xlink:href="classMouseAxisSettingsDialog.html#a33546e4b608264ce6d2758678eb6d2e7" target="_top" xlink:title=" ">
<polygon fill="white" stroke="black" points="726.5,-0.5 726.5,-30.5 873.5,-30.5 873.5,-0.5 726.5,-0.5"/>
<text text-anchor="start" x="734.5" y="-18.5" font-family="Helvetica,sans-Serif" font-size="10.00">MouseAxisSettingsDialog</text>
<text text-anchor="middle" x="800" y="-7.5" font-family="Helvetica,sans-Serif" font-size="10.00">::MouseAxisSettingsDialog</text>
</a>
</g>
</g>
<!-- Node17&#45;&gt;Node18 -->
<g id="edge18" class="edge">
<title>Node17&#45;&gt;Node18</title>
<path fill="none" stroke="midnightblue" d="M918.5,-16.05C903.41,-15.98 888.03,-15.91 873.58,-15.84"/>
<polygon fill="midnightblue" stroke="midnightblue" points="918.88,-19.55 928.89,-16.1 918.91,-12.55 918.88,-19.55"/>
</g>
</g>
</svg>
        <g id="navigator" transform="translate(0 0)" fill="#404254">
                <rect fill="#f2f5e9" fill-opacity="0.5" stroke="#606060" stroke-width=".5" x="0" y="0" width="60" height="60"/>
                <use id="zoomplus" xlink:href="#zoomPlus" x="17" y="9" onmousedown="handleZoom(evt,'in')"/>
                <use id="zoomminus" xlink:href="#zoomMin" x="42" y="9" onmousedown="handleZoom(evt,'out')"/>
                <use id="reset" xlink:href="#resetDef" x="30" y="36" onmousedown="handleReset()"/>
                <g id="arrowUp" xlink:href="#dirArrow" transform="translate(30 24)" onmousedown="handlePan(0,-1)">
                  <use xlink:href="#rim" fill="#404040">
                        <set attributeName="fill" to="#808080" begin="arrowUp.mouseover" end="arrowUp.mouseout"/>
                  </use>
                  <path fill="none" stroke="white" stroke-width="1.5" d="M0,-3.0v7 M-2.5,-0.5L0,-3.0L2.5,-0.5"/>
                </g>
                <g id="arrowRight" xlink:href="#dirArrow" transform="rotate(90) translate(36 -43)" onmousedown="handlePan(1,0)">
                  <use xlink:href="#rim" fill="#404040">
                        <set attributeName="fill" to="#808080" begin="arrowRight.mouseover" end="arrowRight.mouseout"/>
                  </use>
                  <path fill="none" stroke="white" stroke-width="1.5" d="M0,-3.0v7 M-2.5,-0.5L0,-3.0L2.5,-0.5"/>
                </g>
                <g id="arrowDown" xlink:href="#dirArrow" transform="rotate(180) translate(-30 -48)" onmousedown="handlePan(0,1)">
                  <use xlink:href="#rim" fill="#404040">
                        <set attributeName="fill" to="#808080" begin="arrowDown.mouseover" end="arrowDown.mouseout"/>
                  </use>
                  <path fill="none" stroke="white" stroke-width="1.5" d="M0,-3.0v7 M-2.5,-0.5L0,-3.0L2.5,-0.5"/>
                </g>
                <g id="arrowLeft" xlink:href="#dirArrow" transform="rotate(270) translate(-36 17)" onmousedown="handlePan(-1,0)">
                  <use xlink:href="#rim" fill="#404040">
                        <set attributeName="fill" to="#808080" begin="arrowLeft.mouseover" end="arrowLeft.mouseout"/>
                  </use>
                  <path fill="none" stroke="white" stroke-width="1.5" d="M0,-3.0v7 M-2.5,-0.5L0,-3.0L2.5,-0.5"/>
                </g>
        </g>
        <svg viewBox="0 0 15 15" width="100%" height="30px" preserveAspectRatio="xMaxYMin meet">
         <g id="arrow_out" transform="scale(0.3 0.3)">
          <a xlink:href="classJoyButton_a2fce9ef1fe8b843d32a01faced10e7e9_icgraph_org.svg" target="_base">
           <rect id="button" ry="5" rx="5" y="6" x="6" height="38" width="38"
                fill="#f2f5e9" fill-opacity="0.5" stroke="#606060" stroke-width="1.0"/>
           <path id="arrow"
             d="M 11.500037,31.436501 C 11.940474,20.09759 22.043105,11.32322 32.158766,21.979434 L 37.068811,17.246167 C 37.068811,17.246167 37.088388,32 37.088388,32 L 22.160133,31.978069 C 22.160133,31.978069 26.997745,27.140456 26.997745,27.140456 C 18.528582,18.264221 13.291696,25.230495 11.500037,31.436501 z"
             style="fill:#404040;"/>
          </a>
         </g>
        </svg>
</svg>
