<?xml version="1.0" encoding="UTF-8" standalone="no"?>
<!DOCTYPE svg PUBLIC "-//W3C//DTD SVG 1.1//EN"
 "http://www.w3.org/Graphics/SVG/1.1/DTD/svg11.dtd">
<!-- Generated by graphviz version 2.43.0 (0)
 -->
<!-- Title: VDPad::getName Pages: 1 -->
<svg width="312pt" height="142pt"
 viewBox="0.00 0.00 312.00 142.00" xmlns="http://www.w3.org/2000/svg" xmlns:xlink="http://www.w3.org/1999/xlink">
<g id="graph0" class="graph" transform="scale(1 1) rotate(0) translate(4 138)">
<title>VDPad::getName</title>
<polygon fill="white" stroke="transparent" points="-4,4 -4,-138 308,-138 308,4 -4,4"/>
<!-- Node1 -->
<g id="node1" class="node">
<title>Node1</title>
<g id="a_node1"><a xlink:title=" ">
<polygon fill="#bfbfbf" stroke="black" points="0,-57.5 0,-76.5 99,-76.5 99,-57.5 0,-57.5"/>
<text text-anchor="middle" x="49.5" y="-64.5" font-family="Helvetica,sans-Serif" font-size="10.00">VDPad::getName</text>
</a>
</g>
</g>
<!-- Node2 -->
<g id="node2" class="node">
<title>Node2</title>
<g id="a_node2"><a xlink:href="classJoyDPad.html#a56bbead27e9c6f7167eaad13740e80b1" target="_top" xlink:title=" ">
<polygon fill="white" stroke="black" points="135,-114.5 135,-133.5 304,-133.5 304,-114.5 135,-114.5"/>
<text text-anchor="middle" x="219.5" y="-121.5" font-family="Helvetica,sans-Serif" font-size="10.00">JoyDPad::getDefaultDpadName</text>
</a>
</g>
</g>
<!-- Node1&#45;&gt;Node2 -->
<g id="edge1" class="edge">
<title>Node1&#45;&gt;Node2</title>
<path fill="none" stroke="midnightblue" d="M68.87,-76.54C85.7,-84.98 111.51,-97.13 135,-105 142.72,-107.58 150.95,-109.93 159.13,-112.03"/>
<polygon fill="midnightblue" stroke="midnightblue" points="158.49,-115.47 169.04,-114.45 160.16,-108.68 158.49,-115.47"/>
</g>
<!-- Node3 -->
<g id="node3" class="node">
<title>Node3</title>
<g id="a_node3"><a xlink:href="classJoyDPad.html#a45b740263205203bd20f34e375f40ac2" target="_top" xlink:title=" ">
<polygon fill="white" stroke="black" points="153,-76.5 153,-95.5 286,-95.5 286,-76.5 153,-76.5"/>
<text text-anchor="middle" x="219.5" y="-83.5" font-family="Helvetica,sans-Serif" font-size="10.00">JoyDPad::getDpadName</text>
</a>
</g>
</g>
<!-- Node1&#45;&gt;Node3 -->
<g id="edge2" class="edge">
<title>Node1&#45;&gt;Node3</title>
<path fill="none" stroke="midnightblue" d="M99.09,-72.5C112.71,-74.04 127.86,-75.75 142.66,-77.42"/>
<polygon fill="midnightblue" stroke="midnightblue" points="142.5,-80.93 152.83,-78.57 143.28,-73.97 142.5,-80.93"/>
</g>
<!-- Node4 -->
<g id="node4" class="node">
<title>Node4</title>
<g id="a_node4"><a xlink:href="classJoyDPad.html#a71703ba2086819e224bd3bb053e66315" target="_top" xlink:title=" ">
<polygon fill="white" stroke="black" points="142.5,-38.5 142.5,-57.5 296.5,-57.5 296.5,-38.5 142.5,-38.5"/>
<text text-anchor="middle" x="219.5" y="-45.5" font-family="Helvetica,sans-Serif" font-size="10.00">JoyDPad::getRealJoyNumber</text>
</a>
</g>
</g>
<!-- Node1&#45;&gt;Node4 -->
<g id="edge3" class="edge">
<title>Node1&#45;&gt;Node4</title>
<path fill="none" stroke="midnightblue" d="M99.09,-61.5C109.59,-60.32 120.98,-59.03 132.43,-57.73"/>
<polygon fill="midnightblue" stroke="midnightblue" points="132.94,-61.2 142.48,-56.6 132.15,-54.24 132.94,-61.2"/>
</g>
<!-- Node5 -->
<g id="node5" class="node">
<title>Node5</title>
<g id="a_node5"><a xlink:href="classVDPad.html#a3d3ecb2dff6b17eefb0c0d2b6656d9b6" target="_top" xlink:title=" ">
<polygon fill="white" stroke="black" points="172.5,-0.5 172.5,-19.5 266.5,-19.5 266.5,-0.5 172.5,-0.5"/>
<text text-anchor="middle" x="219.5" y="-7.5" font-family="Helvetica,sans-Serif" font-size="10.00">VDPad::isEmpty</text>
</a>
</g>
</g>
<!-- Node1&#45;&gt;Node5 -->
<g id="edge4" class="edge">
<title>Node1&#45;&gt;Node5</title>
<path fill="none" stroke="midnightblue" d="M68.87,-57.46C85.7,-49.02 111.51,-36.87 135,-29 143.7,-26.09 153.05,-23.48 162.24,-21.19"/>
<polygon fill="midnightblue" stroke="midnightblue" points="163.19,-24.56 172.11,-18.83 161.57,-17.75 163.19,-24.56"/>
</g>
</g>
</svg>
