<?xml version="1.0" encoding="UTF-8" standalone="no"?>
<!DOCTYPE svg PUBLIC "-//W3C//DTD SVG 1.1//EN"
 "http://www.w3.org/Graphics/SVG/1.1/DTD/svg11.dtd">
<!-- Generated by graphviz version 2.43.0 (0)
 -->
<!-- Title: JoySensorButton::getDistanceFromDeadZone Pages: 1 -->
<svg width="573pt" height="137pt"
 viewBox="0.00 0.00 573.00 137.00" xmlns="http://www.w3.org/2000/svg" xmlns:xlink="http://www.w3.org/1999/xlink">
<g id="graph0" class="graph" transform="scale(1 1) rotate(0) translate(4 133)">
<title>JoySensorButton::getDistanceFromDeadZone</title>
<polygon fill="white" stroke="transparent" points="-4,4 -4,-133 569,-133 569,4 -4,4"/>
<!-- Node1 -->
<g id="node1" class="node">
<title>Node1</title>
<g id="a_node1"><a xlink:title="Get the distance that an element is away from its assigned dead zone.">
<polygon fill="#bfbfbf" stroke="black" points="0,-49.5 0,-79.5 161,-79.5 161,-49.5 0,-49.5"/>
<text text-anchor="start" x="8" y="-67.5" font-family="Helvetica,sans-Serif" font-size="10.00">JoySensorButton::getDistance</text>
<text text-anchor="middle" x="80.5" y="-56.5" font-family="Helvetica,sans-Serif" font-size="10.00">FromDeadZone</text>
</a>
</g>
</g>
<!-- Node2 -->
<g id="node2" class="node">
<title>Node2</title>
<g id="a_node2"><a xlink:href="classJoySensor.html#ab595f8d8998b4a1c59a6902a4e41d0a4" target="_top" xlink:title="Used to calculate the distance value that should be used by the JoyButton in the given direction.">
<polygon fill="white" stroke="black" points="197,-49.5 197,-79.5 365,-79.5 365,-49.5 197,-49.5"/>
<text text-anchor="start" x="205" y="-67.5" font-family="Helvetica,sans-Serif" font-size="10.00">JoySensor::calculateDirectional</text>
<text text-anchor="middle" x="281" y="-56.5" font-family="Helvetica,sans-Serif" font-size="10.00">Distance</text>
</a>
</g>
</g>
<!-- Node1&#45;&gt;Node2 -->
<g id="edge1" class="edge">
<title>Node1&#45;&gt;Node2</title>
<path fill="none" stroke="midnightblue" d="M161.09,-64.5C169.54,-64.5 178.19,-64.5 186.78,-64.5"/>
<polygon fill="midnightblue" stroke="midnightblue" points="186.82,-68 196.82,-64.5 186.82,-61 186.82,-68"/>
</g>
<!-- Node3 -->
<g id="node3" class="node">
<title>Node3</title>
<g id="a_node3"><a xlink:href="classJoySensor.html#a4f728f49046090ce9db1e98bd1b4d128" target="_top" xlink:title="Get current X distance of the sensor past the assigned dead zone.">
<polygon fill="white" stroke="black" points="401,-98.5 401,-128.5 565,-128.5 565,-98.5 401,-98.5"/>
<text text-anchor="start" x="409" y="-116.5" font-family="Helvetica,sans-Serif" font-size="10.00">JoySensor::calculateXDistance</text>
<text text-anchor="middle" x="483" y="-105.5" font-family="Helvetica,sans-Serif" font-size="10.00">FromDeadZone</text>
</a>
</g>
</g>
<!-- Node2&#45;&gt;Node3 -->
<g id="edge2" class="edge">
<title>Node2&#45;&gt;Node3</title>
<path fill="none" stroke="midnightblue" d="M343.37,-79.53C364.67,-84.76 388.75,-90.65 410.79,-96.05"/>
<polygon fill="midnightblue" stroke="midnightblue" points="410.2,-99.51 420.75,-98.49 411.87,-92.71 410.2,-99.51"/>
</g>
<!-- Node4 -->
<g id="node4" class="node">
<title>Node4</title>
<g id="a_node4"><a xlink:href="classJoySensor.html#a319f336deb6f5979ee5358e1834ed64f" target="_top" xlink:title="Get current Y distance of the sensor past the assigned dead zone.">
<polygon fill="white" stroke="black" points="401,-49.5 401,-79.5 565,-79.5 565,-49.5 401,-49.5"/>
<text text-anchor="start" x="409" y="-67.5" font-family="Helvetica,sans-Serif" font-size="10.00">JoySensor::calculateYDistance</text>
<text text-anchor="middle" x="483" y="-56.5" font-family="Helvetica,sans-Serif" font-size="10.00">FromDeadZone</text>
</a>
</g>
</g>
<!-- Node2&#45;&gt;Node4 -->
<g id="edge3" class="edge">
<title>Node2&#45;&gt;Node4</title>
<path fill="none" stroke="midnightblue" d="M365.08,-64.5C373.57,-64.5 382.22,-64.5 390.78,-64.5"/>
<polygon fill="midnightblue" stroke="midnightblue" points="390.79,-68 400.79,-64.5 390.79,-61 390.79,-68"/>
</g>
<!-- Node5 -->
<g id="node5" class="node">
<title>Node5</title>
<g id="a_node5"><a xlink:href="classJoySensor.html#a44bbf102b5564ea2c52ff25b4f1efe86" target="_top" xlink:title="Get current Z distance of the sensor past the assigned dead zone.">
<polygon fill="white" stroke="black" points="401,-0.5 401,-30.5 565,-30.5 565,-0.5 401,-0.5"/>
<text text-anchor="start" x="409" y="-18.5" font-family="Helvetica,sans-Serif" font-size="10.00">JoySensor::calculateZDistance</text>
<text text-anchor="middle" x="483" y="-7.5" font-family="Helvetica,sans-Serif" font-size="10.00">FromDeadZone</text>
</a>
</g>
</g>
<!-- Node2&#45;&gt;Node5 -->
<g id="edge4" class="edge">
<title>Node2&#45;&gt;Node5</title>
<path fill="none" stroke="midnightblue" d="M343.37,-49.47C364.67,-44.24 388.75,-38.35 410.79,-32.95"/>
<polygon fill="midnightblue" stroke="midnightblue" points="411.87,-36.29 420.75,-30.51 410.2,-29.49 411.87,-36.29"/>
</g>
</g>
</svg>
