<?xml version="1.0" encoding="UTF-8" standalone="no"?>
<!DOCTYPE svg PUBLIC "-//W3C//DTD SVG 1.1//EN"
 "http://www.w3.org/Graphics/SVG/1.1/DTD/svg11.dtd">
<!-- Generated by graphviz version 2.43.0 (0)
 -->
<!-- Title: JoyDPadXml::readConfig Pages: 1 -->
<svg width="336pt" height="27pt"
 viewBox="0.00 0.00 336.00 27.00" xmlns="http://www.w3.org/2000/svg" xmlns:xlink="http://www.w3.org/1999/xlink">
<g id="graph0" class="graph" transform="scale(1 1) rotate(0) translate(4 23)">
<title>JoyDPadXml::readConfig</title>
<!-- Node1 -->
<g id="Node000001" class="node">
<title>Node1</title>
<g id="a_Node000001"><a xlink:title=" ">
<polygon fill="#999999" stroke="#666666" points="134,-19 0,-19 0,0 134,0 134,-19"/>
<text text-anchor="middle" x="67" y="-7" font-family="Helvetica,sans-Serif" font-size="10.00">JoyDPadXml::readConfig</text>
</a>
</g>
</g>
<!-- Node2 -->
<g id="Node000002" class="node">
<title>Node2</title>
<g id="a_Node000002"><a xlink:href="classJoyDPadXml.html#ae9a3556242b984c81fc6945acafc5586" target="_top" xlink:title=" ">
<polygon fill="white" stroke="#666666" points="328,-19 170,-19 170,0 328,0 328,-19"/>
<text text-anchor="middle" x="249" y="-7" font-family="Helvetica,sans-Serif" font-size="10.00">JoyDPadXml::readMainConfig</text>
</a>
</g>
</g>
<!-- Node1&#45;&gt;Node2 -->
<g id="edge1_Node000001_Node000002" class="edge">
<title>Node1&#45;&gt;Node2</title>
<g id="a_edge1_Node000001_Node000002"><a xlink:title=" ">
<path fill="none" stroke="#63b8ff" d="M134,-2.97C142.37,-2.81 151.03,-2.74 159.68,-2.75"/>
<polygon fill="#63b8ff" stroke="#63b8ff" points="159.78,-6.25 169.79,-2.8 159.81,0.75 159.78,-6.25"/>
</a>
</g>
</g>
<!-- Node2&#45;&gt;Node1 -->
<g id="edge2_Node000002_Node000001" class="edge">
<title>Node2&#45;&gt;Node1</title>
<g id="a_edge2_Node000002_Node000001"><a xlink:title=" ">
<path fill="none" stroke="#63b8ff" d="M169.79,-16.2C161.31,-16.27 152.68,-16.27 144.22,-16.18"/>
<polygon fill="#63b8ff" stroke="#63b8ff" points="144.05,-12.68 134,-16.03 143.95,-19.68 144.05,-12.68"/>
</a>
</g>
</g>
</g>
</svg>
