<?xml version="1.0" encoding="UTF-8" standalone="no"?>
<!DOCTYPE svg PUBLIC "-//W3C//DTD SVG 1.1//EN"
 "http://www.w3.org/Graphics/SVG/1.1/DTD/svg11.dtd">
<!-- Generated by graphviz version 2.43.0 (0)
 -->
<!-- Title: JoyAxisWidget::generateLabel Pages: 1 -->
<!--zoomable 122 -->
<svg id="main" version="1.1" xmlns="http://www.w3.org/2000/svg" xmlns:xlink="http://www.w3.org/1999/xlink" xml:space="preserve" onload="init(evt)">
<style type="text/css"><![CDATA[
.edge:hover path { stroke: red; }
.edge:hover polygon { stroke: red; fill: red; }
]]></style>
<script type="text/javascript"><![CDATA[
var edges = document.getElementsByTagName('g');
if (edges && edges.length) {
  for (var i=0;i<edges.length;i++) {
    if (edges[i].id.substr(0,4)=='edge') {
      edges[i].setAttribute('class','edge');
    }
  }
}
]]></script>
        <defs>
                <circle id="rim" cx="0" cy="0" r="7"/>
                <circle id="rim2" cx="0" cy="0" r="3.5"/>
                <g id="zoomPlus">
                        <use xlink:href="#rim" fill="#404040">
                                <set attributeName="fill" to="#808080" begin="zoomplus.mouseover" end="zoomplus.mouseout"/>
                        </use>
                        <path d="M-4,0h8M0,-4v8" fill="none" stroke="white" stroke-width="1.5" pointer-events="none"/>
                </g>
                <g id="zoomMin">
                        <use xlink:href="#rim" fill="#404040">
                                <set attributeName="fill" to="#808080" begin="zoomminus.mouseover" end="zoomminus.mouseout"/>
                        </use>
                        <path d="M-4,0h8" fill="none" stroke="white" stroke-width="1.5" pointer-events="none"/>
                </g>
                <g id="dirArrow">
                        <path fill="none" stroke="white" stroke-width="1.5" d="M0,-3.0v7 M-2.5,-0.5L0,-3.0L2.5,-0.5"/>
                </g>
               <g id="resetDef">
                       <use xlink:href="#rim2" fill="#404040">
                               <set attributeName="fill" to="#808080" begin="reset.mouseover" end="reset.mouseout"/>
                       </use>
               </g>
        </defs>

<script type="text/javascript">
var viewWidth = 679;
var viewHeight = 122;
var sectionId = 'dynsection-7';
</script>
<script xlink:href="svgpan.js"/>
<svg id="graph" class="graph">
<g id="viewport">
<title>JoyAxisWidget::generateLabel</title>
<polygon fill="white" stroke="transparent" points="-4,4 -4,-117.5 675,-117.5 675,4 -4,4"/>
<!-- Node1 -->
<g id="node1" class="node">
<title>Node1</title>
<g id="a_node1"><a xlink:title="Generate the string that will be displayed on the button.">
<polygon fill="#bfbfbf" stroke="black" points="0,-28 0,-47 163,-47 163,-28 0,-28"/>
<text text-anchor="middle" x="81.5" y="-35" font-family="Helvetica,sans-Serif" font-size="10.00">JoyAxisWidget::generateLabel</text>
</a>
</g>
</g>
<!-- Node2 -->
<g id="node2" class="node">
<title>Node2</title>
<g id="a_node2"><a xlink:href="classJoyAxis.html#a955d16488b3807bd9d34e88e5df05cd2" target="_top" xlink:title=" ">
<polygon fill="white" stroke="black" points="205,-50 205,-69 309,-69 309,-50 205,-50"/>
<text text-anchor="middle" x="257" y="-57" font-family="Helvetica,sans-Serif" font-size="10.00">JoyAxis::getName</text>
</a>
</g>
</g>
<!-- Node1&#45;&gt;Node2 -->
<g id="edge1" class="edge">
<title>Node1&#45;&gt;Node2</title>
<path fill="none" stroke="midnightblue" d="M157.59,-47.02C170.04,-48.6 182.82,-50.22 194.87,-51.75"/>
<polygon fill="midnightblue" stroke="midnightblue" points="194.44,-55.22 204.8,-53.01 195.32,-48.28 194.44,-55.22"/>
</g>
<!-- Node8 -->
<g id="node8" class="node">
<title>Node8</title>
<g id="a_node8"><a xlink:href="classFlashButtonWidget.html#aff41eff76f8396ff1b9e2539d680c4cf" target="_top" xlink:title=" ">
<polygon fill="white" stroke="black" points="199,-0.5 199,-30.5 315,-30.5 315,-0.5 199,-0.5"/>
<text text-anchor="start" x="207" y="-18.5" font-family="Helvetica,sans-Serif" font-size="10.00">FlashButtonWidget::</text>
<text text-anchor="middle" x="257" y="-7.5" font-family="Helvetica,sans-Serif" font-size="10.00">ifDisplayNames</text>
</a>
</g>
</g>
<!-- Node1&#45;&gt;Node8 -->
<g id="edge7" class="edge">
<title>Node1&#45;&gt;Node8</title>
<path fill="none" stroke="midnightblue" d="M157.59,-27.98C167.96,-26.66 178.56,-25.32 188.78,-24.02"/>
<polygon fill="midnightblue" stroke="midnightblue" points="189.36,-27.48 198.85,-22.75 188.48,-20.53 189.36,-27.48"/>
</g>
<!-- Node3 -->
<g id="node3" class="node">
<title>Node3</title>
<g id="a_node3"><a xlink:href="classJoyButton.html#a2dc48e4d0de59b87938f5c0489d6e198" target="_top" xlink:title=" ">
<polygon fill="white" stroke="black" points="351,-94 351,-113 497,-113 497,-94 351,-94"/>
<text text-anchor="middle" x="424" y="-101" font-family="Helvetica,sans-Serif" font-size="10.00">JoyButton::getActionName</text>
</a>
</g>
</g>
<!-- Node2&#45;&gt;Node3 -->
<g id="edge2" class="edge">
<title>Node2&#45;&gt;Node3</title>
<path fill="none" stroke="midnightblue" d="M293.32,-69.04C310.69,-73.71 331.94,-79.42 351,-84.5 359.35,-86.72 368.25,-89.08 376.84,-91.35"/>
<polygon fill="midnightblue" stroke="midnightblue" points="376.17,-94.8 386.73,-93.96 377.96,-88.03 376.17,-94.8"/>
</g>
<!-- Node4 -->
<g id="node4" class="node">
<title>Node4</title>
<g id="a_node4"><a xlink:href="classJoyButton.html#a075d1d6380be607fcf69994f0d941afe" target="_top" xlink:title=" ">
<polygon fill="white" stroke="black" points="355.5,-44.5 355.5,-74.5 492.5,-74.5 492.5,-44.5 355.5,-44.5"/>
<text text-anchor="start" x="363.5" y="-62.5" font-family="Helvetica,sans-Serif" font-size="10.00">JoyButton::getCalculated</text>
<text text-anchor="middle" x="424" y="-51.5" font-family="Helvetica,sans-Serif" font-size="10.00">ActiveZoneSummary</text>
</a>
</g>
</g>
<!-- Node2&#45;&gt;Node4 -->
<g id="edge3" class="edge">
<title>Node2&#45;&gt;Node4</title>
<path fill="none" stroke="midnightblue" d="M309.3,-59.5C320.68,-59.5 333,-59.5 345.17,-59.5"/>
<polygon fill="midnightblue" stroke="midnightblue" points="345.34,-63 355.34,-59.5 345.34,-56 345.34,-63"/>
</g>
<!-- Node6 -->
<g id="node6" class="node">
<title>Node6</title>
<g id="a_node6"><a xlink:href="classJoyAxis.html#a96710fb06ec9e989cd71ffce4ee7ca57" target="_top" xlink:title=" ">
<polygon fill="white" stroke="black" points="357,-6 357,-25 491,-25 491,-6 357,-6"/>
<text text-anchor="middle" x="424" y="-13" font-family="Helvetica,sans-Serif" font-size="10.00">JoyAxis::getPartialName</text>
</a>
</g>
</g>
<!-- Node2&#45;&gt;Node6 -->
<g id="edge5" class="edge">
<title>Node2&#45;&gt;Node6</title>
<path fill="none" stroke="midnightblue" d="M293.32,-49.96C310.69,-45.29 331.94,-39.58 351,-34.5 359.35,-32.28 368.25,-29.92 376.84,-27.65"/>
<polygon fill="midnightblue" stroke="midnightblue" points="377.96,-30.97 386.73,-25.04 376.17,-24.2 377.96,-30.97"/>
</g>
<!-- Node5 -->
<g id="node5" class="node">
<title>Node5</title>
<g id="a_node5"><a xlink:href="classJoyButton.html#a1b49d9ab85f0d5d128e2eca616747018" target="_top" xlink:title=" ">
<polygon fill="white" stroke="black" points="533.5,-44.5 533.5,-74.5 670.5,-74.5 670.5,-44.5 533.5,-44.5"/>
<text text-anchor="start" x="541.5" y="-62.5" font-family="Helvetica,sans-Serif" font-size="10.00">JoyButton::lockForWrited</text>
<text text-anchor="middle" x="602" y="-51.5" font-family="Helvetica,sans-Serif" font-size="10.00">String</text>
</a>
</g>
</g>
<!-- Node4&#45;&gt;Node5 -->
<g id="edge4" class="edge">
<title>Node4&#45;&gt;Node5</title>
<path fill="none" stroke="midnightblue" d="M492.54,-59.5C502.58,-59.5 512.98,-59.5 523.21,-59.5"/>
<polygon fill="midnightblue" stroke="midnightblue" points="523.35,-63 533.35,-59.5 523.35,-56 523.35,-63"/>
</g>
<!-- Node7 -->
<g id="node7" class="node">
<title>Node7</title>
<g id="a_node7"><a xlink:href="classJoyAxis.html#a9ceda991c13da3a99868acc436ed20f3" target="_top" xlink:title=" ">
<polygon fill="white" stroke="black" points="533,-6 533,-25 671,-25 671,-6 533,-6"/>
<text text-anchor="middle" x="602" y="-13" font-family="Helvetica,sans-Serif" font-size="10.00">JoyAxis::getRealJoyIndex</text>
</a>
</g>
</g>
<!-- Node6&#45;&gt;Node7 -->
<g id="edge6" class="edge">
<title>Node6&#45;&gt;Node7</title>
<path fill="none" stroke="midnightblue" d="M491.04,-15.5C501.39,-15.5 512.17,-15.5 522.76,-15.5"/>
<polygon fill="midnightblue" stroke="midnightblue" points="522.83,-19 532.83,-15.5 522.83,-12 522.83,-19"/>
</g>
</g>
</svg>
        <g id="navigator" transform="translate(0 0)" fill="#404254">
                <rect fill="#f2f5e9" fill-opacity="0.5" stroke="#606060" stroke-width=".5" x="0" y="0" width="60" height="60"/>
                <use id="zoomplus" xlink:href="#zoomPlus" x="17" y="9" onmousedown="handleZoom(evt,'in')"/>
                <use id="zoomminus" xlink:href="#zoomMin" x="42" y="9" onmousedown="handleZoom(evt,'out')"/>
                <use id="reset" xlink:href="#resetDef" x="30" y="36" onmousedown="handleReset()"/>
                <g id="arrowUp" xlink:href="#dirArrow" transform="translate(30 24)" onmousedown="handlePan(0,-1)">
                  <use xlink:href="#rim" fill="#404040">
                        <set attributeName="fill" to="#808080" begin="arrowUp.mouseover" end="arrowUp.mouseout"/>
                  </use>
                  <path fill="none" stroke="white" stroke-width="1.5" d="M0,-3.0v7 M-2.5,-0.5L0,-3.0L2.5,-0.5"/>
                </g>
                <g id="arrowRight" xlink:href="#dirArrow" transform="rotate(90) translate(36 -43)" onmousedown="handlePan(1,0)">
                  <use xlink:href="#rim" fill="#404040">
                        <set attributeName="fill" to="#808080" begin="arrowRight.mouseover" end="arrowRight.mouseout"/>
                  </use>
                  <path fill="none" stroke="white" stroke-width="1.5" d="M0,-3.0v7 M-2.5,-0.5L0,-3.0L2.5,-0.5"/>
                </g>
                <g id="arrowDown" xlink:href="#dirArrow" transform="rotate(180) translate(-30 -48)" onmousedown="handlePan(0,1)">
                  <use xlink:href="#rim" fill="#404040">
                        <set attributeName="fill" to="#808080" begin="arrowDown.mouseover" end="arrowDown.mouseout"/>
                  </use>
                  <path fill="none" stroke="white" stroke-width="1.5" d="M0,-3.0v7 M-2.5,-0.5L0,-3.0L2.5,-0.5"/>
                </g>
                <g id="arrowLeft" xlink:href="#dirArrow" transform="rotate(270) translate(-36 17)" onmousedown="handlePan(-1,0)">
                  <use xlink:href="#rim" fill="#404040">
                        <set attributeName="fill" to="#808080" begin="arrowLeft.mouseover" end="arrowLeft.mouseout"/>
                  </use>
                  <path fill="none" stroke="white" stroke-width="1.5" d="M0,-3.0v7 M-2.5,-0.5L0,-3.0L2.5,-0.5"/>
                </g>
        </g>
        <svg viewBox="0 0 15 15" width="100%" height="30px" preserveAspectRatio="xMaxYMin meet">
         <g id="arrow_out" transform="scale(0.3 0.3)">
          <a xlink:href="classJoyAxisWidget_afe328d556ea6dd282e63847b1c13a202_cgraph_org.svg" target="_base">
           <rect id="button" ry="5" rx="5" y="6" x="6" height="38" width="38"
                fill="#f2f5e9" fill-opacity="0.5" stroke="#606060" stroke-width="1.0"/>
           <path id="arrow"
             d="M 11.500037,31.436501 C 11.940474,20.09759 22.043105,11.32322 32.158766,21.979434 L 37.068811,17.246167 C 37.068811,17.246167 37.088388,32 37.088388,32 L 22.160133,31.978069 C 22.160133,31.978069 26.997745,27.140456 26.997745,27.140456 C 18.528582,18.264221 13.291696,25.230495 11.500037,31.436501 z"
             style="fill:#404040;"/>
          </a>
         </g>
        </svg>
</svg>
