<?xml version="1.0" encoding="UTF-8" standalone="no"?>
<!DOCTYPE svg PUBLIC "-//W3C//DTD SVG 1.1//EN"
 "http://www.w3.org/Graphics/SVG/1.1/DTD/svg11.dtd">
<!-- Generated by graphviz version 2.43.0 (0)
 -->
<!-- Title: JoyButton::getParentSet Pages: 1 -->
<svg width="1864pt" height="682pt"
 viewBox="0.00 0.00 1864.00 682.25" xmlns="http://www.w3.org/2000/svg" xmlns:xlink="http://www.w3.org/1999/xlink">
<g id="graph0" class="graph" transform="scale(1 1) rotate(0) translate(4 678.25)">
<title>JoyButton::getParentSet</title>
<polygon fill="white" stroke="transparent" points="-4,4 -4,-678.25 1860,-678.25 1860,4 -4,4"/>
<!-- Node1 -->
<g id="node1" class="node">
<title>Node1</title>
<g id="a_node1"><a xlink:title=" ">
<polygon fill="#bfbfbf" stroke="black" points="1724,-402.75 1724,-421.75 1856,-421.75 1856,-402.75 1724,-402.75"/>
<text text-anchor="middle" x="1790" y="-409.75" font-family="Helvetica,sans-Serif" font-size="10.00">JoyButton::getParentSet</text>
</a>
</g>
</g>
<!-- Node2 -->
<g id="node2" class="node">
<title>Node2</title>
<g id="a_node2"><a xlink:href="classJoyButtonContextMenu.html#a6d0d9eb23e12fc8291d419ec0599971e" target="_top" xlink:title=" ">
<polygon fill="white" stroke="black" points="1534,-583.25 1534,-613.25 1663,-613.25 1663,-583.25 1534,-583.25"/>
<text text-anchor="start" x="1542" y="-601.25" font-family="Helvetica,sans-Serif" font-size="10.00">JoyButtonContextMenu</text>
<text text-anchor="middle" x="1598.5" y="-590.25" font-family="Helvetica,sans-Serif" font-size="10.00">::buildMenu</text>
</a>
</g>
</g>
<!-- Node1&#45;&gt;Node2 -->
<g id="edge1" class="edge">
<title>Node1&#45;&gt;Node2</title>
<path fill="none" stroke="midnightblue" d="M1782.3,-431.78C1769.53,-466.02 1738.41,-536.79 1688,-574.25 1680.59,-579.75 1671.99,-584 1663.13,-587.27"/>
<polygon fill="midnightblue" stroke="midnightblue" points="1785.71,-432.63 1785.8,-422.04 1779.12,-430.26 1785.71,-432.63"/>
</g>
<!-- Node9 -->
<g id="node9" class="node">
<title>Node9</title>
<g id="a_node9"><a xlink:href="classAxisEditDialog.html#a4ce9ac251a8c2701bcc97bb12969265f" target="_top" xlink:title=" ">
<polygon fill="white" stroke="black" points="1515.5,-534.25 1515.5,-564.25 1681.5,-564.25 1681.5,-534.25 1515.5,-534.25"/>
<text text-anchor="start" x="1523.5" y="-552.25" font-family="Helvetica,sans-Serif" font-size="10.00">AxisEditDialog::openAdvanced</text>
<text text-anchor="middle" x="1598.5" y="-541.25" font-family="Helvetica,sans-Serif" font-size="10.00">NDialog</text>
</a>
</g>
</g>
<!-- Node1&#45;&gt;Node9 -->
<g id="edge8" class="edge">
<title>Node1&#45;&gt;Node9</title>
<path fill="none" stroke="midnightblue" d="M1777.75,-430.37C1761.2,-455.5 1727.9,-500.61 1688,-525.25 1682.45,-528.67 1676.4,-531.62 1670.17,-534.15"/>
<polygon fill="midnightblue" stroke="midnightblue" points="1780.79,-432.11 1783.25,-421.8 1774.9,-428.33 1780.79,-432.11"/>
</g>
<!-- Node11 -->
<g id="node11" class="node">
<title>Node11</title>
<g id="a_node11"><a xlink:href="classAxisEditDialog.html#a9a2e3c9b99a31c5ebd2ac59c15abdf25" target="_top" xlink:title=" ">
<polygon fill="white" stroke="black" points="1515.5,-485.25 1515.5,-515.25 1681.5,-515.25 1681.5,-485.25 1515.5,-485.25"/>
<text text-anchor="start" x="1523.5" y="-503.25" font-family="Helvetica,sans-Serif" font-size="10.00">AxisEditDialog::openAdvanced</text>
<text text-anchor="middle" x="1598.5" y="-492.25" font-family="Helvetica,sans-Serif" font-size="10.00">PDialog</text>
</a>
</g>
</g>
<!-- Node1&#45;&gt;Node11 -->
<g id="edge10" class="edge">
<title>Node1&#45;&gt;Node11</title>
<path fill="none" stroke="midnightblue" d="M1765.97,-427.2C1745.92,-439.79 1715.81,-457.69 1688,-470.25 1675.88,-475.72 1662.44,-480.76 1649.77,-485.09"/>
<polygon fill="midnightblue" stroke="midnightblue" points="1767.86,-430.15 1774.42,-421.83 1764.1,-424.24 1767.86,-430.15"/>
</g>
<!-- Node12 -->
<g id="node12" class="node">
<title>Node12</title>
<g id="a_node12"><a xlink:href="classAdvanceButtonDialog.html#ada165d95c3dfa589d22dcc8d79c43819" target="_top" xlink:title=" ">
<polygon fill="white" stroke="black" points="1060,-446.25 1060,-476.25 1239,-476.25 1239,-446.25 1060,-446.25"/>
<text text-anchor="start" x="1068" y="-464.25" font-family="Helvetica,sans-Serif" font-size="10.00">AdvanceButtonDialog</text>
<text text-anchor="middle" x="1149.5" y="-453.25" font-family="Helvetica,sans-Serif" font-size="10.00">::populateSetSelectionComboBox</text>
</a>
</g>
</g>
<!-- Node1&#45;&gt;Node12 -->
<g id="edge12" class="edge">
<title>Node1&#45;&gt;Node12</title>
<path fill="none" stroke="midnightblue" d="M1747.78,-424.41C1729.61,-429.26 1707.91,-434.37 1688,-437.25 1531.3,-459.91 1346.47,-463.08 1239.46,-462.64"/>
<polygon fill="midnightblue" stroke="midnightblue" points="1748.75,-427.77 1757.48,-421.76 1746.91,-421.02 1748.75,-427.77"/>
</g>
<!-- Node14 -->
<g id="node14" class="node">
<title>Node14</title>
<g id="a_node14"><a xlink:href="classAdvanceButtonDialog.html#a1013147913c991d6b379341f2d0b6e91" target="_top" xlink:title=" ">
<polygon fill="white" stroke="black" points="1303,-336.75 1303,-377.75 1448,-377.75 1448,-336.75 1303,-336.75"/>
<text text-anchor="start" x="1311" y="-365.75" font-family="Helvetica,sans-Serif" font-size="10.00">AdvanceButtonDialog</text>
<text text-anchor="start" x="1311" y="-354.75" font-family="Helvetica,sans-Serif" font-size="10.00">::populateSlotSetSelection</text>
<text text-anchor="middle" x="1375.5" y="-343.75" font-family="Helvetica,sans-Serif" font-size="10.00">ComboBox</text>
</a>
</g>
</g>
<!-- Node1&#45;&gt;Node14 -->
<g id="edge14" class="edge">
<title>Node1&#45;&gt;Node14</title>
<path fill="none" stroke="midnightblue" d="M1743.84,-400.15C1726.49,-395.86 1706.42,-391.34 1688,-388.25 1606.4,-374.55 1511.68,-366.18 1448.31,-361.65"/>
<polygon fill="midnightblue" stroke="midnightblue" points="1743.16,-403.59 1753.71,-402.63 1744.87,-396.8 1743.16,-403.59"/>
</g>
<!-- Node15 -->
<g id="node15" class="node">
<title>Node15</title>
<g id="a_node15"><a xlink:href="classAdvanceButtonDialog.html#a537e84c8a495aa615b417b3851b59b62" target="_top" xlink:title=" ">
<polygon fill="white" stroke="black" points="1531.5,-397.25 1531.5,-427.25 1665.5,-427.25 1665.5,-397.25 1531.5,-397.25"/>
<text text-anchor="start" x="1539.5" y="-415.25" font-family="Helvetica,sans-Serif" font-size="10.00">AdvanceButtonDialog</text>
<text text-anchor="middle" x="1598.5" y="-404.25" font-family="Helvetica,sans-Serif" font-size="10.00">::showSelectProfileWind</text>
</a>
</g>
</g>
<!-- Node1&#45;&gt;Node15 -->
<g id="edge16" class="edge">
<title>Node1&#45;&gt;Node15</title>
<path fill="none" stroke="midnightblue" d="M1713.54,-412.25C1697.75,-412.25 1681.22,-412.25 1665.8,-412.25"/>
<polygon fill="midnightblue" stroke="midnightblue" points="1713.78,-415.75 1723.78,-412.25 1713.78,-408.75 1713.78,-415.75"/>
</g>
<!-- Node18 -->
<g id="node18" class="node">
<title>Node18</title>
<g id="a_node18"><a xlink:href="classMouseButtonSettingsDialog.html#a2f23599f16d802415aa8ea016341199b" target="_top" xlink:title=" ">
<polygon fill="white" stroke="black" points="1509,-303.25 1509,-333.25 1688,-333.25 1688,-303.25 1509,-303.25"/>
<text text-anchor="start" x="1517" y="-321.25" font-family="Helvetica,sans-Serif" font-size="10.00">MouseButtonSettingsDialog</text>
<text text-anchor="middle" x="1598.5" y="-310.25" font-family="Helvetica,sans-Serif" font-size="10.00">::updateWindowTitleButtonName</text>
</a>
</g>
</g>
<!-- Node1&#45;&gt;Node18 -->
<g id="edge21" class="edge">
<title>Node1&#45;&gt;Node18</title>
<path fill="none" stroke="midnightblue" d="M1766.25,-397.22C1746.17,-384.33 1715.85,-365.75 1688,-352.25 1673.78,-345.35 1657.78,-338.85 1643.34,-333.41"/>
<polygon fill="midnightblue" stroke="midnightblue" points="1764.42,-400.2 1774.71,-402.7 1768.22,-394.33 1764.42,-400.2"/>
</g>
<!-- Node20 -->
<g id="node20" class="node">
<title>Node20</title>
<g id="a_node20"><a xlink:href="classAdvanceButtonDialog.html#a371dbf9d2c49e736d8e7d8fba3739aff" target="_top" xlink:title=" ">
<polygon fill="white" stroke="black" points="1509,-246.25 1509,-276.25 1688,-276.25 1688,-246.25 1509,-246.25"/>
<text text-anchor="start" x="1517" y="-264.25" font-family="Helvetica,sans-Serif" font-size="10.00">AdvanceButtonDialog</text>
<text text-anchor="middle" x="1598.5" y="-253.25" font-family="Helvetica,sans-Serif" font-size="10.00">::updateWindowTitleButtonName</text>
</a>
</g>
</g>
<!-- Node1&#45;&gt;Node20 -->
<g id="edge23" class="edge">
<title>Node1&#45;&gt;Node20</title>
<path fill="none" stroke="midnightblue" d="M1777.61,-393.81C1760.89,-368.17 1727.4,-321.77 1688,-294.25 1677.52,-286.92 1665.2,-280.99 1653.15,-276.3"/>
<polygon fill="midnightblue" stroke="midnightblue" points="1774.84,-395.99 1783.17,-402.55 1780.75,-392.23 1774.84,-395.99"/>
</g>
<!-- Node21 -->
<g id="node21" class="node">
<title>Node21</title>
<g id="a_node21"><a xlink:href="classButtonEditDialog.html#a0057dab454e3f52eeab3e3ba1fd336e0" target="_top" xlink:title=" ">
<polygon fill="white" stroke="black" points="1529,-150.25 1529,-180.25 1668,-180.25 1668,-150.25 1529,-150.25"/>
<text text-anchor="start" x="1537" y="-168.25" font-family="Helvetica,sans-Serif" font-size="10.00">ButtonEditDialog::update</text>
<text text-anchor="middle" x="1598.5" y="-157.25" font-family="Helvetica,sans-Serif" font-size="10.00">WindowTitleButtonName</text>
</a>
</g>
</g>
<!-- Node1&#45;&gt;Node21 -->
<g id="edge25" class="edge">
<title>Node1&#45;&gt;Node21</title>
<path fill="none" stroke="midnightblue" d="M1780.8,-393.15C1765.71,-359.35 1731.09,-287.82 1688,-237.25 1668.73,-214.63 1641.66,-193.8 1622.54,-180.42"/>
<polygon fill="midnightblue" stroke="midnightblue" points="1777.62,-394.61 1784.84,-402.36 1784.03,-391.8 1777.62,-394.61"/>
</g>
<!-- Node3 -->
<g id="node3" class="node">
<title>Node3</title>
<g id="a_node3"><a xlink:href="classJoyButtonWidget.html#a681d3c384a94a2febb23b1f733cfcbaf" target="_top" xlink:title=" ">
<polygon fill="white" stroke="black" points="1278,-588.75 1278,-607.75 1473,-607.75 1473,-588.75 1278,-588.75"/>
<text text-anchor="middle" x="1375.5" y="-595.75" font-family="Helvetica,sans-Serif" font-size="10.00">JoyButtonWidget::showContextMenu</text>
</a>
</g>
</g>
<!-- Node2&#45;&gt;Node3 -->
<g id="edge2" class="edge">
<title>Node2&#45;&gt;Node3</title>
<path fill="none" stroke="midnightblue" d="M1523.5,-598.25C1507.44,-598.25 1490.21,-598.25 1473.41,-598.25"/>
<polygon fill="midnightblue" stroke="midnightblue" points="1523.87,-601.75 1533.87,-598.25 1523.87,-594.75 1523.87,-601.75"/>
</g>
<!-- Node5 -->
<g id="node5" class="node">
<title>Node5</title>
<g id="a_node5"><a xlink:href="classJoySensorButtonPushButton.html#a5d9bfef1442a8e19c22b0761bdf75d8f" target="_top" xlink:title="Shows sensor context menu.">
<polygon fill="white" stroke="black" points="1299.5,-538.25 1299.5,-568.25 1451.5,-568.25 1451.5,-538.25 1299.5,-538.25"/>
<text text-anchor="start" x="1307.5" y="-556.25" font-family="Helvetica,sans-Serif" font-size="10.00">JoySensorButtonPushButton</text>
<text text-anchor="middle" x="1375.5" y="-545.25" font-family="Helvetica,sans-Serif" font-size="10.00">::showContextMenu</text>
</a>
</g>
</g>
<!-- Node2&#45;&gt;Node5 -->
<g id="edge4" class="edge">
<title>Node2&#45;&gt;Node5</title>
<path fill="none" stroke="midnightblue" d="M1523.88,-583.26C1500.18,-578.43 1473.91,-573.08 1450.19,-568.25"/>
<polygon fill="midnightblue" stroke="midnightblue" points="1523.38,-586.72 1533.87,-585.29 1524.77,-579.87 1523.38,-586.72"/>
</g>
<!-- Node7 -->
<g id="node7" class="node">
<title>Node7</title>
<g id="a_node7"><a xlink:href="classJoyControlStickButtonPushButton.html#abde61056729a9ef096bc23ff81129ab6" target="_top" xlink:title=" ">
<polygon fill="white" stroke="black" points="1302.5,-632.25 1302.5,-662.25 1448.5,-662.25 1448.5,-632.25 1302.5,-632.25"/>
<text text-anchor="start" x="1310.5" y="-650.25" font-family="Helvetica,sans-Serif" font-size="10.00">JoyControlStickButtonPush</text>
<text text-anchor="middle" x="1375.5" y="-639.25" font-family="Helvetica,sans-Serif" font-size="10.00">Button::showContextMenu</text>
</a>
</g>
</g>
<!-- Node2&#45;&gt;Node7 -->
<g id="edge6" class="edge">
<title>Node2&#45;&gt;Node7</title>
<path fill="none" stroke="midnightblue" d="M1523.82,-614.58C1498.15,-620.27 1469.48,-626.63 1444.3,-632.21"/>
<polygon fill="midnightblue" stroke="midnightblue" points="1524.87,-617.93 1533.87,-612.35 1523.35,-611.1 1524.87,-617.93"/>
</g>
<!-- Node4 -->
<g id="node4" class="node">
<title>Node4</title>
<g id="a_node4"><a xlink:href="classJoyButtonWidget.html#aeeb6cb187733cbf7c9f1c5a0fe8f7b34" target="_top" xlink:title=" ">
<polygon fill="white" stroke="black" points="1073.5,-583.25 1073.5,-613.25 1225.5,-613.25 1225.5,-583.25 1073.5,-583.25"/>
<text text-anchor="start" x="1081.5" y="-601.25" font-family="Helvetica,sans-Serif" font-size="10.00">JoyButtonWidget::JoyButton</text>
<text text-anchor="middle" x="1149.5" y="-590.25" font-family="Helvetica,sans-Serif" font-size="10.00">Widget</text>
</a>
</g>
</g>
<!-- Node3&#45;&gt;Node4 -->
<g id="edge3" class="edge">
<title>Node3&#45;&gt;Node4</title>
<path fill="none" stroke="midnightblue" d="M1267.56,-598.25C1253.36,-598.25 1239.04,-598.25 1225.53,-598.25"/>
<polygon fill="midnightblue" stroke="midnightblue" points="1267.88,-601.75 1277.88,-598.25 1267.88,-594.75 1267.88,-601.75"/>
</g>
<!-- Node6 -->
<g id="node6" class="node">
<title>Node6</title>
<g id="a_node6"><a xlink:href="classJoySensorButtonPushButton.html#a25a8a13e559cc9b5c37ea0049224cf94" target="_top" xlink:title=" ">
<polygon fill="white" stroke="black" points="1070.5,-534.25 1070.5,-564.25 1228.5,-564.25 1228.5,-534.25 1070.5,-534.25"/>
<text text-anchor="start" x="1078.5" y="-552.25" font-family="Helvetica,sans-Serif" font-size="10.00">JoySensorButtonPushButton</text>
<text text-anchor="middle" x="1149.5" y="-541.25" font-family="Helvetica,sans-Serif" font-size="10.00">::JoySensorButtonPushButton</text>
</a>
</g>
</g>
<!-- Node5&#45;&gt;Node6 -->
<g id="edge5" class="edge">
<title>Node5&#45;&gt;Node6</title>
<path fill="none" stroke="midnightblue" d="M1289.02,-551.72C1269.15,-551.36 1248.1,-550.99 1228.58,-550.64"/>
<polygon fill="midnightblue" stroke="midnightblue" points="1289.23,-555.22 1299.29,-551.9 1289.35,-548.22 1289.23,-555.22"/>
</g>
<!-- Node8 -->
<g id="node8" class="node">
<title>Node8</title>
<g id="a_node8"><a xlink:href="classJoyControlStickButtonPushButton.html#a5542b1bc905c0a35639b4731083852fa" target="_top" xlink:title=" ">
<polygon fill="white" stroke="black" points="1057,-632.75 1057,-673.75 1242,-673.75 1242,-632.75 1057,-632.75"/>
<text text-anchor="start" x="1065" y="-661.75" font-family="Helvetica,sans-Serif" font-size="10.00">JoyControlStickButtonPush</text>
<text text-anchor="start" x="1065" y="-650.75" font-family="Helvetica,sans-Serif" font-size="10.00">Button::JoyControlStickButtonPush</text>
<text text-anchor="middle" x="1149.5" y="-639.75" font-family="Helvetica,sans-Serif" font-size="10.00">Button</text>
</a>
</g>
</g>
<!-- Node7&#45;&gt;Node8 -->
<g id="edge7" class="edge">
<title>Node7&#45;&gt;Node8</title>
<path fill="none" stroke="midnightblue" d="M1292.35,-649.45C1276.02,-649.88 1258.78,-650.35 1242.15,-650.79"/>
<polygon fill="midnightblue" stroke="midnightblue" points="1292.49,-652.94 1302.39,-649.18 1292.3,-645.95 1292.49,-652.94"/>
</g>
<!-- Node10 -->
<g id="node10" class="node">
<title>Node10</title>
<g id="a_node10"><a xlink:href="classAxisEditDialog.html#a702a1718f3a1dd6b64b4474ea19b71cd" target="_top" xlink:title=" ">
<polygon fill="white" stroke="black" points="1308.5,-487.25 1308.5,-517.25 1442.5,-517.25 1442.5,-487.25 1308.5,-487.25"/>
<text text-anchor="start" x="1316.5" y="-505.25" font-family="Helvetica,sans-Serif" font-size="10.00">AxisEditDialog::AxisEdit</text>
<text text-anchor="middle" x="1375.5" y="-494.25" font-family="Helvetica,sans-Serif" font-size="10.00">Dialog</text>
</a>
</g>
</g>
<!-- Node9&#45;&gt;Node10 -->
<g id="edge9" class="edge">
<title>Node9&#45;&gt;Node10</title>
<path fill="none" stroke="midnightblue" d="M1517,-532.13C1492.55,-526.93 1465.99,-521.28 1442.61,-516.31"/>
<polygon fill="midnightblue" stroke="midnightblue" points="1516.46,-535.59 1526.97,-534.25 1517.91,-528.74 1516.46,-535.59"/>
</g>
<!-- Node11&#45;&gt;Node10 -->
<g id="edge11" class="edge">
<title>Node11&#45;&gt;Node10</title>
<path fill="none" stroke="midnightblue" d="M1505.01,-501.08C1484.07,-501.27 1462.25,-501.47 1442.65,-501.65"/>
<polygon fill="midnightblue" stroke="midnightblue" points="1505.24,-504.58 1515.21,-500.99 1505.18,-497.58 1505.24,-504.58"/>
</g>
<!-- Node13 -->
<g id="node13" class="node">
<title>Node13</title>
<g id="a_node13"><a xlink:href="classAdvanceButtonDialog.html#a4f9a1a007f50de1c3cca1403d08a0790" target="_top" xlink:title=" ">
<polygon fill="white" stroke="black" points="866.5,-353.25 866.5,-383.25 994.5,-383.25 994.5,-353.25 866.5,-353.25"/>
<text text-anchor="start" x="874.5" y="-371.25" font-family="Helvetica,sans-Serif" font-size="10.00">AdvanceButtonDialog</text>
<text text-anchor="middle" x="930.5" y="-360.25" font-family="Helvetica,sans-Serif" font-size="10.00">::AdvanceButtonDialog</text>
</a>
</g>
</g>
<!-- Node12&#45;&gt;Node13 -->
<g id="edge13" class="edge">
<title>Node12&#45;&gt;Node13</title>
<path fill="none" stroke="midnightblue" d="M1072.99,-443.03C1067.53,-441.23 1062.15,-439.3 1057,-437.25 1019.59,-422.32 979.27,-398.65 954.7,-383.29"/>
<polygon fill="midnightblue" stroke="midnightblue" points="1072.29,-446.48 1082.88,-446.14 1074.39,-439.8 1072.29,-446.48"/>
</g>
<!-- Node14&#45;&gt;Node13 -->
<g id="edge15" class="edge">
<title>Node14&#45;&gt;Node13</title>
<path fill="none" stroke="midnightblue" d="M1292.82,-353.56C1228.66,-351.37 1137.06,-349.79 1057,-354.25 1036.64,-355.38 1014.51,-357.54 994.59,-359.82"/>
<polygon fill="midnightblue" stroke="midnightblue" points="1292.76,-357.06 1302.88,-353.92 1293.01,-350.07 1292.76,-357.06"/>
</g>
<!-- Node16 -->
<g id="node16" class="node">
<title>Node16</title>
<g id="a_node16"><a xlink:href="classAdvanceButtonDialog.html#a973a9cf7b58950cda18e39fdffb87e09" target="_top" xlink:title=" ">
<polygon fill="white" stroke="black" points="1314.5,-397.25 1314.5,-427.25 1436.5,-427.25 1436.5,-397.25 1314.5,-397.25"/>
<text text-anchor="start" x="1322.5" y="-415.25" font-family="Helvetica,sans-Serif" font-size="10.00">AdvanceButtonDialog</text>
<text text-anchor="middle" x="1375.5" y="-404.25" font-family="Helvetica,sans-Serif" font-size="10.00">::insertSlot</text>
</a>
</g>
</g>
<!-- Node15&#45;&gt;Node16 -->
<g id="edge17" class="edge">
<title>Node15&#45;&gt;Node16</title>
<path fill="none" stroke="midnightblue" d="M1521.43,-412.25C1493.67,-412.25 1462.69,-412.25 1436.52,-412.25"/>
<polygon fill="midnightblue" stroke="midnightblue" points="1521.49,-415.75 1531.49,-412.25 1521.49,-408.75 1521.49,-415.75"/>
</g>
<!-- Node16&#45;&gt;Node13 -->
<g id="edge18" class="edge">
<title>Node16&#45;&gt;Node13</title>
<path fill="none" stroke="midnightblue" d="M1304.37,-397.99C1284.3,-394.34 1262.35,-390.74 1242,-388.25 1156.75,-377.81 1057.62,-372.63 994.73,-370.19"/>
<polygon fill="midnightblue" stroke="midnightblue" points="1303.9,-401.46 1314.37,-399.85 1305.17,-394.58 1303.9,-401.46"/>
</g>
<!-- Node17 -->
<g id="node17" class="node">
<title>Node17</title>
<g id="a_node17"><a xlink:href="classAdvanceButtonDialog.html#af8430c4a355c90c657d69a44a85e6b84" target="_top" xlink:title=" ">
<polygon fill="white" stroke="black" points="1075.5,-397.25 1075.5,-427.25 1223.5,-427.25 1223.5,-397.25 1075.5,-397.25"/>
<text text-anchor="start" x="1083.5" y="-415.25" font-family="Helvetica,sans-Serif" font-size="10.00">AdvanceButtonDialog</text>
<text text-anchor="middle" x="1149.5" y="-404.25" font-family="Helvetica,sans-Serif" font-size="10.00">::showSelectProfileWindow</text>
</a>
</g>
</g>
<!-- Node16&#45;&gt;Node17 -->
<g id="edge19" class="edge">
<title>Node16&#45;&gt;Node17</title>
<path fill="none" stroke="midnightblue" d="M1304.46,-412.25C1278.84,-412.25 1249.79,-412.25 1223.89,-412.25"/>
<polygon fill="midnightblue" stroke="midnightblue" points="1304.47,-415.75 1314.47,-412.25 1304.47,-408.75 1304.47,-415.75"/>
</g>
<!-- Node17&#45;&gt;Node13 -->
<g id="edge20" class="edge">
<title>Node17&#45;&gt;Node13</title>
<path fill="none" stroke="midnightblue" d="M1065.38,-395.39C1041.87,-390.62 1016.67,-385.52 994.55,-381.03"/>
<polygon fill="midnightblue" stroke="midnightblue" points="1064.84,-398.85 1075.34,-397.41 1066.23,-391.99 1064.84,-398.85"/>
</g>
<!-- Node19 -->
<g id="node19" class="node">
<title>Node19</title>
<g id="a_node19"><a xlink:href="classMouseButtonSettingsDialog.html#a181bfdf388907056ec492d58d85f5d34" target="_top" xlink:title=" ">
<polygon fill="white" stroke="black" points="1296.5,-287.25 1296.5,-317.25 1454.5,-317.25 1454.5,-287.25 1296.5,-287.25"/>
<text text-anchor="start" x="1304.5" y="-305.25" font-family="Helvetica,sans-Serif" font-size="10.00">MouseButtonSettingsDialog</text>
<text text-anchor="middle" x="1375.5" y="-294.25" font-family="Helvetica,sans-Serif" font-size="10.00">::MouseButtonSettingsDialog</text>
</a>
</g>
</g>
<!-- Node18&#45;&gt;Node19 -->
<g id="edge22" class="edge">
<title>Node18&#45;&gt;Node19</title>
<path fill="none" stroke="midnightblue" d="M1498.75,-311.1C1484.02,-310.03 1469.02,-308.94 1454.79,-307.91"/>
<polygon fill="midnightblue" stroke="midnightblue" points="1498.66,-314.6 1508.88,-311.83 1499.16,-307.62 1498.66,-314.6"/>
</g>
<!-- Node20&#45;&gt;Node13 -->
<g id="edge24" class="edge">
<title>Node20&#45;&gt;Node13</title>
<path fill="none" stroke="midnightblue" d="M1498.47,-261.4C1435.1,-262.76 1351.32,-266.89 1278,-278.25 1168.36,-295.22 1043.16,-332.28 977.4,-353.16"/>
<polygon fill="midnightblue" stroke="midnightblue" points="1498.93,-264.89 1508.86,-261.2 1498.79,-257.89 1498.93,-264.89"/>
</g>
<!-- Node22 -->
<g id="node22" class="node">
<title>Node22</title>
<g id="a_node22"><a xlink:href="classButtonEditDialog.html#a82f6d5a24f90b015034e1a3985c410b8" target="_top" xlink:title=" ">
<polygon fill="white" stroke="black" points="1305.5,-117.25 1305.5,-147.25 1445.5,-147.25 1445.5,-117.25 1305.5,-117.25"/>
<text text-anchor="start" x="1313.5" y="-135.25" font-family="Helvetica,sans-Serif" font-size="10.00">ButtonEditDialog::refresh</text>
<text text-anchor="middle" x="1375.5" y="-124.25" font-family="Helvetica,sans-Serif" font-size="10.00">ForLastBtn</text>
</a>
</g>
</g>
<!-- Node21&#45;&gt;Node22 -->
<g id="edge26" class="edge">
<title>Node21&#45;&gt;Node22</title>
<path fill="none" stroke="midnightblue" d="M1518.69,-153.48C1494.8,-149.91 1468.75,-146.02 1445.55,-142.56"/>
<polygon fill="midnightblue" stroke="midnightblue" points="1518.38,-156.97 1528.79,-154.99 1519.41,-150.05 1518.38,-156.97"/>
</g>
<!-- Node23 -->
<g id="node23" class="node">
<title>Node23</title>
<g id="a_node23"><a xlink:href="classButtonEditDialog.html#a3e9feede100cbb6a11c9d87659c196ea" target="_top" xlink:title=" ">
<polygon fill="white" stroke="black" points="0,-98.25 0,-128.25 137,-128.25 137,-98.25 0,-98.25"/>
<text text-anchor="start" x="8" y="-116.25" font-family="Helvetica,sans-Serif" font-size="10.00">ButtonEditDialog::Button</text>
<text text-anchor="middle" x="68.5" y="-105.25" font-family="Helvetica,sans-Serif" font-size="10.00">EditDialog</text>
</a>
</g>
</g>
<!-- Node22&#45;&gt;Node23 -->
<g id="edge27" class="edge">
<title>Node22&#45;&gt;Node23</title>
<path fill="none" stroke="midnightblue" d="M1351.5,-110.27C1326.64,-87.98 1284.82,-54.51 1242,-38.25 1112.22,11.05 1070.32,-4.25 931.5,-4.25 931.5,-4.25 931.5,-4.25 495.5,-4.25 351.46,-4.25 307.33,15.74 173,-36.25 137.28,-50.07 103.1,-79.78 84.34,-97.99"/>
<polygon fill="midnightblue" stroke="midnightblue" points="1349.2,-112.92 1358.95,-117.08 1353.93,-107.75 1349.2,-112.92"/>
</g>
<!-- Node24 -->
<g id="node24" class="node">
<title>Node24</title>
<g id="a_node24"><a xlink:href="classButtonEditDialog.html#a7b7f4ddddf1b67c7883cc03d7469987f" target="_top" xlink:title=" ">
<polygon fill="white" stroke="black" points="655,-158.25 655,-188.25 792,-188.25 792,-158.25 655,-158.25"/>
<text text-anchor="start" x="663" y="-176.25" font-family="Helvetica,sans-Serif" font-size="10.00">ButtonEditDialog::closed</text>
<text text-anchor="middle" x="723.5" y="-165.25" font-family="Helvetica,sans-Serif" font-size="10.00">AdvancedDialog</text>
</a>
</g>
</g>
<!-- Node22&#45;&gt;Node24 -->
<g id="edge28" class="edge">
<title>Node22&#45;&gt;Node24</title>
<path fill="none" stroke="midnightblue" d="M1295.04,-137.26C1166.01,-145.4 913.18,-161.34 792.17,-168.98"/>
<polygon fill="midnightblue" stroke="midnightblue" points="1295.49,-140.74 1305.25,-136.61 1295.05,-133.75 1295.49,-140.74"/>
</g>
<!-- Node26 -->
<g id="node26" class="node">
<title>Node26</title>
<g id="a_node26"><a xlink:href="classButtonEditDialog.html#a70b199304a9e842bff9cc50ca6c48abb" target="_top" xlink:title=" ">
<polygon fill="white" stroke="black" points="1082,-199.25 1082,-229.25 1217,-229.25 1217,-199.25 1082,-199.25"/>
<text text-anchor="start" x="1090" y="-217.25" font-family="Helvetica,sans-Serif" font-size="10.00">ButtonEditDialog::nullify</text>
<text text-anchor="middle" x="1149.5" y="-206.25" font-family="Helvetica,sans-Serif" font-size="10.00">DialogPointer</text>
</a>
</g>
</g>
<!-- Node22&#45;&gt;Node26 -->
<g id="edge31" class="edge">
<title>Node22&#45;&gt;Node26</title>
<path fill="none" stroke="midnightblue" d="M1328.5,-151.05C1303.12,-161.23 1270.97,-173.82 1242,-184.25 1227.84,-189.34 1212.33,-194.56 1198.17,-199.19"/>
<polygon fill="midnightblue" stroke="midnightblue" points="1329.91,-154.25 1337.87,-147.27 1327.29,-147.76 1329.91,-154.25"/>
</g>
<!-- Node28 -->
<g id="node28" class="node">
<title>Node28</title>
<g id="a_node28"><a xlink:href="classVirtualKeyboardMouseWidget.html#a379b1e56c40759f5efbb912692779997" target="_top" xlink:title=" ">
<polygon fill="white" stroke="black" points="1069,-73.25 1069,-103.25 1230,-103.25 1230,-73.25 1069,-73.25"/>
<text text-anchor="start" x="1077" y="-91.25" font-family="Helvetica,sans-Serif" font-size="10.00">VirtualKeyboardMouseWidget</text>
<text text-anchor="middle" x="1149.5" y="-80.25" font-family="Helvetica,sans-Serif" font-size="10.00">::nullifyDialogPointer</text>
</a>
</g>
</g>
<!-- Node22&#45;&gt;Node28 -->
<g id="edge35" class="edge">
<title>Node22&#45;&gt;Node28</title>
<path fill="none" stroke="midnightblue" d="M1295.42,-116.71C1273.23,-112.35 1249.15,-107.62 1227.11,-103.3"/>
<polygon fill="midnightblue" stroke="midnightblue" points="1294.98,-120.19 1305.46,-118.69 1296.33,-113.32 1294.98,-120.19"/>
</g>
<!-- Node29 -->
<g id="node29" class="node">
<title>Node29</title>
<g id="a_node29"><a xlink:href="classVirtualKeyboardMouseWidget.html#ae1533c129fa9bf28b976c09eb9dd1420" target="_top" xlink:title=" ">
<polygon fill="white" stroke="black" points="840,-96.25 840,-126.25 1021,-126.25 1021,-96.25 840,-96.25"/>
<text text-anchor="start" x="848" y="-114.25" font-family="Helvetica,sans-Serif" font-size="10.00">VirtualKeyboardMouseWidget</text>
<text text-anchor="middle" x="930.5" y="-103.25" font-family="Helvetica,sans-Serif" font-size="10.00">::processSingleKeyboardSelection</text>
</a>
</g>
</g>
<!-- Node22&#45;&gt;Node29 -->
<g id="edge46" class="edge">
<title>Node22&#45;&gt;Node29</title>
<path fill="none" stroke="midnightblue" d="M1295.16,-128.49C1218.2,-124.84 1101.6,-119.31 1021.28,-115.5"/>
<polygon fill="midnightblue" stroke="midnightblue" points="1295.13,-131.99 1305.28,-128.96 1295.46,-125 1295.13,-131.99"/>
</g>
<!-- Node33 -->
<g id="node33" class="node">
<title>Node33</title>
<g id="a_node33"><a xlink:href="classVirtualKeyboardMouseWidget.html#ae535d1ab2f639bb93110c6081dce1731" target="_top" xlink:title=" ">
<polygon fill="white" stroke="black" points="847,-33.25 847,-63.25 1014,-63.25 1014,-33.25 847,-33.25"/>
<text text-anchor="start" x="855" y="-51.25" font-family="Helvetica,sans-Serif" font-size="10.00">VirtualKeyboardMouseWidget</text>
<text text-anchor="middle" x="930.5" y="-40.25" font-family="Helvetica,sans-Serif" font-size="10.00">::processSingleMouseSelection</text>
</a>
</g>
</g>
<!-- Node22&#45;&gt;Node33 -->
<g id="edge47" class="edge">
<title>Node22&#45;&gt;Node33</title>
<path fill="none" stroke="midnightblue" d="M1344.16,-111.58C1318.27,-95.17 1279.4,-73.36 1242,-63.25 1166.72,-42.88 1077.5,-40.73 1014.06,-42.71"/>
<polygon fill="midnightblue" stroke="midnightblue" points="1342.45,-114.64 1352.75,-117.13 1346.25,-108.76 1342.45,-114.64"/>
</g>
<!-- Node25 -->
<g id="node25" class="node">
<title>Node25</title>
<g id="a_node25"><a xlink:href="classButtonEditDialog.html#ade8d1ee4ae03d1080932a70c8170d488" target="_top" xlink:title=" ">
<polygon fill="white" stroke="black" points="173,-98.25 173,-128.25 350,-128.25 350,-98.25 173,-98.25"/>
<text text-anchor="start" x="181" y="-116.25" font-family="Helvetica,sans-Serif" font-size="10.00">ButtonEditDialog::openAdvanced</text>
<text text-anchor="middle" x="261.5" y="-105.25" font-family="Helvetica,sans-Serif" font-size="10.00">Dialog</text>
</a>
</g>
</g>
<!-- Node24&#45;&gt;Node25 -->
<g id="edge29" class="edge">
<title>Node24&#45;&gt;Node25</title>
<path fill="none" stroke="midnightblue" d="M644.5,-169.6C576.03,-165.62 473.93,-157.76 386,-143.25 363.14,-139.47 338.26,-133.75 316.86,-128.31"/>
<polygon fill="midnightblue" stroke="midnightblue" points="644.59,-173.11 654.77,-170.18 644.99,-166.12 644.59,-173.11"/>
</g>
<!-- Node25&#45;&gt;Node23 -->
<g id="edge30" class="edge">
<title>Node25&#45;&gt;Node23</title>
<path fill="none" stroke="midnightblue" d="M162.71,-113.25C154.09,-113.25 145.49,-113.25 137.2,-113.25"/>
<polygon fill="midnightblue" stroke="midnightblue" points="162.83,-116.75 172.83,-113.25 162.83,-109.75 162.83,-116.75"/>
</g>
<!-- Node27 -->
<g id="node27" class="node">
<title>Node27</title>
<g id="a_node27"><a xlink:href="classButtonEditDialog.html#a3f4f84fb02db14ed369dfa2cbe3eb9de" target="_top" xlink:title=" ">
<polygon fill="white" stroke="black" points="859,-199.25 859,-229.25 1002,-229.25 1002,-199.25 859,-199.25"/>
<text text-anchor="start" x="867" y="-217.25" font-family="Helvetica,sans-Serif" font-size="10.00">ButtonEditDialog::process</text>
<text text-anchor="middle" x="930.5" y="-206.25" font-family="Helvetica,sans-Serif" font-size="10.00">SlotAssignment</text>
</a>
</g>
</g>
<!-- Node26&#45;&gt;Node27 -->
<g id="edge32" class="edge">
<title>Node26&#45;&gt;Node27</title>
<path fill="none" stroke="midnightblue" d="M1071.67,-214.25C1049.01,-214.25 1024.34,-214.25 1002.1,-214.25"/>
<polygon fill="midnightblue" stroke="midnightblue" points="1071.92,-217.75 1081.92,-214.25 1071.92,-210.75 1071.92,-217.75"/>
</g>
<!-- Node27&#45;&gt;Node23 -->
<g id="edge33" class="edge">
<title>Node27&#45;&gt;Node23</title>
<path fill="none" stroke="midnightblue" d="M848.66,-211.04C791.22,-208.44 712.3,-204.22 643,-198.25 433.19,-180.16 379.86,-177.7 173,-138.25 158.11,-135.41 142.14,-131.82 127.31,-128.26"/>
<polygon fill="midnightblue" stroke="midnightblue" points="848.63,-214.54 858.77,-211.49 848.94,-207.54 848.63,-214.54"/>
</g>
<!-- Node27&#45;&gt;Node24 -->
<g id="edge34" class="edge">
<title>Node27&#45;&gt;Node24</title>
<path fill="none" stroke="midnightblue" d="M848.92,-198.13C830.1,-194.37 810.25,-190.4 792.07,-186.76"/>
<polygon fill="midnightblue" stroke="midnightblue" points="848.46,-201.61 858.95,-200.14 849.83,-194.74 848.46,-201.61"/>
</g>
<!-- Node28&#45;&gt;Node29 -->
<g id="edge36" class="edge">
<title>Node28&#45;&gt;Node29</title>
<path fill="none" stroke="midnightblue" d="M1058.66,-97.77C1046.33,-99.08 1033.66,-100.42 1021.33,-101.72"/>
<polygon fill="midnightblue" stroke="midnightblue" points="1059.35,-101.21 1068.93,-96.68 1058.62,-94.25 1059.35,-101.21"/>
</g>
<!-- Node28&#45;&gt;Node33 -->
<g id="edge42" class="edge">
<title>Node28&#45;&gt;Node33</title>
<path fill="none" stroke="midnightblue" d="M1058.98,-71.75C1043.71,-68.93 1027.92,-66.02 1012.88,-63.25"/>
<polygon fill="midnightblue" stroke="midnightblue" points="1058.46,-75.21 1068.93,-73.58 1059.73,-68.32 1058.46,-75.21"/>
</g>
<!-- Node30 -->
<g id="node30" class="node">
<title>Node30</title>
<g id="a_node30"><a xlink:href="classVirtualKeyboardMouseWidget.html#a4d88483823d27bf1ba22c334d2407595" target="_top" xlink:title=" ">
<polygon fill="white" stroke="black" points="409,-92.75 409,-133.75 584,-133.75 584,-92.75 409,-92.75"/>
<text text-anchor="start" x="417" y="-121.75" font-family="Helvetica,sans-Serif" font-size="10.00">VirtualKeyboardMouseWidget</text>
<text text-anchor="start" x="417" y="-110.75" font-family="Helvetica,sans-Serif" font-size="10.00">::establishVirtualKeyboardSingle</text>
<text text-anchor="middle" x="496.5" y="-99.75" font-family="Helvetica,sans-Serif" font-size="10.00">SignalConnections</text>
</a>
</g>
</g>
<!-- Node29&#45;&gt;Node30 -->
<g id="edge37" class="edge">
<title>Node29&#45;&gt;Node30</title>
<path fill="none" stroke="midnightblue" d="M829.61,-100.83C820.96,-100.19 812.33,-99.64 804,-99.25 732.53,-95.84 714.47,-95.82 643,-99.25 623.99,-100.16 603.63,-101.74 584.34,-103.52"/>
<polygon fill="midnightblue" stroke="midnightblue" points="829.53,-104.33 839.77,-101.62 830.07,-97.35 829.53,-104.33"/>
</g>
<!-- Node32 -->
<g id="node32" class="node">
<title>Node32</title>
<g id="a_node32"><a xlink:href="classVirtualKeyboardMouseWidget.html#a019229171c104fb3d7b85a41c1dfc2d1" target="_top" xlink:title=" ">
<polygon fill="white" stroke="black" points="643,-109.25 643,-139.25 804,-139.25 804,-109.25 643,-109.25"/>
<text text-anchor="start" x="651" y="-127.25" font-family="Helvetica,sans-Serif" font-size="10.00">VirtualKeyboardMouseWidget</text>
<text text-anchor="middle" x="723.5" y="-116.25" font-family="Helvetica,sans-Serif" font-size="10.00">::otherKeysActionSingle</text>
</a>
</g>
</g>
<!-- Node29&#45;&gt;Node32 -->
<g id="edge40" class="edge">
<title>Node29&#45;&gt;Node32</title>
<path fill="none" stroke="midnightblue" d="M829.84,-117.57C821.27,-118.11 812.66,-118.66 804.28,-119.19"/>
<polygon fill="midnightblue" stroke="midnightblue" points="830.12,-121.06 839.88,-116.93 829.68,-114.07 830.12,-121.06"/>
</g>
<!-- Node30&#45;&gt;Node25 -->
<g id="edge38" class="edge">
<title>Node30&#45;&gt;Node25</title>
<path fill="none" stroke="midnightblue" d="M398.32,-113.25C382.33,-113.25 365.85,-113.25 350.11,-113.25"/>
<polygon fill="midnightblue" stroke="midnightblue" points="398.74,-116.75 408.74,-113.25 398.74,-109.75 398.74,-116.75"/>
</g>
<!-- Node31 -->
<g id="node31" class="node">
<title>Node31</title>
<g id="a_node31"><a xlink:href="classVirtualKeyboardMouseWidget.html#a5117686d29ac16c0d1f947da9ba7b7a4" target="_top" xlink:title=" ">
<polygon fill="white" stroke="black" points="178,-46.25 178,-76.25 345,-76.25 345,-46.25 178,-46.25"/>
<text text-anchor="start" x="186" y="-64.25" font-family="Helvetica,sans-Serif" font-size="10.00">VirtualKeyboardMouseWidget</text>
<text text-anchor="middle" x="261.5" y="-53.25" font-family="Helvetica,sans-Serif" font-size="10.00">::VirtualKeyboardMouseWidget</text>
</a>
</g>
</g>
<!-- Node30&#45;&gt;Node31 -->
<g id="edge39" class="edge">
<title>Node30&#45;&gt;Node31</title>
<path fill="none" stroke="midnightblue" d="M398.9,-91.69C375.76,-86.52 351.54,-81.12 330.04,-76.32"/>
<polygon fill="midnightblue" stroke="midnightblue" points="398.22,-95.12 408.74,-93.88 399.74,-88.29 398.22,-95.12"/>
</g>
<!-- Node32&#45;&gt;Node30 -->
<g id="edge41" class="edge">
<title>Node32&#45;&gt;Node30</title>
<path fill="none" stroke="midnightblue" d="M632.52,-119.85C616.62,-119.07 600.1,-118.26 584.3,-117.49"/>
<polygon fill="midnightblue" stroke="midnightblue" points="632.7,-123.36 642.86,-120.35 633.04,-116.37 632.7,-123.36"/>
</g>
<!-- Node34 -->
<g id="node34" class="node">
<title>Node34</title>
<g id="a_node34"><a xlink:href="classVirtualKeyboardMouseWidget.html#ae98ecab176697aed0ca87609ceceaf06" target="_top" xlink:title=" ">
<polygon fill="white" stroke="black" points="386,-43.25 386,-73.25 607,-73.25 607,-43.25 386,-43.25"/>
<text text-anchor="start" x="394" y="-61.25" font-family="Helvetica,sans-Serif" font-size="10.00">VirtualKeyboardMouseWidget</text>
<text text-anchor="middle" x="496.5" y="-50.25" font-family="Helvetica,sans-Serif" font-size="10.00">::establishVirtualMouseSignalConnections</text>
</a>
</g>
</g>
<!-- Node33&#45;&gt;Node34 -->
<g id="edge43" class="edge">
<title>Node33&#45;&gt;Node34</title>
<path fill="none" stroke="midnightblue" d="M836.8,-50.39C769.45,-51.95 678.07,-54.07 607.1,-55.71"/>
<polygon fill="midnightblue" stroke="midnightblue" points="837.06,-53.89 846.97,-50.16 836.89,-46.89 837.06,-53.89"/>
</g>
<!-- Node34&#45;&gt;Node25 -->
<g id="edge44" class="edge">
<title>Node34&#45;&gt;Node25</title>
<path fill="none" stroke="midnightblue" d="M418.82,-75.61C407.8,-78.15 396.61,-80.75 386,-83.25 365.7,-88.03 343.56,-93.37 323.71,-98.2"/>
<polygon fill="midnightblue" stroke="midnightblue" points="419.91,-78.95 428.87,-73.3 418.34,-72.13 419.91,-78.95"/>
</g>
<!-- Node34&#45;&gt;Node31 -->
<g id="edge45" class="edge">
<title>Node34&#45;&gt;Node31</title>
<path fill="none" stroke="midnightblue" d="M375.54,-59.79C365.26,-59.92 355.02,-60.05 345.13,-60.18"/>
<polygon fill="midnightblue" stroke="midnightblue" points="375.87,-63.29 385.82,-59.66 375.78,-56.29 375.87,-63.29"/>
</g>
</g>
</svg>
