<?xml version="1.0" encoding="UTF-8" standalone="no"?>
<!DOCTYPE svg PUBLIC "-//W3C//DTD SVG 1.1//EN"
 "http://www.w3.org/Graphics/SVG/1.1/DTD/svg11.dtd">
<!-- Generated by graphviz version 2.43.0 (0)
 -->
<!-- Title: QuickSetDialog::connectBtnForDialog Pages: 1 -->
<svg width="731pt" height="231pt"
 viewBox="0.00 0.00 731.00 230.50" xmlns="http://www.w3.org/2000/svg" xmlns:xlink="http://www.w3.org/1999/xlink">
<g id="graph0" class="graph" transform="scale(1 1) rotate(0) translate(4 226.5)">
<title>QuickSetDialog::connectBtnForDialog</title>
<!-- Node1 -->
<g id="Node000001" class="node">
<title>Node1</title>
<g id="a_Node000001"><a xlink:title=" ">
<polygon fill="#999999" stroke="#666666" points="152,-142 0,-142 0,-112 152,-112 152,-142"/>
<text text-anchor="start" x="8" y="-130" font-family="Helvetica,sans-Serif" font-size="10.00">QuickSetDialog::connectBtn</text>
<text text-anchor="middle" x="76" y="-119" font-family="Helvetica,sans-Serif" font-size="10.00">ForDialog</text>
</a>
</g>
</g>
<!-- Node2 -->
<g id="Node000002" class="node">
<title>Node2</title>
<g id="a_Node000002"><a xlink:href="classJoyButton.html#a2f8b2ccc20723787422a1dcd584e4786" target="_top" xlink:title=" ">
<polygon fill="white" stroke="#666666" points="317.5,-222.5 213.5,-222.5 213.5,-203.5 317.5,-203.5 317.5,-222.5"/>
<text text-anchor="middle" x="265.5" y="-210.5" font-family="Helvetica,sans-Serif" font-size="10.00">JoyButton::clicked</text>
</a>
</g>
</g>
<!-- Node1&#45;&gt;Node2 -->
<g id="edge1_Node000001_Node000002" class="edge">
<title>Node1&#45;&gt;Node2</title>
<g id="a_edge1_Node000001_Node000002"><a xlink:title=" ">
<path fill="none" stroke="#63b8ff" d="M97.68,-142.09C119.25,-157.19 154.53,-180.11 188,-194 193.89,-196.44 200.17,-198.63 206.5,-200.56"/>
<polygon fill="#63b8ff" stroke="#63b8ff" points="205.87,-204.02 216.45,-203.41 207.8,-197.29 205.87,-204.02"/>
</a>
</g>
</g>
<!-- Node3 -->
<g id="Node000003" class="node">
<title>Node3</title>
<g id="a_Node000003"><a xlink:href="classJoyButton.html#abbccee98e377453167a47b49874eeab7" target="_top" xlink:title=" ">
<polygon fill="white" stroke="#666666" points="337.5,-185 193.5,-185 193.5,-155 337.5,-155 337.5,-185"/>
<text text-anchor="start" x="201.5" y="-173" font-family="Helvetica,sans-Serif" font-size="10.00">JoyButton::getIgnoreEvent</text>
<text text-anchor="middle" x="265.5" y="-162" font-family="Helvetica,sans-Serif" font-size="10.00">State</text>
</a>
</g>
</g>
<!-- Node1&#45;&gt;Node3 -->
<g id="edge2_Node000001_Node000003" class="edge">
<title>Node1&#45;&gt;Node3</title>
<g id="a_edge2_Node000001_Node000003"><a xlink:title=" ">
<path fill="none" stroke="#63b8ff" d="M142.58,-142.04C157.57,-145.48 173.61,-149.16 188.98,-152.68"/>
<polygon fill="#63b8ff" stroke="#63b8ff" points="188.43,-156.15 198.96,-154.97 189.99,-149.32 188.43,-156.15"/>
</a>
</g>
</g>
<!-- Node4 -->
<g id="Node000004" class="node">
<title>Node4</title>
<g id="a_Node000004"><a xlink:href="classJoyButton.html#a6dd1ad602ca81b63035a872724c96e98" target="_top" xlink:title=" ">
<polygon fill="white" stroke="#666666" points="329.5,-136.5 201.5,-136.5 201.5,-117.5 329.5,-117.5 329.5,-136.5"/>
<text text-anchor="middle" x="265.5" y="-124.5" font-family="Helvetica,sans-Serif" font-size="10.00">JoyButton::isPartVDPad</text>
</a>
</g>
</g>
<!-- Node1&#45;&gt;Node4 -->
<g id="edge3_Node000001_Node000004" class="edge">
<title>Node1&#45;&gt;Node4</title>
<g id="a_edge3_Node000001_Node000004"><a xlink:title=" ">
<path fill="none" stroke="#63b8ff" d="M152.18,-127C165.05,-127 178.39,-127 191.21,-127"/>
<polygon fill="#63b8ff" stroke="#63b8ff" points="191.35,-130.5 201.35,-127 191.35,-123.5 191.35,-130.5"/>
</a>
</g>
</g>
<!-- Node5 -->
<g id="Node000005" class="node">
<title>Node5</title>
<g id="a_Node000005"><a xlink:href="classJoyButton.html#aa8eaea52cff793034b943af1eb292b6c" target="_top" xlink:title=" ">
<polygon fill="white" stroke="#666666" points="337,-99 194,-99 194,-69 337,-69 337,-99"/>
<text text-anchor="start" x="202" y="-87" font-family="Helvetica,sans-Serif" font-size="10.00">JoyButton::setIgnoreEvent</text>
<text text-anchor="middle" x="265.5" y="-76" font-family="Helvetica,sans-Serif" font-size="10.00">State</text>
</a>
</g>
</g>
<!-- Node1&#45;&gt;Node5 -->
<g id="edge4_Node000001_Node000005" class="edge">
<title>Node1&#45;&gt;Node5</title>
<g id="a_edge4_Node000001_Node000005"><a xlink:title=" ">
<path fill="none" stroke="#63b8ff" d="M142.58,-111.96C157.57,-108.52 173.61,-104.84 188.98,-101.32"/>
<polygon fill="#63b8ff" stroke="#63b8ff" points="189.99,-104.68 198.96,-99.03 188.43,-97.85 189.99,-104.68"/>
</a>
</g>
</g>
<!-- Node6 -->
<g id="Node000006" class="node">
<title>Node6</title>
<g id="a_Node000006"><a xlink:href="classQuickSetDialog.html#abc94158041ae6895da77662156b64591" target="_top" xlink:title=" ">
<polygon fill="white" stroke="#666666" points="343,-51 188,-51 188,-21 343,-21 343,-51"/>
<text text-anchor="start" x="196" y="-39" font-family="Helvetica,sans-Serif" font-size="10.00">QuickSetDialog::showButton</text>
<text text-anchor="middle" x="265.5" y="-28" font-family="Helvetica,sans-Serif" font-size="10.00">Dialog</text>
</a>
</g>
</g>
<!-- Node1&#45;&gt;Node6 -->
<g id="edge5_Node000001_Node000006" class="edge">
<title>Node1&#45;&gt;Node6</title>
<g id="a_edge5_Node000001_Node000006"><a xlink:title=" ">
<path fill="none" stroke="#63b8ff" d="M98.68,-111.77C120.46,-96.99 155.37,-74.71 188,-60 192.29,-58.06 196.79,-56.22 201.36,-54.48"/>
<polygon fill="#63b8ff" stroke="#63b8ff" points="202.6,-57.75 210.8,-51.05 200.21,-51.17 202.6,-57.75"/>
</a>
</g>
</g>
<!-- Node7 -->
<g id="Node000007" class="node">
<title>Node7</title>
<g id="a_Node000007"><a xlink:href="classQuickSetDialog.html#af61daea37a622937669c8043f42e70b8" target="_top" xlink:title=" ">
<polygon fill="white" stroke="#666666" points="546,-30 379,-30 379,0 546,0 546,-30"/>
<text text-anchor="start" x="387" y="-18" font-family="Helvetica,sans-Serif" font-size="10.00">QuickSetDialog::invokeMethod</text>
<text text-anchor="middle" x="462.5" y="-7" font-family="Helvetica,sans-Serif" font-size="10.00">LastBtn</text>
</a>
</g>
</g>
<!-- Node6&#45;&gt;Node7 -->
<g id="edge6_Node000006_Node000007" class="edge">
<title>Node6&#45;&gt;Node7</title>
<g id="a_edge6_Node000006_Node000007"><a xlink:title=" ">
<path fill="none" stroke="#63b8ff" d="M343.01,-27.76C351.45,-26.85 360.1,-25.92 368.71,-24.99"/>
<polygon fill="#63b8ff" stroke="#63b8ff" points="369.21,-28.46 378.77,-23.91 368.46,-21.5 369.21,-28.46"/>
</a>
</g>
</g>
<!-- Node8 -->
<g id="Node000008" class="node">
<title>Node8</title>
<g id="a_Node000008"><a xlink:href="classJoyDPadXml.html#aee163ecdea6d6e34eebc93ff16ce2763" target="_top" xlink:title=" ">
<polygon fill="white" stroke="#666666" points="723,-67.5 582,-67.5 582,-48.5 723,-48.5 723,-67.5"/>
<text text-anchor="middle" x="652.5" y="-55.5" font-family="Helvetica,sans-Serif" font-size="10.00">JoyDPadXml::JoyDPadXml</text>
</a>
</g>
</g>
<!-- Node6&#45;&gt;Node8 -->
<g id="edge9_Node000006_Node000008" class="edge">
<title>Node6&#45;&gt;Node8</title>
<g id="a_edge9_Node000006_Node000008"><a xlink:title=" ">
<path fill="none" stroke="#63b8ff" d="M343.02,-40.37C409.25,-44.16 504.67,-49.61 571.81,-53.45"/>
<polygon fill="#63b8ff" stroke="#63b8ff" points="571.73,-56.95 581.92,-54.02 572.13,-49.96 571.73,-56.95"/>
</a>
</g>
</g>
<!-- Node7&#45;&gt;Node8 -->
<g id="edge7_Node000007_Node000008" class="edge">
<title>Node7&#45;&gt;Node8</title>
<g id="a_edge7_Node000007_Node000008"><a xlink:title=" ">
<path fill="none" stroke="#63b8ff" d="M529.25,-30.04C552.48,-35.35 578.25,-41.25 600.12,-46.25"/>
<polygon fill="#63b8ff" stroke="#63b8ff" points="599.34,-49.66 609.87,-48.48 600.9,-42.84 599.34,-49.66"/>
</a>
</g>
</g>
<!-- Node9 -->
<g id="Node000009" class="node">
<title>Node9</title>
<g id="a_Node000009"><a xlink:href="classButtonEditDialogHelper.html#a2160209c705906abf0510c903f432f42" target="_top" xlink:title=" ">
<polygon fill="white" stroke="#666666" points="718,-30 587,-30 587,0 718,0 718,-30"/>
<text text-anchor="start" x="595" y="-18" font-family="Helvetica,sans-Serif" font-size="10.00">ButtonEditDialogHelper</text>
<text text-anchor="middle" x="652.5" y="-7" font-family="Helvetica,sans-Serif" font-size="10.00">::setThisButton</text>
</a>
</g>
</g>
<!-- Node7&#45;&gt;Node9 -->
<g id="edge8_Node000007_Node000009" class="edge">
<title>Node7&#45;&gt;Node9</title>
<g id="a_edge8_Node000007_Node000009"><a xlink:title=" ">
<path fill="none" stroke="#63b8ff" d="M546.23,-15C556.32,-15 566.59,-15 576.56,-15"/>
<polygon fill="#63b8ff" stroke="#63b8ff" points="576.81,-18.5 586.81,-15 576.81,-11.5 576.81,-18.5"/>
</a>
</g>
</g>
</g>
</svg>
