<?xml version="1.0" encoding="UTF-8" standalone="no"?>
<!DOCTYPE svg PUBLIC "-//W3C//DTD SVG 1.1//EN"
 "http://www.w3.org/Graphics/SVG/1.1/DTD/svg11.dtd">
<!-- Generated by graphviz version 2.43.0 (0)
 -->
<!-- Title: JoyButtonWidget::enableFlashes Pages: 1 -->
<svg width="573pt" height="78pt"
 viewBox="0.00 0.00 573.00 77.50" xmlns="http://www.w3.org/2000/svg" xmlns:xlink="http://www.w3.org/1999/xlink">
<g id="graph0" class="graph" transform="scale(1 1) rotate(0) translate(4 73.5)">
<title>JoyButtonWidget::enableFlashes</title>
<polygon fill="white" stroke="transparent" points="-4,4 -4,-73.5 569,-73.5 569,4 -4,4"/>
<!-- Node1 -->
<g id="node1" class="node">
<title>Node1</title>
<g id="a_node1"><a xlink:title=" ">
<polygon fill="#bfbfbf" stroke="black" points="390,-28 390,-47 565,-47 565,-28 390,-28"/>
<text text-anchor="middle" x="477.5" y="-35" font-family="Helvetica,sans-Serif" font-size="10.00">JoyButtonWidget::enableFlashes</text>
</a>
</g>
</g>
<!-- Node2 -->
<g id="node2" class="node">
<title>Node2</title>
<g id="a_node2"><a xlink:href="classMainWindow.html#a435b6567cdb461077fee16ac1d23523c" target="_top" xlink:title=" ">
<polygon fill="white" stroke="black" points="174,-50 174,-69 354,-69 354,-50 174,-50"/>
<text text-anchor="middle" x="264" y="-57" font-family="Helvetica,sans-Serif" font-size="10.00">MainWindow::enableFlashActions</text>
</a>
</g>
</g>
<!-- Node1&#45;&gt;Node2 -->
<g id="edge1" class="edge">
<title>Node1&#45;&gt;Node2</title>
<path fill="none" stroke="midnightblue" d="M379.89,-47.55C371.34,-48.44 362.72,-49.34 354.24,-50.22"/>
<polygon fill="midnightblue" stroke="midnightblue" points="380.28,-51.03 389.86,-46.51 379.56,-44.07 380.28,-51.03"/>
</g>
<!-- Node4 -->
<g id="node4" class="node">
<title>Node4</title>
<g id="a_node4"><a xlink:href="classJoyButtonWidget.html#aeeb6cb187733cbf7c9f1c5a0fe8f7b34" target="_top" xlink:title=" ">
<polygon fill="white" stroke="black" points="188,-0.5 188,-30.5 340,-30.5 340,-0.5 188,-0.5"/>
<text text-anchor="start" x="196" y="-18.5" font-family="Helvetica,sans-Serif" font-size="10.00">JoyButtonWidget::JoyButton</text>
<text text-anchor="middle" x="264" y="-7.5" font-family="Helvetica,sans-Serif" font-size="10.00">Widget</text>
</a>
</g>
</g>
<!-- Node1&#45;&gt;Node4 -->
<g id="edge3" class="edge">
<title>Node1&#45;&gt;Node4</title>
<path fill="none" stroke="midnightblue" d="M379.79,-27.44C366.55,-26.06 353.11,-24.67 340.33,-23.34"/>
<polygon fill="midnightblue" stroke="midnightblue" points="379.56,-30.93 389.86,-28.49 380.28,-23.97 379.56,-30.93"/>
</g>
<!-- Node3 -->
<g id="node3" class="node">
<title>Node3</title>
<g id="a_node3"><a xlink:href="classMainWindow.html#a3dfe834b2836b316908ace3f38c06db2" target="_top" xlink:title=" ">
<polygon fill="white" stroke="black" points="0,-50 0,-69 138,-69 138,-50 0,-50"/>
<text text-anchor="middle" x="69" y="-57" font-family="Helvetica,sans-Serif" font-size="10.00">MainWindow::showEvent</text>
</a>
</g>
</g>
<!-- Node2&#45;&gt;Node3 -->
<g id="edge2" class="edge">
<title>Node2&#45;&gt;Node3</title>
<path fill="none" stroke="midnightblue" d="M163.74,-59.5C155.13,-59.5 146.55,-59.5 138.28,-59.5"/>
<polygon fill="midnightblue" stroke="midnightblue" points="163.84,-63 173.84,-59.5 163.84,-56 163.84,-63"/>
</g>
</g>
</svg>
