<?xml version="1.0" encoding="UTF-8" standalone="no"?>
<!DOCTYPE svg PUBLIC "-//W3C//DTD SVG 1.1//EN"
 "http://www.w3.org/Graphics/SVG/1.1/DTD/svg11.dtd">
<!-- Generated by graphviz version 2.43.0 (0)
 -->
<!-- Title: GameController::getRawVendorString Pages: 1 -->
<svg width="571pt" height="88pt"
 viewBox="0.00 0.00 571.00 88.00" xmlns="http://www.w3.org/2000/svg" xmlns:xlink="http://www.w3.org/1999/xlink">
<g id="graph0" class="graph" transform="scale(1 1) rotate(0) translate(4 84)">
<title>GameController::getRawVendorString</title>
<polygon fill="white" stroke="transparent" points="-4,4 -4,-84 567,-84 567,4 -4,4"/>
<!-- Node1 -->
<g id="node1" class="node">
<title>Node1</title>
<g id="a_node1"><a xlink:title=" ">
<polygon fill="#bfbfbf" stroke="black" points="393,-24.5 393,-54.5 563,-54.5 563,-24.5 393,-24.5"/>
<text text-anchor="start" x="401" y="-42.5" font-family="Helvetica,sans-Serif" font-size="10.00">GameController::getRawVendor</text>
<text text-anchor="middle" x="478" y="-31.5" font-family="Helvetica,sans-Serif" font-size="10.00">String</text>
</a>
</g>
</g>
<!-- Node2 -->
<g id="node2" class="node">
<title>Node2</title>
<g id="a_node2"><a xlink:href="classGameController.html#a1bbce70562484919be82e64b1bb6e936" target="_top" xlink:title=" ">
<polygon fill="white" stroke="black" points="186,-49.5 186,-79.5 357,-79.5 357,-49.5 186,-49.5"/>
<text text-anchor="start" x="194" y="-67.5" font-family="Helvetica,sans-Serif" font-size="10.00">GameController::getRawUnique</text>
<text text-anchor="middle" x="271.5" y="-56.5" font-family="Helvetica,sans-Serif" font-size="10.00">IDString</text>
</a>
</g>
</g>
<!-- Node1&#45;&gt;Node2 -->
<g id="edge1" class="edge">
<title>Node1&#45;&gt;Node2</title>
<path fill="none" stroke="midnightblue" d="M382.93,-51C374.36,-52.05 365.71,-53.11 357.23,-54.14"/>
<polygon fill="midnightblue" stroke="midnightblue" points="383.44,-54.46 392.94,-49.78 382.59,-47.52 383.44,-54.46"/>
</g>
<!-- Node4 -->
<g id="node4" class="node">
<title>Node4</title>
<g id="a_node4"><a xlink:href="classGameController.html#ab31694d332ef1f9148a89c8dce648e8a" target="_top" xlink:title=" ">
<polygon fill="white" stroke="black" points="197,-0.5 197,-30.5 346,-30.5 346,-0.5 197,-0.5"/>
<text text-anchor="start" x="205" y="-18.5" font-family="Helvetica,sans-Serif" font-size="10.00">GameController::getVendor</text>
<text text-anchor="middle" x="271.5" y="-7.5" font-family="Helvetica,sans-Serif" font-size="10.00">String</text>
</a>
</g>
</g>
<!-- Node1&#45;&gt;Node4 -->
<g id="edge3" class="edge">
<title>Node1&#45;&gt;Node4</title>
<path fill="none" stroke="midnightblue" d="M382.68,-28.43C370.4,-26.99 357.97,-25.53 346.1,-24.14"/>
<polygon fill="midnightblue" stroke="midnightblue" points="382.6,-31.94 392.94,-29.63 383.41,-24.99 382.6,-31.94"/>
</g>
<!-- Node3 -->
<g id="node3" class="node">
<title>Node3</title>
<g id="a_node3"><a xlink:href="classGameController.html#a097c02e89fa422e4356467546d1f3c81" target="_top" xlink:title=" ">
<polygon fill="white" stroke="black" points="0,-49.5 0,-79.5 150,-79.5 150,-49.5 0,-49.5"/>
<text text-anchor="start" x="8" y="-67.5" font-family="Helvetica,sans-Serif" font-size="10.00">GameController::getUnique</text>
<text text-anchor="middle" x="75" y="-56.5" font-family="Helvetica,sans-Serif" font-size="10.00">IDString</text>
</a>
</g>
</g>
<!-- Node2&#45;&gt;Node3 -->
<g id="edge2" class="edge">
<title>Node2&#45;&gt;Node3</title>
<path fill="none" stroke="midnightblue" d="M175.69,-64.5C167.1,-64.5 158.47,-64.5 150.1,-64.5"/>
<polygon fill="midnightblue" stroke="midnightblue" points="175.76,-68 185.76,-64.5 175.76,-61 175.76,-68"/>
</g>
</g>
</svg>
