<?xml version="1.0" encoding="UTF-8" standalone="no"?>
<!DOCTYPE svg PUBLIC "-//W3C//DTD SVG 1.1//EN"
 "http://www.w3.org/Graphics/SVG/1.1/DTD/svg11.dtd">
<!-- Generated by graphviz version 2.43.0 (0)
 -->
<!-- Title: ButtonEditDialog::refreshSlotSummaryLabel Pages: 1 -->
<!--zoomable 287 -->
<svg id="main" version="1.1" xmlns="http://www.w3.org/2000/svg" xmlns:xlink="http://www.w3.org/1999/xlink" xml:space="preserve" onload="init(evt)">
<style type="text/css"><![CDATA[
.edge:hover path { stroke: red; }
.edge:hover polygon { stroke: red; fill: red; }
]]></style>
<script type="text/javascript"><![CDATA[
var edges = document.getElementsByTagName('g');
if (edges && edges.length) {
  for (var i=0;i<edges.length;i++) {
    if (edges[i].id.substr(0,4)=='edge') {
      edges[i].setAttribute('class','edge');
    }
  }
}
]]></script>
        <defs>
                <circle id="rim" cx="0" cy="0" r="7"/>
                <circle id="rim2" cx="0" cy="0" r="3.5"/>
                <g id="zoomPlus">
                        <use xlink:href="#rim" fill="#404040">
                                <set attributeName="fill" to="#808080" begin="zoomplus.mouseover" end="zoomplus.mouseout"/>
                        </use>
                        <path d="M-4,0h8M0,-4v8" fill="none" stroke="white" stroke-width="1.5" pointer-events="none"/>
                </g>
                <g id="zoomMin">
                        <use xlink:href="#rim" fill="#404040">
                                <set attributeName="fill" to="#808080" begin="zoomminus.mouseover" end="zoomminus.mouseout"/>
                        </use>
                        <path d="M-4,0h8" fill="none" stroke="white" stroke-width="1.5" pointer-events="none"/>
                </g>
                <g id="dirArrow">
                        <path fill="none" stroke="white" stroke-width="1.5" d="M0,-3.0v7 M-2.5,-0.5L0,-3.0L2.5,-0.5"/>
                </g>
               <g id="resetDef">
                       <use xlink:href="#rim2" fill="#404040">
                               <set attributeName="fill" to="#808080" begin="reset.mouseover" end="reset.mouseout"/>
                       </use>
               </g>
        </defs>

<script type="text/javascript">
var viewWidth = 1578;
var viewHeight = 287;
var sectionId = 'dynsection-31';
</script>
<script xlink:href="svgpan.js"/>
<svg id="graph" class="graph">
<g id="viewport">
<title>ButtonEditDialog::refreshSlotSummaryLabel</title>
<polygon fill="white" stroke="transparent" points="-4,4 -4,-282.5 1574,-282.5 1574,4 -4,4"/>
<!-- Node1 -->
<g id="node1" class="node">
<title>Node1</title>
<g id="a_node1"><a xlink:title=" ">
<polygon fill="#bfbfbf" stroke="black" points="1430,-200.5 1430,-230.5 1570,-230.5 1570,-200.5 1430,-200.5"/>
<text text-anchor="start" x="1438" y="-218.5" font-family="Helvetica,sans-Serif" font-size="10.00">ButtonEditDialog::refresh</text>
<text text-anchor="middle" x="1500" y="-207.5" font-family="Helvetica,sans-Serif" font-size="10.00">SlotSummaryLabel</text>
</a>
</g>
</g>
<!-- Node2 -->
<g id="node2" class="node">
<title>Node2</title>
<g id="a_node2"><a xlink:href="classButtonEditDialog.html#a3e9feede100cbb6a11c9d87659c196ea" target="_top" xlink:title=" ">
<polygon fill="white" stroke="black" points="0,-197.5 0,-227.5 137,-227.5 137,-197.5 0,-197.5"/>
<text text-anchor="start" x="8" y="-215.5" font-family="Helvetica,sans-Serif" font-size="10.00">ButtonEditDialog::Button</text>
<text text-anchor="middle" x="68.5" y="-204.5" font-family="Helvetica,sans-Serif" font-size="10.00">EditDialog</text>
</a>
</g>
</g>
<!-- Node1&#45;&gt;Node2 -->
<g id="edge1" class="edge">
<title>Node1&#45;&gt;Node2</title>
<path fill="none" stroke="midnightblue" d="M1436.93,-233.08C1365.54,-251.72 1244.54,-278.5 1138.5,-278.5 1138.5,-278.5 1138.5,-278.5 495.5,-278.5 363.22,-278.5 210.53,-247.04 128.67,-227.56"/>
<polygon fill="midnightblue" stroke="midnightblue" points="1437.89,-236.45 1446.66,-230.51 1436.1,-229.68 1437.89,-236.45"/>
</g>
<!-- Node3 -->
<g id="node3" class="node">
<title>Node3</title>
<g id="a_node3"><a xlink:href="classButtonEditDialog.html#a82f6d5a24f90b015034e1a3985c410b8" target="_top" xlink:title=" ">
<polygon fill="white" stroke="black" points="1254,-137.5 1254,-167.5 1394,-167.5 1394,-137.5 1254,-137.5"/>
<text text-anchor="start" x="1262" y="-155.5" font-family="Helvetica,sans-Serif" font-size="10.00">ButtonEditDialog::refresh</text>
<text text-anchor="middle" x="1324" y="-144.5" font-family="Helvetica,sans-Serif" font-size="10.00">ForLastBtn</text>
</a>
</g>
</g>
<!-- Node1&#45;&gt;Node3 -->
<g id="edge2" class="edge">
<title>Node1&#45;&gt;Node3</title>
<path fill="none" stroke="midnightblue" d="M1447.7,-196.93C1421.87,-187.57 1390.97,-176.39 1366.64,-167.58"/>
<polygon fill="midnightblue" stroke="midnightblue" points="1446.73,-200.3 1457.32,-200.41 1449.11,-193.71 1446.73,-200.3"/>
</g>
<!-- Node3&#45;&gt;Node2 -->
<g id="edge3" class="edge">
<title>Node3&#45;&gt;Node2</title>
<path fill="none" stroke="midnightblue" d="M1243.75,-163.02C1235.07,-163.96 1226.36,-164.81 1218,-165.5 1005.94,-182.94 350.23,-203.94 137.14,-210.46"/>
<polygon fill="midnightblue" stroke="midnightblue" points="1244.35,-166.47 1253.9,-161.88 1243.57,-159.51 1244.35,-166.47"/>
</g>
<!-- Node4 -->
<g id="node4" class="node">
<title>Node4</title>
<g id="a_node4"><a xlink:href="classButtonEditDialog.html#a7b7f4ddddf1b67c7883cc03d7469987f" target="_top" xlink:title=" ">
<polygon fill="white" stroke="black" points="655,-134.5 655,-164.5 792,-164.5 792,-134.5 655,-134.5"/>
<text text-anchor="start" x="663" y="-152.5" font-family="Helvetica,sans-Serif" font-size="10.00">ButtonEditDialog::closed</text>
<text text-anchor="middle" x="723.5" y="-141.5" font-family="Helvetica,sans-Serif" font-size="10.00">AdvancedDialog</text>
</a>
</g>
</g>
<!-- Node3&#45;&gt;Node4 -->
<g id="edge4" class="edge">
<title>Node3&#45;&gt;Node4</title>
<path fill="none" stroke="midnightblue" d="M1243.66,-152.1C1125.06,-151.51 903.62,-150.4 792.2,-149.84"/>
<polygon fill="midnightblue" stroke="midnightblue" points="1243.74,-155.6 1253.76,-152.15 1243.78,-148.6 1243.74,-155.6"/>
</g>
<!-- Node6 -->
<g id="node6" class="node">
<title>Node6</title>
<g id="a_node6"><a xlink:href="classButtonEditDialog.html#a70b199304a9e842bff9cc50ca6c48abb" target="_top" xlink:title=" ">
<polygon fill="white" stroke="black" points="1070,-219.5 1070,-249.5 1205,-249.5 1205,-219.5 1070,-219.5"/>
<text text-anchor="start" x="1078" y="-237.5" font-family="Helvetica,sans-Serif" font-size="10.00">ButtonEditDialog::nullify</text>
<text text-anchor="middle" x="1137.5" y="-226.5" font-family="Helvetica,sans-Serif" font-size="10.00">DialogPointer</text>
</a>
</g>
</g>
<!-- Node3&#45;&gt;Node6 -->
<g id="edge7" class="edge">
<title>Node3&#45;&gt;Node6</title>
<path fill="none" stroke="midnightblue" d="M1285.38,-172.26C1265.56,-182.38 1240.71,-194.62 1218,-204.5 1206.1,-209.68 1192.98,-214.84 1180.9,-219.39"/>
<polygon fill="midnightblue" stroke="midnightblue" points="1287.1,-175.31 1294.39,-167.63 1283.9,-169.09 1287.1,-175.31"/>
</g>
<!-- Node8 -->
<g id="node8" class="node">
<title>Node8</title>
<g id="a_node8"><a xlink:href="classVirtualKeyboardMouseWidget.html#a379b1e56c40759f5efbb912692779997" target="_top" xlink:title=" ">
<polygon fill="white" stroke="black" points="1057,-55.5 1057,-85.5 1218,-85.5 1218,-55.5 1057,-55.5"/>
<text text-anchor="start" x="1065" y="-73.5" font-family="Helvetica,sans-Serif" font-size="10.00">VirtualKeyboardMouseWidget</text>
<text text-anchor="middle" x="1137.5" y="-62.5" font-family="Helvetica,sans-Serif" font-size="10.00">::nullifyDialogPointer</text>
</a>
</g>
</g>
<!-- Node3&#45;&gt;Node8 -->
<g id="edge11" class="edge">
<title>Node3&#45;&gt;Node8</title>
<path fill="none" stroke="midnightblue" d="M1285.38,-132.74C1265.56,-122.62 1240.71,-110.38 1218,-100.5 1206.1,-95.32 1192.98,-90.16 1180.9,-85.61"/>
<polygon fill="midnightblue" stroke="midnightblue" points="1283.9,-135.91 1294.39,-137.37 1287.1,-129.69 1283.9,-135.91"/>
</g>
<!-- Node9 -->
<g id="node9" class="node">
<title>Node9</title>
<g id="a_node9"><a xlink:href="classVirtualKeyboardMouseWidget.html#ae1533c129fa9bf28b976c09eb9dd1420" target="_top" xlink:title=" ">
<polygon fill="white" stroke="black" points="840,-27.5 840,-57.5 1021,-57.5 1021,-27.5 840,-27.5"/>
<text text-anchor="start" x="848" y="-45.5" font-family="Helvetica,sans-Serif" font-size="10.00">VirtualKeyboardMouseWidget</text>
<text text-anchor="middle" x="930.5" y="-34.5" font-family="Helvetica,sans-Serif" font-size="10.00">::processSingleKeyboardSelection</text>
</a>
</g>
</g>
<!-- Node3&#45;&gt;Node9 -->
<g id="edge22" class="edge">
<title>Node3&#45;&gt;Node9</title>
<path fill="none" stroke="midnightblue" d="M1308.05,-128.58C1290.25,-102.58 1257.84,-62.47 1218,-45.5 1152.44,-17.58 1070.54,-19.97 1011.12,-27.48"/>
<polygon fill="midnightblue" stroke="midnightblue" points="1305.28,-130.74 1313.73,-137.13 1311.11,-126.86 1305.28,-130.74"/>
</g>
<!-- Node13 -->
<g id="node13" class="node">
<title>Node13</title>
<g id="a_node13"><a xlink:href="classVirtualKeyboardMouseWidget.html#ae535d1ab2f639bb93110c6081dce1731" target="_top" xlink:title=" ">
<polygon fill="white" stroke="black" points="847,-90.5 847,-120.5 1014,-120.5 1014,-90.5 847,-90.5"/>
<text text-anchor="start" x="855" y="-108.5" font-family="Helvetica,sans-Serif" font-size="10.00">VirtualKeyboardMouseWidget</text>
<text text-anchor="middle" x="930.5" y="-97.5" font-family="Helvetica,sans-Serif" font-size="10.00">::processSingleMouseSelection</text>
</a>
</g>
</g>
<!-- Node3&#45;&gt;Node13 -->
<g id="edge23" class="edge">
<title>Node3&#45;&gt;Node13</title>
<path fill="none" stroke="midnightblue" d="M1243.69,-141.77C1235.03,-140.65 1226.33,-139.53 1218,-138.5 1149.43,-129.98 1071.54,-121.06 1014.29,-114.64"/>
<polygon fill="midnightblue" stroke="midnightblue" points="1243.46,-145.27 1253.83,-143.1 1244.37,-138.33 1243.46,-145.27"/>
</g>
<!-- Node5 -->
<g id="node5" class="node">
<title>Node5</title>
<g id="a_node5"><a xlink:href="classButtonEditDialog.html#ade8d1ee4ae03d1080932a70c8170d488" target="_top" xlink:title=" ">
<polygon fill="white" stroke="black" points="173,-122.5 173,-152.5 350,-152.5 350,-122.5 173,-122.5"/>
<text text-anchor="start" x="181" y="-140.5" font-family="Helvetica,sans-Serif" font-size="10.00">ButtonEditDialog::openAdvanced</text>
<text text-anchor="middle" x="261.5" y="-129.5" font-family="Helvetica,sans-Serif" font-size="10.00">Dialog</text>
</a>
</g>
</g>
<!-- Node4&#45;&gt;Node5 -->
<g id="edge5" class="edge">
<title>Node4&#45;&gt;Node5</title>
<path fill="none" stroke="midnightblue" d="M644.43,-147.46C562.91,-145.34 435.34,-142.01 350.35,-139.79"/>
<polygon fill="midnightblue" stroke="midnightblue" points="644.54,-150.97 654.63,-147.73 644.72,-143.97 644.54,-150.97"/>
</g>
<!-- Node5&#45;&gt;Node2 -->
<g id="edge6" class="edge">
<title>Node5&#45;&gt;Node2</title>
<path fill="none" stroke="midnightblue" d="M212.14,-156.49C179.79,-169.19 137.8,-185.68 107.77,-197.47"/>
<polygon fill="midnightblue" stroke="midnightblue" points="213.82,-159.59 221.85,-152.68 211.26,-153.07 213.82,-159.59"/>
</g>
<!-- Node7 -->
<g id="node7" class="node">
<title>Node7</title>
<g id="a_node7"><a xlink:href="classButtonEditDialog.html#a3f4f84fb02db14ed369dfa2cbe3eb9de" target="_top" xlink:title=" ">
<polygon fill="white" stroke="black" points="859,-219.5 859,-249.5 1002,-249.5 1002,-219.5 859,-219.5"/>
<text text-anchor="start" x="867" y="-237.5" font-family="Helvetica,sans-Serif" font-size="10.00">ButtonEditDialog::process</text>
<text text-anchor="middle" x="930.5" y="-226.5" font-family="Helvetica,sans-Serif" font-size="10.00">SlotAssignment</text>
</a>
</g>
</g>
<!-- Node6&#45;&gt;Node7 -->
<g id="edge8" class="edge">
<title>Node6&#45;&gt;Node7</title>
<path fill="none" stroke="midnightblue" d="M1059.9,-234.5C1041.03,-234.5 1020.9,-234.5 1002.31,-234.5"/>
<polygon fill="midnightblue" stroke="midnightblue" points="1059.94,-238 1069.94,-234.5 1059.94,-231 1059.94,-238"/>
</g>
<!-- Node7&#45;&gt;Node2 -->
<g id="edge9" class="edge">
<title>Node7&#45;&gt;Node2</title>
<path fill="none" stroke="midnightblue" d="M848.7,-232.43C680.14,-228.12 293.7,-218.24 137.18,-214.23"/>
<polygon fill="midnightblue" stroke="midnightblue" points="848.67,-235.93 858.76,-232.69 848.85,-228.94 848.67,-235.93"/>
</g>
<!-- Node7&#45;&gt;Node4 -->
<g id="edge10" class="edge">
<title>Node7&#45;&gt;Node4</title>
<path fill="none" stroke="midnightblue" d="M883.77,-215.54C846.75,-200.19 795.3,-178.86 761.01,-164.64"/>
<polygon fill="midnightblue" stroke="midnightblue" points="882.74,-218.9 893.32,-219.5 885.43,-212.44 882.74,-218.9"/>
</g>
<!-- Node8&#45;&gt;Node9 -->
<g id="edge12" class="edge">
<title>Node8&#45;&gt;Node9</title>
<path fill="none" stroke="midnightblue" d="M1046.99,-58.27C1038.44,-57.11 1029.77,-55.92 1021.22,-54.76"/>
<polygon fill="midnightblue" stroke="midnightblue" points="1046.57,-61.75 1056.95,-59.63 1047.51,-54.81 1046.57,-61.75"/>
</g>
<!-- Node8&#45;&gt;Node13 -->
<g id="edge18" class="edge">
<title>Node8&#45;&gt;Node13</title>
<path fill="none" stroke="midnightblue" d="M1046.97,-85.79C1036.03,-87.65 1024.89,-89.56 1014.05,-91.41"/>
<polygon fill="midnightblue" stroke="midnightblue" points="1047.68,-89.22 1056.95,-84.08 1046.5,-82.31 1047.68,-89.22"/>
</g>
<!-- Node10 -->
<g id="node10" class="node">
<title>Node10</title>
<g id="a_node10"><a xlink:href="classVirtualKeyboardMouseWidget.html#a4d88483823d27bf1ba22c334d2407595" target="_top" xlink:title=" ">
<polygon fill="white" stroke="black" points="409,-30 409,-71 584,-71 584,-30 409,-30"/>
<text text-anchor="start" x="417" y="-59" font-family="Helvetica,sans-Serif" font-size="10.00">VirtualKeyboardMouseWidget</text>
<text text-anchor="start" x="417" y="-48" font-family="Helvetica,sans-Serif" font-size="10.00">::establishVirtualKeyboardSingle</text>
<text text-anchor="middle" x="496.5" y="-37" font-family="Helvetica,sans-Serif" font-size="10.00">SignalConnections</text>
</a>
</g>
</g>
<!-- Node9&#45;&gt;Node10 -->
<g id="edge13" class="edge">
<title>Node9&#45;&gt;Node10</title>
<path fill="none" stroke="midnightblue" d="M829.7,-44.35C755.49,-45.72 655.22,-47.58 584.31,-48.89"/>
<polygon fill="midnightblue" stroke="midnightblue" points="830.06,-47.84 839.99,-44.16 829.93,-40.84 830.06,-47.84"/>
</g>
<!-- Node12 -->
<g id="node12" class="node">
<title>Node12</title>
<g id="a_node12"><a xlink:href="classVirtualKeyboardMouseWidget.html#a019229171c104fb3d7b85a41c1dfc2d1" target="_top" xlink:title=" ">
<polygon fill="white" stroke="black" points="643,-0.5 643,-30.5 804,-30.5 804,-0.5 643,-0.5"/>
<text text-anchor="start" x="651" y="-18.5" font-family="Helvetica,sans-Serif" font-size="10.00">VirtualKeyboardMouseWidget</text>
<text text-anchor="middle" x="723.5" y="-7.5" font-family="Helvetica,sans-Serif" font-size="10.00">::otherKeysActionSingle</text>
</a>
</g>
</g>
<!-- Node9&#45;&gt;Node12 -->
<g id="edge16" class="edge">
<title>Node9&#45;&gt;Node12</title>
<path fill="none" stroke="midnightblue" d="M829.84,-29.37C821.27,-28.24 812.66,-27.11 804.28,-26.01"/>
<polygon fill="midnightblue" stroke="midnightblue" points="829.51,-32.86 839.88,-30.7 830.42,-25.92 829.51,-32.86"/>
</g>
<!-- Node10&#45;&gt;Node5 -->
<g id="edge14" class="edge">
<title>Node10&#45;&gt;Node5</title>
<path fill="none" stroke="midnightblue" d="M404.6,-74.15C398.27,-76.18 392.01,-78.3 386,-80.5 352.95,-92.56 316.53,-109.89 291.87,-122.27"/>
<polygon fill="midnightblue" stroke="midnightblue" points="406.08,-77.36 414.59,-71.04 404,-70.67 406.08,-77.36"/>
</g>
<!-- Node11 -->
<g id="node11" class="node">
<title>Node11</title>
<g id="a_node11"><a xlink:href="classVirtualKeyboardMouseWidget.html#a5117686d29ac16c0d1f947da9ba7b7a4" target="_top" xlink:title=" ">
<polygon fill="white" stroke="black" points="178,-48.5 178,-78.5 345,-78.5 345,-48.5 178,-48.5"/>
<text text-anchor="start" x="186" y="-66.5" font-family="Helvetica,sans-Serif" font-size="10.00">VirtualKeyboardMouseWidget</text>
<text text-anchor="middle" x="261.5" y="-55.5" font-family="Helvetica,sans-Serif" font-size="10.00">::VirtualKeyboardMouseWidget</text>
</a>
</g>
</g>
<!-- Node10&#45;&gt;Node11 -->
<g id="edge15" class="edge">
<title>Node10&#45;&gt;Node11</title>
<path fill="none" stroke="midnightblue" d="M398.39,-55.92C380.67,-56.91 362.33,-57.93 345.08,-58.89"/>
<polygon fill="midnightblue" stroke="midnightblue" points="398.95,-59.39 408.74,-55.34 398.56,-52.4 398.95,-59.39"/>
</g>
<!-- Node12&#45;&gt;Node10 -->
<g id="edge17" class="edge">
<title>Node12&#45;&gt;Node10</title>
<path fill="none" stroke="midnightblue" d="M632.97,-29.43C616.94,-31.92 600.26,-34.52 584.3,-37"/>
<polygon fill="midnightblue" stroke="midnightblue" points="633.51,-32.88 642.86,-27.89 632.44,-25.97 633.51,-32.88"/>
</g>
<!-- Node14 -->
<g id="node14" class="node">
<title>Node14</title>
<g id="a_node14"><a xlink:href="classVirtualKeyboardMouseWidget.html#ae98ecab176697aed0ca87609ceceaf06" target="_top" xlink:title=" ">
<polygon fill="white" stroke="black" points="386,-90.5 386,-120.5 607,-120.5 607,-90.5 386,-90.5"/>
<text text-anchor="start" x="394" y="-108.5" font-family="Helvetica,sans-Serif" font-size="10.00">VirtualKeyboardMouseWidget</text>
<text text-anchor="middle" x="496.5" y="-97.5" font-family="Helvetica,sans-Serif" font-size="10.00">::establishVirtualMouseSignalConnections</text>
</a>
</g>
</g>
<!-- Node13&#45;&gt;Node14 -->
<g id="edge19" class="edge">
<title>Node13&#45;&gt;Node14</title>
<path fill="none" stroke="midnightblue" d="M836.8,-105.5C769.45,-105.5 678.07,-105.5 607.1,-105.5"/>
<polygon fill="midnightblue" stroke="midnightblue" points="836.97,-109 846.97,-105.5 836.97,-102 836.97,-109"/>
</g>
<!-- Node14&#45;&gt;Node5 -->
<g id="edge20" class="edge">
<title>Node14&#45;&gt;Node5</title>
<path fill="none" stroke="midnightblue" d="M375.97,-121.92C367.29,-123.11 358.64,-124.3 350.19,-125.46"/>
<polygon fill="midnightblue" stroke="midnightblue" points="376.73,-125.34 386.16,-120.52 375.78,-118.41 376.73,-125.34"/>
</g>
<!-- Node14&#45;&gt;Node11 -->
<g id="edge21" class="edge">
<title>Node14&#45;&gt;Node11</title>
<path fill="none" stroke="midnightblue" d="M402.03,-88.65C383.29,-85.27 363.73,-81.75 345.38,-78.44"/>
<polygon fill="midnightblue" stroke="midnightblue" points="401.58,-92.13 412.04,-90.46 402.82,-85.24 401.58,-92.13"/>
</g>
</g>
</svg>
        <g id="navigator" transform="translate(0 0)" fill="#404254">
                <rect fill="#f2f5e9" fill-opacity="0.5" stroke="#606060" stroke-width=".5" x="0" y="0" width="60" height="60"/>
                <use id="zoomplus" xlink:href="#zoomPlus" x="17" y="9" onmousedown="handleZoom(evt,'in')"/>
                <use id="zoomminus" xlink:href="#zoomMin" x="42" y="9" onmousedown="handleZoom(evt,'out')"/>
                <use id="reset" xlink:href="#resetDef" x="30" y="36" onmousedown="handleReset()"/>
                <g id="arrowUp" xlink:href="#dirArrow" transform="translate(30 24)" onmousedown="handlePan(0,-1)">
                  <use xlink:href="#rim" fill="#404040">
                        <set attributeName="fill" to="#808080" begin="arrowUp.mouseover" end="arrowUp.mouseout"/>
                  </use>
                  <path fill="none" stroke="white" stroke-width="1.5" d="M0,-3.0v7 M-2.5,-0.5L0,-3.0L2.5,-0.5"/>
                </g>
                <g id="arrowRight" xlink:href="#dirArrow" transform="rotate(90) translate(36 -43)" onmousedown="handlePan(1,0)">
                  <use xlink:href="#rim" fill="#404040">
                        <set attributeName="fill" to="#808080" begin="arrowRight.mouseover" end="arrowRight.mouseout"/>
                  </use>
                  <path fill="none" stroke="white" stroke-width="1.5" d="M0,-3.0v7 M-2.5,-0.5L0,-3.0L2.5,-0.5"/>
                </g>
                <g id="arrowDown" xlink:href="#dirArrow" transform="rotate(180) translate(-30 -48)" onmousedown="handlePan(0,1)">
                  <use xlink:href="#rim" fill="#404040">
                        <set attributeName="fill" to="#808080" begin="arrowDown.mouseover" end="arrowDown.mouseout"/>
                  </use>
                  <path fill="none" stroke="white" stroke-width="1.5" d="M0,-3.0v7 M-2.5,-0.5L0,-3.0L2.5,-0.5"/>
                </g>
                <g id="arrowLeft" xlink:href="#dirArrow" transform="rotate(270) translate(-36 17)" onmousedown="handlePan(-1,0)">
                  <use xlink:href="#rim" fill="#404040">
                        <set attributeName="fill" to="#808080" begin="arrowLeft.mouseover" end="arrowLeft.mouseout"/>
                  </use>
                  <path fill="none" stroke="white" stroke-width="1.5" d="M0,-3.0v7 M-2.5,-0.5L0,-3.0L2.5,-0.5"/>
                </g>
        </g>
        <svg viewBox="0 0 15 15" width="100%" height="30px" preserveAspectRatio="xMaxYMin meet">
         <g id="arrow_out" transform="scale(0.3 0.3)">
          <a xlink:href="classButtonEditDialog_a88d97effdbddb77cc830fe0376e425ff_icgraph_org.svg" target="_base">
           <rect id="button" ry="5" rx="5" y="6" x="6" height="38" width="38"
                fill="#f2f5e9" fill-opacity="0.5" stroke="#606060" stroke-width="1.0"/>
           <path id="arrow"
             d="M 11.500037,31.436501 C 11.940474,20.09759 22.043105,11.32322 32.158766,21.979434 L 37.068811,17.246167 C 37.068811,17.246167 37.088388,32 37.088388,32 L 22.160133,31.978069 C 22.160133,31.978069 26.997745,27.140456 26.997745,27.140456 C 18.528582,18.264221 13.291696,25.230495 11.500037,31.436501 z"
             style="fill:#404040;"/>
          </a>
         </g>
        </svg>
</svg>
