<?xml version="1.0" encoding="UTF-8" standalone="no"?>
<!DOCTYPE svg PUBLIC "-//W3C//DTD SVG 1.1//EN"
 "http://www.w3.org/Graphics/SVG/1.1/DTD/svg11.dtd">
<!-- Generated by graphviz version 2.43.0 (0)
 -->
<!-- Title: DPadPushButtonGroup::generateBtnForGrid Pages: 1 -->
<svg width="528pt" height="152pt"
 viewBox="0.00 0.00 528.00 151.50" xmlns="http://www.w3.org/2000/svg" xmlns:xlink="http://www.w3.org/1999/xlink">
<g id="graph0" class="graph" transform="scale(1 1) rotate(0) translate(4 147.5)">
<title>DPadPushButtonGroup::generateBtnForGrid</title>
<polygon fill="white" stroke="transparent" points="-4,4 -4,-147.5 524,-147.5 524,4 -4,4"/>
<!-- Node1 -->
<g id="node1" class="node">
<title>Node1</title>
<g id="a_node1"><a xlink:title=" ">
<polygon fill="#bfbfbf" stroke="black" points="0,-49.5 0,-79.5 126,-79.5 126,-49.5 0,-49.5"/>
<text text-anchor="start" x="8" y="-67.5" font-family="Helvetica,sans-Serif" font-size="10.00">DPadPushButtonGroup</text>
<text text-anchor="middle" x="63" y="-56.5" font-family="Helvetica,sans-Serif" font-size="10.00">::generateBtnForGrid</text>
</a>
</g>
</g>
<!-- Node2 -->
<g id="node2" class="node">
<title>Node2</title>
<g id="a_node2"><a xlink:href="classJoyButton.html#a08206c3d636852749ad6e1bb731de4fa" target="_top" xlink:title=" ">
<polygon fill="white" stroke="black" points="162,-111.5 162,-141.5 317,-141.5 317,-111.5 162,-111.5"/>
<text text-anchor="start" x="170" y="-129.5" font-family="Helvetica,sans-Serif" font-size="10.00">JoyButton::establishProperty</text>
<text text-anchor="middle" x="239.5" y="-118.5" font-family="Helvetica,sans-Serif" font-size="10.00">UpdatedConnections</text>
</a>
</g>
</g>
<!-- Node1&#45;&gt;Node2 -->
<g id="edge1" class="edge">
<title>Node1&#45;&gt;Node2</title>
<path fill="none" stroke="midnightblue" d="M106.24,-79.51C130.39,-88.09 160.87,-98.92 186.49,-108.02"/>
<polygon fill="midnightblue" stroke="midnightblue" points="185.45,-111.36 196.04,-111.41 187.79,-104.77 185.45,-111.36"/>
</g>
<!-- Node4 -->
<g id="node4" class="node">
<title>Node4</title>
<g id="a_node4"><a xlink:href="classDPadPushButtonGroup.html#a74fc4e4e542e261b2430124b56d5ac07" target="_top" xlink:title=" ">
<polygon fill="white" stroke="black" points="172,-49.5 172,-79.5 307,-79.5 307,-49.5 172,-49.5"/>
<text text-anchor="start" x="180" y="-67.5" font-family="Helvetica,sans-Serif" font-size="10.00">DPadPushButtonGroup</text>
<text text-anchor="middle" x="239.5" y="-56.5" font-family="Helvetica,sans-Serif" font-size="10.00">::openDPadButtonDialog</text>
</a>
</g>
</g>
<!-- Node1&#45;&gt;Node4 -->
<g id="edge3" class="edge">
<title>Node1&#45;&gt;Node4</title>
<path fill="none" stroke="midnightblue" d="M126.01,-64.5C137.65,-64.5 149.93,-64.5 161.95,-64.5"/>
<polygon fill="midnightblue" stroke="midnightblue" points="161.95,-68 171.95,-64.5 161.95,-61 161.95,-68"/>
</g>
<!-- Node8 -->
<g id="node8" class="node">
<title>Node8</title>
<g id="a_node8"><a xlink:href="classDPadPushButtonGroup.html#aa1687920eaeb158af7d1c4e20d5fa317" target="_top" xlink:title=" ">
<polygon fill="white" stroke="black" points="170,-0.5 170,-30.5 309,-30.5 309,-0.5 170,-0.5"/>
<text text-anchor="start" x="178" y="-18.5" font-family="Helvetica,sans-Serif" font-size="10.00">DPadPushButtonGroup</text>
<text text-anchor="middle" x="239.5" y="-7.5" font-family="Helvetica,sans-Serif" font-size="10.00">::propogateSlotsChanged</text>
</a>
</g>
</g>
<!-- Node1&#45;&gt;Node8 -->
<g id="edge7" class="edge">
<title>Node1&#45;&gt;Node8</title>
<path fill="none" stroke="midnightblue" d="M117.78,-49.4C135.94,-44.3 156.39,-38.56 175.22,-33.27"/>
<polygon fill="midnightblue" stroke="midnightblue" points="176.22,-36.62 184.9,-30.55 174.32,-29.89 176.22,-36.62"/>
</g>
<!-- Node3 -->
<g id="node3" class="node">
<title>Node3</title>
<g id="a_node3"><a xlink:href="classInputDevice.html#af5b2520af7b76ff18bf3c79c02e73569" target="_top" xlink:title=" ">
<polygon fill="white" stroke="black" points="365,-124 365,-143 508,-143 508,-124 365,-124"/>
<text text-anchor="middle" x="436.5" y="-131" font-family="Helvetica,sans-Serif" font-size="10.00">InputDevice::profileEdited</text>
</a>
</g>
</g>
<!-- Node2&#45;&gt;Node3 -->
<g id="edge2" class="edge">
<title>Node2&#45;&gt;Node3</title>
<path fill="none" stroke="midnightblue" d="M317.01,-129.25C329.35,-129.69 342.15,-130.15 354.59,-130.6"/>
<polygon fill="midnightblue" stroke="midnightblue" points="354.81,-134.11 364.93,-130.97 355.06,-127.11 354.81,-134.11"/>
</g>
<!-- Node5 -->
<g id="node5" class="node">
<title>Node5</title>
<g id="a_node5"><a xlink:href="classSetJoystick.html#af641cbddd22e358218ba68497e40e4e3" target="_top" xlink:title=" ">
<polygon fill="white" stroke="black" points="361,-86 361,-105 512,-105 512,-86 361,-86"/>
<text text-anchor="middle" x="436.5" y="-93" font-family="Helvetica,sans-Serif" font-size="10.00">SetJoystick::getInputDevice</text>
</a>
</g>
</g>
<!-- Node4&#45;&gt;Node5 -->
<g id="edge4" class="edge">
<title>Node4&#45;&gt;Node5</title>
<path fill="none" stroke="midnightblue" d="M307.06,-75.08C325.86,-78.07 346.37,-81.33 365.37,-84.35"/>
<polygon fill="midnightblue" stroke="midnightblue" points="365.03,-87.84 375.45,-85.95 366.12,-80.93 365.03,-87.84"/>
</g>
<!-- Node6 -->
<g id="node6" class="node">
<title>Node6</title>
<g id="a_node6"><a xlink:href="classJoyButtonWidget.html#ab722c96c5d829aa855b769cdb293b187" target="_top" xlink:title=" ">
<polygon fill="white" stroke="black" points="353,-48 353,-67 520,-67 520,-48 353,-48"/>
<text text-anchor="middle" x="436.5" y="-55" font-family="Helvetica,sans-Serif" font-size="10.00">JoyButtonWidget::getJoyButton</text>
</a>
</g>
</g>
<!-- Node4&#45;&gt;Node6 -->
<g id="edge5" class="edge">
<title>Node4&#45;&gt;Node6</title>
<path fill="none" stroke="midnightblue" d="M307.06,-62.11C318.53,-61.7 330.63,-61.26 342.63,-60.83"/>
<polygon fill="midnightblue" stroke="midnightblue" points="342.81,-64.33 352.68,-60.47 342.56,-57.33 342.81,-64.33"/>
</g>
<!-- Node7 -->
<g id="node7" class="node">
<title>Node7</title>
<g id="a_node7"><a xlink:href="classJoyDPad.html#a0101f057cf5bfc971812c6497439ab79" target="_top" xlink:title=" ">
<polygon fill="white" stroke="black" points="374,-10 374,-29 499,-29 499,-10 374,-10"/>
<text text-anchor="middle" x="436.5" y="-17" font-family="Helvetica,sans-Serif" font-size="10.00">JoyDPad::getParentSet</text>
</a>
</g>
</g>
<!-- Node4&#45;&gt;Node7 -->
<g id="edge6" class="edge">
<title>Node4&#45;&gt;Node7</title>
<path fill="none" stroke="midnightblue" d="M305.64,-49.44C321.16,-45.85 337.67,-42.04 353,-38.5 362.99,-36.2 373.66,-33.74 383.9,-31.38"/>
<polygon fill="midnightblue" stroke="midnightblue" points="384.99,-34.72 393.95,-29.06 383.42,-27.9 384.99,-34.72"/>
</g>
</g>
</svg>
