<?xml version="1.0" encoding="UTF-8" standalone="no"?>
<!DOCTYPE svg PUBLIC "-//W3C//DTD SVG 1.1//EN"
 "http://www.w3.org/Graphics/SVG/1.1/DTD/svg11.dtd">
<!-- Generated by graphviz version 2.43.0 (0)
 -->
<!-- Title: MouseAxisSettingsDialog::selectCurrentMouseModePreset Pages: 1 -->
<svg width="603pt" height="78pt"
 viewBox="0.00 0.00 603.00 77.50" xmlns="http://www.w3.org/2000/svg" xmlns:xlink="http://www.w3.org/1999/xlink">
<g id="graph0" class="graph" transform="scale(1 1) rotate(0) translate(4 73.5)">
<title>MouseAxisSettingsDialog::selectCurrentMouseModePreset</title>
<polygon fill="white" stroke="transparent" points="-4,4 -4,-73.5 599,-73.5 599,4 -4,4"/>
<!-- Node1 -->
<g id="node1" class="node">
<title>Node1</title>
<g id="a_node1"><a xlink:title=" ">
<polygon fill="#bfbfbf" stroke="black" points="0,-17 0,-47 178,-47 178,-17 0,-17"/>
<text text-anchor="start" x="8" y="-35" font-family="Helvetica,sans-Serif" font-size="10.00">MouseAxisSettingsDialog</text>
<text text-anchor="middle" x="89" y="-24" font-family="Helvetica,sans-Serif" font-size="10.00">::selectCurrentMouseModePreset</text>
</a>
</g>
</g>
<!-- Node2 -->
<g id="node2" class="node">
<title>Node2</title>
<g id="a_node2"><a xlink:href="classJoyAxis.html#aa5476524f6367d414b5b703962bcb27a" target="_top" xlink:title=" ">
<polygon fill="white" stroke="black" points="242.5,-39 242.5,-69 385.5,-69 385.5,-39 242.5,-39"/>
<text text-anchor="start" x="250.5" y="-57" font-family="Helvetica,sans-Serif" font-size="10.00">JoyAxis::getButtonsPreset</text>
<text text-anchor="middle" x="314" y="-46" font-family="Helvetica,sans-Serif" font-size="10.00">MouseMode</text>
</a>
</g>
</g>
<!-- Node1&#45;&gt;Node2 -->
<g id="edge1" class="edge">
<title>Node1&#45;&gt;Node2</title>
<path fill="none" stroke="midnightblue" d="M178.14,-40.69C195.95,-42.45 214.59,-44.29 232.13,-46.02"/>
<polygon fill="midnightblue" stroke="midnightblue" points="232.03,-49.53 242.32,-47.03 232.71,-42.56 232.03,-49.53"/>
</g>
<!-- Node4 -->
<g id="node4" class="node">
<title>Node4</title>
<g id="a_node4"><a xlink:href="classJoyAxis.html#a58a670328abc2da48f29b24781f4c6e4" target="_top" xlink:title=" ">
<polygon fill="white" stroke="black" points="214,-0.5 214,-19.5 414,-19.5 414,-0.5 214,-0.5"/>
<text text-anchor="middle" x="314" y="-7.5" font-family="Helvetica,sans-Serif" font-size="10.00">JoyAxis::hasSameButtonsMouseMode</text>
</a>
</g>
</g>
<!-- Node1&#45;&gt;Node4 -->
<g id="edge3" class="edge">
<title>Node1&#45;&gt;Node4</title>
<path fill="none" stroke="midnightblue" d="M178.14,-23.31C187.43,-22.39 196.96,-21.45 206.44,-20.51"/>
<polygon fill="midnightblue" stroke="midnightblue" points="207.08,-23.97 216.69,-19.5 206.39,-17 207.08,-23.97"/>
</g>
<!-- Node3 -->
<g id="node3" class="node">
<title>Node3</title>
<g id="a_node3"><a xlink:href="classJoyButton.html#a581ec2c6d19bb51b2dd5bbe0f4da50fb" target="_top" xlink:title=" ">
<polygon fill="white" stroke="black" points="450,-22.5 450,-41.5 595,-41.5 595,-22.5 450,-22.5"/>
<text text-anchor="middle" x="522.5" y="-29.5" font-family="Helvetica,sans-Serif" font-size="10.00">JoyButton::getMouseMode</text>
</a>
</g>
</g>
<!-- Node2&#45;&gt;Node3 -->
<g id="edge2" class="edge">
<title>Node2&#45;&gt;Node3</title>
<path fill="none" stroke="midnightblue" d="M385.78,-46.46C403.05,-44.62 421.68,-42.63 439.43,-40.74"/>
<polygon fill="midnightblue" stroke="midnightblue" points="440.19,-44.18 449.76,-39.64 439.45,-37.22 440.19,-44.18"/>
</g>
<!-- Node4&#45;&gt;Node3 -->
<g id="edge4" class="edge">
<title>Node4&#45;&gt;Node3</title>
<path fill="none" stroke="midnightblue" d="M404.37,-19.52C416.09,-20.77 428.05,-22.04 439.64,-23.28"/>
<polygon fill="midnightblue" stroke="midnightblue" points="439.39,-26.77 449.71,-24.35 440.13,-19.81 439.39,-26.77"/>
</g>
</g>
</svg>
