<?xml version="1.0" encoding="UTF-8" standalone="no"?>
<!DOCTYPE svg PUBLIC "-//W3C//DTD SVG 1.1//EN"
 "http://www.w3.org/Graphics/SVG/1.1/DTD/svg11.dtd">
<!-- Generated by graphviz version 2.43.0 (0)
 -->
<!-- Title: InputDevice::getNumberRawButtons Pages: 1 -->
<!--zoomable 258 -->
<svg id="main" version="1.1" xmlns="http://www.w3.org/2000/svg" xmlns:xlink="http://www.w3.org/1999/xlink" xml:space="preserve" onload="init(evt)">
<style type="text/css"><![CDATA[
.edge:hover path { stroke: red; }
.edge:hover polygon { stroke: red; fill: red; }
]]></style>
<script type="text/javascript"><![CDATA[
var edges = document.getElementsByTagName('g');
if (edges && edges.length) {
  for (var i=0;i<edges.length;i++) {
    if (edges[i].id.substr(0,4)=='edge') {
      edges[i].setAttribute('class','edge');
    }
  }
}
]]></script>
        <defs>
                <circle id="rim" cx="0" cy="0" r="7"/>
                <circle id="rim2" cx="0" cy="0" r="3.5"/>
                <g id="zoomPlus">
                        <use xlink:href="#rim" fill="#404040">
                                <set attributeName="fill" to="#808080" begin="zoomplus.mouseover" end="zoomplus.mouseout"/>
                        </use>
                        <path d="M-4,0h8M0,-4v8" fill="none" stroke="white" stroke-width="1.5" pointer-events="none"/>
                </g>
                <g id="zoomMin">
                        <use xlink:href="#rim" fill="#404040">
                                <set attributeName="fill" to="#808080" begin="zoomminus.mouseover" end="zoomminus.mouseout"/>
                        </use>
                        <path d="M-4,0h8" fill="none" stroke="white" stroke-width="1.5" pointer-events="none"/>
                </g>
                <g id="dirArrow">
                        <path fill="none" stroke="white" stroke-width="1.5" d="M0,-3.0v7 M-2.5,-0.5L0,-3.0L2.5,-0.5"/>
                </g>
               <g id="resetDef">
                       <use xlink:href="#rim2" fill="#404040">
                               <set attributeName="fill" to="#808080" begin="reset.mouseover" end="reset.mouseout"/>
                       </use>
               </g>
        </defs>

<script type="text/javascript">
var viewWidth = 1311;
var viewHeight = 258;
var sectionId = 'dynsection-90';
</script>
<script xlink:href="svgpan.js"/>
<svg id="graph" class="graph">
<g id="viewport">
<title>InputDevice::getNumberRawButtons</title>
<polygon fill="white" stroke="transparent" points="-4,4 -4,-253.5 1307,-253.5 1307,4 -4,4"/>
<!-- Node1 -->
<g id="node1" class="node">
<title>Node1</title>
<g id="a_node1"><a xlink:title=" ">
<polygon fill="#bfbfbf" stroke="black" points="1146,-117.5 1146,-147.5 1303,-147.5 1303,-117.5 1146,-117.5"/>
<text text-anchor="start" x="1154" y="-135.5" font-family="Helvetica,sans-Serif" font-size="10.00">InputDevice::getNumberRaw</text>
<text text-anchor="middle" x="1224.5" y="-124.5" font-family="Helvetica,sans-Serif" font-size="10.00">Buttons</text>
</a>
</g>
</g>
<!-- Node2 -->
<g id="node2" class="node">
<title>Node2</title>
<g id="a_node2"><a xlink:href="classInputDevice.html#a10a6d5bfd9b2237a544e2b0c7957b42e" target="_top" xlink:title=" ">
<polygon fill="white" stroke="black" points="958,-192 958,-211 1110,-211 1110,-192 958,-192"/>
<text text-anchor="middle" x="1034" y="-199" font-family="Helvetica,sans-Serif" font-size="10.00">InputDevice::getDescription</text>
</a>
</g>
</g>
<!-- Node1&#45;&gt;Node2 -->
<g id="edge1" class="edge">
<title>Node1&#45;&gt;Node2</title>
<path fill="none" stroke="midnightblue" d="M1183.61,-152.03C1162.14,-162.03 1135.01,-173.89 1110,-182.5 1099.71,-186.04 1088.43,-189.24 1077.8,-191.97"/>
<polygon fill="midnightblue" stroke="midnightblue" points="1185.19,-155.15 1192.74,-147.72 1182.21,-148.82 1185.19,-155.15"/>
</g>
<!-- Node7 -->
<g id="node7" class="node">
<title>Node7</title>
<g id="a_node7"><a xlink:href="classInputDeviceBitArrayStatus.html#a4255eb1af0e32f80549c0f662985d395" target="_top" xlink:title=" ">
<polygon fill="white" stroke="black" points="958,-142.5 958,-172.5 1110,-172.5 1110,-142.5 958,-142.5"/>
<text text-anchor="start" x="966" y="-160.5" font-family="Helvetica,sans-Serif" font-size="10.00">InputDeviceBitArrayStatus</text>
<text text-anchor="middle" x="1034" y="-149.5" font-family="Helvetica,sans-Serif" font-size="10.00">::InputDeviceBitArrayStatus</text>
</a>
</g>
</g>
<!-- Node1&#45;&gt;Node7 -->
<g id="edge6" class="edge">
<title>Node1&#45;&gt;Node7</title>
<path fill="none" stroke="midnightblue" d="M1135.75,-144.14C1127.19,-145.27 1118.57,-146.42 1110.15,-147.53"/>
<polygon fill="midnightblue" stroke="midnightblue" points="1136.29,-147.6 1145.74,-142.81 1135.37,-140.66 1136.29,-147.6"/>
</g>
<!-- Node8 -->
<g id="node8" class="node">
<title>Node8</title>
<g id="a_node8"><a xlink:href="classJoystickStatusWindow.html#a96d9e83b764e14faed4c4dc275d23c45" target="_top" xlink:title=" ">
<polygon fill="white" stroke="black" points="968.5,-93.5 968.5,-123.5 1099.5,-123.5 1099.5,-93.5 968.5,-93.5"/>
<text text-anchor="start" x="976.5" y="-111.5" font-family="Helvetica,sans-Serif" font-size="10.00">JoystickStatusWindow</text>
<text text-anchor="middle" x="1034" y="-100.5" font-family="Helvetica,sans-Serif" font-size="10.00">::JoystickStatusWindow</text>
</a>
</g>
</g>
<!-- Node1&#45;&gt;Node8 -->
<g id="edge7" class="edge">
<title>Node1&#45;&gt;Node8</title>
<path fill="none" stroke="midnightblue" d="M1135.62,-121.31C1123.52,-119.77 1111.27,-118.21 1099.69,-116.74"/>
<polygon fill="midnightblue" stroke="midnightblue" points="1135.38,-124.81 1145.74,-122.6 1136.26,-117.86 1135.38,-124.81"/>
</g>
<!-- Node9 -->
<g id="node9" class="node">
<title>Node9</title>
<g id="a_node9"><a xlink:href="classSetJoystick.html#ae963eb0bae6e55ff9308c2173cf94db7" target="_top" xlink:title=" ">
<polygon fill="white" stroke="black" points="959.5,-55 959.5,-74 1108.5,-74 1108.5,-55 959.5,-55"/>
<text text-anchor="middle" x="1034" y="-62" font-family="Helvetica,sans-Serif" font-size="10.00">SetJoystick::refreshButtons</text>
</a>
</g>
</g>
<!-- Node1&#45;&gt;Node9 -->
<g id="edge8" class="edge">
<title>Node1&#45;&gt;Node9</title>
<path fill="none" stroke="midnightblue" d="M1181.82,-113.23C1160.6,-103.83 1134.22,-92.81 1110,-84.5 1098.78,-80.65 1086.41,-77.09 1075.01,-74.07"/>
<polygon fill="midnightblue" stroke="midnightblue" points="1180.63,-116.53 1191.19,-117.41 1183.49,-110.14 1180.63,-116.53"/>
</g>
<!-- Node3 -->
<g id="node3" class="node">
<title>Node3</title>
<g id="a_node3"><a xlink:href="classGameController.html#afcddb9dcc5442a9746c3ff8760ea1791" target="_top" xlink:title=" ">
<polygon fill="white" stroke="black" points="735.5,-230 735.5,-249 912.5,-249 912.5,-230 735.5,-230"/>
<text text-anchor="middle" x="824" y="-237" font-family="Helvetica,sans-Serif" font-size="10.00">GameController::GameController</text>
</a>
</g>
</g>
<!-- Node2&#45;&gt;Node3 -->
<g id="edge2" class="edge">
<title>Node2&#45;&gt;Node3</title>
<path fill="none" stroke="midnightblue" d="M970.89,-212.85C941.05,-218.3 905.68,-224.76 877.24,-229.96"/>
<polygon fill="midnightblue" stroke="midnightblue" points="971.57,-216.28 980.78,-211.04 970.32,-209.39 971.57,-216.28"/>
</g>
<!-- Node4 -->
<g id="node4" class="node">
<title>Node4</title>
<g id="a_node4"><a xlink:href="classJoystick.html#a9df5e53506876f3c95e84bdf6c9cbaf1" target="_top" xlink:title=" ">
<polygon fill="white" stroke="black" points="774.5,-192 774.5,-211 873.5,-211 873.5,-192 774.5,-192"/>
<text text-anchor="middle" x="824" y="-199" font-family="Helvetica,sans-Serif" font-size="10.00">Joystick::Joystick</text>
</a>
</g>
</g>
<!-- Node2&#45;&gt;Node4 -->
<g id="edge3" class="edge">
<title>Node2&#45;&gt;Node4</title>
<path fill="none" stroke="midnightblue" d="M947.6,-201.5C922.42,-201.5 895.74,-201.5 873.72,-201.5"/>
<polygon fill="midnightblue" stroke="midnightblue" points="947.91,-205 957.91,-201.5 947.91,-198 947.91,-205"/>
</g>
<!-- Node5 -->
<g id="node5" class="node">
<title>Node5</title>
<g id="a_node5"><a xlink:href="classAppLaunchHelper.html#a13afb00ecda614a2290209339436d4a7" target="_top" xlink:title=" ">
<polygon fill="white" stroke="black" points="726,-154 726,-173 922,-173 922,-154 726,-154"/>
<text text-anchor="middle" x="824" y="-161" font-family="Helvetica,sans-Serif" font-size="10.00">AppLaunchHelper::printControllerList</text>
</a>
</g>
</g>
<!-- Node2&#45;&gt;Node5 -->
<g id="edge4" class="edge">
<title>Node2&#45;&gt;Node5</title>
<path fill="none" stroke="midnightblue" d="M970.89,-190.15C941.05,-184.7 905.68,-178.24 877.24,-173.04"/>
<polygon fill="midnightblue" stroke="midnightblue" points="970.32,-193.61 980.78,-191.96 971.57,-186.72 970.32,-193.61"/>
</g>
<!-- Node6 -->
<g id="node6" class="node">
<title>Node6</title>
<g id="a_node6"><a xlink:href="main_8cpp.html#a0ddf1224851353fc92bfbff6f499fa97" target="_top" xlink:title=" ">
<polygon fill="white" stroke="black" points="604,-154 604,-173 645,-173 645,-154 604,-154"/>
<text text-anchor="middle" x="624.5" y="-161" font-family="Helvetica,sans-Serif" font-size="10.00">main</text>
</a>
</g>
</g>
<!-- Node5&#45;&gt;Node6 -->
<g id="edge5" class="edge">
<title>Node5&#45;&gt;Node6</title>
<path fill="none" stroke="midnightblue" d="M715.94,-163.5C688.74,-163.5 662.39,-163.5 645.22,-163.5"/>
<polygon fill="midnightblue" stroke="midnightblue" points="715.99,-167 725.99,-163.5 715.99,-160 715.99,-167"/>
</g>
<!-- Node10 -->
<g id="node10" class="node">
<title>Node10</title>
<g id="a_node10"><a xlink:href="classSetJoystick.html#adc322b55002b149c9a7432d1008b8537" target="_top" xlink:title="Re&#45;enumerates inputs from the associated device and resets all mappings in this set.">
<polygon fill="white" stroke="black" points="773.5,-55 773.5,-74 874.5,-74 874.5,-55 773.5,-55"/>
<text text-anchor="middle" x="824" y="-62" font-family="Helvetica,sans-Serif" font-size="10.00">SetJoystick::reset</text>
</a>
</g>
</g>
<!-- Node9&#45;&gt;Node10 -->
<g id="edge9" class="edge">
<title>Node9&#45;&gt;Node10</title>
<path fill="none" stroke="midnightblue" d="M949.06,-64.5C923.84,-64.5 896.98,-64.5 874.73,-64.5"/>
<polygon fill="midnightblue" stroke="midnightblue" points="949.37,-68 959.37,-64.5 949.37,-61 949.37,-68"/>
</g>
<!-- Node11 -->
<g id="node11" class="node">
<title>Node11</title>
<g id="a_node11"><a xlink:href="classInputDevice.html#af7b290c37a1bcae1fbd0f0274d6cf646" target="_top" xlink:title=" ">
<polygon fill="white" stroke="black" points="571.5,-99 571.5,-118 677.5,-118 677.5,-99 571.5,-99"/>
<text text-anchor="middle" x="624.5" y="-106" font-family="Helvetica,sans-Serif" font-size="10.00">InputDevice::reset</text>
</a>
</g>
</g>
<!-- Node10&#45;&gt;Node11 -->
<g id="edge10" class="edge">
<title>Node10&#45;&gt;Node11</title>
<path fill="none" stroke="midnightblue" d="M770.11,-76.28C738.22,-83.39 698.14,-92.32 668.27,-98.97"/>
<polygon fill="midnightblue" stroke="midnightblue" points="771.15,-79.64 780.15,-74.05 769.62,-72.81 771.15,-79.64"/>
</g>
<!-- Node19 -->
<g id="node19" class="node">
<title>Node19</title>
<g id="a_node19"><a xlink:href="classGameControllerSet.html#a40b9c9ac22d6fe71c15380dcbca7eb80" target="_top" xlink:title=" ">
<polygon fill="white" stroke="black" points="566.5,-49.5 566.5,-79.5 682.5,-79.5 682.5,-49.5 566.5,-49.5"/>
<text text-anchor="start" x="574.5" y="-67.5" font-family="Helvetica,sans-Serif" font-size="10.00">GameControllerSet::</text>
<text text-anchor="middle" x="624.5" y="-56.5" font-family="Helvetica,sans-Serif" font-size="10.00">resetSticks</text>
</a>
</g>
</g>
<!-- Node10&#45;&gt;Node19 -->
<g id="edge19" class="edge">
<title>Node10&#45;&gt;Node19</title>
<path fill="none" stroke="midnightblue" d="M763.13,-64.5C737.64,-64.5 708.02,-64.5 682.81,-64.5"/>
<polygon fill="midnightblue" stroke="midnightblue" points="763.42,-68 773.42,-64.5 763.42,-61 763.42,-68"/>
</g>
<!-- Node22 -->
<g id="node22" class="node">
<title>Node22</title>
<g id="a_node22"><a xlink:href="classSetJoystick.html#ab9d47383844cb2c08581352a6c02bdab" target="_top" xlink:title=" ">
<polygon fill="white" stroke="black" points="559,-11 559,-30 690,-30 690,-11 559,-11"/>
<text text-anchor="middle" x="624.5" y="-18" font-family="Helvetica,sans-Serif" font-size="10.00">SetJoystick::SetJoystick</text>
</a>
</g>
</g>
<!-- Node10&#45;&gt;Node22 -->
<g id="edge22" class="edge">
<title>Node10&#45;&gt;Node22</title>
<path fill="none" stroke="midnightblue" d="M770.11,-52.72C738.22,-45.61 698.14,-36.68 668.27,-30.03"/>
<polygon fill="midnightblue" stroke="midnightblue" points="769.62,-56.19 780.15,-54.95 771.15,-49.36 769.62,-56.19"/>
</g>
<!-- Node12 -->
<g id="node12" class="node">
<title>Node12</title>
<g id="a_node12"><a xlink:href="classInputDaemon.html#a70fa1dbeac61db6cc29a96cdc57a4518" target="_top" xlink:title=" ">
<polygon fill="white" stroke="black" points="362,-137 362,-156 523,-156 523,-137 362,-137"/>
<text text-anchor="middle" x="442.5" y="-144" font-family="Helvetica,sans-Serif" font-size="10.00">InputDaemon::refreshJoystick</text>
</a>
</g>
</g>
<!-- Node11&#45;&gt;Node12 -->
<g id="edge11" class="edge">
<title>Node11&#45;&gt;Node12</title>
<path fill="none" stroke="midnightblue" d="M568.17,-120.18C542.64,-125.57 512.72,-131.89 488.59,-136.98"/>
<polygon fill="midnightblue" stroke="midnightblue" points="569.02,-123.58 578.08,-118.09 567.57,-116.73 569.02,-123.58"/>
</g>
<!-- Node13 -->
<g id="node13" class="node">
<title>Node13</title>
<g id="a_node13"><a xlink:href="classInputDevice.html#a767b4db5d307c9d851affed3c7e23a30" target="_top" xlink:title="Obtain current joystick element values, create new SetJoystick objects, and then transfer most recent...">
<polygon fill="white" stroke="black" points="369,-99 369,-118 516,-118 516,-99 369,-99"/>
<text text-anchor="middle" x="442.5" y="-106" font-family="Helvetica,sans-Serif" font-size="10.00">InputDevice::transferReset</text>
</a>
</g>
</g>
<!-- Node11&#45;&gt;Node13 -->
<g id="edge12" class="edge">
<title>Node11&#45;&gt;Node13</title>
<path fill="none" stroke="midnightblue" d="M561.1,-108.5C546.62,-108.5 531.08,-108.5 516.2,-108.5"/>
<polygon fill="midnightblue" stroke="midnightblue" points="561.44,-112 571.44,-108.5 561.44,-105 561.44,-112"/>
</g>
<!-- Node14 -->
<g id="node14" class="node">
<title>Node14</title>
<g id="a_node14"><a xlink:href="classInputDeviceXml.html#a847bf9ed17b554bf87d513a1aebdcb64" target="_top" xlink:title="Deserializes the given XML stream into an InputDevice object.">
<polygon fill="white" stroke="black" points="173,-159 173,-178 326,-178 326,-159 173,-159"/>
<text text-anchor="middle" x="249.5" y="-166" font-family="Helvetica,sans-Serif" font-size="10.00">InputDeviceXml::readConfig</text>
</a>
</g>
</g>
<!-- Node13&#45;&gt;Node14 -->
<g id="edge13" class="edge">
<title>Node13&#45;&gt;Node14</title>
<path fill="none" stroke="midnightblue" d="M384.68,-120.56C376.99,-122.63 369.25,-124.95 362,-127.5 345.31,-133.37 342.47,-138.03 326,-144.5 312.43,-149.83 297.15,-154.86 283.91,-158.93"/>
<polygon fill="midnightblue" stroke="midnightblue" points="385.56,-123.95 394.37,-118.06 383.81,-117.17 385.56,-123.95"/>
</g>
<!-- Node15 -->
<g id="node15" class="node">
<title>Node15</title>
<g id="a_node15"><a xlink:href="classGameControllerXml.html#a7e47256cae0d3815419bc254413777d1" target="_top" xlink:title="Deserializes the given XML stream into a GameController object.">
<polygon fill="white" stroke="black" points="9,-93.5 9,-123.5 128,-123.5 128,-93.5 9,-93.5"/>
<text text-anchor="start" x="17" y="-111.5" font-family="Helvetica,sans-Serif" font-size="10.00">GameControllerXml::</text>
<text text-anchor="middle" x="68.5" y="-100.5" font-family="Helvetica,sans-Serif" font-size="10.00">readConfig</text>
</a>
</g>
</g>
<!-- Node13&#45;&gt;Node15 -->
<g id="edge14" class="edge">
<title>Node13&#45;&gt;Node15</title>
<path fill="none" stroke="midnightblue" d="M358.75,-110.91C347.74,-111.15 336.6,-111.36 326,-111.5 258.01,-112.38 240.99,-112.49 173,-111.5 158.44,-111.29 142.73,-110.91 128.06,-110.49"/>
<polygon fill="midnightblue" stroke="midnightblue" points="358.89,-114.41 368.8,-110.68 358.72,-107.41 358.89,-114.41"/>
</g>
<!-- Node16 -->
<g id="node16" class="node">
<title>Node16</title>
<g id="a_node16"><a xlink:href="classGameControllerXml.html#aaa5257d4c6fe13f1d5fc51981e247c25" target="_top" xlink:title="Reads the XML tree from a &quot;joystick&quot; tag.">
<polygon fill="white" stroke="black" points="190,-71.5 190,-101.5 309,-101.5 309,-71.5 190,-71.5"/>
<text text-anchor="start" x="198" y="-89.5" font-family="Helvetica,sans-Serif" font-size="10.00">GameControllerXml::</text>
<text text-anchor="middle" x="249.5" y="-78.5" font-family="Helvetica,sans-Serif" font-size="10.00">readJoystickConfig</text>
</a>
</g>
</g>
<!-- Node13&#45;&gt;Node16 -->
<g id="edge15" class="edge">
<title>Node13&#45;&gt;Node16</title>
<path fill="none" stroke="midnightblue" d="M358.48,-98.94C341.85,-97.02 324.71,-95.05 309.12,-93.25"/>
<polygon fill="midnightblue" stroke="midnightblue" points="358.41,-102.45 368.75,-100.12 359.21,-95.5 358.41,-102.45"/>
</g>
<!-- Node17 -->
<g id="node17" class="node">
<title>Node17</title>
<g id="a_node17"><a xlink:href="classJoyTabWidgetHelper.html#aef94ae0812f28f43eb891ddc210c341e" target="_top" xlink:title=" ">
<polygon fill="white" stroke="black" points="192,-22.5 192,-52.5 307,-52.5 307,-22.5 192,-22.5"/>
<text text-anchor="start" x="200" y="-40.5" font-family="Helvetica,sans-Serif" font-size="10.00">JoyTabWidgetHelper</text>
<text text-anchor="middle" x="249.5" y="-29.5" font-family="Helvetica,sans-Serif" font-size="10.00">::reInitDevice</text>
</a>
</g>
</g>
<!-- Node13&#45;&gt;Node17 -->
<g id="edge17" class="edge">
<title>Node13&#45;&gt;Node17</title>
<path fill="none" stroke="midnightblue" d="M378.61,-96.04C372.89,-94.14 367.27,-91.97 362,-89.5 343.9,-81 343.72,-71.76 326,-62.5 318.9,-58.79 311.15,-55.48 303.39,-52.57"/>
<polygon fill="midnightblue" stroke="midnightblue" points="377.71,-99.42 388.29,-98.98 379.74,-92.73 377.71,-99.42"/>
</g>
<!-- Node16&#45;&gt;Node15 -->
<g id="edge16" class="edge">
<title>Node16&#45;&gt;Node15</title>
<path fill="none" stroke="midnightblue" d="M179.51,-94.98C162.59,-97.06 144.63,-99.27 128.24,-101.28"/>
<polygon fill="midnightblue" stroke="midnightblue" points="180.39,-98.4 189.89,-93.7 179.54,-91.45 180.39,-98.4"/>
</g>
<!-- Node18 -->
<g id="node18" class="node">
<title>Node18</title>
<g id="a_node18"><a xlink:href="classJoyTabWidgetHelper.html#acc5d7d51e925f84f9aa2936ce267f843" target="_top" xlink:title=" ">
<polygon fill="white" stroke="black" points="0,-22.5 0,-52.5 137,-52.5 137,-22.5 0,-22.5"/>
<text text-anchor="start" x="8" y="-40.5" font-family="Helvetica,sans-Serif" font-size="10.00">JoyTabWidgetHelper</text>
<text text-anchor="middle" x="68.5" y="-29.5" font-family="Helvetica,sans-Serif" font-size="10.00">::reInitDeviceWithRevert</text>
</a>
</g>
</g>
<!-- Node17&#45;&gt;Node18 -->
<g id="edge18" class="edge">
<title>Node17&#45;&gt;Node18</title>
<path fill="none" stroke="midnightblue" d="M181.46,-37.5C166.95,-37.5 151.58,-37.5 137.04,-37.5"/>
<polygon fill="midnightblue" stroke="midnightblue" points="181.86,-41 191.86,-37.5 181.86,-34 181.86,-41"/>
</g>
<!-- Node20 -->
<g id="node20" class="node">
<title>Node20</title>
<g id="a_node20"><a xlink:href="classGameControllerSet.html#a9d686fa2df459f7d157d60e05707f712" target="_top" xlink:title=" ">
<polygon fill="white" stroke="black" points="384.5,-49.5 384.5,-79.5 500.5,-79.5 500.5,-49.5 384.5,-49.5"/>
<text text-anchor="start" x="392.5" y="-67.5" font-family="Helvetica,sans-Serif" font-size="10.00">GameControllerSet::</text>
<text text-anchor="middle" x="442.5" y="-56.5" font-family="Helvetica,sans-Serif" font-size="10.00">GameControllerSet</text>
</a>
</g>
</g>
<!-- Node19&#45;&gt;Node20 -->
<g id="edge20" class="edge">
<title>Node19&#45;&gt;Node20</title>
<path fill="none" stroke="midnightblue" d="M555.83,-64.5C537.68,-64.5 518.23,-64.5 500.71,-64.5"/>
<polygon fill="midnightblue" stroke="midnightblue" points="556.05,-68 566.05,-64.5 556.05,-61 556.05,-68"/>
</g>
<!-- Node21 -->
<g id="node21" class="node">
<title>Node21</title>
<g id="a_node21"><a xlink:href="classGameControllerSet.html#a69d798af242a07017bc0f2e2d0d8a830" target="_top" xlink:title=" ">
<polygon fill="white" stroke="black" points="384.5,-0.5 384.5,-30.5 500.5,-30.5 500.5,-0.5 384.5,-0.5"/>
<text text-anchor="start" x="392.5" y="-18.5" font-family="Helvetica,sans-Serif" font-size="10.00">GameControllerSet::</text>
<text text-anchor="middle" x="442.5" y="-7.5" font-family="Helvetica,sans-Serif" font-size="10.00">reset</text>
</a>
</g>
</g>
<!-- Node19&#45;&gt;Node21 -->
<g id="edge21" class="edge">
<title>Node19&#45;&gt;Node21</title>
<path fill="none" stroke="midnightblue" d="M558.3,-46.75C538.79,-41.44 517.6,-35.67 498.79,-30.55"/>
<polygon fill="midnightblue" stroke="midnightblue" points="557.46,-50.15 568.03,-49.4 559.3,-43.39 557.46,-50.15"/>
</g>
</g>
</svg>
        <g id="navigator" transform="translate(0 0)" fill="#404254">
                <rect fill="#f2f5e9" fill-opacity="0.5" stroke="#606060" stroke-width=".5" x="0" y="0" width="60" height="60"/>
                <use id="zoomplus" xlink:href="#zoomPlus" x="17" y="9" onmousedown="handleZoom(evt,'in')"/>
                <use id="zoomminus" xlink:href="#zoomMin" x="42" y="9" onmousedown="handleZoom(evt,'out')"/>
                <use id="reset" xlink:href="#resetDef" x="30" y="36" onmousedown="handleReset()"/>
                <g id="arrowUp" xlink:href="#dirArrow" transform="translate(30 24)" onmousedown="handlePan(0,-1)">
                  <use xlink:href="#rim" fill="#404040">
                        <set attributeName="fill" to="#808080" begin="arrowUp.mouseover" end="arrowUp.mouseout"/>
                  </use>
                  <path fill="none" stroke="white" stroke-width="1.5" d="M0,-3.0v7 M-2.5,-0.5L0,-3.0L2.5,-0.5"/>
                </g>
                <g id="arrowRight" xlink:href="#dirArrow" transform="rotate(90) translate(36 -43)" onmousedown="handlePan(1,0)">
                  <use xlink:href="#rim" fill="#404040">
                        <set attributeName="fill" to="#808080" begin="arrowRight.mouseover" end="arrowRight.mouseout"/>
                  </use>
                  <path fill="none" stroke="white" stroke-width="1.5" d="M0,-3.0v7 M-2.5,-0.5L0,-3.0L2.5,-0.5"/>
                </g>
                <g id="arrowDown" xlink:href="#dirArrow" transform="rotate(180) translate(-30 -48)" onmousedown="handlePan(0,1)">
                  <use xlink:href="#rim" fill="#404040">
                        <set attributeName="fill" to="#808080" begin="arrowDown.mouseover" end="arrowDown.mouseout"/>
                  </use>
                  <path fill="none" stroke="white" stroke-width="1.5" d="M0,-3.0v7 M-2.5,-0.5L0,-3.0L2.5,-0.5"/>
                </g>
                <g id="arrowLeft" xlink:href="#dirArrow" transform="rotate(270) translate(-36 17)" onmousedown="handlePan(-1,0)">
                  <use xlink:href="#rim" fill="#404040">
                        <set attributeName="fill" to="#808080" begin="arrowLeft.mouseover" end="arrowLeft.mouseout"/>
                  </use>
                  <path fill="none" stroke="white" stroke-width="1.5" d="M0,-3.0v7 M-2.5,-0.5L0,-3.0L2.5,-0.5"/>
                </g>
        </g>
        <svg viewBox="0 0 15 15" width="100%" height="30px" preserveAspectRatio="xMaxYMin meet">
         <g id="arrow_out" transform="scale(0.3 0.3)">
          <a xlink:href="classInputDevice_aba85af39454731d948fcb47105da814c_icgraph_org.svg" target="_base">
           <rect id="button" ry="5" rx="5" y="6" x="6" height="38" width="38"
                fill="#f2f5e9" fill-opacity="0.5" stroke="#606060" stroke-width="1.0"/>
           <path id="arrow"
             d="M 11.500037,31.436501 C 11.940474,20.09759 22.043105,11.32322 32.158766,21.979434 L 37.068811,17.246167 C 37.068811,17.246167 37.088388,32 37.088388,32 L 22.160133,31.978069 C 22.160133,31.978069 26.997745,27.140456 26.997745,27.140456 C 18.528582,18.264221 13.291696,25.230495 11.500037,31.436501 z"
             style="fill:#404040;"/>
          </a>
         </g>
        </svg>
</svg>
