<?xml version="1.0" encoding="UTF-8" standalone="no"?>
<!DOCTYPE svg PUBLIC "-//W3C//DTD SVG 1.1//EN"
 "http://www.w3.org/Graphics/SVG/1.1/DTD/svg11.dtd">
<!-- Generated by graphviz version 2.43.0 (0)
 -->
<!-- Title: JoyButton::startSequenceOfPressActive Pages: 1 -->
<svg width="745pt" height="225pt"
 viewBox="0.00 0.00 745.00 224.50" xmlns="http://www.w3.org/2000/svg" xmlns:xlink="http://www.w3.org/1999/xlink">
<g id="graph0" class="graph" transform="scale(1 1) rotate(0) translate(4 220.5)">
<title>JoyButton::startSequenceOfPressActive</title>
<polygon fill="white" stroke="transparent" points="-4,4 -4,-220.5 741,-220.5 741,4 -4,4"/>
<!-- Node1 -->
<g id="node1" class="node">
<title>Node1</title>
<g id="a_node1"><a xlink:title=" ">
<polygon fill="#bfbfbf" stroke="black" points="0,-147.5 0,-177.5 140,-177.5 140,-147.5 0,-147.5"/>
<text text-anchor="start" x="8" y="-165.5" font-family="Helvetica,sans-Serif" font-size="10.00">JoyButton::startSequence</text>
<text text-anchor="middle" x="70" y="-154.5" font-family="Helvetica,sans-Serif" font-size="10.00">OfPressActive</text>
</a>
</g>
</g>
<!-- Node2 -->
<g id="node2" class="node">
<title>Node2</title>
<g id="a_node2"><a xlink:href="classJoyButton.html#a48369975ea4bc0d16e284b02bf4b1246" target="_top" xlink:title=" ">
<polygon fill="white" stroke="black" points="384.5,-147.5 384.5,-177.5 530.5,-177.5 530.5,-147.5 384.5,-147.5"/>
<text text-anchor="start" x="392.5" y="-165.5" font-family="Helvetica,sans-Serif" font-size="10.00">JoyButton::getAcceleration</text>
<text text-anchor="middle" x="457.5" y="-154.5" font-family="Helvetica,sans-Serif" font-size="10.00">Distance</text>
</a>
</g>
</g>
<!-- Node1&#45;&gt;Node2 -->
<g id="edge1" class="edge">
<title>Node1&#45;&gt;Node2</title>
<path fill="none" stroke="midnightblue" d="M140.36,-162.5C206.07,-162.5 304.77,-162.5 374.37,-162.5"/>
<polygon fill="midnightblue" stroke="midnightblue" points="374.42,-166 384.42,-162.5 374.42,-159 374.42,-166"/>
</g>
<!-- Node4 -->
<g id="node4" class="node">
<title>Node4</title>
<g id="a_node4"><a xlink:href="classJoyButton.html#acf2e65dcec7b0d2a8a2c21c36c489ad6" target="_top" xlink:title=" ">
<polygon fill="white" stroke="black" points="180.5,-194 180.5,-213 326.5,-213 326.5,-194 180.5,-194"/>
<text text-anchor="middle" x="253.5" y="-201" font-family="Helvetica,sans-Serif" font-size="10.00">JoyButton::getPartialName</text>
</a>
</g>
</g>
<!-- Node1&#45;&gt;Node4 -->
<g id="edge3" class="edge">
<title>Node1&#45;&gt;Node4</title>
<path fill="none" stroke="midnightblue" d="M137.55,-177.53C158.23,-182.2 180.72,-187.28 200.27,-191.7"/>
<polygon fill="midnightblue" stroke="midnightblue" points="199.68,-195.16 210.2,-193.95 201.22,-188.33 199.68,-195.16"/>
</g>
<!-- Node6 -->
<g id="node6" class="node">
<title>Node6</title>
<g id="a_node6"><a xlink:href="classJoyButton.html#aa4a7f763f73f9f63b446e0125a713709" target="_top" xlink:title=" ">
<polygon fill="white" stroke="black" points="176,-98.5 176,-128.5 331,-128.5 331,-98.5 176,-98.5"/>
<text text-anchor="start" x="184" y="-116.5" font-family="Helvetica,sans-Serif" font-size="10.00">JoyButton::initializeDistance</text>
<text text-anchor="middle" x="253.5" y="-105.5" font-family="Helvetica,sans-Serif" font-size="10.00">Values</text>
</a>
</g>
</g>
<!-- Node1&#45;&gt;Node6 -->
<g id="edge5" class="edge">
<title>Node1&#45;&gt;Node6</title>
<path fill="none" stroke="midnightblue" d="M126.94,-147.4C145.92,-142.27 167.29,-136.5 186.95,-131.2"/>
<polygon fill="midnightblue" stroke="midnightblue" points="188.01,-134.54 196.75,-128.55 186.18,-127.78 188.01,-134.54"/>
</g>
<!-- Node3 -->
<g id="node3" class="node">
<title>Node3</title>
<g id="a_node3"><a xlink:href="classJoyButton.html#a447ec98d3ffd8b2a8668c14d2646851c" target="_top" xlink:title="Get the distance that an element is away from its assigned dead zone.">
<polygon fill="white" stroke="black" points="584,-98.5 584,-128.5 737,-128.5 737,-98.5 584,-98.5"/>
<text text-anchor="start" x="592" y="-116.5" font-family="Helvetica,sans-Serif" font-size="10.00">JoyButton::getDistanceFrom</text>
<text text-anchor="middle" x="660.5" y="-105.5" font-family="Helvetica,sans-Serif" font-size="10.00">DeadZone</text>
</a>
</g>
</g>
<!-- Node2&#45;&gt;Node3 -->
<g id="edge2" class="edge">
<title>Node2&#45;&gt;Node3</title>
<path fill="none" stroke="midnightblue" d="M520.17,-147.47C541.59,-142.24 565.78,-136.35 587.93,-130.95"/>
<polygon fill="midnightblue" stroke="midnightblue" points="589.06,-134.28 597.94,-128.51 587.4,-127.47 589.06,-134.28"/>
</g>
<!-- Node5 -->
<g id="node5" class="node">
<title>Node5</title>
<g id="a_node5"><a xlink:href="classJoyButton.html#a39c9ccaf641bb8bf50b29d4c4e04c165" target="_top" xlink:title="Get a 1 indexed number of button.">
<polygon fill="white" stroke="black" points="377,-197 377,-216 538,-216 538,-197 377,-197"/>
<text text-anchor="middle" x="457.5" y="-204" font-family="Helvetica,sans-Serif" font-size="10.00">JoyButton::getRealJoyNumber</text>
</a>
</g>
</g>
<!-- Node4&#45;&gt;Node5 -->
<g id="edge4" class="edge">
<title>Node4&#45;&gt;Node5</title>
<path fill="none" stroke="midnightblue" d="M326.57,-204.57C339.57,-204.76 353.27,-204.97 366.71,-205.17"/>
<polygon fill="midnightblue" stroke="midnightblue" points="366.86,-208.67 376.91,-205.32 366.96,-201.67 366.86,-208.67"/>
</g>
<!-- Node6&#45;&gt;Node2 -->
<g id="edge6" class="edge">
<title>Node6&#45;&gt;Node2</title>
<path fill="none" stroke="midnightblue" d="M316.48,-128.53C338.1,-133.78 362.54,-139.71 384.87,-145.13"/>
<polygon fill="midnightblue" stroke="midnightblue" points="384.09,-148.54 394.64,-147.49 385.74,-141.74 384.09,-148.54"/>
</g>
<!-- Node7 -->
<g id="node7" class="node">
<title>Node7</title>
<g id="a_node7"><a xlink:href="classJoyButton.html#a384912c63bcea6a25ab2957c7c8c23c6" target="_top" xlink:title=" ">
<polygon fill="white" stroke="black" points="374,-0.5 374,-30.5 541,-30.5 541,-0.5 374,-0.5"/>
<text text-anchor="start" x="382" y="-18.5" font-family="Helvetica,sans-Serif" font-size="10.00">JoyButton::getLastAcceleration</text>
<text text-anchor="middle" x="457.5" y="-7.5" font-family="Helvetica,sans-Serif" font-size="10.00">Distance</text>
</a>
</g>
</g>
<!-- Node6&#45;&gt;Node7 -->
<g id="edge7" class="edge">
<title>Node6&#45;&gt;Node7</title>
<path fill="none" stroke="midnightblue" d="M273.31,-98.38C294.8,-81.79 331.6,-55.39 367,-39.5 371.44,-37.51 376.09,-35.65 380.83,-33.92"/>
<polygon fill="midnightblue" stroke="midnightblue" points="382.31,-37.11 390.64,-30.56 380.05,-30.49 382.31,-37.11"/>
</g>
<!-- Node8 -->
<g id="node8" class="node">
<title>Node8</title>
<g id="a_node8"><a xlink:href="classJoyButton.html#a17e7d44ff2d956493113d7312ab406dc" target="_top" xlink:title=" ">
<polygon fill="white" stroke="black" points="367,-98.5 367,-128.5 548,-128.5 548,-98.5 367,-98.5"/>
<text text-anchor="start" x="375" y="-116.5" font-family="Helvetica,sans-Serif" font-size="10.00">JoyButton::getLastMouseDistance</text>
<text text-anchor="middle" x="457.5" y="-105.5" font-family="Helvetica,sans-Serif" font-size="10.00">FromDeadZone</text>
</a>
</g>
</g>
<!-- Node6&#45;&gt;Node8 -->
<g id="edge8" class="edge">
<title>Node6&#45;&gt;Node8</title>
<path fill="none" stroke="midnightblue" d="M331.16,-113.5C339.5,-113.5 348.08,-113.5 356.64,-113.5"/>
<polygon fill="midnightblue" stroke="midnightblue" points="356.68,-117 366.68,-113.5 356.68,-110 356.68,-117"/>
</g>
<!-- Node9 -->
<g id="node9" class="node">
<title>Node9</title>
<g id="a_node9"><a xlink:href="classJoyButton.html#a352acb56d462240c593e7b70bca74f55" target="_top" xlink:title="Get the distance factor that should be used for mouse movement.">
<polygon fill="white" stroke="black" points="377,-49.5 377,-79.5 538,-79.5 538,-49.5 377,-49.5"/>
<text text-anchor="start" x="385" y="-67.5" font-family="Helvetica,sans-Serif" font-size="10.00">JoyButton::getMouseDistance</text>
<text text-anchor="middle" x="457.5" y="-56.5" font-family="Helvetica,sans-Serif" font-size="10.00">FromDeadZone</text>
</a>
</g>
</g>
<!-- Node6&#45;&gt;Node9 -->
<g id="edge9" class="edge">
<title>Node6&#45;&gt;Node9</title>
<path fill="none" stroke="midnightblue" d="M316.48,-98.47C338.1,-93.22 362.54,-87.29 384.87,-81.87"/>
<polygon fill="midnightblue" stroke="midnightblue" points="385.74,-85.26 394.64,-79.51 384.09,-78.46 385.74,-85.26"/>
</g>
<!-- Node9&#45;&gt;Node3 -->
<g id="edge10" class="edge">
<title>Node9&#45;&gt;Node3</title>
<path fill="none" stroke="midnightblue" d="M520.17,-79.53C541.59,-84.76 565.78,-90.65 587.93,-96.05"/>
<polygon fill="midnightblue" stroke="midnightblue" points="587.4,-99.53 597.94,-98.49 589.06,-92.72 587.4,-99.53"/>
</g>
</g>
</svg>
