<?xml version="1.0" encoding="UTF-8" standalone="no"?>
<!DOCTYPE svg PUBLIC "-//W3C//DTD SVG 1.1//EN"
 "http://www.w3.org/Graphics/SVG/1.1/DTD/svg11.dtd">
<!-- Generated by graphviz version 2.43.0 (0)
 -->
<!-- Title: SimpleKeyGrabberButton::refreshButtonLabel Pages: 1 -->
<!--zoomable 465 -->
<svg id="main" version="1.1" xmlns="http://www.w3.org/2000/svg" xmlns:xlink="http://www.w3.org/1999/xlink" xml:space="preserve" onload="init(evt)">
<style type="text/css"><![CDATA[
.edge:hover path { stroke: red; }
.edge:hover polygon { stroke: red; fill: red; }
]]></style>
<script type="text/javascript"><![CDATA[
var edges = document.getElementsByTagName('g');
if (edges && edges.length) {
  for (var i=0;i<edges.length;i++) {
    if (edges[i].id.substr(0,4)=='edge') {
      edges[i].setAttribute('class','edge');
    }
  }
}
]]></script>
        <defs>
                <circle id="rim" cx="0" cy="0" r="7"/>
                <circle id="rim2" cx="0" cy="0" r="3.5"/>
                <g id="zoomPlus">
                        <use xlink:href="#rim" fill="#404040">
                                <set attributeName="fill" to="#808080" begin="zoomplus.mouseover" end="zoomplus.mouseout"/>
                        </use>
                        <path d="M-4,0h8M0,-4v8" fill="none" stroke="white" stroke-width="1.5" pointer-events="none"/>
                </g>
                <g id="zoomMin">
                        <use xlink:href="#rim" fill="#404040">
                                <set attributeName="fill" to="#808080" begin="zoomminus.mouseover" end="zoomminus.mouseout"/>
                        </use>
                        <path d="M-4,0h8" fill="none" stroke="white" stroke-width="1.5" pointer-events="none"/>
                </g>
                <g id="dirArrow">
                        <path fill="none" stroke="white" stroke-width="1.5" d="M0,-3.0v7 M-2.5,-0.5L0,-3.0L2.5,-0.5"/>
                </g>
               <g id="resetDef">
                       <use xlink:href="#rim2" fill="#404040">
                               <set attributeName="fill" to="#808080" begin="reset.mouseover" end="reset.mouseout"/>
                       </use>
               </g>
        </defs>

<script type="text/javascript">
var viewWidth = 1546;
var viewHeight = 465;
var sectionId = 'dynsection-6';
</script>
<script xlink:href="svgpan.js"/>
<svg id="graph" class="graph">
<g id="viewport">
<title>SimpleKeyGrabberButton::refreshButtonLabel</title>
<polygon fill="white" stroke="transparent" points="-4,4 -4,-461.23 1542,-461.23 1542,4 -4,4"/>
<!-- Node1 -->
<g id="node1" class="node">
<title>Node1</title>
<g id="a_node1"><a xlink:title=" ">
<polygon fill="#bfbfbf" stroke="black" points="0,-261.23 0,-291.23 140,-291.23 140,-261.23 0,-261.23"/>
<text text-anchor="start" x="8" y="-279.23" font-family="Helvetica,sans-Serif" font-size="10.00">SimpleKeyGrabberButton</text>
<text text-anchor="middle" x="70" y="-268.23" font-family="Helvetica,sans-Serif" font-size="10.00">::refreshButtonLabel</text>
</a>
</g>
</g>
<!-- Node2 -->
<g id="node2" class="node">
<title>Node2</title>
<g id="a_node2"><a xlink:href="classJoyButtonSlot.html#a6e10409ded595380cbdcfd5c827ab32a" target="_top" xlink:title=" ">
<polygon fill="white" stroke="black" points="176,-266.73 176,-285.73 328,-285.73 328,-266.73 176,-266.73"/>
<text text-anchor="middle" x="252" y="-273.73" font-family="Helvetica,sans-Serif" font-size="10.00">JoyButtonSlot::getSlotString</text>
</a>
</g>
</g>
<!-- Node1&#45;&gt;Node2 -->
<g id="edge1" class="edge">
<title>Node1&#45;&gt;Node2</title>
<path fill="none" stroke="midnightblue" d="M140.08,-276.23C148.49,-276.23 157.15,-276.23 165.76,-276.23"/>
<polygon fill="midnightblue" stroke="midnightblue" points="165.82,-279.73 175.82,-276.23 165.82,-272.73 165.82,-279.73"/>
</g>
<!-- Node3 -->
<g id="node3" class="node">
<title>Node3</title>
<g id="a_node3"><a xlink:href="classJoyButtonSlot.html#a4fb0606a34134786bc642627bc25aedd" target="_top" xlink:title=" ">
<polygon fill="white" stroke="black" points="379,-345.73 379,-364.73 525,-364.73 525,-345.73 379,-345.73"/>
<text text-anchor="middle" x="452" y="-352.73" font-family="Helvetica,sans-Serif" font-size="10.00">JoyButtonSlot::getMixSlots</text>
</a>
</g>
</g>
<!-- Node2&#45;&gt;Node3 -->
<g id="edge2" class="edge">
<title>Node2&#45;&gt;Node3</title>
<path fill="none" stroke="midnightblue" d="M276.88,-285.76C312.04,-299.79 377.86,-326.05 417.73,-341.96"/>
<polygon fill="midnightblue" stroke="midnightblue" points="416.45,-345.22 427.03,-345.67 419.04,-338.71 416.45,-345.22"/>
</g>
<!-- Node5 -->
<g id="node5" class="node">
<title>Node5</title>
<g id="a_node5"><a xlink:href="namespacePadderCommon.html#aaa09739d2df84421a5a3467a06ce941c" target="_top" xlink:title="Returns the &quot;human&#45;readable&quot; name of the given profile.">
<polygon fill="white" stroke="black" points="364,-285.73 364,-304.73 540,-304.73 540,-285.73 364,-285.73"/>
<text text-anchor="middle" x="452" y="-292.73" font-family="Helvetica,sans-Serif" font-size="10.00">PadderCommon::getProfileName</text>
</a>
</g>
</g>
<!-- Node2&#45;&gt;Node5 -->
<g id="edge4" class="edge">
<title>Node2&#45;&gt;Node5</title>
<path fill="none" stroke="midnightblue" d="M328.14,-283.44C336.55,-284.25 345.21,-285.08 353.85,-285.91"/>
<polygon fill="midnightblue" stroke="midnightblue" points="353.68,-289.41 363.97,-286.88 354.35,-282.44 353.68,-289.41"/>
</g>
<!-- Node6 -->
<g id="node6" class="node">
<title>Node6</title>
<g id="a_node6"><a xlink:href="event_8cpp.html#a76ce89b71143c1c09343f45f038b4a67" target="_top" xlink:title=" ">
<polygon fill="white" stroke="black" points="396,-247.73 396,-266.73 508,-266.73 508,-247.73 396,-247.73"/>
<text text-anchor="middle" x="452" y="-254.73" font-family="Helvetica,sans-Serif" font-size="10.00">keysymToKeyString</text>
</a>
</g>
</g>
<!-- Node2&#45;&gt;Node6 -->
<g id="edge5" class="edge">
<title>Node2&#45;&gt;Node6</title>
<path fill="none" stroke="midnightblue" d="M328.14,-269.02C347.15,-267.2 367.42,-265.26 385.89,-263.48"/>
<polygon fill="midnightblue" stroke="midnightblue" points="386.33,-266.96 395.95,-262.52 385.66,-259.99 386.33,-266.96"/>
</g>
<!-- Node29 -->
<g id="node29" class="node">
<title>Node29</title>
<g id="a_node29"><a xlink:href="classJoyButtonSlot.html#a37ff2b523177bae4ea6a44b82f2973eb" target="_top" xlink:title=" ">
<polygon fill="white" stroke="black" points="367,-209.73 367,-228.73 537,-228.73 537,-209.73 367,-209.73"/>
<text text-anchor="middle" x="452" y="-216.73" font-family="Helvetica,sans-Serif" font-size="10.00">JoyButtonSlot::movementString</text>
</a>
</g>
</g>
<!-- Node2&#45;&gt;Node29 -->
<g id="edge36" class="edge">
<title>Node2&#45;&gt;Node29</title>
<path fill="none" stroke="midnightblue" d="M278.31,-266.64C300.64,-258.4 334.18,-246.57 364,-238.23 373.17,-235.67 382.97,-233.24 392.56,-231.03"/>
<polygon fill="midnightblue" stroke="midnightblue" points="393.45,-234.42 402.44,-228.81 391.91,-227.59 393.45,-234.42"/>
</g>
<!-- Node4 -->
<g id="node4" class="node">
<title>Node4</title>
<g id="a_node4"><a xlink:href="classJoyButtonSlot.html#a9ba9cb0dda063a7df5575072c0aabe01" target="_top" xlink:title=" ">
<polygon fill="white" stroke="black" points="576,-362.23 576,-392.23 715,-392.23 715,-362.23 576,-362.23"/>
<text text-anchor="start" x="584" y="-380.23" font-family="Helvetica,sans-Serif" font-size="10.00">JoyButtonSlot::secureMix</text>
<text text-anchor="middle" x="645.5" y="-369.23" font-family="Helvetica,sans-Serif" font-size="10.00">SlotsInit</text>
</a>
</g>
</g>
<!-- Node3&#45;&gt;Node4 -->
<g id="edge3" class="edge">
<title>Node3&#45;&gt;Node4</title>
<path fill="none" stroke="midnightblue" d="M525.13,-363.52C538.39,-365.04 552.3,-366.64 565.75,-368.19"/>
<polygon fill="midnightblue" stroke="midnightblue" points="565.59,-371.69 575.92,-369.36 566.39,-364.74 565.59,-371.69"/>
</g>
<!-- Node7 -->
<g id="node7" class="node">
<title>Node7</title>
<g id="a_node7"><a xlink:href="classX11Extras.html#a643c95dc1de8eb073a0accb41619fe83" target="_top" xlink:title="Get display instance.">
<polygon fill="white" stroke="black" points="794,-83.73 794,-102.73 901,-102.73 901,-83.73 794,-83.73"/>
<text text-anchor="middle" x="847.5" y="-90.73" font-family="Helvetica,sans-Serif" font-size="10.00">X11Extras::display</text>
</a>
</g>
</g>
<!-- Node6&#45;&gt;Node7 -->
<g id="edge6" class="edge">
<title>Node6&#45;&gt;Node7</title>
<path fill="none" stroke="midnightblue" d="M508.09,-252.64C519.44,-249.74 530.74,-245.22 540,-238.23 566.98,-217.87 550.12,-192.98 576,-171.23 638.73,-118.52 671.88,-134.56 751,-113.23 762.13,-110.23 774.1,-107.42 785.66,-104.89"/>
<polygon fill="midnightblue" stroke="midnightblue" points="786.64,-108.26 795.69,-102.76 785.18,-101.42 786.64,-108.26"/>
</g>
<!-- Node8 -->
<g id="node8" class="node">
<title>Node8</title>
<g id="a_node8"><a xlink:href="classBaseEventHandler.html#a9a014e472ec57408d16b8b5eed964e90" target="_top" xlink:title=" ">
<polygon fill="white" stroke="black" points="761.5,-437.73 761.5,-456.73 933.5,-456.73 933.5,-437.73 761.5,-437.73"/>
<text text-anchor="middle" x="847.5" y="-444.73" font-family="Helvetica,sans-Serif" font-size="10.00">BaseEventHandler::getIdentifier</text>
</a>
</g>
</g>
<!-- Node6&#45;&gt;Node8 -->
<g id="edge7" class="edge">
<title>Node6&#45;&gt;Node8</title>
<path fill="none" stroke="midnightblue" d="M508.2,-264.09C519.18,-266.87 530.31,-270.76 540,-276.23 560.26,-287.67 556.08,-302.21 576,-314.23 630.93,-347.39 665.86,-311.98 715,-353.23 743.32,-377.01 721.79,-405.57 751,-428.23 753.32,-430.03 755.76,-431.67 758.3,-433.17"/>
<polygon fill="midnightblue" stroke="midnightblue" points="756.76,-436.31 767.26,-437.73 759.93,-430.08 756.76,-436.31"/>
</g>
<!-- Node9 -->
<g id="node9" class="node">
<title>Node9</title>
<g id="a_node9"><a xlink:href="classX11Extras.html#ace76277fced60e6bd6ff880030338182" target="_top" xlink:title=" ">
<polygon fill="white" stroke="black" points="783,-399.73 783,-418.73 912,-418.73 912,-399.73 783,-399.73"/>
<text text-anchor="middle" x="847.5" y="-406.73" font-family="Helvetica,sans-Serif" font-size="10.00">X11Extras::getInstance</text>
</a>
</g>
</g>
<!-- Node6&#45;&gt;Node9 -->
<g id="edge8" class="edge">
<title>Node6&#45;&gt;Node9</title>
<path fill="none" stroke="midnightblue" d="M503.32,-266.75C574.67,-280.6 698.46,-306.1 715,-319.23 742.7,-341.24 722.81,-368.85 751,-390.23 757.68,-395.3 765.35,-399.12 773.39,-401.98"/>
<polygon fill="midnightblue" stroke="midnightblue" points="772.36,-405.32 782.95,-404.92 774.42,-398.63 772.36,-405.32"/>
</g>
<!-- Node12 -->
<g id="node12" class="node">
<title>Node12</title>
<g id="a_node12"><a xlink:href="classEventHandlerFactory.html#a90ce153a19fbb91128bd52eb083ce271" target="_top" xlink:title=" ">
<polygon fill="white" stroke="black" points="788.5,-122.23 788.5,-152.23 906.5,-152.23 906.5,-122.23 788.5,-122.23"/>
<text text-anchor="start" x="796.5" y="-140.23" font-family="Helvetica,sans-Serif" font-size="10.00">EventHandlerFactory</text>
<text text-anchor="middle" x="847.5" y="-129.23" font-family="Helvetica,sans-Serif" font-size="10.00">::getInstance</text>
</a>
</g>
</g>
<!-- Node6&#45;&gt;Node12 -->
<g id="edge11" class="edge">
<title>Node6&#45;&gt;Node12</title>
<path fill="none" stroke="midnightblue" d="M502.06,-247.7C514.51,-244.95 527.82,-241.74 540,-238.23 635.78,-210.65 655.8,-191.77 751,-162.23 759.93,-159.46 769.39,-156.74 778.75,-154.17"/>
<polygon fill="midnightblue" stroke="midnightblue" points="779.7,-157.53 788.44,-151.54 777.87,-150.78 779.7,-157.53"/>
</g>
<!-- Node15 -->
<g id="node15" class="node">
<title>Node15</title>
<g id="a_node15"><a xlink:href="classEventHandlerFactory.html#a4c13007f0ece5bf881080c9c04f1f20d" target="_top" xlink:title=" ">
<polygon fill="white" stroke="black" points="1190.5,-120.23 1190.5,-150.23 1308.5,-150.23 1308.5,-120.23 1190.5,-120.23"/>
<text text-anchor="start" x="1198.5" y="-138.23" font-family="Helvetica,sans-Serif" font-size="10.00">EventHandlerFactory</text>
<text text-anchor="middle" x="1249.5" y="-127.23" font-family="Helvetica,sans-Serif" font-size="10.00">::handler</text>
</a>
</g>
</g>
<!-- Node6&#45;&gt;Node15 -->
<g id="edge17" class="edge">
<title>Node6&#45;&gt;Node15</title>
<path fill="none" stroke="midnightblue" d="M508.33,-254.24C519.93,-251.28 531.28,-246.33 540,-238.23 581.12,-200.06 535.55,-156.12 576,-117.23 709.59,11.18 796.14,-37.3 980,-14.23 1047.03,-5.82 1069.83,12.21 1132,-14.23 1178.25,-33.91 1215.03,-81.93 1234.13,-111.22"/>
<polygon fill="midnightblue" stroke="midnightblue" points="1231.39,-113.44 1239.7,-120.01 1237.3,-109.69 1231.39,-113.44"/>
</g>
<!-- Node17 -->
<g id="node17" class="node">
<title>Node17</title>
<g id="a_node17"><a xlink:href="event_8cpp.html#ad239a34cab482dc3cad5a23a9ac1ad78" target="_top" xlink:title=" ">
<polygon fill="white" stroke="black" points="588.5,-247.73 588.5,-266.73 702.5,-266.73 702.5,-247.73 588.5,-247.73"/>
<text text-anchor="middle" x="645.5" y="-254.73" font-family="Helvetica,sans-Serif" font-size="10.00">keycodeToKeyString</text>
</a>
</g>
</g>
<!-- Node6&#45;&gt;Node17 -->
<g id="edge18" class="edge">
<title>Node6&#45;&gt;Node17</title>
<path fill="none" stroke="midnightblue" d="M508.13,-257.23C529.98,-257.23 555.29,-257.23 578.13,-257.23"/>
<polygon fill="midnightblue" stroke="midnightblue" points="578.43,-260.73 588.43,-257.23 578.43,-253.73 578.43,-260.73"/>
</g>
<!-- Node10 -->
<g id="node10" class="node">
<title>Node10</title>
<g id="a_node10"><a xlink:href="classX11Extras.html#ab9bcb016e23bacb0e988feb8175d2c88" target="_top" xlink:title=" ">
<polygon fill="white" stroke="black" points="995,-399.73 995,-418.73 1117,-418.73 1117,-399.73 995,-399.73"/>
<text text-anchor="middle" x="1056" y="-406.73" font-family="Helvetica,sans-Serif" font-size="10.00">X11Extras::X11Extras</text>
</a>
</g>
</g>
<!-- Node9&#45;&gt;Node10 -->
<g id="edge9" class="edge">
<title>Node9&#45;&gt;Node10</title>
<path fill="none" stroke="midnightblue" d="M912.14,-409.23C935.06,-409.23 961.04,-409.23 984.51,-409.23"/>
<polygon fill="midnightblue" stroke="midnightblue" points="984.74,-412.73 994.74,-409.23 984.74,-405.73 984.74,-412.73"/>
</g>
<!-- Node11 -->
<g id="node11" class="node">
<title>Node11</title>
<g id="a_node11"><a xlink:href="classX11Extras.html#a6f63e77ed045e174546d77333672b8f0" target="_top" xlink:title=" ">
<polygon fill="white" stroke="black" points="1175.5,-394.23 1175.5,-424.23 1323.5,-424.23 1323.5,-394.23 1175.5,-394.23"/>
<text text-anchor="start" x="1183.5" y="-412.23" font-family="Helvetica,sans-Serif" font-size="10.00">X11Extras::populateKnown</text>
<text text-anchor="middle" x="1249.5" y="-401.23" font-family="Helvetica,sans-Serif" font-size="10.00">Aliases</text>
</a>
</g>
</g>
<!-- Node10&#45;&gt;Node11 -->
<g id="edge10" class="edge">
<title>Node10&#45;&gt;Node11</title>
<path fill="none" stroke="midnightblue" d="M1117.07,-409.23C1132.33,-409.23 1149,-409.23 1165.19,-409.23"/>
<polygon fill="midnightblue" stroke="midnightblue" points="1165.19,-412.73 1175.19,-409.23 1165.19,-405.73 1165.19,-412.73"/>
</g>
<!-- Node13 -->
<g id="node13" class="node">
<title>Node13</title>
<g id="a_node13"><a xlink:href="classEventHandlerFactory.html#ade5162034acc0f8683725fdb124bece0" target="_top" xlink:title=" ">
<polygon fill="white" stroke="black" points="986,-122.23 986,-152.23 1126,-152.23 1126,-122.23 986,-122.23"/>
<text text-anchor="start" x="994" y="-140.23" font-family="Helvetica,sans-Serif" font-size="10.00">EventHandlerFactory</text>
<text text-anchor="middle" x="1056" y="-129.23" font-family="Helvetica,sans-Serif" font-size="10.00">::buildEventGeneratorList</text>
</a>
</g>
</g>
<!-- Node12&#45;&gt;Node13 -->
<g id="edge12" class="edge">
<title>Node12&#45;&gt;Node13</title>
<path fill="none" stroke="midnightblue" d="M906.57,-137.23C927.98,-137.23 952.61,-137.23 975.58,-137.23"/>
<polygon fill="midnightblue" stroke="midnightblue" points="975.65,-140.73 985.65,-137.23 975.65,-133.73 975.65,-140.73"/>
</g>
<!-- Node14 -->
<g id="node14" class="node">
<title>Node14</title>
<g id="a_node14"><a xlink:href="classEventHandlerFactory.html#a2f843293b2ea47271fc7bd99bd871fa6" target="_top" xlink:title=" ">
<polygon fill="white" stroke="black" points="994,-73.23 994,-103.23 1118,-103.23 1118,-73.23 994,-73.23"/>
<text text-anchor="start" x="1002" y="-91.23" font-family="Helvetica,sans-Serif" font-size="10.00">EventHandlerFactory</text>
<text text-anchor="middle" x="1056" y="-80.23" font-family="Helvetica,sans-Serif" font-size="10.00">::EventHandlerFactory</text>
</a>
</g>
</g>
<!-- Node12&#45;&gt;Node14 -->
<g id="edge13" class="edge">
<title>Node12&#45;&gt;Node14</title>
<path fill="none" stroke="midnightblue" d="M906.57,-123.45C930.58,-117.76 958.65,-111.1 983.88,-105.11"/>
<polygon fill="midnightblue" stroke="midnightblue" points="984.84,-108.48 993.76,-102.77 983.23,-101.67 984.84,-108.48"/>
</g>
<!-- Node12&#45;&gt;Node15 -->
<g id="edge16" class="edge">
<title>Node12&#45;&gt;Node15</title>
<path fill="none" stroke="midnightblue" d="M906.75,-150.75C929.47,-155.37 955.82,-159.96 980,-162.23 1047.26,-168.57 1064.88,-169.91 1132,-162.23 1149.5,-160.23 1168.2,-156.59 1185.38,-152.62"/>
<polygon fill="midnightblue" stroke="midnightblue" points="1186.38,-155.98 1195.3,-150.25 1184.76,-149.17 1186.38,-155.98"/>
</g>
<!-- Node16 -->
<g id="node16" class="node">
<title>Node16</title>
<g id="a_node16"><a xlink:href="classEventHandlerFactory.html#afa5ca0171c70b1a24f92b5c8dd00dc92" target="_top" xlink:title=" ">
<polygon fill="white" stroke="black" points="997,-24.23 997,-54.23 1115,-54.23 1115,-24.23 997,-24.23"/>
<text text-anchor="start" x="1005" y="-42.23" font-family="Helvetica,sans-Serif" font-size="10.00">EventHandlerFactory</text>
<text text-anchor="middle" x="1056" y="-31.23" font-family="Helvetica,sans-Serif" font-size="10.00">::fallBackIdentifier</text>
</a>
</g>
</g>
<!-- Node12&#45;&gt;Node16 -->
<g id="edge15" class="edge">
<title>Node12&#45;&gt;Node16</title>
<path fill="none" stroke="midnightblue" d="M906.77,-128.68C919.76,-125 932.94,-119.75 944,-112.23 966.36,-97.05 958.06,-79.01 980,-63.23 982.39,-61.51 984.92,-59.91 987.53,-58.42"/>
<polygon fill="midnightblue" stroke="midnightblue" points="989.36,-61.42 996.7,-53.78 986.2,-55.17 989.36,-61.42"/>
</g>
<!-- Node14&#45;&gt;Node15 -->
<g id="edge14" class="edge">
<title>Node14&#45;&gt;Node15</title>
<path fill="none" stroke="midnightblue" d="M1118.12,-103.23C1137.97,-108.11 1160.11,-113.54 1180.43,-118.53"/>
<polygon fill="midnightblue" stroke="midnightblue" points="1179.7,-121.95 1190.24,-120.94 1181.37,-115.15 1179.7,-121.95"/>
</g>
<!-- Node17&#45;&gt;Node7 -->
<g id="edge19" class="edge">
<title>Node17&#45;&gt;Node7</title>
<path fill="none" stroke="midnightblue" d="M650.46,-247.63C661.79,-221.39 697.07,-148.16 751,-113.23 760.79,-106.9 772.22,-102.52 783.7,-99.51"/>
<polygon fill="midnightblue" stroke="midnightblue" points="784.79,-102.85 793.76,-97.2 783.23,-96.03 784.79,-102.85"/>
</g>
<!-- Node17&#45;&gt;Node8 -->
<g id="edge24" class="edge">
<title>Node17&#45;&gt;Node8</title>
<path fill="none" stroke="midnightblue" d="M660.84,-266.76C676.28,-277.71 700.56,-297.05 715,-319.23 742.83,-361.99 712.78,-394.44 751,-428.23 752.57,-429.62 754.21,-430.92 755.91,-432.13"/>
<polygon fill="midnightblue" stroke="midnightblue" points="754.49,-435.36 764.86,-437.51 758.1,-429.36 754.49,-435.36"/>
</g>
<!-- Node17&#45;&gt;Node9 -->
<g id="edge32" class="edge">
<title>Node17&#45;&gt;Node9</title>
<path fill="none" stroke="midnightblue" d="M692.65,-266.87C700.9,-270.3 708.82,-274.94 715,-281.23 750.75,-317.63 712.78,-356.44 751,-390.23 757.37,-395.87 764.93,-400.02 772.96,-403.06"/>
<polygon fill="midnightblue" stroke="midnightblue" points="771.96,-406.42 782.55,-406.13 774.1,-399.75 771.96,-406.42"/>
</g>
<!-- Node17&#45;&gt;Node12 -->
<g id="edge33" class="edge">
<title>Node17&#45;&gt;Node12</title>
<path fill="none" stroke="midnightblue" d="M656.68,-247.47C680.76,-224.43 740.06,-168.17 751,-162.23 759.64,-157.55 769.21,-153.7 778.85,-150.56"/>
<polygon fill="midnightblue" stroke="midnightblue" points="779.93,-153.9 788.49,-147.65 777.9,-147.2 779.93,-153.9"/>
</g>
<!-- Node17&#45;&gt;Node15 -->
<g id="edge34" class="edge">
<title>Node17&#45;&gt;Node15</title>
<path fill="none" stroke="midnightblue" d="M697.48,-247.72C714.49,-244.61 733.55,-241.2 751,-238.23 920.01,-209.57 966.12,-221.46 1132,-178.23 1156.24,-171.92 1182.48,-162.48 1203.91,-154.05"/>
<polygon fill="midnightblue" stroke="midnightblue" points="1205.4,-157.22 1213.39,-150.26 1202.81,-150.72 1205.4,-157.22"/>
</g>
<!-- Node18 -->
<g id="node18" class="node">
<title>Node18</title>
<g id="a_node18"><a xlink:href="classWinExtras.html#a3487e64cfb407033d7e28a761d1e76dc" target="_top" xlink:title=" ">
<polygon fill="white" stroke="black" points="771,-323.73 771,-342.73 924,-342.73 924,-323.73 771,-323.73"/>
<text text-anchor="middle" x="847.5" y="-330.73" font-family="Helvetica,sans-Serif" font-size="10.00">WinExtras::getDisplayString</text>
</a>
</g>
</g>
<!-- Node17&#45;&gt;Node18 -->
<g id="edge20" class="edge">
<title>Node17&#45;&gt;Node18</title>
<path fill="none" stroke="midnightblue" d="M680.53,-266.74C691.83,-270.52 704.27,-275.39 715,-281.23 732.8,-290.94 732.78,-300.35 751,-309.23 760.76,-314 771.57,-317.87 782.29,-321.01"/>
<polygon fill="midnightblue" stroke="midnightblue" points="781.51,-324.42 792.08,-323.69 783.36,-317.67 781.51,-324.42"/>
</g>
<!-- Node19 -->
<g id="node19" class="node">
<title>Node19</title>
<g id="a_node19"><a xlink:href="classUInputHelper.html#ac4c70c9479c1cc0eb515ab1bdf2426f5" target="_top" xlink:title=" ">
<polygon fill="white" stroke="black" points="1179.5,-285.23 1179.5,-315.23 1319.5,-315.23 1319.5,-285.23 1179.5,-285.23"/>
<text text-anchor="start" x="1187.5" y="-303.23" font-family="Helvetica,sans-Serif" font-size="10.00">UInputHelper::getDisplay</text>
<text text-anchor="middle" x="1249.5" y="-292.23" font-family="Helvetica,sans-Serif" font-size="10.00">String</text>
</a>
</g>
</g>
<!-- Node17&#45;&gt;Node19 -->
<g id="edge21" class="edge">
<title>Node17&#45;&gt;Node19</title>
<path fill="none" stroke="midnightblue" d="M691.57,-266.77C709.93,-270.3 731.4,-273.99 751,-276.23 898.07,-293.08 1070.92,-298.13 1169.3,-299.62"/>
<polygon fill="midnightblue" stroke="midnightblue" points="1169.41,-303.13 1179.46,-299.77 1169.51,-296.13 1169.41,-303.13"/>
</g>
<!-- Node21 -->
<g id="node21" class="node">
<title>Node21</title>
<g id="a_node21"><a xlink:href="classX11Extras.html#abe710bac948c9802105a2d9d06815cac" target="_top" xlink:title="Get appropriate alias for a known KeySym string that might be blank or contain invalid characters whe...">
<polygon fill="white" stroke="black" points="771,-171.73 771,-190.73 924,-190.73 924,-171.73 771,-171.73"/>
<text text-anchor="middle" x="847.5" y="-178.73" font-family="Helvetica,sans-Serif" font-size="10.00">X11Extras::getDisplayString</text>
</a>
</g>
</g>
<!-- Node17&#45;&gt;Node21 -->
<g id="edge23" class="edge">
<title>Node17&#45;&gt;Node21</title>
<path fill="none" stroke="midnightblue" d="M663.02,-247.62C683.21,-236.19 718.69,-217.18 751,-205.23 763.52,-200.61 777.29,-196.57 790.38,-193.19"/>
<polygon fill="midnightblue" stroke="midnightblue" points="791.37,-196.55 800.23,-190.74 789.68,-189.76 791.37,-196.55"/>
</g>
<!-- Node22 -->
<g id="node22" class="node">
<title>Node22</title>
<g id="a_node22"><a xlink:href="classUInputHelper.html#a61509601d3dbd8933aaa26c1e2db02f6" target="_top" xlink:title=" ">
<polygon fill="white" stroke="black" points="775.5,-247.73 775.5,-266.73 919.5,-266.73 919.5,-247.73 775.5,-247.73"/>
<text text-anchor="middle" x="847.5" y="-254.73" font-family="Helvetica,sans-Serif" font-size="10.00">UInputHelper::getInstance</text>
</a>
</g>
</g>
<!-- Node17&#45;&gt;Node22 -->
<g id="edge25" class="edge">
<title>Node17&#45;&gt;Node22</title>
<path fill="none" stroke="midnightblue" d="M702.74,-257.23C722.1,-257.23 744.19,-257.23 765.15,-257.23"/>
<polygon fill="midnightblue" stroke="midnightblue" points="765.33,-260.73 775.33,-257.23 765.33,-253.73 765.33,-260.73"/>
</g>
<!-- Node28 -->
<g id="node28" class="node">
<title>Node28</title>
<g id="a_node28"><a xlink:href="classWinExtras.html#a0bfa711c1abe72486dfebc8ff6fe7f5a" target="_top" xlink:title="Convert a virtual key into the corresponding keyboard scan code.">
<polygon fill="white" stroke="black" points="751,-361.73 751,-380.73 944,-380.73 944,-361.73 751,-361.73"/>
<text text-anchor="middle" x="847.5" y="-368.73" font-family="Helvetica,sans-Serif" font-size="10.00">WinExtras::scancodeFromVirtualKey</text>
</a>
</g>
</g>
<!-- Node17&#45;&gt;Node28 -->
<g id="edge35" class="edge">
<title>Node17&#45;&gt;Node28</title>
<path fill="none" stroke="midnightblue" d="M689.79,-266.79C698.83,-270.25 707.8,-274.93 715,-281.23 741.62,-304.54 722.81,-330.85 751,-352.23 753.34,-354.01 755.79,-355.63 758.35,-357.1"/>
<polygon fill="midnightblue" stroke="midnightblue" points="756.84,-360.26 767.35,-361.61 759.97,-354 756.84,-360.26"/>
</g>
<!-- Node20 -->
<g id="node20" class="node">
<title>Node20</title>
<g id="a_node20"><a xlink:href="classUInputHelper.html#a043b0fa7cf4ce5811d01d95f3ca318b7" target="_top" xlink:title=" ">
<polygon fill="white" stroke="black" points="1367,-285.23 1367,-315.23 1538,-315.23 1538,-285.23 1367,-285.23"/>
<text text-anchor="start" x="1375" y="-303.23" font-family="Helvetica,sans-Serif" font-size="10.00">UInputHelper::getKnownAliases</text>
<text text-anchor="middle" x="1452.5" y="-292.23" font-family="Helvetica,sans-Serif" font-size="10.00">VKStrings</text>
</a>
</g>
</g>
<!-- Node19&#45;&gt;Node20 -->
<g id="edge22" class="edge">
<title>Node19&#45;&gt;Node20</title>
<path fill="none" stroke="midnightblue" d="M1319.67,-300.23C1331.68,-300.23 1344.35,-300.23 1356.9,-300.23"/>
<polygon fill="midnightblue" stroke="midnightblue" points="1356.92,-303.73 1366.92,-300.23 1356.92,-296.73 1356.92,-303.73"/>
</g>
<!-- Node23 -->
<g id="node23" class="node">
<title>Node23</title>
<g id="a_node23"><a xlink:href="classUInputHelper.html#a5d56d23a0e0202435c7a5ff1aca9ce55" target="_top" xlink:title=" ">
<polygon fill="white" stroke="black" points="980,-247.73 980,-266.73 1132,-266.73 1132,-247.73 980,-247.73"/>
<text text-anchor="middle" x="1056" y="-254.73" font-family="Helvetica,sans-Serif" font-size="10.00">UInputHelper::UInputHelper</text>
</a>
</g>
</g>
<!-- Node22&#45;&gt;Node23 -->
<g id="edge26" class="edge">
<title>Node22&#45;&gt;Node23</title>
<path fill="none" stroke="midnightblue" d="M919.57,-257.23C935.7,-257.23 953,-257.23 969.66,-257.23"/>
<polygon fill="midnightblue" stroke="midnightblue" points="969.93,-260.73 979.93,-257.23 969.93,-253.73 969.93,-260.73"/>
</g>
<!-- Node24 -->
<g id="node24" class="node">
<title>Node24</title>
<g id="a_node24"><a xlink:href="classUInputHelper.html#a0f4dbb4221502d86f7d0af12a9865568" target="_top" xlink:title=" ">
<polygon fill="white" stroke="black" points="1168,-236.23 1168,-266.23 1331,-266.23 1331,-236.23 1168,-236.23"/>
<text text-anchor="start" x="1176" y="-254.23" font-family="Helvetica,sans-Serif" font-size="10.00">UInputHelper::populateKnown</text>
<text text-anchor="middle" x="1249.5" y="-243.23" font-family="Helvetica,sans-Serif" font-size="10.00">Aliases</text>
</a>
</g>
</g>
<!-- Node23&#45;&gt;Node24 -->
<g id="edge27" class="edge">
<title>Node23&#45;&gt;Node24</title>
<path fill="none" stroke="midnightblue" d="M1132.14,-254.88C1140.57,-254.62 1149.23,-254.34 1157.83,-254.08"/>
<polygon fill="midnightblue" stroke="midnightblue" points="1158.01,-257.57 1167.89,-253.76 1157.79,-250.58 1158.01,-257.57"/>
</g>
<!-- Node24&#45;&gt;Node20 -->
<g id="edge28" class="edge">
<title>Node24&#45;&gt;Node20</title>
<path fill="none" stroke="midnightblue" d="M1312.17,-266.27C1333.59,-271.49 1357.78,-277.39 1379.93,-282.79"/>
<polygon fill="midnightblue" stroke="midnightblue" points="1379.4,-286.26 1389.94,-285.23 1381.06,-279.46 1379.4,-286.26"/>
</g>
<!-- Node25 -->
<g id="node25" class="node">
<title>Node25</title>
<g id="a_node25"><a xlink:href="classUInputHelper.html#a8f3fe71ae635cd3c46eaab79dd11c2e0" target="_top" xlink:title=" ">
<polygon fill="white" stroke="black" points="1367,-236.23 1367,-266.23 1538,-266.23 1538,-236.23 1367,-236.23"/>
<text text-anchor="start" x="1375" y="-254.23" font-family="Helvetica,sans-Serif" font-size="10.00">UInputHelper::getKnownAliases</text>
<text text-anchor="middle" x="1452.5" y="-243.23" font-family="Helvetica,sans-Serif" font-size="10.00">X11SymVK</text>
</a>
</g>
</g>
<!-- Node24&#45;&gt;Node25 -->
<g id="edge29" class="edge">
<title>Node24&#45;&gt;Node25</title>
<path fill="none" stroke="midnightblue" d="M1331.1,-251.23C1339.57,-251.23 1348.25,-251.23 1356.87,-251.23"/>
<polygon fill="midnightblue" stroke="midnightblue" points="1356.94,-254.73 1366.94,-251.23 1356.94,-247.73 1356.94,-254.73"/>
</g>
<!-- Node26 -->
<g id="node26" class="node">
<title>Node26</title>
<g id="a_node26"><a xlink:href="classUInputHelper.html#a9793030329fbbe1106b255814ef2bd0f" target="_top" xlink:title=" ">
<polygon fill="white" stroke="black" points="1378,-187.23 1378,-217.23 1527,-217.23 1527,-187.23 1378,-187.23"/>
<text text-anchor="start" x="1386" y="-205.23" font-family="Helvetica,sans-Serif" font-size="10.00">UInputHelper::populateX11</text>
<text text-anchor="middle" x="1452.5" y="-194.23" font-family="Helvetica,sans-Serif" font-size="10.00">SymVk</text>
</a>
</g>
</g>
<!-- Node24&#45;&gt;Node26 -->
<g id="edge30" class="edge">
<title>Node24&#45;&gt;Node26</title>
<path fill="none" stroke="midnightblue" d="M1312.17,-236.2C1333.59,-230.98 1357.78,-225.08 1379.93,-219.68"/>
<polygon fill="midnightblue" stroke="midnightblue" points="1381.06,-223.01 1389.94,-217.24 1379.4,-216.21 1381.06,-223.01"/>
</g>
<!-- Node27 -->
<g id="node27" class="node">
<title>Node27</title>
<g id="a_node27"><a xlink:href="classUInputHelper.html#af02574de230bb0550eebb63f5a669681" target="_top" xlink:title=" ">
<polygon fill="white" stroke="black" points="1378,-138.23 1378,-168.23 1527,-168.23 1527,-138.23 1378,-138.23"/>
<text text-anchor="start" x="1386" y="-156.23" font-family="Helvetica,sans-Serif" font-size="10.00">UInputHelper::populateXVk</text>
<text text-anchor="middle" x="1452.5" y="-145.23" font-family="Helvetica,sans-Serif" font-size="10.00">Strings</text>
</a>
</g>
</g>
<!-- Node24&#45;&gt;Node27 -->
<g id="edge31" class="edge">
<title>Node24&#45;&gt;Node27</title>
<path fill="none" stroke="midnightblue" d="M1271,-235.96C1293.54,-219.76 1331.32,-194.33 1367,-178.23 1372.27,-175.86 1377.83,-173.64 1383.47,-171.58"/>
<polygon fill="midnightblue" stroke="midnightblue" points="1384.71,-174.85 1393.01,-168.27 1382.42,-168.24 1384.71,-174.85"/>
</g>
</g>
</svg>
        <g id="navigator" transform="translate(0 0)" fill="#404254">
                <rect fill="#f2f5e9" fill-opacity="0.5" stroke="#606060" stroke-width=".5" x="0" y="0" width="60" height="60"/>
                <use id="zoomplus" xlink:href="#zoomPlus" x="17" y="9" onmousedown="handleZoom(evt,'in')"/>
                <use id="zoomminus" xlink:href="#zoomMin" x="42" y="9" onmousedown="handleZoom(evt,'out')"/>
                <use id="reset" xlink:href="#resetDef" x="30" y="36" onmousedown="handleReset()"/>
                <g id="arrowUp" xlink:href="#dirArrow" transform="translate(30 24)" onmousedown="handlePan(0,-1)">
                  <use xlink:href="#rim" fill="#404040">
                        <set attributeName="fill" to="#808080" begin="arrowUp.mouseover" end="arrowUp.mouseout"/>
                  </use>
                  <path fill="none" stroke="white" stroke-width="1.5" d="M0,-3.0v7 M-2.5,-0.5L0,-3.0L2.5,-0.5"/>
                </g>
                <g id="arrowRight" xlink:href="#dirArrow" transform="rotate(90) translate(36 -43)" onmousedown="handlePan(1,0)">
                  <use xlink:href="#rim" fill="#404040">
                        <set attributeName="fill" to="#808080" begin="arrowRight.mouseover" end="arrowRight.mouseout"/>
                  </use>
                  <path fill="none" stroke="white" stroke-width="1.5" d="M0,-3.0v7 M-2.5,-0.5L0,-3.0L2.5,-0.5"/>
                </g>
                <g id="arrowDown" xlink:href="#dirArrow" transform="rotate(180) translate(-30 -48)" onmousedown="handlePan(0,1)">
                  <use xlink:href="#rim" fill="#404040">
                        <set attributeName="fill" to="#808080" begin="arrowDown.mouseover" end="arrowDown.mouseout"/>
                  </use>
                  <path fill="none" stroke="white" stroke-width="1.5" d="M0,-3.0v7 M-2.5,-0.5L0,-3.0L2.5,-0.5"/>
                </g>
                <g id="arrowLeft" xlink:href="#dirArrow" transform="rotate(270) translate(-36 17)" onmousedown="handlePan(-1,0)">
                  <use xlink:href="#rim" fill="#404040">
                        <set attributeName="fill" to="#808080" begin="arrowLeft.mouseover" end="arrowLeft.mouseout"/>
                  </use>
                  <path fill="none" stroke="white" stroke-width="1.5" d="M0,-3.0v7 M-2.5,-0.5L0,-3.0L2.5,-0.5"/>
                </g>
        </g>
        <svg viewBox="0 0 15 15" width="100%" height="30px" preserveAspectRatio="xMaxYMin meet">
         <g id="arrow_out" transform="scale(0.3 0.3)">
          <a xlink:href="classSimpleKeyGrabberButton_a4f7da5dfa576992eb688e4cde774d5cc_cgraph_org.svg" target="_base">
           <rect id="button" ry="5" rx="5" y="6" x="6" height="38" width="38"
                fill="#f2f5e9" fill-opacity="0.5" stroke="#606060" stroke-width="1.0"/>
           <path id="arrow"
             d="M 11.500037,31.436501 C 11.940474,20.09759 22.043105,11.32322 32.158766,21.979434 L 37.068811,17.246167 C 37.068811,17.246167 37.088388,32 37.088388,32 L 22.160133,31.978069 C 22.160133,31.978069 26.997745,27.140456 26.997745,27.140456 C 18.528582,18.264221 13.291696,25.230495 11.500037,31.436501 z"
             style="fill:#404040;"/>
          </a>
         </g>
        </svg>
</svg>
