<?xml version="1.0" encoding="UTF-8" standalone="no"?>
<!DOCTYPE svg PUBLIC "-//W3C//DTD SVG 1.1//EN"
 "http://www.w3.org/Graphics/SVG/1.1/DTD/svg11.dtd">
<!-- Generated by graphviz version 2.43.0 (0)
 -->
<!-- Title: JoyButtonSlot::getSlotCodeAlias Pages: 1 -->
<!--zoomable 900 -->
<svg id="main" version="1.1" xmlns="http://www.w3.org/2000/svg" xmlns:xlink="http://www.w3.org/1999/xlink" xml:space="preserve" onload="init(evt)">
<style type="text/css"><![CDATA[
.edge:hover path { stroke: red; }
.edge:hover polygon { stroke: red; fill: red; }
]]></style>
<script type="text/javascript"><![CDATA[
var edges = document.getElementsByTagName('g');
if (edges && edges.length) {
  for (var i=0;i<edges.length;i++) {
    if (edges[i].id.substr(0,4)=='edge') {
      edges[i].setAttribute('class','edge');
    }
  }
}
]]></script>
        <defs>
                <circle id="rim" cx="0" cy="0" r="7"/>
                <circle id="rim2" cx="0" cy="0" r="3.5"/>
                <g id="zoomPlus">
                        <use xlink:href="#rim" fill="#404040">
                                <set attributeName="fill" to="#808080" begin="zoomplus.mouseover" end="zoomplus.mouseout"/>
                        </use>
                        <path d="M-4,0h8M0,-4v8" fill="none" stroke="white" stroke-width="1.5" pointer-events="none"/>
                </g>
                <g id="zoomMin">
                        <use xlink:href="#rim" fill="#404040">
                                <set attributeName="fill" to="#808080" begin="zoomminus.mouseover" end="zoomminus.mouseout"/>
                        </use>
                        <path d="M-4,0h8" fill="none" stroke="white" stroke-width="1.5" pointer-events="none"/>
                </g>
                <g id="dirArrow">
                        <path fill="none" stroke="white" stroke-width="1.5" d="M0,-3.0v7 M-2.5,-0.5L0,-3.0L2.5,-0.5"/>
                </g>
               <g id="resetDef">
                       <use xlink:href="#rim2" fill="#404040">
                               <set attributeName="fill" to="#808080" begin="reset.mouseover" end="reset.mouseout"/>
                       </use>
               </g>
        </defs>

<script type="text/javascript">
var viewWidth = 1200;
var viewHeight = 900;
var sectionId = 'dynsection-15';
</script>
<script xlink:href="svgpan.js"/>
<svg id="graph" class="graph">
<g id="viewport">
<title>JoyButtonSlot::getSlotCodeAlias</title>
<polygon fill="white" stroke="transparent" points="-4,4 -4,-895.5 1196,-895.5 1196,4 -4,4"/>
<!-- Node1 -->
<g id="node1" class="node">
<title>Node1</title>
<g id="a_node1"><a xlink:title=" ">
<polygon fill="#bfbfbf" stroke="black" points="1044,-494 1044,-524 1192,-524 1192,-494 1044,-494"/>
<text text-anchor="start" x="1052" y="-512" font-family="Helvetica,sans-Serif" font-size="10.00">JoyButtonSlot::getSlotCode</text>
<text text-anchor="middle" x="1118" y="-501" font-family="Helvetica,sans-Serif" font-size="10.00">Alias</text>
</a>
</g>
</g>
<!-- Node2 -->
<g id="node2" class="node">
<title>Node2</title>
<g id="a_node2"><a xlink:href="classAdvanceButtonDialog.html#a4f9a1a007f50de1c3cca1403d08a0790" target="_top" xlink:title=" ">
<polygon fill="white" stroke="black" points="651,-812 651,-842 779,-842 779,-812 651,-812"/>
<text text-anchor="start" x="659" y="-830" font-family="Helvetica,sans-Serif" font-size="10.00">AdvanceButtonDialog</text>
<text text-anchor="middle" x="715" y="-819" font-family="Helvetica,sans-Serif" font-size="10.00">::AdvanceButtonDialog</text>
</a>
</g>
</g>
<!-- Node1&#45;&gt;Node2 -->
<g id="edge1" class="edge">
<title>Node1&#45;&gt;Node2</title>
<path fill="none" stroke="midnightblue" d="M1113.9,-534.15C1106.15,-585.75 1080.99,-703.8 1008,-764 1005.77,-765.84 864.29,-795.83 779.11,-813.76"/>
<polygon fill="midnightblue" stroke="midnightblue" points="1117.38,-534.58 1115.3,-524.19 1110.44,-533.61 1117.38,-534.58"/>
</g>
<!-- Node3 -->
<g id="node3" class="node">
<title>Node3</title>
<g id="a_node3"><a xlink:href="classAxisEditDialog.html#a84fada029b15920a47782898b47cedc6" target="_top" xlink:title=" ">
<polygon fill="white" stroke="black" points="847,-724 847,-754 994,-754 994,-724 847,-724"/>
<text text-anchor="start" x="855" y="-742" font-family="Helvetica,sans-Serif" font-size="10.00">AxisEditDialog::implement</text>
<text text-anchor="middle" x="920.5" y="-731" font-family="Helvetica,sans-Serif" font-size="10.00">AxisPresets</text>
</a>
</g>
</g>
<!-- Node1&#45;&gt;Node3 -->
<g id="edge2" class="edge">
<title>Node1&#45;&gt;Node3</title>
<path fill="none" stroke="midnightblue" d="M1110.83,-533.83C1098.73,-577.27 1067.71,-666.97 1008,-715 1003.75,-718.42 999.04,-721.35 994.09,-723.87"/>
<polygon fill="midnightblue" stroke="midnightblue" points="1114.23,-534.65 1113.44,-524.08 1107.47,-532.83 1114.23,-534.65"/>
</g>
<!-- Node10 -->
<g id="node10" class="node">
<title>Node10</title>
<g id="a_node10"><a xlink:href="classAxisEditDialog.html#abfa36131c8151a726b2ccd25a2a836f4" target="_top" xlink:title=" ">
<polygon fill="white" stroke="black" points="847,-675 847,-705 994,-705 994,-675 847,-675"/>
<text text-anchor="start" x="855" y="-693" font-family="Helvetica,sans-Serif" font-size="10.00">AxisEditDialog::implement</text>
<text text-anchor="middle" x="920.5" y="-682" font-family="Helvetica,sans-Serif" font-size="10.00">TriggerPresets</text>
</a>
</g>
</g>
<!-- Node1&#45;&gt;Node10 -->
<g id="edge12" class="edge">
<title>Node1&#45;&gt;Node10</title>
<path fill="none" stroke="midnightblue" d="M1105.52,-533.23C1088.63,-566.41 1054.04,-625.75 1008,-660 999.84,-666.07 990.35,-670.98 980.71,-674.94"/>
<polygon fill="midnightblue" stroke="midnightblue" points="1108.68,-534.74 1110,-524.22 1102.41,-531.62 1108.68,-534.74"/>
</g>
<!-- Node11 -->
<g id="node11" class="node">
<title>Node11</title>
<g id="a_node11"><a xlink:href="classAdvanceButtonDialog.html#ad40bcfad2f4380b746002defc689a2b6" target="_top" xlink:title=" ">
<polygon fill="white" stroke="black" points="859.5,-861 859.5,-891 981.5,-891 981.5,-861 859.5,-861"/>
<text text-anchor="start" x="867.5" y="-879" font-family="Helvetica,sans-Serif" font-size="10.00">AdvanceButtonDialog</text>
<text text-anchor="middle" x="920.5" y="-868" font-family="Helvetica,sans-Serif" font-size="10.00">::joinSlot</text>
</a>
</g>
</g>
<!-- Node1&#45;&gt;Node11 -->
<g id="edge14" class="edge">
<title>Node1&#45;&gt;Node11</title>
<path fill="none" stroke="midnightblue" d="M1116.7,-534.54C1114.54,-597.88 1099.89,-763.45 1008,-852 1000.71,-859.03 991.54,-864.04 981.92,-867.59"/>
<polygon fill="midnightblue" stroke="midnightblue" points="1120.21,-534.36 1116.97,-524.27 1113.21,-534.18 1120.21,-534.36"/>
</g>
<!-- Node12 -->
<g id="node12" class="node">
<title>Node12</title>
<g id="a_node12"><a xlink:href="classAdvanceButtonDialog.html#a437fdaa04ca6082ebb7416cf7ac4e6b5" target="_top" xlink:title=" ">
<polygon fill="white" stroke="black" points="654,-636 654,-666 776,-666 776,-636 654,-636"/>
<text text-anchor="start" x="662" y="-654" font-family="Helvetica,sans-Serif" font-size="10.00">AdvanceButtonDialog</text>
<text text-anchor="middle" x="715" y="-643" font-family="Helvetica,sans-Serif" font-size="10.00">::placeNewSlot</text>
</a>
</g>
</g>
<!-- Node1&#45;&gt;Node12 -->
<g id="edge16" class="edge">
<title>Node1&#45;&gt;Node12</title>
<path fill="none" stroke="midnightblue" d="M1102.73,-533.07C1084.62,-561.11 1050.57,-606.25 1008,-627 934.27,-662.94 837.57,-663.12 776.09,-658.34"/>
<polygon fill="midnightblue" stroke="midnightblue" points="1105.9,-534.6 1108.25,-524.27 1099.97,-530.88 1105.9,-534.6"/>
</g>
<!-- Node15 -->
<g id="node15" class="node">
<title>Node15</title>
<g id="a_node15"><a xlink:href="classButtonEditDialog.html#a3f4f84fb02db14ed369dfa2cbe3eb9de" target="_top" xlink:title=" ">
<polygon fill="white" stroke="black" points="849,-587 849,-617 992,-617 992,-587 849,-587"/>
<text text-anchor="start" x="857" y="-605" font-family="Helvetica,sans-Serif" font-size="10.00">ButtonEditDialog::process</text>
<text text-anchor="middle" x="920.5" y="-594" font-family="Helvetica,sans-Serif" font-size="10.00">SlotAssignment</text>
</a>
</g>
</g>
<!-- Node1&#45;&gt;Node15 -->
<g id="edge19" class="edge">
<title>Node1&#45;&gt;Node15</title>
<path fill="none" stroke="midnightblue" d="M1088.87,-530.07C1067.59,-545.18 1037.15,-565.07 1008,-578 1000.45,-581.35 992.32,-584.34 984.17,-586.98"/>
<polygon fill="midnightblue" stroke="midnightblue" points="1091.05,-532.81 1097.12,-524.13 1086.96,-527.13 1091.05,-532.81"/>
</g>
<!-- Node17 -->
<g id="node17" class="node">
<title>Node17</title>
<g id="a_node17"><a xlink:href="classWinSendInputEventHandler.html#afd29783b55e6ebc6ef458cde6fc7ac76" target="_top" xlink:title=" ">
<polygon fill="white" stroke="black" points="845.5,-538 845.5,-568 995.5,-568 995.5,-538 845.5,-538"/>
<text text-anchor="start" x="853.5" y="-556" font-family="Helvetica,sans-Serif" font-size="10.00">WinSendInputEventHandler</text>
<text text-anchor="middle" x="920.5" y="-545" font-family="Helvetica,sans-Serif" font-size="10.00">::sendKeyboardEvent</text>
</a>
</g>
</g>
<!-- Node1&#45;&gt;Node17 -->
<g id="edge23" class="edge">
<title>Node1&#45;&gt;Node17</title>
<path fill="none" stroke="midnightblue" d="M1040.27,-526.27C1023.09,-530.14 1005,-534.21 988.26,-537.97"/>
<polygon fill="midnightblue" stroke="midnightblue" points="1041.28,-529.63 1050.27,-524.02 1039.74,-522.8 1041.28,-529.63"/>
</g>
<!-- Node18 -->
<g id="node18" class="node">
<title>Node18</title>
<g id="a_node18"><a xlink:href="classWinVMultiEventHandler.html#a0a98b762b1770a4590dac5e2bc24d7a9" target="_top" xlink:title=" ">
<polygon fill="white" stroke="black" points="648.5,-496 648.5,-526 781.5,-526 781.5,-496 648.5,-496"/>
<text text-anchor="start" x="656.5" y="-514" font-family="Helvetica,sans-Serif" font-size="10.00">WinVMultiEventHandler</text>
<text text-anchor="middle" x="715" y="-503" font-family="Helvetica,sans-Serif" font-size="10.00">::sendKeyboardEvent</text>
</a>
</g>
</g>
<!-- Node1&#45;&gt;Node18 -->
<g id="edge25" class="edge">
<title>Node1&#45;&gt;Node18</title>
<path fill="none" stroke="midnightblue" d="M1033.59,-509.42C958.75,-509.79 850.41,-510.33 781.61,-510.67"/>
<polygon fill="midnightblue" stroke="midnightblue" points="1033.93,-512.91 1043.92,-509.36 1033.9,-505.91 1033.93,-512.91"/>
</g>
<!-- Node19 -->
<g id="node19" class="node">
<title>Node19</title>
<g id="a_node19"><a xlink:href="classJoyAxisContextMenu.html#aa369997b4c8bc45e220281a2f3a32d96" target="_top" xlink:title=" ">
<polygon fill="white" stroke="black" points="861.5,-156 861.5,-186 979.5,-186 979.5,-156 861.5,-156"/>
<text text-anchor="start" x="869.5" y="-174" font-family="Helvetica,sans-Serif" font-size="10.00">JoyAxisContextMenu</text>
<text text-anchor="middle" x="920.5" y="-163" font-family="Helvetica,sans-Serif" font-size="10.00">::setAxisPreset</text>
</a>
</g>
</g>
<!-- Node1&#45;&gt;Node19 -->
<g id="edge26" class="edge">
<title>Node1&#45;&gt;Node19</title>
<path fill="none" stroke="midnightblue" d="M1115.73,-483.34C1111.37,-423.89 1092.16,-275.76 1008,-196 1000.06,-188.47 989.99,-183.19 979.56,-179.49"/>
<polygon fill="midnightblue" stroke="midnightblue" points="1112.26,-483.93 1116.4,-493.68 1119.24,-483.48 1112.26,-483.93"/>
</g>
<!-- Node24 -->
<g id="node24" class="node">
<title>Node24</title>
<g id="a_node24"><a xlink:href="classDPadEditDialogHelper.html#a15e31302f41da2df05eec55810fc9b1e" target="_top" xlink:title=" ">
<polygon fill="white" stroke="black" points="858,-450 858,-480 983,-480 983,-450 858,-450"/>
<text text-anchor="start" x="866" y="-468" font-family="Helvetica,sans-Serif" font-size="10.00">DPadEditDialogHelper</text>
<text text-anchor="middle" x="920.5" y="-457" font-family="Helvetica,sans-Serif" font-size="10.00">::setFromPendingSlots</text>
</a>
</g>
</g>
<!-- Node1&#45;&gt;Node24 -->
<g id="edge31" class="edge">
<title>Node1&#45;&gt;Node24</title>
<path fill="none" stroke="midnightblue" d="M1040.43,-491.77C1021.38,-487.48 1001.22,-482.94 983,-478.84"/>
<polygon fill="midnightblue" stroke="midnightblue" points="1039.74,-495.2 1050.27,-493.98 1041.28,-488.37 1039.74,-495.2"/>
</g>
<!-- Node25 -->
<g id="node25" class="node">
<title>Node25</title>
<g id="a_node25"><a xlink:href="classDPadContextMenuHelper.html#a4a8d1d9c4ec96d3de8ff69c9afdd560b" target="_top" xlink:title=" ">
<polygon fill="white" stroke="black" points="851,-401 851,-431 990,-431 990,-401 851,-401"/>
<text text-anchor="start" x="859" y="-419" font-family="Helvetica,sans-Serif" font-size="10.00">DPadContextMenuHelper</text>
<text text-anchor="middle" x="920.5" y="-408" font-family="Helvetica,sans-Serif" font-size="10.00">::setFromPendingSlots</text>
</a>
</g>
</g>
<!-- Node1&#45;&gt;Node25 -->
<g id="edge32" class="edge">
<title>Node1&#45;&gt;Node25</title>
<path fill="none" stroke="midnightblue" d="M1088.39,-488.08C1067.09,-473.28 1036.82,-453.86 1008,-441 999.72,-437.31 990.75,-434 981.83,-431.1"/>
<polygon fill="midnightblue" stroke="midnightblue" points="1086.47,-491 1096.66,-493.9 1090.5,-485.28 1086.47,-491"/>
</g>
<!-- Node26 -->
<g id="node26" class="node">
<title>Node26</title>
<g id="a_node26"><a xlink:href="classJoyControlStickEditDialogHelper.html#afe11e24f991d5d825a6ed3b7a7f0a5a6" target="_top" xlink:title=" ">
<polygon fill="white" stroke="black" points="841.5,-352 841.5,-382 999.5,-382 999.5,-352 841.5,-352"/>
<text text-anchor="start" x="849.5" y="-370" font-family="Helvetica,sans-Serif" font-size="10.00">JoyControlStickEditDialog</text>
<text text-anchor="middle" x="920.5" y="-359" font-family="Helvetica,sans-Serif" font-size="10.00">Helper::setFromPendingSlots</text>
</a>
</g>
</g>
<!-- Node1&#45;&gt;Node26 -->
<g id="edge33" class="edge">
<title>Node1&#45;&gt;Node26</title>
<path fill="none" stroke="midnightblue" d="M1101,-485.26C1081.89,-458.72 1047.52,-416.29 1008,-392 1001.74,-388.15 994.86,-384.88 987.81,-382.09"/>
<polygon fill="midnightblue" stroke="midnightblue" points="1098.25,-487.45 1106.88,-493.6 1103.98,-483.41 1098.25,-487.45"/>
</g>
<!-- Node27 -->
<g id="node27" class="node">
<title>Node27</title>
<g id="a_node27"><a xlink:href="classJoySensorIoThreadHelper.html#a639d3efe0906bf8416b4fc6e610fbe5b" target="_top" xlink:title="Applies pending slot values to the buttons Should be called via QMetaObject::invokeMethod.">
<polygon fill="white" stroke="black" points="850.5,-303 850.5,-333 990.5,-333 990.5,-303 850.5,-303"/>
<text text-anchor="start" x="858.5" y="-321" font-family="Helvetica,sans-Serif" font-size="10.00">JoySensorIoThreadHelper</text>
<text text-anchor="middle" x="920.5" y="-310" font-family="Helvetica,sans-Serif" font-size="10.00">::setFromPendingSlots</text>
</a>
</g>
</g>
<!-- Node1&#45;&gt;Node27 -->
<g id="edge34" class="edge">
<title>Node1&#45;&gt;Node27</title>
<path fill="none" stroke="midnightblue" d="M1107.34,-484.13C1091.91,-447.68 1058.21,-380.04 1008,-343 1002.72,-339.1 996.84,-335.81 990.7,-333.03"/>
<polygon fill="midnightblue" stroke="midnightblue" points="1104.17,-485.62 1111.21,-493.54 1110.64,-482.96 1104.17,-485.62"/>
</g>
<!-- Node28 -->
<g id="node28" class="node">
<title>Node28</title>
<g id="a_node28"><a xlink:href="classJoyControlStickContextMenuHelper.html#ac0fbd4e209aedcd20d547081e80291d1" target="_top" xlink:title=" ">
<polygon fill="white" stroke="black" points="841.5,-254 841.5,-284 999.5,-284 999.5,-254 841.5,-254"/>
<text text-anchor="start" x="849.5" y="-272" font-family="Helvetica,sans-Serif" font-size="10.00">JoyControlStickContextMenu</text>
<text text-anchor="middle" x="920.5" y="-261" font-family="Helvetica,sans-Serif" font-size="10.00">Helper::setFromPendingSlots</text>
</a>
</g>
</g>
<!-- Node1&#45;&gt;Node28 -->
<g id="edge35" class="edge">
<title>Node1&#45;&gt;Node28</title>
<path fill="none" stroke="midnightblue" d="M1111.34,-484.11C1099.85,-439.28 1069.48,-344.89 1008,-294 1003.3,-290.11 998.03,-286.83 992.47,-284.06"/>
<polygon fill="midnightblue" stroke="midnightblue" points="1107.96,-485.02 1113.75,-493.89 1114.76,-483.34 1107.96,-485.02"/>
</g>
<!-- Node29 -->
<g id="node29" class="node">
<title>Node29</title>
<g id="a_node29"><a xlink:href="classJoyAxisContextMenu.html#ab1be92f7657d1e9ceaf561bb2b85c43a" target="_top" xlink:title=" ">
<polygon fill="white" stroke="black" points="861.5,-205 861.5,-235 979.5,-235 979.5,-205 861.5,-205"/>
<text text-anchor="start" x="869.5" y="-223" font-family="Helvetica,sans-Serif" font-size="10.00">JoyAxisContextMenu</text>
<text text-anchor="middle" x="920.5" y="-212" font-family="Helvetica,sans-Serif" font-size="10.00">::setTriggerPreset</text>
</a>
</g>
</g>
<!-- Node1&#45;&gt;Node29 -->
<g id="edge36" class="edge">
<title>Node1&#45;&gt;Node29</title>
<path fill="none" stroke="midnightblue" d="M1113.89,-483.77C1106.09,-431.36 1080.77,-310.16 1008,-245 999.96,-237.8 989.98,-232.67 979.67,-229.01"/>
<polygon fill="midnightblue" stroke="midnightblue" points="1110.45,-484.45 1115.31,-493.87 1117.39,-483.48 1110.45,-484.45"/>
</g>
<!-- Node31 -->
<g id="node31" class="node">
<title>Node31</title>
<g id="a_node31"><a xlink:href="classAdvanceButtonDialog.html#adde227692a4a5abc4f4e9cc027ba5866" target="_top" xlink:title=" ">
<polygon fill="white" stroke="black" points="859.5,-812 859.5,-842 981.5,-842 981.5,-812 859.5,-812"/>
<text text-anchor="start" x="867.5" y="-830" font-family="Helvetica,sans-Serif" font-size="10.00">AdvanceButtonDialog</text>
<text text-anchor="middle" x="920.5" y="-819" font-family="Helvetica,sans-Serif" font-size="10.00">::splitSlot</text>
</a>
</g>
</g>
<!-- Node1&#45;&gt;Node31 -->
<g id="edge39" class="edge">
<title>Node1&#45;&gt;Node31</title>
<path fill="none" stroke="midnightblue" d="M1114.56,-534.26C1107.88,-589.65 1084.36,-722.75 1008,-797 1000.59,-804.2 991.37,-809.68 981.73,-813.85"/>
<polygon fill="midnightblue" stroke="midnightblue" points="1118.05,-534.59 1115.68,-524.26 1111.09,-533.81 1118.05,-534.59"/>
</g>
<!-- Node32 -->
<g id="node32" class="node">
<title>Node32</title>
<g id="a_node32"><a xlink:href="classJoyButtonSlotXml.html#af4050a75ee613629694d28a8d5815c8c" target="_top" xlink:title=" ">
<polygon fill="white" stroke="black" points="833,-112.5 833,-131.5 1008,-131.5 1008,-112.5 833,-112.5"/>
<text text-anchor="middle" x="920.5" y="-119.5" font-family="Helvetica,sans-Serif" font-size="10.00">JoyButtonSlotXml::writeEachSlot</text>
</a>
</g>
</g>
<!-- Node1&#45;&gt;Node32 -->
<g id="edge41" class="edge">
<title>Node1&#45;&gt;Node32</title>
<path fill="none" stroke="midnightblue" d="M1117.23,-483.34C1116.37,-417.42 1104.67,-240.65 1008,-146 1001.54,-139.68 993.57,-134.99 985.1,-131.51"/>
<polygon fill="midnightblue" stroke="midnightblue" points="1113.73,-483.65 1117.28,-493.63 1120.73,-483.61 1113.73,-483.65"/>
</g>
<!-- Node4 -->
<g id="node4" class="node">
<title>Node4</title>
<g id="a_node4"><a xlink:href="classAxisEditDialog.html#a6c292e9464c75bb2ef5b0a32bbde3a4a" target="_top" xlink:title=" ">
<polygon fill="white" stroke="black" points="641.5,-704 641.5,-734 788.5,-734 788.5,-704 641.5,-704"/>
<text text-anchor="start" x="649.5" y="-722" font-family="Helvetica,sans-Serif" font-size="10.00">AxisEditDialog::implement</text>
<text text-anchor="middle" x="715" y="-711" font-family="Helvetica,sans-Serif" font-size="10.00">Presets</text>
</a>
</g>
</g>
<!-- Node3&#45;&gt;Node4 -->
<g id="edge3" class="edge">
<title>Node3&#45;&gt;Node4</title>
<path fill="none" stroke="midnightblue" d="M836.55,-730.85C820.65,-729.29 804.12,-727.66 788.58,-726.13"/>
<polygon fill="midnightblue" stroke="midnightblue" points="836.6,-734.37 846.89,-731.86 837.28,-727.4 836.6,-734.37"/>
</g>
<!-- Node5 -->
<g id="node5" class="node">
<title>Node5</title>
<g id="a_node5"><a xlink:href="classAxisEditDialog.html#a702a1718f3a1dd6b64b4474ea19b71cd" target="_top" xlink:title=" ">
<polygon fill="white" stroke="black" points="15,-702 15,-732 149,-732 149,-702 15,-702"/>
<text text-anchor="start" x="23" y="-720" font-family="Helvetica,sans-Serif" font-size="10.00">AxisEditDialog::AxisEdit</text>
<text text-anchor="middle" x="82" y="-709" font-family="Helvetica,sans-Serif" font-size="10.00">Dialog</text>
</a>
</g>
</g>
<!-- Node4&#45;&gt;Node5 -->
<g id="edge4" class="edge">
<title>Node4&#45;&gt;Node5</title>
<path fill="none" stroke="midnightblue" d="M651.59,-736.52C554.22,-761.25 360.65,-799.89 200,-767 167.54,-760.35 132.95,-744.33 109.87,-732.2"/>
<polygon fill="midnightblue" stroke="midnightblue" points="652.47,-739.91 661.28,-734.03 650.72,-733.13 652.47,-739.91"/>
</g>
<!-- Node6 -->
<g id="node6" class="node">
<title>Node6</title>
<g id="a_node6"><a xlink:href="classAxisEditDialog.html#adb32fd63b62082e1c02f1209203ed849" target="_top" xlink:title=" ">
<polygon fill="white" stroke="black" points="438.5,-658 438.5,-688 578.5,-688 578.5,-658 438.5,-658"/>
<text text-anchor="start" x="446.5" y="-676" font-family="Helvetica,sans-Serif" font-size="10.00">AxisEditDialog::presetFor</text>
<text text-anchor="middle" x="508.5" y="-665" font-family="Helvetica,sans-Serif" font-size="10.00">ThrottleChange</text>
</a>
</g>
</g>
<!-- Node4&#45;&gt;Node6 -->
<g id="edge5" class="edge">
<title>Node4&#45;&gt;Node6</title>
<path fill="none" stroke="midnightblue" d="M637.04,-701.69C617.05,-697.19 595.68,-692.39 576.26,-688.02"/>
<polygon fill="midnightblue" stroke="midnightblue" points="636.51,-705.16 647.04,-703.94 638.05,-698.33 636.51,-705.16"/>
</g>
<!-- Node7 -->
<g id="node7" class="node">
<title>Node7</title>
<g id="a_node7"><a xlink:href="classAxisEditDialog.html#a01c9a6dad9e6b7663385850d87f28b67" target="_top" xlink:title=" ">
<polygon fill="white" stroke="black" points="429,-709.5 429,-728.5 588,-728.5 588,-709.5 429,-709.5"/>
<text text-anchor="middle" x="508.5" y="-716.5" font-family="Helvetica,sans-Serif" font-size="10.00">AxisEditDialog::refreshPreset</text>
</a>
</g>
</g>
<!-- Node4&#45;&gt;Node7 -->
<g id="edge7" class="edge">
<title>Node4&#45;&gt;Node7</title>
<path fill="none" stroke="midnightblue" d="M631.11,-719C616.94,-719 602.25,-719 588.19,-719"/>
<polygon fill="midnightblue" stroke="midnightblue" points="631.33,-722.5 641.33,-719 631.33,-715.5 631.33,-722.5"/>
</g>
<!-- Node6&#45;&gt;Node5 -->
<g id="edge6" class="edge">
<title>Node6&#45;&gt;Node5</title>
<path fill="none" stroke="midnightblue" d="M428.17,-663.05C365.59,-657.34 276.41,-653.93 200,-669 168.12,-675.29 134,-690.35 110.88,-701.94"/>
<polygon fill="midnightblue" stroke="midnightblue" points="428.08,-666.56 438.37,-664.03 428.75,-659.59 428.08,-666.56"/>
</g>
<!-- Node8 -->
<g id="node8" class="node">
<title>Node8</title>
<g id="a_node8"><a xlink:href="classAxisEditDialog.html#a4ce9ac251a8c2701bcc97bb12969265f" target="_top" xlink:title=" ">
<polygon fill="white" stroke="black" points="209,-727 209,-757 375,-757 375,-727 209,-727"/>
<text text-anchor="start" x="217" y="-745" font-family="Helvetica,sans-Serif" font-size="10.00">AxisEditDialog::openAdvanced</text>
<text text-anchor="middle" x="292" y="-734" font-family="Helvetica,sans-Serif" font-size="10.00">NDialog</text>
</a>
</g>
</g>
<!-- Node7&#45;&gt;Node8 -->
<g id="edge8" class="edge">
<title>Node7&#45;&gt;Node8</title>
<path fill="none" stroke="midnightblue" d="M418.51,-728.54C404.18,-730.08 389.41,-731.66 375.25,-733.18"/>
<polygon fill="midnightblue" stroke="midnightblue" points="419.28,-731.98 428.85,-727.43 418.53,-725.02 419.28,-731.98"/>
</g>
<!-- Node9 -->
<g id="node9" class="node">
<title>Node9</title>
<g id="a_node9"><a xlink:href="classAxisEditDialog.html#a9a2e3c9b99a31c5ebd2ac59c15abdf25" target="_top" xlink:title=" ">
<polygon fill="white" stroke="black" points="209,-678 209,-708 375,-708 375,-678 209,-678"/>
<text text-anchor="start" x="217" y="-696" font-family="Helvetica,sans-Serif" font-size="10.00">AxisEditDialog::openAdvanced</text>
<text text-anchor="middle" x="292" y="-685" font-family="Helvetica,sans-Serif" font-size="10.00">PDialog</text>
</a>
</g>
</g>
<!-- Node7&#45;&gt;Node9 -->
<g id="edge10" class="edge">
<title>Node7&#45;&gt;Node9</title>
<path fill="none" stroke="midnightblue" d="M418.51,-708.21C404.18,-706.48 389.41,-704.69 375.25,-702.97"/>
<polygon fill="midnightblue" stroke="midnightblue" points="418.5,-711.74 428.85,-709.47 419.34,-704.79 418.5,-711.74"/>
</g>
<!-- Node8&#45;&gt;Node5 -->
<g id="edge9" class="edge">
<title>Node8&#45;&gt;Node5</title>
<path fill="none" stroke="midnightblue" d="M198.52,-730.88C181.92,-728.89 164.92,-726.85 149.25,-724.96"/>
<polygon fill="midnightblue" stroke="midnightblue" points="198.45,-734.4 208.79,-732.12 199.28,-727.45 198.45,-734.4"/>
</g>
<!-- Node9&#45;&gt;Node5 -->
<g id="edge11" class="edge">
<title>Node9&#45;&gt;Node5</title>
<path fill="none" stroke="midnightblue" d="M198.52,-703.67C181.92,-705.59 164.92,-707.55 149.25,-709.36"/>
<polygon fill="midnightblue" stroke="midnightblue" points="199.26,-707.11 208.79,-702.49 198.46,-700.15 199.26,-707.11"/>
</g>
<!-- Node10&#45;&gt;Node4 -->
<g id="edge13" class="edge">
<title>Node10&#45;&gt;Node4</title>
<path fill="none" stroke="midnightblue" d="M836.55,-701.82C820.65,-704.09 804.12,-706.44 788.58,-708.66"/>
<polygon fill="midnightblue" stroke="midnightblue" points="837.49,-705.22 846.89,-700.35 836.5,-698.29 837.49,-705.22"/>
</g>
<!-- Node11&#45;&gt;Node2 -->
<g id="edge15" class="edge">
<title>Node11&#45;&gt;Node2</title>
<path fill="none" stroke="midnightblue" d="M849.24,-859.08C826.27,-853.55 800.92,-847.45 778.55,-842.06"/>
<polygon fill="midnightblue" stroke="midnightblue" points="848.73,-862.56 859.27,-861.5 850.37,-855.75 848.73,-862.56"/>
</g>
<!-- Node13 -->
<g id="node13" class="node">
<title>Node13</title>
<g id="a_node13"><a xlink:href="classButtonEditDialog.html#ade8d1ee4ae03d1080932a70c8170d488" target="_top" xlink:title=" ">
<polygon fill="white" stroke="black" points="420,-587 420,-617 597,-617 597,-587 420,-587"/>
<text text-anchor="start" x="428" y="-605" font-family="Helvetica,sans-Serif" font-size="10.00">ButtonEditDialog::openAdvanced</text>
<text text-anchor="middle" x="508.5" y="-594" font-family="Helvetica,sans-Serif" font-size="10.00">Dialog</text>
</a>
</g>
</g>
<!-- Node12&#45;&gt;Node13 -->
<g id="edge17" class="edge">
<title>Node12&#45;&gt;Node13</title>
<path fill="none" stroke="midnightblue" d="M643.93,-634.21C620.64,-628.63 594.86,-622.45 572.16,-617.01"/>
<polygon fill="midnightblue" stroke="midnightblue" points="643.21,-637.64 653.75,-636.56 644.84,-630.83 643.21,-637.64"/>
</g>
<!-- Node14 -->
<g id="node14" class="node">
<title>Node14</title>
<g id="a_node14"><a xlink:href="classButtonEditDialog.html#a3e9feede100cbb6a11c9d87659c196ea" target="_top" xlink:title=" ">
<polygon fill="white" stroke="black" points="223.5,-555 223.5,-585 360.5,-585 360.5,-555 223.5,-555"/>
<text text-anchor="start" x="231.5" y="-573" font-family="Helvetica,sans-Serif" font-size="10.00">ButtonEditDialog::Button</text>
<text text-anchor="middle" x="292" y="-562" font-family="Helvetica,sans-Serif" font-size="10.00">EditDialog</text>
</a>
</g>
</g>
<!-- Node13&#45;&gt;Node14 -->
<g id="edge18" class="edge">
<title>Node13&#45;&gt;Node14</title>
<path fill="none" stroke="midnightblue" d="M409.66,-587.4C393.06,-584.93 376.16,-582.41 360.56,-580.08"/>
<polygon fill="midnightblue" stroke="midnightblue" points="409.54,-590.92 419.95,-588.94 410.57,-584 409.54,-590.92"/>
</g>
<!-- Node15&#45;&gt;Node14 -->
<g id="edge20" class="edge">
<title>Node15&#45;&gt;Node14</title>
<path fill="none" stroke="midnightblue" d="M843.99,-585.03C828.52,-582.17 812.29,-579.61 797,-578 641.65,-561.68 457.9,-564.23 360.89,-567.27"/>
<polygon fill="midnightblue" stroke="midnightblue" points="843.55,-588.51 854.03,-586.94 844.86,-581.63 843.55,-588.51"/>
</g>
<!-- Node16 -->
<g id="node16" class="node">
<title>Node16</title>
<g id="a_node16"><a xlink:href="classButtonEditDialog.html#a7b7f4ddddf1b67c7883cc03d7469987f" target="_top" xlink:title=" ">
<polygon fill="white" stroke="black" points="646.5,-587 646.5,-617 783.5,-617 783.5,-587 646.5,-587"/>
<text text-anchor="start" x="654.5" y="-605" font-family="Helvetica,sans-Serif" font-size="10.00">ButtonEditDialog::closed</text>
<text text-anchor="middle" x="715" y="-594" font-family="Helvetica,sans-Serif" font-size="10.00">AdvancedDialog</text>
</a>
</g>
</g>
<!-- Node15&#45;&gt;Node16 -->
<g id="edge21" class="edge">
<title>Node15&#45;&gt;Node16</title>
<path fill="none" stroke="midnightblue" d="M838.87,-602C820.61,-602 801.4,-602 783.74,-602"/>
<polygon fill="midnightblue" stroke="midnightblue" points="838.9,-605.5 848.9,-602 838.9,-598.5 838.9,-605.5"/>
</g>
<!-- Node16&#45;&gt;Node13 -->
<g id="edge22" class="edge">
<title>Node16&#45;&gt;Node13</title>
<path fill="none" stroke="midnightblue" d="M636.31,-602C623.47,-602 610.08,-602 597.01,-602"/>
<polygon fill="midnightblue" stroke="midnightblue" points="636.47,-605.5 646.47,-602 636.47,-598.5 636.47,-605.5"/>
</g>
<!-- Node17&#45;&gt;Node18 -->
<g id="edge24" class="edge">
<title>Node17&#45;&gt;Node18</title>
<path fill="none" stroke="midnightblue" d="M836.8,-535.93C818.43,-532.14 799.2,-528.17 781.62,-524.54"/>
<polygon fill="midnightblue" stroke="midnightblue" points="836.11,-539.36 846.61,-537.96 837.52,-532.51 836.11,-539.36"/>
</g>
<!-- Node20 -->
<g id="node20" class="node">
<title>Node20</title>
<g id="a_node20"><a xlink:href="classJoyAxisContextMenu.html#aab4c898a84b58ede5c3a2740287cc898" target="_top" xlink:title=" ">
<polygon fill="white" stroke="black" points="656,-156 656,-186 774,-186 774,-156 656,-156"/>
<text text-anchor="start" x="664" y="-174" font-family="Helvetica,sans-Serif" font-size="10.00">JoyAxisContextMenu</text>
<text text-anchor="middle" x="715" y="-163" font-family="Helvetica,sans-Serif" font-size="10.00">::buildAxisMenu</text>
</a>
</g>
</g>
<!-- Node19&#45;&gt;Node20 -->
<g id="edge27" class="edge">
<title>Node19&#45;&gt;Node20</title>
<path fill="none" stroke="midnightblue" d="M851.3,-171C826.27,-171 798.19,-171 774.12,-171"/>
<polygon fill="midnightblue" stroke="midnightblue" points="851.46,-174.5 861.46,-171 851.46,-167.5 851.46,-174.5"/>
</g>
<!-- Node21 -->
<g id="node21" class="node">
<title>Node21</title>
<g id="a_node21"><a xlink:href="classJoyAxisContextMenu.html#a0bf2f720c91a60d7085d8fd322593f1b" target="_top" xlink:title=" ">
<polygon fill="white" stroke="black" points="449.5,-205 449.5,-235 567.5,-235 567.5,-205 449.5,-205"/>
<text text-anchor="start" x="457.5" y="-223" font-family="Helvetica,sans-Serif" font-size="10.00">JoyAxisContextMenu</text>
<text text-anchor="middle" x="508.5" y="-212" font-family="Helvetica,sans-Serif" font-size="10.00">::buildMenu</text>
</a>
</g>
</g>
<!-- Node20&#45;&gt;Node21 -->
<g id="edge28" class="edge">
<title>Node20&#45;&gt;Node21</title>
<path fill="none" stroke="midnightblue" d="M646.03,-187.29C620.66,-193.36 592.11,-200.21 567.7,-206.05"/>
<polygon fill="midnightblue" stroke="midnightblue" points="647.04,-190.64 655.95,-184.91 645.41,-183.84 647.04,-190.64"/>
</g>
<!-- Node22 -->
<g id="node22" class="node">
<title>Node22</title>
<g id="a_node22"><a xlink:href="classJoyAxisWidget.html#a7788b7cc52a2682d0695e31a5841cee2" target="_top" xlink:title=" ">
<polygon fill="white" stroke="black" points="200,-213.5 200,-232.5 384,-232.5 384,-213.5 200,-213.5"/>
<text text-anchor="middle" x="292" y="-220.5" font-family="Helvetica,sans-Serif" font-size="10.00">JoyAxisWidget::showContextMenu</text>
</a>
</g>
</g>
<!-- Node21&#45;&gt;Node22 -->
<g id="edge29" class="edge">
<title>Node21&#45;&gt;Node22</title>
<path fill="none" stroke="midnightblue" d="M439.34,-220.95C421.82,-221.2 402.68,-221.47 384.2,-221.72"/>
<polygon fill="midnightblue" stroke="midnightblue" points="439.5,-224.45 449.45,-220.81 439.41,-217.45 439.5,-224.45"/>
</g>
<!-- Node23 -->
<g id="node23" class="node">
<title>Node23</title>
<g id="a_node23"><a xlink:href="classJoyAxisWidget.html#af03b84951f7731c7e4a773d66c6fe414" target="_top" xlink:title=" ">
<polygon fill="white" stroke="black" points="0,-213.5 0,-232.5 164,-232.5 164,-213.5 0,-213.5"/>
<text text-anchor="middle" x="82" y="-220.5" font-family="Helvetica,sans-Serif" font-size="10.00">JoyAxisWidget::JoyAxisWidget</text>
</a>
</g>
</g>
<!-- Node22&#45;&gt;Node23 -->
<g id="edge30" class="edge">
<title>Node22&#45;&gt;Node23</title>
<path fill="none" stroke="midnightblue" d="M189.69,-223C181.08,-223 172.45,-223 164.03,-223"/>
<polygon fill="midnightblue" stroke="midnightblue" points="189.77,-226.5 199.77,-223 189.77,-219.5 189.77,-226.5"/>
</g>
<!-- Node30 -->
<g id="node30" class="node">
<title>Node30</title>
<g id="a_node30"><a xlink:href="classJoyAxisContextMenu.html#adf4373314a4567689fb16a2e4cf484e1" target="_top" xlink:title=" ">
<polygon fill="white" stroke="black" points="656,-205 656,-235 774,-235 774,-205 656,-205"/>
<text text-anchor="start" x="664" y="-223" font-family="Helvetica,sans-Serif" font-size="10.00">JoyAxisContextMenu</text>
<text text-anchor="middle" x="715" y="-212" font-family="Helvetica,sans-Serif" font-size="10.00">::buildTriggerMenu</text>
</a>
</g>
</g>
<!-- Node29&#45;&gt;Node30 -->
<g id="edge37" class="edge">
<title>Node29&#45;&gt;Node30</title>
<path fill="none" stroke="midnightblue" d="M851.3,-220C826.27,-220 798.19,-220 774.12,-220"/>
<polygon fill="midnightblue" stroke="midnightblue" points="851.46,-223.5 861.46,-220 851.46,-216.5 851.46,-223.5"/>
</g>
<!-- Node30&#45;&gt;Node21 -->
<g id="edge38" class="edge">
<title>Node30&#45;&gt;Node21</title>
<path fill="none" stroke="midnightblue" d="M645.69,-220C620.41,-220 592,-220 567.7,-220"/>
<polygon fill="midnightblue" stroke="midnightblue" points="645.95,-223.5 655.95,-220 645.95,-216.5 645.95,-223.5"/>
</g>
<!-- Node31&#45;&gt;Node2 -->
<g id="edge40" class="edge">
<title>Node31&#45;&gt;Node2</title>
<path fill="none" stroke="midnightblue" d="M849.03,-827C826.36,-827 801.38,-827 779.26,-827"/>
<polygon fill="midnightblue" stroke="midnightblue" points="849.27,-830.5 859.27,-827 849.27,-823.5 849.27,-830.5"/>
</g>
<!-- Node33 -->
<g id="node33" class="node">
<title>Node33</title>
<g id="a_node33"><a xlink:href="classJoyButtonSlotXml.html#a894dae8b0bcb4519b10279fb02ada1bd" target="_top" xlink:title=" ">
<polygon fill="white" stroke="black" points="633,-103.5 633,-122.5 797,-122.5 797,-103.5 633,-103.5"/>
<text text-anchor="middle" x="715" y="-110.5" font-family="Helvetica,sans-Serif" font-size="10.00">JoyButtonSlotXml::writeConfig</text>
</a>
</g>
</g>
<!-- Node32&#45;&gt;Node33 -->
<g id="edge42" class="edge">
<title>Node32&#45;&gt;Node33</title>
<path fill="none" stroke="midnightblue" d="M822.81,-117.72C814.18,-117.34 805.5,-116.96 797.03,-116.58"/>
<polygon fill="midnightblue" stroke="midnightblue" points="822.76,-121.22 832.9,-118.17 823.07,-114.23 822.76,-121.22"/>
</g>
<!-- Node34 -->
<g id="node34" class="node">
<title>Node34</title>
<g id="a_node34"><a xlink:href="classJoyButtonXml.html#a766e87947104bfd54fc15b96b267ebdd" target="_top" xlink:title=" ">
<polygon fill="white" stroke="black" points="436,-84.5 436,-103.5 581,-103.5 581,-84.5 436,-84.5"/>
<text text-anchor="middle" x="508.5" y="-91.5" font-family="Helvetica,sans-Serif" font-size="10.00">JoyButtonXml::writeConfig</text>
</a>
</g>
</g>
<!-- Node33&#45;&gt;Node34 -->
<g id="edge43" class="edge">
<title>Node33&#45;&gt;Node34</title>
<path fill="none" stroke="midnightblue" d="M622.81,-104.53C608.88,-103.23 594.68,-101.91 581.25,-100.67"/>
<polygon fill="midnightblue" stroke="midnightblue" points="622.6,-108.02 632.88,-105.46 623.25,-101.05 622.6,-108.02"/>
</g>
<!-- Node35 -->
<g id="node35" class="node">
<title>Node35</title>
<g id="a_node35"><a xlink:href="classGameControllerTriggerXml.html#a382a32a139351f790192dc0991dea637" target="_top" xlink:title=" ">
<polygon fill="white" stroke="black" points="219,-126 219,-156 365,-156 365,-126 219,-126"/>
<text text-anchor="start" x="227" y="-144" font-family="Helvetica,sans-Serif" font-size="10.00">GameControllerTriggerXml</text>
<text text-anchor="middle" x="292" y="-133" font-family="Helvetica,sans-Serif" font-size="10.00">::writeConfig</text>
</a>
</g>
</g>
<!-- Node34&#45;&gt;Node35 -->
<g id="edge44" class="edge">
<title>Node34&#45;&gt;Node35</title>
<path fill="none" stroke="midnightblue" d="M454.11,-105.7C426.16,-111.82 391.61,-119.39 361.68,-125.95"/>
<polygon fill="midnightblue" stroke="midnightblue" points="455.07,-109.07 464.09,-103.51 453.58,-102.23 455.07,-109.07"/>
</g>
<!-- Node36 -->
<g id="node36" class="node">
<title>Node36</title>
<g id="a_node36"><a xlink:href="classJoyDPadXml.html#ac78c8fd1ad107f6a3baed4910863cb0c" target="_top" xlink:title=" ">
<polygon fill="white" stroke="black" points="210,-77 210,-107 374,-107 374,-77 210,-77"/>
<text text-anchor="start" x="218" y="-95" font-family="Helvetica,sans-Serif" font-size="10.00">JoyDPadXml&lt; GameController</text>
<text text-anchor="middle" x="292" y="-84" font-family="Helvetica,sans-Serif" font-size="10.00">DPad &gt;::writeConfig</text>
</a>
</g>
</g>
<!-- Node34&#45;&gt;Node36 -->
<g id="edge45" class="edge">
<title>Node34&#45;&gt;Node36</title>
<path fill="none" stroke="midnightblue" d="M425.46,-93.24C408.68,-93.08 391.03,-92.91 374.28,-92.76"/>
<polygon fill="midnightblue" stroke="midnightblue" points="425.74,-96.74 435.78,-93.33 425.81,-89.74 425.74,-96.74"/>
</g>
<!-- Node37 -->
<g id="node37" class="node">
<title>Node37</title>
<g id="a_node37"><a xlink:href="classSetJoystickXml.html#a11eec051c05deac5ebe47b9582e83b6f" target="_top" xlink:title="Serializes a SetJoystick object into the the given XML stream.">
<polygon fill="white" stroke="black" points="216,-38.5 216,-57.5 368,-57.5 368,-38.5 216,-38.5"/>
<text text-anchor="middle" x="292" y="-45.5" font-family="Helvetica,sans-Serif" font-size="10.00">SetJoystickXml::writeConfig</text>
</a>
</g>
</g>
<!-- Node34&#45;&gt;Node37 -->
<g id="edge46" class="edge">
<title>Node34&#45;&gt;Node37</title>
<path fill="none" stroke="midnightblue" d="M454.32,-82.26C432.53,-77.48 407.07,-71.93 384,-67 369.48,-63.9 353.64,-60.57 339.31,-57.58"/>
<polygon fill="midnightblue" stroke="midnightblue" points="453.85,-85.74 464.37,-84.47 455.35,-78.9 453.85,-85.74"/>
</g>
<!-- Node38 -->
<g id="node38" class="node">
<title>Node38</title>
<g id="a_node38"><a xlink:href="classJoySensor.html#a92d38c3baf6dc85d28d66e7a7df4b4c3" target="_top" xlink:title="Write the status of the properties of a sensor and direction buttons to an XML stream.">
<polygon fill="white" stroke="black" points="229,-0.5 229,-19.5 355,-19.5 355,-0.5 229,-0.5"/>
<text text-anchor="middle" x="292" y="-7.5" font-family="Helvetica,sans-Serif" font-size="10.00">JoySensor::writeConfig</text>
</a>
</g>
</g>
<!-- Node34&#45;&gt;Node38 -->
<g id="edge47" class="edge">
<title>Node34&#45;&gt;Node38</title>
<path fill="none" stroke="midnightblue" d="M483.72,-78.91C459.5,-64.17 420.43,-42.1 384,-29 373.52,-25.23 362.08,-22.12 350.96,-19.57"/>
<polygon fill="midnightblue" stroke="midnightblue" points="482.19,-82.08 492.54,-84.35 485.87,-76.12 482.19,-82.08"/>
</g>
<!-- Node39 -->
<g id="node39" class="node">
<title>Node39</title>
<g id="a_node39"><a xlink:href="classJoyControlStick.html#a3ab1764a44e806d2d3896023f82fa3b1" target="_top" xlink:title="Write the status of the properties of a stick and direction buttons to an XML stream.">
<polygon fill="white" stroke="black" points="216,-175.5 216,-194.5 368,-194.5 368,-175.5 216,-175.5"/>
<text text-anchor="middle" x="292" y="-182.5" font-family="Helvetica,sans-Serif" font-size="10.00">JoyControlStick::writeConfig</text>
</a>
</g>
</g>
<!-- Node34&#45;&gt;Node39 -->
<g id="edge48" class="edge">
<title>Node34&#45;&gt;Node39</title>
<path fill="none" stroke="midnightblue" d="M485.79,-109.24C461.9,-125.33 421.84,-150.37 384,-165 372.99,-169.26 360.85,-172.72 349.14,-175.48"/>
<polygon fill="midnightblue" stroke="midnightblue" points="487.84,-112.08 494.12,-103.55 483.89,-106.3 487.84,-112.08"/>
</g>
</g>
</svg>
        <g id="navigator" transform="translate(0 0)" fill="#404254">
                <rect fill="#f2f5e9" fill-opacity="0.5" stroke="#606060" stroke-width=".5" x="0" y="0" width="60" height="60"/>
                <use id="zoomplus" xlink:href="#zoomPlus" x="17" y="9" onmousedown="handleZoom(evt,'in')"/>
                <use id="zoomminus" xlink:href="#zoomMin" x="42" y="9" onmousedown="handleZoom(evt,'out')"/>
                <use id="reset" xlink:href="#resetDef" x="30" y="36" onmousedown="handleReset()"/>
                <g id="arrowUp" xlink:href="#dirArrow" transform="translate(30 24)" onmousedown="handlePan(0,-1)">
                  <use xlink:href="#rim" fill="#404040">
                        <set attributeName="fill" to="#808080" begin="arrowUp.mouseover" end="arrowUp.mouseout"/>
                  </use>
                  <path fill="none" stroke="white" stroke-width="1.5" d="M0,-3.0v7 M-2.5,-0.5L0,-3.0L2.5,-0.5"/>
                </g>
                <g id="arrowRight" xlink:href="#dirArrow" transform="rotate(90) translate(36 -43)" onmousedown="handlePan(1,0)">
                  <use xlink:href="#rim" fill="#404040">
                        <set attributeName="fill" to="#808080" begin="arrowRight.mouseover" end="arrowRight.mouseout"/>
                  </use>
                  <path fill="none" stroke="white" stroke-width="1.5" d="M0,-3.0v7 M-2.5,-0.5L0,-3.0L2.5,-0.5"/>
                </g>
                <g id="arrowDown" xlink:href="#dirArrow" transform="rotate(180) translate(-30 -48)" onmousedown="handlePan(0,1)">
                  <use xlink:href="#rim" fill="#404040">
                        <set attributeName="fill" to="#808080" begin="arrowDown.mouseover" end="arrowDown.mouseout"/>
                  </use>
                  <path fill="none" stroke="white" stroke-width="1.5" d="M0,-3.0v7 M-2.5,-0.5L0,-3.0L2.5,-0.5"/>
                </g>
                <g id="arrowLeft" xlink:href="#dirArrow" transform="rotate(270) translate(-36 17)" onmousedown="handlePan(-1,0)">
                  <use xlink:href="#rim" fill="#404040">
                        <set attributeName="fill" to="#808080" begin="arrowLeft.mouseover" end="arrowLeft.mouseout"/>
                  </use>
                  <path fill="none" stroke="white" stroke-width="1.5" d="M0,-3.0v7 M-2.5,-0.5L0,-3.0L2.5,-0.5"/>
                </g>
        </g>
        <svg viewBox="0 0 15 15" width="100%" height="30px" preserveAspectRatio="xMaxYMin meet">
         <g id="arrow_out" transform="scale(0.3 0.3)">
          <a xlink:href="classJoyButtonSlot_a509e28e2c92e8aea3433a19f2d0311b2_icgraph_org.svg" target="_base">
           <rect id="button" ry="5" rx="5" y="6" x="6" height="38" width="38"
                fill="#f2f5e9" fill-opacity="0.5" stroke="#606060" stroke-width="1.0"/>
           <path id="arrow"
             d="M 11.500037,31.436501 C 11.940474,20.09759 22.043105,11.32322 32.158766,21.979434 L 37.068811,17.246167 C 37.068811,17.246167 37.088388,32 37.088388,32 L 22.160133,31.978069 C 22.160133,31.978069 26.997745,27.140456 26.997745,27.140456 C 18.528582,18.264221 13.291696,25.230495 11.500037,31.436501 z"
             style="fill:#404040;"/>
          </a>
         </g>
        </svg>
</svg>
