<?xml version="1.0" encoding="UTF-8" standalone="no"?>
<!DOCTYPE svg PUBLIC "-//W3C//DTD SVG 1.1//EN"
 "http://www.w3.org/Graphics/SVG/1.1/DTD/svg11.dtd">
<!-- Generated by graphviz version 2.43.0 (0)
 -->
<!-- Title: JoyButton::setExtraAccelerationStatus Pages: 1 -->
<!--zoomable 354 -->
<svg id="main" version="1.1" xmlns="http://www.w3.org/2000/svg" xmlns:xlink="http://www.w3.org/1999/xlink" xml:space="preserve" onload="init(evt)">
<style type="text/css"><![CDATA[
.edge:hover path { stroke: red; }
.edge:hover polygon { stroke: red; fill: red; }
]]></style>
<script type="text/javascript"><![CDATA[
var edges = document.getElementsByTagName('g');
if (edges && edges.length) {
  for (var i=0;i<edges.length;i++) {
    if (edges[i].id.substr(0,4)=='edge') {
      edges[i].setAttribute('class','edge');
    }
  }
}
]]></script>
        <defs>
                <circle id="rim" cx="0" cy="0" r="7"/>
                <circle id="rim2" cx="0" cy="0" r="3.5"/>
                <g id="zoomPlus">
                        <use xlink:href="#rim" fill="#404040">
                                <set attributeName="fill" to="#808080" begin="zoomplus.mouseover" end="zoomplus.mouseout"/>
                        </use>
                        <path d="M-4,0h8M0,-4v8" fill="none" stroke="white" stroke-width="1.5" pointer-events="none"/>
                </g>
                <g id="zoomMin">
                        <use xlink:href="#rim" fill="#404040">
                                <set attributeName="fill" to="#808080" begin="zoomminus.mouseover" end="zoomminus.mouseout"/>
                        </use>
                        <path d="M-4,0h8" fill="none" stroke="white" stroke-width="1.5" pointer-events="none"/>
                </g>
                <g id="dirArrow">
                        <path fill="none" stroke="white" stroke-width="1.5" d="M0,-3.0v7 M-2.5,-0.5L0,-3.0L2.5,-0.5"/>
                </g>
               <g id="resetDef">
                       <use xlink:href="#rim2" fill="#404040">
                               <set attributeName="fill" to="#808080" begin="reset.mouseover" end="reset.mouseout"/>
                       </use>
               </g>
        </defs>

<script type="text/javascript">
var viewWidth = 1038;
var viewHeight = 354;
var sectionId = 'dynsection-241';
</script>
<script xlink:href="svgpan.js"/>
<svg id="graph" class="graph">
<g id="viewport">
<title>JoyButton::setExtraAccelerationStatus</title>
<polygon fill="white" stroke="transparent" points="-4,4 -4,-349.5 1034,-349.5 1034,4 -4,4"/>
<!-- Node1 -->
<g id="node1" class="node">
<title>Node1</title>
<g id="a_node1"><a xlink:title=" ">
<polygon fill="#bfbfbf" stroke="black" points="859,-180 859,-210 1030,-210 1030,-180 859,-180"/>
<text text-anchor="start" x="867" y="-198" font-family="Helvetica,sans-Serif" font-size="10.00">JoyButton::setExtraAcceleration</text>
<text text-anchor="middle" x="944.5" y="-187" font-family="Helvetica,sans-Serif" font-size="10.00">Status</text>
</a>
</g>
</g>
<!-- Node2 -->
<g id="node2" class="node">
<title>Node2</title>
<g id="a_node2"><a xlink:href="classMouseButtonSettingsDialog.html#af2f3f8cacbf6c91f0dd935c4db231612" target="_top" xlink:title=" ">
<polygon fill="white" stroke="black" points="659.5,-315 659.5,-345 811.5,-345 811.5,-315 659.5,-315"/>
<text text-anchor="start" x="667.5" y="-333" font-family="Helvetica,sans-Serif" font-size="10.00">MouseButtonSettingsDialog</text>
<text text-anchor="middle" x="735.5" y="-322" font-family="Helvetica,sans-Serif" font-size="10.00">::changeMouseMode</text>
</a>
</g>
</g>
<!-- Node1&#45;&gt;Node2 -->
<g id="edge1" class="edge">
<title>Node1&#45;&gt;Node2</title>
<path fill="none" stroke="midnightblue" d="M924.23,-218.02C902.19,-242.92 863.85,-282.12 823,-305 816.18,-308.82 808.73,-312.1 801.14,-314.91"/>
<polygon fill="midnightblue" stroke="midnightblue" points="927.14,-220.01 931.06,-210.16 921.85,-215.41 927.14,-220.01"/>
</g>
<!-- Node4 -->
<g id="node4" class="node">
<title>Node4</title>
<g id="a_node4"><a xlink:href="classMouseAxisSettingsDialog.html#a71cbcc0f06e217b497f865fc520b3da7" target="_top" xlink:title=" ">
<polygon fill="white" stroke="black" points="665,-205 665,-235 806,-235 806,-205 665,-205"/>
<text text-anchor="start" x="673" y="-223" font-family="Helvetica,sans-Serif" font-size="10.00">MouseAxisSettingsDialog</text>
<text text-anchor="middle" x="735.5" y="-212" font-family="Helvetica,sans-Serif" font-size="10.00">::changeMouseMode</text>
</a>
</g>
</g>
<!-- Node1&#45;&gt;Node4 -->
<g id="edge3" class="edge">
<title>Node1&#45;&gt;Node4</title>
<path fill="none" stroke="midnightblue" d="M848.37,-206.49C834.09,-208.21 819.61,-209.96 806,-211.61"/>
<polygon fill="midnightblue" stroke="midnightblue" points="849.2,-209.91 858.71,-205.24 848.36,-202.96 849.2,-209.91"/>
</g>
<!-- Node6 -->
<g id="node6" class="node">
<title>Node6</title>
<g id="a_node6"><a xlink:href="classJoyButtonXml.html#a9d7b2a6324a2f8fe4f424f78aa43d261" target="_top" xlink:title=" ">
<polygon fill="white" stroke="black" points="664,-107 664,-137 807,-137 807,-107 664,-107"/>
<text text-anchor="start" x="672" y="-125" font-family="Helvetica,sans-Serif" font-size="10.00">JoyButtonXml::readButton</text>
<text text-anchor="middle" x="735.5" y="-114" font-family="Helvetica,sans-Serif" font-size="10.00">Config</text>
</a>
</g>
</g>
<!-- Node1&#45;&gt;Node6 -->
<g id="edge5" class="edge">
<title>Node1&#45;&gt;Node6</title>
<path fill="none" stroke="midnightblue" d="M898.93,-176.04C876.37,-166.75 848.44,-155.72 823,-147 812.94,-143.55 802.13,-140.17 791.66,-137.07"/>
<polygon fill="midnightblue" stroke="midnightblue" points="897.67,-179.31 908.25,-179.9 900.35,-172.84 897.67,-179.31"/>
</g>
<!-- Node11 -->
<g id="node11" class="node">
<title>Node11</title>
<g id="a_node11"><a xlink:href="classJoyControlStick.html#a332a38a549ccfe4d68faac2b91d17e1d" target="_top" xlink:title=" ">
<polygon fill="white" stroke="black" points="661,-58 661,-88 810,-88 810,-58 661,-58"/>
<text text-anchor="start" x="669" y="-76" font-family="Helvetica,sans-Serif" font-size="10.00">JoyControlStick::setButtons</text>
<text text-anchor="middle" x="735.5" y="-65" font-family="Helvetica,sans-Serif" font-size="10.00">ExtraAccelerationStatus</text>
</a>
</g>
</g>
<!-- Node1&#45;&gt;Node11 -->
<g id="edge11" class="edge">
<title>Node1&#45;&gt;Node11</title>
<path fill="none" stroke="midnightblue" d="M921.51,-172.72C898.72,-150.81 861.15,-117.84 823,-98 815.65,-94.18 807.64,-90.87 799.55,-88.02"/>
<polygon fill="midnightblue" stroke="midnightblue" points="919.33,-175.49 928.93,-179.97 924.22,-170.48 919.33,-175.49"/>
</g>
<!-- Node15 -->
<g id="node15" class="node">
<title>Node15</title>
<g id="a_node15"><a xlink:href="classMouseButtonSettingsDialogHelper.html#afd32ffec3172be5b6edd58e548a497a7" target="_top" xlink:title=" ">
<polygon fill="white" stroke="black" points="648,-254.5 648,-295.5 823,-295.5 823,-254.5 648,-254.5"/>
<text text-anchor="start" x="656" y="-283.5" font-family="Helvetica,sans-Serif" font-size="10.00">MouseButtonSettingsDialog</text>
<text text-anchor="start" x="656" y="-272.5" font-family="Helvetica,sans-Serif" font-size="10.00">Helper::updateExtraAcceleration</text>
<text text-anchor="middle" x="735.5" y="-261.5" font-family="Helvetica,sans-Serif" font-size="10.00">Status</text>
</a>
</g>
</g>
<!-- Node1&#45;&gt;Node15 -->
<g id="edge16" class="edge">
<title>Node1&#45;&gt;Node15</title>
<path fill="none" stroke="midnightblue" d="M899.29,-214.08C876.61,-223.68 848.47,-235.31 823,-245 814.68,-248.17 805.86,-251.38 797.16,-254.47"/>
<polygon fill="midnightblue" stroke="midnightblue" points="900.82,-217.24 908.66,-210.1 898.08,-210.79 900.82,-217.24"/>
</g>
<!-- Node16 -->
<g id="node16" class="node">
<title>Node16</title>
<g id="a_node16"><a xlink:href="classMouseAxisSettingsDialogHelper.html#a50a6f8b1fd3326933a9432ab62c2bf2c" target="_top" xlink:title=" ">
<polygon fill="white" stroke="black" points="649,-156 649,-186 822,-186 822,-156 649,-156"/>
<text text-anchor="start" x="657" y="-174" font-family="Helvetica,sans-Serif" font-size="10.00">MouseAxisSettingsDialogHelper</text>
<text text-anchor="middle" x="735.5" y="-163" font-family="Helvetica,sans-Serif" font-size="10.00">::updateExtraAccelerationStatus</text>
</a>
</g>
</g>
<!-- Node1&#45;&gt;Node16 -->
<g id="edge18" class="edge">
<title>Node1&#45;&gt;Node16</title>
<path fill="none" stroke="midnightblue" d="M848.75,-184.01C839.89,-182.99 830.94,-181.95 822.17,-180.93"/>
<polygon fill="midnightblue" stroke="midnightblue" points="848.37,-187.49 858.71,-185.17 849.18,-180.54 848.37,-187.49"/>
</g>
<!-- Node3 -->
<g id="node3" class="node">
<title>Node3</title>
<g id="a_node3"><a xlink:href="classMouseButtonSettingsDialog.html#a181bfdf388907056ec492d58d85f5d34" target="_top" xlink:title=" ">
<polygon fill="white" stroke="black" points="430,-287 430,-317 588,-317 588,-287 430,-287"/>
<text text-anchor="start" x="438" y="-305" font-family="Helvetica,sans-Serif" font-size="10.00">MouseButtonSettingsDialog</text>
<text text-anchor="middle" x="509" y="-294" font-family="Helvetica,sans-Serif" font-size="10.00">::MouseButtonSettingsDialog</text>
</a>
</g>
</g>
<!-- Node2&#45;&gt;Node3 -->
<g id="edge2" class="edge">
<title>Node2&#45;&gt;Node3</title>
<path fill="none" stroke="midnightblue" d="M649.35,-319.38C629.23,-316.87 607.86,-314.21 588.07,-311.74"/>
<polygon fill="midnightblue" stroke="midnightblue" points="649.08,-322.87 659.43,-320.64 649.94,-315.93 649.08,-322.87"/>
</g>
<!-- Node5 -->
<g id="node5" class="node">
<title>Node5</title>
<g id="a_node5"><a xlink:href="classMouseAxisSettingsDialog.html#a33546e4b608264ce6d2758678eb6d2e7" target="_top" xlink:title=" ">
<polygon fill="white" stroke="black" points="435.5,-181 435.5,-211 582.5,-211 582.5,-181 435.5,-181"/>
<text text-anchor="start" x="443.5" y="-199" font-family="Helvetica,sans-Serif" font-size="10.00">MouseAxisSettingsDialog</text>
<text text-anchor="middle" x="509" y="-188" font-family="Helvetica,sans-Serif" font-size="10.00">::MouseAxisSettingsDialog</text>
</a>
</g>
</g>
<!-- Node4&#45;&gt;Node5 -->
<g id="edge4" class="edge">
<title>Node4&#45;&gt;Node5</title>
<path fill="none" stroke="midnightblue" d="M654.48,-211.45C631.13,-208.95 605.75,-206.24 582.86,-203.79"/>
<polygon fill="midnightblue" stroke="midnightblue" points="654.38,-214.95 664.7,-212.54 655.13,-207.99 654.38,-214.95"/>
</g>
<!-- Node7 -->
<g id="node7" class="node">
<title>Node7</title>
<g id="a_node7"><a xlink:href="classJoyButtonXml.html#a9d79d75b14b57419ed1fc5639dde8515" target="_top" xlink:title=" ">
<polygon fill="white" stroke="black" points="438,-112.5 438,-131.5 580,-131.5 580,-112.5 438,-112.5"/>
<text text-anchor="middle" x="509" y="-119.5" font-family="Helvetica,sans-Serif" font-size="10.00">JoyButtonXml::readConfig</text>
</a>
</g>
</g>
<!-- Node6&#45;&gt;Node7 -->
<g id="edge6" class="edge">
<title>Node6&#45;&gt;Node7</title>
<path fill="none" stroke="midnightblue" d="M653.64,-122C629.67,-122 603.62,-122 580.37,-122"/>
<polygon fill="midnightblue" stroke="midnightblue" points="653.77,-125.5 663.77,-122 653.77,-118.5 653.77,-125.5"/>
</g>
<!-- Node8 -->
<g id="node8" class="node">
<title>Node8</title>
<g id="a_node8"><a xlink:href="classSetJoystickXml.html#aa95423a01fab878cbc69bffb7f6121f3" target="_top" xlink:title="Deserializes the given XML stream into a SetJoystick object.">
<polygon fill="white" stroke="black" points="0,-131.5 0,-150.5 149,-150.5 149,-131.5 0,-131.5"/>
<text text-anchor="middle" x="74.5" y="-138.5" font-family="Helvetica,sans-Serif" font-size="10.00">SetJoystickXml::readConfig</text>
</a>
</g>
</g>
<!-- Node7&#45;&gt;Node8 -->
<g id="edge7" class="edge">
<title>Node7&#45;&gt;Node8</title>
<path fill="none" stroke="midnightblue" d="M441.6,-133.02C418.95,-136.27 393.43,-139.39 370,-141 294.89,-146.15 208.75,-145.37 149.12,-143.79"/>
<polygon fill="midnightblue" stroke="midnightblue" points="442.4,-136.44 451.78,-131.51 441.38,-129.51 442.4,-136.44"/>
</g>
<!-- Node9 -->
<g id="node9" class="node">
<title>Node9</title>
<g id="a_node9"><a xlink:href="classJoyControlStick.html#ab6ce741115ee3d436c1a7e866abd21e6" target="_top" xlink:title="Take a XML stream and set the stick and direction button properties according to the values contained...">
<polygon fill="white" stroke="black" points="203,-112.5 203,-131.5 352,-131.5 352,-112.5 203,-112.5"/>
<text text-anchor="middle" x="277.5" y="-119.5" font-family="Helvetica,sans-Serif" font-size="10.00">JoyControlStick::readConfig</text>
</a>
</g>
</g>
<!-- Node7&#45;&gt;Node9 -->
<g id="edge8" class="edge">
<title>Node7&#45;&gt;Node9</title>
<path fill="none" stroke="midnightblue" d="M427.87,-122C403.26,-122 376.31,-122 352.15,-122"/>
<polygon fill="midnightblue" stroke="midnightblue" points="427.9,-125.5 437.9,-122 427.9,-118.5 427.9,-125.5"/>
</g>
<!-- Node10 -->
<g id="node10" class="node">
<title>Node10</title>
<g id="a_node10"><a xlink:href="classJoyDPadXml.html#ae9a3556242b984c81fc6945acafc5586" target="_top" xlink:title=" ">
<polygon fill="white" stroke="black" points="198.5,-74.5 198.5,-93.5 356.5,-93.5 356.5,-74.5 198.5,-74.5"/>
<text text-anchor="middle" x="277.5" y="-81.5" font-family="Helvetica,sans-Serif" font-size="10.00">JoyDPadXml::readMainConfig</text>
</a>
</g>
</g>
<!-- Node7&#45;&gt;Node10 -->
<g id="edge10" class="edge">
<title>Node7&#45;&gt;Node10</title>
<path fill="none" stroke="midnightblue" d="M440.33,-110.8C407.22,-105.31 367.79,-98.78 336.14,-93.54"/>
<polygon fill="midnightblue" stroke="midnightblue" points="439.95,-114.28 450.38,-112.46 441.09,-107.37 439.95,-114.28"/>
</g>
<!-- Node9&#45;&gt;Node8 -->
<g id="edge9" class="edge">
<title>Node9&#45;&gt;Node8</title>
<path fill="none" stroke="midnightblue" d="M192.44,-129.95C178.08,-131.3 163.26,-132.7 149.19,-134.03"/>
<polygon fill="midnightblue" stroke="midnightblue" points="193.17,-133.39 202.8,-128.97 192.51,-126.42 193.17,-133.39"/>
</g>
<!-- Node12 -->
<g id="node12" class="node">
<title>Node12</title>
<g id="a_node12"><a xlink:href="classMouseControlStickSettingsDialog.html#a476f86c223a02146ad662276ed96a6aa" target="_top" xlink:title=" ">
<polygon fill="white" stroke="black" points="434.5,-61 434.5,-91 583.5,-91 583.5,-61 434.5,-61"/>
<text text-anchor="start" x="442.5" y="-79" font-family="Helvetica,sans-Serif" font-size="10.00">MouseControlStickSettings</text>
<text text-anchor="middle" x="509" y="-68" font-family="Helvetica,sans-Serif" font-size="10.00">Dialog::changeMouseMode</text>
</a>
</g>
</g>
<!-- Node11&#45;&gt;Node12 -->
<g id="edge12" class="edge">
<title>Node11&#45;&gt;Node12</title>
<path fill="none" stroke="midnightblue" d="M650.97,-74.12C628.88,-74.41 605.2,-74.73 583.67,-75.02"/>
<polygon fill="midnightblue" stroke="midnightblue" points="651.04,-77.62 660.99,-73.98 650.94,-70.62 651.04,-77.62"/>
</g>
<!-- Node14 -->
<g id="node14" class="node">
<title>Node14</title>
<g id="a_node14"><a xlink:href="classMouseControlStickSettingsDialogHelper.html#aaffa5888388face9ed9fb4acbf4601b6" target="_top" xlink:title=" ">
<polygon fill="white" stroke="black" points="406,-0.5 406,-41.5 612,-41.5 612,-0.5 406,-0.5"/>
<text text-anchor="start" x="414" y="-29.5" font-family="Helvetica,sans-Serif" font-size="10.00">MouseControlStickSettings</text>
<text text-anchor="start" x="414" y="-18.5" font-family="Helvetica,sans-Serif" font-size="10.00">DialogHelper::updateExtraAcceleration</text>
<text text-anchor="middle" x="509" y="-7.5" font-family="Helvetica,sans-Serif" font-size="10.00">Status</text>
</a>
</g>
</g>
<!-- Node11&#45;&gt;Node14 -->
<g id="edge14" class="edge">
<title>Node11&#45;&gt;Node14</title>
<path fill="none" stroke="midnightblue" d="M659.79,-55.69C640.18,-51.15 618.85,-46.21 598.59,-41.52"/>
<polygon fill="midnightblue" stroke="midnightblue" points="659.03,-59.11 669.57,-57.96 660.61,-52.29 659.03,-59.11"/>
</g>
<!-- Node13 -->
<g id="node13" class="node">
<title>Node13</title>
<g id="a_node13"><a xlink:href="classMouseControlStickSettingsDialog.html#aac9d5ef09dced4cee0df95d99ae13369" target="_top" xlink:title=" ">
<polygon fill="white" stroke="black" points="185,-7.5 185,-48.5 370,-48.5 370,-7.5 185,-7.5"/>
<text text-anchor="start" x="193" y="-36.5" font-family="Helvetica,sans-Serif" font-size="10.00">MouseControlStickSettings</text>
<text text-anchor="start" x="193" y="-25.5" font-family="Helvetica,sans-Serif" font-size="10.00">Dialog::MouseControlStickSettings</text>
<text text-anchor="middle" x="277.5" y="-14.5" font-family="Helvetica,sans-Serif" font-size="10.00">Dialog</text>
</a>
</g>
</g>
<!-- Node12&#45;&gt;Node13 -->
<g id="edge13" class="edge">
<title>Node12&#45;&gt;Node13</title>
<path fill="none" stroke="midnightblue" d="M426.07,-58.86C407.92,-55.07 388.58,-51.02 370.07,-47.15"/>
<polygon fill="midnightblue" stroke="midnightblue" points="425.51,-62.32 436.01,-60.94 426.94,-55.47 425.51,-62.32"/>
</g>
<!-- Node14&#45;&gt;Node13 -->
<g id="edge15" class="edge">
<title>Node14&#45;&gt;Node13</title>
<path fill="none" stroke="midnightblue" d="M395.65,-24.43C387.1,-24.69 378.54,-24.95 370.14,-25.2"/>
<polygon fill="midnightblue" stroke="midnightblue" points="395.78,-27.92 405.67,-24.12 395.56,-20.93 395.78,-27.92"/>
</g>
<!-- Node15&#45;&gt;Node3 -->
<g id="edge17" class="edge">
<title>Node15&#45;&gt;Node3</title>
<path fill="none" stroke="midnightblue" d="M637.5,-286.67C621.01,-288.65 604.06,-290.69 588.13,-292.6"/>
<polygon fill="midnightblue" stroke="midnightblue" points="638.19,-290.11 647.7,-285.44 637.36,-283.16 638.19,-290.11"/>
</g>
<!-- Node16&#45;&gt;Node5 -->
<g id="edge19" class="edge">
<title>Node16&#45;&gt;Node5</title>
<path fill="none" stroke="midnightblue" d="M638.93,-181.64C620.15,-183.73 600.72,-185.9 582.83,-187.89"/>
<polygon fill="midnightblue" stroke="midnightblue" points="639.43,-185.11 648.99,-180.52 638.66,-178.15 639.43,-185.11"/>
</g>
</g>
</svg>
        <g id="navigator" transform="translate(0 0)" fill="#404254">
                <rect fill="#f2f5e9" fill-opacity="0.5" stroke="#606060" stroke-width=".5" x="0" y="0" width="60" height="60"/>
                <use id="zoomplus" xlink:href="#zoomPlus" x="17" y="9" onmousedown="handleZoom(evt,'in')"/>
                <use id="zoomminus" xlink:href="#zoomMin" x="42" y="9" onmousedown="handleZoom(evt,'out')"/>
                <use id="reset" xlink:href="#resetDef" x="30" y="36" onmousedown="handleReset()"/>
                <g id="arrowUp" xlink:href="#dirArrow" transform="translate(30 24)" onmousedown="handlePan(0,-1)">
                  <use xlink:href="#rim" fill="#404040">
                        <set attributeName="fill" to="#808080" begin="arrowUp.mouseover" end="arrowUp.mouseout"/>
                  </use>
                  <path fill="none" stroke="white" stroke-width="1.5" d="M0,-3.0v7 M-2.5,-0.5L0,-3.0L2.5,-0.5"/>
                </g>
                <g id="arrowRight" xlink:href="#dirArrow" transform="rotate(90) translate(36 -43)" onmousedown="handlePan(1,0)">
                  <use xlink:href="#rim" fill="#404040">
                        <set attributeName="fill" to="#808080" begin="arrowRight.mouseover" end="arrowRight.mouseout"/>
                  </use>
                  <path fill="none" stroke="white" stroke-width="1.5" d="M0,-3.0v7 M-2.5,-0.5L0,-3.0L2.5,-0.5"/>
                </g>
                <g id="arrowDown" xlink:href="#dirArrow" transform="rotate(180) translate(-30 -48)" onmousedown="handlePan(0,1)">
                  <use xlink:href="#rim" fill="#404040">
                        <set attributeName="fill" to="#808080" begin="arrowDown.mouseover" end="arrowDown.mouseout"/>
                  </use>
                  <path fill="none" stroke="white" stroke-width="1.5" d="M0,-3.0v7 M-2.5,-0.5L0,-3.0L2.5,-0.5"/>
                </g>
                <g id="arrowLeft" xlink:href="#dirArrow" transform="rotate(270) translate(-36 17)" onmousedown="handlePan(-1,0)">
                  <use xlink:href="#rim" fill="#404040">
                        <set attributeName="fill" to="#808080" begin="arrowLeft.mouseover" end="arrowLeft.mouseout"/>
                  </use>
                  <path fill="none" stroke="white" stroke-width="1.5" d="M0,-3.0v7 M-2.5,-0.5L0,-3.0L2.5,-0.5"/>
                </g>
        </g>
        <svg viewBox="0 0 15 15" width="100%" height="30px" preserveAspectRatio="xMaxYMin meet">
         <g id="arrow_out" transform="scale(0.3 0.3)">
          <a xlink:href="classJoyButton_aca69f26410f28982be9a6e952ec3c494_icgraph_org.svg" target="_base">
           <rect id="button" ry="5" rx="5" y="6" x="6" height="38" width="38"
                fill="#f2f5e9" fill-opacity="0.5" stroke="#606060" stroke-width="1.0"/>
           <path id="arrow"
             d="M 11.500037,31.436501 C 11.940474,20.09759 22.043105,11.32322 32.158766,21.979434 L 37.068811,17.246167 C 37.068811,17.246167 37.088388,32 37.088388,32 L 22.160133,31.978069 C 22.160133,31.978069 26.997745,27.140456 26.997745,27.140456 C 18.528582,18.264221 13.291696,25.230495 11.500037,31.436501 z"
             style="fill:#404040;"/>
          </a>
         </g>
        </svg>
</svg>
