<?xml version="1.0" encoding="UTF-8" standalone="no"?>
<!DOCTYPE svg PUBLIC "-//W3C//DTD SVG 1.1//EN"
 "http://www.w3.org/Graphics/SVG/1.1/DTD/svg11.dtd">
<!-- Generated by graphviz version 2.43.0 (0)
 -->
<!-- Title: AutoProfileWatcher::startTimer Pages: 1 -->
<svg width="714pt" height="59pt"
 viewBox="0.00 0.00 714.00 59.00" xmlns="http://www.w3.org/2000/svg" xmlns:xlink="http://www.w3.org/1999/xlink">
<g id="graph0" class="graph" transform="scale(1 1) rotate(0) translate(4 55)">
<title>AutoProfileWatcher::startTimer</title>
<!-- Node1 -->
<g id="Node000001" class="node">
<title>Node1</title>
<g id="a_Node000001"><a xlink:title=" ">
<polygon fill="#999999" stroke="#666666" points="706,-51 596,-51 596,-21 706,-21 706,-51"/>
<text text-anchor="start" x="604" y="-39" font-family="Helvetica,sans-Serif" font-size="10.00">AutoProfileWatcher</text>
<text text-anchor="middle" x="651" y="-28" font-family="Helvetica,sans-Serif" font-size="10.00">::startTimer</text>
</a>
</g>
</g>
<!-- Node2 -->
<g id="Node000002" class="node">
<title>Node2</title>
<g id="a_Node000002"><a xlink:href="classMainWindow.html#adb240e3698ab0a5958347fd9cfa78d06" target="_top" xlink:title=" ">
<polygon fill="white" stroke="#666666" points="560,-51 393,-51 393,-21 560,-21 560,-51"/>
<text text-anchor="start" x="401" y="-39" font-family="Helvetica,sans-Serif" font-size="10.00">MainWindow::checkAutoProfile</text>
<text text-anchor="middle" x="476.5" y="-28" font-family="Helvetica,sans-Serif" font-size="10.00">WatcherTimer</text>
</a>
</g>
</g>
<!-- Node1&#45;&gt;Node2 -->
<g id="edge1_Node000001_Node000002" class="edge">
<title>Node1&#45;&gt;Node2</title>
<g id="a_edge1_Node000001_Node000002"><a xlink:title=" ">
<path fill="none" stroke="#63b8ff" d="M585.85,-36C577.47,-36 568.79,-36 560.16,-36"/>
<polygon fill="#63b8ff" stroke="#63b8ff" points="585.89,-39.5 595.89,-36 585.89,-32.5 585.89,-39.5"/>
</a>
</g>
</g>
<!-- Node3 -->
<g id="Node000003" class="node">
<title>Node3</title>
<g id="a_Node000003"><a xlink:href="classMainWindow.html#a2f0c03d3d51748ab794e698322110614" target="_top" xlink:title=" ">
<polygon fill="white" stroke="#666666" points="148,-45.5 0,-45.5 0,-26.5 148,-26.5 148,-45.5"/>
<text text-anchor="middle" x="74" y="-33.5" font-family="Helvetica,sans-Serif" font-size="10.00">MainWindow::MainWindow</text>
</a>
</g>
</g>
<!-- Node2&#45;&gt;Node3 -->
<g id="edge2_Node000002_Node000003" class="edge">
<title>Node2&#45;&gt;Node3</title>
<g id="a_edge2_Node000002_Node000003"><a xlink:title=" ">
<path fill="none" stroke="#63b8ff" d="M382.75,-38.57C374.04,-38.75 365.36,-38.89 357,-39 280.12,-39.97 260.88,-40.06 184,-39 172.45,-38.84 160.22,-38.59 148.28,-38.29"/>
<polygon fill="#63b8ff" stroke="#63b8ff" points="383.03,-42.07 392.95,-38.36 382.88,-35.07 383.03,-42.07"/>
</a>
</g>
</g>
<!-- Node4 -->
<g id="Node000004" class="node">
<title>Node4</title>
<g id="a_Node000004"><a xlink:href="classMainWindow.html#ae9f72ff45056908317963a1e7fa634a0" target="_top" xlink:title="Build list of current input devices and pass it to settings dialog instance. Open Settings dialog.">
<polygon fill="white" stroke="#666666" points="357,-30 184,-30 184,0 357,0 357,-30"/>
<text text-anchor="start" x="192" y="-18" font-family="Helvetica,sans-Serif" font-size="10.00">MainWindow::openMainSettings</text>
<text text-anchor="middle" x="270.5" y="-7" font-family="Helvetica,sans-Serif" font-size="10.00">Dialog</text>
</a>
</g>
</g>
<!-- Node2&#45;&gt;Node4 -->
<g id="edge3_Node000002_Node000004" class="edge">
<title>Node2&#45;&gt;Node4</title>
<g id="a_edge3_Node000002_Node000004"><a xlink:title=" ">
<path fill="none" stroke="#63b8ff" d="M382.59,-26.44C374.16,-25.57 365.65,-24.69 357.29,-23.83"/>
<polygon fill="#63b8ff" stroke="#63b8ff" points="382.51,-29.95 392.82,-27.49 383.23,-22.98 382.51,-29.95"/>
</a>
</g>
</g>
<!-- Node4&#45;&gt;Node3 -->
<g id="edge4_Node000004_Node000003" class="edge">
<title>Node4&#45;&gt;Node3</title>
<g id="a_edge4_Node000004_Node000003"><a xlink:title=" ">
<path fill="none" stroke="#63b8ff" d="M173.81,-25.33C165.18,-26.26 156.54,-27.2 148.15,-28.1"/>
<polygon fill="#63b8ff" stroke="#63b8ff" points="174.34,-28.79 183.91,-24.24 173.59,-21.84 174.34,-28.79"/>
</a>
</g>
</g>
</g>
</svg>
