<?xml version="1.0" encoding="UTF-8" standalone="no"?>
<!DOCTYPE svg PUBLIC "-//W3C//DTD SVG 1.1//EN"
 "http://www.w3.org/Graphics/SVG/1.1/DTD/svg11.dtd">
<!-- Generated by graphviz version 2.43.0 (0)
 -->
<!-- Title: DPadPushButtonGroup Pages: 1 -->
<!--zoomable 639 -->
<svg id="main" version="1.1" xmlns="http://www.w3.org/2000/svg" xmlns:xlink="http://www.w3.org/1999/xlink" xml:space="preserve" onload="init(evt)">
<style type="text/css"><![CDATA[
.edge:hover path { stroke: red; }
.edge:hover polygon { stroke: red; fill: red; }
]]></style>
<script type="text/javascript"><![CDATA[
var edges = document.getElementsByTagName('g');
if (edges && edges.length) {
  for (var i=0;i<edges.length;i++) {
    if (edges[i].id.substr(0,4)=='edge') {
      edges[i].setAttribute('class','edge');
    }
  }
}
]]></script>
        <defs>
                <circle id="rim" cx="0" cy="0" r="7"/>
                <circle id="rim2" cx="0" cy="0" r="3.5"/>
                <g id="zoomPlus">
                        <use xlink:href="#rim" fill="#404040">
                                <set attributeName="fill" to="#808080" begin="zoomplus.mouseover" end="zoomplus.mouseout"/>
                        </use>
                        <path d="M-4,0h8M0,-4v8" fill="none" stroke="white" stroke-width="1.5" pointer-events="none"/>
                </g>
                <g id="zoomMin">
                        <use xlink:href="#rim" fill="#404040">
                                <set attributeName="fill" to="#808080" begin="zoomminus.mouseover" end="zoomminus.mouseout"/>
                        </use>
                        <path d="M-4,0h8" fill="none" stroke="white" stroke-width="1.5" pointer-events="none"/>
                </g>
                <g id="dirArrow">
                        <path fill="none" stroke="white" stroke-width="1.5" d="M0,-3.0v7 M-2.5,-0.5L0,-3.0L2.5,-0.5"/>
                </g>
               <g id="resetDef">
                       <use xlink:href="#rim2" fill="#404040">
                               <set attributeName="fill" to="#808080" begin="reset.mouseover" end="reset.mouseout"/>
                       </use>
               </g>
        </defs>

<script type="text/javascript">
var viewWidth = 2844;
var viewHeight = 639;
var sectionId = 'dynsection-1';
</script>
<script xlink:href="svgpan.js"/>
<svg id="graph" class="graph">
<g id="viewport">
<title>DPadPushButtonGroup</title>
<polygon fill="white" stroke="transparent" points="-4,4 -4,-635 2840,-635 2840,4 -4,4"/>
<!-- Node1 -->
<g id="node1" class="node">
<title>Node1</title>
<g id="a_node1"><a xlink:title=" ">
<polygon fill="#bfbfbf" stroke="black" points="2710,-215.5 2710,-234.5 2836,-234.5 2836,-215.5 2710,-215.5"/>
<text text-anchor="middle" x="2773" y="-222.5" font-family="Helvetica,sans-Serif" font-size="10.00">DPadPushButtonGroup</text>
</a>
</g>
</g>
<!-- Node2 -->
<g id="node2" class="node">
<title>Node2</title>
<g id="a_node2"><a xlink:title=" ">
<polygon fill="white" stroke="#bfbfbf" points="2489,-378.5 2489,-397.5 2566,-397.5 2566,-378.5 2489,-378.5"/>
<text text-anchor="middle" x="2527.5" y="-385.5" font-family="Helvetica,sans-Serif" font-size="10.00">QGridLayout</text>
</a>
</g>
</g>
<!-- Node2&#45;&gt;Node1 -->
<g id="edge1" class="edge">
<title>Node2&#45;&gt;Node1</title>
<path fill="none" stroke="midnightblue" d="M2575.65,-375.06C2580.25,-373.24 2584.78,-371.23 2589,-369 2663.01,-329.95 2736.98,-259.9 2762.59,-234.52"/>
<polygon fill="midnightblue" stroke="midnightblue" points="2574.36,-371.8 2566.15,-378.5 2576.74,-378.38 2574.36,-371.8"/>
</g>
<!-- Node3 -->
<g id="node3" class="node">
<title>Node3</title>
<g id="a_node3"><a xlink:href="classDPadPushButton.html" target="_top" xlink:title=" ">
<polygon fill="white" stroke="black" points="2479,-192.5 2479,-211.5 2576,-211.5 2576,-192.5 2479,-192.5"/>
<text text-anchor="middle" x="2527.5" y="-199.5" font-family="Helvetica,sans-Serif" font-size="10.00">DPadPushButton</text>
</a>
</g>
</g>
<!-- Node3&#45;&gt;Node1 -->
<g id="edge2" class="edge">
<title>Node3&#45;&gt;Node1</title>
<path fill="none" stroke="#9a32cd" stroke-dasharray="5,2" d="M2586.21,-207.45C2623.41,-210.96 2671.77,-215.53 2709.82,-219.13"/>
<polygon fill="#9a32cd" stroke="#9a32cd" points="2586.31,-203.95 2576.03,-206.49 2585.65,-210.91 2586.31,-203.95"/>
<text text-anchor="middle" x="2649.5" y="-219" font-family="Helvetica,sans-Serif" font-size="10.00"> dpadWidget</text>
</g>
<!-- Node4 -->
<g id="node4" class="node">
<title>Node4</title>
<g id="a_node4"><a xlink:href="classFlashButtonWidget.html" target="_top" xlink:title=" ">
<polygon fill="white" stroke="black" points="2011,-4.5 2011,-23.5 2121,-23.5 2121,-4.5 2011,-4.5"/>
<text text-anchor="middle" x="2066" y="-11.5" font-family="Helvetica,sans-Serif" font-size="10.00">FlashButtonWidget</text>
</a>
</g>
</g>
<!-- Node4&#45;&gt;Node3 -->
<g id="edge3" class="edge">
<title>Node4&#45;&gt;Node3</title>
<path fill="none" stroke="midnightblue" d="M2109.11,-26.49C2136.64,-34.96 2173.26,-46.8 2205,-59 2321.61,-103.81 2457.08,-168.28 2506.86,-192.41"/>
<polygon fill="midnightblue" stroke="midnightblue" points="2109.98,-23.1 2099.4,-23.53 2107.94,-29.79 2109.98,-23.1"/>
</g>
<!-- Node29 -->
<g id="node29" class="node">
<title>Node29</title>
<g id="a_node29"><a xlink:href="classJoyButtonWidget.html" target="_top" xlink:title=" ">
<polygon fill="white" stroke="black" points="2223,-0.5 2223,-19.5 2321,-19.5 2321,-0.5 2223,-0.5"/>
<text text-anchor="middle" x="2272" y="-7.5" font-family="Helvetica,sans-Serif" font-size="10.00">JoyButtonWidget</text>
</a>
</g>
</g>
<!-- Node4&#45;&gt;Node29 -->
<g id="edge51" class="edge">
<title>Node4&#45;&gt;Node29</title>
<path fill="none" stroke="midnightblue" d="M2131.39,-12.74C2161.02,-12.16 2195.57,-11.48 2222.88,-10.94"/>
<polygon fill="midnightblue" stroke="midnightblue" points="2131.06,-9.24 2121.13,-12.94 2131.2,-16.24 2131.06,-9.24"/>
</g>
<!-- Node5 -->
<g id="node5" class="node">
<title>Node5</title>
<g id="a_node5"><a xlink:title=" ">
<polygon fill="white" stroke="#bfbfbf" points="1818,-4.5 1818,-23.5 1898,-23.5 1898,-4.5 1818,-4.5"/>
<text text-anchor="middle" x="1858" y="-11.5" font-family="Helvetica,sans-Serif" font-size="10.00">QPushButton</text>
</a>
</g>
</g>
<!-- Node5&#45;&gt;Node4 -->
<g id="edge4" class="edge">
<title>Node5&#45;&gt;Node4</title>
<path fill="none" stroke="midnightblue" d="M1908.33,-14C1939.2,-14 1978.99,-14 2010.74,-14"/>
<polygon fill="midnightblue" stroke="midnightblue" points="1908.23,-10.5 1898.23,-14 1908.23,-17.5 1908.23,-10.5"/>
</g>
<!-- Node6 -->
<g id="node6" class="node">
<title>Node6</title>
<g id="a_node6"><a xlink:href="classJoyDPad.html" target="_top" xlink:title=" ">
<polygon fill="white" stroke="black" points="2244,-271.5 2244,-290.5 2300,-290.5 2300,-271.5 2244,-271.5"/>
<text text-anchor="middle" x="2272" y="-278.5" font-family="Helvetica,sans-Serif" font-size="10.00">JoyDPad</text>
</a>
</g>
</g>
<!-- Node6&#45;&gt;Node1 -->
<g id="edge48" class="edge">
<title>Node6&#45;&gt;Node1</title>
<path fill="none" stroke="#9a32cd" stroke-dasharray="5,2" d="M2310.09,-273.73C2319.49,-272.03 2329.6,-270.33 2339,-269 2470.49,-250.4 2625.52,-236.6 2709.79,-229.78"/>
<polygon fill="#9a32cd" stroke="#9a32cd" points="2309.41,-270.29 2300.22,-275.55 2310.69,-277.18 2309.41,-270.29"/>
<text text-anchor="middle" x="2527.5" y="-255" font-family="Helvetica,sans-Serif" font-size="10.00"> dpad</text>
</g>
<!-- Node6&#45;&gt;Node3 -->
<g id="edge5" class="edge">
<title>Node6&#45;&gt;Node3</title>
<path fill="none" stroke="#9a32cd" stroke-dasharray="5,2" d="M2287.45,-263.45C2299.67,-249.94 2318.43,-232.09 2339,-223 2383.49,-203.33 2439.46,-199.42 2478.61,-199.59"/>
<polygon fill="#9a32cd" stroke="#9a32cd" points="2284.65,-261.34 2280.73,-271.19 2289.93,-265.93 2284.65,-261.34"/>
<text text-anchor="middle" x="2393.5" y="-226" font-family="Helvetica,sans-Serif" font-size="10.00"> dpad</text>
</g>
<!-- Node17 -->
<g id="node17" class="node">
<title>Node17</title>
<g id="a_node17"><a xlink:href="classVDPad.html" target="_top" xlink:title=" ">
<polygon fill="white" stroke="black" points="2503.5,-340.5 2503.5,-359.5 2551.5,-359.5 2551.5,-340.5 2503.5,-340.5"/>
<text text-anchor="middle" x="2527.5" y="-347.5" font-family="Helvetica,sans-Serif" font-size="10.00">VDPad</text>
</a>
</g>
</g>
<!-- Node6&#45;&gt;Node17 -->
<g id="edge25" class="edge">
<title>Node6&#45;&gt;Node17</title>
<path fill="none" stroke="midnightblue" d="M2294.23,-296.33C2306.7,-304.6 2323.08,-314.26 2339,-320 2395.75,-340.47 2467.18,-347 2503.3,-349.07"/>
<polygon fill="midnightblue" stroke="midnightblue" points="2296.14,-293.4 2285.91,-290.63 2292.19,-299.17 2296.14,-293.4"/>
</g>
<!-- Node27 -->
<g id="node27" class="node">
<title>Node27</title>
<g id="a_node27"><a xlink:href="classJoyDPadButton.html" target="_top" xlink:title=" ">
<polygon fill="white" stroke="black" points="2483,-302.5 2483,-321.5 2572,-321.5 2572,-302.5 2483,-302.5"/>
<text text-anchor="middle" x="2527.5" y="-309.5" font-family="Helvetica,sans-Serif" font-size="10.00">JoyDPadButton</text>
</a>
</g>
</g>
<!-- Node6&#45;&gt;Node27 -->
<g id="edge47" class="edge">
<title>Node6&#45;&gt;Node27</title>
<path fill="none" stroke="#9a32cd" stroke-dasharray="5,2" d="M2310.27,-276.55C2345.97,-273.28 2401.19,-270.83 2448,-280 2469.81,-284.27 2493.2,-294.64 2508.72,-302.42"/>
<polygon fill="#9a32cd" stroke="#9a32cd" points="2309.9,-273.07 2300.29,-277.53 2310.59,-280.04 2309.9,-273.07"/>
<text text-anchor="middle" x="2393.5" y="-283" font-family="Helvetica,sans-Serif" font-size="10.00"> m_dpad</text>
</g>
<!-- Node7 -->
<g id="node7" class="node">
<title>Node7</title>
<g id="a_node7"><a xlink:title=" ">
<polygon fill="white" stroke="#bfbfbf" points="124.5,-271.5 124.5,-290.5 180.5,-290.5 180.5,-271.5 124.5,-271.5"/>
<text text-anchor="middle" x="152.5" y="-278.5" font-family="Helvetica,sans-Serif" font-size="10.00">QObject</text>
</a>
</g>
</g>
<!-- Node7&#45;&gt;Node6 -->
<g id="edge6" class="edge">
<title>Node7&#45;&gt;Node6</title>
<path fill="none" stroke="midnightblue" d="M157.28,-261.22C164.51,-228.21 183.15,-161.43 222,-120 269.31,-69.54 291.83,-50 361,-50 361,-50 361,-50 1171,-50 1537.24,-50 1658.43,40.99 1993,-108 2102.57,-156.79 2220.38,-242.68 2258.41,-271.37"/>
<polygon fill="midnightblue" stroke="midnightblue" points="153.78,-260.89 155.19,-271.4 160.63,-262.31 153.78,-260.89"/>
</g>
<!-- Node9 -->
<g id="node9" class="node">
<title>Node9</title>
<g id="a_node9"><a xlink:href="classSetJoystickXml.html" target="_top" xlink:title="SetJoystick XML serialization/deserialization helper class Reads data from the supplied SetJoystick o...">
<polygon fill="white" stroke="black" points="1813,-294.5 1813,-313.5 1903,-313.5 1903,-294.5 1813,-294.5"/>
<text text-anchor="middle" x="1858" y="-301.5" font-family="Helvetica,sans-Serif" font-size="10.00">SetJoystickXml</text>
</a>
</g>
</g>
<!-- Node7&#45;&gt;Node9 -->
<g id="edge9" class="edge">
<title>Node7&#45;&gt;Node9</title>
<path fill="none" stroke="midnightblue" d="M168.08,-263.5C180.95,-249.01 200.92,-228.81 222,-216 277.86,-182.07 295.64,-168 361,-168 361,-168 361,-168 1676,-168 1760.11,-168 1830.08,-263.04 1850.78,-294.22"/>
<polygon fill="midnightblue" stroke="midnightblue" points="165.25,-261.41 161.36,-271.27 170.55,-265.99 165.25,-261.41"/>
</g>
<!-- Node10 -->
<g id="node10" class="node">
<title>Node10</title>
<g id="a_node10"><a xlink:href="classJoyAxisXml.html" target="_top" xlink:title=" ">
<polygon fill="white" stroke="black" points="1639,-294.5 1639,-313.5 1711,-313.5 1711,-294.5 1639,-294.5"/>
<text text-anchor="middle" x="1675" y="-301.5" font-family="Helvetica,sans-Serif" font-size="10.00">JoyAxisXml</text>
</a>
</g>
</g>
<!-- Node7&#45;&gt;Node10 -->
<g id="edge12" class="edge">
<title>Node7&#45;&gt;Node10</title>
<path fill="none" stroke="midnightblue" d="M177.4,-266.18C215,-244.32 290.9,-206 361,-206 361,-206 361,-206 1487.5,-206 1562.85,-206 1637.7,-269.46 1664.06,-294.25"/>
<polygon fill="midnightblue" stroke="midnightblue" points="175.51,-263.23 168.69,-271.35 179.08,-269.25 175.51,-263.23"/>
</g>
<!-- Node11 -->
<g id="node11" class="node">
<title>Node11</title>
<g id="a_node11"><a xlink:href="classJoyAxis.html" target="_top" xlink:title="Represents single axis of of joystick (or other input)">
<polygon fill="white" stroke="black" points="1460,-373.5 1460,-392.5 1513,-392.5 1513,-373.5 1460,-373.5"/>
<text text-anchor="middle" x="1486.5" y="-380.5" font-family="Helvetica,sans-Serif" font-size="10.00">JoyAxis</text>
</a>
</g>
</g>
<!-- Node7&#45;&gt;Node11 -->
<g id="edge14" class="edge">
<title>Node7&#45;&gt;Node11</title>
<path fill="none" stroke="midnightblue" d="M190.84,-286.03C327.36,-304.35 799.28,-366.91 951,-377 1121.3,-388.33 1164.33,-380.32 1335,-382 1378.89,-382.43 1429.99,-382.73 1459.94,-382.88"/>
<polygon fill="midnightblue" stroke="midnightblue" points="191.25,-282.56 180.87,-284.69 190.31,-289.49 191.25,-282.56"/>
</g>
<!-- Node14 -->
<g id="node14" class="node">
<title>Node14</title>
<g id="a_node14"><a xlink:href="classJoyButton.html" target="_top" xlink:title="Represents a single joystick button being part of a SetJoystick Contains multiple JoyButtonSlots whic...">
<polygon fill="white" stroke="black" points="610,-525.5 610,-544.5 674,-544.5 674,-525.5 610,-525.5"/>
<text text-anchor="middle" x="642" y="-532.5" font-family="Helvetica,sans-Serif" font-size="10.00">JoyButton</text>
</a>
</g>
</g>
<!-- Node7&#45;&gt;Node14 -->
<g id="edge19" class="edge">
<title>Node7&#45;&gt;Node14</title>
<path fill="none" stroke="midnightblue" d="M158.84,-300.18C172.81,-346.29 215.22,-463.13 298,-512 398.73,-571.47 546.28,-553.36 609.91,-541.6"/>
<polygon fill="midnightblue" stroke="midnightblue" points="162.18,-299.15 156.02,-290.53 155.46,-301.11 162.18,-299.15"/>
</g>
<!-- Node15 -->
<g id="node15" class="node">
<title>Node15</title>
<g id="a_node15"><a xlink:href="classJoyButtonMouseHelper.html" target="_top" xlink:title=" ">
<polygon fill="white" stroke="black" points="298,-483.5 298,-502.5 426,-502.5 426,-483.5 298,-483.5"/>
<text text-anchor="middle" x="362" y="-490.5" font-family="Helvetica,sans-Serif" font-size="10.00">JoyButtonMouseHelper</text>
</a>
</g>
</g>
<!-- Node7&#45;&gt;Node15 -->
<g id="edge21" class="edge">
<title>Node7&#45;&gt;Node15</title>
<path fill="none" stroke="midnightblue" d="M163.3,-299.33C175.37,-320.96 197.34,-357.34 222,-384 261.35,-426.55 318.36,-465.69 345.51,-483.25"/>
<polygon fill="midnightblue" stroke="midnightblue" points="166.35,-297.61 158.47,-290.52 160.21,-300.97 166.35,-297.61"/>
</g>
<!-- Node16 -->
<g id="node16" class="node">
<title>Node16</title>
<g id="a_node16"><a xlink:href="classJoyButtonSlot.html" target="_top" xlink:title="Represents action which can be performed after pressing button.">
<polygon fill="white" stroke="black" points="320.5,-375.5 320.5,-394.5 403.5,-394.5 403.5,-375.5 320.5,-375.5"/>
<text text-anchor="middle" x="362" y="-382.5" font-family="Helvetica,sans-Serif" font-size="10.00">JoyButtonSlot</text>
</a>
</g>
</g>
<!-- Node7&#45;&gt;Node16 -->
<g id="edge23" class="edge">
<title>Node7&#45;&gt;Node16</title>
<path fill="none" stroke="midnightblue" d="M163.87,-299.29C175.49,-317.99 196.14,-346.3 222,-361 252.02,-378.06 291.14,-383.61 320.23,-385.15"/>
<polygon fill="midnightblue" stroke="midnightblue" points="166.76,-297.31 158.63,-290.52 160.75,-300.9 166.76,-297.31"/>
</g>
<!-- Node18 -->
<g id="node18" class="node">
<title>Node18</title>
<g id="a_node18"><a xlink:href="classJoyControlStick.html" target="_top" xlink:title="Represents stick of a joystick.">
<polygon fill="white" stroke="black" points="1226,-304.5 1226,-323.5 1317,-323.5 1317,-304.5 1226,-304.5"/>
<text text-anchor="middle" x="1271.5" y="-311.5" font-family="Helvetica,sans-Serif" font-size="10.00">JoyControlStick</text>
</a>
</g>
</g>
<!-- Node7&#45;&gt;Node18 -->
<g id="edge28" class="edge">
<title>Node7&#45;&gt;Node18</title>
<path fill="none" stroke="midnightblue" d="M190.62,-270.3C231.86,-259.37 300.62,-244 361,-244 361,-244 361,-244 1033.5,-244 1117.8,-244 1212.32,-285.24 1251.71,-304.41"/>
<polygon fill="midnightblue" stroke="midnightblue" points="189.49,-266.98 180.75,-272.97 191.31,-273.74 189.49,-266.98"/>
</g>
<!-- Node22 -->
<g id="node22" class="node">
<title>Node22</title>
<g id="a_node22"><a xlink:href="classJoyButtonXml.html" target="_top" xlink:title=" ">
<polygon fill="white" stroke="black" points="819.5,-525.5 819.5,-544.5 902.5,-544.5 902.5,-525.5 819.5,-525.5"/>
<text text-anchor="middle" x="861" y="-532.5" font-family="Helvetica,sans-Serif" font-size="10.00">JoyButtonXml</text>
</a>
</g>
</g>
<!-- Node7&#45;&gt;Node22 -->
<g id="edge37" class="edge">
<title>Node7&#45;&gt;Node22</title>
<path fill="none" stroke="midnightblue" d="M174,-296.88C187.02,-306.1 204.64,-317.03 222,-323 364.96,-372.13 416.45,-313.62 560,-361 681.79,-401.19 808.6,-494.96 847.76,-525.32"/>
<polygon fill="midnightblue" stroke="midnightblue" points="175.91,-293.95 165.78,-290.86 171.78,-299.59 175.91,-293.95"/>
</g>
<!-- Node23 -->
<g id="node23" class="node">
<title>Node23</title>
<g id="a_node23"><a xlink:href="classInputDevice.html" target="_top" xlink:title="Abstract class representing a hardware input device, e.g a joystick or controller.">
<polygon fill="white" stroke="black" points="324.5,-98.5 324.5,-117.5 399.5,-117.5 399.5,-98.5 324.5,-98.5"/>
<text text-anchor="middle" x="362" y="-105.5" font-family="Helvetica,sans-Serif" font-size="10.00">InputDevice</text>
</a>
</g>
</g>
<!-- Node7&#45;&gt;Node23 -->
<g id="edge40" class="edge">
<title>Node7&#45;&gt;Node23</title>
<path fill="none" stroke="midnightblue" d="M158.88,-261.77C167.6,-234.04 187.43,-182.99 222,-154 251.21,-129.5 293.92,-117.92 324.27,-112.53"/>
<polygon fill="midnightblue" stroke="midnightblue" points="155.49,-260.89 155.98,-271.47 162.2,-262.89 155.49,-260.89"/>
</g>
<!-- Node8 -->
<g id="node8" class="node">
<title>Node8</title>
<g id="a_node8"><a xlink:href="classSetJoystick.html" target="_top" xlink:title="A set of mapped events which can by switched by a controller event. Contains controller input objects...">
<polygon fill="white" stroke="black" points="2030.5,-280.5 2030.5,-299.5 2101.5,-299.5 2101.5,-280.5 2030.5,-280.5"/>
<text text-anchor="middle" x="2066" y="-287.5" font-family="Helvetica,sans-Serif" font-size="10.00">SetJoystick</text>
</a>
</g>
</g>
<!-- Node8&#45;&gt;Node6 -->
<g id="edge7" class="edge">
<title>Node8&#45;&gt;Node6</title>
<path fill="none" stroke="#9a32cd" stroke-dasharray="5,2" d="M2111.7,-288.03C2152.01,-286.25 2209.99,-283.69 2243.75,-282.2"/>
<polygon fill="#9a32cd" stroke="#9a32cd" points="2111.44,-284.54 2101.61,-288.47 2111.75,-291.53 2111.44,-284.54"/>
<text text-anchor="middle" x="2172" y="-289" font-family="Helvetica,sans-Serif" font-size="10.00"> m_parentSet</text>
</g>
<!-- Node8&#45;&gt;Node9 -->
<g id="edge10" class="edge">
<title>Node8&#45;&gt;Node9</title>
<path fill="none" stroke="#9a32cd" stroke-dasharray="5,2" d="M2020.4,-284.9C1991.85,-282.59 1954.08,-281.3 1921,-286 1909.24,-287.67 1896.59,-291.05 1885.8,-294.43"/>
<polygon fill="#9a32cd" stroke="#9a32cd" points="2020.21,-288.4 2030.48,-285.79 2020.83,-281.43 2020.21,-288.4"/>
<text text-anchor="middle" x="1957" y="-289" font-family="Helvetica,sans-Serif" font-size="10.00"> m_setJoystick</text>
</g>
<!-- Node8&#45;&gt;Node11 -->
<g id="edge15" class="edge">
<title>Node8&#45;&gt;Node11</title>
<path fill="none" stroke="#9a32cd" stroke-dasharray="5,2" d="M2030.54,-302.94C2018.77,-306.97 2005.43,-311.11 1993,-314 1811.84,-356.17 1587.74,-375.59 1513.05,-381.2"/>
<polygon fill="#9a32cd" stroke="#9a32cd" points="2031.73,-306.23 2040.01,-299.61 2029.41,-299.62 2031.73,-306.23"/>
<text text-anchor="middle" x="1762" y="-362" font-family="Helvetica,sans-Serif" font-size="10.00"> m_parentSet</text>
</g>
<!-- Node9&#45;&gt;Node8 -->
<g id="edge8" class="edge">
<title>Node9&#45;&gt;Node8</title>
<path fill="none" stroke="midnightblue" d="M1913.26,-303.05C1937.66,-302.34 1966.81,-301.12 1993,-299 2005.18,-298.01 2018.47,-296.48 2030.27,-294.96"/>
<polygon fill="midnightblue" stroke="midnightblue" points="1913.02,-299.55 1903.11,-303.32 1913.2,-306.55 1913.02,-299.55"/>
</g>
<!-- Node10&#45;&gt;Node9 -->
<g id="edge11" class="edge">
<title>Node10&#45;&gt;Node9</title>
<path fill="none" stroke="#9a32cd" stroke-dasharray="5,2" d="M1721.63,-304C1749.56,-304 1785.12,-304 1812.79,-304"/>
<polygon fill="#9a32cd" stroke="#9a32cd" points="1721.33,-300.5 1711.33,-304 1721.33,-307.5 1721.33,-300.5"/>
<text text-anchor="middle" x="1762" y="-307" font-family="Helvetica,sans-Serif" font-size="10.00"> joyAxisXml</text>
</g>
<!-- Node11&#45;&gt;Node10 -->
<g id="edge13" class="edge">
<title>Node11&#45;&gt;Node10</title>
<path fill="none" stroke="#9a32cd" stroke-dasharray="5,2" d="M1506.68,-367.01C1527.7,-349.63 1559.33,-323.92 1566,-321 1588.96,-310.96 1616.95,-306.75 1638.69,-305.03"/>
<polygon fill="#9a32cd" stroke="#9a32cd" points="1504.42,-364.34 1498.96,-373.42 1508.89,-369.73 1504.42,-364.34"/>
<text text-anchor="middle" x="1593.5" y="-324" font-family="Helvetica,sans-Serif" font-size="10.00"> m_joyAxis</text>
</g>
<!-- Node12 -->
<g id="node12" class="node">
<title>Node12</title>
<g id="a_node12"><a xlink:href="classJoyAxisButton.html" target="_top" xlink:title=" ">
<polygon fill="white" stroke="black" points="1229,-462.5 1229,-481.5 1314,-481.5 1314,-462.5 1229,-462.5"/>
<text text-anchor="middle" x="1271.5" y="-469.5" font-family="Helvetica,sans-Serif" font-size="10.00">JoyAxisButton</text>
</a>
</g>
</g>
<!-- Node11&#45;&gt;Node12 -->
<g id="edge26" class="edge">
<title>Node11&#45;&gt;Node12</title>
<path fill="none" stroke="#9a32cd" stroke-dasharray="5,2" d="M1464.27,-398.49C1448.96,-409.1 1427.47,-422.84 1407,-432 1376.58,-445.62 1366.95,-443.49 1335,-453 1324.78,-456.04 1313.64,-459.41 1303.63,-462.46"/>
<polygon fill="#9a32cd" stroke="#9a32cd" points="1466.36,-401.3 1472.51,-392.67 1462.32,-395.58 1466.36,-401.3"/>
<text text-anchor="middle" x="1371" y="-456" font-family="Helvetica,sans-Serif" font-size="10.00"> m_axis</text>
</g>
<!-- Node12&#45;&gt;Node11 -->
<g id="edge16" class="edge">
<title>Node12&#45;&gt;Node11</title>
<path fill="none" stroke="#9a32cd" stroke-dasharray="5,2" d="M1324.12,-478.58C1350.08,-479.73 1381.38,-477.71 1407,-466 1441.81,-450.08 1468.75,-410.99 1479.9,-392.71"/>
<polygon fill="#9a32cd" stroke="#9a32cd" points="1324.29,-475.09 1314.09,-477.97 1323.86,-482.07 1324.29,-475.09"/>
<text text-anchor="middle" x="1371" y="-503" font-family="Helvetica,sans-Serif" font-size="10.00"> paxisbutton</text>
<text text-anchor="middle" x="1371" y="-492" font-family="Helvetica,sans-Serif" font-size="10.00">activeButton</text>
<text text-anchor="middle" x="1371" y="-481" font-family="Helvetica,sans-Serif" font-size="10.00">naxisbutton</text>
</g>
<!-- Node13 -->
<g id="node13" class="node">
<title>Node13</title>
<g id="a_node13"><a xlink:href="classJoyGradientButton.html" target="_top" xlink:title=" ">
<polygon fill="white" stroke="black" points="808,-443.5 808,-462.5 914,-462.5 914,-443.5 808,-443.5"/>
<text text-anchor="middle" x="861" y="-450.5" font-family="Helvetica,sans-Serif" font-size="10.00">JoyGradientButton</text>
</a>
</g>
</g>
<!-- Node13&#45;&gt;Node12 -->
<g id="edge17" class="edge">
<title>Node13&#45;&gt;Node12</title>
<path fill="none" stroke="midnightblue" d="M924.36,-455.9C1008.7,-459.82 1156.83,-466.71 1228.84,-470.06"/>
<polygon fill="midnightblue" stroke="midnightblue" points="924.3,-452.39 914.15,-455.43 923.98,-459.39 924.3,-452.39"/>
</g>
<!-- Node20 -->
<g id="node20" class="node">
<title>Node20</title>
<g id="a_node20"><a xlink:href="classJoyControlStickModifierButton.html" target="_top" xlink:title=" ">
<polygon fill="white" stroke="black" points="951,-348.5 951,-367.5 1114,-367.5 1114,-348.5 951,-348.5"/>
<text text-anchor="middle" x="1032.5" y="-355.5" font-family="Helvetica,sans-Serif" font-size="10.00">JoyControlStickModifierButton</text>
</a>
</g>
</g>
<!-- Node13&#45;&gt;Node20 -->
<g id="edge31" class="edge">
<title>Node13&#45;&gt;Node20</title>
<path fill="none" stroke="midnightblue" d="M887.92,-438.47C923.04,-418.79 984.77,-384.19 1014.52,-367.52"/>
<polygon fill="midnightblue" stroke="midnightblue" points="886.2,-435.43 879.19,-443.37 889.62,-441.53 886.2,-435.43"/>
</g>
<!-- Node21 -->
<g id="node21" class="node">
<title>Node21</title>
<g id="a_node21"><a xlink:href="classJoyControlStickButton.html" target="_top" xlink:title=" ">
<polygon fill="white" stroke="black" points="1425,-304.5 1425,-323.5 1548,-323.5 1548,-304.5 1425,-304.5"/>
<text text-anchor="middle" x="1486.5" y="-311.5" font-family="Helvetica,sans-Serif" font-size="10.00">JoyControlStickButton</text>
</a>
</g>
</g>
<!-- Node13&#45;&gt;Node21 -->
<g id="edge34" class="edge">
<title>Node13&#45;&gt;Node21</title>
<path fill="none" stroke="midnightblue" d="M924.55,-450.27C1049.24,-443.97 1323.91,-425.59 1407,-383 1417.35,-377.69 1416.5,-371.94 1425,-364 1440.93,-349.11 1460.58,-333.3 1473.08,-323.54"/>
<polygon fill="midnightblue" stroke="midnightblue" points="924.21,-446.78 914.4,-450.77 924.56,-453.77 924.21,-446.78"/>
</g>
<!-- Node14&#45;&gt;Node13 -->
<g id="edge18" class="edge">
<title>Node14&#45;&gt;Node13</title>
<path fill="none" stroke="midnightblue" d="M677.72,-521.88C721.6,-505.3 796.07,-477.16 834.84,-462.51"/>
<polygon fill="midnightblue" stroke="midnightblue" points="676.43,-518.62 668.32,-525.43 678.91,-525.17 676.43,-518.62"/>
</g>
<!-- Node14&#45;&gt;Node22 -->
<g id="edge38" class="edge">
<title>Node14&#45;&gt;Node22</title>
<path fill="none" stroke="#9a32cd" stroke-dasharray="5,2" d="M684.5,-535C723.29,-535 780.84,-535 819.35,-535"/>
<polygon fill="#9a32cd" stroke="#9a32cd" points="684.09,-531.5 674.09,-535 684.09,-538.5 684.09,-531.5"/>
<text text-anchor="middle" x="757" y="-538" font-family="Helvetica,sans-Serif" font-size="10.00"> m_joyButton</text>
</g>
<!-- Node14&#45;&gt;Node27 -->
<g id="edge46" class="edge">
<title>Node14&#45;&gt;Node27</title>
<path fill="none" stroke="midnightblue" d="M678.97,-547.72C721.59,-561.64 795.05,-582 860,-582 860,-582 860,-582 2273,-582 2413.72,-582 2350.64,-411.59 2466,-331 2471.51,-327.15 2477.82,-324.06 2484.25,-321.58"/>
<polygon fill="midnightblue" stroke="midnightblue" points="679.92,-544.35 669.33,-544.51 677.71,-550.99 679.92,-544.35"/>
</g>
<!-- Node14&#45;&gt;Node29 -->
<g id="edge52" class="edge">
<title>Node14&#45;&gt;Node29</title>
<path fill="none" stroke="#9a32cd" stroke-dasharray="5,2" d="M658.47,-517.75C700.3,-472.46 821.27,-350.27 951,-301 1218.31,-199.48 1306.56,-252 1592.5,-252 1592.5,-252 1592.5,-252 2067,-252 2190.64,-252 2254.53,-65.06 2268.19,-19.79"/>
<polygon fill="#9a32cd" stroke="#9a32cd" points="655.75,-515.53 651.59,-525.28 660.92,-520.25 655.75,-515.53"/>
<text text-anchor="middle" x="1486.5" y="-254" font-family="Helvetica,sans-Serif" font-size="10.00"> m_button</text>
</g>
<!-- Node15&#45;&gt;Node14 -->
<g id="edge20" class="edge">
<title>Node15&#45;&gt;Node14</title>
<path fill="none" stroke="#9a32cd" stroke-dasharray="5,2" d="M407.18,-505.02C419.07,-507.95 431.97,-510.85 444,-513 502.1,-523.37 570.77,-529.72 609.77,-532.78"/>
<polygon fill="#9a32cd" stroke="#9a32cd" points="408.03,-501.62 397.47,-502.57 406.31,-508.41 408.03,-501.62"/>
<text text-anchor="middle" x="502" y="-530" font-family="Helvetica,sans-Serif" font-size="10.00"> mouseHelper</text>
</g>
<!-- Node16&#45;&gt;Node14 -->
<g id="edge22" class="edge">
<title>Node16&#45;&gt;Node14</title>
<path fill="none" stroke="#9a32cd" stroke-dasharray="5,2" d="M398.64,-372.42C440.55,-359.99 510.62,-346.82 560,-377 615.5,-410.91 634.54,-496.26 639.52,-525.21"/>
<polygon fill="#9a32cd" stroke="#9a32cd" points="397.39,-369.14 388.88,-375.45 399.47,-375.83 397.39,-369.14"/>
<text text-anchor="middle" x="502" y="-501" font-family="Helvetica,sans-Serif" font-size="10.00"> currentDelay</text>
<text text-anchor="middle" x="502" y="-490" font-family="Helvetica,sans-Serif" font-size="10.00">lastActiveKey</text>
<text text-anchor="middle" x="502" y="-479" font-family="Helvetica,sans-Serif" font-size="10.00">currentSetChangeSlot</text>
<text text-anchor="middle" x="502" y="-468" font-family="Helvetica,sans-Serif" font-size="10.00">currentKeyPress</text>
<text text-anchor="middle" x="502" y="-457" font-family="Helvetica,sans-Serif" font-size="10.00">currentRelease</text>
<text text-anchor="middle" x="502" y="-446" font-family="Helvetica,sans-Serif" font-size="10.00">currentCycle</text>
<text text-anchor="middle" x="502" y="-435" font-family="Helvetica,sans-Serif" font-size="10.00">previousCycle</text>
<text text-anchor="middle" x="502" y="-424" font-family="Helvetica,sans-Serif" font-size="10.00">m_currentDistance</text>
<text text-anchor="middle" x="502" y="-413" font-family="Helvetica,sans-Serif" font-size="10.00">currentPause</text>
<text text-anchor="start" x="444" y="-402" font-family="Helvetica,sans-Serif" font-size="10.00">currentWheelHorizontal</text>
<text text-anchor="middle" x="502" y="-391" font-family="Helvetica,sans-Serif" font-size="10.00">Event</text>
<text text-anchor="middle" x="502" y="-380" font-family="Helvetica,sans-Serif" font-size="10.00">...</text>
</g>
<!-- Node17&#45;&gt;Node14 -->
<g id="edge24" class="edge">
<title>Node17&#45;&gt;Node14</title>
<path fill="none" stroke="#9a32cd" stroke-dasharray="5,2" d="M2493.34,-353.18C2483.06,-355.85 2472.69,-360.61 2466,-369 2434.46,-408.57 2482.74,-559.21 2448,-596 2394.1,-653.08 2351.51,-620 2273,-620 860,-620 860,-620 860,-620 798.62,-620 780.29,-620.47 724,-596 694.94,-583.37 666.7,-558.34 652.49,-544.6"/>
<polygon fill="#9a32cd" stroke="#9a32cd" points="2494.33,-356.55 2503.44,-351.14 2492.95,-349.69 2494.33,-356.55"/>
<text text-anchor="middle" x="1593.5" y="-623" font-family="Helvetica,sans-Serif" font-size="10.00"> m_vdpad</text>
</g>
<!-- Node18&#45;&gt;Node11 -->
<g id="edge27" class="edge">
<title>Node18&#45;&gt;Node11</title>
<path fill="none" stroke="#9a32cd" stroke-dasharray="5,2" d="M1296.23,-328.88C1307.61,-335.5 1321.65,-342.92 1335,-348 1377.38,-364.11 1429.39,-374.21 1459.85,-379.2"/>
<polygon fill="#9a32cd" stroke="#9a32cd" points="1297.74,-325.71 1287.36,-323.58 1294.15,-331.71 1297.74,-325.71"/>
<text text-anchor="middle" x="1371" y="-371" font-family="Helvetica,sans-Serif" font-size="10.00"> m_stick</text>
</g>
<!-- Node18&#45;&gt;Node20 -->
<g id="edge32" class="edge">
<title>Node18&#45;&gt;Node20</title>
<path fill="none" stroke="#9a32cd" stroke-dasharray="5,2" d="M1248.38,-329.16C1236.86,-336.22 1222.25,-343.94 1208,-348 1178.09,-356.53 1144.15,-359.83 1114.22,-360.72"/>
<polygon fill="#9a32cd" stroke="#9a32cd" points="1250.34,-332.06 1256.88,-323.73 1246.57,-326.16 1250.34,-332.06"/>
<text text-anchor="middle" x="1170" y="-362" font-family="Helvetica,sans-Serif" font-size="10.00"> stick</text>
</g>
<!-- Node18&#45;&gt;Node21 -->
<g id="edge35" class="edge">
<title>Node18&#45;&gt;Node21</title>
<path fill="none" stroke="#9a32cd" stroke-dasharray="5,2" d="M1315.82,-302.21C1322.21,-300.88 1328.75,-299.74 1335,-299 1366.78,-295.24 1375.14,-295.98 1407,-299 1418.88,-300.12 1431.64,-302.19 1443.34,-304.43"/>
<polygon fill="#9a32cd" stroke="#9a32cd" points="1314.96,-298.82 1305.97,-304.43 1316.5,-305.65 1314.96,-298.82"/>
<text text-anchor="middle" x="1371" y="-302" font-family="Helvetica,sans-Serif" font-size="10.00"> stick</text>
</g>
<!-- Node19 -->
<g id="node19" class="node">
<title>Node19</title>
<g id="a_node19"><a xlink:href="classJoyStickDirectionsType.html" target="_top" xlink:title=" ">
<polygon fill="white" stroke="black" points="968.5,-310.5 968.5,-329.5 1096.5,-329.5 1096.5,-310.5 968.5,-310.5"/>
<text text-anchor="middle" x="1032.5" y="-317.5" font-family="Helvetica,sans-Serif" font-size="10.00">JoyStickDirectionsType</text>
</a>
</g>
</g>
<!-- Node19&#45;&gt;Node18 -->
<g id="edge29" class="edge">
<title>Node19&#45;&gt;Node18</title>
<path fill="none" stroke="midnightblue" d="M1106.57,-317.7C1115.14,-317.45 1123.76,-317.21 1132,-317 1163.38,-316.18 1198.75,-315.42 1225.9,-314.87"/>
<polygon fill="midnightblue" stroke="midnightblue" points="1106.45,-314.2 1096.55,-318 1106.65,-321.2 1106.45,-314.2"/>
</g>
<!-- Node20&#45;&gt;Node18 -->
<g id="edge30" class="edge">
<title>Node20&#45;&gt;Node18</title>
<path fill="none" stroke="#9a32cd" stroke-dasharray="5,2" d="M1086.1,-346.32C1100.91,-343.16 1117.06,-339.83 1132,-337 1163.25,-331.08 1198.63,-325.22 1225.81,-320.89"/>
<polygon fill="#9a32cd" stroke="#9a32cd" points="1085.12,-342.95 1076.08,-348.48 1086.59,-349.8 1085.12,-342.95"/>
<text text-anchor="middle" x="1170" y="-340" font-family="Helvetica,sans-Serif" font-size="10.00"> modifierButton</text>
</g>
<!-- Node21&#45;&gt;Node18 -->
<g id="edge33" class="edge">
<title>Node21&#45;&gt;Node18</title>
<path fill="none" stroke="#9a32cd" stroke-dasharray="5,2" d="M1414.5,-314C1382.35,-314 1345.33,-314 1317.15,-314"/>
<polygon fill="#9a32cd" stroke="#9a32cd" points="1414.75,-317.5 1424.75,-314 1414.75,-310.5 1414.75,-317.5"/>
<text text-anchor="middle" x="1371" y="-339" font-family="Helvetica,sans-Serif" font-size="10.00"> activeButton1</text>
<text text-anchor="middle" x="1371" y="-328" font-family="Helvetica,sans-Serif" font-size="10.00">activeButton2</text>
<text text-anchor="middle" x="1371" y="-317" font-family="Helvetica,sans-Serif" font-size="10.00">activeButton3</text>
</g>
<!-- Node22&#45;&gt;Node9 -->
<g id="edge36" class="edge">
<title>Node22&#45;&gt;Node9</title>
<path fill="none" stroke="#9a32cd" stroke-dasharray="5,2" d="M912.78,-539.11C946.43,-541.48 991.57,-544 1031.5,-544 1031.5,-544 1031.5,-544 1676,-544 1793.42,-544 1844.26,-358.61 1854.85,-313.71"/>
<polygon fill="#9a32cd" stroke="#9a32cd" points="912.95,-535.61 902.72,-538.38 912.44,-542.59 912.95,-535.61"/>
<text text-anchor="middle" x="1371" y="-547" font-family="Helvetica,sans-Serif" font-size="10.00"> joyButtonXml</text>
</g>
<!-- Node23&#45;&gt;Node8 -->
<g id="edge39" class="edge">
<title>Node23&#45;&gt;Node8</title>
<path fill="none" stroke="#9a32cd" stroke-dasharray="5,2" d="M409.66,-101.26C420.88,-99.91 432.85,-98.7 444,-98 854.75,-72.3 958.44,-96 1370,-96 1370,-96 1370,-96 1859,-96 1967.82,-96 2042.55,-241.23 2060.71,-280.38"/>
<polygon fill="#9a32cd" stroke="#9a32cd" points="409.09,-97.81 399.61,-102.53 409.96,-104.75 409.09,-97.81"/>
<text text-anchor="middle" x="1271.5" y="-98" font-family="Helvetica,sans-Serif" font-size="10.00"> m_device</text>
</g>
<!-- Node26 -->
<g id="node26" class="node">
<title>Node26</title>
<g id="a_node26"><a xlink:href="classInputDeviceCalibration.html" target="_top" xlink:title="Calibration storage backend which can store multiple calibration items for different controllers.">
<polygon fill="white" stroke="black" points="578,-119.5 578,-138.5 706,-138.5 706,-119.5 578,-119.5"/>
<text text-anchor="middle" x="642" y="-126.5" font-family="Helvetica,sans-Serif" font-size="10.00">InputDeviceCalibration</text>
</a>
</g>
</g>
<!-- Node23&#45;&gt;Node26 -->
<g id="edge44" class="edge">
<title>Node23&#45;&gt;Node26</title>
<path fill="none" stroke="#9a32cd" stroke-dasharray="5,2" d="M409.87,-104.16C449.93,-101.73 509.01,-100.2 560,-107 577.91,-109.39 597.47,-114.63 612.89,-119.39"/>
<polygon fill="#9a32cd" stroke="#9a32cd" points="409.62,-100.67 399.86,-104.81 410.07,-107.65 409.62,-100.67"/>
<text text-anchor="middle" x="502" y="-110" font-family="Helvetica,sans-Serif" font-size="10.00"> m_device</text>
</g>
<!-- Node24 -->
<g id="node24" class="node">
<title>Node24</title>
<g id="a_node24"><a xlink:href="classAntiMicroSettings.html" target="_top" xlink:title=" ">
<polygon fill="white" stroke="black" points="101,-14.5 101,-33.5 204,-33.5 204,-14.5 101,-14.5"/>
<text text-anchor="middle" x="152.5" y="-21.5" font-family="Helvetica,sans-Serif" font-size="10.00">AntiMicroSettings</text>
</a>
</g>
</g>
<!-- Node24&#45;&gt;Node23 -->
<g id="edge41" class="edge">
<title>Node24&#45;&gt;Node23</title>
<path fill="none" stroke="#9a32cd" stroke-dasharray="5,2" d="M186.58,-37.39C228.72,-54.45 300.51,-83.51 337.47,-98.48"/>
<polygon fill="#9a32cd" stroke="#9a32cd" points="187.89,-34.14 177.3,-33.64 185.26,-40.63 187.89,-34.14"/>
<text text-anchor="middle" x="251" y="-76" font-family="Helvetica,sans-Serif" font-size="10.00"> m_settings</text>
</g>
<!-- Node25 -->
<g id="node25" class="node">
<title>Node25</title>
<g id="a_node25"><a xlink:title=" ">
<polygon fill="white" stroke="#bfbfbf" points="0,-14.5 0,-33.5 64,-33.5 64,-14.5 0,-14.5"/>
<text text-anchor="middle" x="32" y="-21.5" font-family="Helvetica,sans-Serif" font-size="10.00">QSettings</text>
</a>
</g>
</g>
<!-- Node25&#45;&gt;Node24 -->
<g id="edge42" class="edge">
<title>Node25&#45;&gt;Node24</title>
<path fill="none" stroke="midnightblue" d="M74.27,-24C82.86,-24 91.99,-24 100.87,-24"/>
<polygon fill="midnightblue" stroke="midnightblue" points="74.13,-20.5 64.13,-24 74.13,-27.5 74.13,-20.5"/>
</g>
<!-- Node26&#45;&gt;Node23 -->
<g id="edge43" class="edge">
<title>Node26&#45;&gt;Node23</title>
<path fill="none" stroke="#9a32cd" stroke-dasharray="5,2" d="M567.66,-127.42C530.54,-126.17 484.81,-123.94 444,-120 429.43,-118.59 413.47,-116.37 399.6,-114.23"/>
<polygon fill="#9a32cd" stroke="#9a32cd" points="567.79,-130.92 577.89,-127.74 568.01,-123.93 567.79,-130.92"/>
<text text-anchor="middle" x="502" y="-130" font-family="Helvetica,sans-Serif" font-size="10.00"> m_calibrations</text>
</g>
<!-- Node27&#45;&gt;Node6 -->
<g id="edge45" class="edge">
<title>Node27&#45;&gt;Node6</title>
<path fill="none" stroke="#9a32cd" stroke-dasharray="5,2" d="M2472.6,-307.67C2435.06,-304.38 2383.86,-299.34 2339,-293 2326.2,-291.19 2312.09,-288.69 2300.22,-286.45"/>
<polygon fill="#9a32cd" stroke="#9a32cd" points="2472.55,-311.18 2482.81,-308.55 2473.15,-304.21 2472.55,-311.18"/>
<text text-anchor="middle" x="2393.5" y="-308" font-family="Helvetica,sans-Serif" font-size="10.00"> activeDiagonalButton</text>
</g>
<!-- Node28 -->
<g id="node28" class="node">
<title>Node28</title>
<g id="a_node28"><a xlink:href="classJoyDPadButtonWidget.html" target="_top" xlink:title=" ">
<polygon fill="white" stroke="black" points="2466,-14.5 2466,-33.5 2589,-33.5 2589,-14.5 2466,-14.5"/>
<text text-anchor="middle" x="2527.5" y="-21.5" font-family="Helvetica,sans-Serif" font-size="10.00">JoyDPadButtonWidget</text>
</a>
</g>
</g>
<!-- Node28&#45;&gt;Node1 -->
<g id="edge49" class="edge">
<title>Node28&#45;&gt;Node1</title>
<path fill="none" stroke="#9a32cd" stroke-dasharray="5,2" d="M2561.09,-37.62C2596.04,-53.27 2651.9,-81.46 2692,-117 2726.4,-147.49 2755.23,-195.01 2766.69,-215.29"/>
<polygon fill="#9a32cd" stroke="#9a32cd" points="2562.39,-34.36 2551.82,-33.53 2559.57,-40.77 2562.39,-34.36"/>
<text text-anchor="middle" x="2649.5" y="-197" font-family="Helvetica,sans-Serif" font-size="10.00"> upRightButton</text>
<text text-anchor="middle" x="2649.5" y="-186" font-family="Helvetica,sans-Serif" font-size="10.00">upLeftButton</text>
<text text-anchor="middle" x="2649.5" y="-175" font-family="Helvetica,sans-Serif" font-size="10.00">downButton</text>
<text text-anchor="middle" x="2649.5" y="-164" font-family="Helvetica,sans-Serif" font-size="10.00">rightButton</text>
<text text-anchor="middle" x="2649.5" y="-153" font-family="Helvetica,sans-Serif" font-size="10.00">leftButton</text>
<text text-anchor="middle" x="2649.5" y="-142" font-family="Helvetica,sans-Serif" font-size="10.00">downRightButton</text>
<text text-anchor="middle" x="2649.5" y="-131" font-family="Helvetica,sans-Serif" font-size="10.00">downLeftButton</text>
<text text-anchor="middle" x="2649.5" y="-120" font-family="Helvetica,sans-Serif" font-size="10.00">upButton</text>
</g>
<!-- Node29&#45;&gt;Node28 -->
<g id="edge50" class="edge">
<title>Node29&#45;&gt;Node28</title>
<path fill="none" stroke="midnightblue" d="M2331.48,-13.23C2371.75,-15.45 2425.13,-18.4 2465.86,-20.65"/>
<polygon fill="midnightblue" stroke="midnightblue" points="2331.46,-9.72 2321.28,-12.67 2331.07,-16.71 2331.46,-9.72"/>
</g>
</g>
</svg>
        <g id="navigator" transform="translate(0 0)" fill="#404254">
                <rect fill="#f2f5e9" fill-opacity="0.5" stroke="#606060" stroke-width=".5" x="0" y="0" width="60" height="60"/>
                <use id="zoomplus" xlink:href="#zoomPlus" x="17" y="9" onmousedown="handleZoom(evt,'in')"/>
                <use id="zoomminus" xlink:href="#zoomMin" x="42" y="9" onmousedown="handleZoom(evt,'out')"/>
                <use id="reset" xlink:href="#resetDef" x="30" y="36" onmousedown="handleReset()"/>
                <g id="arrowUp" xlink:href="#dirArrow" transform="translate(30 24)" onmousedown="handlePan(0,-1)">
                  <use xlink:href="#rim" fill="#404040">
                        <set attributeName="fill" to="#808080" begin="arrowUp.mouseover" end="arrowUp.mouseout"/>
                  </use>
                  <path fill="none" stroke="white" stroke-width="1.5" d="M0,-3.0v7 M-2.5,-0.5L0,-3.0L2.5,-0.5"/>
                </g>
                <g id="arrowRight" xlink:href="#dirArrow" transform="rotate(90) translate(36 -43)" onmousedown="handlePan(1,0)">
                  <use xlink:href="#rim" fill="#404040">
                        <set attributeName="fill" to="#808080" begin="arrowRight.mouseover" end="arrowRight.mouseout"/>
                  </use>
                  <path fill="none" stroke="white" stroke-width="1.5" d="M0,-3.0v7 M-2.5,-0.5L0,-3.0L2.5,-0.5"/>
                </g>
                <g id="arrowDown" xlink:href="#dirArrow" transform="rotate(180) translate(-30 -48)" onmousedown="handlePan(0,1)">
                  <use xlink:href="#rim" fill="#404040">
                        <set attributeName="fill" to="#808080" begin="arrowDown.mouseover" end="arrowDown.mouseout"/>
                  </use>
                  <path fill="none" stroke="white" stroke-width="1.5" d="M0,-3.0v7 M-2.5,-0.5L0,-3.0L2.5,-0.5"/>
                </g>
                <g id="arrowLeft" xlink:href="#dirArrow" transform="rotate(270) translate(-36 17)" onmousedown="handlePan(-1,0)">
                  <use xlink:href="#rim" fill="#404040">
                        <set attributeName="fill" to="#808080" begin="arrowLeft.mouseover" end="arrowLeft.mouseout"/>
                  </use>
                  <path fill="none" stroke="white" stroke-width="1.5" d="M0,-3.0v7 M-2.5,-0.5L0,-3.0L2.5,-0.5"/>
                </g>
        </g>
        <svg viewBox="0 0 15 15" width="100%" height="30px" preserveAspectRatio="xMaxYMin meet">
         <g id="arrow_out" transform="scale(0.3 0.3)">
          <a xlink:href="classDPadPushButtonGroup__coll__graph_org.svg" target="_base">
           <rect id="button" ry="5" rx="5" y="6" x="6" height="38" width="38"
                fill="#f2f5e9" fill-opacity="0.5" stroke="#606060" stroke-width="1.0"/>
           <path id="arrow"
             d="M 11.500037,31.436501 C 11.940474,20.09759 22.043105,11.32322 32.158766,21.979434 L 37.068811,17.246167 C 37.068811,17.246167 37.088388,32 37.088388,32 L 22.160133,31.978069 C 22.160133,31.978069 26.997745,27.140456 26.997745,27.140456 C 18.528582,18.264221 13.291696,25.230495 11.500037,31.436501 z"
             style="fill:#404040;"/>
          </a>
         </g>
        </svg>
</svg>
