<?xml version="1.0" encoding="UTF-8" standalone="no"?>
<!DOCTYPE svg PUBLIC "-//W3C//DTD SVG 1.1//EN"
 "http://www.w3.org/Graphics/SVG/1.1/DTD/svg11.dtd">
<!-- Generated by graphviz version 2.43.0 (0)
 -->
<!-- Title: EditAllDefaultAutoProfileDialog Pages: 1 -->
<svg width="293pt" height="163pt"
 viewBox="0.00 0.00 292.50 163.00" xmlns="http://www.w3.org/2000/svg" xmlns:xlink="http://www.w3.org/1999/xlink">
<g id="graph0" class="graph" transform="scale(1 1) rotate(0) translate(4 159)">
<title>EditAllDefaultAutoProfileDialog</title>
<polygon fill="white" stroke="transparent" points="-4,4 -4,-159 288.5,-159 288.5,4 -4,4"/>
<!-- Node1 -->
<g id="node1" class="node">
<title>Node1</title>
<g id="a_node1"><a xlink:title=" ">
<polygon fill="#bfbfbf" stroke="black" points="50.5,-0.5 50.5,-30.5 187.5,-30.5 187.5,-0.5 50.5,-0.5"/>
<text text-anchor="start" x="58.5" y="-18.5" font-family="Helvetica,sans-Serif" font-size="10.00">EditAllDefaultAutoProfile</text>
<text text-anchor="middle" x="119" y="-7.5" font-family="Helvetica,sans-Serif" font-size="10.00">Dialog</text>
</a>
</g>
</g>
<!-- Node2 -->
<g id="node2" class="node">
<title>Node2</title>
<g id="a_node2"><a xlink:title=" ">
<polygon fill="white" stroke="#bfbfbf" points="0,-78.5 0,-97.5 56,-97.5 56,-78.5 0,-78.5"/>
<text text-anchor="middle" x="28" y="-85.5" font-family="Helvetica,sans-Serif" font-size="10.00">QDialog</text>
</a>
</g>
</g>
<!-- Node2&#45;&gt;Node1 -->
<g id="edge1" class="edge">
<title>Node2&#45;&gt;Node1</title>
<path fill="none" stroke="midnightblue" d="M47.2,-72.13C63.02,-59.87 85.3,-42.61 100.83,-30.58"/>
<polygon fill="midnightblue" stroke="midnightblue" points="44.92,-69.46 39.16,-78.36 49.21,-75 44.92,-69.46"/>
</g>
<!-- Node3 -->
<g id="node3" class="node">
<title>Node3</title>
<g id="a_node3"><a xlink:href="classAutoProfileInfo.html" target="_top" xlink:title="Links information about targeted application with recommended profile.">
<polygon fill="white" stroke="black" points="74.5,-78.5 74.5,-97.5 163.5,-97.5 163.5,-78.5 74.5,-78.5"/>
<text text-anchor="middle" x="119" y="-85.5" font-family="Helvetica,sans-Serif" font-size="10.00">AutoProfileInfo</text>
</a>
</g>
</g>
<!-- Node3&#45;&gt;Node1 -->
<g id="edge2" class="edge">
<title>Node3&#45;&gt;Node1</title>
<path fill="none" stroke="#9a32cd" stroke-dasharray="5,2" d="M119,-68.24C119,-56.41 119,-41.38 119,-30.58"/>
<polygon fill="#9a32cd" stroke="#9a32cd" points="115.5,-68.36 119,-78.36 122.5,-68.36 115.5,-68.36"/>
<text text-anchor="middle" x="130" y="-52" font-family="Helvetica,sans-Serif" font-size="10.00"> info</text>
</g>
<!-- Node4 -->
<g id="node4" class="node">
<title>Node4</title>
<g id="a_node4"><a xlink:title=" ">
<polygon fill="white" stroke="#bfbfbf" points="91,-135.5 91,-154.5 147,-154.5 147,-135.5 91,-135.5"/>
<text text-anchor="middle" x="119" y="-142.5" font-family="Helvetica,sans-Serif" font-size="10.00">QObject</text>
</a>
</g>
</g>
<!-- Node4&#45;&gt;Node3 -->
<g id="edge3" class="edge">
<title>Node4&#45;&gt;Node3</title>
<path fill="none" stroke="midnightblue" d="M119,-125.12C119,-115.82 119,-105.06 119,-97.71"/>
<polygon fill="midnightblue" stroke="midnightblue" points="115.5,-125.41 119,-135.41 122.5,-125.41 115.5,-125.41"/>
</g>
<!-- Node5 -->
<g id="node5" class="node">
<title>Node5</title>
<g id="a_node5"><a xlink:href="classAntiMicroSettings.html" target="_top" xlink:title=" ">
<polygon fill="white" stroke="black" points="181.5,-78.5 181.5,-97.5 284.5,-97.5 284.5,-78.5 181.5,-78.5"/>
<text text-anchor="middle" x="233" y="-85.5" font-family="Helvetica,sans-Serif" font-size="10.00">AntiMicroSettings</text>
</a>
</g>
</g>
<!-- Node5&#45;&gt;Node1 -->
<g id="edge4" class="edge">
<title>Node5&#45;&gt;Node1</title>
<path fill="none" stroke="#9a32cd" stroke-dasharray="5,2" d="M210.31,-72.97C190.43,-60.67 161.67,-42.89 141.76,-30.58"/>
<polygon fill="#9a32cd" stroke="#9a32cd" points="208.68,-76.07 219.02,-78.36 212.36,-70.12 208.68,-76.07"/>
<text text-anchor="middle" x="208.5" y="-52" font-family="Helvetica,sans-Serif" font-size="10.00"> settings</text>
</g>
<!-- Node6 -->
<g id="node6" class="node">
<title>Node6</title>
<g id="a_node6"><a xlink:title=" ">
<polygon fill="white" stroke="#bfbfbf" points="201,-135.5 201,-154.5 265,-154.5 265,-135.5 201,-135.5"/>
<text text-anchor="middle" x="233" y="-142.5" font-family="Helvetica,sans-Serif" font-size="10.00">QSettings</text>
</a>
</g>
</g>
<!-- Node6&#45;&gt;Node5 -->
<g id="edge5" class="edge">
<title>Node6&#45;&gt;Node5</title>
<path fill="none" stroke="midnightblue" d="M233,-125.12C233,-115.82 233,-105.06 233,-97.71"/>
<polygon fill="midnightblue" stroke="midnightblue" points="229.5,-125.41 233,-135.41 236.5,-125.41 229.5,-125.41"/>
</g>
</g>
</svg>
