<?xml version="1.0" encoding="UTF-8" standalone="no"?>
<!DOCTYPE svg PUBLIC "-//W3C//DTD SVG 1.1//EN"
 "http://www.w3.org/Graphics/SVG/1.1/DTD/svg11.dtd">
<!-- Generated by graphviz version 2.43.0 (0)
 -->
<!-- Title: InputDevice::getProfileName Pages: 1 -->
<svg width="2297pt" height="787pt"
 viewBox="0.00 0.00 2297.00 786.50" xmlns="http://www.w3.org/2000/svg" xmlns:xlink="http://www.w3.org/1999/xlink">
<g id="graph0" class="graph" transform="scale(1 1) rotate(0) translate(4 782.5)">
<title>InputDevice::getProfileName</title>
<polygon fill="white" stroke="transparent" points="-4,4 -4,-782.5 2293,-782.5 2293,4 -4,4"/>
<!-- Node1 -->
<g id="node1" class="node">
<title>Node1</title>
<g id="a_node1"><a xlink:title=" ">
<polygon fill="#bfbfbf" stroke="black" points="2132,-138 2132,-157 2289,-157 2289,-138 2132,-138"/>
<text text-anchor="middle" x="2210.5" y="-145" font-family="Helvetica,sans-Serif" font-size="10.00">InputDevice::getProfileName</text>
</a>
</g>
</g>
<!-- Node2 -->
<g id="node2" class="node">
<title>Node2</title>
<g id="a_node2"><a xlink:href="classJoyTabWidget.html#a47c76ec36601a5965910c3be16b9b1db" target="_top" xlink:title=" ">
<polygon fill="white" stroke="black" points="1926,-473 1926,-492 2096,-492 2096,-473 1926,-473"/>
<text text-anchor="middle" x="2011" y="-480" font-family="Helvetica,sans-Serif" font-size="10.00">JoyTabWidget::changeJoyConfig</text>
</a>
</g>
</g>
<!-- Node1&#45;&gt;Node2 -->
<g id="edge1" class="edge">
<title>Node1&#45;&gt;Node2</title>
<path fill="none" stroke="midnightblue" d="M2198.68,-165.85C2162.28,-227.59 2045.03,-426.48 2017.72,-472.8"/>
<polygon fill="midnightblue" stroke="midnightblue" points="2201.74,-167.56 2203.8,-157.16 2195.71,-164 2201.74,-167.56"/>
</g>
<!-- Node22 -->
<g id="node22" class="node">
<title>Node22</title>
<g id="a_node22"><a xlink:href="classJoyTabWidget.html#a7e15bfce4bac6297eda8fc3a4e9d7196" target="_top" xlink:title=" ">
<polygon fill="white" stroke="black" points="1121.5,-296 1121.5,-315 1276.5,-315 1276.5,-296 1121.5,-296"/>
<text text-anchor="middle" x="1199" y="-303" font-family="Helvetica,sans-Serif" font-size="10.00">JoyTabWidget::saveAsConfig</text>
</a>
</g>
</g>
<!-- Node1&#45;&gt;Node22 -->
<g id="edge64" class="edge">
<title>Node1&#45;&gt;Node22</title>
<path fill="none" stroke="midnightblue" d="M2121.75,-147.5C2040.91,-147.5 1917.62,-147.5 1810.5,-147.5 1810.5,-147.5 1810.5,-147.5 1604.5,-147.5 1440.52,-147.5 1263.2,-261.55 1213.57,-295.85"/>
<polygon fill="midnightblue" stroke="midnightblue" points="2121.89,-151 2131.89,-147.5 2121.89,-144 2121.89,-151"/>
</g>
<!-- Node23 -->
<g id="node23" class="node">
<title>Node23</title>
<g id="a_node23"><a xlink:href="classJoyTabWidget.html#a6b09ad1532669ed27aac287e6aa63faf" target="_top" xlink:title=" ">
<polygon fill="white" stroke="black" points="1119,-502 1119,-521 1279,-521 1279,-502 1119,-502"/>
<text text-anchor="middle" x="1199" y="-509" font-family="Helvetica,sans-Serif" font-size="10.00">JoyTabWidget::saveConfigFile</text>
</a>
</g>
</g>
<!-- Node1&#45;&gt;Node23 -->
<g id="edge65" class="edge">
<title>Node1&#45;&gt;Node23</title>
<path fill="none" stroke="midnightblue" d="M2209.09,-167.55C2206.77,-227.09 2191.75,-404.72 2096,-501.5 1972.15,-626.68 1466.42,-725.39 1315,-635.5 1286.27,-618.44 1300.99,-594.65 1279,-569.5 1260.97,-548.88 1234.37,-531.25 1217.11,-521.01"/>
<polygon fill="midnightblue" stroke="midnightblue" points="2212.59,-167.38 2209.4,-157.27 2205.6,-167.16 2212.59,-167.38"/>
</g>
<!-- Node30 -->
<g id="node30" class="node">
<title>Node30</title>
<g id="a_node30"><a xlink:href="classExtraProfileSettingsDialog.html#ad5751d1a02ef93bdff60ef334839d12f" target="_top" xlink:title=" ">
<polygon fill="white" stroke="black" points="1936,-88.5 1936,-118.5 2086,-118.5 2086,-88.5 1936,-88.5"/>
<text text-anchor="start" x="1944" y="-106.5" font-family="Helvetica,sans-Serif" font-size="10.00">ExtraProfileSettingsDialog</text>
<text text-anchor="middle" x="2011" y="-95.5" font-family="Helvetica,sans-Serif" font-size="10.00">::ExtraProfileSettingsDialog</text>
</a>
</g>
</g>
<!-- Node1&#45;&gt;Node30 -->
<g id="edge60" class="edge">
<title>Node1&#45;&gt;Node30</title>
<path fill="none" stroke="midnightblue" d="M2156.79,-135.76C2133.1,-130.48 2104.85,-124.19 2079.62,-118.57"/>
<polygon fill="midnightblue" stroke="midnightblue" points="2156.12,-139.19 2166.65,-137.95 2157.65,-132.36 2156.12,-139.19"/>
</g>
<!-- Node31 -->
<g id="node31" class="node">
<title>Node31</title>
<g id="a_node31"><a xlink:href="classJoyTabWidget.html#ae64e33fc4199bbb201e8415868d435f5" target="_top" xlink:title=" ">
<polygon fill="white" stroke="black" points="1123,-579 1123,-598 1275,-598 1275,-579 1123,-579"/>
<text text-anchor="middle" x="1199" y="-586" font-family="Helvetica,sans-Serif" font-size="10.00">JoyTabWidget::resetJoystick</text>
</a>
</g>
</g>
<!-- Node1&#45;&gt;Node31 -->
<g id="edge61" class="edge">
<title>Node1&#45;&gt;Node31</title>
<path fill="none" stroke="midnightblue" d="M2209.94,-167.1C2210.34,-231.94 2202.93,-442.04 2096,-560.5 1920.5,-754.93 1779.86,-681.3 1518,-675.5 1427.71,-673.5 1400.72,-694.92 1315,-666.5 1271.26,-652 1228.77,-615.72 1210.02,-598.23"/>
<polygon fill="midnightblue" stroke="midnightblue" points="2213.44,-167 2209.81,-157.05 2206.44,-167.09 2213.44,-167"/>
</g>
<!-- Node32 -->
<g id="node32" class="node">
<title>Node32</title>
<g id="a_node32"><a xlink:href="classInputDeviceXml.html#a12bf094c5ab0ab10dae089e41fbc778c" target="_top" xlink:title="Serializes an InputDevice object into the the given XML stream.">
<polygon fill="white" stroke="black" points="1933,-50 1933,-69 2089,-69 2089,-50 1933,-50"/>
<text text-anchor="middle" x="2011" y="-57" font-family="Helvetica,sans-Serif" font-size="10.00">InputDeviceXml::writeConfig</text>
</a>
</g>
</g>
<!-- Node1&#45;&gt;Node32 -->
<g id="edge66" class="edge">
<title>Node1&#45;&gt;Node32</title>
<path fill="none" stroke="midnightblue" d="M2188.72,-132.01C2166.76,-116.33 2130.57,-92.48 2096,-78.5 2086.57,-74.69 2076.23,-71.56 2066.12,-69.02"/>
<polygon fill="midnightblue" stroke="midnightblue" points="2186.8,-134.94 2196.95,-137.97 2190.91,-129.27 2186.8,-134.94"/>
</g>
<!-- Node35 -->
<g id="node35" class="node">
<title>Node35</title>
<g id="a_node35"><a xlink:href="classGameControllerXml.html#ac87bc51a0dcdb01143d969a732b5188f" target="_top" xlink:title="Serializes a GameController object into the the given XML stream.">
<polygon fill="white" stroke="black" points="1951.5,-0.5 1951.5,-30.5 2070.5,-30.5 2070.5,-0.5 1951.5,-0.5"/>
<text text-anchor="start" x="1959.5" y="-18.5" font-family="Helvetica,sans-Serif" font-size="10.00">GameControllerXml::</text>
<text text-anchor="middle" x="2011" y="-7.5" font-family="Helvetica,sans-Serif" font-size="10.00">writeConfig</text>
</a>
</g>
</g>
<!-- Node1&#45;&gt;Node35 -->
<g id="edge69" class="edge">
<title>Node1&#45;&gt;Node35</title>
<path fill="none" stroke="midnightblue" d="M2195.69,-130.15C2175.99,-106.53 2137.59,-64.46 2096,-40.5 2088.22,-36.02 2079.57,-32.28 2070.85,-29.17"/>
<polygon fill="midnightblue" stroke="midnightblue" points="2193.03,-132.43 2202.07,-137.95 2198.45,-127.99 2193.03,-132.43"/>
</g>
<!-- Node3 -->
<g id="node3" class="node">
<title>Node3</title>
<g id="a_node3"><a xlink:href="classJoyTabWidget.html#ab5a344375911c53432349e37f0ceb23b" target="_top" xlink:title=" ">
<polygon fill="white" stroke="black" points="1739,-519.5 1739,-549.5 1880,-549.5 1880,-519.5 1739,-519.5"/>
<text text-anchor="start" x="1747" y="-537.5" font-family="Helvetica,sans-Serif" font-size="10.00">JoyTabWidget::disconnect</text>
<text text-anchor="middle" x="1809.5" y="-526.5" font-family="Helvetica,sans-Serif" font-size="10.00">MainComboBoxEvents</text>
</a>
</g>
</g>
<!-- Node2&#45;&gt;Node3 -->
<g id="edge2" class="edge">
<title>Node2&#45;&gt;Node3</title>
<path fill="none" stroke="midnightblue" d="M1963.73,-494.56C1935.33,-501.96 1898.71,-511.51 1868.4,-519.41"/>
<polygon fill="midnightblue" stroke="midnightblue" points="1964.61,-497.95 1973.41,-492.04 1962.85,-491.17 1964.61,-497.95"/>
</g>
<!-- Node25 -->
<g id="node25" class="node">
<title>Node25</title>
<g id="a_node25"><a xlink:href="classJoyTabWidget.html#af8bff794dd26441ea01dff33ca8ee29c" target="_top" xlink:title=" ">
<polygon fill="white" stroke="black" points="725,-681 725,-700 874,-700 874,-681 725,-681"/>
<text text-anchor="middle" x="799.5" y="-688" font-family="Helvetica,sans-Serif" font-size="10.00">JoyTabWidget::loadSettings</text>
</a>
</g>
</g>
<!-- Node2&#45;&gt;Node25 -->
<g id="edge46" class="edge">
<title>Node2&#45;&gt;Node25</title>
<path fill="none" stroke="midnightblue" d="M1992.15,-498.77C1922.23,-560.74 1658.14,-778.5 1399.5,-778.5 1399.5,-778.5 1399.5,-778.5 1198,-778.5 1054.16,-778.5 887.82,-722.89 825.65,-700.09"/>
<polygon fill="midnightblue" stroke="midnightblue" points="1994.58,-501.29 1999.7,-492.01 1989.91,-496.08 1994.58,-501.29"/>
</g>
<!-- Node29 -->
<g id="node29" class="node">
<title>Node29</title>
<g id="a_node29"><a xlink:href="classJoyTabWidget.html#adb4e4e9dded721d91549af6e16268014" target="_top" xlink:title=" ">
<polygon fill="white" stroke="black" points="1729,-415.5 1729,-445.5 1890,-445.5 1890,-415.5 1729,-415.5"/>
<text text-anchor="start" x="1737" y="-433.5" font-family="Helvetica,sans-Serif" font-size="10.00">JoyTabWidget::reconnectMain</text>
<text text-anchor="middle" x="1809.5" y="-422.5" font-family="Helvetica,sans-Serif" font-size="10.00">ComboBoxEvents</text>
</a>
</g>
</g>
<!-- Node2&#45;&gt;Node29 -->
<g id="edge53" class="edge">
<title>Node2&#45;&gt;Node29</title>
<path fill="none" stroke="midnightblue" d="M1963.73,-470.44C1935.33,-463.04 1898.71,-453.49 1868.4,-445.59"/>
<polygon fill="midnightblue" stroke="midnightblue" points="1962.85,-473.83 1973.41,-472.96 1964.61,-467.05 1962.85,-473.83"/>
</g>
<!-- Node4 -->
<g id="node4" class="node">
<title>Node4</title>
<g id="a_node4"><a xlink:href="classJoyTabWidget.html#a52897728ad18ff62995aa44194412948" target="_top" xlink:title=" ">
<polygon fill="white" stroke="black" points="1518,-415.5 1518,-445.5 1693,-445.5 1693,-415.5 1518,-415.5"/>
<text text-anchor="start" x="1526" y="-433.5" font-family="Helvetica,sans-Serif" font-size="10.00">JoyTabWidget::checkForUnsaved</text>
<text text-anchor="middle" x="1605.5" y="-422.5" font-family="Helvetica,sans-Serif" font-size="10.00">Profile</text>
</a>
</g>
</g>
<!-- Node3&#45;&gt;Node4 -->
<g id="edge3" class="edge">
<title>Node3&#45;&gt;Node4</title>
<path fill="none" stroke="midnightblue" d="M1770.16,-514.76C1731.1,-494.65 1671.38,-463.9 1635.91,-445.64"/>
<polygon fill="midnightblue" stroke="midnightblue" points="1768.63,-517.91 1779.13,-519.38 1771.84,-511.69 1768.63,-517.91"/>
</g>
<!-- Node6 -->
<g id="node6" class="node">
<title>Node6</title>
<g id="a_node6"><a xlink:href="classJoyTabWidget.html#a3a406264aca24134162a4ee13e998b55" target="_top" xlink:title=" ">
<polygon fill="white" stroke="black" points="916,-535.5 916,-565.5 1083,-565.5 1083,-535.5 916,-535.5"/>
<text text-anchor="start" x="924" y="-553.5" font-family="Helvetica,sans-Serif" font-size="10.00">JoyTabWidget::discardUnsaved</text>
<text text-anchor="middle" x="999.5" y="-542.5" font-family="Helvetica,sans-Serif" font-size="10.00">ProfileChanges</text>
</a>
</g>
</g>
<!-- Node3&#45;&gt;Node6 -->
<g id="edge42" class="edge">
<title>Node3&#45;&gt;Node6</title>
<path fill="none" stroke="midnightblue" d="M1790.81,-557.72C1770.37,-582.41 1734.22,-620.02 1693,-635.5 1453.89,-725.3 1363.37,-681.79 1119,-607.5 1085.36,-597.27 1049.31,-578.72 1025.93,-565.57"/>
<polygon fill="midnightblue" stroke="midnightblue" points="1793.57,-559.87 1797.12,-549.88 1788.12,-555.47 1793.57,-559.87"/>
</g>
<!-- Node17 -->
<g id="node17" class="node">
<title>Node17</title>
<g id="a_node17"><a xlink:href="classJoyTabWidget.html#aa64541df4b5629b43351dd13c9651b2a" target="_top" xlink:title=" ">
<polygon fill="white" stroke="black" points="1120,-378 1120,-397 1278,-397 1278,-378 1120,-378"/>
<text text-anchor="middle" x="1199" y="-385" font-family="Helvetica,sans-Serif" font-size="10.00">JoyTabWidget::loadConfigFile</text>
</a>
</g>
</g>
<!-- Node3&#45;&gt;Node17 -->
<g id="edge43" class="edge">
<title>Node3&#45;&gt;Node17</title>
<path fill="none" stroke="midnightblue" d="M1728.68,-530.53C1629.2,-523.58 1455.21,-504.75 1315,-454.5 1274.98,-440.16 1233.08,-411.82 1212.68,-397.01"/>
<polygon fill="midnightblue" stroke="midnightblue" points="1728.45,-534.03 1738.66,-531.21 1728.92,-527.04 1728.45,-534.03"/>
</g>
<!-- Node3&#45;&gt;Node22 -->
<g id="edge44" class="edge">
<title>Node3&#45;&gt;Node22</title>
<path fill="none" stroke="midnightblue" d="M1784.42,-512.09C1768.14,-496.51 1746.51,-474.95 1729,-454.5 1711.43,-433.97 1715.13,-421.01 1693,-405.5 1566.79,-317.01 1380.26,-303 1276.59,-302.84"/>
<polygon fill="midnightblue" stroke="midnightblue" points="1782.28,-514.88 1791.94,-519.23 1787.1,-509.81 1782.28,-514.88"/>
</g>
<!-- Node3&#45;&gt;Node23 -->
<g id="edge45" class="edge">
<title>Node3&#45;&gt;Node23</title>
<path fill="none" stroke="midnightblue" d="M1781.66,-555.95C1759.38,-572.3 1726.1,-593.48 1693,-602.5 1530.91,-646.67 1471.57,-663.4 1315,-602.5 1294.77,-594.63 1295.77,-583.28 1279,-569.5 1257.04,-551.47 1230.11,-532.28 1214.04,-521.12"/>
<polygon fill="midnightblue" stroke="midnightblue" points="1784.03,-558.54 1789.92,-549.74 1779.83,-552.95 1784.03,-558.54"/>
</g>
<!-- Node5 -->
<g id="node5" class="node">
<title>Node5</title>
<g id="a_node5"><a xlink:href="classJoyTabWidget.html#a46cbb4d5798f46f5b9aaab65090ebe24" target="_top" xlink:title=" ">
<polygon fill="white" stroke="black" points="1328,-415.5 1328,-445.5 1469,-445.5 1469,-415.5 1328,-415.5"/>
<text text-anchor="start" x="1336" y="-433.5" font-family="Helvetica,sans-Serif" font-size="10.00">JoyTabWidget::disconnect</text>
<text text-anchor="middle" x="1398.5" y="-422.5" font-family="Helvetica,sans-Serif" font-size="10.00">CheckUnsavedEvent</text>
</a>
</g>
</g>
<!-- Node4&#45;&gt;Node5 -->
<g id="edge4" class="edge">
<title>Node4&#45;&gt;Node5</title>
<path fill="none" stroke="midnightblue" d="M1507.5,-423.76C1494.53,-423.72 1481.44,-423.82 1469.07,-424.07"/>
<polygon fill="midnightblue" stroke="midnightblue" points="1507.84,-427.26 1517.86,-423.82 1507.88,-420.26 1507.84,-427.26"/>
</g>
<!-- Node4&#45;&gt;Node17 -->
<g id="edge34" class="edge">
<title>Node4&#45;&gt;Node17</title>
<path fill="none" stroke="midnightblue" d="M1578.43,-408.91C1554.89,-390.92 1518.45,-366.66 1482,-356.5 1390.9,-331.12 1277.83,-361.25 1226.98,-377.9"/>
<polygon fill="midnightblue" stroke="midnightblue" points="1576.46,-411.81 1586.49,-415.21 1580.77,-406.3 1576.46,-411.81"/>
</g>
<!-- Node24 -->
<g id="node24" class="node">
<title>Node24</title>
<g id="a_node24"><a xlink:href="classJoyTabWidget.html#addfb2efb312a0ce8b5c1b9bcc8543bef" target="_top" xlink:title=" ">
<polygon fill="white" stroke="black" points="1315,-366.5 1315,-396.5 1482,-396.5 1482,-366.5 1315,-366.5"/>
<text text-anchor="start" x="1323" y="-384.5" font-family="Helvetica,sans-Serif" font-size="10.00">JoyTabWidget::reconnectCheck</text>
<text text-anchor="middle" x="1398.5" y="-373.5" font-family="Helvetica,sans-Serif" font-size="10.00">UnsavedEvent</text>
</a>
</g>
</g>
<!-- Node4&#45;&gt;Node24 -->
<g id="edge35" class="edge">
<title>Node4&#45;&gt;Node24</title>
<path fill="none" stroke="midnightblue" d="M1554.8,-412.74C1533.01,-406.74 1506.84,-400.24 1482.25,-394.64"/>
<polygon fill="midnightblue" stroke="midnightblue" points="1553.91,-416.13 1564.49,-415.46 1555.8,-409.39 1553.91,-416.13"/>
</g>
<!-- Node5&#45;&gt;Node4 -->
<g id="edge5" class="edge">
<title>Node5&#45;&gt;Node4</title>
<path fill="none" stroke="midnightblue" d="M1479.13,-437.1C1491.82,-437.27 1505.01,-437.3 1517.86,-437.18"/>
<polygon fill="midnightblue" stroke="midnightblue" points="1479.13,-433.6 1469.07,-436.93 1479.01,-440.6 1479.13,-433.6"/>
</g>
<!-- Node5&#45;&gt;Node6 -->
<g id="edge6" class="edge">
<title>Node5&#45;&gt;Node6</title>
<path fill="none" stroke="midnightblue" d="M1317.91,-443.06C1261.44,-453.2 1184.38,-469.59 1119,-492.5 1086.14,-504.02 1050.53,-522.3 1027.01,-535.26"/>
<polygon fill="midnightblue" stroke="midnightblue" points="1318.61,-446.49 1327.85,-441.3 1317.39,-439.59 1318.61,-446.49"/>
</g>
<!-- Node5&#45;&gt;Node17 -->
<g id="edge21" class="edge">
<title>Node5&#45;&gt;Node17</title>
<path fill="none" stroke="midnightblue" d="M1318.4,-413.28C1292.95,-407.74 1265.68,-401.8 1243.74,-397.02"/>
<polygon fill="midnightblue" stroke="midnightblue" points="1317.91,-416.75 1328.42,-415.46 1319.4,-409.91 1317.91,-416.75"/>
</g>
<!-- Node5&#45;&gt;Node22 -->
<g id="edge28" class="edge">
<title>Node5&#45;&gt;Node22</title>
<path fill="none" stroke="midnightblue" d="M1325.76,-411.28C1322.04,-409.51 1318.43,-407.58 1315,-405.5 1295.4,-393.57 1296,-383.91 1279,-368.5 1256.77,-348.36 1228.99,-327.02 1212.99,-315.06"/>
<polygon fill="midnightblue" stroke="midnightblue" points="1324.63,-414.6 1335.2,-415.37 1327.42,-408.18 1324.63,-414.6"/>
</g>
<!-- Node5&#45;&gt;Node23 -->
<g id="edge30" class="edge">
<title>Node5&#45;&gt;Node23</title>
<path fill="none" stroke="midnightblue" d="M1340.59,-449.16C1331.87,-452.6 1323.09,-456.41 1315,-460.5 1297.84,-469.18 1296.24,-475.99 1279,-484.5 1264.83,-491.49 1248.41,-497.43 1234.22,-501.94"/>
<polygon fill="midnightblue" stroke="midnightblue" points="1341.89,-452.41 1349.99,-445.58 1339.4,-445.87 1341.89,-452.41"/>
</g>
<!-- Node7 -->
<g id="node7" class="node">
<title>Node7</title>
<g id="a_node7"><a xlink:href="classMainWindow.html#a59aa0e5214cb820e8743dea1b81b7d9a" target="_top" xlink:title=" ">
<polygon fill="white" stroke="black" points="727,-541 727,-560 872,-560 872,-541 727,-541"/>
<text text-anchor="middle" x="799.5" y="-548" font-family="Helvetica,sans-Serif" font-size="10.00">MainWindow::quitProgram</text>
</a>
</g>
</g>
<!-- Node6&#45;&gt;Node7 -->
<g id="edge7" class="edge">
<title>Node6&#45;&gt;Node7</title>
<path fill="none" stroke="midnightblue" d="M905.68,-550.5C894.43,-550.5 883.07,-550.5 872.19,-550.5"/>
<polygon fill="midnightblue" stroke="midnightblue" points="905.96,-554 915.96,-550.5 905.96,-547 905.96,-554"/>
</g>
<!-- Node8 -->
<g id="node8" class="node">
<title>Node8</title>
<g id="a_node8"><a xlink:href="classMainWindow.html#a4b00208df3ff47236e6b46f308647a97" target="_top" xlink:title=" ">
<polygon fill="white" stroke="black" points="515,-542 515,-561 683,-561 683,-542 515,-542"/>
<text text-anchor="middle" x="599" y="-549" font-family="Helvetica,sans-Serif" font-size="10.00">MainWindow::populateTrayIcon</text>
</a>
</g>
</g>
<!-- Node7&#45;&gt;Node8 -->
<g id="edge8" class="edge">
<title>Node7&#45;&gt;Node8</title>
<path fill="none" stroke="midnightblue" d="M716.72,-550.91C705.6,-550.97 694.18,-551.03 683.03,-551.08"/>
<polygon fill="midnightblue" stroke="midnightblue" points="716.85,-554.41 726.84,-550.86 716.82,-547.41 716.85,-554.41"/>
</g>
<!-- Node9 -->
<g id="node9" class="node">
<title>Node9</title>
<g id="a_node9"><a xlink:href="classMainWindow.html#a9738583d1ab872fb2784c0faee89cb46" target="_top" xlink:title=" ">
<polygon fill="white" stroke="black" points="310.5,-637 310.5,-656 444.5,-656 444.5,-637 310.5,-637"/>
<text text-anchor="middle" x="377.5" y="-644" font-family="Helvetica,sans-Serif" font-size="10.00">MainWindow::addJoyTab</text>
</a>
</g>
</g>
<!-- Node8&#45;&gt;Node9 -->
<g id="edge9" class="edge">
<title>Node8&#45;&gt;Node9</title>
<path fill="none" stroke="midnightblue" d="M577.31,-567.19C554.43,-583.8 515.92,-609.63 479,-624.5 465.99,-629.74 451.51,-633.83 437.69,-636.99"/>
<polygon fill="midnightblue" stroke="midnightblue" points="579.58,-569.86 585.55,-561.11 575.43,-564.23 579.58,-569.86"/>
</g>
<!-- Node11 -->
<g id="node11" class="node">
<title>Node11</title>
<g id="a_node11"><a xlink:href="classMainWindow.html#aef8941c9dc542d8ff8416fff1caf8ad7" target="_top" xlink:title=" ">
<polygon fill="white" stroke="black" points="300,-596 300,-615 455,-615 455,-596 300,-596"/>
<text text-anchor="middle" x="377.5" y="-603" font-family="Helvetica,sans-Serif" font-size="10.00">MainWindow::fillButtonsMap</text>
</a>
</g>
</g>
<!-- Node8&#45;&gt;Node11 -->
<g id="edge11" class="edge">
<title>Node8&#45;&gt;Node11</title>
<path fill="none" stroke="midnightblue" d="M549.51,-563.43C509.7,-573.22 454.09,-586.9 417.22,-595.97"/>
<polygon fill="midnightblue" stroke="midnightblue" points="550.39,-566.82 559.26,-561.03 548.72,-560.02 550.39,-566.82"/>
</g>
<!-- Node13 -->
<g id="node13" class="node">
<title>Node13</title>
<g id="a_node13"><a xlink:href="classMainWindow.html#ae9f72ff45056908317963a1e7fa634a0" target="_top" xlink:title="Build list of current input devices and pass it to settings dialog instance. Open Settings dialog.">
<polygon fill="white" stroke="black" points="291,-454.5 291,-484.5 464,-484.5 464,-454.5 291,-454.5"/>
<text text-anchor="start" x="299" y="-472.5" font-family="Helvetica,sans-Serif" font-size="10.00">MainWindow::openMainSettings</text>
<text text-anchor="middle" x="377.5" y="-461.5" font-family="Helvetica,sans-Serif" font-size="10.00">Dialog</text>
</a>
</g>
</g>
<!-- Node8&#45;&gt;Node13 -->
<g id="edge15" class="edge">
<title>Node8&#45;&gt;Node13</title>
<path fill="none" stroke="midnightblue" d="M568.9,-537.59C545.05,-526.49 510.26,-510.95 479,-499.5 464.38,-494.15 448.32,-489.02 433.4,-484.57"/>
<polygon fill="midnightblue" stroke="midnightblue" points="567.55,-540.83 578.09,-541.91 570.52,-534.49 567.55,-540.83"/>
</g>
<!-- Node15 -->
<g id="node15" class="node">
<title>Node15</title>
<g id="a_node15"><a xlink:href="classMainWindow.html#ac398cc635954d370088390a0a5bee878" target="_top" xlink:title=" ">
<polygon fill="white" stroke="black" points="81.5,-485 81.5,-504 235.5,-504 235.5,-485 81.5,-485"/>
<text text-anchor="middle" x="158.5" y="-492" font-family="Helvetica,sans-Serif" font-size="10.00">MainWindow::removeJoyTab</text>
</a>
</g>
</g>
<!-- Node8&#45;&gt;Node15 -->
<g id="edge17" class="edge">
<title>Node8&#45;&gt;Node15</title>
<path fill="none" stroke="midnightblue" d="M530.83,-540.29C513.93,-537.61 495.82,-534.84 479,-532.5 396.01,-520.94 300.58,-509.88 235.79,-502.71"/>
<polygon fill="midnightblue" stroke="midnightblue" points="530.74,-543.83 541.17,-541.95 531.85,-536.91 530.74,-543.83"/>
</g>
<!-- Node16 -->
<g id="node16" class="node">
<title>Node16</title>
<g id="a_node16"><a xlink:href="classMainWindow.html#a2a0aba59f5d3bf3c6fb97f0de103b36f" target="_top" xlink:title=" ">
<polygon fill="white" stroke="black" points="276,-542 276,-561 479,-561 479,-542 276,-542"/>
<text text-anchor="middle" x="377.5" y="-549" font-family="Helvetica,sans-Serif" font-size="10.00">MainWindow::testMappingUpdateNow</text>
</a>
</g>
</g>
<!-- Node8&#45;&gt;Node16 -->
<g id="edge19" class="edge">
<title>Node8&#45;&gt;Node16</title>
<path fill="none" stroke="midnightblue" d="M504.51,-551.5C496.1,-551.5 487.55,-551.5 479.08,-551.5"/>
<polygon fill="midnightblue" stroke="midnightblue" points="504.7,-555 514.7,-551.5 504.7,-548 504.7,-555"/>
</g>
<!-- Node10 -->
<g id="node10" class="node">
<title>Node10</title>
<g id="a_node10"><a xlink:href="main_8cpp.html#a0ddf1224851353fc92bfbff6f499fa97" target="_top" xlink:title=" ">
<polygon fill="white" stroke="black" points="0,-561 0,-580 41,-580 41,-561 0,-561"/>
<text text-anchor="middle" x="20.5" y="-568" font-family="Helvetica,sans-Serif" font-size="10.00">main</text>
</a>
</g>
</g>
<!-- Node9&#45;&gt;Node10 -->
<g id="edge10" class="edge">
<title>Node9&#45;&gt;Node10</title>
<path fill="none" stroke="midnightblue" d="M300.18,-656.32C237.37,-661.05 147.51,-659.93 77,-627.5 54.66,-617.23 36.56,-593.68 27.6,-580.29"/>
<polygon fill="midnightblue" stroke="midnightblue" points="300.73,-659.79 310.41,-655.48 300.16,-652.81 300.73,-659.79"/>
</g>
<!-- Node11&#45;&gt;Node10 -->
<g id="edge14" class="edge">
<title>Node11&#45;&gt;Node10</title>
<path fill="none" stroke="midnightblue" d="M289.52,-594.91C273.08,-593.02 256.02,-591.14 240,-589.5 166.7,-582.02 79.38,-574.99 41.1,-572.01"/>
<polygon fill="midnightblue" stroke="midnightblue" points="289.32,-598.41 299.66,-596.08 290.13,-591.46 289.32,-598.41"/>
</g>
<!-- Node12 -->
<g id="node12" class="node">
<title>Node12</title>
<g id="a_node12"><a xlink:href="classMainWindow.html#a5d25ebfdfec433fc449d7e35803a9c7c" target="_top" xlink:title=" ">
<polygon fill="white" stroke="black" points="91.5,-599 91.5,-618 225.5,-618 225.5,-599 91.5,-599"/>
<text text-anchor="middle" x="158.5" y="-606" font-family="Helvetica,sans-Serif" font-size="10.00">MainWindow::fillButtons</text>
</a>
</g>
</g>
<!-- Node11&#45;&gt;Node12 -->
<g id="edge12" class="edge">
<title>Node11&#45;&gt;Node12</title>
<path fill="none" stroke="midnightblue" d="M289.92,-606.7C268.49,-606.99 245.87,-607.31 225.6,-607.59"/>
<polygon fill="midnightblue" stroke="midnightblue" points="290.04,-610.2 299.99,-606.56 289.95,-603.2 290.04,-610.2"/>
</g>
<!-- Node12&#45;&gt;Node10 -->
<g id="edge13" class="edge">
<title>Node12&#45;&gt;Node10</title>
<path fill="none" stroke="midnightblue" d="M113.4,-596.18C89,-589.36 59.89,-581.23 41.07,-575.97"/>
<polygon fill="midnightblue" stroke="midnightblue" points="112.61,-599.59 123.18,-598.91 114.49,-592.85 112.61,-599.59"/>
</g>
<!-- Node14 -->
<g id="node14" class="node">
<title>Node14</title>
<g id="a_node14"><a xlink:href="classMainWindow.html#a2f0c03d3d51748ab794e698322110614" target="_top" xlink:title=" ">
<polygon fill="white" stroke="black" points="84.5,-446 84.5,-465 232.5,-465 232.5,-446 84.5,-446"/>
<text text-anchor="middle" x="158.5" y="-453" font-family="Helvetica,sans-Serif" font-size="10.00">MainWindow::MainWindow</text>
</a>
</g>
</g>
<!-- Node13&#45;&gt;Node14 -->
<g id="edge16" class="edge">
<title>Node13&#45;&gt;Node14</title>
<path fill="none" stroke="midnightblue" d="M280.31,-463.29C264.34,-462.26 248.01,-461.21 232.73,-460.22"/>
<polygon fill="midnightblue" stroke="midnightblue" points="280.53,-466.82 290.74,-463.97 280.98,-459.83 280.53,-466.82"/>
</g>
<!-- Node15&#45;&gt;Node10 -->
<g id="edge18" class="edge">
<title>Node15&#45;&gt;Node10</title>
<path fill="none" stroke="midnightblue" d="M102.57,-507.14C93.72,-510.22 84.89,-513.97 77,-518.5 57.53,-529.68 39.45,-548.94 29.49,-560.62"/>
<polygon fill="midnightblue" stroke="midnightblue" points="103.68,-510.46 112.12,-504.06 101.53,-503.8 103.68,-510.46"/>
</g>
<!-- Node16&#45;&gt;Node10 -->
<g id="edge20" class="edge">
<title>Node16&#45;&gt;Node10</title>
<path fill="none" stroke="midnightblue" d="M265.83,-547.29C209.13,-546.67 139.13,-548.26 77,-556.5 64.88,-558.11 51.6,-561.4 41.06,-564.39"/>
<polygon fill="midnightblue" stroke="midnightblue" points="265.85,-550.79 275.9,-547.43 265.95,-543.79 265.85,-550.79"/>
</g>
<!-- Node18 -->
<g id="node18" class="node">
<title>Node18</title>
<g id="a_node18"><a xlink:href="classMainWindow.html#a0a756973a707af418c4ce416c9c8312c" target="_top" xlink:title=" ">
<polygon fill="white" stroke="black" points="719,-416 719,-435 880,-435 880,-416 719,-416"/>
<text text-anchor="middle" x="799.5" y="-423" font-family="Helvetica,sans-Serif" font-size="10.00">MainWindow::autoprofileLoad</text>
</a>
</g>
</g>
<!-- Node17&#45;&gt;Node18 -->
<g id="edge22" class="edge">
<title>Node17&#45;&gt;Node18</title>
<path fill="none" stroke="midnightblue" d="M1136.89,-398.72C1119.53,-401.6 1100.56,-404.46 1083,-406.5 1014.76,-414.41 936.84,-419.35 880.14,-422.2"/>
<polygon fill="midnightblue" stroke="midnightblue" points="1137.64,-402.15 1146.91,-397.03 1136.47,-395.24 1137.64,-402.15"/>
</g>
<!-- Node19 -->
<g id="node19" class="node">
<title>Node19</title>
<g id="a_node19"><a xlink:href="classJoyTabWidget.html#a6a6bd9ccd83557de08b6e698598f2123" target="_top" xlink:title=" ">
<polygon fill="white" stroke="black" points="922,-340 922,-359 1077,-359 1077,-340 922,-340"/>
<text text-anchor="middle" x="999.5" y="-347" font-family="Helvetica,sans-Serif" font-size="10.00">JoyTabWidget::JoyTabWidget</text>
</a>
</g>
</g>
<!-- Node17&#45;&gt;Node19 -->
<g id="edge24" class="edge">
<title>Node17&#45;&gt;Node19</title>
<path fill="none" stroke="midnightblue" d="M1138.29,-376.01C1110.11,-370.59 1076.87,-364.19 1050.1,-359.04"/>
<polygon fill="midnightblue" stroke="midnightblue" points="1137.94,-379.51 1148.42,-377.96 1139.26,-372.63 1137.94,-379.51"/>
</g>
<!-- Node20 -->
<g id="node20" class="node">
<title>Node20</title>
<g id="a_node20"><a xlink:href="classMainWindow.html#a781de6ce6a0b73b8caadfad15e7c7147" target="_top" xlink:title=" ">
<polygon fill="white" stroke="black" points="922.5,-378 922.5,-397 1076.5,-397 1076.5,-378 922.5,-378"/>
<text text-anchor="middle" x="999.5" y="-385" font-family="Helvetica,sans-Serif" font-size="10.00">MainWindow::loadConfigFile</text>
</a>
</g>
</g>
<!-- Node17&#45;&gt;Node20 -->
<g id="edge25" class="edge">
<title>Node17&#45;&gt;Node20</title>
<path fill="none" stroke="midnightblue" d="M1109.85,-387.5C1098.79,-387.5 1087.55,-387.5 1076.7,-387.5"/>
<polygon fill="midnightblue" stroke="midnightblue" points="1109.94,-391 1119.94,-387.5 1109.94,-384 1109.94,-391"/>
</g>
<!-- Node18&#45;&gt;Node14 -->
<g id="edge23" class="edge">
<title>Node18&#45;&gt;Node14</title>
<path fill="none" stroke="midnightblue" d="M708.6,-427.19C604.43,-429.52 427.65,-434.59 276,-444.5 262.01,-445.41 247.1,-446.63 232.78,-447.93"/>
<polygon fill="midnightblue" stroke="midnightblue" points="708.84,-430.69 718.76,-426.97 708.68,-423.69 708.84,-430.69"/>
</g>
<!-- Node21 -->
<g id="node21" class="node">
<title>Node21</title>
<g id="a_node21"><a xlink:href="classMainWindow.html#a58c2bb4b8456b8dd246c6beb3623b3d2" target="_top" xlink:title=" ">
<polygon fill="white" stroke="black" points="77,-393.5 77,-423.5 240,-423.5 240,-393.5 77,-393.5"/>
<text text-anchor="start" x="85" y="-411.5" font-family="Helvetica,sans-Serif" font-size="10.00">MainWindow::alterConfigFrom</text>
<text text-anchor="middle" x="158.5" y="-400.5" font-family="Helvetica,sans-Serif" font-size="10.00">Settings</text>
</a>
</g>
</g>
<!-- Node20&#45;&gt;Node21 -->
<g id="edge26" class="edge">
<title>Node20&#45;&gt;Node21</title>
<path fill="none" stroke="midnightblue" d="M911.72,-389.67C748.57,-393.76 398.34,-402.52 240.07,-406.48"/>
<polygon fill="midnightblue" stroke="midnightblue" points="912.28,-393.16 922.19,-389.41 912.11,-386.16 912.28,-393.16"/>
</g>
<!-- Node21&#45;&gt;Node10 -->
<g id="edge27" class="edge">
<title>Node21&#45;&gt;Node10</title>
<path fill="none" stroke="midnightblue" d="M87.11,-428.63C83.49,-430.97 80.09,-433.59 77,-436.5 39.46,-471.93 26.45,-536.54 22.76,-560.88"/>
<polygon fill="midnightblue" stroke="midnightblue" points="88.91,-431.63 95.87,-423.65 85.45,-425.55 88.91,-431.63"/>
</g>
<!-- Node22&#45;&gt;Node19 -->
<g id="edge29" class="edge">
<title>Node22&#45;&gt;Node19</title>
<path fill="none" stroke="midnightblue" d="M1145.11,-317.28C1113.22,-324.39 1073.14,-333.32 1043.27,-339.97"/>
<polygon fill="midnightblue" stroke="midnightblue" points="1146.15,-320.64 1155.15,-315.05 1144.62,-313.81 1146.15,-320.64"/>
</g>
<!-- Node23&#45;&gt;Node4 -->
<g id="edge31" class="edge">
<title>Node23&#45;&gt;Node4</title>
<path fill="none" stroke="midnightblue" d="M1257.68,-499.95C1329.05,-485.66 1450.75,-461.29 1529.36,-445.55"/>
<polygon fill="midnightblue" stroke="midnightblue" points="1256.64,-496.59 1247.52,-501.98 1258.02,-503.45 1256.64,-496.59"/>
</g>
<!-- Node23&#45;&gt;Node6 -->
<g id="edge32" class="edge">
<title>Node23&#45;&gt;Node6</title>
<path fill="none" stroke="midnightblue" d="M1139.64,-523.02C1119.95,-526.91 1097.66,-531.31 1076.79,-535.44"/>
<polygon fill="midnightblue" stroke="midnightblue" points="1140.55,-526.41 1149.69,-521.04 1139.2,-519.54 1140.55,-526.41"/>
</g>
<!-- Node23&#45;&gt;Node19 -->
<g id="edge33" class="edge">
<title>Node23&#45;&gt;Node19</title>
<path fill="none" stroke="midnightblue" d="M1184.73,-493.7C1157.4,-457.25 1096.31,-376.85 1083,-368.5 1076.77,-364.6 1069.83,-361.49 1062.69,-359.03"/>
<polygon fill="midnightblue" stroke="midnightblue" points="1182.1,-496.04 1190.9,-501.95 1187.71,-491.84 1182.1,-496.04"/>
</g>
<!-- Node24&#45;&gt;Node4 -->
<g id="edge36" class="edge">
<title>Node24&#45;&gt;Node4</title>
<path fill="none" stroke="midnightblue" d="M1449.35,-399.3C1469.96,-404.97 1494.48,-411.09 1517.86,-416.47"/>
<polygon fill="midnightblue" stroke="midnightblue" points="1450.14,-395.89 1439.57,-396.56 1448.25,-402.63 1450.14,-395.89"/>
</g>
<!-- Node24&#45;&gt;Node6 -->
<g id="edge37" class="edge">
<title>Node24&#45;&gt;Node6</title>
<path fill="none" stroke="midnightblue" d="M1316.25,-398.68C1240.51,-415.03 1136.64,-438.45 1119,-447.5 1074.86,-470.15 1033.59,-512.65 1013.42,-535.33"/>
<polygon fill="midnightblue" stroke="midnightblue" points="1317.23,-402.05 1326.27,-396.52 1315.76,-395.21 1317.23,-402.05"/>
</g>
<!-- Node24&#45;&gt;Node17 -->
<g id="edge39" class="edge">
<title>Node24&#45;&gt;Node17</title>
<path fill="none" stroke="midnightblue" d="M1304.86,-384.31C1295.93,-384.59 1286.94,-384.86 1278.18,-385.13"/>
<polygon fill="midnightblue" stroke="midnightblue" points="1305,-387.81 1314.89,-384.01 1304.78,-380.82 1305,-387.81"/>
</g>
<!-- Node24&#45;&gt;Node19 -->
<g id="edge38" class="edge">
<title>Node24&#45;&gt;Node19</title>
<path fill="none" stroke="midnightblue" d="M1304.78,-370.96C1296.07,-370.08 1287.37,-369.24 1279,-368.5 1210.81,-362.44 1133.09,-357.28 1077.11,-353.88"/>
<polygon fill="midnightblue" stroke="midnightblue" points="1304.68,-374.47 1314.99,-372.01 1305.4,-367.5 1304.68,-374.47"/>
</g>
<!-- Node24&#45;&gt;Node22 -->
<g id="edge40" class="edge">
<title>Node24&#45;&gt;Node22</title>
<path fill="none" stroke="midnightblue" d="M1349.27,-362.69C1327.78,-354.33 1302.14,-344.38 1279,-335.5 1261.06,-328.61 1240.79,-320.92 1225.28,-315.05"/>
<polygon fill="midnightblue" stroke="midnightblue" points="1348.25,-366.04 1358.84,-366.41 1350.79,-359.52 1348.25,-366.04"/>
</g>
<!-- Node24&#45;&gt;Node23 -->
<g id="edge41" class="edge">
<title>Node24&#45;&gt;Node23</title>
<path fill="none" stroke="midnightblue" d="M1324.33,-400.62C1321.12,-402.14 1317.99,-403.76 1315,-405.5 1295.71,-416.73 1295.3,-425.26 1279,-440.5 1255.02,-462.92 1226.19,-488.48 1210.85,-501.99"/>
<polygon fill="midnightblue" stroke="midnightblue" points="1325.77,-403.82 1333.57,-396.65 1323,-397.38 1325.77,-403.82"/>
</g>
<!-- Node26 -->
<g id="node26" class="node">
<title>Node26</title>
<g id="a_node26"><a xlink:href="classMainWindow.html#a35cd3e8600502e124a63d32e1d457710" target="_top" xlink:title=" ">
<polygon fill="white" stroke="black" points="521.5,-637 521.5,-656 676.5,-656 676.5,-637 521.5,-637"/>
<text text-anchor="middle" x="599" y="-644" font-family="Helvetica,sans-Serif" font-size="10.00">MainWindow::loadAppConfig</text>
</a>
</g>
</g>
<!-- Node25&#45;&gt;Node26 -->
<g id="edge47" class="edge">
<title>Node25&#45;&gt;Node26</title>
<path fill="none" stroke="midnightblue" d="M745.34,-678.72C713.29,-671.61 673.01,-662.68 642.99,-656.03"/>
<polygon fill="midnightblue" stroke="midnightblue" points="744.91,-682.21 755.43,-680.95 746.42,-675.37 744.91,-682.21"/>
</g>
<!-- Node28 -->
<g id="node28" class="node">
<title>Node28</title>
<g id="a_node28"><a xlink:href="classJoyTabWidget.html#a7fc1e549dce3dd0e945e43b94644fc0a" target="_top" xlink:title=" ">
<polygon fill="white" stroke="black" points="527.5,-675.5 527.5,-705.5 670.5,-705.5 670.5,-675.5 527.5,-675.5"/>
<text text-anchor="start" x="535.5" y="-693.5" font-family="Helvetica,sans-Serif" font-size="10.00">JoyTabWidget::loadDevice</text>
<text text-anchor="middle" x="599" y="-682.5" font-family="Helvetica,sans-Serif" font-size="10.00">Settings</text>
</a>
</g>
</g>
<!-- Node25&#45;&gt;Node28 -->
<g id="edge51" class="edge">
<title>Node25&#45;&gt;Node28</title>
<path fill="none" stroke="midnightblue" d="M714.77,-690.5C700.05,-690.5 684.86,-690.5 670.55,-690.5"/>
<polygon fill="midnightblue" stroke="midnightblue" points="714.87,-694 724.87,-690.5 714.87,-687 714.87,-694"/>
</g>
<!-- Node26&#45;&gt;Node11 -->
<g id="edge48" class="edge">
<title>Node26&#45;&gt;Node11</title>
<path fill="none" stroke="midnightblue" d="M536.87,-635.08C503.07,-628.77 461.56,-621.01 429.51,-615.03"/>
<polygon fill="midnightblue" stroke="midnightblue" points="536.62,-638.6 547.09,-636.99 537.9,-631.71 536.62,-638.6"/>
</g>
<!-- Node27 -->
<g id="node27" class="node">
<title>Node27</title>
<g id="a_node27"><a xlink:href="classMainWindow.html#ae857ce9d70cf899eb823a9caeb7a99cd" target="_top" xlink:title=" ">
<polygon fill="white" stroke="black" points="79,-675.5 79,-705.5 238,-705.5 238,-675.5 79,-675.5"/>
<text text-anchor="start" x="87" y="-693.5" font-family="Helvetica,sans-Serif" font-size="10.00">MainWindow::handleInstance</text>
<text text-anchor="middle" x="158.5" y="-682.5" font-family="Helvetica,sans-Serif" font-size="10.00">Disconnect</text>
</a>
</g>
</g>
<!-- Node26&#45;&gt;Node27 -->
<g id="edge49" class="edge">
<title>Node26&#45;&gt;Node27</title>
<path fill="none" stroke="midnightblue" d="M533.97,-657.69C516.2,-660.53 496.89,-663.38 479,-665.5 397.09,-675.23 302.9,-682.07 238.13,-686.11"/>
<polygon fill="midnightblue" stroke="midnightblue" points="534.91,-661.08 544.22,-656.02 533.79,-654.17 534.91,-661.08"/>
</g>
<!-- Node27&#45;&gt;Node10 -->
<g id="edge50" class="edge">
<title>Node27&#45;&gt;Node10</title>
<path fill="none" stroke="midnightblue" d="M92.94,-670.99C87.26,-667.95 81.84,-664.48 77,-660.5 49.62,-638.02 31.98,-598.28 24.95,-580.08"/>
<polygon fill="midnightblue" stroke="midnightblue" points="91.5,-674.18 102.03,-675.41 94.56,-667.89 91.5,-674.18"/>
</g>
<!-- Node28&#45;&gt;Node9 -->
<g id="edge52" class="edge">
<title>Node28&#45;&gt;Node9</title>
<path fill="none" stroke="midnightblue" d="M517.5,-674.36C486.81,-668.21 452.83,-661.4 426.15,-656.05"/>
<polygon fill="midnightblue" stroke="midnightblue" points="516.85,-677.8 527.34,-676.34 518.22,-670.94 516.85,-677.8"/>
</g>
<!-- Node29&#45;&gt;Node4 -->
<g id="edge54" class="edge">
<title>Node29&#45;&gt;Node4</title>
<path fill="none" stroke="midnightblue" d="M1718.72,-430.5C1710.27,-430.5 1701.72,-430.5 1693.31,-430.5"/>
<polygon fill="midnightblue" stroke="midnightblue" points="1718.95,-434 1728.95,-430.5 1718.95,-427 1718.95,-434"/>
</g>
<!-- Node29&#45;&gt;Node6 -->
<g id="edge55" class="edge">
<title>Node29&#45;&gt;Node6</title>
<path fill="none" stroke="midnightblue" d="M1772.3,-450.2C1750.05,-461.43 1720.61,-474.77 1693,-482.5 1478.94,-542.39 1214.85,-551.32 1083.22,-551.6"/>
<polygon fill="midnightblue" stroke="midnightblue" points="1774.08,-453.22 1781.37,-445.53 1770.88,-446.99 1774.08,-453.22"/>
</g>
<!-- Node29&#45;&gt;Node17 -->
<g id="edge57" class="edge">
<title>Node29&#45;&gt;Node17</title>
<path fill="none" stroke="midnightblue" d="M1763.3,-411.65C1676.39,-377.81 1479.96,-313.02 1315,-343.5 1279.47,-350.06 1240.74,-367.14 1218.51,-377.98"/>
<polygon fill="midnightblue" stroke="midnightblue" points="1762.27,-415 1772.85,-415.42 1764.84,-408.49 1762.27,-415"/>
</g>
<!-- Node29&#45;&gt;Node19 -->
<g id="edge56" class="edge">
<title>Node29&#45;&gt;Node19</title>
<path fill="none" stroke="midnightblue" d="M1795.87,-406.37C1777.85,-374.78 1741.49,-320.73 1693,-297.5 1462.89,-187.25 1366.58,-224.78 1119,-286.5 1077.4,-296.87 1034.38,-324.88 1013.48,-339.81"/>
<polygon fill="midnightblue" stroke="midnightblue" points="1792.96,-408.34 1800.87,-415.39 1799.09,-404.94 1792.96,-408.34"/>
</g>
<!-- Node29&#45;&gt;Node22 -->
<g id="edge58" class="edge">
<title>Node29&#45;&gt;Node22</title>
<path fill="none" stroke="midnightblue" d="M1787.74,-407.94C1766.34,-386.36 1730.84,-355.02 1693,-340.5 1553.81,-287.09 1376.46,-290.06 1276.87,-297.48"/>
<polygon fill="midnightblue" stroke="midnightblue" points="1785.5,-410.65 1794.97,-415.4 1790.52,-405.78 1785.5,-410.65"/>
</g>
<!-- Node29&#45;&gt;Node23 -->
<g id="edge59" class="edge">
<title>Node29&#45;&gt;Node23</title>
<path fill="none" stroke="midnightblue" d="M1729.21,-447.57C1717.1,-450 1704.73,-452.39 1693,-454.5 1599.64,-471.27 1576.17,-475.2 1482,-486.5 1413.68,-494.7 1335.75,-501.41 1279.15,-505.8"/>
<polygon fill="midnightblue" stroke="midnightblue" points="1730.2,-450.94 1739.3,-445.52 1728.8,-444.08 1730.2,-450.94"/>
</g>
<!-- Node31&#45;&gt;Node6 -->
<g id="edge62" class="edge">
<title>Node31&#45;&gt;Node6</title>
<path fill="none" stroke="midnightblue" d="M1138.5,-577.05C1119.65,-573.42 1098.52,-569.36 1078.57,-565.52"/>
<polygon fill="midnightblue" stroke="midnightblue" points="1137.94,-580.51 1148.42,-578.96 1139.26,-573.63 1137.94,-580.51"/>
</g>
<!-- Node31&#45;&gt;Node19 -->
<g id="edge63" class="edge">
<title>Node31&#45;&gt;Node19</title>
<path fill="none" stroke="midnightblue" d="M1168.51,-573.82C1151.51,-563.87 1131.16,-549.14 1119,-530.5 1078.7,-468.73 1134.95,-420.85 1083,-368.5 1079.27,-364.74 1074.96,-361.67 1070.31,-359.16"/>
<polygon fill="midnightblue" stroke="midnightblue" points="1167.1,-577.04 1177.54,-578.85 1170.51,-570.93 1167.1,-577.04"/>
</g>
<!-- Node33 -->
<g id="node33" class="node">
<title>Node33</title>
<g id="a_node33"><a xlink:href="classXMLConfigWriter.html#aacd0a3991eedf223f3586d33559903d4" target="_top" xlink:title="Write input device config from the current object into XML file.">
<polygon fill="white" stroke="black" points="1745,-50 1745,-69 1874,-69 1874,-50 1745,-50"/>
<text text-anchor="middle" x="1809.5" y="-57" font-family="Helvetica,sans-Serif" font-size="10.00">XMLConfigWriter::write</text>
</a>
</g>
</g>
<!-- Node32&#45;&gt;Node33 -->
<g id="edge67" class="edge">
<title>Node32&#45;&gt;Node33</title>
<path fill="none" stroke="midnightblue" d="M1922.77,-59.5C1906.43,-59.5 1889.64,-59.5 1874.18,-59.5"/>
<polygon fill="midnightblue" stroke="midnightblue" points="1922.87,-63 1932.87,-59.5 1922.87,-56 1922.87,-63"/>
</g>
<!-- Node34 -->
<g id="node34" class="node">
<title>Node34</title>
<g id="a_node34"><a xlink:href="classJoyTabWidgetHelper.html#ad1754369989cbe4a3e10c8c01e3fb89b" target="_top" xlink:title="XML write entry point for the GUI.">
<polygon fill="white" stroke="black" points="1548,-44.5 1548,-74.5 1663,-74.5 1663,-44.5 1548,-44.5"/>
<text text-anchor="start" x="1556" y="-62.5" font-family="Helvetica,sans-Serif" font-size="10.00">JoyTabWidgetHelper</text>
<text text-anchor="middle" x="1605.5" y="-51.5" font-family="Helvetica,sans-Serif" font-size="10.00">::writeConfigFile</text>
</a>
</g>
</g>
<!-- Node33&#45;&gt;Node34 -->
<g id="edge68" class="edge">
<title>Node33&#45;&gt;Node34</title>
<path fill="none" stroke="midnightblue" d="M1734.58,-59.5C1711.06,-59.5 1685.43,-59.5 1663.32,-59.5"/>
<polygon fill="midnightblue" stroke="midnightblue" points="1734.86,-63 1744.86,-59.5 1734.86,-56 1734.86,-63"/>
</g>
</g>
</svg>
