<?xml version="1.0" encoding="UTF-8" standalone="no"?>
<!DOCTYPE svg PUBLIC "-//W3C//DTD SVG 1.1//EN"
 "http://www.w3.org/Graphics/SVG/1.1/DTD/svg11.dtd">
<!-- Generated by graphviz version 2.43.0 (0)
 -->
<!-- Title: InputDevice Pages: 1 -->
<svg width="206pt" height="219pt"
 viewBox="0.00 0.00 205.50 219.00" xmlns="http://www.w3.org/2000/svg" xmlns:xlink="http://www.w3.org/1999/xlink">
<g id="graph0" class="graph" transform="scale(1 1) rotate(0) translate(4 215)">
<title>InputDevice</title>
<polygon fill="white" stroke="transparent" points="-4,4 -4,-215 201.5,-215 201.5,4 -4,4"/>
<!-- Node1 -->
<g id="node1" class="node">
<title>Node1</title>
<g id="a_node1"><a xlink:title="Abstract class representing a hardware input device, e.g a joystick or controller.">
<polygon fill="#bfbfbf" stroke="black" points="26.5,-67.5 26.5,-86.5 101.5,-86.5 101.5,-67.5 26.5,-67.5"/>
<text text-anchor="middle" x="64" y="-74.5" font-family="Helvetica,sans-Serif" font-size="10.00">InputDevice</text>
</a>
</g>
</g>
<!-- Node5 -->
<g id="node5" class="node">
<title>Node5</title>
<g id="a_node5"><a xlink:href="classInputDeviceCalibration.html" target="_top" xlink:title="Calibration storage backend which can store multiple calibration items for different controllers.">
<polygon fill="white" stroke="black" points="0,-0.5 0,-19.5 128,-19.5 128,-0.5 0,-0.5"/>
<text text-anchor="middle" x="64" y="-7.5" font-family="Helvetica,sans-Serif" font-size="10.00">InputDeviceCalibration</text>
</a>
</g>
</g>
<!-- Node1&#45;&gt;Node5 -->
<g id="edge5" class="edge">
<title>Node1&#45;&gt;Node5</title>
<path fill="none" stroke="#9a32cd" stroke-dasharray="5,2" d="M35.19,-61.76C30.69,-58.23 26.65,-53.99 24,-49 17.57,-36.9 30.81,-26.47 43.74,-19.61"/>
<polygon fill="#9a32cd" stroke="#9a32cd" points="33.35,-64.74 43.61,-67.37 37.23,-58.91 33.35,-64.74"/>
<text text-anchor="middle" x="49.5" y="-41" font-family="Helvetica,sans-Serif" font-size="10.00"> m_device</text>
</g>
<!-- Node2 -->
<g id="node2" class="node">
<title>Node2</title>
<g id="a_node2"><a xlink:title=" ">
<polygon fill="white" stroke="#bfbfbf" points="20,-134.5 20,-153.5 76,-153.5 76,-134.5 20,-134.5"/>
<text text-anchor="middle" x="48" y="-141.5" font-family="Helvetica,sans-Serif" font-size="10.00">QObject</text>
</a>
</g>
</g>
<!-- Node2&#45;&gt;Node1 -->
<g id="edge1" class="edge">
<title>Node2&#45;&gt;Node1</title>
<path fill="none" stroke="midnightblue" d="M52.57,-124.41C55.63,-111.99 59.52,-96.22 61.88,-86.63"/>
<polygon fill="midnightblue" stroke="midnightblue" points="49.15,-123.69 50.16,-134.23 55.95,-125.36 49.15,-123.69"/>
</g>
<!-- Node3 -->
<g id="node3" class="node">
<title>Node3</title>
<g id="a_node3"><a xlink:href="classAntiMicroSettings.html" target="_top" xlink:title=" ">
<polygon fill="white" stroke="black" points="94.5,-134.5 94.5,-153.5 197.5,-153.5 197.5,-134.5 94.5,-134.5"/>
<text text-anchor="middle" x="146" y="-141.5" font-family="Helvetica,sans-Serif" font-size="10.00">AntiMicroSettings</text>
</a>
</g>
</g>
<!-- Node3&#45;&gt;Node1 -->
<g id="edge2" class="edge">
<title>Node3&#45;&gt;Node1</title>
<path fill="none" stroke="#9a32cd" stroke-dasharray="5,2" d="M126.72,-127.71C110.56,-114.91 88.08,-97.09 74.88,-86.63"/>
<polygon fill="#9a32cd" stroke="#9a32cd" points="124.93,-130.76 134.94,-134.23 129.28,-125.28 124.93,-130.76"/>
<text text-anchor="middle" x="138" y="-108" font-family="Helvetica,sans-Serif" font-size="10.00"> m_settings</text>
</g>
<!-- Node4 -->
<g id="node4" class="node">
<title>Node4</title>
<g id="a_node4"><a xlink:title=" ">
<polygon fill="white" stroke="#bfbfbf" points="114,-191.5 114,-210.5 178,-210.5 178,-191.5 114,-191.5"/>
<text text-anchor="middle" x="146" y="-198.5" font-family="Helvetica,sans-Serif" font-size="10.00">QSettings</text>
</a>
</g>
</g>
<!-- Node4&#45;&gt;Node3 -->
<g id="edge3" class="edge">
<title>Node4&#45;&gt;Node3</title>
<path fill="none" stroke="midnightblue" d="M146,-181.12C146,-171.82 146,-161.06 146,-153.71"/>
<polygon fill="midnightblue" stroke="midnightblue" points="142.5,-181.41 146,-191.41 149.5,-181.41 142.5,-181.41"/>
</g>
<!-- Node5&#45;&gt;Node1 -->
<g id="edge4" class="edge">
<title>Node5&#45;&gt;Node1</title>
<path fill="none" stroke="#9a32cd" stroke-dasharray="5,2" d="M75.93,-28.53C78.89,-34.87 80.77,-42.15 79,-49 77.28,-55.64 73.53,-62.39 70.21,-67.48"/>
<polygon fill="#9a32cd" stroke="#9a32cd" points="78.78,-26.47 70.75,-19.55 72.71,-29.96 78.78,-26.47"/>
<text text-anchor="middle" x="118" y="-41" font-family="Helvetica,sans-Serif" font-size="10.00"> m_calibrations</text>
</g>
</g>
</svg>
