<?xml version="1.0" encoding="UTF-8" standalone="no"?>
<!DOCTYPE svg PUBLIC "-//W3C//DTD SVG 1.1//EN"
 "http://www.w3.org/Graphics/SVG/1.1/DTD/svg11.dtd">
<!-- Generated by graphviz version 2.43.0 (0)
 -->
<!-- Title: AdvanceStickAssignmentDialog Pages: 1 -->
<svg width="326pt" height="286pt"
 viewBox="0.00 0.00 326.00 286.00" xmlns="http://www.w3.org/2000/svg" xmlns:xlink="http://www.w3.org/1999/xlink">
<g id="graph0" class="graph" transform="scale(1 1) rotate(0) translate(4 282)">
<title>AdvanceStickAssignmentDialog</title>
<polygon fill="white" stroke="transparent" points="-4,4 -4,-282 322,-282 322,4 -4,4"/>
<!-- Node1 -->
<g id="node1" class="node">
<title>Node1</title>
<g id="a_node1"><a xlink:title=" ">
<polygon fill="#bfbfbf" stroke="black" points="0,-0.5 0,-19.5 172,-19.5 172,-0.5 0,-0.5"/>
<text text-anchor="middle" x="86" y="-7.5" font-family="Helvetica,sans-Serif" font-size="10.00">AdvanceStickAssignmentDialog</text>
</a>
</g>
</g>
<!-- Node2 -->
<g id="node2" class="node">
<title>Node2</title>
<g id="a_node2"><a xlink:title=" ">
<polygon fill="white" stroke="#bfbfbf" points="42,-67.5 42,-86.5 98,-86.5 98,-67.5 42,-67.5"/>
<text text-anchor="middle" x="70" y="-74.5" font-family="Helvetica,sans-Serif" font-size="10.00">QDialog</text>
</a>
</g>
</g>
<!-- Node2&#45;&gt;Node1 -->
<g id="edge1" class="edge">
<title>Node2&#45;&gt;Node1</title>
<path fill="none" stroke="midnightblue" d="M74.57,-57.41C77.63,-44.99 81.52,-29.22 83.88,-19.63"/>
<polygon fill="midnightblue" stroke="midnightblue" points="71.15,-56.69 72.16,-67.23 77.95,-58.36 71.15,-56.69"/>
</g>
<!-- Node3 -->
<g id="node3" class="node">
<title>Node3</title>
<g id="a_node3"><a xlink:href="classJoystick.html" target="_top" xlink:title="General input device (which is not a typical gamepad like steering wheels, flight sticks etc....">
<polygon fill="white" stroke="black" points="116.5,-67.5 116.5,-86.5 171.5,-86.5 171.5,-67.5 116.5,-67.5"/>
<text text-anchor="middle" x="144" y="-74.5" font-family="Helvetica,sans-Serif" font-size="10.00">Joystick</text>
</a>
</g>
</g>
<!-- Node3&#45;&gt;Node1 -->
<g id="edge2" class="edge">
<title>Node3&#45;&gt;Node1</title>
<path fill="none" stroke="#9a32cd" stroke-dasharray="5,2" d="M129.4,-59.63C118.05,-46.92 102.77,-29.8 93.7,-19.63"/>
<polygon fill="#9a32cd" stroke="#9a32cd" points="126.91,-62.1 136.18,-67.23 132.13,-57.44 126.91,-62.1"/>
<text text-anchor="middle" x="140" y="-41" font-family="Helvetica,sans-Serif" font-size="10.00"> joystick</text>
</g>
<!-- Node4 -->
<g id="node4" class="node">
<title>Node4</title>
<g id="a_node4"><a xlink:href="classInputDevice.html" target="_top" xlink:title="Abstract class representing a hardware input device, e.g a joystick or controller.">
<polygon fill="white" stroke="black" points="142.5,-134.5 142.5,-153.5 217.5,-153.5 217.5,-134.5 142.5,-134.5"/>
<text text-anchor="middle" x="180" y="-141.5" font-family="Helvetica,sans-Serif" font-size="10.00">InputDevice</text>
</a>
</g>
</g>
<!-- Node4&#45;&gt;Node3 -->
<g id="edge3" class="edge">
<title>Node4&#45;&gt;Node3</title>
<path fill="none" stroke="midnightblue" d="M166.66,-126.28C164.3,-122.97 161.96,-119.45 160,-116 154.54,-106.42 149.86,-94.62 147,-86.73"/>
<polygon fill="midnightblue" stroke="midnightblue" points="163.95,-128.5 172.77,-134.37 169.54,-124.28 163.95,-128.5"/>
</g>
<!-- Node8 -->
<g id="node8" class="node">
<title>Node8</title>
<g id="a_node8"><a xlink:href="classInputDeviceCalibration.html" target="_top" xlink:title="Calibration storage backend which can store multiple calibration items for different controllers.">
<polygon fill="white" stroke="black" points="190,-67.5 190,-86.5 318,-86.5 318,-67.5 190,-67.5"/>
<text text-anchor="middle" x="254" y="-74.5" font-family="Helvetica,sans-Serif" font-size="10.00">InputDeviceCalibration</text>
</a>
</g>
</g>
<!-- Node4&#45;&gt;Node8 -->
<g id="edge8" class="edge">
<title>Node4&#45;&gt;Node8</title>
<path fill="none" stroke="#9a32cd" stroke-dasharray="5,2" d="M173.86,-124.6C172.77,-117.89 173.03,-110.6 177,-105 183.06,-96.45 192.06,-90.58 201.78,-86.57"/>
<polygon fill="#9a32cd" stroke="#9a32cd" points="170.48,-125.49 176.36,-134.31 177.26,-123.75 170.48,-125.49"/>
<text text-anchor="middle" x="202.5" y="-108" font-family="Helvetica,sans-Serif" font-size="10.00"> m_device</text>
</g>
<!-- Node5 -->
<g id="node5" class="node">
<title>Node5</title>
<g id="a_node5"><a xlink:title=" ">
<polygon fill="white" stroke="#bfbfbf" points="136,-201.5 136,-220.5 192,-220.5 192,-201.5 136,-201.5"/>
<text text-anchor="middle" x="164" y="-208.5" font-family="Helvetica,sans-Serif" font-size="10.00">QObject</text>
</a>
</g>
</g>
<!-- Node5&#45;&gt;Node4 -->
<g id="edge4" class="edge">
<title>Node5&#45;&gt;Node4</title>
<path fill="none" stroke="midnightblue" d="M168.57,-191.41C171.63,-178.99 175.52,-163.22 177.88,-153.63"/>
<polygon fill="midnightblue" stroke="midnightblue" points="165.15,-190.69 166.16,-201.23 171.95,-192.36 165.15,-190.69"/>
</g>
<!-- Node6 -->
<g id="node6" class="node">
<title>Node6</title>
<g id="a_node6"><a xlink:href="classAntiMicroSettings.html" target="_top" xlink:title=" ">
<polygon fill="white" stroke="black" points="210.5,-201.5 210.5,-220.5 313.5,-220.5 313.5,-201.5 210.5,-201.5"/>
<text text-anchor="middle" x="262" y="-208.5" font-family="Helvetica,sans-Serif" font-size="10.00">AntiMicroSettings</text>
</a>
</g>
</g>
<!-- Node6&#45;&gt;Node4 -->
<g id="edge5" class="edge">
<title>Node6&#45;&gt;Node4</title>
<path fill="none" stroke="#9a32cd" stroke-dasharray="5,2" d="M242.72,-194.71C226.56,-181.91 204.08,-164.09 190.88,-153.63"/>
<polygon fill="#9a32cd" stroke="#9a32cd" points="240.93,-197.76 250.94,-201.23 245.28,-192.28 240.93,-197.76"/>
<text text-anchor="middle" x="254" y="-175" font-family="Helvetica,sans-Serif" font-size="10.00"> m_settings</text>
</g>
<!-- Node7 -->
<g id="node7" class="node">
<title>Node7</title>
<g id="a_node7"><a xlink:title=" ">
<polygon fill="white" stroke="#bfbfbf" points="230,-258.5 230,-277.5 294,-277.5 294,-258.5 230,-258.5"/>
<text text-anchor="middle" x="262" y="-265.5" font-family="Helvetica,sans-Serif" font-size="10.00">QSettings</text>
</a>
</g>
</g>
<!-- Node7&#45;&gt;Node6 -->
<g id="edge6" class="edge">
<title>Node7&#45;&gt;Node6</title>
<path fill="none" stroke="midnightblue" d="M262,-248.12C262,-238.82 262,-228.06 262,-220.71"/>
<polygon fill="midnightblue" stroke="midnightblue" points="258.5,-248.41 262,-258.41 265.5,-248.41 258.5,-248.41"/>
</g>
<!-- Node8&#45;&gt;Node4 -->
<g id="edge7" class="edge">
<title>Node8&#45;&gt;Node4</title>
<path fill="none" stroke="#9a32cd" stroke-dasharray="5,2" d="M246.23,-96.07C242.63,-102.92 237.85,-110.41 232,-116 223.76,-123.87 212.78,-130.02 203.03,-134.45"/>
<polygon fill="#9a32cd" stroke="#9a32cd" points="249.51,-97.32 250.63,-86.79 243.18,-94.32 249.51,-97.32"/>
<text text-anchor="middle" x="278" y="-108" font-family="Helvetica,sans-Serif" font-size="10.00"> m_calibrations</text>
</g>
</g>
</svg>
