<?xml version="1.0" encoding="UTF-8" standalone="no"?>
<!DOCTYPE svg PUBLIC "-//W3C//DTD SVG 1.1//EN"
 "http://www.w3.org/Graphics/SVG/1.1/DTD/svg11.dtd">
<!-- Generated by graphviz version 2.43.0 (0)
 -->
<!-- Title: QuickSetDialog::invokeMethodLastBtn Pages: 1 -->
<svg width="747pt" height="235pt"
 viewBox="0.00 0.00 747.00 235.00" xmlns="http://www.w3.org/2000/svg" xmlns:xlink="http://www.w3.org/1999/xlink">
<g id="graph0" class="graph" transform="scale(1 1) rotate(0) translate(4 231)">
<title>QuickSetDialog::invokeMethodLastBtn</title>
<polygon fill="white" stroke="transparent" points="-4,4 -4,-231 743,-231 743,4 -4,4"/>
<!-- Node1 -->
<g id="node1" class="node">
<title>Node1</title>
<g id="a_node1"><a xlink:title=" ">
<polygon fill="#bfbfbf" stroke="black" points="572,-122.5 572,-152.5 739,-152.5 739,-122.5 572,-122.5"/>
<text text-anchor="start" x="580" y="-140.5" font-family="Helvetica,sans-Serif" font-size="10.00">QuickSetDialog::invokeMethod</text>
<text text-anchor="middle" x="655.5" y="-129.5" font-family="Helvetica,sans-Serif" font-size="10.00">LastBtn</text>
</a>
</g>
</g>
<!-- Node2 -->
<g id="node2" class="node">
<title>Node2</title>
<g id="a_node2"><a xlink:href="classQuickSetDialog.html#acbf347f1a8cb27a6385245ef205e3e13" target="_top" xlink:title=" ">
<polygon fill="white" stroke="black" points="386.5,-196.5 386.5,-226.5 530.5,-226.5 530.5,-196.5 386.5,-196.5"/>
<text text-anchor="start" x="394.5" y="-214.5" font-family="Helvetica,sans-Serif" font-size="10.00">QuickSetDialog::showAxis</text>
<text text-anchor="middle" x="458.5" y="-203.5" font-family="Helvetica,sans-Serif" font-size="10.00">ButtonDialog</text>
</a>
</g>
</g>
<!-- Node1&#45;&gt;Node2 -->
<g id="edge1" class="edge">
<title>Node1&#45;&gt;Node2</title>
<path fill="none" stroke="midnightblue" d="M611.9,-156.63C589.51,-166.39 561.5,-178.15 536,-187.5 527.64,-190.57 518.67,-193.6 509.93,-196.43"/>
<polygon fill="midnightblue" stroke="midnightblue" points="613.38,-159.81 621.13,-152.59 610.56,-153.4 613.38,-159.81"/>
</g>
<!-- Node5 -->
<g id="node5" class="node">
<title>Node5</title>
<g id="a_node5"><a xlink:href="classQuickSetDialog.html#abc94158041ae6895da77662156b64591" target="_top" xlink:title=" ">
<polygon fill="white" stroke="black" points="381,-147.5 381,-177.5 536,-177.5 536,-147.5 381,-147.5"/>
<text text-anchor="start" x="389" y="-165.5" font-family="Helvetica,sans-Serif" font-size="10.00">QuickSetDialog::showButton</text>
<text text-anchor="middle" x="458.5" y="-154.5" font-family="Helvetica,sans-Serif" font-size="10.00">Dialog</text>
</a>
</g>
</g>
<!-- Node1&#45;&gt;Node5 -->
<g id="edge4" class="edge">
<title>Node1&#45;&gt;Node5</title>
<path fill="none" stroke="midnightblue" d="M561.76,-149.39C553.18,-150.49 544.54,-151.6 536.13,-152.68"/>
<polygon fill="midnightblue" stroke="midnightblue" points="562.33,-152.85 571.8,-148.1 561.44,-145.9 562.33,-152.85"/>
</g>
<!-- Node7 -->
<g id="node7" class="node">
<title>Node7</title>
<g id="a_node7"><a xlink:href="classQuickSetDialog.html#ac798af7932e1bd769e7f678698163380" target="_top" xlink:title=" ">
<polygon fill="white" stroke="black" points="384.5,-98.5 384.5,-128.5 532.5,-128.5 532.5,-98.5 384.5,-98.5"/>
<text text-anchor="start" x="392.5" y="-116.5" font-family="Helvetica,sans-Serif" font-size="10.00">QuickSetDialog::showDPad</text>
<text text-anchor="middle" x="458.5" y="-105.5" font-family="Helvetica,sans-Serif" font-size="10.00">ButtonDialog</text>
</a>
</g>
</g>
<!-- Node1&#45;&gt;Node7 -->
<g id="edge7" class="edge">
<title>Node1&#45;&gt;Node7</title>
<path fill="none" stroke="midnightblue" d="M561.71,-126.08C551.99,-124.88 542.21,-123.68 532.75,-122.52"/>
<polygon fill="midnightblue" stroke="midnightblue" points="561.45,-129.57 571.8,-127.32 562.3,-122.63 561.45,-129.57"/>
</g>
<!-- Node10 -->
<g id="node10" class="node">
<title>Node10</title>
<g id="a_node10"><a xlink:href="classQuickSetDialog.html#ad2dbc145f771f61cad3736c044dfa249" target="_top" xlink:title=" ">
<polygon fill="white" stroke="black" points="385,-25.5 385,-55.5 532,-55.5 532,-25.5 385,-25.5"/>
<text text-anchor="start" x="393" y="-43.5" font-family="Helvetica,sans-Serif" font-size="10.00">QuickSetDialog::showStick</text>
<text text-anchor="middle" x="458.5" y="-32.5" font-family="Helvetica,sans-Serif" font-size="10.00">ButtonDialog</text>
</a>
</g>
</g>
<!-- Node1&#45;&gt;Node10 -->
<g id="edge12" class="edge">
<title>Node1&#45;&gt;Node10</title>
<path fill="none" stroke="midnightblue" d="M615.02,-117.86C578,-99.45 523.44,-72.31 489.75,-55.55"/>
<polygon fill="midnightblue" stroke="midnightblue" points="613.52,-121.02 624.03,-122.34 616.64,-114.76 613.52,-121.02"/>
</g>
<!-- Node3 -->
<g id="node3" class="node">
<title>Node3</title>
<g id="a_node3"><a xlink:href="classQuickSetDialog.html#a07fd82f8f1876081285948af84d3fdfa" target="_top" xlink:title=" ">
<polygon fill="white" stroke="black" points="181.5,-196.5 181.5,-226.5 340.5,-226.5 340.5,-196.5 181.5,-196.5"/>
<text text-anchor="start" x="189.5" y="-214.5" font-family="Helvetica,sans-Serif" font-size="10.00">QuickSetDialog::connectAxes</text>
<text text-anchor="middle" x="261" y="-203.5" font-family="Helvetica,sans-Serif" font-size="10.00">ForDialog</text>
</a>
</g>
</g>
<!-- Node2&#45;&gt;Node3 -->
<g id="edge2" class="edge">
<title>Node2&#45;&gt;Node3</title>
<path fill="none" stroke="midnightblue" d="M376.16,-211.5C364.42,-211.5 352.36,-211.5 340.68,-211.5"/>
<polygon fill="midnightblue" stroke="midnightblue" points="376.37,-215 386.37,-211.5 376.37,-208 376.37,-215"/>
</g>
<!-- Node4 -->
<g id="node4" class="node">
<title>Node4</title>
<g id="a_node4"><a xlink:href="classQuickSetDialog.html#a57726006cbe2d8534f4be91a05646dd2" target="_top" xlink:title=" ">
<polygon fill="white" stroke="black" points="0,-98.5 0,-128.5 141,-128.5 141,-98.5 0,-98.5"/>
<text text-anchor="start" x="8" y="-116.5" font-family="Helvetica,sans-Serif" font-size="10.00">QuickSetDialog::QuickSet</text>
<text text-anchor="middle" x="70.5" y="-105.5" font-family="Helvetica,sans-Serif" font-size="10.00">Dialog</text>
</a>
</g>
</g>
<!-- Node3&#45;&gt;Node4 -->
<g id="edge3" class="edge">
<title>Node3&#45;&gt;Node4</title>
<path fill="none" stroke="midnightblue" d="M189.67,-192.97C185.32,-191.27 181.07,-189.45 177,-187.5 143.5,-171.46 109.09,-145.11 89.03,-128.56"/>
<polygon fill="midnightblue" stroke="midnightblue" points="188.69,-196.34 199.28,-196.49 191.1,-189.76 188.69,-196.34"/>
</g>
<!-- Node6 -->
<g id="node6" class="node">
<title>Node6</title>
<g id="a_node6"><a xlink:href="classQuickSetDialog.html#aecc56c37a7b9b387e3ea4afb8637596a" target="_top" xlink:title=" ">
<polygon fill="white" stroke="black" points="185,-147.5 185,-177.5 337,-177.5 337,-147.5 185,-147.5"/>
<text text-anchor="start" x="193" y="-165.5" font-family="Helvetica,sans-Serif" font-size="10.00">QuickSetDialog::connectBtn</text>
<text text-anchor="middle" x="261" y="-154.5" font-family="Helvetica,sans-Serif" font-size="10.00">ForDialog</text>
</a>
</g>
</g>
<!-- Node5&#45;&gt;Node6 -->
<g id="edge5" class="edge">
<title>Node5&#45;&gt;Node6</title>
<path fill="none" stroke="midnightblue" d="M370.63,-162.5C359.48,-162.5 348.14,-162.5 337.2,-162.5"/>
<polygon fill="midnightblue" stroke="midnightblue" points="370.79,-166 380.79,-162.5 370.79,-159 370.79,-166"/>
</g>
<!-- Node6&#45;&gt;Node4 -->
<g id="edge6" class="edge">
<title>Node6&#45;&gt;Node4</title>
<path fill="none" stroke="midnightblue" d="M192.21,-144.88C171.58,-139.52 149.12,-133.68 129.23,-128.51"/>
<polygon fill="midnightblue" stroke="midnightblue" points="191.6,-148.34 202.16,-147.47 193.36,-141.56 191.6,-148.34"/>
</g>
<!-- Node8 -->
<g id="node8" class="node">
<title>Node8</title>
<g id="a_node8"><a xlink:href="classQuickSetDialog.html#a87890e10b6ecb7d69d90597206b63625" target="_top" xlink:title=" ">
<polygon fill="white" stroke="black" points="180.5,-98.5 180.5,-128.5 341.5,-128.5 341.5,-98.5 180.5,-98.5"/>
<text text-anchor="start" x="188.5" y="-116.5" font-family="Helvetica,sans-Serif" font-size="10.00">QuickSetDialog::connectDpad</text>
<text text-anchor="middle" x="261" y="-105.5" font-family="Helvetica,sans-Serif" font-size="10.00">ForDialog</text>
</a>
</g>
</g>
<!-- Node7&#45;&gt;Node8 -->
<g id="edge8" class="edge">
<title>Node7&#45;&gt;Node8</title>
<path fill="none" stroke="midnightblue" d="M374.15,-113.5C363.34,-113.5 352.29,-113.5 341.54,-113.5"/>
<polygon fill="midnightblue" stroke="midnightblue" points="374.43,-117 384.43,-113.5 374.42,-110 374.43,-117"/>
</g>
<!-- Node9 -->
<g id="node9" class="node">
<title>Node9</title>
<g id="a_node9"><a xlink:href="classQuickSetDialog.html#aeb73ff69d1eaa456ec7d8971465e4670" target="_top" xlink:title=" ">
<polygon fill="white" stroke="black" points="177,-49.5 177,-79.5 345,-79.5 345,-49.5 177,-49.5"/>
<text text-anchor="start" x="185" y="-67.5" font-family="Helvetica,sans-Serif" font-size="10.00">QuickSetDialog::connectVDpad</text>
<text text-anchor="middle" x="261" y="-56.5" font-family="Helvetica,sans-Serif" font-size="10.00">ForDialog</text>
</a>
</g>
</g>
<!-- Node7&#45;&gt;Node9 -->
<g id="edge10" class="edge">
<title>Node7&#45;&gt;Node9</title>
<path fill="none" stroke="midnightblue" d="M387.77,-96.02C366.22,-90.62 342.69,-84.72 321.87,-79.51"/>
<polygon fill="midnightblue" stroke="midnightblue" points="386.96,-99.43 397.51,-98.47 388.67,-92.64 386.96,-99.43"/>
</g>
<!-- Node8&#45;&gt;Node4 -->
<g id="edge9" class="edge">
<title>Node8&#45;&gt;Node4</title>
<path fill="none" stroke="midnightblue" d="M170.17,-113.5C160.38,-113.5 150.53,-113.5 141.03,-113.5"/>
<polygon fill="midnightblue" stroke="midnightblue" points="170.33,-117 180.33,-113.5 170.33,-110 170.33,-117"/>
</g>
<!-- Node9&#45;&gt;Node4 -->
<g id="edge11" class="edge">
<title>Node9&#45;&gt;Node4</title>
<path fill="none" stroke="midnightblue" d="M192.21,-82.12C171.58,-87.48 149.12,-93.32 129.23,-98.49"/>
<polygon fill="midnightblue" stroke="midnightblue" points="193.36,-85.44 202.16,-79.53 191.6,-78.66 193.36,-85.44"/>
</g>
<!-- Node11 -->
<g id="node11" class="node">
<title>Node11</title>
<g id="a_node11"><a xlink:href="classQuickSetDialog.html#a1aab64d84f8e7fe3403ce792468d96bb" target="_top" xlink:title=" ">
<polygon fill="white" stroke="black" points="178.5,-0.5 178.5,-30.5 343.5,-30.5 343.5,-0.5 178.5,-0.5"/>
<text text-anchor="start" x="186.5" y="-18.5" font-family="Helvetica,sans-Serif" font-size="10.00">QuickSetDialog::connectSticks</text>
<text text-anchor="middle" x="261" y="-7.5" font-family="Helvetica,sans-Serif" font-size="10.00">ForDialog</text>
</a>
</g>
</g>
<!-- Node10&#45;&gt;Node11 -->
<g id="edge13" class="edge">
<title>Node10&#45;&gt;Node11</title>
<path fill="none" stroke="midnightblue" d="M374.76,-29.92C364.45,-28.6 353.91,-27.25 343.62,-25.94"/>
<polygon fill="midnightblue" stroke="midnightblue" points="374.62,-33.43 384.98,-31.23 375.51,-26.49 374.62,-33.43"/>
</g>
<!-- Node11&#45;&gt;Node4 -->
<g id="edge14" class="edge">
<title>Node11&#45;&gt;Node4</title>
<path fill="none" stroke="midnightblue" d="M192.11,-34.01C186.92,-36.01 181.83,-38.17 177,-40.5 143.89,-56.45 109.63,-82.17 89.46,-98.43"/>
<polygon fill="midnightblue" stroke="midnightblue" points="193.32,-37.29 201.52,-30.58 190.93,-30.72 193.32,-37.29"/>
</g>
</g>
</svg>
