<?xml version="1.0" encoding="UTF-8" standalone="no"?>
<!DOCTYPE svg PUBLIC "-//W3C//DTD SVG 1.1//EN"
 "http://www.w3.org/Graphics/SVG/1.1/DTD/svg11.dtd">
<!-- Generated by graphviz version 2.43.0 (0)
 -->
<!-- Title: GameController::rawDPadEvent Pages: 1 -->
<svg width="715pt" height="28pt"
 viewBox="0.00 0.00 715.00 28.00" xmlns="http://www.w3.org/2000/svg" xmlns:xlink="http://www.w3.org/1999/xlink">
<g id="graph0" class="graph" transform="scale(1 1) rotate(0) translate(4 24)">
<title>GameController::rawDPadEvent</title>
<polygon fill="white" stroke="transparent" points="-4,4 -4,-24 711,-24 711,4 -4,4"/>
<!-- Node1 -->
<g id="node1" class="node">
<title>Node1</title>
<g id="a_node1"><a xlink:title=" ">
<polygon fill="#bfbfbf" stroke="black" points="537,-0.5 537,-19.5 707,-19.5 707,-0.5 537,-0.5"/>
<text text-anchor="middle" x="622" y="-7.5" font-family="Helvetica,sans-Serif" font-size="10.00">GameController::rawDPadEvent</text>
</a>
</g>
</g>
<!-- Node2 -->
<g id="node2" class="node">
<title>Node2</title>
<g id="a_node2"><a xlink:href="classInputDaemon.html#a0cf6bcd3287d97d75c32a3921c633a7a" target="_top" xlink:title="Dispatches postprocessed SDL events to the input objects like JoyAxis or JoyButton and activates them...">
<polygon fill="white" stroke="black" points="331,-0.5 331,-19.5 501,-19.5 501,-0.5 331,-0.5"/>
<text text-anchor="middle" x="416" y="-7.5" font-family="Helvetica,sans-Serif" font-size="10.00">InputDaemon::secondInputPass</text>
</a>
</g>
</g>
<!-- Node1&#45;&gt;Node2 -->
<g id="edge1" class="edge">
<title>Node1&#45;&gt;Node2</title>
<path fill="none" stroke="midnightblue" d="M526.6,-10C518.15,-10 509.64,-10 501.29,-10"/>
<polygon fill="midnightblue" stroke="midnightblue" points="526.85,-13.5 536.85,-10 526.85,-6.5 526.85,-13.5"/>
</g>
<!-- Node3 -->
<g id="node3" class="node">
<title>Node3</title>
<g id="a_node3"><a xlink:href="classInputDaemon.html#ad7f954b25b67cb5a84fdb1a154282bfd" target="_top" xlink:title=" ">
<polygon fill="white" stroke="black" points="191,-0.5 191,-19.5 295,-19.5 295,-0.5 191,-0.5"/>
<text text-anchor="middle" x="243" y="-7.5" font-family="Helvetica,sans-Serif" font-size="10.00">InputDaemon::run</text>
</a>
</g>
</g>
<!-- Node2&#45;&gt;Node3 -->
<g id="edge2" class="edge">
<title>Node2&#45;&gt;Node3</title>
<path fill="none" stroke="midnightblue" d="M320.52,-10C311.84,-10 303.28,-10 295.21,-10"/>
<polygon fill="midnightblue" stroke="midnightblue" points="320.75,-13.5 330.75,-10 320.75,-6.5 320.75,-13.5"/>
</g>
<!-- Node4 -->
<g id="node4" class="node">
<title>Node4</title>
<g id="a_node4"><a xlink:href="classInputDaemon.html#ab7c3d331123e946ed8da490dfee5c265" target="_top" xlink:title=" ">
<polygon fill="white" stroke="black" points="0,-0.5 0,-19.5 155,-19.5 155,-0.5 0,-0.5"/>
<text text-anchor="middle" x="77.5" y="-7.5" font-family="Helvetica,sans-Serif" font-size="10.00">InputDaemon::InputDaemon</text>
</a>
</g>
</g>
<!-- Node3&#45;&gt;Node4 -->
<g id="edge3" class="edge">
<title>Node3&#45;&gt;Node4</title>
<path fill="none" stroke="midnightblue" d="M180.69,-10C172.32,-10 163.65,-10 155.05,-10"/>
<polygon fill="midnightblue" stroke="midnightblue" points="180.72,-13.5 190.72,-10 180.72,-6.5 180.72,-13.5"/>
</g>
</g>
</svg>
