<?xml version="1.0" encoding="UTF-8" standalone="no"?>
<!DOCTYPE svg PUBLIC "-//W3C//DTD SVG 1.1//EN"
 "http://www.w3.org/Graphics/SVG/1.1/DTD/svg11.dtd">
<!-- Generated by graphviz version 2.43.0 (0)
 -->
<!-- Title: LogHelper::sendMessage Pages: 1 -->
<svg width="349pt" height="66pt"
 viewBox="0.00 0.00 349.00 66.00" xmlns="http://www.w3.org/2000/svg" xmlns:xlink="http://www.w3.org/1999/xlink">
<g id="graph0" class="graph" transform="scale(1 1) rotate(0) translate(4 62)">
<title>LogHelper::sendMessage</title>
<polygon fill="white" stroke="transparent" points="-4,4 -4,-62 345,-62 345,4 -4,4"/>
<!-- Node1 -->
<g id="node1" class="node">
<title>Node1</title>
<g id="a_node1"><a xlink:title=" ">
<polygon fill="#bfbfbf" stroke="black" points="202,-19.5 202,-38.5 341,-38.5 341,-19.5 202,-19.5"/>
<text text-anchor="middle" x="271.5" y="-26.5" font-family="Helvetica,sans-Serif" font-size="10.00">LogHelper::sendMessage</text>
</a>
</g>
</g>
<!-- Node2 -->
<g id="node2" class="node">
<title>Node2</title>
<g id="a_node2"><a xlink:href="classLogHelper.html#a9e64a4235ad4baaa5a36b64ff1faf02a" target="_top" xlink:title=" ">
<polygon fill="white" stroke="black" points="18,-38.5 18,-57.5 148,-57.5 148,-38.5 18,-38.5"/>
<text text-anchor="middle" x="83" y="-45.5" font-family="Helvetica,sans-Serif" font-size="10.00">LogHelper::~LogHelper</text>
</a>
</g>
</g>
<!-- Node1&#45;&gt;Node2 -->
<g id="edge1" class="edge">
<title>Node1&#45;&gt;Node2</title>
<path fill="none" stroke="midnightblue" d="M191.86,-37.01C177.3,-38.5 162.24,-40.03 148.17,-41.46"/>
<polygon fill="midnightblue" stroke="midnightblue" points="192.26,-40.49 201.85,-35.99 191.55,-33.53 192.26,-40.49"/>
</g>
<!-- Node3 -->
<g id="node3" class="node">
<title>Node3</title>
<g id="a_node3"><a xlink:href="classStreamPrinter.html#a3592b2b36fab0bfcd31356437ab26b42" target="_top" xlink:title=" ">
<polygon fill="white" stroke="black" points="0,-0.5 0,-19.5 166,-19.5 166,-0.5 0,-0.5"/>
<text text-anchor="middle" x="83" y="-7.5" font-family="Helvetica,sans-Serif" font-size="10.00">StreamPrinter::~StreamPrinter</text>
</a>
</g>
</g>
<!-- Node1&#45;&gt;Node3 -->
<g id="edge2" class="edge">
<title>Node1&#45;&gt;Node3</title>
<path fill="none" stroke="midnightblue" d="M191.64,-20.97C183.19,-20.11 174.58,-19.23 166.1,-18.36"/>
<polygon fill="midnightblue" stroke="midnightblue" points="191.55,-24.47 201.85,-22.01 192.26,-17.51 191.55,-24.47"/>
</g>
</g>
</svg>
