<?xml version="1.0" encoding="UTF-8" standalone="no"?>
<!DOCTYPE svg PUBLIC "-//W3C//DTD SVG 1.1//EN"
 "http://www.w3.org/Graphics/SVG/1.1/DTD/svg11.dtd">
<!-- Generated by graphviz version 2.43.0 (0)
 -->
<!-- Title: JoyControlStick::calculateXDistanceFromDeadZone Pages: 1 -->
<!--zoomable 235 -->
<svg id="main" version="1.1" xmlns="http://www.w3.org/2000/svg" xmlns:xlink="http://www.w3.org/1999/xlink" xml:space="preserve" onload="init(evt)">
<style type="text/css"><![CDATA[
.edge:hover path { stroke: red; }
.edge:hover polygon { stroke: red; fill: red; }
]]></style>
<script type="text/javascript"><![CDATA[
var edges = document.getElementsByTagName('g');
if (edges && edges.length) {
  for (var i=0;i<edges.length;i++) {
    if (edges[i].id.substr(0,4)=='edge') {
      edges[i].setAttribute('class','edge');
    }
  }
}
]]></script>
        <defs>
                <circle id="rim" cx="0" cy="0" r="7"/>
                <circle id="rim2" cx="0" cy="0" r="3.5"/>
                <g id="zoomPlus">
                        <use xlink:href="#rim" fill="#404040">
                                <set attributeName="fill" to="#808080" begin="zoomplus.mouseover" end="zoomplus.mouseout"/>
                        </use>
                        <path d="M-4,0h8M0,-4v8" fill="none" stroke="white" stroke-width="1.5" pointer-events="none"/>
                </g>
                <g id="zoomMin">
                        <use xlink:href="#rim" fill="#404040">
                                <set attributeName="fill" to="#808080" begin="zoomminus.mouseover" end="zoomminus.mouseout"/>
                        </use>
                        <path d="M-4,0h8" fill="none" stroke="white" stroke-width="1.5" pointer-events="none"/>
                </g>
                <g id="dirArrow">
                        <path fill="none" stroke="white" stroke-width="1.5" d="M0,-3.0v7 M-2.5,-0.5L0,-3.0L2.5,-0.5"/>
                </g>
               <g id="resetDef">
                       <use xlink:href="#rim2" fill="#404040">
                               <set attributeName="fill" to="#808080" begin="reset.mouseover" end="reset.mouseout"/>
                       </use>
               </g>
        </defs>

<script type="text/javascript">
var viewWidth = 819;
var viewHeight = 235;
var sectionId = 'dynsection-32';
</script>
<script xlink:href="svgpan.js"/>
<svg id="graph" class="graph">
<g id="viewport">
<title>JoyControlStick::calculateXDistanceFromDeadZone</title>
<polygon fill="white" stroke="transparent" points="-4,4 -4,-231 815,-231 815,4 -4,4"/>
<!-- Node1 -->
<g id="node1" class="node">
<title>Node1</title>
<g id="a_node1"><a xlink:title="Get distance of the X axis past the assigned dead zone.">
<polygon fill="#bfbfbf" stroke="black" points="670,-73.5 670,-103.5 811,-103.5 811,-73.5 670,-73.5"/>
<text text-anchor="start" x="678" y="-91.5" font-family="Helvetica,sans-Serif" font-size="10.00">JoyControlStick::calculate</text>
<text text-anchor="middle" x="740.5" y="-80.5" font-family="Helvetica,sans-Serif" font-size="10.00">XDistanceFromDeadZone</text>
</a>
</g>
</g>
<!-- Node2 -->
<g id="node2" class="node">
<title>Node2</title>
<g id="a_node2"><a xlink:href="classJoyControlStick.html#a5b043c1100b4d83df1858b028820e70c" target="_top" xlink:title="Used to calculate the distance value that should be used for keyboard events and distance slots.">
<polygon fill="white" stroke="black" points="481,-147.5 481,-177.5 622,-177.5 622,-147.5 481,-147.5"/>
<text text-anchor="start" x="489" y="-165.5" font-family="Helvetica,sans-Serif" font-size="10.00">JoyControlStick::calculate</text>
<text text-anchor="middle" x="551.5" y="-154.5" font-family="Helvetica,sans-Serif" font-size="10.00">DirectionalDistance</text>
</a>
</g>
</g>
<!-- Node1&#45;&gt;Node2 -->
<g id="edge1" class="edge">
<title>Node1&#45;&gt;Node2</title>
<path fill="none" stroke="midnightblue" d="M700.97,-107.95C681.22,-117.51 656.63,-128.82 634,-137.5 624.88,-141 615.05,-144.35 605.47,-147.41"/>
<polygon fill="midnightblue" stroke="midnightblue" points="702.51,-111.09 709.96,-103.55 699.44,-104.8 702.51,-111.09"/>
</g>
<!-- Node6 -->
<g id="node6" class="node">
<title>Node6</title>
<g id="a_node6"><a xlink:href="classJoyControlStick.html#afb2b5e5e03f384d3d0533518baedf7ab" target="_top" xlink:title=" ">
<polygon fill="white" stroke="black" points="481,-98.5 481,-128.5 622,-128.5 622,-98.5 481,-98.5"/>
<text text-anchor="start" x="489" y="-116.5" font-family="Helvetica,sans-Serif" font-size="10.00">JoyControlStick::calculate</text>
<text text-anchor="middle" x="551.5" y="-105.5" font-family="Helvetica,sans-Serif" font-size="10.00">LastDirectionalDistance</text>
</a>
</g>
</g>
<!-- Node1&#45;&gt;Node6 -->
<g id="edge5" class="edge">
<title>Node1&#45;&gt;Node6</title>
<path fill="none" stroke="midnightblue" d="M659.9,-99.14C647.36,-100.82 634.48,-102.54 622.19,-104.18"/>
<polygon fill="midnightblue" stroke="midnightblue" points="660.42,-102.6 669.87,-97.81 659.49,-95.67 660.42,-102.6"/>
</g>
<!-- Node8 -->
<g id="node8" class="node">
<title>Node8</title>
<g id="a_node8"><a xlink:href="classJoyControlStick.html#acbf146b02dd22b8970e90580dbac5a61" target="_top" xlink:title=" ">
<polygon fill="white" stroke="black" points="469,-49.5 469,-79.5 634,-79.5 634,-49.5 469,-49.5"/>
<text text-anchor="start" x="477" y="-67.5" font-family="Helvetica,sans-Serif" font-size="10.00">JoyControlStick::calculate</text>
<text text-anchor="middle" x="551.5" y="-56.5" font-family="Helvetica,sans-Serif" font-size="10.00">LastMouseDirectionalDistance</text>
</a>
</g>
</g>
<!-- Node1&#45;&gt;Node8 -->
<g id="edge7" class="edge">
<title>Node1&#45;&gt;Node8</title>
<path fill="none" stroke="midnightblue" d="M659.95,-78.29C651.42,-77.2 642.73,-76.08 634.18,-74.98"/>
<polygon fill="midnightblue" stroke="midnightblue" points="659.5,-81.76 669.87,-79.56 660.4,-74.82 659.5,-81.76"/>
</g>
<!-- Node10 -->
<g id="node10" class="node">
<title>Node10</title>
<g id="a_node10"><a xlink:href="classJoyControlStick.html#a8d8449aae58887816a8662e79a233ad1" target="_top" xlink:title="Used to calculate the distance value that should be used for mouse movement.">
<polygon fill="white" stroke="black" points="479,-0.5 479,-30.5 624,-30.5 624,-0.5 479,-0.5"/>
<text text-anchor="start" x="487" y="-18.5" font-family="Helvetica,sans-Serif" font-size="10.00">JoyControlStick::calculate</text>
<text text-anchor="middle" x="551.5" y="-7.5" font-family="Helvetica,sans-Serif" font-size="10.00">MouseDirectionalDistance</text>
</a>
</g>
</g>
<!-- Node1&#45;&gt;Node10 -->
<g id="edge9" class="edge">
<title>Node1&#45;&gt;Node10</title>
<path fill="none" stroke="midnightblue" d="M701.01,-68.94C681.27,-59.35 656.67,-48.05 634,-39.5 625.58,-36.33 616.55,-33.3 607.67,-30.54"/>
<polygon fill="midnightblue" stroke="midnightblue" points="699.47,-72.09 709.99,-73.36 702.56,-65.81 699.47,-72.09"/>
</g>
<!-- Node3 -->
<g id="node3" class="node">
<title>Node3</title>
<g id="a_node3"><a xlink:href="classJoyControlStickModifierButton.html#a65412dae4962e20798e45533f0b98948" target="_top" xlink:title="Get the distance that an element is away from its assigned dead zone.">
<polygon fill="white" stroke="black" points="247,-196.5 247,-226.5 410,-226.5 410,-196.5 247,-196.5"/>
<text text-anchor="start" x="255" y="-214.5" font-family="Helvetica,sans-Serif" font-size="10.00">JoyControlStickModifierButton</text>
<text text-anchor="middle" x="328.5" y="-203.5" font-family="Helvetica,sans-Serif" font-size="10.00">::getDistanceFromDeadZone</text>
</a>
</g>
</g>
<!-- Node2&#45;&gt;Node3 -->
<g id="edge2" class="edge">
<title>Node2&#45;&gt;Node3</title>
<path fill="none" stroke="midnightblue" d="M472.66,-179.76C448.04,-185.22 421.03,-191.21 397.18,-196.49"/>
<polygon fill="midnightblue" stroke="midnightblue" points="473.69,-183.12 482.69,-177.53 472.17,-176.28 473.69,-183.12"/>
</g>
<!-- Node5 -->
<g id="node5" class="node">
<title>Node5</title>
<g id="a_node5"><a xlink:href="classJoyControlStickButton.html#a22064a3a113464fb9969ebb30e011d22" target="_top" xlink:title="Get the distance that an element is away from its assigned dead zone.">
<polygon fill="white" stroke="black" points="250.5,-147.5 250.5,-177.5 406.5,-177.5 406.5,-147.5 250.5,-147.5"/>
<text text-anchor="start" x="258.5" y="-165.5" font-family="Helvetica,sans-Serif" font-size="10.00">JoyControlStickButton</text>
<text text-anchor="middle" x="328.5" y="-154.5" font-family="Helvetica,sans-Serif" font-size="10.00">::getDistanceFromDeadZone</text>
</a>
</g>
</g>
<!-- Node2&#45;&gt;Node5 -->
<g id="edge4" class="edge">
<title>Node2&#45;&gt;Node5</title>
<path fill="none" stroke="midnightblue" d="M470.79,-162.5C449.96,-162.5 427.54,-162.5 406.84,-162.5"/>
<polygon fill="midnightblue" stroke="midnightblue" points="470.88,-166 480.88,-162.5 470.88,-159 470.88,-166"/>
</g>
<!-- Node4 -->
<g id="node4" class="node">
<title>Node4</title>
<g id="a_node4"><a xlink:href="classJoyControlStickModifierButton.html#ac2f9e7924a72d288733c987fc3498a91" target="_top" xlink:title="Get the distance factor that should be used for mouse movement.">
<polygon fill="white" stroke="black" points="0,-196.5 0,-226.5 188,-226.5 188,-196.5 0,-196.5"/>
<text text-anchor="start" x="8" y="-214.5" font-family="Helvetica,sans-Serif" font-size="10.00">JoyControlStickModifierButton</text>
<text text-anchor="middle" x="94" y="-203.5" font-family="Helvetica,sans-Serif" font-size="10.00">::getMouseDistanceFromDeadZone</text>
</a>
</g>
</g>
<!-- Node3&#45;&gt;Node4 -->
<g id="edge3" class="edge">
<title>Node3&#45;&gt;Node4</title>
<path fill="none" stroke="midnightblue" d="M236.53,-211.5C220.69,-211.5 204.19,-211.5 188.29,-211.5"/>
<polygon fill="midnightblue" stroke="midnightblue" points="236.84,-215 246.84,-211.5 236.84,-208 236.84,-215"/>
</g>
<!-- Node7 -->
<g id="node7" class="node">
<title>Node7</title>
<g id="a_node7"><a xlink:href="classJoyControlStickModifierButton.html#adaf7679f50f4cd6b8d0b217351c7032c" target="_top" xlink:title=" ">
<polygon fill="white" stroke="black" points="224,-98.5 224,-128.5 433,-128.5 433,-98.5 224,-98.5"/>
<text text-anchor="start" x="232" y="-116.5" font-family="Helvetica,sans-Serif" font-size="10.00">JoyControlStickModifierButton</text>
<text text-anchor="middle" x="328.5" y="-105.5" font-family="Helvetica,sans-Serif" font-size="10.00">::getLastMouseDistanceFromDeadZone</text>
</a>
</g>
</g>
<!-- Node6&#45;&gt;Node7 -->
<g id="edge6" class="edge">
<title>Node6&#45;&gt;Node7</title>
<path fill="none" stroke="midnightblue" d="M470.76,-113.5C458.54,-113.5 445.77,-113.5 433.13,-113.5"/>
<polygon fill="midnightblue" stroke="midnightblue" points="470.88,-117 480.88,-113.5 470.88,-110 470.88,-117"/>
</g>
<!-- Node9 -->
<g id="node9" class="node">
<title>Node9</title>
<g id="a_node9"><a xlink:href="classJoyControlStickButton.html#a3fde8ac631cd01ff73e1e13b4317330c" target="_top" xlink:title=" ">
<polygon fill="white" stroke="black" points="224,-49.5 224,-79.5 433,-79.5 433,-49.5 224,-49.5"/>
<text text-anchor="start" x="232" y="-67.5" font-family="Helvetica,sans-Serif" font-size="10.00">JoyControlStickButton</text>
<text text-anchor="middle" x="328.5" y="-56.5" font-family="Helvetica,sans-Serif" font-size="10.00">::getLastMouseDistanceFromDeadZone</text>
</a>
</g>
</g>
<!-- Node8&#45;&gt;Node9 -->
<g id="edge8" class="edge">
<title>Node8&#45;&gt;Node9</title>
<path fill="none" stroke="midnightblue" d="M458.71,-64.5C450.34,-64.5 441.82,-64.5 433.36,-64.5"/>
<polygon fill="midnightblue" stroke="midnightblue" points="458.84,-68 468.84,-64.5 458.84,-61 458.84,-68"/>
</g>
<!-- Node11 -->
<g id="node11" class="node">
<title>Node11</title>
<g id="a_node11"><a xlink:href="classJoyControlStickButton.html#ab1f0e0a9f9d2ba01768619401f666fff" target="_top" xlink:title="Get the distance factor that should be used for mouse movement.">
<polygon fill="white" stroke="black" points="234.5,-0.5 234.5,-30.5 422.5,-30.5 422.5,-0.5 234.5,-0.5"/>
<text text-anchor="start" x="242.5" y="-18.5" font-family="Helvetica,sans-Serif" font-size="10.00">JoyControlStickButton</text>
<text text-anchor="middle" x="328.5" y="-7.5" font-family="Helvetica,sans-Serif" font-size="10.00">::getMouseDistanceFromDeadZone</text>
</a>
</g>
</g>
<!-- Node10&#45;&gt;Node11 -->
<g id="edge10" class="edge">
<title>Node10&#45;&gt;Node11</title>
<path fill="none" stroke="midnightblue" d="M468.53,-15.5C453.58,-15.5 437.88,-15.5 422.64,-15.5"/>
<polygon fill="midnightblue" stroke="midnightblue" points="468.75,-19 478.75,-15.5 468.75,-12 468.75,-19"/>
</g>
</g>
</svg>
        <g id="navigator" transform="translate(0 0)" fill="#404254">
                <rect fill="#f2f5e9" fill-opacity="0.5" stroke="#606060" stroke-width=".5" x="0" y="0" width="60" height="60"/>
                <use id="zoomplus" xlink:href="#zoomPlus" x="17" y="9" onmousedown="handleZoom(evt,'in')"/>
                <use id="zoomminus" xlink:href="#zoomMin" x="42" y="9" onmousedown="handleZoom(evt,'out')"/>
                <use id="reset" xlink:href="#resetDef" x="30" y="36" onmousedown="handleReset()"/>
                <g id="arrowUp" xlink:href="#dirArrow" transform="translate(30 24)" onmousedown="handlePan(0,-1)">
                  <use xlink:href="#rim" fill="#404040">
                        <set attributeName="fill" to="#808080" begin="arrowUp.mouseover" end="arrowUp.mouseout"/>
                  </use>
                  <path fill="none" stroke="white" stroke-width="1.5" d="M0,-3.0v7 M-2.5,-0.5L0,-3.0L2.5,-0.5"/>
                </g>
                <g id="arrowRight" xlink:href="#dirArrow" transform="rotate(90) translate(36 -43)" onmousedown="handlePan(1,0)">
                  <use xlink:href="#rim" fill="#404040">
                        <set attributeName="fill" to="#808080" begin="arrowRight.mouseover" end="arrowRight.mouseout"/>
                  </use>
                  <path fill="none" stroke="white" stroke-width="1.5" d="M0,-3.0v7 M-2.5,-0.5L0,-3.0L2.5,-0.5"/>
                </g>
                <g id="arrowDown" xlink:href="#dirArrow" transform="rotate(180) translate(-30 -48)" onmousedown="handlePan(0,1)">
                  <use xlink:href="#rim" fill="#404040">
                        <set attributeName="fill" to="#808080" begin="arrowDown.mouseover" end="arrowDown.mouseout"/>
                  </use>
                  <path fill="none" stroke="white" stroke-width="1.5" d="M0,-3.0v7 M-2.5,-0.5L0,-3.0L2.5,-0.5"/>
                </g>
                <g id="arrowLeft" xlink:href="#dirArrow" transform="rotate(270) translate(-36 17)" onmousedown="handlePan(-1,0)">
                  <use xlink:href="#rim" fill="#404040">
                        <set attributeName="fill" to="#808080" begin="arrowLeft.mouseover" end="arrowLeft.mouseout"/>
                  </use>
                  <path fill="none" stroke="white" stroke-width="1.5" d="M0,-3.0v7 M-2.5,-0.5L0,-3.0L2.5,-0.5"/>
                </g>
        </g>
        <svg viewBox="0 0 15 15" width="100%" height="30px" preserveAspectRatio="xMaxYMin meet">
         <g id="arrow_out" transform="scale(0.3 0.3)">
          <a xlink:href="classJoyControlStick_a0898d3ba1c5f94781f8fd2df1b30c674_icgraph_org.svg" target="_base">
           <rect id="button" ry="5" rx="5" y="6" x="6" height="38" width="38"
                fill="#f2f5e9" fill-opacity="0.5" stroke="#606060" stroke-width="1.0"/>
           <path id="arrow"
             d="M 11.500037,31.436501 C 11.940474,20.09759 22.043105,11.32322 32.158766,21.979434 L 37.068811,17.246167 C 37.068811,17.246167 37.088388,32 37.088388,32 L 22.160133,31.978069 C 22.160133,31.978069 26.997745,27.140456 26.997745,27.140456 C 18.528582,18.264221 13.291696,25.230495 11.500037,31.436501 z"
             style="fill:#404040;"/>
          </a>
         </g>
        </svg>
</svg>
