<?xml version="1.0" encoding="UTF-8" standalone="no"?>
<!DOCTYPE svg PUBLIC "-//W3C//DTD SVG 1.1//EN"
 "http://www.w3.org/Graphics/SVG/1.1/DTD/svg11.dtd">
<!-- Generated by graphviz version 2.43.0 (0)
 -->
<!-- Title: MainWindow::hideWindow Pages: 1 -->
<!--zoomable 255 -->
<svg id="main" version="1.1" xmlns="http://www.w3.org/2000/svg" xmlns:xlink="http://www.w3.org/1999/xlink" xml:space="preserve" onload="init(evt)">
<style type="text/css"><![CDATA[
.edge:hover path { stroke: red; }
.edge:hover polygon { stroke: red; fill: red; }
]]></style>
<script type="text/javascript"><![CDATA[
var edges = document.getElementsByTagName('g');
if (edges && edges.length) {
  for (var i=0;i<edges.length;i++) {
    if (edges[i].id.substr(0,4)=='edge') {
      edges[i].setAttribute('class','edge');
    }
  }
}
]]></script>
        <defs>
                <circle id="rim" cx="0" cy="0" r="7"/>
                <circle id="rim2" cx="0" cy="0" r="3.5"/>
                <g id="zoomPlus">
                        <use xlink:href="#rim" fill="#404040">
                                <set attributeName="fill" to="#808080" begin="zoomplus.mouseover" end="zoomplus.mouseout"/>
                        </use>
                        <path d="M-4,0h8M0,-4v8" fill="none" stroke="white" stroke-width="1.5" pointer-events="none"/>
                </g>
                <g id="zoomMin">
                        <use xlink:href="#rim" fill="#404040">
                                <set attributeName="fill" to="#808080" begin="zoomminus.mouseover" end="zoomminus.mouseout"/>
                        </use>
                        <path d="M-4,0h8" fill="none" stroke="white" stroke-width="1.5" pointer-events="none"/>
                </g>
                <g id="dirArrow">
                        <path fill="none" stroke="white" stroke-width="1.5" d="M0,-3.0v7 M-2.5,-0.5L0,-3.0L2.5,-0.5"/>
                </g>
               <g id="resetDef">
                       <use xlink:href="#rim2" fill="#404040">
                               <set attributeName="fill" to="#808080" begin="reset.mouseover" end="reset.mouseout"/>
                       </use>
               </g>
        </defs>

<script type="text/javascript">
var viewWidth = 863;
var viewHeight = 255;
var sectionId = 'dynsection-39';
</script>
<script xlink:href="svgpan.js"/>
<svg id="graph" class="graph">
<g id="viewport">
<title>MainWindow::hideWindow</title>
<polygon fill="white" stroke="transparent" points="-4,4 -4,-251 859,-251 859,4 -4,4"/>
<!-- Node1 -->
<g id="node1" class="node">
<title>Node1</title>
<g id="a_node1"><a xlink:title=" ">
<polygon fill="#bfbfbf" stroke="black" points="710,-139.5 710,-158.5 855,-158.5 855,-139.5 710,-139.5"/>
<text text-anchor="middle" x="782.5" y="-146.5" font-family="Helvetica,sans-Serif" font-size="10.00">MainWindow::hideWindow</text>
</a>
</g>
</g>
<!-- Node2 -->
<g id="node2" class="node">
<title>Node2</title>
<g id="a_node2"><a xlink:href="classMainWindow.html#ac7c881667b4ba4986b5a0030452ee3f0" target="_top" xlink:title=" ">
<polygon fill="white" stroke="black" points="516,-227.5 516,-246.5 664,-246.5 664,-227.5 516,-227.5"/>
<text text-anchor="middle" x="590" y="-234.5" font-family="Helvetica,sans-Serif" font-size="10.00">MainWindow::changeEvent</text>
</a>
</g>
</g>
<!-- Node1&#45;&gt;Node2 -->
<g id="edge1" class="edge">
<title>Node1&#45;&gt;Node2</title>
<path fill="none" stroke="midnightblue" d="M761.67,-164.74C740.95,-180.44 706.92,-204.17 674,-218 664.87,-221.84 654.83,-224.97 644.99,-227.5"/>
<polygon fill="midnightblue" stroke="midnightblue" points="763.92,-167.43 769.7,-158.55 759.64,-161.89 763.92,-167.43"/>
</g>
<!-- Node3 -->
<g id="node3" class="node">
<title>Node3</title>
<g id="a_node3"><a xlink:href="classMainWindow.html#affe344f13315c09bd280d0bc200e94ca" target="_top" xlink:title=" ">
<polygon fill="white" stroke="black" points="510.5,-178 510.5,-208 669.5,-208 669.5,-178 510.5,-178"/>
<text text-anchor="start" x="518.5" y="-196" font-family="Helvetica,sans-Serif" font-size="10.00">MainWindow::changeWindow</text>
<text text-anchor="middle" x="590" y="-185" font-family="Helvetica,sans-Serif" font-size="10.00">Status</text>
</a>
</g>
</g>
<!-- Node1&#45;&gt;Node3 -->
<g id="edge2" class="edge">
<title>Node1&#45;&gt;Node3</title>
<path fill="none" stroke="midnightblue" d="M730.35,-160.81C707.56,-166.08 680.45,-172.34 656.23,-177.93"/>
<polygon fill="midnightblue" stroke="midnightblue" points="731.21,-164.21 740.16,-158.55 729.63,-157.39 731.21,-164.21"/>
</g>
<!-- Node4 -->
<g id="node4" class="node">
<title>Node4</title>
<g id="a_node4"><a xlink:href="classMainWindow.html#a4e20a4a065fbb0e4d3532a45a0a91425" target="_top" xlink:title="Check if the program should really quit or if it should be minimized.">
<polygon fill="white" stroke="black" points="521,-139.5 521,-158.5 659,-158.5 659,-139.5 521,-139.5"/>
<text text-anchor="middle" x="590" y="-146.5" font-family="Helvetica,sans-Serif" font-size="10.00">MainWindow::closeEvent</text>
</a>
</g>
</g>
<!-- Node1&#45;&gt;Node4 -->
<g id="edge3" class="edge">
<title>Node1&#45;&gt;Node4</title>
<path fill="none" stroke="midnightblue" d="M699.55,-149C686.1,-149 672.29,-149 659.22,-149"/>
<polygon fill="midnightblue" stroke="midnightblue" points="699.75,-152.5 709.75,-149 699.75,-145.5 699.75,-152.5"/>
</g>
<!-- Node5 -->
<g id="node5" class="node">
<title>Node5</title>
<g id="a_node5"><a xlink:href="classMainWindow.html#a4b00208df3ff47236e6b46f308647a97" target="_top" xlink:title=" ">
<polygon fill="white" stroke="black" points="506,-101.5 506,-120.5 674,-120.5 674,-101.5 506,-101.5"/>
<text text-anchor="middle" x="590" y="-108.5" font-family="Helvetica,sans-Serif" font-size="10.00">MainWindow::populateTrayIcon</text>
</a>
</g>
</g>
<!-- Node1&#45;&gt;Node5 -->
<g id="edge4" class="edge">
<title>Node1&#45;&gt;Node5</title>
<path fill="none" stroke="midnightblue" d="M723.3,-137.39C696.21,-131.99 664.37,-125.64 638.73,-120.52"/>
<polygon fill="midnightblue" stroke="midnightblue" points="722.94,-140.89 733.43,-139.41 724.31,-134.02 722.94,-140.89"/>
</g>
<!-- Node14 -->
<g id="node14" class="node">
<title>Node14</title>
<g id="a_node14"><a xlink:href="classMainWindow.html#ad775fad5ae09302677ec1a2a27f5ef9b" target="_top" xlink:title=" ">
<polygon fill="white" stroke="black" points="515.5,-30 515.5,-60 664.5,-60 664.5,-30 515.5,-30"/>
<text text-anchor="start" x="523.5" y="-48" font-family="Helvetica,sans-Serif" font-size="10.00">MainWindow::trayIconClick</text>
<text text-anchor="middle" x="590" y="-37" font-family="Helvetica,sans-Serif" font-size="10.00">Action</text>
</a>
</g>
</g>
<!-- Node1&#45;&gt;Node14 -->
<g id="edge17" class="edge">
<title>Node1&#45;&gt;Node14</title>
<path fill="none" stroke="midnightblue" d="M754.99,-134.53C719.02,-114.89 655.08,-79.98 618.57,-60.05"/>
<polygon fill="midnightblue" stroke="midnightblue" points="753.47,-137.68 763.92,-139.4 756.82,-131.54 753.47,-137.68"/>
</g>
<!-- Node6 -->
<g id="node6" class="node">
<title>Node6</title>
<g id="a_node6"><a xlink:href="classMainWindow.html#a9738583d1ab872fb2784c0faee89cb46" target="_top" xlink:title=" ">
<polygon fill="white" stroke="black" points="87,-158.5 87,-177.5 221,-177.5 221,-158.5 87,-158.5"/>
<text text-anchor="middle" x="154" y="-165.5" font-family="Helvetica,sans-Serif" font-size="10.00">MainWindow::addJoyTab</text>
</a>
</g>
</g>
<!-- Node5&#45;&gt;Node6 -->
<g id="edge5" class="edge">
<title>Node5&#45;&gt;Node6</title>
<path fill="none" stroke="midnightblue" d="M527.5,-123.17C520.17,-125.18 512.86,-127.45 506,-130 489.04,-136.29 487.42,-144.12 470,-149 386.51,-172.37 285.87,-174.11 221.19,-172.03"/>
<polygon fill="midnightblue" stroke="midnightblue" points="528.66,-126.49 537.47,-120.6 526.91,-119.71 528.66,-126.49"/>
</g>
<!-- Node8 -->
<g id="node8" class="node">
<title>Node8</title>
<g id="a_node8"><a xlink:href="classMainWindow.html#aef8941c9dc542d8ff8416fff1caf8ad7" target="_top" xlink:title=" ">
<polygon fill="white" stroke="black" points="291,-120.5 291,-139.5 446,-139.5 446,-120.5 291,-120.5"/>
<text text-anchor="middle" x="368.5" y="-127.5" font-family="Helvetica,sans-Serif" font-size="10.00">MainWindow::fillButtonsMap</text>
</a>
</g>
</g>
<!-- Node5&#45;&gt;Node8 -->
<g id="edge7" class="edge">
<title>Node5&#45;&gt;Node8</title>
<path fill="none" stroke="midnightblue" d="M495.54,-119.09C479.1,-120.51 462.16,-121.98 446.24,-123.36"/>
<polygon fill="midnightblue" stroke="midnightblue" points="496.04,-122.56 505.7,-118.21 495.44,-115.59 496.04,-122.56"/>
</g>
<!-- Node10 -->
<g id="node10" class="node">
<title>Node10</title>
<g id="a_node10"><a xlink:href="classMainWindow.html#ae9f72ff45056908317963a1e7fa634a0" target="_top" xlink:title="Build list of current input devices and pass it to settings dialog instance. Open Settings dialog.">
<polygon fill="white" stroke="black" points="282,-33 282,-63 455,-63 455,-33 282,-33"/>
<text text-anchor="start" x="290" y="-51" font-family="Helvetica,sans-Serif" font-size="10.00">MainWindow::openMainSettings</text>
<text text-anchor="middle" x="368.5" y="-40" font-family="Helvetica,sans-Serif" font-size="10.00">Dialog</text>
</a>
</g>
</g>
<!-- Node5&#45;&gt;Node10 -->
<g id="edge11" class="edge">
<title>Node5&#45;&gt;Node10</title>
<path fill="none" stroke="midnightblue" d="M545.61,-98.55C510.1,-88.36 459.76,-73.91 421.99,-63.07"/>
<polygon fill="midnightblue" stroke="midnightblue" points="545.09,-102.04 555.66,-101.43 547.02,-95.31 545.09,-102.04"/>
</g>
<!-- Node12 -->
<g id="node12" class="node">
<title>Node12</title>
<g id="a_node12"><a xlink:href="classMainWindow.html#ac398cc635954d370088390a0a5bee878" target="_top" xlink:title=" ">
<polygon fill="white" stroke="black" points="77,-44.5 77,-63.5 231,-63.5 231,-44.5 77,-44.5"/>
<text text-anchor="middle" x="154" y="-51.5" font-family="Helvetica,sans-Serif" font-size="10.00">MainWindow::removeJoyTab</text>
</a>
</g>
</g>
<!-- Node5&#45;&gt;Node12 -->
<g id="edge13" class="edge">
<title>Node5&#45;&gt;Node12</title>
<path fill="none" stroke="midnightblue" d="M495.7,-100.67C431.35,-93.31 343.88,-82.83 267,-72 248.96,-69.46 229.34,-66.4 211.63,-63.54"/>
<polygon fill="midnightblue" stroke="midnightblue" points="495.49,-104.17 505.82,-101.82 496.28,-97.21 495.49,-104.17"/>
</g>
<!-- Node13 -->
<g id="node13" class="node">
<title>Node13</title>
<g id="a_node13"><a xlink:href="classMainWindow.html#a2a0aba59f5d3bf3c6fb97f0de103b36f" target="_top" xlink:title=" ">
<polygon fill="white" stroke="black" points="267,-196.5 267,-215.5 470,-215.5 470,-196.5 267,-196.5"/>
<text text-anchor="middle" x="368.5" y="-203.5" font-family="Helvetica,sans-Serif" font-size="10.00">MainWindow::testMappingUpdateNow</text>
</a>
</g>
</g>
<!-- Node5&#45;&gt;Node13 -->
<g id="edge15" class="edge">
<title>Node5&#45;&gt;Node13</title>
<path fill="none" stroke="midnightblue" d="M515.38,-124.58C512.12,-126.19 508.97,-127.99 506,-130 482.72,-145.76 493.2,-166.13 470,-182 460.75,-188.33 450.02,-193 439.09,-196.44"/>
<polygon fill="midnightblue" stroke="midnightblue" points="517.05,-127.68 524.87,-120.53 514.3,-121.24 517.05,-127.68"/>
</g>
<!-- Node7 -->
<g id="node7" class="node">
<title>Node7</title>
<g id="a_node7"><a xlink:href="main_8cpp.html#a0ddf1224851353fc92bfbff6f499fa97" target="_top" xlink:title=" ">
<polygon fill="white" stroke="black" points="0,-120.5 0,-139.5 41,-139.5 41,-120.5 0,-120.5"/>
<text text-anchor="middle" x="20.5" y="-127.5" font-family="Helvetica,sans-Serif" font-size="10.00">main</text>
</a>
</g>
</g>
<!-- Node6&#45;&gt;Node7 -->
<g id="edge6" class="edge">
<title>Node6&#45;&gt;Node7</title>
<path fill="none" stroke="midnightblue" d="M102.36,-155.98C93.86,-153.78 85.16,-151.41 77,-149 64.99,-145.45 51.71,-140.92 41.15,-137.18"/>
<polygon fill="midnightblue" stroke="midnightblue" points="101.65,-159.41 112.2,-158.48 103.37,-152.62 101.65,-159.41"/>
</g>
<!-- Node8&#45;&gt;Node7 -->
<g id="edge10" class="edge">
<title>Node8&#45;&gt;Node7</title>
<path fill="none" stroke="midnightblue" d="M310.94,-118.68C252.12,-108.68 157.54,-97.6 77,-111 64.74,-113.04 51.56,-117.45 41.13,-121.51"/>
<polygon fill="midnightblue" stroke="midnightblue" points="310.68,-122.18 321.14,-120.46 311.89,-115.29 310.68,-122.18"/>
</g>
<!-- Node9 -->
<g id="node9" class="node">
<title>Node9</title>
<g id="a_node9"><a xlink:href="classMainWindow.html#a5d25ebfdfec433fc449d7e35803a9c7c" target="_top" xlink:title=" ">
<polygon fill="white" stroke="black" points="87,-120.5 87,-139.5 221,-139.5 221,-120.5 87,-120.5"/>
<text text-anchor="middle" x="154" y="-127.5" font-family="Helvetica,sans-Serif" font-size="10.00">MainWindow::fillButtons</text>
</a>
</g>
</g>
<!-- Node8&#45;&gt;Node9 -->
<g id="edge8" class="edge">
<title>Node8&#45;&gt;Node9</title>
<path fill="none" stroke="midnightblue" d="M280.78,-130C260.84,-130 239.96,-130 221.07,-130"/>
<polygon fill="midnightblue" stroke="midnightblue" points="280.78,-133.5 290.78,-130 280.78,-126.5 280.78,-133.5"/>
</g>
<!-- Node9&#45;&gt;Node7 -->
<g id="edge9" class="edge">
<title>Node9&#45;&gt;Node7</title>
<path fill="none" stroke="midnightblue" d="M76.69,-130C63.5,-130 50.88,-130 41.05,-130"/>
<polygon fill="midnightblue" stroke="midnightblue" points="76.86,-133.5 86.86,-130 76.86,-126.5 76.86,-133.5"/>
</g>
<!-- Node11 -->
<g id="node11" class="node">
<title>Node11</title>
<g id="a_node11"><a xlink:href="classMainWindow.html#a2f0c03d3d51748ab794e698322110614" target="_top" xlink:title=" ">
<polygon fill="white" stroke="black" points="80,-0.5 80,-19.5 228,-19.5 228,-0.5 80,-0.5"/>
<text text-anchor="middle" x="154" y="-7.5" font-family="Helvetica,sans-Serif" font-size="10.00">MainWindow::MainWindow</text>
</a>
</g>
</g>
<!-- Node10&#45;&gt;Node11 -->
<g id="edge12" class="edge">
<title>Node10&#45;&gt;Node11</title>
<path fill="none" stroke="midnightblue" d="M273.61,-31.21C251.17,-27.2 227.99,-23.05 208.13,-19.5"/>
<polygon fill="midnightblue" stroke="midnightblue" points="273.05,-34.67 283.51,-32.98 274.29,-27.78 273.05,-34.67"/>
</g>
<!-- Node12&#45;&gt;Node7 -->
<g id="edge14" class="edge">
<title>Node12&#45;&gt;Node7</title>
<path fill="none" stroke="midnightblue" d="M101.46,-66.82C93,-69.88 84.55,-73.58 77,-78 57.63,-89.34 39.51,-108.55 29.52,-120.18"/>
<polygon fill="midnightblue" stroke="midnightblue" points="102.59,-70.13 110.95,-63.62 100.36,-63.5 102.59,-70.13"/>
</g>
<!-- Node13&#45;&gt;Node7 -->
<g id="edge16" class="edge">
<title>Node13&#45;&gt;Node7</title>
<path fill="none" stroke="midnightblue" d="M280.86,-216.16C220.91,-219.49 140.78,-216.41 77,-187 54.67,-176.71 36.56,-153.17 27.6,-139.78"/>
<polygon fill="midnightblue" stroke="midnightblue" points="281.29,-219.64 291.05,-215.52 280.85,-212.65 281.29,-219.64"/>
</g>
<!-- Node14&#45;&gt;Node11 -->
<g id="edge18" class="edge">
<title>Node14&#45;&gt;Node11</title>
<path fill="none" stroke="midnightblue" d="M506.66,-28.22C494.41,-26.17 481.91,-24.34 470,-23 387.46,-13.71 292.09,-10.87 228.1,-10.09"/>
<polygon fill="midnightblue" stroke="midnightblue" points="506.43,-31.73 516.88,-29.97 507.61,-24.83 506.43,-31.73"/>
</g>
</g>
</svg>
        <g id="navigator" transform="translate(0 0)" fill="#404254">
                <rect fill="#f2f5e9" fill-opacity="0.5" stroke="#606060" stroke-width=".5" x="0" y="0" width="60" height="60"/>
                <use id="zoomplus" xlink:href="#zoomPlus" x="17" y="9" onmousedown="handleZoom(evt,'in')"/>
                <use id="zoomminus" xlink:href="#zoomMin" x="42" y="9" onmousedown="handleZoom(evt,'out')"/>
                <use id="reset" xlink:href="#resetDef" x="30" y="36" onmousedown="handleReset()"/>
                <g id="arrowUp" xlink:href="#dirArrow" transform="translate(30 24)" onmousedown="handlePan(0,-1)">
                  <use xlink:href="#rim" fill="#404040">
                        <set attributeName="fill" to="#808080" begin="arrowUp.mouseover" end="arrowUp.mouseout"/>
                  </use>
                  <path fill="none" stroke="white" stroke-width="1.5" d="M0,-3.0v7 M-2.5,-0.5L0,-3.0L2.5,-0.5"/>
                </g>
                <g id="arrowRight" xlink:href="#dirArrow" transform="rotate(90) translate(36 -43)" onmousedown="handlePan(1,0)">
                  <use xlink:href="#rim" fill="#404040">
                        <set attributeName="fill" to="#808080" begin="arrowRight.mouseover" end="arrowRight.mouseout"/>
                  </use>
                  <path fill="none" stroke="white" stroke-width="1.5" d="M0,-3.0v7 M-2.5,-0.5L0,-3.0L2.5,-0.5"/>
                </g>
                <g id="arrowDown" xlink:href="#dirArrow" transform="rotate(180) translate(-30 -48)" onmousedown="handlePan(0,1)">
                  <use xlink:href="#rim" fill="#404040">
                        <set attributeName="fill" to="#808080" begin="arrowDown.mouseover" end="arrowDown.mouseout"/>
                  </use>
                  <path fill="none" stroke="white" stroke-width="1.5" d="M0,-3.0v7 M-2.5,-0.5L0,-3.0L2.5,-0.5"/>
                </g>
                <g id="arrowLeft" xlink:href="#dirArrow" transform="rotate(270) translate(-36 17)" onmousedown="handlePan(-1,0)">
                  <use xlink:href="#rim" fill="#404040">
                        <set attributeName="fill" to="#808080" begin="arrowLeft.mouseover" end="arrowLeft.mouseout"/>
                  </use>
                  <path fill="none" stroke="white" stroke-width="1.5" d="M0,-3.0v7 M-2.5,-0.5L0,-3.0L2.5,-0.5"/>
                </g>
        </g>
        <svg viewBox="0 0 15 15" width="100%" height="30px" preserveAspectRatio="xMaxYMin meet">
         <g id="arrow_out" transform="scale(0.3 0.3)">
          <a xlink:href="classMainWindow_a732dcadb7bd3365f28d2b38b6d22b5a7_icgraph_org.svg" target="_base">
           <rect id="button" ry="5" rx="5" y="6" x="6" height="38" width="38"
                fill="#f2f5e9" fill-opacity="0.5" stroke="#606060" stroke-width="1.0"/>
           <path id="arrow"
             d="M 11.500037,31.436501 C 11.940474,20.09759 22.043105,11.32322 32.158766,21.979434 L 37.068811,17.246167 C 37.068811,17.246167 37.088388,32 37.088388,32 L 22.160133,31.978069 C 22.160133,31.978069 26.997745,27.140456 26.997745,27.140456 C 18.528582,18.264221 13.291696,25.230495 11.500037,31.436501 z"
             style="fill:#404040;"/>
          </a>
         </g>
        </svg>
</svg>
