<?xml version="1.0" encoding="UTF-8" standalone="no"?>
<!DOCTYPE svg PUBLIC "-//W3C//DTD SVG 1.1//EN"
 "http://www.w3.org/Graphics/SVG/1.1/DTD/svg11.dtd">
<!-- Generated by graphviz version 2.43.0 (0)
 -->
<!-- Title: AutoProfileWatcher::syncProfileAssignment Pages: 1 -->
<svg width="582pt" height="533pt"
 viewBox="0.00 0.00 582.00 532.50" xmlns="http://www.w3.org/2000/svg" xmlns:xlink="http://www.w3.org/1999/xlink">
<g id="graph0" class="graph" transform="scale(1 1) rotate(0) translate(4 528.5)">
<title>AutoProfileWatcher::syncProfileAssignment</title>
<polygon fill="white" stroke="transparent" points="-4,4 -4,-528.5 578,-528.5 578,4 -4,4"/>
<!-- Node1 -->
<g id="node1" class="node">
<title>Node1</title>
<g id="a_node1"><a xlink:title=" ">
<polygon fill="#bfbfbf" stroke="black" points="0,-225 0,-255 134,-255 134,-225 0,-225"/>
<text text-anchor="start" x="8" y="-243" font-family="Helvetica,sans-Serif" font-size="10.00">AutoProfileWatcher</text>
<text text-anchor="middle" x="67" y="-232" font-family="Helvetica,sans-Serif" font-size="10.00">::syncProfileAssignment</text>
</a>
</g>
</g>
<!-- Node2 -->
<g id="node2" class="node">
<title>Node2</title>
<g id="a_node2"><a xlink:href="classAutoProfileWatcher.html#a271cfd222b93c64b8c079cfa8c0279d5" target="_top" xlink:title=" ">
<polygon fill="white" stroke="black" points="200,-470 200,-500 340,-500 340,-470 200,-470"/>
<text text-anchor="start" x="208" y="-488" font-family="Helvetica,sans-Serif" font-size="10.00">AutoProfileWatcher</text>
<text text-anchor="middle" x="270" y="-477" font-family="Helvetica,sans-Serif" font-size="10.00">::clearProfileAssignments</text>
</a>
</g>
</g>
<!-- Node1&#45;&gt;Node2 -->
<g id="edge1" class="edge">
<title>Node1&#45;&gt;Node2</title>
<path fill="none" stroke="midnightblue" d="M70.46,-255.27C77.75,-295.4 103.06,-404.53 170,-460 176.09,-465.05 183.07,-469.1 190.45,-472.34"/>
<polygon fill="midnightblue" stroke="midnightblue" points="189.37,-475.68 199.95,-476.04 191.9,-469.15 189.37,-475.68"/>
</g>
<!-- Node5 -->
<g id="node5" class="node">
<title>Node5</title>
<g id="a_node5"><a xlink:href="classAutoProfileWatcher.html#a2e2c4fa67534c7f681d0c5455ce5e607" target="_top" xlink:title=" ">
<polygon fill="white" stroke="black" points="174,-421 174,-451 366,-451 366,-421 174,-421"/>
<text text-anchor="start" x="182" y="-439" font-family="Helvetica,sans-Serif" font-size="10.00">AutoProfileWatcher</text>
<text text-anchor="middle" x="270" y="-428" font-family="Helvetica,sans-Serif" font-size="10.00">::convToUniqueIDAutoProfGroupSett</text>
</a>
</g>
</g>
<!-- Node1&#45;&gt;Node5 -->
<g id="edge4" class="edge">
<title>Node1&#45;&gt;Node5</title>
<path fill="none" stroke="midnightblue" d="M72.55,-255.04C83.49,-288.56 114.55,-369.7 170,-411 172.48,-412.85 175.08,-414.56 177.77,-416.14"/>
<polygon fill="midnightblue" stroke="midnightblue" points="176.18,-419.26 186.66,-420.79 179.42,-413.05 176.18,-419.26"/>
</g>
<!-- Node6 -->
<g id="node6" class="node">
<title>Node6</title>
<g id="a_node6"><a xlink:href="classAutoProfileWatcher.html#a71d680e2e91636eb48082b830d4fa2af" target="_top" xlink:title=" ">
<polygon fill="white" stroke="black" points="194.5,-372 194.5,-402 345.5,-402 345.5,-372 194.5,-372"/>
<text text-anchor="start" x="202.5" y="-390" font-family="Helvetica,sans-Serif" font-size="10.00">AutoProfileWatcher</text>
<text text-anchor="middle" x="270" y="-379" font-family="Helvetica,sans-Serif" font-size="10.00">::getAppProfileAssignments</text>
</a>
</g>
</g>
<!-- Node1&#45;&gt;Node6 -->
<g id="edge5" class="edge">
<title>Node1&#45;&gt;Node6</title>
<path fill="none" stroke="midnightblue" d="M76.46,-255.41C91.64,-281.54 126.05,-334.39 170,-362 174.69,-364.95 179.71,-367.55 184.91,-369.84"/>
<polygon fill="midnightblue" stroke="midnightblue" points="183.85,-373.19 194.43,-373.65 186.45,-366.69 183.85,-373.19"/>
</g>
<!-- Node7 -->
<g id="node7" class="node">
<title>Node7</title>
<g id="a_node7"><a xlink:href="classAntiMicroSettings.html#a4f172ffefe55eeba5afff3d54182f881" target="_top" xlink:title=" ">
<polygon fill="white" stroke="black" points="215.5,-323 215.5,-353 324.5,-353 324.5,-323 215.5,-323"/>
<text text-anchor="start" x="223.5" y="-341" font-family="Helvetica,sans-Serif" font-size="10.00">AntiMicroSettings::</text>
<text text-anchor="middle" x="270" y="-330" font-family="Helvetica,sans-Serif" font-size="10.00">getLock</text>
</a>
</g>
</g>
<!-- Node1&#45;&gt;Node7 -->
<g id="edge6" class="edge">
<title>Node1&#45;&gt;Node7</title>
<path fill="none" stroke="midnightblue" d="M84.8,-255.08C104.05,-271.61 137.21,-297.79 170,-313 181.06,-318.13 193.31,-322.3 205.33,-325.67"/>
<polygon fill="midnightblue" stroke="midnightblue" points="204.77,-329.14 215.34,-328.31 206.56,-322.38 204.77,-329.14"/>
</g>
<!-- Node8 -->
<g id="node8" class="node">
<title>Node8</title>
<g id="a_node8"><a xlink:href="classAutoProfileWatcher.html#a711ecd2e6eae6d0270271a9598305dd4" target="_top" xlink:title=" ">
<polygon fill="white" stroke="black" points="171.5,-274 171.5,-304 368.5,-304 368.5,-274 171.5,-274"/>
<text text-anchor="start" x="179.5" y="-292" font-family="Helvetica,sans-Serif" font-size="10.00">AutoProfileWatcher</text>
<text text-anchor="middle" x="270" y="-281" font-family="Helvetica,sans-Serif" font-size="10.00">::getWindowClassProfileAssignments</text>
</a>
</g>
</g>
<!-- Node1&#45;&gt;Node8 -->
<g id="edge7" class="edge">
<title>Node1&#45;&gt;Node8</title>
<path fill="none" stroke="midnightblue" d="M129.67,-255.03C151.09,-260.26 175.28,-266.15 197.43,-271.55"/>
<polygon fill="midnightblue" stroke="midnightblue" points="196.9,-275.03 207.44,-273.99 198.56,-268.22 196.9,-275.03"/>
</g>
<!-- Node9 -->
<g id="node9" class="node">
<title>Node9</title>
<g id="a_node9"><a xlink:href="classAutoProfileWatcher.html#a3eae9d4ee45d3dabd198ea94d327a857" target="_top" xlink:title=" ">
<polygon fill="white" stroke="black" points="170,-225 170,-255 370,-255 370,-225 170,-225"/>
<text text-anchor="start" x="178" y="-243" font-family="Helvetica,sans-Serif" font-size="10.00">AutoProfileWatcher</text>
<text text-anchor="middle" x="270" y="-232" font-family="Helvetica,sans-Serif" font-size="10.00">::getWindowNameProfileAssignments</text>
</a>
</g>
</g>
<!-- Node1&#45;&gt;Node9 -->
<g id="edge8" class="edge">
<title>Node1&#45;&gt;Node9</title>
<path fill="none" stroke="midnightblue" d="M134.09,-240C142.32,-240 150.89,-240 159.55,-240"/>
<polygon fill="midnightblue" stroke="midnightblue" points="159.75,-243.5 169.75,-240 159.75,-236.5 159.75,-243.5"/>
</g>
<!-- Node10 -->
<g id="node10" class="node">
<title>Node10</title>
<g id="a_node10"><a xlink:href="classAutoProfileInfo.html#a93b07c48618aa5b09c62c2c7bac81d4b" target="_top" xlink:title=" ">
<polygon fill="white" stroke="black" points="197,-176 197,-206 343,-206 343,-176 197,-176"/>
<text text-anchor="start" x="205" y="-194" font-family="Helvetica,sans-Serif" font-size="10.00">AutoProfileInfo::setDefault</text>
<text text-anchor="middle" x="270" y="-183" font-family="Helvetica,sans-Serif" font-size="10.00">State</text>
</a>
</g>
</g>
<!-- Node1&#45;&gt;Node10 -->
<g id="edge9" class="edge">
<title>Node1&#45;&gt;Node10</title>
<path fill="none" stroke="midnightblue" d="M129.21,-224.97C142.65,-221.68 156.8,-218.22 170,-215 178.77,-212.86 187.98,-210.62 197.1,-208.41"/>
<polygon fill="midnightblue" stroke="midnightblue" points="198.05,-211.78 206.94,-206.02 196.4,-204.98 198.05,-211.78"/>
</g>
<!-- Node11 -->
<g id="node11" class="node">
<title>Node11</title>
<g id="a_node11"><a xlink:href="classAutoProfileInfo.html#adbbc10755c2428a8af350dc7b2f79d22" target="_top" xlink:title=" ">
<polygon fill="white" stroke="black" points="206.5,-137.5 206.5,-156.5 333.5,-156.5 333.5,-137.5 206.5,-137.5"/>
<text text-anchor="middle" x="270" y="-144.5" font-family="Helvetica,sans-Serif" font-size="10.00">AutoProfileInfo::setExe</text>
</a>
</g>
</g>
<!-- Node1&#45;&gt;Node11 -->
<g id="edge10" class="edge">
<title>Node1&#45;&gt;Node11</title>
<path fill="none" stroke="midnightblue" d="M83.92,-224.96C102.88,-207.91 136.27,-180.6 170,-166 178.37,-162.37 187.44,-159.44 196.58,-157.06"/>
<polygon fill="midnightblue" stroke="midnightblue" points="197.57,-160.42 206.49,-154.69 195.95,-153.61 197.57,-160.42"/>
</g>
<!-- Node12 -->
<g id="node12" class="node">
<title>Node12</title>
<g id="a_node12"><a xlink:href="classAutoProfileInfo.html#a1d36951304a4e5da913e9673f2d587d8" target="_top" xlink:title=" ">
<polygon fill="white" stroke="black" points="200,-88 200,-118 340,-118 340,-88 200,-88"/>
<text text-anchor="start" x="208" y="-106" font-family="Helvetica,sans-Serif" font-size="10.00">AutoProfileInfo::setPartial</text>
<text text-anchor="middle" x="270" y="-95" font-family="Helvetica,sans-Serif" font-size="10.00">State</text>
</a>
</g>
</g>
<!-- Node1&#45;&gt;Node12 -->
<g id="edge11" class="edge">
<title>Node1&#45;&gt;Node12</title>
<path fill="none" stroke="midnightblue" d="M77.55,-224.7C93.58,-200.36 128.26,-153 170,-128 176.27,-124.24 183.09,-121.05 190.13,-118.33"/>
<polygon fill="midnightblue" stroke="midnightblue" points="191.55,-121.54 199.81,-114.91 189.22,-114.94 191.55,-121.54"/>
</g>
<!-- Node13 -->
<g id="node13" class="node">
<title>Node13</title>
<g id="a_node13"><a xlink:href="classAutoProfileInfo.html#a0c30776585e8ccc8f4023a494cdb773c" target="_top" xlink:title=" ">
<polygon fill="white" stroke="black" points="195.5,-39 195.5,-69 344.5,-69 344.5,-39 195.5,-39"/>
<text text-anchor="start" x="203.5" y="-57" font-family="Helvetica,sans-Serif" font-size="10.00">AutoProfileInfo::setWindow</text>
<text text-anchor="middle" x="270" y="-46" font-family="Helvetica,sans-Serif" font-size="10.00">Class</text>
</a>
</g>
</g>
<!-- Node1&#45;&gt;Node13 -->
<g id="edge12" class="edge">
<title>Node1&#45;&gt;Node13</title>
<path fill="none" stroke="midnightblue" d="M73.11,-224.74C84.77,-192.32 116.57,-116.42 170,-78 174.88,-74.49 180.2,-71.5 185.77,-68.93"/>
<polygon fill="midnightblue" stroke="midnightblue" points="187.4,-72.05 195.33,-65.02 184.75,-65.57 187.4,-72.05"/>
</g>
<!-- Node14 -->
<g id="node14" class="node">
<title>Node14</title>
<g id="a_node14"><a xlink:href="classAutoProfileInfo.html#abba6d0528f83ca5aabb4e61960bde2dc" target="_top" xlink:title=" ">
<polygon fill="white" stroke="black" points="181,-0.5 181,-19.5 359,-19.5 359,-0.5 181,-0.5"/>
<text text-anchor="middle" x="270" y="-7.5" font-family="Helvetica,sans-Serif" font-size="10.00">AutoProfileInfo::setWindowName</text>
</a>
</g>
</g>
<!-- Node1&#45;&gt;Node14 -->
<g id="edge13" class="edge">
<title>Node1&#45;&gt;Node14</title>
<path fill="none" stroke="midnightblue" d="M70.55,-224.84C77.99,-185.57 103.53,-80.06 170,-29 172.13,-27.37 174.35,-25.86 176.66,-24.47"/>
<polygon fill="midnightblue" stroke="midnightblue" points="178.63,-27.39 185.91,-19.69 175.42,-21.18 178.63,-27.39"/>
</g>
<!-- Node3 -->
<g id="node3" class="node">
<title>Node3</title>
<g id="a_node3"><a xlink:href="classAutoProfileWatcher.html#a6f859d7413059615f203f5962dec15ea" target="_top" xlink:title=" ">
<polygon fill="white" stroke="black" points="406,-494 406,-524 574,-524 574,-494 406,-494"/>
<text text-anchor="start" x="414" y="-512" font-family="Helvetica,sans-Serif" font-size="10.00">AutoProfileWatcher</text>
<text text-anchor="middle" x="490" y="-501" font-family="Helvetica,sans-Serif" font-size="10.00">::getDefaultProfileAssignments</text>
</a>
</g>
</g>
<!-- Node2&#45;&gt;Node3 -->
<g id="edge2" class="edge">
<title>Node2&#45;&gt;Node3</title>
<path fill="none" stroke="midnightblue" d="M340.28,-492.63C357.92,-494.57 377.18,-496.69 395.81,-498.74"/>
<polygon fill="midnightblue" stroke="midnightblue" points="395.46,-502.22 405.78,-499.84 396.23,-495.27 395.46,-502.22"/>
</g>
<!-- Node4 -->
<g id="node4" class="node">
<title>Node4</title>
<g id="a_node4"><a xlink:href="classAutoProfileWatcher.html#ac8d3fde4dea7576bd0ea05913304c826" target="_top" xlink:title=" ">
<polygon fill="white" stroke="black" points="430.5,-445 430.5,-475 549.5,-475 549.5,-445 430.5,-445"/>
<text text-anchor="start" x="438.5" y="-463" font-family="Helvetica,sans-Serif" font-size="10.00">AutoProfileWatcher</text>
<text text-anchor="middle" x="490" y="-452" font-family="Helvetica,sans-Serif" font-size="10.00">::getUniqeIDSetLocal</text>
</a>
</g>
</g>
<!-- Node2&#45;&gt;Node4 -->
<g id="edge3" class="edge">
<title>Node2&#45;&gt;Node4</title>
<path fill="none" stroke="midnightblue" d="M340.28,-477.06C365.81,-474.13 394.72,-470.81 420.21,-467.89"/>
<polygon fill="midnightblue" stroke="midnightblue" points="420.63,-471.36 430.16,-466.75 419.83,-464.41 420.63,-471.36"/>
</g>
</g>
</svg>
