<?xml version="1.0" encoding="UTF-8" standalone="no"?>
<!DOCTYPE svg PUBLIC "-//W3C//DTD SVG 1.1//EN"
 "http://www.w3.org/Graphics/SVG/1.1/DTD/svg11.dtd">
<!-- Generated by graphviz version 2.43.0 (0)
 -->
<!-- Title: MouseAxisSettingsDialog::changeMouseMode Pages: 1 -->
<!--zoomable 252 -->
<svg id="main" version="1.1" xmlns="http://www.w3.org/2000/svg" xmlns:xlink="http://www.w3.org/1999/xlink" xml:space="preserve" onload="init(evt)">
<style type="text/css"><![CDATA[
.edge:hover path { stroke: red; }
.edge:hover polygon { stroke: red; fill: red; }
]]></style>
<script type="text/javascript"><![CDATA[
var edges = document.getElementsByTagName('g');
if (edges && edges.length) {
  for (var i=0;i<edges.length;i++) {
    if (edges[i].id.substr(0,4)=='edge') {
      edges[i].setAttribute('class','edge');
    }
  }
}
]]></script>
        <defs>
                <circle id="rim" cx="0" cy="0" r="7"/>
                <circle id="rim2" cx="0" cy="0" r="3.5"/>
                <g id="zoomPlus">
                        <use xlink:href="#rim" fill="#404040">
                                <set attributeName="fill" to="#808080" begin="zoomplus.mouseover" end="zoomplus.mouseout"/>
                        </use>
                        <path d="M-4,0h8M0,-4v8" fill="none" stroke="white" stroke-width="1.5" pointer-events="none"/>
                </g>
                <g id="zoomMin">
                        <use xlink:href="#rim" fill="#404040">
                                <set attributeName="fill" to="#808080" begin="zoomminus.mouseover" end="zoomminus.mouseout"/>
                        </use>
                        <path d="M-4,0h8" fill="none" stroke="white" stroke-width="1.5" pointer-events="none"/>
                </g>
                <g id="dirArrow">
                        <path fill="none" stroke="white" stroke-width="1.5" d="M0,-3.0v7 M-2.5,-0.5L0,-3.0L2.5,-0.5"/>
                </g>
               <g id="resetDef">
                       <use xlink:href="#rim2" fill="#404040">
                               <set attributeName="fill" to="#808080" begin="reset.mouseover" end="reset.mouseout"/>
                       </use>
               </g>
        </defs>

<script type="text/javascript">
var viewWidth = 539;
var viewHeight = 252;
var sectionId = 'dynsection-27';
</script>
<script xlink:href="svgpan.js"/>
<svg id="graph" class="graph">
<g id="viewport">
<title>MouseAxisSettingsDialog::changeMouseMode</title>
<polygon fill="white" stroke="transparent" points="-4,4 -4,-247.5 535,-247.5 535,4 -4,4"/>
<!-- Node1 -->
<g id="node1" class="node">
<title>Node1</title>
<g id="a_node1"><a xlink:title=" ">
<polygon fill="#bfbfbf" stroke="black" points="0,-120.5 0,-150.5 141,-150.5 141,-120.5 0,-120.5"/>
<text text-anchor="start" x="8" y="-138.5" font-family="Helvetica,sans-Serif" font-size="10.00">MouseAxisSettingsDialog</text>
<text text-anchor="middle" x="70.5" y="-127.5" font-family="Helvetica,sans-Serif" font-size="10.00">::changeMouseMode</text>
</a>
</g>
</g>
<!-- Node2 -->
<g id="node2" class="node">
<title>Node2</title>
<g id="a_node2"><a xlink:href="classJoyAxis.html#aae658e2a7b83ce73ce3d7d1ed13eabc6" target="_top" xlink:title=" ">
<polygon fill="white" stroke="black" points="195,-224 195,-243 330,-243 330,-224 195,-224"/>
<text text-anchor="middle" x="262.5" y="-231" font-family="Helvetica,sans-Serif" font-size="10.00">JoyAxis::getNAxisButton</text>
</a>
</g>
</g>
<!-- Node1&#45;&gt;Node2 -->
<g id="edge1" class="edge">
<title>Node1&#45;&gt;Node2</title>
<path fill="none" stroke="midnightblue" d="M87.26,-150.74C106.74,-168.72 141.67,-198.21 177,-214.5 182.34,-216.96 188.01,-219.11 193.8,-220.99"/>
<polygon fill="midnightblue" stroke="midnightblue" points="193.02,-224.41 203.61,-223.91 195.02,-217.7 193.02,-224.41"/>
</g>
<!-- Node3 -->
<g id="node3" class="node">
<title>Node3</title>
<g id="a_node3"><a xlink:href="classJoyAxis.html#ad51d55d2a95190468209f7481eae8639" target="_top" xlink:title=" ">
<polygon fill="white" stroke="black" points="196,-186 196,-205 329,-205 329,-186 196,-186"/>
<text text-anchor="middle" x="262.5" y="-193" font-family="Helvetica,sans-Serif" font-size="10.00">JoyAxis::getPAxisButton</text>
</a>
</g>
</g>
<!-- Node1&#45;&gt;Node3 -->
<g id="edge2" class="edge">
<title>Node1&#45;&gt;Node3</title>
<path fill="none" stroke="midnightblue" d="M106.68,-150.7C126.98,-159.08 153.13,-169.22 177,-176.5 185.46,-179.08 194.5,-181.48 203.4,-183.64"/>
<polygon fill="midnightblue" stroke="midnightblue" points="202.82,-187.1 213.36,-185.98 204.42,-180.29 202.82,-187.1"/>
</g>
<!-- Node4 -->
<g id="node4" class="node">
<title>Node4</title>
<g id="a_node4"><a xlink:href="classJoyAxis.html#a1d88b64f64042f2b6f3ceccf07a6a8fa" target="_top" xlink:title=" ">
<polygon fill="white" stroke="black" points="177.5,-148 177.5,-167 347.5,-167 347.5,-148 177.5,-148"/>
<text text-anchor="middle" x="262.5" y="-155" font-family="Helvetica,sans-Serif" font-size="10.00">JoyAxis::setButtonsMouseMode</text>
</a>
</g>
</g>
<!-- Node1&#45;&gt;Node4 -->
<g id="edge3" class="edge">
<title>Node1&#45;&gt;Node4</title>
<path fill="none" stroke="midnightblue" d="M141.17,-143.57C150.27,-144.62 159.7,-145.71 169.11,-146.8"/>
<polygon fill="midnightblue" stroke="midnightblue" points="168.94,-150.31 179.27,-147.98 169.74,-143.35 168.94,-150.31"/>
</g>
<!-- Node6 -->
<g id="node6" class="node">
<title>Node6</title>
<g id="a_node6"><a xlink:href="classJoyButton.html#aca69f26410f28982be9a6e952ec3c494" target="_top" xlink:title=" ">
<polygon fill="white" stroke="black" points="177,-98.5 177,-128.5 348,-128.5 348,-98.5 177,-98.5"/>
<text text-anchor="start" x="185" y="-116.5" font-family="Helvetica,sans-Serif" font-size="10.00">JoyButton::setExtraAcceleration</text>
<text text-anchor="middle" x="262.5" y="-105.5" font-family="Helvetica,sans-Serif" font-size="10.00">Status</text>
</a>
</g>
</g>
<!-- Node1&#45;&gt;Node6 -->
<g id="edge5" class="edge">
<title>Node1&#45;&gt;Node6</title>
<path fill="none" stroke="midnightblue" d="M141.17,-127.43C149.54,-126.46 158.2,-125.46 166.85,-124.46"/>
<polygon fill="midnightblue" stroke="midnightblue" points="167.46,-127.91 176.99,-123.29 166.66,-120.96 167.46,-127.91"/>
</g>
<!-- Node8 -->
<g id="node8" class="node">
<title>Node8</title>
<g id="a_node8"><a xlink:href="classSpringModeRegionPreview.html#a8d2b08d077d77697a327e2d062130cbd" target="_top" xlink:title=" ">
<polygon fill="white" stroke="black" points="189,-49.5 189,-79.5 336,-79.5 336,-49.5 189,-49.5"/>
<text text-anchor="start" x="197" y="-67.5" font-family="Helvetica,sans-Serif" font-size="10.00">SpringModeRegionPreview</text>
<text text-anchor="middle" x="262.5" y="-56.5" font-family="Helvetica,sans-Serif" font-size="10.00">::setSpringHeight</text>
</a>
</g>
</g>
<!-- Node1&#45;&gt;Node8 -->
<g id="edge7" class="edge">
<title>Node1&#45;&gt;Node8</title>
<path fill="none" stroke="midnightblue" d="M103.4,-120.36C124.12,-110.84 151.84,-98.67 177,-89.5 183.47,-87.14 190.28,-84.84 197.1,-82.65"/>
<polygon fill="midnightblue" stroke="midnightblue" points="198.59,-85.85 207.08,-79.52 196.49,-79.17 198.59,-85.85"/>
</g>
<!-- Node10 -->
<g id="node10" class="node">
<title>Node10</title>
<g id="a_node10"><a xlink:href="classSpringModeRegionPreview.html#a769d674b3f0697dee55b0a7fbfe4a48f" target="_top" xlink:title=" ">
<polygon fill="white" stroke="black" points="189,-0.5 189,-30.5 336,-30.5 336,-0.5 189,-0.5"/>
<text text-anchor="start" x="197" y="-18.5" font-family="Helvetica,sans-Serif" font-size="10.00">SpringModeRegionPreview</text>
<text text-anchor="middle" x="262.5" y="-7.5" font-family="Helvetica,sans-Serif" font-size="10.00">::setSpringWidth</text>
</a>
</g>
</g>
<!-- Node1&#45;&gt;Node10 -->
<g id="edge9" class="edge">
<title>Node1&#45;&gt;Node10</title>
<path fill="none" stroke="midnightblue" d="M84.18,-120.16C102.52,-98.97 138.48,-60.92 177,-39.5 180.26,-37.69 183.66,-36 187.16,-34.44"/>
<polygon fill="midnightblue" stroke="midnightblue" points="188.66,-37.61 196.58,-30.57 186,-31.13 188.66,-37.61"/>
</g>
<!-- Node5 -->
<g id="node5" class="node">
<title>Node5</title>
<g id="a_node5"><a xlink:href="classJoyButton.html#a28224ca61d50adb1338643ae63bab3a3" target="_top" xlink:title=" ">
<polygon fill="white" stroke="black" points="385.5,-148 385.5,-167 529.5,-167 529.5,-148 385.5,-148"/>
<text text-anchor="middle" x="457.5" y="-155" font-family="Helvetica,sans-Serif" font-size="10.00">JoyButton::setMouseMode</text>
</a>
</g>
</g>
<!-- Node4&#45;&gt;Node5 -->
<g id="edge4" class="edge">
<title>Node4&#45;&gt;Node5</title>
<path fill="none" stroke="midnightblue" d="M347.59,-157.5C356.74,-157.5 366.05,-157.5 375.16,-157.5"/>
<polygon fill="midnightblue" stroke="midnightblue" points="375.36,-161 385.36,-157.5 375.36,-154 375.36,-161"/>
</g>
<!-- Node7 -->
<g id="node7" class="node">
<title>Node7</title>
<g id="a_node7"><a xlink:href="classJoyButton.html#a77afa6c5934d2665bad6d494b812f372" target="_top" xlink:title="Check if button should be considered a part of a real controller axis. Needed for some dialogs so the...">
<polygon fill="white" stroke="black" points="387.5,-104 387.5,-123 527.5,-123 527.5,-104 387.5,-104"/>
<text text-anchor="middle" x="457.5" y="-111" font-family="Helvetica,sans-Serif" font-size="10.00">JoyButton::isPartRealAxis</text>
</a>
</g>
</g>
<!-- Node6&#45;&gt;Node7 -->
<g id="edge6" class="edge">
<title>Node6&#45;&gt;Node7</title>
<path fill="none" stroke="midnightblue" d="M348.15,-113.5C357.75,-113.5 367.5,-113.5 377.03,-113.5"/>
<polygon fill="midnightblue" stroke="midnightblue" points="377.25,-117 387.25,-113.5 377.25,-110 377.25,-117"/>
</g>
<!-- Node9 -->
<g id="node9" class="node">
<title>Node9</title>
<g id="a_node9"><a xlink:href="classSpringModeRegionPreview.html#ac11ce802ca9098d5d61a1c7550e3a4f2" target="_top" xlink:title=" ">
<polygon fill="white" stroke="black" points="384,-49.5 384,-79.5 531,-79.5 531,-49.5 384,-49.5"/>
<text text-anchor="start" x="392" y="-67.5" font-family="Helvetica,sans-Serif" font-size="10.00">SpringModeRegionPreview</text>
<text text-anchor="middle" x="457.5" y="-56.5" font-family="Helvetica,sans-Serif" font-size="10.00">::adjustSpringSizeHeight</text>
</a>
</g>
</g>
<!-- Node8&#45;&gt;Node9 -->
<g id="edge8" class="edge">
<title>Node8&#45;&gt;Node9</title>
<path fill="none" stroke="midnightblue" d="M336.19,-64.5C348.38,-64.5 361.11,-64.5 373.53,-64.5"/>
<polygon fill="midnightblue" stroke="midnightblue" points="373.88,-68 383.88,-64.5 373.88,-61 373.88,-68"/>
</g>
<!-- Node11 -->
<g id="node11" class="node">
<title>Node11</title>
<g id="a_node11"><a xlink:href="classSpringModeRegionPreview.html#a78b54db3c38d88222b2491d21bb7daac" target="_top" xlink:title=" ">
<polygon fill="white" stroke="black" points="384,-0.5 384,-30.5 531,-30.5 531,-0.5 384,-0.5"/>
<text text-anchor="start" x="392" y="-18.5" font-family="Helvetica,sans-Serif" font-size="10.00">SpringModeRegionPreview</text>
<text text-anchor="middle" x="457.5" y="-7.5" font-family="Helvetica,sans-Serif" font-size="10.00">::adjustSpringSizeWidth</text>
</a>
</g>
</g>
<!-- Node10&#45;&gt;Node11 -->
<g id="edge10" class="edge">
<title>Node10&#45;&gt;Node11</title>
<path fill="none" stroke="midnightblue" d="M336.19,-15.5C348.38,-15.5 361.11,-15.5 373.53,-15.5"/>
<polygon fill="midnightblue" stroke="midnightblue" points="373.88,-19 383.88,-15.5 373.88,-12 373.88,-19"/>
</g>
</g>
</svg>
        <g id="navigator" transform="translate(0 0)" fill="#404254">
                <rect fill="#f2f5e9" fill-opacity="0.5" stroke="#606060" stroke-width=".5" x="0" y="0" width="60" height="60"/>
                <use id="zoomplus" xlink:href="#zoomPlus" x="17" y="9" onmousedown="handleZoom(evt,'in')"/>
                <use id="zoomminus" xlink:href="#zoomMin" x="42" y="9" onmousedown="handleZoom(evt,'out')"/>
                <use id="reset" xlink:href="#resetDef" x="30" y="36" onmousedown="handleReset()"/>
                <g id="arrowUp" xlink:href="#dirArrow" transform="translate(30 24)" onmousedown="handlePan(0,-1)">
                  <use xlink:href="#rim" fill="#404040">
                        <set attributeName="fill" to="#808080" begin="arrowUp.mouseover" end="arrowUp.mouseout"/>
                  </use>
                  <path fill="none" stroke="white" stroke-width="1.5" d="M0,-3.0v7 M-2.5,-0.5L0,-3.0L2.5,-0.5"/>
                </g>
                <g id="arrowRight" xlink:href="#dirArrow" transform="rotate(90) translate(36 -43)" onmousedown="handlePan(1,0)">
                  <use xlink:href="#rim" fill="#404040">
                        <set attributeName="fill" to="#808080" begin="arrowRight.mouseover" end="arrowRight.mouseout"/>
                  </use>
                  <path fill="none" stroke="white" stroke-width="1.5" d="M0,-3.0v7 M-2.5,-0.5L0,-3.0L2.5,-0.5"/>
                </g>
                <g id="arrowDown" xlink:href="#dirArrow" transform="rotate(180) translate(-30 -48)" onmousedown="handlePan(0,1)">
                  <use xlink:href="#rim" fill="#404040">
                        <set attributeName="fill" to="#808080" begin="arrowDown.mouseover" end="arrowDown.mouseout"/>
                  </use>
                  <path fill="none" stroke="white" stroke-width="1.5" d="M0,-3.0v7 M-2.5,-0.5L0,-3.0L2.5,-0.5"/>
                </g>
                <g id="arrowLeft" xlink:href="#dirArrow" transform="rotate(270) translate(-36 17)" onmousedown="handlePan(-1,0)">
                  <use xlink:href="#rim" fill="#404040">
                        <set attributeName="fill" to="#808080" begin="arrowLeft.mouseover" end="arrowLeft.mouseout"/>
                  </use>
                  <path fill="none" stroke="white" stroke-width="1.5" d="M0,-3.0v7 M-2.5,-0.5L0,-3.0L2.5,-0.5"/>
                </g>
        </g>
        <svg viewBox="0 0 15 15" width="100%" height="30px" preserveAspectRatio="xMaxYMin meet">
         <g id="arrow_out" transform="scale(0.3 0.3)">
          <a xlink:href="classMouseAxisSettingsDialog_a71cbcc0f06e217b497f865fc520b3da7_cgraph_org.svg" target="_base">
           <rect id="button" ry="5" rx="5" y="6" x="6" height="38" width="38"
                fill="#f2f5e9" fill-opacity="0.5" stroke="#606060" stroke-width="1.0"/>
           <path id="arrow"
             d="M 11.500037,31.436501 C 11.940474,20.09759 22.043105,11.32322 32.158766,21.979434 L 37.068811,17.246167 C 37.068811,17.246167 37.088388,32 37.088388,32 L 22.160133,31.978069 C 22.160133,31.978069 26.997745,27.140456 26.997745,27.140456 C 18.528582,18.264221 13.291696,25.230495 11.500037,31.436501 z"
             style="fill:#404040;"/>
          </a>
         </g>
        </svg>
</svg>
