<?xml version="1.0" encoding="UTF-8" standalone="no"?>
<!DOCTYPE svg PUBLIC "-//W3C//DTD SVG 1.1//EN"
 "http://www.w3.org/Graphics/SVG/1.1/DTD/svg11.dtd">
<!-- Generated by graphviz version 2.43.0 (0)
 -->
<!-- Title: VirtualKeyboardMouseWidget::selectionCleared Pages: 1 -->
<svg width="768pt" height="124pt"
 viewBox="0.00 0.00 768.00 123.73" xmlns="http://www.w3.org/2000/svg" xmlns:xlink="http://www.w3.org/1999/xlink">
<g id="graph0" class="graph" transform="scale(1 1) rotate(0) translate(4 119.73)">
<title>VirtualKeyboardMouseWidget::selectionCleared</title>
<polygon fill="white" stroke="transparent" points="-4,4 -4,-119.73 764,-119.73 764,4 -4,4"/>
<!-- Node1 -->
<g id="node1" class="node">
<title>Node1</title>
<g id="a_node1"><a xlink:title=" ">
<polygon fill="#bfbfbf" stroke="black" points="599,-55.5 599,-85.5 760,-85.5 760,-55.5 599,-55.5"/>
<text text-anchor="start" x="607" y="-73.5" font-family="Helvetica,sans-Serif" font-size="10.00">VirtualKeyboardMouseWidget</text>
<text text-anchor="middle" x="679.5" y="-62.5" font-family="Helvetica,sans-Serif" font-size="10.00">::selectionCleared</text>
</a>
</g>
</g>
<!-- Node2 -->
<g id="node2" class="node">
<title>Node2</title>
<g id="a_node2"><a xlink:href="classButtonEditDialog.html#a3e9feede100cbb6a11c9d87659c196ea" target="_top" xlink:title=" ">
<polygon fill="white" stroke="black" points="0,-55.5 0,-85.5 137,-85.5 137,-55.5 0,-55.5"/>
<text text-anchor="start" x="8" y="-73.5" font-family="Helvetica,sans-Serif" font-size="10.00">ButtonEditDialog::Button</text>
<text text-anchor="middle" x="68.5" y="-62.5" font-family="Helvetica,sans-Serif" font-size="10.00">EditDialog</text>
</a>
</g>
</g>
<!-- Node1&#45;&gt;Node2 -->
<g id="edge1" class="edge">
<title>Node1&#45;&gt;Node2</title>
<path fill="none" stroke="midnightblue" d="M609.63,-87.62C594.37,-90.79 578.21,-93.68 563,-95.5 390.88,-116.13 344.63,-124.87 173,-100.5 152.25,-97.55 129.85,-91.44 111.21,-85.5"/>
<polygon fill="midnightblue" stroke="midnightblue" points="610.47,-91.02 619.51,-85.5 609,-84.17 610.47,-91.02"/>
</g>
<!-- Node3 -->
<g id="node3" class="node">
<title>Node3</title>
<g id="a_node3"><a xlink:href="classVirtualKeyboardMouseWidget.html#a1fbcd1c7493e1bcc9a573ec84aa4249e" target="_top" xlink:title=" ">
<polygon fill="white" stroke="black" points="402,-55.5 402,-85.5 563,-85.5 563,-55.5 402,-55.5"/>
<text text-anchor="start" x="410" y="-73.5" font-family="Helvetica,sans-Serif" font-size="10.00">VirtualKeyboardMouseWidget</text>
<text text-anchor="middle" x="482.5" y="-62.5" font-family="Helvetica,sans-Serif" font-size="10.00">::clearButtonSlots</text>
</a>
</g>
</g>
<!-- Node1&#45;&gt;Node3 -->
<g id="edge2" class="edge">
<title>Node1&#45;&gt;Node3</title>
<path fill="none" stroke="midnightblue" d="M588.88,-70.5C580.3,-70.5 571.64,-70.5 563.16,-70.5"/>
<polygon fill="midnightblue" stroke="midnightblue" points="588.9,-74 598.9,-70.5 588.9,-67 588.9,-74"/>
</g>
<!-- Node5 -->
<g id="node5" class="node">
<title>Node5</title>
<g id="a_node5"><a xlink:href="classButtonEditDialog.html#ade8d1ee4ae03d1080932a70c8170d488" target="_top" xlink:title=" ">
<polygon fill="white" stroke="black" points="181,-0.5 181,-30.5 358,-30.5 358,-0.5 181,-0.5"/>
<text text-anchor="start" x="189" y="-18.5" font-family="Helvetica,sans-Serif" font-size="10.00">ButtonEditDialog::openAdvanced</text>
<text text-anchor="middle" x="269.5" y="-7.5" font-family="Helvetica,sans-Serif" font-size="10.00">Dialog</text>
</a>
</g>
</g>
<!-- Node1&#45;&gt;Node5 -->
<g id="edge5" class="edge">
<title>Node1&#45;&gt;Node5</title>
<path fill="none" stroke="midnightblue" d="M602,-53.49C589.03,-50.93 575.66,-48.48 563,-46.5 494.51,-35.78 416.41,-27.71 358.15,-22.5"/>
<polygon fill="midnightblue" stroke="midnightblue" points="601.33,-56.93 611.83,-55.47 602.72,-50.07 601.33,-56.93"/>
</g>
<!-- Node4 -->
<g id="node4" class="node">
<title>Node4</title>
<g id="a_node4"><a xlink:href="classVirtualKeyboardMouseWidget.html#aec7fadb5f607a6410093d9fe296c3f9f" target="_top" xlink:title=" ">
<polygon fill="white" stroke="black" points="173,-50 173,-91 366,-91 366,-50 173,-50"/>
<text text-anchor="start" x="181" y="-79" font-family="Helvetica,sans-Serif" font-size="10.00">VirtualKeyboardMouseWidget</text>
<text text-anchor="start" x="181" y="-68" font-family="Helvetica,sans-Serif" font-size="10.00">::establishVirtualKeyboardAdvanced</text>
<text text-anchor="middle" x="269.5" y="-57" font-family="Helvetica,sans-Serif" font-size="10.00">SignalConnections</text>
</a>
</g>
</g>
<!-- Node3&#45;&gt;Node4 -->
<g id="edge3" class="edge">
<title>Node3&#45;&gt;Node4</title>
<path fill="none" stroke="midnightblue" d="M391.62,-70.5C383.26,-70.5 374.77,-70.5 366.36,-70.5"/>
<polygon fill="midnightblue" stroke="midnightblue" points="391.73,-74 401.73,-70.5 391.73,-67 391.73,-74"/>
</g>
<!-- Node4&#45;&gt;Node2 -->
<g id="edge4" class="edge">
<title>Node4&#45;&gt;Node2</title>
<path fill="none" stroke="midnightblue" d="M162.62,-70.5C153.97,-70.5 145.39,-70.5 137.13,-70.5"/>
<polygon fill="midnightblue" stroke="midnightblue" points="162.79,-74 172.79,-70.5 162.79,-67 162.79,-74"/>
</g>
<!-- Node5&#45;&gt;Node2 -->
<g id="edge6" class="edge">
<title>Node5&#45;&gt;Node2</title>
<path fill="none" stroke="midnightblue" d="M200.23,-33.14C191.07,-35.58 181.8,-38.07 173,-40.5 155.87,-45.22 137.2,-50.57 120.49,-55.43"/>
<polygon fill="midnightblue" stroke="midnightblue" points="201.33,-36.47 210.1,-30.53 199.54,-29.7 201.33,-36.47"/>
</g>
</g>
</svg>
