<?xml version="1.0" encoding="UTF-8" standalone="no"?>
<!DOCTYPE svg PUBLIC "-//W3C//DTD SVG 1.1//EN"
 "http://www.w3.org/Graphics/SVG/1.1/DTD/svg11.dtd">
<!-- Generated by graphviz version 2.43.0 (0)
 -->
<!-- Title: JoyDPad::setDirButtonsUpdateInitAccel Pages: 1 -->
<svg width="368pt" height="78pt"
 viewBox="0.00 0.00 368.00 77.50" xmlns="http://www.w3.org/2000/svg" xmlns:xlink="http://www.w3.org/1999/xlink">
<g id="graph0" class="graph" transform="scale(1 1) rotate(0) translate(4 73.5)">
<title>JoyDPad::setDirButtonsUpdateInitAccel</title>
<polygon fill="white" stroke="transparent" points="-4,4 -4,-73.5 364,-73.5 364,4 -4,4"/>
<!-- Node1 -->
<g id="node1" class="node">
<title>Node1</title>
<g id="a_node1"><a xlink:title=" ">
<polygon fill="#bfbfbf" stroke="black" points="0,-22.5 0,-52.5 164,-52.5 164,-22.5 0,-22.5"/>
<text text-anchor="start" x="8" y="-40.5" font-family="Helvetica,sans-Serif" font-size="10.00">JoyDPad::setDirButtonsUpdate</text>
<text text-anchor="middle" x="82" y="-29.5" font-family="Helvetica,sans-Serif" font-size="10.00">InitAccel</text>
</a>
</g>
</g>
<!-- Node2 -->
<g id="node2" class="node">
<title>Node2</title>
<g id="a_node2"><a xlink:href="classJoyDPad.html#a4dcb714f1a34520dd2c20c87cc4ddf0c" target="_top" xlink:title=" ">
<polygon fill="white" stroke="black" points="200,-50 200,-69 360,-69 360,-50 200,-50"/>
<text text-anchor="middle" x="280" y="-57" font-family="Helvetica,sans-Serif" font-size="10.00">JoyDPad::getDirectionButtons</text>
</a>
</g>
</g>
<!-- Node1&#45;&gt;Node2 -->
<g id="edge1" class="edge">
<title>Node1&#45;&gt;Node2</title>
<path fill="none" stroke="midnightblue" d="M164.14,-46.61C172.61,-47.56 181.26,-48.53 189.83,-49.49"/>
<polygon fill="midnightblue" stroke="midnightblue" points="189.49,-52.97 199.82,-50.61 190.27,-46.02 189.49,-52.97"/>
</g>
<!-- Node3 -->
<g id="node3" class="node">
<title>Node3</title>
<g id="a_node3"><a xlink:href="classJoyButton.html#a2c5263620301922a785c5d8664d93aeb" target="_top" xlink:title=" ">
<polygon fill="white" stroke="black" points="212,-0.5 212,-30.5 348,-30.5 348,-0.5 212,-0.5"/>
<text text-anchor="start" x="220" y="-18.5" font-family="Helvetica,sans-Serif" font-size="10.00">JoyButton::setUpdateInit</text>
<text text-anchor="middle" x="280" y="-7.5" font-family="Helvetica,sans-Serif" font-size="10.00">Accel</text>
</a>
</g>
</g>
<!-- Node1&#45;&gt;Node3 -->
<g id="edge2" class="edge">
<title>Node1&#45;&gt;Node3</title>
<path fill="none" stroke="midnightblue" d="M164.14,-28.39C176.56,-27 189.36,-25.56 201.69,-24.18"/>
<polygon fill="midnightblue" stroke="midnightblue" points="202.38,-27.62 211.93,-23.03 201.6,-20.67 202.38,-27.62"/>
</g>
</g>
</svg>
