<?xml version="1.0" encoding="UTF-8" standalone="no"?>
<!DOCTYPE svg PUBLIC "-//W3C//DTD SVG 1.1//EN"
 "http://www.w3.org/Graphics/SVG/1.1/DTD/svg11.dtd">
<!-- Generated by graphviz version 2.43.0 (0)
 -->
<!-- Title: InputDevice::updateSetSensorNames Pages: 1 -->
<svg width="766pt" height="154pt"
 viewBox="0.00 0.00 766.00 153.50" xmlns="http://www.w3.org/2000/svg" xmlns:xlink="http://www.w3.org/1999/xlink">
<g id="graph0" class="graph" transform="scale(1 1) rotate(0) translate(4 149.5)">
<title>InputDevice::updateSetSensorNames</title>
<polygon fill="white" stroke="transparent" points="-4,4 -4,-149.5 762,-149.5 762,4 -4,4"/>
<!-- Node1 -->
<g id="node1" class="node">
<title>Node1</title>
<g id="a_node1"><a xlink:title="Rename sensor in all sets to the name in the current set.">
<polygon fill="#bfbfbf" stroke="black" points="594,-44.5 594,-74.5 758,-74.5 758,-44.5 594,-44.5"/>
<text text-anchor="start" x="602" y="-62.5" font-family="Helvetica,sans-Serif" font-size="10.00">InputDevice::updateSetSensor</text>
<text text-anchor="middle" x="676" y="-51.5" font-family="Helvetica,sans-Serif" font-size="10.00">Names</text>
</a>
</g>
</g>
<!-- Node2 -->
<g id="node2" class="node">
<title>Node2</title>
<g id="a_node2"><a xlink:href="classInputDevice.html#a6ffcebba103a7db02e82c1c7f62387bf" target="_top" xlink:title="Establishes necessary connections for set change slots.">
<polygon fill="white" stroke="black" points="368,-88 368,-107 558,-107 558,-88 368,-88"/>
<text text-anchor="middle" x="463" y="-95" font-family="Helvetica,sans-Serif" font-size="10.00">InputDevice::enableSetConnections</text>
</a>
</g>
</g>
<!-- Node1&#45;&gt;Node2 -->
<g id="edge1" class="edge">
<title>Node1&#45;&gt;Node2</title>
<path fill="none" stroke="midnightblue" d="M583.67,-75.95C560.86,-80.06 537.14,-84.33 516.9,-87.97"/>
<polygon fill="midnightblue" stroke="midnightblue" points="584.5,-79.35 593.72,-74.14 583.26,-72.47 584.5,-79.35"/>
</g>
<!-- Node5 -->
<g id="node5" class="node">
<title>Node5</title>
<g id="a_node5"><a xlink:href="classInputDevice.html#ab1fd8f35fb03592587659533e93c6a0e" target="_top" xlink:title="Sets the name of a sensor in all sets Used during XML loading.">
<polygon fill="white" stroke="black" points="384,-50 384,-69 542,-69 542,-50 384,-50"/>
<text text-anchor="middle" x="463" y="-57" font-family="Helvetica,sans-Serif" font-size="10.00">InputDevice::setSensorName</text>
</a>
</g>
</g>
<!-- Node1&#45;&gt;Node5 -->
<g id="edge4" class="edge">
<title>Node1&#45;&gt;Node5</title>
<path fill="none" stroke="midnightblue" d="M583.71,-52.8C569.85,-52.7 555.66,-52.75 542.11,-52.96"/>
<polygon fill="midnightblue" stroke="midnightblue" points="583.69,-56.3 593.72,-52.91 583.76,-49.3 583.69,-56.3"/>
</g>
<!-- Node3 -->
<g id="node3" class="node">
<title>Node3</title>
<g id="a_node3"><a xlink:href="classGameController.html#afcddb9dcc5442a9746c3ff8760ea1791" target="_top" xlink:title=" ">
<polygon fill="white" stroke="black" points="155,-126 155,-145 332,-145 332,-126 155,-126"/>
<text text-anchor="middle" x="243.5" y="-133" font-family="Helvetica,sans-Serif" font-size="10.00">GameController::GameController</text>
</a>
</g>
</g>
<!-- Node2&#45;&gt;Node3 -->
<g id="edge2" class="edge">
<title>Node2&#45;&gt;Node3</title>
<path fill="none" stroke="midnightblue" d="M397.46,-108.78C366.17,-114.24 328.99,-120.74 299.13,-125.96"/>
<polygon fill="midnightblue" stroke="midnightblue" points="398.15,-112.21 407.4,-107.04 396.94,-105.31 398.15,-112.21"/>
</g>
<!-- Node4 -->
<g id="node4" class="node">
<title>Node4</title>
<g id="a_node4"><a xlink:href="classJoystick.html#a9df5e53506876f3c95e84bdf6c9cbaf1" target="_top" xlink:title=" ">
<polygon fill="white" stroke="black" points="194,-88 194,-107 293,-107 293,-88 194,-88"/>
<text text-anchor="middle" x="243.5" y="-95" font-family="Helvetica,sans-Serif" font-size="10.00">Joystick::Joystick</text>
</a>
</g>
</g>
<!-- Node2&#45;&gt;Node4 -->
<g id="edge3" class="edge">
<title>Node2&#45;&gt;Node4</title>
<path fill="none" stroke="midnightblue" d="M357.57,-97.5C335.11,-97.5 312.39,-97.5 293.28,-97.5"/>
<polygon fill="midnightblue" stroke="midnightblue" points="357.87,-101 367.87,-97.5 357.87,-94 357.87,-101"/>
</g>
<!-- Node5&#45;&gt;Node1 -->
<g id="edge8" class="edge">
<title>Node5&#45;&gt;Node1</title>
<path fill="none" stroke="midnightblue" d="M552.48,-66.17C566.15,-66.3 580.22,-66.27 593.72,-66.09"/>
<polygon fill="midnightblue" stroke="midnightblue" points="552.15,-62.67 542.11,-66.04 552.07,-69.67 552.15,-62.67"/>
</g>
<!-- Node6 -->
<g id="node6" class="node">
<title>Node6</title>
<g id="a_node6"><a xlink:href="classInputDeviceXml.html#a847bf9ed17b554bf87d513a1aebdcb64" target="_top" xlink:title="Deserializes the given XML stream into an InputDevice object.">
<polygon fill="white" stroke="black" points="167,-50 167,-69 320,-69 320,-50 167,-50"/>
<text text-anchor="middle" x="243.5" y="-57" font-family="Helvetica,sans-Serif" font-size="10.00">InputDeviceXml::readConfig</text>
</a>
</g>
</g>
<!-- Node5&#45;&gt;Node6 -->
<g id="edge5" class="edge">
<title>Node5&#45;&gt;Node6</title>
<path fill="none" stroke="midnightblue" d="M373.48,-59.5C355.81,-59.5 337.4,-59.5 320.2,-59.5"/>
<polygon fill="midnightblue" stroke="midnightblue" points="373.78,-63 383.78,-59.5 373.78,-56 373.78,-63"/>
</g>
<!-- Node7 -->
<g id="node7" class="node">
<title>Node7</title>
<g id="a_node7"><a xlink:href="classGameControllerXml.html#aaa5257d4c6fe13f1d5fc51981e247c25" target="_top" xlink:title="Reads the XML tree from a &quot;joystick&quot; tag.">
<polygon fill="white" stroke="black" points="184,-0.5 184,-30.5 303,-30.5 303,-0.5 184,-0.5"/>
<text text-anchor="start" x="192" y="-18.5" font-family="Helvetica,sans-Serif" font-size="10.00">GameControllerXml::</text>
<text text-anchor="middle" x="243.5" y="-7.5" font-family="Helvetica,sans-Serif" font-size="10.00">readJoystickConfig</text>
</a>
</g>
</g>
<!-- Node5&#45;&gt;Node7 -->
<g id="edge6" class="edge">
<title>Node5&#45;&gt;Node7</title>
<path fill="none" stroke="midnightblue" d="M404.92,-47.95C373.6,-41.62 334.83,-33.77 303.25,-27.38"/>
<polygon fill="midnightblue" stroke="midnightblue" points="404.31,-51.4 414.81,-49.95 405.7,-44.54 404.31,-51.4"/>
</g>
<!-- Node8 -->
<g id="node8" class="node">
<title>Node8</title>
<g id="a_node8"><a xlink:href="classGameControllerXml.html#a7e47256cae0d3815419bc254413777d1" target="_top" xlink:title="Deserializes the given XML stream into a GameController object.">
<polygon fill="white" stroke="black" points="0,-0.5 0,-30.5 119,-30.5 119,-0.5 0,-0.5"/>
<text text-anchor="start" x="8" y="-18.5" font-family="Helvetica,sans-Serif" font-size="10.00">GameControllerXml::</text>
<text text-anchor="middle" x="59.5" y="-7.5" font-family="Helvetica,sans-Serif" font-size="10.00">readConfig</text>
</a>
</g>
</g>
<!-- Node7&#45;&gt;Node8 -->
<g id="edge7" class="edge">
<title>Node7&#45;&gt;Node8</title>
<path fill="none" stroke="midnightblue" d="M173.8,-15.5C155.85,-15.5 136.67,-15.5 119.29,-15.5"/>
<polygon fill="midnightblue" stroke="midnightblue" points="173.91,-19 183.91,-15.5 173.91,-12 173.91,-19"/>
</g>
</g>
</svg>
