<?xml version="1.0" encoding="UTF-8" standalone="no"?>
<!DOCTYPE svg PUBLIC "-//W3C//DTD SVG 1.1//EN"
 "http://www.w3.org/Graphics/SVG/1.1/DTD/svg11.dtd">
<!-- Generated by graphviz version 2.43.0 (0)
 -->
<!-- Title: JoyGyroscopeSensor::reset Pages: 1 -->
<svg width="424pt" height="66pt"
 viewBox="0.00 0.00 424.00 66.00" xmlns="http://www.w3.org/2000/svg" xmlns:xlink="http://www.w3.org/1999/xlink">
<g id="graph0" class="graph" transform="scale(1 1) rotate(0) translate(4 62)">
<title>JoyGyroscopeSensor::reset</title>
<polygon fill="white" stroke="transparent" points="-4,4 -4,-62 420,-62 420,4 -4,4"/>
<!-- Node1 -->
<g id="node1" class="node">
<title>Node1</title>
<g id="a_node1"><a xlink:title="Resets internal variables back to default.">
<polygon fill="#bfbfbf" stroke="black" points="0,-14 0,-44 116,-44 116,-14 0,-14"/>
<text text-anchor="start" x="8" y="-32" font-family="Helvetica,sans-Serif" font-size="10.00">JoyGyroscopeSensor</text>
<text text-anchor="middle" x="58" y="-21" font-family="Helvetica,sans-Serif" font-size="10.00">::reset</text>
</a>
</g>
</g>
<!-- Node2 -->
<g id="node2" class="node">
<title>Node2</title>
<g id="a_node2"><a xlink:href="classJoySensor.html#a5be7a7887f4855a1085e42822bfe85f0" target="_top" xlink:title="Utility function which converts a given value from degree to radians.">
<polygon fill="white" stroke="black" points="290.5,-38.5 290.5,-57.5 408.5,-57.5 408.5,-38.5 290.5,-38.5"/>
<text text-anchor="middle" x="349.5" y="-45.5" font-family="Helvetica,sans-Serif" font-size="10.00">JoySensor::degToRad</text>
</a>
</g>
</g>
<!-- Node1&#45;&gt;Node2 -->
<g id="edge1" class="edge">
<title>Node1&#45;&gt;Node2</title>
<path fill="none" stroke="midnightblue" d="M116.2,-32.75C163.37,-35.85 230.42,-40.25 280.36,-43.53"/>
<polygon fill="midnightblue" stroke="midnightblue" points="280.22,-47.03 290.43,-44.19 280.68,-40.04 280.22,-47.03"/>
</g>
<!-- Node3 -->
<g id="node3" class="node">
<title>Node3</title>
<g id="a_node3"><a xlink:href="classJoySensor.html#aaad088863aaa04d9529cb1abcd466c6b" target="_top" xlink:title="Resets internal variables back to default.">
<polygon fill="white" stroke="black" points="152,-0.5 152,-19.5 247,-19.5 247,-0.5 152,-0.5"/>
<text text-anchor="middle" x="199.5" y="-7.5" font-family="Helvetica,sans-Serif" font-size="10.00">JoySensor::reset</text>
</a>
</g>
</g>
<!-- Node1&#45;&gt;Node3 -->
<g id="edge2" class="edge">
<title>Node1&#45;&gt;Node3</title>
<path fill="none" stroke="midnightblue" d="M116.14,-21.22C124.59,-20.07 133.3,-18.88 141.75,-17.73"/>
<polygon fill="midnightblue" stroke="midnightblue" points="142.44,-21.17 151.88,-16.35 141.5,-14.23 142.44,-21.17"/>
</g>
<!-- Node3&#45;&gt;Node2 -->
<g id="edge3" class="edge">
<title>Node3&#45;&gt;Node2</title>
<path fill="none" stroke="midnightblue" d="M237.85,-19.59C257.2,-24.56 281.03,-30.68 301.61,-35.96"/>
<polygon fill="midnightblue" stroke="midnightblue" points="300.87,-39.38 311.42,-38.48 302.61,-32.6 300.87,-39.38"/>
</g>
<!-- Node4 -->
<g id="node4" class="node">
<title>Node4</title>
<g id="a_node4"><a xlink:href="classJoySensor.html#a6a551421242cfdec065b80b7270f26ab" target="_top" xlink:title="Reset all the properties of the sensor direction buttons.">
<polygon fill="white" stroke="black" points="283,-0.5 283,-19.5 416,-19.5 416,-0.5 283,-0.5"/>
<text text-anchor="middle" x="349.5" y="-7.5" font-family="Helvetica,sans-Serif" font-size="10.00">JoySensor::resetButtons</text>
</a>
</g>
</g>
<!-- Node3&#45;&gt;Node4 -->
<g id="edge4" class="edge">
<title>Node3&#45;&gt;Node4</title>
<path fill="none" stroke="midnightblue" d="M247.33,-10C255.42,-10 264.02,-10 272.66,-10"/>
<polygon fill="midnightblue" stroke="midnightblue" points="272.78,-13.5 282.78,-10 272.78,-6.5 272.78,-13.5"/>
</g>
</g>
</svg>
