<?xml version="1.0" encoding="UTF-8" standalone="no"?>
<!DOCTYPE svg PUBLIC "-//W3C//DTD SVG 1.1//EN"
 "http://www.w3.org/Graphics/SVG/1.1/DTD/svg11.dtd">
<!-- Generated by graphviz version 2.43.0 (0)
 -->
<!-- Title: JoyButton::getStartAccelMultiplier Pages: 1 -->
<svg width="776pt" height="318pt"
 viewBox="0.00 0.00 776.00 318.00" xmlns="http://www.w3.org/2000/svg" xmlns:xlink="http://www.w3.org/1999/xlink">
<g id="graph0" class="graph" transform="scale(1 1) rotate(0) translate(4 314)">
<title>JoyButton::getStartAccelMultiplier</title>
<polygon fill="white" stroke="transparent" points="-4,4 -4,-314 772,-314 772,4 -4,4"/>
<!-- Node1 -->
<g id="node1" class="node">
<title>Node1</title>
<g id="a_node1"><a xlink:title=" ">
<polygon fill="#bfbfbf" stroke="black" points="633,-194 633,-224 768,-224 768,-194 633,-194"/>
<text text-anchor="start" x="641" y="-212" font-family="Helvetica,sans-Serif" font-size="10.00">JoyButton::getStartAccel</text>
<text text-anchor="middle" x="700.5" y="-201" font-family="Helvetica,sans-Serif" font-size="10.00">Multiplier</text>
</a>
</g>
</g>
<!-- Node2 -->
<g id="node2" class="node">
<title>Node2</title>
<g id="a_node2"><a xlink:href="classMouseAxisSettingsDialog.html#ac8f59ffce27e56b985a4bb85f7ee545c" target="_top" xlink:title=" ">
<polygon fill="white" stroke="black" points="442.5,-268.5 442.5,-309.5 593.5,-309.5 593.5,-268.5 442.5,-268.5"/>
<text text-anchor="start" x="450.5" y="-297.5" font-family="Helvetica,sans-Serif" font-size="10.00">MouseAxisSettingsDialog</text>
<text text-anchor="start" x="450.5" y="-286.5" font-family="Helvetica,sans-Serif" font-size="10.00">::calculateStartAcceleration</text>
<text text-anchor="middle" x="518" y="-275.5" font-family="Helvetica,sans-Serif" font-size="10.00">Multiplier</text>
</a>
</g>
</g>
<!-- Node1&#45;&gt;Node2 -->
<g id="edge1" class="edge">
<title>Node1&#45;&gt;Node2</title>
<path fill="none" stroke="midnightblue" d="M661.22,-228.65C642.11,-238.21 618.53,-249.63 597,-259 589.68,-262.18 581.91,-265.39 574.21,-268.45"/>
<polygon fill="midnightblue" stroke="midnightblue" points="662.85,-231.75 670.21,-224.13 659.71,-225.49 662.85,-231.75"/>
</g>
<!-- Node4 -->
<g id="node4" class="node">
<title>Node4</title>
<g id="a_node4"><a xlink:href="classJoyControlStick.html#ae57529b9cc67e7aab331b06a3eec223a" target="_top" xlink:title=" ">
<polygon fill="white" stroke="black" points="443,-219 443,-249 593,-249 593,-219 443,-219"/>
<text text-anchor="start" x="451" y="-237" font-family="Helvetica,sans-Serif" font-size="10.00">JoyControlStick::getButtons</text>
<text text-anchor="middle" x="518" y="-226" font-family="Helvetica,sans-Serif" font-size="10.00">StartAccelerationMultiplier</text>
</a>
</g>
</g>
<!-- Node1&#45;&gt;Node4 -->
<g id="edge3" class="edge">
<title>Node1&#45;&gt;Node4</title>
<path fill="none" stroke="midnightblue" d="M622.66,-219.64C612.84,-221 602.8,-222.39 593.02,-223.75"/>
<polygon fill="midnightblue" stroke="midnightblue" points="623.38,-223.08 632.8,-218.24 622.42,-216.14 623.38,-223.08"/>
</g>
<!-- Node7 -->
<g id="node7" class="node">
<title>Node7</title>
<g id="a_node7"><a xlink:href="classMouseButtonSettingsDialog.html#a181bfdf388907056ec492d58d85f5d34" target="_top" xlink:title=" ">
<polygon fill="white" stroke="black" points="439,-170 439,-200 597,-200 597,-170 439,-170"/>
<text text-anchor="start" x="447" y="-188" font-family="Helvetica,sans-Serif" font-size="10.00">MouseButtonSettingsDialog</text>
<text text-anchor="middle" x="518" y="-177" font-family="Helvetica,sans-Serif" font-size="10.00">::MouseButtonSettingsDialog</text>
</a>
</g>
</g>
<!-- Node1&#45;&gt;Node7 -->
<g id="edge6" class="edge">
<title>Node1&#45;&gt;Node7</title>
<path fill="none" stroke="midnightblue" d="M622.86,-198.81C614.31,-197.67 605.59,-196.51 597.02,-195.37"/>
<polygon fill="midnightblue" stroke="midnightblue" points="622.43,-202.28 632.8,-200.13 623.35,-195.34 622.43,-202.28"/>
</g>
<!-- Node8 -->
<g id="node8" class="node">
<title>Node8</title>
<g id="a_node8"><a xlink:href="classJoyButtonXml.html#a766e87947104bfd54fc15b96b267ebdd" target="_top" xlink:title=" ">
<polygon fill="white" stroke="black" points="445.5,-98.5 445.5,-117.5 590.5,-117.5 590.5,-98.5 445.5,-98.5"/>
<text text-anchor="middle" x="518" y="-105.5" font-family="Helvetica,sans-Serif" font-size="10.00">JoyButtonXml::writeConfig</text>
</a>
</g>
</g>
<!-- Node1&#45;&gt;Node8 -->
<g id="edge7" class="edge">
<title>Node1&#45;&gt;Node8</title>
<path fill="none" stroke="midnightblue" d="M663.65,-188.94C625.17,-167.41 565.62,-134.09 536.39,-117.73"/>
<polygon fill="midnightblue" stroke="midnightblue" points="662.04,-192.05 672.48,-193.88 665.46,-185.94 662.04,-192.05"/>
</g>
<!-- Node3 -->
<g id="node3" class="node">
<title>Node3</title>
<g id="a_node3"><a xlink:href="classMouseAxisSettingsDialog.html#a33546e4b608264ce6d2758678eb6d2e7" target="_top" xlink:title=" ">
<polygon fill="white" stroke="black" points="238.5,-274 238.5,-304 385.5,-304 385.5,-274 238.5,-274"/>
<text text-anchor="start" x="246.5" y="-292" font-family="Helvetica,sans-Serif" font-size="10.00">MouseAxisSettingsDialog</text>
<text text-anchor="middle" x="312" y="-281" font-family="Helvetica,sans-Serif" font-size="10.00">::MouseAxisSettingsDialog</text>
</a>
</g>
</g>
<!-- Node2&#45;&gt;Node3 -->
<g id="edge2" class="edge">
<title>Node2&#45;&gt;Node3</title>
<path fill="none" stroke="midnightblue" d="M432.37,-289C416.84,-289 400.75,-289 385.61,-289"/>
<polygon fill="midnightblue" stroke="midnightblue" points="432.49,-292.5 442.49,-289 432.49,-285.5 432.49,-292.5"/>
</g>
<!-- Node5 -->
<g id="node5" class="node">
<title>Node5</title>
<g id="a_node5"><a xlink:href="classMouseControlStickSettingsDialog.html#a9f14f0ca3c9ef820ff5ceaafaad2a554" target="_top" xlink:title=" ">
<polygon fill="white" stroke="black" points="221,-213.5 221,-254.5 403,-254.5 403,-213.5 221,-213.5"/>
<text text-anchor="start" x="229" y="-242.5" font-family="Helvetica,sans-Serif" font-size="10.00">MouseControlStickSettings</text>
<text text-anchor="start" x="229" y="-231.5" font-family="Helvetica,sans-Serif" font-size="10.00">Dialog::calculateStartAcceleration</text>
<text text-anchor="middle" x="312" y="-220.5" font-family="Helvetica,sans-Serif" font-size="10.00">Multiplier</text>
</a>
</g>
</g>
<!-- Node4&#45;&gt;Node5 -->
<g id="edge4" class="edge">
<title>Node4&#45;&gt;Node5</title>
<path fill="none" stroke="midnightblue" d="M432.71,-234C422.95,-234 412.97,-234 403.15,-234"/>
<polygon fill="midnightblue" stroke="midnightblue" points="432.77,-237.5 442.77,-234 432.77,-230.5 432.77,-237.5"/>
</g>
<!-- Node6 -->
<g id="node6" class="node">
<title>Node6</title>
<g id="a_node6"><a xlink:href="classMouseControlStickSettingsDialog.html#aac9d5ef09dced4cee0df95d99ae13369" target="_top" xlink:title=" ">
<polygon fill="white" stroke="black" points="0,-213.5 0,-254.5 185,-254.5 185,-213.5 0,-213.5"/>
<text text-anchor="start" x="8" y="-242.5" font-family="Helvetica,sans-Serif" font-size="10.00">MouseControlStickSettings</text>
<text text-anchor="start" x="8" y="-231.5" font-family="Helvetica,sans-Serif" font-size="10.00">Dialog::MouseControlStickSettings</text>
<text text-anchor="middle" x="92.5" y="-220.5" font-family="Helvetica,sans-Serif" font-size="10.00">Dialog</text>
</a>
</g>
</g>
<!-- Node5&#45;&gt;Node6 -->
<g id="edge5" class="edge">
<title>Node5&#45;&gt;Node6</title>
<path fill="none" stroke="midnightblue" d="M210.95,-234C202.37,-234 193.73,-234 185.22,-234"/>
<polygon fill="midnightblue" stroke="midnightblue" points="210.96,-237.5 220.96,-234 210.96,-230.5 210.96,-237.5"/>
</g>
<!-- Node9 -->
<g id="node9" class="node">
<title>Node9</title>
<g id="a_node9"><a xlink:href="classGameControllerTriggerXml.html#a382a32a139351f790192dc0991dea637" target="_top" xlink:title=" ">
<polygon fill="white" stroke="black" points="239,-164 239,-194 385,-194 385,-164 239,-164"/>
<text text-anchor="start" x="247" y="-182" font-family="Helvetica,sans-Serif" font-size="10.00">GameControllerTriggerXml</text>
<text text-anchor="middle" x="312" y="-171" font-family="Helvetica,sans-Serif" font-size="10.00">::writeConfig</text>
</a>
</g>
</g>
<!-- Node8&#45;&gt;Node9 -->
<g id="edge8" class="edge">
<title>Node8&#45;&gt;Node9</title>
<path fill="none" stroke="midnightblue" d="M485.96,-121.63C463.24,-131.33 431.52,-144.32 403,-154 392.71,-157.49 381.64,-160.87 370.91,-163.95"/>
<polygon fill="midnightblue" stroke="midnightblue" points="487.62,-124.73 495.42,-117.56 484.85,-118.3 487.62,-124.73"/>
</g>
<!-- Node10 -->
<g id="node10" class="node">
<title>Node10</title>
<g id="a_node10"><a xlink:href="classJoyDPadXml.html#ac78c8fd1ad107f6a3baed4910863cb0c" target="_top" xlink:title=" ">
<polygon fill="white" stroke="black" points="230,-115 230,-145 394,-145 394,-115 230,-115"/>
<text text-anchor="start" x="238" y="-133" font-family="Helvetica,sans-Serif" font-size="10.00">JoyDPadXml&lt; GameController</text>
<text text-anchor="middle" x="312" y="-122" font-family="Helvetica,sans-Serif" font-size="10.00">DPad &gt;::writeConfig</text>
</a>
</g>
</g>
<!-- Node8&#45;&gt;Node10 -->
<g id="edge9" class="edge">
<title>Node8&#45;&gt;Node10</title>
<path fill="none" stroke="midnightblue" d="M435.16,-116.83C421.67,-118.28 407.69,-119.79 394.22,-121.24"/>
<polygon fill="midnightblue" stroke="midnightblue" points="435.8,-120.28 445.36,-115.73 435.05,-113.32 435.8,-120.28"/>
</g>
<!-- Node11 -->
<g id="node11" class="node">
<title>Node11</title>
<g id="a_node11"><a xlink:href="classSetJoystickXml.html#a11eec051c05deac5ebe47b9582e83b6f" target="_top" xlink:title="Serializes a SetJoystick object into the the given XML stream.">
<polygon fill="white" stroke="black" points="236,-76.5 236,-95.5 388,-95.5 388,-76.5 236,-76.5"/>
<text text-anchor="middle" x="312" y="-83.5" font-family="Helvetica,sans-Serif" font-size="10.00">SetJoystickXml::writeConfig</text>
</a>
</g>
</g>
<!-- Node8&#45;&gt;Node11 -->
<g id="edge10" class="edge">
<title>Node8&#45;&gt;Node11</title>
<path fill="none" stroke="midnightblue" d="M435.27,-99.19C419.75,-97.51 403.58,-95.77 388.27,-94.12"/>
<polygon fill="midnightblue" stroke="midnightblue" points="435.05,-102.68 445.36,-100.27 435.8,-95.72 435.05,-102.68"/>
</g>
<!-- Node12 -->
<g id="node12" class="node">
<title>Node12</title>
<g id="a_node12"><a xlink:href="classJoySensor.html#a92d38c3baf6dc85d28d66e7a7df4b4c3" target="_top" xlink:title="Write the status of the properties of a sensor and direction buttons to an XML stream.">
<polygon fill="white" stroke="black" points="249,-38.5 249,-57.5 375,-57.5 375,-38.5 249,-38.5"/>
<text text-anchor="middle" x="312" y="-45.5" font-family="Helvetica,sans-Serif" font-size="10.00">JoySensor::writeConfig</text>
</a>
</g>
</g>
<!-- Node8&#45;&gt;Node12 -->
<g id="edge11" class="edge">
<title>Node8&#45;&gt;Node12</title>
<path fill="none" stroke="midnightblue" d="M483.85,-94.71C461.31,-86.02 430.67,-74.86 403,-67 390.56,-63.47 376.98,-60.27 364.23,-57.54"/>
<polygon fill="midnightblue" stroke="midnightblue" points="482.7,-98.02 493.29,-98.39 485.25,-91.5 482.7,-98.02"/>
</g>
<!-- Node13 -->
<g id="node13" class="node">
<title>Node13</title>
<g id="a_node13"><a xlink:href="classJoyControlStick.html#a3ab1764a44e806d2d3896023f82fa3b1" target="_top" xlink:title="Write the status of the properties of a stick and direction buttons to an XML stream.">
<polygon fill="white" stroke="black" points="236,-0.5 236,-19.5 388,-19.5 388,-0.5 236,-0.5"/>
<text text-anchor="middle" x="312" y="-7.5" font-family="Helvetica,sans-Serif" font-size="10.00">JoyControlStick::writeConfig</text>
</a>
</g>
</g>
<!-- Node8&#45;&gt;Node13 -->
<g id="edge12" class="edge">
<title>Node8&#45;&gt;Node13</title>
<path fill="none" stroke="midnightblue" d="M498.58,-91.72C477.12,-73.64 439.89,-44.91 403,-29 394.05,-25.14 384.26,-22.05 374.53,-19.57"/>
<polygon fill="midnightblue" stroke="midnightblue" points="496.38,-94.45 506.25,-98.3 500.94,-89.13 496.38,-94.45"/>
</g>
</g>
</svg>
