<?xml version="1.0" encoding="UTF-8" standalone="no"?>
<!DOCTYPE svg PUBLIC "-//W3C//DTD SVG 1.1//EN"
 "http://www.w3.org/Graphics/SVG/1.1/DTD/svg11.dtd">
<!-- Generated by graphviz version 2.43.0 (0)
 -->
<!-- Title: AdvanceStickAssignmentDialog::refreshVDPadsConfiguration Pages: 1 -->
<svg width="585pt" height="322pt"
 viewBox="0.00 0.00 585.00 321.50" xmlns="http://www.w3.org/2000/svg" xmlns:xlink="http://www.w3.org/1999/xlink">
<g id="graph0" class="graph" transform="scale(1 1) rotate(0) translate(4 317.5)">
<title>AdvanceStickAssignmentDialog::refreshVDPadsConfiguration</title>
<polygon fill="white" stroke="transparent" points="-4,4 -4,-317.5 581,-317.5 581,4 -4,4"/>
<!-- Node1 -->
<g id="node1" class="node">
<title>Node1</title>
<g id="a_node1"><a xlink:title=" ">
<polygon fill="#bfbfbf" stroke="black" points="0,-220 0,-250 172,-250 172,-220 0,-220"/>
<text text-anchor="start" x="8" y="-238" font-family="Helvetica,sans-Serif" font-size="10.00">AdvanceStickAssignmentDialog</text>
<text text-anchor="middle" x="86" y="-227" font-family="Helvetica,sans-Serif" font-size="10.00">::refreshVDPadsConfiguration</text>
</a>
</g>
</g>
<!-- Node2 -->
<g id="node2" class="node">
<title>Node2</title>
<g id="a_node2"><a xlink:href="classInputDevice.html#abc23a70bef37f2fc70248cd129af170b" target="_top" xlink:title=" ">
<polygon fill="white" stroke="black" points="222.5,-283 222.5,-313 365.5,-313 365.5,-283 222.5,-283"/>
<text text-anchor="start" x="230.5" y="-301" font-family="Helvetica,sans-Serif" font-size="10.00">InputDevice::getActiveSet</text>
<text text-anchor="middle" x="294" y="-290" font-family="Helvetica,sans-Serif" font-size="10.00">Joystick</text>
</a>
</g>
</g>
<!-- Node1&#45;&gt;Node2 -->
<g id="edge1" class="edge">
<title>Node1&#45;&gt;Node2</title>
<path fill="none" stroke="midnightblue" d="M134.35,-250.09C156.66,-257.14 183.67,-265.6 208,-273 215.64,-275.32 223.67,-277.73 231.63,-280.09"/>
<polygon fill="midnightblue" stroke="midnightblue" points="230.68,-283.46 241.26,-282.95 232.67,-276.75 230.68,-283.46"/>
</g>
<!-- Node4 -->
<g id="node4" class="node">
<title>Node4</title>
<g id="a_node4"><a xlink:href="classVDPad.html#af486403db5899e54dc32cd0e1c3bb68c" target="_top" xlink:title=" ">
<polygon fill="white" stroke="black" points="239.5,-244.5 239.5,-263.5 348.5,-263.5 348.5,-244.5 239.5,-244.5"/>
<text text-anchor="middle" x="294" y="-251.5" font-family="Helvetica,sans-Serif" font-size="10.00">VDPad::getVButton</text>
</a>
</g>
</g>
<!-- Node1&#45;&gt;Node4 -->
<g id="edge3" class="edge">
<title>Node1&#45;&gt;Node4</title>
<path fill="none" stroke="midnightblue" d="M172.28,-242.87C191.33,-244.62 211.22,-246.46 229.23,-248.12"/>
<polygon fill="midnightblue" stroke="midnightblue" points="229.03,-251.61 239.31,-249.05 229.68,-244.64 229.03,-251.61"/>
</g>
<!-- Node5 -->
<g id="node5" class="node">
<title>Node5</title>
<g id="a_node5"><a xlink:href="classSetJoystick.html#abcdc88c96a95fb0f5d8a721582d22851" target="_top" xlink:title=" ">
<polygon fill="white" stroke="black" points="232,-206.5 232,-225.5 356,-225.5 356,-206.5 232,-206.5"/>
<text text-anchor="middle" x="294" y="-213.5" font-family="Helvetica,sans-Serif" font-size="10.00">SetJoystick::getVDPad</text>
</a>
</g>
</g>
<!-- Node1&#45;&gt;Node5 -->
<g id="edge4" class="edge">
<title>Node1&#45;&gt;Node5</title>
<path fill="none" stroke="midnightblue" d="M172.28,-227.13C188.71,-225.62 205.76,-224.05 221.7,-222.58"/>
<polygon fill="midnightblue" stroke="midnightblue" points="222.35,-226.03 231.99,-221.63 221.71,-219.06 222.35,-226.03"/>
</g>
<!-- Node7 -->
<g id="node7" class="node">
<title>Node7</title>
<g id="a_node7"><a xlink:href="classAdvanceStickAssignmentDialog.html#a98a6d5afe4f544f71039543e3aa8055f" target="_top" xlink:title=" ">
<polygon fill="white" stroke="black" points="208,-109 208,-139 380,-139 380,-109 208,-109"/>
<text text-anchor="start" x="216" y="-127" font-family="Helvetica,sans-Serif" font-size="10.00">AdvanceStickAssignmentDialog</text>
<text text-anchor="middle" x="294" y="-116" font-family="Helvetica,sans-Serif" font-size="10.00">::refreshVDPadConf</text>
</a>
</g>
</g>
<!-- Node1&#45;&gt;Node7 -->
<g id="edge6" class="edge">
<title>Node1&#45;&gt;Node7</title>
<path fill="none" stroke="midnightblue" d="M115.21,-219.8C151.81,-200.08 215.74,-165.63 256.14,-143.86"/>
<polygon fill="midnightblue" stroke="midnightblue" points="257.99,-146.84 265.13,-139.02 254.67,-140.68 257.99,-146.84"/>
</g>
<!-- Node3 -->
<g id="node3" class="node">
<title>Node3</title>
<g id="a_node3"><a xlink:href="classInputDevice.html#af6633e823a5d5d441940cf923d9249a6" target="_top" xlink:title=" ">
<polygon fill="white" stroke="black" points="416,-288.5 416,-307.5 577,-307.5 577,-288.5 416,-288.5"/>
<text text-anchor="middle" x="496.5" y="-295.5" font-family="Helvetica,sans-Serif" font-size="10.00">InputDevice::getJoystick_sets</text>
</a>
</g>
</g>
<!-- Node2&#45;&gt;Node3 -->
<g id="edge2" class="edge">
<title>Node2&#45;&gt;Node3</title>
<path fill="none" stroke="midnightblue" d="M365.69,-298C378.63,-298 392.29,-298 405.69,-298"/>
<polygon fill="midnightblue" stroke="midnightblue" points="405.88,-301.5 415.88,-298 405.88,-294.5 405.88,-301.5"/>
</g>
<!-- Node6 -->
<g id="node6" class="node">
<title>Node6</title>
<g id="a_node6"><a xlink:href="classSetJoystick.html#ad859311bfde76dbdaac274cb5ede63d6" target="_top" xlink:title=" ">
<polygon fill="white" stroke="black" points="432.5,-228.5 432.5,-247.5 560.5,-247.5 560.5,-228.5 432.5,-228.5"/>
<text text-anchor="middle" x="496.5" y="-235.5" font-family="Helvetica,sans-Serif" font-size="10.00">SetJoystick::getVdpads</text>
</a>
</g>
</g>
<!-- Node5&#45;&gt;Node6 -->
<g id="edge5" class="edge">
<title>Node5&#45;&gt;Node6</title>
<path fill="none" stroke="midnightblue" d="M356.25,-222.72C377.02,-225 400.45,-227.57 422.08,-229.94"/>
<polygon fill="midnightblue" stroke="midnightblue" points="421.88,-233.44 432.2,-231.05 422.64,-226.48 421.88,-233.44"/>
</g>
<!-- Node8 -->
<g id="node8" class="node">
<title>Node8</title>
<g id="a_node8"><a xlink:href="classJoyAxisButton.html#a8b73356f8efc91ad97e2c281b3603cc8" target="_top" xlink:title=" ">
<polygon fill="white" stroke="black" points="432.5,-190.5 432.5,-209.5 560.5,-209.5 560.5,-190.5 432.5,-190.5"/>
<text text-anchor="middle" x="496.5" y="-197.5" font-family="Helvetica,sans-Serif" font-size="10.00">JoyAxisButton::getAxis</text>
</a>
</g>
</g>
<!-- Node7&#45;&gt;Node8 -->
<g id="edge7" class="edge">
<title>Node7&#45;&gt;Node8</title>
<path fill="none" stroke="midnightblue" d="M322.67,-139.04C346.76,-151.65 382.91,-169.39 416,-181 423.25,-183.54 430.99,-185.86 438.69,-187.93"/>
<polygon fill="midnightblue" stroke="midnightblue" points="437.82,-191.32 448.37,-190.43 439.56,-184.55 437.82,-191.32"/>
</g>
<!-- Node9 -->
<g id="node9" class="node">
<title>Node9</title>
<g id="a_node9"><a xlink:href="classJoyButton.html#aa659d5a0860f5047862ca0761d8d775a" target="_top" xlink:title="Get 0 indexed number of SDL button index.">
<polygon fill="white" stroke="black" points="426.5,-152.5 426.5,-171.5 566.5,-171.5 566.5,-152.5 426.5,-152.5"/>
<text text-anchor="middle" x="496.5" y="-159.5" font-family="Helvetica,sans-Serif" font-size="10.00">JoyButton::getJoyNumber</text>
</a>
</g>
</g>
<!-- Node7&#45;&gt;Node9 -->
<g id="edge8" class="edge">
<title>Node7&#45;&gt;Node9</title>
<path fill="none" stroke="midnightblue" d="M374.24,-139.02C394.66,-142.89 416.29,-146.99 435.54,-150.64"/>
<polygon fill="midnightblue" stroke="midnightblue" points="434.89,-154.08 445.37,-152.5 436.2,-147.2 434.89,-154.08"/>
</g>
<!-- Node10 -->
<g id="node10" class="node">
<title>Node10</title>
<g id="a_node10"><a xlink:href="classJoyAxis.html#a9ceda991c13da3a99868acc436ed20f3" target="_top" xlink:title=" ">
<polygon fill="white" stroke="black" points="427.5,-114.5 427.5,-133.5 565.5,-133.5 565.5,-114.5 427.5,-114.5"/>
<text text-anchor="middle" x="496.5" y="-121.5" font-family="Helvetica,sans-Serif" font-size="10.00">JoyAxis::getRealJoyIndex</text>
</a>
</g>
</g>
<!-- Node7&#45;&gt;Node10 -->
<g id="edge9" class="edge">
<title>Node7&#45;&gt;Node10</title>
<path fill="none" stroke="midnightblue" d="M380.03,-124C392.37,-124 405.03,-124 417.23,-124"/>
<polygon fill="midnightblue" stroke="midnightblue" points="417.35,-127.5 427.35,-124 417.35,-120.5 417.35,-127.5"/>
</g>
<!-- Node11 -->
<g id="node11" class="node">
<title>Node11</title>
<g id="a_node11"><a xlink:href="classJoyButton.html#a39c9ccaf641bb8bf50b29d4c4e04c165" target="_top" xlink:title="Get a 1 indexed number of button.">
<polygon fill="white" stroke="black" points="416,-76.5 416,-95.5 577,-95.5 577,-76.5 416,-76.5"/>
<text text-anchor="middle" x="496.5" y="-83.5" font-family="Helvetica,sans-Serif" font-size="10.00">JoyButton::getRealJoyNumber</text>
</a>
</g>
</g>
<!-- Node7&#45;&gt;Node11 -->
<g id="edge10" class="edge">
<title>Node7&#45;&gt;Node11</title>
<path fill="none" stroke="midnightblue" d="M374.24,-108.98C394.66,-105.11 416.29,-101.01 435.54,-97.36"/>
<polygon fill="midnightblue" stroke="midnightblue" points="436.2,-100.8 445.37,-95.5 434.89,-93.92 436.2,-100.8"/>
</g>
<!-- Node12 -->
<g id="node12" class="node">
<title>Node12</title>
<g id="a_node12"><a xlink:href="classJoyButton.html#a20f9edd1da56435ce38da78f19eed411" target="_top" xlink:title=" ">
<polygon fill="white" stroke="black" points="438,-38.5 438,-57.5 555,-57.5 555,-38.5 438,-38.5"/>
<text text-anchor="middle" x="496.5" y="-45.5" font-family="Helvetica,sans-Serif" font-size="10.00">JoyButton::getVDPad</text>
</a>
</g>
</g>
<!-- Node7&#45;&gt;Node12 -->
<g id="edge11" class="edge">
<title>Node7&#45;&gt;Node12</title>
<path fill="none" stroke="midnightblue" d="M322.67,-108.96C346.76,-96.35 382.91,-78.61 416,-67 423.25,-64.46 430.99,-62.14 438.69,-60.07"/>
<polygon fill="midnightblue" stroke="midnightblue" points="439.56,-63.45 448.37,-57.57 437.82,-56.68 439.56,-63.45"/>
</g>
<!-- Node13 -->
<g id="node13" class="node">
<title>Node13</title>
<g id="a_node13"><a xlink:href="classVDPad.html#abf6c1b6613ad561aceb7998a7006a74f" target="_top" xlink:title=" ">
<polygon fill="white" stroke="black" points="431,-0.5 431,-19.5 562,-19.5 562,-0.5 431,-0.5"/>
<text text-anchor="middle" x="496.5" y="-7.5" font-family="Helvetica,sans-Serif" font-size="10.00">VDPad::removeVButton</text>
</a>
</g>
</g>
<!-- Node7&#45;&gt;Node13 -->
<g id="edge12" class="edge">
<title>Node7&#45;&gt;Node13</title>
<path fill="none" stroke="midnightblue" d="M309.93,-108.68C331.42,-87.53 373.19,-49.68 416,-29 420.95,-26.61 426.23,-24.5 431.61,-22.66"/>
<polygon fill="midnightblue" stroke="midnightblue" points="432.88,-25.93 441.38,-19.6 430.79,-19.25 432.88,-25.93"/>
</g>
</g>
</svg>
