<?xml version="1.0" encoding="UTF-8" standalone="no"?>
<!DOCTYPE svg PUBLIC "-//W3C//DTD SVG 1.1//EN"
 "http://www.w3.org/Graphics/SVG/1.1/DTD/svg11.dtd">
<!-- Generated by graphviz version 2.43.0 (0)
 -->
<!-- Title: JoyControlStick::calculateYAxisDistance Pages: 1 -->
<svg width="578pt" height="137pt"
 viewBox="0.00 0.00 578.00 137.00" xmlns="http://www.w3.org/2000/svg" xmlns:xlink="http://www.w3.org/1999/xlink">
<g id="graph0" class="graph" transform="scale(1 1) rotate(0) translate(4 133)">
<title>JoyControlStick::calculateYAxisDistance</title>
<polygon fill="white" stroke="transparent" points="-4,4 -4,-133 574,-133 574,4 -4,4"/>
<!-- Node1 -->
<g id="node1" class="node">
<title>Node1</title>
<g id="a_node1"><a xlink:title=" ">
<polygon fill="#bfbfbf" stroke="black" points="429,-49.5 429,-79.5 570,-79.5 570,-49.5 429,-49.5"/>
<text text-anchor="start" x="437" y="-67.5" font-family="Helvetica,sans-Serif" font-size="10.00">JoyControlStick::calculate</text>
<text text-anchor="middle" x="499.5" y="-56.5" font-family="Helvetica,sans-Serif" font-size="10.00">YAxisDistance</text>
</a>
</g>
</g>
<!-- Node2 -->
<g id="node2" class="node">
<title>Node2</title>
<g id="a_node2"><a xlink:href="classJoyControlStick.html#ac3091fa4cf9831e0b43ea0ad6611ff8d" target="_top" xlink:title=" ">
<polygon fill="white" stroke="black" points="225.5,-98.5 225.5,-128.5 366.5,-128.5 366.5,-98.5 225.5,-98.5"/>
<text text-anchor="start" x="233.5" y="-116.5" font-family="Helvetica,sans-Serif" font-size="10.00">JoyControlStick::calculate</text>
<text text-anchor="middle" x="296" y="-105.5" font-family="Helvetica,sans-Serif" font-size="10.00">AccelerationDistance</text>
</a>
</g>
</g>
<!-- Node1&#45;&gt;Node2 -->
<g id="edge1" class="edge">
<title>Node1&#45;&gt;Node2</title>
<path fill="none" stroke="midnightblue" d="M426.93,-81.9C404.64,-87.32 380.26,-93.25 358.71,-98.49"/>
<polygon fill="midnightblue" stroke="midnightblue" points="427.78,-85.3 436.67,-79.53 426.13,-78.5 427.78,-85.3"/>
</g>
<!-- Node4 -->
<g id="node4" class="node">
<title>Node4</title>
<g id="a_node4"><a xlink:href="classJoyControlStick.html#ac5b937badd1c088bec283d00e97cdb54" target="_top" xlink:title=" ">
<polygon fill="white" stroke="black" points="209.5,-49.5 209.5,-79.5 382.5,-79.5 382.5,-49.5 209.5,-49.5"/>
<text text-anchor="start" x="217.5" y="-67.5" font-family="Helvetica,sans-Serif" font-size="10.00">JoyControlStick::calculate</text>
<text text-anchor="middle" x="296" y="-56.5" font-family="Helvetica,sans-Serif" font-size="10.00">LastAccelerationButtonDistance</text>
</a>
</g>
</g>
<!-- Node1&#45;&gt;Node4 -->
<g id="edge3" class="edge">
<title>Node1&#45;&gt;Node4</title>
<path fill="none" stroke="midnightblue" d="M418.61,-64.5C406.79,-64.5 394.57,-64.5 382.64,-64.5"/>
<polygon fill="midnightblue" stroke="midnightblue" points="418.87,-68 428.87,-64.5 418.87,-61 418.87,-68"/>
</g>
<!-- Node6 -->
<g id="node6" class="node">
<title>Node6</title>
<g id="a_node6"><a xlink:href="classJoyControlStick.html#af3d500edee6291808903b8cccf833e9e" target="_top" xlink:title=" ">
<polygon fill="white" stroke="black" points="199,-0.5 199,-30.5 393,-30.5 393,-0.5 199,-0.5"/>
<text text-anchor="start" x="207" y="-18.5" font-family="Helvetica,sans-Serif" font-size="10.00">JoyControlStick::calculate</text>
<text text-anchor="middle" x="296" y="-7.5" font-family="Helvetica,sans-Serif" font-size="10.00">LastAccelerationDirectionalDistance</text>
</a>
</g>
</g>
<!-- Node1&#45;&gt;Node6 -->
<g id="edge5" class="edge">
<title>Node1&#45;&gt;Node6</title>
<path fill="none" stroke="midnightblue" d="M426.93,-47.1C404.64,-41.68 380.26,-35.75 358.71,-30.51"/>
<polygon fill="midnightblue" stroke="midnightblue" points="426.13,-50.5 436.67,-49.47 427.78,-43.7 426.13,-50.5"/>
</g>
<!-- Node3 -->
<g id="node3" class="node">
<title>Node3</title>
<g id="a_node3"><a xlink:href="classJoyControlStickButton.html#acf2da4c7a376cc7a580bf39ceff61361" target="_top" xlink:title=" ">
<polygon fill="white" stroke="black" points="10.5,-98.5 10.5,-128.5 152.5,-128.5 152.5,-98.5 10.5,-98.5"/>
<text text-anchor="start" x="18.5" y="-116.5" font-family="Helvetica,sans-Serif" font-size="10.00">JoyControlStickButton</text>
<text text-anchor="middle" x="81.5" y="-105.5" font-family="Helvetica,sans-Serif" font-size="10.00">::getAccelerationDistance</text>
</a>
</g>
</g>
<!-- Node2&#45;&gt;Node3 -->
<g id="edge2" class="edge">
<title>Node2&#45;&gt;Node3</title>
<path fill="none" stroke="midnightblue" d="M215.42,-113.5C194.78,-113.5 172.71,-113.5 152.6,-113.5"/>
<polygon fill="midnightblue" stroke="midnightblue" points="215.42,-117 225.42,-113.5 215.42,-110 215.42,-117"/>
</g>
<!-- Node5 -->
<g id="node5" class="node">
<title>Node5</title>
<g id="a_node5"><a xlink:href="classJoyControlStickButton.html#a87a8737f5be7e3ae5c2184302a5592db" target="_top" xlink:title=" ">
<polygon fill="white" stroke="black" points="0.5,-49.5 0.5,-79.5 162.5,-79.5 162.5,-49.5 0.5,-49.5"/>
<text text-anchor="start" x="8.5" y="-67.5" font-family="Helvetica,sans-Serif" font-size="10.00">JoyControlStickButton</text>
<text text-anchor="middle" x="81.5" y="-56.5" font-family="Helvetica,sans-Serif" font-size="10.00">::getLastAccelerationDistance</text>
</a>
</g>
</g>
<!-- Node4&#45;&gt;Node5 -->
<g id="edge4" class="edge">
<title>Node4&#45;&gt;Node5</title>
<path fill="none" stroke="midnightblue" d="M199.27,-64.5C187.04,-64.5 174.62,-64.5 162.68,-64.5"/>
<polygon fill="midnightblue" stroke="midnightblue" points="199.49,-68 209.49,-64.5 199.49,-61 199.49,-68"/>
</g>
<!-- Node7 -->
<g id="node7" class="node">
<title>Node7</title>
<g id="a_node7"><a xlink:href="classJoyControlStickModifierButton.html#a9b1b1ef20983233e1ab1328e00370aa9" target="_top" xlink:title=" ">
<polygon fill="white" stroke="black" points="0,-0.5 0,-30.5 163,-30.5 163,-0.5 0,-0.5"/>
<text text-anchor="start" x="8" y="-18.5" font-family="Helvetica,sans-Serif" font-size="10.00">JoyControlStickModifierButton</text>
<text text-anchor="middle" x="81.5" y="-7.5" font-family="Helvetica,sans-Serif" font-size="10.00">::getLastAccelerationDistance</text>
</a>
</g>
</g>
<!-- Node6&#45;&gt;Node7 -->
<g id="edge6" class="edge">
<title>Node6&#45;&gt;Node7</title>
<path fill="none" stroke="midnightblue" d="M188.66,-15.5C180.11,-15.5 171.55,-15.5 163.22,-15.5"/>
<polygon fill="midnightblue" stroke="midnightblue" points="188.7,-19 198.7,-15.5 188.7,-12 188.7,-19"/>
</g>
</g>
</svg>
