<?xml version="1.0" encoding="UTF-8" standalone="no"?>
<!DOCTYPE svg PUBLIC "-//W3C//DTD SVG 1.1//EN"
 "http://www.w3.org/Graphics/SVG/1.1/DTD/svg11.dtd">
<!-- Generated by graphviz version 2.43.0 (0)
 -->
<!-- Title: EditAllDefaultAutoProfileDialog::EditAllDefaultAutoProfileDialog Pages: 1 -->
<!--zoomable 200 -->
<svg id="main" version="1.1" xmlns="http://www.w3.org/2000/svg" xmlns:xlink="http://www.w3.org/1999/xlink" xml:space="preserve" onload="init(evt)">
<style type="text/css"><![CDATA[
.edge:hover path { stroke: red; }
.edge:hover polygon { stroke: red; fill: red; }
]]></style>
<script type="text/javascript"><![CDATA[
var edges = document.getElementsByTagName('g');
if (edges && edges.length) {
  for (var i=0;i<edges.length;i++) {
    if (edges[i].id.substr(0,4)=='edge') {
      edges[i].setAttribute('class','edge');
    }
  }
}
]]></script>
        <defs>
                <circle id="rim" cx="0" cy="0" r="7"/>
                <circle id="rim2" cx="0" cy="0" r="3.5"/>
                <g id="zoomPlus">
                        <use xlink:href="#rim" fill="#404040">
                                <set attributeName="fill" to="#808080" begin="zoomplus.mouseover" end="zoomplus.mouseout"/>
                        </use>
                        <path d="M-4,0h8M0,-4v8" fill="none" stroke="white" stroke-width="1.5" pointer-events="none"/>
                </g>
                <g id="zoomMin">
                        <use xlink:href="#rim" fill="#404040">
                                <set attributeName="fill" to="#808080" begin="zoomminus.mouseover" end="zoomminus.mouseout"/>
                        </use>
                        <path d="M-4,0h8" fill="none" stroke="white" stroke-width="1.5" pointer-events="none"/>
                </g>
                <g id="dirArrow">
                        <path fill="none" stroke="white" stroke-width="1.5" d="M0,-3.0v7 M-2.5,-0.5L0,-3.0L2.5,-0.5"/>
                </g>
               <g id="resetDef">
                       <use xlink:href="#rim2" fill="#404040">
                               <set attributeName="fill" to="#808080" begin="reset.mouseover" end="reset.mouseout"/>
                       </use>
               </g>
        </defs>

<script type="text/javascript">
var viewWidth = 633;
var viewHeight = 200;
var sectionId = 'dynsection-2';
</script>
<script xlink:href="svgpan.js"/>
<svg id="graph" class="graph">
<g id="viewport">
<title>EditAllDefaultAutoProfileDialog::EditAllDefaultAutoProfileDialog</title>
<polygon fill="white" stroke="transparent" points="-4,4 -4,-195.5 629,-195.5 629,4 -4,4"/>
<!-- Node1 -->
<g id="node1" class="node">
<title>Node1</title>
<g id="a_node1"><a xlink:title=" ">
<polygon fill="#bfbfbf" stroke="black" points="0,-106.5 0,-147.5 175,-147.5 175,-106.5 0,-106.5"/>
<text text-anchor="start" x="8" y="-135.5" font-family="Helvetica,sans-Serif" font-size="10.00">EditAllDefaultAutoProfile</text>
<text text-anchor="start" x="8" y="-124.5" font-family="Helvetica,sans-Serif" font-size="10.00">Dialog::EditAllDefaultAutoProfile</text>
<text text-anchor="middle" x="87.5" y="-113.5" font-family="Helvetica,sans-Serif" font-size="10.00">Dialog</text>
</a>
</g>
</g>
<!-- Node2 -->
<g id="node2" class="node">
<title>Node2</title>
<g id="a_node2"><a xlink:href="classAutoProfileInfo.html#a542720df3f705eb79255b4b85af7b1a5" target="_top" xlink:title=" ">
<polygon fill="white" stroke="black" points="234.5,-161 234.5,-191 375.5,-191 375.5,-161 234.5,-161"/>
<text text-anchor="start" x="242.5" y="-179" font-family="Helvetica,sans-Serif" font-size="10.00">AutoProfileInfo::getProfile</text>
<text text-anchor="middle" x="305" y="-168" font-family="Helvetica,sans-Serif" font-size="10.00">Location</text>
</a>
</g>
</g>
<!-- Node1&#45;&gt;Node2 -->
<g id="edge1" class="edge">
<title>Node1&#45;&gt;Node2</title>
<path fill="none" stroke="midnightblue" d="M175.22,-146.72C192.72,-150.7 210.99,-154.85 228.09,-158.74"/>
<polygon fill="midnightblue" stroke="midnightblue" points="227.48,-162.19 238,-160.99 229.03,-155.36 227.48,-162.19"/>
</g>
<!-- Node3 -->
<g id="node3" class="node">
<title>Node3</title>
<g id="a_node3"><a xlink:href="classEditAllDefaultAutoProfileDialog.html#a05fafdfea07a2b3ddbc09f828e187ab4" target="_top" xlink:title=" ">
<polygon fill="white" stroke="black" points="217,-112 217,-142 393,-142 393,-112 217,-112"/>
<text text-anchor="start" x="225" y="-130" font-family="Helvetica,sans-Serif" font-size="10.00">EditAllDefaultAutoProfile</text>
<text text-anchor="middle" x="305" y="-119" font-family="Helvetica,sans-Serif" font-size="10.00">Dialog::openProfileBrowseDialog</text>
</a>
</g>
</g>
<!-- Node1&#45;&gt;Node3 -->
<g id="edge2" class="edge">
<title>Node1&#45;&gt;Node3</title>
<path fill="none" stroke="midnightblue" d="M175.22,-127C185.59,-127 196.23,-127 206.74,-127"/>
<polygon fill="midnightblue" stroke="midnightblue" points="206.76,-130.5 216.76,-127 206.75,-123.5 206.76,-130.5"/>
</g>
<!-- Node5 -->
<g id="node5" class="node">
<title>Node5</title>
<g id="a_node5"><a xlink:href="classEditAllDefaultAutoProfileDialog.html#a00c1545bc58d1f7ff137990ef273574b" target="_top" xlink:title=" ">
<polygon fill="white" stroke="black" points="211,-55 211,-85 399,-85 399,-55 211,-55"/>
<text text-anchor="start" x="219" y="-73" font-family="Helvetica,sans-Serif" font-size="10.00">EditAllDefaultAutoProfile</text>
<text text-anchor="middle" x="305" y="-62" font-family="Helvetica,sans-Serif" font-size="10.00">Dialog::saveAutoProfileInformation</text>
</a>
</g>
</g>
<!-- Node1&#45;&gt;Node5 -->
<g id="edge4" class="edge">
<title>Node1&#45;&gt;Node5</title>
<path fill="none" stroke="midnightblue" d="M166.3,-106.42C189.61,-100.25 214.96,-93.55 237.48,-87.59"/>
<polygon fill="midnightblue" stroke="midnightblue" points="238.5,-90.94 247.27,-85 236.71,-84.18 238.5,-90.94"/>
</g>
<!-- Node4 -->
<g id="node4" class="node">
<title>Node4</title>
<g id="a_node4"><a xlink:href="namespacePadderCommon.html#a9034e2106269ccc67eb0ce52c40907d9" target="_top" xlink:title=" ">
<polygon fill="white" stroke="black" points="435,-126.5 435,-145.5 625,-145.5 625,-126.5 435,-126.5"/>
<text text-anchor="middle" x="530" y="-133.5" font-family="Helvetica,sans-Serif" font-size="10.00">PadderCommon::preferredProfileDir</text>
</a>
</g>
</g>
<!-- Node3&#45;&gt;Node4 -->
<g id="edge3" class="edge">
<title>Node3&#45;&gt;Node4</title>
<path fill="none" stroke="midnightblue" d="M393.18,-130.52C403.54,-130.94 414.21,-131.37 424.78,-131.79"/>
<polygon fill="midnightblue" stroke="midnightblue" points="424.75,-135.3 434.88,-132.2 425.03,-128.3 424.75,-135.3"/>
</g>
<!-- Node6 -->
<g id="node6" class="node">
<title>Node6</title>
<g id="a_node6"><a xlink:href="classAutoProfileInfo.html#a9268ba686a854dfefe57d4840daa171d" target="_top" xlink:title=" ">
<polygon fill="white" stroke="black" points="460,-88.5 460,-107.5 600,-107.5 600,-88.5 460,-88.5"/>
<text text-anchor="middle" x="530" y="-95.5" font-family="Helvetica,sans-Serif" font-size="10.00">AutoProfileInfo::setActive</text>
</a>
</g>
</g>
<!-- Node5&#45;&gt;Node6 -->
<g id="edge5" class="edge">
<title>Node5&#45;&gt;Node6</title>
<path fill="none" stroke="midnightblue" d="M399.28,-81.71C416.08,-83.82 433.45,-86 449.81,-88.06"/>
<polygon fill="midnightblue" stroke="midnightblue" points="449.49,-91.54 459.84,-89.32 450.36,-84.6 449.49,-91.54"/>
</g>
<!-- Node7 -->
<g id="node7" class="node">
<title>Node7</title>
<g id="a_node7"><a xlink:href="classAutoProfileInfo.html#a7b0185a8bf7465f368b9a0f14226d78f" target="_top" xlink:title=" ">
<polygon fill="white" stroke="black" points="460,-39 460,-69 600,-69 600,-39 460,-39"/>
<text text-anchor="start" x="468" y="-57" font-family="Helvetica,sans-Serif" font-size="10.00">AutoProfileInfo::setProfile</text>
<text text-anchor="middle" x="530" y="-46" font-family="Helvetica,sans-Serif" font-size="10.00">Location</text>
</a>
</g>
</g>
<!-- Node5&#45;&gt;Node7 -->
<g id="edge6" class="edge">
<title>Node5&#45;&gt;Node7</title>
<path fill="none" stroke="midnightblue" d="M399.28,-63.31C416.08,-62.1 433.45,-60.86 449.81,-59.68"/>
<polygon fill="midnightblue" stroke="midnightblue" points="450.12,-63.17 459.84,-58.96 449.62,-56.19 450.12,-63.17"/>
</g>
<!-- Node8 -->
<g id="node8" class="node">
<title>Node8</title>
<g id="a_node8"><a xlink:href="classAutoProfileInfo.html#aa0152b5c57f4a4abebfd1b2b54e61272" target="_top" xlink:title=" ">
<polygon fill="white" stroke="black" points="452.5,-0.5 452.5,-19.5 607.5,-19.5 607.5,-0.5 452.5,-0.5"/>
<text text-anchor="middle" x="530" y="-7.5" font-family="Helvetica,sans-Serif" font-size="10.00">AutoProfileInfo::setUniqueID</text>
</a>
</g>
</g>
<!-- Node5&#45;&gt;Node8 -->
<g id="edge7" class="edge">
<title>Node5&#45;&gt;Node8</title>
<path fill="none" stroke="midnightblue" d="M349.25,-54.96C374.14,-46.64 406.11,-36.49 435,-29 445.14,-26.37 455.97,-23.89 466.54,-21.64"/>
<polygon fill="midnightblue" stroke="midnightblue" points="467.49,-25.02 476.56,-19.55 466.06,-18.16 467.49,-25.02"/>
</g>
</g>
</svg>
        <g id="navigator" transform="translate(0 0)" fill="#404254">
                <rect fill="#f2f5e9" fill-opacity="0.5" stroke="#606060" stroke-width=".5" x="0" y="0" width="60" height="60"/>
                <use id="zoomplus" xlink:href="#zoomPlus" x="17" y="9" onmousedown="handleZoom(evt,'in')"/>
                <use id="zoomminus" xlink:href="#zoomMin" x="42" y="9" onmousedown="handleZoom(evt,'out')"/>
                <use id="reset" xlink:href="#resetDef" x="30" y="36" onmousedown="handleReset()"/>
                <g id="arrowUp" xlink:href="#dirArrow" transform="translate(30 24)" onmousedown="handlePan(0,-1)">
                  <use xlink:href="#rim" fill="#404040">
                        <set attributeName="fill" to="#808080" begin="arrowUp.mouseover" end="arrowUp.mouseout"/>
                  </use>
                  <path fill="none" stroke="white" stroke-width="1.5" d="M0,-3.0v7 M-2.5,-0.5L0,-3.0L2.5,-0.5"/>
                </g>
                <g id="arrowRight" xlink:href="#dirArrow" transform="rotate(90) translate(36 -43)" onmousedown="handlePan(1,0)">
                  <use xlink:href="#rim" fill="#404040">
                        <set attributeName="fill" to="#808080" begin="arrowRight.mouseover" end="arrowRight.mouseout"/>
                  </use>
                  <path fill="none" stroke="white" stroke-width="1.5" d="M0,-3.0v7 M-2.5,-0.5L0,-3.0L2.5,-0.5"/>
                </g>
                <g id="arrowDown" xlink:href="#dirArrow" transform="rotate(180) translate(-30 -48)" onmousedown="handlePan(0,1)">
                  <use xlink:href="#rim" fill="#404040">
                        <set attributeName="fill" to="#808080" begin="arrowDown.mouseover" end="arrowDown.mouseout"/>
                  </use>
                  <path fill="none" stroke="white" stroke-width="1.5" d="M0,-3.0v7 M-2.5,-0.5L0,-3.0L2.5,-0.5"/>
                </g>
                <g id="arrowLeft" xlink:href="#dirArrow" transform="rotate(270) translate(-36 17)" onmousedown="handlePan(-1,0)">
                  <use xlink:href="#rim" fill="#404040">
                        <set attributeName="fill" to="#808080" begin="arrowLeft.mouseover" end="arrowLeft.mouseout"/>
                  </use>
                  <path fill="none" stroke="white" stroke-width="1.5" d="M0,-3.0v7 M-2.5,-0.5L0,-3.0L2.5,-0.5"/>
                </g>
        </g>
        <svg viewBox="0 0 15 15" width="100%" height="30px" preserveAspectRatio="xMaxYMin meet">
         <g id="arrow_out" transform="scale(0.3 0.3)">
          <a xlink:href="classEditAllDefaultAutoProfileDialog_a104396bb8c9224cf6dca14d79bba10ba_cgraph_org.svg" target="_base">
           <rect id="button" ry="5" rx="5" y="6" x="6" height="38" width="38"
                fill="#f2f5e9" fill-opacity="0.5" stroke="#606060" stroke-width="1.0"/>
           <path id="arrow"
             d="M 11.500037,31.436501 C 11.940474,20.09759 22.043105,11.32322 32.158766,21.979434 L 37.068811,17.246167 C 37.068811,17.246167 37.088388,32 37.088388,32 L 22.160133,31.978069 C 22.160133,31.978069 26.997745,27.140456 26.997745,27.140456 C 18.528582,18.264221 13.291696,25.230495 11.500037,31.436501 z"
             style="fill:#404040;"/>
          </a>
         </g>
        </svg>
</svg>
