<?xml version="1.0" encoding="UTF-8" standalone="no"?>
<!DOCTYPE svg PUBLIC "-//W3C//DTD SVG 1.1//EN"
 "http://www.w3.org/Graphics/SVG/1.1/DTD/svg11.dtd">
<!-- Generated by graphviz version 2.43.0 (0)
 -->
<!-- Title: JoyControlStick::getCalibration Pages: 1 -->
<svg width="719pt" height="56pt"
 viewBox="0.00 0.00 719.00 55.50" xmlns="http://www.w3.org/2000/svg" xmlns:xlink="http://www.w3.org/1999/xlink">
<g id="graph0" class="graph" transform="scale(1 1) rotate(0) translate(4 51.5)">
<title>JoyControlStick::getCalibration</title>
<polygon fill="white" stroke="transparent" points="-4,4 -4,-51.5 715,-51.5 715,4 -4,4"/>
<!-- Node1 -->
<g id="node1" class="node">
<title>Node1</title>
<g id="a_node1"><a xlink:title="Reads the calibration values of both stick axes.">
<polygon fill="#bfbfbf" stroke="black" points="545,-28 545,-47 711,-47 711,-28 545,-28"/>
<text text-anchor="middle" x="628" y="-35" font-family="Helvetica,sans-Serif" font-size="10.00">JoyControlStick::getCalibration</text>
</a>
</g>
</g>
<!-- Node2 -->
<g id="node2" class="node">
<title>Node2</title>
<g id="a_node2"><a xlink:href="classCalibration.html#acdfae27f432841500559e7d864d6422b" target="_top" xlink:title="Prepares calibration for the selected device type. Show all used values and labels and connect button...">
<polygon fill="white" stroke="black" points="354,-28 354,-47 509,-47 509,-28 354,-28"/>
<text text-anchor="middle" x="431.5" y="-35" font-family="Helvetica,sans-Serif" font-size="10.00">Calibration::selectTypeIndex</text>
</a>
</g>
</g>
<!-- Node1&#45;&gt;Node2 -->
<g id="edge1" class="edge">
<title>Node1&#45;&gt;Node2</title>
<path fill="none" stroke="midnightblue" d="M534.77,-37.5C526.19,-37.5 517.56,-37.5 509.15,-37.5"/>
<polygon fill="midnightblue" stroke="midnightblue" points="534.8,-41 544.8,-37.5 534.8,-34 534.8,-41"/>
</g>
<!-- Node3 -->
<g id="node3" class="node">
<title>Node3</title>
<g id="a_node3"><a xlink:href="classCalibration.html#afc519f1523975fba078f7bbb53e12ea2" target="_top" xlink:title=" ">
<polygon fill="white" stroke="black" points="0,-28 0,-47 129,-47 129,-28 0,-28"/>
<text text-anchor="middle" x="64.5" y="-35" font-family="Helvetica,sans-Serif" font-size="10.00">Calibration::Calibration</text>
</a>
</g>
</g>
<!-- Node2&#45;&gt;Node3 -->
<g id="edge2" class="edge">
<title>Node2&#45;&gt;Node3</title>
<path fill="none" stroke="midnightblue" d="M343.76,-40.04C335.06,-40.23 326.35,-40.39 318,-40.5 250.01,-41.41 232.99,-41.52 165,-40.5 153.42,-40.33 141.09,-40.04 129.19,-39.71"/>
<polygon fill="midnightblue" stroke="midnightblue" points="344.03,-43.54 353.95,-39.82 343.88,-36.54 344.03,-43.54"/>
</g>
<!-- Node4 -->
<g id="node4" class="node">
<title>Node4</title>
<g id="a_node4"><a xlink:href="classCalibration.html#ae04e7156bcec45c28e59864a4a650d37" target="_top" xlink:title="Device change event handler. Asks for confirmation if there are unsaved changes.">
<polygon fill="white" stroke="black" points="165,-0.5 165,-30.5 318,-30.5 318,-0.5 165,-0.5"/>
<text text-anchor="start" x="173" y="-18.5" font-family="Helvetica,sans-Serif" font-size="10.00">Calibration::deviceSelection</text>
<text text-anchor="middle" x="241.5" y="-7.5" font-family="Helvetica,sans-Serif" font-size="10.00">Changed</text>
</a>
</g>
</g>
<!-- Node2&#45;&gt;Node4 -->
<g id="edge3" class="edge">
<title>Node2&#45;&gt;Node4</title>
<path fill="none" stroke="midnightblue" d="M343.75,-27.35C335.18,-26.35 326.53,-25.33 318.08,-24.34"/>
<polygon fill="midnightblue" stroke="midnightblue" points="343.42,-30.83 353.76,-28.52 344.24,-23.88 343.42,-30.83"/>
</g>
<!-- Node4&#45;&gt;Node3 -->
<g id="edge4" class="edge">
<title>Node4&#45;&gt;Node3</title>
<path fill="none" stroke="midnightblue" d="M154.66,-26.29C146.02,-27.38 137.37,-28.47 129.03,-29.51"/>
<polygon fill="midnightblue" stroke="midnightblue" points="155.27,-29.74 164.76,-25.02 154.4,-22.8 155.27,-29.74"/>
</g>
</g>
</svg>
