<?xml version="1.0" encoding="UTF-8" standalone="no"?>
<!DOCTYPE svg PUBLIC "-//W3C//DTD SVG 1.1//EN"
 "http://www.w3.org/Graphics/SVG/1.1/DTD/svg11.dtd">
<!-- Generated by graphviz version 2.43.0 (0)
 -->
<!-- Title: AutoProfileInfo::setPartialState Pages: 1 -->
<!--zoomable 176 -->
<svg id="main" version="1.1" xmlns="http://www.w3.org/2000/svg" xmlns:xlink="http://www.w3.org/1999/xlink" xml:space="preserve" onload="init(evt)">
<style type="text/css"><![CDATA[
.edge:hover path { stroke: red; }
.edge:hover polygon { stroke: red; fill: red; }
]]></style>
<script type="text/javascript"><![CDATA[
var edges = document.getElementsByTagName('g');
if (edges && edges.length) {
  for (var i=0;i<edges.length;i++) {
    if (edges[i].id.substr(0,4)=='edge') {
      edges[i].setAttribute('class','edge');
    }
  }
}
]]></script>
        <defs>
                <circle id="rim" cx="0" cy="0" r="7"/>
                <circle id="rim2" cx="0" cy="0" r="3.5"/>
                <g id="zoomPlus">
                        <use xlink:href="#rim" fill="#404040">
                                <set attributeName="fill" to="#808080" begin="zoomplus.mouseover" end="zoomplus.mouseout"/>
                        </use>
                        <path d="M-4,0h8M0,-4v8" fill="none" stroke="white" stroke-width="1.5" pointer-events="none"/>
                </g>
                <g id="zoomMin">
                        <use xlink:href="#rim" fill="#404040">
                                <set attributeName="fill" to="#808080" begin="zoomminus.mouseover" end="zoomminus.mouseout"/>
                        </use>
                        <path d="M-4,0h8" fill="none" stroke="white" stroke-width="1.5" pointer-events="none"/>
                </g>
                <g id="dirArrow">
                        <path fill="none" stroke="white" stroke-width="1.5" d="M0,-3.0v7 M-2.5,-0.5L0,-3.0L2.5,-0.5"/>
                </g>
               <g id="resetDef">
                       <use xlink:href="#rim2" fill="#404040">
                               <set attributeName="fill" to="#808080" begin="reset.mouseover" end="reset.mouseout"/>
                       </use>
               </g>
        </defs>

<script type="text/javascript">
var viewWidth = 744;
var viewHeight = 176;
var sectionId = 'dynsection-18';
</script>
<script xlink:href="svgpan.js"/>
<svg id="graph" class="graph">
<g id="viewport">
<title>AutoProfileInfo::setPartialState</title>
<polygon fill="white" stroke="transparent" points="-4,4 -4,-171.5 740,-171.5 740,4 -4,4"/>
<!-- Node1 -->
<g id="node1" class="node">
<title>Node1</title>
<g id="a_node1"><a xlink:title=" ">
<polygon fill="#bfbfbf" stroke="black" points="596,-98.5 596,-128.5 736,-128.5 736,-98.5 596,-98.5"/>
<text text-anchor="start" x="604" y="-116.5" font-family="Helvetica,sans-Serif" font-size="10.00">AutoProfileInfo::setPartial</text>
<text text-anchor="middle" x="666" y="-105.5" font-family="Helvetica,sans-Serif" font-size="10.00">State</text>
</a>
</g>
</g>
<!-- Node2 -->
<g id="node2" class="node">
<title>Node2</title>
<g id="a_node2"><a xlink:href="classAutoProfileInfo.html#a106af1726822576971ff86c3d7c0aa8f" target="_top" xlink:title=" ">
<polygon fill="white" stroke="black" points="393,-148 393,-167 560,-167 560,-148 393,-148"/>
<text text-anchor="middle" x="476.5" y="-155" font-family="Helvetica,sans-Serif" font-size="10.00">AutoProfileInfo::AutoProfileInfo</text>
</a>
</g>
</g>
<!-- Node1&#45;&gt;Node2 -->
<g id="edge1" class="edge">
<title>Node1&#45;&gt;Node2</title>
<path fill="none" stroke="midnightblue" d="M592.39,-130.86C581.54,-133.44 570.48,-136.05 560,-138.5 546.69,-141.62 532.16,-144.98 519.06,-147.99"/>
<polygon fill="midnightblue" stroke="midnightblue" points="593.36,-134.23 602.28,-128.51 591.74,-127.42 593.36,-134.23"/>
</g>
<!-- Node3 -->
<g id="node3" class="node">
<title>Node3</title>
<g id="a_node3"><a xlink:href="classAddEditAutoProfileDialog.html#a6c236891f9ad9def8e162a795c6cc73b" target="_top" xlink:title=" ">
<polygon fill="white" stroke="black" points="398.5,-98.5 398.5,-128.5 554.5,-128.5 554.5,-98.5 398.5,-98.5"/>
<text text-anchor="start" x="406.5" y="-116.5" font-family="Helvetica,sans-Serif" font-size="10.00">AddEditAutoProfileDialog</text>
<text text-anchor="middle" x="476.5" y="-105.5" font-family="Helvetica,sans-Serif" font-size="10.00">::saveAutoProfileInformation</text>
</a>
</g>
</g>
<!-- Node1&#45;&gt;Node3 -->
<g id="edge2" class="edge">
<title>Node1&#45;&gt;Node3</title>
<path fill="none" stroke="midnightblue" d="M585.76,-113.5C575.44,-113.5 564.88,-113.5 554.59,-113.5"/>
<polygon fill="midnightblue" stroke="midnightblue" points="585.98,-117 595.98,-113.5 585.98,-110 585.98,-117"/>
</g>
<!-- Node5 -->
<g id="node5" class="node">
<title>Node5</title>
<g id="a_node5"><a xlink:href="classAutoProfileWatcher.html#a561af8319ef8031986ac0eaee221c6a3" target="_top" xlink:title=" ">
<polygon fill="white" stroke="black" points="409.5,-49.5 409.5,-79.5 543.5,-79.5 543.5,-49.5 409.5,-49.5"/>
<text text-anchor="start" x="417.5" y="-67.5" font-family="Helvetica,sans-Serif" font-size="10.00">AutoProfileWatcher</text>
<text text-anchor="middle" x="476.5" y="-56.5" font-family="Helvetica,sans-Serif" font-size="10.00">::syncProfileAssignment</text>
</a>
</g>
</g>
<!-- Node1&#45;&gt;Node5 -->
<g id="edge4" class="edge">
<title>Node1&#45;&gt;Node5</title>
<path fill="none" stroke="midnightblue" d="M597.57,-95.88C577.05,-90.52 554.71,-84.68 534.92,-79.51"/>
<polygon fill="midnightblue" stroke="midnightblue" points="596.91,-99.32 607.47,-98.47 598.68,-92.55 596.91,-99.32"/>
</g>
<!-- Node4 -->
<g id="node4" class="node">
<title>Node4</title>
<g id="a_node4"><a xlink:href="classAddEditAutoProfileDialog.html#a518993ac329de2e2bee5eeb392d124ec" target="_top" xlink:title=" ">
<polygon fill="white" stroke="black" points="198,-98.5 198,-128.5 343,-128.5 343,-98.5 198,-98.5"/>
<text text-anchor="start" x="206" y="-116.5" font-family="Helvetica,sans-Serif" font-size="10.00">AddEditAutoProfileDialog</text>
<text text-anchor="middle" x="270.5" y="-105.5" font-family="Helvetica,sans-Serif" font-size="10.00">::AddEditAutoProfileDialog</text>
</a>
</g>
</g>
<!-- Node3&#45;&gt;Node4 -->
<g id="edge3" class="edge">
<title>Node3&#45;&gt;Node4</title>
<path fill="none" stroke="midnightblue" d="M388.06,-113.5C373.03,-113.5 357.57,-113.5 343.02,-113.5"/>
<polygon fill="midnightblue" stroke="midnightblue" points="388.38,-117 398.38,-113.5 388.38,-110 388.38,-117"/>
</g>
<!-- Node6 -->
<g id="node6" class="node">
<title>Node6</title>
<g id="a_node6"><a xlink:href="classAutoProfileWatcher.html#a6c9832eb02480c6909f49cbb05d5113c" target="_top" xlink:title=" ">
<polygon fill="white" stroke="black" points="212.5,-49.5 212.5,-79.5 328.5,-79.5 328.5,-49.5 212.5,-49.5"/>
<text text-anchor="start" x="220.5" y="-67.5" font-family="Helvetica,sans-Serif" font-size="10.00">AutoProfileWatcher</text>
<text text-anchor="middle" x="270.5" y="-56.5" font-family="Helvetica,sans-Serif" font-size="10.00">::AutoProfileWatcher</text>
</a>
</g>
</g>
<!-- Node5&#45;&gt;Node6 -->
<g id="edge5" class="edge">
<title>Node5&#45;&gt;Node6</title>
<path fill="none" stroke="midnightblue" d="M399.07,-64.5C375.8,-64.5 350.62,-64.5 328.83,-64.5"/>
<polygon fill="midnightblue" stroke="midnightblue" points="399.27,-68 409.27,-64.5 399.27,-61 399.27,-68"/>
</g>
<!-- Node7 -->
<g id="node7" class="node">
<title>Node7</title>
<g id="a_node7"><a xlink:href="classMainWindow.html#ae9f72ff45056908317963a1e7fa634a0" target="_top" xlink:title="Build list of current input devices and pass it to settings dialog instance. Open Settings dialog.">
<polygon fill="white" stroke="black" points="184,-0.5 184,-30.5 357,-30.5 357,-0.5 184,-0.5"/>
<text text-anchor="start" x="192" y="-18.5" font-family="Helvetica,sans-Serif" font-size="10.00">MainWindow::openMainSettings</text>
<text text-anchor="middle" x="270.5" y="-7.5" font-family="Helvetica,sans-Serif" font-size="10.00">Dialog</text>
</a>
</g>
</g>
<!-- Node5&#45;&gt;Node7 -->
<g id="edge6" class="edge">
<title>Node5&#45;&gt;Node7</title>
<path fill="none" stroke="midnightblue" d="M403.04,-47.1C380.48,-41.68 355.8,-35.75 333.97,-30.51"/>
<polygon fill="midnightblue" stroke="midnightblue" points="402.37,-50.53 412.91,-49.47 404,-43.73 402.37,-50.53"/>
</g>
<!-- Node8 -->
<g id="node8" class="node">
<title>Node8</title>
<g id="a_node8"><a xlink:href="classMainWindow.html#a2f0c03d3d51748ab794e698322110614" target="_top" xlink:title=" ">
<polygon fill="white" stroke="black" points="0,-6 0,-25 148,-25 148,-6 0,-6"/>
<text text-anchor="middle" x="74" y="-13" font-family="Helvetica,sans-Serif" font-size="10.00">MainWindow::MainWindow</text>
</a>
</g>
</g>
<!-- Node7&#45;&gt;Node8 -->
<g id="edge7" class="edge">
<title>Node7&#45;&gt;Node8</title>
<path fill="none" stroke="midnightblue" d="M173.81,-15.5C165.18,-15.5 156.54,-15.5 148.15,-15.5"/>
<polygon fill="midnightblue" stroke="midnightblue" points="173.91,-19 183.91,-15.5 173.91,-12 173.91,-19"/>
</g>
</g>
</svg>
        <g id="navigator" transform="translate(0 0)" fill="#404254">
                <rect fill="#f2f5e9" fill-opacity="0.5" stroke="#606060" stroke-width=".5" x="0" y="0" width="60" height="60"/>
                <use id="zoomplus" xlink:href="#zoomPlus" x="17" y="9" onmousedown="handleZoom(evt,'in')"/>
                <use id="zoomminus" xlink:href="#zoomMin" x="42" y="9" onmousedown="handleZoom(evt,'out')"/>
                <use id="reset" xlink:href="#resetDef" x="30" y="36" onmousedown="handleReset()"/>
                <g id="arrowUp" xlink:href="#dirArrow" transform="translate(30 24)" onmousedown="handlePan(0,-1)">
                  <use xlink:href="#rim" fill="#404040">
                        <set attributeName="fill" to="#808080" begin="arrowUp.mouseover" end="arrowUp.mouseout"/>
                  </use>
                  <path fill="none" stroke="white" stroke-width="1.5" d="M0,-3.0v7 M-2.5,-0.5L0,-3.0L2.5,-0.5"/>
                </g>
                <g id="arrowRight" xlink:href="#dirArrow" transform="rotate(90) translate(36 -43)" onmousedown="handlePan(1,0)">
                  <use xlink:href="#rim" fill="#404040">
                        <set attributeName="fill" to="#808080" begin="arrowRight.mouseover" end="arrowRight.mouseout"/>
                  </use>
                  <path fill="none" stroke="white" stroke-width="1.5" d="M0,-3.0v7 M-2.5,-0.5L0,-3.0L2.5,-0.5"/>
                </g>
                <g id="arrowDown" xlink:href="#dirArrow" transform="rotate(180) translate(-30 -48)" onmousedown="handlePan(0,1)">
                  <use xlink:href="#rim" fill="#404040">
                        <set attributeName="fill" to="#808080" begin="arrowDown.mouseover" end="arrowDown.mouseout"/>
                  </use>
                  <path fill="none" stroke="white" stroke-width="1.5" d="M0,-3.0v7 M-2.5,-0.5L0,-3.0L2.5,-0.5"/>
                </g>
                <g id="arrowLeft" xlink:href="#dirArrow" transform="rotate(270) translate(-36 17)" onmousedown="handlePan(-1,0)">
                  <use xlink:href="#rim" fill="#404040">
                        <set attributeName="fill" to="#808080" begin="arrowLeft.mouseover" end="arrowLeft.mouseout"/>
                  </use>
                  <path fill="none" stroke="white" stroke-width="1.5" d="M0,-3.0v7 M-2.5,-0.5L0,-3.0L2.5,-0.5"/>
                </g>
        </g>
        <svg viewBox="0 0 15 15" width="100%" height="30px" preserveAspectRatio="xMaxYMin meet">
         <g id="arrow_out" transform="scale(0.3 0.3)">
          <a xlink:href="classAutoProfileInfo_a1d36951304a4e5da913e9673f2d587d8_icgraph_org.svg" target="_base">
           <rect id="button" ry="5" rx="5" y="6" x="6" height="38" width="38"
                fill="#f2f5e9" fill-opacity="0.5" stroke="#606060" stroke-width="1.0"/>
           <path id="arrow"
             d="M 11.500037,31.436501 C 11.940474,20.09759 22.043105,11.32322 32.158766,21.979434 L 37.068811,17.246167 C 37.068811,17.246167 37.088388,32 37.088388,32 L 22.160133,31.978069 C 22.160133,31.978069 26.997745,27.140456 26.997745,27.140456 C 18.528582,18.264221 13.291696,25.230495 11.500037,31.436501 z"
             style="fill:#404040;"/>
          </a>
         </g>
        </svg>
</svg>
