<?xml version="1.0" encoding="UTF-8" standalone="no"?>
<!DOCTYPE svg PUBLIC "-//W3C//DTD SVG 1.1//EN"
 "http://www.w3.org/Graphics/SVG/1.1/DTD/svg11.dtd">
<!-- Generated by graphviz version 2.43.0 (0)
 -->
<!-- Title: JoyButton::isRelativeSpring Pages: 1 -->
<svg width="951pt" height="361pt"
 viewBox="0.00 0.00 951.00 361.00" xmlns="http://www.w3.org/2000/svg" xmlns:xlink="http://www.w3.org/1999/xlink">
<g id="graph0" class="graph" transform="scale(1 1) rotate(0) translate(4 357)">
<title>JoyButton::isRelativeSpring</title>
<polygon fill="white" stroke="transparent" points="-4,4 -4,-357 947,-357 947,4 -4,4"/>
<!-- Node1 -->
<g id="node1" class="node">
<title>Node1</title>
<g id="a_node1"><a xlink:title=" ">
<polygon fill="#bfbfbf" stroke="black" points="794,-207.5 794,-226.5 943,-226.5 943,-207.5 794,-207.5"/>
<text text-anchor="middle" x="868.5" y="-214.5" font-family="Helvetica,sans-Serif" font-size="10.00">JoyButton::isRelativeSpring</text>
</a>
</g>
</g>
<!-- Node2 -->
<g id="node2" class="node">
<title>Node2</title>
<g id="a_node2"><a xlink:href="classJoyControlStick.html#aea9909e64a52f95d4ae9f1c8ca1a3768" target="_top" xlink:title=" ">
<polygon fill="white" stroke="black" points="606,-311 606,-341 752,-341 752,-311 606,-311"/>
<text text-anchor="start" x="614" y="-329" font-family="Helvetica,sans-Serif" font-size="10.00">JoyControlStick::isRelative</text>
<text text-anchor="middle" x="679" y="-318" font-family="Helvetica,sans-Serif" font-size="10.00">Spring</text>
</a>
</g>
</g>
<!-- Node1&#45;&gt;Node2 -->
<g id="edge1" class="edge">
<title>Node1&#45;&gt;Node2</title>
<path fill="none" stroke="midnightblue" d="M848.48,-233.07C827.39,-250.31 791.88,-277.66 758,-296 747.66,-301.59 736.06,-306.65 725.03,-310.95"/>
<polygon fill="midnightblue" stroke="midnightblue" points="850.85,-235.65 856.33,-226.58 846.39,-230.26 850.85,-235.65"/>
</g>
<!-- Node4 -->
<g id="node4" class="node">
<title>Node4</title>
<g id="a_node4"><a xlink:href="classJoyDPad.html#a20e4100b10190828486a8b6674f9d7cd" target="_top" xlink:title=" ">
<polygon fill="white" stroke="black" points="608,-267.5 608,-286.5 750,-286.5 750,-267.5 608,-267.5"/>
<text text-anchor="middle" x="679" y="-274.5" font-family="Helvetica,sans-Serif" font-size="10.00">JoyDPad::isRelativeSpring</text>
</a>
</g>
</g>
<!-- Node1&#45;&gt;Node4 -->
<g id="edge3" class="edge">
<title>Node1&#45;&gt;Node4</title>
<path fill="none" stroke="midnightblue" d="M834.93,-230.36C813.33,-238.93 784.25,-249.92 758,-258 746.81,-261.44 734.57,-264.67 723.16,-267.46"/>
<polygon fill="midnightblue" stroke="midnightblue" points="836.3,-233.58 844.28,-226.62 833.7,-227.08 836.3,-233.58"/>
</g>
<!-- Node6 -->
<g id="node6" class="node">
<title>Node6</title>
<g id="a_node6"><a xlink:href="classJoyAxis.html#a48414a544c8ac8bb9523f8ead79158f7" target="_top" xlink:title=" ">
<polygon fill="white" stroke="black" points="610,-229.5 610,-248.5 748,-248.5 748,-229.5 610,-229.5"/>
<text text-anchor="middle" x="679" y="-236.5" font-family="Helvetica,sans-Serif" font-size="10.00">JoyAxis::isRelativeSpring</text>
</a>
</g>
</g>
<!-- Node1&#45;&gt;Node6 -->
<g id="edge5" class="edge">
<title>Node1&#45;&gt;Node6</title>
<path fill="none" stroke="midnightblue" d="M783.95,-226.8C771.98,-228.21 759.78,-229.64 748.16,-231"/>
<polygon fill="midnightblue" stroke="midnightblue" points="784.41,-230.27 793.93,-225.63 783.59,-223.32 784.41,-230.27"/>
</g>
<!-- Node8 -->
<g id="node8" class="node">
<title>Node8</title>
<g id="a_node8"><a xlink:href="classMouseButtonSettingsDialog.html#a181bfdf388907056ec492d58d85f5d34" target="_top" xlink:title=" ">
<polygon fill="white" stroke="black" points="600,-180 600,-210 758,-210 758,-180 600,-180"/>
<text text-anchor="start" x="608" y="-198" font-family="Helvetica,sans-Serif" font-size="10.00">MouseButtonSettingsDialog</text>
<text text-anchor="middle" x="679" y="-187" font-family="Helvetica,sans-Serif" font-size="10.00">::MouseButtonSettingsDialog</text>
</a>
</g>
</g>
<!-- Node1&#45;&gt;Node8 -->
<g id="edge7" class="edge">
<title>Node1&#45;&gt;Node8</title>
<path fill="none" stroke="midnightblue" d="M783.98,-207.2C775.44,-206.2 766.78,-205.18 758.3,-204.19"/>
<polygon fill="midnightblue" stroke="midnightblue" points="783.59,-210.68 793.93,-208.37 784.41,-203.73 783.59,-210.68"/>
</g>
<!-- Node9 -->
<g id="node9" class="node">
<title>Node9</title>
<g id="a_node9"><a xlink:href="classJoyButtonXml.html#a9d7b2a6324a2f8fe4f424f78aa43d261" target="_top" xlink:title=" ">
<polygon fill="white" stroke="black" points="607.5,-131 607.5,-161 750.5,-161 750.5,-131 607.5,-131"/>
<text text-anchor="start" x="615.5" y="-149" font-family="Helvetica,sans-Serif" font-size="10.00">JoyButtonXml::readButton</text>
<text text-anchor="middle" x="679" y="-138" font-family="Helvetica,sans-Serif" font-size="10.00">Config</text>
</a>
</g>
</g>
<!-- Node1&#45;&gt;Node9 -->
<g id="edge8" class="edge">
<title>Node1&#45;&gt;Node9</title>
<path fill="none" stroke="midnightblue" d="M836.93,-203.31C815.12,-193.75 785,-180.98 758,-171 748.8,-167.6 738.89,-164.22 729.32,-161.09"/>
<polygon fill="midnightblue" stroke="midnightblue" points="835.76,-206.62 846.32,-207.45 838.58,-200.21 835.76,-206.62"/>
</g>
<!-- Node14 -->
<g id="node14" class="node">
<title>Node14</title>
<g id="a_node14"><a xlink:href="classJoyButtonXml.html#a766e87947104bfd54fc15b96b267ebdd" target="_top" xlink:title=" ">
<polygon fill="white" stroke="black" points="606.5,-76.5 606.5,-95.5 751.5,-95.5 751.5,-76.5 606.5,-76.5"/>
<text text-anchor="middle" x="679" y="-83.5" font-family="Helvetica,sans-Serif" font-size="10.00">JoyButtonXml::writeConfig</text>
</a>
</g>
</g>
<!-- Node1&#45;&gt;Node14 -->
<g id="edge14" class="edge">
<title>Node1&#45;&gt;Node14</title>
<path fill="none" stroke="midnightblue" d="M851.04,-200.04C830.6,-179.64 794.02,-145.27 758,-122 741.46,-111.32 721.24,-102.08 705.53,-95.64"/>
<polygon fill="midnightblue" stroke="midnightblue" points="848.76,-202.71 858.28,-207.36 853.74,-197.79 848.76,-202.71"/>
</g>
<!-- Node3 -->
<g id="node3" class="node">
<title>Node3</title>
<g id="a_node3"><a xlink:href="classMouseControlStickSettingsDialog.html#aac9d5ef09dced4cee0df95d99ae13369" target="_top" xlink:title=" ">
<polygon fill="white" stroke="black" points="379,-311.5 379,-352.5 564,-352.5 564,-311.5 379,-311.5"/>
<text text-anchor="start" x="387" y="-340.5" font-family="Helvetica,sans-Serif" font-size="10.00">MouseControlStickSettings</text>
<text text-anchor="start" x="387" y="-329.5" font-family="Helvetica,sans-Serif" font-size="10.00">Dialog::MouseControlStickSettings</text>
<text text-anchor="middle" x="471.5" y="-318.5" font-family="Helvetica,sans-Serif" font-size="10.00">Dialog</text>
</a>
</g>
</g>
<!-- Node2&#45;&gt;Node3 -->
<g id="edge2" class="edge">
<title>Node2&#45;&gt;Node3</title>
<path fill="none" stroke="midnightblue" d="M595.65,-328.4C585.35,-328.71 574.76,-329.01 564.33,-329.32"/>
<polygon fill="midnightblue" stroke="midnightblue" points="595.94,-331.9 605.84,-328.11 595.74,-324.9 595.94,-331.9"/>
</g>
<!-- Node5 -->
<g id="node5" class="node">
<title>Node5</title>
<g id="a_node5"><a xlink:href="classMouseDPadSettingsDialog.html#a51ae7b4e5b371e35d4f470787f5fc846" target="_top" xlink:title=" ">
<polygon fill="white" stroke="black" points="396,-262 396,-292 547,-292 547,-262 396,-262"/>
<text text-anchor="start" x="404" y="-280" font-family="Helvetica,sans-Serif" font-size="10.00">MouseDPadSettingsDialog</text>
<text text-anchor="middle" x="471.5" y="-269" font-family="Helvetica,sans-Serif" font-size="10.00">::MouseDPadSettingsDialog</text>
</a>
</g>
</g>
<!-- Node4&#45;&gt;Node5 -->
<g id="edge4" class="edge">
<title>Node4&#45;&gt;Node5</title>
<path fill="none" stroke="midnightblue" d="M597.64,-277C581.05,-277 563.63,-277 547.24,-277"/>
<polygon fill="midnightblue" stroke="midnightblue" points="597.85,-280.5 607.85,-277 597.85,-273.5 597.85,-280.5"/>
</g>
<!-- Node7 -->
<g id="node7" class="node">
<title>Node7</title>
<g id="a_node7"><a xlink:href="classMouseAxisSettingsDialog.html#a33546e4b608264ce6d2758678eb6d2e7" target="_top" xlink:title=" ">
<polygon fill="white" stroke="black" points="398,-213 398,-243 545,-243 545,-213 398,-213"/>
<text text-anchor="start" x="406" y="-231" font-family="Helvetica,sans-Serif" font-size="10.00">MouseAxisSettingsDialog</text>
<text text-anchor="middle" x="471.5" y="-220" font-family="Helvetica,sans-Serif" font-size="10.00">::MouseAxisSettingsDialog</text>
</a>
</g>
</g>
<!-- Node6&#45;&gt;Node7 -->
<g id="edge6" class="edge">
<title>Node6&#45;&gt;Node7</title>
<path fill="none" stroke="midnightblue" d="M599.72,-234.81C581.76,-233.85 562.75,-232.83 545.05,-231.88"/>
<polygon fill="midnightblue" stroke="midnightblue" points="599.68,-238.31 609.86,-235.35 600.06,-231.32 599.68,-238.31"/>
</g>
<!-- Node10 -->
<g id="node10" class="node">
<title>Node10</title>
<g id="a_node10"><a xlink:href="classJoyButtonXml.html#a9d79d75b14b57419ed1fc5639dde8515" target="_top" xlink:title=" ">
<polygon fill="white" stroke="black" points="400.5,-152.5 400.5,-171.5 542.5,-171.5 542.5,-152.5 400.5,-152.5"/>
<text text-anchor="middle" x="471.5" y="-159.5" font-family="Helvetica,sans-Serif" font-size="10.00">JoyButtonXml::readConfig</text>
</a>
</g>
</g>
<!-- Node9&#45;&gt;Node10 -->
<g id="edge9" class="edge">
<title>Node9&#45;&gt;Node10</title>
<path fill="none" stroke="midnightblue" d="M597.1,-152.3C579.11,-153.7 560.18,-155.17 542.66,-156.54"/>
<polygon fill="midnightblue" stroke="midnightblue" points="597.58,-155.77 607.28,-151.51 597.04,-148.79 597.58,-155.77"/>
</g>
<!-- Node11 -->
<g id="node11" class="node">
<title>Node11</title>
<g id="a_node11"><a xlink:href="classSetJoystickXml.html#aa95423a01fab878cbc69bffb7f6121f3" target="_top" xlink:title="Deserializes the given XML stream into a SetJoystick object.">
<polygon fill="white" stroke="black" points="0,-171.5 0,-190.5 149,-190.5 149,-171.5 0,-171.5"/>
<text text-anchor="middle" x="74.5" y="-178.5" font-family="Helvetica,sans-Serif" font-size="10.00">SetJoystickXml::readConfig</text>
</a>
</g>
</g>
<!-- Node10&#45;&gt;Node11 -->
<g id="edge10" class="edge">
<title>Node10&#45;&gt;Node11</title>
<path fill="none" stroke="midnightblue" d="M408.61,-173.1C387.83,-176.33 364.48,-179.41 343,-181 277.58,-185.85 202.92,-185.35 149.12,-183.92"/>
<polygon fill="midnightblue" stroke="midnightblue" points="409.26,-176.54 418.59,-171.51 408.16,-169.63 409.26,-176.54"/>
</g>
<!-- Node12 -->
<g id="node12" class="node">
<title>Node12</title>
<g id="a_node12"><a xlink:href="classJoyControlStick.html#ab6ce741115ee3d436c1a7e866abd21e6" target="_top" xlink:title="Take a XML stream and set the stick and direction button properties according to the values contained...">
<polygon fill="white" stroke="black" points="189.5,-152.5 189.5,-171.5 338.5,-171.5 338.5,-152.5 189.5,-152.5"/>
<text text-anchor="middle" x="264" y="-159.5" font-family="Helvetica,sans-Serif" font-size="10.00">JoyControlStick::readConfig</text>
</a>
</g>
</g>
<!-- Node10&#45;&gt;Node12 -->
<g id="edge11" class="edge">
<title>Node10&#45;&gt;Node12</title>
<path fill="none" stroke="midnightblue" d="M389.96,-162C373.06,-162 355.32,-162 338.69,-162"/>
<polygon fill="midnightblue" stroke="midnightblue" points="390.35,-165.5 400.35,-162 390.35,-158.5 390.35,-165.5"/>
</g>
<!-- Node13 -->
<g id="node13" class="node">
<title>Node13</title>
<g id="a_node13"><a xlink:href="classJoyDPadXml.html#ae9a3556242b984c81fc6945acafc5586" target="_top" xlink:title=" ">
<polygon fill="white" stroke="black" points="185,-114.5 185,-133.5 343,-133.5 343,-114.5 185,-114.5"/>
<text text-anchor="middle" x="264" y="-121.5" font-family="Helvetica,sans-Serif" font-size="10.00">JoyDPadXml::readMainConfig</text>
</a>
</g>
</g>
<!-- Node10&#45;&gt;Node13 -->
<g id="edge13" class="edge">
<title>Node10&#45;&gt;Node13</title>
<path fill="none" stroke="midnightblue" d="M408.75,-150.58C379.35,-145.14 344.59,-138.72 316.61,-133.54"/>
<polygon fill="midnightblue" stroke="midnightblue" points="408.44,-154.08 418.91,-152.46 409.71,-147.2 408.44,-154.08"/>
</g>
<!-- Node12&#45;&gt;Node11 -->
<g id="edge12" class="edge">
<title>Node12&#45;&gt;Node11</title>
<path fill="none" stroke="midnightblue" d="M179.42,-170.47C169.33,-171.49 159.09,-172.53 149.16,-173.54"/>
<polygon fill="midnightblue" stroke="midnightblue" points="179.84,-173.95 189.43,-169.45 179.13,-166.98 179.84,-173.95"/>
</g>
<!-- Node15 -->
<g id="node15" class="node">
<title>Node15</title>
<g id="a_node15"><a xlink:href="classJoyDPadXml.html#ac78c8fd1ad107f6a3baed4910863cb0c" target="_top" xlink:title=" ">
<polygon fill="white" stroke="black" points="403,-114.5 403,-133.5 540,-133.5 540,-114.5 403,-114.5"/>
<text text-anchor="middle" x="471.5" y="-121.5" font-family="Helvetica,sans-Serif" font-size="10.00">JoyDPadXml::writeConfig</text>
</a>
</g>
</g>
<!-- Node14&#45;&gt;Node15 -->
<g id="edge15" class="edge">
<title>Node14&#45;&gt;Node15</title>
<path fill="none" stroke="midnightblue" d="M616.25,-97.42C586.85,-102.86 552.09,-109.28 524.11,-114.46"/>
<polygon fill="midnightblue" stroke="midnightblue" points="617.21,-100.8 626.41,-95.54 615.94,-93.92 617.21,-100.8"/>
</g>
<!-- Node16 -->
<g id="node16" class="node">
<title>Node16</title>
<g id="a_node16"><a xlink:href="classSetJoystickXml.html#a11eec051c05deac5ebe47b9582e83b6f" target="_top" xlink:title="Serializes a SetJoystick object into the the given XML stream.">
<polygon fill="white" stroke="black" points="188,-76.5 188,-95.5 340,-95.5 340,-76.5 188,-76.5"/>
<text text-anchor="middle" x="264" y="-83.5" font-family="Helvetica,sans-Serif" font-size="10.00">SetJoystickXml::writeConfig</text>
</a>
</g>
</g>
<!-- Node14&#45;&gt;Node16 -->
<g id="edge17" class="edge">
<title>Node14&#45;&gt;Node16</title>
<path fill="none" stroke="midnightblue" d="M595.79,-86C521.33,-86 412.53,-86 340.3,-86"/>
<polygon fill="midnightblue" stroke="midnightblue" points="596.06,-89.5 606.06,-86 596.06,-82.5 596.06,-89.5"/>
</g>
<!-- Node17 -->
<g id="node17" class="node">
<title>Node17</title>
<g id="a_node17"><a xlink:href="classJoySensor.html#a92d38c3baf6dc85d28d66e7a7df4b4c3" target="_top" xlink:title="Write the status of the properties of a sensor and direction buttons to an XML stream.">
<polygon fill="white" stroke="black" points="408.5,-38.5 408.5,-57.5 534.5,-57.5 534.5,-38.5 408.5,-38.5"/>
<text text-anchor="middle" x="471.5" y="-45.5" font-family="Helvetica,sans-Serif" font-size="10.00">JoySensor::writeConfig</text>
</a>
</g>
</g>
<!-- Node14&#45;&gt;Node17 -->
<g id="edge18" class="edge">
<title>Node14&#45;&gt;Node17</title>
<path fill="none" stroke="midnightblue" d="M616.25,-74.58C586.85,-69.14 552.09,-62.72 524.11,-57.54"/>
<polygon fill="midnightblue" stroke="midnightblue" points="615.94,-78.08 626.41,-76.46 617.21,-71.2 615.94,-78.08"/>
</g>
<!-- Node18 -->
<g id="node18" class="node">
<title>Node18</title>
<g id="a_node18"><a xlink:href="classJoyControlStick.html#a3ab1764a44e806d2d3896023f82fa3b1" target="_top" xlink:title="Write the status of the properties of a stick and direction buttons to an XML stream.">
<polygon fill="white" stroke="black" points="395.5,-0.5 395.5,-19.5 547.5,-19.5 547.5,-0.5 395.5,-0.5"/>
<text text-anchor="middle" x="471.5" y="-7.5" font-family="Helvetica,sans-Serif" font-size="10.00">JoyControlStick::writeConfig</text>
</a>
</g>
</g>
<!-- Node14&#45;&gt;Node18 -->
<g id="edge19" class="edge">
<title>Node14&#45;&gt;Node18</title>
<path fill="none" stroke="midnightblue" d="M653.07,-71.17C630.51,-58.33 596.01,-40.11 564,-29 553.12,-25.22 541.23,-22.08 529.74,-19.51"/>
<polygon fill="midnightblue" stroke="midnightblue" points="651.56,-74.34 661.97,-76.31 655.06,-68.27 651.56,-74.34"/>
</g>
<!-- Node15&#45;&gt;Node16 -->
<g id="edge16" class="edge">
<title>Node15&#45;&gt;Node16</title>
<path fill="none" stroke="midnightblue" d="M408.75,-112.58C379.35,-107.14 344.59,-100.72 316.61,-95.54"/>
<polygon fill="midnightblue" stroke="midnightblue" points="408.44,-116.08 418.91,-114.46 409.71,-109.2 408.44,-116.08"/>
</g>
</g>
</svg>
