<?xml version="1.0" encoding="UTF-8" standalone="no"?>
<!DOCTYPE svg PUBLIC "-//W3C//DTD SVG 1.1//EN"
 "http://www.w3.org/Graphics/SVG/1.1/DTD/svg11.dtd">
<!-- Generated by graphviz version 2.43.0 (0)
 -->
<!-- Title: GameControllerXml::writeConfig Pages: 1 -->
<!--zoomable 693 -->
<svg id="main" version="1.1" xmlns="http://www.w3.org/2000/svg" xmlns:xlink="http://www.w3.org/1999/xlink" xml:space="preserve" onload="init(evt)">
<style type="text/css"><![CDATA[
.edge:hover path { stroke: red; }
.edge:hover polygon { stroke: red; fill: red; }
]]></style>
<script type="text/javascript"><![CDATA[
var edges = document.getElementsByTagName('g');
if (edges && edges.length) {
  for (var i=0;i<edges.length;i++) {
    if (edges[i].id.substr(0,4)=='edge') {
      edges[i].setAttribute('class','edge');
    }
  }
}
]]></script>
        <defs>
                <circle id="rim" cx="0" cy="0" r="7"/>
                <circle id="rim2" cx="0" cy="0" r="3.5"/>
                <g id="zoomPlus">
                        <use xlink:href="#rim" fill="#404040">
                                <set attributeName="fill" to="#808080" begin="zoomplus.mouseover" end="zoomplus.mouseout"/>
                        </use>
                        <path d="M-4,0h8M0,-4v8" fill="none" stroke="white" stroke-width="1.5" pointer-events="none"/>
                </g>
                <g id="zoomMin">
                        <use xlink:href="#rim" fill="#404040">
                                <set attributeName="fill" to="#808080" begin="zoomminus.mouseover" end="zoomminus.mouseout"/>
                        </use>
                        <path d="M-4,0h8" fill="none" stroke="white" stroke-width="1.5" pointer-events="none"/>
                </g>
                <g id="dirArrow">
                        <path fill="none" stroke="white" stroke-width="1.5" d="M0,-3.0v7 M-2.5,-0.5L0,-3.0L2.5,-0.5"/>
                </g>
               <g id="resetDef">
                       <use xlink:href="#rim2" fill="#404040">
                               <set attributeName="fill" to="#808080" begin="reset.mouseover" end="reset.mouseout"/>
                       </use>
               </g>
        </defs>

<script type="text/javascript">
var viewWidth = 761;
var viewHeight = 693;
var sectionId = 'dynsection-15';
</script>
<script xlink:href="svgpan.js"/>
<svg id="graph" class="graph">
<g id="viewport">
<title>GameControllerXml::writeConfig</title>
<polygon fill="white" stroke="transparent" points="-4,4 -4,-688.5 757,-688.5 757,4 -4,4"/>
<!-- Node1 -->
<g id="node1" class="node">
<title>Node1</title>
<g id="a_node1"><a xlink:title="Serializes a GameController object into the the given XML stream.">
<polygon fill="#bfbfbf" stroke="black" points="0,-238.5 0,-268.5 119,-268.5 119,-238.5 0,-238.5"/>
<text text-anchor="start" x="8" y="-256.5" font-family="Helvetica,sans-Serif" font-size="10.00">GameControllerXml::</text>
<text text-anchor="middle" x="59.5" y="-245.5" font-family="Helvetica,sans-Serif" font-size="10.00">writeConfig</text>
</a>
</g>
</g>
<!-- Node2 -->
<g id="node2" class="node">
<title>Node2</title>
<g id="a_node2"><a xlink:href="classInputDevice.html#abc23a70bef37f2fc70248cd129af170b" target="_top" xlink:title=" ">
<polygon fill="white" stroke="black" points="369,-608.5 369,-638.5 512,-638.5 512,-608.5 369,-608.5"/>
<text text-anchor="start" x="377" y="-626.5" font-family="Helvetica,sans-Serif" font-size="10.00">InputDevice::getActiveSet</text>
<text text-anchor="middle" x="440.5" y="-615.5" font-family="Helvetica,sans-Serif" font-size="10.00">Joystick</text>
</a>
</g>
</g>
<!-- Node1&#45;&gt;Node2 -->
<g id="edge1" class="edge">
<title>Node1&#45;&gt;Node2</title>
<path fill="none" stroke="midnightblue" d="M60.36,-268.74C60.77,-318.14 69.06,-475.27 155,-555.5 209.59,-606.47 295.35,-621.32 358.45,-624.73"/>
<polygon fill="midnightblue" stroke="midnightblue" points="358.62,-628.24 368.77,-625.19 358.94,-621.24 358.62,-628.24"/>
</g>
<!-- Node3 -->
<g id="node3" class="node">
<title>Node3</title>
<g id="a_node3"><a xlink:href="classInputDevice.html#a1c4c65d9e509a5c3bde064871d7e1849" target="_top" xlink:title=" ">
<polygon fill="white" stroke="black" points="577,-636 577,-655 738,-655 738,-636 577,-636"/>
<text text-anchor="middle" x="657.5" y="-643" font-family="Helvetica,sans-Serif" font-size="10.00">InputDevice::getJoystick_sets</text>
</a>
</g>
</g>
<!-- Node1&#45;&gt;Node3 -->
<g id="edge4" class="edge">
<title>Node1&#45;&gt;Node3</title>
<path fill="none" stroke="midnightblue" d="M62.53,-268.54C70.97,-329.01 105.25,-553.43 155,-601.5 280.81,-723.06 516.48,-681.43 613.29,-657.48"/>
<polygon fill="midnightblue" stroke="midnightblue" points="614.2,-660.86 623.04,-655.01 612.49,-654.08 614.2,-660.86"/>
</g>
<!-- Node4 -->
<g id="node4" class="node">
<title>Node4</title>
<g id="a_node4"><a xlink:href="classInputDevice.html#a15ce72c69139dfded93523e17d48c7ab" target="_top" xlink:title=" ">
<polygon fill="white" stroke="black" points="162.5,-214.5 162.5,-244.5 311.5,-244.5 311.5,-214.5 162.5,-214.5"/>
<text text-anchor="start" x="170.5" y="-232.5" font-family="Helvetica,sans-Serif" font-size="10.00">InputDevice::getDeviceKey</text>
<text text-anchor="middle" x="237" y="-221.5" font-family="Helvetica,sans-Serif" font-size="10.00">PressTime</text>
</a>
</g>
</g>
<!-- Node1&#45;&gt;Node4 -->
<g id="edge3" class="edge">
<title>Node1&#45;&gt;Node4</title>
<path fill="none" stroke="midnightblue" d="M119.43,-245.44C129.95,-244 141.09,-242.48 152.15,-240.97"/>
<polygon fill="midnightblue" stroke="midnightblue" points="152.83,-244.41 162.27,-239.58 151.88,-237.47 152.83,-244.41"/>
</g>
<!-- Node5 -->
<g id="node5" class="node">
<title>Node5</title>
<g id="a_node5"><a xlink:href="classInputDevice.html#a0e5ec1f9ff969ada1f54b4a71020f54c" target="_top" xlink:title=" ">
<polygon fill="white" stroke="black" points="158.5,-176 158.5,-195 315.5,-195 315.5,-176 158.5,-176"/>
<text text-anchor="middle" x="237" y="-183" font-family="Helvetica,sans-Serif" font-size="10.00">InputDevice::getProfileName</text>
</a>
</g>
</g>
<!-- Node1&#45;&gt;Node5 -->
<g id="edge5" class="edge">
<title>Node1&#45;&gt;Node5</title>
<path fill="none" stroke="midnightblue" d="M86.25,-238.4C104.86,-227.99 130.85,-214.48 155,-205.5 162.9,-202.56 171.4,-199.92 179.82,-197.6"/>
<polygon fill="midnightblue" stroke="midnightblue" points="180.83,-200.96 189.61,-195.03 179.05,-194.19 180.83,-200.96"/>
</g>
<!-- Node6 -->
<g id="node6" class="node">
<title>Node6</title>
<g id="a_node6"><a xlink:href="classGameController.html#ad3a3fd36ba06e7260eba3327b96f3281" target="_top" xlink:title=" ">
<polygon fill="white" stroke="black" points="155,-138 155,-157 319,-157 319,-138 155,-138"/>
<text text-anchor="middle" x="237" y="-145" font-family="Helvetica,sans-Serif" font-size="10.00">GameController::getSDLName</text>
</a>
</g>
</g>
<!-- Node1&#45;&gt;Node6 -->
<g id="edge6" class="edge">
<title>Node1&#45;&gt;Node6</title>
<path fill="none" stroke="midnightblue" d="M72.54,-238.37C89.02,-218.72 120.52,-184.77 155,-166.5 159.32,-164.21 163.91,-162.2 168.63,-160.42"/>
<polygon fill="midnightblue" stroke="midnightblue" points="170.09,-163.62 178.45,-157.11 167.85,-156.99 170.09,-163.62"/>
</g>
<!-- Node7 -->
<g id="node7" class="node">
<title>Node7</title>
<g id="a_node7"><a xlink:href="classGameController.html#a097c02e89fa422e4356467546d1f3c81" target="_top" xlink:title=" ">
<polygon fill="white" stroke="black" points="162,-88.5 162,-118.5 312,-118.5 312,-88.5 162,-88.5"/>
<text text-anchor="start" x="170" y="-106.5" font-family="Helvetica,sans-Serif" font-size="10.00">GameController::getUnique</text>
<text text-anchor="middle" x="237" y="-95.5" font-family="Helvetica,sans-Serif" font-size="10.00">IDString</text>
</a>
</g>
</g>
<!-- Node1&#45;&gt;Node7 -->
<g id="edge7" class="edge">
<title>Node1&#45;&gt;Node7</title>
<path fill="none" stroke="midnightblue" d="M67.88,-238.36C81.45,-212.08 112.9,-158.02 155,-128.5 157.86,-126.5 160.88,-124.65 164.02,-122.95"/>
<polygon fill="midnightblue" stroke="midnightblue" points="165.64,-126.05 173.1,-118.52 162.57,-119.76 165.64,-126.05"/>
</g>
<!-- Node13 -->
<g id="node13" class="node">
<title>Node13</title>
<g id="a_node13"><a xlink:href="classGameController.html#a163db7554a0ff6c715ed947e21914db2" target="_top" xlink:title=" ">
<polygon fill="white" stroke="black" points="155,-50 155,-69 319,-69 319,-50 155,-50"/>
<text text-anchor="middle" x="237" y="-57" font-family="Helvetica,sans-Serif" font-size="10.00">GameController::getXmlName</text>
</a>
</g>
</g>
<!-- Node1&#45;&gt;Node13 -->
<g id="edge13" class="edge">
<title>Node1&#45;&gt;Node13</title>
<path fill="none" stroke="midnightblue" d="M64.21,-238.45C73.38,-204.5 100.45,-121.63 155,-79.5 157.98,-77.2 161.2,-75.15 164.57,-73.34"/>
<polygon fill="midnightblue" stroke="midnightblue" points="166.18,-76.45 173.78,-69.07 163.24,-70.1 166.18,-76.45"/>
</g>
<!-- Node14 -->
<g id="node14" class="node">
<title>Node14</title>
<g id="a_node14"><a xlink:href="classGameControllerXml.html#a43ba30d58802f57ca877b5c85ec1e018" target="_top" xlink:title=" ">
<polygon fill="white" stroke="black" points="177.5,-515.5 177.5,-545.5 296.5,-545.5 296.5,-515.5 177.5,-515.5"/>
<text text-anchor="start" x="185.5" y="-533.5" font-family="Helvetica,sans-Serif" font-size="10.00">GameControllerXml::</text>
<text text-anchor="middle" x="237" y="-522.5" font-family="Helvetica,sans-Serif" font-size="10.00">writeXmlForAxes</text>
</a>
</g>
</g>
<!-- Node1&#45;&gt;Node14 -->
<g id="edge14" class="edge">
<title>Node1&#45;&gt;Node14</title>
<path fill="none" stroke="midnightblue" d="M63.93,-268.61C73.15,-306.55 101.44,-407.49 155,-473.5 166.77,-488.01 183.15,-500.47 198.1,-510.01"/>
<polygon fill="midnightblue" stroke="midnightblue" points="196.33,-513.04 206.69,-515.28 199.99,-507.07 196.33,-513.04"/>
</g>
<!-- Node20 -->
<g id="node20" class="node">
<title>Node20</title>
<g id="a_node20"><a xlink:href="classGameControllerXml.html#a2ea0df8c20f07dd3ee8fa765acd3bdcc" target="_top" xlink:title=" ">
<polygon fill="white" stroke="black" points="177.5,-0.5 177.5,-30.5 296.5,-30.5 296.5,-0.5 177.5,-0.5"/>
<text text-anchor="start" x="185.5" y="-18.5" font-family="Helvetica,sans-Serif" font-size="10.00">GameControllerXml::</text>
<text text-anchor="middle" x="237" y="-7.5" font-family="Helvetica,sans-Serif" font-size="10.00">writeXmlForButtons</text>
</a>
</g>
</g>
<!-- Node1&#45;&gt;Node20 -->
<g id="edge20" class="edge">
<title>Node1&#45;&gt;Node20</title>
<path fill="none" stroke="midnightblue" d="M62.83,-238.35C69.58,-199.54 92.84,-95.71 155,-40.5 158.96,-36.99 163.4,-33.97 168.11,-31.37"/>
<polygon fill="midnightblue" stroke="midnightblue" points="169.96,-34.37 177.46,-26.88 166.93,-28.06 169.96,-34.37"/>
</g>
<!-- Node22 -->
<g id="node22" class="node">
<title>Node22</title>
<g id="a_node22"><a xlink:href="classGameControllerXml.html#a2494b1274f7ca0ccf5a816f3eb598483" target="_top" xlink:title="Writes all sensor button mappings in the current set to XML.">
<polygon fill="white" stroke="black" points="177.5,-312.5 177.5,-342.5 296.5,-342.5 296.5,-312.5 177.5,-312.5"/>
<text text-anchor="start" x="185.5" y="-330.5" font-family="Helvetica,sans-Serif" font-size="10.00">GameControllerXml::</text>
<text text-anchor="middle" x="237" y="-319.5" font-family="Helvetica,sans-Serif" font-size="10.00">writeXmlForSensors</text>
</a>
</g>
</g>
<!-- Node1&#45;&gt;Node22 -->
<g id="edge22" class="edge">
<title>Node1&#45;&gt;Node22</title>
<path fill="none" stroke="midnightblue" d="M85.91,-268.72C104.56,-279.45 130.77,-293.61 155,-303.5 159.8,-305.46 164.82,-307.33 169.9,-309.11"/>
<polygon fill="midnightblue" stroke="midnightblue" points="169.13,-312.54 179.72,-312.4 171.36,-305.91 169.13,-312.54"/>
</g>
<!-- Node25 -->
<g id="node25" class="node">
<title>Node25</title>
<g id="a_node25"><a xlink:href="classGameControllerXml.html#a930e9b49e3543488adfb92b4e82dd9ca" target="_top" xlink:title=" ">
<polygon fill="white" stroke="black" points="177.5,-263.5 177.5,-293.5 296.5,-293.5 296.5,-263.5 177.5,-263.5"/>
<text text-anchor="start" x="185.5" y="-281.5" font-family="Helvetica,sans-Serif" font-size="10.00">GameControllerXml::</text>
<text text-anchor="middle" x="237" y="-270.5" font-family="Helvetica,sans-Serif" font-size="10.00">writeXmlForSticks</text>
</a>
</g>
</g>
<!-- Node1&#45;&gt;Node25 -->
<g id="edge26" class="edge">
<title>Node1&#45;&gt;Node25</title>
<path fill="none" stroke="midnightblue" d="M119.43,-261.89C134.7,-264.07 151.29,-266.43 167.03,-268.68"/>
<polygon fill="midnightblue" stroke="midnightblue" points="166.83,-272.18 177.23,-270.13 167.82,-265.25 166.83,-272.18"/>
</g>
<!-- Node28 -->
<g id="node28" class="node">
<title>Node28</title>
<g id="a_node28"><a xlink:href="classGameControllerXml.html#a24aeb787738fab230de3d4dc80adee26" target="_top" xlink:title=" ">
<polygon fill="white" stroke="black" points="177.5,-433.5 177.5,-463.5 296.5,-463.5 296.5,-433.5 177.5,-433.5"/>
<text text-anchor="start" x="185.5" y="-451.5" font-family="Helvetica,sans-Serif" font-size="10.00">GameControllerXml::</text>
<text text-anchor="middle" x="237" y="-440.5" font-family="Helvetica,sans-Serif" font-size="10.00">writeXmlForVDpad</text>
</a>
</g>
</g>
<!-- Node1&#45;&gt;Node28 -->
<g id="edge30" class="edge">
<title>Node1&#45;&gt;Node28</title>
<path fill="none" stroke="midnightblue" d="M74.27,-268.8C105.03,-302.98 179.44,-385.65 215.6,-425.83"/>
<polygon fill="midnightblue" stroke="midnightblue" points="213,-428.18 222.29,-433.27 218.2,-423.5 213,-428.18"/>
</g>
<!-- Node2&#45;&gt;Node3 -->
<g id="edge2" class="edge">
<title>Node2&#45;&gt;Node3</title>
<path fill="none" stroke="midnightblue" d="M512.2,-630.73C529.65,-632.52 548.57,-634.46 566.8,-636.32"/>
<polygon fill="midnightblue" stroke="midnightblue" points="566.53,-639.81 576.83,-637.35 567.24,-632.85 566.53,-639.81"/>
</g>
<!-- Node8 -->
<g id="node8" class="node">
<title>Node8</title>
<g id="a_node8"><a xlink:href="classGameController.html#a1bbce70562484919be82e64b1bb6e936" target="_top" xlink:title=" ">
<polygon fill="white" stroke="black" points="355,-88.5 355,-118.5 526,-118.5 526,-88.5 355,-88.5"/>
<text text-anchor="start" x="363" y="-106.5" font-family="Helvetica,sans-Serif" font-size="10.00">GameController::getRawUnique</text>
<text text-anchor="middle" x="440.5" y="-95.5" font-family="Helvetica,sans-Serif" font-size="10.00">IDString</text>
</a>
</g>
</g>
<!-- Node7&#45;&gt;Node8 -->
<g id="edge8" class="edge">
<title>Node7&#45;&gt;Node8</title>
<path fill="none" stroke="midnightblue" d="M312.17,-103.5C322.83,-103.5 333.91,-103.5 344.89,-103.5"/>
<polygon fill="midnightblue" stroke="midnightblue" points="344.93,-107 354.93,-103.5 344.93,-100 344.93,-107"/>
</g>
<!-- Node9 -->
<g id="node9" class="node">
<title>Node9</title>
<g id="a_node9"><a xlink:href="classGameController.html#ab91c8d992a426135d6e3afeff14b032a" target="_top" xlink:title=" ">
<polygon fill="white" stroke="black" points="562,-163 562,-182 753,-182 753,-163 562,-163"/>
<text text-anchor="middle" x="657.5" y="-170" font-family="Helvetica,sans-Serif" font-size="10.00">GameController::getRawGUIDString</text>
</a>
</g>
</g>
<!-- Node8&#45;&gt;Node9 -->
<g id="edge9" class="edge">
<title>Node8&#45;&gt;Node9</title>
<path fill="none" stroke="midnightblue" d="M488.54,-118.64C500.89,-123.04 514.08,-128.12 526,-133.5 542.68,-141.03 544.82,-147.18 562,-153.5 569.29,-156.18 577.04,-158.52 584.85,-160.54"/>
<polygon fill="midnightblue" stroke="midnightblue" points="584.19,-163.98 594.73,-162.94 585.84,-157.18 584.19,-163.98"/>
</g>
<!-- Node10 -->
<g id="node10" class="node">
<title>Node10</title>
<g id="a_node10"><a xlink:href="classGameController.html#a5533dbb924e62046d27b1be82e8a084e" target="_top" xlink:title=" ">
<polygon fill="white" stroke="black" points="571,-113.5 571,-143.5 744,-143.5 744,-113.5 571,-113.5"/>
<text text-anchor="start" x="579" y="-131.5" font-family="Helvetica,sans-Serif" font-size="10.00">GameController::getRawProduct</text>
<text text-anchor="middle" x="657.5" y="-120.5" font-family="Helvetica,sans-Serif" font-size="10.00">IDString</text>
</a>
</g>
</g>
<!-- Node8&#45;&gt;Node10 -->
<g id="edge10" class="edge">
<title>Node8&#45;&gt;Node10</title>
<path fill="none" stroke="midnightblue" d="M526.17,-113.34C537.53,-114.67 549.24,-116.03 560.78,-117.37"/>
<polygon fill="midnightblue" stroke="midnightblue" points="560.52,-120.86 570.85,-118.54 561.32,-113.91 560.52,-120.86"/>
</g>
<!-- Node11 -->
<g id="node11" class="node">
<title>Node11</title>
<g id="a_node11"><a xlink:href="classGameController.html#ac6a249e6505546c23d6e8ef6663c8c01" target="_top" xlink:title=" ">
<polygon fill="white" stroke="black" points="572.5,-64.5 572.5,-94.5 742.5,-94.5 742.5,-64.5 572.5,-64.5"/>
<text text-anchor="start" x="580.5" y="-82.5" font-family="Helvetica,sans-Serif" font-size="10.00">GameController::getRawVendor</text>
<text text-anchor="middle" x="657.5" y="-71.5" font-family="Helvetica,sans-Serif" font-size="10.00">String</text>
</a>
</g>
</g>
<!-- Node8&#45;&gt;Node11 -->
<g id="edge11" class="edge">
<title>Node8&#45;&gt;Node11</title>
<path fill="none" stroke="midnightblue" d="M526.17,-94.05C538.01,-92.73 550.24,-91.36 562.24,-90.02"/>
<polygon fill="midnightblue" stroke="midnightblue" points="562.71,-93.49 572.26,-88.9 561.94,-86.53 562.71,-93.49"/>
</g>
<!-- Node12 -->
<g id="node12" class="node">
<title>Node12</title>
<g id="a_node12"><a xlink:href="classGameController.html#a43f44635c00424c2ca13c201a04530fa" target="_top" xlink:title=" ">
<polygon fill="white" stroke="black" points="586,-15.5 586,-45.5 729,-45.5 729,-15.5 586,-15.5"/>
<text text-anchor="start" x="594" y="-33.5" font-family="Helvetica,sans-Serif" font-size="10.00">GameController::getSerial</text>
<text text-anchor="middle" x="657.5" y="-22.5" font-family="Helvetica,sans-Serif" font-size="10.00">String</text>
</a>
</g>
</g>
<!-- Node8&#45;&gt;Node12 -->
<g id="edge12" class="edge">
<title>Node8&#45;&gt;Node12</title>
<path fill="none" stroke="midnightblue" d="M476.15,-88.41C500.02,-78.33 532.6,-65.21 562,-55.5 569.62,-52.98 577.65,-50.55 585.67,-48.24"/>
<polygon fill="midnightblue" stroke="midnightblue" points="586.75,-51.57 595.43,-45.5 584.86,-44.83 586.75,-51.57"/>
</g>
<!-- Node15 -->
<g id="node15" class="node">
<title>Node15</title>
<g id="a_node15"><a xlink:href="classSetJoystick.html#a4d1b6543ec53dd06992f77c0b89a5532" target="_top" xlink:title=" ">
<polygon fill="white" stroke="black" points="382.5,-521 382.5,-540 498.5,-540 498.5,-521 382.5,-521"/>
<text text-anchor="middle" x="440.5" y="-528" font-family="Helvetica,sans-Serif" font-size="10.00">SetJoystick::getAxes</text>
</a>
</g>
</g>
<!-- Node14&#45;&gt;Node15 -->
<g id="edge15" class="edge">
<title>Node14&#45;&gt;Node15</title>
<path fill="none" stroke="midnightblue" d="M296.55,-530.5C320.14,-530.5 347.5,-530.5 371.92,-530.5"/>
<polygon fill="midnightblue" stroke="midnightblue" points="372.19,-534 382.19,-530.5 372.19,-527 372.19,-534"/>
</g>
<!-- Node16 -->
<g id="node16" class="node">
<title>Node16</title>
<g id="a_node16"><a xlink:href="classGameControllerXml.html#a58cc6838bb726b635eb2875c192b144a" target="_top" xlink:title=" ">
<polygon fill="white" stroke="black" points="381,-559.5 381,-589.5 500,-589.5 500,-559.5 381,-559.5"/>
<text text-anchor="start" x="389" y="-577.5" font-family="Helvetica,sans-Serif" font-size="10.00">GameControllerXml::</text>
<text text-anchor="middle" x="440.5" y="-566.5" font-family="Helvetica,sans-Serif" font-size="10.00">writeXmlAxBtn</text>
</a>
</g>
</g>
<!-- Node14&#45;&gt;Node16 -->
<g id="edge16" class="edge">
<title>Node14&#45;&gt;Node16</title>
<path fill="none" stroke="midnightblue" d="M296.55,-543.29C319.84,-548.37 346.79,-554.26 370.98,-559.54"/>
<polygon fill="midnightblue" stroke="midnightblue" points="370.28,-562.97 380.8,-561.68 371.78,-556.13 370.28,-562.97"/>
</g>
<!-- Node17 -->
<g id="node17" class="node">
<title>Node17</title>
<g id="a_node17"><a xlink:href="classJoyButton.html#a7123f5432bda7b5b9d4b2b95bdabf4db" target="_top" xlink:title=" ">
<polygon fill="white" stroke="black" points="584,-420 584,-439 731,-439 731,-420 584,-420"/>
<text text-anchor="middle" x="657.5" y="-427" font-family="Helvetica,sans-Serif" font-size="10.00">JoyButton::getButtonName</text>
</a>
</g>
</g>
<!-- Node16&#45;&gt;Node17 -->
<g id="edge17" class="edge">
<title>Node16&#45;&gt;Node17</title>
<path fill="none" stroke="midnightblue" d="M500.21,-560.93C509.13,-557.8 518.01,-554.03 526,-549.5 574.6,-521.96 619.88,-473.16 642.12,-447.08"/>
<polygon fill="midnightblue" stroke="midnightblue" points="645.01,-449.09 648.75,-439.17 639.64,-444.59 645.01,-449.09"/>
</g>
<!-- Node18 -->
<g id="node18" class="node">
<title>Node18</title>
<g id="a_node18"><a xlink:href="classJoyAxis.html#a9ceda991c13da3a99868acc436ed20f3" target="_top" xlink:title=" ">
<polygon fill="white" stroke="black" points="588.5,-581 588.5,-600 726.5,-600 726.5,-581 588.5,-581"/>
<text text-anchor="middle" x="657.5" y="-588" font-family="Helvetica,sans-Serif" font-size="10.00">JoyAxis::getRealJoyIndex</text>
</a>
</g>
</g>
<!-- Node16&#45;&gt;Node18 -->
<g id="edge18" class="edge">
<title>Node16&#45;&gt;Node18</title>
<path fill="none" stroke="midnightblue" d="M500.25,-578.87C524.29,-580.66 552.45,-582.76 578.2,-584.67"/>
<polygon fill="midnightblue" stroke="midnightblue" points="578.07,-588.17 588.31,-585.43 578.59,-581.19 578.07,-588.17"/>
</g>
<!-- Node19 -->
<g id="node19" class="node">
<title>Node19</title>
<g id="a_node19"><a xlink:href="classJoyButton.html#a39c9ccaf641bb8bf50b29d4c4e04c165" target="_top" xlink:title="Get a 1 indexed number of button.">
<polygon fill="white" stroke="black" points="577,-543 577,-562 738,-562 738,-543 577,-543"/>
<text text-anchor="middle" x="657.5" y="-550" font-family="Helvetica,sans-Serif" font-size="10.00">JoyButton::getRealJoyNumber</text>
</a>
</g>
</g>
<!-- Node16&#45;&gt;Node19 -->
<g id="edge19" class="edge">
<title>Node16&#45;&gt;Node19</title>
<path fill="none" stroke="midnightblue" d="M500.25,-568.49C520.74,-566.39 544.22,-563.99 566.65,-561.69"/>
<polygon fill="midnightblue" stroke="midnightblue" points="567.27,-565.15 576.86,-560.65 566.56,-558.19 567.27,-565.15"/>
</g>
<!-- Node21 -->
<g id="node21" class="node">
<title>Node21</title>
<g id="a_node21"><a xlink:href="classSetJoystick.html#ac5baae46a0b3924a83b523ad89819a53" target="_top" xlink:title=" ">
<polygon fill="white" stroke="black" points="375.5,-6 375.5,-25 505.5,-25 505.5,-6 375.5,-6"/>
<text text-anchor="middle" x="440.5" y="-13" font-family="Helvetica,sans-Serif" font-size="10.00">SetJoystick::getButtons</text>
</a>
</g>
</g>
<!-- Node20&#45;&gt;Node21 -->
<g id="edge21" class="edge">
<title>Node20&#45;&gt;Node21</title>
<path fill="none" stroke="midnightblue" d="M296.55,-15.5C317.92,-15.5 342.37,-15.5 364.93,-15.5"/>
<polygon fill="midnightblue" stroke="midnightblue" points="365.15,-19 375.15,-15.5 365.15,-12 365.15,-19"/>
</g>
<!-- Node22&#45;&gt;Node17 -->
<g id="edge23" class="edge">
<title>Node22&#45;&gt;Node17</title>
<path fill="none" stroke="midnightblue" d="M296.7,-337.08C355.25,-347.16 447.55,-364.46 526,-385.5 558.97,-394.34 595.75,-407 621.84,-416.48"/>
<polygon fill="midnightblue" stroke="midnightblue" points="620.69,-419.78 631.28,-419.94 623.1,-413.21 620.69,-419.78"/>
</g>
<!-- Node23 -->
<g id="node23" class="node">
<title>Node23</title>
<g id="a_node23"><a xlink:href="classJoySensorButton.html#ac8c54424eb27ba20c6ccd987b1f51af9" target="_top" xlink:title="Get a 0 indexed number of button.">
<polygon fill="white" stroke="black" points="370.5,-307.5 370.5,-337.5 510.5,-337.5 510.5,-307.5 370.5,-307.5"/>
<text text-anchor="start" x="378.5" y="-325.5" font-family="Helvetica,sans-Serif" font-size="10.00">JoySensorButton::getReal</text>
<text text-anchor="middle" x="440.5" y="-314.5" font-family="Helvetica,sans-Serif" font-size="10.00">JoyNumber</text>
</a>
</g>
</g>
<!-- Node22&#45;&gt;Node23 -->
<g id="edge24" class="edge">
<title>Node22&#45;&gt;Node23</title>
<path fill="none" stroke="midnightblue" d="M296.55,-326.05C316.51,-325.55 339.17,-324.99 360.47,-324.46"/>
<polygon fill="midnightblue" stroke="midnightblue" points="360.56,-327.96 370.48,-324.21 360.39,-320.96 360.56,-327.96"/>
</g>
<!-- Node24 -->
<g id="node24" class="node">
<title>Node24</title>
<g id="a_node24"><a xlink:href="classSetJoystick.html#aeddc19398afeb2bd0271db07abf557de" target="_top" xlink:title="Get all sensor objects in this set.">
<polygon fill="white" stroke="black" points="375,-269 375,-288 506,-288 506,-269 375,-269"/>
<text text-anchor="middle" x="440.5" y="-276" font-family="Helvetica,sans-Serif" font-size="10.00">SetJoystick::getSensors</text>
</a>
</g>
</g>
<!-- Node22&#45;&gt;Node24 -->
<g id="edge25" class="edge">
<title>Node22&#45;&gt;Node24</title>
<path fill="none" stroke="midnightblue" d="M296.59,-312.85C315.25,-308.22 335.98,-303.11 355,-298.5 365.88,-295.86 377.56,-293.07 388.66,-290.44"/>
<polygon fill="midnightblue" stroke="midnightblue" points="389.72,-293.79 398.65,-288.08 388.11,-286.97 389.72,-293.79"/>
</g>
<!-- Node25&#45;&gt;Node17 -->
<g id="edge27" class="edge">
<title>Node25&#45;&gt;Node17</title>
<path fill="none" stroke="midnightblue" d="M296.62,-267.81C368.93,-255.79 487.07,-240.31 526,-259.5 590.97,-291.53 632.6,-373.17 648.81,-410.43"/>
<polygon fill="midnightblue" stroke="midnightblue" points="645.6,-411.83 652.71,-419.69 652.05,-409.11 645.6,-411.83"/>
</g>
<!-- Node26 -->
<g id="node26" class="node">
<title>Node26</title>
<g id="a_node26"><a xlink:href="classJoyControlStickButton.html#aa12b47378f8b5da46e06f4993c73504d" target="_top" xlink:title="Get a 1 indexed number of button.">
<polygon fill="white" stroke="black" points="379,-181.5 379,-211.5 502,-211.5 502,-181.5 379,-181.5"/>
<text text-anchor="start" x="387" y="-199.5" font-family="Helvetica,sans-Serif" font-size="10.00">JoyControlStickButton</text>
<text text-anchor="middle" x="440.5" y="-188.5" font-family="Helvetica,sans-Serif" font-size="10.00">::getRealJoyNumber</text>
</a>
</g>
</g>
<!-- Node25&#45;&gt;Node26 -->
<g id="edge28" class="edge">
<title>Node25&#45;&gt;Node26</title>
<path fill="none" stroke="midnightblue" d="M296.55,-264.01C304.28,-261.28 311.96,-258.12 319,-254.5 337.03,-245.24 337.22,-236.24 355,-226.5 362.64,-222.32 370.97,-218.53 379.34,-215.16"/>
<polygon fill="midnightblue" stroke="midnightblue" points="380.68,-218.4 388.76,-211.54 378.16,-211.86 380.68,-218.4"/>
</g>
<!-- Node27 -->
<g id="node27" class="node">
<title>Node27</title>
<g id="a_node27"><a xlink:href="classSetJoystick.html#a7ca499fe41a0a9841b4fe904b07cbc30" target="_top" xlink:title=" ">
<polygon fill="white" stroke="black" points="379.5,-143 379.5,-162 501.5,-162 501.5,-143 379.5,-143"/>
<text text-anchor="middle" x="440.5" y="-150" font-family="Helvetica,sans-Serif" font-size="10.00">SetJoystick::getSticks</text>
</a>
</g>
</g>
<!-- Node25&#45;&gt;Node27 -->
<g id="edge29" class="edge">
<title>Node25&#45;&gt;Node27</title>
<path fill="none" stroke="midnightblue" d="M296.54,-267.9C304.71,-264.58 312.51,-260.22 319,-254.5 348.86,-228.18 324.42,-197.98 355,-172.5 359.53,-168.73 364.64,-165.64 370.05,-163.12"/>
<polygon fill="midnightblue" stroke="midnightblue" points="371.41,-166.35 379.4,-159.39 368.82,-159.84 371.41,-166.35"/>
</g>
<!-- Node28&#45;&gt;Node2 -->
<g id="edge31" class="edge">
<title>Node28&#45;&gt;Node2</title>
<path fill="none" stroke="midnightblue" d="M267.15,-463.67C284.23,-473.82 305.12,-488.59 319,-506.5 346.15,-541.53 322.24,-569.64 355,-599.5 356.69,-601.04 358.48,-602.49 360.34,-603.84"/>
<polygon fill="midnightblue" stroke="midnightblue" points="358.6,-606.88 368.94,-609.2 362.31,-600.94 358.6,-606.88"/>
</g>
<!-- Node28&#45;&gt;Node17 -->
<g id="edge32" class="edge">
<title>Node28&#45;&gt;Node17</title>
<path fill="none" stroke="midnightblue" d="M296.53,-463.53C315.1,-467.62 335.79,-471.47 355,-473.5 430.58,-481.48 451,-485.8 526,-473.5 561.36,-467.7 600.04,-453.61 626.03,-442.93"/>
<polygon fill="midnightblue" stroke="midnightblue" points="627.48,-446.12 635.34,-439.02 624.77,-439.66 627.48,-446.12"/>
</g>
<!-- Node29 -->
<g id="node29" class="node">
<title>Node29</title>
<g id="a_node29"><a xlink:href="classJoyDPadButton.html#ae6a39626f57db823f682ef1d028b1ef6" target="_top" xlink:title="Get a 1 indexed number of button.">
<polygon fill="white" stroke="black" points="367,-433.5 367,-463.5 514,-463.5 514,-433.5 367,-433.5"/>
<text text-anchor="start" x="375" y="-451.5" font-family="Helvetica,sans-Serif" font-size="10.00">JoyDPadButton::getRealJoy</text>
<text text-anchor="middle" x="440.5" y="-440.5" font-family="Helvetica,sans-Serif" font-size="10.00">Number</text>
</a>
</g>
</g>
<!-- Node28&#45;&gt;Node29 -->
<g id="edge33" class="edge">
<title>Node28&#45;&gt;Node29</title>
<path fill="none" stroke="midnightblue" d="M296.55,-448.5C315.34,-448.5 336.52,-448.5 356.7,-448.5"/>
<polygon fill="midnightblue" stroke="midnightblue" points="356.83,-452 366.83,-448.5 356.83,-445 356.83,-452"/>
</g>
<!-- Node30 -->
<g id="node30" class="node">
<title>Node30</title>
<g id="a_node30"><a xlink:href="classSetJoystick.html#ad859311bfde76dbdaac274cb5ede63d6" target="_top" xlink:title=" ">
<polygon fill="white" stroke="black" points="376.5,-395 376.5,-414 504.5,-414 504.5,-395 376.5,-395"/>
<text text-anchor="middle" x="440.5" y="-402" font-family="Helvetica,sans-Serif" font-size="10.00">SetJoystick::getVdpads</text>
</a>
</g>
</g>
<!-- Node28&#45;&gt;Node30 -->
<g id="edge34" class="edge">
<title>Node28&#45;&gt;Node30</title>
<path fill="none" stroke="midnightblue" d="M296.55,-435.71C324.81,-429.54 358.46,-422.2 386.02,-416.18"/>
<polygon fill="midnightblue" stroke="midnightblue" points="386.85,-419.58 395.87,-414.03 385.36,-412.74 386.85,-419.58"/>
</g>
</g>
</svg>
        <g id="navigator" transform="translate(0 0)" fill="#404254">
                <rect fill="#f2f5e9" fill-opacity="0.5" stroke="#606060" stroke-width=".5" x="0" y="0" width="60" height="60"/>
                <use id="zoomplus" xlink:href="#zoomPlus" x="17" y="9" onmousedown="handleZoom(evt,'in')"/>
                <use id="zoomminus" xlink:href="#zoomMin" x="42" y="9" onmousedown="handleZoom(evt,'out')"/>
                <use id="reset" xlink:href="#resetDef" x="30" y="36" onmousedown="handleReset()"/>
                <g id="arrowUp" xlink:href="#dirArrow" transform="translate(30 24)" onmousedown="handlePan(0,-1)">
                  <use xlink:href="#rim" fill="#404040">
                        <set attributeName="fill" to="#808080" begin="arrowUp.mouseover" end="arrowUp.mouseout"/>
                  </use>
                  <path fill="none" stroke="white" stroke-width="1.5" d="M0,-3.0v7 M-2.5,-0.5L0,-3.0L2.5,-0.5"/>
                </g>
                <g id="arrowRight" xlink:href="#dirArrow" transform="rotate(90) translate(36 -43)" onmousedown="handlePan(1,0)">
                  <use xlink:href="#rim" fill="#404040">
                        <set attributeName="fill" to="#808080" begin="arrowRight.mouseover" end="arrowRight.mouseout"/>
                  </use>
                  <path fill="none" stroke="white" stroke-width="1.5" d="M0,-3.0v7 M-2.5,-0.5L0,-3.0L2.5,-0.5"/>
                </g>
                <g id="arrowDown" xlink:href="#dirArrow" transform="rotate(180) translate(-30 -48)" onmousedown="handlePan(0,1)">
                  <use xlink:href="#rim" fill="#404040">
                        <set attributeName="fill" to="#808080" begin="arrowDown.mouseover" end="arrowDown.mouseout"/>
                  </use>
                  <path fill="none" stroke="white" stroke-width="1.5" d="M0,-3.0v7 M-2.5,-0.5L0,-3.0L2.5,-0.5"/>
                </g>
                <g id="arrowLeft" xlink:href="#dirArrow" transform="rotate(270) translate(-36 17)" onmousedown="handlePan(-1,0)">
                  <use xlink:href="#rim" fill="#404040">
                        <set attributeName="fill" to="#808080" begin="arrowLeft.mouseover" end="arrowLeft.mouseout"/>
                  </use>
                  <path fill="none" stroke="white" stroke-width="1.5" d="M0,-3.0v7 M-2.5,-0.5L0,-3.0L2.5,-0.5"/>
                </g>
        </g>
        <svg viewBox="0 0 15 15" width="100%" height="30px" preserveAspectRatio="xMaxYMin meet">
         <g id="arrow_out" transform="scale(0.3 0.3)">
          <a xlink:href="classGameControllerXml_ac87bc51a0dcdb01143d969a732b5188f_cgraph_org.svg" target="_base">
           <rect id="button" ry="5" rx="5" y="6" x="6" height="38" width="38"
                fill="#f2f5e9" fill-opacity="0.5" stroke="#606060" stroke-width="1.0"/>
           <path id="arrow"
             d="M 11.500037,31.436501 C 11.940474,20.09759 22.043105,11.32322 32.158766,21.979434 L 37.068811,17.246167 C 37.068811,17.246167 37.088388,32 37.088388,32 L 22.160133,31.978069 C 22.160133,31.978069 26.997745,27.140456 26.997745,27.140456 C 18.528582,18.264221 13.291696,25.230495 11.500037,31.436501 z"
             style="fill:#404040;"/>
          </a>
         </g>
        </svg>
</svg>
