<?xml version="1.0" encoding="UTF-8" standalone="no"?>
<!DOCTYPE svg PUBLIC "-//W3C//DTD SVG 1.1//EN"
 "http://www.w3.org/Graphics/SVG/1.1/DTD/svg11.dtd">
<!-- Generated by graphviz version 2.43.0 (0)
 -->
<!-- Title: JoyControlStick::replaceAxes Pages: 1 -->
<svg width="598pt" height="88pt"
 viewBox="0.00 0.00 598.00 88.00" xmlns="http://www.w3.org/2000/svg" xmlns:xlink="http://www.w3.org/1999/xlink">
<g id="graph0" class="graph" transform="scale(1 1) rotate(0) translate(4 84)">
<title>JoyControlStick::replaceAxes</title>
<polygon fill="white" stroke="transparent" points="-4,4 -4,-84 594,-84 594,4 -4,4"/>
<!-- Node1 -->
<g id="node1" class="node">
<title>Node1</title>
<g id="a_node1"><a xlink:title=" ">
<polygon fill="#bfbfbf" stroke="black" points="434,-30 434,-49 590,-49 590,-30 434,-30"/>
<text text-anchor="middle" x="512" y="-37" font-family="Helvetica,sans-Serif" font-size="10.00">JoyControlStick::replaceAxes</text>
</a>
</g>
</g>
<!-- Node2 -->
<g id="node2" class="node">
<title>Node2</title>
<g id="a_node2"><a xlink:href="classAdvanceStickAssignmentDialog.html#a3d447d0544efde715f4774ff0789b9b1" target="_top" xlink:title=" ">
<polygon fill="white" stroke="black" points="224,-24.5 224,-54.5 398,-54.5 398,-24.5 224,-24.5"/>
<text text-anchor="start" x="232" y="-42.5" font-family="Helvetica,sans-Serif" font-size="10.00">AdvanceStickAssignmentDialog</text>
<text text-anchor="middle" x="311" y="-31.5" font-family="Helvetica,sans-Serif" font-size="10.00">::checkForAxisAssignmentSticks</text>
</a>
</g>
</g>
<!-- Node1&#45;&gt;Node2 -->
<g id="edge1" class="edge">
<title>Node1&#45;&gt;Node2</title>
<path fill="none" stroke="midnightblue" d="M423.55,-39.5C415.1,-39.5 406.53,-39.5 398.1,-39.5"/>
<polygon fill="midnightblue" stroke="midnightblue" points="423.78,-43 433.78,-39.5 423.78,-36 423.78,-43"/>
</g>
<!-- Node3 -->
<g id="node3" class="node">
<title>Node3</title>
<g id="a_node3"><a xlink:href="classAdvanceStickAssignmentDialog.html#a0558948fa11d0753485a53d6729e1e53" target="_top" xlink:title=" ">
<polygon fill="white" stroke="black" points="0,-49.5 0,-79.5 188,-79.5 188,-49.5 0,-49.5"/>
<text text-anchor="start" x="8" y="-67.5" font-family="Helvetica,sans-Serif" font-size="10.00">AdvanceStickAssignmentDialog</text>
<text text-anchor="middle" x="94" y="-56.5" font-family="Helvetica,sans-Serif" font-size="10.00">::checkForAxisAssignmentStickOne</text>
</a>
</g>
</g>
<!-- Node2&#45;&gt;Node3 -->
<g id="edge2" class="edge">
<title>Node2&#45;&gt;Node3</title>
<path fill="none" stroke="midnightblue" d="M213.59,-50.71C205.17,-51.69 196.66,-52.68 188.28,-53.65"/>
<polygon fill="midnightblue" stroke="midnightblue" points="214.26,-54.16 223.79,-49.52 213.45,-47.2 214.26,-54.16"/>
</g>
<!-- Node4 -->
<g id="node4" class="node">
<title>Node4</title>
<g id="a_node4"><a xlink:href="classAdvanceStickAssignmentDialog.html#a60498e3f0a4ade4f6644478cb78d3cbc" target="_top" xlink:title=" ">
<polygon fill="white" stroke="black" points="0,-0.5 0,-30.5 188,-30.5 188,-0.5 0,-0.5"/>
<text text-anchor="start" x="8" y="-18.5" font-family="Helvetica,sans-Serif" font-size="10.00">AdvanceStickAssignmentDialog</text>
<text text-anchor="middle" x="94" y="-7.5" font-family="Helvetica,sans-Serif" font-size="10.00">::checkForAxisAssignmentStickTwo</text>
</a>
</g>
</g>
<!-- Node2&#45;&gt;Node4 -->
<g id="edge3" class="edge">
<title>Node2&#45;&gt;Node4</title>
<path fill="none" stroke="midnightblue" d="M213.59,-28.74C205.17,-27.8 196.66,-26.85 188.28,-25.91"/>
<polygon fill="midnightblue" stroke="midnightblue" points="213.46,-32.25 223.79,-29.88 214.24,-25.29 213.46,-32.25"/>
</g>
</g>
</svg>
