<?xml version="1.0" encoding="UTF-8" standalone="no"?>
<!DOCTYPE svg PUBLIC "-//W3C//DTD SVG 1.1//EN"
 "http://www.w3.org/Graphics/SVG/1.1/DTD/svg11.dtd">
<!-- Generated by graphviz version 2.43.0 (0)
 -->
<!-- Title: XMLConfigReader::read Pages: 1 -->
<svg width="1212pt" height="411pt"
 viewBox="0.00 0.00 1212.00 410.50" xmlns="http://www.w3.org/2000/svg" xmlns:xlink="http://www.w3.org/1999/xlink">
<g id="graph0" class="graph" transform="scale(1 1) rotate(0) translate(4 406.5)">
<title>XMLConfigReader::read</title>
<polygon fill="white" stroke="transparent" points="-4,4 -4,-406.5 1208,-406.5 1208,4 -4,4"/>
<!-- Node1 -->
<g id="node1" class="node">
<title>Node1</title>
<g id="a_node1"><a xlink:title=" ">
<polygon fill="#bfbfbf" stroke="black" points="0,-139 0,-158 131,-158 131,-139 0,-139"/>
<text text-anchor="middle" x="65.5" y="-146" font-family="Helvetica,sans-Serif" font-size="10.00">XMLConfigReader::read</text>
</a>
</g>
</g>
<!-- Node2 -->
<g id="node2" class="node">
<title>Node2</title>
<g id="a_node2"><a xlink:href="classXMLConfigMigration.html#a8af9befbbce30c416f18704190dc4e35" target="_top" xlink:title=" ">
<polygon fill="white" stroke="black" points="167,-156.5 167,-186.5 282,-186.5 282,-156.5 167,-156.5"/>
<text text-anchor="start" x="175" y="-174.5" font-family="Helvetica,sans-Serif" font-size="10.00">XMLConfigMigration</text>
<text text-anchor="middle" x="224.5" y="-163.5" font-family="Helvetica,sans-Serif" font-size="10.00">::migrate</text>
</a>
</g>
</g>
<!-- Node1&#45;&gt;Node2 -->
<g id="edge1" class="edge">
<title>Node1&#45;&gt;Node2</title>
<path fill="none" stroke="midnightblue" d="M131.26,-157.99C139.76,-159.23 148.49,-160.51 157.01,-161.76"/>
<polygon fill="midnightblue" stroke="midnightblue" points="156.51,-165.22 166.91,-163.21 157.52,-158.3 156.51,-165.22"/>
</g>
<!-- Node4 -->
<g id="node4" class="node">
<title>Node4</title>
<g id="a_node4"><a xlink:href="classXMLConfigMigration.html#afd3b0b54eb5bfed80e9b92dfd1ace18c" target="_top" xlink:title=" ">
<polygon fill="white" stroke="black" points="325,-109.5 325,-139.5 440,-139.5 440,-109.5 325,-109.5"/>
<text text-anchor="start" x="333" y="-127.5" font-family="Helvetica,sans-Serif" font-size="10.00">XMLConfigMigration</text>
<text text-anchor="middle" x="382.5" y="-116.5" font-family="Helvetica,sans-Serif" font-size="10.00">::requiresMigration</text>
</a>
</g>
</g>
<!-- Node1&#45;&gt;Node4 -->
<g id="edge23" class="edge">
<title>Node1&#45;&gt;Node4</title>
<path fill="none" stroke="midnightblue" d="M131.01,-143.59C184.52,-139.51 260.36,-133.73 314.55,-129.6"/>
<polygon fill="midnightblue" stroke="midnightblue" points="315.04,-133.07 324.74,-128.82 314.51,-126.09 315.04,-133.07"/>
</g>
<!-- Node3 -->
<g id="node3" class="node">
<title>Node3</title>
<g id="a_node3"><a xlink:href="classXMLConfigMigration.html#a4f6957aed78af4d221496b9de500fcc9" target="_top" xlink:title=" ">
<polygon fill="white" stroke="black" points="325,-207.5 325,-237.5 440,-237.5 440,-207.5 325,-207.5"/>
<text text-anchor="start" x="333" y="-225.5" font-family="Helvetica,sans-Serif" font-size="10.00">XMLConfigMigration</text>
<text text-anchor="middle" x="382.5" y="-214.5" font-family="Helvetica,sans-Serif" font-size="10.00">::readConfigToString</text>
</a>
</g>
</g>
<!-- Node2&#45;&gt;Node3 -->
<g id="edge2" class="edge">
<title>Node2&#45;&gt;Node3</title>
<path fill="none" stroke="midnightblue" d="M271.46,-186.53C288.52,-192.1 308.06,-198.49 325.89,-204.32"/>
<polygon fill="midnightblue" stroke="midnightblue" points="325.01,-207.71 335.6,-207.49 327.18,-201.06 325.01,-207.71"/>
</g>
<!-- Node2&#45;&gt;Node4 -->
<g id="edge3" class="edge">
<title>Node2&#45;&gt;Node4</title>
<path fill="none" stroke="midnightblue" d="M275.29,-156.5C290.06,-152.05 306.4,-147.13 321.74,-142.5"/>
<polygon fill="midnightblue" stroke="midnightblue" points="323.08,-145.76 331.65,-139.52 321.07,-139.05 323.08,-145.76"/>
</g>
<!-- Node5 -->
<g id="node5" class="node">
<title>Node5</title>
<g id="a_node5"><a xlink:href="classXMLConfigMigration.html#a422d184461a5aeddae8214bbd9ac99f9" target="_top" xlink:title=" ">
<polygon fill="white" stroke="black" points="318,-158.5 318,-188.5 447,-188.5 447,-158.5 318,-158.5"/>
<text text-anchor="start" x="326" y="-176.5" font-family="Helvetica,sans-Serif" font-size="10.00">XMLConfigMigration</text>
<text text-anchor="middle" x="382.5" y="-165.5" font-family="Helvetica,sans-Serif" font-size="10.00">::version0006Migration</text>
</a>
</g>
</g>
<!-- Node2&#45;&gt;Node5 -->
<g id="edge4" class="edge">
<title>Node2&#45;&gt;Node5</title>
<path fill="none" stroke="midnightblue" d="M282.26,-172.23C290.59,-172.33 299.27,-172.45 307.87,-172.56"/>
<polygon fill="midnightblue" stroke="midnightblue" points="307.87,-176.06 317.92,-172.68 307.96,-169.06 307.87,-176.06"/>
</g>
<!-- Node6 -->
<g id="node6" class="node">
<title>Node6</title>
<g id="a_node6"><a xlink:href="classBaseEventHandler.html#a9a014e472ec57408d16b8b5eed964e90" target="_top" xlink:title=" ">
<polygon fill="white" stroke="black" points="483,-336 483,-355 655,-355 655,-336 483,-336"/>
<text text-anchor="middle" x="569" y="-343" font-family="Helvetica,sans-Serif" font-size="10.00">BaseEventHandler::getIdentifier</text>
</a>
</g>
</g>
<!-- Node5&#45;&gt;Node6 -->
<g id="edge5" class="edge">
<title>Node5&#45;&gt;Node6</title>
<path fill="none" stroke="midnightblue" d="M434.83,-188.58C439.33,-191.36 443.5,-194.63 447,-198.5 486.63,-242.34 440.09,-285.86 483,-326.5 484.48,-327.9 486.04,-329.21 487.67,-330.43"/>
<polygon fill="midnightblue" stroke="midnightblue" points="485.99,-333.5 496.33,-335.82 489.68,-327.56 485.99,-333.5"/>
</g>
<!-- Node7 -->
<g id="node7" class="node">
<title>Node7</title>
<g id="a_node7"><a xlink:href="classAntKeyMapper.html#acd08c44a2501edcfdb1ef8a68d534b1b" target="_top" xlink:title=" ">
<polygon fill="white" stroke="black" points="493.5,-298 493.5,-317 644.5,-317 644.5,-298 493.5,-298"/>
<text text-anchor="middle" x="569" y="-305" font-family="Helvetica,sans-Serif" font-size="10.00">AntKeyMapper::getInstance</text>
</a>
</g>
</g>
<!-- Node5&#45;&gt;Node7 -->
<g id="edge6" class="edge">
<title>Node5&#45;&gt;Node7</title>
<path fill="none" stroke="midnightblue" d="M430.06,-188.59C436.02,-191.44 441.83,-194.73 447,-198.5 467.42,-213.39 464.84,-224.93 483,-242.5 502.33,-261.2 526.98,-279.54 544.75,-291.94"/>
<polygon fill="midnightblue" stroke="midnightblue" points="543.13,-295.07 553.35,-297.86 547.09,-289.31 543.13,-295.07"/>
</g>
<!-- Node10 -->
<g id="node10" class="node">
<title>Node10</title>
<g id="a_node10"><a xlink:href="classEventHandlerFactory.html#a90ce153a19fbb91128bd52eb083ce271" target="_top" xlink:title=" ">
<polygon fill="white" stroke="black" points="510,-202.5 510,-232.5 628,-232.5 628,-202.5 510,-202.5"/>
<text text-anchor="start" x="518" y="-220.5" font-family="Helvetica,sans-Serif" font-size="10.00">EventHandlerFactory</text>
<text text-anchor="middle" x="569" y="-209.5" font-family="Helvetica,sans-Serif" font-size="10.00">::getInstance</text>
</a>
</g>
</g>
<!-- Node5&#45;&gt;Node10 -->
<g id="edge9" class="edge">
<title>Node5&#45;&gt;Node10</title>
<path fill="none" stroke="midnightblue" d="M446.48,-188.52C463.67,-192.62 482.37,-197.08 499.84,-201.24"/>
<polygon fill="midnightblue" stroke="midnightblue" points="499.42,-204.74 509.96,-203.66 501.04,-197.93 499.42,-204.74"/>
</g>
<!-- Node13 -->
<g id="node13" class="node">
<title>Node13</title>
<g id="a_node13"><a xlink:href="classEventHandlerFactory.html#a4c13007f0ece5bf881080c9c04f1f20d" target="_top" xlink:title=" ">
<polygon fill="white" stroke="black" points="900,-202.5 900,-232.5 1018,-232.5 1018,-202.5 900,-202.5"/>
<text text-anchor="start" x="908" y="-220.5" font-family="Helvetica,sans-Serif" font-size="10.00">EventHandlerFactory</text>
<text text-anchor="middle" x="959" y="-209.5" font-family="Helvetica,sans-Serif" font-size="10.00">::handler</text>
</a>
</g>
</g>
<!-- Node5&#45;&gt;Node13 -->
<g id="edge15" class="edge">
<title>Node5&#45;&gt;Node13</title>
<path fill="none" stroke="midnightblue" d="M438.56,-158.48C529.28,-136.42 714.78,-102.64 862,-149.5 890.19,-158.47 917.2,-179.05 935.36,-195.24"/>
<polygon fill="midnightblue" stroke="midnightblue" points="933.31,-198.12 943.04,-202.31 938.05,-192.96 933.31,-198.12"/>
</g>
<!-- Node15 -->
<g id="node15" class="node">
<title>Node15</title>
<g id="a_node15"><a xlink:href="classAntKeyMapper.html#afc93b666a3e8691ae48184e8093797fb" target="_top" xlink:title=" ">
<polygon fill="white" stroke="black" points="493,-82 493,-101 645,-101 645,-82 493,-82"/>
<text text-anchor="middle" x="569" y="-89" font-family="Helvetica,sans-Serif" font-size="10.00">AntKeyMapper::returnQtKey</text>
</a>
</g>
</g>
<!-- Node5&#45;&gt;Node15 -->
<g id="edge16" class="edge">
<title>Node5&#45;&gt;Node15</title>
<path fill="none" stroke="midnightblue" d="M429.97,-158.41C435.88,-155.78 441.7,-152.81 447,-149.5 465.66,-137.83 463.86,-126.36 483,-115.5 491.03,-110.94 499.99,-107.2 508.99,-104.15"/>
<polygon fill="midnightblue" stroke="midnightblue" points="510.24,-107.42 518.73,-101.09 508.14,-100.74 510.24,-107.42"/>
</g>
<!-- Node17 -->
<g id="node17" class="node">
<title>Node17</title>
<g id="a_node17"><a xlink:href="event_8cpp.html#a720e476fc47628b6581dba3eb6ce9657" target="_top" xlink:title=" ">
<polygon fill="white" stroke="black" points="495.5,-44 495.5,-63 642.5,-63 642.5,-44 495.5,-44"/>
<text text-anchor="middle" x="569" y="-51" font-family="Helvetica,sans-Serif" font-size="10.00">X11KeyCodeToX11KeySym</text>
</a>
</g>
</g>
<!-- Node5&#45;&gt;Node17 -->
<g id="edge18" class="edge">
<title>Node5&#45;&gt;Node17</title>
<path fill="none" stroke="midnightblue" d="M434.51,-158.46C439.02,-155.91 443.28,-152.94 447,-149.5 474.71,-123.82 453.55,-96.16 483,-72.5 485.06,-70.84 487.24,-69.32 489.51,-67.93"/>
<polygon fill="midnightblue" stroke="midnightblue" points="491.4,-70.89 498.65,-63.16 488.16,-64.69 491.4,-70.89"/>
</g>
<!-- Node8 -->
<g id="node8" class="node">
<title>Node8</title>
<g id="a_node8"><a xlink:href="classAntKeyMapper.html#abe4a434636d370a750d32a14b9a139d3" target="_top" xlink:title=" ">
<polygon fill="white" stroke="black" points="694,-383 694,-402 859,-402 859,-383 694,-383"/>
<text text-anchor="middle" x="776.5" y="-390" font-family="Helvetica,sans-Serif" font-size="10.00">AntKeyMapper::AntKeyMapper</text>
</a>
</g>
</g>
<!-- Node7&#45;&gt;Node8 -->
<g id="edge7" class="edge">
<title>Node7&#45;&gt;Node8</title>
<path fill="none" stroke="midnightblue" d="M635.04,-317.01C642.07,-319.48 648.88,-322.59 655,-326.5 677.17,-340.67 668.84,-359.32 691,-373.5 694.32,-375.63 697.86,-377.52 701.52,-379.2"/>
<polygon fill="midnightblue" stroke="midnightblue" points="700.26,-382.46 710.84,-382.96 702.87,-375.97 700.26,-382.46"/>
</g>
<!-- Node9 -->
<g id="node9" class="node">
<title>Node9</title>
<g id="a_node9"><a xlink:href="antkeymapper_8cpp.html#a4f87707944cf82e8e59c85d48e24951c" target="_top" xlink:title=" ">
<polygon fill="white" stroke="black" points="709.5,-345 709.5,-364 843.5,-364 843.5,-345 709.5,-345"/>
<text text-anchor="middle" x="776.5" y="-352" font-family="Helvetica,sans-Serif" font-size="10.00">buildEventGeneratorList</text>
</a>
</g>
</g>
<!-- Node7&#45;&gt;Node9 -->
<g id="edge8" class="edge">
<title>Node7&#45;&gt;Node9</title>
<path fill="none" stroke="midnightblue" d="M613.73,-317.05C627,-320.01 641.61,-323.33 655,-326.5 671.05,-330.3 674.95,-331.69 691,-335.5 701.09,-337.9 711.87,-340.38 722.25,-342.73"/>
<polygon fill="midnightblue" stroke="midnightblue" points="721.51,-346.15 732.03,-344.93 723.05,-339.32 721.51,-346.15"/>
</g>
<!-- Node11 -->
<g id="node11" class="node">
<title>Node11</title>
<g id="a_node11"><a xlink:href="classEventHandlerFactory.html#ade5162034acc0f8683725fdb124bece0" target="_top" xlink:title=" ">
<polygon fill="white" stroke="black" points="706.5,-295.5 706.5,-325.5 846.5,-325.5 846.5,-295.5 706.5,-295.5"/>
<text text-anchor="start" x="714.5" y="-313.5" font-family="Helvetica,sans-Serif" font-size="10.00">EventHandlerFactory</text>
<text text-anchor="middle" x="776.5" y="-302.5" font-family="Helvetica,sans-Serif" font-size="10.00">::buildEventGeneratorList</text>
</a>
</g>
</g>
<!-- Node10&#45;&gt;Node11 -->
<g id="edge10" class="edge">
<title>Node10&#45;&gt;Node11</title>
<path fill="none" stroke="midnightblue" d="M592.79,-232.73C616.5,-248.02 655.1,-271.43 691,-286.5 695.8,-288.51 700.82,-290.42 705.92,-292.21"/>
<polygon fill="midnightblue" stroke="midnightblue" points="705.19,-295.65 715.78,-295.5 707.4,-289.01 705.19,-295.65"/>
</g>
<!-- Node12 -->
<g id="node12" class="node">
<title>Node12</title>
<g id="a_node12"><a xlink:href="classEventHandlerFactory.html#a2f843293b2ea47271fc7bd99bd871fa6" target="_top" xlink:title=" ">
<polygon fill="white" stroke="black" points="714.5,-246.5 714.5,-276.5 838.5,-276.5 838.5,-246.5 714.5,-246.5"/>
<text text-anchor="start" x="722.5" y="-264.5" font-family="Helvetica,sans-Serif" font-size="10.00">EventHandlerFactory</text>
<text text-anchor="middle" x="776.5" y="-253.5" font-family="Helvetica,sans-Serif" font-size="10.00">::EventHandlerFactory</text>
</a>
</g>
</g>
<!-- Node10&#45;&gt;Node12 -->
<g id="edge11" class="edge">
<title>Node10&#45;&gt;Node12</title>
<path fill="none" stroke="midnightblue" d="M628.06,-229.93C651.85,-235.02 679.6,-240.97 704.57,-246.31"/>
<polygon fill="midnightblue" stroke="midnightblue" points="703.84,-249.74 714.35,-248.41 705.31,-242.89 703.84,-249.74"/>
</g>
<!-- Node10&#45;&gt;Node13 -->
<g id="edge14" class="edge">
<title>Node10&#45;&gt;Node13</title>
<path fill="none" stroke="midnightblue" d="M628.09,-217.5C698.05,-217.5 815.4,-217.5 889.65,-217.5"/>
<polygon fill="midnightblue" stroke="midnightblue" points="889.83,-221 899.83,-217.5 889.83,-214 889.83,-221"/>
</g>
<!-- Node14 -->
<g id="node14" class="node">
<title>Node14</title>
<g id="a_node14"><a xlink:href="classEventHandlerFactory.html#afa5ca0171c70b1a24f92b5c8dd00dc92" target="_top" xlink:title=" ">
<polygon fill="white" stroke="black" points="717.5,-158.5 717.5,-188.5 835.5,-188.5 835.5,-158.5 717.5,-158.5"/>
<text text-anchor="start" x="725.5" y="-176.5" font-family="Helvetica,sans-Serif" font-size="10.00">EventHandlerFactory</text>
<text text-anchor="middle" x="776.5" y="-165.5" font-family="Helvetica,sans-Serif" font-size="10.00">::fallBackIdentifier</text>
</a>
</g>
</g>
<!-- Node10&#45;&gt;Node14 -->
<g id="edge13" class="edge">
<title>Node10&#45;&gt;Node14</title>
<path fill="none" stroke="midnightblue" d="M628.06,-205.07C652.69,-199.8 681.56,-193.61 707.2,-188.12"/>
<polygon fill="midnightblue" stroke="midnightblue" points="708.18,-191.49 717.22,-185.98 706.71,-184.65 708.18,-191.49"/>
</g>
<!-- Node12&#45;&gt;Node13 -->
<g id="edge12" class="edge">
<title>Node12&#45;&gt;Node13</title>
<path fill="none" stroke="midnightblue" d="M838.61,-246.6C855.11,-242.58 873.07,-238.2 889.92,-234.1"/>
<polygon fill="midnightblue" stroke="midnightblue" points="890.81,-237.48 899.7,-231.71 889.16,-230.68 890.81,-237.48"/>
</g>
<!-- Node16 -->
<g id="node16" class="node">
<title>Node16</title>
<g id="a_node16"><a xlink:href="classQtKeyMapperBase.html#a320ec78a9a4a978014992808ca787796" target="_top" xlink:title=" ">
<polygon fill="white" stroke="black" points="691,-82 691,-101 862,-101 862,-82 691,-82"/>
<text text-anchor="middle" x="776.5" y="-89" font-family="Helvetica,sans-Serif" font-size="10.00">QtKeyMapperBase::returnQtKey</text>
</a>
</g>
</g>
<!-- Node15&#45;&gt;Node16 -->
<g id="edge17" class="edge">
<title>Node15&#45;&gt;Node16</title>
<path fill="none" stroke="midnightblue" d="M645.06,-91.5C656.71,-91.5 668.86,-91.5 680.87,-91.5"/>
<polygon fill="midnightblue" stroke="midnightblue" points="680.91,-95 690.91,-91.5 680.91,-88 680.91,-95"/>
</g>
<!-- Node18 -->
<g id="node18" class="node">
<title>Node18</title>
<g id="a_node18"><a xlink:href="classX11Extras.html#a643c95dc1de8eb073a0accb41619fe83" target="_top" xlink:title="Get display instance.">
<polygon fill="white" stroke="black" points="723,-44 723,-63 830,-63 830,-44 723,-44"/>
<text text-anchor="middle" x="776.5" y="-51" font-family="Helvetica,sans-Serif" font-size="10.00">X11Extras::display</text>
</a>
</g>
</g>
<!-- Node17&#45;&gt;Node18 -->
<g id="edge19" class="edge">
<title>Node17&#45;&gt;Node18</title>
<path fill="none" stroke="midnightblue" d="M642.74,-53.5C665.57,-53.5 690.56,-53.5 712.64,-53.5"/>
<polygon fill="midnightblue" stroke="midnightblue" points="712.89,-57 722.89,-53.5 712.89,-50 712.89,-57"/>
</g>
<!-- Node19 -->
<g id="node19" class="node">
<title>Node19</title>
<g id="a_node19"><a xlink:href="classX11Extras.html#ace76277fced60e6bd6ff880030338182" target="_top" xlink:title=" ">
<polygon fill="white" stroke="black" points="712,-6 712,-25 841,-25 841,-6 712,-6"/>
<text text-anchor="middle" x="776.5" y="-13" font-family="Helvetica,sans-Serif" font-size="10.00">X11Extras::getInstance</text>
</a>
</g>
</g>
<!-- Node17&#45;&gt;Node19 -->
<g id="edge20" class="edge">
<title>Node17&#45;&gt;Node19</title>
<path fill="none" stroke="midnightblue" d="M621.59,-43.96C649.56,-38.79 684.32,-32.36 713.73,-26.92"/>
<polygon fill="midnightblue" stroke="midnightblue" points="714.69,-30.3 723.89,-25.04 713.42,-23.42 714.69,-30.3"/>
</g>
<!-- Node20 -->
<g id="node20" class="node">
<title>Node20</title>
<g id="a_node20"><a xlink:href="classX11Extras.html#ab9bcb016e23bacb0e988feb8175d2c88" target="_top" xlink:title=" ">
<polygon fill="white" stroke="black" points="898,-6 898,-25 1020,-25 1020,-6 898,-6"/>
<text text-anchor="middle" x="959" y="-13" font-family="Helvetica,sans-Serif" font-size="10.00">X11Extras::X11Extras</text>
</a>
</g>
</g>
<!-- Node19&#45;&gt;Node20 -->
<g id="edge21" class="edge">
<title>Node19&#45;&gt;Node20</title>
<path fill="none" stroke="midnightblue" d="M841.14,-15.5C856.15,-15.5 872.23,-15.5 887.53,-15.5"/>
<polygon fill="midnightblue" stroke="midnightblue" points="887.96,-19 897.96,-15.5 887.96,-12 887.96,-19"/>
</g>
<!-- Node21 -->
<g id="node21" class="node">
<title>Node21</title>
<g id="a_node21"><a xlink:href="classX11Extras.html#a6f63e77ed045e174546d77333672b8f0" target="_top" xlink:title=" ">
<polygon fill="white" stroke="black" points="1056,-0.5 1056,-30.5 1204,-30.5 1204,-0.5 1056,-0.5"/>
<text text-anchor="start" x="1064" y="-18.5" font-family="Helvetica,sans-Serif" font-size="10.00">X11Extras::populateKnown</text>
<text text-anchor="middle" x="1130" y="-7.5" font-family="Helvetica,sans-Serif" font-size="10.00">Aliases</text>
</a>
</g>
</g>
<!-- Node20&#45;&gt;Node21 -->
<g id="edge22" class="edge">
<title>Node20&#45;&gt;Node21</title>
<path fill="none" stroke="midnightblue" d="M1020.06,-15.5C1028.38,-15.5 1037.04,-15.5 1045.69,-15.5"/>
<polygon fill="midnightblue" stroke="midnightblue" points="1045.81,-19 1055.81,-15.5 1045.81,-12 1045.81,-19"/>
</g>
</g>
</svg>
