<?xml version="1.0" encoding="UTF-8" standalone="no"?>
<!DOCTYPE svg PUBLIC "-//W3C//DTD SVG 1.1//EN"
 "http://www.w3.org/Graphics/SVG/1.1/DTD/svg11.dtd">
<!-- Generated by graphviz version 2.43.0 (0)
 -->
<!-- Title: VirtualKeyboardMouseWidget::clearButtonSlots Pages: 1 -->
<!--zoomable 496 -->
<svg id="main" version="1.1" xmlns="http://www.w3.org/2000/svg" xmlns:xlink="http://www.w3.org/1999/xlink" xml:space="preserve" onload="init(evt)">
<style type="text/css"><![CDATA[
.edge:hover path { stroke: red; }
.edge:hover polygon { stroke: red; fill: red; }
]]></style>
<script type="text/javascript"><![CDATA[
var edges = document.getElementsByTagName('g');
if (edges && edges.length) {
  for (var i=0;i<edges.length;i++) {
    if (edges[i].id.substr(0,4)=='edge') {
      edges[i].setAttribute('class','edge');
    }
  }
}
]]></script>
        <defs>
                <circle id="rim" cx="0" cy="0" r="7"/>
                <circle id="rim2" cx="0" cy="0" r="3.5"/>
                <g id="zoomPlus">
                        <use xlink:href="#rim" fill="#404040">
                                <set attributeName="fill" to="#808080" begin="zoomplus.mouseover" end="zoomplus.mouseout"/>
                        </use>
                        <path d="M-4,0h8M0,-4v8" fill="none" stroke="white" stroke-width="1.5" pointer-events="none"/>
                </g>
                <g id="zoomMin">
                        <use xlink:href="#rim" fill="#404040">
                                <set attributeName="fill" to="#808080" begin="zoomminus.mouseover" end="zoomminus.mouseout"/>
                        </use>
                        <path d="M-4,0h8" fill="none" stroke="white" stroke-width="1.5" pointer-events="none"/>
                </g>
                <g id="dirArrow">
                        <path fill="none" stroke="white" stroke-width="1.5" d="M0,-3.0v7 M-2.5,-0.5L0,-3.0L2.5,-0.5"/>
                </g>
               <g id="resetDef">
                       <use xlink:href="#rim2" fill="#404040">
                               <set attributeName="fill" to="#808080" begin="reset.mouseover" end="reset.mouseout"/>
                       </use>
               </g>
        </defs>

<script type="text/javascript">
var viewWidth = 2326;
var viewHeight = 496;
var sectionId = 'dynsection-7';
</script>
<script xlink:href="svgpan.js"/>
<svg id="graph" class="graph">
<g id="viewport">
<title>VirtualKeyboardMouseWidget::clearButtonSlots</title>
<polygon fill="white" stroke="transparent" points="-4,4 -4,-492 2322,-492 2322,4 -4,4"/>
<!-- Node1 -->
<g id="node1" class="node">
<title>Node1</title>
<g id="a_node1"><a xlink:title=" ">
<polygon fill="#bfbfbf" stroke="black" points="0,-101.5 0,-131.5 161,-131.5 161,-101.5 0,-101.5"/>
<text text-anchor="start" x="8" y="-119.5" font-family="Helvetica,sans-Serif" font-size="10.00">VirtualKeyboardMouseWidget</text>
<text text-anchor="middle" x="80.5" y="-108.5" font-family="Helvetica,sans-Serif" font-size="10.00">::clearButtonSlots</text>
</a>
</g>
</g>
<!-- Node2 -->
<g id="node2" class="node">
<title>Node2</title>
<g id="a_node2"><a xlink:href="classJoyButton.html#ad2df77b5daa94a848b015265ec1869d6" target="_top" xlink:title="Generate active zone string and notify other objects.">
<polygon fill="white" stroke="black" points="203.5,-123.5 203.5,-153.5 352.5,-153.5 352.5,-123.5 203.5,-123.5"/>
<text text-anchor="start" x="211.5" y="-141.5" font-family="Helvetica,sans-Serif" font-size="10.00">JoyButton::buildActiveZone</text>
<text text-anchor="middle" x="278" y="-130.5" font-family="Helvetica,sans-Serif" font-size="10.00">SummaryString</text>
</a>
</g>
</g>
<!-- Node1&#45;&gt;Node2 -->
<g id="edge1" class="edge">
<title>Node1&#45;&gt;Node2</title>
<path fill="none" stroke="midnightblue" d="M161.02,-125.45C171.59,-126.64 182.46,-127.86 193.11,-129.06"/>
<polygon fill="midnightblue" stroke="midnightblue" points="192.9,-132.56 203.23,-130.2 193.68,-125.6 192.9,-132.56"/>
</g>
<!-- Node41 -->
<g id="node41" class="node">
<title>Node41</title>
<g id="a_node41"><a xlink:href="classButtonEditDialog.html#af8126f12b4a9a65a316a335288e8cb79" target="_top" xlink:title=" ">
<polygon fill="white" stroke="black" points="197,-85 197,-104 359,-104 359,-85 197,-85"/>
<text text-anchor="middle" x="278" y="-92" font-family="Helvetica,sans-Serif" font-size="10.00">ButtonEditDialog::getInstance</text>
</a>
</g>
</g>
<!-- Node1&#45;&gt;Node41 -->
<g id="edge52" class="edge">
<title>Node1&#45;&gt;Node41</title>
<path fill="none" stroke="midnightblue" d="M161.02,-107.55C169.53,-106.59 178.23,-105.61 186.85,-104.64"/>
<polygon fill="midnightblue" stroke="midnightblue" points="187.37,-108.11 196.92,-103.51 186.59,-101.15 187.37,-108.11"/>
</g>
<!-- Node3 -->
<g id="node3" class="node">
<title>Node3</title>
<g id="a_node3"><a xlink:href="classJoyButton.html#ae76ccd3147106953d53a565730c1d8ee" target="_top" xlink:title="Generate a string that represents slots that will be activated or slots that are currently active if ...">
<polygon fill="white" stroke="black" points="395,-148.5 395,-178.5 536,-178.5 536,-148.5 395,-148.5"/>
<text text-anchor="start" x="403" y="-166.5" font-family="Helvetica,sans-Serif" font-size="10.00">JoyButton::getActiveZone</text>
<text text-anchor="middle" x="465.5" y="-155.5" font-family="Helvetica,sans-Serif" font-size="10.00">Summary</text>
</a>
</g>
</g>
<!-- Node2&#45;&gt;Node3 -->
<g id="edge2" class="edge">
<title>Node2&#45;&gt;Node3</title>
<path fill="none" stroke="midnightblue" d="M352.58,-148.42C363.16,-149.84 374.09,-151.31 384.78,-152.76"/>
<polygon fill="midnightblue" stroke="midnightblue" points="384.56,-156.26 394.93,-154.12 385.49,-149.32 384.56,-156.26"/>
</g>
<!-- Node40 -->
<g id="node40" class="node">
<title>Node40</title>
<g id="a_node40"><a xlink:href="classJoyButton.html#a1b49d9ab85f0d5d128e2eca616747018" target="_top" xlink:title=" ">
<polygon fill="white" stroke="black" points="397,-99.5 397,-129.5 534,-129.5 534,-99.5 397,-99.5"/>
<text text-anchor="start" x="405" y="-117.5" font-family="Helvetica,sans-Serif" font-size="10.00">JoyButton::lockForWrited</text>
<text text-anchor="middle" x="465.5" y="-106.5" font-family="Helvetica,sans-Serif" font-size="10.00">String</text>
</a>
</g>
</g>
<!-- Node2&#45;&gt;Node40 -->
<g id="edge51" class="edge">
<title>Node2&#45;&gt;Node40</title>
<path fill="none" stroke="midnightblue" d="M352.58,-128.98C363.73,-127.54 375.27,-126.04 386.51,-124.59"/>
<polygon fill="midnightblue" stroke="midnightblue" points="387.27,-128.02 396.73,-123.27 386.37,-121.08 387.27,-128.02"/>
</g>
<!-- Node4 -->
<g id="node4" class="node">
<title>Node4</title>
<g id="a_node4"><a xlink:href="classJoyButton.html#a9404c4ca344265ce68c0eb9b6b95048b" target="_top" xlink:title=" ">
<polygon fill="white" stroke="black" points="576.5,-118.5 576.5,-148.5 725.5,-148.5 725.5,-118.5 576.5,-118.5"/>
<text text-anchor="start" x="584.5" y="-136.5" font-family="Helvetica,sans-Serif" font-size="10.00">JoyButton::buildActiveZone</text>
<text text-anchor="middle" x="651" y="-125.5" font-family="Helvetica,sans-Serif" font-size="10.00">Summary</text>
</a>
</g>
</g>
<!-- Node3&#45;&gt;Node4 -->
<g id="edge3" class="edge">
<title>Node3&#45;&gt;Node4</title>
<path fill="none" stroke="midnightblue" d="M536.14,-152.12C546.02,-150.5 556.27,-148.82 566.39,-147.17"/>
<polygon fill="midnightblue" stroke="midnightblue" points="567.14,-150.59 576.44,-145.53 566.01,-143.69 567.14,-150.59"/>
</g>
<!-- Node38 -->
<g id="node38" class="node">
<title>Node38</title>
<g id="a_node38"><a xlink:href="classJoyButton.html#a7494c1753b3f16ba988076e9eb34ff47" target="_top" xlink:title=" ">
<polygon fill="white" stroke="black" points="572,-184 572,-203 730,-203 730,-184 572,-184"/>
<text text-anchor="middle" x="651" y="-191" font-family="Helvetica,sans-Serif" font-size="10.00">JoyButton::getActiveZoneList</text>
</a>
</g>
</g>
<!-- Node3&#45;&gt;Node38 -->
<g id="edge46" class="edge">
<title>Node3&#45;&gt;Node38</title>
<path fill="none" stroke="midnightblue" d="M536.14,-174.88C551.05,-177.32 566.78,-179.9 581.65,-182.32"/>
<polygon fill="midnightblue" stroke="midnightblue" points="581.34,-185.82 591.77,-183.98 582.47,-178.91 581.34,-185.82"/>
</g>
<!-- Node5 -->
<g id="node5" class="node">
<title>Node5</title>
<g id="a_node5"><a xlink:href="classJoyButton.html#a773bbe39b094a62cd17776acc06efac6" target="_top" xlink:title=" ">
<polygon fill="white" stroke="black" points="768.5,-58.5 768.5,-88.5 917.5,-88.5 917.5,-58.5 768.5,-58.5"/>
<text text-anchor="start" x="776.5" y="-76.5" font-family="Helvetica,sans-Serif" font-size="10.00">JoyButton::buildActiveZone</text>
<text text-anchor="middle" x="843" y="-65.5" font-family="Helvetica,sans-Serif" font-size="10.00">SummarySwitchSlots</text>
</a>
</g>
</g>
<!-- Node4&#45;&gt;Node5 -->
<g id="edge4" class="edge">
<title>Node4&#45;&gt;Node5</title>
<path fill="none" stroke="midnightblue" d="M699.95,-118.36C725.7,-110.23 757.62,-100.15 784.67,-91.6"/>
<polygon fill="midnightblue" stroke="midnightblue" points="785.92,-94.88 794.4,-88.53 783.81,-88.21 785.92,-94.88"/>
</g>
<!-- Node8 -->
<g id="node8" class="node">
<title>Node8</title>
<g id="a_node8"><a xlink:href="classJoyButtonSlot.html#a4fb0606a34134786bc642627bc25aedd" target="_top" xlink:title=" ">
<polygon fill="white" stroke="black" points="1159,-20 1159,-39 1305,-39 1305,-20 1159,-20"/>
<text text-anchor="middle" x="1232" y="-27" font-family="Helvetica,sans-Serif" font-size="10.00">JoyButtonSlot::getMixSlots</text>
</a>
</g>
</g>
<!-- Node4&#45;&gt;Node8 -->
<g id="edge43" class="edge">
<title>Node4&#45;&gt;Node8</title>
<path fill="none" stroke="midnightblue" d="M666.1,-118.38C686.08,-98.15 724.82,-63.1 766,-48.5 895.31,-2.65 1057.68,-9.26 1152.34,-18.92"/>
<polygon fill="midnightblue" stroke="midnightblue" points="1152.1,-22.41 1162.42,-19.98 1152.84,-15.45 1152.1,-22.41"/>
</g>
<!-- Node35 -->
<g id="node35" class="node">
<title>Node35</title>
<g id="a_node35"><a xlink:href="classJoyButton.html#a64f1660931aea2fa8df1bf5e313c05ba" target="_top" xlink:title=" ">
<polygon fill="white" stroke="black" points="773,-184 773,-203 913,-203 913,-184 773,-184"/>
<text text-anchor="middle" x="843" y="-191" font-family="Helvetica,sans-Serif" font-size="10.00">JoyButton::getActiveSlots</text>
</a>
</g>
</g>
<!-- Node4&#45;&gt;Node35 -->
<g id="edge42" class="edge">
<title>Node4&#45;&gt;Node35</title>
<path fill="none" stroke="midnightblue" d="M690.72,-148.52C712.63,-156.74 740.64,-166.79 766,-174.5 774.04,-176.95 782.63,-179.32 791.04,-181.51"/>
<polygon fill="midnightblue" stroke="midnightblue" points="790.22,-184.91 800.77,-183.99 791.95,-178.13 790.22,-184.91"/>
</g>
<!-- Node36 -->
<g id="node36" class="node">
<title>Node36</title>
<g id="a_node36"><a xlink:href="classJoyButtonSlot.html#a86b4a25191351f28942511012a4e4e4a" target="_top" xlink:title=" ">
<polygon fill="white" stroke="black" points="768,-146 768,-165 918,-165 918,-146 768,-146"/>
<text text-anchor="middle" x="843" y="-153" font-family="Helvetica,sans-Serif" font-size="10.00">JoyButtonSlot::getSlotMode</text>
</a>
</g>
</g>
<!-- Node4&#45;&gt;Node36 -->
<g id="edge44" class="edge">
<title>Node4&#45;&gt;Node36</title>
<path fill="none" stroke="midnightblue" d="M725.73,-142.04C736.24,-143.25 747.12,-144.51 757.82,-145.75"/>
<polygon fill="midnightblue" stroke="midnightblue" points="757.66,-149.26 768,-146.93 758.47,-142.3 757.66,-149.26"/>
</g>
<!-- Node37 -->
<g id="node37" class="node">
<title>Node37</title>
<g id="a_node37"><a xlink:href="classJoyButtonSlot.html#aa08ff979d05b38df8f584b77bb750abb" target="_top" xlink:title=" ">
<polygon fill="white" stroke="black" points="769,-108 769,-127 917,-127 917,-108 769,-108"/>
<text text-anchor="middle" x="843" y="-115" font-family="Helvetica,sans-Serif" font-size="10.00">JoyButtonSlot::getTextData</text>
</a>
</g>
</g>
<!-- Node4&#45;&gt;Node37 -->
<g id="edge45" class="edge">
<title>Node4&#45;&gt;Node37</title>
<path fill="none" stroke="midnightblue" d="M725.73,-127.29C736.59,-126.38 747.84,-125.43 758.88,-124.5"/>
<polygon fill="midnightblue" stroke="midnightblue" points="759.26,-127.98 768.94,-123.65 758.68,-121 759.26,-127.98"/>
</g>
<!-- Node6 -->
<g id="node6" class="node">
<title>Node6</title>
<g id="a_node6"><a xlink:href="classJoyButton.html#acb0ee9af0f5a44bd07ca5cfbfd026cf6" target="_top" xlink:title=" ">
<polygon fill="white" stroke="black" points="959.5,-181 959.5,-200 1104.5,-200 1104.5,-181 959.5,-181"/>
<text text-anchor="middle" x="1032" y="-188" font-family="Helvetica,sans-Serif" font-size="10.00">JoyButton::findJoySlotsEnd</text>
</a>
</g>
</g>
<!-- Node5&#45;&gt;Node6 -->
<g id="edge5" class="edge">
<title>Node5&#45;&gt;Node6</title>
<path fill="none" stroke="midnightblue" d="M898.22,-88.54C905.73,-91.42 913.19,-94.74 920,-98.5 957.32,-119.13 994.13,-153.05 1014.58,-173.43"/>
<polygon fill="midnightblue" stroke="midnightblue" points="1012.31,-176.11 1021.82,-180.77 1017.29,-171.2 1012.31,-176.11"/>
</g>
<!-- Node7 -->
<g id="node7" class="node">
<title>Node7</title>
<g id="a_node7"><a xlink:href="classJoyButtonSlot.html#a6e10409ded595380cbdcfd5c827ab32a" target="_top" xlink:title=" ">
<polygon fill="white" stroke="black" points="956,-64 956,-83 1108,-83 1108,-64 956,-64"/>
<text text-anchor="middle" x="1032" y="-71" font-family="Helvetica,sans-Serif" font-size="10.00">JoyButtonSlot::getSlotString</text>
</a>
</g>
</g>
<!-- Node5&#45;&gt;Node7 -->
<g id="edge6" class="edge">
<title>Node5&#45;&gt;Node7</title>
<path fill="none" stroke="midnightblue" d="M917.64,-73.5C926.87,-73.5 936.37,-73.5 945.76,-73.5"/>
<polygon fill="midnightblue" stroke="midnightblue" points="945.89,-77 955.89,-73.5 945.89,-70 945.89,-77"/>
</g>
<!-- Node7&#45;&gt;Node8 -->
<g id="edge7" class="edge">
<title>Node7&#45;&gt;Node8</title>
<path fill="none" stroke="midnightblue" d="M1075.96,-63.95C1105.93,-57.29 1146.11,-48.36 1178.06,-41.26"/>
<polygon fill="midnightblue" stroke="midnightblue" points="1179.12,-44.61 1188.12,-39.03 1177.6,-37.78 1179.12,-44.61"/>
</g>
<!-- Node10 -->
<g id="node10" class="node">
<title>Node10</title>
<g id="a_node10"><a xlink:href="namespacePadderCommon.html#aaa09739d2df84421a5a3467a06ce941c" target="_top" xlink:title="Returns the &quot;human&#45;readable&quot; name of the given profile.">
<polygon fill="white" stroke="black" points="1144,-61 1144,-80 1320,-80 1320,-61 1144,-61"/>
<text text-anchor="middle" x="1232" y="-68" font-family="Helvetica,sans-Serif" font-size="10.00">PadderCommon::getProfileName</text>
</a>
</g>
</g>
<!-- Node7&#45;&gt;Node10 -->
<g id="edge9" class="edge">
<title>Node7&#45;&gt;Node10</title>
<path fill="none" stroke="midnightblue" d="M1108.14,-72.36C1116.55,-72.23 1125.21,-72.1 1133.85,-71.97"/>
<polygon fill="midnightblue" stroke="midnightblue" points="1134.02,-75.47 1143.97,-71.82 1133.91,-68.47 1134.02,-75.47"/>
</g>
<!-- Node11 -->
<g id="node11" class="node">
<title>Node11</title>
<g id="a_node11"><a xlink:href="event_8cpp.html#a76ce89b71143c1c09343f45f038b4a67" target="_top" xlink:title=" ">
<polygon fill="white" stroke="black" points="1176,-147 1176,-166 1288,-166 1288,-147 1176,-147"/>
<text text-anchor="middle" x="1232" y="-154" font-family="Helvetica,sans-Serif" font-size="10.00">keysymToKeyString</text>
</a>
</g>
</g>
<!-- Node7&#45;&gt;Node11 -->
<g id="edge10" class="edge">
<title>Node7&#45;&gt;Node11</title>
<path fill="none" stroke="midnightblue" d="M1050.74,-83.03C1072.39,-94.44 1110.27,-113.74 1144,-127.5 1158.49,-133.41 1174.69,-139.06 1189.13,-143.77"/>
<polygon fill="midnightblue" stroke="midnightblue" points="1188.23,-147.16 1198.82,-146.88 1190.36,-140.49 1188.23,-147.16"/>
</g>
<!-- Node34 -->
<g id="node34" class="node">
<title>Node34</title>
<g id="a_node34"><a xlink:href="classJoyButtonSlot.html#a37ff2b523177bae4ea6a44b82f2973eb" target="_top" xlink:title=" ">
<polygon fill="white" stroke="black" points="1147,-99 1147,-118 1317,-118 1317,-99 1147,-99"/>
<text text-anchor="middle" x="1232" y="-106" font-family="Helvetica,sans-Serif" font-size="10.00">JoyButtonSlot::movementString</text>
</a>
</g>
</g>
<!-- Node7&#45;&gt;Node34 -->
<g id="edge41" class="edge">
<title>Node7&#45;&gt;Node34</title>
<path fill="none" stroke="midnightblue" d="M1086.84,-83.02C1111.61,-87.4 1141.18,-92.62 1167.07,-97.2"/>
<polygon fill="midnightblue" stroke="midnightblue" points="1166.71,-100.69 1177.17,-98.98 1167.93,-93.8 1166.71,-100.69"/>
</g>
<!-- Node9 -->
<g id="node9" class="node">
<title>Node9</title>
<g id="a_node9"><a xlink:href="classJoyButtonSlot.html#a9ba9cb0dda063a7df5575072c0aabe01" target="_top" xlink:title=" ">
<polygon fill="white" stroke="black" points="1356,-0.5 1356,-30.5 1495,-30.5 1495,-0.5 1356,-0.5"/>
<text text-anchor="start" x="1364" y="-18.5" font-family="Helvetica,sans-Serif" font-size="10.00">JoyButtonSlot::secureMix</text>
<text text-anchor="middle" x="1425.5" y="-7.5" font-family="Helvetica,sans-Serif" font-size="10.00">SlotsInit</text>
</a>
</g>
</g>
<!-- Node8&#45;&gt;Node9 -->
<g id="edge8" class="edge">
<title>Node8&#45;&gt;Node9</title>
<path fill="none" stroke="midnightblue" d="M1305.13,-24.23C1318.39,-23.26 1332.3,-22.24 1345.75,-21.26"/>
<polygon fill="midnightblue" stroke="midnightblue" points="1346.2,-24.73 1355.92,-20.51 1345.69,-17.75 1346.2,-24.73"/>
</g>
<!-- Node12 -->
<g id="node12" class="node">
<title>Node12</title>
<g id="a_node12"><a xlink:href="classX11Extras.html#a643c95dc1de8eb073a0accb41619fe83" target="_top" xlink:title="Get display instance.">
<polygon fill="white" stroke="black" points="1574,-147 1574,-166 1681,-166 1681,-147 1574,-147"/>
<text text-anchor="middle" x="1627.5" y="-154" font-family="Helvetica,sans-Serif" font-size="10.00">X11Extras::display</text>
</a>
</g>
</g>
<!-- Node11&#45;&gt;Node12 -->
<g id="edge11" class="edge">
<title>Node11&#45;&gt;Node12</title>
<path fill="none" stroke="midnightblue" d="M1288.13,-156.5C1360.55,-156.5 1487.43,-156.5 1563.55,-156.5"/>
<polygon fill="midnightblue" stroke="midnightblue" points="1563.94,-160 1573.94,-156.5 1563.94,-153 1563.94,-160"/>
</g>
<!-- Node13 -->
<g id="node13" class="node">
<title>Node13</title>
<g id="a_node13"><a xlink:href="classBaseEventHandler.html#a9a014e472ec57408d16b8b5eed964e90" target="_top" xlink:title=" ">
<polygon fill="white" stroke="black" points="1541.5,-109 1541.5,-128 1713.5,-128 1713.5,-109 1541.5,-109"/>
<text text-anchor="middle" x="1627.5" y="-116" font-family="Helvetica,sans-Serif" font-size="10.00">BaseEventHandler::getIdentifier</text>
</a>
</g>
</g>
<!-- Node11&#45;&gt;Node13 -->
<g id="edge12" class="edge">
<title>Node11&#45;&gt;Node13</title>
<path fill="none" stroke="midnightblue" d="M1288.13,-151.18C1351.08,-145.1 1455.19,-135.04 1531.33,-127.69"/>
<polygon fill="midnightblue" stroke="midnightblue" points="1531.8,-131.16 1541.41,-126.72 1531.12,-124.19 1531.8,-131.16"/>
</g>
<!-- Node14 -->
<g id="node14" class="node">
<title>Node14</title>
<g id="a_node14"><a xlink:href="classX11Extras.html#ace76277fced60e6bd6ff880030338182" target="_top" xlink:title=" ">
<polygon fill="white" stroke="black" points="1563,-463 1563,-482 1692,-482 1692,-463 1563,-463"/>
<text text-anchor="middle" x="1627.5" y="-470" font-family="Helvetica,sans-Serif" font-size="10.00">X11Extras::getInstance</text>
</a>
</g>
</g>
<!-- Node11&#45;&gt;Node14 -->
<g id="edge13" class="edge">
<title>Node11&#45;&gt;Node14</title>
<path fill="none" stroke="midnightblue" d="M1239.41,-166.14C1267.79,-207.98 1387.17,-375 1531,-448.5 1540.23,-453.22 1550.44,-457.04 1560.66,-460.14"/>
<polygon fill="midnightblue" stroke="midnightblue" points="1559.84,-463.55 1570.42,-462.89 1561.74,-456.81 1559.84,-463.55"/>
</g>
<!-- Node17 -->
<g id="node17" class="node">
<title>Node17</title>
<g id="a_node17"><a xlink:href="classEventHandlerFactory.html#a90ce153a19fbb91128bd52eb083ce271" target="_top" xlink:title=" ">
<polygon fill="white" stroke="black" points="1568.5,-185.5 1568.5,-215.5 1686.5,-215.5 1686.5,-185.5 1568.5,-185.5"/>
<text text-anchor="start" x="1576.5" y="-203.5" font-family="Helvetica,sans-Serif" font-size="10.00">EventHandlerFactory</text>
<text text-anchor="middle" x="1627.5" y="-192.5" font-family="Helvetica,sans-Serif" font-size="10.00">::getInstance</text>
</a>
</g>
</g>
<!-- Node11&#45;&gt;Node17 -->
<g id="edge16" class="edge">
<title>Node11&#45;&gt;Node17</title>
<path fill="none" stroke="midnightblue" d="M1288.1,-162.81C1309.32,-165.23 1333.79,-168 1356,-170.5 1424.81,-178.23 1503.49,-186.94 1558.18,-192.98"/>
<polygon fill="midnightblue" stroke="midnightblue" points="1558.13,-196.49 1568.45,-194.11 1558.9,-189.54 1558.13,-196.49"/>
</g>
<!-- Node20 -->
<g id="node20" class="node">
<title>Node20</title>
<g id="a_node20"><a xlink:href="classEventHandlerFactory.html#a4c13007f0ece5bf881080c9c04f1f20d" target="_top" xlink:title=" ">
<polygon fill="white" stroke="black" points="1970.5,-153.5 1970.5,-183.5 2088.5,-183.5 2088.5,-153.5 1970.5,-153.5"/>
<text text-anchor="start" x="1978.5" y="-171.5" font-family="Helvetica,sans-Serif" font-size="10.00">EventHandlerFactory</text>
<text text-anchor="middle" x="2029.5" y="-160.5" font-family="Helvetica,sans-Serif" font-size="10.00">::handler</text>
</a>
</g>
</g>
<!-- Node11&#45;&gt;Node20 -->
<g id="edge22" class="edge">
<title>Node11&#45;&gt;Node20</title>
<path fill="none" stroke="midnightblue" d="M1261.17,-146.92C1355.41,-116.34 1667.53,-27.05 1912,-96.5 1946.48,-106.29 1980.75,-129.52 2003.1,-146.96"/>
<polygon fill="midnightblue" stroke="midnightblue" points="2001.06,-149.81 2011.05,-153.32 2005.43,-144.34 2001.06,-149.81"/>
</g>
<!-- Node22 -->
<g id="node22" class="node">
<title>Node22</title>
<g id="a_node22"><a xlink:href="event_8cpp.html#ad239a34cab482dc3cad5a23a9ac1ad78" target="_top" xlink:title=" ">
<polygon fill="white" stroke="black" points="1368.5,-273 1368.5,-292 1482.5,-292 1482.5,-273 1368.5,-273"/>
<text text-anchor="middle" x="1425.5" y="-280" font-family="Helvetica,sans-Serif" font-size="10.00">keycodeToKeyString</text>
</a>
</g>
</g>
<!-- Node11&#45;&gt;Node22 -->
<g id="edge23" class="edge">
<title>Node11&#45;&gt;Node22</title>
<path fill="none" stroke="midnightblue" d="M1247.71,-166.18C1280.86,-187.99 1361.62,-241.13 1401.48,-267.35"/>
<polygon fill="midnightblue" stroke="midnightblue" points="1399.73,-270.39 1410,-272.96 1403.57,-264.54 1399.73,-270.39"/>
</g>
<!-- Node15 -->
<g id="node15" class="node">
<title>Node15</title>
<g id="a_node15"><a xlink:href="classX11Extras.html#ab9bcb016e23bacb0e988feb8175d2c88" target="_top" xlink:title=" ">
<polygon fill="white" stroke="black" points="1775,-463 1775,-482 1897,-482 1897,-463 1775,-463"/>
<text text-anchor="middle" x="1836" y="-470" font-family="Helvetica,sans-Serif" font-size="10.00">X11Extras::X11Extras</text>
</a>
</g>
</g>
<!-- Node14&#45;&gt;Node15 -->
<g id="edge14" class="edge">
<title>Node14&#45;&gt;Node15</title>
<path fill="none" stroke="midnightblue" d="M1692.14,-472.5C1715.06,-472.5 1741.04,-472.5 1764.51,-472.5"/>
<polygon fill="midnightblue" stroke="midnightblue" points="1764.74,-476 1774.74,-472.5 1764.74,-469 1764.74,-476"/>
</g>
<!-- Node16 -->
<g id="node16" class="node">
<title>Node16</title>
<g id="a_node16"><a xlink:href="classX11Extras.html#a6f63e77ed045e174546d77333672b8f0" target="_top" xlink:title=" ">
<polygon fill="white" stroke="black" points="1955.5,-457.5 1955.5,-487.5 2103.5,-487.5 2103.5,-457.5 1955.5,-457.5"/>
<text text-anchor="start" x="1963.5" y="-475.5" font-family="Helvetica,sans-Serif" font-size="10.00">X11Extras::populateKnown</text>
<text text-anchor="middle" x="2029.5" y="-464.5" font-family="Helvetica,sans-Serif" font-size="10.00">Aliases</text>
</a>
</g>
</g>
<!-- Node15&#45;&gt;Node16 -->
<g id="edge15" class="edge">
<title>Node15&#45;&gt;Node16</title>
<path fill="none" stroke="midnightblue" d="M1897.07,-472.5C1912.33,-472.5 1929,-472.5 1945.19,-472.5"/>
<polygon fill="midnightblue" stroke="midnightblue" points="1945.19,-476 1955.19,-472.5 1945.19,-469 1945.19,-476"/>
</g>
<!-- Node18 -->
<g id="node18" class="node">
<title>Node18</title>
<g id="a_node18"><a xlink:href="classEventHandlerFactory.html#ade5162034acc0f8683725fdb124bece0" target="_top" xlink:title=" ">
<polygon fill="white" stroke="black" points="1766,-126.5 1766,-156.5 1906,-156.5 1906,-126.5 1766,-126.5"/>
<text text-anchor="start" x="1774" y="-144.5" font-family="Helvetica,sans-Serif" font-size="10.00">EventHandlerFactory</text>
<text text-anchor="middle" x="1836" y="-133.5" font-family="Helvetica,sans-Serif" font-size="10.00">::buildEventGeneratorList</text>
</a>
</g>
</g>
<!-- Node17&#45;&gt;Node18 -->
<g id="edge17" class="edge">
<title>Node17&#45;&gt;Node18</title>
<path fill="none" stroke="midnightblue" d="M1686.68,-185.68C1699.03,-182.42 1711.96,-178.92 1724,-175.5 1741.42,-170.55 1760.29,-164.89 1777.44,-159.62"/>
<polygon fill="midnightblue" stroke="midnightblue" points="1778.8,-162.87 1787.32,-156.58 1776.73,-156.18 1778.8,-162.87"/>
</g>
<!-- Node19 -->
<g id="node19" class="node">
<title>Node19</title>
<g id="a_node19"><a xlink:href="classEventHandlerFactory.html#a2f843293b2ea47271fc7bd99bd871fa6" target="_top" xlink:title=" ">
<polygon fill="white" stroke="black" points="1774,-224.5 1774,-254.5 1898,-254.5 1898,-224.5 1774,-224.5"/>
<text text-anchor="start" x="1782" y="-242.5" font-family="Helvetica,sans-Serif" font-size="10.00">EventHandlerFactory</text>
<text text-anchor="middle" x="1836" y="-231.5" font-family="Helvetica,sans-Serif" font-size="10.00">::EventHandlerFactory</text>
</a>
</g>
</g>
<!-- Node17&#45;&gt;Node19 -->
<g id="edge18" class="edge">
<title>Node17&#45;&gt;Node19</title>
<path fill="none" stroke="midnightblue" d="M1686.57,-211.47C1710.58,-216 1738.65,-221.3 1763.88,-226.07"/>
<polygon fill="midnightblue" stroke="midnightblue" points="1763.29,-229.52 1773.76,-227.93 1764.59,-222.64 1763.29,-229.52"/>
</g>
<!-- Node17&#45;&gt;Node20 -->
<g id="edge21" class="edge">
<title>Node17&#45;&gt;Node20</title>
<path fill="none" stroke="midnightblue" d="M1686.7,-192.7C1699.84,-189 1713.11,-183.54 1724,-175.5 1748.41,-157.49 1733.49,-132.25 1760,-117.5 1836.08,-75.18 1941.03,-119.72 1994.39,-148.35"/>
<polygon fill="midnightblue" stroke="midnightblue" points="1992.97,-151.57 2003.42,-153.32 1996.34,-145.43 1992.97,-151.57"/>
</g>
<!-- Node21 -->
<g id="node21" class="node">
<title>Node21</title>
<g id="a_node21"><a xlink:href="classEventHandlerFactory.html#afa5ca0171c70b1a24f92b5c8dd00dc92" target="_top" xlink:title=" ">
<polygon fill="white" stroke="black" points="1777,-175.5 1777,-205.5 1895,-205.5 1895,-175.5 1777,-175.5"/>
<text text-anchor="start" x="1785" y="-193.5" font-family="Helvetica,sans-Serif" font-size="10.00">EventHandlerFactory</text>
<text text-anchor="middle" x="1836" y="-182.5" font-family="Helvetica,sans-Serif" font-size="10.00">::fallBackIdentifier</text>
</a>
</g>
</g>
<!-- Node17&#45;&gt;Node21 -->
<g id="edge20" class="edge">
<title>Node17&#45;&gt;Node21</title>
<path fill="none" stroke="midnightblue" d="M1686.57,-197.69C1711.43,-196.48 1740.63,-195.07 1766.53,-193.82"/>
<polygon fill="midnightblue" stroke="midnightblue" points="1766.83,-197.31 1776.65,-193.33 1766.49,-190.31 1766.83,-197.31"/>
</g>
<!-- Node19&#45;&gt;Node20 -->
<g id="edge19" class="edge">
<title>Node19&#45;&gt;Node20</title>
<path fill="none" stroke="midnightblue" d="M1885.99,-224.4C1894.69,-221.55 1903.64,-218.52 1912,-215.5 1935.84,-206.89 1962.04,-196.41 1983.54,-187.54"/>
<polygon fill="midnightblue" stroke="midnightblue" points="1985.18,-190.65 1993.07,-183.59 1982.49,-184.19 1985.18,-190.65"/>
</g>
<!-- Node22&#45;&gt;Node12 -->
<g id="edge24" class="edge">
<title>Node22&#45;&gt;Node12</title>
<path fill="none" stroke="midnightblue" d="M1433.02,-272.74C1447.75,-251.52 1485.86,-201.13 1531,-176.5 1541.01,-171.04 1552.35,-167.07 1563.64,-164.18"/>
<polygon fill="midnightblue" stroke="midnightblue" points="1564.54,-167.56 1573.51,-161.91 1562.98,-160.74 1564.54,-167.56"/>
</g>
<!-- Node22&#45;&gt;Node13 -->
<g id="edge29" class="edge">
<title>Node22&#45;&gt;Node13</title>
<path fill="none" stroke="midnightblue" d="M1430.42,-272.8C1441.65,-246.31 1476.71,-172.4 1531,-137.5 1534.17,-135.46 1537.52,-133.63 1540.98,-131.99"/>
<polygon fill="midnightblue" stroke="midnightblue" points="1542.5,-135.15 1550.39,-128.08 1539.81,-128.69 1542.5,-135.15"/>
</g>
<!-- Node22&#45;&gt;Node14 -->
<g id="edge37" class="edge">
<title>Node22&#45;&gt;Node14</title>
<path fill="none" stroke="midnightblue" d="M1433.64,-292.22C1446.49,-309.84 1474.1,-348.41 1495,-382.5 1512.46,-410.99 1504.58,-428.04 1531,-448.5 1537.53,-453.56 1545.01,-457.56 1552.83,-460.73"/>
<polygon fill="midnightblue" stroke="midnightblue" points="1551.91,-464.12 1562.51,-464.19 1554.27,-457.53 1551.91,-464.12"/>
</g>
<!-- Node22&#45;&gt;Node17 -->
<g id="edge38" class="edge">
<title>Node22&#45;&gt;Node17</title>
<path fill="none" stroke="midnightblue" d="M1441.17,-273C1460.89,-260.58 1497.38,-238.84 1531,-225.5 1539.81,-222.01 1549.27,-218.85 1558.68,-216.06"/>
<polygon fill="midnightblue" stroke="midnightblue" points="1559.79,-219.38 1568.45,-213.28 1557.88,-212.65 1559.79,-219.38"/>
</g>
<!-- Node22&#45;&gt;Node20 -->
<g id="edge39" class="edge">
<title>Node22&#45;&gt;Node20</title>
<path fill="none" stroke="midnightblue" d="M1482.54,-284.88C1593.05,-288.85 1835.03,-293.75 1912,-264.5 1951.89,-249.34 1988.16,-214.64 2009.28,-191.38"/>
<polygon fill="midnightblue" stroke="midnightblue" points="2012.09,-193.49 2016.1,-183.68 2006.85,-188.84 2012.09,-193.49"/>
</g>
<!-- Node23 -->
<g id="node23" class="node">
<title>Node23</title>
<g id="a_node23"><a xlink:href="classWinExtras.html#a3487e64cfb407033d7e28a761d1e76dc" target="_top" xlink:title=" ">
<polygon fill="white" stroke="black" points="1551,-349 1551,-368 1704,-368 1704,-349 1551,-349"/>
<text text-anchor="middle" x="1627.5" y="-356" font-family="Helvetica,sans-Serif" font-size="10.00">WinExtras::getDisplayString</text>
</a>
</g>
</g>
<!-- Node22&#45;&gt;Node23 -->
<g id="edge25" class="edge">
<title>Node22&#45;&gt;Node23</title>
<path fill="none" stroke="midnightblue" d="M1440.72,-292.09C1460.24,-304.81 1496.81,-327.1 1531,-339.5 1538.51,-342.22 1546.51,-344.59 1554.55,-346.64"/>
<polygon fill="midnightblue" stroke="midnightblue" points="1553.82,-350.06 1564.36,-348.98 1555.44,-343.25 1553.82,-350.06"/>
</g>
<!-- Node24 -->
<g id="node24" class="node">
<title>Node24</title>
<g id="a_node24"><a xlink:href="classUInputHelper.html#ac4c70c9479c1cc0eb515ab1bdf2426f5" target="_top" xlink:title=" ">
<polygon fill="white" stroke="black" points="1959.5,-407.5 1959.5,-437.5 2099.5,-437.5 2099.5,-407.5 1959.5,-407.5"/>
<text text-anchor="start" x="1967.5" y="-425.5" font-family="Helvetica,sans-Serif" font-size="10.00">UInputHelper::getDisplay</text>
<text text-anchor="middle" x="2029.5" y="-414.5" font-family="Helvetica,sans-Serif" font-size="10.00">String</text>
</a>
</g>
</g>
<!-- Node22&#45;&gt;Node24 -->
<g id="edge26" class="edge">
<title>Node22&#45;&gt;Node24</title>
<path fill="none" stroke="midnightblue" d="M1462.69,-292.01C1474.29,-296.58 1486.35,-303.17 1495,-312.5 1527.95,-348.08 1491.65,-387.15 1531,-415.5 1595.68,-462.09 1825.68,-445.14 1949.01,-432.05"/>
<polygon fill="midnightblue" stroke="midnightblue" points="1949.58,-435.51 1959.15,-430.96 1948.83,-428.55 1949.58,-435.51"/>
</g>
<!-- Node26 -->
<g id="node26" class="node">
<title>Node26</title>
<g id="a_node26"><a xlink:href="classX11Extras.html#abe710bac948c9802105a2d9d06815cac" target="_top" xlink:title="Get appropriate alias for a known KeySym string that might be blank or contain invalid characters whe...">
<polygon fill="white" stroke="black" points="1551,-235 1551,-254 1704,-254 1704,-235 1551,-235"/>
<text text-anchor="middle" x="1627.5" y="-242" font-family="Helvetica,sans-Serif" font-size="10.00">X11Extras::getDisplayString</text>
</a>
</g>
</g>
<!-- Node22&#45;&gt;Node26 -->
<g id="edge28" class="edge">
<title>Node22&#45;&gt;Node26</title>
<path fill="none" stroke="midnightblue" d="M1476.71,-272.96C1503.93,-267.79 1537.76,-261.36 1566.38,-255.92"/>
<polygon fill="midnightblue" stroke="midnightblue" points="1567.1,-259.35 1576.27,-254.04 1565.79,-252.47 1567.1,-259.35"/>
</g>
<!-- Node27 -->
<g id="node27" class="node">
<title>Node27</title>
<g id="a_node27"><a xlink:href="classUInputHelper.html#a61509601d3dbd8933aaa26c1e2db02f6" target="_top" xlink:title=" ">
<polygon fill="white" stroke="black" points="1555.5,-311 1555.5,-330 1699.5,-330 1699.5,-311 1555.5,-311"/>
<text text-anchor="middle" x="1627.5" y="-318" font-family="Helvetica,sans-Serif" font-size="10.00">UInputHelper::getInstance</text>
</a>
</g>
</g>
<!-- Node22&#45;&gt;Node27 -->
<g id="edge30" class="edge">
<title>Node22&#45;&gt;Node27</title>
<path fill="none" stroke="midnightblue" d="M1476.71,-292.04C1503.93,-297.21 1537.76,-303.64 1566.38,-309.08"/>
<polygon fill="midnightblue" stroke="midnightblue" points="1565.79,-312.53 1576.27,-310.96 1567.1,-305.65 1565.79,-312.53"/>
</g>
<!-- Node33 -->
<g id="node33" class="node">
<title>Node33</title>
<g id="a_node33"><a xlink:href="classWinExtras.html#a0bfa711c1abe72486dfebc8ff6fe7f5a" target="_top" xlink:title="Convert a virtual key into the corresponding keyboard scan code.">
<polygon fill="white" stroke="black" points="1531,-387 1531,-406 1724,-406 1724,-387 1531,-387"/>
<text text-anchor="middle" x="1627.5" y="-394" font-family="Helvetica,sans-Serif" font-size="10.00">WinExtras::scancodeFromVirtualKey</text>
</a>
</g>
</g>
<!-- Node22&#45;&gt;Node33 -->
<g id="edge40" class="edge">
<title>Node22&#45;&gt;Node33</title>
<path fill="none" stroke="midnightblue" d="M1433.96,-292.14C1449.63,-311.67 1488.09,-355.86 1531,-377.5 1535.81,-379.93 1540.9,-382.04 1546.14,-383.89"/>
<polygon fill="midnightblue" stroke="midnightblue" points="1545.08,-387.23 1555.67,-386.93 1547.21,-380.56 1545.08,-387.23"/>
</g>
<!-- Node25 -->
<g id="node25" class="node">
<title>Node25</title>
<g id="a_node25"><a xlink:href="classUInputHelper.html#a043b0fa7cf4ce5811d01d95f3ca318b7" target="_top" xlink:title=" ">
<polygon fill="white" stroke="black" points="2147,-407.5 2147,-437.5 2318,-437.5 2318,-407.5 2147,-407.5"/>
<text text-anchor="start" x="2155" y="-425.5" font-family="Helvetica,sans-Serif" font-size="10.00">UInputHelper::getKnownAliases</text>
<text text-anchor="middle" x="2232.5" y="-414.5" font-family="Helvetica,sans-Serif" font-size="10.00">VKStrings</text>
</a>
</g>
</g>
<!-- Node24&#45;&gt;Node25 -->
<g id="edge27" class="edge">
<title>Node24&#45;&gt;Node25</title>
<path fill="none" stroke="midnightblue" d="M2099.67,-422.5C2111.68,-422.5 2124.35,-422.5 2136.9,-422.5"/>
<polygon fill="midnightblue" stroke="midnightblue" points="2136.92,-426 2146.92,-422.5 2136.92,-419 2136.92,-426"/>
</g>
<!-- Node28 -->
<g id="node28" class="node">
<title>Node28</title>
<g id="a_node28"><a xlink:href="classUInputHelper.html#a5d56d23a0e0202435c7a5ff1aca9ce55" target="_top" xlink:title=" ">
<polygon fill="white" stroke="black" points="1760,-313 1760,-332 1912,-332 1912,-313 1760,-313"/>
<text text-anchor="middle" x="1836" y="-320" font-family="Helvetica,sans-Serif" font-size="10.00">UInputHelper::UInputHelper</text>
</a>
</g>
</g>
<!-- Node27&#45;&gt;Node28 -->
<g id="edge31" class="edge">
<title>Node27&#45;&gt;Node28</title>
<path fill="none" stroke="midnightblue" d="M1699.57,-321.19C1715.7,-321.34 1733,-321.51 1749.66,-321.67"/>
<polygon fill="midnightblue" stroke="midnightblue" points="1749.9,-325.18 1759.93,-321.77 1749.97,-318.18 1749.9,-325.18"/>
</g>
<!-- Node29 -->
<g id="node29" class="node">
<title>Node29</title>
<g id="a_node29"><a xlink:href="classUInputHelper.html#a0f4dbb4221502d86f7d0af12a9865568" target="_top" xlink:title=" ">
<polygon fill="white" stroke="black" points="1948,-307.5 1948,-337.5 2111,-337.5 2111,-307.5 1948,-307.5"/>
<text text-anchor="start" x="1956" y="-325.5" font-family="Helvetica,sans-Serif" font-size="10.00">UInputHelper::populateKnown</text>
<text text-anchor="middle" x="2029.5" y="-314.5" font-family="Helvetica,sans-Serif" font-size="10.00">Aliases</text>
</a>
</g>
</g>
<!-- Node28&#45;&gt;Node29 -->
<g id="edge32" class="edge">
<title>Node28&#45;&gt;Node29</title>
<path fill="none" stroke="midnightblue" d="M1912.14,-322.5C1920.57,-322.5 1929.23,-322.5 1937.83,-322.5"/>
<polygon fill="midnightblue" stroke="midnightblue" points="1937.89,-326 1947.89,-322.5 1937.89,-319 1937.89,-326"/>
</g>
<!-- Node29&#45;&gt;Node25 -->
<g id="edge33" class="edge">
<title>Node29&#45;&gt;Node25</title>
<path fill="none" stroke="midnightblue" d="M2050.59,-337.63C2073.08,-353.99 2111.1,-379.94 2147,-396.5 2152.76,-399.16 2158.87,-401.64 2165.05,-403.92"/>
<polygon fill="midnightblue" stroke="midnightblue" points="2164.21,-407.34 2174.81,-407.36 2166.54,-400.73 2164.21,-407.34"/>
</g>
<!-- Node30 -->
<g id="node30" class="node">
<title>Node30</title>
<g id="a_node30"><a xlink:href="classUInputHelper.html#a8f3fe71ae635cd3c46eaab79dd11c2e0" target="_top" xlink:title=" ">
<polygon fill="white" stroke="black" points="2147,-356.5 2147,-386.5 2318,-386.5 2318,-356.5 2147,-356.5"/>
<text text-anchor="start" x="2155" y="-374.5" font-family="Helvetica,sans-Serif" font-size="10.00">UInputHelper::getKnownAliases</text>
<text text-anchor="middle" x="2232.5" y="-363.5" font-family="Helvetica,sans-Serif" font-size="10.00">X11SymVK</text>
</a>
</g>
</g>
<!-- Node29&#45;&gt;Node30 -->
<g id="edge34" class="edge">
<title>Node29&#45;&gt;Node30</title>
<path fill="none" stroke="midnightblue" d="M2092.17,-337.53C2113.59,-342.76 2137.78,-348.65 2159.93,-354.05"/>
<polygon fill="midnightblue" stroke="midnightblue" points="2159.4,-357.53 2169.94,-356.49 2161.06,-350.72 2159.4,-357.53"/>
</g>
<!-- Node31 -->
<g id="node31" class="node">
<title>Node31</title>
<g id="a_node31"><a xlink:href="classUInputHelper.html#a9793030329fbbe1106b255814ef2bd0f" target="_top" xlink:title=" ">
<polygon fill="white" stroke="black" points="2158,-307.5 2158,-337.5 2307,-337.5 2307,-307.5 2158,-307.5"/>
<text text-anchor="start" x="2166" y="-325.5" font-family="Helvetica,sans-Serif" font-size="10.00">UInputHelper::populateX11</text>
<text text-anchor="middle" x="2232.5" y="-314.5" font-family="Helvetica,sans-Serif" font-size="10.00">SymVk</text>
</a>
</g>
</g>
<!-- Node29&#45;&gt;Node31 -->
<g id="edge35" class="edge">
<title>Node29&#45;&gt;Node31</title>
<path fill="none" stroke="midnightblue" d="M2111.1,-322.5C2123.13,-322.5 2135.55,-322.5 2147.65,-322.5"/>
<polygon fill="midnightblue" stroke="midnightblue" points="2147.72,-326 2157.72,-322.5 2147.72,-319 2147.72,-326"/>
</g>
<!-- Node32 -->
<g id="node32" class="node">
<title>Node32</title>
<g id="a_node32"><a xlink:href="classUInputHelper.html#af02574de230bb0550eebb63f5a669681" target="_top" xlink:title=" ">
<polygon fill="white" stroke="black" points="2158,-258.5 2158,-288.5 2307,-288.5 2307,-258.5 2158,-258.5"/>
<text text-anchor="start" x="2166" y="-276.5" font-family="Helvetica,sans-Serif" font-size="10.00">UInputHelper::populateXVk</text>
<text text-anchor="middle" x="2232.5" y="-265.5" font-family="Helvetica,sans-Serif" font-size="10.00">Strings</text>
</a>
</g>
</g>
<!-- Node29&#45;&gt;Node32 -->
<g id="edge36" class="edge">
<title>Node29&#45;&gt;Node32</title>
<path fill="none" stroke="midnightblue" d="M2092.17,-307.47C2113.59,-302.24 2137.78,-296.35 2159.93,-290.95"/>
<polygon fill="midnightblue" stroke="midnightblue" points="2161.06,-294.28 2169.94,-288.51 2159.4,-287.47 2161.06,-294.28"/>
</g>
<!-- Node38&#45;&gt;Node6 -->
<g id="edge47" class="edge">
<title>Node38&#45;&gt;Node6</title>
<path fill="none" stroke="midnightblue" d="M665.93,-203.17C686.62,-216.89 727.24,-241.35 766,-250.5 832.61,-266.23 853.65,-267.29 920,-250.5 953.82,-241.94 988.52,-220.81 1009.91,-206.07"/>
<polygon fill="midnightblue" stroke="midnightblue" points="1012.08,-208.82 1018.23,-200.19 1008.04,-203.1 1012.08,-208.82"/>
</g>
<!-- Node38&#45;&gt;Node35 -->
<g id="edge48" class="edge">
<title>Node38&#45;&gt;Node35</title>
<path fill="none" stroke="midnightblue" d="M730.1,-193.5C740.81,-193.5 751.81,-193.5 762.53,-193.5"/>
<polygon fill="midnightblue" stroke="midnightblue" points="762.72,-197 772.72,-193.5 762.72,-190 762.72,-197"/>
</g>
<!-- Node38&#45;&gt;Node36 -->
<g id="edge50" class="edge">
<title>Node38&#45;&gt;Node36</title>
<path fill="none" stroke="midnightblue" d="M699.95,-183.91C725.58,-178.78 757.34,-172.43 784.32,-167.04"/>
<polygon fill="midnightblue" stroke="midnightblue" points="785.28,-170.41 794.4,-165.02 783.91,-163.55 785.28,-170.41"/>
</g>
<!-- Node39 -->
<g id="node39" class="node">
<title>Node39</title>
<g id="a_node39"><a xlink:href="classJoyButton.html#ae1d364dfa70f47fae3db99ffbcdea44b" target="_top" xlink:title=" ">
<polygon fill="white" stroke="black" points="766,-222 766,-241 920,-241 920,-222 766,-222"/>
<text text-anchor="middle" x="843" y="-229" font-family="Helvetica,sans-Serif" font-size="10.00">JoyButton::getAssignedSlots</text>
</a>
</g>
</g>
<!-- Node38&#45;&gt;Node39 -->
<g id="edge49" class="edge">
<title>Node38&#45;&gt;Node39</title>
<path fill="none" stroke="midnightblue" d="M699.95,-203.09C725.58,-208.22 757.34,-214.57 784.32,-219.96"/>
<polygon fill="midnightblue" stroke="midnightblue" points="783.91,-223.45 794.4,-221.98 785.28,-216.59 783.91,-223.45"/>
</g>
</g>
</svg>
        <g id="navigator" transform="translate(0 0)" fill="#404254">
                <rect fill="#f2f5e9" fill-opacity="0.5" stroke="#606060" stroke-width=".5" x="0" y="0" width="60" height="60"/>
                <use id="zoomplus" xlink:href="#zoomPlus" x="17" y="9" onmousedown="handleZoom(evt,'in')"/>
                <use id="zoomminus" xlink:href="#zoomMin" x="42" y="9" onmousedown="handleZoom(evt,'out')"/>
                <use id="reset" xlink:href="#resetDef" x="30" y="36" onmousedown="handleReset()"/>
                <g id="arrowUp" xlink:href="#dirArrow" transform="translate(30 24)" onmousedown="handlePan(0,-1)">
                  <use xlink:href="#rim" fill="#404040">
                        <set attributeName="fill" to="#808080" begin="arrowUp.mouseover" end="arrowUp.mouseout"/>
                  </use>
                  <path fill="none" stroke="white" stroke-width="1.5" d="M0,-3.0v7 M-2.5,-0.5L0,-3.0L2.5,-0.5"/>
                </g>
                <g id="arrowRight" xlink:href="#dirArrow" transform="rotate(90) translate(36 -43)" onmousedown="handlePan(1,0)">
                  <use xlink:href="#rim" fill="#404040">
                        <set attributeName="fill" to="#808080" begin="arrowRight.mouseover" end="arrowRight.mouseout"/>
                  </use>
                  <path fill="none" stroke="white" stroke-width="1.5" d="M0,-3.0v7 M-2.5,-0.5L0,-3.0L2.5,-0.5"/>
                </g>
                <g id="arrowDown" xlink:href="#dirArrow" transform="rotate(180) translate(-30 -48)" onmousedown="handlePan(0,1)">
                  <use xlink:href="#rim" fill="#404040">
                        <set attributeName="fill" to="#808080" begin="arrowDown.mouseover" end="arrowDown.mouseout"/>
                  </use>
                  <path fill="none" stroke="white" stroke-width="1.5" d="M0,-3.0v7 M-2.5,-0.5L0,-3.0L2.5,-0.5"/>
                </g>
                <g id="arrowLeft" xlink:href="#dirArrow" transform="rotate(270) translate(-36 17)" onmousedown="handlePan(-1,0)">
                  <use xlink:href="#rim" fill="#404040">
                        <set attributeName="fill" to="#808080" begin="arrowLeft.mouseover" end="arrowLeft.mouseout"/>
                  </use>
                  <path fill="none" stroke="white" stroke-width="1.5" d="M0,-3.0v7 M-2.5,-0.5L0,-3.0L2.5,-0.5"/>
                </g>
        </g>
        <svg viewBox="0 0 15 15" width="100%" height="30px" preserveAspectRatio="xMaxYMin meet">
         <g id="arrow_out" transform="scale(0.3 0.3)">
          <a xlink:href="classVirtualKeyboardMouseWidget_a1fbcd1c7493e1bcc9a573ec84aa4249e_cgraph_org.svg" target="_base">
           <rect id="button" ry="5" rx="5" y="6" x="6" height="38" width="38"
                fill="#f2f5e9" fill-opacity="0.5" stroke="#606060" stroke-width="1.0"/>
           <path id="arrow"
             d="M 11.500037,31.436501 C 11.940474,20.09759 22.043105,11.32322 32.158766,21.979434 L 37.068811,17.246167 C 37.068811,17.246167 37.088388,32 37.088388,32 L 22.160133,31.978069 C 22.160133,31.978069 26.997745,27.140456 26.997745,27.140456 C 18.528582,18.264221 13.291696,25.230495 11.500037,31.436501 z"
             style="fill:#404040;"/>
          </a>
         </g>
        </svg>
</svg>
