<?xml version="1.0" encoding="UTF-8" standalone="no"?>
<!DOCTYPE svg PUBLIC "-//W3C//DTD SVG 1.1//EN"
 "http://www.w3.org/Graphics/SVG/1.1/DTD/svg11.dtd">
<!-- Generated by graphviz version 2.43.0 (0)
 -->
<!-- Title: JoyTabWidget::reconnectMainComboBoxEvents Pages: 1 -->
<svg width="1891pt" height="371pt"
 viewBox="0.00 0.00 1891.00 371.23" xmlns="http://www.w3.org/2000/svg" xmlns:xlink="http://www.w3.org/1999/xlink">
<g id="graph0" class="graph" transform="scale(1 1) rotate(0) translate(4 367.23)">
<title>JoyTabWidget::reconnectMainComboBoxEvents</title>
<polygon fill="white" stroke="transparent" points="-4,4 -4,-367.23 1887,-367.23 1887,4 -4,4"/>
<!-- Node1 -->
<g id="node1" class="node">
<title>Node1</title>
<g id="a_node1"><a xlink:title=" ">
<polygon fill="#bfbfbf" stroke="black" points="1722,-204.13 1722,-234.13 1883,-234.13 1883,-204.13 1722,-204.13"/>
<text text-anchor="start" x="1730" y="-222.13" font-family="Helvetica,sans-Serif" font-size="10.00">JoyTabWidget::reconnectMain</text>
<text text-anchor="middle" x="1802.5" y="-211.13" font-family="Helvetica,sans-Serif" font-size="10.00">ComboBoxEvents</text>
</a>
</g>
</g>
<!-- Node2 -->
<g id="node2" class="node">
<title>Node2</title>
<g id="a_node2"><a xlink:href="classJoyTabWidget.html#a52897728ad18ff62995aa44194412948" target="_top" xlink:title=" ">
<polygon fill="white" stroke="black" points="1511,-163.13 1511,-193.13 1686,-193.13 1686,-163.13 1511,-163.13"/>
<text text-anchor="start" x="1519" y="-181.13" font-family="Helvetica,sans-Serif" font-size="10.00">JoyTabWidget::checkForUnsaved</text>
<text text-anchor="middle" x="1598.5" y="-170.13" font-family="Helvetica,sans-Serif" font-size="10.00">Profile</text>
</a>
</g>
</g>
<!-- Node1&#45;&gt;Node2 -->
<g id="edge1" class="edge">
<title>Node1&#45;&gt;Node2</title>
<path fill="none" stroke="midnightblue" d="M1717.44,-202.06C1702.88,-199.11 1687.83,-196.05 1673.56,-193.16"/>
<polygon fill="midnightblue" stroke="midnightblue" points="1716.93,-205.53 1727.43,-204.09 1718.33,-198.67 1716.93,-205.53"/>
</g>
<!-- Node4 -->
<g id="node4" class="node">
<title>Node4</title>
<g id="a_node4"><a xlink:href="classJoyTabWidget.html#a3a406264aca24134162a4ee13e998b55" target="_top" xlink:title=" ">
<polygon fill="white" stroke="black" points="909,-97.13 909,-127.13 1076,-127.13 1076,-97.13 909,-97.13"/>
<text text-anchor="start" x="917" y="-115.13" font-family="Helvetica,sans-Serif" font-size="10.00">JoyTabWidget::discardUnsaved</text>
<text text-anchor="middle" x="992.5" y="-104.13" font-family="Helvetica,sans-Serif" font-size="10.00">ProfileChanges</text>
</a>
</g>
</g>
<!-- Node1&#45;&gt;Node4 -->
<g id="edge40" class="edge">
<title>Node1&#45;&gt;Node4</title>
<path fill="none" stroke="midnightblue" d="M1789.57,-194.89C1771.96,-162.02 1735.63,-104.41 1686,-78.13 1460.38,41.39 1360.93,1.63 1112,-55.13 1076.83,-63.14 1039.94,-82.98 1016.84,-96.99"/>
<polygon fill="midnightblue" stroke="midnightblue" points="1786.52,-196.59 1794.24,-203.84 1792.72,-193.36 1786.52,-196.59"/>
</g>
<!-- Node15 -->
<g id="node15" class="node">
<title>Node15</title>
<g id="a_node15"><a xlink:href="classJoyTabWidget.html#aa64541df4b5629b43351dd13c9651b2a" target="_top" xlink:title=" ">
<polygon fill="white" stroke="black" points="1113,-254.63 1113,-273.63 1271,-273.63 1271,-254.63 1113,-254.63"/>
<text text-anchor="middle" x="1192" y="-261.63" font-family="Helvetica,sans-Serif" font-size="10.00">JoyTabWidget::loadConfigFile</text>
</a>
</g>
</g>
<!-- Node1&#45;&gt;Node15 -->
<g id="edge42" class="edge">
<title>Node1&#45;&gt;Node15</title>
<path fill="none" stroke="midnightblue" d="M1711.79,-227.9C1703.07,-228.68 1694.37,-229.44 1686,-230.13 1539.57,-242.15 1368.44,-253.3 1271.17,-259.37"/>
<polygon fill="midnightblue" stroke="midnightblue" points="1712.35,-231.36 1722,-226.97 1711.72,-224.39 1712.35,-231.36"/>
</g>
<!-- Node17 -->
<g id="node17" class="node">
<title>Node17</title>
<g id="a_node17"><a xlink:href="classJoyTabWidget.html#a6a6bd9ccd83557de08b6e698598f2123" target="_top" xlink:title=" ">
<polygon fill="white" stroke="black" points="915,-212.63 915,-231.63 1070,-231.63 1070,-212.63 915,-212.63"/>
<text text-anchor="middle" x="992.5" y="-219.63" font-family="Helvetica,sans-Serif" font-size="10.00">JoyTabWidget::JoyTabWidget</text>
</a>
</g>
</g>
<!-- Node1&#45;&gt;Node17 -->
<g id="edge41" class="edge">
<title>Node1&#45;&gt;Node17</title>
<path fill="none" stroke="midnightblue" d="M1743.79,-237.04C1624.19,-271.46 1341.28,-338.67 1112,-283.13 1070.85,-273.15 1027.98,-246.27 1006.87,-231.74"/>
<polygon fill="midnightblue" stroke="midnightblue" points="1744.87,-240.38 1753.49,-234.22 1742.91,-233.66 1744.87,-240.38"/>
</g>
<!-- Node20 -->
<g id="node20" class="node">
<title>Node20</title>
<g id="a_node20"><a xlink:href="classJoyTabWidget.html#a7e15bfce4bac6297eda8fc3a4e9d7196" target="_top" xlink:title=" ">
<polygon fill="white" stroke="black" points="1114.5,-178.63 1114.5,-197.63 1269.5,-197.63 1269.5,-178.63 1114.5,-178.63"/>
<text text-anchor="middle" x="1192" y="-185.63" font-family="Helvetica,sans-Serif" font-size="10.00">JoyTabWidget::saveAsConfig</text>
</a>
</g>
</g>
<!-- Node1&#45;&gt;Node20 -->
<g id="edge43" class="edge">
<title>Node1&#45;&gt;Node20</title>
<path fill="none" stroke="midnightblue" d="M1711.63,-218.37C1612.62,-216.99 1448.74,-213.1 1308,-202.13 1293.46,-200.99 1277.94,-199.38 1263.15,-197.65"/>
<polygon fill="midnightblue" stroke="midnightblue" points="1711.85,-221.87 1721.89,-218.5 1711.94,-214.87 1711.85,-221.87"/>
</g>
<!-- Node21 -->
<g id="node21" class="node">
<title>Node21</title>
<g id="a_node21"><a xlink:href="classJoyTabWidget.html#a6b09ad1532669ed27aac287e6aa63faf" target="_top" xlink:title=" ">
<polygon fill="white" stroke="black" points="1112,-64.63 1112,-83.63 1272,-83.63 1272,-64.63 1112,-64.63"/>
<text text-anchor="middle" x="1192" y="-71.63" font-family="Helvetica,sans-Serif" font-size="10.00">JoyTabWidget::saveConfigFile</text>
</a>
</g>
</g>
<!-- Node1&#45;&gt;Node21 -->
<g id="edge44" class="edge">
<title>Node1&#45;&gt;Node21</title>
<path fill="none" stroke="midnightblue" d="M1769.83,-198.58C1713.4,-163.44 1590.51,-93.54 1475,-72.13 1407.36,-59.59 1329.03,-61.42 1272.11,-65.62"/>
<polygon fill="midnightblue" stroke="midnightblue" points="1768.3,-201.75 1778.63,-204.11 1772.03,-195.82 1768.3,-201.75"/>
</g>
<!-- Node3 -->
<g id="node3" class="node">
<title>Node3</title>
<g id="a_node3"><a xlink:href="classJoyTabWidget.html#a46cbb4d5798f46f5b9aaab65090ebe24" target="_top" xlink:title=" ">
<polygon fill="white" stroke="black" points="1321,-114.13 1321,-144.13 1462,-144.13 1462,-114.13 1321,-114.13"/>
<text text-anchor="start" x="1329" y="-132.13" font-family="Helvetica,sans-Serif" font-size="10.00">JoyTabWidget::disconnect</text>
<text text-anchor="middle" x="1391.5" y="-121.13" font-family="Helvetica,sans-Serif" font-size="10.00">CheckUnsavedEvent</text>
</a>
</g>
</g>
<!-- Node2&#45;&gt;Node3 -->
<g id="edge2" class="edge">
<title>Node2&#45;&gt;Node3</title>
<path fill="none" stroke="midnightblue" d="M1547.62,-160.32C1521.98,-153.27 1490.33,-145.52 1462.31,-139.38"/>
<polygon fill="midnightblue" stroke="midnightblue" points="1546.91,-163.75 1557.49,-163.08 1548.8,-157.01 1546.91,-163.75"/>
</g>
<!-- Node2&#45;&gt;Node15 -->
<g id="edge32" class="edge">
<title>Node2&#45;&gt;Node15</title>
<path fill="none" stroke="midnightblue" d="M1516.59,-195.33C1432.82,-213.14 1304.99,-240.32 1237.82,-254.6"/>
<polygon fill="midnightblue" stroke="midnightblue" points="1517.53,-198.71 1526.58,-193.2 1516.07,-191.86 1517.53,-198.71"/>
</g>
<!-- Node22 -->
<g id="node22" class="node">
<title>Node22</title>
<g id="a_node22"><a xlink:href="classJoyTabWidget.html#addfb2efb312a0ce8b5c1b9bcc8543bef" target="_top" xlink:title=" ">
<polygon fill="white" stroke="black" points="1308,-163.13 1308,-193.13 1475,-193.13 1475,-163.13 1308,-163.13"/>
<text text-anchor="start" x="1316" y="-181.13" font-family="Helvetica,sans-Serif" font-size="10.00">JoyTabWidget::reconnectCheck</text>
<text text-anchor="middle" x="1391.5" y="-170.13" font-family="Helvetica,sans-Serif" font-size="10.00">UnsavedEvent</text>
</a>
</g>
</g>
<!-- Node2&#45;&gt;Node22 -->
<g id="edge33" class="edge">
<title>Node2&#45;&gt;Node22</title>
<path fill="none" stroke="midnightblue" d="M1500.85,-171.39C1492.29,-171.36 1483.67,-171.39 1475.24,-171.49"/>
<polygon fill="midnightblue" stroke="midnightblue" points="1500.84,-174.89 1510.86,-171.45 1500.88,-167.89 1500.84,-174.89"/>
</g>
<!-- Node3&#45;&gt;Node2 -->
<g id="edge3" class="edge">
<title>Node3&#45;&gt;Node2</title>
<path fill="none" stroke="midnightblue" d="M1442.35,-146.93C1462.96,-152.6 1487.48,-158.72 1510.86,-164.09"/>
<polygon fill="midnightblue" stroke="midnightblue" points="1443.14,-143.51 1432.57,-144.19 1441.25,-150.25 1443.14,-143.51"/>
</g>
<!-- Node3&#45;&gt;Node4 -->
<g id="edge4" class="edge">
<title>Node3&#45;&gt;Node4</title>
<path fill="none" stroke="midnightblue" d="M1310.64,-125.71C1242.53,-122.79 1144.98,-118.61 1076.09,-115.66"/>
<polygon fill="midnightblue" stroke="midnightblue" points="1310.75,-129.21 1320.89,-126.14 1311.05,-122.22 1310.75,-129.21"/>
</g>
<!-- Node3&#45;&gt;Node15 -->
<g id="edge19" class="edge">
<title>Node3&#45;&gt;Node15</title>
<path fill="none" stroke="midnightblue" d="M1314.41,-148.89C1312.2,-150.21 1310.05,-151.62 1308,-153.13 1284.74,-170.19 1292.02,-186.36 1272,-207.13 1253.11,-226.73 1226.73,-244.22 1209.76,-254.5"/>
<polygon fill="midnightblue" stroke="midnightblue" points="1316.06,-151.97 1323.27,-144.21 1312.79,-145.78 1316.06,-151.97"/>
</g>
<!-- Node3&#45;&gt;Node20 -->
<g id="edge26" class="edge">
<title>Node3&#45;&gt;Node20</title>
<path fill="none" stroke="midnightblue" d="M1328.47,-147.08C1321.56,-149.11 1314.63,-151.15 1308,-153.13 1279.6,-161.58 1247.32,-171.42 1224.21,-178.51"/>
<polygon fill="midnightblue" stroke="midnightblue" points="1329.93,-150.3 1338.54,-144.13 1327.96,-143.58 1329.93,-150.3"/>
</g>
<!-- Node3&#45;&gt;Node21 -->
<g id="edge28" class="edge">
<title>Node3&#45;&gt;Node21</title>
<path fill="none" stroke="midnightblue" d="M1326.51,-111.3C1293.52,-102.12 1254.61,-91.28 1227.33,-83.69"/>
<polygon fill="midnightblue" stroke="midnightblue" points="1325.96,-114.79 1336.53,-114.1 1327.84,-108.04 1325.96,-114.79"/>
</g>
<!-- Node5 -->
<g id="node5" class="node">
<title>Node5</title>
<g id="a_node5"><a xlink:href="classMainWindow.html#a59aa0e5214cb820e8743dea1b81b7d9a" target="_top" xlink:title=" ">
<polygon fill="white" stroke="black" points="719,-115.63 719,-134.63 864,-134.63 864,-115.63 719,-115.63"/>
<text text-anchor="middle" x="791.5" y="-122.63" font-family="Helvetica,sans-Serif" font-size="10.00">MainWindow::quitProgram</text>
</a>
</g>
</g>
<!-- Node4&#45;&gt;Node5 -->
<g id="edge5" class="edge">
<title>Node4&#45;&gt;Node5</title>
<path fill="none" stroke="midnightblue" d="M898.68,-118.19C887.08,-118.95 875.35,-119.71 864.13,-120.45"/>
<polygon fill="midnightblue" stroke="midnightblue" points="899.08,-121.67 908.83,-117.53 898.63,-114.69 899.08,-121.67"/>
</g>
<!-- Node6 -->
<g id="node6" class="node">
<title>Node6</title>
<g id="a_node6"><a xlink:href="classMainWindow.html#a4b00208df3ff47236e6b46f308647a97" target="_top" xlink:title=" ">
<polygon fill="white" stroke="black" points="506,-121.63 506,-140.63 674,-140.63 674,-121.63 506,-121.63"/>
<text text-anchor="middle" x="590" y="-128.63" font-family="Helvetica,sans-Serif" font-size="10.00">MainWindow::populateTrayIcon</text>
</a>
</g>
</g>
<!-- Node5&#45;&gt;Node6 -->
<g id="edge6" class="edge">
<title>Node5&#45;&gt;Node6</title>
<path fill="none" stroke="midnightblue" d="M708.5,-127.59C697.22,-127.93 685.63,-128.28 674.32,-128.62"/>
<polygon fill="midnightblue" stroke="midnightblue" points="708.87,-131.08 718.76,-127.28 708.66,-124.09 708.87,-131.08"/>
</g>
<!-- Node7 -->
<g id="node7" class="node">
<title>Node7</title>
<g id="a_node7"><a xlink:href="classMainWindow.html#a9738583d1ab872fb2784c0faee89cb46" target="_top" xlink:title=" ">
<polygon fill="white" stroke="black" points="87,-200.63 87,-219.63 221,-219.63 221,-200.63 87,-200.63"/>
<text text-anchor="middle" x="154" y="-207.63" font-family="Helvetica,sans-Serif" font-size="10.00">MainWindow::addJoyTab</text>
</a>
</g>
</g>
<!-- Node6&#45;&gt;Node7 -->
<g id="edge7" class="edge">
<title>Node6&#45;&gt;Node7</title>
<path fill="none" stroke="midnightblue" d="M527.68,-142.51C509.15,-145.94 488.75,-149.7 470,-153.13 377.88,-169.97 270.56,-189.34 207.96,-200.61"/>
<polygon fill="midnightblue" stroke="midnightblue" points="528.56,-145.9 537.76,-140.64 527.29,-139.02 528.56,-145.9"/>
</g>
<!-- Node9 -->
<g id="node9" class="node">
<title>Node9</title>
<g id="a_node9"><a xlink:href="classMainWindow.html#aef8941c9dc542d8ff8416fff1caf8ad7" target="_top" xlink:title=" ">
<polygon fill="white" stroke="black" points="291,-124.63 291,-143.63 446,-143.63 446,-124.63 291,-124.63"/>
<text text-anchor="middle" x="368.5" y="-131.63" font-family="Helvetica,sans-Serif" font-size="10.00">MainWindow::fillButtonsMap</text>
</a>
</g>
</g>
<!-- Node6&#45;&gt;Node9 -->
<g id="edge9" class="edge">
<title>Node6&#45;&gt;Node9</title>
<path fill="none" stroke="midnightblue" d="M495.54,-132.4C479.1,-132.63 462.16,-132.86 446.24,-133.08"/>
<polygon fill="midnightblue" stroke="midnightblue" points="495.75,-135.9 505.7,-132.26 495.66,-128.9 495.75,-135.9"/>
</g>
<!-- Node11 -->
<g id="node11" class="node">
<title>Node11</title>
<g id="a_node11"><a xlink:href="classMainWindow.html#ae9f72ff45056908317963a1e7fa634a0" target="_top" xlink:title="Build list of current input devices and pass it to settings dialog instance. Open Settings dialog.">
<polygon fill="white" stroke="black" points="282,-201.13 282,-231.13 455,-231.13 455,-201.13 282,-201.13"/>
<text text-anchor="start" x="290" y="-219.13" font-family="Helvetica,sans-Serif" font-size="10.00">MainWindow::openMainSettings</text>
<text text-anchor="middle" x="368.5" y="-208.13" font-family="Helvetica,sans-Serif" font-size="10.00">Dialog</text>
</a>
</g>
</g>
<!-- Node6&#45;&gt;Node11 -->
<g id="edge13" class="edge">
<title>Node6&#45;&gt;Node11</title>
<path fill="none" stroke="midnightblue" d="M561.25,-145.33C537.44,-157.18 502,-174.03 470,-186.13 455.61,-191.57 439.77,-196.69 425,-201.1"/>
<polygon fill="midnightblue" stroke="midnightblue" points="563.03,-148.35 570.39,-140.74 559.89,-142.09 563.03,-148.35"/>
</g>
<!-- Node13 -->
<g id="node13" class="node">
<title>Node13</title>
<g id="a_node13"><a xlink:href="classMainWindow.html#ac398cc635954d370088390a0a5bee878" target="_top" xlink:title=" ">
<polygon fill="white" stroke="black" points="77,-86.63 77,-105.63 231,-105.63 231,-86.63 77,-86.63"/>
<text text-anchor="middle" x="154" y="-93.63" font-family="Helvetica,sans-Serif" font-size="10.00">MainWindow::removeJoyTab</text>
</a>
</g>
</g>
<!-- Node6&#45;&gt;Node13 -->
<g id="edge15" class="edge">
<title>Node6&#45;&gt;Node13</title>
<path fill="none" stroke="midnightblue" d="M514.75,-120.29C499.95,-118.37 484.5,-116.54 470,-115.13 388.61,-107.21 295.06,-102.07 231.18,-99.15"/>
<polygon fill="midnightblue" stroke="midnightblue" points="514.5,-123.78 524.87,-121.62 515.42,-116.84 514.5,-123.78"/>
</g>
<!-- Node14 -->
<g id="node14" class="node">
<title>Node14</title>
<g id="a_node14"><a xlink:href="classMainWindow.html#a2a0aba59f5d3bf3c6fb97f0de103b36f" target="_top" xlink:title=" ">
<polygon fill="white" stroke="black" points="267,-48.63 267,-67.63 470,-67.63 470,-48.63 267,-48.63"/>
<text text-anchor="middle" x="368.5" y="-55.63" font-family="Helvetica,sans-Serif" font-size="10.00">MainWindow::testMappingUpdateNow</text>
</a>
</g>
</g>
<!-- Node6&#45;&gt;Node14 -->
<g id="edge17" class="edge">
<title>Node6&#45;&gt;Node14</title>
<path fill="none" stroke="midnightblue" d="M559.11,-117.29C535.33,-106.66 501.02,-92.15 470,-82.13 452.67,-76.53 433.29,-71.6 416.2,-67.68"/>
<polygon fill="midnightblue" stroke="midnightblue" points="557.75,-120.52 568.3,-121.44 560.63,-114.14 557.75,-120.52"/>
</g>
<!-- Node8 -->
<g id="node8" class="node">
<title>Node8</title>
<g id="a_node8"><a xlink:href="main_8cpp.html#a0ddf1224851353fc92bfbff6f499fa97" target="_top" xlink:title=" ">
<polygon fill="white" stroke="black" points="0,-143.63 0,-162.63 41,-162.63 41,-143.63 0,-143.63"/>
<text text-anchor="middle" x="20.5" y="-150.63" font-family="Helvetica,sans-Serif" font-size="10.00">main</text>
</a>
</g>
</g>
<!-- Node7&#45;&gt;Node8 -->
<g id="edge8" class="edge">
<title>Node7&#45;&gt;Node8</title>
<path fill="none" stroke="midnightblue" d="M94.02,-197.61C88.17,-195.71 82.4,-193.56 77,-191.13 60.6,-183.75 43.85,-171.5 33.1,-162.9"/>
<polygon fill="midnightblue" stroke="midnightblue" points="93.3,-201.05 103.88,-200.57 95.31,-194.34 93.3,-201.05"/>
</g>
<!-- Node9&#45;&gt;Node8 -->
<g id="edge12" class="edge">
<title>Node9&#45;&gt;Node8</title>
<path fill="none" stroke="midnightblue" d="M280.59,-138.9C200.24,-143.31 86.62,-149.55 41.29,-152.04"/>
<polygon fill="midnightblue" stroke="midnightblue" points="280.92,-142.39 290.71,-138.34 280.53,-135.4 280.92,-142.39"/>
</g>
<!-- Node10 -->
<g id="node10" class="node">
<title>Node10</title>
<g id="a_node10"><a xlink:href="classMainWindow.html#a5d25ebfdfec433fc449d7e35803a9c7c" target="_top" xlink:title=" ">
<polygon fill="white" stroke="black" points="87,-162.63 87,-181.63 221,-181.63 221,-162.63 87,-162.63"/>
<text text-anchor="middle" x="154" y="-169.63" font-family="Helvetica,sans-Serif" font-size="10.00">MainWindow::fillButtons</text>
</a>
</g>
</g>
<!-- Node9&#45;&gt;Node10 -->
<g id="edge10" class="edge">
<title>Node9&#45;&gt;Node10</title>
<path fill="none" stroke="midnightblue" d="M304.05,-145.47C273.56,-150.92 237.42,-157.39 208.37,-162.58"/>
<polygon fill="midnightblue" stroke="midnightblue" points="304.92,-148.87 314.15,-143.67 303.69,-141.98 304.92,-148.87"/>
</g>
<!-- Node10&#45;&gt;Node8 -->
<g id="edge11" class="edge">
<title>Node10&#45;&gt;Node8</title>
<path fill="none" stroke="midnightblue" d="M76.69,-161.1C63.5,-159.19 50.88,-157.37 41.05,-155.95"/>
<polygon fill="midnightblue" stroke="midnightblue" points="76.47,-164.6 86.86,-162.57 77.47,-157.68 76.47,-164.6"/>
</g>
<!-- Node12 -->
<g id="node12" class="node">
<title>Node12</title>
<g id="a_node12"><a xlink:href="classMainWindow.html#a2f0c03d3d51748ab794e698322110614" target="_top" xlink:title=" ">
<polygon fill="white" stroke="black" points="80,-247.63 80,-266.63 228,-266.63 228,-247.63 80,-247.63"/>
<text text-anchor="middle" x="154" y="-254.63" font-family="Helvetica,sans-Serif" font-size="10.00">MainWindow::MainWindow</text>
</a>
</g>
</g>
<!-- Node11&#45;&gt;Node12 -->
<g id="edge14" class="edge">
<title>Node11&#45;&gt;Node12</title>
<path fill="none" stroke="midnightblue" d="M279.48,-233.11C253.89,-238.05 226.84,-243.26 204.52,-247.57"/>
<polygon fill="midnightblue" stroke="midnightblue" points="280.42,-236.49 289.58,-231.16 279.1,-229.62 280.42,-236.49"/>
</g>
<!-- Node13&#45;&gt;Node8 -->
<g id="edge16" class="edge">
<title>Node13&#45;&gt;Node8</title>
<path fill="none" stroke="midnightblue" d="M106.95,-108.79C96.92,-112.07 86.47,-115.88 77,-120.13 62.27,-126.72 46.55,-136.34 35.61,-143.49"/>
<polygon fill="midnightblue" stroke="midnightblue" points="108.31,-112.03 116.8,-105.7 106.21,-105.35 108.31,-112.03"/>
</g>
<!-- Node14&#45;&gt;Node8 -->
<g id="edge18" class="edge">
<title>Node14&#45;&gt;Node8</title>
<path fill="none" stroke="midnightblue" d="M302.81,-47.4C240.9,-40.43 146.85,-38.72 77,-77.13 49.8,-92.08 32.4,-126.7 25.24,-143.56"/>
<polygon fill="midnightblue" stroke="midnightblue" points="302.5,-50.88 312.85,-48.6 303.34,-43.93 302.5,-50.88"/>
</g>
<!-- Node16 -->
<g id="node16" class="node">
<title>Node16</title>
<g id="a_node16"><a xlink:href="classMainWindow.html#a0a756973a707af418c4ce416c9c8312c" target="_top" xlink:title=" ">
<polygon fill="white" stroke="black" points="509.5,-250.63 509.5,-269.63 670.5,-269.63 670.5,-250.63 509.5,-250.63"/>
<text text-anchor="middle" x="590" y="-257.63" font-family="Helvetica,sans-Serif" font-size="10.00">MainWindow::autoprofileLoad</text>
</a>
</g>
</g>
<!-- Node15&#45;&gt;Node16 -->
<g id="edge20" class="edge">
<title>Node15&#45;&gt;Node16</title>
<path fill="none" stroke="midnightblue" d="M1102.55,-263.54C985.93,-262.76 782.47,-261.4 670.51,-260.66"/>
<polygon fill="midnightblue" stroke="midnightblue" points="1102.85,-267.04 1112.87,-263.6 1102.89,-260.04 1102.85,-267.04"/>
</g>
<!-- Node15&#45;&gt;Node17 -->
<g id="edge22" class="edge">
<title>Node15&#45;&gt;Node17</title>
<path fill="none" stroke="midnightblue" d="M1136.05,-252.44C1105.3,-245.9 1067.45,-237.85 1038.48,-231.69"/>
<polygon fill="midnightblue" stroke="midnightblue" points="1135.67,-255.94 1146.18,-254.59 1137.13,-249.09 1135.67,-255.94"/>
</g>
<!-- Node18 -->
<g id="node18" class="node">
<title>Node18</title>
<g id="a_node18"><a xlink:href="classMainWindow.html#a781de6ce6a0b73b8caadfad15e7c7147" target="_top" xlink:title=" ">
<polygon fill="white" stroke="black" points="915.5,-291.63 915.5,-310.63 1069.5,-310.63 1069.5,-291.63 915.5,-291.63"/>
<text text-anchor="middle" x="992.5" y="-298.63" font-family="Helvetica,sans-Serif" font-size="10.00">MainWindow::loadConfigFile</text>
</a>
</g>
</g>
<!-- Node15&#45;&gt;Node18 -->
<g id="edge23" class="edge">
<title>Node15&#45;&gt;Node18</title>
<path fill="none" stroke="midnightblue" d="M1130.25,-275.51C1102.8,-280.65 1070.72,-286.66 1044.53,-291.57"/>
<polygon fill="midnightblue" stroke="midnightblue" points="1130.95,-278.94 1140.14,-273.65 1129.67,-272.06 1130.95,-278.94"/>
</g>
<!-- Node16&#45;&gt;Node12 -->
<g id="edge21" class="edge">
<title>Node16&#45;&gt;Node12</title>
<path fill="none" stroke="midnightblue" d="M499.31,-259.51C419.13,-258.95 303.07,-258.15 228.32,-257.63"/>
<polygon fill="midnightblue" stroke="midnightblue" points="499.37,-263.01 509.4,-259.58 499.42,-256.01 499.37,-263.01"/>
</g>
<!-- Node19 -->
<g id="node19" class="node">
<title>Node19</title>
<g id="a_node19"><a xlink:href="classMainWindow.html#a58c2bb4b8456b8dd246c6beb3623b3d2" target="_top" xlink:title=" ">
<polygon fill="white" stroke="black" points="710,-289.13 710,-319.13 873,-319.13 873,-289.13 710,-289.13"/>
<text text-anchor="start" x="718" y="-307.13" font-family="Helvetica,sans-Serif" font-size="10.00">MainWindow::alterConfigFrom</text>
<text text-anchor="middle" x="791.5" y="-296.13" font-family="Helvetica,sans-Serif" font-size="10.00">Settings</text>
</a>
</g>
</g>
<!-- Node18&#45;&gt;Node19 -->
<g id="edge24" class="edge">
<title>Node18&#45;&gt;Node19</title>
<path fill="none" stroke="midnightblue" d="M905.27,-302.43C894.61,-302.59 883.75,-302.75 873.17,-302.91"/>
<polygon fill="midnightblue" stroke="midnightblue" points="905.47,-305.92 915.41,-302.27 905.36,-298.92 905.47,-305.92"/>
</g>
<!-- Node19&#45;&gt;Node8 -->
<g id="edge25" class="edge">
<title>Node19&#45;&gt;Node8</title>
<path fill="none" stroke="midnightblue" d="M727.76,-321.79C594.78,-355.27 280.13,-413.04 77,-276.13 37.18,-249.28 25.54,-186.56 22.49,-162.63"/>
<polygon fill="midnightblue" stroke="midnightblue" points="728.96,-325.1 737.78,-319.23 727.23,-318.32 728.96,-325.1"/>
</g>
<!-- Node20&#45;&gt;Node17 -->
<g id="edge27" class="edge">
<title>Node20&#45;&gt;Node17</title>
<path fill="none" stroke="midnightblue" d="M1125.63,-199.38C1100.74,-203.66 1072.63,-208.5 1048.76,-212.61"/>
<polygon fill="midnightblue" stroke="midnightblue" points="1126.46,-202.79 1135.72,-197.64 1125.27,-195.89 1126.46,-202.79"/>
</g>
<!-- Node21&#45;&gt;Node2 -->
<g id="edge29" class="edge">
<title>Node21&#45;&gt;Node2</title>
<path fill="none" stroke="midnightblue" d="M1282.5,-73.77C1339.02,-75.93 1412.84,-83.2 1475,-104.13 1514.8,-117.52 1555.44,-145.48 1578.46,-162.94"/>
<polygon fill="midnightblue" stroke="midnightblue" points="1282.26,-70.26 1272.15,-73.42 1282.03,-77.26 1282.26,-70.26"/>
</g>
<!-- Node21&#45;&gt;Node4 -->
<g id="edge30" class="edge">
<title>Node21&#45;&gt;Node4</title>
<path fill="none" stroke="midnightblue" d="M1131.5,-85.57C1112.65,-89.2 1091.52,-93.27 1071.57,-97.1"/>
<polygon fill="midnightblue" stroke="midnightblue" points="1132.26,-88.99 1141.42,-83.67 1130.94,-82.12 1132.26,-88.99"/>
</g>
<!-- Node21&#45;&gt;Node17 -->
<g id="edge31" class="edge">
<title>Node21&#45;&gt;Node17</title>
<path fill="none" stroke="midnightblue" d="M1169.82,-89.99C1128.76,-120.77 1039.43,-187.7 1006.25,-212.57"/>
<polygon fill="midnightblue" stroke="midnightblue" points="1172.14,-92.63 1178.04,-83.84 1167.94,-87.03 1172.14,-92.63"/>
</g>
<!-- Node22&#45;&gt;Node2 -->
<g id="edge34" class="edge">
<title>Node22&#45;&gt;Node2</title>
<path fill="none" stroke="midnightblue" d="M1485.48,-184.85C1493.93,-184.9 1502.47,-184.88 1510.86,-184.8"/>
<polygon fill="midnightblue" stroke="midnightblue" points="1485.27,-181.35 1475.24,-184.76 1485.21,-188.35 1485.27,-181.35"/>
</g>
<!-- Node22&#45;&gt;Node4 -->
<g id="edge35" class="edge">
<title>Node22&#45;&gt;Node4</title>
<path fill="none" stroke="midnightblue" d="M1297.86,-164.74C1243.61,-156.67 1173.82,-145.89 1112,-135.13 1097.96,-132.68 1083.02,-129.91 1068.64,-127.16"/>
<polygon fill="midnightblue" stroke="midnightblue" points="1297.4,-168.2 1307.8,-166.21 1298.42,-161.28 1297.4,-168.2"/>
</g>
<!-- Node22&#45;&gt;Node15 -->
<g id="edge37" class="edge">
<title>Node22&#45;&gt;Node15</title>
<path fill="none" stroke="midnightblue" d="M1330.37,-196.94C1322.63,-200.23 1314.98,-203.96 1308,-208.13 1289.61,-219.09 1290.67,-229.66 1272,-240.13 1261.12,-246.22 1248.51,-250.95 1236.61,-254.53"/>
<polygon fill="midnightblue" stroke="midnightblue" points="1331.85,-200.11 1339.82,-193.13 1329.23,-193.62 1331.85,-200.11"/>
</g>
<!-- Node22&#45;&gt;Node17 -->
<g id="edge36" class="edge">
<title>Node22&#45;&gt;Node17</title>
<path fill="none" stroke="midnightblue" d="M1328.31,-195.65C1310.28,-200.1 1290.47,-204.39 1272,-207.13 1204.22,-217.15 1126.29,-220.68 1070.13,-221.83"/>
<polygon fill="midnightblue" stroke="midnightblue" points="1329.28,-199.01 1338.12,-193.17 1327.57,-192.23 1329.28,-199.01"/>
</g>
<!-- Node22&#45;&gt;Node20 -->
<g id="edge38" class="edge">
<title>Node22&#45;&gt;Node20</title>
<path fill="none" stroke="midnightblue" d="M1297.72,-182.82C1288.31,-183.3 1278.82,-183.78 1269.61,-184.25"/>
<polygon fill="midnightblue" stroke="midnightblue" points="1298.08,-186.31 1307.89,-182.31 1297.72,-179.32 1298.08,-186.31"/>
</g>
<!-- Node22&#45;&gt;Node21 -->
<g id="edge39" class="edge">
<title>Node22&#45;&gt;Node21</title>
<path fill="none" stroke="midnightblue" d="M1322.64,-159.43C1317.62,-157.48 1312.69,-155.38 1308,-153.13 1266.96,-133.4 1224.18,-100.04 1204.34,-83.71"/>
<polygon fill="midnightblue" stroke="midnightblue" points="1321.79,-162.84 1332.39,-162.99 1324.2,-156.27 1321.79,-162.84"/>
</g>
</g>
</svg>
