<?xml version="1.0" encoding="UTF-8" standalone="no"?>
<!DOCTYPE svg PUBLIC "-//W3C//DTD SVG 1.1//EN"
 "http://www.w3.org/Graphics/SVG/1.1/DTD/svg11.dtd">
<!-- Generated by graphviz version 2.43.0 (0)
 -->
<!-- Title: InputDevice::updateSetStickNames Pages: 1 -->
<!--zoomable 154 -->
<svg id="main" version="1.1" xmlns="http://www.w3.org/2000/svg" xmlns:xlink="http://www.w3.org/1999/xlink" xml:space="preserve" onload="init(evt)">
<style type="text/css"><![CDATA[
.edge:hover path { stroke: red; }
.edge:hover polygon { stroke: red; fill: red; }
]]></style>
<script type="text/javascript"><![CDATA[
var edges = document.getElementsByTagName('g');
if (edges && edges.length) {
  for (var i=0;i<edges.length;i++) {
    if (edges[i].id.substr(0,4)=='edge') {
      edges[i].setAttribute('class','edge');
    }
  }
}
]]></script>
        <defs>
                <circle id="rim" cx="0" cy="0" r="7"/>
                <circle id="rim2" cx="0" cy="0" r="3.5"/>
                <g id="zoomPlus">
                        <use xlink:href="#rim" fill="#404040">
                                <set attributeName="fill" to="#808080" begin="zoomplus.mouseover" end="zoomplus.mouseout"/>
                        </use>
                        <path d="M-4,0h8M0,-4v8" fill="none" stroke="white" stroke-width="1.5" pointer-events="none"/>
                </g>
                <g id="zoomMin">
                        <use xlink:href="#rim" fill="#404040">
                                <set attributeName="fill" to="#808080" begin="zoomminus.mouseover" end="zoomminus.mouseout"/>
                        </use>
                        <path d="M-4,0h8" fill="none" stroke="white" stroke-width="1.5" pointer-events="none"/>
                </g>
                <g id="dirArrow">
                        <path fill="none" stroke="white" stroke-width="1.5" d="M0,-3.0v7 M-2.5,-0.5L0,-3.0L2.5,-0.5"/>
                </g>
               <g id="resetDef">
                       <use xlink:href="#rim2" fill="#404040">
                               <set attributeName="fill" to="#808080" begin="reset.mouseover" end="reset.mouseout"/>
                       </use>
               </g>
        </defs>

<script type="text/javascript">
var viewWidth = 724;
var viewHeight = 154;
var sectionId = 'dynsection-220';
</script>
<script xlink:href="svgpan.js"/>
<svg id="graph" class="graph">
<g id="viewport">
<title>InputDevice::updateSetStickNames</title>
<polygon fill="white" stroke="transparent" points="-4,4 -4,-149.5 720,-149.5 720,4 -4,4"/>
<!-- Node1 -->
<g id="node1" class="node">
<title>Node1</title>
<g id="a_node1"><a xlink:title=" ">
<polygon fill="#bfbfbf" stroke="black" points="0,-71 0,-101 155,-101 155,-71 0,-71"/>
<text text-anchor="start" x="8" y="-89" font-family="Helvetica,sans-Serif" font-size="10.00">InputDevice::updateSetStick</text>
<text text-anchor="middle" x="77.5" y="-78" font-family="Helvetica,sans-Serif" font-size="10.00">Names</text>
</a>
</g>
</g>
<!-- Node2 -->
<g id="node2" class="node">
<title>Node2</title>
<g id="a_node2"><a xlink:href="classInputDevice.html#abc23a70bef37f2fc70248cd129af170b" target="_top" xlink:title=" ">
<polygon fill="white" stroke="black" points="202.5,-115 202.5,-145 345.5,-145 345.5,-115 202.5,-115"/>
<text text-anchor="start" x="210.5" y="-133" font-family="Helvetica,sans-Serif" font-size="10.00">InputDevice::getActiveSet</text>
<text text-anchor="middle" x="274" y="-122" font-family="Helvetica,sans-Serif" font-size="10.00">Joystick</text>
</a>
</g>
</g>
<!-- Node1&#45;&gt;Node2 -->
<g id="edge1" class="edge">
<title>Node1&#45;&gt;Node2</title>
<path fill="none" stroke="midnightblue" d="M144.89,-101.02C161.54,-104.79 179.54,-108.86 196.63,-112.72"/>
<polygon fill="midnightblue" stroke="midnightblue" points="196.05,-116.18 206.58,-114.97 197.6,-109.35 196.05,-116.18"/>
</g>
<!-- Node4 -->
<g id="node4" class="node">
<title>Node4</title>
<g id="a_node4"><a xlink:href="classSetJoystick.html#a7b74d7b4a0adfc9c25cdbe4433d9b275" target="_top" xlink:title=" ">
<polygon fill="white" stroke="black" points="410,-38.5 410,-57.5 541,-57.5 541,-38.5 410,-38.5"/>
<text text-anchor="middle" x="475.5" y="-45.5" font-family="Helvetica,sans-Serif" font-size="10.00">SetJoystick::getJoyStick</text>
</a>
</g>
</g>
<!-- Node1&#45;&gt;Node4 -->
<g id="edge3" class="edge">
<title>Node1&#45;&gt;Node4</title>
<path fill="none" stroke="midnightblue" d="M155.21,-71.99C167.16,-70.11 179.39,-68.37 191,-67 261.6,-58.69 342.54,-53.72 399.82,-50.96"/>
<polygon fill="midnightblue" stroke="midnightblue" points="400.05,-54.45 409.87,-50.48 399.72,-47.46 400.05,-54.45"/>
</g>
<!-- Node6 -->
<g id="node6" class="node">
<title>Node6</title>
<g id="a_node6"><a xlink:href="classJoyControlStick.html#a3665f4f4ae6cc0f7ca44502b61f7c3ea" target="_top" xlink:title=" ">
<polygon fill="white" stroke="black" points="191,-0.5 191,-19.5 357,-19.5 357,-0.5 191,-0.5"/>
<text text-anchor="middle" x="274" y="-7.5" font-family="Helvetica,sans-Serif" font-size="10.00">JoyControlStick::getStickName</text>
</a>
</g>
</g>
<!-- Node1&#45;&gt;Node6 -->
<g id="edge5" class="edge">
<title>Node1&#45;&gt;Node6</title>
<path fill="none" stroke="midnightblue" d="M108.07,-70.87C130.46,-59.77 162.19,-44.81 191,-34 202.17,-29.81 214.42,-25.88 225.96,-22.47"/>
<polygon fill="midnightblue" stroke="midnightblue" points="227.24,-25.74 235.88,-19.61 225.3,-19.02 227.24,-25.74"/>
</g>
<!-- Node7 -->
<g id="node7" class="node">
<title>Node7</title>
<g id="a_node7"><a xlink:href="classInputDevice.html#a9864bb0b4f6e9ac1001306d23eec455f" target="_top" xlink:title=" ">
<polygon fill="white" stroke="black" points="199.5,-76.5 199.5,-95.5 348.5,-95.5 348.5,-76.5 199.5,-76.5"/>
<text text-anchor="middle" x="274" y="-83.5" font-family="Helvetica,sans-Serif" font-size="10.00">InputDevice::setStickName</text>
</a>
</g>
</g>
<!-- Node1&#45;&gt;Node7 -->
<g id="edge6" class="edge">
<title>Node1&#45;&gt;Node7</title>
<path fill="none" stroke="midnightblue" d="M155.09,-79.39C166.24,-79.24 177.77,-79.21 189.06,-79.31"/>
<polygon fill="midnightblue" stroke="midnightblue" points="189.3,-82.81 199.34,-79.43 189.38,-75.81 189.3,-82.81"/>
</g>
<!-- Node3 -->
<g id="node3" class="node">
<title>Node3</title>
<g id="a_node3"><a xlink:href="classInputDevice.html#a1c4c65d9e509a5c3bde064871d7e1849" target="_top" xlink:title=" ">
<polygon fill="white" stroke="black" points="395,-117.5 395,-136.5 556,-136.5 556,-117.5 395,-117.5"/>
<text text-anchor="middle" x="475.5" y="-124.5" font-family="Helvetica,sans-Serif" font-size="10.00">InputDevice::getJoystick_sets</text>
</a>
</g>
</g>
<!-- Node2&#45;&gt;Node3 -->
<g id="edge2" class="edge">
<title>Node2&#45;&gt;Node3</title>
<path fill="none" stroke="midnightblue" d="M345.62,-128.94C358.18,-128.75 371.41,-128.55 384.42,-128.35"/>
<polygon fill="midnightblue" stroke="midnightblue" points="384.85,-131.85 394.8,-128.2 384.74,-124.85 384.85,-131.85"/>
</g>
<!-- Node5 -->
<g id="node5" class="node">
<title>Node5</title>
<g id="a_node5"><a xlink:href="classSetJoystick.html#a7ca499fe41a0a9841b4fe904b07cbc30" target="_top" xlink:title=" ">
<polygon fill="white" stroke="black" points="594,-38.5 594,-57.5 716,-57.5 716,-38.5 594,-38.5"/>
<text text-anchor="middle" x="655" y="-45.5" font-family="Helvetica,sans-Serif" font-size="10.00">SetJoystick::getSticks</text>
</a>
</g>
</g>
<!-- Node4&#45;&gt;Node5 -->
<g id="edge4" class="edge">
<title>Node4&#45;&gt;Node5</title>
<path fill="none" stroke="midnightblue" d="M541.08,-48C554.96,-48 569.7,-48 583.78,-48"/>
<polygon fill="midnightblue" stroke="midnightblue" points="583.89,-51.5 593.89,-48 583.89,-44.5 583.89,-51.5"/>
</g>
<!-- Node7&#45;&gt;Node1 -->
<g id="edge10" class="edge">
<title>Node7&#45;&gt;Node1</title>
<path fill="none" stroke="midnightblue" d="M199.34,-92.57C188.26,-92.74 176.75,-92.79 165.42,-92.72"/>
<polygon fill="midnightblue" stroke="midnightblue" points="165.13,-89.21 155.09,-92.61 165.06,-96.21 165.13,-89.21"/>
</g>
<!-- Node7&#45;&gt;Node3 -->
<g id="edge8" class="edge">
<title>Node7&#45;&gt;Node3</title>
<path fill="none" stroke="midnightblue" d="M321.27,-95.51C350.12,-101.44 387.45,-109.11 418.04,-115.4"/>
<polygon fill="midnightblue" stroke="midnightblue" points="417.64,-118.89 428.14,-117.47 419.04,-112.03 417.64,-118.89"/>
</g>
<!-- Node7&#45;&gt;Node4 -->
<g id="edge7" class="edge">
<title>Node7&#45;&gt;Node4</title>
<path fill="none" stroke="midnightblue" d="M325.08,-76.46C352.24,-71.29 385.99,-64.86 414.53,-59.42"/>
<polygon fill="midnightblue" stroke="midnightblue" points="415.23,-62.85 424.39,-57.54 413.92,-55.98 415.23,-62.85"/>
</g>
<!-- Node8 -->
<g id="node8" class="node">
<title>Node8</title>
<g id="a_node8"><a xlink:href="classJoyControlStick.html#acaa44dff5cfea5fa898837b603f603c0" target="_top" xlink:title=" ">
<polygon fill="white" stroke="black" points="393,-76.5 393,-95.5 558,-95.5 558,-76.5 393,-76.5"/>
<text text-anchor="middle" x="475.5" y="-83.5" font-family="Helvetica,sans-Serif" font-size="10.00">JoyControlStick::setStickName</text>
</a>
</g>
</g>
<!-- Node7&#45;&gt;Node8 -->
<g id="edge9" class="edge">
<title>Node7&#45;&gt;Node8</title>
<path fill="none" stroke="midnightblue" d="M348.72,-86C359.68,-86 371.1,-86 382.38,-86"/>
<polygon fill="midnightblue" stroke="midnightblue" points="382.69,-89.5 392.69,-86 382.69,-82.5 382.69,-89.5"/>
</g>
</g>
</svg>
        <g id="navigator" transform="translate(0 0)" fill="#404254">
                <rect fill="#f2f5e9" fill-opacity="0.5" stroke="#606060" stroke-width=".5" x="0" y="0" width="60" height="60"/>
                <use id="zoomplus" xlink:href="#zoomPlus" x="17" y="9" onmousedown="handleZoom(evt,'in')"/>
                <use id="zoomminus" xlink:href="#zoomMin" x="42" y="9" onmousedown="handleZoom(evt,'out')"/>
                <use id="reset" xlink:href="#resetDef" x="30" y="36" onmousedown="handleReset()"/>
                <g id="arrowUp" xlink:href="#dirArrow" transform="translate(30 24)" onmousedown="handlePan(0,-1)">
                  <use xlink:href="#rim" fill="#404040">
                        <set attributeName="fill" to="#808080" begin="arrowUp.mouseover" end="arrowUp.mouseout"/>
                  </use>
                  <path fill="none" stroke="white" stroke-width="1.5" d="M0,-3.0v7 M-2.5,-0.5L0,-3.0L2.5,-0.5"/>
                </g>
                <g id="arrowRight" xlink:href="#dirArrow" transform="rotate(90) translate(36 -43)" onmousedown="handlePan(1,0)">
                  <use xlink:href="#rim" fill="#404040">
                        <set attributeName="fill" to="#808080" begin="arrowRight.mouseover" end="arrowRight.mouseout"/>
                  </use>
                  <path fill="none" stroke="white" stroke-width="1.5" d="M0,-3.0v7 M-2.5,-0.5L0,-3.0L2.5,-0.5"/>
                </g>
                <g id="arrowDown" xlink:href="#dirArrow" transform="rotate(180) translate(-30 -48)" onmousedown="handlePan(0,1)">
                  <use xlink:href="#rim" fill="#404040">
                        <set attributeName="fill" to="#808080" begin="arrowDown.mouseover" end="arrowDown.mouseout"/>
                  </use>
                  <path fill="none" stroke="white" stroke-width="1.5" d="M0,-3.0v7 M-2.5,-0.5L0,-3.0L2.5,-0.5"/>
                </g>
                <g id="arrowLeft" xlink:href="#dirArrow" transform="rotate(270) translate(-36 17)" onmousedown="handlePan(-1,0)">
                  <use xlink:href="#rim" fill="#404040">
                        <set attributeName="fill" to="#808080" begin="arrowLeft.mouseover" end="arrowLeft.mouseout"/>
                  </use>
                  <path fill="none" stroke="white" stroke-width="1.5" d="M0,-3.0v7 M-2.5,-0.5L0,-3.0L2.5,-0.5"/>
                </g>
        </g>
        <svg viewBox="0 0 15 15" width="100%" height="30px" preserveAspectRatio="xMaxYMin meet">
         <g id="arrow_out" transform="scale(0.3 0.3)">
          <a xlink:href="classInputDevice_a839d9cdc5886588a012275b477d860fa_cgraph_org.svg" target="_base">
           <rect id="button" ry="5" rx="5" y="6" x="6" height="38" width="38"
                fill="#f2f5e9" fill-opacity="0.5" stroke="#606060" stroke-width="1.0"/>
           <path id="arrow"
             d="M 11.500037,31.436501 C 11.940474,20.09759 22.043105,11.32322 32.158766,21.979434 L 37.068811,17.246167 C 37.068811,17.246167 37.088388,32 37.088388,32 L 22.160133,31.978069 C 22.160133,31.978069 26.997745,27.140456 26.997745,27.140456 C 18.528582,18.264221 13.291696,25.230495 11.500037,31.436501 z"
             style="fill:#404040;"/>
          </a>
         </g>
        </svg>
</svg>
