<?xml version="1.0" encoding="UTF-8" standalone="no"?>
<!DOCTYPE svg PUBLIC "-//W3C//DTD SVG 1.1//EN"
 "http://www.w3.org/Graphics/SVG/1.1/DTD/svg11.dtd">
<!-- Generated by graphviz version 2.43.0 (0)
 -->
<!-- Title: MainWindow::mappingUpdated Pages: 1 -->
<svg width="875pt" height="154pt"
 viewBox="0.00 0.00 875.00 154.00" xmlns="http://www.w3.org/2000/svg" xmlns:xlink="http://www.w3.org/1999/xlink">
<g id="graph0" class="graph" transform="scale(1 1) rotate(0) translate(4 150)">
<title>MainWindow::mappingUpdated</title>
<polygon fill="white" stroke="transparent" points="-4,4 -4,-150 871,-150 871,4 -4,4"/>
<!-- Node1 -->
<g id="node1" class="node">
<title>Node1</title>
<g id="a_node1"><a xlink:title=" ">
<polygon fill="#bfbfbf" stroke="black" points="698,-106.42 698,-125.42 867,-125.42 867,-106.42 698,-106.42"/>
<text text-anchor="middle" x="782.5" y="-113.42" font-family="Helvetica,sans-Serif" font-size="10.00">MainWindow::mappingUpdated</text>
</a>
</g>
</g>
<!-- Node2 -->
<g id="node2" class="node">
<title>Node2</title>
<g id="a_node2"><a xlink:href="main_8cpp.html#a0ddf1224851353fc92bfbff6f499fa97" target="_top" xlink:title=" ">
<polygon fill="white" stroke="black" points="0,-68.42 0,-87.42 41,-87.42 41,-68.42 0,-68.42"/>
<text text-anchor="middle" x="20.5" y="-75.42" font-family="Helvetica,sans-Serif" font-size="10.00">main</text>
</a>
</g>
</g>
<!-- Node1&#45;&gt;Node2 -->
<g id="edge1" class="edge">
<title>Node1&#45;&gt;Node2</title>
<path fill="none" stroke="midnightblue" d="M687.9,-120C574.9,-124.69 379.08,-132.13 211,-134.92 151.45,-135.91 131.87,-158.08 77,-134.92 54.09,-125.26 35.96,-101 27.21,-87.46"/>
<polygon fill="midnightblue" stroke="midnightblue" points="688.06,-123.49 697.9,-119.58 687.76,-116.5 688.06,-123.49"/>
</g>
<!-- Node3 -->
<g id="node3" class="node">
<title>Node3</title>
<g id="a_node3"><a xlink:href="classMainWindow.html#a4e2ec77808f2673635ad744be66e02dc" target="_top" xlink:title=" ">
<polygon fill="white" stroke="black" points="486,-78.92 486,-108.92 662,-108.92 662,-78.92 486,-78.92"/>
<text text-anchor="start" x="494" y="-96.92" font-family="Helvetica,sans-Serif" font-size="10.00">MainWindow::propogateMapping</text>
<text text-anchor="middle" x="574" y="-85.92" font-family="Helvetica,sans-Serif" font-size="10.00">Update</text>
</a>
</g>
</g>
<!-- Node1&#45;&gt;Node3 -->
<g id="edge2" class="edge">
<title>Node1&#45;&gt;Node3</title>
<path fill="none" stroke="midnightblue" d="M687.83,-105.94C679.29,-105.03 670.66,-104.11 662.18,-103.21"/>
<polygon fill="midnightblue" stroke="midnightblue" points="687.49,-109.43 697.81,-107.01 688.23,-102.47 687.49,-109.43"/>
</g>
<!-- Node4 -->
<g id="node4" class="node">
<title>Node4</title>
<g id="a_node4"><a xlink:href="classMainWindow.html#a9738583d1ab872fb2784c0faee89cb46" target="_top" xlink:title=" ">
<polygon fill="white" stroke="black" points="77,-106.42 77,-125.42 211,-125.42 211,-106.42 77,-106.42"/>
<text text-anchor="middle" x="144" y="-113.42" font-family="Helvetica,sans-Serif" font-size="10.00">MainWindow::addJoyTab</text>
</a>
</g>
</g>
<!-- Node3&#45;&gt;Node4 -->
<g id="edge3" class="edge">
<title>Node3&#45;&gt;Node4</title>
<path fill="none" stroke="midnightblue" d="M475.67,-98.93C394.74,-103.09 281.75,-108.89 211.01,-112.53"/>
<polygon fill="midnightblue" stroke="midnightblue" points="476.06,-102.41 485.87,-98.4 475.71,-95.42 476.06,-102.41"/>
</g>
<!-- Node5 -->
<g id="node5" class="node">
<title>Node5</title>
<g id="a_node5"><a xlink:href="classMainWindow.html#aef8941c9dc542d8ff8416fff1caf8ad7" target="_top" xlink:title=" ">
<polygon fill="white" stroke="black" points="271,-68.42 271,-87.42 426,-87.42 426,-68.42 271,-68.42"/>
<text text-anchor="middle" x="348.5" y="-75.42" font-family="Helvetica,sans-Serif" font-size="10.00">MainWindow::fillButtonsMap</text>
</a>
</g>
</g>
<!-- Node3&#45;&gt;Node5 -->
<g id="edge5" class="edge">
<title>Node3&#45;&gt;Node5</title>
<path fill="none" stroke="midnightblue" d="M475.69,-86.96C459.11,-85.77 442.09,-84.55 426.14,-83.41"/>
<polygon fill="midnightblue" stroke="midnightblue" points="475.72,-90.47 485.95,-87.69 476.22,-83.49 475.72,-90.47"/>
</g>
<!-- Node7 -->
<g id="node7" class="node">
<title>Node7</title>
<g id="a_node7"><a xlink:href="classMainWindow.html#a2a0aba59f5d3bf3c6fb97f0de103b36f" target="_top" xlink:title=" ">
<polygon fill="white" stroke="black" points="247,-11.42 247,-30.42 450,-30.42 450,-11.42 247,-11.42"/>
<text text-anchor="middle" x="348.5" y="-18.42" font-family="Helvetica,sans-Serif" font-size="10.00">MainWindow::testMappingUpdateNow</text>
</a>
</g>
</g>
<!-- Node3&#45;&gt;Node7 -->
<g id="edge9" class="edge">
<title>Node3&#45;&gt;Node7</title>
<path fill="none" stroke="midnightblue" d="M517.28,-75.72C473.35,-61.38 413.84,-41.94 378.77,-30.48"/>
<polygon fill="midnightblue" stroke="midnightblue" points="516.37,-79.11 526.96,-78.89 518.54,-72.45 516.37,-79.11"/>
</g>
<!-- Node4&#45;&gt;Node2 -->
<g id="edge4" class="edge">
<title>Node4&#45;&gt;Node2</title>
<path fill="none" stroke="midnightblue" d="M102.53,-103.27C81.86,-96.8 57.65,-89.23 41.11,-84.06"/>
<polygon fill="midnightblue" stroke="midnightblue" points="101.75,-106.69 112.34,-106.33 103.84,-100.01 101.75,-106.69"/>
</g>
<!-- Node5&#45;&gt;Node2 -->
<g id="edge8" class="edge">
<title>Node5&#45;&gt;Node2</title>
<path fill="none" stroke="midnightblue" d="M260.31,-77.92C185.63,-77.92 83.65,-77.92 41.24,-77.92"/>
<polygon fill="midnightblue" stroke="midnightblue" points="260.66,-81.42 270.66,-77.92 260.66,-74.42 260.66,-81.42"/>
</g>
<!-- Node6 -->
<g id="node6" class="node">
<title>Node6</title>
<g id="a_node6"><a xlink:href="classMainWindow.html#a5d25ebfdfec433fc449d7e35803a9c7c" target="_top" xlink:title=" ">
<polygon fill="white" stroke="black" points="77,-30.42 77,-49.42 211,-49.42 211,-30.42 77,-30.42"/>
<text text-anchor="middle" x="144" y="-37.42" font-family="Helvetica,sans-Serif" font-size="10.00">MainWindow::fillButtons</text>
</a>
</g>
</g>
<!-- Node5&#45;&gt;Node6 -->
<g id="edge6" class="edge">
<title>Node5&#45;&gt;Node6</title>
<path fill="none" stroke="midnightblue" d="M286.65,-66.51C257.68,-61.07 223.42,-54.64 195.86,-49.47"/>
<polygon fill="midnightblue" stroke="midnightblue" points="286.19,-69.98 296.66,-68.38 287.48,-63.1 286.19,-69.98"/>
</g>
<!-- Node6&#45;&gt;Node2 -->
<g id="edge7" class="edge">
<title>Node6&#45;&gt;Node2</title>
<path fill="none" stroke="midnightblue" d="M102.53,-52.58C81.86,-59.05 57.65,-66.62 41.11,-71.79"/>
<polygon fill="midnightblue" stroke="midnightblue" points="103.84,-55.84 112.34,-49.51 101.75,-49.16 103.84,-55.84"/>
</g>
<!-- Node7&#45;&gt;Node2 -->
<g id="edge10" class="edge">
<title>Node7&#45;&gt;Node2</title>
<path fill="none" stroke="midnightblue" d="M296.54,-9.54C240.37,0.47 148.48,9.25 77,-20.92 54.09,-30.59 35.96,-54.84 27.21,-68.39"/>
<polygon fill="midnightblue" stroke="midnightblue" points="296.13,-13.02 306.6,-11.42 297.42,-6.14 296.13,-13.02"/>
</g>
</g>
</svg>
