<?xml version="1.0" encoding="UTF-8" standalone="no"?>
<!DOCTYPE svg PUBLIC "-//W3C//DTD SVG 1.1//EN"
 "http://www.w3.org/Graphics/SVG/1.1/DTD/svg11.dtd">
<!-- Generated by graphviz version 2.43.0 (0)
 -->
<!-- Title: JoyTabWidget::removeProfileEditNotification Pages: 1 -->
<!--zoomable 545 -->
<svg id="main" version="1.1" xmlns="http://www.w3.org/2000/svg" xmlns:xlink="http://www.w3.org/1999/xlink" xml:space="preserve" onload="init(evt)">
<style type="text/css"><![CDATA[
.edge:hover path { stroke: red; }
.edge:hover polygon { stroke: red; fill: red; }
]]></style>
<script type="text/javascript"><![CDATA[
var edges = document.getElementsByTagName('g');
if (edges && edges.length) {
  for (var i=0;i<edges.length;i++) {
    if (edges[i].id.substr(0,4)=='edge') {
      edges[i].setAttribute('class','edge');
    }
  }
}
]]></script>
        <defs>
                <circle id="rim" cx="0" cy="0" r="7"/>
                <circle id="rim2" cx="0" cy="0" r="3.5"/>
                <g id="zoomPlus">
                        <use xlink:href="#rim" fill="#404040">
                                <set attributeName="fill" to="#808080" begin="zoomplus.mouseover" end="zoomplus.mouseout"/>
                        </use>
                        <path d="M-4,0h8M0,-4v8" fill="none" stroke="white" stroke-width="1.5" pointer-events="none"/>
                </g>
                <g id="zoomMin">
                        <use xlink:href="#rim" fill="#404040">
                                <set attributeName="fill" to="#808080" begin="zoomminus.mouseover" end="zoomminus.mouseout"/>
                        </use>
                        <path d="M-4,0h8" fill="none" stroke="white" stroke-width="1.5" pointer-events="none"/>
                </g>
                <g id="dirArrow">
                        <path fill="none" stroke="white" stroke-width="1.5" d="M0,-3.0v7 M-2.5,-0.5L0,-3.0L2.5,-0.5"/>
                </g>
               <g id="resetDef">
                       <use xlink:href="#rim2" fill="#404040">
                               <set attributeName="fill" to="#808080" begin="reset.mouseover" end="reset.mouseout"/>
                       </use>
               </g>
        </defs>

<script type="text/javascript">
var viewWidth = 2084;
var viewHeight = 545;
var sectionId = 'dynsection-104';
</script>
<script xlink:href="svgpan.js"/>
<svg id="graph" class="graph">
<g id="viewport">
<title>JoyTabWidget::removeProfileEditNotification</title>
<polygon fill="white" stroke="transparent" points="-4,4 -4,-540.87 2080,-540.87 2080,4 -4,4"/>
<!-- Node1 -->
<g id="node1" class="node">
<title>Node1</title>
<g id="a_node1"><a xlink:title=" ">
<polygon fill="#bfbfbf" stroke="black" points="1919,-265.89 1919,-295.89 2076,-295.89 2076,-265.89 1919,-265.89"/>
<text text-anchor="start" x="1927" y="-283.89" font-family="Helvetica,sans-Serif" font-size="10.00">JoyTabWidget::removeProfile</text>
<text text-anchor="middle" x="1997.5" y="-272.89" font-family="Helvetica,sans-Serif" font-size="10.00">EditNotification</text>
</a>
</g>
</g>
<!-- Node2 -->
<g id="node2" class="node">
<title>Node2</title>
<g id="a_node2"><a xlink:href="classJoyTabWidget.html#ab5a344375911c53432349e37f0ceb23b" target="_top" xlink:title=" ">
<polygon fill="white" stroke="black" points="1732,-306.89 1732,-336.89 1873,-336.89 1873,-306.89 1732,-306.89"/>
<text text-anchor="start" x="1740" y="-324.89" font-family="Helvetica,sans-Serif" font-size="10.00">JoyTabWidget::disconnect</text>
<text text-anchor="middle" x="1802.5" y="-313.89" font-family="Helvetica,sans-Serif" font-size="10.00">MainComboBoxEvents</text>
</a>
</g>
</g>
<!-- Node1&#45;&gt;Node2 -->
<g id="edge1" class="edge">
<title>Node1&#45;&gt;Node2</title>
<path fill="none" stroke="midnightblue" d="M1915.59,-298.08C1901.53,-301.07 1887.02,-304.15 1873.29,-307.07"/>
<polygon fill="midnightblue" stroke="midnightblue" points="1916.68,-301.43 1925.73,-295.93 1915.22,-294.58 1916.68,-301.43"/>
</g>
<!-- Node24 -->
<g id="node24" class="node">
<title>Node24</title>
<g id="a_node24"><a xlink:href="classJoyTabWidget.html#adb4e4e9dded721d91549af6e16268014" target="_top" xlink:title=" ">
<polygon fill="white" stroke="black" points="1722,-241.89 1722,-271.89 1883,-271.89 1883,-241.89 1722,-241.89"/>
<text text-anchor="start" x="1730" y="-259.89" font-family="Helvetica,sans-Serif" font-size="10.00">JoyTabWidget::reconnectMain</text>
<text text-anchor="middle" x="1802.5" y="-248.89" font-family="Helvetica,sans-Serif" font-size="10.00">ComboBoxEvents</text>
</a>
</g>
</g>
<!-- Node1&#45;&gt;Node24 -->
<g id="edge45" class="edge">
<title>Node1&#45;&gt;Node24</title>
<path fill="none" stroke="midnightblue" d="M1908.86,-269.99C1900.31,-268.93 1891.67,-267.86 1883.21,-266.8"/>
<polygon fill="midnightblue" stroke="midnightblue" points="1908.48,-273.47 1918.83,-271.23 1909.34,-266.53 1908.48,-273.47"/>
</g>
<!-- Node3 -->
<g id="node3" class="node">
<title>Node3</title>
<g id="a_node3"><a xlink:href="classJoyTabWidget.html#a52897728ad18ff62995aa44194412948" target="_top" xlink:title=" ">
<polygon fill="white" stroke="black" points="1511,-323.89 1511,-353.89 1686,-353.89 1686,-323.89 1511,-323.89"/>
<text text-anchor="start" x="1519" y="-341.89" font-family="Helvetica,sans-Serif" font-size="10.00">JoyTabWidget::checkForUnsaved</text>
<text text-anchor="middle" x="1598.5" y="-330.89" font-family="Helvetica,sans-Serif" font-size="10.00">Profile</text>
</a>
</g>
</g>
<!-- Node2&#45;&gt;Node3 -->
<g id="edge2" class="edge">
<title>Node2&#45;&gt;Node3</title>
<path fill="none" stroke="midnightblue" d="M1721.84,-328.6C1710.16,-329.58 1698.09,-330.6 1686.28,-331.59"/>
<polygon fill="midnightblue" stroke="midnightblue" points="1722.31,-332.07 1731.98,-327.74 1721.72,-325.09 1722.31,-332.07"/>
</g>
<!-- Node5 -->
<g id="node5" class="node">
<title>Node5</title>
<g id="a_node5"><a xlink:href="classJoyTabWidget.html#a3a406264aca24134162a4ee13e998b55" target="_top" xlink:title=" ">
<polygon fill="white" stroke="black" points="909,-265.89 909,-295.89 1076,-295.89 1076,-265.89 909,-265.89"/>
<text text-anchor="start" x="917" y="-283.89" font-family="Helvetica,sans-Serif" font-size="10.00">JoyTabWidget::discardUnsaved</text>
<text text-anchor="middle" x="992.5" y="-272.89" font-family="Helvetica,sans-Serif" font-size="10.00">ProfileChanges</text>
</a>
</g>
</g>
<!-- Node2&#45;&gt;Node5 -->
<g id="edge41" class="edge">
<title>Node2&#45;&gt;Node5</title>
<path fill="none" stroke="midnightblue" d="M1751.87,-303.59C1731.7,-296.9 1708.01,-289.98 1686,-285.89 1434.9,-239.26 1366.32,-235.48 1112,-258.89 1095.85,-260.38 1078.62,-262.98 1062.44,-265.89"/>
<polygon fill="midnightblue" stroke="midnightblue" points="1750.87,-306.95 1761.47,-306.84 1753.12,-300.32 1750.87,-306.95"/>
</g>
<!-- Node16 -->
<g id="node16" class="node">
<title>Node16</title>
<g id="a_node16"><a xlink:href="classJoyTabWidget.html#aa64541df4b5629b43351dd13c9651b2a" target="_top" xlink:title=" ">
<polygon fill="white" stroke="black" points="1113,-458.39 1113,-477.39 1271,-477.39 1271,-458.39 1113,-458.39"/>
<text text-anchor="middle" x="1192" y="-465.39" font-family="Helvetica,sans-Serif" font-size="10.00">JoyTabWidget::loadConfigFile</text>
</a>
</g>
</g>
<!-- Node2&#45;&gt;Node16 -->
<g id="edge42" class="edge">
<title>Node2&#45;&gt;Node16</title>
<path fill="none" stroke="midnightblue" d="M1777.17,-343.65C1725.85,-387.92 1600.84,-487.26 1475,-522.89 1403.59,-543.11 1380.38,-539.31 1308,-522.89 1269.37,-514.13 1228.54,-490.73 1207.47,-477.45"/>
<polygon fill="midnightblue" stroke="midnightblue" points="1779.52,-346.25 1784.77,-337.04 1774.93,-340.97 1779.52,-346.25"/>
</g>
<!-- Node21 -->
<g id="node21" class="node">
<title>Node21</title>
<g id="a_node21"><a xlink:href="classJoyTabWidget.html#a7e15bfce4bac6297eda8fc3a4e9d7196" target="_top" xlink:title=" ">
<polygon fill="white" stroke="black" points="1114.5,-344.39 1114.5,-363.39 1269.5,-363.39 1269.5,-344.39 1114.5,-344.39"/>
<text text-anchor="middle" x="1192" y="-351.39" font-family="Helvetica,sans-Serif" font-size="10.00">JoyTabWidget::saveAsConfig</text>
</a>
</g>
</g>
<!-- Node2&#45;&gt;Node21 -->
<g id="edge43" class="edge">
<title>Node2&#45;&gt;Node21</title>
<path fill="none" stroke="midnightblue" d="M1759.98,-340.98C1738.41,-349.86 1711.33,-359.43 1686,-363.89 1535.72,-390.37 1355.7,-375.13 1260.22,-363.43"/>
<polygon fill="midnightblue" stroke="midnightblue" points="1761.63,-344.08 1769.48,-336.97 1758.9,-337.63 1761.63,-344.08"/>
</g>
<!-- Node22 -->
<g id="node22" class="node">
<title>Node22</title>
<g id="a_node22"><a xlink:href="classJoyTabWidget.html#a6b09ad1532669ed27aac287e6aa63faf" target="_top" xlink:title=" ">
<polygon fill="white" stroke="black" points="1112,-268.39 1112,-287.39 1272,-287.39 1272,-268.39 1112,-268.39"/>
<text text-anchor="middle" x="1192" y="-275.39" font-family="Helvetica,sans-Serif" font-size="10.00">JoyTabWidget::saveConfigFile</text>
</a>
</g>
</g>
<!-- Node2&#45;&gt;Node22 -->
<g id="edge44" class="edge">
<title>Node2&#45;&gt;Node22</title>
<path fill="none" stroke="midnightblue" d="M1721.55,-312.03C1655.53,-304.25 1559.32,-293.77 1475,-287.89 1406.58,-283.12 1328.66,-280.58 1272.09,-279.25"/>
<polygon fill="midnightblue" stroke="midnightblue" points="1721.54,-315.55 1731.88,-313.25 1722.36,-308.6 1721.54,-315.55"/>
</g>
<!-- Node4 -->
<g id="node4" class="node">
<title>Node4</title>
<g id="a_node4"><a xlink:href="classJoyTabWidget.html#a46cbb4d5798f46f5b9aaab65090ebe24" target="_top" xlink:title=" ">
<polygon fill="white" stroke="black" points="1321,-323.89 1321,-353.89 1462,-353.89 1462,-323.89 1321,-323.89"/>
<text text-anchor="start" x="1329" y="-341.89" font-family="Helvetica,sans-Serif" font-size="10.00">JoyTabWidget::disconnect</text>
<text text-anchor="middle" x="1391.5" y="-330.89" font-family="Helvetica,sans-Serif" font-size="10.00">CheckUnsavedEvent</text>
</a>
</g>
</g>
<!-- Node3&#45;&gt;Node4 -->
<g id="edge3" class="edge">
<title>Node3&#45;&gt;Node4</title>
<path fill="none" stroke="midnightblue" d="M1500.5,-332.15C1487.53,-332.11 1474.44,-332.21 1462.07,-332.46"/>
<polygon fill="midnightblue" stroke="midnightblue" points="1500.84,-335.65 1510.86,-332.21 1500.88,-328.65 1500.84,-335.65"/>
</g>
<!-- Node3&#45;&gt;Node16 -->
<g id="edge33" class="edge">
<title>Node3&#45;&gt;Node16</title>
<path fill="none" stroke="midnightblue" d="M1524.79,-358.75C1519.82,-361.68 1515.15,-365.04 1511,-368.89 1481.52,-396.23 1507.98,-428.89 1475,-451.89 1401.8,-502.95 1290.15,-489.5 1231.72,-477.45"/>
<polygon fill="midnightblue" stroke="midnightblue" points="1526.77,-361.67 1534,-353.93 1523.52,-355.47 1526.77,-361.67"/>
</g>
<!-- Node23 -->
<g id="node23" class="node">
<title>Node23</title>
<g id="a_node23"><a xlink:href="classJoyTabWidget.html#addfb2efb312a0ce8b5c1b9bcc8543bef" target="_top" xlink:title=" ">
<polygon fill="white" stroke="black" points="1308,-411.89 1308,-441.89 1475,-441.89 1475,-411.89 1308,-411.89"/>
<text text-anchor="start" x="1316" y="-429.89" font-family="Helvetica,sans-Serif" font-size="10.00">JoyTabWidget::reconnectCheck</text>
<text text-anchor="middle" x="1391.5" y="-418.89" font-family="Helvetica,sans-Serif" font-size="10.00">UnsavedEvent</text>
</a>
</g>
</g>
<!-- Node3&#45;&gt;Node23 -->
<g id="edge34" class="edge">
<title>Node3&#45;&gt;Node23</title>
<path fill="none" stroke="midnightblue" d="M1516.52,-357.64C1514.66,-358.38 1512.82,-359.14 1511,-359.89 1474,-375.3 1432.21,-396.74 1409.47,-411.65"/>
<polygon fill="midnightblue" stroke="midnightblue" points="1517.92,-360.85 1525.96,-353.96 1515.38,-354.33 1517.92,-360.85"/>
</g>
<!-- Node4&#45;&gt;Node3 -->
<g id="edge4" class="edge">
<title>Node4&#45;&gt;Node3</title>
<path fill="none" stroke="midnightblue" d="M1472.13,-345.49C1484.82,-345.66 1498.01,-345.69 1510.86,-345.57"/>
<polygon fill="midnightblue" stroke="midnightblue" points="1472.13,-341.99 1462.07,-345.32 1472.01,-348.99 1472.13,-341.99"/>
</g>
<!-- Node4&#45;&gt;Node5 -->
<g id="edge5" class="edge">
<title>Node4&#45;&gt;Node5</title>
<path fill="none" stroke="midnightblue" d="M1310.64,-327.23C1242.53,-317.27 1144.98,-303.02 1076.09,-292.96"/>
<polygon fill="midnightblue" stroke="midnightblue" points="1310.49,-330.74 1320.89,-328.72 1311.5,-323.81 1310.49,-330.74"/>
</g>
<!-- Node4&#45;&gt;Node16 -->
<g id="edge20" class="edge">
<title>Node4&#45;&gt;Node16</title>
<path fill="none" stroke="midnightblue" d="M1359.01,-359.46C1315.76,-387.71 1239.71,-437.38 1207.78,-458.24"/>
<polygon fill="midnightblue" stroke="midnightblue" points="1361,-362.34 1367.46,-353.94 1357.17,-356.48 1361,-362.34"/>
</g>
<!-- Node4&#45;&gt;Node21 -->
<g id="edge27" class="edge">
<title>Node4&#45;&gt;Node21</title>
<path fill="none" stroke="midnightblue" d="M1310.65,-344.96C1297.15,-345.98 1283.15,-347.05 1269.73,-348.06"/>
<polygon fill="midnightblue" stroke="midnightblue" points="1311.16,-348.43 1320.87,-344.18 1310.63,-341.45 1311.16,-348.43"/>
</g>
<!-- Node4&#45;&gt;Node22 -->
<g id="edge29" class="edge">
<title>Node4&#45;&gt;Node22</title>
<path fill="none" stroke="midnightblue" d="M1333.07,-320.86C1313.68,-314.8 1291.91,-308.03 1272,-301.89 1256.38,-297.08 1239.01,-291.8 1224.54,-287.41"/>
<polygon fill="midnightblue" stroke="midnightblue" points="1332.08,-324.22 1342.67,-323.87 1334.17,-317.54 1332.08,-324.22"/>
</g>
<!-- Node6 -->
<g id="node6" class="node">
<title>Node6</title>
<g id="a_node6"><a xlink:href="classMainWindow.html#a59aa0e5214cb820e8743dea1b81b7d9a" target="_top" xlink:title=" ">
<polygon fill="white" stroke="black" points="719,-281.39 719,-300.39 864,-300.39 864,-281.39 719,-281.39"/>
<text text-anchor="middle" x="791.5" y="-288.39" font-family="Helvetica,sans-Serif" font-size="10.00">MainWindow::quitProgram</text>
</a>
</g>
</g>
<!-- Node5&#45;&gt;Node6 -->
<g id="edge6" class="edge">
<title>Node5&#45;&gt;Node6</title>
<path fill="none" stroke="midnightblue" d="M898.68,-285.56C887.08,-286.14 875.35,-286.73 864.13,-287.29"/>
<polygon fill="midnightblue" stroke="midnightblue" points="899.02,-289.04 908.83,-285.05 898.67,-282.05 899.02,-289.04"/>
</g>
<!-- Node7 -->
<g id="node7" class="node">
<title>Node7</title>
<g id="a_node7"><a xlink:href="classMainWindow.html#a4b00208df3ff47236e6b46f308647a97" target="_top" xlink:title=" ">
<polygon fill="white" stroke="black" points="506,-286.39 506,-305.39 674,-305.39 674,-286.39 506,-286.39"/>
<text text-anchor="middle" x="590" y="-293.39" font-family="Helvetica,sans-Serif" font-size="10.00">MainWindow::populateTrayIcon</text>
</a>
</g>
</g>
<!-- Node6&#45;&gt;Node7 -->
<g id="edge7" class="edge">
<title>Node6&#45;&gt;Node7</title>
<path fill="none" stroke="midnightblue" d="M708.5,-292.95C697.22,-293.23 685.63,-293.52 674.32,-293.8"/>
<polygon fill="midnightblue" stroke="midnightblue" points="708.85,-296.44 718.76,-292.69 708.67,-289.44 708.85,-296.44"/>
</g>
<!-- Node8 -->
<g id="node8" class="node">
<title>Node8</title>
<g id="a_node8"><a xlink:href="classMainWindow.html#a9738583d1ab872fb2784c0faee89cb46" target="_top" xlink:title=" ">
<polygon fill="white" stroke="black" points="87,-307.39 87,-326.39 221,-326.39 221,-307.39 87,-307.39"/>
<text text-anchor="middle" x="154" y="-314.39" font-family="Helvetica,sans-Serif" font-size="10.00">MainWindow::addJoyTab</text>
</a>
</g>
</g>
<!-- Node7&#45;&gt;Node8 -->
<g id="edge8" class="edge">
<title>Node7&#45;&gt;Node8</title>
<path fill="none" stroke="midnightblue" d="M495.69,-300.41C413.04,-304.41 294.46,-310.14 221.21,-313.69"/>
<polygon fill="midnightblue" stroke="midnightblue" points="496.01,-303.9 505.83,-299.92 495.68,-296.9 496.01,-303.9"/>
</g>
<!-- Node10 -->
<g id="node10" class="node">
<title>Node10</title>
<g id="a_node10"><a xlink:href="classMainWindow.html#aef8941c9dc542d8ff8416fff1caf8ad7" target="_top" xlink:title=" ">
<polygon fill="white" stroke="black" points="291,-250.39 291,-269.39 446,-269.39 446,-250.39 291,-250.39"/>
<text text-anchor="middle" x="368.5" y="-257.39" font-family="Helvetica,sans-Serif" font-size="10.00">MainWindow::fillButtonsMap</text>
</a>
</g>
</g>
<!-- Node7&#45;&gt;Node10 -->
<g id="edge10" class="edge">
<title>Node7&#45;&gt;Node10</title>
<path fill="none" stroke="midnightblue" d="M521.11,-284.76C491.23,-279.86 456.47,-274.16 427.78,-269.45"/>
<polygon fill="midnightblue" stroke="midnightblue" points="520.61,-288.22 531.04,-286.39 521.74,-281.31 520.61,-288.22"/>
</g>
<!-- Node12 -->
<g id="node12" class="node">
<title>Node12</title>
<g id="a_node12"><a xlink:href="classMainWindow.html#ae9f72ff45056908317963a1e7fa634a0" target="_top" xlink:title="Build list of current input devices and pass it to settings dialog instance. Open Settings dialog.">
<polygon fill="white" stroke="black" points="282,-364.89 282,-394.89 455,-394.89 455,-364.89 282,-364.89"/>
<text text-anchor="start" x="290" y="-382.89" font-family="Helvetica,sans-Serif" font-size="10.00">MainWindow::openMainSettings</text>
<text text-anchor="middle" x="368.5" y="-371.89" font-family="Helvetica,sans-Serif" font-size="10.00">Dialog</text>
</a>
</g>
</g>
<!-- Node7&#45;&gt;Node12 -->
<g id="edge14" class="edge">
<title>Node7&#45;&gt;Node12</title>
<path fill="none" stroke="midnightblue" d="M563.57,-310.52C539.95,-323.62 503.48,-342.59 470,-354.89 459.96,-358.58 449.16,-361.91 438.49,-364.84"/>
<polygon fill="midnightblue" stroke="midnightblue" points="565.55,-313.42 572.56,-305.48 562.13,-307.32 565.55,-313.42"/>
</g>
<!-- Node14 -->
<g id="node14" class="node">
<title>Node14</title>
<g id="a_node14"><a xlink:href="classMainWindow.html#ac398cc635954d370088390a0a5bee878" target="_top" xlink:title=" ">
<polygon fill="white" stroke="black" points="77,-193.39 77,-212.39 231,-212.39 231,-193.39 77,-193.39"/>
<text text-anchor="middle" x="154" y="-200.39" font-family="Helvetica,sans-Serif" font-size="10.00">MainWindow::removeJoyTab</text>
</a>
</g>
</g>
<!-- Node7&#45;&gt;Node14 -->
<g id="edge16" class="edge">
<title>Node7&#45;&gt;Node14</title>
<path fill="none" stroke="midnightblue" d="M563.75,-281.38C540.26,-268.58 503.87,-250.5 470,-240.89 390.38,-218.3 295.71,-209.14 231.09,-205.42"/>
<polygon fill="midnightblue" stroke="midnightblue" points="562.25,-284.55 572.69,-286.34 565.64,-278.43 562.25,-284.55"/>
</g>
<!-- Node15 -->
<g id="node15" class="node">
<title>Node15</title>
<g id="a_node15"><a xlink:href="classMainWindow.html#a2a0aba59f5d3bf3c6fb97f0de103b36f" target="_top" xlink:title=" ">
<polygon fill="white" stroke="black" points="267,-326.39 267,-345.39 470,-345.39 470,-326.39 267,-326.39"/>
<text text-anchor="middle" x="368.5" y="-333.39" font-family="Helvetica,sans-Serif" font-size="10.00">MainWindow::testMappingUpdateNow</text>
</a>
</g>
</g>
<!-- Node7&#45;&gt;Node15 -->
<g id="edge18" class="edge">
<title>Node7&#45;&gt;Node15</title>
<path fill="none" stroke="midnightblue" d="M526.67,-307.25C493.53,-313.29 453.26,-320.63 421.78,-326.37"/>
<polygon fill="midnightblue" stroke="midnightblue" points="527.49,-310.66 536.7,-305.42 526.24,-303.77 527.49,-310.66"/>
</g>
<!-- Node9 -->
<g id="node9" class="node">
<title>Node9</title>
<g id="a_node9"><a xlink:href="main_8cpp.html#a0ddf1224851353fc92bfbff6f499fa97" target="_top" xlink:title=" ">
<polygon fill="white" stroke="black" points="0,-288.39 0,-307.39 41,-307.39 41,-288.39 0,-288.39"/>
<text text-anchor="middle" x="20.5" y="-295.39" font-family="Helvetica,sans-Serif" font-size="10.00">main</text>
</a>
</g>
</g>
<!-- Node8&#45;&gt;Node9 -->
<g id="edge9" class="edge">
<title>Node8&#45;&gt;Node9</title>
<path fill="none" stroke="midnightblue" d="M76.69,-305.87C63.5,-303.96 50.88,-302.14 41.05,-300.72"/>
<polygon fill="midnightblue" stroke="midnightblue" points="76.47,-309.37 86.86,-307.34 77.47,-302.44 76.47,-309.37"/>
</g>
<!-- Node10&#45;&gt;Node9 -->
<g id="edge13" class="edge">
<title>Node10&#45;&gt;Node9</title>
<path fill="none" stroke="midnightblue" d="M280.59,-269.44C200.24,-278.26 86.62,-290.74 41.29,-295.72"/>
<polygon fill="midnightblue" stroke="midnightblue" points="281.15,-272.9 290.71,-268.33 280.39,-265.94 281.15,-272.9"/>
</g>
<!-- Node11 -->
<g id="node11" class="node">
<title>Node11</title>
<g id="a_node11"><a xlink:href="classMainWindow.html#a5d25ebfdfec433fc449d7e35803a9c7c" target="_top" xlink:title=" ">
<polygon fill="white" stroke="black" points="87,-231.39 87,-250.39 221,-250.39 221,-231.39 87,-231.39"/>
<text text-anchor="middle" x="154" y="-238.39" font-family="Helvetica,sans-Serif" font-size="10.00">MainWindow::fillButtons</text>
</a>
</g>
</g>
<!-- Node10&#45;&gt;Node11 -->
<g id="edge11" class="edge">
<title>Node10&#45;&gt;Node11</title>
<path fill="none" stroke="midnightblue" d="M280.78,-252.14C260.84,-250.36 239.96,-248.49 221.07,-246.8"/>
<polygon fill="midnightblue" stroke="midnightblue" points="280.51,-255.63 290.78,-253.03 281.13,-248.66 280.51,-255.63"/>
</g>
<!-- Node11&#45;&gt;Node9 -->
<g id="edge12" class="edge">
<title>Node11&#45;&gt;Node9</title>
<path fill="none" stroke="midnightblue" d="M106.95,-253.56C96.92,-256.83 86.47,-260.65 77,-264.89 62.27,-271.49 46.55,-281.11 35.61,-288.26"/>
<polygon fill="midnightblue" stroke="midnightblue" points="108.31,-256.8 116.8,-250.47 106.21,-250.12 108.31,-256.8"/>
</g>
<!-- Node13 -->
<g id="node13" class="node">
<title>Node13</title>
<g id="a_node13"><a xlink:href="classMainWindow.html#a2f0c03d3d51748ab794e698322110614" target="_top" xlink:title=" ">
<polygon fill="white" stroke="black" points="80,-408.39 80,-427.39 228,-427.39 228,-408.39 80,-408.39"/>
<text text-anchor="middle" x="154" y="-415.39" font-family="Helvetica,sans-Serif" font-size="10.00">MainWindow::MainWindow</text>
</a>
</g>
</g>
<!-- Node12&#45;&gt;Node13 -->
<g id="edge15" class="edge">
<title>Node12&#45;&gt;Node13</title>
<path fill="none" stroke="midnightblue" d="M273.61,-396.68C251.17,-400.69 227.99,-404.84 208.13,-408.39"/>
<polygon fill="midnightblue" stroke="midnightblue" points="274.29,-400.12 283.51,-394.91 273.05,-393.23 274.29,-400.12"/>
</g>
<!-- Node14&#45;&gt;Node9 -->
<g id="edge17" class="edge">
<title>Node14&#45;&gt;Node9</title>
<path fill="none" stroke="midnightblue" d="M86.41,-216.51C83.13,-218.11 79.97,-219.89 77,-221.89 51.52,-239.05 33.53,-271.99 25.77,-288.28"/>
<polygon fill="midnightblue" stroke="midnightblue" points="88.07,-219.6 95.92,-212.48 85.34,-213.16 88.07,-219.6"/>
</g>
<!-- Node15&#45;&gt;Node9 -->
<g id="edge19" class="edge">
<title>Node15&#45;&gt;Node9</title>
<path fill="none" stroke="midnightblue" d="M302.16,-346.72C242.18,-354.14 151.58,-358.98 77,-335.89 59.15,-330.37 41.93,-316.9 31.53,-307.58"/>
<polygon fill="midnightblue" stroke="midnightblue" points="302.79,-350.16 312.25,-345.41 301.89,-343.22 302.79,-350.16"/>
</g>
<!-- Node17 -->
<g id="node17" class="node">
<title>Node17</title>
<g id="a_node17"><a xlink:href="classMainWindow.html#a0a756973a707af418c4ce416c9c8312c" target="_top" xlink:title=" ">
<polygon fill="white" stroke="black" points="509.5,-414.39 509.5,-433.39 670.5,-433.39 670.5,-414.39 509.5,-414.39"/>
<text text-anchor="middle" x="590" y="-421.39" font-family="Helvetica,sans-Serif" font-size="10.00">MainWindow::autoprofileLoad</text>
</a>
</g>
</g>
<!-- Node16&#45;&gt;Node17 -->
<g id="edge21" class="edge">
<title>Node16&#45;&gt;Node17</title>
<path fill="none" stroke="midnightblue" d="M1130.91,-456.66C1113.27,-453.71 1093.91,-450.83 1076,-448.89 933.71,-433.52 766.87,-427.54 670.61,-425.26"/>
<polygon fill="midnightblue" stroke="midnightblue" points="1130.62,-460.16 1141.07,-458.39 1131.8,-453.26 1130.62,-460.16"/>
</g>
<!-- Node18 -->
<g id="node18" class="node">
<title>Node18</title>
<g id="a_node18"><a xlink:href="classJoyTabWidget.html#a6a6bd9ccd83557de08b6e698598f2123" target="_top" xlink:title=" ">
<polygon fill="white" stroke="black" points="915,-344.39 915,-363.39 1070,-363.39 1070,-344.39 915,-344.39"/>
<text text-anchor="middle" x="992.5" y="-351.39" font-family="Helvetica,sans-Serif" font-size="10.00">JoyTabWidget::JoyTabWidget</text>
</a>
</g>
</g>
<!-- Node16&#45;&gt;Node18 -->
<g id="edge23" class="edge">
<title>Node16&#45;&gt;Node18</title>
<path fill="none" stroke="midnightblue" d="M1137.1,-455.19C1128.42,-452.12 1119.75,-448.39 1112,-443.89 1092.97,-432.84 1093.16,-423.67 1076,-409.89 1053.86,-392.12 1026.23,-374.13 1009.23,-363.5"/>
<polygon fill="midnightblue" stroke="midnightblue" points="1136.27,-458.6 1146.86,-458.38 1138.45,-451.95 1136.27,-458.6"/>
</g>
<!-- Node19 -->
<g id="node19" class="node">
<title>Node19</title>
<g id="a_node19"><a xlink:href="classMainWindow.html#a781de6ce6a0b73b8caadfad15e7c7147" target="_top" xlink:title=" ">
<polygon fill="white" stroke="black" points="915.5,-458.39 915.5,-477.39 1069.5,-477.39 1069.5,-458.39 915.5,-458.39"/>
<text text-anchor="middle" x="992.5" y="-465.39" font-family="Helvetica,sans-Serif" font-size="10.00">MainWindow::loadConfigFile</text>
</a>
</g>
</g>
<!-- Node16&#45;&gt;Node19 -->
<g id="edge24" class="edge">
<title>Node16&#45;&gt;Node19</title>
<path fill="none" stroke="midnightblue" d="M1102.85,-467.89C1091.79,-467.89 1080.55,-467.89 1069.7,-467.89"/>
<polygon fill="midnightblue" stroke="midnightblue" points="1102.94,-471.39 1112.94,-467.89 1102.94,-464.39 1102.94,-471.39"/>
</g>
<!-- Node17&#45;&gt;Node13 -->
<g id="edge22" class="edge">
<title>Node17&#45;&gt;Node13</title>
<path fill="none" stroke="midnightblue" d="M499.31,-422.65C419.13,-421.54 303.07,-419.94 228.32,-418.91"/>
<polygon fill="midnightblue" stroke="midnightblue" points="499.35,-426.15 509.4,-422.79 499.45,-419.15 499.35,-426.15"/>
</g>
<!-- Node20 -->
<g id="node20" class="node">
<title>Node20</title>
<g id="a_node20"><a xlink:href="classMainWindow.html#a58c2bb4b8456b8dd246c6beb3623b3d2" target="_top" xlink:title=" ">
<polygon fill="white" stroke="black" points="710,-452.89 710,-482.89 873,-482.89 873,-452.89 710,-452.89"/>
<text text-anchor="start" x="718" y="-470.89" font-family="Helvetica,sans-Serif" font-size="10.00">MainWindow::alterConfigFrom</text>
<text text-anchor="middle" x="791.5" y="-459.89" font-family="Helvetica,sans-Serif" font-size="10.00">Settings</text>
</a>
</g>
</g>
<!-- Node19&#45;&gt;Node20 -->
<g id="edge25" class="edge">
<title>Node19&#45;&gt;Node20</title>
<path fill="none" stroke="midnightblue" d="M905.27,-467.89C894.61,-467.89 883.75,-467.89 873.17,-467.89"/>
<polygon fill="midnightblue" stroke="midnightblue" points="905.41,-471.39 915.41,-467.89 905.41,-464.39 905.41,-471.39"/>
</g>
<!-- Node20&#45;&gt;Node9 -->
<g id="edge26" class="edge">
<title>Node20&#45;&gt;Node9</title>
<path fill="none" stroke="midnightblue" d="M728.72,-485.55C595.61,-519.61 277.54,-579.21 77,-436.89 32.92,-405.61 23.83,-333.4 21.97,-307.42"/>
<polygon fill="midnightblue" stroke="midnightblue" points="729.95,-488.84 738.75,-482.94 728.19,-482.07 729.95,-488.84"/>
</g>
<!-- Node21&#45;&gt;Node18 -->
<g id="edge28" class="edge">
<title>Node21&#45;&gt;Node18</title>
<path fill="none" stroke="midnightblue" d="M1104.05,-353.89C1092.74,-353.89 1081.22,-353.89 1070.1,-353.89"/>
<polygon fill="midnightblue" stroke="midnightblue" points="1104.36,-357.39 1114.36,-353.89 1104.36,-350.39 1104.36,-357.39"/>
</g>
<!-- Node22&#45;&gt;Node3 -->
<g id="edge30" class="edge">
<title>Node22&#45;&gt;Node3</title>
<path fill="none" stroke="midnightblue" d="M1282.37,-288.16C1337.93,-294.9 1410.77,-304.4 1475,-314.89 1491.15,-317.53 1508.43,-320.7 1524.76,-323.86"/>
<polygon fill="midnightblue" stroke="midnightblue" points="1282.55,-284.65 1272.21,-286.93 1281.71,-291.6 1282.55,-284.65"/>
</g>
<!-- Node22&#45;&gt;Node5 -->
<g id="edge31" class="edge">
<title>Node22&#45;&gt;Node5</title>
<path fill="none" stroke="midnightblue" d="M1101.58,-279.25C1093.15,-279.38 1084.63,-279.51 1076.26,-279.64"/>
<polygon fill="midnightblue" stroke="midnightblue" points="1101.86,-282.75 1111.81,-279.1 1101.76,-275.75 1101.86,-282.75"/>
</g>
<!-- Node22&#45;&gt;Node18 -->
<g id="edge32" class="edge">
<title>Node22&#45;&gt;Node18</title>
<path fill="none" stroke="midnightblue" d="M1156.5,-291.17C1116.98,-306.37 1053.22,-330.91 1018.31,-344.34"/>
<polygon fill="midnightblue" stroke="midnightblue" points="1157.91,-294.38 1165.99,-287.52 1155.4,-287.84 1157.91,-294.38"/>
</g>
<!-- Node23&#45;&gt;Node3 -->
<g id="edge35" class="edge">
<title>Node23&#45;&gt;Node3</title>
<path fill="none" stroke="midnightblue" d="M1445.96,-407.44C1466.1,-397.97 1489.37,-386.9 1511,-377.89 1531.69,-369.28 1555.83,-361.05 1573.34,-353.9"/>
<polygon fill="midnightblue" stroke="midnightblue" points="1444.22,-404.39 1436.65,-411.81 1447.19,-410.73 1444.22,-404.39"/>
</g>
<!-- Node23&#45;&gt;Node5 -->
<g id="edge36" class="edge">
<title>Node23&#45;&gt;Node5</title>
<path fill="none" stroke="midnightblue" d="M1298.01,-410.35C1220.23,-396.22 1120.35,-377.47 1112,-372.89 1091.61,-361.7 1093.85,-349.81 1076,-334.89 1058.4,-320.19 1036.62,-306.08 1019.86,-295.97"/>
<polygon fill="midnightblue" stroke="midnightblue" points="1297.4,-413.8 1307.86,-412.14 1298.65,-406.91 1297.4,-413.8"/>
</g>
<!-- Node23&#45;&gt;Node16 -->
<g id="edge38" class="edge">
<title>Node23&#45;&gt;Node16</title>
<path fill="none" stroke="midnightblue" d="M1308.06,-444.01C1284.46,-448.91 1259.59,-454.07 1239.02,-458.34"/>
<polygon fill="midnightblue" stroke="midnightblue" points="1309,-447.39 1318.08,-441.93 1307.58,-440.53 1309,-447.39"/>
</g>
<!-- Node23&#45;&gt;Node18 -->
<g id="edge37" class="edge">
<title>Node23&#45;&gt;Node18</title>
<path fill="none" stroke="midnightblue" d="M1297.66,-427.69C1242.9,-426.24 1172.68,-421.02 1112,-405.89 1074.07,-396.43 1032.96,-375.81 1010.51,-363.57"/>
<polygon fill="midnightblue" stroke="midnightblue" points="1297.62,-431.19 1307.69,-427.92 1297.78,-424.19 1297.62,-431.19"/>
</g>
<!-- Node23&#45;&gt;Node21 -->
<g id="edge39" class="edge">
<title>Node23&#45;&gt;Node21</title>
<path fill="none" stroke="midnightblue" d="M1335.86,-408.22C1326.48,-404.67 1316.89,-400.83 1308,-396.89 1291.46,-389.56 1288.73,-384.78 1272,-377.89 1258.48,-372.33 1243.19,-367.39 1229.69,-363.46"/>
<polygon fill="midnightblue" stroke="midnightblue" points="1334.94,-411.61 1345.53,-411.8 1337.37,-405.04 1334.94,-411.61"/>
</g>
<!-- Node23&#45;&gt;Node22 -->
<g id="edge40" class="edge">
<title>Node23&#45;&gt;Node22</title>
<path fill="none" stroke="midnightblue" d="M1362,-405.41C1346.04,-393.32 1325.83,-377.88 1308,-363.89 1291.83,-351.21 1288.34,-347.35 1272,-334.89 1249.54,-317.76 1222.77,-298.73 1206.86,-287.56"/>
<polygon fill="midnightblue" stroke="midnightblue" points="1360.3,-408.52 1370.38,-411.76 1364.52,-402.93 1360.3,-408.52"/>
</g>
<!-- Node24&#45;&gt;Node3 -->
<g id="edge46" class="edge">
<title>Node24&#45;&gt;Node3</title>
<path fill="none" stroke="midnightblue" d="M1755.15,-275.71C1719.2,-290.3 1670.04,-310.26 1636.66,-323.81"/>
<polygon fill="midnightblue" stroke="midnightblue" points="1756.5,-278.94 1764.45,-271.93 1753.87,-272.45 1756.5,-278.94"/>
</g>
<!-- Node24&#45;&gt;Node5 -->
<g id="edge47" class="edge">
<title>Node24&#45;&gt;Node5</title>
<path fill="none" stroke="midnightblue" d="M1792.94,-232.31C1778.07,-193.88 1743.42,-120.89 1686,-90.89 1459.89,27.24 1335.07,32.88 1112,-90.89 1042.31,-129.56 1008.25,-228.14 997.44,-265.88"/>
<polygon fill="midnightblue" stroke="midnightblue" points="1789.68,-233.58 1796.46,-241.72 1796.24,-231.13 1789.68,-233.58"/>
</g>
<!-- Node24&#45;&gt;Node16 -->
<g id="edge49" class="edge">
<title>Node24&#45;&gt;Node16</title>
<path fill="none" stroke="midnightblue" d="M1752.26,-276.49C1741.46,-282.29 1730.68,-289.41 1722,-297.89 1698.1,-321.24 1712.2,-343.15 1686,-363.89 1622.76,-413.95 1573.33,-360.72 1511,-411.89 1483.35,-434.59 1505.43,-465.08 1475,-483.89 1391.78,-535.32 1267.01,-496.88 1215.98,-477.4"/>
<polygon fill="midnightblue" stroke="midnightblue" points="1753.95,-279.56 1761.29,-271.92 1750.79,-273.31 1753.95,-279.56"/>
</g>
<!-- Node24&#45;&gt;Node18 -->
<g id="edge48" class="edge">
<title>Node24&#45;&gt;Node18</title>
<path fill="none" stroke="midnightblue" d="M1776.31,-235.48C1754.15,-218.12 1720.17,-194.93 1686,-184.89 1524.81,-137.52 1473.07,-150.63 1308,-181.89 1216.04,-199.31 1186.75,-202.57 1112,-258.89 1090.99,-274.73 1095.75,-288.5 1076,-305.89 1057.47,-322.21 1032.56,-335.79 1014.98,-344.3"/>
<polygon fill="midnightblue" stroke="midnightblue" points="1774.21,-238.28 1784.2,-241.81 1778.59,-232.82 1774.21,-238.28"/>
</g>
<!-- Node24&#45;&gt;Node21 -->
<g id="edge50" class="edge">
<title>Node24&#45;&gt;Node21</title>
<path fill="none" stroke="midnightblue" d="M1711.54,-261.78C1611.88,-268.5 1446.92,-283.54 1308,-314.89 1275.51,-322.23 1239.32,-335.36 1216.37,-344.35"/>
<polygon fill="midnightblue" stroke="midnightblue" points="1711.82,-265.27 1721.57,-261.12 1711.36,-258.28 1711.82,-265.27"/>
</g>
<!-- Node24&#45;&gt;Node22 -->
<g id="edge51" class="edge">
<title>Node24&#45;&gt;Node22</title>
<path fill="none" stroke="midnightblue" d="M1749.72,-238.67C1658.56,-209.38 1464.25,-159.49 1308,-204.89 1264.85,-217.43 1222.41,-251.57 1203.39,-268.34"/>
<polygon fill="midnightblue" stroke="midnightblue" points="1748.68,-242.01 1759.27,-241.79 1750.85,-235.36 1748.68,-242.01"/>
</g>
</g>
</svg>
        <g id="navigator" transform="translate(0 0)" fill="#404254">
                <rect fill="#f2f5e9" fill-opacity="0.5" stroke="#606060" stroke-width=".5" x="0" y="0" width="60" height="60"/>
                <use id="zoomplus" xlink:href="#zoomPlus" x="17" y="9" onmousedown="handleZoom(evt,'in')"/>
                <use id="zoomminus" xlink:href="#zoomMin" x="42" y="9" onmousedown="handleZoom(evt,'out')"/>
                <use id="reset" xlink:href="#resetDef" x="30" y="36" onmousedown="handleReset()"/>
                <g id="arrowUp" xlink:href="#dirArrow" transform="translate(30 24)" onmousedown="handlePan(0,-1)">
                  <use xlink:href="#rim" fill="#404040">
                        <set attributeName="fill" to="#808080" begin="arrowUp.mouseover" end="arrowUp.mouseout"/>
                  </use>
                  <path fill="none" stroke="white" stroke-width="1.5" d="M0,-3.0v7 M-2.5,-0.5L0,-3.0L2.5,-0.5"/>
                </g>
                <g id="arrowRight" xlink:href="#dirArrow" transform="rotate(90) translate(36 -43)" onmousedown="handlePan(1,0)">
                  <use xlink:href="#rim" fill="#404040">
                        <set attributeName="fill" to="#808080" begin="arrowRight.mouseover" end="arrowRight.mouseout"/>
                  </use>
                  <path fill="none" stroke="white" stroke-width="1.5" d="M0,-3.0v7 M-2.5,-0.5L0,-3.0L2.5,-0.5"/>
                </g>
                <g id="arrowDown" xlink:href="#dirArrow" transform="rotate(180) translate(-30 -48)" onmousedown="handlePan(0,1)">
                  <use xlink:href="#rim" fill="#404040">
                        <set attributeName="fill" to="#808080" begin="arrowDown.mouseover" end="arrowDown.mouseout"/>
                  </use>
                  <path fill="none" stroke="white" stroke-width="1.5" d="M0,-3.0v7 M-2.5,-0.5L0,-3.0L2.5,-0.5"/>
                </g>
                <g id="arrowLeft" xlink:href="#dirArrow" transform="rotate(270) translate(-36 17)" onmousedown="handlePan(-1,0)">
                  <use xlink:href="#rim" fill="#404040">
                        <set attributeName="fill" to="#808080" begin="arrowLeft.mouseover" end="arrowLeft.mouseout"/>
                  </use>
                  <path fill="none" stroke="white" stroke-width="1.5" d="M0,-3.0v7 M-2.5,-0.5L0,-3.0L2.5,-0.5"/>
                </g>
        </g>
        <svg viewBox="0 0 15 15" width="100%" height="30px" preserveAspectRatio="xMaxYMin meet">
         <g id="arrow_out" transform="scale(0.3 0.3)">
          <a xlink:href="classJoyTabWidget_a7cf67f6c0193f997498d70eb354aafa9_icgraph_org.svg" target="_base">
           <rect id="button" ry="5" rx="5" y="6" x="6" height="38" width="38"
                fill="#f2f5e9" fill-opacity="0.5" stroke="#606060" stroke-width="1.0"/>
           <path id="arrow"
             d="M 11.500037,31.436501 C 11.940474,20.09759 22.043105,11.32322 32.158766,21.979434 L 37.068811,17.246167 C 37.068811,17.246167 37.088388,32 37.088388,32 L 22.160133,31.978069 C 22.160133,31.978069 26.997745,27.140456 26.997745,27.140456 C 18.528582,18.264221 13.291696,25.230495 11.500037,31.436501 z"
             style="fill:#404040;"/>
          </a>
         </g>
        </svg>
</svg>
