<?xml version="1.0" encoding="UTF-8" standalone="no"?>
<!DOCTYPE svg PUBLIC "-//W3C//DTD SVG 1.1//EN"
 "http://www.w3.org/Graphics/SVG/1.1/DTD/svg11.dtd">
<!-- Generated by graphviz version 2.43.0 (0)
 -->
<!-- Title: AdvanceButtonDialog::placeNewSlot Pages: 1 -->
<svg width="516pt" height="39pt"
 viewBox="0.00 0.00 516.00 39.00" xmlns="http://www.w3.org/2000/svg" xmlns:xlink="http://www.w3.org/1999/xlink">
<g id="graph0" class="graph" transform="scale(1 1) rotate(0) translate(4 35)">
<title>AdvanceButtonDialog::placeNewSlot</title>
<polygon fill="white" stroke="transparent" points="-4,4 -4,-35 512,-35 512,4 -4,4"/>
<!-- Node1 -->
<g id="node1" class="node">
<title>Node1</title>
<g id="a_node1"><a xlink:title=" ">
<polygon fill="#bfbfbf" stroke="black" points="386,-0.5 386,-30.5 508,-30.5 508,-0.5 386,-0.5"/>
<text text-anchor="start" x="394" y="-18.5" font-family="Helvetica,sans-Serif" font-size="10.00">AdvanceButtonDialog</text>
<text text-anchor="middle" x="447" y="-7.5" font-family="Helvetica,sans-Serif" font-size="10.00">::placeNewSlot</text>
</a>
</g>
</g>
<!-- Node2 -->
<g id="node2" class="node">
<title>Node2</title>
<g id="a_node2"><a xlink:href="classButtonEditDialog.html#ade8d1ee4ae03d1080932a70c8170d488" target="_top" xlink:title=" ">
<polygon fill="white" stroke="black" points="173,-0.5 173,-30.5 350,-30.5 350,-0.5 173,-0.5"/>
<text text-anchor="start" x="181" y="-18.5" font-family="Helvetica,sans-Serif" font-size="10.00">ButtonEditDialog::openAdvanced</text>
<text text-anchor="middle" x="261.5" y="-7.5" font-family="Helvetica,sans-Serif" font-size="10.00">Dialog</text>
</a>
</g>
</g>
<!-- Node1&#45;&gt;Node2 -->
<g id="edge1" class="edge">
<title>Node1&#45;&gt;Node2</title>
<path fill="none" stroke="midnightblue" d="M375.78,-15.5C367.34,-15.5 358.65,-15.5 350.01,-15.5"/>
<polygon fill="midnightblue" stroke="midnightblue" points="375.92,-19 385.92,-15.5 375.92,-12 375.92,-19"/>
</g>
<!-- Node3 -->
<g id="node3" class="node">
<title>Node3</title>
<g id="a_node3"><a xlink:href="classButtonEditDialog.html#a3e9feede100cbb6a11c9d87659c196ea" target="_top" xlink:title=" ">
<polygon fill="white" stroke="black" points="0,-0.5 0,-30.5 137,-30.5 137,-0.5 0,-0.5"/>
<text text-anchor="start" x="8" y="-18.5" font-family="Helvetica,sans-Serif" font-size="10.00">ButtonEditDialog::Button</text>
<text text-anchor="middle" x="68.5" y="-7.5" font-family="Helvetica,sans-Serif" font-size="10.00">EditDialog</text>
</a>
</g>
</g>
<!-- Node2&#45;&gt;Node3 -->
<g id="edge2" class="edge">
<title>Node2&#45;&gt;Node3</title>
<path fill="none" stroke="midnightblue" d="M162.71,-15.5C154.09,-15.5 145.49,-15.5 137.2,-15.5"/>
<polygon fill="midnightblue" stroke="midnightblue" points="162.83,-19 172.83,-15.5 162.83,-12 162.83,-19"/>
</g>
</g>
</svg>
