<?xml version="1.0" encoding="UTF-8" standalone="no"?>
<!DOCTYPE svg PUBLIC "-//W3C//DTD SVG 1.1//EN"
 "http://www.w3.org/Graphics/SVG/1.1/DTD/svg11.dtd">
<!-- Generated by graphviz version 2.43.0 (0)
 -->
<!-- Title: JoyControlStick::isRelativeSpring Pages: 1 -->
<svg width="354pt" height="78pt"
 viewBox="0.00 0.00 354.00 77.50" xmlns="http://www.w3.org/2000/svg" xmlns:xlink="http://www.w3.org/1999/xlink">
<g id="graph0" class="graph" transform="scale(1 1) rotate(0) translate(4 73.5)">
<title>JoyControlStick::isRelativeSpring</title>
<polygon fill="white" stroke="transparent" points="-4,4 -4,-73.5 350,-73.5 350,4 -4,4"/>
<!-- Node1 -->
<g id="node1" class="node">
<title>Node1</title>
<g id="a_node1"><a xlink:title=" ">
<polygon fill="#bfbfbf" stroke="black" points="0,-17 0,-47 146,-47 146,-17 0,-17"/>
<text text-anchor="start" x="8" y="-35" font-family="Helvetica,sans-Serif" font-size="10.00">JoyControlStick::isRelative</text>
<text text-anchor="middle" x="73" y="-24" font-family="Helvetica,sans-Serif" font-size="10.00">Spring</text>
</a>
</g>
</g>
<!-- Node2 -->
<g id="node2" class="node">
<title>Node2</title>
<g id="a_node2"><a xlink:href="classJoyControlStick.html#a79d9ede9279281b0074eca6e2d99e8ec" target="_top" xlink:title=" ">
<polygon fill="white" stroke="black" points="182,-39 182,-69 346,-69 346,-39 182,-39"/>
<text text-anchor="start" x="190" y="-57" font-family="Helvetica,sans-Serif" font-size="10.00">JoyControlStick::getApplicable</text>
<text text-anchor="middle" x="264" y="-46" font-family="Helvetica,sans-Serif" font-size="10.00">Buttons</text>
</a>
</g>
</g>
<!-- Node1&#45;&gt;Node2 -->
<g id="edge1" class="edge">
<title>Node1&#45;&gt;Node2</title>
<path fill="none" stroke="midnightblue" d="M146.26,-40.41C154.65,-41.39 163.29,-42.39 171.89,-43.39"/>
<polygon fill="midnightblue" stroke="midnightblue" points="171.61,-46.89 181.95,-44.57 172.42,-39.93 171.61,-46.89"/>
</g>
<!-- Node3 -->
<g id="node3" class="node">
<title>Node3</title>
<g id="a_node3"><a xlink:href="classJoyButton.html#a79b44a6acc2c7860472759f5e2dca087" target="_top" xlink:title=" ">
<polygon fill="white" stroke="black" points="189.5,-0.5 189.5,-19.5 338.5,-19.5 338.5,-0.5 189.5,-0.5"/>
<text text-anchor="middle" x="264" y="-7.5" font-family="Helvetica,sans-Serif" font-size="10.00">JoyButton::isRelativeSpring</text>
</a>
</g>
</g>
<!-- Node1&#45;&gt;Node3 -->
<g id="edge2" class="edge">
<title>Node1&#45;&gt;Node3</title>
<path fill="none" stroke="midnightblue" d="M146.26,-23.59C157.03,-22.33 168.21,-21.03 179.2,-19.75"/>
<polygon fill="midnightblue" stroke="midnightblue" points="179.68,-23.22 189.21,-18.59 178.87,-16.27 179.68,-23.22"/>
</g>
</g>
</svg>
