<?xml version="1.0" encoding="UTF-8" standalone="no"?>
<!DOCTYPE svg PUBLIC "-//W3C//DTD SVG 1.1//EN"
 "http://www.w3.org/Graphics/SVG/1.1/DTD/svg11.dtd">
<!-- Generated by graphviz version 2.43.0 (0)
 -->
<!-- Title: GameController::getRawVendorString Pages: 1 -->
<svg width="726pt" height="88pt"
 viewBox="0.00 0.00 726.00 88.00" xmlns="http://www.w3.org/2000/svg" xmlns:xlink="http://www.w3.org/1999/xlink">
<g id="graph0" class="graph" transform="scale(1 1) rotate(0) translate(4 84)">
<title>GameController::getRawVendorString</title>
<polygon fill="white" stroke="transparent" points="-4,4 -4,-84 722,-84 722,4 -4,4"/>
<!-- Node1 -->
<g id="node1" class="node">
<title>Node1</title>
<g id="a_node1"><a xlink:title=" ">
<polygon fill="#bfbfbf" stroke="black" points="548,-24.5 548,-54.5 718,-54.5 718,-24.5 548,-24.5"/>
<text text-anchor="start" x="556" y="-42.5" font-family="Helvetica,sans-Serif" font-size="10.00">GameController::getRawVendor</text>
<text text-anchor="middle" x="633" y="-31.5" font-family="Helvetica,sans-Serif" font-size="10.00">String</text>
</a>
</g>
</g>
<!-- Node2 -->
<g id="node2" class="node">
<title>Node2</title>
<g id="a_node2"><a xlink:href="classGameController.html#a1bbce70562484919be82e64b1bb6e936" target="_top" xlink:title=" ">
<polygon fill="white" stroke="black" points="341,-49.5 341,-79.5 512,-79.5 512,-49.5 341,-49.5"/>
<text text-anchor="start" x="349" y="-67.5" font-family="Helvetica,sans-Serif" font-size="10.00">GameController::getRawUnique</text>
<text text-anchor="middle" x="426.5" y="-56.5" font-family="Helvetica,sans-Serif" font-size="10.00">IDString</text>
</a>
</g>
</g>
<!-- Node1&#45;&gt;Node2 -->
<g id="edge1" class="edge">
<title>Node1&#45;&gt;Node2</title>
<path fill="none" stroke="midnightblue" d="M537.93,-51C529.36,-52.05 520.71,-53.11 512.23,-54.14"/>
<polygon fill="midnightblue" stroke="midnightblue" points="538.44,-54.46 547.94,-49.78 537.59,-47.52 538.44,-54.46"/>
</g>
<!-- Node5 -->
<g id="node5" class="node">
<title>Node5</title>
<g id="a_node5"><a xlink:href="classGameController.html#ab31694d332ef1f9148a89c8dce648e8a" target="_top" xlink:title=" ">
<polygon fill="white" stroke="black" points="352,-0.5 352,-30.5 501,-30.5 501,-0.5 352,-0.5"/>
<text text-anchor="start" x="360" y="-18.5" font-family="Helvetica,sans-Serif" font-size="10.00">GameController::getVendor</text>
<text text-anchor="middle" x="426.5" y="-7.5" font-family="Helvetica,sans-Serif" font-size="10.00">String</text>
</a>
</g>
</g>
<!-- Node1&#45;&gt;Node5 -->
<g id="edge4" class="edge">
<title>Node1&#45;&gt;Node5</title>
<path fill="none" stroke="midnightblue" d="M537.68,-28.43C525.4,-26.99 512.97,-25.53 501.1,-24.14"/>
<polygon fill="midnightblue" stroke="midnightblue" points="537.6,-31.94 547.94,-29.63 538.41,-24.99 537.6,-31.94"/>
</g>
<!-- Node3 -->
<g id="node3" class="node">
<title>Node3</title>
<g id="a_node3"><a xlink:href="classGameController.html#a097c02e89fa422e4356467546d1f3c81" target="_top" xlink:title=" ">
<polygon fill="white" stroke="black" points="155,-49.5 155,-79.5 305,-79.5 305,-49.5 155,-49.5"/>
<text text-anchor="start" x="163" y="-67.5" font-family="Helvetica,sans-Serif" font-size="10.00">GameController::getUnique</text>
<text text-anchor="middle" x="230" y="-56.5" font-family="Helvetica,sans-Serif" font-size="10.00">IDString</text>
</a>
</g>
</g>
<!-- Node2&#45;&gt;Node3 -->
<g id="edge2" class="edge">
<title>Node2&#45;&gt;Node3</title>
<path fill="none" stroke="midnightblue" d="M330.69,-64.5C322.1,-64.5 313.47,-64.5 305.1,-64.5"/>
<polygon fill="midnightblue" stroke="midnightblue" points="330.76,-68 340.76,-64.5 330.76,-61 330.76,-68"/>
</g>
<!-- Node4 -->
<g id="node4" class="node">
<title>Node4</title>
<g id="a_node4"><a xlink:href="classGameControllerXml.html#ac87bc51a0dcdb01143d969a732b5188f" target="_top" xlink:title="Serializes a GameController object into the the given XML stream.">
<polygon fill="white" stroke="black" points="0,-49.5 0,-79.5 119,-79.5 119,-49.5 0,-49.5"/>
<text text-anchor="start" x="8" y="-67.5" font-family="Helvetica,sans-Serif" font-size="10.00">GameControllerXml::</text>
<text text-anchor="middle" x="59.5" y="-56.5" font-family="Helvetica,sans-Serif" font-size="10.00">writeConfig</text>
</a>
</g>
</g>
<!-- Node3&#45;&gt;Node4 -->
<g id="edge3" class="edge">
<title>Node3&#45;&gt;Node4</title>
<path fill="none" stroke="midnightblue" d="M144.52,-64.5C135.91,-64.5 127.31,-64.5 119.07,-64.5"/>
<polygon fill="midnightblue" stroke="midnightblue" points="144.6,-68 154.6,-64.5 144.6,-61 144.6,-68"/>
</g>
</g>
</svg>
