<?xml version="1.0" encoding="UTF-8" standalone="no"?>
<!DOCTYPE svg PUBLIC "-//W3C//DTD SVG 1.1//EN"
 "http://www.w3.org/Graphics/SVG/1.1/DTD/svg11.dtd">
<!-- Generated by graphviz version 2.43.0 (0)
 -->
<!-- Title: JoyControlStickButtonPushButton::generateLabel Pages: 1 -->
<svg width="747pt" height="165pt"
 viewBox="0.00 0.00 747.00 165.00" xmlns="http://www.w3.org/2000/svg" xmlns:xlink="http://www.w3.org/1999/xlink">
<g id="graph0" class="graph" transform="scale(1 1) rotate(0) translate(4 161)">
<title>JoyControlStickButtonPushButton::generateLabel</title>
<polygon fill="white" stroke="transparent" points="-4,4 -4,-161 743,-161 743,4 -4,4"/>
<!-- Node1 -->
<g id="node1" class="node">
<title>Node1</title>
<g id="a_node1"><a xlink:title="Generate the string that will be displayed on the button.">
<polygon fill="#bfbfbf" stroke="black" points="0,-63 0,-93 146,-93 146,-63 0,-63"/>
<text text-anchor="start" x="8" y="-81" font-family="Helvetica,sans-Serif" font-size="10.00">JoyControlStickButtonPush</text>
<text text-anchor="middle" x="73" y="-70" font-family="Helvetica,sans-Serif" font-size="10.00">Button::generateLabel</text>
</a>
</g>
</g>
<!-- Node2 -->
<g id="node2" class="node">
<title>Node2</title>
<g id="a_node2"><a xlink:href="classJoyButton.html#a2dc48e4d0de59b87938f5c0489d6e198" target="_top" xlink:title=" ">
<polygon fill="white" stroke="black" points="205.5,-112.5 205.5,-131.5 351.5,-131.5 351.5,-112.5 205.5,-112.5"/>
<text text-anchor="middle" x="278.5" y="-119.5" font-family="Helvetica,sans-Serif" font-size="10.00">JoyButton::getActionName</text>
</a>
</g>
</g>
<!-- Node1&#45;&gt;Node2 -->
<g id="edge1" class="edge">
<title>Node1&#45;&gt;Node2</title>
<path fill="none" stroke="midnightblue" d="M137.32,-93C151.97,-96.38 167.51,-99.88 182,-103 193.62,-105.5 206.06,-108.06 218,-110.46"/>
<polygon fill="midnightblue" stroke="midnightblue" points="217.38,-113.91 227.87,-112.43 218.75,-107.04 217.38,-113.91"/>
</g>
<!-- Node3 -->
<g id="node3" class="node">
<title>Node3</title>
<g id="a_node3"><a xlink:href="classJoyControlStickButton.html#a86579104005fc594de94d9bc126fb4e9" target="_top" xlink:title=" ">
<polygon fill="white" stroke="black" points="182,-63 182,-93 375,-93 375,-63 182,-63"/>
<text text-anchor="start" x="190" y="-81" font-family="Helvetica,sans-Serif" font-size="10.00">JoyControlStickButton</text>
<text text-anchor="middle" x="278.5" y="-70" font-family="Helvetica,sans-Serif" font-size="10.00">::getCalculatedActiveZoneSummary</text>
</a>
</g>
</g>
<!-- Node1&#45;&gt;Node3 -->
<g id="edge2" class="edge">
<title>Node1&#45;&gt;Node3</title>
<path fill="none" stroke="midnightblue" d="M146.03,-78C154.33,-78 162.92,-78 171.55,-78"/>
<polygon fill="midnightblue" stroke="midnightblue" points="171.69,-81.5 181.69,-78 171.69,-74.5 171.69,-81.5"/>
</g>
<!-- Node10 -->
<g id="node10" class="node">
<title>Node10</title>
<g id="a_node10"><a xlink:href="classFlashButtonWidget.html#aff41eff76f8396ff1b9e2539d680c4cf" target="_top" xlink:title=" ">
<polygon fill="white" stroke="black" points="220.5,-14 220.5,-44 336.5,-44 336.5,-14 220.5,-14"/>
<text text-anchor="start" x="228.5" y="-32" font-family="Helvetica,sans-Serif" font-size="10.00">FlashButtonWidget::</text>
<text text-anchor="middle" x="278.5" y="-21" font-family="Helvetica,sans-Serif" font-size="10.00">ifDisplayNames</text>
</a>
</g>
</g>
<!-- Node1&#45;&gt;Node10 -->
<g id="edge9" class="edge">
<title>Node1&#45;&gt;Node10</title>
<path fill="none" stroke="midnightblue" d="M136.44,-62.97C159.85,-57.33 186.54,-50.9 210.36,-45.17"/>
<polygon fill="midnightblue" stroke="midnightblue" points="211.47,-48.5 220.38,-42.75 209.83,-41.69 211.47,-48.5"/>
</g>
<!-- Node4 -->
<g id="node4" class="node">
<title>Node4</title>
<g id="a_node4"><a xlink:href="classJoyButton.html#aa1eb52e9cce61ac403f9b451c512f197" target="_top" xlink:title="Checks if this button is currently active.">
<polygon fill="white" stroke="black" points="415.5,-137.5 415.5,-156.5 558.5,-156.5 558.5,-137.5 415.5,-137.5"/>
<text text-anchor="middle" x="487" y="-144.5" font-family="Helvetica,sans-Serif" font-size="10.00">JoyButton::getButtonState</text>
</a>
</g>
</g>
<!-- Node3&#45;&gt;Node4 -->
<g id="edge3" class="edge">
<title>Node3&#45;&gt;Node4</title>
<path fill="none" stroke="midnightblue" d="M348.85,-93.06C357.82,-95.9 366.75,-99.2 375,-103 392.69,-111.15 393.27,-119.92 411,-128 416.32,-130.43 422.01,-132.58 427.78,-134.48"/>
<polygon fill="midnightblue" stroke="midnightblue" points="426.93,-137.88 437.51,-137.44 428.96,-131.18 426.93,-137.88"/>
</g>
<!-- Node5 -->
<g id="node5" class="node">
<title>Node5</title>
<g id="a_node5"><a xlink:href="classJoyButton.html#a075d1d6380be607fcf69994f0d941afe" target="_top" xlink:title=" ">
<polygon fill="white" stroke="black" points="418.5,-88 418.5,-118 555.5,-118 555.5,-88 418.5,-88"/>
<text text-anchor="start" x="426.5" y="-106" font-family="Helvetica,sans-Serif" font-size="10.00">JoyButton::getCalculated</text>
<text text-anchor="middle" x="487" y="-95" font-family="Helvetica,sans-Serif" font-size="10.00">ActiveZoneSummary</text>
</a>
</g>
</g>
<!-- Node3&#45;&gt;Node5 -->
<g id="edge4" class="edge">
<title>Node3&#45;&gt;Node5</title>
<path fill="none" stroke="midnightblue" d="M375.19,-89.59C386.23,-90.92 397.38,-92.27 408.13,-93.57"/>
<polygon fill="midnightblue" stroke="midnightblue" points="407.96,-97.08 418.31,-94.81 408.8,-90.13 407.96,-97.08"/>
</g>
<!-- Node7 -->
<g id="node7" class="node">
<title>Node7</title>
<g id="a_node7"><a xlink:href="classJoyControlStick.html#a81da76522d4f12f081c169f0a0365996" target="_top" xlink:title=" ">
<polygon fill="white" stroke="black" points="411,-39 411,-69 563,-69 563,-39 411,-39"/>
<text text-anchor="start" x="419" y="-57" font-family="Helvetica,sans-Serif" font-size="10.00">JoyControlStick::getModifier</text>
<text text-anchor="middle" x="487" y="-46" font-family="Helvetica,sans-Serif" font-size="10.00">Button</text>
</a>
</g>
</g>
<!-- Node3&#45;&gt;Node7 -->
<g id="edge6" class="edge">
<title>Node3&#45;&gt;Node7</title>
<path fill="none" stroke="midnightblue" d="M375.19,-66.88C383.67,-65.89 392.21,-64.9 400.6,-63.93"/>
<polygon fill="midnightblue" stroke="midnightblue" points="401.19,-67.38 410.72,-62.75 400.39,-60.43 401.19,-67.38"/>
</g>
<!-- Node8 -->
<g id="node8" class="node">
<title>Node8</title>
<g id="a_node8"><a xlink:href="classJoyButton.html#a224d30d26392925857317fc5c68afaae" target="_top" xlink:title=" ">
<polygon fill="white" stroke="black" points="416,-0.5 416,-19.5 558,-19.5 558,-0.5 416,-0.5"/>
<text text-anchor="middle" x="487" y="-7.5" font-family="Helvetica,sans-Serif" font-size="10.00">JoyButton::hasActiveSlots</text>
</a>
</g>
</g>
<!-- Node3&#45;&gt;Node8 -->
<g id="edge7" class="edge">
<title>Node3&#45;&gt;Node8</title>
<path fill="none" stroke="midnightblue" d="M348.27,-62.95C357.43,-60.09 366.56,-56.79 375,-53 392.54,-45.12 393.43,-36.81 411,-29 416.43,-26.59 422.21,-24.44 428.08,-22.55"/>
<polygon fill="midnightblue" stroke="midnightblue" points="429.39,-25.81 437.97,-19.58 427.38,-19.1 429.39,-25.81"/>
</g>
<!-- Node6 -->
<g id="node6" class="node">
<title>Node6</title>
<g id="a_node6"><a xlink:href="classJoyButton.html#a1b49d9ab85f0d5d128e2eca616747018" target="_top" xlink:title=" ">
<polygon fill="white" stroke="black" points="600.5,-88 600.5,-118 737.5,-118 737.5,-88 600.5,-88"/>
<text text-anchor="start" x="608.5" y="-106" font-family="Helvetica,sans-Serif" font-size="10.00">JoyButton::lockForWrited</text>
<text text-anchor="middle" x="669" y="-95" font-family="Helvetica,sans-Serif" font-size="10.00">String</text>
</a>
</g>
</g>
<!-- Node5&#45;&gt;Node6 -->
<g id="edge5" class="edge">
<title>Node5&#45;&gt;Node6</title>
<path fill="none" stroke="midnightblue" d="M555.54,-103C566.88,-103 578.73,-103 590.3,-103"/>
<polygon fill="midnightblue" stroke="midnightblue" points="590.38,-106.5 600.38,-103 590.38,-99.5 590.38,-106.5"/>
</g>
<!-- Node9 -->
<g id="node9" class="node">
<title>Node9</title>
<g id="a_node9"><a xlink:href="classJoyButton.html#a64f1660931aea2fa8df1bf5e313c05ba" target="_top" xlink:title=" ">
<polygon fill="white" stroke="black" points="599,-0.5 599,-19.5 739,-19.5 739,-0.5 599,-0.5"/>
<text text-anchor="middle" x="669" y="-7.5" font-family="Helvetica,sans-Serif" font-size="10.00">JoyButton::getActiveSlots</text>
</a>
</g>
</g>
<!-- Node8&#45;&gt;Node9 -->
<g id="edge8" class="edge">
<title>Node8&#45;&gt;Node9</title>
<path fill="none" stroke="midnightblue" d="M558.11,-10C568.18,-10 578.6,-10 588.82,-10"/>
<polygon fill="midnightblue" stroke="midnightblue" points="588.97,-13.5 598.97,-10 588.97,-6.5 588.97,-13.5"/>
</g>
</g>
</svg>
