<?xml version="1.0" encoding="UTF-8" standalone="no"?>
<!DOCTYPE svg PUBLIC "-//W3C//DTD SVG 1.1//EN"
 "http://www.w3.org/Graphics/SVG/1.1/DTD/svg11.dtd">
<!-- Generated by graphviz version 2.43.0 (0)
 -->
<!-- Title: /home/runner/work/doxygen/antimicrox/src/commandlineutility.h Pages: 1 -->
<svg width="445pt" height="151pt"
 viewBox="0.00 0.00 444.50 151.00" xmlns="http://www.w3.org/2000/svg" xmlns:xlink="http://www.w3.org/1999/xlink">
<g id="graph0" class="graph" transform="scale(1 1) rotate(0) translate(4 147)">
<title>/home/runner/work/doxygen/antimicrox/src/commandlineutility.h</title>
<polygon fill="white" stroke="transparent" points="-4,4 -4,-147 440.5,-147 440.5,4 -4,4"/>
<!-- Node1 -->
<g id="node1" class="node">
<title>Node1</title>
<g id="a_node1"><a xlink:title=" ">
<polygon fill="#bfbfbf" stroke="black" points="63,-112.5 63,-142.5 258,-142.5 258,-112.5 63,-112.5"/>
<text text-anchor="start" x="71" y="-130.5" font-family="Helvetica,sans-Serif" font-size="10.00">/home/runner/work/doxygen</text>
<text text-anchor="middle" x="160.5" y="-119.5" font-family="Helvetica,sans-Serif" font-size="10.00">/antimicrox/src/commandlineutility.h</text>
</a>
</g>
</g>
<!-- Node2 -->
<g id="node2" class="node">
<title>Node2</title>
<g id="a_node2"><a xlink:title=" ">
<polygon fill="white" stroke="#bfbfbf" points="79,-56.5 79,-75.5 158,-75.5 158,-56.5 79,-56.5"/>
<text text-anchor="middle" x="118.5" y="-63.5" font-family="Helvetica,sans-Serif" font-size="10.00">QApplication</text>
</a>
</g>
</g>
<!-- Node1&#45;&gt;Node2 -->
<g id="edge1" class="edge">
<title>Node1&#45;&gt;Node2</title>
<path fill="none" stroke="midnightblue" d="M150.55,-112.4C144.51,-103.84 136.76,-92.87 130.4,-83.86"/>
<polygon fill="midnightblue" stroke="midnightblue" points="133.24,-81.81 124.61,-75.66 127.52,-85.85 133.24,-81.81"/>
</g>
<!-- Node3 -->
<g id="node3" class="node">
<title>Node3</title>
<g id="a_node3"><a xlink:href="logger_8h.html" target="_top" xlink:title=" ">
<polygon fill="white" stroke="black" points="175.5,-56.5 175.5,-75.5 231.5,-75.5 231.5,-56.5 175.5,-56.5"/>
<text text-anchor="middle" x="203.5" y="-63.5" font-family="Helvetica,sans-Serif" font-size="10.00">logger.h</text>
</a>
</g>
</g>
<!-- Node1&#45;&gt;Node3 -->
<g id="edge2" class="edge">
<title>Node1&#45;&gt;Node3</title>
<path fill="none" stroke="midnightblue" d="M170.69,-112.4C176.87,-103.84 184.8,-92.87 191.32,-83.86"/>
<polygon fill="midnightblue" stroke="midnightblue" points="194.22,-85.81 197.24,-75.66 188.55,-81.71 194.22,-85.81"/>
</g>
<!-- Node4 -->
<g id="node4" class="node">
<title>Node4</title>
<g id="a_node4"><a xlink:title=" ">
<polygon fill="white" stroke="#bfbfbf" points="0,-0.5 0,-19.5 41,-19.5 41,-0.5 0,-0.5"/>
<text text-anchor="middle" x="20.5" y="-7.5" font-family="Helvetica,sans-Serif" font-size="10.00">QFile</text>
</a>
</g>
</g>
<!-- Node3&#45;&gt;Node4 -->
<g id="edge3" class="edge">
<title>Node3&#45;&gt;Node4</title>
<path fill="none" stroke="midnightblue" d="M175.36,-56.93C146.38,-48.58 99.68,-35.05 50.87,-20.38"/>
<polygon fill="midnightblue" stroke="midnightblue" points="51.67,-16.97 41.08,-17.43 49.65,-23.67 51.67,-16.97"/>
</g>
<!-- Node5 -->
<g id="node5" class="node">
<title>Node5</title>
<g id="a_node5"><a xlink:title=" ">
<polygon fill="white" stroke="#bfbfbf" points="59,-0.5 59,-19.5 114,-19.5 114,-0.5 59,-0.5"/>
<text text-anchor="middle" x="86.5" y="-7.5" font-family="Helvetica,sans-Serif" font-size="10.00">QMutex</text>
</a>
</g>
</g>
<!-- Node3&#45;&gt;Node5 -->
<g id="edge4" class="edge">
<title>Node3&#45;&gt;Node5</title>
<path fill="none" stroke="midnightblue" d="M184.96,-56.44C165.88,-47.64 135.93,-33.81 114.06,-23.72"/>
<polygon fill="midnightblue" stroke="midnightblue" points="115.5,-20.53 104.95,-19.52 112.57,-26.88 115.5,-20.53"/>
</g>
<!-- Node6 -->
<g id="node6" class="node">
<title>Node6</title>
<g id="a_node6"><a xlink:title=" ">
<polygon fill="white" stroke="#bfbfbf" points="132.5,-0.5 132.5,-19.5 188.5,-19.5 188.5,-0.5 132.5,-0.5"/>
<text text-anchor="middle" x="160.5" y="-7.5" font-family="Helvetica,sans-Serif" font-size="10.00">QObject</text>
</a>
</g>
</g>
<!-- Node3&#45;&gt;Node6 -->
<g id="edge5" class="edge">
<title>Node3&#45;&gt;Node6</title>
<path fill="none" stroke="midnightblue" d="M196.4,-56.08C190.26,-48.38 181.23,-37.03 173.76,-27.65"/>
<polygon fill="midnightblue" stroke="midnightblue" points="176.44,-25.39 167.47,-19.75 170.96,-29.75 176.44,-25.39"/>
</g>
<!-- Node7 -->
<g id="node7" class="node">
<title>Node7</title>
<g id="a_node7"><a xlink:title=" ">
<polygon fill="white" stroke="#bfbfbf" points="206.5,-0.5 206.5,-19.5 286.5,-19.5 286.5,-0.5 206.5,-0.5"/>
<text text-anchor="middle" x="246.5" y="-7.5" font-family="Helvetica,sans-Serif" font-size="10.00">QTextStream</text>
</a>
</g>
</g>
<!-- Node3&#45;&gt;Node7 -->
<g id="edge6" class="edge">
<title>Node3&#45;&gt;Node7</title>
<path fill="none" stroke="midnightblue" d="M210.6,-56.08C216.74,-48.38 225.77,-37.03 233.24,-27.65"/>
<polygon fill="midnightblue" stroke="midnightblue" points="236.04,-29.75 239.53,-19.75 230.56,-25.39 236.04,-29.75"/>
</g>
<!-- Node8 -->
<g id="node8" class="node">
<title>Node8</title>
<g id="a_node8"><a xlink:title=" ">
<polygon fill="white" stroke="#bfbfbf" points="304.5,-0.5 304.5,-19.5 362.5,-19.5 362.5,-0.5 304.5,-0.5"/>
<text text-anchor="middle" x="333.5" y="-7.5" font-family="Helvetica,sans-Serif" font-size="10.00">QThread</text>
</a>
</g>
</g>
<!-- Node3&#45;&gt;Node8 -->
<g id="edge7" class="edge">
<title>Node3&#45;&gt;Node8</title>
<path fill="none" stroke="midnightblue" d="M224.1,-56.44C245.49,-47.56 279.18,-33.56 303.52,-23.45"/>
<polygon fill="midnightblue" stroke="midnightblue" points="305.11,-26.58 313,-19.52 302.42,-20.12 305.11,-26.58"/>
</g>
<!-- Node9 -->
<g id="node9" class="node">
<title>Node9</title>
<g id="a_node9"><a xlink:title=" ">
<polygon fill="white" stroke="#bfbfbf" points="380.5,-0.5 380.5,-19.5 436.5,-19.5 436.5,-0.5 380.5,-0.5"/>
<text text-anchor="middle" x="408.5" y="-7.5" font-family="Helvetica,sans-Serif" font-size="10.00">sstream</text>
</a>
</g>
</g>
<!-- Node3&#45;&gt;Node9 -->
<g id="edge8" class="edge">
<title>Node3&#45;&gt;Node9</title>
<path fill="none" stroke="midnightblue" d="M231.57,-57.6C267.66,-48.1 330.46,-31.56 370.72,-20.95"/>
<polygon fill="midnightblue" stroke="midnightblue" points="371.66,-24.32 380.44,-18.39 369.87,-17.56 371.66,-24.32"/>
</g>
</g>
</svg>
