<?xml version="1.0" encoding="UTF-8" standalone="no"?>
<!DOCTYPE svg PUBLIC "-//W3C//DTD SVG 1.1//EN"
 "http://www.w3.org/Graphics/SVG/1.1/DTD/svg11.dtd">
<!-- Generated by graphviz version 2.43.0 (0)
 -->
<!-- Title: /home/runner/work/doxygen/antimicrox/src/commandlineutility.cpp Pages: 1 -->
<!--zoomable 319 -->
<svg id="main" version="1.1" xmlns="http://www.w3.org/2000/svg" xmlns:xlink="http://www.w3.org/1999/xlink" xml:space="preserve" onload="init(evt)">
<style type="text/css"><![CDATA[
.edge:hover path { stroke: red; }
.edge:hover polygon { stroke: red; fill: red; }
]]></style>
<script type="text/javascript"><![CDATA[
var edges = document.getElementsByTagName('g');
if (edges && edges.length) {
  for (var i=0;i<edges.length;i++) {
    if (edges[i].id.substr(0,4)=='edge') {
      edges[i].setAttribute('class','edge');
    }
  }
}
]]></script>
        <defs>
                <circle id="rim" cx="0" cy="0" r="7"/>
                <circle id="rim2" cx="0" cy="0" r="3.5"/>
                <g id="zoomPlus">
                        <use xlink:href="#rim" fill="#404040">
                                <set attributeName="fill" to="#808080" begin="zoomplus.mouseover" end="zoomplus.mouseout"/>
                        </use>
                        <path d="M-4,0h8M0,-4v8" fill="none" stroke="white" stroke-width="1.5" pointer-events="none"/>
                </g>
                <g id="zoomMin">
                        <use xlink:href="#rim" fill="#404040">
                                <set attributeName="fill" to="#808080" begin="zoomminus.mouseover" end="zoomminus.mouseout"/>
                        </use>
                        <path d="M-4,0h8" fill="none" stroke="white" stroke-width="1.5" pointer-events="none"/>
                </g>
                <g id="dirArrow">
                        <path fill="none" stroke="white" stroke-width="1.5" d="M0,-3.0v7 M-2.5,-0.5L0,-3.0L2.5,-0.5"/>
                </g>
               <g id="resetDef">
                       <use xlink:href="#rim2" fill="#404040">
                               <set attributeName="fill" to="#808080" begin="reset.mouseover" end="reset.mouseout"/>
                       </use>
               </g>
        </defs>

<script type="text/javascript">
var viewWidth = 1218;
var viewHeight = 319;
var sectionId = 'dynsection-0';
</script>
<script xlink:href="svgpan.js"/>
<svg id="graph" class="graph">
<g id="viewport">
<title>/home/runner/work/doxygen/antimicrox/src/commandlineutility.cpp</title>
<polygon fill="white" stroke="transparent" points="-4,4 -4,-315 1214,-315 1214,4 -4,4"/>
<!-- Node1 -->
<g id="node1" class="node">
<title>Node1</title>
<g id="a_node1"><a xlink:title=" ">
<polygon fill="#bfbfbf" stroke="black" points="808.5,-280.5 808.5,-310.5 1014.5,-310.5 1014.5,-280.5 808.5,-280.5"/>
<text text-anchor="start" x="816.5" y="-298.5" font-family="Helvetica,sans-Serif" font-size="10.00">/home/runner/work/doxygen</text>
<text text-anchor="middle" x="911.5" y="-287.5" font-family="Helvetica,sans-Serif" font-size="10.00">/antimicrox/src/commandlineutility.cpp</text>
</a>
</g>
</g>
<!-- Node2 -->
<g id="node2" class="node">
<title>Node2</title>
<g id="a_node2"><a xlink:href="commandlineutility_8h.html" target="_top" xlink:title=" ">
<polygon fill="white" stroke="black" points="71,-112.5 71,-131.5 190,-131.5 190,-112.5 71,-112.5"/>
<text text-anchor="middle" x="130.5" y="-119.5" font-family="Helvetica,sans-Serif" font-size="10.00">commandlineutility.h</text>
</a>
</g>
</g>
<!-- Node1&#45;&gt;Node2 -->
<g id="edge1" class="edge">
<title>Node1&#45;&gt;Node2</title>
<path fill="none" stroke="midnightblue" d="M808.17,-289.29C590.32,-277.25 99.84,-244.15 50.5,-188 32.03,-166.99 65.95,-147.4 95.16,-135.33"/>
<polygon fill="midnightblue" stroke="midnightblue" points="96.78,-138.45 104.81,-131.54 94.22,-131.94 96.78,-138.45"/>
</g>
<!-- Node11 -->
<g id="node11" class="node">
<title>Node11</title>
<g id="a_node11"><a xlink:href="common_8h.html" target="_top" xlink:title=" ">
<polygon fill="white" stroke="black" points="491.5,-224.5 491.5,-243.5 559.5,-243.5 559.5,-224.5 491.5,-224.5"/>
<text text-anchor="middle" x="525.5" y="-231.5" font-family="Helvetica,sans-Serif" font-size="10.00">common.h</text>
</a>
</g>
</g>
<!-- Node1&#45;&gt;Node11 -->
<g id="edge10" class="edge">
<title>Node1&#45;&gt;Node11</title>
<path fill="none" stroke="midnightblue" d="M820.51,-280.47C741.5,-268.3 630.48,-251.18 569.65,-241.81"/>
<polygon fill="midnightblue" stroke="midnightblue" points="570.03,-238.32 559.61,-240.26 568.96,-245.24 570.03,-238.32"/>
</g>
<!-- Node22 -->
<g id="node22" class="node">
<title>Node22</title>
<g id="a_node22"><a xlink:href="eventhandlerfactory_8h.html" target="_top" xlink:title=" ">
<polygon fill="white" stroke="black" points="708,-224.5 708,-243.5 831,-243.5 831,-224.5 708,-224.5"/>
<text text-anchor="middle" x="769.5" y="-231.5" font-family="Helvetica,sans-Serif" font-size="10.00">eventhandlerfactory.h</text>
</a>
</g>
</g>
<!-- Node1&#45;&gt;Node22 -->
<g id="edge24" class="edge">
<title>Node1&#45;&gt;Node22</title>
<path fill="none" stroke="midnightblue" d="M877.85,-280.4C854.02,-270.42 822.35,-257.15 799.41,-247.53"/>
<polygon fill="midnightblue" stroke="midnightblue" points="800.74,-244.29 790.16,-243.66 798.03,-250.75 800.74,-244.29"/>
</g>
<!-- Node24 -->
<g id="node24" class="node">
<title>Node24</title>
<g id="a_node24"><a xlink:title=" ">
<polygon fill="white" stroke="#bfbfbf" points="849,-224.5 849,-243.5 974,-243.5 974,-224.5 849,-224.5"/>
<text text-anchor="middle" x="911.5" y="-231.5" font-family="Helvetica,sans-Serif" font-size="10.00">QCommandLineParser</text>
</a>
</g>
</g>
<!-- Node1&#45;&gt;Node24 -->
<g id="edge27" class="edge">
<title>Node1&#45;&gt;Node24</title>
<path fill="none" stroke="midnightblue" d="M911.5,-280.4C911.5,-272.47 911.5,-262.46 911.5,-253.86"/>
<polygon fill="midnightblue" stroke="midnightblue" points="915,-253.66 911.5,-243.66 908,-253.66 915,-253.66"/>
</g>
<!-- Node25 -->
<g id="node25" class="node">
<title>Node25</title>
<g id="a_node25"><a xlink:title=" ">
<polygon fill="white" stroke="#bfbfbf" points="992.5,-224.5 992.5,-243.5 1048.5,-243.5 1048.5,-224.5 992.5,-224.5"/>
<text text-anchor="middle" x="1020.5" y="-231.5" font-family="Helvetica,sans-Serif" font-size="10.00">QDebug</text>
</a>
</g>
</g>
<!-- Node1&#45;&gt;Node25 -->
<g id="edge28" class="edge">
<title>Node1&#45;&gt;Node25</title>
<path fill="none" stroke="midnightblue" d="M937.33,-280.4C954.97,-270.77 978.2,-258.09 995.63,-248.58"/>
<polygon fill="midnightblue" stroke="midnightblue" points="997.54,-251.52 1004.64,-243.66 994.19,-245.38 997.54,-251.52"/>
</g>
<!-- Node26 -->
<g id="node26" class="node">
<title>Node26</title>
<g id="a_node26"><a xlink:title=" ">
<polygon fill="white" stroke="#bfbfbf" points="1066.5,-224.5 1066.5,-243.5 1126.5,-243.5 1126.5,-224.5 1066.5,-224.5"/>
<text text-anchor="middle" x="1096.5" y="-231.5" font-family="Helvetica,sans-Serif" font-size="10.00">QFileInfo</text>
</a>
</g>
</g>
<!-- Node1&#45;&gt;Node26 -->
<g id="edge29" class="edge">
<title>Node1&#45;&gt;Node26</title>
<path fill="none" stroke="midnightblue" d="M955.34,-280.4C987.31,-270.12 1030.12,-256.35 1060.18,-246.68"/>
<polygon fill="midnightblue" stroke="midnightblue" points="1061.4,-249.96 1069.85,-243.57 1059.26,-243.3 1061.4,-249.96"/>
</g>
<!-- Node27 -->
<g id="node27" class="node">
<title>Node27</title>
<g id="a_node27"><a xlink:title=" ">
<polygon fill="white" stroke="#bfbfbf" points="1145,-224.5 1145,-243.5 1210,-243.5 1210,-224.5 1145,-224.5"/>
<text text-anchor="middle" x="1177.5" y="-231.5" font-family="Helvetica,sans-Serif" font-size="10.00">stdexcept</text>
</a>
</g>
</g>
<!-- Node1&#45;&gt;Node27 -->
<g id="edge30" class="edge">
<title>Node1&#45;&gt;Node27</title>
<path fill="none" stroke="midnightblue" d="M974.2,-280.47C1023.69,-269.41 1091.39,-254.26 1134.79,-244.55"/>
<polygon fill="midnightblue" stroke="midnightblue" points="1135.74,-247.93 1144.74,-242.33 1134.22,-241.1 1135.74,-247.93"/>
</g>
<!-- Node3 -->
<g id="node3" class="node">
<title>Node3</title>
<g id="a_node3"><a xlink:title=" ">
<polygon fill="white" stroke="#bfbfbf" points="78,-56.5 78,-75.5 157,-75.5 157,-56.5 78,-56.5"/>
<text text-anchor="middle" x="117.5" y="-63.5" font-family="Helvetica,sans-Serif" font-size="10.00">QApplication</text>
</a>
</g>
</g>
<!-- Node2&#45;&gt;Node3 -->
<g id="edge2" class="edge">
<title>Node2&#45;&gt;Node3</title>
<path fill="none" stroke="midnightblue" d="M128.35,-112.08C126.63,-104.93 124.15,-94.64 122,-85.69"/>
<polygon fill="midnightblue" stroke="midnightblue" points="125.35,-84.65 119.61,-75.75 118.54,-86.29 125.35,-84.65"/>
</g>
<!-- Node4 -->
<g id="node4" class="node">
<title>Node4</title>
<g id="a_node4"><a xlink:href="logger_8h.html" target="_top" xlink:title=" ">
<polygon fill="white" stroke="black" points="174.5,-56.5 174.5,-75.5 230.5,-75.5 230.5,-56.5 174.5,-56.5"/>
<text text-anchor="middle" x="202.5" y="-63.5" font-family="Helvetica,sans-Serif" font-size="10.00">logger.h</text>
</a>
</g>
</g>
<!-- Node2&#45;&gt;Node4 -->
<g id="edge3" class="edge">
<title>Node2&#45;&gt;Node4</title>
<path fill="none" stroke="midnightblue" d="M142.07,-112.32C152.92,-104.18 169.38,-91.84 182.38,-82.09"/>
<polygon fill="midnightblue" stroke="midnightblue" points="184.82,-84.63 190.72,-75.83 180.62,-79.03 184.82,-84.63"/>
</g>
<!-- Node5 -->
<g id="node5" class="node">
<title>Node5</title>
<g id="a_node5"><a xlink:title=" ">
<polygon fill="white" stroke="#bfbfbf" points="246,-0.5 246,-19.5 287,-19.5 287,-0.5 246,-0.5"/>
<text text-anchor="middle" x="266.5" y="-7.5" font-family="Helvetica,sans-Serif" font-size="10.00">QFile</text>
</a>
</g>
</g>
<!-- Node4&#45;&gt;Node5 -->
<g id="edge4" class="edge">
<title>Node4&#45;&gt;Node5</title>
<path fill="none" stroke="midnightblue" d="M212.78,-56.32C222.34,-48.26 236.78,-36.08 248.28,-26.37"/>
<polygon fill="midnightblue" stroke="midnightblue" points="250.64,-28.96 256.03,-19.83 246.13,-23.61 250.64,-28.96"/>
</g>
<!-- Node6 -->
<g id="node6" class="node">
<title>Node6</title>
<g id="a_node6"><a xlink:title=" ">
<polygon fill="white" stroke="#bfbfbf" points="0,-0.5 0,-19.5 55,-19.5 55,-0.5 0,-0.5"/>
<text text-anchor="middle" x="27.5" y="-7.5" font-family="Helvetica,sans-Serif" font-size="10.00">QMutex</text>
</a>
</g>
</g>
<!-- Node4&#45;&gt;Node6 -->
<g id="edge5" class="edge">
<title>Node4&#45;&gt;Node6</title>
<path fill="none" stroke="midnightblue" d="M174.77,-56.44C145.07,-47.28 97.78,-32.69 64.83,-22.52"/>
<polygon fill="midnightblue" stroke="midnightblue" points="65.69,-19.12 55.1,-19.52 63.62,-25.81 65.69,-19.12"/>
</g>
<!-- Node7 -->
<g id="node7" class="node">
<title>Node7</title>
<g id="a_node7"><a xlink:title=" ">
<polygon fill="white" stroke="#bfbfbf" points="421.5,-0.5 421.5,-19.5 477.5,-19.5 477.5,-0.5 421.5,-0.5"/>
<text text-anchor="middle" x="449.5" y="-7.5" font-family="Helvetica,sans-Serif" font-size="10.00">QObject</text>
</a>
</g>
</g>
<!-- Node4&#45;&gt;Node7 -->
<g id="edge6" class="edge">
<title>Node4&#45;&gt;Node7</title>
<path fill="none" stroke="midnightblue" d="M230.83,-58.81C275.32,-49.08 361.59,-30.22 411.44,-19.32"/>
<polygon fill="midnightblue" stroke="midnightblue" points="412.47,-22.68 421.5,-17.12 410.98,-15.84 412.47,-22.68"/>
</g>
<!-- Node8 -->
<g id="node8" class="node">
<title>Node8</title>
<g id="a_node8"><a xlink:title=" ">
<polygon fill="white" stroke="#bfbfbf" points="73.5,-0.5 73.5,-19.5 153.5,-19.5 153.5,-0.5 73.5,-0.5"/>
<text text-anchor="middle" x="113.5" y="-7.5" font-family="Helvetica,sans-Serif" font-size="10.00">QTextStream</text>
</a>
</g>
</g>
<!-- Node4&#45;&gt;Node8 -->
<g id="edge7" class="edge">
<title>Node4&#45;&gt;Node8</title>
<path fill="none" stroke="midnightblue" d="M188.2,-56.32C174.32,-47.9 153.01,-34.97 136.7,-25.07"/>
<polygon fill="midnightblue" stroke="midnightblue" points="138.13,-21.85 127.76,-19.65 134.5,-27.83 138.13,-21.85"/>
</g>
<!-- Node9 -->
<g id="node9" class="node">
<title>Node9</title>
<g id="a_node9"><a xlink:title=" ">
<polygon fill="white" stroke="#bfbfbf" points="305.5,-0.5 305.5,-19.5 363.5,-19.5 363.5,-0.5 305.5,-0.5"/>
<text text-anchor="middle" x="334.5" y="-7.5" font-family="Helvetica,sans-Serif" font-size="10.00">QThread</text>
</a>
</g>
</g>
<!-- Node4&#45;&gt;Node9 -->
<g id="edge8" class="edge">
<title>Node4&#45;&gt;Node9</title>
<path fill="none" stroke="midnightblue" d="M223.42,-56.44C245.24,-47.52 279.65,-33.44 304.39,-23.32"/>
<polygon fill="midnightblue" stroke="midnightblue" points="305.75,-26.54 313.68,-19.52 303.1,-20.06 305.75,-26.54"/>
</g>
<!-- Node10 -->
<g id="node10" class="node">
<title>Node10</title>
<g id="a_node10"><a xlink:title=" ">
<polygon fill="white" stroke="#bfbfbf" points="171.5,-0.5 171.5,-19.5 227.5,-19.5 227.5,-0.5 171.5,-0.5"/>
<text text-anchor="middle" x="199.5" y="-7.5" font-family="Helvetica,sans-Serif" font-size="10.00">sstream</text>
</a>
</g>
</g>
<!-- Node4&#45;&gt;Node10 -->
<g id="edge9" class="edge">
<title>Node4&#45;&gt;Node10</title>
<path fill="none" stroke="midnightblue" d="M202,-56.08C201.61,-49.01 201.05,-38.86 200.55,-29.99"/>
<polygon fill="midnightblue" stroke="midnightblue" points="204.04,-29.54 199.99,-19.75 197.05,-29.93 204.04,-29.54"/>
</g>
<!-- Node11&#45;&gt;Node9 -->
<g id="edge20" class="edge">
<title>Node11&#45;&gt;Node9</title>
<path fill="none" stroke="midnightblue" d="M491.49,-228.98C445.64,-222.81 367.64,-209.42 349.5,-188 311.02,-142.55 322.06,-64.96 329.8,-29.57"/>
<polygon fill="midnightblue" stroke="midnightblue" points="333.25,-30.2 332.14,-19.66 326.44,-28.59 333.25,-30.2"/>
</g>
<!-- Node12 -->
<g id="node12" class="node">
<title>Node12</title>
<g id="a_node12"><a xlink:href="antimicrosettings_8h.html" target="_top" xlink:title=" ">
<polygon fill="white" stroke="black" points="191,-168.5 191,-187.5 302,-187.5 302,-168.5 191,-168.5"/>
<text text-anchor="middle" x="246.5" y="-175.5" font-family="Helvetica,sans-Serif" font-size="10.00">antimicrosettings.h</text>
</a>
</g>
</g>
<!-- Node11&#45;&gt;Node12 -->
<g id="edge11" class="edge">
<title>Node11&#45;&gt;Node12</title>
<path fill="none" stroke="midnightblue" d="M491.29,-226.38C443.76,-217.18 357.23,-200.43 300.82,-189.51"/>
<polygon fill="midnightblue" stroke="midnightblue" points="301.13,-186.01 290.65,-187.55 299.8,-192.88 301.13,-186.01"/>
</g>
<!-- Node14 -->
<g id="node14" class="node">
<title>Node14</title>
<g id="a_node14"><a xlink:title=" ">
<polygon fill="white" stroke="#bfbfbf" points="466,-168.5 466,-187.5 521,-187.5 521,-168.5 466,-168.5"/>
<text text-anchor="middle" x="493.5" y="-175.5" font-family="Helvetica,sans-Serif" font-size="10.00">config.h</text>
</a>
</g>
</g>
<!-- Node11&#45;&gt;Node14 -->
<g id="edge14" class="edge">
<title>Node11&#45;&gt;Node14</title>
<path fill="none" stroke="midnightblue" d="M520.22,-224.08C515.79,-216.61 509.34,-205.72 503.88,-196.52"/>
<polygon fill="midnightblue" stroke="midnightblue" points="506.79,-194.57 498.69,-187.75 500.77,-198.14 506.79,-194.57"/>
</g>
<!-- Node15 -->
<g id="node15" class="node">
<title>Node15</title>
<g id="a_node15"><a xlink:href="mousehelper_8h.html" target="_top" xlink:title=" ">
<polygon fill="white" stroke="black" points="359,-168.5 359,-187.5 448,-187.5 448,-168.5 359,-168.5"/>
<text text-anchor="middle" x="403.5" y="-175.5" font-family="Helvetica,sans-Serif" font-size="10.00">mousehelper.h</text>
</a>
</g>
</g>
<!-- Node11&#45;&gt;Node15 -->
<g id="edge15" class="edge">
<title>Node11&#45;&gt;Node15</title>
<path fill="none" stroke="midnightblue" d="M506.17,-224.44C486.18,-215.6 454.76,-201.69 431.94,-191.59"/>
<polygon fill="midnightblue" stroke="midnightblue" points="433.3,-188.36 422.74,-187.52 430.47,-194.76 433.3,-188.36"/>
</g>
<!-- Node17 -->
<g id="node17" class="node">
<title>Node17</title>
<g id="a_node17"><a xlink:title=" ">
<polygon fill="white" stroke="#bfbfbf" points="539.5,-168.5 539.5,-187.5 577.5,-187.5 577.5,-168.5 539.5,-168.5"/>
<text text-anchor="middle" x="558.5" y="-175.5" font-family="Helvetica,sans-Serif" font-size="10.00">QDir</text>
</a>
</g>
</g>
<!-- Node11&#45;&gt;Node17 -->
<g id="edge18" class="edge">
<title>Node11&#45;&gt;Node17</title>
<path fill="none" stroke="midnightblue" d="M530.95,-224.08C535.51,-216.61 542.17,-205.72 547.79,-196.52"/>
<polygon fill="midnightblue" stroke="midnightblue" points="550.92,-198.11 553.15,-187.75 544.95,-194.46 550.92,-198.11"/>
</g>
<!-- Node18 -->
<g id="node18" class="node">
<title>Node18</title>
<g id="a_node18"><a xlink:title=" ">
<polygon fill="white" stroke="#bfbfbf" points="595.5,-168.5 595.5,-187.5 639.5,-187.5 639.5,-168.5 595.5,-168.5"/>
<text text-anchor="middle" x="617.5" y="-175.5" font-family="Helvetica,sans-Serif" font-size="10.00">QIcon</text>
</a>
</g>
</g>
<!-- Node11&#45;&gt;Node18 -->
<g id="edge19" class="edge">
<title>Node11&#45;&gt;Node18</title>
<path fill="none" stroke="midnightblue" d="M540.28,-224.32C554.77,-215.82 577.07,-202.73 593.99,-192.8"/>
<polygon fill="midnightblue" stroke="midnightblue" points="595.9,-195.74 602.76,-187.65 592.36,-189.7 595.9,-195.74"/>
</g>
<!-- Node19 -->
<g id="node19" class="node">
<title>Node19</title>
<g id="a_node19"><a xlink:title=" ">
<polygon fill="white" stroke="#bfbfbf" points="657.5,-168.5 657.5,-187.5 729.5,-187.5 729.5,-168.5 657.5,-168.5"/>
<text text-anchor="middle" x="693.5" y="-175.5" font-family="Helvetica,sans-Serif" font-size="10.00">QTranslator</text>
</a>
</g>
</g>
<!-- Node11&#45;&gt;Node19 -->
<g id="edge21" class="edge">
<title>Node11&#45;&gt;Node19</title>
<path fill="none" stroke="midnightblue" d="M552.12,-224.44C580.51,-215.32 625.64,-200.81 657.25,-190.65"/>
<polygon fill="midnightblue" stroke="midnightblue" points="658.56,-193.91 667,-187.52 656.41,-187.24 658.56,-193.91"/>
</g>
<!-- Node20 -->
<g id="node20" class="node">
<title>Node20</title>
<g id="a_node20"><a xlink:title=" ">
<polygon fill="white" stroke="#bfbfbf" points="747.5,-168.5 747.5,-187.5 839.5,-187.5 839.5,-168.5 747.5,-168.5"/>
<text text-anchor="middle" x="793.5" y="-175.5" font-family="Helvetica,sans-Serif" font-size="10.00">QWaitCondition</text>
</a>
</g>
</g>
<!-- Node11&#45;&gt;Node20 -->
<g id="edge22" class="edge">
<title>Node11&#45;&gt;Node20</title>
<path fill="none" stroke="midnightblue" d="M559.71,-226.11C605.58,-216.86 687.44,-200.37 741.1,-189.56"/>
<polygon fill="midnightblue" stroke="midnightblue" points="742,-192.95 751.11,-187.54 740.61,-186.09 742,-192.95"/>
</g>
<!-- Node21 -->
<g id="node21" class="node">
<title>Node21</title>
<g id="a_node21"><a xlink:title=" ">
<polygon fill="white" stroke="#bfbfbf" points="60,-168.5 60,-187.5 173,-187.5 173,-168.5 60,-168.5"/>
<text text-anchor="middle" x="116.5" y="-175.5" font-family="Helvetica,sans-Serif" font-size="10.00">SDL2/SDL_version.h</text>
</a>
</g>
</g>
<!-- Node11&#45;&gt;Node21 -->
<g id="edge23" class="edge">
<title>Node11&#45;&gt;Node21</title>
<path fill="none" stroke="midnightblue" d="M491.31,-228.61C431.16,-220.88 302.22,-204.21 183.23,-188.23"/>
<polygon fill="midnightblue" stroke="midnightblue" points="183.59,-184.74 173.22,-186.88 182.66,-191.68 183.59,-184.74"/>
</g>
<!-- Node12&#45;&gt;Node2 -->
<g id="edge12" class="edge">
<title>Node12&#45;&gt;Node2</title>
<path fill="none" stroke="midnightblue" d="M228.12,-168.44C209.28,-159.68 179.77,-145.94 158.12,-135.86"/>
<polygon fill="midnightblue" stroke="midnightblue" points="159.34,-132.56 148.79,-131.52 156.38,-138.91 159.34,-132.56"/>
</g>
<!-- Node13 -->
<g id="node13" class="node">
<title>Node13</title>
<g id="a_node13"><a xlink:title=" ">
<polygon fill="white" stroke="#bfbfbf" points="214.5,-112.5 214.5,-131.5 278.5,-131.5 278.5,-112.5 214.5,-112.5"/>
<text text-anchor="middle" x="246.5" y="-119.5" font-family="Helvetica,sans-Serif" font-size="10.00">QSettings</text>
</a>
</g>
</g>
<!-- Node12&#45;&gt;Node13 -->
<g id="edge13" class="edge">
<title>Node12&#45;&gt;Node13</title>
<path fill="none" stroke="midnightblue" d="M246.5,-168.08C246.5,-161.01 246.5,-150.86 246.5,-141.99"/>
<polygon fill="midnightblue" stroke="midnightblue" points="250,-141.75 246.5,-131.75 243,-141.75 250,-141.75"/>
</g>
<!-- Node15&#45;&gt;Node7 -->
<g id="edge16" class="edge">
<title>Node15&#45;&gt;Node7</title>
<path fill="none" stroke="midnightblue" d="M409.67,-168.5C415.69,-159.77 424.63,-145.59 429.5,-132 441.9,-97.37 446.67,-54.39 448.46,-30.09"/>
<polygon fill="midnightblue" stroke="midnightblue" points="451.98,-29.98 449.13,-19.78 444.99,-29.53 451.98,-29.98"/>
</g>
<!-- Node16 -->
<g id="node16" class="node">
<title>Node16</title>
<g id="a_node16"><a xlink:title=" ">
<polygon fill="white" stroke="#bfbfbf" points="368,-112.5 368,-131.5 421,-131.5 421,-112.5 368,-112.5"/>
<text text-anchor="middle" x="394.5" y="-119.5" font-family="Helvetica,sans-Serif" font-size="10.00">QTimer</text>
</a>
</g>
</g>
<!-- Node15&#45;&gt;Node16 -->
<g id="edge17" class="edge">
<title>Node15&#45;&gt;Node16</title>
<path fill="none" stroke="midnightblue" d="M402.01,-168.08C400.82,-160.93 399.11,-150.64 397.62,-141.69"/>
<polygon fill="midnightblue" stroke="midnightblue" points="401.05,-141.04 395.96,-131.75 394.15,-142.19 401.05,-141.04"/>
</g>
<!-- Node22&#45;&gt;Node7 -->
<g id="edge25" class="edge">
<title>Node22&#45;&gt;Node7</title>
<path fill="none" stroke="midnightblue" d="M795.75,-224.47C824.84,-213.55 865.55,-193.03 848.5,-168 765.19,-45.7 570.68,-18.67 487.9,-12.69"/>
<polygon fill="midnightblue" stroke="midnightblue" points="487.88,-9.19 477.67,-12.02 487.42,-16.17 487.88,-9.19"/>
</g>
<!-- Node23 -->
<g id="node23" class="node">
<title>Node23</title>
<g id="a_node23"><a xlink:title=" ">
<polygon fill="white" stroke="#bfbfbf" points="895.5,-168.5 895.5,-187.5 965.5,-187.5 965.5,-168.5 895.5,-168.5"/>
<text text-anchor="middle" x="930.5" y="-175.5" font-family="Helvetica,sans-Serif" font-size="10.00">QStringList</text>
</a>
</g>
</g>
<!-- Node22&#45;&gt;Node23 -->
<g id="edge26" class="edge">
<title>Node22&#45;&gt;Node23</title>
<path fill="none" stroke="midnightblue" d="M795.01,-224.44C822.1,-215.36 865.09,-200.94 895.37,-190.78"/>
<polygon fill="midnightblue" stroke="midnightblue" points="896.74,-194.01 905.11,-187.52 894.51,-187.38 896.74,-194.01"/>
</g>
</g>
</svg>
        <g id="navigator" transform="translate(0 0)" fill="#404254">
                <rect fill="#f2f5e9" fill-opacity="0.5" stroke="#606060" stroke-width=".5" x="0" y="0" width="60" height="60"/>
                <use id="zoomplus" xlink:href="#zoomPlus" x="17" y="9" onmousedown="handleZoom(evt,'in')"/>
                <use id="zoomminus" xlink:href="#zoomMin" x="42" y="9" onmousedown="handleZoom(evt,'out')"/>
                <use id="reset" xlink:href="#resetDef" x="30" y="36" onmousedown="handleReset()"/>
                <g id="arrowUp" xlink:href="#dirArrow" transform="translate(30 24)" onmousedown="handlePan(0,-1)">
                  <use xlink:href="#rim" fill="#404040">
                        <set attributeName="fill" to="#808080" begin="arrowUp.mouseover" end="arrowUp.mouseout"/>
                  </use>
                  <path fill="none" stroke="white" stroke-width="1.5" d="M0,-3.0v7 M-2.5,-0.5L0,-3.0L2.5,-0.5"/>
                </g>
                <g id="arrowRight" xlink:href="#dirArrow" transform="rotate(90) translate(36 -43)" onmousedown="handlePan(1,0)">
                  <use xlink:href="#rim" fill="#404040">
                        <set attributeName="fill" to="#808080" begin="arrowRight.mouseover" end="arrowRight.mouseout"/>
                  </use>
                  <path fill="none" stroke="white" stroke-width="1.5" d="M0,-3.0v7 M-2.5,-0.5L0,-3.0L2.5,-0.5"/>
                </g>
                <g id="arrowDown" xlink:href="#dirArrow" transform="rotate(180) translate(-30 -48)" onmousedown="handlePan(0,1)">
                  <use xlink:href="#rim" fill="#404040">
                        <set attributeName="fill" to="#808080" begin="arrowDown.mouseover" end="arrowDown.mouseout"/>
                  </use>
                  <path fill="none" stroke="white" stroke-width="1.5" d="M0,-3.0v7 M-2.5,-0.5L0,-3.0L2.5,-0.5"/>
                </g>
                <g id="arrowLeft" xlink:href="#dirArrow" transform="rotate(270) translate(-36 17)" onmousedown="handlePan(-1,0)">
                  <use xlink:href="#rim" fill="#404040">
                        <set attributeName="fill" to="#808080" begin="arrowLeft.mouseover" end="arrowLeft.mouseout"/>
                  </use>
                  <path fill="none" stroke="white" stroke-width="1.5" d="M0,-3.0v7 M-2.5,-0.5L0,-3.0L2.5,-0.5"/>
                </g>
        </g>
        <svg viewBox="0 0 15 15" width="100%" height="30px" preserveAspectRatio="xMaxYMin meet">
         <g id="arrow_out" transform="scale(0.3 0.3)">
          <a xlink:href="commandlineutility_8cpp__incl_org.svg" target="_base">
           <rect id="button" ry="5" rx="5" y="6" x="6" height="38" width="38"
                fill="#f2f5e9" fill-opacity="0.5" stroke="#606060" stroke-width="1.0"/>
           <path id="arrow"
             d="M 11.500037,31.436501 C 11.940474,20.09759 22.043105,11.32322 32.158766,21.979434 L 37.068811,17.246167 C 37.068811,17.246167 37.088388,32 37.088388,32 L 22.160133,31.978069 C 22.160133,31.978069 26.997745,27.140456 26.997745,27.140456 C 18.528582,18.264221 13.291696,25.230495 11.500037,31.436501 z"
             style="fill:#404040;"/>
          </a>
         </g>
        </svg>
</svg>
