<?xml version="1.0" encoding="UTF-8" standalone="no"?>
<!DOCTYPE svg PUBLIC "-//W3C//DTD SVG 1.1//EN"
 "http://www.w3.org/Graphics/SVG/1.1/DTD/svg11.dtd">
<!-- Generated by graphviz version 2.43.0 (0)
 -->
<!-- Title: /home/runner/work/doxygen/antimicrox/src/dpadpushbuttongroup.cpp Pages: 1 -->
<!--zoomable 487 -->
<svg id="main" version="1.1" xmlns="http://www.w3.org/2000/svg" xmlns:xlink="http://www.w3.org/1999/xlink" xml:space="preserve" onload="init(evt)">
<style type="text/css"><![CDATA[
.edge:hover path { stroke: red; }
.edge:hover polygon { stroke: red; fill: red; }
]]></style>
<script type="text/javascript"><![CDATA[
var edges = document.getElementsByTagName('g');
if (edges && edges.length) {
  for (var i=0;i<edges.length;i++) {
    if (edges[i].id.substr(0,4)=='edge') {
      edges[i].setAttribute('class','edge');
    }
  }
}
]]></script>
        <defs>
                <circle id="rim" cx="0" cy="0" r="7"/>
                <circle id="rim2" cx="0" cy="0" r="3.5"/>
                <g id="zoomPlus">
                        <use xlink:href="#rim" fill="#404040">
                                <set attributeName="fill" to="#808080" begin="zoomplus.mouseover" end="zoomplus.mouseout"/>
                        </use>
                        <path d="M-4,0h8M0,-4v8" fill="none" stroke="white" stroke-width="1.5" pointer-events="none"/>
                </g>
                <g id="zoomMin">
                        <use xlink:href="#rim" fill="#404040">
                                <set attributeName="fill" to="#808080" begin="zoomminus.mouseover" end="zoomminus.mouseout"/>
                        </use>
                        <path d="M-4,0h8" fill="none" stroke="white" stroke-width="1.5" pointer-events="none"/>
                </g>
                <g id="dirArrow">
                        <path fill="none" stroke="white" stroke-width="1.5" d="M0,-3.0v7 M-2.5,-0.5L0,-3.0L2.5,-0.5"/>
                </g>
               <g id="resetDef">
                       <use xlink:href="#rim2" fill="#404040">
                               <set attributeName="fill" to="#808080" begin="reset.mouseover" end="reset.mouseout"/>
                       </use>
               </g>
        </defs>

<script type="text/javascript">
var viewWidth = 1692;
var viewHeight = 487;
var sectionId = 'dynsection-0';
</script>
<script xlink:href="svgpan.js"/>
<svg id="graph" class="graph">
<g id="viewport">
<title>/home/runner/work/doxygen/antimicrox/src/dpadpushbuttongroup.cpp</title>
<polygon fill="white" stroke="transparent" points="-4,4 -4,-483 1688,-483 1688,4 -4,4"/>
<!-- Node1 -->
<g id="node1" class="node">
<title>Node1</title>
<g id="a_node1"><a xlink:title=" ">
<polygon fill="#bfbfbf" stroke="black" points="893,-448.5 893,-478.5 1112,-478.5 1112,-448.5 893,-448.5"/>
<text text-anchor="start" x="901" y="-466.5" font-family="Helvetica,sans-Serif" font-size="10.00">/home/runner/work/doxygen</text>
<text text-anchor="middle" x="1002.5" y="-455.5" font-family="Helvetica,sans-Serif" font-size="10.00">/antimicrox/src/dpadpushbuttongroup.cpp</text>
</a>
</g>
</g>
<!-- Node2 -->
<g id="node2" class="node">
<title>Node2</title>
<g id="a_node2"><a xlink:href="dpadpushbuttongroup_8h.html" target="_top" xlink:title=" ">
<polygon fill="white" stroke="black" points="434.5,-392.5 434.5,-411.5 566.5,-411.5 566.5,-392.5 434.5,-392.5"/>
<text text-anchor="middle" x="500.5" y="-399.5" font-family="Helvetica,sans-Serif" font-size="10.00">dpadpushbuttongroup.h</text>
</a>
</g>
</g>
<!-- Node1&#45;&gt;Node2 -->
<g id="edge1" class="edge">
<title>Node1&#45;&gt;Node2</title>
<path fill="none" stroke="midnightblue" d="M892.95,-449.52C797.31,-438.18 660.99,-422.02 576.76,-412.04"/>
<polygon fill="midnightblue" stroke="midnightblue" points="577.1,-408.55 566.75,-410.85 576.27,-415.51 577.1,-408.55"/>
</g>
<!-- Node4 -->
<g id="node4" class="node">
<title>Node4</title>
<g id="a_node4"><a xlink:href="buttoneditdialog_8h.html" target="_top" xlink:title=" ">
<polygon fill="white" stroke="black" points="618.5,-392.5 618.5,-411.5 724.5,-411.5 724.5,-392.5 618.5,-392.5"/>
<text text-anchor="middle" x="671.5" y="-399.5" font-family="Helvetica,sans-Serif" font-size="10.00">buttoneditdialog.h</text>
</a>
</g>
</g>
<!-- Node1&#45;&gt;Node4 -->
<g id="edge3" class="edge">
<title>Node1&#45;&gt;Node4</title>
<path fill="none" stroke="midnightblue" d="M924.48,-448.47C864.5,-437.69 783.03,-423.05 728.93,-413.32"/>
<polygon fill="midnightblue" stroke="midnightblue" points="729.28,-409.83 718.82,-411.51 728.04,-416.72 729.28,-409.83"/>
</g>
<!-- Node14 -->
<g id="node14" class="node">
<title>Node14</title>
<g id="a_node14"><a xlink:href="dpadeditdialog_8h.html" target="_top" xlink:title=" ">
<polygon fill="white" stroke="black" points="756.5,-392.5 756.5,-411.5 854.5,-411.5 854.5,-392.5 756.5,-392.5"/>
<text text-anchor="middle" x="805.5" y="-399.5" font-family="Helvetica,sans-Serif" font-size="10.00">dpadeditdialog.h</text>
</a>
</g>
</g>
<!-- Node1&#45;&gt;Node14 -->
<g id="edge13" class="edge">
<title>Node1&#45;&gt;Node14</title>
<path fill="none" stroke="midnightblue" d="M955.81,-448.4C921.62,-438.07 875.79,-424.23 843.76,-414.56"/>
<polygon fill="midnightblue" stroke="midnightblue" points="844.46,-411.11 833.88,-411.57 842.44,-417.81 844.46,-411.11"/>
</g>
<!-- Node16 -->
<g id="node16" class="node">
<title>Node16</title>
<g id="a_node16"><a xlink:href="joydpad_8h.html" target="_top" xlink:title=" ">
<polygon fill="white" stroke="black" points="773,-280.5 773,-299.5 838,-299.5 838,-280.5 773,-280.5"/>
<text text-anchor="middle" x="805.5" y="-287.5" font-family="Helvetica,sans-Serif" font-size="10.00">joydpad.h</text>
</a>
</g>
</g>
<!-- Node1&#45;&gt;Node16 -->
<g id="edge59" class="edge">
<title>Node1&#45;&gt;Node16</title>
<path fill="none" stroke="midnightblue" d="M992.46,-448.16C971.7,-418.78 924.15,-353.08 902.5,-336 884.42,-321.73 861.09,-310.73 841.84,-303.17"/>
<polygon fill="midnightblue" stroke="midnightblue" points="843.07,-299.89 832.48,-299.64 840.6,-306.44 843.07,-299.89"/>
</g>
<!-- Node29 -->
<g id="node29" class="node">
<title>Node29</title>
<g id="a_node29"><a xlink:href="dpadpushbutton_8h.html" target="_top" xlink:title=" ">
<polygon fill="white" stroke="black" points="1323.5,-392.5 1323.5,-411.5 1427.5,-411.5 1427.5,-392.5 1323.5,-392.5"/>
<text text-anchor="middle" x="1375.5" y="-399.5" font-family="Helvetica,sans-Serif" font-size="10.00">dpadpushbutton.h</text>
</a>
</g>
</g>
<!-- Node1&#45;&gt;Node29 -->
<g id="edge32" class="edge">
<title>Node1&#45;&gt;Node29</title>
<path fill="none" stroke="midnightblue" d="M1090.42,-448.47C1158.83,-437.56 1252.08,-422.69 1313.01,-412.97"/>
<polygon fill="midnightblue" stroke="midnightblue" points="1313.93,-416.37 1323.26,-411.33 1312.83,-409.45 1313.93,-416.37"/>
</g>
<!-- Node32 -->
<g id="node32" class="node">
<title>Node32</title>
<g id="a_node32"><a xlink:href="inputdevice_8h.html" target="_top" xlink:title=" ">
<polygon fill="white" stroke="black" points="1075,-392.5 1075,-411.5 1158,-411.5 1158,-392.5 1075,-392.5"/>
<text text-anchor="middle" x="1116.5" y="-399.5" font-family="Helvetica,sans-Serif" font-size="10.00">inputdevice.h</text>
</a>
</g>
</g>
<!-- Node1&#45;&gt;Node32 -->
<g id="edge35" class="edge">
<title>Node1&#45;&gt;Node32</title>
<path fill="none" stroke="midnightblue" d="M1029.52,-448.4C1048.13,-438.68 1072.71,-425.86 1090.99,-416.31"/>
<polygon fill="midnightblue" stroke="midnightblue" points="1092.67,-419.39 1099.91,-411.66 1089.43,-413.18 1092.67,-419.39"/>
</g>
<!-- Node34 -->
<g id="node34" class="node">
<title>Node34</title>
<g id="a_node34"><a xlink:title=" ">
<polygon fill="white" stroke="#bfbfbf" points="1009,-280.5 1009,-299.5 1058,-299.5 1058,-280.5 1009,-280.5"/>
<text text-anchor="middle" x="1033.5" y="-287.5" font-family="Helvetica,sans-Serif" font-size="10.00">QHash</text>
</a>
</g>
</g>
<!-- Node1&#45;&gt;Node34 -->
<g id="edge64" class="edge">
<title>Node1&#45;&gt;Node34</title>
<path fill="none" stroke="midnightblue" d="M994.31,-448.12C981.66,-423.86 960.6,-373.77 978.5,-336 984.63,-323.07 996.49,-312.62 1007.64,-305.05"/>
<polygon fill="midnightblue" stroke="midnightblue" points="1009.69,-307.9 1016.3,-299.61 1005.97,-301.97 1009.69,-307.9"/>
</g>
<!-- Node51 -->
<g id="node47" class="node">
<title>Node51</title>
<g id="a_node47"><a xlink:href="joydpadbuttonwidget_8h.html" target="_top" xlink:title=" ">
<polygon fill="white" stroke="black" points="1176,-392.5 1176,-411.5 1305,-411.5 1305,-392.5 1176,-392.5"/>
<text text-anchor="middle" x="1240.5" y="-399.5" font-family="Helvetica,sans-Serif" font-size="10.00">joydpadbuttonwidget.h</text>
</a>
</g>
</g>
<!-- Node1&#45;&gt;Node51 -->
<g id="edge60" class="edge">
<title>Node1&#45;&gt;Node51</title>
<path fill="none" stroke="midnightblue" d="M1058.6,-448.47C1100.74,-437.94 1157.64,-423.72 1196.51,-414"/>
<polygon fill="midnightblue" stroke="midnightblue" points="1197.62,-417.33 1206.47,-411.51 1195.92,-410.54 1197.62,-417.33"/>
</g>
<!-- Node53 -->
<g id="node49" class="node">
<title>Node53</title>
<g id="a_node49"><a xlink:title=" ">
<polygon fill="white" stroke="#bfbfbf" points="1445.5,-392.5 1445.5,-411.5 1501.5,-411.5 1501.5,-392.5 1445.5,-392.5"/>
<text text-anchor="middle" x="1473.5" y="-399.5" font-family="Helvetica,sans-Serif" font-size="10.00">QDebug</text>
</a>
</g>
</g>
<!-- Node1&#45;&gt;Node53 -->
<g id="edge63" class="edge">
<title>Node1&#45;&gt;Node53</title>
<path fill="none" stroke="midnightblue" d="M1112.29,-453.48C1197.87,-445.58 1319.79,-432.4 1435.22,-412.04"/>
<polygon fill="midnightblue" stroke="midnightblue" points="1436.06,-415.44 1445.29,-410.24 1434.83,-408.55 1436.06,-415.44"/>
</g>
<!-- Node54 -->
<g id="node50" class="node">
<title>Node54</title>
<g id="a_node50"><a xlink:title=" ">
<polygon fill="white" stroke="#bfbfbf" points="1520,-392.5 1520,-411.5 1579,-411.5 1579,-392.5 1520,-392.5"/>
<text text-anchor="middle" x="1549.5" y="-399.5" font-family="Helvetica,sans-Serif" font-size="10.00">QWidget</text>
</a>
</g>
</g>
<!-- Node1&#45;&gt;Node54 -->
<g id="edge65" class="edge">
<title>Node1&#45;&gt;Node54</title>
<path fill="none" stroke="midnightblue" d="M1112.03,-455.67C1212.85,-448.45 1366.66,-435.07 1509.5,-411.95"/>
<polygon fill="midnightblue" stroke="midnightblue" points="1510.46,-415.34 1519.77,-410.27 1509.33,-408.44 1510.46,-415.34"/>
</g>
<!-- Node3 -->
<g id="node3" class="node">
<title>Node3</title>
<g id="a_node3"><a xlink:title=" ">
<polygon fill="white" stroke="#bfbfbf" points="445,-336.5 445,-355.5 522,-355.5 522,-336.5 445,-336.5"/>
<text text-anchor="middle" x="483.5" y="-343.5" font-family="Helvetica,sans-Serif" font-size="10.00">QGridLayout</text>
</a>
</g>
</g>
<!-- Node2&#45;&gt;Node3 -->
<g id="edge2" class="edge">
<title>Node2&#45;&gt;Node3</title>
<path fill="none" stroke="midnightblue" d="M497.69,-392.08C495.42,-384.85 492.13,-374.41 489.29,-365.4"/>
<polygon fill="midnightblue" stroke="midnightblue" points="492.6,-364.24 486.25,-355.75 485.92,-366.34 492.6,-364.24"/>
</g>
<!-- Node5 -->
<g id="node5" class="node">
<title>Node5</title>
<g id="a_node5"><a xlink:title=" ">
<polygon fill="white" stroke="#bfbfbf" points="643.5,-336.5 643.5,-355.5 699.5,-355.5 699.5,-336.5 643.5,-336.5"/>
<text text-anchor="middle" x="671.5" y="-343.5" font-family="Helvetica,sans-Serif" font-size="10.00">QDialog</text>
</a>
</g>
</g>
<!-- Node4&#45;&gt;Node5 -->
<g id="edge4" class="edge">
<title>Node4&#45;&gt;Node5</title>
<path fill="none" stroke="midnightblue" d="M671.5,-392.08C671.5,-385.01 671.5,-374.86 671.5,-365.99"/>
<polygon fill="midnightblue" stroke="midnightblue" points="675,-365.75 671.5,-355.75 668,-365.75 675,-365.75"/>
</g>
<!-- Node6 -->
<g id="node6" class="node">
<title>Node6</title>
<g id="a_node6"><a xlink:href="buttoneditdialoghelper_8h.html" target="_top" xlink:title=" ">
<polygon fill="white" stroke="black" points="205.5,-168.5 205.5,-187.5 389.5,-187.5 389.5,-168.5 205.5,-168.5"/>
<text text-anchor="middle" x="297.5" y="-175.5" font-family="Helvetica,sans-Serif" font-size="10.00">uihelpers/buttoneditdialoghelper.h</text>
</a>
</g>
</g>
<!-- Node4&#45;&gt;Node6 -->
<g id="edge5" class="edge">
<title>Node4&#45;&gt;Node6</title>
<path fill="none" stroke="midnightblue" d="M656.84,-392.3C599.7,-358.38 391.61,-234.86 321.07,-192.99"/>
<polygon fill="midnightblue" stroke="midnightblue" points="322.45,-189.74 312.06,-187.64 318.87,-195.76 322.45,-189.74"/>
</g>
<!-- Node7 -->
<g id="node7" class="node">
<title>Node7</title>
<g id="a_node7"><a xlink:href="joybuttonslot_8h.html" target="_top" xlink:title=" ">
<polygon fill="white" stroke="black" points="165.5,-56.5 165.5,-75.5 255.5,-75.5 255.5,-56.5 165.5,-56.5"/>
<text text-anchor="middle" x="210.5" y="-63.5" font-family="Helvetica,sans-Serif" font-size="10.00">joybuttonslot.h</text>
</a>
</g>
</g>
<!-- Node6&#45;&gt;Node7 -->
<g id="edge6" class="edge">
<title>Node6&#45;&gt;Node7</title>
<path fill="none" stroke="midnightblue" d="M290.67,-168.37C276.25,-150.14 242.47,-107.43 223.69,-83.68"/>
<polygon fill="midnightblue" stroke="midnightblue" points="226.24,-81.26 217.3,-75.59 220.75,-85.61 226.24,-81.26"/>
</g>
<!-- Node8 -->
<g id="node8" class="node">
<title>Node8</title>
<g id="a_node8"><a xlink:title=" ">
<polygon fill="white" stroke="#bfbfbf" points="0,-0.5 0,-19.5 91,-19.5 91,-0.5 0,-0.5"/>
<text text-anchor="middle" x="45.5" y="-7.5" font-family="Helvetica,sans-Serif" font-size="10.00">QElapsedTimer</text>
</a>
</g>
</g>
<!-- Node7&#45;&gt;Node8 -->
<g id="edge7" class="edge">
<title>Node7&#45;&gt;Node8</title>
<path fill="none" stroke="midnightblue" d="M184.36,-56.44C156.48,-47.32 112.15,-32.81 81.1,-22.65"/>
<polygon fill="midnightblue" stroke="midnightblue" points="82.12,-19.3 71.52,-19.52 79.94,-25.95 82.12,-19.3"/>
</g>
<!-- Node9 -->
<g id="node9" class="node">
<title>Node9</title>
<g id="a_node9"><a xlink:title=" ">
<polygon fill="white" stroke="#bfbfbf" points="1173.5,-0.5 1173.5,-19.5 1229.5,-19.5 1229.5,-0.5 1173.5,-0.5"/>
<text text-anchor="middle" x="1201.5" y="-7.5" font-family="Helvetica,sans-Serif" font-size="10.00">QObject</text>
</a>
</g>
</g>
<!-- Node7&#45;&gt;Node9 -->
<g id="edge8" class="edge">
<title>Node7&#45;&gt;Node9</title>
<path fill="none" stroke="midnightblue" d="M255.85,-60.13C270.71,-58.65 287.3,-57.12 302.5,-56 635.27,-31.41 1038.36,-16.53 1162.95,-12.27"/>
<polygon fill="midnightblue" stroke="midnightblue" points="1163.25,-15.77 1173.13,-11.93 1163.02,-8.77 1163.25,-15.77"/>
</g>
<!-- Node10 -->
<g id="node10" class="node">
<title>Node10</title>
<g id="a_node10"><a xlink:title=" ">
<polygon fill="white" stroke="#bfbfbf" points="109,-0.5 109,-19.5 168,-19.5 168,-0.5 109,-0.5"/>
<text text-anchor="middle" x="138.5" y="-7.5" font-family="Helvetica,sans-Serif" font-size="10.00">QPointer</text>
</a>
</g>
</g>
<!-- Node7&#45;&gt;Node10 -->
<g id="edge9" class="edge">
<title>Node7&#45;&gt;Node10</title>
<path fill="none" stroke="midnightblue" d="M198.93,-56.32C188.08,-48.18 171.62,-35.84 158.62,-26.09"/>
<polygon fill="midnightblue" stroke="midnightblue" points="160.38,-23.03 150.28,-19.83 156.18,-28.63 160.38,-23.03"/>
</g>
<!-- Node11 -->
<g id="node11" class="node">
<title>Node11</title>
<g id="a_node11"><a xlink:title=" ">
<polygon fill="white" stroke="#bfbfbf" points="186,-0.5 186,-19.5 235,-19.5 235,-0.5 186,-0.5"/>
<text text-anchor="middle" x="210.5" y="-7.5" font-family="Helvetica,sans-Serif" font-size="10.00">QTime</text>
</a>
</g>
</g>
<!-- Node7&#45;&gt;Node11 -->
<g id="edge10" class="edge">
<title>Node7&#45;&gt;Node11</title>
<path fill="none" stroke="midnightblue" d="M210.5,-56.08C210.5,-49.01 210.5,-38.86 210.5,-29.99"/>
<polygon fill="midnightblue" stroke="midnightblue" points="214,-29.75 210.5,-19.75 207,-29.75 214,-29.75"/>
</g>
<!-- Node12 -->
<g id="node12" class="node">
<title>Node12</title>
<g id="a_node12"><a xlink:title=" ">
<polygon fill="white" stroke="#bfbfbf" points="253,-0.5 253,-19.5 312,-19.5 312,-0.5 253,-0.5"/>
<text text-anchor="middle" x="282.5" y="-7.5" font-family="Helvetica,sans-Serif" font-size="10.00">QVariant</text>
</a>
</g>
</g>
<!-- Node7&#45;&gt;Node12 -->
<g id="edge11" class="edge">
<title>Node7&#45;&gt;Node12</title>
<path fill="none" stroke="midnightblue" d="M222.07,-56.32C232.92,-48.18 249.38,-35.84 262.38,-26.09"/>
<polygon fill="midnightblue" stroke="midnightblue" points="264.82,-28.63 270.72,-19.83 260.62,-23.03 264.82,-28.63"/>
</g>
<!-- Node13 -->
<g id="node13" class="node">
<title>Node13</title>
<g id="a_node13"><a xlink:title=" ">
<polygon fill="white" stroke="#bfbfbf" points="330,-0.5 330,-19.5 463,-19.5 463,-0.5 330,-0.5"/>
<text text-anchor="middle" x="396.5" y="-7.5" font-family="Helvetica,sans-Serif" font-size="10.00">QtWidgets/QApplication</text>
</a>
</g>
</g>
<!-- Node7&#45;&gt;Node13 -->
<g id="edge12" class="edge">
<title>Node7&#45;&gt;Node13</title>
<path fill="none" stroke="midnightblue" d="M239.97,-56.44C271.67,-47.24 322.23,-32.56 357.27,-22.39"/>
<polygon fill="midnightblue" stroke="midnightblue" points="358.54,-25.67 367.17,-19.52 356.59,-18.94 358.54,-25.67"/>
</g>
<!-- Node14&#45;&gt;Node5 -->
<g id="edge31" class="edge">
<title>Node14&#45;&gt;Node5</title>
<path fill="none" stroke="midnightblue" d="M784.27,-392.44C762.12,-383.52 727.18,-369.44 702.06,-359.32"/>
<polygon fill="midnightblue" stroke="midnightblue" points="703.22,-356.01 692.63,-355.52 700.6,-362.5 703.22,-356.01"/>
</g>
<!-- Node15 -->
<g id="node15" class="node">
<title>Node15</title>
<g id="a_node15"><a xlink:href="dpadeditdialoghelper_8h.html" target="_top" xlink:title=" ">
<polygon fill="white" stroke="black" points="717.5,-336.5 717.5,-355.5 893.5,-355.5 893.5,-336.5 717.5,-336.5"/>
<text text-anchor="middle" x="805.5" y="-343.5" font-family="Helvetica,sans-Serif" font-size="10.00">uihelpers/dpadeditdialoghelper.h</text>
</a>
</g>
</g>
<!-- Node14&#45;&gt;Node15 -->
<g id="edge14" class="edge">
<title>Node14&#45;&gt;Node15</title>
<path fill="none" stroke="midnightblue" d="M805.5,-392.08C805.5,-385.01 805.5,-374.86 805.5,-365.99"/>
<polygon fill="midnightblue" stroke="midnightblue" points="809,-365.75 805.5,-355.75 802,-365.75 809,-365.75"/>
</g>
<!-- Node15&#45;&gt;Node16 -->
<g id="edge15" class="edge">
<title>Node15&#45;&gt;Node16</title>
<path fill="none" stroke="midnightblue" d="M805.5,-336.08C805.5,-329.01 805.5,-318.86 805.5,-309.99"/>
<polygon fill="midnightblue" stroke="midnightblue" points="809,-309.75 805.5,-299.75 802,-309.75 809,-309.75"/>
</g>
<!-- Node17 -->
<g id="node17" class="node">
<title>Node17</title>
<g id="a_node17"><a xlink:href="joydpadbutton_8h.html" target="_top" xlink:title=" ">
<polygon fill="white" stroke="black" points="425,-168.5 425,-187.5 598,-187.5 598,-168.5 425,-168.5"/>
<text text-anchor="middle" x="511.5" y="-175.5" font-family="Helvetica,sans-Serif" font-size="10.00">joybuttontypes/joydpadbutton.h</text>
</a>
</g>
</g>
<!-- Node16&#45;&gt;Node17 -->
<g id="edge16" class="edge">
<title>Node16&#45;&gt;Node17</title>
<path fill="none" stroke="midnightblue" d="M772.68,-284.85C733.4,-279.09 666.2,-266.73 612.5,-244 581.53,-230.89 549.49,-208.5 530.02,-193.72"/>
<polygon fill="midnightblue" stroke="midnightblue" points="532.07,-190.88 522.01,-187.53 527.79,-196.42 532.07,-190.88"/>
</g>
<!-- Node18 -->
<g id="node18" class="node">
<title>Node18</title>
<g id="a_node18"><a xlink:href="joybutton_8h.html" target="_top" xlink:title=" ">
<polygon fill="white" stroke="black" points="718.5,-112.5 718.5,-131.5 790.5,-131.5 790.5,-112.5 718.5,-112.5"/>
<text text-anchor="middle" x="754.5" y="-119.5" font-family="Helvetica,sans-Serif" font-size="10.00">joybutton.h</text>
</a>
</g>
</g>
<!-- Node17&#45;&gt;Node18 -->
<g id="edge17" class="edge">
<title>Node17&#45;&gt;Node18</title>
<path fill="none" stroke="midnightblue" d="M550,-168.44C592.93,-158.9 662.32,-143.48 708.18,-133.29"/>
<polygon fill="midnightblue" stroke="midnightblue" points="709.16,-136.66 718.16,-131.08 707.64,-129.83 709.16,-136.66"/>
</g>
<!-- Node18&#45;&gt;Node7 -->
<g id="edge23" class="edge">
<title>Node18&#45;&gt;Node7</title>
<path fill="none" stroke="midnightblue" d="M718.39,-117.42C625.3,-108.18 376.75,-83.5 265.57,-72.47"/>
<polygon fill="midnightblue" stroke="midnightblue" points="265.87,-68.98 255.57,-71.47 265.18,-75.94 265.87,-68.98"/>
</g>
<!-- Node19 -->
<g id="node19" class="node">
<title>Node19</title>
<g id="a_node19"><a xlink:href="globalvariables_8h.html" target="_top" xlink:title=" ">
<polygon fill="white" stroke="black" points="929,-56.5 929,-75.5 1030,-75.5 1030,-56.5 929,-56.5"/>
<text text-anchor="middle" x="979.5" y="-63.5" font-family="Helvetica,sans-Serif" font-size="10.00">globalvariables.h</text>
</a>
</g>
</g>
<!-- Node18&#45;&gt;Node19 -->
<g id="edge18" class="edge">
<title>Node18&#45;&gt;Node19</title>
<path fill="none" stroke="midnightblue" d="M790.15,-112.44C829.16,-103.08 891.77,-88.06 934.22,-77.87"/>
<polygon fill="midnightblue" stroke="midnightblue" points="935.11,-81.25 944.01,-75.52 933.47,-74.45 935.11,-81.25"/>
</g>
<!-- Node21 -->
<g id="node21" class="node">
<title>Node21</title>
<g id="a_node21"><a xlink:href="joybuttonmousehelper_8h.html" target="_top" xlink:title=" ">
<polygon fill="white" stroke="black" points="1048,-56.5 1048,-75.5 1183,-75.5 1183,-56.5 1048,-56.5"/>
<text text-anchor="middle" x="1115.5" y="-63.5" font-family="Helvetica,sans-Serif" font-size="10.00">joybuttonmousehelper.h</text>
</a>
</g>
</g>
<!-- Node18&#45;&gt;Node21 -->
<g id="edge21" class="edge">
<title>Node18&#45;&gt;Node21</title>
<path fill="none" stroke="midnightblue" d="M790.77,-115.58C851,-106.57 972.55,-88.38 1048.66,-77"/>
<polygon fill="midnightblue" stroke="midnightblue" points="1049.25,-80.45 1058.62,-75.51 1048.21,-73.53 1049.25,-80.45"/>
</g>
<!-- Node22 -->
<g id="node22" class="node">
<title>Node22</title>
<g id="a_node22"><a xlink:href="springmousemoveinfo_8h.html" target="_top" xlink:title=" ">
<polygon fill="white" stroke="black" points="312,-56.5 312,-75.5 447,-75.5 447,-56.5 312,-56.5"/>
<text text-anchor="middle" x="379.5" y="-63.5" font-family="Helvetica,sans-Serif" font-size="10.00">springmousemoveinfo.h</text>
</a>
</g>
</g>
<!-- Node18&#45;&gt;Node22 -->
<g id="edge24" class="edge">
<title>Node18&#45;&gt;Node22</title>
<path fill="none" stroke="midnightblue" d="M718.2,-115.77C656.07,-106.83 528.33,-88.43 448.71,-76.97"/>
<polygon fill="midnightblue" stroke="midnightblue" points="449.16,-73.5 438.77,-75.53 448.17,-80.42 449.16,-73.5"/>
</g>
<!-- Node23 -->
<g id="node23" class="node">
<title>Node23</title>
<g id="a_node23"><a xlink:title=" ">
<polygon fill="white" stroke="#bfbfbf" points="465.5,-56.5 465.5,-75.5 561.5,-75.5 561.5,-56.5 465.5,-56.5"/>
<text text-anchor="middle" x="513.5" y="-63.5" font-family="Helvetica,sans-Serif" font-size="10.00">QDeadlineTimer</text>
</a>
</g>
</g>
<!-- Node18&#45;&gt;Node23 -->
<g id="edge25" class="edge">
<title>Node18&#45;&gt;Node23</title>
<path fill="none" stroke="midnightblue" d="M718.42,-112.92C676.7,-103.57 607.86,-88.14 561.62,-77.78"/>
<polygon fill="midnightblue" stroke="midnightblue" points="562.34,-74.36 551.82,-75.59 560.81,-81.19 562.34,-74.36"/>
</g>
<!-- Node24 -->
<g id="node24" class="node">
<title>Node24</title>
<g id="a_node24"><a xlink:title=" ">
<polygon fill="white" stroke="#bfbfbf" points="579.5,-56.5 579.5,-75.5 635.5,-75.5 635.5,-56.5 579.5,-56.5"/>
<text text-anchor="middle" x="607.5" y="-63.5" font-family="Helvetica,sans-Serif" font-size="10.00">QQueue</text>
</a>
</g>
</g>
<!-- Node18&#45;&gt;Node24 -->
<g id="edge26" class="edge">
<title>Node18&#45;&gt;Node24</title>
<path fill="none" stroke="midnightblue" d="M731.21,-112.44C706.69,-103.44 667.9,-89.19 640.3,-79.05"/>
<polygon fill="midnightblue" stroke="midnightblue" points="641.28,-75.68 630.68,-75.52 638.86,-82.25 641.28,-75.68"/>
</g>
<!-- Node25 -->
<g id="node25" class="node">
<title>Node25</title>
<g id="a_node25"><a xlink:title=" ">
<polygon fill="white" stroke="#bfbfbf" points="653.5,-56.5 653.5,-75.5 751.5,-75.5 751.5,-56.5 653.5,-56.5"/>
<text text-anchor="middle" x="702.5" y="-63.5" font-family="Helvetica,sans-Serif" font-size="10.00">QReadWriteLock</text>
</a>
</g>
</g>
<!-- Node18&#45;&gt;Node25 -->
<g id="edge27" class="edge">
<title>Node18&#45;&gt;Node25</title>
<path fill="none" stroke="midnightblue" d="M745.91,-112.08C738.34,-104.22 727.12,-92.57 717.99,-83.08"/>
<polygon fill="midnightblue" stroke="midnightblue" points="720.38,-80.53 710.93,-75.75 715.34,-85.38 720.38,-80.53"/>
</g>
<!-- Node26 -->
<g id="node26" class="node">
<title>Node26</title>
<g id="a_node26"><a xlink:title=" ">
<polygon fill="white" stroke="#bfbfbf" points="769.5,-56.5 769.5,-75.5 839.5,-75.5 839.5,-56.5 769.5,-56.5"/>
<text text-anchor="middle" x="804.5" y="-63.5" font-family="Helvetica,sans-Serif" font-size="10.00">QRunnable</text>
</a>
</g>
</g>
<!-- Node18&#45;&gt;Node26 -->
<g id="edge28" class="edge">
<title>Node18&#45;&gt;Node26</title>
<path fill="none" stroke="midnightblue" d="M762.76,-112.08C769.96,-104.3 780.61,-92.8 789.35,-83.37"/>
<polygon fill="midnightblue" stroke="midnightblue" points="792.17,-85.47 796.4,-75.75 787.03,-80.71 792.17,-85.47"/>
</g>
<!-- Node27 -->
<g id="node27" class="node">
<title>Node27</title>
<g id="a_node27"><a xlink:title=" ">
<polygon fill="white" stroke="#bfbfbf" points="1201.5,-56.5 1201.5,-75.5 1259.5,-75.5 1259.5,-56.5 1201.5,-56.5"/>
<text text-anchor="middle" x="1230.5" y="-63.5" font-family="Helvetica,sans-Serif" font-size="10.00">QThread</text>
</a>
</g>
</g>
<!-- Node18&#45;&gt;Node27 -->
<g id="edge29" class="edge">
<title>Node18&#45;&gt;Node27</title>
<path fill="none" stroke="midnightblue" d="M790.67,-118.8C864.15,-114.01 1036.24,-101.11 1191.02,-75.86"/>
<polygon fill="midnightblue" stroke="midnightblue" points="1191.9,-79.26 1201.19,-74.17 1190.75,-72.35 1191.9,-79.26"/>
</g>
<!-- Node28 -->
<g id="node28" class="node">
<title>Node28</title>
<g id="a_node28"><a xlink:title=" ">
<polygon fill="white" stroke="#bfbfbf" points="858,-56.5 858,-75.5 911,-75.5 911,-56.5 858,-56.5"/>
<text text-anchor="middle" x="884.5" y="-63.5" font-family="Helvetica,sans-Serif" font-size="10.00">QTimer</text>
</a>
</g>
</g>
<!-- Node18&#45;&gt;Node28 -->
<g id="edge30" class="edge">
<title>Node18&#45;&gt;Node28</title>
<path fill="none" stroke="midnightblue" d="M775.1,-112.44C796.49,-103.56 830.18,-89.56 854.52,-79.45"/>
<polygon fill="midnightblue" stroke="midnightblue" points="856.11,-82.58 864,-75.52 853.42,-76.12 856.11,-82.58"/>
</g>
<!-- Node19&#45;&gt;Node9 -->
<g id="edge20" class="edge">
<title>Node19&#45;&gt;Node9</title>
<path fill="none" stroke="midnightblue" d="M1014.68,-56.44C1055.23,-46.58 1121.63,-30.43 1163.38,-20.27"/>
<polygon fill="midnightblue" stroke="midnightblue" points="1164.29,-23.65 1173.18,-17.89 1162.64,-16.85 1164.29,-23.65"/>
</g>
<!-- Node20 -->
<g id="node20" class="node">
<title>Node20</title>
<g id="a_node20"><a xlink:title=" ">
<polygon fill="white" stroke="#bfbfbf" points="720,-0.5 720,-19.5 761,-19.5 761,-0.5 720,-0.5"/>
<text text-anchor="middle" x="740.5" y="-7.5" font-family="Helvetica,sans-Serif" font-size="10.00">QList</text>
</a>
</g>
</g>
<!-- Node19&#45;&gt;Node20 -->
<g id="edge19" class="edge">
<title>Node19&#45;&gt;Node20</title>
<path fill="none" stroke="midnightblue" d="M941.63,-56.44C894.45,-45.78 814.75,-27.78 771.19,-17.93"/>
<polygon fill="midnightblue" stroke="midnightblue" points="771.72,-14.46 761.19,-15.67 770.17,-21.29 771.72,-14.46"/>
</g>
<!-- Node21&#45;&gt;Node9 -->
<g id="edge22" class="edge">
<title>Node21&#45;&gt;Node9</title>
<path fill="none" stroke="midnightblue" d="M1129.32,-56.32C1142.73,-47.9 1163.32,-34.97 1179.09,-25.07"/>
<polygon fill="midnightblue" stroke="midnightblue" points="1181.11,-27.94 1187.72,-19.65 1177.39,-22.01 1181.11,-27.94"/>
</g>
<!-- Node30 -->
<g id="node30" class="node">
<title>Node30</title>
<g id="a_node30"><a xlink:href="flashbuttonwidget_8h.html" target="_top" xlink:title=" ">
<polygon fill="white" stroke="black" points="1571,-280.5 1571,-299.5 1684,-299.5 1684,-280.5 1571,-280.5"/>
<text text-anchor="middle" x="1627.5" y="-287.5" font-family="Helvetica,sans-Serif" font-size="10.00">flashbuttonwidget.h</text>
</a>
</g>
</g>
<!-- Node29&#45;&gt;Node30 -->
<g id="edge33" class="edge">
<title>Node29&#45;&gt;Node30</title>
<path fill="none" stroke="midnightblue" d="M1427.55,-392.49C1487.18,-382.38 1578.38,-365.67 1591.5,-356 1607.04,-344.54 1616.72,-324.27 1622.07,-309.4"/>
<polygon fill="midnightblue" stroke="midnightblue" points="1625.45,-310.32 1625.23,-299.73 1618.8,-308.15 1625.45,-310.32"/>
</g>
<!-- Node31 -->
<g id="node31" class="node">
<title>Node31</title>
<g id="a_node31"><a xlink:title=" ">
<polygon fill="white" stroke="#bfbfbf" points="1587.5,-224.5 1587.5,-243.5 1667.5,-243.5 1667.5,-224.5 1587.5,-224.5"/>
<text text-anchor="middle" x="1627.5" y="-231.5" font-family="Helvetica,sans-Serif" font-size="10.00">QPushButton</text>
</a>
</g>
</g>
<!-- Node30&#45;&gt;Node31 -->
<g id="edge34" class="edge">
<title>Node30&#45;&gt;Node31</title>
<path fill="none" stroke="midnightblue" d="M1627.5,-280.08C1627.5,-273.01 1627.5,-262.86 1627.5,-253.99"/>
<polygon fill="midnightblue" stroke="midnightblue" points="1631,-253.75 1627.5,-243.75 1624,-253.75 1631,-253.75"/>
</g>
<!-- Node33 -->
<g id="node33" class="node">
<title>Node33</title>
<g id="a_node33"><a xlink:href="inputdevicecalibration_8h.html" target="_top" xlink:title=" ">
<polygon fill="white" stroke="black" points="1121.5,-336.5 1121.5,-355.5 1255.5,-355.5 1255.5,-336.5 1121.5,-336.5"/>
<text text-anchor="middle" x="1188.5" y="-343.5" font-family="Helvetica,sans-Serif" font-size="10.00">inputdevicecalibration.h</text>
</a>
</g>
</g>
<!-- Node32&#45;&gt;Node33 -->
<g id="edge36" class="edge">
<title>Node32&#45;&gt;Node33</title>
<path fill="none" stroke="midnightblue" d="M1128.07,-392.32C1138.92,-384.18 1155.38,-371.84 1168.38,-362.09"/>
<polygon fill="midnightblue" stroke="midnightblue" points="1170.82,-364.63 1176.72,-355.83 1166.62,-359.03 1170.82,-364.63"/>
</g>
<!-- Node35 -->
<g id="node35" class="node">
<title>Node35</title>
<g id="a_node35"><a xlink:href="joysensordirection_8h.html" target="_top" xlink:title=" ">
<polygon fill="white" stroke="black" points="1323.5,-280.5 1323.5,-299.5 1439.5,-299.5 1439.5,-280.5 1323.5,-280.5"/>
<text text-anchor="middle" x="1381.5" y="-287.5" font-family="Helvetica,sans-Serif" font-size="10.00">joysensordirection.h</text>
</a>
</g>
</g>
<!-- Node32&#45;&gt;Node35 -->
<g id="edge38" class="edge">
<title>Node32&#45;&gt;Node35</title>
<path fill="none" stroke="midnightblue" d="M1158.14,-393.49C1227.81,-380.91 1360.55,-356.85 1361.5,-356 1374.58,-344.37 1379.21,-324.42 1380.8,-309.68"/>
<polygon fill="midnightblue" stroke="midnightblue" points="1384.3,-309.87 1381.51,-299.65 1377.32,-309.38 1384.3,-309.87"/>
</g>
<!-- Node37 -->
<g id="node37" class="node">
<title>Node37</title>
<g id="a_node37"><a xlink:href="joysensortype_8h.html" target="_top" xlink:title=" ">
<polygon fill="white" stroke="black" points="1458,-280.5 1458,-299.5 1553,-299.5 1553,-280.5 1458,-280.5"/>
<text text-anchor="middle" x="1505.5" y="-287.5" font-family="Helvetica,sans-Serif" font-size="10.00">joysensortype.h</text>
</a>
</g>
</g>
<!-- Node32&#45;&gt;Node37 -->
<g id="edge40" class="edge">
<title>Node32&#45;&gt;Node37</title>
<path fill="none" stroke="midnightblue" d="M1158.24,-393.45C1161.03,-392.95 1163.81,-392.47 1166.5,-392 1261.96,-375.42 1289.67,-386.88 1381.5,-356 1419.33,-343.28 1459.65,-320.14 1483.7,-305.17"/>
<polygon fill="midnightblue" stroke="midnightblue" points="1485.79,-307.99 1492.37,-299.69 1482.05,-302.08 1485.79,-307.99"/>
</g>
<!-- Node39 -->
<g id="node39" class="node">
<title>Node39</title>
<g id="a_node39"><a xlink:href="setjoystick_8h.html" target="_top" xlink:title=" ">
<polygon fill="white" stroke="black" points="1274,-336.5 1274,-355.5 1353,-355.5 1353,-336.5 1274,-336.5"/>
<text text-anchor="middle" x="1313.5" y="-343.5" font-family="Helvetica,sans-Serif" font-size="10.00">setjoystick.h</text>
</a>
</g>
</g>
<!-- Node32&#45;&gt;Node39 -->
<g id="edge43" class="edge">
<title>Node32&#45;&gt;Node39</title>
<path fill="none" stroke="midnightblue" d="M1147.72,-392.44C1181.43,-383.2 1235.3,-368.44 1272.43,-358.26"/>
<polygon fill="midnightblue" stroke="midnightblue" points="1273.71,-361.54 1282.43,-355.52 1271.86,-354.78 1273.71,-361.54"/>
</g>
<!-- Node50 -->
<g id="node46" class="node">
<title>Node50</title>
<g id="a_node46"><a xlink:title=" ">
<polygon fill="white" stroke="#bfbfbf" points="987.5,-336.5 987.5,-355.5 1103.5,-355.5 1103.5,-336.5 987.5,-336.5"/>
<text text-anchor="middle" x="1045.5" y="-343.5" font-family="Helvetica,sans-Serif" font-size="10.00">SDL2/SDL_joystick.h</text>
</a>
</g>
</g>
<!-- Node32&#45;&gt;Node50 -->
<g id="edge58" class="edge">
<title>Node32&#45;&gt;Node50</title>
<path fill="none" stroke="midnightblue" d="M1105.09,-392.32C1094.39,-384.18 1078.16,-371.84 1065.34,-362.09"/>
<polygon fill="midnightblue" stroke="midnightblue" points="1067.19,-359.1 1057.11,-355.83 1062.96,-364.67 1067.19,-359.1"/>
</g>
<!-- Node33&#45;&gt;Node34 -->
<g id="edge37" class="edge">
<title>Node33&#45;&gt;Node34</title>
<path fill="none" stroke="midnightblue" d="M1163.94,-336.44C1137.98,-327.4 1096.83,-313.06 1067.7,-302.92"/>
<polygon fill="midnightblue" stroke="midnightblue" points="1068.54,-299.5 1057.95,-299.52 1066.24,-306.11 1068.54,-299.5"/>
</g>
<!-- Node36 -->
<g id="node36" class="node">
<title>Node36</title>
<g id="a_node36"><a xlink:title=" ">
<polygon fill="white" stroke="#bfbfbf" points="1367,-224.5 1367,-243.5 1438,-243.5 1438,-224.5 1367,-224.5"/>
<text text-anchor="middle" x="1402.5" y="-231.5" font-family="Helvetica,sans-Serif" font-size="10.00">QMetaType</text>
</a>
</g>
</g>
<!-- Node35&#45;&gt;Node36 -->
<g id="edge39" class="edge">
<title>Node35&#45;&gt;Node36</title>
<path fill="none" stroke="midnightblue" d="M1384.97,-280.08C1387.81,-272.77 1391.93,-262.18 1395.46,-253.1"/>
<polygon fill="midnightblue" stroke="midnightblue" points="1398.73,-254.34 1399.1,-243.75 1392.21,-251.8 1398.73,-254.34"/>
</g>
<!-- Node37&#45;&gt;Node36 -->
<g id="edge41" class="edge">
<title>Node37&#45;&gt;Node36</title>
<path fill="none" stroke="midnightblue" d="M1488.95,-280.32C1472.51,-271.7 1447.07,-258.36 1428.03,-248.39"/>
<polygon fill="midnightblue" stroke="midnightblue" points="1429.49,-245.2 1419.01,-243.65 1426.24,-251.4 1429.49,-245.2"/>
</g>
<!-- Node38 -->
<g id="node38" class="node">
<title>Node38</title>
<g id="a_node38"><a xlink:title=" ">
<polygon fill="white" stroke="#bfbfbf" points="1469.5,-224.5 1469.5,-243.5 1541.5,-243.5 1541.5,-224.5 1469.5,-224.5"/>
<text text-anchor="middle" x="1505.5" y="-231.5" font-family="Helvetica,sans-Serif" font-size="10.00">SDL2/SDL.h</text>
</a>
</g>
</g>
<!-- Node37&#45;&gt;Node38 -->
<g id="edge42" class="edge">
<title>Node37&#45;&gt;Node38</title>
<path fill="none" stroke="midnightblue" d="M1505.5,-280.08C1505.5,-273.01 1505.5,-262.86 1505.5,-253.99"/>
<polygon fill="midnightblue" stroke="midnightblue" points="1509,-253.75 1505.5,-243.75 1502,-253.75 1509,-253.75"/>
</g>
<!-- Node39&#45;&gt;Node35 -->
<g id="edge54" class="edge">
<title>Node39&#45;&gt;Node35</title>
<path fill="none" stroke="midnightblue" d="M1324.43,-336.32C1334.67,-328.18 1350.22,-315.84 1362.5,-306.09"/>
<polygon fill="midnightblue" stroke="midnightblue" points="1364.72,-308.79 1370.38,-299.83 1360.37,-303.31 1364.72,-308.79"/>
</g>
<!-- Node39&#45;&gt;Node37 -->
<g id="edge55" class="edge">
<title>Node39&#45;&gt;Node37</title>
<path fill="none" stroke="midnightblue" d="M1343.92,-336.44C1376.78,-327.2 1429.28,-312.44 1465.47,-302.26"/>
<polygon fill="midnightblue" stroke="midnightblue" points="1466.54,-305.59 1475.22,-299.52 1464.65,-298.85 1466.54,-305.59"/>
</g>
<!-- Node40 -->
<g id="node40" class="node">
<title>Node40</title>
<g id="a_node40"><a xlink:href="joyaxis_8h.html" target="_top" xlink:title=" ">
<polygon fill="white" stroke="black" points="1150,-280.5 1150,-299.5 1211,-299.5 1211,-280.5 1150,-280.5"/>
<text text-anchor="middle" x="1180.5" y="-287.5" font-family="Helvetica,sans-Serif" font-size="10.00">joyaxis.h</text>
</a>
</g>
</g>
<!-- Node39&#45;&gt;Node40 -->
<g id="edge44" class="edge">
<title>Node39&#45;&gt;Node40</title>
<path fill="none" stroke="midnightblue" d="M1292.43,-336.44C1270.44,-327.52 1235.77,-313.44 1210.84,-303.32"/>
<polygon fill="midnightblue" stroke="midnightblue" points="1212.06,-300.04 1201.48,-299.52 1209.42,-306.52 1212.06,-300.04"/>
</g>
<!-- Node49 -->
<g id="node45" class="node">
<title>Node49</title>
<g id="a_node45"><a xlink:href="setjoystickxml_8h.html" target="_top" xlink:title=" ">
<polygon fill="white" stroke="black" points="1304,-168.5 1304,-187.5 1423,-187.5 1423,-168.5 1304,-168.5"/>
<text text-anchor="middle" x="1363.5" y="-175.5" font-family="Helvetica,sans-Serif" font-size="10.00">xml/setjoystickxml.h</text>
</a>
</g>
</g>
<!-- Node39&#45;&gt;Node49 -->
<g id="edge56" class="edge">
<title>Node39&#45;&gt;Node49</title>
<path fill="none" stroke="midnightblue" d="M1312.47,-336.44C1311.21,-323.87 1309.8,-299.76 1314.5,-280 1321.95,-248.7 1340.17,-215.76 1352.17,-196.32"/>
<polygon fill="midnightblue" stroke="midnightblue" points="1355.24,-198.01 1357.64,-187.69 1349.33,-194.26 1355.24,-198.01"/>
</g>
<!-- Node40&#45;&gt;Node9 -->
<g id="edge46" class="edge">
<title>Node40&#45;&gt;Node9</title>
<path fill="none" stroke="midnightblue" d="M1205.34,-280.46C1222.18,-273.35 1243.48,-261.54 1255.5,-244 1298.32,-181.49 1278.03,-151.49 1284.5,-76 1285.26,-67.14 1289.05,-63.64 1284.5,-56 1274.62,-39.4 1256.24,-28.55 1239.29,-21.67"/>
<polygon fill="midnightblue" stroke="midnightblue" points="1240.14,-18.25 1229.54,-18.06 1237.71,-24.81 1240.14,-18.25"/>
</g>
<!-- Node40&#45;&gt;Node20 -->
<g id="edge45" class="edge">
<title>Node40&#45;&gt;Node20</title>
<path fill="none" stroke="midnightblue" d="M1149.94,-284.76C1100.72,-277.7 1000.94,-262.49 917.5,-244 900.21,-240.17 313.25,-90.08 302.5,-76 297.11,-68.93 296.54,-62.6 302.5,-56 329.75,-25.81 614.34,-14.72 709.62,-11.83"/>
<polygon fill="midnightblue" stroke="midnightblue" points="709.87,-15.33 719.76,-11.54 709.67,-8.33 709.87,-15.33"/>
</g>
<!-- Node41 -->
<g id="node41" class="node">
<title>Node41</title>
<g id="a_node41"><a xlink:href="haptictriggermodeps5_8h.html" target="_top" xlink:title=" ">
<polygon fill="white" stroke="black" points="1114,-224.5 1114,-243.5 1247,-243.5 1247,-224.5 1114,-224.5"/>
<text text-anchor="middle" x="1180.5" y="-231.5" font-family="Helvetica,sans-Serif" font-size="10.00">haptictriggermodeps5.h</text>
</a>
</g>
</g>
<!-- Node40&#45;&gt;Node41 -->
<g id="edge47" class="edge">
<title>Node40&#45;&gt;Node41</title>
<path fill="none" stroke="midnightblue" d="M1180.5,-280.08C1180.5,-273.01 1180.5,-262.86 1180.5,-253.99"/>
<polygon fill="midnightblue" stroke="midnightblue" points="1184,-253.75 1180.5,-243.75 1177,-253.75 1184,-253.75"/>
</g>
<!-- Node42 -->
<g id="node42" class="node">
<title>Node42</title>
<g id="a_node42"><a xlink:href="joyaxisbutton_8h.html" target="_top" xlink:title=" ">
<polygon fill="white" stroke="black" points="927,-224.5 927,-243.5 1096,-243.5 1096,-224.5 927,-224.5"/>
<text text-anchor="middle" x="1011.5" y="-231.5" font-family="Helvetica,sans-Serif" font-size="10.00">joybuttontypes/joyaxisbutton.h</text>
</a>
</g>
</g>
<!-- Node40&#45;&gt;Node42 -->
<g id="edge48" class="edge">
<title>Node40&#45;&gt;Node42</title>
<path fill="none" stroke="midnightblue" d="M1153.72,-280.44C1125.17,-271.32 1079.77,-256.81 1047.96,-246.65"/>
<polygon fill="midnightblue" stroke="midnightblue" points="1048.74,-243.23 1038.15,-243.52 1046.61,-249.89 1048.74,-243.23"/>
</g>
<!-- Node43 -->
<g id="node43" class="node">
<title>Node43</title>
<g id="a_node43"><a xlink:href="joygradientbutton_8h.html" target="_top" xlink:title=" ">
<polygon fill="white" stroke="black" points="789,-168.5 789,-187.5 978,-187.5 978,-168.5 789,-168.5"/>
<text text-anchor="middle" x="883.5" y="-175.5" font-family="Helvetica,sans-Serif" font-size="10.00">joybuttontypes/joygradientbutton.h</text>
</a>
</g>
</g>
<!-- Node42&#45;&gt;Node43 -->
<g id="edge49" class="edge">
<title>Node42&#45;&gt;Node43</title>
<path fill="none" stroke="midnightblue" d="M991.22,-224.44C970.15,-215.56 936.98,-201.56 913.01,-191.45"/>
<polygon fill="midnightblue" stroke="midnightblue" points="914.26,-188.18 903.69,-187.52 911.54,-194.63 914.26,-188.18"/>
</g>
<!-- Node44 -->
<g id="node44" class="node">
<title>Node44</title>
<g id="a_node44"><a xlink:href="logger_8h.html" target="_top" xlink:title=" ">
<polygon fill="white" stroke="red" points="1202.5,-112.5 1202.5,-131.5 1258.5,-131.5 1258.5,-112.5 1202.5,-112.5"/>
<text text-anchor="middle" x="1230.5" y="-119.5" font-family="Helvetica,sans-Serif" font-size="10.00">logger.h</text>
</a>
</g>
</g>
<!-- Node42&#45;&gt;Node44 -->
<g id="edge51" class="edge">
<title>Node42&#45;&gt;Node44</title>
<path fill="none" stroke="midnightblue" d="M1028.68,-224.37C1066.82,-205.21 1158.76,-159.04 1204.19,-136.22"/>
<polygon fill="midnightblue" stroke="midnightblue" points="1206.03,-139.21 1213.4,-131.59 1202.89,-132.95 1206.03,-139.21"/>
</g>
<!-- Node43&#45;&gt;Node18 -->
<g id="edge50" class="edge">
<title>Node43&#45;&gt;Node18</title>
<path fill="none" stroke="midnightblue" d="M863.06,-168.44C841.83,-159.56 808.4,-145.56 784.25,-135.45"/>
<polygon fill="midnightblue" stroke="midnightblue" points="785.42,-132.15 774.84,-131.52 782.72,-138.61 785.42,-132.15"/>
</g>
<!-- Node44&#45;&gt;Node9 -->
<g id="edge52" class="edge">
<title>Node44&#45;&gt;Node9</title>
<path fill="none" stroke="midnightblue" d="M1241.98,-112.29C1256.8,-99.94 1279.44,-76.53 1268.5,-56 1260.95,-41.83 1246.74,-31.33 1233.34,-24.06"/>
<polygon fill="midnightblue" stroke="midnightblue" points="1234.8,-20.87 1224.29,-19.53 1231.67,-27.13 1234.8,-20.87"/>
</g>
<!-- Node44&#45;&gt;Node27 -->
<g id="edge53" class="edge">
<title>Node44&#45;&gt;Node27</title>
<path fill="none" stroke="midnightblue" d="M1230.5,-112.08C1230.5,-105.01 1230.5,-94.86 1230.5,-85.99"/>
<polygon fill="midnightblue" stroke="midnightblue" points="1234,-85.75 1230.5,-75.75 1227,-85.75 1234,-85.75"/>
</g>
<!-- Node49&#45;&gt;Node9 -->
<g id="edge57" class="edge">
<title>Node49&#45;&gt;Node9</title>
<path fill="none" stroke="midnightblue" d="M1364.49,-168.42C1366.5,-146.68 1368.64,-88.84 1339.5,-56 1314.33,-27.63 1271.07,-17.07 1239.68,-13.17"/>
<polygon fill="midnightblue" stroke="midnightblue" points="1239.85,-9.67 1229.53,-12.1 1239.1,-16.63 1239.85,-9.67"/>
</g>
<!-- Node52 -->
<g id="node48" class="node">
<title>Node52</title>
<g id="a_node48"><a xlink:href="joybuttonwidget_8h.html" target="_top" xlink:title=" ">
<polygon fill="white" stroke="black" points="1477,-336.5 1477,-355.5 1582,-355.5 1582,-336.5 1477,-336.5"/>
<text text-anchor="middle" x="1529.5" y="-343.5" font-family="Helvetica,sans-Serif" font-size="10.00">joybuttonwidget.h</text>
</a>
</g>
</g>
<!-- Node51&#45;&gt;Node52 -->
<g id="edge61" class="edge">
<title>Node51&#45;&gt;Node52</title>
<path fill="none" stroke="midnightblue" d="M1286.29,-392.44C1337.24,-382.92 1419.53,-367.55 1474.07,-357.36"/>
<polygon fill="midnightblue" stroke="midnightblue" points="1474.73,-360.79 1483.92,-355.52 1473.45,-353.91 1474.73,-360.79"/>
</g>
<!-- Node52&#45;&gt;Node30 -->
<g id="edge62" class="edge">
<title>Node52&#45;&gt;Node30</title>
<path fill="none" stroke="midnightblue" d="M1545.25,-336.32C1560.82,-327.74 1584.88,-314.49 1602.96,-304.52"/>
<polygon fill="midnightblue" stroke="midnightblue" points="1604.72,-307.55 1611.79,-299.65 1601.35,-301.42 1604.72,-307.55"/>
</g>
</g>
</svg>
        <g id="navigator" transform="translate(0 0)" fill="#404254">
                <rect fill="#f2f5e9" fill-opacity="0.5" stroke="#606060" stroke-width=".5" x="0" y="0" width="60" height="60"/>
                <use id="zoomplus" xlink:href="#zoomPlus" x="17" y="9" onmousedown="handleZoom(evt,'in')"/>
                <use id="zoomminus" xlink:href="#zoomMin" x="42" y="9" onmousedown="handleZoom(evt,'out')"/>
                <use id="reset" xlink:href="#resetDef" x="30" y="36" onmousedown="handleReset()"/>
                <g id="arrowUp" xlink:href="#dirArrow" transform="translate(30 24)" onmousedown="handlePan(0,-1)">
                  <use xlink:href="#rim" fill="#404040">
                        <set attributeName="fill" to="#808080" begin="arrowUp.mouseover" end="arrowUp.mouseout"/>
                  </use>
                  <path fill="none" stroke="white" stroke-width="1.5" d="M0,-3.0v7 M-2.5,-0.5L0,-3.0L2.5,-0.5"/>
                </g>
                <g id="arrowRight" xlink:href="#dirArrow" transform="rotate(90) translate(36 -43)" onmousedown="handlePan(1,0)">
                  <use xlink:href="#rim" fill="#404040">
                        <set attributeName="fill" to="#808080" begin="arrowRight.mouseover" end="arrowRight.mouseout"/>
                  </use>
                  <path fill="none" stroke="white" stroke-width="1.5" d="M0,-3.0v7 M-2.5,-0.5L0,-3.0L2.5,-0.5"/>
                </g>
                <g id="arrowDown" xlink:href="#dirArrow" transform="rotate(180) translate(-30 -48)" onmousedown="handlePan(0,1)">
                  <use xlink:href="#rim" fill="#404040">
                        <set attributeName="fill" to="#808080" begin="arrowDown.mouseover" end="arrowDown.mouseout"/>
                  </use>
                  <path fill="none" stroke="white" stroke-width="1.5" d="M0,-3.0v7 M-2.5,-0.5L0,-3.0L2.5,-0.5"/>
                </g>
                <g id="arrowLeft" xlink:href="#dirArrow" transform="rotate(270) translate(-36 17)" onmousedown="handlePan(-1,0)">
                  <use xlink:href="#rim" fill="#404040">
                        <set attributeName="fill" to="#808080" begin="arrowLeft.mouseover" end="arrowLeft.mouseout"/>
                  </use>
                  <path fill="none" stroke="white" stroke-width="1.5" d="M0,-3.0v7 M-2.5,-0.5L0,-3.0L2.5,-0.5"/>
                </g>
        </g>
        <svg viewBox="0 0 15 15" width="100%" height="30px" preserveAspectRatio="xMaxYMin meet">
         <g id="arrow_out" transform="scale(0.3 0.3)">
          <a xlink:href="dpadpushbuttongroup_8cpp__incl_org.svg" target="_base">
           <rect id="button" ry="5" rx="5" y="6" x="6" height="38" width="38"
                fill="#f2f5e9" fill-opacity="0.5" stroke="#606060" stroke-width="1.0"/>
           <path id="arrow"
             d="M 11.500037,31.436501 C 11.940474,20.09759 22.043105,11.32322 32.158766,21.979434 L 37.068811,17.246167 C 37.068811,17.246167 37.088388,32 37.088388,32 L 22.160133,31.978069 C 22.160133,31.978069 26.997745,27.140456 26.997745,27.140456 C 18.528582,18.264221 13.291696,25.230495 11.500037,31.436501 z"
             style="fill:#404040;"/>
          </a>
         </g>
        </svg>
</svg>
