<?xml version="1.0" encoding="UTF-8" standalone="no"?>
<!DOCTYPE svg PUBLIC "-//W3C//DTD SVG 1.1//EN"
 "http://www.w3.org/Graphics/SVG/1.1/DTD/svg11.dtd">
<!-- Generated by graphviz version 2.43.0 (0)
 -->
<!-- Title: /home/runner/work/doxygen/antimicrox/src/event.cpp Pages: 1 -->
<svg width="2465pt" height="375pt"
 viewBox="0.00 0.00 2464.50 375.00" xmlns="http://www.w3.org/2000/svg" xmlns:xlink="http://www.w3.org/1999/xlink">
<g id="graph0" class="graph" transform="scale(1 1) rotate(0) translate(4 371)">
<title>/home/runner/work/doxygen/antimicrox/src/event.cpp</title>
<polygon fill="white" stroke="transparent" points="-4,4 -4,-371 2460.5,-371 2460.5,4 -4,4"/>
<!-- Node1 -->
<g id="node1" class="node">
<title>Node1</title>
<g id="a_node1"><a xlink:title=" ">
<polygon fill="#bfbfbf" stroke="black" points="1776,-336.5 1776,-366.5 1930,-366.5 1930,-336.5 1776,-336.5"/>
<text text-anchor="start" x="1784" y="-354.5" font-family="Helvetica,sans-Serif" font-size="10.00">/home/runner/work/doxygen</text>
<text text-anchor="middle" x="1853" y="-343.5" font-family="Helvetica,sans-Serif" font-size="10.00">/antimicrox/src/event.cpp</text>
</a>
</g>
</g>
<!-- Node2 -->
<g id="node2" class="node">
<title>Node2</title>
<g id="a_node2"><a xlink:title=" ">
<polygon fill="white" stroke="#bfbfbf" points="4.5,-56.5 4.5,-75.5 83.5,-75.5 83.5,-56.5 4.5,-56.5"/>
<text text-anchor="middle" x="44" y="-63.5" font-family="Helvetica,sans-Serif" font-size="10.00">QApplication</text>
</a>
</g>
</g>
<!-- Node1&#45;&gt;Node2 -->
<g id="edge1" class="edge">
<title>Node1&#45;&gt;Node2</title>
<path fill="none" stroke="midnightblue" d="M1775.74,-349.79C1425.04,-346.08 0,-325.45 0,-235 0,-235 0,-235 0,-177 0,-142.04 19.4,-105.01 32.43,-84.07"/>
<polygon fill="midnightblue" stroke="midnightblue" points="35.39,-85.95 37.88,-75.65 29.51,-82.15 35.39,-85.95"/>
</g>
<!-- Node3 -->
<g id="node3" class="node">
<title>Node3</title>
<g id="a_node3"><a xlink:title=" ">
<polygon fill="white" stroke="#bfbfbf" points="1881,-280.5 1881,-299.5 1937,-299.5 1937,-280.5 1881,-280.5"/>
<text text-anchor="middle" x="1909" y="-287.5" font-family="Helvetica,sans-Serif" font-size="10.00">QCursor</text>
</a>
</g>
</g>
<!-- Node1&#45;&gt;Node3 -->
<g id="edge2" class="edge">
<title>Node1&#45;&gt;Node3</title>
<path fill="none" stroke="midnightblue" d="M1866.27,-336.4C1874.58,-327.58 1885.3,-316.18 1893.92,-307.02"/>
<polygon fill="midnightblue" stroke="midnightblue" points="1896.55,-309.34 1900.85,-299.66 1891.45,-304.54 1896.55,-309.34"/>
</g>
<!-- Node4 -->
<g id="node4" class="node">
<title>Node4</title>
<g id="a_node4"><a xlink:title=" ">
<polygon fill="white" stroke="#bfbfbf" points="1955,-280.5 1955,-299.5 2011,-299.5 2011,-280.5 1955,-280.5"/>
<text text-anchor="middle" x="1983" y="-287.5" font-family="Helvetica,sans-Serif" font-size="10.00">QDebug</text>
</a>
</g>
</g>
<!-- Node1&#45;&gt;Node4 -->
<g id="edge3" class="edge">
<title>Node1&#45;&gt;Node4</title>
<path fill="none" stroke="midnightblue" d="M1883.81,-336.4C1905.33,-326.55 1933.84,-313.5 1954.77,-303.92"/>
<polygon fill="midnightblue" stroke="midnightblue" points="1956.45,-307 1964.08,-299.66 1953.53,-300.64 1956.45,-307"/>
</g>
<!-- Node5 -->
<g id="node5" class="node">
<title>Node5</title>
<g id="a_node5"><a xlink:title=" ">
<polygon fill="white" stroke="#bfbfbf" points="2029.5,-280.5 2029.5,-299.5 2128.5,-299.5 2128.5,-280.5 2029.5,-280.5"/>
<text text-anchor="middle" x="2079" y="-287.5" font-family="Helvetica,sans-Serif" font-size="10.00">QDesktopWidget</text>
</a>
</g>
</g>
<!-- Node1&#45;&gt;Node5 -->
<g id="edge4" class="edge">
<title>Node1&#45;&gt;Node5</title>
<path fill="none" stroke="midnightblue" d="M1906.27,-336.47C1946.11,-325.99 1999.86,-311.84 2036.75,-302.12"/>
<polygon fill="midnightblue" stroke="midnightblue" points="2037.91,-305.44 2046.69,-299.51 2036.13,-298.67 2037.91,-305.44"/>
</g>
<!-- Node6 -->
<g id="node6" class="node">
<title>Node6</title>
<g id="a_node6"><a xlink:title=" ">
<polygon fill="white" stroke="#bfbfbf" points="2147,-280.5 2147,-299.5 2207,-299.5 2207,-280.5 2147,-280.5"/>
<text text-anchor="middle" x="2177" y="-287.5" font-family="Helvetica,sans-Serif" font-size="10.00">QFileInfo</text>
</a>
</g>
</g>
<!-- Node1&#45;&gt;Node6 -->
<g id="edge5" class="edge">
<title>Node1&#45;&gt;Node6</title>
<path fill="none" stroke="midnightblue" d="M1930.01,-337.96C1985.01,-328.74 2060.97,-315.5 2136.62,-300.2"/>
<polygon fill="midnightblue" stroke="midnightblue" points="2137.7,-303.55 2146.8,-298.13 2136.3,-296.7 2137.7,-303.55"/>
</g>
<!-- Node7 -->
<g id="node7" class="node">
<title>Node7</title>
<g id="a_node7"><a xlink:title=" ">
<polygon fill="white" stroke="#bfbfbf" points="2225,-280.5 2225,-299.5 2311,-299.5 2311,-280.5 2225,-280.5"/>
<text text-anchor="middle" x="2268" y="-287.5" font-family="Helvetica,sans-Serif" font-size="10.00">QMessageBox</text>
</a>
</g>
</g>
<!-- Node1&#45;&gt;Node7 -->
<g id="edge6" class="edge">
<title>Node1&#45;&gt;Node7</title>
<path fill="none" stroke="midnightblue" d="M1930.29,-340.5C2001.56,-331.11 2110.54,-316.31 2214.81,-300.14"/>
<polygon fill="midnightblue" stroke="midnightblue" points="2215.55,-303.57 2224.89,-298.57 2214.47,-296.66 2215.55,-303.57"/>
</g>
<!-- Node8 -->
<g id="node8" class="node">
<title>Node8</title>
<g id="a_node8"><a xlink:title=" ">
<polygon fill="white" stroke="#bfbfbf" points="2329,-280.5 2329,-299.5 2391,-299.5 2391,-280.5 2329,-280.5"/>
<text text-anchor="middle" x="2360" y="-287.5" font-family="Helvetica,sans-Serif" font-size="10.00">QProcess</text>
</a>
</g>
</g>
<!-- Node1&#45;&gt;Node8 -->
<g id="edge7" class="edge">
<title>Node1&#45;&gt;Node8</title>
<path fill="none" stroke="midnightblue" d="M1930.22,-344.85C2020.95,-337.61 2176.15,-323.33 2318.4,-300.1"/>
<polygon fill="midnightblue" stroke="midnightblue" points="2319.33,-303.5 2328.62,-298.41 2318.19,-296.59 2319.33,-303.5"/>
</g>
<!-- Node9 -->
<g id="node9" class="node">
<title>Node9</title>
<g id="a_node9"><a xlink:title=" ">
<polygon fill="white" stroke="#bfbfbf" points="1821,-224.5 1821,-243.5 1891,-243.5 1891,-224.5 1821,-224.5"/>
<text text-anchor="middle" x="1856" y="-231.5" font-family="Helvetica,sans-Serif" font-size="10.00">QStringList</text>
</a>
</g>
</g>
<!-- Node1&#45;&gt;Node9 -->
<g id="edge8" class="edge">
<title>Node1&#45;&gt;Node9</title>
<path fill="none" stroke="midnightblue" d="M1853.37,-336.34C1853.91,-315.62 1854.91,-277.02 1855.51,-253.9"/>
<polygon fill="midnightblue" stroke="midnightblue" points="1859.01,-253.76 1855.77,-243.67 1852.02,-253.58 1859.01,-253.76"/>
</g>
<!-- Node10 -->
<g id="node10" class="node">
<title>Node10</title>
<g id="a_node10"><a xlink:title=" ">
<polygon fill="white" stroke="#bfbfbf" points="1471.5,-168.5 1471.5,-187.5 1530.5,-187.5 1530.5,-168.5 1471.5,-168.5"/>
<text text-anchor="middle" x="1501" y="-175.5" font-family="Helvetica,sans-Serif" font-size="10.00">QVariant</text>
</a>
</g>
</g>
<!-- Node1&#45;&gt;Node10 -->
<g id="edge9" class="edge">
<title>Node1&#45;&gt;Node10</title>
<path fill="none" stroke="midnightblue" d="M1788.11,-336.49C1755.86,-328.2 1716.85,-316.12 1684,-300 1631.96,-274.46 1626.63,-255.55 1578,-224 1560.79,-212.83 1540.77,-201.17 1525.45,-192.52"/>
<polygon fill="midnightblue" stroke="midnightblue" points="1527.03,-189.39 1516.6,-187.55 1523.61,-195.49 1527.03,-189.39"/>
</g>
<!-- Node11 -->
<g id="node11" class="node">
<title>Node11</title>
<g id="a_node11"><a xlink:title=" ">
<polygon fill="white" stroke="#bfbfbf" points="2409.5,-280.5 2409.5,-299.5 2456.5,-299.5 2456.5,-280.5 2409.5,-280.5"/>
<text text-anchor="middle" x="2433" y="-287.5" font-family="Helvetica,sans-Serif" font-size="10.00">cmath</text>
</a>
</g>
</g>
<!-- Node1&#45;&gt;Node11 -->
<g id="edge10" class="edge">
<title>Node1&#45;&gt;Node11</title>
<path fill="none" stroke="midnightblue" d="M1930.12,-347.61C2034.53,-342.76 2226.64,-330.52 2399.29,-299.8"/>
<polygon fill="midnightblue" stroke="midnightblue" points="2400.1,-303.21 2409.32,-297.99 2398.86,-296.32 2400.1,-303.21"/>
</g>
<!-- Node12 -->
<g id="node12" class="node">
<title>Node12</title>
<g id="a_node12"><a xlink:href="event_8h.html" target="_top" xlink:title=" ">
<polygon fill="white" stroke="black" points="918.5,-280.5 918.5,-299.5 971.5,-299.5 971.5,-280.5 918.5,-280.5"/>
<text text-anchor="middle" x="945" y="-287.5" font-family="Helvetica,sans-Serif" font-size="10.00">event.h</text>
</a>
</g>
</g>
<!-- Node1&#45;&gt;Node12 -->
<g id="edge11" class="edge">
<title>Node1&#45;&gt;Node12</title>
<path fill="none" stroke="midnightblue" d="M1775.98,-345.45C1589.2,-333.21 1117.55,-302.31 981.98,-293.42"/>
<polygon fill="midnightblue" stroke="midnightblue" points="981.92,-289.91 971.71,-292.75 981.46,-296.9 981.92,-289.91"/>
</g>
<!-- Node16 -->
<g id="node16" class="node">
<title>Node16</title>
<g id="a_node16"><a xlink:href="logger_8h.html" target="_top" xlink:title=" ">
<polygon fill="white" stroke="black" points="234,-56.5 234,-75.5 290,-75.5 290,-56.5 234,-56.5"/>
<text text-anchor="middle" x="262" y="-63.5" font-family="Helvetica,sans-Serif" font-size="10.00">logger.h</text>
</a>
</g>
</g>
<!-- Node1&#45;&gt;Node16 -->
<g id="edge60" class="edge">
<title>Node1&#45;&gt;Node16</title>
<path fill="none" stroke="midnightblue" d="M1775.9,-349.15C1461.48,-342.86 287.96,-311.21 184,-188 154.24,-152.73 207.99,-105.39 240.26,-81.74"/>
<polygon fill="midnightblue" stroke="midnightblue" points="242.59,-84.38 248.71,-75.73 238.53,-78.68 242.59,-84.38"/>
</g>
<!-- Node38 -->
<g id="node38" class="node">
<title>Node38</title>
<g id="a_node38"><a xlink:href="eventhandlerfactory_8h.html" target="_top" xlink:title=" ">
<polygon fill="white" stroke="black" points="1701.5,-280.5 1701.5,-299.5 1824.5,-299.5 1824.5,-280.5 1701.5,-280.5"/>
<text text-anchor="middle" x="1763" y="-287.5" font-family="Helvetica,sans-Serif" font-size="10.00">eventhandlerfactory.h</text>
</a>
</g>
</g>
<!-- Node1&#45;&gt;Node38 -->
<g id="edge42" class="edge">
<title>Node1&#45;&gt;Node38</title>
<path fill="none" stroke="midnightblue" d="M1831.67,-336.4C1817.51,-327.04 1798.99,-314.79 1784.75,-305.38"/>
<polygon fill="midnightblue" stroke="midnightblue" points="1786.37,-302.25 1776.1,-299.66 1782.51,-308.09 1786.37,-302.25"/>
</g>
<!-- Node39 -->
<g id="node39" class="node">
<title>Node39</title>
<g id="a_node39"><a xlink:href="globalvariables_8h.html" target="_top" xlink:title=" ">
<polygon fill="white" stroke="black" points="1663.5,-224.5 1663.5,-243.5 1764.5,-243.5 1764.5,-224.5 1663.5,-224.5"/>
<text text-anchor="middle" x="1714" y="-231.5" font-family="Helvetica,sans-Serif" font-size="10.00">globalvariables.h</text>
</a>
</g>
</g>
<!-- Node1&#45;&gt;Node39 -->
<g id="edge45" class="edge">
<title>Node1&#45;&gt;Node39</title>
<path fill="none" stroke="midnightblue" d="M1775.97,-345.43C1745.03,-339.15 1712.2,-326.19 1693,-300 1682.53,-285.72 1691.42,-265.99 1700.64,-252.02"/>
<polygon fill="midnightblue" stroke="midnightblue" points="1703.56,-253.95 1706.55,-243.79 1697.88,-249.87 1703.56,-253.95"/>
</g>
<!-- Node41 -->
<g id="node41" class="node">
<title>Node41</title>
<g id="a_node41"><a xlink:href="joybutton_8h.html" target="_top" xlink:title=" ">
<polygon fill="white" stroke="black" points="1307.5,-280.5 1307.5,-299.5 1456.5,-299.5 1456.5,-280.5 1307.5,-280.5"/>
<text text-anchor="middle" x="1382" y="-287.5" font-family="Helvetica,sans-Serif" font-size="10.00">joybuttontypes/joybutton.h</text>
</a>
</g>
</g>
<!-- Node1&#45;&gt;Node41 -->
<g id="edge48" class="edge">
<title>Node1&#45;&gt;Node41</title>
<path fill="none" stroke="midnightblue" d="M1775.75,-340.74C1688.39,-329.71 1546.95,-311.84 1459.49,-300.79"/>
<polygon fill="midnightblue" stroke="midnightblue" points="1459.72,-297.29 1449.36,-299.51 1458.84,-304.24 1459.72,-297.29"/>
</g>
<!-- Node13 -->
<g id="node13" class="node">
<title>Node13</title>
<g id="a_node13"><a xlink:href="common_8h.html" target="_top" xlink:title=" ">
<polygon fill="white" stroke="black" points="521,-224.5 521,-243.5 589,-243.5 589,-224.5 521,-224.5"/>
<text text-anchor="middle" x="555" y="-231.5" font-family="Helvetica,sans-Serif" font-size="10.00">common.h</text>
</a>
</g>
</g>
<!-- Node12&#45;&gt;Node13 -->
<g id="edge12" class="edge">
<title>Node12&#45;&gt;Node13</title>
<path fill="none" stroke="midnightblue" d="M918.19,-285.29C852.01,-276.13 680.36,-252.36 599.01,-241.09"/>
<polygon fill="midnightblue" stroke="midnightblue" points="599.46,-237.62 589.08,-239.72 598.5,-244.56 599.46,-237.62"/>
</g>
<!-- Node32 -->
<g id="node32" class="node">
<title>Node32</title>
<g id="a_node32"><a xlink:href="joybuttonslot_8h.html" target="_top" xlink:title=" ">
<polygon fill="white" stroke="black" points="1049,-224.5 1049,-243.5 1139,-243.5 1139,-224.5 1049,-224.5"/>
<text text-anchor="middle" x="1094" y="-231.5" font-family="Helvetica,sans-Serif" font-size="10.00">joybuttonslot.h</text>
</a>
</g>
</g>
<!-- Node12&#45;&gt;Node32 -->
<g id="edge34" class="edge">
<title>Node12&#45;&gt;Node32</title>
<path fill="none" stroke="midnightblue" d="M968.61,-280.44C993.46,-271.44 1032.77,-257.19 1060.75,-247.05"/>
<polygon fill="midnightblue" stroke="midnightblue" points="1062.29,-250.21 1070.5,-243.52 1059.91,-243.63 1062.29,-250.21"/>
</g>
<!-- Node37 -->
<g id="node37" class="node">
<title>Node37</title>
<g id="a_node37"><a xlink:href="springmousemoveinfo_8h.html" target="_top" xlink:title=" ">
<polygon fill="white" stroke="black" points="729.5,-224.5 729.5,-243.5 864.5,-243.5 864.5,-224.5 729.5,-224.5"/>
<text text-anchor="middle" x="797" y="-231.5" font-family="Helvetica,sans-Serif" font-size="10.00">springmousemoveinfo.h</text>
</a>
</g>
</g>
<!-- Node12&#45;&gt;Node37 -->
<g id="edge41" class="edge">
<title>Node12&#45;&gt;Node37</title>
<path fill="none" stroke="midnightblue" d="M921.55,-280.44C896.87,-271.44 857.81,-257.19 830.02,-247.05"/>
<polygon fill="midnightblue" stroke="midnightblue" points="830.94,-243.66 820.34,-243.52 828.54,-250.23 830.94,-243.66"/>
</g>
<!-- Node14 -->
<g id="node14" class="node">
<title>Node14</title>
<g id="a_node14"><a xlink:href="antimicrosettings_8h.html" target="_top" xlink:title=" ">
<polygon fill="white" stroke="black" points="192.5,-168.5 192.5,-187.5 303.5,-187.5 303.5,-168.5 192.5,-168.5"/>
<text text-anchor="middle" x="248" y="-175.5" font-family="Helvetica,sans-Serif" font-size="10.00">antimicrosettings.h</text>
</a>
</g>
</g>
<!-- Node13&#45;&gt;Node14 -->
<g id="edge13" class="edge">
<title>Node13&#45;&gt;Node14</title>
<path fill="none" stroke="midnightblue" d="M520.97,-227.01C469.18,-217.9 369.9,-200.44 306.42,-189.28"/>
<polygon fill="midnightblue" stroke="midnightblue" points="307,-185.82 296.55,-187.54 305.79,-192.72 307,-185.82"/>
</g>
<!-- Node21 -->
<g id="node21" class="node">
<title>Node21</title>
<g id="a_node21"><a xlink:title=" ">
<polygon fill="white" stroke="#bfbfbf" points="494,-0.5 494,-19.5 552,-19.5 552,-0.5 494,-0.5"/>
<text text-anchor="middle" x="523" y="-7.5" font-family="Helvetica,sans-Serif" font-size="10.00">QThread</text>
</a>
</g>
</g>
<!-- Node13&#45;&gt;Node21 -->
<g id="edge30" class="edge">
<title>Node13&#45;&gt;Node21</title>
<path fill="none" stroke="midnightblue" d="M552.06,-224.48C549.07,-215.51 544.54,-200.93 542,-188 530.8,-131.01 525.8,-62.31 523.94,-29.8"/>
<polygon fill="midnightblue" stroke="midnightblue" points="527.42,-29.35 523.39,-19.55 520.43,-29.73 527.42,-29.35"/>
</g>
<!-- Node24 -->
<g id="node24" class="node">
<title>Node24</title>
<g id="a_node24"><a xlink:title=" ">
<polygon fill="white" stroke="#bfbfbf" points="321.5,-168.5 321.5,-187.5 376.5,-187.5 376.5,-168.5 321.5,-168.5"/>
<text text-anchor="middle" x="349" y="-175.5" font-family="Helvetica,sans-Serif" font-size="10.00">config.h</text>
</a>
</g>
</g>
<!-- Node13&#45;&gt;Node24 -->
<g id="edge24" class="edge">
<title>Node13&#45;&gt;Node24</title>
<path fill="none" stroke="midnightblue" d="M522.36,-224.44C485.39,-214.75 425.25,-198.99 386.41,-188.81"/>
<polygon fill="midnightblue" stroke="midnightblue" points="387.1,-185.37 376.54,-186.22 385.33,-192.14 387.1,-185.37"/>
</g>
<!-- Node25 -->
<g id="node25" class="node">
<title>Node25</title>
<g id="a_node25"><a xlink:href="mousehelper_8h.html" target="_top" xlink:title=" ">
<polygon fill="white" stroke="black" points="921.5,-168.5 921.5,-187.5 1010.5,-187.5 1010.5,-168.5 921.5,-168.5"/>
<text text-anchor="middle" x="966" y="-175.5" font-family="Helvetica,sans-Serif" font-size="10.00">mousehelper.h</text>
</a>
</g>
</g>
<!-- Node13&#45;&gt;Node25 -->
<g id="edge25" class="edge">
<title>Node13&#45;&gt;Node25</title>
<path fill="none" stroke="midnightblue" d="M589.33,-228.49C660.62,-219.12 825.17,-197.5 911.26,-186.19"/>
<polygon fill="midnightblue" stroke="midnightblue" points="911.9,-189.64 921.36,-184.87 910.99,-182.7 911.9,-189.64"/>
</g>
<!-- Node27 -->
<g id="node27" class="node">
<title>Node27</title>
<g id="a_node27"><a xlink:title=" ">
<polygon fill="white" stroke="#bfbfbf" points="395,-168.5 395,-187.5 433,-187.5 433,-168.5 395,-168.5"/>
<text text-anchor="middle" x="414" y="-175.5" font-family="Helvetica,sans-Serif" font-size="10.00">QDir</text>
</a>
</g>
</g>
<!-- Node13&#45;&gt;Node27 -->
<g id="edge28" class="edge">
<title>Node13&#45;&gt;Node27</title>
<path fill="none" stroke="midnightblue" d="M532.66,-224.44C508.28,-215.11 469.2,-200.14 442.6,-189.95"/>
<polygon fill="midnightblue" stroke="midnightblue" points="443.66,-186.61 433.07,-186.3 441.16,-193.15 443.66,-186.61"/>
</g>
<!-- Node28 -->
<g id="node28" class="node">
<title>Node28</title>
<g id="a_node28"><a xlink:title=" ">
<polygon fill="white" stroke="#bfbfbf" points="451,-168.5 451,-187.5 495,-187.5 495,-168.5 451,-168.5"/>
<text text-anchor="middle" x="473" y="-175.5" font-family="Helvetica,sans-Serif" font-size="10.00">QIcon</text>
</a>
</g>
</g>
<!-- Node13&#45;&gt;Node28 -->
<g id="edge29" class="edge">
<title>Node13&#45;&gt;Node28</title>
<path fill="none" stroke="midnightblue" d="M541.83,-224.32C529.15,-215.98 509.77,-203.21 494.79,-193.35"/>
<polygon fill="midnightblue" stroke="midnightblue" points="496.42,-190.23 486.14,-187.65 492.57,-196.08 496.42,-190.23"/>
</g>
<!-- Node29 -->
<g id="node29" class="node">
<title>Node29</title>
<g id="a_node29"><a xlink:title=" ">
<polygon fill="white" stroke="#bfbfbf" points="551,-168.5 551,-187.5 623,-187.5 623,-168.5 551,-168.5"/>
<text text-anchor="middle" x="587" y="-175.5" font-family="Helvetica,sans-Serif" font-size="10.00">QTranslator</text>
</a>
</g>
</g>
<!-- Node13&#45;&gt;Node29 -->
<g id="edge31" class="edge">
<title>Node13&#45;&gt;Node29</title>
<path fill="none" stroke="midnightblue" d="M560.28,-224.08C564.71,-216.61 571.16,-205.72 576.62,-196.52"/>
<polygon fill="midnightblue" stroke="midnightblue" points="579.73,-198.14 581.81,-187.75 573.71,-194.57 579.73,-198.14"/>
</g>
<!-- Node30 -->
<g id="node30" class="node">
<title>Node30</title>
<g id="a_node30"><a xlink:title=" ">
<polygon fill="white" stroke="#bfbfbf" points="641,-168.5 641,-187.5 733,-187.5 733,-168.5 641,-168.5"/>
<text text-anchor="middle" x="687" y="-175.5" font-family="Helvetica,sans-Serif" font-size="10.00">QWaitCondition</text>
</a>
</g>
</g>
<!-- Node13&#45;&gt;Node30 -->
<g id="edge32" class="edge">
<title>Node13&#45;&gt;Node30</title>
<path fill="none" stroke="midnightblue" d="M575.92,-224.44C597.74,-215.52 632.15,-201.44 656.89,-191.32"/>
<polygon fill="midnightblue" stroke="midnightblue" points="658.25,-194.54 666.18,-187.52 655.6,-188.06 658.25,-194.54"/>
</g>
<!-- Node31 -->
<g id="node31" class="node">
<title>Node31</title>
<g id="a_node31"><a xlink:title=" ">
<polygon fill="white" stroke="#bfbfbf" points="751.5,-168.5 751.5,-187.5 864.5,-187.5 864.5,-168.5 751.5,-168.5"/>
<text text-anchor="middle" x="808" y="-175.5" font-family="Helvetica,sans-Serif" font-size="10.00">SDL2/SDL_version.h</text>
</a>
</g>
</g>
<!-- Node13&#45;&gt;Node31 -->
<g id="edge33" class="edge">
<title>Node13&#45;&gt;Node31</title>
<path fill="none" stroke="midnightblue" d="M589.12,-225.72C632.53,-216.45 707.85,-200.38 757.81,-189.71"/>
<polygon fill="midnightblue" stroke="midnightblue" points="758.71,-193.1 767.75,-187.59 757.24,-186.25 758.71,-193.1"/>
</g>
<!-- Node15 -->
<g id="node15" class="node">
<title>Node15</title>
<g id="a_node15"><a xlink:href="commandlineutility_8h.html" target="_top" xlink:title=" ">
<polygon fill="white" stroke="black" points="28.5,-112.5 28.5,-131.5 147.5,-131.5 147.5,-112.5 28.5,-112.5"/>
<text text-anchor="middle" x="88" y="-119.5" font-family="Helvetica,sans-Serif" font-size="10.00">commandlineutility.h</text>
</a>
</g>
</g>
<!-- Node14&#45;&gt;Node15 -->
<g id="edge14" class="edge">
<title>Node14&#45;&gt;Node15</title>
<path fill="none" stroke="midnightblue" d="M222.65,-168.44C195.73,-159.36 153,-144.94 122.91,-134.78"/>
<polygon fill="midnightblue" stroke="midnightblue" points="123.83,-131.4 113.23,-131.52 121.59,-138.03 123.83,-131.4"/>
</g>
<!-- Node23 -->
<g id="node23" class="node">
<title>Node23</title>
<g id="a_node23"><a xlink:title=" ">
<polygon fill="white" stroke="#bfbfbf" points="216,-112.5 216,-131.5 280,-131.5 280,-112.5 216,-112.5"/>
<text text-anchor="middle" x="248" y="-119.5" font-family="Helvetica,sans-Serif" font-size="10.00">QSettings</text>
</a>
</g>
</g>
<!-- Node14&#45;&gt;Node23 -->
<g id="edge23" class="edge">
<title>Node14&#45;&gt;Node23</title>
<path fill="none" stroke="midnightblue" d="M248,-168.08C248,-161.01 248,-150.86 248,-141.99"/>
<polygon fill="midnightblue" stroke="midnightblue" points="251.5,-141.75 248,-131.75 244.5,-141.75 251.5,-141.75"/>
</g>
<!-- Node15&#45;&gt;Node2 -->
<g id="edge15" class="edge">
<title>Node15&#45;&gt;Node2</title>
<path fill="none" stroke="midnightblue" d="M80.73,-112.08C74.46,-104.38 65.21,-93.03 57.57,-83.65"/>
<polygon fill="midnightblue" stroke="midnightblue" points="60.16,-81.29 51.13,-75.75 54.73,-85.71 60.16,-81.29"/>
</g>
<!-- Node15&#45;&gt;Node16 -->
<g id="edge16" class="edge">
<title>Node15&#45;&gt;Node16</title>
<path fill="none" stroke="midnightblue" d="M115.57,-112.44C145.1,-103.28 192.12,-88.69 224.88,-78.52"/>
<polygon fill="midnightblue" stroke="midnightblue" points="226.04,-81.82 234.56,-75.52 223.97,-75.14 226.04,-81.82"/>
</g>
<!-- Node17 -->
<g id="node17" class="node">
<title>Node17</title>
<g id="a_node17"><a xlink:title=" ">
<polygon fill="white" stroke="#bfbfbf" points="275.5,-0.5 275.5,-19.5 316.5,-19.5 316.5,-0.5 275.5,-0.5"/>
<text text-anchor="middle" x="296" y="-7.5" font-family="Helvetica,sans-Serif" font-size="10.00">QFile</text>
</a>
</g>
</g>
<!-- Node16&#45;&gt;Node17 -->
<g id="edge17" class="edge">
<title>Node16&#45;&gt;Node17</title>
<path fill="none" stroke="midnightblue" d="M267.61,-56.08C272.37,-48.53 279.32,-37.49 285.15,-28.23"/>
<polygon fill="midnightblue" stroke="midnightblue" points="288.12,-30.08 290.49,-19.75 282.2,-26.35 288.12,-30.08"/>
</g>
<!-- Node18 -->
<g id="node18" class="node">
<title>Node18</title>
<g id="a_node18"><a xlink:title=" ">
<polygon fill="white" stroke="#bfbfbf" points="334.5,-0.5 334.5,-19.5 389.5,-19.5 389.5,-0.5 334.5,-0.5"/>
<text text-anchor="middle" x="362" y="-7.5" font-family="Helvetica,sans-Serif" font-size="10.00">QMutex</text>
</a>
</g>
</g>
<!-- Node16&#45;&gt;Node18 -->
<g id="edge18" class="edge">
<title>Node16&#45;&gt;Node18</title>
<path fill="none" stroke="midnightblue" d="M278.07,-56.32C293.96,-47.74 318.51,-34.49 336.96,-24.52"/>
<polygon fill="midnightblue" stroke="midnightblue" points="338.84,-27.49 345.97,-19.65 335.51,-21.33 338.84,-27.49"/>
</g>
<!-- Node19 -->
<g id="node19" class="node">
<title>Node19</title>
<g id="a_node19"><a xlink:title=" ">
<polygon fill="white" stroke="#bfbfbf" points="1492,-0.5 1492,-19.5 1548,-19.5 1548,-0.5 1492,-0.5"/>
<text text-anchor="middle" x="1520" y="-7.5" font-family="Helvetica,sans-Serif" font-size="10.00">QObject</text>
</a>
</g>
</g>
<!-- Node16&#45;&gt;Node19 -->
<g id="edge19" class="edge">
<title>Node16&#45;&gt;Node19</title>
<path fill="none" stroke="midnightblue" d="M290.04,-63.8C454.42,-56.74 1292.29,-20.77 1481.85,-12.64"/>
<polygon fill="midnightblue" stroke="midnightblue" points="1482.05,-16.13 1491.89,-12.21 1481.75,-9.14 1482.05,-16.13"/>
</g>
<!-- Node20 -->
<g id="node20" class="node">
<title>Node20</title>
<g id="a_node20"><a xlink:title=" ">
<polygon fill="white" stroke="#bfbfbf" points="103,-0.5 103,-19.5 183,-19.5 183,-0.5 103,-0.5"/>
<text text-anchor="middle" x="143" y="-7.5" font-family="Helvetica,sans-Serif" font-size="10.00">QTextStream</text>
</a>
</g>
</g>
<!-- Node16&#45;&gt;Node20 -->
<g id="edge20" class="edge">
<title>Node16&#45;&gt;Node20</title>
<path fill="none" stroke="midnightblue" d="M243.14,-56.44C223.73,-47.64 193.27,-33.81 171.04,-23.72"/>
<polygon fill="midnightblue" stroke="midnightblue" points="172.32,-20.46 161.77,-19.52 169.43,-26.84 172.32,-20.46"/>
</g>
<!-- Node16&#45;&gt;Node21 -->
<g id="edge21" class="edge">
<title>Node16&#45;&gt;Node21</title>
<path fill="none" stroke="midnightblue" d="M290.18,-59.17C336.89,-49.51 430.47,-30.14 483.67,-19.14"/>
<polygon fill="midnightblue" stroke="midnightblue" points="484.66,-22.51 493.74,-17.05 483.24,-15.65 484.66,-22.51"/>
</g>
<!-- Node22 -->
<g id="node22" class="node">
<title>Node22</title>
<g id="a_node22"><a xlink:title=" ">
<polygon fill="white" stroke="#bfbfbf" points="201,-0.5 201,-19.5 257,-19.5 257,-0.5 201,-0.5"/>
<text text-anchor="middle" x="229" y="-7.5" font-family="Helvetica,sans-Serif" font-size="10.00">sstream</text>
</a>
</g>
</g>
<!-- Node16&#45;&gt;Node22 -->
<g id="edge22" class="edge">
<title>Node16&#45;&gt;Node22</title>
<path fill="none" stroke="midnightblue" d="M256.55,-56.08C251.99,-48.61 245.33,-37.72 239.71,-28.52"/>
<polygon fill="midnightblue" stroke="midnightblue" points="242.55,-26.46 234.35,-19.75 236.58,-30.11 242.55,-26.46"/>
</g>
<!-- Node25&#45;&gt;Node19 -->
<g id="edge26" class="edge">
<title>Node25&#45;&gt;Node19</title>
<path fill="none" stroke="midnightblue" d="M994.62,-168.42C1087.04,-140.73 1377.56,-53.68 1482.08,-22.36"/>
<polygon fill="midnightblue" stroke="midnightblue" points="1483.31,-25.65 1491.88,-19.43 1481.3,-18.94 1483.31,-25.65"/>
</g>
<!-- Node26 -->
<g id="node26" class="node">
<title>Node26</title>
<g id="a_node26"><a xlink:title=" ">
<polygon fill="white" stroke="#bfbfbf" points="1493.5,-112.5 1493.5,-131.5 1546.5,-131.5 1546.5,-112.5 1493.5,-112.5"/>
<text text-anchor="middle" x="1520" y="-119.5" font-family="Helvetica,sans-Serif" font-size="10.00">QTimer</text>
</a>
</g>
</g>
<!-- Node25&#45;&gt;Node26 -->
<g id="edge27" class="edge">
<title>Node25&#45;&gt;Node26</title>
<path fill="none" stroke="midnightblue" d="M1010.75,-169.27C1013.88,-168.82 1016.98,-168.39 1020,-168 1192.68,-145.87 1400.29,-130.88 1483.19,-125.36"/>
<polygon fill="midnightblue" stroke="midnightblue" points="1483.62,-128.84 1493.36,-124.69 1483.15,-121.85 1483.62,-128.84"/>
</g>
<!-- Node32&#45;&gt;Node10 -->
<g id="edge39" class="edge">
<title>Node32&#45;&gt;Node10</title>
<path fill="none" stroke="midnightblue" d="M1139.06,-225.32C1142.08,-224.86 1145.08,-224.41 1148,-224 1284.9,-204.63 1320.48,-209.87 1457,-188 1458.44,-187.77 1459.91,-187.52 1461.39,-187.27"/>
<polygon fill="midnightblue" stroke="midnightblue" points="1462.04,-190.71 1471.24,-185.45 1460.77,-183.82 1462.04,-190.71"/>
</g>
<!-- Node32&#45;&gt;Node19 -->
<g id="edge36" class="edge">
<title>Node32&#45;&gt;Node19</title>
<path fill="none" stroke="midnightblue" d="M1139.06,-225.37C1142.09,-224.89 1145.09,-224.43 1148,-224 1209.18,-214.91 1373.39,-223.56 1424,-188 1478,-150.06 1459.43,-113.4 1492,-56 1497.35,-46.58 1503.69,-36.31 1508.99,-27.96"/>
<polygon fill="midnightblue" stroke="midnightblue" points="1511.97,-29.81 1514.42,-19.5 1506.08,-26.03 1511.97,-29.81"/>
</g>
<!-- Node33 -->
<g id="node33" class="node">
<title>Node33</title>
<g id="a_node33"><a xlink:title=" ">
<polygon fill="white" stroke="#bfbfbf" points="1246.5,-168.5 1246.5,-187.5 1337.5,-187.5 1337.5,-168.5 1246.5,-168.5"/>
<text text-anchor="middle" x="1292" y="-175.5" font-family="Helvetica,sans-Serif" font-size="10.00">QElapsedTimer</text>
</a>
</g>
</g>
<!-- Node32&#45;&gt;Node33 -->
<g id="edge35" class="edge">
<title>Node32&#45;&gt;Node33</title>
<path fill="none" stroke="midnightblue" d="M1125.37,-224.44C1159.26,-215.2 1213.4,-200.44 1250.72,-190.26"/>
<polygon fill="midnightblue" stroke="midnightblue" points="1252.05,-193.52 1260.77,-187.52 1250.2,-186.77 1252.05,-193.52"/>
</g>
<!-- Node34 -->
<g id="node34" class="node">
<title>Node34</title>
<g id="a_node34"><a xlink:title=" ">
<polygon fill="white" stroke="#bfbfbf" points="1355.5,-168.5 1355.5,-187.5 1414.5,-187.5 1414.5,-168.5 1355.5,-168.5"/>
<text text-anchor="middle" x="1385" y="-175.5" font-family="Helvetica,sans-Serif" font-size="10.00">QPointer</text>
</a>
</g>
</g>
<!-- Node32&#45;&gt;Node34 -->
<g id="edge37" class="edge">
<title>Node32&#45;&gt;Node34</title>
<path fill="none" stroke="midnightblue" d="M1139.06,-225.3C1196.72,-215.4 1294.41,-198.44 1345.33,-188.24"/>
<polygon fill="midnightblue" stroke="midnightblue" points="1346.07,-191.66 1355.16,-186.23 1344.67,-184.81 1346.07,-191.66"/>
</g>
<!-- Node35 -->
<g id="node35" class="node">
<title>Node35</title>
<g id="a_node35"><a xlink:title=" ">
<polygon fill="white" stroke="#bfbfbf" points="1028.5,-168.5 1028.5,-187.5 1077.5,-187.5 1077.5,-168.5 1028.5,-168.5"/>
<text text-anchor="middle" x="1053" y="-175.5" font-family="Helvetica,sans-Serif" font-size="10.00">QTime</text>
</a>
</g>
</g>
<!-- Node32&#45;&gt;Node35 -->
<g id="edge38" class="edge">
<title>Node32&#45;&gt;Node35</title>
<path fill="none" stroke="midnightblue" d="M1087.23,-224.08C1081.44,-216.46 1072.94,-205.26 1065.86,-195.94"/>
<polygon fill="midnightblue" stroke="midnightblue" points="1068.48,-193.6 1059.64,-187.75 1062.9,-197.83 1068.48,-193.6"/>
</g>
<!-- Node36 -->
<g id="node36" class="node">
<title>Node36</title>
<g id="a_node36"><a xlink:title=" ">
<polygon fill="white" stroke="#bfbfbf" points="1095.5,-168.5 1095.5,-187.5 1228.5,-187.5 1228.5,-168.5 1095.5,-168.5"/>
<text text-anchor="middle" x="1162" y="-175.5" font-family="Helvetica,sans-Serif" font-size="10.00">QtWidgets/QApplication</text>
</a>
</g>
</g>
<!-- Node32&#45;&gt;Node36 -->
<g id="edge40" class="edge">
<title>Node32&#45;&gt;Node36</title>
<path fill="none" stroke="midnightblue" d="M1104.93,-224.32C1115.17,-216.18 1130.72,-203.84 1143,-194.09"/>
<polygon fill="midnightblue" stroke="midnightblue" points="1145.22,-196.79 1150.88,-187.83 1140.87,-191.31 1145.22,-196.79"/>
</g>
<!-- Node38&#45;&gt;Node9 -->
<g id="edge44" class="edge">
<title>Node38&#45;&gt;Node9</title>
<path fill="none" stroke="midnightblue" d="M1777.94,-280.32C1792.59,-271.82 1815.13,-258.73 1832.24,-248.8"/>
<polygon fill="midnightblue" stroke="midnightblue" points="1834.2,-251.7 1841.1,-243.65 1830.69,-245.65 1834.2,-251.7"/>
</g>
<!-- Node38&#45;&gt;Node19 -->
<g id="edge43" class="edge">
<title>Node38&#45;&gt;Node19</title>
<path fill="none" stroke="midnightblue" d="M1767.05,-280.38C1775.23,-262.11 1793,-218 1793,-179 1793,-179 1793,-179 1793,-121 1793,-70.98 1633.31,-33.13 1558.2,-18.09"/>
<polygon fill="midnightblue" stroke="midnightblue" points="1558.68,-14.62 1548.19,-16.12 1557.32,-21.49 1558.68,-14.62"/>
</g>
<!-- Node39&#45;&gt;Node19 -->
<g id="edge47" class="edge">
<title>Node39&#45;&gt;Node19</title>
<path fill="none" stroke="midnightblue" d="M1713.21,-224.15C1710.19,-195.44 1696.73,-104.02 1645,-56 1621.02,-33.74 1585.23,-22.33 1558.08,-16.58"/>
<polygon fill="midnightblue" stroke="midnightblue" points="1558.63,-13.12 1548.14,-14.65 1557.29,-19.99 1558.63,-13.12"/>
</g>
<!-- Node40 -->
<g id="node40" class="node">
<title>Node40</title>
<g id="a_node40"><a xlink:title=" ">
<polygon fill="white" stroke="#bfbfbf" points="1644.5,-168.5 1644.5,-187.5 1685.5,-187.5 1685.5,-168.5 1644.5,-168.5"/>
<text text-anchor="middle" x="1665" y="-175.5" font-family="Helvetica,sans-Serif" font-size="10.00">QList</text>
</a>
</g>
</g>
<!-- Node39&#45;&gt;Node40 -->
<g id="edge46" class="edge">
<title>Node39&#45;&gt;Node40</title>
<path fill="none" stroke="midnightblue" d="M1705.91,-224.08C1698.84,-216.3 1688.41,-204.8 1679.85,-195.37"/>
<polygon fill="midnightblue" stroke="midnightblue" points="1682.25,-192.8 1672.94,-187.75 1677.07,-197.51 1682.25,-192.8"/>
</g>
<!-- Node41&#45;&gt;Node21 -->
<g id="edge58" class="edge">
<title>Node41&#45;&gt;Node21</title>
<path fill="none" stroke="midnightblue" d="M1307.47,-287.54C1170.58,-282.83 893,-262.92 893,-179 893,-179 893,-179 893,-121 893,-52.53 657.26,-23.28 562.12,-14.27"/>
<polygon fill="midnightblue" stroke="midnightblue" points="562.31,-10.77 552.03,-13.34 561.67,-17.74 562.31,-10.77"/>
</g>
<!-- Node41&#45;&gt;Node26 -->
<g id="edge59" class="edge">
<title>Node41&#45;&gt;Node26</title>
<path fill="none" stroke="midnightblue" d="M1391.56,-280.22C1406.32,-266.95 1435.92,-241.46 1464,-224 1495.74,-204.26 1520.01,-219.58 1540,-188 1549.34,-173.25 1541.21,-153.85 1532.69,-140.1"/>
<polygon fill="midnightblue" stroke="midnightblue" points="1535.44,-137.92 1526.93,-131.6 1529.64,-141.84 1535.44,-137.92"/>
</g>
<!-- Node41&#45;&gt;Node32 -->
<g id="edge52" class="edge">
<title>Node41&#45;&gt;Node32</title>
<path fill="none" stroke="midnightblue" d="M1336.37,-280.44C1285.7,-270.94 1203.93,-255.61 1149.57,-245.42"/>
<polygon fill="midnightblue" stroke="midnightblue" points="1149.89,-241.92 1139.42,-243.52 1148.6,-248.8 1149.89,-241.92"/>
</g>
<!-- Node41&#45;&gt;Node37 -->
<g id="edge53" class="edge">
<title>Node41&#45;&gt;Node37</title>
<path fill="none" stroke="midnightblue" d="M1307.39,-282.8C1209.13,-274.52 1031.02,-259.14 879,-244 877.53,-243.85 876.05,-243.7 874.55,-243.55"/>
<polygon fill="midnightblue" stroke="midnightblue" points="874.86,-240.07 864.56,-242.52 874.15,-247.03 874.86,-240.07"/>
</g>
<!-- Node41&#45;&gt;Node39 -->
<g id="edge49" class="edge">
<title>Node41&#45;&gt;Node39</title>
<path fill="none" stroke="midnightblue" d="M1434.61,-280.44C1494.01,-270.78 1590.54,-255.08 1653.14,-244.9"/>
<polygon fill="midnightblue" stroke="midnightblue" points="1653.96,-248.31 1663.27,-243.25 1652.84,-241.4 1653.96,-248.31"/>
</g>
<!-- Node42 -->
<g id="node42" class="node">
<title>Node42</title>
<g id="a_node42"><a xlink:href="joybuttonmousehelper_8h.html" target="_top" xlink:title=" ">
<polygon fill="white" stroke="black" points="1500.5,-56.5 1500.5,-75.5 1635.5,-75.5 1635.5,-56.5 1500.5,-56.5"/>
<text text-anchor="middle" x="1568" y="-63.5" font-family="Helvetica,sans-Serif" font-size="10.00">joybuttonmousehelper.h</text>
</a>
</g>
</g>
<!-- Node41&#45;&gt;Node42 -->
<g id="edge50" class="edge">
<title>Node41&#45;&gt;Node42</title>
<path fill="none" stroke="midnightblue" d="M1456.62,-281.47C1505.38,-274.82 1562.75,-263.15 1578,-244 1615.19,-197.31 1590.29,-119.78 1576.03,-84.93"/>
<polygon fill="midnightblue" stroke="midnightblue" points="1579.18,-83.39 1572.03,-75.57 1572.74,-86.14 1579.18,-83.39"/>
</g>
<!-- Node43 -->
<g id="node43" class="node">
<title>Node43</title>
<g id="a_node43"><a xlink:title=" ">
<polygon fill="white" stroke="#bfbfbf" points="1473,-224.5 1473,-243.5 1569,-243.5 1569,-224.5 1473,-224.5"/>
<text text-anchor="middle" x="1521" y="-231.5" font-family="Helvetica,sans-Serif" font-size="10.00">QDeadlineTimer</text>
</a>
</g>
</g>
<!-- Node41&#45;&gt;Node43 -->
<g id="edge54" class="edge">
<title>Node41&#45;&gt;Node43</title>
<path fill="none" stroke="midnightblue" d="M1404.02,-280.44C1427.1,-271.48 1463.56,-257.31 1489.64,-247.18"/>
<polygon fill="midnightblue" stroke="midnightblue" points="1491.02,-250.4 1499.08,-243.52 1488.49,-243.88 1491.02,-250.4"/>
</g>
<!-- Node44 -->
<g id="node44" class="node">
<title>Node44</title>
<g id="a_node44"><a xlink:title=" ">
<polygon fill="white" stroke="#bfbfbf" points="1157,-224.5 1157,-243.5 1213,-243.5 1213,-224.5 1157,-224.5"/>
<text text-anchor="middle" x="1185" y="-231.5" font-family="Helvetica,sans-Serif" font-size="10.00">QQueue</text>
</a>
</g>
</g>
<!-- Node41&#45;&gt;Node44 -->
<g id="edge55" class="edge">
<title>Node41&#45;&gt;Node44</title>
<path fill="none" stroke="midnightblue" d="M1350.78,-280.44C1316.17,-270.96 1260.33,-255.65 1223.16,-245.46"/>
<polygon fill="midnightblue" stroke="midnightblue" points="1223.77,-242 1213.2,-242.73 1221.92,-248.75 1223.77,-242"/>
</g>
<!-- Node45 -->
<g id="node45" class="node">
<title>Node45</title>
<g id="a_node45"><a xlink:title=" ">
<polygon fill="white" stroke="#bfbfbf" points="1231,-224.5 1231,-243.5 1329,-243.5 1329,-224.5 1231,-224.5"/>
<text text-anchor="middle" x="1280" y="-231.5" font-family="Helvetica,sans-Serif" font-size="10.00">QReadWriteLock</text>
</a>
</g>
</g>
<!-- Node41&#45;&gt;Node45 -->
<g id="edge56" class="edge">
<title>Node41&#45;&gt;Node45</title>
<path fill="none" stroke="midnightblue" d="M1365.61,-280.32C1349.33,-271.7 1324.13,-258.36 1305.28,-248.39"/>
<polygon fill="midnightblue" stroke="midnightblue" points="1306.82,-245.24 1296.35,-243.65 1303.55,-251.43 1306.82,-245.24"/>
</g>
<!-- Node46 -->
<g id="node46" class="node">
<title>Node46</title>
<g id="a_node46"><a xlink:title=" ">
<polygon fill="white" stroke="#bfbfbf" points="1347,-224.5 1347,-243.5 1417,-243.5 1417,-224.5 1347,-224.5"/>
<text text-anchor="middle" x="1382" y="-231.5" font-family="Helvetica,sans-Serif" font-size="10.00">QRunnable</text>
</a>
</g>
</g>
<!-- Node41&#45;&gt;Node46 -->
<g id="edge57" class="edge">
<title>Node41&#45;&gt;Node46</title>
<path fill="none" stroke="midnightblue" d="M1382,-280.08C1382,-273.01 1382,-262.86 1382,-253.99"/>
<polygon fill="midnightblue" stroke="midnightblue" points="1385.5,-253.75 1382,-243.75 1378.5,-253.75 1385.5,-253.75"/>
</g>
<!-- Node42&#45;&gt;Node19 -->
<g id="edge51" class="edge">
<title>Node42&#45;&gt;Node19</title>
<path fill="none" stroke="midnightblue" d="M1560.07,-56.08C1553.15,-48.3 1542.93,-36.8 1534.55,-27.37"/>
<polygon fill="midnightblue" stroke="midnightblue" points="1537.04,-24.9 1527.78,-19.75 1531.81,-29.55 1537.04,-24.9"/>
</g>
</g>
</svg>
