<?xml version="1.0" encoding="UTF-8" standalone="no"?>
<!DOCTYPE svg PUBLIC "-//W3C//DTD SVG 1.1//EN"
 "http://www.w3.org/Graphics/SVG/1.1/DTD/svg11.dtd">
<!-- Generated by graphviz version 2.43.0 (0)
 -->
<!-- Title: /home/runner/work/doxygen/antimicrox/src/gui/flashbuttonwidget.h Pages: 1 -->
<svg width="2882pt" height="251pt"
 viewBox="0.00 0.00 2881.50 251.00" xmlns="http://www.w3.org/2000/svg" xmlns:xlink="http://www.w3.org/1999/xlink">
<g id="graph0" class="graph" transform="scale(1 1) rotate(0) translate(4 247)">
<title>/home/runner/work/doxygen/antimicrox/src/gui/flashbuttonwidget.h</title>
<polygon fill="white" stroke="transparent" points="-4,4 -4,-247 2877.5,-247 2877.5,4 -4,4"/>
<!-- Node1 -->
<g id="node1" class="node">
<title>Node1</title>
<g id="a_node1"><a xlink:title=" ">
<polygon fill="#bfbfbf" stroke="black" points="1452,-212.5 1452,-242.5 1659,-242.5 1659,-212.5 1452,-212.5"/>
<text text-anchor="start" x="1460" y="-230.5" font-family="Helvetica,sans-Serif" font-size="10.00">/home/runner/work/doxygen</text>
<text text-anchor="middle" x="1555.5" y="-219.5" font-family="Helvetica,sans-Serif" font-size="10.00">/antimicrox/src/gui/flashbuttonwidget.h</text>
</a>
</g>
</g>
<!-- Node2 -->
<g id="node2" class="node">
<title>Node2</title>
<g id="a_node2"><a xlink:href="dpadpushbutton_8h.html" target="_top" xlink:title=" ">
<polygon fill="white" stroke="black" points="76.5,-78.5 76.5,-108.5 256.5,-108.5 256.5,-78.5 76.5,-78.5"/>
<text text-anchor="start" x="84.5" y="-96.5" font-family="Helvetica,sans-Serif" font-size="10.00">/home/runner/work/doxygen</text>
<text text-anchor="middle" x="166.5" y="-85.5" font-family="Helvetica,sans-Serif" font-size="10.00">/antimicrox/src/dpadpushbutton.h</text>
</a>
</g>
</g>
<!-- Node1&#45;&gt;Node2 -->
<g id="edge1" class="edge">
<title>Node1&#45;&gt;Node2</title>
<path fill="none" stroke="midnightblue" d="M1441.69,-224.31C1269.06,-220.06 930.9,-208.09 645.5,-176 497.97,-159.41 326.89,-127.11 234.37,-108.54"/>
<polygon fill="midnightblue" stroke="midnightblue" points="1441.72,-227.82 1451.8,-224.56 1441.89,-220.82 1441.72,-227.82"/>
</g>
<!-- Node6 -->
<g id="node6" class="node">
<title>Node6</title>
<g id="a_node6"><a xlink:href="flashbuttonwidget_8cpp.html" target="_top" xlink:title=" ">
<polygon fill="white" stroke="black" points="2596.5,-145.5 2596.5,-175.5 2814.5,-175.5 2814.5,-145.5 2596.5,-145.5"/>
<text text-anchor="start" x="2604.5" y="-163.5" font-family="Helvetica,sans-Serif" font-size="10.00">/home/runner/work/doxygen</text>
<text text-anchor="middle" x="2705.5" y="-152.5" font-family="Helvetica,sans-Serif" font-size="10.00">/antimicrox/src/gui/flashbuttonwidget.cpp</text>
</a>
</g>
</g>
<!-- Node1&#45;&gt;Node6 -->
<g id="edge5" class="edge">
<title>Node1&#45;&gt;Node6</title>
<path fill="none" stroke="midnightblue" d="M1669.32,-223.66C1859.68,-218.3 2254.55,-204.56 2587.5,-176 2590.38,-175.75 2593.3,-175.49 2596.24,-175.21"/>
<polygon fill="midnightblue" stroke="midnightblue" points="1669.2,-220.16 1659.3,-223.94 1669.4,-227.16 1669.2,-220.16"/>
</g>
<!-- Node7 -->
<g id="node7" class="node">
<title>Node7</title>
<g id="a_node7"><a xlink:href="joyaxiswidget_8h.html" target="_top" xlink:title=" ">
<polygon fill="white" stroke="black" points="974.5,-145.5 974.5,-175.5 1162.5,-175.5 1162.5,-145.5 974.5,-145.5"/>
<text text-anchor="start" x="982.5" y="-163.5" font-family="Helvetica,sans-Serif" font-size="10.00">/home/runner/work/doxygen</text>
<text text-anchor="middle" x="1068.5" y="-152.5" font-family="Helvetica,sans-Serif" font-size="10.00">/antimicrox/src/gui/joyaxiswidget.h</text>
</a>
</g>
</g>
<!-- Node1&#45;&gt;Node7 -->
<g id="edge6" class="edge">
<title>Node1&#45;&gt;Node7</title>
<path fill="none" stroke="midnightblue" d="M1441.99,-211.35C1357.2,-200.03 1242.65,-184.74 1162.85,-174.09"/>
<polygon fill="midnightblue" stroke="midnightblue" points="1441.55,-214.82 1451.92,-212.68 1442.47,-207.88 1441.55,-214.82"/>
</g>
<!-- Node10 -->
<g id="node10" class="node">
<title>Node10</title>
<g id="a_node10"><a xlink:href="joybuttonwidget_8h.html" target="_top" xlink:title=" ">
<polygon fill="white" stroke="black" points="655,-145.5 655,-175.5 854,-175.5 854,-145.5 655,-145.5"/>
<text text-anchor="start" x="663" y="-163.5" font-family="Helvetica,sans-Serif" font-size="10.00">/home/runner/work/doxygen</text>
<text text-anchor="middle" x="754.5" y="-152.5" font-family="Helvetica,sans-Serif" font-size="10.00">/antimicrox/src/gui/joybuttonwidget.h</text>
</a>
</g>
</g>
<!-- Node1&#45;&gt;Node10 -->
<g id="edge10" class="edge">
<title>Node1&#45;&gt;Node10</title>
<path fill="none" stroke="midnightblue" d="M1441.43,-217.24C1284.17,-204.48 1003.35,-181.69 854.12,-169.58"/>
<polygon fill="midnightblue" stroke="midnightblue" points="1441.35,-220.75 1451.6,-218.07 1441.92,-213.77 1441.35,-220.75"/>
</g>
<!-- Node15 -->
<g id="node15" class="node">
<title>Node15</title>
<g id="a_node15"><a xlink:href="joycontrolstickbuttonpushbutton_8h.html" target="_top" xlink:title=" ">
<polygon fill="white" stroke="black" points="1294.5,-145.5 1294.5,-175.5 1554.5,-175.5 1554.5,-145.5 1294.5,-145.5"/>
<text text-anchor="start" x="1302.5" y="-163.5" font-family="Helvetica,sans-Serif" font-size="10.00">/home/runner/work/doxygen</text>
<text text-anchor="middle" x="1424.5" y="-152.5" font-family="Helvetica,sans-Serif" font-size="10.00">/antimicrox/src/joycontrolstickbuttonpushbutton.h</text>
</a>
</g>
</g>
<!-- Node1&#45;&gt;Node15 -->
<g id="edge19" class="edge">
<title>Node1&#45;&gt;Node15</title>
<path fill="none" stroke="midnightblue" d="M1517.92,-207.85C1497.21,-197.58 1471.91,-185.03 1452.87,-175.58"/>
<polygon fill="midnightblue" stroke="midnightblue" points="1516.56,-211.09 1527.07,-212.4 1519.67,-204.82 1516.56,-211.09"/>
</g>
<!-- Node18 -->
<g id="node18" class="node">
<title>Node18</title>
<g id="a_node18"><a xlink:href="joycontrolstickpushbutton_8h.html" target="_top" xlink:title=" ">
<polygon fill="white" stroke="black" points="1641.5,-145.5 1641.5,-175.5 1869.5,-175.5 1869.5,-145.5 1641.5,-145.5"/>
<text text-anchor="start" x="1649.5" y="-163.5" font-family="Helvetica,sans-Serif" font-size="10.00">/home/runner/work/doxygen</text>
<text text-anchor="middle" x="1755.5" y="-152.5" font-family="Helvetica,sans-Serif" font-size="10.00">/antimicrox/src/joycontrolstickpushbutton.h</text>
</a>
</g>
</g>
<!-- Node1&#45;&gt;Node18 -->
<g id="edge23" class="edge">
<title>Node1&#45;&gt;Node18</title>
<path fill="none" stroke="midnightblue" d="M1608.65,-209.23C1641,-198.71 1681.81,-185.45 1712.19,-175.58"/>
<polygon fill="midnightblue" stroke="midnightblue" points="1607.33,-205.98 1598.9,-212.4 1609.49,-212.63 1607.33,-205.98"/>
</g>
<!-- Node20 -->
<g id="node20" class="node">
<title>Node20</title>
<g id="a_node20"><a xlink:href="joysensorbuttonpushbutton_8h.html" target="_top" xlink:title=" ">
<polygon fill="white" stroke="black" points="2343,-145.5 2343,-175.5 2578,-175.5 2578,-145.5 2343,-145.5"/>
<text text-anchor="start" x="2351" y="-163.5" font-family="Helvetica,sans-Serif" font-size="10.00">/home/runner/work/doxygen</text>
<text text-anchor="middle" x="2460.5" y="-152.5" font-family="Helvetica,sans-Serif" font-size="10.00">/antimicrox/src/joysensorbuttonpushbutton.h</text>
</a>
</g>
</g>
<!-- Node1&#45;&gt;Node20 -->
<g id="edge27" class="edge">
<title>Node1&#45;&gt;Node20</title>
<path fill="none" stroke="midnightblue" d="M1669.45,-218.48C1809.53,-208.6 2054.52,-191.25 2264.5,-176 2289.85,-174.16 2317.05,-172.16 2342.87,-170.25"/>
<polygon fill="midnightblue" stroke="midnightblue" points="1668.86,-215.01 1659.13,-219.21 1669.35,-222 1668.86,-215.01"/>
</g>
<!-- Node23 -->
<g id="node23" class="node">
<title>Node23</title>
<g id="a_node23"><a xlink:href="joysensorpushbutton_8h.html" target="_top" xlink:title=" ">
<polygon fill="white" stroke="black" points="2053,-145.5 2053,-175.5 2256,-175.5 2256,-145.5 2053,-145.5"/>
<text text-anchor="start" x="2061" y="-163.5" font-family="Helvetica,sans-Serif" font-size="10.00">/home/runner/work/doxygen</text>
<text text-anchor="middle" x="2154.5" y="-152.5" font-family="Helvetica,sans-Serif" font-size="10.00">/antimicrox/src/joysensorpushbutton.h</text>
</a>
</g>
</g>
<!-- Node1&#45;&gt;Node23 -->
<g id="edge30" class="edge">
<title>Node1&#45;&gt;Node23</title>
<path fill="none" stroke="midnightblue" d="M1669.34,-214.15C1779.93,-202.15 1946.28,-184.09 2052.61,-172.56"/>
<polygon fill="midnightblue" stroke="midnightblue" points="1668.72,-210.69 1659.15,-215.25 1669.47,-217.65 1668.72,-210.69"/>
</g>
<!-- Node3 -->
<g id="node3" class="node">
<title>Node3</title>
<g id="a_node3"><a xlink:href="dpadpushbutton_8cpp.html" target="_top" xlink:title=" ">
<polygon fill="white" stroke="black" points="0,-6 0,-36 191,-36 191,-6 0,-6"/>
<text text-anchor="start" x="8" y="-24" font-family="Helvetica,sans-Serif" font-size="10.00">/home/runner/work/doxygen</text>
<text text-anchor="middle" x="95.5" y="-13" font-family="Helvetica,sans-Serif" font-size="10.00">/antimicrox/src/dpadpushbutton.cpp</text>
</a>
</g>
</g>
<!-- Node2&#45;&gt;Node3 -->
<g id="edge2" class="edge">
<title>Node2&#45;&gt;Node3</title>
<path fill="none" stroke="midnightblue" d="M144.71,-70.86C133.38,-59.61 119.85,-46.18 109.85,-36.25"/>
<polygon fill="midnightblue" stroke="midnightblue" points="142.57,-73.67 152.13,-78.23 147.5,-68.7 142.57,-73.67"/>
</g>
<!-- Node4 -->
<g id="node4" class="node">
<title>Node4</title>
<g id="a_node4"><a xlink:href="dpadpushbuttongroup_8cpp.html" target="_top" xlink:title=" ">
<polygon fill="white" stroke="black" points="209,-6 209,-36 428,-36 428,-6 209,-6"/>
<text text-anchor="start" x="217" y="-24" font-family="Helvetica,sans-Serif" font-size="10.00">/home/runner/work/doxygen</text>
<text text-anchor="middle" x="318.5" y="-13" font-family="Helvetica,sans-Serif" font-size="10.00">/antimicrox/src/dpadpushbuttongroup.cpp</text>
</a>
</g>
</g>
<!-- Node2&#45;&gt;Node4 -->
<g id="edge3" class="edge">
<title>Node2&#45;&gt;Node4</title>
<path fill="none" stroke="midnightblue" d="M205.98,-74.19C231.63,-62.29 264.56,-47.02 288.16,-36.07"/>
<polygon fill="midnightblue" stroke="midnightblue" points="204.49,-71.02 196.89,-78.4 207.44,-77.37 204.49,-71.02"/>
</g>
<!-- Node5 -->
<g id="node5" class="node">
<title>Node5</title>
<g id="a_node5"><a xlink:href="mainwindow_8cpp.html" target="_top" xlink:title=" ">
<polygon fill="white" stroke="black" points="960.5,-6 960.5,-36 1152.5,-36 1152.5,-6 960.5,-6"/>
<text text-anchor="start" x="968.5" y="-24" font-family="Helvetica,sans-Serif" font-size="10.00">/home/runner/work/doxygen</text>
<text text-anchor="middle" x="1056.5" y="-13" font-family="Helvetica,sans-Serif" font-size="10.00">/antimicrox/src/gui/mainwindow.cpp</text>
</a>
</g>
</g>
<!-- Node2&#45;&gt;Node5 -->
<g id="edge4" class="edge">
<title>Node2&#45;&gt;Node5</title>
<path fill="none" stroke="midnightblue" d="M266.56,-77.96C571.04,-48.5 651.66,-78.25 951.5,-42 964.12,-40.47 977.5,-38.33 990.34,-36.01"/>
<polygon fill="midnightblue" stroke="midnightblue" points="266.17,-74.49 256.56,-78.95 266.86,-81.45 266.17,-74.49"/>
</g>
<!-- Node7&#45;&gt;Node5 -->
<g id="edge9" class="edge">
<title>Node7&#45;&gt;Node5</title>
<path fill="none" stroke="midnightblue" d="M1043.28,-138.21C1035.39,-129.99 1027.66,-119.92 1023.5,-109 1013.72,-83.34 1031.48,-53.39 1044.52,-36.17"/>
<polygon fill="midnightblue" stroke="midnightblue" points="1040.87,-140.74 1050.48,-145.21 1045.75,-135.73 1040.87,-140.74"/>
</g>
<!-- Node8 -->
<g id="node8" class="node">
<title>Node8</title>
<g id="a_node8"><a xlink:href="joyaxiswidget_8cpp.html" target="_top" xlink:title=" ">
<polygon fill="white" stroke="black" points="1033,-78.5 1033,-108.5 1232,-108.5 1232,-78.5 1033,-78.5"/>
<text text-anchor="start" x="1041" y="-96.5" font-family="Helvetica,sans-Serif" font-size="10.00">/home/runner/work/doxygen</text>
<text text-anchor="middle" x="1132.5" y="-85.5" font-family="Helvetica,sans-Serif" font-size="10.00">/antimicrox/src/gui/joyaxiswidget.cpp</text>
</a>
</g>
</g>
<!-- Node7&#45;&gt;Node8 -->
<g id="edge7" class="edge">
<title>Node7&#45;&gt;Node8</title>
<path fill="none" stroke="midnightblue" d="M1089.65,-138.02C1099.18,-128.34 1110.17,-117.17 1118.64,-108.58"/>
<polygon fill="midnightblue" stroke="midnightblue" points="1086.91,-135.81 1082.39,-145.4 1091.9,-140.73 1086.91,-135.81"/>
</g>
<!-- Node9 -->
<g id="node9" class="node">
<title>Node9</title>
<g id="a_node9"><a xlink:href="joytabwidget_8cpp.html" target="_top" xlink:title=" ">
<polygon fill="white" stroke="black" points="782.5,-78.5 782.5,-108.5 976.5,-108.5 976.5,-78.5 782.5,-78.5"/>
<text text-anchor="start" x="790.5" y="-96.5" font-family="Helvetica,sans-Serif" font-size="10.00">/home/runner/work/doxygen</text>
<text text-anchor="middle" x="879.5" y="-85.5" font-family="Helvetica,sans-Serif" font-size="10.00">/antimicrox/src/gui/joytabwidget.cpp</text>
</a>
</g>
</g>
<!-- Node7&#45;&gt;Node9 -->
<g id="edge8" class="edge">
<title>Node7&#45;&gt;Node9</title>
<path fill="none" stroke="midnightblue" d="M1017.88,-142.09C987.37,-131.6 949.02,-118.41 920.43,-108.58"/>
<polygon fill="midnightblue" stroke="midnightblue" points="1016.9,-145.45 1027.49,-145.4 1019.17,-138.83 1016.9,-145.45"/>
</g>
<!-- Node10&#45;&gt;Node5 -->
<g id="edge18" class="edge">
<title>Node10&#45;&gt;Node5</title>
<path fill="none" stroke="midnightblue" d="M753.57,-135.31C754.24,-117.05 758.29,-92.7 773.5,-78 775.42,-76.15 899.95,-51.99 983.16,-36.02"/>
<polygon fill="midnightblue" stroke="midnightblue" points="750.07,-135.47 753.51,-145.49 757.07,-135.51 750.07,-135.47"/>
</g>
<!-- Node10&#45;&gt;Node9 -->
<g id="edge17" class="edge">
<title>Node10&#45;&gt;Node9</title>
<path fill="none" stroke="midnightblue" d="M790.63,-140.71C810.34,-130.46 834.34,-117.98 852.43,-108.58"/>
<polygon fill="midnightblue" stroke="midnightblue" points="788.88,-137.68 781.62,-145.4 792.11,-143.89 788.88,-137.68"/>
</g>
<!-- Node11 -->
<g id="node11" class="node">
<title>Node11</title>
<g id="a_node11"><a xlink:href="joybuttonwidget_8cpp.html" target="_top" xlink:title=" ">
<polygon fill="white" stroke="black" points="274.5,-78.5 274.5,-108.5 484.5,-108.5 484.5,-78.5 274.5,-78.5"/>
<text text-anchor="start" x="282.5" y="-96.5" font-family="Helvetica,sans-Serif" font-size="10.00">/home/runner/work/doxygen</text>
<text text-anchor="middle" x="379.5" y="-85.5" font-family="Helvetica,sans-Serif" font-size="10.00">/antimicrox/src/gui/joybuttonwidget.cpp</text>
</a>
</g>
</g>
<!-- Node10&#45;&gt;Node11 -->
<g id="edge11" class="edge">
<title>Node10&#45;&gt;Node11</title>
<path fill="none" stroke="midnightblue" d="M663.44,-143.72C601.5,-132.98 520.29,-118.9 460.59,-108.55"/>
<polygon fill="midnightblue" stroke="midnightblue" points="663.14,-147.22 673.59,-145.48 664.34,-140.32 663.14,-147.22"/>
</g>
<!-- Node12 -->
<g id="node12" class="node">
<title>Node12</title>
<g id="a_node12"><a xlink:href="joydpadbuttonwidget_8h.html" target="_top" xlink:title=" ">
<polygon fill="white" stroke="black" points="503,-78.5 503,-108.5 726,-108.5 726,-78.5 503,-78.5"/>
<text text-anchor="start" x="511" y="-96.5" font-family="Helvetica,sans-Serif" font-size="10.00">/home/runner/work/doxygen</text>
<text text-anchor="middle" x="614.5" y="-85.5" font-family="Helvetica,sans-Serif" font-size="10.00">/antimicrox/src/gui/joydpadbuttonwidget.h</text>
</a>
</g>
</g>
<!-- Node10&#45;&gt;Node12 -->
<g id="edge12" class="edge">
<title>Node10&#45;&gt;Node12</title>
<path fill="none" stroke="midnightblue" d="M714.93,-141.13C692.69,-130.8 665.35,-118.11 644.82,-108.58"/>
<polygon fill="midnightblue" stroke="midnightblue" points="713.58,-144.36 724.12,-145.4 716.53,-138.01 713.58,-144.36"/>
</g>
<!-- Node12&#45;&gt;Node4 -->
<g id="edge13" class="edge">
<title>Node12&#45;&gt;Node4</title>
<path fill="none" stroke="midnightblue" d="M545.72,-76.12C494.73,-63.97 425.96,-47.59 377.48,-36.05"/>
<polygon fill="midnightblue" stroke="midnightblue" points="545.13,-79.57 555.67,-78.49 546.75,-72.77 545.13,-79.57"/>
</g>
<!-- Node12&#45;&gt;Node5 -->
<g id="edge15" class="edge">
<title>Node12&#45;&gt;Node5</title>
<path fill="none" stroke="midnightblue" d="M725.29,-77.02C791.12,-67.54 876.19,-54.81 951.5,-42 962.29,-40.16 973.69,-38.11 984.84,-36.04"/>
<polygon fill="midnightblue" stroke="midnightblue" points="724.71,-73.57 715.31,-78.45 725.7,-80.5 724.71,-73.57"/>
</g>
<!-- Node13 -->
<g id="node13" class="node">
<title>Node13</title>
<g id="a_node13"><a xlink:href="joydpadbuttonwidget_8cpp.html" target="_top" xlink:title=" ">
<polygon fill="white" stroke="black" points="446.5,-6 446.5,-36 680.5,-36 680.5,-6 446.5,-6"/>
<text text-anchor="start" x="454.5" y="-24" font-family="Helvetica,sans-Serif" font-size="10.00">/home/runner/work/doxygen</text>
<text text-anchor="middle" x="563.5" y="-13" font-family="Helvetica,sans-Serif" font-size="10.00">/antimicrox/src/gui/joydpadbuttonwidget.cpp</text>
</a>
</g>
</g>
<!-- Node12&#45;&gt;Node13 -->
<g id="edge14" class="edge">
<title>Node12&#45;&gt;Node13</title>
<path fill="none" stroke="midnightblue" d="M598.14,-69.89C590.15,-58.84 580.78,-45.89 573.81,-36.25"/>
<polygon fill="midnightblue" stroke="midnightblue" points="595.48,-72.18 604.18,-78.23 601.15,-68.08 595.48,-72.18"/>
</g>
<!-- Node14 -->
<g id="node14" class="node">
<title>Node14</title>
<g id="a_node14"><a xlink:href="mousedpadsettingsdialoghelper_8cpp.html" target="_top" xlink:title=" ">
<polygon fill="white" stroke="black" points="698.5,-0.5 698.5,-41.5 942.5,-41.5 942.5,-0.5 698.5,-0.5"/>
<text text-anchor="start" x="706.5" y="-29.5" font-family="Helvetica,sans-Serif" font-size="10.00">/home/runner/work/doxygen</text>
<text text-anchor="start" x="706.5" y="-18.5" font-family="Helvetica,sans-Serif" font-size="10.00">/antimicrox/src/mousedialog</text>
<text text-anchor="middle" x="820.5" y="-7.5" font-family="Helvetica,sans-Serif" font-size="10.00">/uihelpers/mousedpadsettingsdialoghelper.cpp</text>
</a>
</g>
</g>
<!-- Node12&#45;&gt;Node14 -->
<g id="edge16" class="edge">
<title>Node12&#45;&gt;Node14</title>
<path fill="none" stroke="midnightblue" d="M665.44,-75.07C695.15,-64.9 732.68,-52.05 763.39,-41.55"/>
<polygon fill="midnightblue" stroke="midnightblue" points="664.02,-71.85 655.69,-78.4 666.29,-78.48 664.02,-71.85"/>
</g>
<!-- Node15&#45;&gt;Node5 -->
<g id="edge20" class="edge">
<title>Node15&#45;&gt;Node5</title>
<path fill="none" stroke="midnightblue" d="M1360.88,-142.45C1334.81,-134.17 1304.86,-122.97 1279.5,-109 1260.1,-98.32 1260.1,-88.29 1240.5,-78 1203.99,-58.83 1159.88,-45.12 1124.01,-36.07"/>
<polygon fill="midnightblue" stroke="midnightblue" points="1360.08,-145.86 1370.67,-145.47 1362.15,-139.18 1360.08,-145.86"/>
</g>
<!-- Node16 -->
<g id="node16" class="node">
<title>Node16</title>
<g id="a_node16"><a xlink:href="joycontrolstickbuttonpushbutton_8cpp.html" target="_top" xlink:title=" ">
<polygon fill="white" stroke="black" points="1289,-78.5 1289,-108.5 1560,-108.5 1560,-78.5 1289,-78.5"/>
<text text-anchor="start" x="1297" y="-96.5" font-family="Helvetica,sans-Serif" font-size="10.00">/home/runner/work/doxygen</text>
<text text-anchor="middle" x="1424.5" y="-85.5" font-family="Helvetica,sans-Serif" font-size="10.00">/antimicrox/src/joycontrolstickbuttonpushbutton.cpp</text>
</a>
</g>
</g>
<!-- Node15&#45;&gt;Node16 -->
<g id="edge21" class="edge">
<title>Node15&#45;&gt;Node16</title>
<path fill="none" stroke="midnightblue" d="M1424.5,-135.11C1424.5,-126.15 1424.5,-116.32 1424.5,-108.58"/>
<polygon fill="midnightblue" stroke="midnightblue" points="1421,-135.4 1424.5,-145.4 1428,-135.4 1421,-135.4"/>
</g>
<!-- Node17 -->
<g id="node17" class="node">
<title>Node17</title>
<g id="a_node17"><a xlink:href="stickpushbuttongroup_8cpp.html" target="_top" xlink:title=" ">
<polygon fill="white" stroke="black" points="1578.5,-78.5 1578.5,-108.5 1796.5,-108.5 1796.5,-78.5 1578.5,-78.5"/>
<text text-anchor="start" x="1586.5" y="-96.5" font-family="Helvetica,sans-Serif" font-size="10.00">/home/runner/work/doxygen</text>
<text text-anchor="middle" x="1687.5" y="-85.5" font-family="Helvetica,sans-Serif" font-size="10.00">/antimicrox/src/stickpushbuttongroup.cpp</text>
</a>
</g>
</g>
<!-- Node15&#45;&gt;Node17 -->
<g id="edge22" class="edge">
<title>Node15&#45;&gt;Node17</title>
<path fill="none" stroke="midnightblue" d="M1491.05,-143.05C1534.05,-132.43 1589.42,-118.74 1630.41,-108.61"/>
<polygon fill="midnightblue" stroke="midnightblue" points="1490.11,-139.68 1481.24,-145.48 1491.79,-146.47 1490.11,-139.68"/>
</g>
<!-- Node18&#45;&gt;Node5 -->
<g id="edge24" class="edge">
<title>Node18&#45;&gt;Node5</title>
<path fill="none" stroke="midnightblue" d="M1782.45,-138.87C1802.1,-121.41 1822.55,-96.37 1805.5,-78 1761.98,-31.11 1345.01,-23.2 1152.75,-22.06"/>
<polygon fill="midnightblue" stroke="midnightblue" points="1780.13,-136.26 1774.76,-145.39 1784.65,-141.6 1780.13,-136.26"/>
</g>
<!-- Node18&#45;&gt;Node17 -->
<g id="edge26" class="edge">
<title>Node18&#45;&gt;Node17</title>
<path fill="none" stroke="midnightblue" d="M1733.33,-138.31C1723.13,-128.56 1711.31,-117.26 1702.23,-108.58"/>
<polygon fill="midnightblue" stroke="midnightblue" points="1731.1,-141.02 1740.75,-145.4 1735.93,-135.96 1731.1,-141.02"/>
</g>
<!-- Node19 -->
<g id="node19" class="node">
<title>Node19</title>
<g id="a_node19"><a xlink:href="joycontrolstickpushbutton_8cpp.html" target="_top" xlink:title=" ">
<polygon fill="white" stroke="black" points="1853,-78.5 1853,-108.5 2092,-108.5 2092,-78.5 1853,-78.5"/>
<text text-anchor="start" x="1861" y="-96.5" font-family="Helvetica,sans-Serif" font-size="10.00">/home/runner/work/doxygen</text>
<text text-anchor="middle" x="1972.5" y="-85.5" font-family="Helvetica,sans-Serif" font-size="10.00">/antimicrox/src/joycontrolstickpushbutton.cpp</text>
</a>
</g>
</g>
<!-- Node18&#45;&gt;Node19 -->
<g id="edge25" class="edge">
<title>Node18&#45;&gt;Node19</title>
<path fill="none" stroke="midnightblue" d="M1811.99,-142.58C1847.23,-132.02 1892.07,-118.59 1925.39,-108.61"/>
<polygon fill="midnightblue" stroke="midnightblue" points="1810.89,-139.25 1802.32,-145.48 1812.9,-145.96 1810.89,-139.25"/>
</g>
<!-- Node21 -->
<g id="node21" class="node">
<title>Node21</title>
<g id="a_node21"><a xlink:href="joysensorbuttonpushbutton_8cpp.html" target="_top" xlink:title=" ">
<polygon fill="white" stroke="black" points="2627.5,-78.5 2627.5,-108.5 2873.5,-108.5 2873.5,-78.5 2627.5,-78.5"/>
<text text-anchor="start" x="2635.5" y="-96.5" font-family="Helvetica,sans-Serif" font-size="10.00">/home/runner/work/doxygen</text>
<text text-anchor="middle" x="2750.5" y="-85.5" font-family="Helvetica,sans-Serif" font-size="10.00">/antimicrox/src/joysensorbuttonpushbutton.cpp</text>
</a>
</g>
</g>
<!-- Node20&#45;&gt;Node21 -->
<g id="edge28" class="edge">
<title>Node20&#45;&gt;Node21</title>
<path fill="none" stroke="midnightblue" d="M2532.99,-143.25C2580.52,-132.6 2642.06,-118.81 2687.54,-108.61"/>
<polygon fill="midnightblue" stroke="midnightblue" points="2532.06,-139.87 2523.07,-145.48 2533.59,-146.7 2532.06,-139.87"/>
</g>
<!-- Node22 -->
<g id="node22" class="node">
<title>Node22</title>
<g id="a_node22"><a xlink:href="sensorpushbuttongroup_8cpp.html" target="_top" xlink:title=" ">
<polygon fill="white" stroke="black" points="2382,-78.5 2382,-108.5 2609,-108.5 2609,-78.5 2382,-78.5"/>
<text text-anchor="start" x="2390" y="-96.5" font-family="Helvetica,sans-Serif" font-size="10.00">/home/runner/work/doxygen</text>
<text text-anchor="middle" x="2495.5" y="-85.5" font-family="Helvetica,sans-Serif" font-size="10.00">/antimicrox/src/sensorpushbuttongroup.cpp</text>
</a>
</g>
</g>
<!-- Node20&#45;&gt;Node22 -->
<g id="edge29" class="edge">
<title>Node20&#45;&gt;Node22</title>
<path fill="none" stroke="midnightblue" d="M2472.84,-136.58C2477.87,-127.24 2483.52,-116.75 2487.92,-108.58"/>
<polygon fill="midnightblue" stroke="midnightblue" points="2469.75,-134.93 2468.09,-145.4 2475.92,-138.25 2469.75,-134.93"/>
</g>
<!-- Node23&#45;&gt;Node5 -->
<g id="edge31" class="edge">
<title>Node23&#45;&gt;Node5</title>
<path fill="none" stroke="midnightblue" d="M2145.88,-135.93C2137.48,-116.7 2122.71,-90.7 2100.5,-78 2019.56,-31.7 1395.83,-23.65 1152.9,-22.27"/>
<polygon fill="midnightblue" stroke="midnightblue" points="2142.67,-137.34 2149.7,-145.27 2149.15,-134.69 2142.67,-137.34"/>
</g>
<!-- Node23&#45;&gt;Node22 -->
<g id="edge33" class="edge">
<title>Node23&#45;&gt;Node22</title>
<path fill="none" stroke="midnightblue" d="M2238.01,-143.58C2294.23,-132.86 2367.7,-118.86 2421.77,-108.55"/>
<polygon fill="midnightblue" stroke="midnightblue" points="2237.24,-140.17 2228.07,-145.48 2238.55,-147.04 2237.24,-140.17"/>
</g>
<!-- Node24 -->
<g id="node24" class="node">
<title>Node24</title>
<g id="a_node24"><a xlink:href="joysensorpushbutton_8cpp.html" target="_top" xlink:title=" ">
<polygon fill="white" stroke="black" points="2149,-78.5 2149,-108.5 2364,-108.5 2364,-78.5 2149,-78.5"/>
<text text-anchor="start" x="2157" y="-96.5" font-family="Helvetica,sans-Serif" font-size="10.00">/home/runner/work/doxygen</text>
<text text-anchor="middle" x="2256.5" y="-85.5" font-family="Helvetica,sans-Serif" font-size="10.00">/antimicrox/src/joysensorpushbutton.cpp</text>
</a>
</g>
</g>
<!-- Node23&#45;&gt;Node24 -->
<g id="edge32" class="edge">
<title>Node23&#45;&gt;Node24</title>
<path fill="none" stroke="midnightblue" d="M2185.08,-140.02C2200.95,-129.9 2219.98,-117.77 2234.41,-108.58"/>
<polygon fill="midnightblue" stroke="midnightblue" points="2183.18,-137.07 2176.63,-145.4 2186.95,-142.97 2183.18,-137.07"/>
</g>
</g>
</svg>
