<?xml version="1.0" encoding="UTF-8" standalone="no"?>
<!DOCTYPE svg PUBLIC "-//W3C//DTD SVG 1.1//EN"
 "http://www.w3.org/Graphics/SVG/1.1/DTD/svg11.dtd">
<!-- Generated by graphviz version 2.43.0 (0)
 -->
<!-- Title: /home/runner/work/doxygen/antimicrox/src/gui/gamecontrollermappingdialog.h Pages: 1 -->
<!--zoomable 543 -->
<svg id="main" version="1.1" xmlns="http://www.w3.org/2000/svg" xmlns:xlink="http://www.w3.org/1999/xlink" xml:space="preserve" onload="init(evt)">
<style type="text/css"><![CDATA[
.edge:hover path { stroke: red; }
.edge:hover polygon { stroke: red; fill: red; }
]]></style>
<script type="text/javascript"><![CDATA[
var edges = document.getElementsByTagName('g');
if (edges && edges.length) {
  for (var i=0;i<edges.length;i++) {
    if (edges[i].id.substr(0,4)=='edge') {
      edges[i].setAttribute('class','edge');
    }
  }
}
]]></script>
        <defs>
                <circle id="rim" cx="0" cy="0" r="7"/>
                <circle id="rim2" cx="0" cy="0" r="3.5"/>
                <g id="zoomPlus">
                        <use xlink:href="#rim" fill="#404040">
                                <set attributeName="fill" to="#808080" begin="zoomplus.mouseover" end="zoomplus.mouseout"/>
                        </use>
                        <path d="M-4,0h8M0,-4v8" fill="none" stroke="white" stroke-width="1.5" pointer-events="none"/>
                </g>
                <g id="zoomMin">
                        <use xlink:href="#rim" fill="#404040">
                                <set attributeName="fill" to="#808080" begin="zoomminus.mouseover" end="zoomminus.mouseout"/>
                        </use>
                        <path d="M-4,0h8" fill="none" stroke="white" stroke-width="1.5" pointer-events="none"/>
                </g>
                <g id="dirArrow">
                        <path fill="none" stroke="white" stroke-width="1.5" d="M0,-3.0v7 M-2.5,-0.5L0,-3.0L2.5,-0.5"/>
                </g>
               <g id="resetDef">
                       <use xlink:href="#rim2" fill="#404040">
                               <set attributeName="fill" to="#808080" begin="reset.mouseover" end="reset.mouseout"/>
                       </use>
               </g>
        </defs>

<script type="text/javascript">
var viewWidth = 2078;
var viewHeight = 543;
var sectionId = 'dynsection-0';
</script>
<script xlink:href="svgpan.js"/>
<svg id="graph" class="graph">
<g id="viewport">
<title>/home/runner/work/doxygen/antimicrox/src/gui/gamecontrollermappingdialog.h</title>
<polygon fill="white" stroke="transparent" points="-4,4 -4,-539 2073.5,-539 2073.5,4 -4,4"/>
<!-- Node1 -->
<g id="node1" class="node">
<title>Node1</title>
<g id="a_node1"><a xlink:title=" ">
<polygon fill="#bfbfbf" stroke="black" points="1803.5,-504.5 1803.5,-534.5 2069.5,-534.5 2069.5,-504.5 1803.5,-504.5"/>
<text text-anchor="start" x="1811.5" y="-522.5" font-family="Helvetica,sans-Serif" font-size="10.00">/home/runner/work/doxygen</text>
<text text-anchor="middle" x="1936.5" y="-511.5" font-family="Helvetica,sans-Serif" font-size="10.00">/antimicrox/src/gui/gamecontrollermappingdialog.h</text>
</a>
</g>
</g>
<!-- Node2 -->
<g id="node2" class="node">
<title>Node2</title>
<g id="a_node2"><a xlink:href="gamecontroller_8h.html" target="_top" xlink:title=" ">
<polygon fill="white" stroke="black" points="1115.5,-448.5 1115.5,-467.5 1291.5,-467.5 1291.5,-448.5 1115.5,-448.5"/>
<text text-anchor="middle" x="1203.5" y="-455.5" font-family="Helvetica,sans-Serif" font-size="10.00">gamecontroller/gamecontroller.h</text>
</a>
</g>
</g>
<!-- Node1&#45;&gt;Node2 -->
<g id="edge1" class="edge">
<title>Node1&#45;&gt;Node2</title>
<path fill="none" stroke="midnightblue" d="M1803.33,-507.69C1658.76,-495.96 1431.27,-477.49 1301.97,-466.99"/>
<polygon fill="midnightblue" stroke="midnightblue" points="1301.94,-463.48 1291.69,-466.16 1301.37,-470.46 1301.94,-463.48"/>
</g>
<!-- Node41 -->
<g id="node41" class="node">
<title>Node41</title>
<g id="a_node41"><a xlink:href="gamecontrollermappingdialoghelper_8h.html" target="_top" xlink:title=" ">
<polygon fill="white" stroke="black" points="1695,-56.5 1695,-75.5 1946,-75.5 1946,-56.5 1695,-56.5"/>
<text text-anchor="middle" x="1820.5" y="-63.5" font-family="Helvetica,sans-Serif" font-size="10.00">uihelpers/gamecontrollermappingdialoghelper.h</text>
</a>
</g>
</g>
<!-- Node1&#45;&gt;Node41 -->
<g id="edge50" class="edge">
<title>Node1&#45;&gt;Node41</title>
<path fill="none" stroke="midnightblue" d="M1936.5,-504.28C1936.5,-482.48 1936.5,-439.49 1936.5,-403 1936.5,-403 1936.5,-403 1936.5,-177 1936.5,-129.81 1885.34,-96.79 1850.97,-79.92"/>
<polygon fill="midnightblue" stroke="midnightblue" points="1852.31,-76.69 1841.78,-75.6 1849.33,-83.02 1852.31,-76.69"/>
</g>
<!-- Node42 -->
<g id="node42" class="node">
<title>Node42</title>
<g id="a_node42"><a xlink:title=" ">
<polygon fill="white" stroke="#bfbfbf" points="1964.5,-448.5 1964.5,-467.5 2020.5,-467.5 2020.5,-448.5 1964.5,-448.5"/>
<text text-anchor="middle" x="1992.5" y="-455.5" font-family="Helvetica,sans-Serif" font-size="10.00">QDialog</text>
</a>
</g>
</g>
<!-- Node1&#45;&gt;Node42 -->
<g id="edge53" class="edge">
<title>Node1&#45;&gt;Node42</title>
<path fill="none" stroke="midnightblue" d="M1949.77,-504.4C1958.08,-495.58 1968.8,-484.18 1977.42,-475.02"/>
<polygon fill="midnightblue" stroke="midnightblue" points="1980.05,-477.34 1984.35,-467.66 1974.95,-472.54 1980.05,-477.34"/>
</g>
<!-- Node3 -->
<g id="node3" class="node">
<title>Node3</title>
<g id="a_node3"><a xlink:title=" ">
<polygon fill="white" stroke="#bfbfbf" points="1128,-392.5 1128,-411.5 1279,-411.5 1279,-392.5 1128,-392.5"/>
<text text-anchor="middle" x="1203.5" y="-399.5" font-family="Helvetica,sans-Serif" font-size="10.00">SDL2/SDL_gamecontroller.h</text>
</a>
</g>
</g>
<!-- Node2&#45;&gt;Node3 -->
<g id="edge2" class="edge">
<title>Node2&#45;&gt;Node3</title>
<path fill="none" stroke="midnightblue" d="M1203.5,-448.08C1203.5,-441.01 1203.5,-430.86 1203.5,-421.99"/>
<polygon fill="midnightblue" stroke="midnightblue" points="1207,-421.75 1203.5,-411.75 1200,-421.75 1207,-421.75"/>
</g>
<!-- Node4 -->
<g id="node4" class="node">
<title>Node4</title>
<g id="a_node4"><a xlink:href="inputdevice_8h.html" target="_top" xlink:title=" ">
<polygon fill="white" stroke="black" points="353,-392.5 353,-411.5 436,-411.5 436,-392.5 353,-392.5"/>
<text text-anchor="middle" x="394.5" y="-399.5" font-family="Helvetica,sans-Serif" font-size="10.00">inputdevice.h</text>
</a>
</g>
</g>
<!-- Node2&#45;&gt;Node4 -->
<g id="edge3" class="edge">
<title>Node2&#45;&gt;Node4</title>
<path fill="none" stroke="midnightblue" d="M1115.38,-451.12C946.35,-439.84 581.37,-415.47 446.21,-406.45"/>
<polygon fill="midnightblue" stroke="midnightblue" points="446.33,-402.95 436.12,-405.78 445.87,-409.94 446.33,-402.95"/>
</g>
<!-- Node5 -->
<g id="node5" class="node">
<title>Node5</title>
<g id="a_node5"><a xlink:href="inputdevicecalibration_8h.html" target="_top" xlink:title=" ">
<polygon fill="white" stroke="black" points="527.5,-336.5 527.5,-355.5 661.5,-355.5 661.5,-336.5 527.5,-336.5"/>
<text text-anchor="middle" x="594.5" y="-343.5" font-family="Helvetica,sans-Serif" font-size="10.00">inputdevicecalibration.h</text>
</a>
</g>
</g>
<!-- Node4&#45;&gt;Node5 -->
<g id="edge4" class="edge">
<title>Node4&#45;&gt;Node5</title>
<path fill="none" stroke="midnightblue" d="M426.19,-392.44C460.57,-383.16 515.58,-368.31 553.29,-358.13"/>
<polygon fill="midnightblue" stroke="midnightblue" points="554.22,-361.5 562.96,-355.52 552.39,-354.74 554.22,-361.5"/>
</g>
<!-- Node7 -->
<g id="node7" class="node">
<title>Node7</title>
<g id="a_node7"><a xlink:href="joysensordirection_8h.html" target="_top" xlink:title=" ">
<polygon fill="white" stroke="black" points="86.5,-280.5 86.5,-299.5 202.5,-299.5 202.5,-280.5 86.5,-280.5"/>
<text text-anchor="middle" x="144.5" y="-287.5" font-family="Helvetica,sans-Serif" font-size="10.00">joysensordirection.h</text>
</a>
</g>
</g>
<!-- Node4&#45;&gt;Node7 -->
<g id="edge6" class="edge">
<title>Node4&#45;&gt;Node7</title>
<path fill="none" stroke="midnightblue" d="M368.45,-392.38C343.51,-383.89 304.98,-370.18 272.5,-356 235.64,-339.91 194.38,-318.27 168.92,-304.48"/>
<polygon fill="midnightblue" stroke="midnightblue" points="170.44,-301.32 159.98,-299.6 167.09,-307.46 170.44,-301.32"/>
</g>
<!-- Node9 -->
<g id="node9" class="node">
<title>Node9</title>
<g id="a_node9"><a xlink:href="joysensortype_8h.html" target="_top" xlink:title=" ">
<polygon fill="white" stroke="black" points="221,-280.5 221,-299.5 316,-299.5 316,-280.5 221,-280.5"/>
<text text-anchor="middle" x="268.5" y="-287.5" font-family="Helvetica,sans-Serif" font-size="10.00">joysensortype.h</text>
</a>
</g>
</g>
<!-- Node4&#45;&gt;Node9 -->
<g id="edge8" class="edge">
<title>Node4&#45;&gt;Node9</title>
<path fill="none" stroke="midnightblue" d="M352.82,-392.63C330.59,-386.14 304.41,-374.95 287.5,-356 276.14,-343.26 271.55,-324.07 269.71,-309.83"/>
<polygon fill="midnightblue" stroke="midnightblue" points="273.18,-309.33 268.75,-299.7 266.21,-309.99 273.18,-309.33"/>
</g>
<!-- Node11 -->
<g id="node11" class="node">
<title>Node11</title>
<g id="a_node11"><a xlink:href="setjoystick_8h.html" target="_top" xlink:title=" ">
<polygon fill="white" stroke="black" points="297,-336.5 297,-355.5 376,-355.5 376,-336.5 297,-336.5"/>
<text text-anchor="middle" x="336.5" y="-343.5" font-family="Helvetica,sans-Serif" font-size="10.00">setjoystick.h</text>
</a>
</g>
</g>
<!-- Node4&#45;&gt;Node11 -->
<g id="edge11" class="edge">
<title>Node4&#45;&gt;Node11</title>
<path fill="none" stroke="midnightblue" d="M385.18,-392.32C376.61,-384.34 363.69,-372.31 353.31,-362.65"/>
<polygon fill="midnightblue" stroke="midnightblue" points="355.69,-360.09 345.99,-355.83 350.92,-365.21 355.69,-360.09"/>
</g>
<!-- Node40 -->
<g id="node40" class="node">
<title>Node40</title>
<g id="a_node40"><a xlink:title=" ">
<polygon fill="white" stroke="#bfbfbf" points="393.5,-336.5 393.5,-355.5 509.5,-355.5 509.5,-336.5 393.5,-336.5"/>
<text text-anchor="middle" x="451.5" y="-343.5" font-family="Helvetica,sans-Serif" font-size="10.00">SDL2/SDL_joystick.h</text>
</a>
</g>
</g>
<!-- Node4&#45;&gt;Node40 -->
<g id="edge49" class="edge">
<title>Node4&#45;&gt;Node40</title>
<path fill="none" stroke="midnightblue" d="M403.66,-392.32C412,-384.42 424.53,-372.55 434.68,-362.94"/>
<polygon fill="midnightblue" stroke="midnightblue" points="437.32,-365.25 442.18,-355.83 432.51,-360.17 437.32,-365.25"/>
</g>
<!-- Node6 -->
<g id="node6" class="node">
<title>Node6</title>
<g id="a_node6"><a xlink:title=" ">
<polygon fill="white" stroke="#bfbfbf" points="570,-280.5 570,-299.5 619,-299.5 619,-280.5 570,-280.5"/>
<text text-anchor="middle" x="594.5" y="-287.5" font-family="Helvetica,sans-Serif" font-size="10.00">QHash</text>
</a>
</g>
</g>
<!-- Node5&#45;&gt;Node6 -->
<g id="edge5" class="edge">
<title>Node5&#45;&gt;Node6</title>
<path fill="none" stroke="midnightblue" d="M594.5,-336.08C594.5,-329.01 594.5,-318.86 594.5,-309.99"/>
<polygon fill="midnightblue" stroke="midnightblue" points="598,-309.75 594.5,-299.75 591,-309.75 598,-309.75"/>
</g>
<!-- Node8 -->
<g id="node8" class="node">
<title>Node8</title>
<g id="a_node8"><a xlink:title=" ">
<polygon fill="white" stroke="#bfbfbf" points="126,-224.5 126,-243.5 197,-243.5 197,-224.5 126,-224.5"/>
<text text-anchor="middle" x="161.5" y="-231.5" font-family="Helvetica,sans-Serif" font-size="10.00">QMetaType</text>
</a>
</g>
</g>
<!-- Node7&#45;&gt;Node8 -->
<g id="edge7" class="edge">
<title>Node7&#45;&gt;Node8</title>
<path fill="none" stroke="midnightblue" d="M147.31,-280.08C149.58,-272.85 152.87,-262.41 155.71,-253.4"/>
<polygon fill="midnightblue" stroke="midnightblue" points="159.08,-254.34 158.75,-243.75 152.4,-252.24 159.08,-254.34"/>
</g>
<!-- Node9&#45;&gt;Node8 -->
<g id="edge9" class="edge">
<title>Node9&#45;&gt;Node8</title>
<path fill="none" stroke="midnightblue" d="M251.31,-280.32C234.15,-271.66 207.55,-258.24 187.75,-248.25"/>
<polygon fill="midnightblue" stroke="midnightblue" points="189.15,-245.04 178.65,-243.65 186,-251.28 189.15,-245.04"/>
</g>
<!-- Node10 -->
<g id="node10" class="node">
<title>Node10</title>
<g id="a_node10"><a xlink:title=" ">
<polygon fill="white" stroke="#bfbfbf" points="232.5,-224.5 232.5,-243.5 304.5,-243.5 304.5,-224.5 232.5,-224.5"/>
<text text-anchor="middle" x="268.5" y="-231.5" font-family="Helvetica,sans-Serif" font-size="10.00">SDL2/SDL.h</text>
</a>
</g>
</g>
<!-- Node9&#45;&gt;Node10 -->
<g id="edge10" class="edge">
<title>Node9&#45;&gt;Node10</title>
<path fill="none" stroke="midnightblue" d="M268.5,-280.08C268.5,-273.01 268.5,-262.86 268.5,-253.99"/>
<polygon fill="midnightblue" stroke="midnightblue" points="272,-253.75 268.5,-243.75 265,-253.75 272,-253.75"/>
</g>
<!-- Node11&#45;&gt;Node7 -->
<g id="edge45" class="edge">
<title>Node11&#45;&gt;Node7</title>
<path fill="none" stroke="midnightblue" d="M306.08,-336.44C273.22,-327.2 220.72,-312.44 184.53,-302.26"/>
<polygon fill="midnightblue" stroke="midnightblue" points="185.35,-298.85 174.78,-299.52 183.46,-305.59 185.35,-298.85"/>
</g>
<!-- Node11&#45;&gt;Node9 -->
<g id="edge46" class="edge">
<title>Node11&#45;&gt;Node9</title>
<path fill="none" stroke="midnightblue" d="M325.57,-336.32C315.33,-328.18 299.78,-315.84 287.5,-306.09"/>
<polygon fill="midnightblue" stroke="midnightblue" points="289.63,-303.31 279.62,-299.83 285.28,-308.79 289.63,-303.31"/>
</g>
<!-- Node12 -->
<g id="node12" class="node">
<title>Node12</title>
<g id="a_node12"><a xlink:href="joyaxis_8h.html" target="_top" xlink:title=" ">
<polygon fill="white" stroke="black" points="469,-280.5 469,-299.5 530,-299.5 530,-280.5 469,-280.5"/>
<text text-anchor="middle" x="499.5" y="-287.5" font-family="Helvetica,sans-Serif" font-size="10.00">joyaxis.h</text>
</a>
</g>
</g>
<!-- Node11&#45;&gt;Node12 -->
<g id="edge12" class="edge">
<title>Node11&#45;&gt;Node12</title>
<path fill="none" stroke="midnightblue" d="M362.33,-336.44C389.75,-327.36 433.28,-312.94 463.93,-302.78"/>
<polygon fill="midnightblue" stroke="midnightblue" points="465.4,-305.98 473.79,-299.52 463.2,-299.34 465.4,-305.98"/>
</g>
<!-- Node39 -->
<g id="node39" class="node">
<title>Node39</title>
<g id="a_node39"><a xlink:href="setjoystickxml_8h.html" target="_top" xlink:title=" ">
<polygon fill="white" stroke="black" points="235,-168.5 235,-187.5 354,-187.5 354,-168.5 235,-168.5"/>
<text text-anchor="middle" x="294.5" y="-175.5" font-family="Helvetica,sans-Serif" font-size="10.00">xml/setjoystickxml.h</text>
</a>
</g>
</g>
<!-- Node11&#45;&gt;Node39 -->
<g id="edge47" class="edge">
<title>Node11&#45;&gt;Node39</title>
<path fill="none" stroke="midnightblue" d="M335.51,-336.34C333.08,-316.25 326.07,-265.1 313.5,-224 310.71,-214.88 306.7,-205.08 303.09,-196.97"/>
<polygon fill="midnightblue" stroke="midnightblue" points="306.21,-195.38 298.84,-187.76 299.85,-198.31 306.21,-195.38"/>
</g>
<!-- Node13 -->
<g id="node13" class="node">
<title>Node13</title>
<g id="a_node13"><a xlink:title=" ">
<polygon fill="white" stroke="#bfbfbf" points="1800,-0.5 1800,-19.5 1841,-19.5 1841,-0.5 1800,-0.5"/>
<text text-anchor="middle" x="1820.5" y="-7.5" font-family="Helvetica,sans-Serif" font-size="10.00">QList</text>
</a>
</g>
</g>
<!-- Node12&#45;&gt;Node13 -->
<g id="edge13" class="edge">
<title>Node12&#45;&gt;Node13</title>
<path fill="none" stroke="midnightblue" d="M530.17,-284.11C539.86,-282.66 550.61,-281.16 560.5,-280 744.38,-258.48 791.88,-267.68 975.5,-244 1413.35,-187.54 1669.95,-413.54 1954.5,-76 1985.71,-38.98 1899.56,-21.34 1851.05,-14.54"/>
<polygon fill="midnightblue" stroke="midnightblue" points="1851.41,-11.05 1841.04,-13.21 1850.49,-17.99 1851.41,-11.05"/>
</g>
<!-- Node14 -->
<g id="node14" class="node">
<title>Node14</title>
<g id="a_node14"><a xlink:title=" ">
<polygon fill="white" stroke="#bfbfbf" points="481.5,-0.5 481.5,-19.5 537.5,-19.5 537.5,-0.5 481.5,-0.5"/>
<text text-anchor="middle" x="509.5" y="-7.5" font-family="Helvetica,sans-Serif" font-size="10.00">QObject</text>
</a>
</g>
</g>
<!-- Node12&#45;&gt;Node14 -->
<g id="edge14" class="edge">
<title>Node12&#45;&gt;Node14</title>
<path fill="none" stroke="midnightblue" d="M475.6,-280.45C458.69,-273.23 436.76,-261.27 423.5,-244 371.07,-175.67 326.3,-125.98 376.5,-56 382.26,-47.97 434.14,-32.04 471.37,-21.45"/>
<polygon fill="midnightblue" stroke="midnightblue" points="472.75,-24.7 481.43,-18.62 470.86,-17.96 472.75,-24.7"/>
</g>
<!-- Node15 -->
<g id="node15" class="node">
<title>Node15</title>
<g id="a_node15"><a xlink:href="haptictriggermodeps5_8h.html" target="_top" xlink:title=" ">
<polygon fill="white" stroke="black" points="433,-224.5 433,-243.5 566,-243.5 566,-224.5 433,-224.5"/>
<text text-anchor="middle" x="499.5" y="-231.5" font-family="Helvetica,sans-Serif" font-size="10.00">haptictriggermodeps5.h</text>
</a>
</g>
</g>
<!-- Node12&#45;&gt;Node15 -->
<g id="edge15" class="edge">
<title>Node12&#45;&gt;Node15</title>
<path fill="none" stroke="midnightblue" d="M499.5,-280.08C499.5,-273.01 499.5,-262.86 499.5,-253.99"/>
<polygon fill="midnightblue" stroke="midnightblue" points="503,-253.75 499.5,-243.75 496,-253.75 503,-253.75"/>
</g>
<!-- Node16 -->
<g id="node16" class="node">
<title>Node16</title>
<g id="a_node16"><a xlink:href="joyaxisbutton_8h.html" target="_top" xlink:title=" ">
<polygon fill="white" stroke="black" points="798,-224.5 798,-243.5 967,-243.5 967,-224.5 798,-224.5"/>
<text text-anchor="middle" x="882.5" y="-231.5" font-family="Helvetica,sans-Serif" font-size="10.00">joybuttontypes/joyaxisbutton.h</text>
</a>
</g>
</g>
<!-- Node12&#45;&gt;Node16 -->
<g id="edge16" class="edge">
<title>Node12&#45;&gt;Node16</title>
<path fill="none" stroke="midnightblue" d="M530.21,-284.42C539.9,-282.99 550.65,-281.42 560.5,-280 646.28,-267.68 744.99,-253.95 810.27,-244.93"/>
<polygon fill="midnightblue" stroke="midnightblue" points="811.02,-248.36 820.45,-243.53 810.07,-241.43 811.02,-248.36"/>
</g>
<!-- Node17 -->
<g id="node17" class="node">
<title>Node17</title>
<g id="a_node17"><a xlink:href="joygradientbutton_8h.html" target="_top" xlink:title=" ">
<polygon fill="white" stroke="black" points="788,-168.5 788,-187.5 977,-187.5 977,-168.5 788,-168.5"/>
<text text-anchor="middle" x="882.5" y="-175.5" font-family="Helvetica,sans-Serif" font-size="10.00">joybuttontypes/joygradientbutton.h</text>
</a>
</g>
</g>
<!-- Node16&#45;&gt;Node17 -->
<g id="edge17" class="edge">
<title>Node16&#45;&gt;Node17</title>
<path fill="none" stroke="midnightblue" d="M882.5,-224.08C882.5,-217.01 882.5,-206.86 882.5,-197.99"/>
<polygon fill="midnightblue" stroke="midnightblue" points="886,-197.75 882.5,-187.75 879,-197.75 886,-197.75"/>
</g>
<!-- Node34 -->
<g id="node34" class="node">
<title>Node34</title>
<g id="a_node34"><a xlink:href="logger_8h.html" target="_top" xlink:title=" ">
<polygon fill="white" stroke="black" points="1389.5,-112.5 1389.5,-131.5 1445.5,-131.5 1445.5,-112.5 1389.5,-112.5"/>
<text text-anchor="middle" x="1417.5" y="-119.5" font-family="Helvetica,sans-Serif" font-size="10.00">logger.h</text>
</a>
</g>
</g>
<!-- Node16&#45;&gt;Node34 -->
<g id="edge38" class="edge">
<title>Node16&#45;&gt;Node34</title>
<path fill="none" stroke="midnightblue" d="M924.04,-224.46C1024.95,-203.71 1281.85,-150.89 1379.26,-130.86"/>
<polygon fill="midnightblue" stroke="midnightblue" points="1380.17,-134.25 1389.26,-128.81 1378.76,-127.39 1380.17,-134.25"/>
</g>
<!-- Node18 -->
<g id="node18" class="node">
<title>Node18</title>
<g id="a_node18"><a xlink:href="joybutton_8h.html" target="_top" xlink:title=" ">
<polygon fill="white" stroke="black" points="846.5,-112.5 846.5,-131.5 918.5,-131.5 918.5,-112.5 846.5,-112.5"/>
<text text-anchor="middle" x="882.5" y="-119.5" font-family="Helvetica,sans-Serif" font-size="10.00">joybutton.h</text>
</a>
</g>
</g>
<!-- Node17&#45;&gt;Node18 -->
<g id="edge18" class="edge">
<title>Node17&#45;&gt;Node18</title>
<path fill="none" stroke="midnightblue" d="M882.5,-168.08C882.5,-161.01 882.5,-150.86 882.5,-141.99"/>
<polygon fill="midnightblue" stroke="midnightblue" points="886,-141.75 882.5,-131.75 879,-141.75 886,-141.75"/>
</g>
<!-- Node19 -->
<g id="node19" class="node">
<title>Node19</title>
<g id="a_node19"><a xlink:href="globalvariables_8h.html" target="_top" xlink:title=" ">
<polygon fill="white" stroke="black" points="1156,-56.5 1156,-75.5 1257,-75.5 1257,-56.5 1156,-56.5"/>
<text text-anchor="middle" x="1206.5" y="-63.5" font-family="Helvetica,sans-Serif" font-size="10.00">globalvariables.h</text>
</a>
</g>
</g>
<!-- Node18&#45;&gt;Node19 -->
<g id="edge19" class="edge">
<title>Node18&#45;&gt;Node19</title>
<path fill="none" stroke="midnightblue" d="M918.72,-114.96C973.78,-105.79 1079.15,-88.23 1145.97,-77.09"/>
<polygon fill="midnightblue" stroke="midnightblue" points="1146.65,-80.52 1155.94,-75.43 1145.5,-73.62 1146.65,-80.52"/>
</g>
<!-- Node20 -->
<g id="node20" class="node">
<title>Node20</title>
<g id="a_node20"><a xlink:href="joybuttonmousehelper_8h.html" target="_top" xlink:title=" ">
<polygon fill="white" stroke="black" points="386,-56.5 386,-75.5 521,-75.5 521,-56.5 386,-56.5"/>
<text text-anchor="middle" x="453.5" y="-63.5" font-family="Helvetica,sans-Serif" font-size="10.00">joybuttonmousehelper.h</text>
</a>
</g>
</g>
<!-- Node18&#45;&gt;Node20 -->
<g id="edge22" class="edge">
<title>Node18&#45;&gt;Node20</title>
<path fill="none" stroke="midnightblue" d="M846.29,-116.44C777.01,-107.72 624.27,-88.5 530.99,-76.75"/>
<polygon fill="midnightblue" stroke="midnightblue" points="531.39,-73.28 521.03,-75.5 530.52,-80.22 531.39,-73.28"/>
</g>
<!-- Node21 -->
<g id="node21" class="node">
<title>Node21</title>
<g id="a_node21"><a xlink:href="joybuttonslot_8h.html" target="_top" xlink:title=" ">
<polygon fill="white" stroke="black" points="201.5,-56.5 201.5,-75.5 291.5,-75.5 291.5,-56.5 201.5,-56.5"/>
<text text-anchor="middle" x="246.5" y="-63.5" font-family="Helvetica,sans-Serif" font-size="10.00">joybuttonslot.h</text>
</a>
</g>
</g>
<!-- Node18&#45;&gt;Node21 -->
<g id="edge24" class="edge">
<title>Node18&#45;&gt;Node21</title>
<path fill="none" stroke="midnightblue" d="M846.48,-117.94C740.54,-108.95 429.42,-82.53 301.94,-71.71"/>
<polygon fill="midnightblue" stroke="midnightblue" points="301.9,-68.19 291.64,-70.83 301.3,-75.17 301.9,-68.19"/>
</g>
<!-- Node27 -->
<g id="node27" class="node">
<title>Node27</title>
<g id="a_node27"><a xlink:href="springmousemoveinfo_8h.html" target="_top" xlink:title=" ">
<polygon fill="white" stroke="black" points="539,-56.5 539,-75.5 674,-75.5 674,-56.5 539,-56.5"/>
<text text-anchor="middle" x="606.5" y="-63.5" font-family="Helvetica,sans-Serif" font-size="10.00">springmousemoveinfo.h</text>
</a>
</g>
</g>
<!-- Node18&#45;&gt;Node27 -->
<g id="edge31" class="edge">
<title>Node18&#45;&gt;Node27</title>
<path fill="none" stroke="midnightblue" d="M846.42,-113.94C798.96,-104.66 715.17,-88.26 660.24,-77.51"/>
<polygon fill="midnightblue" stroke="midnightblue" points="660.82,-74.06 650.33,-75.58 659.47,-80.93 660.82,-74.06"/>
</g>
<!-- Node28 -->
<g id="node28" class="node">
<title>Node28</title>
<g id="a_node28"><a xlink:title=" ">
<polygon fill="white" stroke="#bfbfbf" points="692.5,-56.5 692.5,-75.5 788.5,-75.5 788.5,-56.5 692.5,-56.5"/>
<text text-anchor="middle" x="740.5" y="-63.5" font-family="Helvetica,sans-Serif" font-size="10.00">QDeadlineTimer</text>
</a>
</g>
</g>
<!-- Node18&#45;&gt;Node28 -->
<g id="edge32" class="edge">
<title>Node18&#45;&gt;Node28</title>
<path fill="none" stroke="midnightblue" d="M860,-112.44C836.42,-103.48 799.18,-89.31 772.54,-79.18"/>
<polygon fill="midnightblue" stroke="midnightblue" points="773.49,-75.8 762.9,-75.52 771,-82.34 773.49,-75.8"/>
</g>
<!-- Node29 -->
<g id="node29" class="node">
<title>Node29</title>
<g id="a_node29"><a xlink:title=" ">
<polygon fill="white" stroke="#bfbfbf" points="806.5,-56.5 806.5,-75.5 862.5,-75.5 862.5,-56.5 806.5,-56.5"/>
<text text-anchor="middle" x="834.5" y="-63.5" font-family="Helvetica,sans-Serif" font-size="10.00">QQueue</text>
</a>
</g>
</g>
<!-- Node18&#45;&gt;Node29 -->
<g id="edge33" class="edge">
<title>Node18&#45;&gt;Node29</title>
<path fill="none" stroke="midnightblue" d="M874.57,-112.08C867.65,-104.3 857.43,-92.8 849.05,-83.37"/>
<polygon fill="midnightblue" stroke="midnightblue" points="851.54,-80.9 842.28,-75.75 846.31,-85.55 851.54,-80.9"/>
</g>
<!-- Node30 -->
<g id="node30" class="node">
<title>Node30</title>
<g id="a_node30"><a xlink:title=" ">
<polygon fill="white" stroke="#bfbfbf" points="880.5,-56.5 880.5,-75.5 978.5,-75.5 978.5,-56.5 880.5,-56.5"/>
<text text-anchor="middle" x="929.5" y="-63.5" font-family="Helvetica,sans-Serif" font-size="10.00">QReadWriteLock</text>
</a>
</g>
</g>
<!-- Node18&#45;&gt;Node30 -->
<g id="edge34" class="edge">
<title>Node18&#45;&gt;Node30</title>
<path fill="none" stroke="midnightblue" d="M890.26,-112.08C897.04,-104.3 907.04,-92.8 915.26,-83.37"/>
<polygon fill="midnightblue" stroke="midnightblue" points="917.96,-85.59 921.88,-75.75 912.68,-81 917.96,-85.59"/>
</g>
<!-- Node31 -->
<g id="node31" class="node">
<title>Node31</title>
<g id="a_node31"><a xlink:title=" ">
<polygon fill="white" stroke="#bfbfbf" points="996.5,-56.5 996.5,-75.5 1066.5,-75.5 1066.5,-56.5 996.5,-56.5"/>
<text text-anchor="middle" x="1031.5" y="-63.5" font-family="Helvetica,sans-Serif" font-size="10.00">QRunnable</text>
</a>
</g>
</g>
<!-- Node18&#45;&gt;Node31 -->
<g id="edge35" class="edge">
<title>Node18&#45;&gt;Node31</title>
<path fill="none" stroke="midnightblue" d="M906.11,-112.44C930.96,-103.44 970.27,-89.19 998.25,-79.05"/>
<polygon fill="midnightblue" stroke="midnightblue" points="999.79,-82.21 1008,-75.52 997.41,-75.63 999.79,-82.21"/>
</g>
<!-- Node32 -->
<g id="node32" class="node">
<title>Node32</title>
<g id="a_node32"><a xlink:title=" ">
<polygon fill="white" stroke="#bfbfbf" points="1275.5,-56.5 1275.5,-75.5 1333.5,-75.5 1333.5,-56.5 1275.5,-56.5"/>
<text text-anchor="middle" x="1304.5" y="-63.5" font-family="Helvetica,sans-Serif" font-size="10.00">QThread</text>
</a>
</g>
</g>
<!-- Node18&#45;&gt;Node32 -->
<g id="edge36" class="edge">
<title>Node18&#45;&gt;Node32</title>
<path fill="none" stroke="midnightblue" d="M918.6,-118.09C985.07,-112.45 1131.47,-98.68 1265.17,-75.86"/>
<polygon fill="midnightblue" stroke="midnightblue" points="1265.92,-79.28 1275.18,-74.13 1264.73,-72.38 1265.92,-79.28"/>
</g>
<!-- Node33 -->
<g id="node33" class="node">
<title>Node33</title>
<g id="a_node33"><a xlink:title=" ">
<polygon fill="white" stroke="#bfbfbf" points="1085,-56.5 1085,-75.5 1138,-75.5 1138,-56.5 1085,-56.5"/>
<text text-anchor="middle" x="1111.5" y="-63.5" font-family="Helvetica,sans-Serif" font-size="10.00">QTimer</text>
</a>
</g>
</g>
<!-- Node18&#45;&gt;Node33 -->
<g id="edge37" class="edge">
<title>Node18&#45;&gt;Node33</title>
<path fill="none" stroke="midnightblue" d="M918.82,-112.71C955.6,-104.28 1014.37,-90.7 1074.69,-76.17"/>
<polygon fill="midnightblue" stroke="midnightblue" points="1075.88,-79.48 1084.78,-73.73 1074.23,-72.68 1075.88,-79.48"/>
</g>
<!-- Node19&#45;&gt;Node13 -->
<g id="edge20" class="edge">
<title>Node19&#45;&gt;Node13</title>
<path fill="none" stroke="midnightblue" d="M1257.21,-57.15C1260.35,-56.74 1263.47,-56.35 1266.5,-56 1465.32,-33.04 1705.63,-17.75 1789.69,-12.77"/>
<polygon fill="midnightblue" stroke="midnightblue" points="1790.05,-16.25 1799.82,-12.17 1789.64,-9.26 1790.05,-16.25"/>
</g>
<!-- Node19&#45;&gt;Node14 -->
<g id="edge21" class="edge">
<title>Node19&#45;&gt;Node14</title>
<path fill="none" stroke="midnightblue" d="M1155.8,-57.11C1152.65,-56.71 1149.54,-56.33 1146.5,-56 920.03,-31.05 646.65,-17.16 547.63,-12.65"/>
<polygon fill="midnightblue" stroke="midnightblue" points="547.66,-9.15 537.51,-12.19 547.34,-16.14 547.66,-9.15"/>
</g>
<!-- Node20&#45;&gt;Node14 -->
<g id="edge23" class="edge">
<title>Node20&#45;&gt;Node14</title>
<path fill="none" stroke="midnightblue" d="M462.5,-56.32C470.69,-48.42 483.01,-36.55 492.97,-26.94"/>
<polygon fill="midnightblue" stroke="midnightblue" points="495.57,-29.29 500.34,-19.83 490.71,-24.26 495.57,-29.29"/>
</g>
<!-- Node21&#45;&gt;Node14 -->
<g id="edge26" class="edge">
<title>Node21&#45;&gt;Node14</title>
<path fill="none" stroke="midnightblue" d="M291.42,-56.5C336.91,-47.78 409.23,-33.6 471.5,-20 471.6,-19.98 471.7,-19.96 471.8,-19.93"/>
<polygon fill="midnightblue" stroke="midnightblue" points="472.32,-23.41 481.3,-17.79 470.78,-16.58 472.32,-23.41"/>
</g>
<!-- Node22 -->
<g id="node22" class="node">
<title>Node22</title>
<g id="a_node22"><a xlink:title=" ">
<polygon fill="white" stroke="#bfbfbf" points="0,-0.5 0,-19.5 91,-19.5 91,-0.5 0,-0.5"/>
<text text-anchor="middle" x="45.5" y="-7.5" font-family="Helvetica,sans-Serif" font-size="10.00">QElapsedTimer</text>
</a>
</g>
</g>
<!-- Node21&#45;&gt;Node22 -->
<g id="edge25" class="edge">
<title>Node21&#45;&gt;Node22</title>
<path fill="none" stroke="midnightblue" d="M214.65,-56.44C180.1,-47.16 124.82,-32.31 86.92,-22.13"/>
<polygon fill="midnightblue" stroke="midnightblue" points="87.77,-18.73 77.2,-19.52 85.95,-25.49 87.77,-18.73"/>
</g>
<!-- Node23 -->
<g id="node23" class="node">
<title>Node23</title>
<g id="a_node23"><a xlink:title=" ">
<polygon fill="white" stroke="#bfbfbf" points="109,-0.5 109,-19.5 168,-19.5 168,-0.5 109,-0.5"/>
<text text-anchor="middle" x="138.5" y="-7.5" font-family="Helvetica,sans-Serif" font-size="10.00">QPointer</text>
</a>
</g>
</g>
<!-- Node21&#45;&gt;Node23 -->
<g id="edge27" class="edge">
<title>Node21&#45;&gt;Node23</title>
<path fill="none" stroke="midnightblue" d="M229.15,-56.32C211.83,-47.66 184.98,-34.24 165,-24.25"/>
<polygon fill="midnightblue" stroke="midnightblue" points="166.32,-21 155.81,-19.65 163.19,-27.26 166.32,-21"/>
</g>
<!-- Node24 -->
<g id="node24" class="node">
<title>Node24</title>
<g id="a_node24"><a xlink:title=" ">
<polygon fill="white" stroke="#bfbfbf" points="186,-0.5 186,-19.5 235,-19.5 235,-0.5 186,-0.5"/>
<text text-anchor="middle" x="210.5" y="-7.5" font-family="Helvetica,sans-Serif" font-size="10.00">QTime</text>
</a>
</g>
</g>
<!-- Node21&#45;&gt;Node24 -->
<g id="edge28" class="edge">
<title>Node21&#45;&gt;Node24</title>
<path fill="none" stroke="midnightblue" d="M240.56,-56.08C235.52,-48.53 228.16,-37.49 221.99,-28.23"/>
<polygon fill="midnightblue" stroke="midnightblue" points="224.79,-26.13 216.33,-19.75 218.97,-30.01 224.79,-26.13"/>
</g>
<!-- Node25 -->
<g id="node25" class="node">
<title>Node25</title>
<g id="a_node25"><a xlink:title=" ">
<polygon fill="white" stroke="#bfbfbf" points="253,-0.5 253,-19.5 312,-19.5 312,-0.5 253,-0.5"/>
<text text-anchor="middle" x="282.5" y="-7.5" font-family="Helvetica,sans-Serif" font-size="10.00">QVariant</text>
</a>
</g>
</g>
<!-- Node21&#45;&gt;Node25 -->
<g id="edge29" class="edge">
<title>Node21&#45;&gt;Node25</title>
<path fill="none" stroke="midnightblue" d="M252.44,-56.08C257.48,-48.53 264.84,-37.49 271.01,-28.23"/>
<polygon fill="midnightblue" stroke="midnightblue" points="274.03,-30.01 276.67,-19.75 268.21,-26.13 274.03,-30.01"/>
</g>
<!-- Node26 -->
<g id="node26" class="node">
<title>Node26</title>
<g id="a_node26"><a xlink:title=" ">
<polygon fill="white" stroke="#bfbfbf" points="330,-0.5 330,-19.5 463,-19.5 463,-0.5 330,-0.5"/>
<text text-anchor="middle" x="396.5" y="-7.5" font-family="Helvetica,sans-Serif" font-size="10.00">QtWidgets/QApplication</text>
</a>
</g>
</g>
<!-- Node21&#45;&gt;Node26 -->
<g id="edge30" class="edge">
<title>Node21&#45;&gt;Node26</title>
<path fill="none" stroke="midnightblue" d="M270.27,-56.44C295.39,-47.4 335.21,-33.06 363.4,-22.92"/>
<polygon fill="midnightblue" stroke="midnightblue" points="364.62,-26.2 372.84,-19.52 362.25,-19.61 364.62,-26.2"/>
</g>
<!-- Node34&#45;&gt;Node14 -->
<g id="edge41" class="edge">
<title>Node34&#45;&gt;Node14</title>
<path fill="none" stroke="midnightblue" d="M1410.79,-112.25C1398.9,-97.5 1372.53,-68.14 1342.5,-56 1268.33,-26.03 701.69,-14.27 547.9,-11.61"/>
<polygon fill="midnightblue" stroke="midnightblue" points="547.62,-8.11 537.56,-11.44 547.5,-15.11 547.62,-8.11"/>
</g>
<!-- Node34&#45;&gt;Node32 -->
<g id="edge43" class="edge">
<title>Node34&#45;&gt;Node32</title>
<path fill="none" stroke="midnightblue" d="M1399.59,-112.44C1381.25,-103.68 1352.49,-89.94 1331.41,-79.86"/>
<polygon fill="midnightblue" stroke="midnightblue" points="1332.85,-76.67 1322.32,-75.52 1329.83,-82.99 1332.85,-76.67"/>
</g>
<!-- Node35 -->
<g id="node35" class="node">
<title>Node35</title>
<g id="a_node35"><a xlink:title=" ">
<polygon fill="white" stroke="#bfbfbf" points="1464,-56.5 1464,-75.5 1505,-75.5 1505,-56.5 1464,-56.5"/>
<text text-anchor="middle" x="1484.5" y="-63.5" font-family="Helvetica,sans-Serif" font-size="10.00">QFile</text>
</a>
</g>
</g>
<!-- Node34&#45;&gt;Node35 -->
<g id="edge39" class="edge">
<title>Node34&#45;&gt;Node35</title>
<path fill="none" stroke="midnightblue" d="M1428.26,-112.32C1438.27,-104.26 1453.39,-92.08 1465.43,-82.37"/>
<polygon fill="midnightblue" stroke="midnightblue" points="1467.95,-84.83 1473.54,-75.83 1463.56,-79.38 1467.95,-84.83"/>
</g>
<!-- Node36 -->
<g id="node36" class="node">
<title>Node36</title>
<g id="a_node36"><a xlink:title=" ">
<polygon fill="white" stroke="#bfbfbf" points="1523,-56.5 1523,-75.5 1578,-75.5 1578,-56.5 1523,-56.5"/>
<text text-anchor="middle" x="1550.5" y="-63.5" font-family="Helvetica,sans-Serif" font-size="10.00">QMutex</text>
</a>
</g>
</g>
<!-- Node34&#45;&gt;Node36 -->
<g id="edge40" class="edge">
<title>Node34&#45;&gt;Node36</title>
<path fill="none" stroke="midnightblue" d="M1438.57,-112.44C1460.56,-103.52 1495.23,-89.44 1520.16,-79.32"/>
<polygon fill="midnightblue" stroke="midnightblue" points="1521.58,-82.52 1529.52,-75.52 1518.94,-76.04 1521.58,-82.52"/>
</g>
<!-- Node37 -->
<g id="node37" class="node">
<title>Node37</title>
<g id="a_node37"><a xlink:title=" ">
<polygon fill="white" stroke="#bfbfbf" points="1596.5,-56.5 1596.5,-75.5 1676.5,-75.5 1676.5,-56.5 1596.5,-56.5"/>
<text text-anchor="middle" x="1636.5" y="-63.5" font-family="Helvetica,sans-Serif" font-size="10.00">QTextStream</text>
</a>
</g>
</g>
<!-- Node34&#45;&gt;Node37 -->
<g id="edge42" class="edge">
<title>Node34&#45;&gt;Node37</title>
<path fill="none" stroke="midnightblue" d="M1445.68,-114.05C1482.76,-104.91 1548.35,-88.73 1592.13,-77.94"/>
<polygon fill="midnightblue" stroke="midnightblue" points="1593.07,-81.31 1601.94,-75.52 1591.39,-74.52 1593.07,-81.31"/>
</g>
<!-- Node38 -->
<g id="node38" class="node">
<title>Node38</title>
<g id="a_node38"><a xlink:title=" ">
<polygon fill="white" stroke="#bfbfbf" points="1389.5,-56.5 1389.5,-75.5 1445.5,-75.5 1445.5,-56.5 1389.5,-56.5"/>
<text text-anchor="middle" x="1417.5" y="-63.5" font-family="Helvetica,sans-Serif" font-size="10.00">sstream</text>
</a>
</g>
</g>
<!-- Node34&#45;&gt;Node38 -->
<g id="edge44" class="edge">
<title>Node34&#45;&gt;Node38</title>
<path fill="none" stroke="midnightblue" d="M1417.5,-112.08C1417.5,-105.01 1417.5,-94.86 1417.5,-85.99"/>
<polygon fill="midnightblue" stroke="midnightblue" points="1421,-85.75 1417.5,-75.75 1414,-85.75 1421,-85.75"/>
</g>
<!-- Node39&#45;&gt;Node14 -->
<g id="edge48" class="edge">
<title>Node39&#45;&gt;Node14</title>
<path fill="none" stroke="midnightblue" d="M295.42,-168.18C298.23,-145.87 308.74,-86.82 343.5,-56 348.38,-51.67 423.89,-32.3 471.37,-20.43"/>
<polygon fill="midnightblue" stroke="midnightblue" points="472.47,-23.76 481.33,-17.94 470.78,-16.97 472.47,-23.76"/>
</g>
<!-- Node41&#45;&gt;Node13 -->
<g id="edge51" class="edge">
<title>Node41&#45;&gt;Node13</title>
<path fill="none" stroke="midnightblue" d="M1820.5,-56.08C1820.5,-49.01 1820.5,-38.86 1820.5,-29.99"/>
<polygon fill="midnightblue" stroke="midnightblue" points="1824,-29.75 1820.5,-19.75 1817,-29.75 1824,-29.75"/>
</g>
<!-- Node41&#45;&gt;Node14 -->
<g id="edge52" class="edge">
<title>Node41&#45;&gt;Node14</title>
<path fill="none" stroke="midnightblue" d="M1694.75,-56.5C1691.64,-56.33 1688.55,-56.16 1685.5,-56 1238.62,-32.56 695.61,-16.29 548.06,-12.08"/>
<polygon fill="midnightblue" stroke="midnightblue" points="547.82,-8.57 537.73,-11.78 547.62,-15.57 547.82,-8.57"/>
</g>
</g>
</svg>
        <g id="navigator" transform="translate(0 0)" fill="#404254">
                <rect fill="#f2f5e9" fill-opacity="0.5" stroke="#606060" stroke-width=".5" x="0" y="0" width="60" height="60"/>
                <use id="zoomplus" xlink:href="#zoomPlus" x="17" y="9" onmousedown="handleZoom(evt,'in')"/>
                <use id="zoomminus" xlink:href="#zoomMin" x="42" y="9" onmousedown="handleZoom(evt,'out')"/>
                <use id="reset" xlink:href="#resetDef" x="30" y="36" onmousedown="handleReset()"/>
                <g id="arrowUp" xlink:href="#dirArrow" transform="translate(30 24)" onmousedown="handlePan(0,-1)">
                  <use xlink:href="#rim" fill="#404040">
                        <set attributeName="fill" to="#808080" begin="arrowUp.mouseover" end="arrowUp.mouseout"/>
                  </use>
                  <path fill="none" stroke="white" stroke-width="1.5" d="M0,-3.0v7 M-2.5,-0.5L0,-3.0L2.5,-0.5"/>
                </g>
                <g id="arrowRight" xlink:href="#dirArrow" transform="rotate(90) translate(36 -43)" onmousedown="handlePan(1,0)">
                  <use xlink:href="#rim" fill="#404040">
                        <set attributeName="fill" to="#808080" begin="arrowRight.mouseover" end="arrowRight.mouseout"/>
                  </use>
                  <path fill="none" stroke="white" stroke-width="1.5" d="M0,-3.0v7 M-2.5,-0.5L0,-3.0L2.5,-0.5"/>
                </g>
                <g id="arrowDown" xlink:href="#dirArrow" transform="rotate(180) translate(-30 -48)" onmousedown="handlePan(0,1)">
                  <use xlink:href="#rim" fill="#404040">
                        <set attributeName="fill" to="#808080" begin="arrowDown.mouseover" end="arrowDown.mouseout"/>
                  </use>
                  <path fill="none" stroke="white" stroke-width="1.5" d="M0,-3.0v7 M-2.5,-0.5L0,-3.0L2.5,-0.5"/>
                </g>
                <g id="arrowLeft" xlink:href="#dirArrow" transform="rotate(270) translate(-36 17)" onmousedown="handlePan(-1,0)">
                  <use xlink:href="#rim" fill="#404040">
                        <set attributeName="fill" to="#808080" begin="arrowLeft.mouseover" end="arrowLeft.mouseout"/>
                  </use>
                  <path fill="none" stroke="white" stroke-width="1.5" d="M0,-3.0v7 M-2.5,-0.5L0,-3.0L2.5,-0.5"/>
                </g>
        </g>
        <svg viewBox="0 0 15 15" width="100%" height="30px" preserveAspectRatio="xMaxYMin meet">
         <g id="arrow_out" transform="scale(0.3 0.3)">
          <a xlink:href="gamecontrollermappingdialog_8h__incl_org.svg" target="_base">
           <rect id="button" ry="5" rx="5" y="6" x="6" height="38" width="38"
                fill="#f2f5e9" fill-opacity="0.5" stroke="#606060" stroke-width="1.0"/>
           <path id="arrow"
             d="M 11.500037,31.436501 C 11.940474,20.09759 22.043105,11.32322 32.158766,21.979434 L 37.068811,17.246167 C 37.068811,17.246167 37.088388,32 37.088388,32 L 22.160133,31.978069 C 22.160133,31.978069 26.997745,27.140456 26.997745,27.140456 C 18.528582,18.264221 13.291696,25.230495 11.500037,31.436501 z"
             style="fill:#404040;"/>
          </a>
         </g>
        </svg>
</svg>
