<?xml version="1.0" encoding="UTF-8" standalone="no"?>
<!DOCTYPE svg PUBLIC "-//W3C//DTD SVG 1.1//EN"
 "http://www.w3.org/Graphics/SVG/1.1/DTD/svg11.dtd">
<!-- Generated by graphviz version 2.43.0 (0)
 -->
<!-- Title: /home/runner/work/doxygen/antimicrox/src/gamecontroller/gamecontrollertrigger.cpp Pages: 1 -->
<svg width="1601pt" height="442pt"
 viewBox="0.00 0.00 1601.38 442.00" xmlns="http://www.w3.org/2000/svg" xmlns:xlink="http://www.w3.org/1999/xlink">
<g id="graph0" class="graph" transform="scale(1 1) rotate(0) translate(4 438)">
<title>/home/runner/work/doxygen/antimicrox/src/gamecontroller/gamecontrollertrigger.cpp</title>
<polygon fill="white" stroke="transparent" points="-4,4 -4,-438 1597.38,-438 1597.38,4 -4,4"/>
<!-- Node1 -->
<g id="node1" class="node">
<title>Node1</title>
<g id="a_node1"><a xlink:title=" ">
<polygon fill="#bfbfbf" stroke="black" points="1049.38,-392.5 1049.38,-433.5 1216.38,-433.5 1216.38,-392.5 1049.38,-392.5"/>
<text text-anchor="start" x="1057.38" y="-421.5" font-family="Helvetica,sans-Serif" font-size="10.00">/home/runner/work/doxygen</text>
<text text-anchor="start" x="1057.38" y="-410.5" font-family="Helvetica,sans-Serif" font-size="10.00">/antimicrox/src/gamecontroller</text>
<text text-anchor="middle" x="1132.88" y="-399.5" font-family="Helvetica,sans-Serif" font-size="10.00">/gamecontrollertrigger.cpp</text>
</a>
</g>
</g>
<!-- Node2 -->
<g id="node2" class="node">
<title>Node2</title>
<g id="a_node2"><a xlink:href="gamecontrollertrigger_8h.html" target="_top" xlink:title=" ">
<polygon fill="white" stroke="black" points="434.38,-336.5 434.38,-355.5 565.38,-355.5 565.38,-336.5 434.38,-336.5"/>
<text text-anchor="middle" x="499.88" y="-343.5" font-family="Helvetica,sans-Serif" font-size="10.00">gamecontrollertrigger.h</text>
</a>
</g>
</g>
<!-- Node1&#45;&gt;Node2 -->
<g id="edge1" class="edge">
<title>Node1&#45;&gt;Node2</title>
<path fill="none" stroke="midnightblue" d="M1049.14,-403.4C925.24,-390.68 694.9,-367.03 575.71,-354.79"/>
<polygon fill="midnightblue" stroke="midnightblue" points="575.88,-351.29 565.57,-353.75 575.16,-358.25 575.88,-351.29"/>
</g>
<!-- Node9 -->
<g id="node9" class="node">
<title>Node9</title>
<g id="a_node9"><a xlink:href="globalvariables_8h.html" target="_top" xlink:title=" ">
<polygon fill="white" stroke="black" points="11.38,-56.5 11.38,-75.5 112.38,-75.5 112.38,-56.5 11.38,-56.5"/>
<text text-anchor="middle" x="61.88" y="-63.5" font-family="Helvetica,sans-Serif" font-size="10.00">globalvariables.h</text>
</a>
</g>
</g>
<!-- Node1&#45;&gt;Node9 -->
<g id="edge36" class="edge">
<title>Node1&#45;&gt;Node9</title>
<path fill="none" stroke="midnightblue" d="M1049.29,-411.66C790.69,-409.5 20.88,-394.41 20.88,-291 20.88,-291 20.88,-291 20.88,-177 20.88,-142.52 38.79,-105.56 50.93,-84.47"/>
<polygon fill="midnightblue" stroke="midnightblue" points="54.04,-86.09 56.17,-75.71 48.03,-82.49 54.04,-86.09"/>
</g>
<!-- Node29 -->
<g id="node29" class="node">
<title>Node29</title>
<g id="a_node29"><a xlink:href="gamecontrollertriggerbutton_8h.html" target="_top" xlink:title=" ">
<polygon fill="white" stroke="black" points="799.88,-280.5 799.88,-299.5 963.88,-299.5 963.88,-280.5 799.88,-280.5"/>
<text text-anchor="middle" x="881.88" y="-287.5" font-family="Helvetica,sans-Serif" font-size="10.00">gamecontrollertriggerbutton.h</text>
</a>
</g>
</g>
<!-- Node1&#45;&gt;Node29 -->
<g id="edge34" class="edge">
<title>Node1&#45;&gt;Node29</title>
<path fill="none" stroke="midnightblue" d="M1092.27,-392.42C1040.67,-367.55 953.04,-325.3 908.93,-304.04"/>
<polygon fill="midnightblue" stroke="midnightblue" points="910.23,-300.79 899.71,-299.6 907.19,-307.09 910.23,-300.79"/>
</g>
<!-- Node30 -->
<g id="node30" class="node">
<title>Node30</title>
<g id="a_node30"><a xlink:href="joyaxisxml_8h.html" target="_top" xlink:title=" ">
<polygon fill="white" stroke="black" points="1465.38,-56.5 1465.38,-75.5 1566.38,-75.5 1566.38,-56.5 1465.38,-56.5"/>
<text text-anchor="middle" x="1515.88" y="-63.5" font-family="Helvetica,sans-Serif" font-size="10.00">xml/joyaxisxml.h</text>
</a>
</g>
</g>
<!-- Node1&#45;&gt;Node30 -->
<g id="edge37" class="edge">
<title>Node1&#45;&gt;Node30</title>
<path fill="none" stroke="midnightblue" d="M1118.39,-392.14C1103,-369.04 1080.88,-329.18 1080.88,-291 1080.88,-291 1080.88,-291 1080.88,-177 1080.88,-157.51 1346.93,-101.22 1462.9,-77.62"/>
<polygon fill="midnightblue" stroke="midnightblue" points="1463.87,-80.99 1472.98,-75.57 1462.48,-74.13 1463.87,-80.99"/>
</g>
<!-- Node31 -->
<g id="node31" class="node">
<title>Node31</title>
<g id="a_node31"><a xlink:title=" ">
<polygon fill="white" stroke="#bfbfbf" points="1109.38,-336.5 1109.38,-355.5 1260.38,-355.5 1260.38,-336.5 1109.38,-336.5"/>
<text text-anchor="middle" x="1184.88" y="-343.5" font-family="Helvetica,sans-Serif" font-size="10.00">SDL2/SDL_gamecontroller.h</text>
</a>
</g>
</g>
<!-- Node1&#45;&gt;Node31 -->
<g id="edge40" class="edge">
<title>Node1&#45;&gt;Node31</title>
<path fill="none" stroke="midnightblue" d="M1148.48,-392.5C1155.84,-383.3 1164.53,-372.44 1171.57,-363.63"/>
<polygon fill="midnightblue" stroke="midnightblue" points="1174.44,-365.65 1177.95,-355.65 1168.97,-361.27 1174.44,-365.65"/>
</g>
<!-- Node32 -->
<g id="node32" class="node">
<title>Node32</title>
<g id="a_node32"><a xlink:title=" ">
<polygon fill="white" stroke="#bfbfbf" points="1278.88,-336.5 1278.88,-355.5 1334.88,-355.5 1334.88,-336.5 1278.88,-336.5"/>
<text text-anchor="middle" x="1306.88" y="-343.5" font-family="Helvetica,sans-Serif" font-size="10.00">QDebug</text>
</a>
</g>
</g>
<!-- Node1&#45;&gt;Node32 -->
<g id="edge41" class="edge">
<title>Node1&#45;&gt;Node32</title>
<path fill="none" stroke="midnightblue" d="M1185.08,-392.5C1214.07,-381.67 1249.22,-368.54 1274.3,-359.17"/>
<polygon fill="midnightblue" stroke="midnightblue" points="1275.57,-362.43 1283.71,-355.65 1273.12,-355.87 1275.57,-362.43"/>
</g>
<!-- Node33 -->
<g id="node33" class="node">
<title>Node33</title>
<g id="a_node33"><a xlink:title=" ">
<polygon fill="white" stroke="#bfbfbf" points="1353.38,-336.5 1353.38,-355.5 1466.38,-355.5 1466.38,-336.5 1353.38,-336.5"/>
<text text-anchor="middle" x="1409.88" y="-343.5" font-family="Helvetica,sans-Serif" font-size="10.00">QXmlStreamReader</text>
</a>
</g>
</g>
<!-- Node1&#45;&gt;Node33 -->
<g id="edge42" class="edge">
<title>Node1&#45;&gt;Node33</title>
<path fill="none" stroke="midnightblue" d="M1215.98,-392.5C1264.32,-381.16 1323.43,-367.29 1363.58,-357.86"/>
<polygon fill="midnightblue" stroke="midnightblue" points="1364.43,-361.26 1373.37,-355.57 1362.83,-354.44 1364.43,-361.26"/>
</g>
<!-- Node34 -->
<g id="node34" class="node">
<title>Node34</title>
<g id="a_node34"><a xlink:title=" ">
<polygon fill="white" stroke="#bfbfbf" points="1484.38,-336.5 1484.38,-355.5 1593.38,-355.5 1593.38,-336.5 1484.38,-336.5"/>
<text text-anchor="middle" x="1538.88" y="-343.5" font-family="Helvetica,sans-Serif" font-size="10.00">QXmlStreamWriter</text>
</a>
</g>
</g>
<!-- Node1&#45;&gt;Node34 -->
<g id="edge43" class="edge">
<title>Node1&#45;&gt;Node34</title>
<path fill="none" stroke="midnightblue" d="M1216.51,-398.61C1293.5,-386.28 1406.03,-368.27 1475.74,-357.11"/>
<polygon fill="midnightblue" stroke="midnightblue" points="1476.38,-360.55 1485.7,-355.51 1475.28,-353.64 1476.38,-360.55"/>
</g>
<!-- Node3 -->
<g id="node3" class="node">
<title>Node3</title>
<g id="a_node3"><a xlink:href="joyaxis_8h.html" target="_top" xlink:title=" ">
<polygon fill="white" stroke="black" points="249.38,-280.5 249.38,-299.5 310.38,-299.5 310.38,-280.5 249.38,-280.5"/>
<text text-anchor="middle" x="279.88" y="-287.5" font-family="Helvetica,sans-Serif" font-size="10.00">joyaxis.h</text>
</a>
</g>
</g>
<!-- Node2&#45;&gt;Node3 -->
<g id="edge2" class="edge">
<title>Node2&#45;&gt;Node3</title>
<path fill="none" stroke="midnightblue" d="M465.02,-336.44C425.73,-326.8 361.94,-311.14 320.45,-300.96"/>
<polygon fill="midnightblue" stroke="midnightblue" points="321.21,-297.54 310.67,-298.56 319.54,-304.34 321.21,-297.54"/>
</g>
<!-- Node4 -->
<g id="node4" class="node">
<title>Node4</title>
<g id="a_node4"><a xlink:title=" ">
<polygon fill="white" stroke="#bfbfbf" points="2.38,-0.5 2.38,-19.5 43.38,-19.5 43.38,-0.5 2.38,-0.5"/>
<text text-anchor="middle" x="22.88" y="-7.5" font-family="Helvetica,sans-Serif" font-size="10.00">QList</text>
</a>
</g>
</g>
<!-- Node3&#45;&gt;Node4 -->
<g id="edge3" class="edge">
<title>Node3&#45;&gt;Node4</title>
<path fill="none" stroke="midnightblue" d="M249.23,-285.8C216.44,-281.13 164.13,-269.96 126.88,-244 50.52,-190.79 31.14,-164.35 1.88,-76 -3.41,-60.03 3.61,-41.8 10.92,-28.72"/>
<polygon fill="midnightblue" stroke="midnightblue" points="14.12,-30.2 16.37,-19.84 8.15,-26.54 14.12,-30.2"/>
</g>
<!-- Node5 -->
<g id="node5" class="node">
<title>Node5</title>
<g id="a_node5"><a xlink:title=" ">
<polygon fill="white" stroke="#bfbfbf" points="589.88,-0.5 589.88,-19.5 645.88,-19.5 645.88,-0.5 589.88,-0.5"/>
<text text-anchor="middle" x="617.88" y="-7.5" font-family="Helvetica,sans-Serif" font-size="10.00">QObject</text>
</a>
</g>
</g>
<!-- Node3&#45;&gt;Node5 -->
<g id="edge4" class="edge">
<title>Node3&#45;&gt;Node5</title>
<path fill="none" stroke="midnightblue" d="M250.74,-280.43C209.98,-266.45 140.88,-234.55 140.88,-179 140.88,-179 140.88,-179 140.88,-121 140.88,-90.9 136.7,-75.21 159.88,-56 191.91,-29.44 475.16,-16.31 579.5,-12.34"/>
<polygon fill="midnightblue" stroke="midnightblue" points="579.74,-15.83 589.6,-11.96 579.48,-8.84 579.74,-15.83"/>
</g>
<!-- Node6 -->
<g id="node6" class="node">
<title>Node6</title>
<g id="a_node6"><a xlink:href="joyaxisbutton_8h.html" target="_top" xlink:title=" ">
<polygon fill="white" stroke="black" points="725.38,-224.5 725.38,-243.5 894.38,-243.5 894.38,-224.5 725.38,-224.5"/>
<text text-anchor="middle" x="809.88" y="-231.5" font-family="Helvetica,sans-Serif" font-size="10.00">joybuttontypes/joyaxisbutton.h</text>
</a>
</g>
</g>
<!-- Node3&#45;&gt;Node6 -->
<g id="edge5" class="edge">
<title>Node3&#45;&gt;Node6</title>
<path fill="none" stroke="midnightblue" d="M310.66,-285.86C388.24,-277.96 594.2,-256.97 715.97,-244.57"/>
<polygon fill="midnightblue" stroke="midnightblue" points="716.44,-248.04 726.03,-243.54 715.73,-241.07 716.44,-248.04"/>
</g>
<!-- Node7 -->
<g id="node7" class="node">
<title>Node7</title>
<g id="a_node7"><a xlink:href="joygradientbutton_8h.html" target="_top" xlink:title=" ">
<polygon fill="white" stroke="black" points="643.38,-168.5 643.38,-187.5 832.38,-187.5 832.38,-168.5 643.38,-168.5"/>
<text text-anchor="middle" x="737.88" y="-175.5" font-family="Helvetica,sans-Serif" font-size="10.00">joybuttontypes/joygradientbutton.h</text>
</a>
</g>
</g>
<!-- Node6&#45;&gt;Node7 -->
<g id="edge6" class="edge">
<title>Node6&#45;&gt;Node7</title>
<path fill="none" stroke="midnightblue" d="M798.31,-224.32C787.46,-216.18 770.99,-203.84 757.99,-194.09"/>
<polygon fill="midnightblue" stroke="midnightblue" points="759.75,-191.03 749.65,-187.83 755.55,-196.63 759.75,-191.03"/>
</g>
<!-- Node24 -->
<g id="node24" class="node">
<title>Node24</title>
<g id="a_node24"><a xlink:href="logger_8h.html" target="_top" xlink:title=" ">
<polygon fill="white" stroke="black" points="996.88,-112.5 996.88,-131.5 1052.88,-131.5 1052.88,-112.5 996.88,-112.5"/>
<text text-anchor="middle" x="1024.88" y="-119.5" font-family="Helvetica,sans-Serif" font-size="10.00">logger.h</text>
</a>
</g>
</g>
<!-- Node6&#45;&gt;Node24 -->
<g id="edge27" class="edge">
<title>Node6&#45;&gt;Node24</title>
<path fill="none" stroke="midnightblue" d="M826.75,-224.37C864.19,-205.21 954.44,-159.04 999.04,-136.22"/>
<polygon fill="midnightblue" stroke="midnightblue" points="1000.77,-139.26 1008.08,-131.59 997.59,-133.03 1000.77,-139.26"/>
</g>
<!-- Node8 -->
<g id="node8" class="node">
<title>Node8</title>
<g id="a_node8"><a xlink:href="joybutton_8h.html" target="_top" xlink:title=" ">
<polygon fill="white" stroke="black" points="646.88,-112.5 646.88,-131.5 718.88,-131.5 718.88,-112.5 646.88,-112.5"/>
<text text-anchor="middle" x="682.88" y="-119.5" font-family="Helvetica,sans-Serif" font-size="10.00">joybutton.h</text>
</a>
</g>
</g>
<!-- Node7&#45;&gt;Node8 -->
<g id="edge7" class="edge">
<title>Node7&#45;&gt;Node8</title>
<path fill="none" stroke="midnightblue" d="M728.79,-168.08C720.7,-160.14 708.68,-148.34 698.97,-138.8"/>
<polygon fill="midnightblue" stroke="midnightblue" points="701.38,-136.26 691.79,-131.75 696.47,-141.25 701.38,-136.26"/>
</g>
<!-- Node8&#45;&gt;Node9 -->
<g id="edge8" class="edge">
<title>Node8&#45;&gt;Node9</title>
<path fill="none" stroke="midnightblue" d="M646.73,-117.96C561.78,-110.81 342.79,-92.27 159.88,-76 147.84,-74.93 134.98,-73.76 122.67,-72.64"/>
<polygon fill="midnightblue" stroke="midnightblue" points="122.76,-69.13 112.48,-71.7 122.12,-76.1 122.76,-69.13"/>
</g>
<!-- Node10 -->
<g id="node10" class="node">
<title>Node10</title>
<g id="a_node10"><a xlink:href="joybuttonmousehelper_8h.html" target="_top" xlink:title=" ">
<polygon fill="white" stroke="black" points="328.38,-56.5 328.38,-75.5 463.38,-75.5 463.38,-56.5 328.38,-56.5"/>
<text text-anchor="middle" x="395.88" y="-63.5" font-family="Helvetica,sans-Serif" font-size="10.00">joybuttonmousehelper.h</text>
</a>
</g>
</g>
<!-- Node8&#45;&gt;Node10 -->
<g id="edge11" class="edge">
<title>Node8&#45;&gt;Node10</title>
<path fill="none" stroke="midnightblue" d="M646.82,-114.22C597.68,-104.97 509.2,-88.32 451.52,-77.47"/>
<polygon fill="midnightblue" stroke="midnightblue" points="451.95,-73.99 441.48,-75.58 450.66,-80.87 451.95,-73.99"/>
</g>
<!-- Node11 -->
<g id="node11" class="node">
<title>Node11</title>
<g id="a_node11"><a xlink:href="joybuttonslot_8h.html" target="_top" xlink:title=" ">
<polygon fill="white" stroke="black" points="1052.88,-56.5 1052.88,-75.5 1142.88,-75.5 1142.88,-56.5 1052.88,-56.5"/>
<text text-anchor="middle" x="1097.88" y="-63.5" font-family="Helvetica,sans-Serif" font-size="10.00">joybuttonslot.h</text>
</a>
</g>
</g>
<!-- Node8&#45;&gt;Node11 -->
<g id="edge13" class="edge">
<title>Node8&#45;&gt;Node11</title>
<path fill="none" stroke="midnightblue" d="M718.98,-116.3C791.74,-106.83 956.43,-85.41 1042.74,-74.17"/>
<polygon fill="midnightblue" stroke="midnightblue" points="1043.41,-77.62 1052.87,-72.86 1042.5,-70.68 1043.41,-77.62"/>
</g>
<!-- Node17 -->
<g id="node17" class="node">
<title>Node17</title>
<g id="a_node17"><a xlink:href="springmousemoveinfo_8h.html" target="_top" xlink:title=" ">
<polygon fill="white" stroke="black" points="481.38,-56.5 481.38,-75.5 616.38,-75.5 616.38,-56.5 481.38,-56.5"/>
<text text-anchor="middle" x="548.88" y="-63.5" font-family="Helvetica,sans-Serif" font-size="10.00">springmousemoveinfo.h</text>
</a>
</g>
</g>
<!-- Node8&#45;&gt;Node17 -->
<g id="edge20" class="edge">
<title>Node8&#45;&gt;Node17</title>
<path fill="none" stroke="midnightblue" d="M661.64,-112.44C639.49,-103.52 604.56,-89.44 579.44,-79.32"/>
<polygon fill="midnightblue" stroke="midnightblue" points="580.59,-76.01 570.01,-75.52 577.98,-82.5 580.59,-76.01"/>
</g>
<!-- Node18 -->
<g id="node18" class="node">
<title>Node18</title>
<g id="a_node18"><a xlink:title=" ">
<polygon fill="white" stroke="#bfbfbf" points="634.88,-56.5 634.88,-75.5 730.88,-75.5 730.88,-56.5 634.88,-56.5"/>
<text text-anchor="middle" x="682.88" y="-63.5" font-family="Helvetica,sans-Serif" font-size="10.00">QDeadlineTimer</text>
</a>
</g>
</g>
<!-- Node8&#45;&gt;Node18 -->
<g id="edge21" class="edge">
<title>Node8&#45;&gt;Node18</title>
<path fill="none" stroke="midnightblue" d="M682.88,-112.08C682.88,-105.01 682.88,-94.86 682.88,-85.99"/>
<polygon fill="midnightblue" stroke="midnightblue" points="686.38,-85.75 682.88,-75.75 679.38,-85.75 686.38,-85.75"/>
</g>
<!-- Node19 -->
<g id="node19" class="node">
<title>Node19</title>
<g id="a_node19"><a xlink:title=" ">
<polygon fill="white" stroke="#bfbfbf" points="748.88,-56.5 748.88,-75.5 804.88,-75.5 804.88,-56.5 748.88,-56.5"/>
<text text-anchor="middle" x="776.88" y="-63.5" font-family="Helvetica,sans-Serif" font-size="10.00">QQueue</text>
</a>
</g>
</g>
<!-- Node8&#45;&gt;Node19 -->
<g id="edge22" class="edge">
<title>Node8&#45;&gt;Node19</title>
<path fill="none" stroke="midnightblue" d="M697.98,-112.32C712.78,-103.82 735.57,-90.73 752.86,-80.8"/>
<polygon fill="midnightblue" stroke="midnightblue" points="754.88,-83.67 761.81,-75.65 751.4,-77.6 754.88,-83.67"/>
</g>
<!-- Node20 -->
<g id="node20" class="node">
<title>Node20</title>
<g id="a_node20"><a xlink:title=" ">
<polygon fill="white" stroke="#bfbfbf" points="822.88,-56.5 822.88,-75.5 920.88,-75.5 920.88,-56.5 822.88,-56.5"/>
<text text-anchor="middle" x="871.88" y="-63.5" font-family="Helvetica,sans-Serif" font-size="10.00">QReadWriteLock</text>
</a>
</g>
</g>
<!-- Node8&#45;&gt;Node20 -->
<g id="edge23" class="edge">
<title>Node8&#45;&gt;Node20</title>
<path fill="none" stroke="midnightblue" d="M712.82,-112.44C745.03,-103.24 796.41,-88.56 832.02,-78.39"/>
<polygon fill="midnightblue" stroke="midnightblue" points="833.41,-81.63 842.07,-75.52 831.49,-74.9 833.41,-81.63"/>
</g>
<!-- Node21 -->
<g id="node21" class="node">
<title>Node21</title>
<g id="a_node21"><a xlink:title=" ">
<polygon fill="white" stroke="#bfbfbf" points="168.88,-56.5 168.88,-75.5 238.88,-75.5 238.88,-56.5 168.88,-56.5"/>
<text text-anchor="middle" x="203.88" y="-63.5" font-family="Helvetica,sans-Serif" font-size="10.00">QRunnable</text>
</a>
</g>
</g>
<!-- Node8&#45;&gt;Node21 -->
<g id="edge24" class="edge">
<title>Node8&#45;&gt;Node21</title>
<path fill="none" stroke="midnightblue" d="M646.72,-118.41C573.69,-112.92 403.21,-98.86 249.31,-75.91"/>
<polygon fill="midnightblue" stroke="midnightblue" points="249.6,-72.42 239.19,-74.39 248.56,-79.34 249.6,-72.42"/>
</g>
<!-- Node22 -->
<g id="node22" class="node">
<title>Node22</title>
<g id="a_node22"><a xlink:title=" ">
<polygon fill="white" stroke="#bfbfbf" points="938.88,-56.5 938.88,-75.5 996.88,-75.5 996.88,-56.5 938.88,-56.5"/>
<text text-anchor="middle" x="967.88" y="-63.5" font-family="Helvetica,sans-Serif" font-size="10.00">QThread</text>
</a>
</g>
</g>
<!-- Node8&#45;&gt;Node22 -->
<g id="edge25" class="edge">
<title>Node8&#45;&gt;Node22</title>
<path fill="none" stroke="midnightblue" d="M718.99,-115.03C765.32,-107.24 848.4,-92.81 929.04,-76.09"/>
<polygon fill="midnightblue" stroke="midnightblue" points="929.79,-79.51 938.86,-74.04 928.36,-72.65 929.79,-79.51"/>
</g>
<!-- Node23 -->
<g id="node23" class="node">
<title>Node23</title>
<g id="a_node23"><a xlink:title=" ">
<polygon fill="white" stroke="#bfbfbf" points="257.38,-56.5 257.38,-75.5 310.38,-75.5 310.38,-56.5 257.38,-56.5"/>
<text text-anchor="middle" x="283.88" y="-63.5" font-family="Helvetica,sans-Serif" font-size="10.00">QTimer</text>
</a>
</g>
</g>
<!-- Node8&#45;&gt;Node23 -->
<g id="edge26" class="edge">
<title>Node8&#45;&gt;Node23</title>
<path fill="none" stroke="midnightblue" d="M646.84,-118C583.09,-112.37 446.12,-98.86 320.7,-75.93"/>
<polygon fill="midnightblue" stroke="midnightblue" points="321,-72.43 310.53,-74.05 319.73,-79.31 321,-72.43"/>
</g>
<!-- Node9&#45;&gt;Node4 -->
<g id="edge9" class="edge">
<title>Node9&#45;&gt;Node4</title>
<path fill="none" stroke="midnightblue" d="M55.44,-56.08C49.93,-48.46 41.84,-37.26 35.11,-27.94"/>
<polygon fill="midnightblue" stroke="midnightblue" points="37.89,-25.81 29.2,-19.75 32.21,-29.91 37.89,-25.81"/>
</g>
<!-- Node9&#45;&gt;Node5 -->
<g id="edge10" class="edge">
<title>Node9&#45;&gt;Node5</title>
<path fill="none" stroke="midnightblue" d="M112.59,-57.75C117.41,-57.13 122.23,-56.53 126.88,-56 295.31,-36.63 497.03,-20.3 579.7,-13.89"/>
<polygon fill="midnightblue" stroke="midnightblue" points="580.17,-17.37 589.87,-13.11 579.63,-10.39 580.17,-17.37"/>
</g>
<!-- Node10&#45;&gt;Node5 -->
<g id="edge12" class="edge">
<title>Node10&#45;&gt;Node5</title>
<path fill="none" stroke="midnightblue" d="M431.05,-56.44C471.6,-46.58 538.01,-30.43 579.76,-20.27"/>
<polygon fill="midnightblue" stroke="midnightblue" points="580.67,-23.65 589.56,-17.89 579.01,-16.85 580.67,-23.65"/>
</g>
<!-- Node11&#45;&gt;Node5 -->
<g id="edge15" class="edge">
<title>Node11&#45;&gt;Node5</title>
<path fill="none" stroke="midnightblue" d="M1052.81,-57.91C1048.11,-57.24 1043.4,-56.59 1038.88,-56 898.18,-37.76 730.33,-21.44 656.25,-14.52"/>
<polygon fill="midnightblue" stroke="midnightblue" points="656.29,-11.01 646.01,-13.57 655.64,-17.98 656.29,-11.01"/>
</g>
<!-- Node12 -->
<g id="node12" class="node">
<title>Node12</title>
<g id="a_node12"><a xlink:title=" ">
<polygon fill="white" stroke="#bfbfbf" points="1231.38,-0.5 1231.38,-19.5 1322.38,-19.5 1322.38,-0.5 1231.38,-0.5"/>
<text text-anchor="middle" x="1276.88" y="-7.5" font-family="Helvetica,sans-Serif" font-size="10.00">QElapsedTimer</text>
</a>
</g>
</g>
<!-- Node11&#45;&gt;Node12 -->
<g id="edge14" class="edge">
<title>Node11&#45;&gt;Node12</title>
<path fill="none" stroke="midnightblue" d="M1126.24,-56.44C1156.61,-47.28 1204.98,-32.69 1238.69,-22.52"/>
<polygon fill="midnightblue" stroke="midnightblue" points="1240.08,-25.76 1248.64,-19.52 1238.06,-19.05 1240.08,-25.76"/>
</g>
<!-- Node13 -->
<g id="node13" class="node">
<title>Node13</title>
<g id="a_node13"><a xlink:title=" ">
<polygon fill="white" stroke="#bfbfbf" points="1437.38,-0.5 1437.38,-19.5 1496.38,-19.5 1496.38,-0.5 1437.38,-0.5"/>
<text text-anchor="middle" x="1466.88" y="-7.5" font-family="Helvetica,sans-Serif" font-size="10.00">QPointer</text>
</a>
</g>
</g>
<!-- Node11&#45;&gt;Node13 -->
<g id="edge16" class="edge">
<title>Node11&#45;&gt;Node13</title>
<path fill="none" stroke="midnightblue" d="M1142.94,-57.41C1145.97,-56.92 1148.96,-56.45 1151.88,-56 1250.76,-40.7 1367.4,-24.52 1427.17,-16.37"/>
<polygon fill="midnightblue" stroke="midnightblue" points="1427.87,-19.81 1437.31,-14.99 1426.93,-12.87 1427.87,-19.81"/>
</g>
<!-- Node14 -->
<g id="node14" class="node">
<title>Node14</title>
<g id="a_node14"><a xlink:title=" ">
<polygon fill="white" stroke="#bfbfbf" points="936.38,-0.5 936.38,-19.5 985.38,-19.5 985.38,-0.5 936.38,-0.5"/>
<text text-anchor="middle" x="960.88" y="-7.5" font-family="Helvetica,sans-Serif" font-size="10.00">QTime</text>
</a>
</g>
</g>
<!-- Node11&#45;&gt;Node14 -->
<g id="edge17" class="edge">
<title>Node11&#45;&gt;Node14</title>
<path fill="none" stroke="midnightblue" d="M1076.17,-56.44C1053.52,-47.52 1017.8,-33.44 992.12,-23.32"/>
<polygon fill="midnightblue" stroke="midnightblue" points="993.07,-19.93 982.48,-19.52 990.5,-26.44 993.07,-19.93"/>
</g>
<!-- Node15 -->
<g id="node15" class="node">
<title>Node15</title>
<g id="a_node15"><a xlink:title=" ">
<polygon fill="white" stroke="#bfbfbf" points="1003.38,-0.5 1003.38,-19.5 1062.38,-19.5 1062.38,-0.5 1003.38,-0.5"/>
<text text-anchor="middle" x="1032.88" y="-7.5" font-family="Helvetica,sans-Serif" font-size="10.00">QVariant</text>
</a>
</g>
</g>
<!-- Node11&#45;&gt;Node15 -->
<g id="edge18" class="edge">
<title>Node11&#45;&gt;Node15</title>
<path fill="none" stroke="midnightblue" d="M1087.43,-56.32C1077.73,-48.26 1063.06,-36.08 1051.38,-26.37"/>
<polygon fill="midnightblue" stroke="midnightblue" points="1053.44,-23.53 1043.51,-19.83 1048.96,-28.92 1053.44,-23.53"/>
</g>
<!-- Node16 -->
<g id="node16" class="node">
<title>Node16</title>
<g id="a_node16"><a xlink:title=" ">
<polygon fill="white" stroke="#bfbfbf" points="1080.38,-0.5 1080.38,-19.5 1213.38,-19.5 1213.38,-0.5 1080.38,-0.5"/>
<text text-anchor="middle" x="1146.88" y="-7.5" font-family="Helvetica,sans-Serif" font-size="10.00">QtWidgets/QApplication</text>
</a>
</g>
</g>
<!-- Node11&#45;&gt;Node16 -->
<g id="edge19" class="edge">
<title>Node11&#45;&gt;Node16</title>
<path fill="none" stroke="midnightblue" d="M1105.97,-56.08C1113.03,-48.3 1123.46,-36.8 1132.02,-27.37"/>
<polygon fill="midnightblue" stroke="midnightblue" points="1134.81,-29.51 1138.93,-19.75 1129.62,-24.8 1134.81,-29.51"/>
</g>
<!-- Node24&#45;&gt;Node5 -->
<g id="edge30" class="edge">
<title>Node24&#45;&gt;Node5</title>
<path fill="none" stroke="midnightblue" d="M1025.14,-112.24C1025.04,-98.03 1022.59,-70.1 1005.88,-56 953.65,-11.92 743.14,-9.36 655.97,-10.26"/>
<polygon fill="midnightblue" stroke="midnightblue" points="655.93,-6.76 645.97,-10.38 656.01,-13.76 655.93,-6.76"/>
</g>
<!-- Node24&#45;&gt;Node22 -->
<g id="edge32" class="edge">
<title>Node24&#45;&gt;Node22</title>
<path fill="none" stroke="midnightblue" d="M1015.72,-112.32C1007.37,-104.42 994.84,-92.55 984.7,-82.94"/>
<polygon fill="midnightblue" stroke="midnightblue" points="986.87,-80.17 977.2,-75.83 982.05,-85.25 986.87,-80.17"/>
</g>
<!-- Node25 -->
<g id="node25" class="node">
<title>Node25</title>
<g id="a_node25"><a xlink:title=" ">
<polygon fill="white" stroke="#bfbfbf" points="1333.38,-56.5 1333.38,-75.5 1374.38,-75.5 1374.38,-56.5 1333.38,-56.5"/>
<text text-anchor="middle" x="1353.88" y="-63.5" font-family="Helvetica,sans-Serif" font-size="10.00">QFile</text>
</a>
</g>
</g>
<!-- Node24&#45;&gt;Node25 -->
<g id="edge28" class="edge">
<title>Node24&#45;&gt;Node25</title>
<path fill="none" stroke="midnightblue" d="M1053.29,-114.62C1057.82,-113.69 1062.47,-112.78 1066.88,-112 1177.34,-92.45 1209.46,-100.19 1323.51,-75.75"/>
<polygon fill="midnightblue" stroke="midnightblue" points="1324.3,-79.16 1333.33,-73.61 1322.81,-72.32 1324.3,-79.16"/>
</g>
<!-- Node26 -->
<g id="node26" class="node">
<title>Node26</title>
<g id="a_node26"><a xlink:title=" ">
<polygon fill="white" stroke="#bfbfbf" points="1392.38,-56.5 1392.38,-75.5 1447.38,-75.5 1447.38,-56.5 1392.38,-56.5"/>
<text text-anchor="middle" x="1419.88" y="-63.5" font-family="Helvetica,sans-Serif" font-size="10.00">QMutex</text>
</a>
</g>
</g>
<!-- Node24&#45;&gt;Node26 -->
<g id="edge29" class="edge">
<title>Node24&#45;&gt;Node26</title>
<path fill="none" stroke="midnightblue" d="M1053.27,-114.52C1057.81,-113.6 1062.46,-112.72 1066.88,-112 1203.53,-89.65 1242.53,-100.7 1381.84,-76.17"/>
<polygon fill="midnightblue" stroke="midnightblue" points="1382.82,-79.55 1392.05,-74.34 1381.59,-72.66 1382.82,-79.55"/>
</g>
<!-- Node27 -->
<g id="node27" class="node">
<title>Node27</title>
<g id="a_node27"><a xlink:title=" ">
<polygon fill="white" stroke="#bfbfbf" points="1160.88,-56.5 1160.88,-75.5 1240.88,-75.5 1240.88,-56.5 1160.88,-56.5"/>
<text text-anchor="middle" x="1200.88" y="-63.5" font-family="Helvetica,sans-Serif" font-size="10.00">QTextStream</text>
</a>
</g>
</g>
<!-- Node24&#45;&gt;Node27 -->
<g id="edge31" class="edge">
<title>Node24&#45;&gt;Node27</title>
<path fill="none" stroke="midnightblue" d="M1052.76,-112.44C1082.63,-103.28 1130.19,-88.69 1163.33,-78.52"/>
<polygon fill="midnightblue" stroke="midnightblue" points="1164.58,-81.8 1173.12,-75.52 1162.53,-75.1 1164.58,-81.8"/>
</g>
<!-- Node28 -->
<g id="node28" class="node">
<title>Node28</title>
<g id="a_node28"><a xlink:title=" ">
<polygon fill="white" stroke="#bfbfbf" points="1258.88,-56.5 1258.88,-75.5 1314.88,-75.5 1314.88,-56.5 1258.88,-56.5"/>
<text text-anchor="middle" x="1286.88" y="-63.5" font-family="Helvetica,sans-Serif" font-size="10.00">sstream</text>
</a>
</g>
</g>
<!-- Node24&#45;&gt;Node28 -->
<g id="edge33" class="edge">
<title>Node24&#45;&gt;Node28</title>
<path fill="none" stroke="midnightblue" d="M1052.88,-114.93C1057.55,-113.94 1062.35,-112.93 1066.88,-112 1144.9,-95.97 1167.2,-93.94 1248.42,-76.25"/>
<polygon fill="midnightblue" stroke="midnightblue" points="1249.61,-79.57 1258.62,-74.01 1248.11,-72.73 1249.61,-79.57"/>
</g>
<!-- Node29&#45;&gt;Node6 -->
<g id="edge35" class="edge">
<title>Node29&#45;&gt;Node6</title>
<path fill="none" stroke="midnightblue" d="M870.31,-280.32C859.46,-272.18 842.99,-259.84 829.99,-250.09"/>
<polygon fill="midnightblue" stroke="midnightblue" points="831.75,-247.03 821.65,-243.83 827.55,-252.63 831.75,-247.03"/>
</g>
<!-- Node30&#45;&gt;Node5 -->
<g id="edge38" class="edge">
<title>Node30&#45;&gt;Node5</title>
<path fill="none" stroke="midnightblue" d="M1465.07,-56.93C1462.3,-56.59 1459.56,-56.28 1456.88,-56 1149.11,-24.35 775.4,-14.26 656.28,-11.72"/>
<polygon fill="midnightblue" stroke="midnightblue" points="656.27,-8.22 646.2,-11.51 656.13,-15.22 656.27,-8.22"/>
</g>
<!-- Node30&#45;&gt;Node13 -->
<g id="edge39" class="edge">
<title>Node30&#45;&gt;Node13</title>
<path fill="none" stroke="midnightblue" d="M1507.78,-56.08C1500.72,-48.3 1490.29,-36.8 1481.73,-27.37"/>
<polygon fill="midnightblue" stroke="midnightblue" points="1484.13,-24.8 1474.82,-19.75 1478.94,-29.51 1484.13,-24.8"/>
</g>
</g>
</svg>
