<?xml version="1.0" encoding="UTF-8" standalone="no"?>
<!DOCTYPE svg PUBLIC "-//W3C//DTD SVG 1.1//EN"
 "http://www.w3.org/Graphics/SVG/1.1/DTD/svg11.dtd">
<!-- Generated by graphviz version 2.43.0 (0)
 -->
<!-- Title: /home/runner/work/doxygen/antimicrox/src/gamecontroller/gamecontrollertriggerbutton.cpp Pages: 1 -->
<svg width="1900pt" height="498pt"
 viewBox="0.00 0.00 1900.00 498.00" xmlns="http://www.w3.org/2000/svg" xmlns:xlink="http://www.w3.org/1999/xlink">
<g id="graph0" class="graph" transform="scale(1 1) rotate(0) translate(4 494)">
<title>/home/runner/work/doxygen/antimicrox/src/gamecontroller/gamecontrollertriggerbutton.cpp</title>
<polygon fill="white" stroke="transparent" points="-4,4 -4,-494 1896,-494 1896,4 -4,4"/>
<!-- Node1 -->
<g id="node1" class="node">
<title>Node1</title>
<g id="a_node1"><a xlink:title=" ">
<polygon fill="#bfbfbf" stroke="black" points="1352,-448.5 1352,-489.5 1530,-489.5 1530,-448.5 1352,-448.5"/>
<text text-anchor="start" x="1360" y="-477.5" font-family="Helvetica,sans-Serif" font-size="10.00">/home/runner/work/doxygen</text>
<text text-anchor="start" x="1360" y="-466.5" font-family="Helvetica,sans-Serif" font-size="10.00">/antimicrox/src/gamecontroller</text>
<text text-anchor="middle" x="1441" y="-455.5" font-family="Helvetica,sans-Serif" font-size="10.00">/gamecontrollertriggerbutton.cpp</text>
</a>
</g>
</g>
<!-- Node2 -->
<g id="node2" class="node">
<title>Node2</title>
<g id="a_node2"><a xlink:href="gamecontrollertriggerbutton_8h.html" target="_top" xlink:title=" ">
<polygon fill="white" stroke="black" points="1089,-336.5 1089,-355.5 1253,-355.5 1253,-336.5 1089,-336.5"/>
<text text-anchor="middle" x="1171" y="-343.5" font-family="Helvetica,sans-Serif" font-size="10.00">gamecontrollertriggerbutton.h</text>
</a>
</g>
</g>
<!-- Node1&#45;&gt;Node2 -->
<g id="edge1" class="edge">
<title>Node1&#45;&gt;Node2</title>
<path fill="none" stroke="midnightblue" d="M1397.32,-448.42C1341.58,-423.45 1246.75,-380.95 1199.51,-359.78"/>
<polygon fill="midnightblue" stroke="midnightblue" points="1200.74,-356.49 1190.18,-355.6 1197.88,-362.88 1200.74,-356.49"/>
</g>
<!-- Node6 -->
<g id="node6" class="node">
<title>Node6</title>
<g id="a_node6"><a xlink:href="globalvariables_8h.html" target="_top" xlink:title=" ">
<polygon fill="white" stroke="black" points="1374.5,-56.5 1374.5,-75.5 1475.5,-75.5 1475.5,-56.5 1374.5,-56.5"/>
<text text-anchor="middle" x="1425" y="-63.5" font-family="Helvetica,sans-Serif" font-size="10.00">globalvariables.h</text>
</a>
</g>
</g>
<!-- Node1&#45;&gt;Node6 -->
<g id="edge31" class="edge">
<title>Node1&#45;&gt;Node6</title>
<path fill="none" stroke="midnightblue" d="M1436.01,-448.45C1430.38,-424.65 1422,-383.15 1422,-347 1422,-347 1422,-347 1422,-177 1422,-144.94 1423.29,-107.63 1424.18,-85.74"/>
<polygon fill="midnightblue" stroke="midnightblue" points="1427.68,-85.69 1424.61,-75.56 1420.69,-85.4 1427.68,-85.69"/>
</g>
<!-- Node28 -->
<g id="node28" class="node">
<title>Node28</title>
<g id="a_node28"><a xlink:href="inputdevice_8h.html" target="_top" xlink:title=" ">
<polygon fill="white" stroke="black" points="1509.5,-392.5 1509.5,-411.5 1592.5,-411.5 1592.5,-392.5 1509.5,-392.5"/>
<text text-anchor="middle" x="1551" y="-399.5" font-family="Helvetica,sans-Serif" font-size="10.00">inputdevice.h</text>
</a>
</g>
</g>
<!-- Node1&#45;&gt;Node28 -->
<g id="edge32" class="edge">
<title>Node1&#45;&gt;Node28</title>
<path fill="none" stroke="midnightblue" d="M1474,-448.5C1491.19,-438.34 1511.81,-426.16 1527.39,-416.95"/>
<polygon fill="midnightblue" stroke="midnightblue" points="1529.53,-419.75 1536.36,-411.65 1525.97,-413.73 1529.53,-419.75"/>
</g>
<!-- Node35 -->
<g id="node35" class="node">
<title>Node35</title>
<g id="a_node35"><a xlink:href="setjoystick_8h.html" target="_top" xlink:title=" ">
<polygon fill="white" stroke="black" points="1450.5,-336.5 1450.5,-355.5 1529.5,-355.5 1529.5,-336.5 1450.5,-336.5"/>
<text text-anchor="middle" x="1490" y="-343.5" font-family="Helvetica,sans-Serif" font-size="10.00">setjoystick.h</text>
</a>
</g>
</g>
<!-- Node1&#45;&gt;Node35 -->
<g id="edge52" class="edge">
<title>Node1&#45;&gt;Node35</title>
<path fill="none" stroke="midnightblue" d="M1448.98,-448.29C1458.35,-425.17 1473.74,-387.16 1482.77,-364.86"/>
<polygon fill="midnightblue" stroke="midnightblue" points="1486.02,-366.16 1486.53,-355.57 1479.53,-363.53 1486.02,-366.16"/>
</g>
<!-- Node36 -->
<g id="node36" class="node">
<title>Node36</title>
<g id="a_node36"><a xlink:href="joyaxis_8h.html" target="_top" xlink:title=" ">
<polygon fill="white" stroke="black" points="1324.5,-280.5 1324.5,-299.5 1385.5,-299.5 1385.5,-280.5 1324.5,-280.5"/>
<text text-anchor="middle" x="1355" y="-287.5" font-family="Helvetica,sans-Serif" font-size="10.00">joyaxis.h</text>
</a>
</g>
</g>
<!-- Node1&#45;&gt;Node36 -->
<g id="edge51" class="edge">
<title>Node1&#45;&gt;Node36</title>
<path fill="none" stroke="midnightblue" d="M1428.65,-448.37C1422.18,-437.77 1414.32,-424.36 1408,-412 1389.8,-376.41 1371.81,-333.19 1362.19,-309.23"/>
<polygon fill="midnightblue" stroke="midnightblue" points="1365.33,-307.67 1358.38,-299.67 1358.83,-310.26 1365.33,-307.67"/>
</g>
<!-- Node40 -->
<g id="node40" class="node">
<title>Node40</title>
<g id="a_node40"><a xlink:href="joybuttonxml_8h.html" target="_top" xlink:title=" ">
<polygon fill="white" stroke="black" points="573.5,-168.5 573.5,-187.5 686.5,-187.5 686.5,-168.5 573.5,-168.5"/>
<text text-anchor="middle" x="630" y="-175.5" font-family="Helvetica,sans-Serif" font-size="10.00">xml/joybuttonxml.h</text>
</a>
</g>
</g>
<!-- Node1&#45;&gt;Node40 -->
<g id="edge53" class="edge">
<title>Node1&#45;&gt;Node40</title>
<path fill="none" stroke="midnightblue" d="M1351.78,-460.78C1171.75,-445.01 782,-404.25 782,-347 782,-347 782,-347 782,-289 782,-235.44 719.29,-205.3 674.43,-190.59"/>
<polygon fill="midnightblue" stroke="midnightblue" points="675.46,-187.25 664.87,-187.6 673.37,-193.93 675.46,-187.25"/>
</g>
<!-- Node41 -->
<g id="node41" class="node">
<title>Node41</title>
<g id="a_node41"><a xlink:title=" ">
<polygon fill="white" stroke="#bfbfbf" points="1611,-392.5 1611,-411.5 1667,-411.5 1667,-392.5 1611,-392.5"/>
<text text-anchor="middle" x="1639" y="-399.5" font-family="Helvetica,sans-Serif" font-size="10.00">QDebug</text>
</a>
</g>
</g>
<!-- Node1&#45;&gt;Node41 -->
<g id="edge55" class="edge">
<title>Node1&#45;&gt;Node41</title>
<path fill="none" stroke="midnightblue" d="M1500.41,-448.5C1533.93,-437.49 1574.71,-424.11 1603.32,-414.71"/>
<polygon fill="midnightblue" stroke="midnightblue" points="1604.49,-418.01 1612.9,-411.57 1602.31,-411.36 1604.49,-418.01"/>
</g>
<!-- Node42 -->
<g id="node42" class="node">
<title>Node42</title>
<g id="a_node42"><a xlink:title=" ">
<polygon fill="white" stroke="#bfbfbf" points="1685.5,-392.5 1685.5,-411.5 1798.5,-411.5 1798.5,-392.5 1685.5,-392.5"/>
<text text-anchor="middle" x="1742" y="-399.5" font-family="Helvetica,sans-Serif" font-size="10.00">QXmlStreamReader</text>
</a>
</g>
</g>
<!-- Node1&#45;&gt;Node42 -->
<g id="edge56" class="edge">
<title>Node1&#45;&gt;Node42</title>
<path fill="none" stroke="midnightblue" d="M1530.09,-448.76C1583.16,-437.3 1648.53,-423.18 1692.52,-413.69"/>
<polygon fill="midnightblue" stroke="midnightblue" points="1693.36,-417.09 1702.39,-411.55 1691.88,-410.24 1693.36,-417.09"/>
</g>
<!-- Node3 -->
<g id="node3" class="node">
<title>Node3</title>
<g id="a_node3"><a xlink:href="joyaxisbutton_8h.html" target="_top" xlink:title=" ">
<polygon fill="white" stroke="black" points="960.5,-224.5 960.5,-243.5 1129.5,-243.5 1129.5,-224.5 960.5,-224.5"/>
<text text-anchor="middle" x="1045" y="-231.5" font-family="Helvetica,sans-Serif" font-size="10.00">joybuttontypes/joyaxisbutton.h</text>
</a>
</g>
</g>
<!-- Node2&#45;&gt;Node3 -->
<g id="edge2" class="edge">
<title>Node2&#45;&gt;Node3</title>
<path fill="none" stroke="midnightblue" d="M1161.11,-336.37C1139.86,-317.81 1089.57,-273.91 1062.68,-250.44"/>
<polygon fill="midnightblue" stroke="midnightblue" points="1064.68,-247.53 1054.84,-243.59 1060.07,-252.8 1064.68,-247.53"/>
</g>
<!-- Node4 -->
<g id="node4" class="node">
<title>Node4</title>
<g id="a_node4"><a xlink:href="joygradientbutton_8h.html" target="_top" xlink:title=" ">
<polygon fill="white" stroke="black" points="912.5,-168.5 912.5,-187.5 1101.5,-187.5 1101.5,-168.5 912.5,-168.5"/>
<text text-anchor="middle" x="1007" y="-175.5" font-family="Helvetica,sans-Serif" font-size="10.00">joybuttontypes/joygradientbutton.h</text>
</a>
</g>
</g>
<!-- Node3&#45;&gt;Node4 -->
<g id="edge3" class="edge">
<title>Node3&#45;&gt;Node4</title>
<path fill="none" stroke="midnightblue" d="M1038.73,-224.08C1033.36,-216.46 1025.48,-205.26 1018.92,-195.94"/>
<polygon fill="midnightblue" stroke="midnightblue" points="1021.78,-193.91 1013.16,-187.75 1016.05,-197.94 1021.78,-193.91"/>
</g>
<!-- Node23 -->
<g id="node23" class="node">
<title>Node23</title>
<g id="a_node23"><a xlink:href="logger_8h.html" target="_top" xlink:title=" ">
<polygon fill="white" stroke="black" points="231,-112.5 231,-131.5 287,-131.5 287,-112.5 231,-112.5"/>
<text text-anchor="middle" x="259" y="-119.5" font-family="Helvetica,sans-Serif" font-size="10.00">logger.h</text>
</a>
</g>
</g>
<!-- Node3&#45;&gt;Node23 -->
<g id="edge24" class="edge">
<title>Node3&#45;&gt;Node23</title>
<path fill="none" stroke="midnightblue" d="M1005.02,-224.49C940.19,-210.93 808.01,-184.3 695,-168 548.61,-146.89 373.19,-131.89 297.2,-125.9"/>
<polygon fill="midnightblue" stroke="midnightblue" points="297.39,-122.4 287.15,-125.11 296.85,-129.38 297.39,-122.4"/>
</g>
<!-- Node5 -->
<g id="node5" class="node">
<title>Node5</title>
<g id="a_node5"><a xlink:href="joybutton_8h.html" target="_top" xlink:title=" ">
<polygon fill="white" stroke="black" points="896,-112.5 896,-131.5 968,-131.5 968,-112.5 896,-112.5"/>
<text text-anchor="middle" x="932" y="-119.5" font-family="Helvetica,sans-Serif" font-size="10.00">joybutton.h</text>
</a>
</g>
</g>
<!-- Node4&#45;&gt;Node5 -->
<g id="edge4" class="edge">
<title>Node4&#45;&gt;Node5</title>
<path fill="none" stroke="midnightblue" d="M994.95,-168.32C983.54,-160.11 966.17,-147.6 952.57,-137.81"/>
<polygon fill="midnightblue" stroke="midnightblue" points="954.43,-134.84 944.27,-131.83 950.34,-140.52 954.43,-134.84"/>
</g>
<!-- Node5&#45;&gt;Node6 -->
<g id="edge5" class="edge">
<title>Node5&#45;&gt;Node6</title>
<path fill="none" stroke="midnightblue" d="M968.25,-117.03C1052.18,-107.84 1260.58,-85.01 1364.32,-73.65"/>
<polygon fill="midnightblue" stroke="midnightblue" points="1364.77,-77.12 1374.33,-72.55 1364.01,-70.16 1364.77,-77.12"/>
</g>
<!-- Node9 -->
<g id="node9" class="node">
<title>Node9</title>
<g id="a_node9"><a xlink:href="joybuttonmousehelper_8h.html" target="_top" xlink:title=" ">
<polygon fill="white" stroke="black" points="1182.5,-56.5 1182.5,-75.5 1317.5,-75.5 1317.5,-56.5 1182.5,-56.5"/>
<text text-anchor="middle" x="1250" y="-63.5" font-family="Helvetica,sans-Serif" font-size="10.00">joybuttonmousehelper.h</text>
</a>
</g>
</g>
<!-- Node5&#45;&gt;Node9 -->
<g id="edge8" class="edge">
<title>Node5&#45;&gt;Node9</title>
<path fill="none" stroke="midnightblue" d="M968.17,-114.86C1022.1,-105.7 1124.23,-88.36 1189.6,-77.26"/>
<polygon fill="midnightblue" stroke="midnightblue" points="1190.5,-80.65 1199.77,-75.53 1189.32,-73.75 1190.5,-80.65"/>
</g>
<!-- Node10 -->
<g id="node10" class="node">
<title>Node10</title>
<g id="a_node10"><a xlink:href="joybuttonslot_8h.html" target="_top" xlink:title=" ">
<polygon fill="white" stroke="black" points="381,-56.5 381,-75.5 471,-75.5 471,-56.5 381,-56.5"/>
<text text-anchor="middle" x="426" y="-63.5" font-family="Helvetica,sans-Serif" font-size="10.00">joybuttonslot.h</text>
</a>
</g>
</g>
<!-- Node5&#45;&gt;Node10 -->
<g id="edge10" class="edge">
<title>Node5&#45;&gt;Node10</title>
<path fill="none" stroke="midnightblue" d="M895.61,-117.12C808.11,-107.78 585.48,-84.02 481.32,-72.9"/>
<polygon fill="midnightblue" stroke="midnightblue" points="481.63,-69.42 471.31,-71.84 480.89,-76.38 481.63,-69.42"/>
</g>
<!-- Node16 -->
<g id="node16" class="node">
<title>Node16</title>
<g id="a_node16"><a xlink:href="springmousemoveinfo_8h.html" target="_top" xlink:title=" ">
<polygon fill="white" stroke="black" points="636.5,-56.5 636.5,-75.5 771.5,-75.5 771.5,-56.5 636.5,-56.5"/>
<text text-anchor="middle" x="704" y="-63.5" font-family="Helvetica,sans-Serif" font-size="10.00">springmousemoveinfo.h</text>
</a>
</g>
</g>
<!-- Node5&#45;&gt;Node16 -->
<g id="edge17" class="edge">
<title>Node5&#45;&gt;Node16</title>
<path fill="none" stroke="midnightblue" d="M895.87,-112.44C856.35,-103.08 792.9,-88.06 749.89,-77.87"/>
<polygon fill="midnightblue" stroke="midnightblue" points="750.5,-74.42 739.96,-75.52 748.88,-81.23 750.5,-74.42"/>
</g>
<!-- Node17 -->
<g id="node17" class="node">
<title>Node17</title>
<g id="a_node17"><a xlink:title=" ">
<polygon fill="white" stroke="#bfbfbf" points="790,-56.5 790,-75.5 886,-75.5 886,-56.5 790,-56.5"/>
<text text-anchor="middle" x="838" y="-63.5" font-family="Helvetica,sans-Serif" font-size="10.00">QDeadlineTimer</text>
</a>
</g>
</g>
<!-- Node5&#45;&gt;Node17 -->
<g id="edge18" class="edge">
<title>Node5&#45;&gt;Node17</title>
<path fill="none" stroke="midnightblue" d="M916.9,-112.32C902.1,-103.82 879.31,-90.73 862.02,-80.8"/>
<polygon fill="midnightblue" stroke="midnightblue" points="863.48,-77.6 853.07,-75.65 859.99,-83.67 863.48,-77.6"/>
</g>
<!-- Node18 -->
<g id="node18" class="node">
<title>Node18</title>
<g id="a_node18"><a xlink:title=" ">
<polygon fill="white" stroke="#bfbfbf" points="904,-56.5 904,-75.5 960,-75.5 960,-56.5 904,-56.5"/>
<text text-anchor="middle" x="932" y="-63.5" font-family="Helvetica,sans-Serif" font-size="10.00">QQueue</text>
</a>
</g>
</g>
<!-- Node5&#45;&gt;Node18 -->
<g id="edge19" class="edge">
<title>Node5&#45;&gt;Node18</title>
<path fill="none" stroke="midnightblue" d="M932,-112.08C932,-105.01 932,-94.86 932,-85.99"/>
<polygon fill="midnightblue" stroke="midnightblue" points="935.5,-85.75 932,-75.75 928.5,-85.75 935.5,-85.75"/>
</g>
<!-- Node19 -->
<g id="node19" class="node">
<title>Node19</title>
<g id="a_node19"><a xlink:title=" ">
<polygon fill="white" stroke="#bfbfbf" points="978,-56.5 978,-75.5 1076,-75.5 1076,-56.5 978,-56.5"/>
<text text-anchor="middle" x="1027" y="-63.5" font-family="Helvetica,sans-Serif" font-size="10.00">QReadWriteLock</text>
</a>
</g>
</g>
<!-- Node5&#45;&gt;Node19 -->
<g id="edge20" class="edge">
<title>Node5&#45;&gt;Node19</title>
<path fill="none" stroke="midnightblue" d="M947.26,-112.32C962.22,-103.82 985.25,-90.73 1002.73,-80.8"/>
<polygon fill="midnightblue" stroke="midnightblue" points="1004.81,-83.64 1011.77,-75.65 1001.35,-77.55 1004.81,-83.64"/>
</g>
<!-- Node20 -->
<g id="node20" class="node">
<title>Node20</title>
<g id="a_node20"><a xlink:title=" ">
<polygon fill="white" stroke="#bfbfbf" points="1094,-56.5 1094,-75.5 1164,-75.5 1164,-56.5 1094,-56.5"/>
<text text-anchor="middle" x="1129" y="-63.5" font-family="Helvetica,sans-Serif" font-size="10.00">QRunnable</text>
</a>
</g>
</g>
<!-- Node5&#45;&gt;Node20 -->
<g id="edge21" class="edge">
<title>Node5&#45;&gt;Node20</title>
<path fill="none" stroke="midnightblue" d="M963.22,-112.44C996.93,-103.2 1050.8,-88.44 1087.93,-78.26"/>
<polygon fill="midnightblue" stroke="midnightblue" points="1089.21,-81.54 1097.93,-75.52 1087.36,-74.78 1089.21,-81.54"/>
</g>
<!-- Node21 -->
<g id="node21" class="node">
<title>Node21</title>
<g id="a_node21"><a xlink:title=" ">
<polygon fill="white" stroke="#bfbfbf" points="305,-56.5 305,-75.5 363,-75.5 363,-56.5 305,-56.5"/>
<text text-anchor="middle" x="334" y="-63.5" font-family="Helvetica,sans-Serif" font-size="10.00">QThread</text>
</a>
</g>
</g>
<!-- Node5&#45;&gt;Node21 -->
<g id="edge22" class="edge">
<title>Node5&#45;&gt;Node21</title>
<path fill="none" stroke="midnightblue" d="M895.74,-120C807.72,-117.16 575.7,-107.24 373.29,-75.98"/>
<polygon fill="midnightblue" stroke="midnightblue" points="373.79,-72.51 363.37,-74.42 372.71,-79.43 373.79,-72.51"/>
</g>
<!-- Node22 -->
<g id="node22" class="node">
<title>Node22</title>
<g id="a_node22"><a xlink:title=" ">
<polygon fill="white" stroke="#bfbfbf" points="565.5,-56.5 565.5,-75.5 618.5,-75.5 618.5,-56.5 565.5,-56.5"/>
<text text-anchor="middle" x="592" y="-63.5" font-family="Helvetica,sans-Serif" font-size="10.00">QTimer</text>
</a>
</g>
</g>
<!-- Node5&#45;&gt;Node22 -->
<g id="edge23" class="edge">
<title>Node5&#45;&gt;Node22</title>
<path fill="none" stroke="midnightblue" d="M895.63,-116.89C840.03,-110.33 730.41,-96.34 628.52,-76.14"/>
<polygon fill="midnightblue" stroke="midnightblue" points="629.18,-72.71 618.69,-74.17 627.8,-79.57 629.18,-72.71"/>
</g>
<!-- Node7 -->
<g id="node7" class="node">
<title>Node7</title>
<g id="a_node7"><a xlink:title=" ">
<polygon fill="white" stroke="#bfbfbf" points="1462.5,-0.5 1462.5,-19.5 1503.5,-19.5 1503.5,-0.5 1462.5,-0.5"/>
<text text-anchor="middle" x="1483" y="-7.5" font-family="Helvetica,sans-Serif" font-size="10.00">QList</text>
</a>
</g>
</g>
<!-- Node6&#45;&gt;Node7 -->
<g id="edge6" class="edge">
<title>Node6&#45;&gt;Node7</title>
<path fill="none" stroke="midnightblue" d="M1434.32,-56.32C1442.89,-48.34 1455.81,-36.31 1466.19,-26.65"/>
<polygon fill="midnightblue" stroke="midnightblue" points="1468.58,-29.21 1473.51,-19.83 1463.81,-24.09 1468.58,-29.21"/>
</g>
<!-- Node8 -->
<g id="node8" class="node">
<title>Node8</title>
<g id="a_node8"><a xlink:title=" ">
<polygon fill="white" stroke="#bfbfbf" points="1222,-0.5 1222,-19.5 1278,-19.5 1278,-0.5 1222,-0.5"/>
<text text-anchor="middle" x="1250" y="-7.5" font-family="Helvetica,sans-Serif" font-size="10.00">QObject</text>
</a>
</g>
</g>
<!-- Node6&#45;&gt;Node8 -->
<g id="edge7" class="edge">
<title>Node6&#45;&gt;Node8</title>
<path fill="none" stroke="midnightblue" d="M1397.27,-56.44C1367.57,-47.28 1320.28,-32.69 1287.33,-22.52"/>
<polygon fill="midnightblue" stroke="midnightblue" points="1288.19,-19.12 1277.6,-19.52 1286.12,-25.81 1288.19,-19.12"/>
</g>
<!-- Node9&#45;&gt;Node8 -->
<g id="edge9" class="edge">
<title>Node9&#45;&gt;Node8</title>
<path fill="none" stroke="midnightblue" d="M1250,-56.08C1250,-49.01 1250,-38.86 1250,-29.99"/>
<polygon fill="midnightblue" stroke="midnightblue" points="1253.5,-29.75 1250,-19.75 1246.5,-29.75 1253.5,-29.75"/>
</g>
<!-- Node10&#45;&gt;Node8 -->
<g id="edge12" class="edge">
<title>Node10&#45;&gt;Node8</title>
<path fill="none" stroke="midnightblue" d="M471.04,-57.69C475.75,-57.06 480.47,-56.48 485,-56 762.82,-26.7 1099.55,-15.19 1211.65,-12"/>
<polygon fill="midnightblue" stroke="midnightblue" points="1211.89,-15.49 1221.79,-11.72 1211.7,-8.5 1211.89,-15.49"/>
</g>
<!-- Node11 -->
<g id="node11" class="node">
<title>Node11</title>
<g id="a_node11"><a xlink:title=" ">
<polygon fill="white" stroke="#bfbfbf" points="215.5,-0.5 215.5,-19.5 306.5,-19.5 306.5,-0.5 215.5,-0.5"/>
<text text-anchor="middle" x="261" y="-7.5" font-family="Helvetica,sans-Serif" font-size="10.00">QElapsedTimer</text>
</a>
</g>
</g>
<!-- Node10&#45;&gt;Node11 -->
<g id="edge11" class="edge">
<title>Node10&#45;&gt;Node11</title>
<path fill="none" stroke="midnightblue" d="M399.86,-56.44C371.98,-47.32 327.65,-32.81 296.6,-22.65"/>
<polygon fill="midnightblue" stroke="midnightblue" points="297.62,-19.3 287.02,-19.52 295.44,-25.95 297.62,-19.3"/>
</g>
<!-- Node12 -->
<g id="node12" class="node">
<title>Node12</title>
<g id="a_node12"><a xlink:title=" ">
<polygon fill="white" stroke="#bfbfbf" points="324.5,-0.5 324.5,-19.5 383.5,-19.5 383.5,-0.5 324.5,-0.5"/>
<text text-anchor="middle" x="354" y="-7.5" font-family="Helvetica,sans-Serif" font-size="10.00">QPointer</text>
</a>
</g>
</g>
<!-- Node10&#45;&gt;Node12 -->
<g id="edge13" class="edge">
<title>Node10&#45;&gt;Node12</title>
<path fill="none" stroke="midnightblue" d="M414.43,-56.32C403.58,-48.18 387.12,-35.84 374.12,-26.09"/>
<polygon fill="midnightblue" stroke="midnightblue" points="375.88,-23.03 365.78,-19.83 371.68,-28.63 375.88,-23.03"/>
</g>
<!-- Node13 -->
<g id="node13" class="node">
<title>Node13</title>
<g id="a_node13"><a xlink:title=" ">
<polygon fill="white" stroke="#bfbfbf" points="401.5,-0.5 401.5,-19.5 450.5,-19.5 450.5,-0.5 401.5,-0.5"/>
<text text-anchor="middle" x="426" y="-7.5" font-family="Helvetica,sans-Serif" font-size="10.00">QTime</text>
</a>
</g>
</g>
<!-- Node10&#45;&gt;Node13 -->
<g id="edge14" class="edge">
<title>Node10&#45;&gt;Node13</title>
<path fill="none" stroke="midnightblue" d="M426,-56.08C426,-49.01 426,-38.86 426,-29.99"/>
<polygon fill="midnightblue" stroke="midnightblue" points="429.5,-29.75 426,-19.75 422.5,-29.75 429.5,-29.75"/>
</g>
<!-- Node14 -->
<g id="node14" class="node">
<title>Node14</title>
<g id="a_node14"><a xlink:title=" ">
<polygon fill="white" stroke="#bfbfbf" points="468.5,-0.5 468.5,-19.5 527.5,-19.5 527.5,-0.5 468.5,-0.5"/>
<text text-anchor="middle" x="498" y="-7.5" font-family="Helvetica,sans-Serif" font-size="10.00">QVariant</text>
</a>
</g>
</g>
<!-- Node10&#45;&gt;Node14 -->
<g id="edge15" class="edge">
<title>Node10&#45;&gt;Node14</title>
<path fill="none" stroke="midnightblue" d="M437.57,-56.32C448.42,-48.18 464.88,-35.84 477.88,-26.09"/>
<polygon fill="midnightblue" stroke="midnightblue" points="480.32,-28.63 486.22,-19.83 476.12,-23.03 480.32,-28.63"/>
</g>
<!-- Node15 -->
<g id="node15" class="node">
<title>Node15</title>
<g id="a_node15"><a xlink:title=" ">
<polygon fill="white" stroke="#bfbfbf" points="545.5,-0.5 545.5,-19.5 678.5,-19.5 678.5,-0.5 545.5,-0.5"/>
<text text-anchor="middle" x="612" y="-7.5" font-family="Helvetica,sans-Serif" font-size="10.00">QtWidgets/QApplication</text>
</a>
</g>
</g>
<!-- Node10&#45;&gt;Node15 -->
<g id="edge16" class="edge">
<title>Node10&#45;&gt;Node15</title>
<path fill="none" stroke="midnightblue" d="M455.47,-56.44C487.17,-47.24 537.73,-32.56 572.77,-22.39"/>
<polygon fill="midnightblue" stroke="midnightblue" points="574.04,-25.67 582.67,-19.52 572.09,-18.94 574.04,-25.67"/>
</g>
<!-- Node23&#45;&gt;Node8 -->
<g id="edge27" class="edge">
<title>Node23&#45;&gt;Node8</title>
<path fill="none" stroke="midnightblue" d="M287.11,-117.43C329.62,-111.56 412.5,-98.23 480,-76 500.02,-69.41 502.57,-61.19 523,-56 655.18,-22.45 1080.69,-13.49 1211.43,-11.5"/>
<polygon fill="midnightblue" stroke="midnightblue" points="1211.79,-15 1221.74,-11.35 1211.69,-8 1211.79,-15"/>
</g>
<!-- Node23&#45;&gt;Node21 -->
<g id="edge29" class="edge">
<title>Node23&#45;&gt;Node21</title>
<path fill="none" stroke="midnightblue" d="M271.05,-112.32C282.46,-104.11 299.83,-91.6 313.43,-81.81"/>
<polygon fill="midnightblue" stroke="midnightblue" points="315.66,-84.52 321.73,-75.83 311.57,-78.84 315.66,-84.52"/>
</g>
<!-- Node24 -->
<g id="node24" class="node">
<title>Node24</title>
<g id="a_node24"><a xlink:title=" ">
<polygon fill="white" stroke="#bfbfbf" points="172.5,-56.5 172.5,-75.5 213.5,-75.5 213.5,-56.5 172.5,-56.5"/>
<text text-anchor="middle" x="193" y="-63.5" font-family="Helvetica,sans-Serif" font-size="10.00">QFile</text>
</a>
</g>
</g>
<!-- Node23&#45;&gt;Node24 -->
<g id="edge25" class="edge">
<title>Node23&#45;&gt;Node24</title>
<path fill="none" stroke="midnightblue" d="M248.4,-112.32C238.54,-104.26 223.65,-92.08 211.78,-82.37"/>
<polygon fill="midnightblue" stroke="midnightblue" points="213.75,-79.46 203.8,-75.83 209.32,-84.88 213.75,-79.46"/>
</g>
<!-- Node25 -->
<g id="node25" class="node">
<title>Node25</title>
<g id="a_node25"><a xlink:title=" ">
<polygon fill="white" stroke="#bfbfbf" points="231.5,-56.5 231.5,-75.5 286.5,-75.5 286.5,-56.5 231.5,-56.5"/>
<text text-anchor="middle" x="259" y="-63.5" font-family="Helvetica,sans-Serif" font-size="10.00">QMutex</text>
</a>
</g>
</g>
<!-- Node23&#45;&gt;Node25 -->
<g id="edge26" class="edge">
<title>Node23&#45;&gt;Node25</title>
<path fill="none" stroke="midnightblue" d="M259,-112.08C259,-105.01 259,-94.86 259,-85.99"/>
<polygon fill="midnightblue" stroke="midnightblue" points="262.5,-85.75 259,-75.75 255.5,-85.75 262.5,-85.75"/>
</g>
<!-- Node26 -->
<g id="node26" class="node">
<title>Node26</title>
<g id="a_node26"><a xlink:title=" ">
<polygon fill="white" stroke="#bfbfbf" points="0,-56.5 0,-75.5 80,-75.5 80,-56.5 0,-56.5"/>
<text text-anchor="middle" x="40" y="-63.5" font-family="Helvetica,sans-Serif" font-size="10.00">QTextStream</text>
</a>
</g>
</g>
<!-- Node23&#45;&gt;Node26 -->
<g id="edge28" class="edge">
<title>Node23&#45;&gt;Node26</title>
<path fill="none" stroke="midnightblue" d="M230.82,-114.05C193.74,-104.91 128.15,-88.73 84.37,-77.94"/>
<polygon fill="midnightblue" stroke="midnightblue" points="85.11,-74.52 74.56,-75.52 83.43,-81.31 85.11,-74.52"/>
</g>
<!-- Node27 -->
<g id="node27" class="node">
<title>Node27</title>
<g id="a_node27"><a xlink:title=" ">
<polygon fill="white" stroke="#bfbfbf" points="98,-56.5 98,-75.5 154,-75.5 154,-56.5 98,-56.5"/>
<text text-anchor="middle" x="126" y="-63.5" font-family="Helvetica,sans-Serif" font-size="10.00">sstream</text>
</a>
</g>
</g>
<!-- Node23&#45;&gt;Node27 -->
<g id="edge30" class="edge">
<title>Node23&#45;&gt;Node27</title>
<path fill="none" stroke="midnightblue" d="M237.93,-112.44C215.94,-103.52 181.27,-89.44 156.34,-79.32"/>
<polygon fill="midnightblue" stroke="midnightblue" points="157.56,-76.04 146.98,-75.52 154.92,-82.52 157.56,-76.04"/>
</g>
<!-- Node29 -->
<g id="node29" class="node">
<title>Node29</title>
<g id="a_node29"><a xlink:href="inputdevicecalibration_8h.html" target="_top" xlink:title=" ">
<polygon fill="white" stroke="black" points="1758,-336.5 1758,-355.5 1892,-355.5 1892,-336.5 1758,-336.5"/>
<text text-anchor="middle" x="1825" y="-343.5" font-family="Helvetica,sans-Serif" font-size="10.00">inputdevicecalibration.h</text>
</a>
</g>
</g>
<!-- Node28&#45;&gt;Node29 -->
<g id="edge33" class="edge">
<title>Node28&#45;&gt;Node29</title>
<path fill="none" stroke="midnightblue" d="M1592.61,-392.8C1640.47,-383.37 1719.17,-367.86 1771.53,-357.54"/>
<polygon fill="midnightblue" stroke="midnightblue" points="1772.5,-360.91 1781.63,-355.55 1771.15,-354.05 1772.5,-360.91"/>
</g>
<!-- Node31 -->
<g id="node31" class="node">
<title>Node31</title>
<g id="a_node31"><a xlink:href="joysensordirection_8h.html" target="_top" xlink:title=" ">
<polygon fill="white" stroke="black" points="1494,-280.5 1494,-299.5 1610,-299.5 1610,-280.5 1494,-280.5"/>
<text text-anchor="middle" x="1552" y="-287.5" font-family="Helvetica,sans-Serif" font-size="10.00">joysensordirection.h</text>
</a>
</g>
</g>
<!-- Node28&#45;&gt;Node31 -->
<g id="edge35" class="edge">
<title>Node28&#45;&gt;Node31</title>
<path fill="none" stroke="midnightblue" d="M1551.08,-392.37C1551.24,-374.62 1551.61,-333.67 1551.83,-309.6"/>
<polygon fill="midnightblue" stroke="midnightblue" points="1555.33,-309.62 1551.92,-299.59 1548.33,-309.56 1555.33,-309.62"/>
</g>
<!-- Node33 -->
<g id="node33" class="node">
<title>Node33</title>
<g id="a_node33"><a xlink:href="joysensortype_8h.html" target="_top" xlink:title=" ">
<polygon fill="white" stroke="black" points="1628.5,-280.5 1628.5,-299.5 1723.5,-299.5 1723.5,-280.5 1628.5,-280.5"/>
<text text-anchor="middle" x="1676" y="-287.5" font-family="Helvetica,sans-Serif" font-size="10.00">joysensortype.h</text>
</a>
</g>
</g>
<!-- Node28&#45;&gt;Node33 -->
<g id="edge37" class="edge">
<title>Node28&#45;&gt;Node33</title>
<path fill="none" stroke="midnightblue" d="M1558.88,-392.15C1570.57,-379.22 1593.46,-354.68 1615,-336 1627.52,-325.14 1642.48,-314.08 1654.45,-305.64"/>
<polygon fill="midnightblue" stroke="midnightblue" points="1656.72,-308.33 1662.93,-299.75 1652.72,-302.58 1656.72,-308.33"/>
</g>
<!-- Node28&#45;&gt;Node35 -->
<g id="edge40" class="edge">
<title>Node28&#45;&gt;Node35</title>
<path fill="none" stroke="midnightblue" d="M1541.2,-392.32C1532.18,-384.34 1518.59,-372.31 1507.68,-362.65"/>
<polygon fill="midnightblue" stroke="midnightblue" points="1509.79,-359.84 1499.98,-355.83 1505.15,-365.08 1509.79,-359.84"/>
</g>
<!-- Node39 -->
<g id="node39" class="node">
<title>Node39</title>
<g id="a_node39"><a xlink:title=" ">
<polygon fill="white" stroke="#bfbfbf" points="1624,-336.5 1624,-355.5 1740,-355.5 1740,-336.5 1624,-336.5"/>
<text text-anchor="middle" x="1682" y="-343.5" font-family="Helvetica,sans-Serif" font-size="10.00">SDL2/SDL_joystick.h</text>
</a>
</g>
</g>
<!-- Node28&#45;&gt;Node39 -->
<g id="edge50" class="edge">
<title>Node28&#45;&gt;Node39</title>
<path fill="none" stroke="midnightblue" d="M1571.76,-392.44C1593.32,-383.56 1627.26,-369.56 1651.79,-359.45"/>
<polygon fill="midnightblue" stroke="midnightblue" points="1653.43,-362.56 1661.34,-355.52 1650.76,-356.09 1653.43,-362.56"/>
</g>
<!-- Node30 -->
<g id="node30" class="node">
<title>Node30</title>
<g id="a_node30"><a xlink:title=" ">
<polygon fill="white" stroke="#bfbfbf" points="1800.5,-280.5 1800.5,-299.5 1849.5,-299.5 1849.5,-280.5 1800.5,-280.5"/>
<text text-anchor="middle" x="1825" y="-287.5" font-family="Helvetica,sans-Serif" font-size="10.00">QHash</text>
</a>
</g>
</g>
<!-- Node29&#45;&gt;Node30 -->
<g id="edge34" class="edge">
<title>Node29&#45;&gt;Node30</title>
<path fill="none" stroke="midnightblue" d="M1825,-336.08C1825,-329.01 1825,-318.86 1825,-309.99"/>
<polygon fill="midnightblue" stroke="midnightblue" points="1828.5,-309.75 1825,-299.75 1821.5,-309.75 1828.5,-309.75"/>
</g>
<!-- Node32 -->
<g id="node32" class="node">
<title>Node32</title>
<g id="a_node32"><a xlink:title=" ">
<polygon fill="white" stroke="#bfbfbf" points="1533.5,-224.5 1533.5,-243.5 1604.5,-243.5 1604.5,-224.5 1533.5,-224.5"/>
<text text-anchor="middle" x="1569" y="-231.5" font-family="Helvetica,sans-Serif" font-size="10.00">QMetaType</text>
</a>
</g>
</g>
<!-- Node31&#45;&gt;Node32 -->
<g id="edge36" class="edge">
<title>Node31&#45;&gt;Node32</title>
<path fill="none" stroke="midnightblue" d="M1554.81,-280.08C1557.08,-272.85 1560.37,-262.41 1563.21,-253.4"/>
<polygon fill="midnightblue" stroke="midnightblue" points="1566.58,-254.34 1566.25,-243.75 1559.9,-252.24 1566.58,-254.34"/>
</g>
<!-- Node33&#45;&gt;Node32 -->
<g id="edge38" class="edge">
<title>Node33&#45;&gt;Node32</title>
<path fill="none" stroke="midnightblue" d="M1658.81,-280.32C1641.65,-271.66 1615.05,-258.24 1595.25,-248.25"/>
<polygon fill="midnightblue" stroke="midnightblue" points="1596.65,-245.04 1586.15,-243.65 1593.5,-251.28 1596.65,-245.04"/>
</g>
<!-- Node34 -->
<g id="node34" class="node">
<title>Node34</title>
<g id="a_node34"><a xlink:title=" ">
<polygon fill="white" stroke="#bfbfbf" points="1640,-224.5 1640,-243.5 1712,-243.5 1712,-224.5 1640,-224.5"/>
<text text-anchor="middle" x="1676" y="-231.5" font-family="Helvetica,sans-Serif" font-size="10.00">SDL2/SDL.h</text>
</a>
</g>
</g>
<!-- Node33&#45;&gt;Node34 -->
<g id="edge39" class="edge">
<title>Node33&#45;&gt;Node34</title>
<path fill="none" stroke="midnightblue" d="M1676,-280.08C1676,-273.01 1676,-262.86 1676,-253.99"/>
<polygon fill="midnightblue" stroke="midnightblue" points="1679.5,-253.75 1676,-243.75 1672.5,-253.75 1679.5,-253.75"/>
</g>
<!-- Node35&#45;&gt;Node31 -->
<g id="edge46" class="edge">
<title>Node35&#45;&gt;Node31</title>
<path fill="none" stroke="midnightblue" d="M1499.96,-336.32C1509.13,-328.34 1522.94,-316.31 1534.03,-306.65"/>
<polygon fill="midnightblue" stroke="midnightblue" points="1536.62,-309.04 1541.86,-299.83 1532.02,-303.76 1536.62,-309.04"/>
</g>
<!-- Node35&#45;&gt;Node33 -->
<g id="edge47" class="edge">
<title>Node35&#45;&gt;Node33</title>
<path fill="none" stroke="midnightblue" d="M1519.47,-336.44C1551.17,-327.24 1601.73,-312.56 1636.77,-302.39"/>
<polygon fill="midnightblue" stroke="midnightblue" points="1638.04,-305.67 1646.67,-299.52 1636.09,-298.94 1638.04,-305.67"/>
</g>
<!-- Node35&#45;&gt;Node36 -->
<g id="edge41" class="edge">
<title>Node35&#45;&gt;Node36</title>
<path fill="none" stroke="midnightblue" d="M1468.61,-336.44C1446.29,-327.52 1411.1,-313.44 1385.79,-303.32"/>
<polygon fill="midnightblue" stroke="midnightblue" points="1386.88,-299.98 1376.29,-299.52 1384.28,-306.48 1386.88,-299.98"/>
</g>
<!-- Node38 -->
<g id="node38" class="node">
<title>Node38</title>
<g id="a_node38"><a xlink:href="setjoystickxml_8h.html" target="_top" xlink:title=" ">
<polygon fill="white" stroke="black" points="1450.5,-168.5 1450.5,-187.5 1569.5,-187.5 1569.5,-168.5 1450.5,-168.5"/>
<text text-anchor="middle" x="1510" y="-175.5" font-family="Helvetica,sans-Serif" font-size="10.00">xml/setjoystickxml.h</text>
</a>
</g>
</g>
<!-- Node35&#45;&gt;Node38 -->
<g id="edge48" class="edge">
<title>Node35&#45;&gt;Node38</title>
<path fill="none" stroke="midnightblue" d="M1488.76,-336.4C1487.52,-327.36 1485.7,-312.71 1485,-300 1484.51,-291.12 1483.92,-288.82 1485,-280 1488.6,-250.5 1497.9,-217.2 1504.08,-197.17"/>
<polygon fill="midnightblue" stroke="midnightblue" points="1507.46,-198.11 1507.14,-187.51 1500.79,-195.99 1507.46,-198.11"/>
</g>
<!-- Node36&#45;&gt;Node3 -->
<g id="edge45" class="edge">
<title>Node36&#45;&gt;Node3</title>
<path fill="none" stroke="midnightblue" d="M1324.43,-283.67C1273.39,-274.78 1169.97,-256.77 1104.26,-245.32"/>
<polygon fill="midnightblue" stroke="midnightblue" points="1104.51,-241.81 1094.06,-243.55 1103.31,-248.71 1104.51,-241.81"/>
</g>
<!-- Node36&#45;&gt;Node7 -->
<g id="edge42" class="edge">
<title>Node36&#45;&gt;Node7</title>
<path fill="none" stroke="midnightblue" d="M1361.22,-280.27C1385.37,-246.21 1472.11,-121.88 1485,-76 1489.25,-60.87 1488.29,-42.97 1486.52,-29.79"/>
<polygon fill="midnightblue" stroke="midnightblue" points="1489.93,-28.93 1484.88,-19.61 1483.02,-30.04 1489.93,-28.93"/>
</g>
<!-- Node36&#45;&gt;Node8 -->
<g id="edge43" class="edge">
<title>Node36&#45;&gt;Node8</title>
<path fill="none" stroke="midnightblue" d="M1353.82,-280.46C1351.38,-261.99 1346,-216.94 1346,-179 1346,-179 1346,-179 1346,-121 1346,-90.77 1344.71,-79.74 1326,-56 1314.95,-41.97 1298.22,-31.39 1283.26,-24.03"/>
<polygon fill="midnightblue" stroke="midnightblue" points="1284.32,-20.66 1273.77,-19.65 1281.39,-27.02 1284.32,-20.66"/>
</g>
<!-- Node37 -->
<g id="node37" class="node">
<title>Node37</title>
<g id="a_node37"><a xlink:href="haptictriggermodeps5_8h.html" target="_top" xlink:title=" ">
<polygon fill="white" stroke="black" points="1184.5,-224.5 1184.5,-243.5 1317.5,-243.5 1317.5,-224.5 1184.5,-224.5"/>
<text text-anchor="middle" x="1251" y="-231.5" font-family="Helvetica,sans-Serif" font-size="10.00">haptictriggermodeps5.h</text>
</a>
</g>
</g>
<!-- Node36&#45;&gt;Node37 -->
<g id="edge44" class="edge">
<title>Node36&#45;&gt;Node37</title>
<path fill="none" stroke="midnightblue" d="M1338.29,-280.32C1321.69,-271.7 1296,-258.36 1276.78,-248.39"/>
<polygon fill="midnightblue" stroke="midnightblue" points="1278.16,-245.16 1267.67,-243.65 1274.93,-251.37 1278.16,-245.16"/>
</g>
<!-- Node38&#45;&gt;Node8 -->
<g id="edge49" class="edge">
<title>Node38&#45;&gt;Node8</title>
<path fill="none" stroke="midnightblue" d="M1511.15,-168.18C1513.51,-145.89 1516.32,-86.87 1485,-56 1457.72,-29.11 1347.78,-17.61 1288.44,-13.28"/>
<polygon fill="midnightblue" stroke="midnightblue" points="1288.54,-9.78 1278.33,-12.58 1288.06,-16.76 1288.54,-9.78"/>
</g>
<!-- Node40&#45;&gt;Node8 -->
<g id="edge54" class="edge">
<title>Node40&#45;&gt;Node8</title>
<path fill="none" stroke="midnightblue" d="M617.4,-168.28C588.38,-147.19 521.82,-92.47 556,-56 601.01,-7.97 1072.92,-9.12 1211.77,-10.51"/>
<polygon fill="midnightblue" stroke="midnightblue" points="1211.9,-14.01 1221.93,-10.62 1211.97,-7.01 1211.9,-14.01"/>
</g>
</g>
</svg>
