<?xml version="1.0" encoding="UTF-8" standalone="no"?>
<!DOCTYPE svg PUBLIC "-//W3C//DTD SVG 1.1//EN"
 "http://www.w3.org/Graphics/SVG/1.1/DTD/svg11.dtd">
<!-- Generated by graphviz version 2.43.0 (0)
 -->
<!-- Title: /home/runner/work/doxygen/antimicrox/src/gamecontroller/gamecontrollerset.h Pages: 1 -->
<!--zoomable 442 -->
<svg id="main" version="1.1" xmlns="http://www.w3.org/2000/svg" xmlns:xlink="http://www.w3.org/1999/xlink" xml:space="preserve" onload="init(evt)">
<style type="text/css"><![CDATA[
.edge:hover path { stroke: red; }
.edge:hover polygon { stroke: red; fill: red; }
]]></style>
<script type="text/javascript"><![CDATA[
var edges = document.getElementsByTagName('g');
if (edges && edges.length) {
  for (var i=0;i<edges.length;i++) {
    if (edges[i].id.substr(0,4)=='edge') {
      edges[i].setAttribute('class','edge');
    }
  }
}
]]></script>
        <defs>
                <circle id="rim" cx="0" cy="0" r="7"/>
                <circle id="rim2" cx="0" cy="0" r="3.5"/>
                <g id="zoomPlus">
                        <use xlink:href="#rim" fill="#404040">
                                <set attributeName="fill" to="#808080" begin="zoomplus.mouseover" end="zoomplus.mouseout"/>
                        </use>
                        <path d="M-4,0h8M0,-4v8" fill="none" stroke="white" stroke-width="1.5" pointer-events="none"/>
                </g>
                <g id="zoomMin">
                        <use xlink:href="#rim" fill="#404040">
                                <set attributeName="fill" to="#808080" begin="zoomminus.mouseover" end="zoomminus.mouseout"/>
                        </use>
                        <path d="M-4,0h8" fill="none" stroke="white" stroke-width="1.5" pointer-events="none"/>
                </g>
                <g id="dirArrow">
                        <path fill="none" stroke="white" stroke-width="1.5" d="M0,-3.0v7 M-2.5,-0.5L0,-3.0L2.5,-0.5"/>
                </g>
               <g id="resetDef">
                       <use xlink:href="#rim2" fill="#404040">
                               <set attributeName="fill" to="#808080" begin="reset.mouseover" end="reset.mouseout"/>
                       </use>
               </g>
        </defs>

<script type="text/javascript">
var viewWidth = 1719;
var viewHeight = 442;
var sectionId = 'dynsection-0';
</script>
<script xlink:href="svgpan.js"/>
<svg id="graph" class="graph">
<g id="viewport">
<title>/home/runner/work/doxygen/antimicrox/src/gamecontroller/gamecontrollerset.h</title>
<polygon fill="white" stroke="transparent" points="-4,4 -4,-438 1714.5,-438 1714.5,4 -4,4"/>
<!-- Node1 -->
<g id="node1" class="node">
<title>Node1</title>
<g id="a_node1"><a xlink:title=" ">
<polygon fill="#bfbfbf" stroke="black" points="513.5,-392.5 513.5,-433.5 680.5,-433.5 680.5,-392.5 513.5,-392.5"/>
<text text-anchor="start" x="521.5" y="-421.5" font-family="Helvetica,sans-Serif" font-size="10.00">/home/runner/work/doxygen</text>
<text text-anchor="start" x="521.5" y="-410.5" font-family="Helvetica,sans-Serif" font-size="10.00">/antimicrox/src/gamecontroller</text>
<text text-anchor="middle" x="597" y="-399.5" font-family="Helvetica,sans-Serif" font-size="10.00">/gamecontrollerset.h</text>
</a>
</g>
</g>
<!-- Node2 -->
<g id="node2" class="node">
<title>Node2</title>
<g id="a_node2"><a xlink:href="setjoystick_8h.html" target="_top" xlink:title=" ">
<polygon fill="white" stroke="black" points="491.5,-336.5 491.5,-355.5 570.5,-355.5 570.5,-336.5 491.5,-336.5"/>
<text text-anchor="middle" x="531" y="-343.5" font-family="Helvetica,sans-Serif" font-size="10.00">setjoystick.h</text>
</a>
</g>
</g>
<!-- Node1&#45;&gt;Node2 -->
<g id="edge1" class="edge">
<title>Node1&#45;&gt;Node2</title>
<path fill="none" stroke="midnightblue" d="M577.2,-392.5C567.57,-383.01 556.14,-371.76 547.06,-362.81"/>
<polygon fill="midnightblue" stroke="midnightblue" points="549.37,-360.18 539.79,-355.65 544.45,-365.16 549.37,-360.18"/>
</g>
<!-- Node34 -->
<g id="node34" class="node">
<title>Node34</title>
<g id="a_node34"><a xlink:title=" ">
<polygon fill="white" stroke="#bfbfbf" points="588.5,-336.5 588.5,-355.5 739.5,-355.5 739.5,-336.5 588.5,-336.5"/>
<text text-anchor="middle" x="664" y="-343.5" font-family="Helvetica,sans-Serif" font-size="10.00">SDL2/SDL_gamecontroller.h</text>
</a>
</g>
</g>
<!-- Node1&#45;&gt;Node34 -->
<g id="edge41" class="edge">
<title>Node1&#45;&gt;Node34</title>
<path fill="none" stroke="midnightblue" d="M617.1,-392.5C626.88,-383.01 638.48,-371.76 647.7,-362.81"/>
<polygon fill="midnightblue" stroke="midnightblue" points="650.34,-365.13 655.08,-355.65 645.47,-360.1 650.34,-365.13"/>
</g>
<!-- Node3 -->
<g id="node3" class="node">
<title>Node3</title>
<g id="a_node3"><a xlink:href="joyaxis_8h.html" target="_top" xlink:title=" ">
<polygon fill="white" stroke="black" points="222.5,-280.5 222.5,-299.5 283.5,-299.5 283.5,-280.5 222.5,-280.5"/>
<text text-anchor="middle" x="253" y="-287.5" font-family="Helvetica,sans-Serif" font-size="10.00">joyaxis.h</text>
</a>
</g>
</g>
<!-- Node2&#45;&gt;Node3 -->
<g id="edge2" class="edge">
<title>Node2&#45;&gt;Node3</title>
<path fill="none" stroke="midnightblue" d="M491.46,-337.32C439.05,-327.14 346.99,-309.26 293.9,-298.94"/>
<polygon fill="midnightblue" stroke="midnightblue" points="294.3,-295.46 283.82,-296.99 292.97,-302.33 294.3,-295.46"/>
</g>
<!-- Node29 -->
<g id="node29" class="node">
<title>Node29</title>
<g id="a_node29"><a xlink:href="joysensordirection_8h.html" target="_top" xlink:title=" ">
<polygon fill="white" stroke="black" points="411,-280.5 411,-299.5 527,-299.5 527,-280.5 411,-280.5"/>
<text text-anchor="middle" x="469" y="-287.5" font-family="Helvetica,sans-Serif" font-size="10.00">joysensordirection.h</text>
</a>
</g>
</g>
<!-- Node2&#45;&gt;Node29 -->
<g id="edge34" class="edge">
<title>Node2&#45;&gt;Node29</title>
<path fill="none" stroke="midnightblue" d="M521.04,-336.32C511.87,-328.34 498.06,-316.31 486.97,-306.65"/>
<polygon fill="midnightblue" stroke="midnightblue" points="488.98,-303.76 479.14,-299.83 484.38,-309.04 488.98,-303.76"/>
</g>
<!-- Node31 -->
<g id="node31" class="node">
<title>Node31</title>
<g id="a_node31"><a xlink:href="joysensortype_8h.html" target="_top" xlink:title=" ">
<polygon fill="white" stroke="black" points="545.5,-280.5 545.5,-299.5 640.5,-299.5 640.5,-280.5 545.5,-280.5"/>
<text text-anchor="middle" x="593" y="-287.5" font-family="Helvetica,sans-Serif" font-size="10.00">joysensortype.h</text>
</a>
</g>
</g>
<!-- Node2&#45;&gt;Node31 -->
<g id="edge36" class="edge">
<title>Node2&#45;&gt;Node31</title>
<path fill="none" stroke="midnightblue" d="M540.96,-336.32C550.13,-328.34 563.94,-316.31 575.03,-306.65"/>
<polygon fill="midnightblue" stroke="midnightblue" points="577.62,-309.04 582.86,-299.83 573.02,-303.76 577.62,-309.04"/>
</g>
<!-- Node33 -->
<g id="node33" class="node">
<title>Node33</title>
<g id="a_node33"><a xlink:href="setjoystickxml_8h.html" target="_top" xlink:title=" ">
<polygon fill="white" stroke="black" points="1173.5,-168.5 1173.5,-187.5 1292.5,-187.5 1292.5,-168.5 1173.5,-168.5"/>
<text text-anchor="middle" x="1233" y="-175.5" font-family="Helvetica,sans-Serif" font-size="10.00">xml/setjoystickxml.h</text>
</a>
</g>
</g>
<!-- Node2&#45;&gt;Node33 -->
<g id="edge39" class="edge">
<title>Node2&#45;&gt;Node33</title>
<path fill="none" stroke="midnightblue" d="M567.26,-336.42C684.95,-308.6 1056.12,-220.83 1186.87,-189.91"/>
<polygon fill="midnightblue" stroke="midnightblue" points="1188.03,-193.23 1196.95,-187.52 1186.42,-186.42 1188.03,-193.23"/>
</g>
<!-- Node4 -->
<g id="node4" class="node">
<title>Node4</title>
<g id="a_node4"><a xlink:title=" ">
<polygon fill="white" stroke="#bfbfbf" points="282.5,-0.5 282.5,-19.5 323.5,-19.5 323.5,-0.5 282.5,-0.5"/>
<text text-anchor="middle" x="303" y="-7.5" font-family="Helvetica,sans-Serif" font-size="10.00">QList</text>
</a>
</g>
</g>
<!-- Node3&#45;&gt;Node4 -->
<g id="edge3" class="edge">
<title>Node3&#45;&gt;Node4</title>
<path fill="none" stroke="midnightblue" d="M222.34,-286.66C167.02,-281.86 53.53,-269.16 24,-244 0.56,-224.03 0,-209.8 0,-179 0,-179 0,-179 0,-121 0,-90.2 0.22,-75.57 24,-56 61.43,-25.2 207.26,-15.14 271.88,-12.15"/>
<polygon fill="midnightblue" stroke="midnightblue" points="272.41,-15.63 282.24,-11.7 272.1,-8.64 272.41,-15.63"/>
</g>
<!-- Node5 -->
<g id="node5" class="node">
<title>Node5</title>
<g id="a_node5"><a xlink:title=" ">
<polygon fill="white" stroke="#bfbfbf" points="576,-0.5 576,-19.5 632,-19.5 632,-0.5 576,-0.5"/>
<text text-anchor="middle" x="604" y="-7.5" font-family="Helvetica,sans-Serif" font-size="10.00">QObject</text>
</a>
</g>
</g>
<!-- Node3&#45;&gt;Node5 -->
<g id="edge4" class="edge">
<title>Node3&#45;&gt;Node5</title>
<path fill="none" stroke="midnightblue" d="M222.2,-287.17C162.75,-281.79 38,-260.76 38,-179 38,-179 38,-179 38,-121 38,-90.9 33.68,-75.02 57,-56 76.71,-39.92 444.19,-19.35 565.5,-12.98"/>
<polygon fill="midnightblue" stroke="midnightblue" points="565.99,-16.45 575.8,-12.44 565.63,-9.46 565.99,-16.45"/>
</g>
<!-- Node6 -->
<g id="node6" class="node">
<title>Node6</title>
<g id="a_node6"><a xlink:href="joyaxisbutton_8h.html" target="_top" xlink:title=" ">
<polygon fill="white" stroke="black" points="207.5,-224.5 207.5,-243.5 376.5,-243.5 376.5,-224.5 207.5,-224.5"/>
<text text-anchor="middle" x="292" y="-231.5" font-family="Helvetica,sans-Serif" font-size="10.00">joybuttontypes/joyaxisbutton.h</text>
</a>
</g>
</g>
<!-- Node3&#45;&gt;Node6 -->
<g id="edge5" class="edge">
<title>Node3&#45;&gt;Node6</title>
<path fill="none" stroke="midnightblue" d="M259.44,-280.08C264.95,-272.46 273.03,-261.26 279.76,-251.94"/>
<polygon fill="midnightblue" stroke="midnightblue" points="282.66,-253.91 285.68,-243.75 276.99,-249.81 282.66,-253.91"/>
</g>
<!-- Node7 -->
<g id="node7" class="node">
<title>Node7</title>
<g id="a_node7"><a xlink:href="joygradientbutton_8h.html" target="_top" xlink:title=" ">
<polygon fill="white" stroke="black" points="576.5,-168.5 576.5,-187.5 765.5,-187.5 765.5,-168.5 576.5,-168.5"/>
<text text-anchor="middle" x="671" y="-175.5" font-family="Helvetica,sans-Serif" font-size="10.00">joybuttontypes/joygradientbutton.h</text>
</a>
</g>
</g>
<!-- Node6&#45;&gt;Node7 -->
<g id="edge6" class="edge">
<title>Node6&#45;&gt;Node7</title>
<path fill="none" stroke="midnightblue" d="M352.05,-224.44C419.69,-214.81 529.48,-199.16 600.97,-188.98"/>
<polygon fill="midnightblue" stroke="midnightblue" points="601.82,-192.39 611.23,-187.52 600.83,-185.46 601.82,-192.39"/>
</g>
<!-- Node24 -->
<g id="node24" class="node">
<title>Node24</title>
<g id="a_node24"><a xlink:href="logger_8h.html" target="_top" xlink:title=" ">
<polygon fill="white" stroke="black" points="264,-112.5 264,-131.5 320,-131.5 320,-112.5 264,-112.5"/>
<text text-anchor="middle" x="292" y="-119.5" font-family="Helvetica,sans-Serif" font-size="10.00">logger.h</text>
</a>
</g>
</g>
<!-- Node6&#45;&gt;Node24 -->
<g id="edge27" class="edge">
<title>Node6&#45;&gt;Node24</title>
<path fill="none" stroke="midnightblue" d="M292,-224.37C292,-206.62 292,-165.67 292,-141.6"/>
<polygon fill="midnightblue" stroke="midnightblue" points="295.5,-141.59 292,-131.59 288.5,-141.59 295.5,-141.59"/>
</g>
<!-- Node8 -->
<g id="node8" class="node">
<title>Node8</title>
<g id="a_node8"><a xlink:href="joybutton_8h.html" target="_top" xlink:title=" ">
<polygon fill="white" stroke="black" points="923,-112.5 923,-131.5 995,-131.5 995,-112.5 923,-112.5"/>
<text text-anchor="middle" x="959" y="-119.5" font-family="Helvetica,sans-Serif" font-size="10.00">joybutton.h</text>
</a>
</g>
</g>
<!-- Node7&#45;&gt;Node8 -->
<g id="edge7" class="edge">
<title>Node7&#45;&gt;Node8</title>
<path fill="none" stroke="midnightblue" d="M716.63,-168.44C770.28,-158.39 858.8,-141.79 912.72,-131.68"/>
<polygon fill="midnightblue" stroke="midnightblue" points="913.51,-135.09 922.7,-129.81 912.22,-128.21 913.51,-135.09"/>
</g>
<!-- Node9 -->
<g id="node9" class="node">
<title>Node9</title>
<g id="a_node9"><a xlink:href="globalvariables_8h.html" target="_top" xlink:title=" ">
<polygon fill="white" stroke="black" points="485.5,-56.5 485.5,-75.5 586.5,-75.5 586.5,-56.5 485.5,-56.5"/>
<text text-anchor="middle" x="536" y="-63.5" font-family="Helvetica,sans-Serif" font-size="10.00">globalvariables.h</text>
</a>
</g>
</g>
<!-- Node8&#45;&gt;Node9 -->
<g id="edge8" class="edge">
<title>Node8&#45;&gt;Node9</title>
<path fill="none" stroke="midnightblue" d="M922.89,-116.83C859.32,-109.43 722.98,-93.25 596.94,-76.1"/>
<polygon fill="midnightblue" stroke="midnightblue" points="597.11,-72.59 586.73,-74.7 596.16,-79.52 597.11,-72.59"/>
</g>
<!-- Node10 -->
<g id="node10" class="node">
<title>Node10</title>
<g id="a_node10"><a xlink:href="joybuttonmousehelper_8h.html" target="_top" xlink:title=" ">
<polygon fill="white" stroke="black" points="604.5,-56.5 604.5,-75.5 739.5,-75.5 739.5,-56.5 604.5,-56.5"/>
<text text-anchor="middle" x="672" y="-63.5" font-family="Helvetica,sans-Serif" font-size="10.00">joybuttonmousehelper.h</text>
</a>
</g>
</g>
<!-- Node8&#45;&gt;Node10 -->
<g id="edge11" class="edge">
<title>Node8&#45;&gt;Node10</title>
<path fill="none" stroke="midnightblue" d="M922.94,-114.22C873.8,-104.97 785.33,-88.32 727.65,-77.47"/>
<polygon fill="midnightblue" stroke="midnightblue" points="728.08,-73.99 717.6,-75.58 726.78,-80.87 728.08,-73.99"/>
</g>
<!-- Node11 -->
<g id="node11" class="node">
<title>Node11</title>
<g id="a_node11"><a xlink:href="joybuttonslot_8h.html" target="_top" xlink:title=" ">
<polygon fill="white" stroke="black" points="1413,-56.5 1413,-75.5 1503,-75.5 1503,-56.5 1413,-56.5"/>
<text text-anchor="middle" x="1458" y="-63.5" font-family="Helvetica,sans-Serif" font-size="10.00">joybuttonslot.h</text>
</a>
</g>
</g>
<!-- Node8&#45;&gt;Node11 -->
<g id="edge13" class="edge">
<title>Node8&#45;&gt;Node11</title>
<path fill="none" stroke="midnightblue" d="M995.29,-117.07C1081.59,-107.73 1299.51,-84.15 1402.48,-73.01"/>
<polygon fill="midnightblue" stroke="midnightblue" points="1403.11,-76.46 1412.67,-71.91 1402.35,-69.5 1403.11,-76.46"/>
</g>
<!-- Node17 -->
<g id="node17" class="node">
<title>Node17</title>
<g id="a_node17"><a xlink:href="springmousemoveinfo_8h.html" target="_top" xlink:title=" ">
<polygon fill="white" stroke="black" points="757.5,-56.5 757.5,-75.5 892.5,-75.5 892.5,-56.5 757.5,-56.5"/>
<text text-anchor="middle" x="825" y="-63.5" font-family="Helvetica,sans-Serif" font-size="10.00">springmousemoveinfo.h</text>
</a>
</g>
</g>
<!-- Node8&#45;&gt;Node17 -->
<g id="edge20" class="edge">
<title>Node8&#45;&gt;Node17</title>
<path fill="none" stroke="midnightblue" d="M937.77,-112.44C915.62,-103.52 880.68,-89.44 855.56,-79.32"/>
<polygon fill="midnightblue" stroke="midnightblue" points="856.72,-76.01 846.13,-75.52 854.1,-82.5 856.72,-76.01"/>
</g>
<!-- Node18 -->
<g id="node18" class="node">
<title>Node18</title>
<g id="a_node18"><a xlink:title=" ">
<polygon fill="white" stroke="#bfbfbf" points="911,-56.5 911,-75.5 1007,-75.5 1007,-56.5 911,-56.5"/>
<text text-anchor="middle" x="959" y="-63.5" font-family="Helvetica,sans-Serif" font-size="10.00">QDeadlineTimer</text>
</a>
</g>
</g>
<!-- Node8&#45;&gt;Node18 -->
<g id="edge21" class="edge">
<title>Node8&#45;&gt;Node18</title>
<path fill="none" stroke="midnightblue" d="M959,-112.08C959,-105.01 959,-94.86 959,-85.99"/>
<polygon fill="midnightblue" stroke="midnightblue" points="962.5,-85.75 959,-75.75 955.5,-85.75 962.5,-85.75"/>
</g>
<!-- Node19 -->
<g id="node19" class="node">
<title>Node19</title>
<g id="a_node19"><a xlink:title=" ">
<polygon fill="white" stroke="#bfbfbf" points="1025,-56.5 1025,-75.5 1081,-75.5 1081,-56.5 1025,-56.5"/>
<text text-anchor="middle" x="1053" y="-63.5" font-family="Helvetica,sans-Serif" font-size="10.00">QQueue</text>
</a>
</g>
</g>
<!-- Node8&#45;&gt;Node19 -->
<g id="edge22" class="edge">
<title>Node8&#45;&gt;Node19</title>
<path fill="none" stroke="midnightblue" d="M974.1,-112.32C988.9,-103.82 1011.69,-90.73 1028.98,-80.8"/>
<polygon fill="midnightblue" stroke="midnightblue" points="1031.01,-83.67 1037.93,-75.65 1027.52,-77.6 1031.01,-83.67"/>
</g>
<!-- Node20 -->
<g id="node20" class="node">
<title>Node20</title>
<g id="a_node20"><a xlink:title=" ">
<polygon fill="white" stroke="#bfbfbf" points="1099,-56.5 1099,-75.5 1197,-75.5 1197,-56.5 1099,-56.5"/>
<text text-anchor="middle" x="1148" y="-63.5" font-family="Helvetica,sans-Serif" font-size="10.00">QReadWriteLock</text>
</a>
</g>
</g>
<!-- Node8&#45;&gt;Node20 -->
<g id="edge23" class="edge">
<title>Node8&#45;&gt;Node20</title>
<path fill="none" stroke="midnightblue" d="M988.95,-112.44C1021.16,-103.24 1072.53,-88.56 1108.14,-78.39"/>
<polygon fill="midnightblue" stroke="midnightblue" points="1109.54,-81.63 1118.19,-75.52 1107.62,-74.9 1109.54,-81.63"/>
</g>
<!-- Node21 -->
<g id="node21" class="node">
<title>Node21</title>
<g id="a_node21"><a xlink:title=" ">
<polygon fill="white" stroke="#bfbfbf" points="1215,-56.5 1215,-75.5 1285,-75.5 1285,-56.5 1215,-56.5"/>
<text text-anchor="middle" x="1250" y="-63.5" font-family="Helvetica,sans-Serif" font-size="10.00">QRunnable</text>
</a>
</g>
</g>
<!-- Node8&#45;&gt;Node21 -->
<g id="edge24" class="edge">
<title>Node8&#45;&gt;Node21</title>
<path fill="none" stroke="midnightblue" d="M995.04,-114.68C1041.3,-106.52 1124.3,-91.7 1205.11,-76.14"/>
<polygon fill="midnightblue" stroke="midnightblue" points="1205.79,-79.57 1214.95,-74.24 1204.47,-72.7 1205.79,-79.57"/>
</g>
<!-- Node22 -->
<g id="node22" class="node">
<title>Node22</title>
<g id="a_node22"><a xlink:title=" ">
<polygon fill="white" stroke="#bfbfbf" points="409,-56.5 409,-75.5 467,-75.5 467,-56.5 409,-56.5"/>
<text text-anchor="middle" x="438" y="-63.5" font-family="Helvetica,sans-Serif" font-size="10.00">QThread</text>
</a>
</g>
</g>
<!-- Node8&#45;&gt;Node22 -->
<g id="edge25" class="edge">
<title>Node8&#45;&gt;Node22</title>
<path fill="none" stroke="midnightblue" d="M922.73,-119.35C843.54,-115.39 649.18,-103.64 477.36,-76.01"/>
<polygon fill="midnightblue" stroke="midnightblue" points="477.81,-72.54 467.38,-74.39 476.68,-79.45 477.81,-72.54"/>
</g>
<!-- Node23 -->
<g id="node23" class="node">
<title>Node23</title>
<g id="a_node23"><a xlink:title=" ">
<polygon fill="white" stroke="#bfbfbf" points="1303.5,-56.5 1303.5,-75.5 1356.5,-75.5 1356.5,-56.5 1303.5,-56.5"/>
<text text-anchor="middle" x="1330" y="-63.5" font-family="Helvetica,sans-Serif" font-size="10.00">QTimer</text>
</a>
</g>
</g>
<!-- Node8&#45;&gt;Node23 -->
<g id="edge26" class="edge">
<title>Node8&#45;&gt;Node23</title>
<path fill="none" stroke="midnightblue" d="M995.4,-117.45C1055.4,-111.32 1178.97,-97.46 1293.36,-75.92"/>
<polygon fill="midnightblue" stroke="midnightblue" points="1294.17,-79.33 1303.34,-74.02 1292.86,-72.45 1294.17,-79.33"/>
</g>
<!-- Node9&#45;&gt;Node4 -->
<g id="edge9" class="edge">
<title>Node9&#45;&gt;Node4</title>
<path fill="none" stroke="midnightblue" d="M499.08,-56.44C453.32,-45.84 376.19,-27.96 333.58,-18.09"/>
<polygon fill="midnightblue" stroke="midnightblue" points="334.31,-14.66 323.78,-15.82 332.73,-21.48 334.31,-14.66"/>
</g>
<!-- Node9&#45;&gt;Node5 -->
<g id="edge10" class="edge">
<title>Node9&#45;&gt;Node5</title>
<path fill="none" stroke="midnightblue" d="M546.93,-56.32C557.17,-48.18 572.72,-35.84 585,-26.09"/>
<polygon fill="midnightblue" stroke="midnightblue" points="587.22,-28.79 592.88,-19.83 582.87,-23.31 587.22,-28.79"/>
</g>
<!-- Node10&#45;&gt;Node5 -->
<g id="edge12" class="edge">
<title>Node10&#45;&gt;Node5</title>
<path fill="none" stroke="midnightblue" d="M661.07,-56.32C650.83,-48.18 635.28,-35.84 623,-26.09"/>
<polygon fill="midnightblue" stroke="midnightblue" points="625.13,-23.31 615.12,-19.83 620.78,-28.79 625.13,-23.31"/>
</g>
<!-- Node11&#45;&gt;Node5 -->
<g id="edge15" class="edge">
<title>Node11&#45;&gt;Node5</title>
<path fill="none" stroke="midnightblue" d="M1412.96,-57.68C1408.25,-57.05 1403.53,-56.47 1399,-56 1109,-25.74 757.22,-14.8 642.3,-11.88"/>
<polygon fill="midnightblue" stroke="midnightblue" points="642.33,-8.38 632.24,-11.63 642.15,-15.38 642.33,-8.38"/>
</g>
<!-- Node12 -->
<g id="node12" class="node">
<title>Node12</title>
<g id="a_node12"><a xlink:title=" ">
<polygon fill="white" stroke="#bfbfbf" points="1542.5,-0.5 1542.5,-19.5 1633.5,-19.5 1633.5,-0.5 1542.5,-0.5"/>
<text text-anchor="middle" x="1588" y="-7.5" font-family="Helvetica,sans-Serif" font-size="10.00">QElapsedTimer</text>
</a>
</g>
</g>
<!-- Node11&#45;&gt;Node12 -->
<g id="edge14" class="edge">
<title>Node11&#45;&gt;Node12</title>
<path fill="none" stroke="midnightblue" d="M1478.6,-56.44C1499.99,-47.56 1533.68,-33.56 1558.02,-23.45"/>
<polygon fill="midnightblue" stroke="midnightblue" points="1559.61,-26.58 1567.5,-19.52 1556.92,-20.12 1559.61,-26.58"/>
</g>
<!-- Node13 -->
<g id="node13" class="node">
<title>Node13</title>
<g id="a_node13"><a xlink:title=" ">
<polygon fill="white" stroke="#bfbfbf" points="1651.5,-0.5 1651.5,-19.5 1710.5,-19.5 1710.5,-0.5 1651.5,-0.5"/>
<text text-anchor="middle" x="1681" y="-7.5" font-family="Helvetica,sans-Serif" font-size="10.00">QPointer</text>
</a>
</g>
</g>
<!-- Node11&#45;&gt;Node13 -->
<g id="edge16" class="edge">
<title>Node11&#45;&gt;Node13</title>
<path fill="none" stroke="midnightblue" d="M1493.34,-56.44C1533.61,-46.69 1599.29,-30.79 1641.3,-20.61"/>
<polygon fill="midnightblue" stroke="midnightblue" points="1642.29,-23.98 1651.18,-18.22 1640.64,-17.17 1642.29,-23.98"/>
</g>
<!-- Node14 -->
<g id="node14" class="node">
<title>Node14</title>
<g id="a_node14"><a xlink:title=" ">
<polygon fill="white" stroke="#bfbfbf" points="1247.5,-0.5 1247.5,-19.5 1296.5,-19.5 1296.5,-0.5 1247.5,-0.5"/>
<text text-anchor="middle" x="1272" y="-7.5" font-family="Helvetica,sans-Serif" font-size="10.00">QTime</text>
</a>
</g>
</g>
<!-- Node11&#45;&gt;Node14 -->
<g id="edge17" class="edge">
<title>Node11&#45;&gt;Node14</title>
<path fill="none" stroke="midnightblue" d="M1428.53,-56.44C1395.34,-46.81 1341.47,-31.17 1306.38,-20.98"/>
<polygon fill="midnightblue" stroke="midnightblue" points="1307.16,-17.56 1296.58,-18.14 1305.21,-24.29 1307.16,-17.56"/>
</g>
<!-- Node15 -->
<g id="node15" class="node">
<title>Node15</title>
<g id="a_node15"><a xlink:title=" ">
<polygon fill="white" stroke="#bfbfbf" points="1314.5,-0.5 1314.5,-19.5 1373.5,-19.5 1373.5,-0.5 1314.5,-0.5"/>
<text text-anchor="middle" x="1344" y="-7.5" font-family="Helvetica,sans-Serif" font-size="10.00">QVariant</text>
</a>
</g>
</g>
<!-- Node11&#45;&gt;Node15 -->
<g id="edge18" class="edge">
<title>Node11&#45;&gt;Node15</title>
<path fill="none" stroke="midnightblue" d="M1439.94,-56.44C1421.43,-47.68 1392.42,-33.94 1371.14,-23.86"/>
<polygon fill="midnightblue" stroke="midnightblue" points="1372.51,-20.63 1361.98,-19.52 1369.52,-26.96 1372.51,-20.63"/>
</g>
<!-- Node16 -->
<g id="node16" class="node">
<title>Node16</title>
<g id="a_node16"><a xlink:title=" ">
<polygon fill="white" stroke="#bfbfbf" points="1391.5,-0.5 1391.5,-19.5 1524.5,-19.5 1524.5,-0.5 1391.5,-0.5"/>
<text text-anchor="middle" x="1458" y="-7.5" font-family="Helvetica,sans-Serif" font-size="10.00">QtWidgets/QApplication</text>
</a>
</g>
</g>
<!-- Node11&#45;&gt;Node16 -->
<g id="edge19" class="edge">
<title>Node11&#45;&gt;Node16</title>
<path fill="none" stroke="midnightblue" d="M1458,-56.08C1458,-49.01 1458,-38.86 1458,-29.99"/>
<polygon fill="midnightblue" stroke="midnightblue" points="1461.5,-29.75 1458,-19.75 1454.5,-29.75 1461.5,-29.75"/>
</g>
<!-- Node24&#45;&gt;Node5 -->
<g id="edge30" class="edge">
<title>Node24&#45;&gt;Node5</title>
<path fill="none" stroke="midnightblue" d="M305.22,-112.3C329.49,-96.45 380.49,-63.78 400,-56 455.44,-33.89 523.89,-21.61 565.73,-15.66"/>
<polygon fill="midnightblue" stroke="midnightblue" points="566.33,-19.11 575.76,-14.28 565.38,-12.18 566.33,-19.11"/>
</g>
<!-- Node24&#45;&gt;Node22 -->
<g id="edge32" class="edge">
<title>Node24&#45;&gt;Node22</title>
<path fill="none" stroke="midnightblue" d="M315.13,-112.44C339.48,-103.44 378.01,-89.19 405.42,-79.05"/>
<polygon fill="midnightblue" stroke="midnightblue" points="406.81,-82.27 414.97,-75.52 404.38,-75.7 406.81,-82.27"/>
</g>
<!-- Node25 -->
<g id="node25" class="node">
<title>Node25</title>
<g id="a_node25"><a xlink:title=" ">
<polygon fill="white" stroke="#bfbfbf" points="238.5,-56.5 238.5,-75.5 279.5,-75.5 279.5,-56.5 238.5,-56.5"/>
<text text-anchor="middle" x="259" y="-63.5" font-family="Helvetica,sans-Serif" font-size="10.00">QFile</text>
</a>
</g>
</g>
<!-- Node24&#45;&gt;Node25 -->
<g id="edge28" class="edge">
<title>Node24&#45;&gt;Node25</title>
<path fill="none" stroke="midnightblue" d="M286.55,-112.08C281.99,-104.61 275.33,-93.72 269.71,-84.52"/>
<polygon fill="midnightblue" stroke="midnightblue" points="272.55,-82.46 264.35,-75.75 266.58,-86.11 272.55,-82.46"/>
</g>
<!-- Node26 -->
<g id="node26" class="node">
<title>Node26</title>
<g id="a_node26"><a xlink:title=" ">
<polygon fill="white" stroke="#bfbfbf" points="297.5,-56.5 297.5,-75.5 352.5,-75.5 352.5,-56.5 297.5,-56.5"/>
<text text-anchor="middle" x="325" y="-63.5" font-family="Helvetica,sans-Serif" font-size="10.00">QMutex</text>
</a>
</g>
</g>
<!-- Node24&#45;&gt;Node26 -->
<g id="edge29" class="edge">
<title>Node24&#45;&gt;Node26</title>
<path fill="none" stroke="midnightblue" d="M297.45,-112.08C302.01,-104.61 308.67,-93.72 314.29,-84.52"/>
<polygon fill="midnightblue" stroke="midnightblue" points="317.42,-86.11 319.65,-75.75 311.45,-82.46 317.42,-86.11"/>
</g>
<!-- Node27 -->
<g id="node27" class="node">
<title>Node27</title>
<g id="a_node27"><a xlink:title=" ">
<polygon fill="white" stroke="#bfbfbf" points="66,-56.5 66,-75.5 146,-75.5 146,-56.5 66,-56.5"/>
<text text-anchor="middle" x="106" y="-63.5" font-family="Helvetica,sans-Serif" font-size="10.00">QTextStream</text>
</a>
</g>
</g>
<!-- Node24&#45;&gt;Node27 -->
<g id="edge31" class="edge">
<title>Node24&#45;&gt;Node27</title>
<path fill="none" stroke="midnightblue" d="M263.75,-112.8C232.21,-103.64 180.94,-88.76 145.45,-78.45"/>
<polygon fill="midnightblue" stroke="midnightblue" points="146.02,-74.97 135.44,-75.55 144.07,-81.7 146.02,-74.97"/>
</g>
<!-- Node28 -->
<g id="node28" class="node">
<title>Node28</title>
<g id="a_node28"><a xlink:title=" ">
<polygon fill="white" stroke="#bfbfbf" points="164,-56.5 164,-75.5 220,-75.5 220,-56.5 164,-56.5"/>
<text text-anchor="middle" x="192" y="-63.5" font-family="Helvetica,sans-Serif" font-size="10.00">sstream</text>
</a>
</g>
</g>
<!-- Node24&#45;&gt;Node28 -->
<g id="edge33" class="edge">
<title>Node24&#45;&gt;Node28</title>
<path fill="none" stroke="midnightblue" d="M275.93,-112.32C260.04,-103.74 235.49,-90.49 217.04,-80.52"/>
<polygon fill="midnightblue" stroke="midnightblue" points="218.49,-77.33 208.03,-75.65 215.16,-83.49 218.49,-77.33"/>
</g>
<!-- Node30 -->
<g id="node30" class="node">
<title>Node30</title>
<g id="a_node30"><a xlink:title=" ">
<polygon fill="white" stroke="#bfbfbf" points="450.5,-224.5 450.5,-243.5 521.5,-243.5 521.5,-224.5 450.5,-224.5"/>
<text text-anchor="middle" x="486" y="-231.5" font-family="Helvetica,sans-Serif" font-size="10.00">QMetaType</text>
</a>
</g>
</g>
<!-- Node29&#45;&gt;Node30 -->
<g id="edge35" class="edge">
<title>Node29&#45;&gt;Node30</title>
<path fill="none" stroke="midnightblue" d="M471.81,-280.08C474.08,-272.85 477.37,-262.41 480.21,-253.4"/>
<polygon fill="midnightblue" stroke="midnightblue" points="483.58,-254.34 483.25,-243.75 476.9,-252.24 483.58,-254.34"/>
</g>
<!-- Node31&#45;&gt;Node30 -->
<g id="edge37" class="edge">
<title>Node31&#45;&gt;Node30</title>
<path fill="none" stroke="midnightblue" d="M575.81,-280.32C558.65,-271.66 532.05,-258.24 512.25,-248.25"/>
<polygon fill="midnightblue" stroke="midnightblue" points="513.65,-245.04 503.15,-243.65 510.5,-251.28 513.65,-245.04"/>
</g>
<!-- Node32 -->
<g id="node32" class="node">
<title>Node32</title>
<g id="a_node32"><a xlink:title=" ">
<polygon fill="white" stroke="#bfbfbf" points="557,-224.5 557,-243.5 629,-243.5 629,-224.5 557,-224.5"/>
<text text-anchor="middle" x="593" y="-231.5" font-family="Helvetica,sans-Serif" font-size="10.00">SDL2/SDL.h</text>
</a>
</g>
</g>
<!-- Node31&#45;&gt;Node32 -->
<g id="edge38" class="edge">
<title>Node31&#45;&gt;Node32</title>
<path fill="none" stroke="midnightblue" d="M593,-280.08C593,-273.01 593,-262.86 593,-253.99"/>
<polygon fill="midnightblue" stroke="midnightblue" points="596.5,-253.75 593,-243.75 589.5,-253.75 596.5,-253.75"/>
</g>
<!-- Node33&#45;&gt;Node5 -->
<g id="edge40" class="edge">
<title>Node33&#45;&gt;Node5</title>
<path fill="none" stroke="midnightblue" d="M1256.18,-168.4C1304.61,-149.24 1408.61,-101.2 1366,-56 1340.95,-29.43 793.94,-15.25 642.53,-11.82"/>
<polygon fill="midnightblue" stroke="midnightblue" points="642.41,-8.32 632.33,-11.6 642.25,-15.32 642.41,-8.32"/>
</g>
</g>
</svg>
        <g id="navigator" transform="translate(0 0)" fill="#404254">
                <rect fill="#f2f5e9" fill-opacity="0.5" stroke="#606060" stroke-width=".5" x="0" y="0" width="60" height="60"/>
                <use id="zoomplus" xlink:href="#zoomPlus" x="17" y="9" onmousedown="handleZoom(evt,'in')"/>
                <use id="zoomminus" xlink:href="#zoomMin" x="42" y="9" onmousedown="handleZoom(evt,'out')"/>
                <use id="reset" xlink:href="#resetDef" x="30" y="36" onmousedown="handleReset()"/>
                <g id="arrowUp" xlink:href="#dirArrow" transform="translate(30 24)" onmousedown="handlePan(0,-1)">
                  <use xlink:href="#rim" fill="#404040">
                        <set attributeName="fill" to="#808080" begin="arrowUp.mouseover" end="arrowUp.mouseout"/>
                  </use>
                  <path fill="none" stroke="white" stroke-width="1.5" d="M0,-3.0v7 M-2.5,-0.5L0,-3.0L2.5,-0.5"/>
                </g>
                <g id="arrowRight" xlink:href="#dirArrow" transform="rotate(90) translate(36 -43)" onmousedown="handlePan(1,0)">
                  <use xlink:href="#rim" fill="#404040">
                        <set attributeName="fill" to="#808080" begin="arrowRight.mouseover" end="arrowRight.mouseout"/>
                  </use>
                  <path fill="none" stroke="white" stroke-width="1.5" d="M0,-3.0v7 M-2.5,-0.5L0,-3.0L2.5,-0.5"/>
                </g>
                <g id="arrowDown" xlink:href="#dirArrow" transform="rotate(180) translate(-30 -48)" onmousedown="handlePan(0,1)">
                  <use xlink:href="#rim" fill="#404040">
                        <set attributeName="fill" to="#808080" begin="arrowDown.mouseover" end="arrowDown.mouseout"/>
                  </use>
                  <path fill="none" stroke="white" stroke-width="1.5" d="M0,-3.0v7 M-2.5,-0.5L0,-3.0L2.5,-0.5"/>
                </g>
                <g id="arrowLeft" xlink:href="#dirArrow" transform="rotate(270) translate(-36 17)" onmousedown="handlePan(-1,0)">
                  <use xlink:href="#rim" fill="#404040">
                        <set attributeName="fill" to="#808080" begin="arrowLeft.mouseover" end="arrowLeft.mouseout"/>
                  </use>
                  <path fill="none" stroke="white" stroke-width="1.5" d="M0,-3.0v7 M-2.5,-0.5L0,-3.0L2.5,-0.5"/>
                </g>
        </g>
        <svg viewBox="0 0 15 15" width="100%" height="30px" preserveAspectRatio="xMaxYMin meet">
         <g id="arrow_out" transform="scale(0.3 0.3)">
          <a xlink:href="gamecontrollerset_8h__incl_org.svg" target="_base">
           <rect id="button" ry="5" rx="5" y="6" x="6" height="38" width="38"
                fill="#f2f5e9" fill-opacity="0.5" stroke="#606060" stroke-width="1.0"/>
           <path id="arrow"
             d="M 11.500037,31.436501 C 11.940474,20.09759 22.043105,11.32322 32.158766,21.979434 L 37.068811,17.246167 C 37.068811,17.246167 37.088388,32 37.088388,32 L 22.160133,31.978069 C 22.160133,31.978069 26.997745,27.140456 26.997745,27.140456 C 18.528582,18.264221 13.291696,25.230495 11.500037,31.436501 z"
             style="fill:#404040;"/>
          </a>
         </g>
        </svg>
</svg>
