<?xml version="1.0" encoding="UTF-8" standalone="no"?>
<!DOCTYPE svg PUBLIC "-//W3C//DTD SVG 1.1//EN"
 "http://www.w3.org/Graphics/SVG/1.1/DTD/svg11.dtd">
<!-- Generated by graphviz version 2.43.0 (0)
 -->
<!-- Title: /home/runner/work/doxygen/antimicrox/src/gamecontroller/xml/gamecontrollerdpadxml.cpp Pages: 1 -->
<!--zoomable 442 -->
<svg id="main" version="1.1" xmlns="http://www.w3.org/2000/svg" xmlns:xlink="http://www.w3.org/1999/xlink" xml:space="preserve" onload="init(evt)">
<style type="text/css"><![CDATA[
.edge:hover path { stroke: red; }
.edge:hover polygon { stroke: red; fill: red; }
]]></style>
<script type="text/javascript"><![CDATA[
var edges = document.getElementsByTagName('g');
if (edges && edges.length) {
  for (var i=0;i<edges.length;i++) {
    if (edges[i].id.substr(0,4)=='edge') {
      edges[i].setAttribute('class','edge');
    }
  }
}
]]></script>
        <defs>
                <circle id="rim" cx="0" cy="0" r="7"/>
                <circle id="rim2" cx="0" cy="0" r="3.5"/>
                <g id="zoomPlus">
                        <use xlink:href="#rim" fill="#404040">
                                <set attributeName="fill" to="#808080" begin="zoomplus.mouseover" end="zoomplus.mouseout"/>
                        </use>
                        <path d="M-4,0h8M0,-4v8" fill="none" stroke="white" stroke-width="1.5" pointer-events="none"/>
                </g>
                <g id="zoomMin">
                        <use xlink:href="#rim" fill="#404040">
                                <set attributeName="fill" to="#808080" begin="zoomminus.mouseover" end="zoomminus.mouseout"/>
                        </use>
                        <path d="M-4,0h8" fill="none" stroke="white" stroke-width="1.5" pointer-events="none"/>
                </g>
                <g id="dirArrow">
                        <path fill="none" stroke="white" stroke-width="1.5" d="M0,-3.0v7 M-2.5,-0.5L0,-3.0L2.5,-0.5"/>
                </g>
               <g id="resetDef">
                       <use xlink:href="#rim2" fill="#404040">
                               <set attributeName="fill" to="#808080" begin="reset.mouseover" end="reset.mouseout"/>
                       </use>
               </g>
        </defs>

<script type="text/javascript">
var viewWidth = 1258;
var viewHeight = 442;
var sectionId = 'dynsection-0';
</script>
<script xlink:href="svgpan.js"/>
<svg id="graph" class="graph">
<g id="viewport">
<title>/home/runner/work/doxygen/antimicrox/src/gamecontroller/xml/gamecontrollerdpadxml.cpp</title>
<polygon fill="white" stroke="transparent" points="-4,4 -4,-438 1254,-438 1254,4 -4,4"/>
<!-- Node1 -->
<g id="node1" class="node">
<title>Node1</title>
<g id="a_node1"><a xlink:title=" ">
<polygon fill="#bfbfbf" stroke="black" points="871,-392.5 871,-433.5 1050,-433.5 1050,-392.5 871,-392.5"/>
<text text-anchor="start" x="879" y="-421.5" font-family="Helvetica,sans-Serif" font-size="10.00">/home/runner/work/doxygen</text>
<text text-anchor="start" x="879" y="-410.5" font-family="Helvetica,sans-Serif" font-size="10.00">/antimicrox/src/gamecontroller</text>
<text text-anchor="middle" x="960.5" y="-399.5" font-family="Helvetica,sans-Serif" font-size="10.00">/xml/gamecontrollerdpadxml.cpp</text>
</a>
</g>
</g>
<!-- Node2 -->
<g id="node2" class="node">
<title>Node2</title>
<g id="a_node2"><a xlink:href="gamecontrollerdpadxml_8h.html" target="_top" xlink:title=" ">
<polygon fill="white" stroke="black" points="830,-336.5 830,-355.5 973,-355.5 973,-336.5 830,-336.5"/>
<text text-anchor="middle" x="901.5" y="-343.5" font-family="Helvetica,sans-Serif" font-size="10.00">gamecontrollerdpadxml.h</text>
</a>
</g>
</g>
<!-- Node1&#45;&gt;Node2 -->
<g id="edge1" class="edge">
<title>Node1&#45;&gt;Node2</title>
<path fill="none" stroke="midnightblue" d="M942.8,-392.5C934.27,-383.11 924.18,-371.98 916.1,-363.08"/>
<polygon fill="midnightblue" stroke="midnightblue" points="918.67,-360.7 909.35,-355.65 913.48,-365.41 918.67,-360.7"/>
</g>
<!-- Node25 -->
<g id="node25" class="node">
<title>Node25</title>
<g id="a_node25"><a xlink:href="gamecontrollerdpad_8h.html" target="_top" xlink:title=" ">
<polygon fill="white" stroke="black" points="611,-336.5 611,-355.5 812,-355.5 812,-336.5 611,-336.5"/>
<text text-anchor="middle" x="711.5" y="-343.5" font-family="Helvetica,sans-Serif" font-size="10.00">gamecontroller/gamecontrollerdpad.h</text>
</a>
</g>
</g>
<!-- Node1&#45;&gt;Node25 -->
<g id="edge28" class="edge">
<title>Node1&#45;&gt;Node25</title>
<path fill="none" stroke="midnightblue" d="M885.79,-392.5C842.71,-381.25 790.11,-367.52 754.03,-358.1"/>
<polygon fill="midnightblue" stroke="midnightblue" points="754.88,-354.71 744.32,-355.57 753.11,-361.48 754.88,-354.71"/>
</g>
<!-- Node26 -->
<g id="node26" class="node">
<title>Node26</title>
<g id="a_node26"><a xlink:title=" ">
<polygon fill="white" stroke="#bfbfbf" points="991.5,-336.5 991.5,-355.5 1047.5,-355.5 1047.5,-336.5 991.5,-336.5"/>
<text text-anchor="middle" x="1019.5" y="-343.5" font-family="Helvetica,sans-Serif" font-size="10.00">QDebug</text>
</a>
</g>
</g>
<!-- Node1&#45;&gt;Node26 -->
<g id="edge30" class="edge">
<title>Node1&#45;&gt;Node26</title>
<path fill="none" stroke="midnightblue" d="M978.2,-392.5C986.73,-383.11 996.82,-371.98 1004.9,-363.08"/>
<polygon fill="midnightblue" stroke="midnightblue" points="1007.52,-365.41 1011.65,-355.65 1002.33,-360.7 1007.52,-365.41"/>
</g>
<!-- Node27 -->
<g id="node27" class="node">
<title>Node27</title>
<g id="a_node27"><a xlink:title=" ">
<polygon fill="white" stroke="#bfbfbf" points="1066,-336.5 1066,-355.5 1179,-355.5 1179,-336.5 1066,-336.5"/>
<text text-anchor="middle" x="1122.5" y="-343.5" font-family="Helvetica,sans-Serif" font-size="10.00">QXmlStreamReader</text>
</a>
</g>
</g>
<!-- Node1&#45;&gt;Node27 -->
<g id="edge31" class="edge">
<title>Node1&#45;&gt;Node27</title>
<path fill="none" stroke="midnightblue" d="M1009.11,-392.5C1035.85,-381.77 1068.24,-368.77 1091.55,-359.42"/>
<polygon fill="midnightblue" stroke="midnightblue" points="1092.96,-362.62 1100.94,-355.65 1090.35,-356.13 1092.96,-362.62"/>
</g>
<!-- Node3 -->
<g id="node3" class="node">
<title>Node3</title>
<g id="a_node3"><a xlink:href="vdpad_8h.html" target="_top" xlink:title=" ">
<polygon fill="white" stroke="black" points="683.5,-280.5 683.5,-299.5 739.5,-299.5 739.5,-280.5 683.5,-280.5"/>
<text text-anchor="middle" x="711.5" y="-287.5" font-family="Helvetica,sans-Serif" font-size="10.00">vdpad.h</text>
</a>
</g>
</g>
<!-- Node2&#45;&gt;Node3 -->
<g id="edge2" class="edge">
<title>Node2&#45;&gt;Node3</title>
<path fill="none" stroke="midnightblue" d="M871.39,-336.44C838.3,-327.04 785.08,-311.91 749.23,-301.72"/>
<polygon fill="midnightblue" stroke="midnightblue" points="750.18,-298.36 739.61,-298.99 748.27,-305.09 750.18,-298.36"/>
</g>
<!-- Node24 -->
<g id="node24" class="node">
<title>Node24</title>
<g id="a_node24"><a xlink:href="joydpadxml_8h.html" target="_top" xlink:title=" ">
<polygon fill="white" stroke="black" points="1145,-224.5 1145,-243.5 1250,-243.5 1250,-224.5 1145,-224.5"/>
<text text-anchor="middle" x="1197.5" y="-231.5" font-family="Helvetica,sans-Serif" font-size="10.00">xml/joydpadxml.h</text>
</a>
</g>
</g>
<!-- Node2&#45;&gt;Node24 -->
<g id="edge26" class="edge">
<title>Node2&#45;&gt;Node24</title>
<path fill="none" stroke="midnightblue" d="M924.73,-336.37C977.14,-316.89 1104.72,-269.48 1164.97,-247.09"/>
<polygon fill="midnightblue" stroke="midnightblue" points="1166.23,-250.36 1174.38,-243.59 1163.79,-243.79 1166.23,-250.36"/>
</g>
<!-- Node4 -->
<g id="node4" class="node">
<title>Node4</title>
<g id="a_node4"><a xlink:href="joydpad_8h.html" target="_top" xlink:title=" ">
<polygon fill="white" stroke="black" points="679,-224.5 679,-243.5 744,-243.5 744,-224.5 679,-224.5"/>
<text text-anchor="middle" x="711.5" y="-231.5" font-family="Helvetica,sans-Serif" font-size="10.00">joydpad.h</text>
</a>
</g>
</g>
<!-- Node3&#45;&gt;Node4 -->
<g id="edge3" class="edge">
<title>Node3&#45;&gt;Node4</title>
<path fill="none" stroke="midnightblue" d="M711.5,-280.08C711.5,-273.01 711.5,-262.86 711.5,-253.99"/>
<polygon fill="midnightblue" stroke="midnightblue" points="715,-253.75 711.5,-243.75 708,-253.75 715,-253.75"/>
</g>
<!-- Node13 -->
<g id="node13" class="node">
<title>Node13</title>
<g id="a_node13"><a xlink:title=" ">
<polygon fill="white" stroke="#bfbfbf" points="0,-0.5 0,-19.5 59,-19.5 59,-0.5 0,-0.5"/>
<text text-anchor="middle" x="29.5" y="-7.5" font-family="Helvetica,sans-Serif" font-size="10.00">QPointer</text>
</a>
</g>
</g>
<!-- Node3&#45;&gt;Node13 -->
<g id="edge25" class="edge">
<title>Node3&#45;&gt;Node13</title>
<path fill="none" stroke="midnightblue" d="M683.15,-286.82C564.71,-277.32 115.5,-237.46 115.5,-179 115.5,-179 115.5,-179 115.5,-121 115.5,-79.58 77.19,-44.45 51.71,-25.67"/>
<polygon fill="midnightblue" stroke="midnightblue" points="53.5,-22.64 43.32,-19.72 49.45,-28.36 53.5,-22.64"/>
</g>
<!-- Node5 -->
<g id="node5" class="node">
<title>Node5</title>
<g id="a_node5"><a xlink:href="joydpadbutton_8h.html" target="_top" xlink:title=" ">
<polygon fill="white" stroke="black" points="625,-168.5 625,-187.5 798,-187.5 798,-168.5 625,-168.5"/>
<text text-anchor="middle" x="711.5" y="-175.5" font-family="Helvetica,sans-Serif" font-size="10.00">joybuttontypes/joydpadbutton.h</text>
</a>
</g>
</g>
<!-- Node4&#45;&gt;Node5 -->
<g id="edge4" class="edge">
<title>Node4&#45;&gt;Node5</title>
<path fill="none" stroke="midnightblue" d="M711.5,-224.08C711.5,-217.01 711.5,-206.86 711.5,-197.99"/>
<polygon fill="midnightblue" stroke="midnightblue" points="715,-197.75 711.5,-187.75 708,-197.75 715,-197.75"/>
</g>
<!-- Node6 -->
<g id="node6" class="node">
<title>Node6</title>
<g id="a_node6"><a xlink:href="joybutton_8h.html" target="_top" xlink:title=" ">
<polygon fill="white" stroke="black" points="675.5,-112.5 675.5,-131.5 747.5,-131.5 747.5,-112.5 675.5,-112.5"/>
<text text-anchor="middle" x="711.5" y="-119.5" font-family="Helvetica,sans-Serif" font-size="10.00">joybutton.h</text>
</a>
</g>
</g>
<!-- Node5&#45;&gt;Node6 -->
<g id="edge5" class="edge">
<title>Node5&#45;&gt;Node6</title>
<path fill="none" stroke="midnightblue" d="M711.5,-168.08C711.5,-161.01 711.5,-150.86 711.5,-141.99"/>
<polygon fill="midnightblue" stroke="midnightblue" points="715,-141.75 711.5,-131.75 708,-141.75 715,-141.75"/>
</g>
<!-- Node7 -->
<g id="node7" class="node">
<title>Node7</title>
<g id="a_node7"><a xlink:href="globalvariables_8h.html" target="_top" xlink:title=" ">
<polygon fill="white" stroke="black" points="1118,-56.5 1118,-75.5 1219,-75.5 1219,-56.5 1118,-56.5"/>
<text text-anchor="middle" x="1168.5" y="-63.5" font-family="Helvetica,sans-Serif" font-size="10.00">globalvariables.h</text>
</a>
</g>
</g>
<!-- Node6&#45;&gt;Node7 -->
<g id="edge6" class="edge">
<title>Node6&#45;&gt;Node7</title>
<path fill="none" stroke="midnightblue" d="M747.5,-117.4C815.76,-110.48 968.89,-94.46 1108,-76.16"/>
<polygon fill="midnightblue" stroke="midnightblue" points="1108.53,-79.62 1117.99,-74.84 1107.62,-72.68 1108.53,-79.62"/>
</g>
<!-- Node10 -->
<g id="node10" class="node">
<title>Node10</title>
<g id="a_node10"><a xlink:href="joybuttonmousehelper_8h.html" target="_top" xlink:title=" ">
<polygon fill="white" stroke="black" points="965,-56.5 965,-75.5 1100,-75.5 1100,-56.5 965,-56.5"/>
<text text-anchor="middle" x="1032.5" y="-63.5" font-family="Helvetica,sans-Serif" font-size="10.00">joybuttonmousehelper.h</text>
</a>
</g>
</g>
<!-- Node6&#45;&gt;Node10 -->
<g id="edge9" class="edge">
<title>Node6&#45;&gt;Node10</title>
<path fill="none" stroke="midnightblue" d="M747.7,-114.91C802.21,-105.74 906,-88.28 972.09,-77.16"/>
<polygon fill="midnightblue" stroke="midnightblue" points="972.68,-80.61 981.96,-75.5 971.52,-73.71 972.68,-80.61"/>
</g>
<!-- Node11 -->
<g id="node11" class="node">
<title>Node11</title>
<g id="a_node11"><a xlink:href="joybuttonslot_8h.html" target="_top" xlink:title=" ">
<polygon fill="white" stroke="black" points="163.5,-56.5 163.5,-75.5 253.5,-75.5 253.5,-56.5 163.5,-56.5"/>
<text text-anchor="middle" x="208.5" y="-63.5" font-family="Helvetica,sans-Serif" font-size="10.00">joybuttonslot.h</text>
</a>
</g>
</g>
<!-- Node6&#45;&gt;Node11 -->
<g id="edge11" class="edge">
<title>Node6&#45;&gt;Node11</title>
<path fill="none" stroke="midnightblue" d="M675.32,-118.18C600.47,-112.17 422.96,-97.03 263.54,-76.06"/>
<polygon fill="midnightblue" stroke="midnightblue" points="263.92,-72.58 253.55,-74.73 263,-79.52 263.92,-72.58"/>
</g>
<!-- Node17 -->
<g id="node17" class="node">
<title>Node17</title>
<g id="a_node17"><a xlink:href="springmousemoveinfo_8h.html" target="_top" xlink:title=" ">
<polygon fill="white" stroke="black" points="272,-56.5 272,-75.5 407,-75.5 407,-56.5 272,-56.5"/>
<text text-anchor="middle" x="339.5" y="-63.5" font-family="Helvetica,sans-Serif" font-size="10.00">springmousemoveinfo.h</text>
</a>
</g>
</g>
<!-- Node6&#45;&gt;Node17 -->
<g id="edge18" class="edge">
<title>Node6&#45;&gt;Node17</title>
<path fill="none" stroke="midnightblue" d="M675.49,-115.77C613.98,-106.84 487.66,-88.51 408.64,-77.04"/>
<polygon fill="midnightblue" stroke="midnightblue" points="408.69,-73.51 398.29,-75.53 407.69,-80.43 408.69,-73.51"/>
</g>
<!-- Node18 -->
<g id="node18" class="node">
<title>Node18</title>
<g id="a_node18"><a xlink:title=" ">
<polygon fill="white" stroke="#bfbfbf" points="425.5,-56.5 425.5,-75.5 521.5,-75.5 521.5,-56.5 425.5,-56.5"/>
<text text-anchor="middle" x="473.5" y="-63.5" font-family="Helvetica,sans-Serif" font-size="10.00">QDeadlineTimer</text>
</a>
</g>
</g>
<!-- Node6&#45;&gt;Node18 -->
<g id="edge19" class="edge">
<title>Node6&#45;&gt;Node18</title>
<path fill="none" stroke="midnightblue" d="M675.35,-112.8C634.13,-103.44 566.57,-88.12 521.09,-77.8"/>
<polygon fill="midnightblue" stroke="midnightblue" points="521.7,-74.35 511.17,-75.55 520.15,-81.17 521.7,-74.35"/>
</g>
<!-- Node19 -->
<g id="node19" class="node">
<title>Node19</title>
<g id="a_node19"><a xlink:title=" ">
<polygon fill="white" stroke="#bfbfbf" points="539.5,-56.5 539.5,-75.5 595.5,-75.5 595.5,-56.5 539.5,-56.5"/>
<text text-anchor="middle" x="567.5" y="-63.5" font-family="Helvetica,sans-Serif" font-size="10.00">QQueue</text>
</a>
</g>
</g>
<!-- Node6&#45;&gt;Node19 -->
<g id="edge20" class="edge">
<title>Node6&#45;&gt;Node19</title>
<path fill="none" stroke="midnightblue" d="M688.68,-112.44C664.67,-103.44 626.67,-89.19 599.63,-79.05"/>
<polygon fill="midnightblue" stroke="midnightblue" points="600.8,-75.75 590.21,-75.52 598.34,-82.3 600.8,-75.75"/>
</g>
<!-- Node20 -->
<g id="node20" class="node">
<title>Node20</title>
<g id="a_node20"><a xlink:title=" ">
<polygon fill="white" stroke="#bfbfbf" points="613.5,-56.5 613.5,-75.5 711.5,-75.5 711.5,-56.5 613.5,-56.5"/>
<text text-anchor="middle" x="662.5" y="-63.5" font-family="Helvetica,sans-Serif" font-size="10.00">QReadWriteLock</text>
</a>
</g>
</g>
<!-- Node6&#45;&gt;Node20 -->
<g id="edge21" class="edge">
<title>Node6&#45;&gt;Node20</title>
<path fill="none" stroke="midnightblue" d="M703.41,-112.08C696.34,-104.3 685.91,-92.8 677.35,-83.37"/>
<polygon fill="midnightblue" stroke="midnightblue" points="679.75,-80.8 670.44,-75.75 674.57,-85.51 679.75,-80.8"/>
</g>
<!-- Node21 -->
<g id="node21" class="node">
<title>Node21</title>
<g id="a_node21"><a xlink:title=" ">
<polygon fill="white" stroke="#bfbfbf" points="729.5,-56.5 729.5,-75.5 799.5,-75.5 799.5,-56.5 729.5,-56.5"/>
<text text-anchor="middle" x="764.5" y="-63.5" font-family="Helvetica,sans-Serif" font-size="10.00">QRunnable</text>
</a>
</g>
</g>
<!-- Node6&#45;&gt;Node21 -->
<g id="edge22" class="edge">
<title>Node6&#45;&gt;Node21</title>
<path fill="none" stroke="midnightblue" d="M720.25,-112.08C727.97,-104.22 739.4,-92.57 748.72,-83.08"/>
<polygon fill="midnightblue" stroke="midnightblue" points="751.4,-85.34 755.91,-75.75 746.41,-80.44 751.4,-85.34"/>
</g>
<!-- Node22 -->
<g id="node22" class="node">
<title>Node22</title>
<g id="a_node22"><a xlink:title=" ">
<polygon fill="white" stroke="#bfbfbf" points="817.5,-56.5 817.5,-75.5 875.5,-75.5 875.5,-56.5 817.5,-56.5"/>
<text text-anchor="middle" x="846.5" y="-63.5" font-family="Helvetica,sans-Serif" font-size="10.00">QThread</text>
</a>
</g>
</g>
<!-- Node6&#45;&gt;Node22 -->
<g id="edge23" class="edge">
<title>Node6&#45;&gt;Node22</title>
<path fill="none" stroke="midnightblue" d="M732.89,-112.44C755.21,-103.52 790.4,-89.44 815.71,-79.32"/>
<polygon fill="midnightblue" stroke="midnightblue" points="817.22,-82.48 825.21,-75.52 814.62,-75.98 817.22,-82.48"/>
</g>
<!-- Node23 -->
<g id="node23" class="node">
<title>Node23</title>
<g id="a_node23"><a xlink:title=" ">
<polygon fill="white" stroke="#bfbfbf" points="894,-56.5 894,-75.5 947,-75.5 947,-56.5 894,-56.5"/>
<text text-anchor="middle" x="920.5" y="-63.5" font-family="Helvetica,sans-Serif" font-size="10.00">QTimer</text>
</a>
</g>
</g>
<!-- Node6&#45;&gt;Node23 -->
<g id="edge24" class="edge">
<title>Node6&#45;&gt;Node23</title>
<path fill="none" stroke="midnightblue" d="M744.62,-112.44C782.63,-102.62 844.78,-86.56 884.12,-76.4"/>
<polygon fill="midnightblue" stroke="midnightblue" points="885.03,-79.78 893.84,-73.89 883.28,-73 885.03,-79.78"/>
</g>
<!-- Node8 -->
<g id="node8" class="node">
<title>Node8</title>
<g id="a_node8"><a xlink:title=" ">
<polygon fill="white" stroke="#bfbfbf" points="1148,-0.5 1148,-19.5 1189,-19.5 1189,-0.5 1148,-0.5"/>
<text text-anchor="middle" x="1168.5" y="-7.5" font-family="Helvetica,sans-Serif" font-size="10.00">QList</text>
</a>
</g>
</g>
<!-- Node7&#45;&gt;Node8 -->
<g id="edge7" class="edge">
<title>Node7&#45;&gt;Node8</title>
<path fill="none" stroke="midnightblue" d="M1168.5,-56.08C1168.5,-49.01 1168.5,-38.86 1168.5,-29.99"/>
<polygon fill="midnightblue" stroke="midnightblue" points="1172,-29.75 1168.5,-19.75 1165,-29.75 1172,-29.75"/>
</g>
<!-- Node9 -->
<g id="node9" class="node">
<title>Node9</title>
<g id="a_node9"><a xlink:title=" ">
<polygon fill="white" stroke="#bfbfbf" points="1038.5,-0.5 1038.5,-19.5 1094.5,-19.5 1094.5,-0.5 1038.5,-0.5"/>
<text text-anchor="middle" x="1066.5" y="-7.5" font-family="Helvetica,sans-Serif" font-size="10.00">QObject</text>
</a>
</g>
</g>
<!-- Node7&#45;&gt;Node9 -->
<g id="edge8" class="edge">
<title>Node7&#45;&gt;Node9</title>
<path fill="none" stroke="midnightblue" d="M1152.11,-56.32C1135.83,-47.7 1110.63,-34.36 1091.78,-24.39"/>
<polygon fill="midnightblue" stroke="midnightblue" points="1093.32,-21.24 1082.85,-19.65 1090.05,-27.43 1093.32,-21.24"/>
</g>
<!-- Node10&#45;&gt;Node9 -->
<g id="edge10" class="edge">
<title>Node10&#45;&gt;Node9</title>
<path fill="none" stroke="midnightblue" d="M1038.11,-56.08C1042.87,-48.53 1049.82,-37.49 1055.65,-28.23"/>
<polygon fill="midnightblue" stroke="midnightblue" points="1058.62,-30.08 1060.99,-19.75 1052.7,-26.35 1058.62,-30.08"/>
</g>
<!-- Node11&#45;&gt;Node9 -->
<g id="edge13" class="edge">
<title>Node11&#45;&gt;Node9</title>
<path fill="none" stroke="midnightblue" d="M253.53,-57.12C256.56,-56.7 259.57,-56.32 262.5,-56 555.9,-23.44 912.29,-13.98 1028.14,-11.66"/>
<polygon fill="midnightblue" stroke="midnightblue" points="1028.35,-15.16 1038.28,-11.46 1028.21,-8.16 1028.35,-15.16"/>
</g>
<!-- Node12 -->
<g id="node12" class="node">
<title>Node12</title>
<g id="a_node12"><a xlink:title=" ">
<polygon fill="white" stroke="#bfbfbf" points="228,-0.5 228,-19.5 319,-19.5 319,-0.5 228,-0.5"/>
<text text-anchor="middle" x="273.5" y="-7.5" font-family="Helvetica,sans-Serif" font-size="10.00">QElapsedTimer</text>
</a>
</g>
</g>
<!-- Node11&#45;&gt;Node12 -->
<g id="edge12" class="edge">
<title>Node11&#45;&gt;Node12</title>
<path fill="none" stroke="midnightblue" d="M218.94,-56.32C228.65,-48.26 243.32,-36.08 255,-26.37"/>
<polygon fill="midnightblue" stroke="midnightblue" points="257.41,-28.92 262.87,-19.83 252.94,-23.53 257.41,-28.92"/>
</g>
<!-- Node11&#45;&gt;Node13 -->
<g id="edge14" class="edge">
<title>Node11&#45;&gt;Node13</title>
<path fill="none" stroke="midnightblue" d="M180.14,-56.44C149.76,-47.28 101.39,-32.69 67.68,-22.52"/>
<polygon fill="midnightblue" stroke="midnightblue" points="68.32,-19.05 57.73,-19.52 66.29,-25.76 68.32,-19.05"/>
</g>
<!-- Node14 -->
<g id="node14" class="node">
<title>Node14</title>
<g id="a_node14"><a xlink:title=" ">
<polygon fill="white" stroke="#bfbfbf" points="337,-0.5 337,-19.5 386,-19.5 386,-0.5 337,-0.5"/>
<text text-anchor="middle" x="361.5" y="-7.5" font-family="Helvetica,sans-Serif" font-size="10.00">QTime</text>
</a>
</g>
</g>
<!-- Node11&#45;&gt;Node14 -->
<g id="edge15" class="edge">
<title>Node11&#45;&gt;Node14</title>
<path fill="none" stroke="midnightblue" d="M232.74,-56.44C258.37,-47.4 298.99,-33.06 327.74,-22.92"/>
<polygon fill="midnightblue" stroke="midnightblue" points="329.11,-26.15 337.37,-19.52 326.78,-19.54 329.11,-26.15"/>
</g>
<!-- Node15 -->
<g id="node15" class="node">
<title>Node15</title>
<g id="a_node15"><a xlink:title=" ">
<polygon fill="white" stroke="#bfbfbf" points="404,-0.5 404,-19.5 463,-19.5 463,-0.5 404,-0.5"/>
<text text-anchor="middle" x="433.5" y="-7.5" font-family="Helvetica,sans-Serif" font-size="10.00">QVariant</text>
</a>
</g>
</g>
<!-- Node11&#45;&gt;Node15 -->
<g id="edge16" class="edge">
<title>Node11&#45;&gt;Node15</title>
<path fill="none" stroke="midnightblue" d="M244.15,-56.44C284.91,-46.66 351.43,-30.7 393.8,-20.53"/>
<polygon fill="midnightblue" stroke="midnightblue" points="394.86,-23.87 403.76,-18.14 393.22,-17.07 394.86,-23.87"/>
</g>
<!-- Node16 -->
<g id="node16" class="node">
<title>Node16</title>
<g id="a_node16"><a xlink:title=" ">
<polygon fill="white" stroke="#bfbfbf" points="77,-0.5 77,-19.5 210,-19.5 210,-0.5 77,-0.5"/>
<text text-anchor="middle" x="143.5" y="-7.5" font-family="Helvetica,sans-Serif" font-size="10.00">QtWidgets/QApplication</text>
</a>
</g>
</g>
<!-- Node11&#45;&gt;Node16 -->
<g id="edge17" class="edge">
<title>Node11&#45;&gt;Node16</title>
<path fill="none" stroke="midnightblue" d="M198.06,-56.32C188.35,-48.26 173.68,-36.08 162,-26.37"/>
<polygon fill="midnightblue" stroke="midnightblue" points="164.06,-23.53 154.13,-19.83 159.59,-28.92 164.06,-23.53"/>
</g>
<!-- Node24&#45;&gt;Node9 -->
<g id="edge27" class="edge">
<title>Node24&#45;&gt;Node9</title>
<path fill="none" stroke="midnightblue" d="M1203.23,-224.17C1220.55,-196.3 1268.71,-108.9 1228.5,-56 1213.57,-36.36 1147.71,-23.03 1104.7,-16.25"/>
<polygon fill="midnightblue" stroke="midnightblue" points="1104.98,-12.75 1094.56,-14.7 1103.92,-19.67 1104.98,-12.75"/>
</g>
<!-- Node25&#45;&gt;Node3 -->
<g id="edge29" class="edge">
<title>Node25&#45;&gt;Node3</title>
<path fill="none" stroke="midnightblue" d="M711.5,-336.08C711.5,-329.01 711.5,-318.86 711.5,-309.99"/>
<polygon fill="midnightblue" stroke="midnightblue" points="715,-309.75 711.5,-299.75 708,-309.75 715,-309.75"/>
</g>
</g>
</svg>
        <g id="navigator" transform="translate(0 0)" fill="#404254">
                <rect fill="#f2f5e9" fill-opacity="0.5" stroke="#606060" stroke-width=".5" x="0" y="0" width="60" height="60"/>
                <use id="zoomplus" xlink:href="#zoomPlus" x="17" y="9" onmousedown="handleZoom(evt,'in')"/>
                <use id="zoomminus" xlink:href="#zoomMin" x="42" y="9" onmousedown="handleZoom(evt,'out')"/>
                <use id="reset" xlink:href="#resetDef" x="30" y="36" onmousedown="handleReset()"/>
                <g id="arrowUp" xlink:href="#dirArrow" transform="translate(30 24)" onmousedown="handlePan(0,-1)">
                  <use xlink:href="#rim" fill="#404040">
                        <set attributeName="fill" to="#808080" begin="arrowUp.mouseover" end="arrowUp.mouseout"/>
                  </use>
                  <path fill="none" stroke="white" stroke-width="1.5" d="M0,-3.0v7 M-2.5,-0.5L0,-3.0L2.5,-0.5"/>
                </g>
                <g id="arrowRight" xlink:href="#dirArrow" transform="rotate(90) translate(36 -43)" onmousedown="handlePan(1,0)">
                  <use xlink:href="#rim" fill="#404040">
                        <set attributeName="fill" to="#808080" begin="arrowRight.mouseover" end="arrowRight.mouseout"/>
                  </use>
                  <path fill="none" stroke="white" stroke-width="1.5" d="M0,-3.0v7 M-2.5,-0.5L0,-3.0L2.5,-0.5"/>
                </g>
                <g id="arrowDown" xlink:href="#dirArrow" transform="rotate(180) translate(-30 -48)" onmousedown="handlePan(0,1)">
                  <use xlink:href="#rim" fill="#404040">
                        <set attributeName="fill" to="#808080" begin="arrowDown.mouseover" end="arrowDown.mouseout"/>
                  </use>
                  <path fill="none" stroke="white" stroke-width="1.5" d="M0,-3.0v7 M-2.5,-0.5L0,-3.0L2.5,-0.5"/>
                </g>
                <g id="arrowLeft" xlink:href="#dirArrow" transform="rotate(270) translate(-36 17)" onmousedown="handlePan(-1,0)">
                  <use xlink:href="#rim" fill="#404040">
                        <set attributeName="fill" to="#808080" begin="arrowLeft.mouseover" end="arrowLeft.mouseout"/>
                  </use>
                  <path fill="none" stroke="white" stroke-width="1.5" d="M0,-3.0v7 M-2.5,-0.5L0,-3.0L2.5,-0.5"/>
                </g>
        </g>
        <svg viewBox="0 0 15 15" width="100%" height="30px" preserveAspectRatio="xMaxYMin meet">
         <g id="arrow_out" transform="scale(0.3 0.3)">
          <a xlink:href="gamecontrollerdpadxml_8cpp__incl_org.svg" target="_base">
           <rect id="button" ry="5" rx="5" y="6" x="6" height="38" width="38"
                fill="#f2f5e9" fill-opacity="0.5" stroke="#606060" stroke-width="1.0"/>
           <path id="arrow"
             d="M 11.500037,31.436501 C 11.940474,20.09759 22.043105,11.32322 32.158766,21.979434 L 37.068811,17.246167 C 37.068811,17.246167 37.088388,32 37.088388,32 L 22.160133,31.978069 C 22.160133,31.978069 26.997745,27.140456 26.997745,27.140456 C 18.528582,18.264221 13.291696,25.230495 11.500037,31.436501 z"
             style="fill:#404040;"/>
          </a>
         </g>
        </svg>
</svg>
