<?xml version="1.0" encoding="UTF-8" standalone="no"?>
<!DOCTYPE svg PUBLIC "-//W3C//DTD SVG 1.1//EN"
 "http://www.w3.org/Graphics/SVG/1.1/DTD/svg11.dtd">
<!-- Generated by graphviz version 2.43.0 (0)
 -->
<!-- Title: /home/runner/work/doxygen/antimicrox/src/gamecontroller/xml/gamecontrollerdpadxml.h Pages: 1 -->
<svg width="1248pt" height="386pt"
 viewBox="0.00 0.00 1248.37 386.00" xmlns="http://www.w3.org/2000/svg" xmlns:xlink="http://www.w3.org/1999/xlink">
<g id="graph0" class="graph" transform="scale(1 1) rotate(0) translate(4 382)">
<title>/home/runner/work/doxygen/antimicrox/src/gamecontroller/xml/gamecontrollerdpadxml.h</title>
<polygon fill="white" stroke="transparent" points="-4,4 -4,-382 1244.37,-382 1244.37,4 -4,4"/>
<!-- Node1 -->
<g id="node1" class="node">
<title>Node1</title>
<g id="a_node1"><a xlink:title=" ">
<polygon fill="#bfbfbf" stroke="black" points="658,-336.5 658,-377.5 825,-377.5 825,-336.5 658,-336.5"/>
<text text-anchor="start" x="666" y="-365.5" font-family="Helvetica,sans-Serif" font-size="10.00">/home/runner/work/doxygen</text>
<text text-anchor="start" x="666" y="-354.5" font-family="Helvetica,sans-Serif" font-size="10.00">/antimicrox/src/gamecontroller</text>
<text text-anchor="middle" x="741.5" y="-343.5" font-family="Helvetica,sans-Serif" font-size="10.00">/xml/gamecontrollerdpadxml.h</text>
</a>
</g>
</g>
<!-- Node2 -->
<g id="node2" class="node">
<title>Node2</title>
<g id="a_node2"><a xlink:href="vdpad_8h.html" target="_top" xlink:title=" ">
<polygon fill="white" stroke="black" points="685.5,-280.5 685.5,-299.5 741.5,-299.5 741.5,-280.5 685.5,-280.5"/>
<text text-anchor="middle" x="713.5" y="-287.5" font-family="Helvetica,sans-Serif" font-size="10.00">vdpad.h</text>
</a>
</g>
</g>
<!-- Node1&#45;&gt;Node2 -->
<g id="edge1" class="edge">
<title>Node1&#45;&gt;Node2</title>
<path fill="none" stroke="midnightblue" d="M733.1,-336.5C729.34,-327.78 724.94,-317.56 721.26,-309.02"/>
<polygon fill="midnightblue" stroke="midnightblue" points="724.4,-307.45 717.23,-299.65 717.97,-310.22 724.4,-307.45"/>
</g>
<!-- Node23 -->
<g id="node23" class="node">
<title>Node23</title>
<g id="a_node23"><a xlink:href="joydpadxml_8h.html" target="_top" xlink:title=" ">
<polygon fill="white" stroke="black" points="1005,-224.5 1005,-243.5 1110,-243.5 1110,-224.5 1005,-224.5"/>
<text text-anchor="middle" x="1057.5" y="-231.5" font-family="Helvetica,sans-Serif" font-size="10.00">xml/joydpadxml.h</text>
</a>
</g>
</g>
<!-- Node1&#45;&gt;Node23 -->
<g id="edge25" class="edge">
<title>Node1&#45;&gt;Node23</title>
<path fill="none" stroke="midnightblue" d="M792.62,-336.42C858.4,-311.24 970.7,-268.24 1025.51,-247.25"/>
<polygon fill="midnightblue" stroke="midnightblue" points="1026.96,-250.44 1035.05,-243.6 1024.46,-243.9 1026.96,-250.44"/>
</g>
<!-- Node3 -->
<g id="node3" class="node">
<title>Node3</title>
<g id="a_node3"><a xlink:href="joydpad_8h.html" target="_top" xlink:title=" ">
<polygon fill="white" stroke="black" points="681,-224.5 681,-243.5 746,-243.5 746,-224.5 681,-224.5"/>
<text text-anchor="middle" x="713.5" y="-231.5" font-family="Helvetica,sans-Serif" font-size="10.00">joydpad.h</text>
</a>
</g>
</g>
<!-- Node2&#45;&gt;Node3 -->
<g id="edge2" class="edge">
<title>Node2&#45;&gt;Node3</title>
<path fill="none" stroke="midnightblue" d="M713.5,-280.08C713.5,-273.01 713.5,-262.86 713.5,-253.99"/>
<polygon fill="midnightblue" stroke="midnightblue" points="717,-253.75 713.5,-243.75 710,-253.75 717,-253.75"/>
</g>
<!-- Node12 -->
<g id="node12" class="node">
<title>Node12</title>
<g id="a_node12"><a xlink:title=" ">
<polygon fill="white" stroke="#bfbfbf" points="0,-0.5 0,-19.5 59,-19.5 59,-0.5 0,-0.5"/>
<text text-anchor="middle" x="29.5" y="-7.5" font-family="Helvetica,sans-Serif" font-size="10.00">QPointer</text>
</a>
</g>
</g>
<!-- Node2&#45;&gt;Node12 -->
<g id="edge24" class="edge">
<title>Node2&#45;&gt;Node12</title>
<path fill="none" stroke="midnightblue" d="M685.46,-286.86C567.23,-277.46 115.5,-237.72 115.5,-179 115.5,-179 115.5,-179 115.5,-121 115.5,-79.58 77.19,-44.45 51.71,-25.67"/>
<polygon fill="midnightblue" stroke="midnightblue" points="53.5,-22.64 43.32,-19.72 49.45,-28.36 53.5,-22.64"/>
</g>
<!-- Node4 -->
<g id="node4" class="node">
<title>Node4</title>
<g id="a_node4"><a xlink:href="joydpadbutton_8h.html" target="_top" xlink:title=" ">
<polygon fill="white" stroke="black" points="627,-168.5 627,-187.5 800,-187.5 800,-168.5 627,-168.5"/>
<text text-anchor="middle" x="713.5" y="-175.5" font-family="Helvetica,sans-Serif" font-size="10.00">joybuttontypes/joydpadbutton.h</text>
</a>
</g>
</g>
<!-- Node3&#45;&gt;Node4 -->
<g id="edge3" class="edge">
<title>Node3&#45;&gt;Node4</title>
<path fill="none" stroke="midnightblue" d="M713.5,-224.08C713.5,-217.01 713.5,-206.86 713.5,-197.99"/>
<polygon fill="midnightblue" stroke="midnightblue" points="717,-197.75 713.5,-187.75 710,-197.75 717,-197.75"/>
</g>
<!-- Node5 -->
<g id="node5" class="node">
<title>Node5</title>
<g id="a_node5"><a xlink:href="joybutton_8h.html" target="_top" xlink:title=" ">
<polygon fill="white" stroke="black" points="677.5,-112.5 677.5,-131.5 749.5,-131.5 749.5,-112.5 677.5,-112.5"/>
<text text-anchor="middle" x="713.5" y="-119.5" font-family="Helvetica,sans-Serif" font-size="10.00">joybutton.h</text>
</a>
</g>
</g>
<!-- Node4&#45;&gt;Node5 -->
<g id="edge4" class="edge">
<title>Node4&#45;&gt;Node5</title>
<path fill="none" stroke="midnightblue" d="M713.5,-168.08C713.5,-161.01 713.5,-150.86 713.5,-141.99"/>
<polygon fill="midnightblue" stroke="midnightblue" points="717,-141.75 713.5,-131.75 710,-141.75 717,-141.75"/>
</g>
<!-- Node6 -->
<g id="node6" class="node">
<title>Node6</title>
<g id="a_node6"><a xlink:href="globalvariables_8h.html" target="_top" xlink:title=" ">
<polygon fill="white" stroke="black" points="1118,-56.5 1118,-75.5 1219,-75.5 1219,-56.5 1118,-56.5"/>
<text text-anchor="middle" x="1168.5" y="-63.5" font-family="Helvetica,sans-Serif" font-size="10.00">globalvariables.h</text>
</a>
</g>
</g>
<!-- Node5&#45;&gt;Node6 -->
<g id="edge5" class="edge">
<title>Node5&#45;&gt;Node6</title>
<path fill="none" stroke="midnightblue" d="M749.59,-117.37C817.64,-110.41 969.77,-94.39 1108.06,-76.15"/>
<polygon fill="midnightblue" stroke="midnightblue" points="1108.53,-79.62 1117.99,-74.84 1107.61,-72.68 1108.53,-79.62"/>
</g>
<!-- Node9 -->
<g id="node9" class="node">
<title>Node9</title>
<g id="a_node9"><a xlink:href="joybuttonmousehelper_8h.html" target="_top" xlink:title=" ">
<polygon fill="white" stroke="black" points="965,-56.5 965,-75.5 1100,-75.5 1100,-56.5 965,-56.5"/>
<text text-anchor="middle" x="1032.5" y="-63.5" font-family="Helvetica,sans-Serif" font-size="10.00">joybuttonmousehelper.h</text>
</a>
</g>
</g>
<!-- Node5&#45;&gt;Node9 -->
<g id="edge8" class="edge">
<title>Node5&#45;&gt;Node9</title>
<path fill="none" stroke="midnightblue" d="M749.78,-114.86C803.88,-105.7 906.33,-88.36 971.91,-77.26"/>
<polygon fill="midnightblue" stroke="midnightblue" points="972.84,-80.65 982.11,-75.53 971.67,-73.75 972.84,-80.65"/>
</g>
<!-- Node10 -->
<g id="node10" class="node">
<title>Node10</title>
<g id="a_node10"><a xlink:href="joybuttonslot_8h.html" target="_top" xlink:title=" ">
<polygon fill="white" stroke="black" points="163.5,-56.5 163.5,-75.5 253.5,-75.5 253.5,-56.5 163.5,-56.5"/>
<text text-anchor="middle" x="208.5" y="-63.5" font-family="Helvetica,sans-Serif" font-size="10.00">joybuttonslot.h</text>
</a>
</g>
</g>
<!-- Node5&#45;&gt;Node10 -->
<g id="edge10" class="edge">
<title>Node5&#45;&gt;Node10</title>
<path fill="none" stroke="midnightblue" d="M677.45,-118.21C602.44,-112.24 423.88,-97.11 263.59,-76.07"/>
<polygon fill="midnightblue" stroke="midnightblue" points="263.92,-72.58 253.55,-74.74 263,-79.52 263.92,-72.58"/>
</g>
<!-- Node16 -->
<g id="node16" class="node">
<title>Node16</title>
<g id="a_node16"><a xlink:href="springmousemoveinfo_8h.html" target="_top" xlink:title=" ">
<polygon fill="white" stroke="black" points="272,-56.5 272,-75.5 407,-75.5 407,-56.5 272,-56.5"/>
<text text-anchor="middle" x="339.5" y="-63.5" font-family="Helvetica,sans-Serif" font-size="10.00">springmousemoveinfo.h</text>
</a>
</g>
</g>
<!-- Node5&#45;&gt;Node16 -->
<g id="edge17" class="edge">
<title>Node5&#45;&gt;Node16</title>
<path fill="none" stroke="midnightblue" d="M677.3,-115.77C615.33,-106.83 487.94,-88.43 408.53,-76.97"/>
<polygon fill="midnightblue" stroke="midnightblue" points="409.01,-73.5 398.61,-75.53 408.01,-80.43 409.01,-73.5"/>
</g>
<!-- Node17 -->
<g id="node17" class="node">
<title>Node17</title>
<g id="a_node17"><a xlink:title=" ">
<polygon fill="white" stroke="#bfbfbf" points="425.5,-56.5 425.5,-75.5 521.5,-75.5 521.5,-56.5 425.5,-56.5"/>
<text text-anchor="middle" x="473.5" y="-63.5" font-family="Helvetica,sans-Serif" font-size="10.00">QDeadlineTimer</text>
</a>
</g>
</g>
<!-- Node5&#45;&gt;Node17 -->
<g id="edge18" class="edge">
<title>Node5&#45;&gt;Node17</title>
<path fill="none" stroke="midnightblue" d="M677.31,-112.86C635.8,-103.52 567.55,-88.16 521.6,-77.82"/>
<polygon fill="midnightblue" stroke="midnightblue" points="522.1,-74.35 511.57,-75.57 520.56,-81.18 522.1,-74.35"/>
</g>
<!-- Node18 -->
<g id="node18" class="node">
<title>Node18</title>
<g id="a_node18"><a xlink:title=" ">
<polygon fill="white" stroke="#bfbfbf" points="539.5,-56.5 539.5,-75.5 595.5,-75.5 595.5,-56.5 539.5,-56.5"/>
<text text-anchor="middle" x="567.5" y="-63.5" font-family="Helvetica,sans-Serif" font-size="10.00">QQueue</text>
</a>
</g>
</g>
<!-- Node5&#45;&gt;Node18 -->
<g id="edge19" class="edge">
<title>Node5&#45;&gt;Node18</title>
<path fill="none" stroke="midnightblue" d="M690.37,-112.44C666.02,-103.44 627.49,-89.19 600.08,-79.05"/>
<polygon fill="midnightblue" stroke="midnightblue" points="601.12,-75.7 590.53,-75.52 598.69,-82.27 601.12,-75.7"/>
</g>
<!-- Node19 -->
<g id="node19" class="node">
<title>Node19</title>
<g id="a_node19"><a xlink:title=" ">
<polygon fill="white" stroke="#bfbfbf" points="613.5,-56.5 613.5,-75.5 711.5,-75.5 711.5,-56.5 613.5,-56.5"/>
<text text-anchor="middle" x="662.5" y="-63.5" font-family="Helvetica,sans-Serif" font-size="10.00">QReadWriteLock</text>
</a>
</g>
</g>
<!-- Node5&#45;&gt;Node19 -->
<g id="edge20" class="edge">
<title>Node5&#45;&gt;Node19</title>
<path fill="none" stroke="midnightblue" d="M705.08,-112.08C697.65,-104.22 686.65,-92.57 677.69,-83.08"/>
<polygon fill="midnightblue" stroke="midnightblue" points="680.18,-80.62 670.76,-75.75 675.09,-85.42 680.18,-80.62"/>
</g>
<!-- Node20 -->
<g id="node20" class="node">
<title>Node20</title>
<g id="a_node20"><a xlink:title=" ">
<polygon fill="white" stroke="#bfbfbf" points="729.5,-56.5 729.5,-75.5 799.5,-75.5 799.5,-56.5 729.5,-56.5"/>
<text text-anchor="middle" x="764.5" y="-63.5" font-family="Helvetica,sans-Serif" font-size="10.00">QRunnable</text>
</a>
</g>
</g>
<!-- Node5&#45;&gt;Node20 -->
<g id="edge21" class="edge">
<title>Node5&#45;&gt;Node20</title>
<path fill="none" stroke="midnightblue" d="M721.92,-112.08C729.35,-104.22 740.35,-92.57 749.31,-83.08"/>
<polygon fill="midnightblue" stroke="midnightblue" points="751.91,-85.42 756.24,-75.75 746.82,-80.62 751.91,-85.42"/>
</g>
<!-- Node21 -->
<g id="node21" class="node">
<title>Node21</title>
<g id="a_node21"><a xlink:title=" ">
<polygon fill="white" stroke="#bfbfbf" points="817.5,-56.5 817.5,-75.5 875.5,-75.5 875.5,-56.5 817.5,-56.5"/>
<text text-anchor="middle" x="846.5" y="-63.5" font-family="Helvetica,sans-Serif" font-size="10.00">QThread</text>
</a>
</g>
</g>
<!-- Node5&#45;&gt;Node21 -->
<g id="edge22" class="edge">
<title>Node5&#45;&gt;Node21</title>
<path fill="none" stroke="midnightblue" d="M734.57,-112.44C756.56,-103.52 791.23,-89.44 816.16,-79.32"/>
<polygon fill="midnightblue" stroke="midnightblue" points="817.58,-82.52 825.52,-75.52 814.94,-76.04 817.58,-82.52"/>
</g>
<!-- Node22 -->
<g id="node22" class="node">
<title>Node22</title>
<g id="a_node22"><a xlink:title=" ">
<polygon fill="white" stroke="#bfbfbf" points="894,-56.5 894,-75.5 947,-75.5 947,-56.5 894,-56.5"/>
<text text-anchor="middle" x="920.5" y="-63.5" font-family="Helvetica,sans-Serif" font-size="10.00">QTimer</text>
</a>
</g>
</g>
<!-- Node5&#45;&gt;Node22 -->
<g id="edge23" class="edge">
<title>Node5&#45;&gt;Node22</title>
<path fill="none" stroke="midnightblue" d="M746.3,-112.44C783.76,-102.67 844.9,-86.72 883.89,-76.55"/>
<polygon fill="midnightblue" stroke="midnightblue" points="884.99,-79.88 893.78,-73.97 883.22,-73.11 884.99,-79.88"/>
</g>
<!-- Node7 -->
<g id="node7" class="node">
<title>Node7</title>
<g id="a_node7"><a xlink:title=" ">
<polygon fill="white" stroke="#bfbfbf" points="1148,-0.5 1148,-19.5 1189,-19.5 1189,-0.5 1148,-0.5"/>
<text text-anchor="middle" x="1168.5" y="-7.5" font-family="Helvetica,sans-Serif" font-size="10.00">QList</text>
</a>
</g>
</g>
<!-- Node6&#45;&gt;Node7 -->
<g id="edge6" class="edge">
<title>Node6&#45;&gt;Node7</title>
<path fill="none" stroke="midnightblue" d="M1168.5,-56.08C1168.5,-49.01 1168.5,-38.86 1168.5,-29.99"/>
<polygon fill="midnightblue" stroke="midnightblue" points="1172,-29.75 1168.5,-19.75 1165,-29.75 1172,-29.75"/>
</g>
<!-- Node8 -->
<g id="node8" class="node">
<title>Node8</title>
<g id="a_node8"><a xlink:title=" ">
<polygon fill="white" stroke="#bfbfbf" points="1038.5,-0.5 1038.5,-19.5 1094.5,-19.5 1094.5,-0.5 1038.5,-0.5"/>
<text text-anchor="middle" x="1066.5" y="-7.5" font-family="Helvetica,sans-Serif" font-size="10.00">QObject</text>
</a>
</g>
</g>
<!-- Node6&#45;&gt;Node8 -->
<g id="edge7" class="edge">
<title>Node6&#45;&gt;Node8</title>
<path fill="none" stroke="midnightblue" d="M1152.11,-56.32C1135.83,-47.7 1110.63,-34.36 1091.78,-24.39"/>
<polygon fill="midnightblue" stroke="midnightblue" points="1093.32,-21.24 1082.85,-19.65 1090.05,-27.43 1093.32,-21.24"/>
</g>
<!-- Node9&#45;&gt;Node8 -->
<g id="edge9" class="edge">
<title>Node9&#45;&gt;Node8</title>
<path fill="none" stroke="midnightblue" d="M1038.11,-56.08C1042.87,-48.53 1049.82,-37.49 1055.65,-28.23"/>
<polygon fill="midnightblue" stroke="midnightblue" points="1058.62,-30.08 1060.99,-19.75 1052.7,-26.35 1058.62,-30.08"/>
</g>
<!-- Node10&#45;&gt;Node8 -->
<g id="edge12" class="edge">
<title>Node10&#45;&gt;Node8</title>
<path fill="none" stroke="midnightblue" d="M253.53,-57.12C256.56,-56.7 259.57,-56.32 262.5,-56 555.9,-23.44 912.29,-13.98 1028.14,-11.66"/>
<polygon fill="midnightblue" stroke="midnightblue" points="1028.35,-15.16 1038.28,-11.46 1028.21,-8.16 1028.35,-15.16"/>
</g>
<!-- Node11 -->
<g id="node11" class="node">
<title>Node11</title>
<g id="a_node11"><a xlink:title=" ">
<polygon fill="white" stroke="#bfbfbf" points="228,-0.5 228,-19.5 319,-19.5 319,-0.5 228,-0.5"/>
<text text-anchor="middle" x="273.5" y="-7.5" font-family="Helvetica,sans-Serif" font-size="10.00">QElapsedTimer</text>
</a>
</g>
</g>
<!-- Node10&#45;&gt;Node11 -->
<g id="edge11" class="edge">
<title>Node10&#45;&gt;Node11</title>
<path fill="none" stroke="midnightblue" d="M218.94,-56.32C228.65,-48.26 243.32,-36.08 255,-26.37"/>
<polygon fill="midnightblue" stroke="midnightblue" points="257.41,-28.92 262.87,-19.83 252.94,-23.53 257.41,-28.92"/>
</g>
<!-- Node10&#45;&gt;Node12 -->
<g id="edge13" class="edge">
<title>Node10&#45;&gt;Node12</title>
<path fill="none" stroke="midnightblue" d="M180.14,-56.44C149.76,-47.28 101.39,-32.69 67.68,-22.52"/>
<polygon fill="midnightblue" stroke="midnightblue" points="68.32,-19.05 57.73,-19.52 66.29,-25.76 68.32,-19.05"/>
</g>
<!-- Node13 -->
<g id="node13" class="node">
<title>Node13</title>
<g id="a_node13"><a xlink:title=" ">
<polygon fill="white" stroke="#bfbfbf" points="337,-0.5 337,-19.5 386,-19.5 386,-0.5 337,-0.5"/>
<text text-anchor="middle" x="361.5" y="-7.5" font-family="Helvetica,sans-Serif" font-size="10.00">QTime</text>
</a>
</g>
</g>
<!-- Node10&#45;&gt;Node13 -->
<g id="edge14" class="edge">
<title>Node10&#45;&gt;Node13</title>
<path fill="none" stroke="midnightblue" d="M232.74,-56.44C258.37,-47.4 298.99,-33.06 327.74,-22.92"/>
<polygon fill="midnightblue" stroke="midnightblue" points="329.11,-26.15 337.37,-19.52 326.78,-19.54 329.11,-26.15"/>
</g>
<!-- Node14 -->
<g id="node14" class="node">
<title>Node14</title>
<g id="a_node14"><a xlink:title=" ">
<polygon fill="white" stroke="#bfbfbf" points="404,-0.5 404,-19.5 463,-19.5 463,-0.5 404,-0.5"/>
<text text-anchor="middle" x="433.5" y="-7.5" font-family="Helvetica,sans-Serif" font-size="10.00">QVariant</text>
</a>
</g>
</g>
<!-- Node10&#45;&gt;Node14 -->
<g id="edge15" class="edge">
<title>Node10&#45;&gt;Node14</title>
<path fill="none" stroke="midnightblue" d="M244.15,-56.44C284.91,-46.66 351.43,-30.7 393.8,-20.53"/>
<polygon fill="midnightblue" stroke="midnightblue" points="394.86,-23.87 403.76,-18.14 393.22,-17.07 394.86,-23.87"/>
</g>
<!-- Node15 -->
<g id="node15" class="node">
<title>Node15</title>
<g id="a_node15"><a xlink:title=" ">
<polygon fill="white" stroke="#bfbfbf" points="77,-0.5 77,-19.5 210,-19.5 210,-0.5 77,-0.5"/>
<text text-anchor="middle" x="143.5" y="-7.5" font-family="Helvetica,sans-Serif" font-size="10.00">QtWidgets/QApplication</text>
</a>
</g>
</g>
<!-- Node10&#45;&gt;Node15 -->
<g id="edge16" class="edge">
<title>Node10&#45;&gt;Node15</title>
<path fill="none" stroke="midnightblue" d="M198.06,-56.32C188.35,-48.26 173.68,-36.08 162,-26.37"/>
<polygon fill="midnightblue" stroke="midnightblue" points="164.06,-23.53 154.13,-19.83 159.59,-28.92 164.06,-23.53"/>
</g>
<!-- Node23&#45;&gt;Node8 -->
<g id="edge26" class="edge">
<title>Node23&#45;&gt;Node8</title>
<path fill="none" stroke="midnightblue" d="M1078.14,-224.48C1134.37,-200.08 1282.54,-127.09 1228.5,-56 1213.57,-36.36 1147.71,-23.03 1104.7,-16.25"/>
<polygon fill="midnightblue" stroke="midnightblue" points="1104.98,-12.75 1094.56,-14.7 1103.92,-19.67 1104.98,-12.75"/>
</g>
</g>
</svg>
