<?xml version="1.0" encoding="UTF-8" standalone="no"?>
<!DOCTYPE svg PUBLIC "-//W3C//DTD SVG 1.1//EN"
 "http://www.w3.org/Graphics/SVG/1.1/DTD/svg11.dtd">
<!-- Generated by graphviz version 2.43.0 (0)
 -->
<!-- Title: /home/runner/work/doxygen/antimicrox/src/uihelpers/gamecontrollermappingdialoghelper.cpp Pages: 1 -->
<svg width="1720pt" height="498pt"
 viewBox="0.00 0.00 1719.52 498.00" xmlns="http://www.w3.org/2000/svg" xmlns:xlink="http://www.w3.org/1999/xlink">
<g id="graph0" class="graph" transform="scale(1 1) rotate(0) translate(4 494)">
<title>/home/runner/work/doxygen/antimicrox/src/uihelpers/gamecontrollermappingdialoghelper.cpp</title>
<polygon fill="white" stroke="transparent" points="-4,4 -4,-494 1715.52,-494 1715.52,4 -4,4"/>
<!-- Node1 -->
<g id="node1" class="node">
<title>Node1</title>
<g id="a_node1"><a xlink:title=" ">
<polygon fill="#bfbfbf" stroke="black" points="79.52,-448.5 79.52,-489.5 296.52,-489.5 296.52,-448.5 79.52,-448.5"/>
<text text-anchor="start" x="87.52" y="-477.5" font-family="Helvetica,sans-Serif" font-size="10.00">/home/runner/work/doxygen</text>
<text text-anchor="start" x="87.52" y="-466.5" font-family="Helvetica,sans-Serif" font-size="10.00">/antimicrox/src/uihelpers</text>
<text text-anchor="middle" x="188.02" y="-455.5" font-family="Helvetica,sans-Serif" font-size="10.00">/gamecontrollermappingdialoghelper.cpp</text>
</a>
</g>
</g>
<!-- Node2 -->
<g id="node2" class="node">
<title>Node2</title>
<g id="a_node2"><a xlink:href="gamecontrollermappingdialoghelper_8h.html" target="_top" xlink:title=" ">
<polygon fill="white" stroke="black" points="15.52,-56.5 15.52,-75.5 218.52,-75.5 218.52,-56.5 15.52,-56.5"/>
<text text-anchor="middle" x="117.02" y="-63.5" font-family="Helvetica,sans-Serif" font-size="10.00">gamecontrollermappingdialoghelper.h</text>
</a>
</g>
</g>
<!-- Node1&#45;&gt;Node2 -->
<g id="edge1" class="edge">
<title>Node1&#45;&gt;Node2</title>
<path fill="none" stroke="midnightblue" d="M164.09,-448.38C153.14,-438.41 140.69,-425.55 132.02,-412 115.41,-386.07 108.02,-377.8 108.02,-347 108.02,-347 108.02,-347 108.02,-177 108.02,-144.84 111.89,-107.57 114.55,-85.71"/>
<polygon fill="midnightblue" stroke="midnightblue" points="118.06,-85.9 115.84,-75.54 111.11,-85.02 118.06,-85.9"/>
</g>
<!-- Node5 -->
<g id="node5" class="node">
<title>Node5</title>
<g id="a_node5"><a xlink:href="globalvariables_8h.html" target="_top" xlink:title=" ">
<polygon fill="white" stroke="black" points="236.52,-56.5 236.52,-75.5 337.52,-75.5 337.52,-56.5 236.52,-56.5"/>
<text text-anchor="middle" x="287.02" y="-63.5" font-family="Helvetica,sans-Serif" font-size="10.00">globalvariables.h</text>
</a>
</g>
</g>
<!-- Node1&#45;&gt;Node5 -->
<g id="edge4" class="edge">
<title>Node1&#45;&gt;Node5</title>
<path fill="none" stroke="midnightblue" d="M176.54,-448.18C164.11,-424.79 146.02,-384.36 146.02,-347 146.02,-347 146.02,-347 146.02,-177 146.02,-125.26 205.76,-94.27 247.47,-78.94"/>
<polygon fill="midnightblue" stroke="midnightblue" points="248.84,-82.17 257.12,-75.55 246.52,-75.56 248.84,-82.17"/>
</g>
<!-- Node6 -->
<g id="node6" class="node">
<title>Node6</title>
<g id="a_node6"><a xlink:href="inputdevice_8h.html" target="_top" xlink:title=" ">
<polygon fill="white" stroke="black" points="188.52,-392.5 188.52,-411.5 271.52,-411.5 271.52,-392.5 188.52,-392.5"/>
<text text-anchor="middle" x="230.02" y="-399.5" font-family="Helvetica,sans-Serif" font-size="10.00">inputdevice.h</text>
</a>
</g>
</g>
<!-- Node1&#45;&gt;Node6 -->
<g id="edge7" class="edge">
<title>Node1&#45;&gt;Node6</title>
<path fill="none" stroke="midnightblue" d="M200.62,-448.5C206.44,-439.49 213.29,-428.89 218.91,-420.19"/>
<polygon fill="midnightblue" stroke="midnightblue" points="221.94,-421.95 224.43,-411.65 216.06,-418.15 221.94,-421.95"/>
</g>
<!-- Node40 -->
<g id="node40" class="node">
<title>Node40</title>
<g id="a_node40"><a xlink:title=" ">
<polygon fill="white" stroke="#bfbfbf" points="290.02,-392.5 290.02,-411.5 346.02,-411.5 346.02,-392.5 290.02,-392.5"/>
<text text-anchor="middle" x="318.02" y="-399.5" font-family="Helvetica,sans-Serif" font-size="10.00">QDebug</text>
</a>
</g>
</g>
<!-- Node1&#45;&gt;Node40 -->
<g id="edge52" class="edge">
<title>Node1&#45;&gt;Node40</title>
<path fill="none" stroke="midnightblue" d="M227.02,-448.5C247.91,-438.05 273.09,-425.46 291.66,-416.18"/>
<polygon fill="midnightblue" stroke="midnightblue" points="293.34,-419.26 300.71,-411.65 290.2,-412.99 293.34,-419.26"/>
</g>
<!-- Node3 -->
<g id="node3" class="node">
<title>Node3</title>
<g id="a_node3"><a xlink:title=" ">
<polygon fill="white" stroke="#bfbfbf" points="96.52,-0.5 96.52,-19.5 137.52,-19.5 137.52,-0.5 96.52,-0.5"/>
<text text-anchor="middle" x="117.02" y="-7.5" font-family="Helvetica,sans-Serif" font-size="10.00">QList</text>
</a>
</g>
</g>
<!-- Node2&#45;&gt;Node3 -->
<g id="edge2" class="edge">
<title>Node2&#45;&gt;Node3</title>
<path fill="none" stroke="midnightblue" d="M117.02,-56.08C117.02,-49.01 117.02,-38.86 117.02,-29.99"/>
<polygon fill="midnightblue" stroke="midnightblue" points="120.52,-29.75 117.02,-19.75 113.52,-29.75 120.52,-29.75"/>
</g>
<!-- Node4 -->
<g id="node4" class="node">
<title>Node4</title>
<g id="a_node4"><a xlink:title=" ">
<polygon fill="white" stroke="#bfbfbf" points="1051.02,-0.5 1051.02,-19.5 1107.02,-19.5 1107.02,-0.5 1051.02,-0.5"/>
<text text-anchor="middle" x="1079.02" y="-7.5" font-family="Helvetica,sans-Serif" font-size="10.00">QObject</text>
</a>
</g>
</g>
<!-- Node2&#45;&gt;Node4 -->
<g id="edge3" class="edge">
<title>Node2&#45;&gt;Node4</title>
<path fill="none" stroke="midnightblue" d="M218.63,-56.65C221.8,-56.42 224.93,-56.21 228.02,-56 541.47,-35.01 920.42,-17.88 1040.56,-12.65"/>
<polygon fill="midnightblue" stroke="midnightblue" points="1040.88,-16.14 1050.72,-12.21 1040.58,-9.14 1040.88,-16.14"/>
</g>
<!-- Node5&#45;&gt;Node3 -->
<g id="edge5" class="edge">
<title>Node5&#45;&gt;Node3</title>
<path fill="none" stroke="midnightblue" d="M260.08,-56.44C229.42,-46.7 179.43,-30.83 147.4,-20.65"/>
<polygon fill="midnightblue" stroke="midnightblue" points="148.27,-17.25 137.68,-17.56 146.15,-23.93 148.27,-17.25"/>
</g>
<!-- Node5&#45;&gt;Node4 -->
<g id="edge6" class="edge">
<title>Node5&#45;&gt;Node4</title>
<path fill="none" stroke="midnightblue" d="M337.72,-57.6C342.55,-57.01 347.37,-56.46 352.02,-56 614.75,-29.72 932.52,-16.37 1040.78,-12.34"/>
<polygon fill="midnightblue" stroke="midnightblue" points="1041.02,-15.84 1050.89,-11.97 1040.77,-8.84 1041.02,-15.84"/>
</g>
<!-- Node7 -->
<g id="node7" class="node">
<title>Node7</title>
<g id="a_node7"><a xlink:href="inputdevicecalibration_8h.html" target="_top" xlink:title=" ">
<polygon fill="white" stroke="black" points="493.02,-336.5 493.02,-355.5 627.02,-355.5 627.02,-336.5 493.02,-336.5"/>
<text text-anchor="middle" x="560.02" y="-343.5" font-family="Helvetica,sans-Serif" font-size="10.00">inputdevicecalibration.h</text>
</a>
</g>
</g>
<!-- Node6&#45;&gt;Node7 -->
<g id="edge8" class="edge">
<title>Node6&#45;&gt;Node7</title>
<path fill="none" stroke="midnightblue" d="M271.76,-393.58C274.89,-393.04 278,-392.51 281.02,-392 354.61,-379.57 439.25,-366.03 495.83,-357.08"/>
<polygon fill="midnightblue" stroke="midnightblue" points="496.38,-360.53 505.71,-355.52 495.29,-353.62 496.38,-360.53"/>
</g>
<!-- Node9 -->
<g id="node9" class="node">
<title>Node9</title>
<g id="a_node9"><a xlink:href="joysensordirection_8h.html" target="_top" xlink:title=" ">
<polygon fill="white" stroke="black" points="288.02,-280.5 288.02,-299.5 404.02,-299.5 404.02,-280.5 288.02,-280.5"/>
<text text-anchor="middle" x="346.02" y="-287.5" font-family="Helvetica,sans-Serif" font-size="10.00">joysensordirection.h</text>
</a>
</g>
</g>
<!-- Node6&#45;&gt;Node9 -->
<g id="edge10" class="edge">
<title>Node6&#45;&gt;Node9</title>
<path fill="none" stroke="midnightblue" d="M230.33,-392.36C231.27,-378.8 234.91,-352.4 249.02,-336 262.52,-320.3 282.68,-309.74 301.12,-302.82"/>
<polygon fill="midnightblue" stroke="midnightblue" points="302.28,-306.12 310.57,-299.52 299.97,-299.51 302.28,-306.12"/>
</g>
<!-- Node11 -->
<g id="node11" class="node">
<title>Node11</title>
<g id="a_node11"><a xlink:href="joysensortype_8h.html" target="_top" xlink:title=" ">
<polygon fill="white" stroke="black" points="174.52,-280.5 174.52,-299.5 269.52,-299.5 269.52,-280.5 174.52,-280.5"/>
<text text-anchor="middle" x="222.02" y="-287.5" font-family="Helvetica,sans-Serif" font-size="10.00">joysensortype.h</text>
</a>
</g>
</g>
<!-- Node6&#45;&gt;Node11 -->
<g id="edge12" class="edge">
<title>Node6&#45;&gt;Node11</title>
<path fill="none" stroke="midnightblue" d="M226.42,-392.22C222.96,-383.28 217.99,-368.94 216.02,-356 213.67,-340.58 215.59,-322.94 217.86,-309.94"/>
<polygon fill="midnightblue" stroke="midnightblue" points="221.34,-310.36 219.84,-299.87 214.47,-309 221.34,-310.36"/>
</g>
<!-- Node13 -->
<g id="node13" class="node">
<title>Node13</title>
<g id="a_node13"><a xlink:href="setjoystick_8h.html" target="_top" xlink:title=" ">
<polygon fill="white" stroke="black" points="392.52,-336.5 392.52,-355.5 471.52,-355.5 471.52,-336.5 392.52,-336.5"/>
<text text-anchor="middle" x="432.02" y="-343.5" font-family="Helvetica,sans-Serif" font-size="10.00">setjoystick.h</text>
</a>
</g>
</g>
<!-- Node6&#45;&gt;Node13 -->
<g id="edge15" class="edge">
<title>Node6&#45;&gt;Node13</title>
<path fill="none" stroke="midnightblue" d="M262.03,-392.44C296.75,-383.16 352.31,-368.31 390.4,-358.13"/>
<polygon fill="midnightblue" stroke="midnightblue" points="391.4,-361.48 400.16,-355.52 389.6,-354.72 391.4,-361.48"/>
</g>
<!-- Node39 -->
<g id="node39" class="node">
<title>Node39</title>
<g id="a_node39"><a xlink:title=" ">
<polygon fill="white" stroke="#bfbfbf" points="258.02,-336.5 258.02,-355.5 374.02,-355.5 374.02,-336.5 258.02,-336.5"/>
<text text-anchor="middle" x="316.02" y="-343.5" font-family="Helvetica,sans-Serif" font-size="10.00">SDL2/SDL_joystick.h</text>
</a>
</g>
</g>
<!-- Node6&#45;&gt;Node39 -->
<g id="edge51" class="edge">
<title>Node6&#45;&gt;Node39</title>
<path fill="none" stroke="midnightblue" d="M243.84,-392.32C257.25,-383.9 277.84,-370.97 293.6,-361.07"/>
<polygon fill="midnightblue" stroke="midnightblue" points="295.63,-363.94 302.24,-355.65 291.91,-358.01 295.63,-363.94"/>
</g>
<!-- Node8 -->
<g id="node8" class="node">
<title>Node8</title>
<g id="a_node8"><a xlink:title=" ">
<polygon fill="white" stroke="#bfbfbf" points="563.52,-280.5 563.52,-299.5 612.52,-299.5 612.52,-280.5 563.52,-280.5"/>
<text text-anchor="middle" x="588.02" y="-287.5" font-family="Helvetica,sans-Serif" font-size="10.00">QHash</text>
</a>
</g>
</g>
<!-- Node7&#45;&gt;Node8 -->
<g id="edge9" class="edge">
<title>Node7&#45;&gt;Node8</title>
<path fill="none" stroke="midnightblue" d="M564.64,-336.08C568.48,-328.69 574.04,-317.95 578.78,-308.81"/>
<polygon fill="midnightblue" stroke="midnightblue" points="581.99,-310.24 583.48,-299.75 575.77,-307.02 581.99,-310.24"/>
</g>
<!-- Node10 -->
<g id="node10" class="node">
<title>Node10</title>
<g id="a_node10"><a xlink:title=" ">
<polygon fill="white" stroke="#bfbfbf" points="301.52,-224.5 301.52,-243.5 372.52,-243.5 372.52,-224.5 301.52,-224.5"/>
<text text-anchor="middle" x="337.02" y="-231.5" font-family="Helvetica,sans-Serif" font-size="10.00">QMetaType</text>
</a>
</g>
</g>
<!-- Node9&#45;&gt;Node10 -->
<g id="edge11" class="edge">
<title>Node9&#45;&gt;Node10</title>
<path fill="none" stroke="midnightblue" d="M344.53,-280.08C343.34,-272.93 341.62,-262.64 340.13,-253.69"/>
<polygon fill="midnightblue" stroke="midnightblue" points="343.57,-253.04 338.48,-243.75 336.67,-254.19 343.57,-253.04"/>
</g>
<!-- Node11&#45;&gt;Node10 -->
<g id="edge13" class="edge">
<title>Node11&#45;&gt;Node10</title>
<path fill="none" stroke="midnightblue" d="M240.24,-280.44C258.91,-271.68 288.17,-257.94 309.64,-247.86"/>
<polygon fill="midnightblue" stroke="midnightblue" points="311.32,-250.93 318.88,-243.52 308.34,-244.6 311.32,-250.93"/>
</g>
<!-- Node12 -->
<g id="node12" class="node">
<title>Node12</title>
<g id="a_node12"><a xlink:title=" ">
<polygon fill="white" stroke="#bfbfbf" points="186.02,-224.5 186.02,-243.5 258.02,-243.5 258.02,-224.5 186.02,-224.5"/>
<text text-anchor="middle" x="222.02" y="-231.5" font-family="Helvetica,sans-Serif" font-size="10.00">SDL2/SDL.h</text>
</a>
</g>
</g>
<!-- Node11&#45;&gt;Node12 -->
<g id="edge14" class="edge">
<title>Node11&#45;&gt;Node12</title>
<path fill="none" stroke="midnightblue" d="M222.02,-280.08C222.02,-273.01 222.02,-262.86 222.02,-253.99"/>
<polygon fill="midnightblue" stroke="midnightblue" points="225.52,-253.75 222.02,-243.75 218.52,-253.75 225.52,-253.75"/>
</g>
<!-- Node13&#45;&gt;Node9 -->
<g id="edge47" class="edge">
<title>Node13&#45;&gt;Node9</title>
<path fill="none" stroke="midnightblue" d="M418.2,-336.32C404.79,-327.9 384.19,-314.97 368.43,-305.07"/>
<polygon fill="midnightblue" stroke="midnightblue" points="370.13,-302.01 359.8,-299.65 366.41,-307.94 370.13,-302.01"/>
</g>
<!-- Node13&#45;&gt;Node11 -->
<g id="edge48" class="edge">
<title>Node13&#45;&gt;Node11</title>
<path fill="none" stroke="midnightblue" d="M398.74,-336.44C362.57,-327.14 304.64,-312.25 265.04,-302.06"/>
<polygon fill="midnightblue" stroke="midnightblue" points="265.7,-298.62 255.14,-299.52 263.95,-305.4 265.7,-298.62"/>
</g>
<!-- Node14 -->
<g id="node14" class="node">
<title>Node14</title>
<g id="a_node14"><a xlink:href="joyaxis_8h.html" target="_top" xlink:title=" ">
<polygon fill="white" stroke="black" points="484.52,-280.5 484.52,-299.5 545.52,-299.5 545.52,-280.5 484.52,-280.5"/>
<text text-anchor="middle" x="515.02" y="-287.5" font-family="Helvetica,sans-Serif" font-size="10.00">joyaxis.h</text>
</a>
</g>
</g>
<!-- Node13&#45;&gt;Node14 -->
<g id="edge16" class="edge">
<title>Node13&#45;&gt;Node14</title>
<path fill="none" stroke="midnightblue" d="M445.35,-336.32C458.18,-327.98 477.8,-315.21 492.96,-305.35"/>
<polygon fill="midnightblue" stroke="midnightblue" points="495.24,-308.04 501.72,-299.65 491.43,-302.17 495.24,-308.04"/>
</g>
<!-- Node38 -->
<g id="node38" class="node">
<title>Node38</title>
<g id="a_node38"><a xlink:href="setjoystickxml_8h.html" target="_top" xlink:title=" ">
<polygon fill="white" stroke="black" points="306.52,-168.5 306.52,-187.5 425.52,-187.5 425.52,-168.5 306.52,-168.5"/>
<text text-anchor="middle" x="366.02" y="-175.5" font-family="Helvetica,sans-Serif" font-size="10.00">xml/setjoystickxml.h</text>
</a>
</g>
</g>
<!-- Node13&#45;&gt;Node38 -->
<g id="edge49" class="edge">
<title>Node13&#45;&gt;Node38</title>
<path fill="none" stroke="midnightblue" d="M429.96,-336.45C426.84,-323.89 420.47,-299.81 413.02,-280 401.76,-250.1 385.46,-216.73 375.31,-196.82"/>
<polygon fill="midnightblue" stroke="midnightblue" points="378.32,-195.01 370.63,-187.72 372.1,-198.22 378.32,-195.01"/>
</g>
<!-- Node14&#45;&gt;Node3 -->
<g id="edge17" class="edge">
<title>Node14&#45;&gt;Node3</title>
<path fill="none" stroke="midnightblue" d="M505.78,-280.3C496.92,-271.65 483.54,-257.72 474.02,-244 452.38,-212.81 465.15,-191.1 435.02,-168 280.25,-49.37 128.6,-227.66 6.02,-76 -19.22,-44.78 45.72,-25.35 86.64,-16.55"/>
<polygon fill="midnightblue" stroke="midnightblue" points="87.36,-19.98 96.45,-14.54 85.95,-13.12 87.36,-19.98"/>
</g>
<!-- Node14&#45;&gt;Node4 -->
<g id="edge18" class="edge">
<title>Node14&#45;&gt;Node4</title>
<path fill="none" stroke="midnightblue" d="M545.54,-281.88C548.74,-281.21 551.94,-280.57 555.02,-280 708.7,-251.6 1251.02,-335.29 1251.02,-179 1251.02,-179 1251.02,-179 1251.02,-121 1251.02,-90.9 1253.28,-77.3 1232.02,-56 1215.87,-39.82 1156.9,-25.79 1117.06,-17.87"/>
<polygon fill="midnightblue" stroke="midnightblue" points="1117.62,-14.41 1107.14,-15.94 1116.29,-21.28 1117.62,-14.41"/>
</g>
<!-- Node15 -->
<g id="node15" class="node">
<title>Node15</title>
<g id="a_node15"><a xlink:href="haptictriggermodeps5_8h.html" target="_top" xlink:title=" ">
<polygon fill="white" stroke="black" points="482.52,-224.5 482.52,-243.5 615.52,-243.5 615.52,-224.5 482.52,-224.5"/>
<text text-anchor="middle" x="549.02" y="-231.5" font-family="Helvetica,sans-Serif" font-size="10.00">haptictriggermodeps5.h</text>
</a>
</g>
</g>
<!-- Node14&#45;&gt;Node15 -->
<g id="edge19" class="edge">
<title>Node14&#45;&gt;Node15</title>
<path fill="none" stroke="midnightblue" d="M520.63,-280.08C525.39,-272.53 532.34,-261.49 538.17,-252.23"/>
<polygon fill="midnightblue" stroke="midnightblue" points="541.14,-254.08 543.51,-243.75 535.22,-250.35 541.14,-254.08"/>
</g>
<!-- Node16 -->
<g id="node16" class="node">
<title>Node16</title>
<g id="a_node16"><a xlink:href="joyaxisbutton_8h.html" target="_top" xlink:title=" ">
<polygon fill="white" stroke="black" points="1289.52,-224.5 1289.52,-243.5 1458.52,-243.5 1458.52,-224.5 1289.52,-224.5"/>
<text text-anchor="middle" x="1374.02" y="-231.5" font-family="Helvetica,sans-Serif" font-size="10.00">joybuttontypes/joyaxisbutton.h</text>
</a>
</g>
</g>
<!-- Node14&#45;&gt;Node16 -->
<g id="edge20" class="edge">
<title>Node14&#45;&gt;Node16</title>
<path fill="none" stroke="midnightblue" d="M545.93,-281.5C548.99,-280.92 552.06,-280.41 555.02,-280 868.06,-237.17 949.76,-265 1265.02,-244 1269.56,-243.7 1274.22,-243.37 1278.91,-243.03"/>
<polygon fill="midnightblue" stroke="midnightblue" points="1279.53,-246.5 1289.24,-242.26 1279.01,-239.51 1279.53,-246.5"/>
</g>
<!-- Node17 -->
<g id="node17" class="node">
<title>Node17</title>
<g id="a_node17"><a xlink:href="joygradientbutton_8h.html" target="_top" xlink:title=" ">
<polygon fill="white" stroke="black" points="1279.52,-168.5 1279.52,-187.5 1468.52,-187.5 1468.52,-168.5 1279.52,-168.5"/>
<text text-anchor="middle" x="1374.02" y="-175.5" font-family="Helvetica,sans-Serif" font-size="10.00">joybuttontypes/joygradientbutton.h</text>
</a>
</g>
</g>
<!-- Node16&#45;&gt;Node17 -->
<g id="edge21" class="edge">
<title>Node16&#45;&gt;Node17</title>
<path fill="none" stroke="midnightblue" d="M1374.02,-224.08C1374.02,-217.01 1374.02,-206.86 1374.02,-197.99"/>
<polygon fill="midnightblue" stroke="midnightblue" points="1377.52,-197.75 1374.02,-187.75 1370.52,-197.75 1377.52,-197.75"/>
</g>
<!-- Node33 -->
<g id="node33" class="node">
<title>Node33</title>
<g id="a_node33"><a xlink:href="logger_8h.html" target="_top" xlink:title=" ">
<polygon fill="white" stroke="black" points="1469.02,-112.5 1469.02,-131.5 1525.02,-131.5 1525.02,-112.5 1469.02,-112.5"/>
<text text-anchor="middle" x="1497.02" y="-119.5" font-family="Helvetica,sans-Serif" font-size="10.00">logger.h</text>
</a>
</g>
</g>
<!-- Node16&#45;&gt;Node33 -->
<g id="edge40" class="edge">
<title>Node16&#45;&gt;Node33</title>
<path fill="none" stroke="midnightblue" d="M1414.29,-224.42C1435.96,-217.86 1461.55,-206.65 1478.02,-188 1489.32,-175.21 1493.91,-156.02 1495.77,-141.8"/>
<polygon fill="midnightblue" stroke="midnightblue" points="1499.27,-141.98 1496.75,-131.68 1492.3,-141.3 1499.27,-141.98"/>
</g>
<!-- Node18 -->
<g id="node18" class="node">
<title>Node18</title>
<g id="a_node18"><a xlink:href="joybutton_8h.html" target="_top" xlink:title=" ">
<polygon fill="white" stroke="black" points="851.02,-112.5 851.02,-131.5 923.02,-131.5 923.02,-112.5 851.02,-112.5"/>
<text text-anchor="middle" x="887.02" y="-119.5" font-family="Helvetica,sans-Serif" font-size="10.00">joybutton.h</text>
</a>
</g>
</g>
<!-- Node17&#45;&gt;Node18 -->
<g id="edge22" class="edge">
<title>Node17&#45;&gt;Node18</title>
<path fill="none" stroke="midnightblue" d="M1297.12,-168.47C1194.71,-157.12 1016.78,-137.39 933.06,-128.11"/>
<polygon fill="midnightblue" stroke="midnightblue" points="933.42,-124.62 923.09,-127 932.65,-131.58 933.42,-124.62"/>
</g>
<!-- Node18&#45;&gt;Node5 -->
<g id="edge23" class="edge">
<title>Node18&#45;&gt;Node5</title>
<path fill="none" stroke="midnightblue" d="M850.87,-117.77C768.43,-110.39 560.19,-91.74 386.02,-76 373.61,-74.88 360.32,-73.67 347.65,-72.52"/>
<polygon fill="midnightblue" stroke="midnightblue" points="347.91,-69.03 337.64,-71.61 347.28,-76 347.91,-69.03"/>
</g>
<!-- Node19 -->
<g id="node19" class="node">
<title>Node19</title>
<g id="a_node19"><a xlink:href="joybuttonmousehelper_8h.html" target="_top" xlink:title=" ">
<polygon fill="white" stroke="black" points="1011.52,-56.5 1011.52,-75.5 1146.52,-75.5 1146.52,-56.5 1011.52,-56.5"/>
<text text-anchor="middle" x="1079.02" y="-63.5" font-family="Helvetica,sans-Serif" font-size="10.00">joybuttonmousehelper.h</text>
</a>
</g>
</g>
<!-- Node18&#45;&gt;Node19 -->
<g id="edge24" class="edge">
<title>Node18&#45;&gt;Node19</title>
<path fill="none" stroke="midnightblue" d="M917.44,-112.44C950.3,-103.2 1002.8,-88.44 1038.99,-78.26"/>
<polygon fill="midnightblue" stroke="midnightblue" points="1040.06,-81.59 1048.74,-75.52 1038.16,-74.85 1040.06,-81.59"/>
</g>
<!-- Node20 -->
<g id="node20" class="node">
<title>Node20</title>
<g id="a_node20"><a xlink:href="joybuttonslot_8h.html" target="_top" xlink:title=" ">
<polygon fill="white" stroke="black" points="1317.02,-56.5 1317.02,-75.5 1407.02,-75.5 1407.02,-56.5 1317.02,-56.5"/>
<text text-anchor="middle" x="1362.02" y="-63.5" font-family="Helvetica,sans-Serif" font-size="10.00">joybuttonslot.h</text>
</a>
</g>
</g>
<!-- Node18&#45;&gt;Node20 -->
<g id="edge26" class="edge">
<title>Node18&#45;&gt;Node20</title>
<path fill="none" stroke="midnightblue" d="M923.11,-116.9C1005.6,-107.52 1208.38,-84.47 1306.74,-73.28"/>
<polygon fill="midnightblue" stroke="midnightblue" points="1307.24,-76.75 1316.78,-72.14 1306.44,-69.8 1307.24,-76.75"/>
</g>
<!-- Node26 -->
<g id="node26" class="node">
<title>Node26</title>
<g id="a_node26"><a xlink:href="springmousemoveinfo_8h.html" target="_top" xlink:title=" ">
<polygon fill="white" stroke="black" points="394.52,-56.5 394.52,-75.5 529.52,-75.5 529.52,-56.5 394.52,-56.5"/>
<text text-anchor="middle" x="462.02" y="-63.5" font-family="Helvetica,sans-Serif" font-size="10.00">springmousemoveinfo.h</text>
</a>
</g>
</g>
<!-- Node18&#45;&gt;Node26 -->
<g id="edge33" class="edge">
<title>Node18&#45;&gt;Node26</title>
<path fill="none" stroke="midnightblue" d="M850.78,-116.4C782.1,-107.67 631.58,-88.54 539.29,-76.82"/>
<polygon fill="midnightblue" stroke="midnightblue" points="539.53,-73.32 529.16,-75.53 538.64,-80.26 539.53,-73.32"/>
</g>
<!-- Node27 -->
<g id="node27" class="node">
<title>Node27</title>
<g id="a_node27"><a xlink:title=" ">
<polygon fill="white" stroke="#bfbfbf" points="548.02,-56.5 548.02,-75.5 644.02,-75.5 644.02,-56.5 548.02,-56.5"/>
<text text-anchor="middle" x="596.02" y="-63.5" font-family="Helvetica,sans-Serif" font-size="10.00">QDeadlineTimer</text>
</a>
</g>
</g>
<!-- Node18&#45;&gt;Node27 -->
<g id="edge34" class="edge">
<title>Node18&#45;&gt;Node27</title>
<path fill="none" stroke="midnightblue" d="M850.75,-114.27C800.77,-105 710.28,-88.2 651.69,-77.33"/>
<polygon fill="midnightblue" stroke="midnightblue" points="652.33,-73.89 641.86,-75.51 651.06,-80.77 652.33,-73.89"/>
</g>
<!-- Node28 -->
<g id="node28" class="node">
<title>Node28</title>
<g id="a_node28"><a xlink:title=" ">
<polygon fill="white" stroke="#bfbfbf" points="662.02,-56.5 662.02,-75.5 718.02,-75.5 718.02,-56.5 662.02,-56.5"/>
<text text-anchor="middle" x="690.02" y="-63.5" font-family="Helvetica,sans-Serif" font-size="10.00">QQueue</text>
</a>
</g>
</g>
<!-- Node18&#45;&gt;Node28 -->
<g id="edge35" class="edge">
<title>Node18&#45;&gt;Node28</title>
<path fill="none" stroke="midnightblue" d="M855.8,-112.44C821.19,-102.96 765.35,-87.65 728.17,-77.46"/>
<polygon fill="midnightblue" stroke="midnightblue" points="728.79,-74 718.22,-74.73 726.93,-80.75 728.79,-74"/>
</g>
<!-- Node29 -->
<g id="node29" class="node">
<title>Node29</title>
<g id="a_node29"><a xlink:title=" ">
<polygon fill="white" stroke="#bfbfbf" points="736.02,-56.5 736.02,-75.5 834.02,-75.5 834.02,-56.5 736.02,-56.5"/>
<text text-anchor="middle" x="785.02" y="-63.5" font-family="Helvetica,sans-Serif" font-size="10.00">QReadWriteLock</text>
</a>
</g>
</g>
<!-- Node18&#45;&gt;Node29 -->
<g id="edge36" class="edge">
<title>Node18&#45;&gt;Node29</title>
<path fill="none" stroke="midnightblue" d="M870.63,-112.32C854.35,-103.7 829.15,-90.36 810.3,-80.39"/>
<polygon fill="midnightblue" stroke="midnightblue" points="811.84,-77.24 801.37,-75.65 808.57,-83.43 811.84,-77.24"/>
</g>
<!-- Node30 -->
<g id="node30" class="node">
<title>Node30</title>
<g id="a_node30"><a xlink:title=" ">
<polygon fill="white" stroke="#bfbfbf" points="852.02,-56.5 852.02,-75.5 922.02,-75.5 922.02,-56.5 852.02,-56.5"/>
<text text-anchor="middle" x="887.02" y="-63.5" font-family="Helvetica,sans-Serif" font-size="10.00">QRunnable</text>
</a>
</g>
</g>
<!-- Node18&#45;&gt;Node30 -->
<g id="edge37" class="edge">
<title>Node18&#45;&gt;Node30</title>
<path fill="none" stroke="midnightblue" d="M887.02,-112.08C887.02,-105.01 887.02,-94.86 887.02,-85.99"/>
<polygon fill="midnightblue" stroke="midnightblue" points="890.52,-85.75 887.02,-75.75 883.52,-85.75 890.52,-85.75"/>
</g>
<!-- Node31 -->
<g id="node31" class="node">
<title>Node31</title>
<g id="a_node31"><a xlink:title=" ">
<polygon fill="white" stroke="#bfbfbf" points="1165.02,-56.5 1165.02,-75.5 1223.02,-75.5 1223.02,-56.5 1165.02,-56.5"/>
<text text-anchor="middle" x="1194.02" y="-63.5" font-family="Helvetica,sans-Serif" font-size="10.00">QThread</text>
</a>
</g>
</g>
<!-- Node18&#45;&gt;Node31 -->
<g id="edge38" class="edge">
<title>Node18&#45;&gt;Node31</title>
<path fill="none" stroke="midnightblue" d="M923.27,-115.72C973.2,-108.28 1066.14,-93.82 1155.04,-76.09"/>
<polygon fill="midnightblue" stroke="midnightblue" points="1155.9,-79.48 1165.02,-74.08 1154.52,-72.62 1155.9,-79.48"/>
</g>
<!-- Node32 -->
<g id="node32" class="node">
<title>Node32</title>
<g id="a_node32"><a xlink:title=" ">
<polygon fill="white" stroke="#bfbfbf" points="940.52,-56.5 940.52,-75.5 993.52,-75.5 993.52,-56.5 940.52,-56.5"/>
<text text-anchor="middle" x="967.02" y="-63.5" font-family="Helvetica,sans-Serif" font-size="10.00">QTimer</text>
</a>
</g>
</g>
<!-- Node18&#45;&gt;Node32 -->
<g id="edge39" class="edge">
<title>Node18&#45;&gt;Node32</title>
<path fill="none" stroke="midnightblue" d="M899.87,-112.32C912.24,-103.98 931.15,-91.21 945.76,-81.35"/>
<polygon fill="midnightblue" stroke="midnightblue" points="947.87,-84.15 954.2,-75.65 943.95,-78.35 947.87,-84.15"/>
</g>
<!-- Node19&#45;&gt;Node4 -->
<g id="edge25" class="edge">
<title>Node19&#45;&gt;Node4</title>
<path fill="none" stroke="midnightblue" d="M1079.02,-56.08C1079.02,-49.01 1079.02,-38.86 1079.02,-29.99"/>
<polygon fill="midnightblue" stroke="midnightblue" points="1082.52,-29.75 1079.02,-19.75 1075.52,-29.75 1082.52,-29.75"/>
</g>
<!-- Node20&#45;&gt;Node4 -->
<g id="edge28" class="edge">
<title>Node20&#45;&gt;Node4</title>
<path fill="none" stroke="midnightblue" d="M1317.18,-56.44C1262.06,-45.93 1169.47,-28.26 1117.46,-18.33"/>
<polygon fill="midnightblue" stroke="midnightblue" points="1117.79,-14.84 1107.31,-16.4 1116.48,-21.71 1117.79,-14.84"/>
</g>
<!-- Node21 -->
<g id="node21" class="node">
<title>Node21</title>
<g id="a_node21"><a xlink:title=" ">
<polygon fill="white" stroke="#bfbfbf" points="1446.52,-0.5 1446.52,-19.5 1537.52,-19.5 1537.52,-0.5 1446.52,-0.5"/>
<text text-anchor="middle" x="1492.02" y="-7.5" font-family="Helvetica,sans-Serif" font-size="10.00">QElapsedTimer</text>
</a>
</g>
</g>
<!-- Node20&#45;&gt;Node21 -->
<g id="edge27" class="edge">
<title>Node20&#45;&gt;Node21</title>
<path fill="none" stroke="midnightblue" d="M1382.62,-56.44C1404.01,-47.56 1437.7,-33.56 1462.04,-23.45"/>
<polygon fill="midnightblue" stroke="midnightblue" points="1463.62,-26.58 1471.52,-19.52 1460.94,-20.12 1463.62,-26.58"/>
</g>
<!-- Node22 -->
<g id="node22" class="node">
<title>Node22</title>
<g id="a_node22"><a xlink:title=" ">
<polygon fill="white" stroke="#bfbfbf" points="1555.52,-0.5 1555.52,-19.5 1614.52,-19.5 1614.52,-0.5 1555.52,-0.5"/>
<text text-anchor="middle" x="1585.02" y="-7.5" font-family="Helvetica,sans-Serif" font-size="10.00">QPointer</text>
</a>
</g>
</g>
<!-- Node20&#45;&gt;Node22 -->
<g id="edge29" class="edge">
<title>Node20&#45;&gt;Node22</title>
<path fill="none" stroke="midnightblue" d="M1397.35,-56.44C1437.63,-46.69 1503.31,-30.79 1545.32,-20.61"/>
<polygon fill="midnightblue" stroke="midnightblue" points="1546.31,-23.98 1555.2,-18.22 1544.66,-17.17 1546.31,-23.98"/>
</g>
<!-- Node23 -->
<g id="node23" class="node">
<title>Node23</title>
<g id="a_node23"><a xlink:title=" ">
<polygon fill="white" stroke="#bfbfbf" points="1151.52,-0.5 1151.52,-19.5 1200.52,-19.5 1200.52,-0.5 1151.52,-0.5"/>
<text text-anchor="middle" x="1176.02" y="-7.5" font-family="Helvetica,sans-Serif" font-size="10.00">QTime</text>
</a>
</g>
</g>
<!-- Node20&#45;&gt;Node23 -->
<g id="edge30" class="edge">
<title>Node20&#45;&gt;Node23</title>
<path fill="none" stroke="midnightblue" d="M1332.55,-56.44C1299.36,-46.81 1245.49,-31.17 1210.4,-20.98"/>
<polygon fill="midnightblue" stroke="midnightblue" points="1211.18,-17.56 1200.6,-18.14 1209.23,-24.29 1211.18,-17.56"/>
</g>
<!-- Node24 -->
<g id="node24" class="node">
<title>Node24</title>
<g id="a_node24"><a xlink:title=" ">
<polygon fill="white" stroke="#bfbfbf" points="1218.52,-0.5 1218.52,-19.5 1277.52,-19.5 1277.52,-0.5 1218.52,-0.5"/>
<text text-anchor="middle" x="1248.02" y="-7.5" font-family="Helvetica,sans-Serif" font-size="10.00">QVariant</text>
</a>
</g>
</g>
<!-- Node20&#45;&gt;Node24 -->
<g id="edge31" class="edge">
<title>Node20&#45;&gt;Node24</title>
<path fill="none" stroke="midnightblue" d="M1343.96,-56.44C1325.44,-47.68 1296.44,-33.94 1275.16,-23.86"/>
<polygon fill="midnightblue" stroke="midnightblue" points="1276.53,-20.63 1266,-19.52 1273.54,-26.96 1276.53,-20.63"/>
</g>
<!-- Node25 -->
<g id="node25" class="node">
<title>Node25</title>
<g id="a_node25"><a xlink:title=" ">
<polygon fill="white" stroke="#bfbfbf" points="1295.52,-0.5 1295.52,-19.5 1428.52,-19.5 1428.52,-0.5 1295.52,-0.5"/>
<text text-anchor="middle" x="1362.02" y="-7.5" font-family="Helvetica,sans-Serif" font-size="10.00">QtWidgets/QApplication</text>
</a>
</g>
</g>
<!-- Node20&#45;&gt;Node25 -->
<g id="edge32" class="edge">
<title>Node20&#45;&gt;Node25</title>
<path fill="none" stroke="midnightblue" d="M1362.02,-56.08C1362.02,-49.01 1362.02,-38.86 1362.02,-29.99"/>
<polygon fill="midnightblue" stroke="midnightblue" points="1365.52,-29.75 1362.02,-19.75 1358.52,-29.75 1365.52,-29.75"/>
</g>
<!-- Node33&#45;&gt;Node4 -->
<g id="edge43" class="edge">
<title>Node33&#45;&gt;Node4</title>
<path fill="none" stroke="midnightblue" d="M1468.97,-116.16C1431.62,-109.29 1363.77,-95.38 1308.02,-76 1288.11,-69.08 1284.92,-62.96 1265.02,-56 1215.14,-38.56 1155.44,-25.42 1117.38,-17.97"/>
<polygon fill="midnightblue" stroke="midnightblue" points="1117.73,-14.47 1107.25,-16.02 1116.41,-21.35 1117.73,-14.47"/>
</g>
<!-- Node33&#45;&gt;Node31 -->
<g id="edge45" class="edge">
<title>Node33&#45;&gt;Node31</title>
<path fill="none" stroke="midnightblue" d="M1468.79,-115.97C1414.48,-106.29 1295.39,-85.07 1233.35,-74.01"/>
<polygon fill="midnightblue" stroke="midnightblue" points="1233.64,-70.51 1223.18,-72.2 1232.41,-77.4 1233.64,-70.51"/>
</g>
<!-- Node34 -->
<g id="node34" class="node">
<title>Node34</title>
<g id="a_node34"><a xlink:title=" ">
<polygon fill="white" stroke="#bfbfbf" points="1597.52,-56.5 1597.52,-75.5 1638.52,-75.5 1638.52,-56.5 1597.52,-56.5"/>
<text text-anchor="middle" x="1618.02" y="-63.5" font-family="Helvetica,sans-Serif" font-size="10.00">QFile</text>
</a>
</g>
</g>
<!-- Node33&#45;&gt;Node34 -->
<g id="edge41" class="edge">
<title>Node33&#45;&gt;Node34</title>
<path fill="none" stroke="midnightblue" d="M1516.19,-112.44C1535.93,-103.64 1566.9,-89.81 1589.51,-79.72"/>
<polygon fill="midnightblue" stroke="midnightblue" points="1591.23,-82.79 1598.94,-75.52 1588.38,-76.4 1591.23,-82.79"/>
</g>
<!-- Node35 -->
<g id="node35" class="node">
<title>Node35</title>
<g id="a_node35"><a xlink:title=" ">
<polygon fill="white" stroke="#bfbfbf" points="1656.52,-56.5 1656.52,-75.5 1711.52,-75.5 1711.52,-56.5 1656.52,-56.5"/>
<text text-anchor="middle" x="1684.02" y="-63.5" font-family="Helvetica,sans-Serif" font-size="10.00">QMutex</text>
</a>
</g>
</g>
<!-- Node33&#45;&gt;Node35 -->
<g id="edge42" class="edge">
<title>Node33&#45;&gt;Node35</title>
<path fill="none" stroke="midnightblue" d="M1525.42,-112.8C1557.69,-103.48 1610.49,-88.23 1646.22,-77.91"/>
<polygon fill="midnightblue" stroke="midnightblue" points="1647.63,-81.15 1656.27,-75.01 1645.69,-74.43 1647.63,-81.15"/>
</g>
<!-- Node36 -->
<g id="node36" class="node">
<title>Node36</title>
<g id="a_node36"><a xlink:title=" ">
<polygon fill="white" stroke="#bfbfbf" points="1425.02,-56.5 1425.02,-75.5 1505.02,-75.5 1505.02,-56.5 1425.02,-56.5"/>
<text text-anchor="middle" x="1465.02" y="-63.5" font-family="Helvetica,sans-Serif" font-size="10.00">QTextStream</text>
</a>
</g>
</g>
<!-- Node33&#45;&gt;Node36 -->
<g id="edge44" class="edge">
<title>Node33&#45;&gt;Node36</title>
<path fill="none" stroke="midnightblue" d="M1491.73,-112.08C1487.31,-104.61 1480.86,-93.72 1475.4,-84.52"/>
<polygon fill="midnightblue" stroke="midnightblue" points="1478.31,-82.57 1470.2,-75.75 1472.29,-86.14 1478.31,-82.57"/>
</g>
<!-- Node37 -->
<g id="node37" class="node">
<title>Node37</title>
<g id="a_node37"><a xlink:title=" ">
<polygon fill="white" stroke="#bfbfbf" points="1523.02,-56.5 1523.02,-75.5 1579.02,-75.5 1579.02,-56.5 1523.02,-56.5"/>
<text text-anchor="middle" x="1551.02" y="-63.5" font-family="Helvetica,sans-Serif" font-size="10.00">sstream</text>
</a>
</g>
</g>
<!-- Node33&#45;&gt;Node37 -->
<g id="edge46" class="edge">
<title>Node33&#45;&gt;Node37</title>
<path fill="none" stroke="midnightblue" d="M1505.94,-112.08C1513.8,-104.22 1525.45,-92.57 1534.94,-83.08"/>
<polygon fill="midnightblue" stroke="midnightblue" points="1537.67,-85.3 1542.27,-75.75 1532.72,-80.35 1537.67,-85.3"/>
</g>
<!-- Node38&#45;&gt;Node4 -->
<g id="edge50" class="edge">
<title>Node38&#45;&gt;Node4</title>
<path fill="none" stroke="midnightblue" d="M364.29,-168.33C360.37,-145.85 353.51,-85.44 386.02,-56 434.68,-11.93 902.26,-10.28 1040.63,-10.76"/>
<polygon fill="midnightblue" stroke="midnightblue" points="1040.75,-14.26 1050.76,-10.81 1040.78,-7.26 1040.75,-14.26"/>
</g>
</g>
</svg>
