<?xml version="1.0" encoding="UTF-8" standalone="no"?>
<!DOCTYPE svg PUBLIC "-//W3C//DTD SVG 1.1//EN"
 "http://www.w3.org/Graphics/SVG/1.1/DTD/svg11.dtd">
<!-- Generated by graphviz version 2.43.0 (0)
 -->
<!-- Title: Graphical Class Hierarchy Pages: 1 -->
<svg width="461pt" height="876pt"
 viewBox="0.00 0.00 461.00 876.00" xmlns="http://www.w3.org/2000/svg" xmlns:xlink="http://www.w3.org/1999/xlink">
<g id="graph0" class="graph" transform="scale(1 1) rotate(0) translate(4 872)">
<title>Graphical Class Hierarchy</title>
<polygon fill="white" stroke="transparent" points="-4,4 -4,-872 457,-872 457,4 -4,4"/>
<!-- Node130 -->
<g id="node1" class="node">
<title>Node130</title>
<g id="a_node1"><a xlink:title=" ">
<polygon fill="white" stroke="#bfbfbf" points="0,-418.5 0,-437.5 56,-437.5 56,-418.5 0,-418.5"/>
<text text-anchor="middle" x="28" y="-425.5" font-family="Helvetica,sans-Serif" font-size="10.00">QDialog</text>
</a>
</g>
</g>
<!-- Node0 -->
<g id="node2" class="node">
<title>Node0</title>
<g id="a_node2"><a xlink:href="classAboutDialog.html" target="_top" xlink:title=" ">
<polygon fill="white" stroke="black" points="139.5,-848.5 139.5,-867.5 216.5,-867.5 216.5,-848.5 139.5,-848.5"/>
<text text-anchor="middle" x="178" y="-855.5" font-family="Helvetica,sans-Serif" font-size="10.00">AboutDialog</text>
</a>
</g>
</g>
<!-- Node130&#45;&gt;Node0 -->
<g id="edge1" class="edge">
<title>Node130&#45;&gt;Node0</title>
<path fill="none" stroke="midnightblue" d="M29.19,-447.86C30.31,-522.01 38.08,-781.3 92,-839 103.98,-851.82 122.55,-856.92 139.29,-858.67"/>
<polygon fill="midnightblue" stroke="midnightblue" points="32.69,-447.57 29.06,-437.61 25.69,-447.66 32.69,-447.57"/>
</g>
<!-- Node132 -->
<g id="node3" class="node">
<title>Node132</title>
<g id="a_node3"><a xlink:href="classAddEditAutoProfileDialog.html" target="_top" xlink:title=" ">
<polygon fill="white" stroke="black" points="108.5,-810.5 108.5,-829.5 247.5,-829.5 247.5,-810.5 108.5,-810.5"/>
<text text-anchor="middle" x="178" y="-817.5" font-family="Helvetica,sans-Serif" font-size="10.00">AddEditAutoProfileDialog</text>
</a>
</g>
</g>
<!-- Node130&#45;&gt;Node132 -->
<g id="edge2" class="edge">
<title>Node130&#45;&gt;Node132</title>
<path fill="none" stroke="midnightblue" d="M29.53,-447.81C31.8,-517.4 42.97,-749.32 92,-801 96.58,-805.83 102.1,-809.56 108.09,-812.42"/>
<polygon fill="midnightblue" stroke="midnightblue" points="33.03,-447.64 29.23,-437.75 26.03,-447.85 33.03,-447.64"/>
</g>
<!-- Node133 -->
<g id="node4" class="node">
<title>Node133</title>
<g id="a_node4"><a xlink:href="classAdvanceButtonDialog.html" target="_top" xlink:title=" ">
<polygon fill="white" stroke="black" points="117,-772.5 117,-791.5 239,-791.5 239,-772.5 117,-772.5"/>
<text text-anchor="middle" x="178" y="-779.5" font-family="Helvetica,sans-Serif" font-size="10.00">AdvanceButtonDialog</text>
</a>
</g>
</g>
<!-- Node130&#45;&gt;Node133 -->
<g id="edge3" class="edge">
<title>Node130&#45;&gt;Node133</title>
<path fill="none" stroke="midnightblue" d="M29.95,-447.85C33.45,-512.8 47.87,-717.34 92,-763 98.73,-769.96 107.4,-774.63 116.63,-777.71"/>
<polygon fill="midnightblue" stroke="midnightblue" points="33.44,-447.54 29.43,-437.73 26.44,-447.9 33.44,-447.54"/>
</g>
<!-- Node134 -->
<g id="node5" class="node">
<title>Node134</title>
<g id="a_node5"><a xlink:href="classAdvanceStickAssignmentDialog.html" target="_top" xlink:title=" ">
<polygon fill="white" stroke="black" points="92,-734.5 92,-753.5 264,-753.5 264,-734.5 92,-734.5"/>
<text text-anchor="middle" x="178" y="-741.5" font-family="Helvetica,sans-Serif" font-size="10.00">AdvanceStickAssignmentDialog</text>
</a>
</g>
</g>
<!-- Node130&#45;&gt;Node134 -->
<g id="edge4" class="edge">
<title>Node130&#45;&gt;Node134</title>
<path fill="none" stroke="midnightblue" d="M30.44,-447.52C35.24,-507.14 52.65,-685.22 92,-725 95.72,-728.76 100.01,-731.85 104.65,-734.38"/>
<polygon fill="midnightblue" stroke="midnightblue" points="33.93,-447.24 29.67,-437.54 26.95,-447.78 33.93,-447.24"/>
</g>
<!-- Node135 -->
<g id="node6" class="node">
<title>Node135</title>
<g id="a_node6"><a xlink:href="classAxisEditDialog.html" target="_top" xlink:title=" ">
<polygon fill="white" stroke="black" points="134,-696.5 134,-715.5 222,-715.5 222,-696.5 134,-696.5"/>
<text text-anchor="middle" x="178" y="-703.5" font-family="Helvetica,sans-Serif" font-size="10.00">AxisEditDialog</text>
</a>
</g>
</g>
<!-- Node130&#45;&gt;Node135 -->
<g id="edge5" class="edge">
<title>Node130&#45;&gt;Node135</title>
<path fill="none" stroke="midnightblue" d="M31.13,-447.83C37.4,-502.43 57.54,-653.18 92,-687 103.01,-697.8 118.74,-703.01 133.68,-705.37"/>
<polygon fill="midnightblue" stroke="midnightblue" points="34.59,-447.26 30,-437.71 27.63,-448.04 34.59,-447.26"/>
</g>
<!-- Node136 -->
<g id="node7" class="node">
<title>Node136</title>
<g id="a_node7"><a xlink:href="classButtonEditDialog.html" target="_top" xlink:title=" ">
<polygon fill="white" stroke="black" points="128.5,-658.5 128.5,-677.5 227.5,-677.5 227.5,-658.5 128.5,-658.5"/>
<text text-anchor="middle" x="178" y="-665.5" font-family="Helvetica,sans-Serif" font-size="10.00">ButtonEditDialog</text>
</a>
</g>
</g>
<!-- Node130&#45;&gt;Node136 -->
<g id="edge6" class="edge">
<title>Node130&#45;&gt;Node136</title>
<path fill="none" stroke="midnightblue" d="M28.39,-447.76C28.21,-490.98 34.2,-594.45 92,-649 101.79,-658.24 115.04,-663.35 128.17,-666.09"/>
<polygon fill="midnightblue" stroke="midnightblue" points="31.89,-447.74 28.56,-437.69 24.89,-447.63 31.89,-447.74"/>
</g>
<!-- Node137 -->
<g id="node8" class="node">
<title>Node137</title>
<g id="a_node8"><a xlink:href="classCalibration.html" target="_top" xlink:title="Opens calibration window used for calibration.">
<polygon fill="white" stroke="black" points="143,-620.5 143,-639.5 213,-639.5 213,-620.5 143,-620.5"/>
<text text-anchor="middle" x="178" y="-627.5" font-family="Helvetica,sans-Serif" font-size="10.00">Calibration</text>
</a>
</g>
</g>
<!-- Node130&#45;&gt;Node137 -->
<g id="edge7" class="edge">
<title>Node130&#45;&gt;Node137</title>
<path fill="none" stroke="midnightblue" d="M29.78,-447.92C32.4,-485.69 43.65,-567.77 92,-611 105.75,-623.3 125.7,-628.19 142.82,-629.94"/>
<polygon fill="midnightblue" stroke="midnightblue" points="33.27,-447.51 29.22,-437.72 26.28,-447.9 33.27,-447.51"/>
</g>
<!-- Node138 -->
<g id="node9" class="node">
<title>Node138</title>
<g id="a_node9"><a xlink:href="classCapturedWindowInfoDialog.html" target="_top" xlink:title=" ">
<polygon fill="white" stroke="black" points="103,-582.5 103,-601.5 253,-601.5 253,-582.5 103,-582.5"/>
<text text-anchor="middle" x="178" y="-589.5" font-family="Helvetica,sans-Serif" font-size="10.00">CapturedWindowInfoDialog</text>
</a>
</g>
</g>
<!-- Node130&#45;&gt;Node138 -->
<g id="edge8" class="edge">
<title>Node130&#45;&gt;Node138</title>
<path fill="none" stroke="midnightblue" d="M31.79,-447.68C37.34,-479.17 52.8,-540.62 92,-573 96.66,-576.85 101.94,-579.96 107.54,-582.47"/>
<polygon fill="midnightblue" stroke="midnightblue" points="35.21,-446.87 30.17,-437.55 28.3,-447.97 35.21,-446.87"/>
</g>
<!-- Node139 -->
<g id="node10" class="node">
<title>Node139</title>
<g id="a_node10"><a xlink:href="classDPadEditDialog.html" target="_top" xlink:title=" ">
<polygon fill="white" stroke="black" points="132,-544.5 132,-563.5 224,-563.5 224,-544.5 132,-544.5"/>
<text text-anchor="middle" x="178" y="-551.5" font-family="Helvetica,sans-Serif" font-size="10.00">DPadEditDialog</text>
</a>
</g>
</g>
<!-- Node130&#45;&gt;Node139 -->
<g id="edge9" class="edge">
<title>Node130&#45;&gt;Node139</title>
<path fill="none" stroke="midnightblue" d="M35.01,-447.38C43.61,-471.74 61.79,-513.01 92,-535 103.49,-543.37 118,-548.15 131.77,-550.85"/>
<polygon fill="midnightblue" stroke="midnightblue" points="38.3,-446.18 31.82,-437.8 31.66,-448.39 38.3,-446.18"/>
</g>
<!-- Node140 -->
<g id="node11" class="node">
<title>Node140</title>
<g id="a_node11"><a xlink:href="classEditAllDefaultAutoProfileDialog.html" target="_top" xlink:title=" ">
<polygon fill="white" stroke="black" points="109.5,-495 109.5,-525 246.5,-525 246.5,-495 109.5,-495"/>
<text text-anchor="start" x="117.5" y="-513" font-family="Helvetica,sans-Serif" font-size="10.00">EditAllDefaultAutoProfile</text>
<text text-anchor="middle" x="178" y="-502" font-family="Helvetica,sans-Serif" font-size="10.00">Dialog</text>
</a>
</g>
</g>
<!-- Node130&#45;&gt;Node140 -->
<g id="edge10" class="edge">
<title>Node130&#45;&gt;Node140</title>
<path fill="none" stroke="midnightblue" d="M43.89,-445.12C55.76,-457.79 73.42,-474.59 92,-485 98.84,-488.83 106.33,-492.13 113.94,-494.96"/>
<polygon fill="midnightblue" stroke="midnightblue" points="46.29,-442.56 36.98,-437.5 41.1,-447.26 46.29,-442.56"/>
</g>
<!-- Node141 -->
<g id="node12" class="node">
<title>Node141</title>
<g id="a_node12"><a xlink:href="classExtraProfileSettingsDialog.html" target="_top" xlink:title=" ">
<polygon fill="white" stroke="black" points="106,-456.5 106,-475.5 250,-475.5 250,-456.5 106,-456.5"/>
<text text-anchor="middle" x="178" y="-463.5" font-family="Helvetica,sans-Serif" font-size="10.00">ExtraProfileSettingsDialog</text>
</a>
</g>
</g>
<!-- Node130&#45;&gt;Node141 -->
<g id="edge11" class="edge">
<title>Node130&#45;&gt;Node141</title>
<path fill="none" stroke="midnightblue" d="M65.88,-439.61C74.42,-442.17 83.5,-444.77 92,-447 104.73,-450.34 118.62,-453.6 131.42,-456.45"/>
<polygon fill="midnightblue" stroke="midnightblue" points="66.75,-436.22 56.17,-436.67 64.72,-442.92 66.75,-436.22"/>
</g>
<!-- Node142 -->
<g id="node13" class="node">
<title>Node142</title>
<g id="a_node13"><a xlink:href="classGameControllerMappingDialog.html" target="_top" xlink:title=" ">
<polygon fill="white" stroke="black" points="94.5,-418.5 94.5,-437.5 261.5,-437.5 261.5,-418.5 94.5,-418.5"/>
<text text-anchor="middle" x="178" y="-425.5" font-family="Helvetica,sans-Serif" font-size="10.00">GameControllerMappingDialog</text>
</a>
</g>
</g>
<!-- Node130&#45;&gt;Node142 -->
<g id="edge12" class="edge">
<title>Node130&#45;&gt;Node142</title>
<path fill="none" stroke="midnightblue" d="M66.24,-428C74.92,-428 84.51,-428 94.31,-428"/>
<polygon fill="midnightblue" stroke="midnightblue" points="66.15,-424.5 56.15,-428 66.15,-431.5 66.15,-424.5"/>
</g>
<!-- Node143 -->
<g id="node14" class="node">
<title>Node143</title>
<g id="a_node14"><a xlink:href="classJoyControlStickEditDialog.html" target="_top" xlink:title=" ">
<polygon fill="white" stroke="black" points="107.5,-380.5 107.5,-399.5 248.5,-399.5 248.5,-380.5 107.5,-380.5"/>
<text text-anchor="middle" x="178" y="-387.5" font-family="Helvetica,sans-Serif" font-size="10.00">JoyControlStickEditDialog</text>
</a>
</g>
</g>
<!-- Node130&#45;&gt;Node143 -->
<g id="edge13" class="edge">
<title>Node130&#45;&gt;Node143</title>
<path fill="none" stroke="midnightblue" d="M65.88,-416.39C74.42,-413.83 83.5,-411.23 92,-409 104.73,-405.66 118.62,-402.4 131.42,-399.55"/>
<polygon fill="midnightblue" stroke="midnightblue" points="64.72,-413.08 56.17,-419.33 66.75,-419.78 64.72,-413.08"/>
</g>
<!-- Node144 -->
<g id="node15" class="node">
<title>Node144</title>
<g id="a_node15"><a xlink:href="classJoySensorEditDialog.html" target="_top" xlink:title="The configuration dialog for a JoySensor itself.">
<polygon fill="white" stroke="black" points="120.5,-342.5 120.5,-361.5 235.5,-361.5 235.5,-342.5 120.5,-342.5"/>
<text text-anchor="middle" x="178" y="-349.5" font-family="Helvetica,sans-Serif" font-size="10.00">JoySensorEditDialog</text>
</a>
</g>
</g>
<!-- Node130&#45;&gt;Node144 -->
<g id="edge14" class="edge">
<title>Node130&#45;&gt;Node144</title>
<path fill="none" stroke="midnightblue" d="M43.7,-410.52C55.47,-397.67 73.09,-380.79 92,-371 100.73,-366.48 110.5,-363.03 120.23,-360.4"/>
<polygon fill="midnightblue" stroke="midnightblue" points="40.85,-408.46 36.86,-418.28 46.1,-413.1 40.85,-408.46"/>
</g>
<!-- Node145 -->
<g id="node16" class="node">
<title>Node145</title>
<g id="a_node16"><a xlink:href="classJoystickStatusWindow.html" target="_top" xlink:title="The joystick &quot;Properties&quot; window. Shows various raw values to the user.">
<polygon fill="white" stroke="black" points="115.5,-304.5 115.5,-323.5 240.5,-323.5 240.5,-304.5 115.5,-304.5"/>
<text text-anchor="middle" x="178" y="-311.5" font-family="Helvetica,sans-Serif" font-size="10.00">JoystickStatusWindow</text>
</a>
</g>
</g>
<!-- Node130&#45;&gt;Node145 -->
<g id="edge15" class="edge">
<title>Node130&#45;&gt;Node145</title>
<path fill="none" stroke="midnightblue" d="M36.43,-408.89C45.94,-387.05 64.54,-351.89 92,-333 98.98,-328.2 106.97,-324.59 115.2,-321.88"/>
<polygon fill="midnightblue" stroke="midnightblue" points="33.08,-407.83 32.49,-418.41 39.55,-410.51 33.08,-407.83"/>
</g>
<!-- Node146 -->
<g id="node17" class="node">
<title>Node146</title>
<g id="a_node17"><a xlink:href="classMainSettingsDialog.html" target="_top" xlink:title=" ">
<polygon fill="white" stroke="black" points="122,-266.5 122,-285.5 234,-285.5 234,-266.5 122,-266.5"/>
<text text-anchor="middle" x="178" y="-273.5" font-family="Helvetica,sans-Serif" font-size="10.00">MainSettingsDialog</text>
</a>
</g>
</g>
<!-- Node130&#45;&gt;Node146 -->
<g id="edge16" class="edge">
<title>Node130&#45;&gt;Node146</title>
<path fill="none" stroke="midnightblue" d="M32.67,-408.25C39.2,-378.87 55.72,-323.99 92,-295 100.51,-288.2 110.95,-283.73 121.57,-280.8"/>
<polygon fill="midnightblue" stroke="midnightblue" points="29.22,-407.66 30.63,-418.16 36.07,-409.07 29.22,-407.66"/>
</g>
<!-- Node147 -->
<g id="node18" class="node">
<title>Node147</title>
<g id="a_node18"><a xlink:href="classMouseSettingsDialog.html" target="_top" xlink:title=" ">
<polygon fill="white" stroke="black" points="118,-228.5 118,-247.5 238,-247.5 238,-228.5 118,-228.5"/>
<text text-anchor="middle" x="178" y="-235.5" font-family="Helvetica,sans-Serif" font-size="10.00">MouseSettingsDialog</text>
</a>
</g>
</g>
<!-- Node130&#45;&gt;Node147 -->
<g id="edge17" class="edge">
<title>Node130&#45;&gt;Node147</title>
<path fill="none" stroke="midnightblue" d="M30.31,-408.39C33.8,-372.63 46.45,-296.86 92,-257 99.28,-250.63 108.24,-246.25 117.57,-243.28"/>
<polygon fill="midnightblue" stroke="midnightblue" points="26.81,-408.24 29.47,-418.5 33.79,-408.82 26.81,-408.24"/>
</g>
<!-- Node153 -->
<g id="node24" class="node">
<title>Node153</title>
<g id="a_node24"><a xlink:href="classQKeyDisplayDialog.html" target="_top" xlink:title=" ">
<polygon fill="white" stroke="black" points="123,-190.5 123,-209.5 233,-209.5 233,-190.5 123,-190.5"/>
<text text-anchor="middle" x="178" y="-197.5" font-family="Helvetica,sans-Serif" font-size="10.00">QKeyDisplayDialog</text>
</a>
</g>
</g>
<!-- Node130&#45;&gt;Node153 -->
<g id="edge23" class="edge">
<title>Node130&#45;&gt;Node153</title>
<path fill="none" stroke="midnightblue" d="M28.78,-408.19C29.45,-366.62 37.2,-269.95 92,-219 100.53,-211.07 111.61,-206.19 122.95,-203.25"/>
<polygon fill="midnightblue" stroke="midnightblue" points="25.28,-408.36 28.74,-418.37 32.28,-408.38 25.28,-408.36"/>
</g>
<!-- Node154 -->
<g id="node25" class="node">
<title>Node154</title>
<g id="a_node25"><a xlink:href="classQuickSetDialog.html" target="_top" xlink:title=" ">
<polygon fill="white" stroke="black" points="132,-152.5 132,-171.5 224,-171.5 224,-152.5 132,-152.5"/>
<text text-anchor="middle" x="178" y="-159.5" font-family="Helvetica,sans-Serif" font-size="10.00">QuickSetDialog</text>
</a>
</g>
</g>
<!-- Node130&#45;&gt;Node154 -->
<g id="edge24" class="edge">
<title>Node130&#45;&gt;Node154</title>
<path fill="none" stroke="midnightblue" d="M31.35,-408.4C38.07,-355.74 59.01,-213.02 92,-181 102.63,-170.68 117.58,-165.48 131.98,-162.98"/>
<polygon fill="midnightblue" stroke="midnightblue" points="27.86,-408.1 30.11,-418.46 34.81,-408.97 27.86,-408.1"/>
</g>
<!-- Node155 -->
<g id="node26" class="node">
<title>Node155</title>
<g id="a_node26"><a xlink:href="classSetAxisThrottleDialog.html" target="_top" xlink:title=" ">
<polygon fill="white" stroke="black" points="116.5,-114.5 116.5,-133.5 239.5,-133.5 239.5,-114.5 116.5,-114.5"/>
<text text-anchor="middle" x="178" y="-121.5" font-family="Helvetica,sans-Serif" font-size="10.00">SetAxisThrottleDialog</text>
</a>
</g>
</g>
<!-- Node130&#45;&gt;Node155 -->
<g id="edge25" class="edge">
<title>Node130&#45;&gt;Node155</title>
<path fill="none" stroke="midnightblue" d="M30.66,-408.13C35.94,-349.82 54.25,-180.84 92,-143 98.73,-136.26 107.29,-131.68 116.38,-128.61"/>
<polygon fill="midnightblue" stroke="midnightblue" points="27.16,-407.98 29.78,-418.25 34.13,-408.59 27.16,-407.98"/>
</g>
<!-- Node156 -->
<g id="node27" class="node">
<title>Node156</title>
<g id="a_node27"><a xlink:href="classSetNamesDialog.html" target="_top" xlink:title=" ">
<polygon fill="white" stroke="black" points="129,-76.5 129,-95.5 227,-95.5 227,-76.5 129,-76.5"/>
<text text-anchor="middle" x="178" y="-83.5" font-family="Helvetica,sans-Serif" font-size="10.00">SetNamesDialog</text>
</a>
</g>
</g>
<!-- Node130&#45;&gt;Node156 -->
<g id="edge26" class="edge">
<title>Node130&#45;&gt;Node156</title>
<path fill="none" stroke="midnightblue" d="M30.1,-408.04C34.03,-344.53 49.43,-148.75 92,-105 101.7,-95.03 115.41,-89.77 128.99,-87.13"/>
<polygon fill="midnightblue" stroke="midnightblue" points="26.59,-408.11 29.5,-418.29 33.58,-408.52 26.59,-408.11"/>
</g>
<!-- Node157 -->
<g id="node28" class="node">
<title>Node157</title>
<g id="a_node28"><a xlink:href="classUnixWindowInfoDialog.html" target="_top" xlink:title=" ">
<polygon fill="white" stroke="black" points="114,-38.5 114,-57.5 242,-57.5 242,-38.5 114,-38.5"/>
<text text-anchor="middle" x="178" y="-45.5" font-family="Helvetica,sans-Serif" font-size="10.00">UnixWindowInfoDialog</text>
</a>
</g>
</g>
<!-- Node130&#45;&gt;Node157 -->
<g id="edge27" class="edge">
<title>Node130&#45;&gt;Node157</title>
<path fill="none" stroke="midnightblue" d="M29.66,-407.96C32.33,-339.55 44.57,-116.72 92,-67 98.05,-60.65 105.73,-56.21 113.98,-53.13"/>
<polygon fill="midnightblue" stroke="midnightblue" points="26.15,-408.1 29.29,-418.22 33.15,-408.35 26.15,-408.1"/>
</g>
<!-- Node158 -->
<g id="node29" class="node">
<title>Node158</title>
<g id="a_node29"><a xlink:href="classWinAppProfileTimerDialog.html" target="_top" xlink:title=" ">
<polygon fill="white" stroke="black" points="105.5,-0.5 105.5,-19.5 250.5,-19.5 250.5,-0.5 105.5,-0.5"/>
<text text-anchor="middle" x="178" y="-7.5" font-family="Helvetica,sans-Serif" font-size="10.00">WinAppProfileTimerDialog</text>
</a>
</g>
</g>
<!-- Node130&#45;&gt;Node158 -->
<g id="edge28" class="edge">
<title>Node130&#45;&gt;Node158</title>
<path fill="none" stroke="midnightblue" d="M29.29,-408.24C30.76,-335.62 39.61,-84.82 92,-29 95.83,-24.92 100.33,-21.62 105.22,-18.97"/>
<polygon fill="midnightblue" stroke="midnightblue" points="25.79,-408.25 29.11,-418.31 32.79,-408.37 25.79,-408.25"/>
</g>
<!-- Node148 -->
<g id="node19" class="node">
<title>Node148</title>
<g id="a_node19"><a xlink:href="classMouseAxisSettingsDialog.html" target="_top" xlink:title=" ">
<polygon fill="white" stroke="black" points="306,-310.5 306,-329.5 447,-329.5 447,-310.5 306,-310.5"/>
<text text-anchor="middle" x="376.5" y="-317.5" font-family="Helvetica,sans-Serif" font-size="10.00">MouseAxisSettingsDialog</text>
</a>
</g>
</g>
<!-- Node147&#45;&gt;Node148 -->
<g id="edge18" class="edge">
<title>Node147&#45;&gt;Node148</title>
<path fill="none" stroke="midnightblue" d="M247.83,-249.13C253.5,-251.3 258.97,-253.9 264,-257 285.51,-270.26 278.67,-287.45 300,-301 306.16,-304.91 313.08,-308.02 320.17,-310.49"/>
<polygon fill="midnightblue" stroke="midnightblue" points="248.75,-245.74 238.15,-245.85 246.5,-252.37 248.75,-245.74"/>
</g>
<!-- Node149 -->
<g id="node20" class="node">
<title>Node149</title>
<g id="a_node20"><a xlink:href="classMouseButtonSettingsDialog.html" target="_top" xlink:title=" ">
<polygon fill="white" stroke="black" points="300.5,-272.5 300.5,-291.5 452.5,-291.5 452.5,-272.5 300.5,-272.5"/>
<text text-anchor="middle" x="376.5" y="-279.5" font-family="Helvetica,sans-Serif" font-size="10.00">MouseButtonSettingsDialog</text>
</a>
</g>
</g>
<!-- Node147&#45;&gt;Node149 -->
<g id="edge19" class="edge">
<title>Node147&#45;&gt;Node149</title>
<path fill="none" stroke="midnightblue" d="M231.84,-249.8C242.48,-252.19 253.6,-254.67 264,-257 286.84,-262.11 312.32,-267.83 333.14,-272.5"/>
<polygon fill="midnightblue" stroke="midnightblue" points="232.33,-246.33 221.81,-247.56 230.8,-253.16 232.33,-246.33"/>
</g>
<!-- Node150 -->
<g id="node21" class="node">
<title>Node150</title>
<g id="a_node21"><a xlink:href="classMouseControlStickSettingsDialog.html" target="_top" xlink:title=" ">
<polygon fill="white" stroke="black" points="302.5,-223 302.5,-253 450.5,-253 450.5,-223 302.5,-223"/>
<text text-anchor="start" x="310.5" y="-241" font-family="Helvetica,sans-Serif" font-size="10.00">MouseControlStickSettings</text>
<text text-anchor="middle" x="376.5" y="-230" font-family="Helvetica,sans-Serif" font-size="10.00">Dialog</text>
</a>
</g>
</g>
<!-- Node147&#45;&gt;Node150 -->
<g id="edge20" class="edge">
<title>Node147&#45;&gt;Node150</title>
<path fill="none" stroke="midnightblue" d="M248.37,-238C265.91,-238 284.79,-238 302.5,-238"/>
<polygon fill="midnightblue" stroke="midnightblue" points="248.22,-234.5 238.22,-238 248.22,-241.5 248.22,-234.5"/>
</g>
<!-- Node151 -->
<g id="node22" class="node">
<title>Node151</title>
<g id="a_node22"><a xlink:href="classMouseDPadSettingsDialog.html" target="_top" xlink:title=" ">
<polygon fill="white" stroke="black" points="304,-184.5 304,-203.5 449,-203.5 449,-184.5 304,-184.5"/>
<text text-anchor="middle" x="376.5" y="-191.5" font-family="Helvetica,sans-Serif" font-size="10.00">MouseDPadSettingsDialog</text>
</a>
</g>
</g>
<!-- Node147&#45;&gt;Node151 -->
<g id="edge21" class="edge">
<title>Node147&#45;&gt;Node151</title>
<path fill="none" stroke="midnightblue" d="M231.84,-226.2C242.48,-223.81 253.6,-221.33 264,-219 286.84,-213.89 312.32,-208.17 333.14,-203.5"/>
<polygon fill="midnightblue" stroke="midnightblue" points="230.8,-222.84 221.81,-228.44 232.33,-229.67 230.8,-222.84"/>
</g>
<!-- Node152 -->
<g id="node23" class="node">
<title>Node152</title>
<g id="a_node23"><a xlink:href="classMouseSensorSettingsDialog.html" target="_top" xlink:title="Mouse settings dialog specialized for sensors.">
<polygon fill="white" stroke="black" points="300,-146.5 300,-165.5 453,-165.5 453,-146.5 300,-146.5"/>
<text text-anchor="middle" x="376.5" y="-153.5" font-family="Helvetica,sans-Serif" font-size="10.00">MouseSensorSettingsDialog</text>
</a>
</g>
</g>
<!-- Node147&#45;&gt;Node152 -->
<g id="edge22" class="edge">
<title>Node147&#45;&gt;Node152</title>
<path fill="none" stroke="midnightblue" d="M247.83,-226.87C253.5,-224.7 258.97,-222.1 264,-219 285.51,-205.74 278.67,-188.55 300,-175 306.16,-171.09 313.08,-167.98 320.17,-165.51"/>
<polygon fill="midnightblue" stroke="midnightblue" points="246.5,-223.63 238.15,-230.15 248.75,-230.26 246.5,-223.63"/>
</g>
</g>
</svg>
