<?xml version="1.0" encoding="UTF-8" standalone="no"?>
<!DOCTYPE svg PUBLIC "-//W3C//DTD SVG 1.1//EN"
 "http://www.w3.org/Graphics/SVG/1.1/DTD/svg11.dtd">
<!-- Generated by graphviz version 2.43.0 (0)
 -->
<!-- Title: /home/runner/work/doxygen/antimicrox/src/xml/inputdevicexml.cpp Pages: 1 -->
<svg width="2137pt" height="319pt"
 viewBox="0.00 0.00 2136.50 319.00" xmlns="http://www.w3.org/2000/svg" xmlns:xlink="http://www.w3.org/1999/xlink">
<g id="graph0" class="graph" transform="scale(1 1) rotate(0) translate(4 315)">
<title>/home/runner/work/doxygen/antimicrox/src/xml/inputdevicexml.cpp</title>
<polygon fill="white" stroke="transparent" points="-4,4 -4,-315 2132.5,-315 2132.5,4 -4,4"/>
<!-- Node1 -->
<g id="node1" class="node">
<title>Node1</title>
<g id="a_node1"><a xlink:title=" ">
<polygon fill="#bfbfbf" stroke="black" points="900,-280.5 900,-310.5 1110,-310.5 1110,-280.5 900,-280.5"/>
<text text-anchor="start" x="908" y="-298.5" font-family="Helvetica,sans-Serif" font-size="10.00">/home/runner/work/doxygen</text>
<text text-anchor="middle" x="1005" y="-287.5" font-family="Helvetica,sans-Serif" font-size="10.00">/antimicrox/src/xml/inputdevicexml.cpp</text>
</a>
</g>
</g>
<!-- Node2 -->
<g id="node2" class="node">
<title>Node2</title>
<g id="a_node2"><a xlink:href="inputdevicexml_8h.html" target="_top" xlink:title=" ">
<polygon fill="white" stroke="black" points="785.5,-168.5 785.5,-187.5 886.5,-187.5 886.5,-168.5 785.5,-168.5"/>
<text text-anchor="middle" x="836" y="-175.5" font-family="Helvetica,sans-Serif" font-size="10.00">inputdevicexml.h</text>
</a>
</g>
</g>
<!-- Node1&#45;&gt;Node2 -->
<g id="edge1" class="edge">
<title>Node1&#45;&gt;Node2</title>
<path fill="none" stroke="midnightblue" d="M962.79,-280.41C940.77,-271.88 914.09,-259.61 893,-244 874.79,-230.52 858.24,-210.34 847.72,-196.05"/>
<polygon fill="midnightblue" stroke="midnightblue" points="850.38,-193.74 841.72,-187.63 844.68,-197.81 850.38,-193.74"/>
</g>
<!-- Node5 -->
<g id="node5" class="node">
<title>Node5</title>
<g id="a_node5"><a xlink:href="inputdevice_8h.html" target="_top" xlink:title=" ">
<polygon fill="white" stroke="black" points="122.5,-168.5 122.5,-187.5 205.5,-187.5 205.5,-168.5 122.5,-168.5"/>
<text text-anchor="middle" x="164" y="-175.5" font-family="Helvetica,sans-Serif" font-size="10.00">inputdevice.h</text>
</a>
</g>
</g>
<!-- Node1&#45;&gt;Node5 -->
<g id="edge4" class="edge">
<title>Node1&#45;&gt;Node5</title>
<path fill="none" stroke="midnightblue" d="M899.74,-294.38C770.25,-292.39 544.31,-282.92 355,-244 296.04,-231.88 230.17,-206.74 193.24,-191.52"/>
<polygon fill="midnightblue" stroke="midnightblue" points="194.19,-188.13 183.62,-187.51 191.5,-194.59 194.19,-188.13"/>
</g>
<!-- Node40 -->
<g id="node17" class="node">
<title>Node40</title>
<g id="a_node17"><a xlink:href="joycontrolstickbutton_8h.html" target="_top" xlink:title=" ">
<polygon fill="white" stroke="black" points="902,-224.5 902,-243.5 1108,-243.5 1108,-224.5 902,-224.5"/>
<text text-anchor="middle" x="1005" y="-231.5" font-family="Helvetica,sans-Serif" font-size="10.00">joybuttontypes/joycontrolstickbutton.h</text>
</a>
</g>
</g>
<!-- Node1&#45;&gt;Node40 -->
<g id="edge21" class="edge">
<title>Node1&#45;&gt;Node40</title>
<path fill="none" stroke="midnightblue" d="M1005,-280.4C1005,-272.47 1005,-262.46 1005,-253.86"/>
<polygon fill="midnightblue" stroke="midnightblue" points="1008.5,-253.66 1005,-243.66 1001.5,-253.66 1008.5,-253.66"/>
</g>
<!-- Node19 -->
<g id="node20" class="node">
<title>Node19</title>
<g id="a_node20"><a xlink:href="globalvariables_8h.html" target="_top" xlink:title=" ">
<polygon fill="white" stroke="black" points="650.5,-56.5 650.5,-75.5 751.5,-75.5 751.5,-56.5 650.5,-56.5"/>
<text text-anchor="middle" x="701" y="-63.5" font-family="Helvetica,sans-Serif" font-size="10.00">globalvariables.h</text>
</a>
</g>
</g>
<!-- Node1&#45;&gt;Node19 -->
<g id="edge74" class="edge">
<title>Node1&#45;&gt;Node19</title>
<path fill="none" stroke="midnightblue" d="M917.35,-280.49C852.11,-266.36 763.98,-239.04 702,-188 672.53,-163.74 648.66,-147.76 662,-112 666.17,-100.81 674.52,-90.56 682.42,-82.68"/>
<polygon fill="midnightblue" stroke="midnightblue" points="685.06,-85 690.01,-75.63 680.3,-79.87 685.06,-85"/>
</g>
<!-- Node42 -->
<g id="node29" class="node">
<title>Node42</title>
<g id="a_node29"><a xlink:href="joysensorbutton_8h.html" target="_top" xlink:title=" ">
<polygon fill="white" stroke="black" points="364.5,-224.5 364.5,-243.5 545.5,-243.5 545.5,-224.5 364.5,-224.5"/>
<text text-anchor="middle" x="455" y="-231.5" font-family="Helvetica,sans-Serif" font-size="10.00">joybuttontypes/joysensorbutton.h</text>
</a>
</g>
</g>
<!-- Node1&#45;&gt;Node42 -->
<g id="edge37" class="edge">
<title>Node1&#45;&gt;Node42</title>
<path fill="none" stroke="midnightblue" d="M899.93,-283.13C796.79,-271.98 641.2,-255.14 543.99,-244.63"/>
<polygon fill="midnightblue" stroke="midnightblue" points="544.21,-241.13 533.89,-243.53 543.46,-248.09 544.21,-241.13"/>
</g>
<!-- Node34 -->
<g id="node30" class="node">
<title>Node34</title>
<g id="a_node30"><a xlink:href="logger_8h.html" target="_top" xlink:title=" ">
<polygon fill="white" stroke="black" points="711,-168.5 711,-187.5 767,-187.5 767,-168.5 711,-168.5"/>
<text text-anchor="middle" x="739" y="-175.5" font-family="Helvetica,sans-Serif" font-size="10.00">logger.h</text>
</a>
</g>
</g>
<!-- Node1&#45;&gt;Node34 -->
<g id="edge75" class="edge">
<title>Node1&#45;&gt;Node34</title>
<path fill="none" stroke="midnightblue" d="M963.15,-280.46C935.77,-270.94 899.39,-257.64 868,-244 830.88,-227.87 789.3,-206.24 763.63,-192.46"/>
<polygon fill="midnightblue" stroke="midnightblue" points="765.07,-189.27 754.61,-187.59 761.75,-195.43 765.07,-189.27"/>
</g>
<!-- Node43 -->
<g id="node34" class="node">
<title>Node43</title>
<g id="a_node34"><a xlink:href="joycontrolstick_8h.html" target="_top" xlink:title=" ">
<polygon fill="white" stroke="black" points="1139,-224.5 1139,-243.5 1237,-243.5 1237,-224.5 1139,-224.5"/>
<text text-anchor="middle" x="1188" y="-231.5" font-family="Helvetica,sans-Serif" font-size="10.00">joycontrolstick.h</text>
</a>
</g>
</g>
<!-- Node1&#45;&gt;Node43 -->
<g id="edge48" class="edge">
<title>Node1&#45;&gt;Node43</title>
<path fill="none" stroke="midnightblue" d="M1048.37,-280.4C1079.99,-270.12 1122.33,-256.35 1152.07,-246.68"/>
<polygon fill="midnightblue" stroke="midnightblue" points="1153.21,-249.99 1161.64,-243.57 1151.05,-243.33 1153.21,-249.99"/>
</g>
<!-- Node44 -->
<g id="node35" class="node">
<title>Node44</title>
<g id="a_node35"><a xlink:href="joysensor_8h.html" target="_top" xlink:title=" ">
<polygon fill="white" stroke="black" points="512,-112.5 512,-131.5 584,-131.5 584,-112.5 512,-112.5"/>
<text text-anchor="middle" x="548" y="-119.5" font-family="Helvetica,sans-Serif" font-size="10.00">joysensor.h</text>
</a>
</g>
</g>
<!-- Node1&#45;&gt;Node44 -->
<g id="edge52" class="edge">
<title>Node1&#45;&gt;Node44</title>
<path fill="none" stroke="midnightblue" d="M899.71,-293.23C795.14,-289.93 643.94,-279.01 598,-244 565.41,-219.17 553.93,-169.32 549.98,-141.99"/>
<polygon fill="midnightblue" stroke="midnightblue" points="553.42,-141.29 548.72,-131.8 546.48,-142.15 553.42,-141.29"/>
</g>
<!-- Node46 -->
<g id="node37" class="node">
<title>Node46</title>
<g id="a_node37"><a xlink:href="vdpad_8h.html" target="_top" xlink:title=" ">
<polygon fill="white" stroke="black" points="1293,-224.5 1293,-243.5 1349,-243.5 1349,-224.5 1293,-224.5"/>
<text text-anchor="middle" x="1321" y="-231.5" font-family="Helvetica,sans-Serif" font-size="10.00">vdpad.h</text>
</a>
</g>
</g>
<!-- Node1&#45;&gt;Node46 -->
<g id="edge59" class="edge">
<title>Node1&#45;&gt;Node46</title>
<path fill="none" stroke="midnightblue" d="M1084.55,-280.46C1139.3,-270.65 1213.65,-257.02 1279,-244 1280.23,-243.75 1281.49,-243.5 1282.75,-243.24"/>
<polygon fill="midnightblue" stroke="midnightblue" points="1283.48,-246.67 1292.56,-241.21 1282.05,-239.81 1283.48,-246.67"/>
</g>
<!-- Node49 -->
<g id="node39" class="node">
<title>Node49</title>
<g id="a_node39"><a xlink:href="common_8h.html" target="_top" xlink:title=" ">
<polygon fill="white" stroke="black" points="1527,-168.5 1527,-187.5 1595,-187.5 1595,-168.5 1527,-168.5"/>
<text text-anchor="middle" x="1561" y="-175.5" font-family="Helvetica,sans-Serif" font-size="10.00">common.h</text>
</a>
</g>
</g>
<!-- Node1&#45;&gt;Node49 -->
<g id="edge62" class="edge">
<title>Node1&#45;&gt;Node49</title>
<path fill="none" stroke="midnightblue" d="M1102.28,-280.46C1146.88,-272.43 1199.95,-260.58 1246,-244 1263.96,-237.54 1265.9,-230.05 1284,-224 1363.44,-197.43 1461.11,-186.25 1516.69,-181.78"/>
<polygon fill="midnightblue" stroke="midnightblue" points="1517.2,-185.25 1526.9,-180.99 1516.66,-178.27 1517.2,-185.25"/>
</g>
<!-- Node61 -->
<g id="node48" class="node">
<title>Node61</title>
<g id="a_node48"><a xlink:title=" ">
<polygon fill="white" stroke="#bfbfbf" points="1367,-224.5 1367,-243.5 1423,-243.5 1423,-224.5 1367,-224.5"/>
<text text-anchor="middle" x="1395" y="-231.5" font-family="Helvetica,sans-Serif" font-size="10.00">QDebug</text>
</a>
</g>
</g>
<!-- Node1&#45;&gt;Node61 -->
<g id="edge76" class="edge">
<title>Node1&#45;&gt;Node61</title>
<path fill="none" stroke="midnightblue" d="M1110.09,-282.16C1177.97,-273.56 1268.36,-260.91 1356.84,-244.07"/>
<polygon fill="midnightblue" stroke="midnightblue" points="1357.62,-247.49 1366.78,-242.16 1356.3,-240.61 1357.62,-247.49"/>
</g>
<!-- Node62 -->
<g id="node49" class="node">
<title>Node62</title>
<g id="a_node49"><a xlink:title=" ">
<polygon fill="white" stroke="#bfbfbf" points="1441.5,-224.5 1441.5,-243.5 1554.5,-243.5 1554.5,-224.5 1441.5,-224.5"/>
<text text-anchor="middle" x="1498" y="-231.5" font-family="Helvetica,sans-Serif" font-size="10.00">QXmlStreamReader</text>
</a>
</g>
</g>
<!-- Node1&#45;&gt;Node62 -->
<g id="edge77" class="edge">
<title>Node1&#45;&gt;Node62</title>
<path fill="none" stroke="midnightblue" d="M1110.35,-282.57C1194.36,-272.93 1315.32,-258.78 1431.35,-244.06"/>
<polygon fill="midnightblue" stroke="midnightblue" points="1432,-247.51 1441.48,-242.77 1431.12,-240.56 1432,-247.51"/>
</g>
<!-- Node63 -->
<g id="node50" class="node">
<title>Node63</title>
<g id="a_node50"><a xlink:title=" ">
<polygon fill="white" stroke="#bfbfbf" points="1572.5,-224.5 1572.5,-243.5 1681.5,-243.5 1681.5,-224.5 1572.5,-224.5"/>
<text text-anchor="middle" x="1627" y="-231.5" font-family="Helvetica,sans-Serif" font-size="10.00">QXmlStreamWriter</text>
</a>
</g>
</g>
<!-- Node1&#45;&gt;Node63 -->
<g id="edge78" class="edge">
<title>Node1&#45;&gt;Node63</title>
<path fill="none" stroke="midnightblue" d="M1110.26,-286.63C1220.44,-278.01 1398.74,-263.01 1562.14,-244.17"/>
<polygon fill="midnightblue" stroke="midnightblue" points="1562.86,-247.61 1572.39,-242.98 1562.05,-240.65 1562.86,-247.61"/>
</g>
<!-- Node3 -->
<g id="node3" class="node">
<title>Node3</title>
<g id="a_node3"><a xlink:title=" ">
<polygon fill="white" stroke="#bfbfbf" points="948.5,-112.5 948.5,-131.5 1003.5,-131.5 1003.5,-112.5 948.5,-112.5"/>
<text text-anchor="middle" x="976" y="-119.5" font-family="Helvetica,sans-Serif" font-size="10.00">QMutex</text>
</a>
</g>
</g>
<!-- Node2&#45;&gt;Node3 -->
<g id="edge2" class="edge">
<title>Node2&#45;&gt;Node3</title>
<path fill="none" stroke="midnightblue" d="M858.18,-168.44C881.43,-159.48 918.15,-145.31 944.42,-135.18"/>
<polygon fill="midnightblue" stroke="midnightblue" points="945.85,-138.38 953.92,-131.52 943.33,-131.85 945.85,-138.38"/>
</g>
<!-- Node4 -->
<g id="node4" class="node">
<title>Node4</title>
<g id="a_node4"><a xlink:title=" ">
<polygon fill="white" stroke="#bfbfbf" points="752,-0.5 752,-19.5 808,-19.5 808,-0.5 752,-0.5"/>
<text text-anchor="middle" x="780" y="-7.5" font-family="Helvetica,sans-Serif" font-size="10.00">QObject</text>
</a>
</g>
</g>
<!-- Node2&#45;&gt;Node4 -->
<g id="edge3" class="edge">
<title>Node2&#45;&gt;Node4</title>
<path fill="none" stroke="midnightblue" d="M881.21,-168.41C930.62,-158.57 1003.88,-142.46 1012,-132 1017.45,-124.98 1017.62,-118.89 1012,-112 961.83,-50.45 905.64,-115.93 837,-76 817.21,-64.48 800.76,-43.61 790.7,-28.62"/>
<polygon fill="midnightblue" stroke="midnightblue" points="793.38,-26.31 785.04,-19.77 787.48,-30.08 793.38,-26.31"/>
</g>
<!-- Node6 -->
<g id="node6" class="node">
<title>Node6</title>
<g id="a_node6"><a xlink:href="inputdevicecalibration_8h.html" target="_top" xlink:title=" ">
<polygon fill="white" stroke="black" points="360,-112.5 360,-131.5 494,-131.5 494,-112.5 360,-112.5"/>
<text text-anchor="middle" x="427" y="-119.5" font-family="Helvetica,sans-Serif" font-size="10.00">inputdevicecalibration.h</text>
</a>
</g>
</g>
<!-- Node5&#45;&gt;Node6 -->
<g id="edge5" class="edge">
<title>Node5&#45;&gt;Node6</title>
<path fill="none" stroke="midnightblue" d="M205.67,-168.44C251.75,-158.98 326,-143.74 375.63,-133.55"/>
<polygon fill="midnightblue" stroke="midnightblue" points="376.43,-136.96 385.52,-131.52 375.02,-130.1 376.43,-136.96"/>
</g>
<!-- Node8 -->
<g id="node8" class="node">
<title>Node8</title>
<g id="a_node8"><a xlink:href="joysensordirection_8h.html" target="_top" xlink:title=" ">
<polygon fill="white" stroke="black" points="0,-56.5 0,-75.5 116,-75.5 116,-56.5 0,-56.5"/>
<text text-anchor="middle" x="58" y="-63.5" font-family="Helvetica,sans-Serif" font-size="10.00">joysensordirection.h</text>
</a>
</g>
</g>
<!-- Node5&#45;&gt;Node8 -->
<g id="edge7" class="edge">
<title>Node5&#45;&gt;Node8</title>
<path fill="none" stroke="midnightblue" d="M122.42,-173.42C94.92,-168.65 60.78,-157.58 43,-132 33.32,-118.07 39.62,-98.81 46.79,-84.87"/>
<polygon fill="midnightblue" stroke="midnightblue" points="50.04,-86.24 51.95,-75.82 43.96,-82.77 50.04,-86.24"/>
</g>
<!-- Node10 -->
<g id="node10" class="node">
<title>Node10</title>
<g id="a_node10"><a xlink:href="joysensortype_8h.html" target="_top" xlink:title=" ">
<polygon fill="white" stroke="black" points="134.5,-56.5 134.5,-75.5 229.5,-75.5 229.5,-56.5 134.5,-56.5"/>
<text text-anchor="middle" x="182" y="-63.5" font-family="Helvetica,sans-Serif" font-size="10.00">joysensortype.h</text>
</a>
</g>
</g>
<!-- Node5&#45;&gt;Node10 -->
<g id="edge9" class="edge">
<title>Node5&#45;&gt;Node10</title>
<path fill="none" stroke="midnightblue" d="M167.02,-168.5C170.07,-159.54 174.65,-144.96 177,-132 179.77,-116.67 181.01,-99.03 181.56,-86"/>
<polygon fill="midnightblue" stroke="midnightblue" points="185.06,-86.01 181.89,-75.9 178.07,-85.79 185.06,-86.01"/>
</g>
<!-- Node12 -->
<g id="node12" class="node">
<title>Node12</title>
<g id="a_node12"><a xlink:href="setjoystick_8h.html" target="_top" xlink:title=" ">
<polygon fill="white" stroke="black" points="262.5,-112.5 262.5,-131.5 341.5,-131.5 341.5,-112.5 262.5,-112.5"/>
<text text-anchor="middle" x="302" y="-119.5" font-family="Helvetica,sans-Serif" font-size="10.00">setjoystick.h</text>
</a>
</g>
</g>
<!-- Node5&#45;&gt;Node12 -->
<g id="edge12" class="edge">
<title>Node5&#45;&gt;Node12</title>
<path fill="none" stroke="midnightblue" d="M185.87,-168.44C208.78,-159.48 244.98,-145.31 270.87,-135.18"/>
<polygon fill="midnightblue" stroke="midnightblue" points="272.2,-138.42 280.24,-131.52 269.65,-131.9 272.2,-138.42"/>
</g>
<!-- Node39 -->
<g id="node16" class="node">
<title>Node39</title>
<g id="a_node16"><a xlink:title=" ">
<polygon fill="white" stroke="#bfbfbf" points="52,-112.5 52,-131.5 168,-131.5 168,-112.5 52,-112.5"/>
<text text-anchor="middle" x="110" y="-119.5" font-family="Helvetica,sans-Serif" font-size="10.00">SDL2/SDL_joystick.h</text>
</a>
</g>
</g>
<!-- Node5&#45;&gt;Node39 -->
<g id="edge20" class="edge">
<title>Node5&#45;&gt;Node39</title>
<path fill="none" stroke="midnightblue" d="M155.08,-168.08C147.22,-160.22 135.57,-148.57 126.08,-139.08"/>
<polygon fill="midnightblue" stroke="midnightblue" points="128.3,-136.35 118.75,-131.75 123.35,-141.3 128.3,-136.35"/>
</g>
<!-- Node7 -->
<g id="node7" class="node">
<title>Node7</title>
<g id="a_node7"><a xlink:title=" ">
<polygon fill="white" stroke="#bfbfbf" points="463.5,-56.5 463.5,-75.5 512.5,-75.5 512.5,-56.5 463.5,-56.5"/>
<text text-anchor="middle" x="488" y="-63.5" font-family="Helvetica,sans-Serif" font-size="10.00">QHash</text>
</a>
</g>
</g>
<!-- Node6&#45;&gt;Node7 -->
<g id="edge6" class="edge">
<title>Node6&#45;&gt;Node7</title>
<path fill="none" stroke="midnightblue" d="M436.8,-112.32C445.82,-104.34 459.41,-92.31 470.32,-82.65"/>
<polygon fill="midnightblue" stroke="midnightblue" points="472.85,-85.08 478.02,-75.83 468.21,-79.84 472.85,-85.08"/>
</g>
<!-- Node9 -->
<g id="node9" class="node">
<title>Node9</title>
<g id="a_node9"><a xlink:title=" ">
<polygon fill="white" stroke="#bfbfbf" points="39.5,-0.5 39.5,-19.5 110.5,-19.5 110.5,-0.5 39.5,-0.5"/>
<text text-anchor="middle" x="75" y="-7.5" font-family="Helvetica,sans-Serif" font-size="10.00">QMetaType</text>
</a>
</g>
</g>
<!-- Node8&#45;&gt;Node9 -->
<g id="edge8" class="edge">
<title>Node8&#45;&gt;Node9</title>
<path fill="none" stroke="midnightblue" d="M60.81,-56.08C63.08,-48.85 66.37,-38.41 69.21,-29.4"/>
<polygon fill="midnightblue" stroke="midnightblue" points="72.58,-30.34 72.25,-19.75 65.9,-28.24 72.58,-30.34"/>
</g>
<!-- Node10&#45;&gt;Node9 -->
<g id="edge10" class="edge">
<title>Node10&#45;&gt;Node9</title>
<path fill="none" stroke="midnightblue" d="M164.81,-56.32C147.65,-47.66 121.05,-34.24 101.25,-24.25"/>
<polygon fill="midnightblue" stroke="midnightblue" points="102.65,-21.04 92.15,-19.65 99.5,-27.28 102.65,-21.04"/>
</g>
<!-- Node11 -->
<g id="node11" class="node">
<title>Node11</title>
<g id="a_node11"><a xlink:title=" ">
<polygon fill="white" stroke="#bfbfbf" points="146,-0.5 146,-19.5 218,-19.5 218,-0.5 146,-0.5"/>
<text text-anchor="middle" x="182" y="-7.5" font-family="Helvetica,sans-Serif" font-size="10.00">SDL2/SDL.h</text>
</a>
</g>
</g>
<!-- Node10&#45;&gt;Node11 -->
<g id="edge11" class="edge">
<title>Node10&#45;&gt;Node11</title>
<path fill="none" stroke="midnightblue" d="M182,-56.08C182,-49.01 182,-38.86 182,-29.99"/>
<polygon fill="midnightblue" stroke="midnightblue" points="185.5,-29.75 182,-19.75 178.5,-29.75 185.5,-29.75"/>
</g>
<!-- Node12&#45;&gt;Node8 -->
<g id="edge16" class="edge">
<title>Node12&#45;&gt;Node8</title>
<path fill="none" stroke="midnightblue" d="M263.34,-112.44C220.86,-103.04 152.57,-87.93 106.53,-77.74"/>
<polygon fill="midnightblue" stroke="midnightblue" points="107,-74.26 96.48,-75.52 105.49,-81.09 107,-74.26"/>
</g>
<!-- Node12&#45;&gt;Node10 -->
<g id="edge17" class="edge">
<title>Node12&#45;&gt;Node10</title>
<path fill="none" stroke="midnightblue" d="M282.99,-112.44C263.41,-103.64 232.69,-89.81 210.27,-79.72"/>
<polygon fill="midnightblue" stroke="midnightblue" points="211.48,-76.43 200.93,-75.52 208.61,-82.81 211.48,-76.43"/>
</g>
<!-- Node13 -->
<g id="node13" class="node">
<title>Node13</title>
<g id="a_node13"><a xlink:href="joyaxis_8h.html" target="_top" xlink:title=" ">
<polygon fill="white" stroke="red" points="247.5,-56.5 247.5,-75.5 308.5,-75.5 308.5,-56.5 247.5,-56.5"/>
<text text-anchor="middle" x="278" y="-63.5" font-family="Helvetica,sans-Serif" font-size="10.00">joyaxis.h</text>
</a>
</g>
</g>
<!-- Node12&#45;&gt;Node13 -->
<g id="edge13" class="edge">
<title>Node12&#45;&gt;Node13</title>
<path fill="none" stroke="midnightblue" d="M298.04,-112.08C294.79,-104.77 290.08,-94.18 286.05,-85.1"/>
<polygon fill="midnightblue" stroke="midnightblue" points="289.15,-83.47 281.89,-75.75 282.75,-86.31 289.15,-83.47"/>
</g>
<!-- Node38 -->
<g id="node15" class="node">
<title>Node38</title>
<g id="a_node15"><a xlink:href="setjoystickxml_8h.html" target="_top" xlink:title=" ">
<polygon fill="white" stroke="black" points="326.5,-56.5 326.5,-75.5 445.5,-75.5 445.5,-56.5 326.5,-56.5"/>
<text text-anchor="middle" x="386" y="-63.5" font-family="Helvetica,sans-Serif" font-size="10.00">xml/setjoystickxml.h</text>
</a>
</g>
</g>
<!-- Node12&#45;&gt;Node38 -->
<g id="edge18" class="edge">
<title>Node12&#45;&gt;Node38</title>
<path fill="none" stroke="midnightblue" d="M315.5,-112.32C328.6,-103.9 348.71,-90.97 364.11,-81.07"/>
<polygon fill="midnightblue" stroke="midnightblue" points="366.02,-84.01 372.54,-75.65 362.23,-78.12 366.02,-84.01"/>
</g>
<!-- Node13&#45;&gt;Node4 -->
<g id="edge15" class="edge">
<title>Node13&#45;&gt;Node4</title>
<path fill="none" stroke="midnightblue" d="M308.58,-57.55C311.42,-56.98 314.26,-56.45 317,-56 473.57,-30.44 662.46,-17.61 741.89,-13.02"/>
<polygon fill="midnightblue" stroke="midnightblue" points="742.13,-16.52 751.91,-12.46 741.73,-9.53 742.13,-16.52"/>
</g>
<!-- Node14 -->
<g id="node14" class="node">
<title>Node14</title>
<g id="a_node14"><a xlink:title=" ">
<polygon fill="white" stroke="#bfbfbf" points="468.5,-0.5 468.5,-19.5 509.5,-19.5 509.5,-0.5 468.5,-0.5"/>
<text text-anchor="middle" x="489" y="-7.5" font-family="Helvetica,sans-Serif" font-size="10.00">QList</text>
</a>
</g>
</g>
<!-- Node13&#45;&gt;Node14 -->
<g id="edge14" class="edge">
<title>Node13&#45;&gt;Node14</title>
<path fill="none" stroke="midnightblue" d="M308.68,-57.15C348.85,-46.87 418.82,-28.96 458.76,-18.74"/>
<polygon fill="midnightblue" stroke="midnightblue" points="459.65,-22.12 468.47,-16.25 457.92,-15.34 459.65,-22.12"/>
</g>
<!-- Node38&#45;&gt;Node4 -->
<g id="edge19" class="edge">
<title>Node38&#45;&gt;Node4</title>
<path fill="none" stroke="midnightblue" d="M445.84,-56.8C527.95,-45.54 673.17,-25.64 741.9,-16.22"/>
<polygon fill="midnightblue" stroke="midnightblue" points="742.43,-19.68 751.86,-14.86 741.48,-12.75 742.43,-19.68"/>
</g>
<!-- Node17 -->
<g id="node18" class="node">
<title>Node17</title>
<g id="a_node18"><a xlink:href="joygradientbutton_8h.html" target="_top" xlink:title=" ">
<polygon fill="white" stroke="black" points="904.5,-168.5 904.5,-187.5 1093.5,-187.5 1093.5,-168.5 904.5,-168.5"/>
<text text-anchor="middle" x="999" y="-175.5" font-family="Helvetica,sans-Serif" font-size="10.00">joybuttontypes/joygradientbutton.h</text>
</a>
</g>
</g>
<!-- Node40&#45;&gt;Node17 -->
<g id="edge22" class="edge">
<title>Node40&#45;&gt;Node17</title>
<path fill="none" stroke="midnightblue" d="M1004.01,-224.08C1003.21,-216.93 1002.07,-206.64 1001.08,-197.69"/>
<polygon fill="midnightblue" stroke="midnightblue" points="1004.56,-197.3 999.97,-187.75 997.6,-198.08 1004.56,-197.3"/>
</g>
<!-- Node41 -->
<g id="node28" class="node">
<title>Node41</title>
<g id="a_node28"><a xlink:href="joycontrolstickdirectionstype_8h.html" target="_top" xlink:title=" ">
<polygon fill="white" stroke="black" points="1111.5,-168.5 1111.5,-187.5 1278.5,-187.5 1278.5,-168.5 1111.5,-168.5"/>
<text text-anchor="middle" x="1195" y="-175.5" font-family="Helvetica,sans-Serif" font-size="10.00">joycontrolstickdirectionstype.h</text>
</a>
</g>
</g>
<!-- Node40&#45;&gt;Node41 -->
<g id="edge36" class="edge">
<title>Node40&#45;&gt;Node41</title>
<path fill="none" stroke="midnightblue" d="M1035.11,-224.44C1067.63,-215.2 1119.58,-200.44 1155.39,-190.26"/>
<polygon fill="midnightblue" stroke="midnightblue" points="1156.37,-193.62 1165.03,-187.52 1154.46,-186.88 1156.37,-193.62"/>
</g>
<!-- Node18 -->
<g id="node19" class="node">
<title>Node18</title>
<g id="a_node19"><a xlink:href="joybutton_8h.html" target="_top" xlink:title=" ">
<polygon fill="white" stroke="red" points="1098,-112.5 1098,-131.5 1170,-131.5 1170,-112.5 1098,-112.5"/>
<text text-anchor="middle" x="1134" y="-119.5" font-family="Helvetica,sans-Serif" font-size="10.00">joybutton.h</text>
</a>
</g>
</g>
<!-- Node17&#45;&gt;Node18 -->
<g id="edge23" class="edge">
<title>Node17&#45;&gt;Node18</title>
<path fill="none" stroke="midnightblue" d="M1020.39,-168.44C1042.71,-159.52 1077.9,-145.44 1103.21,-135.32"/>
<polygon fill="midnightblue" stroke="midnightblue" points="1104.72,-138.48 1112.71,-131.52 1102.12,-131.98 1104.72,-138.48"/>
</g>
<!-- Node18&#45;&gt;Node19 -->
<g id="edge24" class="edge">
<title>Node18&#45;&gt;Node19</title>
<path fill="none" stroke="midnightblue" d="M1097.83,-116.49C1023.58,-107.23 853.27,-85.99 761.77,-74.58"/>
<polygon fill="midnightblue" stroke="midnightblue" points="762.18,-71.1 751.83,-73.34 761.32,-78.05 762.18,-71.1"/>
</g>
<!-- Node20 -->
<g id="node21" class="node">
<title>Node20</title>
<g id="a_node21"><a xlink:href="joybuttonmousehelper_8h.html" target="_top" xlink:title=" ">
<polygon fill="white" stroke="black" points="922.5,-56.5 922.5,-75.5 1057.5,-75.5 1057.5,-56.5 922.5,-56.5"/>
<text text-anchor="middle" x="990" y="-63.5" font-family="Helvetica,sans-Serif" font-size="10.00">joybuttonmousehelper.h</text>
</a>
</g>
</g>
<!-- Node18&#45;&gt;Node20 -->
<g id="edge27" class="edge">
<title>Node18&#45;&gt;Node20</title>
<path fill="none" stroke="midnightblue" d="M1111.18,-112.44C1087.17,-103.44 1049.17,-89.19 1022.13,-79.05"/>
<polygon fill="midnightblue" stroke="midnightblue" points="1023.3,-75.75 1012.71,-75.52 1020.84,-82.3 1023.3,-75.75"/>
</g>
<!-- Node21 -->
<g id="node22" class="node">
<title>Node21</title>
<g id="a_node22"><a xlink:href="joybuttonslot_8h.html" target="_top" xlink:title=" ">
<polygon fill="white" stroke="red" points="1452,-56.5 1452,-75.5 1542,-75.5 1542,-56.5 1452,-56.5"/>
<text text-anchor="middle" x="1497" y="-63.5" font-family="Helvetica,sans-Serif" font-size="10.00">joybuttonslot.h</text>
</a>
</g>
</g>
<!-- Node18&#45;&gt;Node21 -->
<g id="edge29" class="edge">
<title>Node18&#45;&gt;Node21</title>
<path fill="none" stroke="midnightblue" d="M1170.13,-115.62C1233.76,-106.16 1366.18,-86.46 1441.48,-75.26"/>
<polygon fill="midnightblue" stroke="midnightblue" points="1442.34,-78.67 1451.72,-73.74 1441.31,-71.75 1442.34,-78.67"/>
</g>
<!-- Node27 -->
<g id="node24" class="node">
<title>Node27</title>
<g id="a_node24"><a xlink:href="springmousemoveinfo_8h.html" target="_top" xlink:title=" ">
<polygon fill="white" stroke="black" points="1146.5,-56.5 1146.5,-75.5 1281.5,-75.5 1281.5,-56.5 1146.5,-56.5"/>
<text text-anchor="middle" x="1214" y="-63.5" font-family="Helvetica,sans-Serif" font-size="10.00">springmousemoveinfo.h</text>
</a>
</g>
</g>
<!-- Node18&#45;&gt;Node27 -->
<g id="edge32" class="edge">
<title>Node18&#45;&gt;Node27</title>
<path fill="none" stroke="midnightblue" d="M1146.85,-112.32C1159.22,-103.98 1178.13,-91.21 1192.74,-81.35"/>
<polygon fill="midnightblue" stroke="midnightblue" points="1194.85,-84.15 1201.18,-75.65 1190.93,-78.35 1194.85,-84.15"/>
</g>
<!-- Node28 -->
<g id="node25" class="node">
<title>Node28</title>
<g id="a_node25"><a xlink:title=" ">
<polygon fill="white" stroke="#bfbfbf" points="1300,-56.5 1300,-75.5 1396,-75.5 1396,-56.5 1300,-56.5"/>
<text text-anchor="middle" x="1348" y="-63.5" font-family="Helvetica,sans-Serif" font-size="10.00">QDeadlineTimer</text>
</a>
</g>
</g>
<!-- Node18&#45;&gt;Node28 -->
<g id="edge33" class="edge">
<title>Node18&#45;&gt;Node28</title>
<path fill="none" stroke="midnightblue" d="M1167.91,-112.44C1204.85,-103.12 1264.05,-88.18 1304.42,-78"/>
<polygon fill="midnightblue" stroke="midnightblue" points="1305.41,-81.36 1314.25,-75.52 1303.7,-74.57 1305.41,-81.36"/>
</g>
<!-- Node32 -->
<g id="node26" class="node">
<title>Node32</title>
<g id="a_node26"><a xlink:title=" ">
<polygon fill="white" stroke="#bfbfbf" points="846,-56.5 846,-75.5 904,-75.5 904,-56.5 846,-56.5"/>
<text text-anchor="middle" x="875" y="-63.5" font-family="Helvetica,sans-Serif" font-size="10.00">QThread</text>
</a>
</g>
</g>
<!-- Node18&#45;&gt;Node32 -->
<g id="edge34" class="edge">
<title>Node18&#45;&gt;Node32</title>
<path fill="none" stroke="midnightblue" d="M1097.94,-114.02C1056.1,-105.85 984.78,-91.66 914,-76.17"/>
<polygon fill="midnightblue" stroke="midnightblue" points="914.54,-72.7 904.02,-73.97 913.04,-79.54 914.54,-72.7"/>
</g>
<!-- Node33 -->
<g id="node27" class="node">
<title>Node33</title>
<g id="a_node27"><a xlink:title=" ">
<polygon fill="white" stroke="#bfbfbf" points="1075.5,-56.5 1075.5,-75.5 1128.5,-75.5 1128.5,-56.5 1075.5,-56.5"/>
<text text-anchor="middle" x="1102" y="-63.5" font-family="Helvetica,sans-Serif" font-size="10.00">QTimer</text>
</a>
</g>
</g>
<!-- Node18&#45;&gt;Node33 -->
<g id="edge35" class="edge">
<title>Node18&#45;&gt;Node33</title>
<path fill="none" stroke="midnightblue" d="M1128.72,-112.08C1124.29,-104.61 1117.84,-93.72 1112.38,-84.52"/>
<polygon fill="midnightblue" stroke="midnightblue" points="1115.29,-82.57 1107.19,-75.75 1109.27,-86.14 1115.29,-82.57"/>
</g>
<!-- Node19&#45;&gt;Node4 -->
<g id="edge26" class="edge">
<title>Node19&#45;&gt;Node4</title>
<path fill="none" stroke="midnightblue" d="M713.69,-56.32C725.9,-47.98 744.58,-35.21 759,-25.35"/>
<polygon fill="midnightblue" stroke="midnightblue" points="761.06,-28.19 767.34,-19.65 757.11,-22.41 761.06,-28.19"/>
</g>
<!-- Node19&#45;&gt;Node14 -->
<g id="edge25" class="edge">
<title>Node19&#45;&gt;Node14</title>
<path fill="none" stroke="midnightblue" d="M667.41,-56.44C626.68,-46.07 558.64,-28.74 519.4,-18.74"/>
<polygon fill="midnightblue" stroke="midnightblue" points="520.17,-15.33 509.61,-16.25 518.44,-22.11 520.17,-15.33"/>
</g>
<!-- Node20&#45;&gt;Node4 -->
<g id="edge28" class="edge">
<title>Node20&#45;&gt;Node4</title>
<path fill="none" stroke="midnightblue" d="M956.72,-56.44C918.96,-46.73 857.47,-30.92 817.89,-20.74"/>
<polygon fill="midnightblue" stroke="midnightblue" points="818.64,-17.32 808.08,-18.22 816.89,-24.1 818.64,-17.32"/>
</g>
<!-- Node21&#45;&gt;Node4 -->
<g id="edge30" class="edge">
<title>Node21&#45;&gt;Node4</title>
<path fill="none" stroke="midnightblue" d="M1451.95,-57.73C1447.25,-57.09 1442.53,-56.5 1438,-56 1203.31,-30.12 919.79,-16.74 818.37,-12.51"/>
<polygon fill="midnightblue" stroke="midnightblue" points="818.43,-9.01 808.29,-12.09 818.14,-16 818.43,-9.01"/>
</g>
<!-- Node23 -->
<g id="node23" class="node">
<title>Node23</title>
<g id="a_node23"><a xlink:title=" ">
<polygon fill="white" stroke="#bfbfbf" points="1540.5,-0.5 1540.5,-19.5 1599.5,-19.5 1599.5,-0.5 1540.5,-0.5"/>
<text text-anchor="middle" x="1570" y="-7.5" font-family="Helvetica,sans-Serif" font-size="10.00">QPointer</text>
</a>
</g>
</g>
<!-- Node21&#45;&gt;Node23 -->
<g id="edge31" class="edge">
<title>Node21&#45;&gt;Node23</title>
<path fill="none" stroke="midnightblue" d="M1508.73,-56.32C1519.84,-48.11 1536.74,-35.6 1549.98,-25.81"/>
<polygon fill="midnightblue" stroke="midnightblue" points="1552.1,-28.59 1558.06,-19.83 1547.94,-22.97 1552.1,-28.59"/>
</g>
<!-- Node42&#45;&gt;Node8 -->
<g id="edge39" class="edge">
<title>Node42&#45;&gt;Node8</title>
<path fill="none" stroke="midnightblue" d="M364.14,-233C293.42,-230.21 194.02,-220.06 113,-188 73.32,-172.3 54.48,-169.97 35,-132 27.01,-116.42 35.65,-97.43 44.54,-84.01"/>
<polygon fill="midnightblue" stroke="midnightblue" points="47.51,-85.87 50.52,-75.72 41.83,-81.78 47.51,-85.87"/>
</g>
<!-- Node42&#45;&gt;Node10 -->
<g id="edge40" class="edge">
<title>Node42&#45;&gt;Node10</title>
<path fill="none" stroke="midnightblue" d="M433.28,-224.5C395.06,-209.03 314.06,-173.99 253,-132 232.05,-117.59 210.93,-97.35 197.23,-83.3"/>
<polygon fill="midnightblue" stroke="midnightblue" points="199.53,-80.64 190.09,-75.83 194.47,-85.48 199.53,-80.64"/>
</g>
<!-- Node42&#45;&gt;Node17 -->
<g id="edge38" class="edge">
<title>Node42&#45;&gt;Node17</title>
<path fill="none" stroke="midnightblue" d="M540.9,-224.47C639.42,-214.69 800.51,-198.7 903.06,-188.52"/>
<polygon fill="midnightblue" stroke="midnightblue" points="903.5,-192 913.1,-187.53 902.81,-185.03 903.5,-192"/>
</g>
<!-- Node42&#45;&gt;Node34 -->
<g id="edge41" class="edge">
<title>Node42&#45;&gt;Node34</title>
<path fill="none" stroke="midnightblue" d="M500,-224.44C555.57,-213.88 649.12,-196.09 701.16,-186.19"/>
<polygon fill="midnightblue" stroke="midnightblue" points="701.83,-189.63 711,-184.32 700.52,-182.75 701.83,-189.63"/>
</g>
<!-- Node34&#45;&gt;Node3 -->
<g id="edge43" class="edge">
<title>Node34&#45;&gt;Node3</title>
<path fill="none" stroke="midnightblue" d="M767.27,-170.07C770.22,-169.36 773.17,-168.66 776,-168 832.58,-154.75 898.35,-140.1 938.57,-131.22"/>
<polygon fill="midnightblue" stroke="midnightblue" points="939.46,-134.61 948.47,-129.04 937.95,-127.77 939.46,-134.61"/>
</g>
<!-- Node34&#45;&gt;Node4 -->
<g id="edge44" class="edge">
<title>Node34&#45;&gt;Node4</title>
<path fill="none" stroke="midnightblue" d="M716.61,-168.42C690.51,-157.07 652.87,-135.73 669,-112 693.45,-76.03 730.47,-107.93 760,-76 771.64,-63.41 776.51,-44.2 778.54,-29.92"/>
<polygon fill="midnightblue" stroke="midnightblue" points="782.05,-30.07 779.64,-19.75 775.09,-29.31 782.05,-30.07"/>
</g>
<!-- Node34&#45;&gt;Node32 -->
<g id="edge46" class="edge">
<title>Node34&#45;&gt;Node32</title>
<path fill="none" stroke="midnightblue" d="M767.06,-170.14C812.33,-158.94 896.87,-137.43 901,-132 912.08,-117.42 901.11,-97.47 890.2,-83.54"/>
<polygon fill="midnightblue" stroke="midnightblue" points="892.74,-81.12 883.62,-75.74 887.39,-85.64 892.74,-81.12"/>
</g>
<!-- Node35 -->
<g id="node31" class="node">
<title>Node35</title>
<g id="a_node31"><a xlink:title=" ">
<polygon fill="white" stroke="#bfbfbf" points="752.5,-112.5 752.5,-131.5 793.5,-131.5 793.5,-112.5 752.5,-112.5"/>
<text text-anchor="middle" x="773" y="-119.5" font-family="Helvetica,sans-Serif" font-size="10.00">QFile</text>
</a>
</g>
</g>
<!-- Node34&#45;&gt;Node35 -->
<g id="edge42" class="edge">
<title>Node34&#45;&gt;Node35</title>
<path fill="none" stroke="midnightblue" d="M744.61,-168.08C749.37,-160.53 756.32,-149.49 762.15,-140.23"/>
<polygon fill="midnightblue" stroke="midnightblue" points="765.12,-142.08 767.49,-131.75 759.2,-138.35 765.12,-142.08"/>
</g>
<!-- Node36 -->
<g id="node32" class="node">
<title>Node36</title>
<g id="a_node32"><a xlink:title=" ">
<polygon fill="white" stroke="#bfbfbf" points="812,-112.5 812,-131.5 892,-131.5 892,-112.5 812,-112.5"/>
<text text-anchor="middle" x="852" y="-119.5" font-family="Helvetica,sans-Serif" font-size="10.00">QTextStream</text>
</a>
</g>
</g>
<!-- Node34&#45;&gt;Node36 -->
<g id="edge45" class="edge">
<title>Node34&#45;&gt;Node36</title>
<path fill="none" stroke="midnightblue" d="M756.91,-168.44C775.25,-159.68 804.01,-145.94 825.09,-135.86"/>
<polygon fill="midnightblue" stroke="midnightblue" points="826.67,-138.99 834.18,-131.52 823.65,-132.67 826.67,-138.99"/>
</g>
<!-- Node37 -->
<g id="node33" class="node">
<title>Node37</title>
<g id="a_node33"><a xlink:title=" ">
<polygon fill="white" stroke="#bfbfbf" points="678,-112.5 678,-131.5 734,-131.5 734,-112.5 678,-112.5"/>
<text text-anchor="middle" x="706" y="-119.5" font-family="Helvetica,sans-Serif" font-size="10.00">sstream</text>
</a>
</g>
</g>
<!-- Node34&#45;&gt;Node37 -->
<g id="edge47" class="edge">
<title>Node34&#45;&gt;Node37</title>
<path fill="none" stroke="midnightblue" d="M733.55,-168.08C728.99,-160.61 722.33,-149.72 716.71,-140.52"/>
<polygon fill="midnightblue" stroke="midnightblue" points="719.55,-138.46 711.35,-131.75 713.58,-142.11 719.55,-138.46"/>
</g>
<!-- Node43&#45;&gt;Node18 -->
<g id="edge49" class="edge">
<title>Node43&#45;&gt;Node18</title>
<path fill="none" stroke="midnightblue" d="M1224.34,-224.5C1260.32,-214.31 1307.32,-195.16 1287,-168 1274.08,-150.73 1220.22,-137.81 1180.03,-130.35"/>
<polygon fill="midnightblue" stroke="midnightblue" points="1180.61,-126.9 1170.14,-128.57 1179.37,-133.78 1180.61,-126.9"/>
</g>
<!-- Node43&#45;&gt;Node23 -->
<g id="edge51" class="edge">
<title>Node43&#45;&gt;Node23</title>
<path fill="none" stroke="midnightblue" d="M1223.06,-224.45C1247.15,-217.4 1278.99,-205.65 1303,-188 1337.9,-162.35 1326.9,-134.35 1364,-112 1436.49,-68.32 1488.4,-132.96 1551,-76 1563.89,-64.27 1568.22,-44.34 1569.59,-29.63"/>
<polygon fill="midnightblue" stroke="midnightblue" points="1573.08,-29.8 1570.14,-19.62 1566.09,-29.41 1573.08,-29.8"/>
</g>
<!-- Node43&#45;&gt;Node41 -->
<g id="edge50" class="edge">
<title>Node43&#45;&gt;Node41</title>
<path fill="none" stroke="midnightblue" d="M1189.16,-224.08C1190.08,-216.93 1191.42,-206.64 1192.58,-197.69"/>
<polygon fill="midnightblue" stroke="midnightblue" points="1196.05,-198.12 1193.87,-187.75 1189.11,-197.22 1196.05,-198.12"/>
</g>
<!-- Node44&#45;&gt;Node4 -->
<g id="edge54" class="edge">
<title>Node44&#45;&gt;Node4</title>
<path fill="none" stroke="midnightblue" d="M558.23,-112.3C574.7,-98.66 608.55,-72.14 641,-56 673.57,-39.8 713.26,-27.63 741.88,-20.06"/>
<polygon fill="midnightblue" stroke="midnightblue" points="743.08,-23.36 751.89,-17.48 741.33,-16.59 743.08,-23.36"/>
</g>
<!-- Node44&#45;&gt;Node7 -->
<g id="edge53" class="edge">
<title>Node44&#45;&gt;Node7</title>
<path fill="none" stroke="midnightblue" d="M538.36,-112.32C529.49,-104.34 516.13,-92.31 505.39,-82.65"/>
<polygon fill="midnightblue" stroke="midnightblue" points="507.59,-79.92 497.82,-75.83 502.91,-85.13 507.59,-79.92"/>
</g>
<!-- Node44&#45;&gt;Node8 -->
<g id="edge56" class="edge">
<title>Node44&#45;&gt;Node8</title>
<path fill="none" stroke="midnightblue" d="M511.71,-113.41C508.77,-112.9 505.84,-112.42 503,-112 339.22,-87.89 294.36,-94.95 126.03,-76.07"/>
<polygon fill="midnightblue" stroke="midnightblue" points="126.42,-72.59 116.09,-74.94 125.63,-79.55 126.42,-72.59"/>
</g>
<!-- Node44&#45;&gt;Node10 -->
<g id="edge57" class="edge">
<title>Node44&#45;&gt;Node10</title>
<path fill="none" stroke="midnightblue" d="M511.69,-113.54C508.75,-112.99 505.83,-112.47 503,-112 388.98,-92.87 357.29,-93.39 239.77,-76.23"/>
<polygon fill="midnightblue" stroke="midnightblue" points="240.05,-72.73 229.65,-74.74 239.03,-79.66 240.05,-72.73"/>
</g>
<!-- Node44&#45;&gt;Node33 -->
<g id="edge55" class="edge">
<title>Node44&#45;&gt;Node33</title>
<path fill="none" stroke="midnightblue" d="M584.08,-118.2C688.42,-110.05 987.53,-86.38 1065.21,-75.7"/>
<polygon fill="midnightblue" stroke="midnightblue" points="1066,-79.12 1075.36,-74.16 1064.95,-72.2 1066,-79.12"/>
</g>
<!-- Node45 -->
<g id="node36" class="node">
<title>Node45</title>
<g id="a_node36"><a xlink:href="pt1filter_8h.html" target="_top" xlink:title=" ">
<polygon fill="white" stroke="black" points="530.5,-56.5 530.5,-75.5 593.5,-75.5 593.5,-56.5 530.5,-56.5"/>
<text text-anchor="middle" x="562" y="-63.5" font-family="Helvetica,sans-Serif" font-size="10.00">pt1filter.h</text>
</a>
</g>
</g>
<!-- Node44&#45;&gt;Node45 -->
<g id="edge58" class="edge">
<title>Node44&#45;&gt;Node45</title>
<path fill="none" stroke="midnightblue" d="M550.31,-112.08C552.17,-104.93 554.84,-94.64 557.15,-85.69"/>
<polygon fill="midnightblue" stroke="midnightblue" points="560.61,-86.31 559.73,-75.75 553.83,-84.55 560.61,-86.31"/>
</g>
<!-- Node46&#45;&gt;Node23 -->
<g id="edge61" class="edge">
<title>Node46&#45;&gt;Node23</title>
<path fill="none" stroke="midnightblue" d="M1349.22,-225.83C1352.17,-225.17 1355.14,-224.55 1358,-224 1503.02,-196.3 1919.1,-243.39 2016,-132 2071.84,-67.81 1729.01,-26.93 1609.78,-14.79"/>
<polygon fill="midnightblue" stroke="midnightblue" points="1609.91,-11.29 1599.61,-13.77 1609.21,-18.25 1609.91,-11.29"/>
</g>
<!-- Node47 -->
<g id="node38" class="node">
<title>Node47</title>
<g id="a_node38"><a xlink:href="joydpad_8h.html" target="_top" xlink:title=" ">
<polygon fill="white" stroke="red" points="2063.5,-168.5 2063.5,-187.5 2128.5,-187.5 2128.5,-168.5 2063.5,-168.5"/>
<text text-anchor="middle" x="2096" y="-175.5" font-family="Helvetica,sans-Serif" font-size="10.00">joydpad.h</text>
</a>
</g>
</g>
<!-- Node46&#45;&gt;Node47 -->
<g id="edge60" class="edge">
<title>Node46&#45;&gt;Node47</title>
<path fill="none" stroke="midnightblue" d="M1349.18,-225.57C1352.14,-224.96 1355.12,-224.42 1358,-224 1662.29,-179.46 1743.71,-225.01 2049,-188 2050.47,-187.82 2051.96,-187.63 2053.47,-187.41"/>
<polygon fill="midnightblue" stroke="midnightblue" points="2054.15,-190.85 2063.47,-185.83 2053.05,-183.94 2054.15,-190.85"/>
</g>
<!-- Node49&#45;&gt;Node32 -->
<g id="edge70" class="edge">
<title>Node49&#45;&gt;Node32</title>
<path fill="none" stroke="midnightblue" d="M1526.82,-177.67C1448.09,-178.37 1248.47,-175.31 1089,-132 1068.66,-126.48 1065.83,-119.15 1046,-112 1021.87,-103.29 956.38,-86.78 913.81,-76.36"/>
<polygon fill="midnightblue" stroke="midnightblue" points="914.59,-72.95 904.05,-73.98 912.93,-79.75 914.59,-72.95"/>
</g>
<!-- Node50 -->
<g id="node40" class="node">
<title>Node50</title>
<g id="a_node40"><a xlink:href="antimicrosettings_8h.html" target="_top" xlink:title=" ">
<polygon fill="white" stroke="red" points="1372.5,-112.5 1372.5,-131.5 1483.5,-131.5 1483.5,-112.5 1372.5,-112.5"/>
<text text-anchor="middle" x="1428" y="-119.5" font-family="Helvetica,sans-Serif" font-size="10.00">antimicrosettings.h</text>
</a>
</g>
</g>
<!-- Node49&#45;&gt;Node50 -->
<g id="edge63" class="edge">
<title>Node49&#45;&gt;Node50</title>
<path fill="none" stroke="midnightblue" d="M1539.93,-168.44C1517.94,-159.52 1483.27,-145.44 1458.34,-135.32"/>
<polygon fill="midnightblue" stroke="midnightblue" points="1459.56,-132.04 1448.98,-131.52 1456.92,-138.52 1459.56,-132.04"/>
</g>
<!-- Node54 -->
<g id="node41" class="node">
<title>Node54</title>
<g id="a_node41"><a xlink:title=" ">
<polygon fill="white" stroke="#bfbfbf" points="1501.5,-112.5 1501.5,-131.5 1556.5,-131.5 1556.5,-112.5 1501.5,-112.5"/>
<text text-anchor="middle" x="1529" y="-119.5" font-family="Helvetica,sans-Serif" font-size="10.00">config.h</text>
</a>
</g>
</g>
<!-- Node49&#45;&gt;Node54 -->
<g id="edge64" class="edge">
<title>Node49&#45;&gt;Node54</title>
<path fill="none" stroke="midnightblue" d="M1555.72,-168.08C1551.29,-160.61 1544.84,-149.72 1539.38,-140.52"/>
<polygon fill="midnightblue" stroke="midnightblue" points="1542.29,-138.57 1534.19,-131.75 1536.27,-142.14 1542.29,-138.57"/>
</g>
<!-- Node55 -->
<g id="node42" class="node">
<title>Node55</title>
<g id="a_node42"><a xlink:href="mousehelper_8h.html" target="_top" xlink:title=" ">
<polygon fill="white" stroke="black" points="1226.5,-112.5 1226.5,-131.5 1315.5,-131.5 1315.5,-112.5 1226.5,-112.5"/>
<text text-anchor="middle" x="1271" y="-119.5" font-family="Helvetica,sans-Serif" font-size="10.00">mousehelper.h</text>
</a>
</g>
</g>
<!-- Node49&#45;&gt;Node55 -->
<g id="edge65" class="edge">
<title>Node49&#45;&gt;Node55</title>
<path fill="none" stroke="midnightblue" d="M1526.88,-170.65C1477.34,-161.42 1384.98,-144.22 1325.82,-133.21"/>
<polygon fill="midnightblue" stroke="midnightblue" points="1326.37,-129.75 1315.9,-131.36 1325.09,-136.63 1326.37,-129.75"/>
</g>
<!-- Node56 -->
<g id="node43" class="node">
<title>Node56</title>
<g id="a_node43"><a xlink:title=" ">
<polygon fill="white" stroke="#bfbfbf" points="1575,-112.5 1575,-131.5 1613,-131.5 1613,-112.5 1575,-112.5"/>
<text text-anchor="middle" x="1594" y="-119.5" font-family="Helvetica,sans-Serif" font-size="10.00">QDir</text>
</a>
</g>
</g>
<!-- Node49&#45;&gt;Node56 -->
<g id="edge68" class="edge">
<title>Node49&#45;&gt;Node56</title>
<path fill="none" stroke="midnightblue" d="M1566.45,-168.08C1571.01,-160.61 1577.67,-149.72 1583.29,-140.52"/>
<polygon fill="midnightblue" stroke="midnightblue" points="1586.42,-142.11 1588.65,-131.75 1580.45,-138.46 1586.42,-142.11"/>
</g>
<!-- Node57 -->
<g id="node44" class="node">
<title>Node57</title>
<g id="a_node44"><a xlink:title=" ">
<polygon fill="white" stroke="#bfbfbf" points="1631,-112.5 1631,-131.5 1675,-131.5 1675,-112.5 1631,-112.5"/>
<text text-anchor="middle" x="1653" y="-119.5" font-family="Helvetica,sans-Serif" font-size="10.00">QIcon</text>
</a>
</g>
</g>
<!-- Node49&#45;&gt;Node57 -->
<g id="edge69" class="edge">
<title>Node49&#45;&gt;Node57</title>
<path fill="none" stroke="midnightblue" d="M1575.78,-168.32C1590.27,-159.82 1612.57,-146.73 1629.49,-136.8"/>
<polygon fill="midnightblue" stroke="midnightblue" points="1631.4,-139.74 1638.26,-131.65 1627.86,-133.7 1631.4,-139.74"/>
</g>
<!-- Node58 -->
<g id="node45" class="node">
<title>Node58</title>
<g id="a_node45"><a xlink:title=" ">
<polygon fill="white" stroke="#bfbfbf" points="1693,-112.5 1693,-131.5 1765,-131.5 1765,-112.5 1693,-112.5"/>
<text text-anchor="middle" x="1729" y="-119.5" font-family="Helvetica,sans-Serif" font-size="10.00">QTranslator</text>
</a>
</g>
</g>
<!-- Node49&#45;&gt;Node58 -->
<g id="edge71" class="edge">
<title>Node49&#45;&gt;Node58</title>
<path fill="none" stroke="midnightblue" d="M1587.62,-168.44C1616.01,-159.32 1661.14,-144.81 1692.75,-134.65"/>
<polygon fill="midnightblue" stroke="midnightblue" points="1694.06,-137.91 1702.5,-131.52 1691.91,-131.24 1694.06,-137.91"/>
</g>
<!-- Node59 -->
<g id="node46" class="node">
<title>Node59</title>
<g id="a_node46"><a xlink:title=" ">
<polygon fill="white" stroke="#bfbfbf" points="1783,-112.5 1783,-131.5 1875,-131.5 1875,-112.5 1783,-112.5"/>
<text text-anchor="middle" x="1829" y="-119.5" font-family="Helvetica,sans-Serif" font-size="10.00">QWaitCondition</text>
</a>
</g>
</g>
<!-- Node49&#45;&gt;Node59 -->
<g id="edge72" class="edge">
<title>Node49&#45;&gt;Node59</title>
<path fill="none" stroke="midnightblue" d="M1595.21,-170.11C1641.08,-160.86 1722.94,-144.37 1776.6,-133.56"/>
<polygon fill="midnightblue" stroke="midnightblue" points="1777.5,-136.95 1786.61,-131.54 1776.11,-130.09 1777.5,-136.95"/>
</g>
<!-- Node60 -->
<g id="node47" class="node">
<title>Node60</title>
<g id="a_node47"><a xlink:title=" ">
<polygon fill="white" stroke="#bfbfbf" points="1893.5,-112.5 1893.5,-131.5 2006.5,-131.5 2006.5,-112.5 1893.5,-112.5"/>
<text text-anchor="middle" x="1950" y="-119.5" font-family="Helvetica,sans-Serif" font-size="10.00">SDL2/SDL_version.h</text>
</a>
</g>
</g>
<!-- Node49&#45;&gt;Node60 -->
<g id="edge73" class="edge">
<title>Node49&#45;&gt;Node60</title>
<path fill="none" stroke="midnightblue" d="M1595.18,-172.26C1659.52,-163.32 1799.64,-143.87 1883.26,-132.26"/>
<polygon fill="midnightblue" stroke="midnightblue" points="1884,-135.7 1893.42,-130.85 1883.04,-128.76 1884,-135.7"/>
</g>
<!-- Node55&#45;&gt;Node4 -->
<g id="edge66" class="edge">
<title>Node55&#45;&gt;Node4</title>
<path fill="none" stroke="midnightblue" d="M1312.96,-112.49C1348.02,-104.42 1394,-91.29 1405,-76 1410.19,-68.78 1411.06,-62.51 1405,-56 1365.04,-13.06 948.76,-10.53 818.64,-10.8"/>
<polygon fill="midnightblue" stroke="midnightblue" points="818.35,-7.3 808.36,-10.83 818.37,-14.3 818.35,-7.3"/>
</g>
<!-- Node55&#45;&gt;Node33 -->
<g id="edge67" class="edge">
<title>Node55&#45;&gt;Node33</title>
<path fill="none" stroke="midnightblue" d="M1244.22,-112.44C1215.67,-103.32 1170.27,-88.81 1138.46,-78.65"/>
<polygon fill="midnightblue" stroke="midnightblue" points="1139.24,-75.23 1128.65,-75.52 1137.11,-81.89 1139.24,-75.23"/>
</g>
</g>
</svg>
