<?xml version="1.0" encoding="UTF-8" standalone="no"?>
<!DOCTYPE svg PUBLIC "-//W3C//DTD SVG 1.1//EN"
 "http://www.w3.org/Graphics/SVG/1.1/DTD/svg11.dtd">
<!-- Generated by graphviz version 2.43.0 (0)
 -->
<!-- Title: /home/runner/work/doxygen/antimicrox/src/inputdevicecalibration.h Pages: 1 -->
<svg width="9792pt" height="262pt"
 viewBox="0.00 0.00 9792.00 262.00" xmlns="http://www.w3.org/2000/svg" xmlns:xlink="http://www.w3.org/1999/xlink">
<g id="graph0" class="graph" transform="scale(1 1) rotate(0) translate(4 258)">
<title>/home/runner/work/doxygen/antimicrox/src/inputdevicecalibration.h</title>
<polygon fill="white" stroke="transparent" points="-4,4 -4,-258 9788,-258 9788,4 -4,4"/>
<!-- Node1 -->
<g id="node1" class="node">
<title>Node1</title>
<g id="a_node1"><a xlink:title=" ">
<polygon fill="#bfbfbf" stroke="black" points="4794.5,-223.5 4794.5,-253.5 5004.5,-253.5 5004.5,-223.5 4794.5,-223.5"/>
<text text-anchor="start" x="4802.5" y="-241.5" font-family="Helvetica,sans-Serif" font-size="10.00">/home/runner/work/doxygen</text>
<text text-anchor="middle" x="4899.5" y="-230.5" font-family="Helvetica,sans-Serif" font-size="10.00">/antimicrox/src/inputdevicecalibration.h</text>
</a>
</g>
</g>
<!-- Node2 -->
<g id="node2" class="node">
<title>Node2</title>
<g id="a_node2"><a xlink:href="inputdevice_8h.html" target="_top" xlink:title=" ">
<polygon fill="white" stroke="red" points="4767.5,-156.5 4767.5,-186.5 4925.5,-186.5 4925.5,-156.5 4767.5,-156.5"/>
<text text-anchor="start" x="4775.5" y="-174.5" font-family="Helvetica,sans-Serif" font-size="10.00">/home/runner/work/doxygen</text>
<text text-anchor="middle" x="4846.5" y="-163.5" font-family="Helvetica,sans-Serif" font-size="10.00">/antimicrox/src/inputdevice.h</text>
</a>
</g>
</g>
<!-- Node1&#45;&gt;Node2 -->
<g id="edge1" class="edge">
<title>Node1&#45;&gt;Node2</title>
<path fill="none" stroke="midnightblue" d="M4881.52,-215.45C4873.73,-205.9 4864.85,-195 4857.98,-186.58"/>
<polygon fill="midnightblue" stroke="midnightblue" points="4878.97,-217.86 4888,-223.4 4884.39,-213.43 4878.97,-217.86"/>
</g>
<!-- Node40 -->
<g id="node29" class="node">
<title>Node40</title>
<g id="a_node29"><a xlink:href="inputdevicecalibration_8cpp.html" target="_top" xlink:title=" ">
<polygon fill="white" stroke="black" points="9563,-84 9563,-114 9784,-114 9784,-84 9563,-84"/>
<text text-anchor="start" x="9571" y="-102" font-family="Helvetica,sans-Serif" font-size="10.00">/home/runner/work/doxygen</text>
<text text-anchor="middle" x="9673.5" y="-91" font-family="Helvetica,sans-Serif" font-size="10.00">/antimicrox/src/inputdevicecalibration.cpp</text>
</a>
</g>
</g>
<!-- Node1&#45;&gt;Node40 -->
<g id="edge55" class="edge">
<title>Node1&#45;&gt;Node40</title>
<path fill="none" stroke="midnightblue" d="M5015.05,-236.8C5641.28,-232.66 8634.04,-208.52 9554.5,-120 9569.31,-118.58 9585.05,-116.4 9600.08,-114.01"/>
<polygon fill="midnightblue" stroke="midnightblue" points="5014.64,-233.3 5004.67,-236.87 5014.69,-240.3 5014.64,-233.3"/>
</g>
<!-- Node3 -->
<g id="node3" class="node">
<title>Node3</title>
<g id="a_node3"><a xlink:href="applaunchhelper_8cpp.html" target="_top" xlink:title=" ">
<polygon fill="white" stroke="black" points="8896,-84 8896,-114 9089,-114 9089,-84 8896,-84"/>
<text text-anchor="start" x="8904" y="-102" font-family="Helvetica,sans-Serif" font-size="10.00">/home/runner/work/doxygen</text>
<text text-anchor="middle" x="8992.5" y="-91" font-family="Helvetica,sans-Serif" font-size="10.00">/antimicrox/src/applaunchhelper.cpp</text>
</a>
</g>
</g>
<!-- Node2&#45;&gt;Node3 -->
<g id="edge2" class="edge">
<title>Node2&#45;&gt;Node3</title>
<path fill="none" stroke="midnightblue" d="M4936.28,-169.83C5513.45,-165.43 8684.5,-140.44 8887.5,-120 8900.89,-118.65 8915.11,-116.46 8928.63,-114.02"/>
<polygon fill="midnightblue" stroke="midnightblue" points="4935.91,-166.33 4925.94,-169.9 4935.96,-173.33 4935.91,-166.33"/>
</g>
<!-- Node4 -->
<g id="node4" class="node">
<title>Node4</title>
<g id="a_node4"><a xlink:href="dpadcontextmenu_8cpp.html" target="_top" xlink:title=" ">
<polygon fill="white" stroke="black" points="9107,-84 9107,-114 9308,-114 9308,-84 9107,-84"/>
<text text-anchor="start" x="9115" y="-102" font-family="Helvetica,sans-Serif" font-size="10.00">/home/runner/work/doxygen</text>
<text text-anchor="middle" x="9207.5" y="-91" font-family="Helvetica,sans-Serif" font-size="10.00">/antimicrox/src/dpadcontextmenu.cpp</text>
</a>
</g>
</g>
<!-- Node2&#45;&gt;Node4 -->
<g id="edge3" class="edge">
<title>Node2&#45;&gt;Node4</title>
<path fill="none" stroke="midnightblue" d="M4935.72,-169.87C5528.78,-165.63 8884.2,-140.78 9098.5,-120 9112.38,-118.65 9127.15,-116.47 9141.18,-114.02"/>
<polygon fill="midnightblue" stroke="midnightblue" points="4935.5,-166.37 4925.52,-169.94 4935.55,-173.37 4935.5,-166.37"/>
</g>
<!-- Node5 -->
<g id="node5" class="node">
<title>Node5</title>
<g id="a_node5"><a xlink:href="dpadpushbuttongroup_8cpp.html" target="_top" xlink:title=" ">
<polygon fill="white" stroke="black" points="9326,-84 9326,-114 9545,-114 9545,-84 9326,-84"/>
<text text-anchor="start" x="9334" y="-102" font-family="Helvetica,sans-Serif" font-size="10.00">/home/runner/work/doxygen</text>
<text text-anchor="middle" x="9435.5" y="-91" font-family="Helvetica,sans-Serif" font-size="10.00">/antimicrox/src/dpadpushbuttongroup.cpp</text>
</a>
</g>
</g>
<!-- Node2&#45;&gt;Node5 -->
<g id="edge4" class="edge">
<title>Node2&#45;&gt;Node5</title>
<path fill="none" stroke="midnightblue" d="M4935.91,-169.89C5547.1,-165.66 9091.48,-140.3 9317.5,-120 9332.5,-118.65 9348.47,-116.46 9363.66,-114.02"/>
<polygon fill="midnightblue" stroke="midnightblue" points="4935.82,-166.39 4925.84,-169.96 4935.87,-173.39 4935.82,-166.39"/>
</g>
<!-- Node6 -->
<g id="node6" class="node">
<title>Node6</title>
<g id="a_node6"><a xlink:href="gamecontroller_8h.html" target="_top" xlink:title=" ">
<polygon fill="white" stroke="red" points="111,-78.5 111,-119.5 278,-119.5 278,-78.5 111,-78.5"/>
<text text-anchor="start" x="119" y="-107.5" font-family="Helvetica,sans-Serif" font-size="10.00">/home/runner/work/doxygen</text>
<text text-anchor="start" x="119" y="-96.5" font-family="Helvetica,sans-Serif" font-size="10.00">/antimicrox/src/gamecontroller</text>
<text text-anchor="middle" x="194.5" y="-85.5" font-family="Helvetica,sans-Serif" font-size="10.00">/gamecontroller.h</text>
</a>
</g>
</g>
<!-- Node2&#45;&gt;Node6 -->
<g id="edge5" class="edge">
<title>Node2&#45;&gt;Node6</title>
<path fill="none" stroke="midnightblue" d="M4756.8,-170.54C4158.02,-170.7 750.26,-169.37 291.5,-120 287.14,-119.53 282.69,-118.96 278.2,-118.3"/>
<polygon fill="midnightblue" stroke="midnightblue" points="4757.09,-174.04 4767.09,-170.54 4757.09,-167.04 4757.09,-174.04"/>
</g>
<!-- Node8 -->
<g id="node7" class="node">
<title>Node8</title>
<g id="a_node7"><a xlink:href="gamecontrollerset_8cpp.html" target="_top" xlink:title=" ">
<polygon fill="white" stroke="black" points="0,-0.5 0,-41.5 167,-41.5 167,-0.5 0,-0.5"/>
<text text-anchor="start" x="8" y="-29.5" font-family="Helvetica,sans-Serif" font-size="10.00">/home/runner/work/doxygen</text>
<text text-anchor="start" x="8" y="-18.5" font-family="Helvetica,sans-Serif" font-size="10.00">/antimicrox/src/gamecontroller</text>
<text text-anchor="middle" x="83.5" y="-7.5" font-family="Helvetica,sans-Serif" font-size="10.00">/gamecontrollerset.cpp</text>
</a>
</g>
</g>
<!-- Node2&#45;&gt;Node8 -->
<g id="edge8" class="edge">
<title>Node2&#45;&gt;Node8</title>
<path fill="none" stroke="midnightblue" d="M4757.24,-170.32C4109,-168.95 147.79,-158.98 101.5,-120 79.14,-101.17 78.46,-64.49 80.58,-41.74"/>
<polygon fill="midnightblue" stroke="midnightblue" points="4757.45,-173.82 4767.45,-170.35 4757.46,-166.82 4757.45,-173.82"/>
</g>
<!-- Node11 -->
<g id="node8" class="node">
<title>Node11</title>
<g id="a_node8"><a xlink:href="joytabwidget_8cpp.html" target="_top" xlink:title=" ">
<polygon fill="white" stroke="black" points="184.5,-6 184.5,-36 378.5,-36 378.5,-6 184.5,-6"/>
<text text-anchor="start" x="192.5" y="-24" font-family="Helvetica,sans-Serif" font-size="10.00">/home/runner/work/doxygen</text>
<text text-anchor="middle" x="281.5" y="-13" font-family="Helvetica,sans-Serif" font-size="10.00">/antimicrox/src/gui/joytabwidget.cpp</text>
</a>
</g>
</g>
<!-- Node2&#45;&gt;Node11 -->
<g id="edge22" class="edge">
<title>Node2&#45;&gt;Node11</title>
<path fill="none" stroke="midnightblue" d="M4757.09,-170.16C4126.53,-167.7 372.49,-151.73 324.5,-120 295.83,-101.04 286.14,-58.31 282.97,-36.06"/>
<polygon fill="midnightblue" stroke="midnightblue" points="4757.46,-173.66 4767.48,-170.2 4757.49,-166.66 4757.46,-173.66"/>
</g>
<!-- Node17 -->
<g id="node9" class="node">
<title>Node17</title>
<g id="a_node9"><a xlink:href="gamecontrollertrigger_8cpp.html" target="_top" xlink:title=" ">
<polygon fill="white" stroke="black" points="581,-78.5 581,-119.5 748,-119.5 748,-78.5 581,-78.5"/>
<text text-anchor="start" x="589" y="-107.5" font-family="Helvetica,sans-Serif" font-size="10.00">/home/runner/work/doxygen</text>
<text text-anchor="start" x="589" y="-96.5" font-family="Helvetica,sans-Serif" font-size="10.00">/antimicrox/src/gamecontroller</text>
<text text-anchor="middle" x="664.5" y="-85.5" font-family="Helvetica,sans-Serif" font-size="10.00">/gamecontrollertrigger.cpp</text>
</a>
</g>
</g>
<!-- Node2&#45;&gt;Node17 -->
<g id="edge9" class="edge">
<title>Node2&#45;&gt;Node17</title>
<path fill="none" stroke="midnightblue" d="M4757.18,-170.48C4195.88,-170.2 1165.98,-166.55 756.5,-120 753.74,-119.69 750.94,-119.33 748.12,-118.93"/>
<polygon fill="midnightblue" stroke="midnightblue" points="4757.24,-173.98 4767.25,-170.48 4757.25,-166.98 4757.24,-173.98"/>
</g>
<!-- Node18 -->
<g id="node10" class="node">
<title>Node18</title>
<g id="a_node10"><a xlink:href="gamecontrollertriggerbutton_8cpp.html" target="_top" xlink:title=" ">
<polygon fill="white" stroke="black" points="765.5,-78.5 765.5,-119.5 943.5,-119.5 943.5,-78.5 765.5,-78.5"/>
<text text-anchor="start" x="773.5" y="-107.5" font-family="Helvetica,sans-Serif" font-size="10.00">/home/runner/work/doxygen</text>
<text text-anchor="start" x="773.5" y="-96.5" font-family="Helvetica,sans-Serif" font-size="10.00">/antimicrox/src/gamecontroller</text>
<text text-anchor="middle" x="854.5" y="-85.5" font-family="Helvetica,sans-Serif" font-size="10.00">/gamecontrollertriggerbutton.cpp</text>
</a>
</g>
</g>
<!-- Node2&#45;&gt;Node18 -->
<g id="edge10" class="edge">
<title>Node2&#45;&gt;Node18</title>
<path fill="none" stroke="midnightblue" d="M4757.17,-170.35C4211.82,-169.31 1341.58,-161.85 952.5,-120 949.56,-119.68 946.59,-119.32 943.59,-118.92"/>
<polygon fill="midnightblue" stroke="midnightblue" points="4757.33,-173.85 4767.33,-170.37 4757.34,-166.85 4757.33,-173.85"/>
</g>
<!-- Node19 -->
<g id="node11" class="node">
<title>Node19</title>
<g id="a_node11"><a xlink:href="addeditautoprofiledialog_8cpp.html" target="_top" xlink:title=" ">
<polygon fill="white" stroke="black" points="961.5,-84 961.5,-114 1211.5,-114 1211.5,-84 961.5,-84"/>
<text text-anchor="start" x="969.5" y="-102" font-family="Helvetica,sans-Serif" font-size="10.00">/home/runner/work/doxygen</text>
<text text-anchor="middle" x="1086.5" y="-91" font-family="Helvetica,sans-Serif" font-size="10.00">/antimicrox/src/gui/addeditautoprofiledialog.cpp</text>
</a>
</g>
</g>
<!-- Node2&#45;&gt;Node19 -->
<g id="edge11" class="edge">
<title>Node2&#45;&gt;Node19</title>
<path fill="none" stroke="midnightblue" d="M4757.15,-169.97C4234.33,-166.81 1582.25,-149.38 1220.5,-120 1203.62,-118.63 1185.64,-116.45 1168.5,-114.02"/>
<polygon fill="midnightblue" stroke="midnightblue" points="4757.25,-173.48 4767.27,-170.04 4757.29,-166.48 4757.25,-173.48"/>
</g>
<!-- Node20 -->
<g id="node12" class="node">
<title>Node20</title>
<g id="a_node12"><a xlink:href="advancebuttondialog_8cpp.html" target="_top" xlink:title=" ">
<polygon fill="white" stroke="black" points="1230,-84 1230,-114 1463,-114 1463,-84 1230,-84"/>
<text text-anchor="start" x="1238" y="-102" font-family="Helvetica,sans-Serif" font-size="10.00">/home/runner/work/doxygen</text>
<text text-anchor="middle" x="1346.5" y="-91" font-family="Helvetica,sans-Serif" font-size="10.00">/antimicrox/src/gui/advancebuttondialog.cpp</text>
</a>
</g>
</g>
<!-- Node2&#45;&gt;Node20 -->
<g id="edge12" class="edge">
<title>Node2&#45;&gt;Node20</title>
<path fill="none" stroke="midnightblue" d="M4757.4,-169.93C4257.07,-166.6 1807.62,-148.96 1472.5,-120 1456.61,-118.63 1439.69,-116.44 1423.58,-114.02"/>
<polygon fill="midnightblue" stroke="midnightblue" points="4757.43,-173.43 4767.45,-169.99 4757.47,-166.43 4757.43,-173.43"/>
</g>
<!-- Node21 -->
<g id="node13" class="node">
<title>Node21</title>
<g id="a_node13"><a xlink:href="axiseditdialog_8cpp.html" target="_top" xlink:title=" ">
<polygon fill="white" stroke="black" points="1481.5,-84 1481.5,-114 1681.5,-114 1681.5,-84 1481.5,-84"/>
<text text-anchor="start" x="1489.5" y="-102" font-family="Helvetica,sans-Serif" font-size="10.00">/home/runner/work/doxygen</text>
<text text-anchor="middle" x="1581.5" y="-91" font-family="Helvetica,sans-Serif" font-size="10.00">/antimicrox/src/gui/axiseditdialog.cpp</text>
</a>
</g>
</g>
<!-- Node2&#45;&gt;Node21 -->
<g id="edge13" class="edge">
<title>Node2&#45;&gt;Node21</title>
<path fill="none" stroke="midnightblue" d="M4757.4,-169.96C4276.65,-166.9 2002.35,-150.89 1690.5,-120 1676.72,-118.63 1662.06,-116.46 1648.12,-114.03"/>
<polygon fill="midnightblue" stroke="midnightblue" points="4757.38,-173.45 4767.41,-170.02 4757.43,-166.46 4757.38,-173.45"/>
</g>
<!-- Node22 -->
<g id="node14" class="node">
<title>Node22</title>
<g id="a_node14"><a xlink:href="buttoneditdialog_8cpp.html" target="_top" xlink:title=" ">
<polygon fill="white" stroke="black" points="1700,-84 1700,-114 1911,-114 1911,-84 1700,-84"/>
<text text-anchor="start" x="1708" y="-102" font-family="Helvetica,sans-Serif" font-size="10.00">/home/runner/work/doxygen</text>
<text text-anchor="middle" x="1805.5" y="-91" font-family="Helvetica,sans-Serif" font-size="10.00">/antimicrox/src/gui/buttoneditdialog.cpp</text>
</a>
</g>
</g>
<!-- Node2&#45;&gt;Node22 -->
<g id="edge14" class="edge">
<title>Node2&#45;&gt;Node22</title>
<path fill="none" stroke="midnightblue" d="M4757.03,-170.82C4329.43,-172.09 2491.19,-174.22 1920.5,-120 1905.97,-118.62 1890.52,-116.43 1875.82,-114.01"/>
<polygon fill="midnightblue" stroke="midnightblue" points="4757.18,-174.32 4767.17,-170.79 4757.16,-167.32 4757.18,-174.32"/>
</g>
<!-- Node23 -->
<g id="node15" class="node">
<title>Node23</title>
<g id="a_node15"><a xlink:href="calibration_8cpp.html" target="_top" xlink:title=" ">
<polygon fill="white" stroke="black" points="1929.5,-84 1929.5,-114 2111.5,-114 2111.5,-84 1929.5,-84"/>
<text text-anchor="start" x="1937.5" y="-102" font-family="Helvetica,sans-Serif" font-size="10.00">/home/runner/work/doxygen</text>
<text text-anchor="middle" x="2020.5" y="-91" font-family="Helvetica,sans-Serif" font-size="10.00">/antimicrox/src/gui/calibration.cpp</text>
</a>
</g>
</g>
<!-- Node2&#45;&gt;Node23 -->
<g id="edge15" class="edge">
<title>Node2&#45;&gt;Node23</title>
<path fill="none" stroke="midnightblue" d="M4757.03,-169.79C4316.34,-166.19 2387.01,-148.88 2120.5,-120 2107.83,-118.63 2094.37,-116.44 2081.58,-114.02"/>
<polygon fill="midnightblue" stroke="midnightblue" points="4757.13,-173.3 4767.16,-169.88 4757.19,-166.3 4757.13,-173.3"/>
</g>
<!-- Node24 -->
<g id="node16" class="node">
<title>Node24</title>
<g id="a_node16"><a xlink:href="dpadeditdialog_8cpp.html" target="_top" xlink:title=" ">
<polygon fill="white" stroke="black" points="2130,-84 2130,-114 2333,-114 2333,-84 2130,-84"/>
<text text-anchor="start" x="2138" y="-102" font-family="Helvetica,sans-Serif" font-size="10.00">/home/runner/work/doxygen</text>
<text text-anchor="middle" x="2231.5" y="-91" font-family="Helvetica,sans-Serif" font-size="10.00">/antimicrox/src/gui/dpadeditdialog.cpp</text>
</a>
</g>
</g>
<!-- Node2&#45;&gt;Node24 -->
<g id="edge16" class="edge">
<title>Node2&#45;&gt;Node24</title>
<path fill="none" stroke="midnightblue" d="M4757.22,-170.59C4368.95,-170.7 2825.25,-168.05 2342.5,-120 2328.57,-118.61 2313.76,-116.44 2299.65,-114.03"/>
<polygon fill="midnightblue" stroke="midnightblue" points="4757.27,-174.09 4767.27,-170.59 4757.27,-167.09 4757.27,-174.09"/>
</g>
<!-- Node25 -->
<g id="node17" class="node">
<title>Node25</title>
<g id="a_node17"><a xlink:href="extraprofilesettingsdialog_8cpp.html" target="_top" xlink:title=" ">
<polygon fill="white" stroke="black" points="2351.5,-84 2351.5,-114 2607.5,-114 2607.5,-84 2351.5,-84"/>
<text text-anchor="start" x="2359.5" y="-102" font-family="Helvetica,sans-Serif" font-size="10.00">/home/runner/work/doxygen</text>
<text text-anchor="middle" x="2479.5" y="-91" font-family="Helvetica,sans-Serif" font-size="10.00">/antimicrox/src/gui/extraprofilesettingsdialog.cpp</text>
</a>
</g>
</g>
<!-- Node2&#45;&gt;Node25 -->
<g id="edge17" class="edge">
<title>Node2&#45;&gt;Node25</title>
<path fill="none" stroke="midnightblue" d="M4757.37,-169.94C4396.54,-167.44 3043.15,-155.84 2616.5,-120 2599.49,-118.57 2581.38,-116.4 2564.09,-114"/>
<polygon fill="midnightblue" stroke="midnightblue" points="4757.47,-173.44 4767.5,-170.01 4757.52,-166.44 4757.47,-173.44"/>
</g>
<!-- Node10 -->
<g id="node18" class="node">
<title>Node10</title>
<g id="a_node18"><a xlink:href="gamecontrollermappingdialog_8cpp.html" target="_top" xlink:title=" ">
<polygon fill="white" stroke="black" points="2625.5,-84 2625.5,-114 2903.5,-114 2903.5,-84 2625.5,-84"/>
<text text-anchor="start" x="2633.5" y="-102" font-family="Helvetica,sans-Serif" font-size="10.00">/home/runner/work/doxygen</text>
<text text-anchor="middle" x="2764.5" y="-91" font-family="Helvetica,sans-Serif" font-size="10.00">/antimicrox/src/gui/gamecontrollermappingdialog.cpp</text>
</a>
</g>
</g>
<!-- Node2&#45;&gt;Node10 -->
<g id="edge18" class="edge">
<title>Node2&#45;&gt;Node10</title>
<path fill="none" stroke="midnightblue" d="M4756.88,-169.45C4426.63,-165.38 3277.96,-149.38 2912.5,-120 2894.41,-118.55 2875.15,-116.39 2856.7,-114.03"/>
<polygon fill="midnightblue" stroke="midnightblue" points="4757.3,-172.95 4767.34,-169.58 4757.39,-165.96 4757.3,-172.95"/>
</g>
<!-- Node26 -->
<g id="node19" class="node">
<title>Node26</title>
<g id="a_node19"><a xlink:href="joycontrolstickeditdialog_8cpp.html" target="_top" xlink:title=" ">
<polygon fill="white" stroke="black" points="2922,-84 2922,-114 3173,-114 3173,-84 2922,-84"/>
<text text-anchor="start" x="2930" y="-102" font-family="Helvetica,sans-Serif" font-size="10.00">/home/runner/work/doxygen</text>
<text text-anchor="middle" x="3047.5" y="-91" font-family="Helvetica,sans-Serif" font-size="10.00">/antimicrox/src/gui/joycontrolstickeditdialog.cpp</text>
</a>
</g>
</g>
<!-- Node2&#45;&gt;Node26 -->
<g id="edge19" class="edge">
<title>Node2&#45;&gt;Node26</title>
<path fill="none" stroke="midnightblue" d="M4756.72,-169.17C4456.85,-164.53 3491.43,-147.73 3181.5,-120 3165.1,-118.53 3147.65,-116.37 3130.95,-114.01"/>
<polygon fill="midnightblue" stroke="midnightblue" points="4757.05,-172.68 4767.1,-169.33 4757.16,-165.68 4757.05,-172.68"/>
</g>
<!-- Node27 -->
<g id="node20" class="node">
<title>Node27</title>
<g id="a_node20"><a xlink:href="joysensoreditdialog_8cpp.html" target="_top" xlink:title=" ">
<polygon fill="white" stroke="black" points="3191,-84 3191,-114 3418,-114 3418,-84 3191,-84"/>
<text text-anchor="start" x="3199" y="-102" font-family="Helvetica,sans-Serif" font-size="10.00">/home/runner/work/doxygen</text>
<text text-anchor="middle" x="3304.5" y="-91" font-family="Helvetica,sans-Serif" font-size="10.00">/antimicrox/src/gui/joysensoreditdialog.cpp</text>
</a>
</g>
</g>
<!-- Node2&#45;&gt;Node27 -->
<g id="edge20" class="edge">
<title>Node2&#45;&gt;Node27</title>
<path fill="none" stroke="midnightblue" d="M4757.37,-171.21C4533.28,-172.14 3928.53,-169.45 3427.5,-120 3412.54,-118.52 3396.63,-116.37 3381.4,-114.03"/>
<polygon fill="midnightblue" stroke="midnightblue" points="4757.44,-174.71 4767.43,-171.16 4757.41,-167.71 4757.44,-174.71"/>
</g>
<!-- Node28 -->
<g id="node21" class="node">
<title>Node28</title>
<g id="a_node21"><a xlink:href="joystickstatuswindow_8cpp.html" target="_top" xlink:title=" ">
<polygon fill="white" stroke="black" points="3436.5,-84 3436.5,-114 3672.5,-114 3672.5,-84 3436.5,-84"/>
<text text-anchor="start" x="3444.5" y="-102" font-family="Helvetica,sans-Serif" font-size="10.00">/home/runner/work/doxygen</text>
<text text-anchor="middle" x="3554.5" y="-91" font-family="Helvetica,sans-Serif" font-size="10.00">/antimicrox/src/gui/joystickstatuswindow.cpp</text>
</a>
</g>
</g>
<!-- Node2&#45;&gt;Node28 -->
<g id="edge21" class="edge">
<title>Node2&#45;&gt;Node28</title>
<path fill="none" stroke="midnightblue" d="M4756.95,-170.06C4561.31,-168.34 4081.26,-160.01 3681.5,-120 3666.29,-118.48 3650.12,-116.34 3634.6,-114.02"/>
<polygon fill="midnightblue" stroke="midnightblue" points="4757.15,-173.56 4767.18,-170.14 4757.21,-166.56 4757.15,-173.56"/>
</g>
<!-- Node29 -->
<g id="node22" class="node">
<title>Node29</title>
<g id="a_node22"><a xlink:href="mainsettingsdialog_8cpp.html" target="_top" xlink:title=" ">
<polygon fill="white" stroke="black" points="3690.5,-84 3690.5,-114 3914.5,-114 3914.5,-84 3690.5,-84"/>
<text text-anchor="start" x="3698.5" y="-102" font-family="Helvetica,sans-Serif" font-size="10.00">/home/runner/work/doxygen</text>
<text text-anchor="middle" x="3802.5" y="-91" font-family="Helvetica,sans-Serif" font-size="10.00">/antimicrox/src/gui/mainsettingsdialog.cpp</text>
</a>
</g>
</g>
<!-- Node2&#45;&gt;Node29 -->
<g id="edge23" class="edge">
<title>Node2&#45;&gt;Node29</title>
<path fill="none" stroke="midnightblue" d="M4757.14,-168.85C4592.03,-165.08 4228.2,-153.42 3923.5,-120 3909.21,-118.43 3894.05,-116.3 3879.46,-114.01"/>
<polygon fill="midnightblue" stroke="midnightblue" points="4757.17,-172.35 4767.24,-169.08 4757.32,-165.35 4757.17,-172.35"/>
</g>
<!-- Node12 -->
<g id="node23" class="node">
<title>Node12</title>
<g id="a_node23"><a xlink:href="mainwindow_8cpp.html" target="_top" xlink:title=" ">
<polygon fill="white" stroke="black" points="396.5,-6 396.5,-36 588.5,-36 588.5,-6 396.5,-6"/>
<text text-anchor="start" x="404.5" y="-24" font-family="Helvetica,sans-Serif" font-size="10.00">/home/runner/work/doxygen</text>
<text text-anchor="middle" x="492.5" y="-13" font-family="Helvetica,sans-Serif" font-size="10.00">/antimicrox/src/gui/mainwindow.cpp</text>
</a>
</g>
</g>
<!-- Node2&#45;&gt;Node12 -->
<g id="edge24" class="edge">
<title>Node2&#45;&gt;Node12</title>
<path fill="none" stroke="midnightblue" d="M4757.09,-170.58C4150.13,-171.02 655.37,-171.31 559.5,-120 525.88,-102.01 505.86,-58.84 497.34,-36.28"/>
<polygon fill="midnightblue" stroke="midnightblue" points="4757.1,-174.08 4767.1,-170.58 4757.09,-167.08 4757.1,-174.08"/>
</g>
<!-- Node30 -->
<g id="node24" class="node">
<title>Node30</title>
<g id="a_node24"><a xlink:href="quicksetdialog_8cpp.html" target="_top" xlink:title=" ">
<polygon fill="white" stroke="black" points="3932.5,-84 3932.5,-114 4134.5,-114 4134.5,-84 3932.5,-84"/>
<text text-anchor="start" x="3940.5" y="-102" font-family="Helvetica,sans-Serif" font-size="10.00">/home/runner/work/doxygen</text>
<text text-anchor="middle" x="4033.5" y="-91" font-family="Helvetica,sans-Serif" font-size="10.00">/antimicrox/src/gui/quicksetdialog.cpp</text>
</a>
</g>
</g>
<!-- Node2&#45;&gt;Node30 -->
<g id="edge25" class="edge">
<title>Node2&#45;&gt;Node30</title>
<path fill="none" stroke="midnightblue" d="M4757.22,-167.18C4623.42,-161.51 4363.12,-147.77 4143.5,-120 4130.79,-118.39 4117.32,-116.29 4104.33,-114.04"/>
<polygon fill="midnightblue" stroke="midnightblue" points="4757.28,-170.69 4767.42,-167.61 4757.57,-163.69 4757.28,-170.69"/>
</g>
<!-- Node31 -->
<g id="node25" class="node">
<title>Node31</title>
<g id="a_node25"><a xlink:href="setnamesdialog_8cpp.html" target="_top" xlink:title=" ">
<polygon fill="white" stroke="black" points="4153,-84 4153,-114 4362,-114 4362,-84 4153,-84"/>
<text text-anchor="start" x="4161" y="-102" font-family="Helvetica,sans-Serif" font-size="10.00">/home/runner/work/doxygen</text>
<text text-anchor="middle" x="4257.5" y="-91" font-family="Helvetica,sans-Serif" font-size="10.00">/antimicrox/src/gui/setnamesdialog.cpp</text>
</a>
</g>
</g>
<!-- Node2&#45;&gt;Node31 -->
<g id="edge26" class="edge">
<title>Node2&#45;&gt;Node31</title>
<path fill="none" stroke="midnightblue" d="M4757.08,-162.81C4661.44,-154.17 4505.41,-138.84 4371.5,-120 4359.06,-118.25 4345.91,-116.16 4333.12,-114.01"/>
<polygon fill="midnightblue" stroke="midnightblue" points="4757.02,-166.32 4767.29,-163.73 4757.65,-159.35 4757.02,-166.32"/>
</g>
<!-- Node32 -->
<g id="node26" class="node">
<title>Node32</title>
<g id="a_node26"><a xlink:href="joystick_8h.html" target="_top" xlink:title=" ">
<polygon fill="white" stroke="red" points="333.5,-84 333.5,-114 487.5,-114 487.5,-84 333.5,-84"/>
<text text-anchor="start" x="341.5" y="-102" font-family="Helvetica,sans-Serif" font-size="10.00">/home/runner/work/doxygen</text>
<text text-anchor="middle" x="410.5" y="-91" font-family="Helvetica,sans-Serif" font-size="10.00">/antimicrox/src/joystick.h</text>
</a>
</g>
</g>
<!-- Node2&#45;&gt;Node32 -->
<g id="edge27" class="edge">
<title>Node2&#45;&gt;Node32</title>
<path fill="none" stroke="midnightblue" d="M4757.24,-170.56C4175.87,-170.81 937.85,-169.95 501.5,-120 489.93,-118.68 477.67,-116.51 466.02,-114.09"/>
<polygon fill="midnightblue" stroke="midnightblue" points="4757.24,-174.06 4767.24,-170.56 4757.24,-167.06 4757.24,-174.06"/>
</g>
<!-- Node37 -->
<g id="node27" class="node">
<title>Node37</title>
<g id="a_node27"><a xlink:href="inputdevicebitarraystatus_8cpp.html" target="_top" xlink:title=" ">
<polygon fill="white" stroke="black" points="606.5,-6 606.5,-36 844.5,-36 844.5,-6 606.5,-6"/>
<text text-anchor="start" x="614.5" y="-24" font-family="Helvetica,sans-Serif" font-size="10.00">/home/runner/work/doxygen</text>
<text text-anchor="middle" x="725.5" y="-13" font-family="Helvetica,sans-Serif" font-size="10.00">/antimicrox/src/inputdevicebitarraystatus.cpp</text>
</a>
</g>
</g>
<!-- Node2&#45;&gt;Node37 -->
<g id="edge32" class="edge">
<title>Node2&#45;&gt;Node37</title>
<path fill="none" stroke="midnightblue" d="M4757.01,-170.3C4145.84,-168.82 609.63,-158.58 571.5,-120 558.38,-106.72 560.79,-93.29 571.5,-78 585.94,-57.38 608.81,-44.32 632.54,-36.06"/>
<polygon fill="midnightblue" stroke="midnightblue" points="4757.08,-173.8 4767.09,-170.32 4757.1,-166.8 4757.08,-173.8"/>
</g>
<!-- Node39 -->
<g id="node28" class="node">
<title>Node39</title>
<g id="a_node28"><a xlink:href="inputdevice_8cpp.html" target="_top" xlink:title=" ">
<polygon fill="white" stroke="black" points="4380.5,-84 4380.5,-114 4550.5,-114 4550.5,-84 4380.5,-84"/>
<text text-anchor="start" x="4388.5" y="-102" font-family="Helvetica,sans-Serif" font-size="10.00">/home/runner/work/doxygen</text>
<text text-anchor="middle" x="4465.5" y="-91" font-family="Helvetica,sans-Serif" font-size="10.00">/antimicrox/src/inputdevice.cpp</text>
</a>
</g>
</g>
<!-- Node2&#45;&gt;Node39 -->
<g id="edge31" class="edge">
<title>Node2&#45;&gt;Node39</title>
<path fill="none" stroke="midnightblue" d="M4757.47,-155.67C4700.72,-146.01 4625.68,-132.86 4559.5,-120 4549.92,-118.14 4539.81,-116.08 4529.91,-114.02"/>
<polygon fill="midnightblue" stroke="midnightblue" points="4757.04,-159.15 4767.49,-157.37 4758.21,-152.25 4757.04,-159.15"/>
</g>
<!-- Node2&#45;&gt;Node40 -->
<g id="edge33" class="edge">
<title>Node2&#45;&gt;Node40</title>
<path fill="none" stroke="midnightblue" d="M4936.09,-169.94C5566.36,-165.92 9315.91,-141.2 9554.5,-120 9569.63,-118.66 9585.73,-116.47 9601.05,-114.02"/>
<polygon fill="midnightblue" stroke="midnightblue" points="4935.69,-166.44 4925.71,-170 4935.73,-173.44 4935.69,-166.44"/>
</g>
<!-- Node41 -->
<g id="node30" class="node">
<title>Node41</title>
<g id="a_node30"><a xlink:href="joyaxis_8cpp.html" target="_top" xlink:title=" ">
<polygon fill="white" stroke="black" points="4568.5,-84 4568.5,-114 4722.5,-114 4722.5,-84 4568.5,-84"/>
<text text-anchor="start" x="4576.5" y="-102" font-family="Helvetica,sans-Serif" font-size="10.00">/home/runner/work/doxygen</text>
<text text-anchor="middle" x="4645.5" y="-91" font-family="Helvetica,sans-Serif" font-size="10.00">/antimicrox/src/joyaxis.cpp</text>
</a>
</g>
</g>
<!-- Node2&#45;&gt;Node41 -->
<g id="edge34" class="edge">
<title>Node2&#45;&gt;Node41</title>
<path fill="none" stroke="midnightblue" d="M4796.51,-152.96C4762.29,-140.96 4717.51,-125.26 4685.62,-114.07"/>
<polygon fill="midnightblue" stroke="midnightblue" points="4795.71,-156.4 4806.31,-156.4 4798.03,-149.79 4795.71,-156.4"/>
</g>
<!-- Node42 -->
<g id="node31" class="node">
<title>Node42</title>
<g id="a_node31"><a xlink:href="joyaxiscontextmenu_8cpp.html" target="_top" xlink:title=" ">
<polygon fill="white" stroke="black" points="4740.5,-84 4740.5,-114 4952.5,-114 4952.5,-84 4740.5,-84"/>
<text text-anchor="start" x="4748.5" y="-102" font-family="Helvetica,sans-Serif" font-size="10.00">/home/runner/work/doxygen</text>
<text text-anchor="middle" x="4846.5" y="-91" font-family="Helvetica,sans-Serif" font-size="10.00">/antimicrox/src/joyaxiscontextmenu.cpp</text>
</a>
</g>
</g>
<!-- Node2&#45;&gt;Node42 -->
<g id="edge35" class="edge">
<title>Node2&#45;&gt;Node42</title>
<path fill="none" stroke="midnightblue" d="M4846.5,-146.23C4846.5,-135.57 4846.5,-123.41 4846.5,-114.25"/>
<polygon fill="midnightblue" stroke="midnightblue" points="4843,-146.23 4846.5,-156.23 4850,-146.23 4843,-146.23"/>
</g>
<!-- Node43 -->
<g id="node32" class="node">
<title>Node43</title>
<g id="a_node32"><a xlink:href="joybuttoncontextmenu_8cpp.html" target="_top" xlink:title=" ">
<polygon fill="white" stroke="black" points="4970.5,-84 4970.5,-114 5194.5,-114 5194.5,-84 4970.5,-84"/>
<text text-anchor="start" x="4978.5" y="-102" font-family="Helvetica,sans-Serif" font-size="10.00">/home/runner/work/doxygen</text>
<text text-anchor="middle" x="5082.5" y="-91" font-family="Helvetica,sans-Serif" font-size="10.00">/antimicrox/src/joybuttoncontextmenu.cpp</text>
</a>
</g>
</g>
<!-- Node2&#45;&gt;Node43 -->
<g id="edge36" class="edge">
<title>Node2&#45;&gt;Node43</title>
<path fill="none" stroke="midnightblue" d="M4903.11,-153.59C4943.5,-141.52 4997.19,-125.48 5035.28,-114.11"/>
<polygon fill="midnightblue" stroke="midnightblue" points="4901.99,-150.27 4893.41,-156.49 4903.99,-156.98 4901.99,-150.27"/>
</g>
<!-- Node44 -->
<g id="node33" class="node">
<title>Node44</title>
<g id="a_node33"><a xlink:href="joybuttonslot_8cpp.html" target="_top" xlink:title=" ">
<polygon fill="white" stroke="black" points="5213,-84 5213,-114 5390,-114 5390,-84 5213,-84"/>
<text text-anchor="start" x="5221" y="-102" font-family="Helvetica,sans-Serif" font-size="10.00">/home/runner/work/doxygen</text>
<text text-anchor="middle" x="5301.5" y="-91" font-family="Helvetica,sans-Serif" font-size="10.00">/antimicrox/src/joybuttonslot.cpp</text>
</a>
</g>
</g>
<!-- Node2&#45;&gt;Node44 -->
<g id="edge37" class="edge">
<title>Node2&#45;&gt;Node44</title>
<path fill="none" stroke="midnightblue" d="M4935.76,-159.4C5008.12,-150.04 5112.63,-135.69 5203.5,-120 5213.85,-118.21 5224.79,-116.15 5235.45,-114.05"/>
<polygon fill="midnightblue" stroke="midnightblue" points="4935.24,-155.94 4925.77,-160.69 4936.13,-162.88 4935.24,-155.94"/>
</g>
<!-- Node45 -->
<g id="node34" class="node">
<title>Node45</title>
<g id="a_node34"><a xlink:href="joybutton_8cpp.html" target="_top" xlink:title=" ">
<polygon fill="white" stroke="black" points="5408.5,-78.5 5408.5,-119.5 5574.5,-119.5 5574.5,-78.5 5408.5,-78.5"/>
<text text-anchor="start" x="5416.5" y="-107.5" font-family="Helvetica,sans-Serif" font-size="10.00">/home/runner/work/doxygen</text>
<text text-anchor="start" x="5416.5" y="-96.5" font-family="Helvetica,sans-Serif" font-size="10.00">/antimicrox/src/joybuttontypes</text>
<text text-anchor="middle" x="5491.5" y="-85.5" font-family="Helvetica,sans-Serif" font-size="10.00">/joybutton.cpp</text>
</a>
</g>
</g>
<!-- Node2&#45;&gt;Node45 -->
<g id="edge38" class="edge">
<title>Node2&#45;&gt;Node45</title>
<path fill="none" stroke="midnightblue" d="M4935.95,-165.64C5045.46,-158.93 5236.37,-144.76 5398.5,-120 5401.77,-119.5 5405.09,-118.96 5408.44,-118.38"/>
<polygon fill="midnightblue" stroke="midnightblue" points="4935.7,-162.15 4925.93,-166.25 4936.13,-169.14 4935.7,-162.15"/>
</g>
<!-- Node46 -->
<g id="node35" class="node">
<title>Node46</title>
<g id="a_node35"><a xlink:href="joycontrolstick_8cpp.html" target="_top" xlink:title=" ">
<polygon fill="white" stroke="black" points="5593,-84 5593,-114 5778,-114 5778,-84 5593,-84"/>
<text text-anchor="start" x="5601" y="-102" font-family="Helvetica,sans-Serif" font-size="10.00">/home/runner/work/doxygen</text>
<text text-anchor="middle" x="5685.5" y="-91" font-family="Helvetica,sans-Serif" font-size="10.00">/antimicrox/src/joycontrolstick.cpp</text>
</a>
</g>
</g>
<!-- Node2&#45;&gt;Node46 -->
<g id="edge39" class="edge">
<title>Node2&#45;&gt;Node46</title>
<path fill="none" stroke="midnightblue" d="M4935.8,-167.99C5074.79,-163.26 5351.07,-150.63 5583.5,-120 5595.49,-118.42 5608.19,-116.3 5620.4,-114.02"/>
<polygon fill="midnightblue" stroke="midnightblue" points="4935.5,-164.5 4925.63,-168.33 4935.74,-171.49 4935.5,-164.5"/>
</g>
<!-- Node47 -->
<g id="node36" class="node">
<title>Node47</title>
<g id="a_node36"><a xlink:href="joycontrolstickcontextmenu_8cpp.html" target="_top" xlink:title=" ">
<polygon fill="white" stroke="black" points="5796,-84 5796,-114 6045,-114 6045,-84 5796,-84"/>
<text text-anchor="start" x="5804" y="-102" font-family="Helvetica,sans-Serif" font-size="10.00">/home/runner/work/doxygen</text>
<text text-anchor="middle" x="5920.5" y="-91" font-family="Helvetica,sans-Serif" font-size="10.00">/antimicrox/src/joycontrolstickcontextmenu.cpp</text>
</a>
</g>
</g>
<!-- Node2&#45;&gt;Node47 -->
<g id="edge40" class="edge">
<title>Node2&#45;&gt;Node47</title>
<path fill="none" stroke="midnightblue" d="M4935.85,-168.51C5103.16,-164.16 5474.94,-151.55 5786.5,-120 5802.18,-118.41 5818.83,-116.29 5834.87,-114.01"/>
<polygon fill="midnightblue" stroke="midnightblue" points="4935.52,-165.02 4925.61,-168.77 4935.7,-172.02 4935.52,-165.02"/>
</g>
<!-- Node48 -->
<g id="node37" class="node">
<title>Node48</title>
<g id="a_node37"><a xlink:href="joydpad_8cpp.html" target="_top" xlink:title=" ">
<polygon fill="white" stroke="black" points="6063.5,-84 6063.5,-114 6217.5,-114 6217.5,-84 6063.5,-84"/>
<text text-anchor="start" x="6071.5" y="-102" font-family="Helvetica,sans-Serif" font-size="10.00">/home/runner/work/doxygen</text>
<text text-anchor="middle" x="6140.5" y="-91" font-family="Helvetica,sans-Serif" font-size="10.00">/antimicrox/src/joydpad.cpp</text>
</a>
</g>
</g>
<!-- Node2&#45;&gt;Node48 -->
<g id="edge41" class="edge">
<title>Node2&#45;&gt;Node48</title>
<path fill="none" stroke="midnightblue" d="M4935.9,-168.89C5177.12,-164.22 5837.57,-149.08 6053.5,-120 6064.25,-118.55 6075.63,-116.4 6086.48,-114.04"/>
<polygon fill="midnightblue" stroke="midnightblue" points="4935.7,-165.4 4925.77,-169.09 4935.84,-172.4 4935.7,-165.4"/>
</g>
<!-- Node49 -->
<g id="node38" class="node">
<title>Node49</title>
<g id="a_node38"><a xlink:href="joysensor_8cpp.html" target="_top" xlink:title=" ">
<polygon fill="white" stroke="black" points="6236,-84 6236,-114 6395,-114 6395,-84 6236,-84"/>
<text text-anchor="start" x="6244" y="-102" font-family="Helvetica,sans-Serif" font-size="10.00">/home/runner/work/doxygen</text>
<text text-anchor="middle" x="6315.5" y="-91" font-family="Helvetica,sans-Serif" font-size="10.00">/antimicrox/src/joysensor.cpp</text>
</a>
</g>
</g>
<!-- Node2&#45;&gt;Node49 -->
<g id="edge42" class="edge">
<title>Node2&#45;&gt;Node49</title>
<path fill="none" stroke="midnightblue" d="M4935.97,-169.38C5200.43,-165.74 5975.6,-152.5 6226.5,-120 6237.49,-118.58 6249.13,-116.44 6260.23,-114.08"/>
<polygon fill="midnightblue" stroke="midnightblue" points="4935.6,-165.89 4925.65,-169.52 4935.7,-172.89 4935.6,-165.89"/>
</g>
<!-- Node50 -->
<g id="node39" class="node">
<title>Node50</title>
<g id="a_node39"><a xlink:href="joysensorcontextmenu_8cpp.html" target="_top" xlink:title=" ">
<polygon fill="white" stroke="black" points="6412.5,-84 6412.5,-114 6636.5,-114 6636.5,-84 6412.5,-84"/>
<text text-anchor="start" x="6420.5" y="-102" font-family="Helvetica,sans-Serif" font-size="10.00">/home/runner/work/doxygen</text>
<text text-anchor="middle" x="6524.5" y="-91" font-family="Helvetica,sans-Serif" font-size="10.00">/antimicrox/src/joysensorcontextmenu.cpp</text>
</a>
</g>
</g>
<!-- Node2&#45;&gt;Node50 -->
<g id="edge43" class="edge">
<title>Node2&#45;&gt;Node50</title>
<path fill="none" stroke="midnightblue" d="M4936.29,-169.14C5223.21,-164.55 6115.86,-148.31 6403.5,-120 6418.33,-118.54 6434.1,-116.38 6449.18,-114.02"/>
<polygon fill="midnightblue" stroke="midnightblue" points="4935.88,-165.65 4925.93,-169.3 4935.99,-172.65 4935.88,-165.65"/>
</g>
<!-- Node15 -->
<g id="node40" class="node">
<title>Node15</title>
<g id="a_node40"><a xlink:href="main_8cpp.html" target="_top" xlink:title=" ">
<polygon fill="white" stroke="black" points="6654.5,-84 6654.5,-114 6808.5,-114 6808.5,-84 6654.5,-84"/>
<text text-anchor="start" x="6662.5" y="-102" font-family="Helvetica,sans-Serif" font-size="10.00">/home/runner/work/doxygen</text>
<text text-anchor="middle" x="6731.5" y="-91" font-family="Helvetica,sans-Serif" font-size="10.00">/antimicrox/src/main.cpp</text>
</a>
</g>
</g>
<!-- Node2&#45;&gt;Node15 -->
<g id="edge44" class="edge">
<title>Node2&#45;&gt;Node15</title>
<path fill="none" stroke="midnightblue" d="M4936.01,-170.36C5251.3,-169.49 6309.42,-163.35 6645.5,-120 6656.29,-118.61 6667.72,-116.45 6678.59,-114.06"/>
<polygon fill="midnightblue" stroke="midnightblue" points="4935.55,-166.86 4925.56,-170.39 4935.57,-173.86 4935.55,-166.86"/>
</g>
<!-- Node51 -->
<g id="node41" class="node">
<title>Node51</title>
<g id="a_node41"><a xlink:href="mouseaxissettingsdialog_8cpp.html" target="_top" xlink:title=" ">
<polygon fill="white" stroke="black" points="6826.5,-78.5 6826.5,-119.5 6988.5,-119.5 6988.5,-78.5 6826.5,-78.5"/>
<text text-anchor="start" x="6834.5" y="-107.5" font-family="Helvetica,sans-Serif" font-size="10.00">/home/runner/work/doxygen</text>
<text text-anchor="start" x="6834.5" y="-96.5" font-family="Helvetica,sans-Serif" font-size="10.00">/antimicrox/src/mousedialog</text>
<text text-anchor="middle" x="6907.5" y="-85.5" font-family="Helvetica,sans-Serif" font-size="10.00">/mouseaxissettingsdialog.cpp</text>
</a>
</g>
</g>
<!-- Node2&#45;&gt;Node51 -->
<g id="edge45" class="edge">
<title>Node2&#45;&gt;Node51</title>
<path fill="none" stroke="midnightblue" d="M4935.74,-170.5C5269.73,-170.15 6445.82,-165.62 6817.5,-120 6820.36,-119.65 6823.26,-119.25 6826.19,-118.81"/>
<polygon fill="midnightblue" stroke="midnightblue" points="4935.62,-167 4925.63,-170.51 4935.63,-174 4935.62,-167"/>
</g>
<!-- Node52 -->
<g id="node42" class="node">
<title>Node52</title>
<g id="a_node42"><a xlink:href="mousebuttonsettingsdialog_8cpp.html" target="_top" xlink:title=" ">
<polygon fill="white" stroke="black" points="7007,-78.5 7007,-119.5 7180,-119.5 7180,-78.5 7007,-78.5"/>
<text text-anchor="start" x="7015" y="-107.5" font-family="Helvetica,sans-Serif" font-size="10.00">/home/runner/work/doxygen</text>
<text text-anchor="start" x="7015" y="-96.5" font-family="Helvetica,sans-Serif" font-size="10.00">/antimicrox/src/mousedialog</text>
<text text-anchor="middle" x="7093.5" y="-85.5" font-family="Helvetica,sans-Serif" font-size="10.00">/mousebuttonsettingsdialog.cpp</text>
</a>
</g>
</g>
<!-- Node2&#45;&gt;Node52 -->
<g id="edge46" class="edge">
<title>Node2&#45;&gt;Node52</title>
<path fill="none" stroke="midnightblue" d="M4935.75,-170.57C5288.81,-170.51 6588.46,-167.01 6997.5,-120 7000.54,-119.65 7003.64,-119.25 7006.75,-118.81"/>
<polygon fill="midnightblue" stroke="midnightblue" points="4935.58,-167.07 4925.58,-170.57 4935.58,-174.07 4935.58,-167.07"/>
</g>
<!-- Node53 -->
<g id="node43" class="node">
<title>Node53</title>
<g id="a_node43"><a xlink:href="mousecontrolsticksettingsdialog_8cpp.html" target="_top" xlink:title=" ">
<polygon fill="white" stroke="black" points="7198,-78.5 7198,-119.5 7397,-119.5 7397,-78.5 7198,-78.5"/>
<text text-anchor="start" x="7206" y="-107.5" font-family="Helvetica,sans-Serif" font-size="10.00">/home/runner/work/doxygen</text>
<text text-anchor="start" x="7206" y="-96.5" font-family="Helvetica,sans-Serif" font-size="10.00">/antimicrox/src/mousedialog</text>
<text text-anchor="middle" x="7297.5" y="-85.5" font-family="Helvetica,sans-Serif" font-size="10.00">/mousecontrolsticksettingsdialog.cpp</text>
</a>
</g>
</g>
<!-- Node2&#45;&gt;Node53 -->
<g id="edge47" class="edge">
<title>Node2&#45;&gt;Node53</title>
<path fill="none" stroke="midnightblue" d="M4935.78,-170.49C5308.2,-170.13 6739.43,-165.74 7188.5,-120 7191.56,-119.69 7194.67,-119.34 7197.8,-118.95"/>
<polygon fill="midnightblue" stroke="midnightblue" points="4935.59,-166.99 4925.59,-170.49 4935.6,-173.99 4935.59,-166.99"/>
</g>
<!-- Node54 -->
<g id="node44" class="node">
<title>Node54</title>
<g id="a_node44"><a xlink:href="mousedpadsettingsdialog_8cpp.html" target="_top" xlink:title=" ">
<polygon fill="white" stroke="black" points="7415.5,-78.5 7415.5,-119.5 7581.5,-119.5 7581.5,-78.5 7415.5,-78.5"/>
<text text-anchor="start" x="7423.5" y="-107.5" font-family="Helvetica,sans-Serif" font-size="10.00">/home/runner/work/doxygen</text>
<text text-anchor="start" x="7423.5" y="-96.5" font-family="Helvetica,sans-Serif" font-size="10.00">/antimicrox/src/mousedialog</text>
<text text-anchor="middle" x="7498.5" y="-85.5" font-family="Helvetica,sans-Serif" font-size="10.00">/mousedpadsettingsdialog.cpp</text>
</a>
</g>
</g>
<!-- Node2&#45;&gt;Node54 -->
<g id="edge48" class="edge">
<title>Node2&#45;&gt;Node54</title>
<path fill="none" stroke="midnightblue" d="M4935.63,-169.76C5358.97,-166.1 7156.55,-148.95 7405.5,-120 7408.78,-119.62 7412.12,-119.17 7415.48,-118.68"/>
<polygon fill="midnightblue" stroke="midnightblue" points="4935.55,-166.26 4925.59,-169.84 4935.62,-173.26 4935.55,-166.26"/>
</g>
<!-- Node55 -->
<g id="node45" class="node">
<title>Node55</title>
<g id="a_node45"><a xlink:href="mousesensorsettingsdialog_8cpp.html" target="_top" xlink:title=" ">
<polygon fill="white" stroke="black" points="7599.5,-78.5 7599.5,-119.5 7773.5,-119.5 7773.5,-78.5 7599.5,-78.5"/>
<text text-anchor="start" x="7607.5" y="-107.5" font-family="Helvetica,sans-Serif" font-size="10.00">/home/runner/work/doxygen</text>
<text text-anchor="start" x="7607.5" y="-96.5" font-family="Helvetica,sans-Serif" font-size="10.00">/antimicrox/src/mousedialog</text>
<text text-anchor="middle" x="7686.5" y="-85.5" font-family="Helvetica,sans-Serif" font-size="10.00">/mousesensorsettingsdialog.cpp</text>
</a>
</g>
</g>
<!-- Node2&#45;&gt;Node55 -->
<g id="edge49" class="edge">
<title>Node2&#45;&gt;Node55</title>
<path fill="none" stroke="midnightblue" d="M4935.84,-169.85C5378.06,-166.5 7322.21,-150.15 7590.5,-120 7593.46,-119.67 7596.47,-119.29 7599.49,-118.87"/>
<polygon fill="midnightblue" stroke="midnightblue" points="4935.65,-166.35 4925.67,-169.93 4935.7,-173.35 4935.65,-166.35"/>
</g>
<!-- Node36 -->
<g id="node46" class="node">
<title>Node36</title>
<g id="a_node46"><a xlink:href="sdleventreader_8cpp.html" target="_top" xlink:title=" ">
<polygon fill="white" stroke="black" points="7792,-84 7792,-114 7977,-114 7977,-84 7792,-84"/>
<text text-anchor="start" x="7800" y="-102" font-family="Helvetica,sans-Serif" font-size="10.00">/home/runner/work/doxygen</text>
<text text-anchor="middle" x="7884.5" y="-91" font-family="Helvetica,sans-Serif" font-size="10.00">/antimicrox/src/sdleventreader.cpp</text>
</a>
</g>
</g>
<!-- Node2&#45;&gt;Node36 -->
<g id="edge50" class="edge">
<title>Node2&#45;&gt;Node36</title>
<path fill="none" stroke="midnightblue" d="M4936,-169.9C5397.07,-166.69 7493.99,-150.53 7782.5,-120 7795.42,-118.63 7809.14,-116.45 7822.19,-114.03"/>
<polygon fill="midnightblue" stroke="midnightblue" points="4935.71,-166.4 4925.73,-169.97 4935.76,-173.4 4935.71,-166.4"/>
</g>
<!-- Node56 -->
<g id="node47" class="node">
<title>Node56</title>
<g id="a_node47"><a xlink:href="sensorpushbuttongroup_8cpp.html" target="_top" xlink:title=" ">
<polygon fill="white" stroke="black" points="7995,-84 7995,-114 8222,-114 8222,-84 7995,-84"/>
<text text-anchor="start" x="8003" y="-102" font-family="Helvetica,sans-Serif" font-size="10.00">/home/runner/work/doxygen</text>
<text text-anchor="middle" x="8108.5" y="-91" font-family="Helvetica,sans-Serif" font-size="10.00">/antimicrox/src/sensorpushbuttongroup.cpp</text>
</a>
</g>
</g>
<!-- Node2&#45;&gt;Node56 -->
<g id="edge51" class="edge">
<title>Node2&#45;&gt;Node56</title>
<path fill="none" stroke="midnightblue" d="M4935.84,-170.83C5381.89,-172.21 7370.76,-175.12 7986.5,-120 8001.89,-118.62 8018.28,-116.44 8033.88,-114.01"/>
<polygon fill="midnightblue" stroke="midnightblue" points="4935.6,-167.33 4925.59,-170.8 4935.58,-174.33 4935.6,-167.33"/>
</g>
<!-- Node57 -->
<g id="node48" class="node">
<title>Node57</title>
<g id="a_node48"><a xlink:href="setjoystick_8cpp.html" target="_top" xlink:title=" ">
<polygon fill="white" stroke="black" points="8240.5,-84 8240.5,-114 8406.5,-114 8406.5,-84 8240.5,-84"/>
<text text-anchor="start" x="8248.5" y="-102" font-family="Helvetica,sans-Serif" font-size="10.00">/home/runner/work/doxygen</text>
<text text-anchor="middle" x="8323.5" y="-91" font-family="Helvetica,sans-Serif" font-size="10.00">/antimicrox/src/setjoystick.cpp</text>
</a>
</g>
</g>
<!-- Node2&#45;&gt;Node57 -->
<g id="edge52" class="edge">
<title>Node2&#45;&gt;Node57</title>
<path fill="none" stroke="midnightblue" d="M4935.92,-170.23C5438.05,-168.58 7896.25,-158.55 8231.5,-120 8243.19,-118.66 8255.58,-116.49 8267.36,-114.06"/>
<polygon fill="midnightblue" stroke="midnightblue" points="4935.82,-166.73 4925.84,-170.26 4935.85,-173.73 4935.82,-166.73"/>
</g>
<!-- Node58 -->
<g id="node49" class="node">
<title>Node58</title>
<g id="a_node49"><a xlink:href="stickpushbuttongroup_8cpp.html" target="_top" xlink:title=" ">
<polygon fill="white" stroke="black" points="8424.5,-84 8424.5,-114 8642.5,-114 8642.5,-84 8424.5,-84"/>
<text text-anchor="start" x="8432.5" y="-102" font-family="Helvetica,sans-Serif" font-size="10.00">/home/runner/work/doxygen</text>
<text text-anchor="middle" x="8533.5" y="-91" font-family="Helvetica,sans-Serif" font-size="10.00">/antimicrox/src/stickpushbuttongroup.cpp</text>
</a>
</g>
</g>
<!-- Node2&#45;&gt;Node58 -->
<g id="edge53" class="edge">
<title>Node2&#45;&gt;Node58</title>
<path fill="none" stroke="midnightblue" d="M4935.71,-170.06C5453.32,-167.39 8060.03,-152.45 8415.5,-120 8430.4,-118.64 8446.25,-116.46 8461.34,-114.04"/>
<polygon fill="midnightblue" stroke="midnightblue" points="4935.67,-166.56 4925.68,-170.11 4935.7,-173.56 4935.67,-166.56"/>
</g>
<!-- Node59 -->
<g id="node50" class="node">
<title>Node59</title>
<g id="a_node50"><a xlink:href="gamecontrollermappingdialoghelper_8cpp.html" target="_top" xlink:title=" ">
<polygon fill="white" stroke="black" points="8661,-78.5 8661,-119.5 8878,-119.5 8878,-78.5 8661,-78.5"/>
<text text-anchor="start" x="8669" y="-107.5" font-family="Helvetica,sans-Serif" font-size="10.00">/home/runner/work/doxygen</text>
<text text-anchor="start" x="8669" y="-96.5" font-family="Helvetica,sans-Serif" font-size="10.00">/antimicrox/src/uihelpers</text>
<text text-anchor="middle" x="8769.5" y="-85.5" font-family="Helvetica,sans-Serif" font-size="10.00">/gamecontrollermappingdialoghelper.cpp</text>
</a>
</g>
</g>
<!-- Node2&#45;&gt;Node59 -->
<g id="edge54" class="edge">
<title>Node2&#45;&gt;Node59</title>
<path fill="none" stroke="midnightblue" d="M4935.93,-170.14C5474.08,-167.88 8271.19,-154.54 8651.5,-120 8654.6,-119.72 8657.75,-119.4 8660.92,-119.05"/>
<polygon fill="midnightblue" stroke="midnightblue" points="4935.88,-166.64 4925.89,-170.18 4935.91,-173.64 4935.88,-166.64"/>
</g>
<!-- Node6&#45;&gt;Node8 -->
<g id="edge6" class="edge">
<title>Node6&#45;&gt;Node8</title>
<path fill="none" stroke="midnightblue" d="M157.45,-72.64C142.63,-62.49 125.83,-50.98 111.99,-41.51"/>
<polygon fill="midnightblue" stroke="midnightblue" points="155.69,-75.67 165.91,-78.43 159.64,-69.89 155.69,-75.67"/>
</g>
<!-- Node6&#45;&gt;Node11 -->
<g id="edge7" class="edge">
<title>Node6&#45;&gt;Node11</title>
<path fill="none" stroke="midnightblue" d="M224.65,-71.66C238.27,-59.76 253.83,-46.18 265.22,-36.23"/>
<polygon fill="midnightblue" stroke="midnightblue" points="222.13,-69.21 216.9,-78.43 226.74,-74.49 222.13,-69.21"/>
</g>
<!-- Node32&#45;&gt;Node11 -->
<g id="edge28" class="edge">
<title>Node32&#45;&gt;Node11</title>
<path fill="none" stroke="midnightblue" d="M377.65,-78.64C355.09,-65.35 325.66,-48.02 305.33,-36.04"/>
<polygon fill="midnightblue" stroke="midnightblue" points="376.15,-81.82 386.54,-83.88 379.7,-75.79 376.15,-81.82"/>
</g>
<!-- Node32&#45;&gt;Node12 -->
<g id="edge29" class="edge">
<title>Node32&#45;&gt;Node12</title>
<path fill="none" stroke="midnightblue" d="M433.27,-76.89C447.26,-63.93 464.8,-47.68 477.15,-36.23"/>
<polygon fill="midnightblue" stroke="midnightblue" points="430.88,-74.34 425.92,-83.7 435.64,-79.47 430.88,-74.34"/>
</g>
<!-- Node32&#45;&gt;Node37 -->
<g id="edge30" class="edge">
<title>Node32&#45;&gt;Node37</title>
<path fill="none" stroke="midnightblue" d="M478.53,-81.59C534.86,-67.99 614.04,-48.89 667.43,-36.01"/>
<polygon fill="midnightblue" stroke="midnightblue" points="477.54,-78.22 468.64,-83.97 479.18,-85.03 477.54,-78.22"/>
</g>
</g>
</svg>
