<?xml version="1.0" encoding="UTF-8" standalone="no"?>
<!DOCTYPE svg PUBLIC "-//W3C//DTD SVG 1.1//EN"
 "http://www.w3.org/Graphics/SVG/1.1/DTD/svg11.dtd">
<!-- Generated by graphviz version 2.43.0 (0)
 -->
<!-- Title: /home/runner/work/doxygen/antimicrox/src/joybuttontypes/joyaxisbutton.cpp Pages: 1 -->
<svg width="2010pt" height="442pt"
 viewBox="0.00 0.00 2009.97 442.00" xmlns="http://www.w3.org/2000/svg" xmlns:xlink="http://www.w3.org/1999/xlink">
<g id="graph0" class="graph" transform="scale(1 1) rotate(0) translate(4 438)">
<title>/home/runner/work/doxygen/antimicrox/src/joybuttontypes/joyaxisbutton.cpp</title>
<polygon fill="white" stroke="transparent" points="-4,4 -4,-438 2005.97,-438 2005.97,4 -4,4"/>
<!-- Node1 -->
<g id="node1" class="node">
<title>Node1</title>
<g id="a_node1"><a xlink:title=" ">
<polygon fill="#bfbfbf" stroke="black" points="1415.97,-392.5 1415.97,-433.5 1581.97,-433.5 1581.97,-392.5 1415.97,-392.5"/>
<text text-anchor="start" x="1423.97" y="-421.5" font-family="Helvetica,sans-Serif" font-size="10.00">/home/runner/work/doxygen</text>
<text text-anchor="start" x="1423.97" y="-410.5" font-family="Helvetica,sans-Serif" font-size="10.00">/antimicrox/src/joybuttontypes</text>
<text text-anchor="middle" x="1498.97" y="-399.5" font-family="Helvetica,sans-Serif" font-size="10.00">/joyaxisbutton.cpp</text>
</a>
</g>
</g>
<!-- Node2 -->
<g id="node2" class="node">
<title>Node2</title>
<g id="a_node2"><a xlink:href="joyaxisbutton_8h.html" target="_top" xlink:title=" ">
<polygon fill="white" stroke="black" points="1219.97,-224.5 1219.97,-243.5 1311.97,-243.5 1311.97,-224.5 1219.97,-224.5"/>
<text text-anchor="middle" x="1265.97" y="-231.5" font-family="Helvetica,sans-Serif" font-size="10.00">joyaxisbutton.h</text>
</a>
</g>
</g>
<!-- Node1&#45;&gt;Node2 -->
<g id="edge1" class="edge">
<title>Node1&#45;&gt;Node2</title>
<path fill="none" stroke="midnightblue" d="M1424.67,-392.49C1400.57,-383.85 1374.73,-371.95 1353.97,-356 1316.7,-327.35 1288.15,-278.74 1274.61,-252.7"/>
<polygon fill="midnightblue" stroke="midnightblue" points="1277.66,-250.98 1270.03,-243.63 1271.41,-254.13 1277.66,-250.98"/>
</g>
<!-- Node4 -->
<g id="node4" class="node">
<title>Node4</title>
<g id="a_node4"><a xlink:href="joybutton_8h.html" target="_top" xlink:title=" ">
<polygon fill="white" stroke="black" points="1145.97,-112.5 1145.97,-131.5 1217.97,-131.5 1217.97,-112.5 1145.97,-112.5"/>
<text text-anchor="middle" x="1181.97" y="-119.5" font-family="Helvetica,sans-Serif" font-size="10.00">joybutton.h</text>
</a>
</g>
</g>
<!-- Node1&#45;&gt;Node4 -->
<g id="edge53" class="edge">
<title>Node1&#45;&gt;Node4</title>
<path fill="none" stroke="midnightblue" d="M1453.15,-392.39C1415.38,-372.78 1367.97,-338.68 1367.97,-291 1367.97,-291 1367.97,-291 1367.97,-233 1367.97,-202.77 1369.7,-189.01 1347.97,-168 1316.08,-137.17 1265.32,-126.97 1228.31,-123.83"/>
<polygon fill="midnightblue" stroke="midnightblue" points="1228.49,-120.34 1218.27,-123.13 1228,-127.32 1228.49,-120.34"/>
</g>
<!-- Node5 -->
<g id="node5" class="node">
<title>Node5</title>
<g id="a_node5"><a xlink:href="globalvariables_8h.html" target="_top" xlink:title=" ">
<polygon fill="white" stroke="black" points="1662.47,-56.5 1662.47,-75.5 1763.47,-75.5 1763.47,-56.5 1662.47,-56.5"/>
<text text-anchor="middle" x="1712.97" y="-63.5" font-family="Helvetica,sans-Serif" font-size="10.00">globalvariables.h</text>
</a>
</g>
</g>
<!-- Node1&#45;&gt;Node5 -->
<g id="edge47" class="edge">
<title>Node1&#45;&gt;Node5</title>
<path fill="none" stroke="midnightblue" d="M1582.03,-409.95C1661.09,-403.03 1776.18,-378.94 1832.97,-300 1887.5,-224.2 1777.48,-120.19 1731.7,-81.92"/>
<polygon fill="midnightblue" stroke="midnightblue" points="1733.9,-79.19 1723.95,-75.55 1729.46,-84.61 1733.9,-79.19"/>
</g>
<!-- Node27 -->
<g id="node27" class="node">
<title>Node27</title>
<g id="a_node27"><a xlink:href="event_8h.html" target="_top" xlink:title=" ">
<polygon fill="white" stroke="black" points="674.47,-280.5 674.47,-299.5 727.47,-299.5 727.47,-280.5 674.47,-280.5"/>
<text text-anchor="middle" x="700.97" y="-287.5" font-family="Helvetica,sans-Serif" font-size="10.00">event.h</text>
</a>
</g>
</g>
<!-- Node1&#45;&gt;Node27 -->
<g id="edge30" class="edge">
<title>Node1&#45;&gt;Node27</title>
<path fill="none" stroke="midnightblue" d="M1415.83,-399.39C1244.55,-373.42 858.34,-314.86 737.69,-296.57"/>
<polygon fill="midnightblue" stroke="midnightblue" points="737.92,-293.06 727.51,-295.02 736.87,-299.98 737.92,-293.06"/>
</g>
<!-- Node40 -->
<g id="node38" class="node">
<title>Node40</title>
<g id="a_node38"><a xlink:href="joyaxis_8h.html" target="_top" xlink:title=" ">
<polygon fill="white" stroke="black" points="1469.47,-280.5 1469.47,-299.5 1530.47,-299.5 1530.47,-280.5 1469.47,-280.5"/>
<text text-anchor="middle" x="1499.97" y="-287.5" font-family="Helvetica,sans-Serif" font-size="10.00">joyaxis.h</text>
</a>
</g>
</g>
<!-- Node1&#45;&gt;Node40 -->
<g id="edge48" class="edge">
<title>Node1&#45;&gt;Node40</title>
<path fill="none" stroke="midnightblue" d="M1499.13,-392.29C1499.32,-369.48 1499.63,-332.19 1499.82,-309.78"/>
<polygon fill="midnightblue" stroke="midnightblue" points="1503.32,-309.6 1499.9,-299.57 1496.32,-309.55 1503.32,-309.6"/>
</g>
<!-- Node42 -->
<g id="node40" class="node">
<title>Node42</title>
<g id="a_node40"><a xlink:href="setjoystick_8h.html" target="_top" xlink:title=" ">
<polygon fill="white" stroke="black" points="1527.47,-336.5 1527.47,-355.5 1606.47,-355.5 1606.47,-336.5 1527.47,-336.5"/>
<text text-anchor="middle" x="1566.97" y="-343.5" font-family="Helvetica,sans-Serif" font-size="10.00">setjoystick.h</text>
</a>
</g>
</g>
<!-- Node1&#45;&gt;Node42 -->
<g id="edge54" class="edge">
<title>Node1&#45;&gt;Node42</title>
<path fill="none" stroke="midnightblue" d="M1519.37,-392.5C1529.3,-383.01 1541.07,-371.76 1550.43,-362.81"/>
<polygon fill="midnightblue" stroke="midnightblue" points="1553.11,-365.09 1557.92,-355.65 1548.27,-360.03 1553.11,-365.09"/>
</g>
<!-- Node48 -->
<g id="node46" class="node">
<title>Node48</title>
<g id="a_node46"><a xlink:href="vdpad_8h.html" target="_top" xlink:title=" ">
<polygon fill="white" stroke="black" points="1017.97,-280.5 1017.97,-299.5 1073.97,-299.5 1073.97,-280.5 1017.97,-280.5"/>
<text text-anchor="middle" x="1045.97" y="-287.5" font-family="Helvetica,sans-Serif" font-size="10.00">vdpad.h</text>
</a>
</g>
</g>
<!-- Node1&#45;&gt;Node48 -->
<g id="edge63" class="edge">
<title>Node1&#45;&gt;Node48</title>
<path fill="none" stroke="midnightblue" d="M1417.57,-392.44C1374.74,-381.98 1321.42,-368.66 1273.97,-356 1206.87,-338.09 1129.17,-315.55 1083.99,-302.27"/>
<polygon fill="midnightblue" stroke="midnightblue" points="1084.9,-298.88 1074.32,-299.42 1082.93,-305.6 1084.9,-298.88"/>
</g>
<!-- Node51 -->
<g id="node49" class="node">
<title>Node51</title>
<g id="a_node49"><a xlink:title=" ">
<polygon fill="white" stroke="#bfbfbf" points="1880.47,-336.5 1880.47,-355.5 1927.47,-355.5 1927.47,-336.5 1880.47,-336.5"/>
<text text-anchor="middle" x="1903.97" y="-343.5" font-family="Helvetica,sans-Serif" font-size="10.00">cmath</text>
</a>
</g>
</g>
<!-- Node1&#45;&gt;Node51 -->
<g id="edge68" class="edge">
<title>Node1&#45;&gt;Node51</title>
<path fill="none" stroke="midnightblue" d="M1582.02,-401.29C1656.62,-391.2 1769.01,-374.85 1865.97,-356 1867.43,-355.72 1868.91,-355.42 1870.41,-355.1"/>
<polygon fill="midnightblue" stroke="midnightblue" points="1871.31,-358.49 1880.32,-352.92 1869.8,-351.65 1871.31,-358.49"/>
</g>
<!-- Node52 -->
<g id="node50" class="node">
<title>Node52</title>
<g id="a_node50"><a xlink:title=" ">
<polygon fill="white" stroke="#bfbfbf" points="1945.97,-336.5 1945.97,-355.5 2001.97,-355.5 2001.97,-336.5 1945.97,-336.5"/>
<text text-anchor="middle" x="1973.97" y="-343.5" font-family="Helvetica,sans-Serif" font-size="10.00">QDebug</text>
</a>
</g>
</g>
<!-- Node1&#45;&gt;Node52 -->
<g id="edge69" class="edge">
<title>Node1&#45;&gt;Node52</title>
<path fill="none" stroke="midnightblue" d="M1582.14,-404.15C1668.32,-395.39 1807.02,-379.52 1935.72,-356.06"/>
<polygon fill="midnightblue" stroke="midnightblue" points="1936.56,-359.46 1945.76,-354.21 1935.29,-352.58 1936.56,-359.46"/>
</g>
<!-- Node3 -->
<g id="node3" class="node">
<title>Node3</title>
<g id="a_node3"><a xlink:href="joygradientbutton_8h.html" target="_top" xlink:title=" ">
<polygon fill="white" stroke="black" points="1150.47,-168.5 1150.47,-187.5 1339.47,-187.5 1339.47,-168.5 1150.47,-168.5"/>
<text text-anchor="middle" x="1244.97" y="-175.5" font-family="Helvetica,sans-Serif" font-size="10.00">joybuttontypes/joygradientbutton.h</text>
</a>
</g>
</g>
<!-- Node2&#45;&gt;Node3 -->
<g id="edge2" class="edge">
<title>Node2&#45;&gt;Node3</title>
<path fill="none" stroke="midnightblue" d="M1262.5,-224.08C1259.66,-216.77 1255.54,-206.18 1252.01,-197.1"/>
<polygon fill="midnightblue" stroke="midnightblue" points="1255.26,-195.8 1248.37,-187.75 1248.74,-198.34 1255.26,-195.8"/>
</g>
<!-- Node22 -->
<g id="node22" class="node">
<title>Node22</title>
<g id="a_node22"><a xlink:href="logger_8h.html" target="_top" xlink:title=" ">
<polygon fill="white" stroke="black" points="626.97,-56.5 626.97,-75.5 682.97,-75.5 682.97,-56.5 626.97,-56.5"/>
<text text-anchor="middle" x="654.97" y="-63.5" font-family="Helvetica,sans-Serif" font-size="10.00">logger.h</text>
</a>
</g>
</g>
<!-- Node2&#45;&gt;Node22 -->
<g id="edge23" class="edge">
<title>Node2&#45;&gt;Node22</title>
<path fill="none" stroke="midnightblue" d="M1219.88,-231.37C1126.79,-226.52 911.49,-207.36 749.97,-132 721.18,-118.57 691.51,-96.75 673.16,-82.14"/>
<polygon fill="midnightblue" stroke="midnightblue" points="675.08,-79.2 665.11,-75.62 670.67,-84.64 675.08,-79.2"/>
</g>
<!-- Node3&#45;&gt;Node4 -->
<g id="edge3" class="edge">
<title>Node3&#45;&gt;Node4</title>
<path fill="none" stroke="midnightblue" d="M1234.85,-168.32C1225.44,-160.26 1211.23,-148.08 1199.9,-138.37"/>
<polygon fill="midnightblue" stroke="midnightblue" points="1202.15,-135.68 1192.28,-131.83 1197.59,-141 1202.15,-135.68"/>
</g>
<!-- Node4&#45;&gt;Node5 -->
<g id="edge4" class="edge">
<title>Node4&#45;&gt;Node5</title>
<path fill="none" stroke="midnightblue" d="M1218.05,-117.33C1307.58,-108.23 1540.69,-84.52 1652.03,-73.2"/>
<polygon fill="midnightblue" stroke="midnightblue" points="1652.5,-76.67 1662.1,-72.17 1651.8,-69.7 1652.5,-76.67"/>
</g>
<!-- Node8 -->
<g id="node8" class="node">
<title>Node8</title>
<g id="a_node8"><a xlink:href="joybuttonmousehelper_8h.html" target="_top" xlink:title=" ">
<polygon fill="white" stroke="black" points="1114.47,-56.5 1114.47,-75.5 1249.47,-75.5 1249.47,-56.5 1114.47,-56.5"/>
<text text-anchor="middle" x="1181.97" y="-63.5" font-family="Helvetica,sans-Serif" font-size="10.00">joybuttonmousehelper.h</text>
</a>
</g>
</g>
<!-- Node4&#45;&gt;Node8 -->
<g id="edge7" class="edge">
<title>Node4&#45;&gt;Node8</title>
<path fill="none" stroke="midnightblue" d="M1181.97,-112.08C1181.97,-105.01 1181.97,-94.86 1181.97,-85.99"/>
<polygon fill="midnightblue" stroke="midnightblue" points="1185.47,-85.75 1181.97,-75.75 1178.47,-85.75 1185.47,-85.75"/>
</g>
<!-- Node9 -->
<g id="node9" class="node">
<title>Node9</title>
<g id="a_node9"><a xlink:href="joybuttonslot_8h.html" target="_top" xlink:title=" ">
<polygon fill="white" stroke="black" points="358.97,-56.5 358.97,-75.5 448.97,-75.5 448.97,-56.5 358.97,-56.5"/>
<text text-anchor="middle" x="403.97" y="-63.5" font-family="Helvetica,sans-Serif" font-size="10.00">joybuttonslot.h</text>
</a>
</g>
</g>
<!-- Node4&#45;&gt;Node9 -->
<g id="edge9" class="edge">
<title>Node4&#45;&gt;Node9</title>
<path fill="none" stroke="midnightblue" d="M1145.75,-118.49C1021.24,-109.84 610.25,-81.32 459.79,-70.87"/>
<polygon fill="midnightblue" stroke="midnightblue" points="459.64,-67.36 449.42,-70.15 459.15,-74.34 459.64,-67.36"/>
</g>
<!-- Node15 -->
<g id="node15" class="node">
<title>Node15</title>
<g id="a_node15"><a xlink:href="springmousemoveinfo_8h.html" target="_top" xlink:title=" ">
<polygon fill="white" stroke="black" points="848.47,-56.5 848.47,-75.5 983.47,-75.5 983.47,-56.5 848.47,-56.5"/>
<text text-anchor="middle" x="915.97" y="-63.5" font-family="Helvetica,sans-Serif" font-size="10.00">springmousemoveinfo.h</text>
</a>
</g>
</g>
<!-- Node4&#45;&gt;Node15 -->
<g id="edge16" class="edge">
<title>Node4&#45;&gt;Node15</title>
<path fill="none" stroke="midnightblue" d="M1145.82,-113.66C1100.01,-104.36 1020.72,-88.26 968.3,-77.62"/>
<polygon fill="midnightblue" stroke="midnightblue" points="968.68,-74.13 958.19,-75.57 967.29,-80.99 968.68,-74.13"/>
</g>
<!-- Node16 -->
<g id="node16" class="node">
<title>Node16</title>
<g id="a_node16"><a xlink:title=" ">
<polygon fill="white" stroke="#bfbfbf" points="1471.97,-56.5 1471.97,-75.5 1567.97,-75.5 1567.97,-56.5 1471.97,-56.5"/>
<text text-anchor="middle" x="1519.97" y="-63.5" font-family="Helvetica,sans-Serif" font-size="10.00">QDeadlineTimer</text>
</a>
</g>
</g>
<!-- Node4&#45;&gt;Node16 -->
<g id="edge17" class="edge">
<title>Node4&#45;&gt;Node16</title>
<path fill="none" stroke="midnightblue" d="M1218.14,-115.22C1276.5,-105.9 1391.93,-87.46 1461.9,-76.28"/>
<polygon fill="midnightblue" stroke="midnightblue" points="1462.56,-79.72 1471.89,-74.68 1461.46,-72.8 1462.56,-79.72"/>
</g>
<!-- Node17 -->
<g id="node17" class="node">
<title>Node17</title>
<g id="a_node17"><a xlink:title=" ">
<polygon fill="white" stroke="#bfbfbf" points="1039.97,-56.5 1039.97,-75.5 1095.97,-75.5 1095.97,-56.5 1039.97,-56.5"/>
<text text-anchor="middle" x="1067.97" y="-63.5" font-family="Helvetica,sans-Serif" font-size="10.00">QQueue</text>
</a>
</g>
</g>
<!-- Node4&#45;&gt;Node17 -->
<g id="edge18" class="edge">
<title>Node4&#45;&gt;Node17</title>
<path fill="none" stroke="midnightblue" d="M1163.91,-112.44C1145.4,-103.68 1116.39,-89.94 1095.12,-79.86"/>
<polygon fill="midnightblue" stroke="midnightblue" points="1096.49,-76.63 1085.95,-75.52 1093.49,-82.96 1096.49,-76.63"/>
</g>
<!-- Node18 -->
<g id="node18" class="node">
<title>Node18</title>
<g id="a_node18"><a xlink:title=" ">
<polygon fill="white" stroke="#bfbfbf" points="1267.97,-56.5 1267.97,-75.5 1365.97,-75.5 1365.97,-56.5 1267.97,-56.5"/>
<text text-anchor="middle" x="1316.97" y="-63.5" font-family="Helvetica,sans-Serif" font-size="10.00">QReadWriteLock</text>
</a>
</g>
</g>
<!-- Node4&#45;&gt;Node18 -->
<g id="edge19" class="edge">
<title>Node4&#45;&gt;Node18</title>
<path fill="none" stroke="midnightblue" d="M1203.36,-112.44C1225.68,-103.52 1260.87,-89.44 1286.18,-79.32"/>
<polygon fill="midnightblue" stroke="midnightblue" points="1287.7,-82.48 1295.68,-75.52 1285.1,-75.98 1287.7,-82.48"/>
</g>
<!-- Node19 -->
<g id="node19" class="node">
<title>Node19</title>
<g id="a_node19"><a xlink:title=" ">
<polygon fill="white" stroke="#bfbfbf" points="1383.97,-56.5 1383.97,-75.5 1453.97,-75.5 1453.97,-56.5 1383.97,-56.5"/>
<text text-anchor="middle" x="1418.97" y="-63.5" font-family="Helvetica,sans-Serif" font-size="10.00">QRunnable</text>
</a>
</g>
</g>
<!-- Node4&#45;&gt;Node19 -->
<g id="edge20" class="edge">
<title>Node4&#45;&gt;Node19</title>
<path fill="none" stroke="midnightblue" d="M1218.22,-112.74C1260.06,-103.21 1328.87,-87.53 1374.06,-77.23"/>
<polygon fill="midnightblue" stroke="midnightblue" points="1374.91,-80.63 1383.88,-75 1373.35,-73.8 1374.91,-80.63"/>
</g>
<!-- Node20 -->
<g id="node20" class="node">
<title>Node20</title>
<g id="a_node20"><a xlink:title=" ">
<polygon fill="white" stroke="#bfbfbf" points="868.97,-0.5 868.97,-19.5 926.97,-19.5 926.97,-0.5 868.97,-0.5"/>
<text text-anchor="middle" x="897.97" y="-7.5" font-family="Helvetica,sans-Serif" font-size="10.00">QThread</text>
</a>
</g>
</g>
<!-- Node4&#45;&gt;Node20 -->
<g id="edge21" class="edge">
<title>Node4&#45;&gt;Node20</title>
<path fill="none" stroke="midnightblue" d="M1146.56,-112.42C1115.56,-104.45 1069.56,-91.49 1030.97,-76 1012.89,-68.74 1009.42,-64.65 991.97,-56 969.75,-44.98 944.37,-32.86 925.58,-23.98"/>
<polygon fill="midnightblue" stroke="midnightblue" points="926.95,-20.75 916.42,-19.65 923.96,-27.08 926.95,-20.75"/>
</g>
<!-- Node21 -->
<g id="node21" class="node">
<title>Node21</title>
<g id="a_node21"><a xlink:title=" ">
<polygon fill="white" stroke="#bfbfbf" points="777.47,-56.5 777.47,-75.5 830.47,-75.5 830.47,-56.5 777.47,-56.5"/>
<text text-anchor="middle" x="803.97" y="-63.5" font-family="Helvetica,sans-Serif" font-size="10.00">QTimer</text>
</a>
</g>
</g>
<!-- Node4&#45;&gt;Node21 -->
<g id="edge22" class="edge">
<title>Node4&#45;&gt;Node21</title>
<path fill="none" stroke="midnightblue" d="M1145.69,-117.7C1084.63,-111.83 957.3,-98.24 840.81,-76.17"/>
<polygon fill="midnightblue" stroke="midnightblue" points="841.13,-72.67 830.65,-74.22 839.81,-79.54 841.13,-72.67"/>
</g>
<!-- Node6 -->
<g id="node6" class="node">
<title>Node6</title>
<g id="a_node6"><a xlink:title=" ">
<polygon fill="white" stroke="#bfbfbf" points="1731.47,-0.5 1731.47,-19.5 1772.47,-19.5 1772.47,-0.5 1731.47,-0.5"/>
<text text-anchor="middle" x="1751.97" y="-7.5" font-family="Helvetica,sans-Serif" font-size="10.00">QList</text>
</a>
</g>
</g>
<!-- Node5&#45;&gt;Node6 -->
<g id="edge5" class="edge">
<title>Node5&#45;&gt;Node6</title>
<path fill="none" stroke="midnightblue" d="M1719.41,-56.08C1724.92,-48.46 1733,-37.26 1739.74,-27.94"/>
<polygon fill="midnightblue" stroke="midnightblue" points="1742.63,-29.91 1745.65,-19.75 1736.96,-25.81 1742.63,-29.91"/>
</g>
<!-- Node7 -->
<g id="node7" class="node">
<title>Node7</title>
<g id="a_node7"><a xlink:title=" ">
<polygon fill="white" stroke="#bfbfbf" points="1153.97,-0.5 1153.97,-19.5 1209.97,-19.5 1209.97,-0.5 1153.97,-0.5"/>
<text text-anchor="middle" x="1181.97" y="-7.5" font-family="Helvetica,sans-Serif" font-size="10.00">QObject</text>
</a>
</g>
</g>
<!-- Node5&#45;&gt;Node7 -->
<g id="edge6" class="edge">
<title>Node5&#45;&gt;Node7</title>
<path fill="none" stroke="midnightblue" d="M1662.25,-57.77C1657.43,-57.15 1652.61,-56.54 1647.97,-56 1489.4,-37.37 1299.81,-20.84 1220.17,-14.15"/>
<polygon fill="midnightblue" stroke="midnightblue" points="1220.37,-10.66 1210.12,-13.31 1219.79,-17.63 1220.37,-10.66"/>
</g>
<!-- Node8&#45;&gt;Node7 -->
<g id="edge8" class="edge">
<title>Node8&#45;&gt;Node7</title>
<path fill="none" stroke="midnightblue" d="M1181.97,-56.08C1181.97,-49.01 1181.97,-38.86 1181.97,-29.99"/>
<polygon fill="midnightblue" stroke="midnightblue" points="1185.47,-29.75 1181.97,-19.75 1178.47,-29.75 1185.47,-29.75"/>
</g>
<!-- Node9&#45;&gt;Node7 -->
<g id="edge11" class="edge">
<title>Node9&#45;&gt;Node7</title>
<path fill="none" stroke="midnightblue" d="M449.16,-61.86C589.06,-52.15 1013.41,-22.7 1143.58,-13.66"/>
<polygon fill="midnightblue" stroke="midnightblue" points="1144.12,-17.14 1153.85,-12.95 1143.64,-10.15 1144.12,-17.14"/>
</g>
<!-- Node10 -->
<g id="node10" class="node">
<title>Node10</title>
<g id="a_node10"><a xlink:title=" ">
<polygon fill="white" stroke="#bfbfbf" points="234.47,-0.5 234.47,-19.5 325.47,-19.5 325.47,-0.5 234.47,-0.5"/>
<text text-anchor="middle" x="279.97" y="-7.5" font-family="Helvetica,sans-Serif" font-size="10.00">QElapsedTimer</text>
</a>
</g>
</g>
<!-- Node9&#45;&gt;Node10 -->
<g id="edge10" class="edge">
<title>Node9&#45;&gt;Node10</title>
<path fill="none" stroke="midnightblue" d="M384.32,-56.44C364.01,-47.6 332.07,-33.69 308.87,-23.59"/>
<polygon fill="midnightblue" stroke="midnightblue" points="310.09,-20.3 299.53,-19.52 307.3,-26.72 310.09,-20.3"/>
</g>
<!-- Node11 -->
<g id="node11" class="node">
<title>Node11</title>
<g id="a_node11"><a xlink:title=" ">
<polygon fill="white" stroke="#bfbfbf" points="487.47,-0.5 487.47,-19.5 546.47,-19.5 546.47,-0.5 487.47,-0.5"/>
<text text-anchor="middle" x="516.97" y="-7.5" font-family="Helvetica,sans-Serif" font-size="10.00">QPointer</text>
</a>
</g>
</g>
<!-- Node9&#45;&gt;Node11 -->
<g id="edge12" class="edge">
<title>Node9&#45;&gt;Node11</title>
<path fill="none" stroke="midnightblue" d="M421.88,-56.44C440.23,-47.68 468.98,-33.94 490.06,-23.86"/>
<polygon fill="midnightblue" stroke="midnightblue" points="491.64,-26.99 499.15,-19.52 488.62,-20.67 491.64,-26.99"/>
</g>
<!-- Node12 -->
<g id="node12" class="node">
<title>Node12</title>
<g id="a_node12"><a xlink:title=" ">
<polygon fill="white" stroke="#bfbfbf" points="343.47,-0.5 343.47,-19.5 392.47,-19.5 392.47,-0.5 343.47,-0.5"/>
<text text-anchor="middle" x="367.97" y="-7.5" font-family="Helvetica,sans-Serif" font-size="10.00">QTime</text>
</a>
</g>
</g>
<!-- Node9&#45;&gt;Node12 -->
<g id="edge13" class="edge">
<title>Node9&#45;&gt;Node12</title>
<path fill="none" stroke="midnightblue" d="M398.03,-56.08C392.99,-48.53 385.63,-37.49 379.46,-28.23"/>
<polygon fill="midnightblue" stroke="midnightblue" points="382.26,-26.13 373.81,-19.75 376.44,-30.01 382.26,-26.13"/>
</g>
<!-- Node13 -->
<g id="node13" class="node">
<title>Node13</title>
<g id="a_node13"><a xlink:title=" ">
<polygon fill="white" stroke="#bfbfbf" points="410.47,-0.5 410.47,-19.5 469.47,-19.5 469.47,-0.5 410.47,-0.5"/>
<text text-anchor="middle" x="439.97" y="-7.5" font-family="Helvetica,sans-Serif" font-size="10.00">QVariant</text>
</a>
</g>
</g>
<!-- Node9&#45;&gt;Node13 -->
<g id="edge14" class="edge">
<title>Node9&#45;&gt;Node13</title>
<path fill="none" stroke="midnightblue" d="M409.92,-56.08C414.95,-48.53 422.31,-37.49 428.48,-28.23"/>
<polygon fill="midnightblue" stroke="midnightblue" points="431.5,-30.01 434.14,-19.75 425.68,-26.13 431.5,-30.01"/>
</g>
<!-- Node14 -->
<g id="node14" class="node">
<title>Node14</title>
<g id="a_node14"><a xlink:title=" ">
<polygon fill="white" stroke="#bfbfbf" points="83.47,-0.5 83.47,-19.5 216.47,-19.5 216.47,-0.5 83.47,-0.5"/>
<text text-anchor="middle" x="149.97" y="-7.5" font-family="Helvetica,sans-Serif" font-size="10.00">QtWidgets/QApplication</text>
</a>
</g>
</g>
<!-- Node9&#45;&gt;Node14 -->
<g id="edge15" class="edge">
<title>Node9&#45;&gt;Node14</title>
<path fill="none" stroke="midnightblue" d="M363.72,-56.44C319.32,-47 247.82,-31.8 199.88,-21.61"/>
<polygon fill="midnightblue" stroke="midnightblue" points="200.54,-18.17 190.03,-19.52 199.08,-25.02 200.54,-18.17"/>
</g>
<!-- Node22&#45;&gt;Node7 -->
<g id="edge26" class="edge">
<title>Node22&#45;&gt;Node7</title>
<path fill="none" stroke="midnightblue" d="M683.1,-61.75C698.43,-60.01 717.74,-57.84 734.97,-56 886.08,-39.89 1066.1,-22.24 1143.49,-14.72"/>
<polygon fill="midnightblue" stroke="midnightblue" points="1144.1,-18.18 1153.72,-13.73 1143.43,-11.21 1144.1,-18.18"/>
</g>
<!-- Node22&#45;&gt;Node20 -->
<g id="edge28" class="edge">
<title>Node22&#45;&gt;Node20</title>
<path fill="none" stroke="midnightblue" d="M683.19,-58.96C720.89,-50.86 790.04,-35.88 858.8,-20.24"/>
<polygon fill="midnightblue" stroke="midnightblue" points="859.96,-23.56 868.94,-17.93 858.41,-16.74 859.96,-23.56"/>
</g>
<!-- Node23 -->
<g id="node23" class="node">
<title>Node23</title>
<g id="a_node23"><a xlink:title=" ">
<polygon fill="white" stroke="#bfbfbf" points="564.47,-0.5 564.47,-19.5 605.47,-19.5 605.47,-0.5 564.47,-0.5"/>
<text text-anchor="middle" x="584.97" y="-7.5" font-family="Helvetica,sans-Serif" font-size="10.00">QFile</text>
</a>
</g>
</g>
<!-- Node22&#45;&gt;Node23 -->
<g id="edge24" class="edge">
<title>Node22&#45;&gt;Node23</title>
<path fill="none" stroke="midnightblue" d="M643.72,-56.32C633.17,-48.18 617.17,-35.84 604.53,-26.09"/>
<polygon fill="midnightblue" stroke="midnightblue" points="606.48,-23.17 596.42,-19.83 602.2,-28.71 606.48,-23.17"/>
</g>
<!-- Node24 -->
<g id="node24" class="node">
<title>Node24</title>
<g id="a_node24"><a xlink:title=" ">
<polygon fill="white" stroke="#bfbfbf" points="623.47,-0.5 623.47,-19.5 678.47,-19.5 678.47,-0.5 623.47,-0.5"/>
<text text-anchor="middle" x="650.97" y="-7.5" font-family="Helvetica,sans-Serif" font-size="10.00">QMutex</text>
</a>
</g>
</g>
<!-- Node22&#45;&gt;Node24 -->
<g id="edge25" class="edge">
<title>Node22&#45;&gt;Node24</title>
<path fill="none" stroke="midnightblue" d="M654.31,-56.08C653.79,-49.01 653.03,-38.86 652.38,-29.99"/>
<polygon fill="midnightblue" stroke="midnightblue" points="655.85,-29.47 651.62,-19.75 648.87,-29.98 655.85,-29.47"/>
</g>
<!-- Node25 -->
<g id="node25" class="node">
<title>Node25</title>
<g id="a_node25"><a xlink:title=" ">
<polygon fill="white" stroke="#bfbfbf" points="696.97,-0.5 696.97,-19.5 776.97,-19.5 776.97,-0.5 696.97,-0.5"/>
<text text-anchor="middle" x="736.97" y="-7.5" font-family="Helvetica,sans-Serif" font-size="10.00">QTextStream</text>
</a>
</g>
</g>
<!-- Node22&#45;&gt;Node25 -->
<g id="edge27" class="edge">
<title>Node22&#45;&gt;Node25</title>
<path fill="none" stroke="midnightblue" d="M668.15,-56.32C680.82,-47.98 700.2,-35.21 715.18,-25.35"/>
<polygon fill="midnightblue" stroke="midnightblue" points="717.4,-28.08 723.83,-19.65 713.55,-22.23 717.4,-28.08"/>
</g>
<!-- Node26 -->
<g id="node26" class="node">
<title>Node26</title>
<g id="a_node26"><a xlink:title=" ">
<polygon fill="white" stroke="#bfbfbf" points="794.97,-0.5 794.97,-19.5 850.97,-19.5 850.97,-0.5 794.97,-0.5"/>
<text text-anchor="middle" x="822.97" y="-7.5" font-family="Helvetica,sans-Serif" font-size="10.00">sstream</text>
</a>
</g>
</g>
<!-- Node22&#45;&gt;Node26 -->
<g id="edge29" class="edge">
<title>Node22&#45;&gt;Node26</title>
<path fill="none" stroke="midnightblue" d="M681.59,-56.44C709.98,-47.32 755.11,-32.81 786.72,-22.65"/>
<polygon fill="midnightblue" stroke="midnightblue" points="788.03,-25.91 796.48,-19.52 785.88,-19.24 788.03,-25.91"/>
</g>
<!-- Node27&#45;&gt;Node9 -->
<g id="edge45" class="edge">
<title>Node27&#45;&gt;Node9</title>
<path fill="none" stroke="midnightblue" d="M674.2,-289.44C558.73,-290.74 105.22,-289.24 17.97,-188 -74.89,-80.24 220.85,-67.25 348.38,-66.53"/>
<polygon fill="midnightblue" stroke="midnightblue" points="348.74,-70.03 358.73,-66.5 348.72,-63.03 348.74,-70.03"/>
</g>
<!-- Node27&#45;&gt;Node15 -->
<g id="edge46" class="edge">
<title>Node27&#45;&gt;Node15</title>
<path fill="none" stroke="midnightblue" d="M709.91,-280.28C734.01,-256.73 802.2,-189.67 856.97,-132 872.47,-115.68 889.72,-96.56 901.54,-83.3"/>
<polygon fill="midnightblue" stroke="midnightblue" points="904.43,-85.33 908.45,-75.53 899.19,-80.68 904.43,-85.33"/>
</g>
<!-- Node28 -->
<g id="node28" class="node">
<title>Node28</title>
<g id="a_node28"><a xlink:href="common_8h.html" target="_top" xlink:title=" ">
<polygon fill="white" stroke="black" points="401.97,-224.5 401.97,-243.5 469.97,-243.5 469.97,-224.5 401.97,-224.5"/>
<text text-anchor="middle" x="435.97" y="-231.5" font-family="Helvetica,sans-Serif" font-size="10.00">common.h</text>
</a>
</g>
</g>
<!-- Node27&#45;&gt;Node28 -->
<g id="edge31" class="edge">
<title>Node27&#45;&gt;Node28</title>
<path fill="none" stroke="midnightblue" d="M674.1,-283.53C628.52,-274.24 535.6,-255.3 480.27,-244.03"/>
<polygon fill="midnightblue" stroke="midnightblue" points="480.89,-240.58 470.39,-242.01 479.49,-247.44 480.89,-240.58"/>
</g>
<!-- Node28&#45;&gt;Node20 -->
<g id="edge41" class="edge">
<title>Node28&#45;&gt;Node20</title>
<path fill="none" stroke="midnightblue" d="M470.3,-229.63C527.1,-223.53 637.56,-209.29 669.97,-188 729.32,-149.02 703.18,-98.62 759.97,-56 775.75,-44.16 823.83,-29.97 858.81,-20.74"/>
<polygon fill="midnightblue" stroke="midnightblue" points="859.95,-24.06 868.75,-18.15 858.19,-17.28 859.95,-24.06"/>
</g>
<!-- Node29 -->
<g id="node29" class="node">
<title>Node29</title>
<g id="a_node29"><a xlink:href="antimicrosettings_8h.html" target="_top" xlink:title=" ">
<polygon fill="white" stroke="red" points="550.47,-168.5 550.47,-187.5 661.47,-187.5 661.47,-168.5 550.47,-168.5"/>
<text text-anchor="middle" x="605.97" y="-175.5" font-family="Helvetica,sans-Serif" font-size="10.00">antimicrosettings.h</text>
</a>
</g>
</g>
<!-- Node28&#45;&gt;Node29 -->
<g id="edge32" class="edge">
<title>Node28&#45;&gt;Node29</title>
<path fill="none" stroke="midnightblue" d="M462.91,-224.44C491.63,-215.32 537.3,-200.81 569.29,-190.65"/>
<polygon fill="midnightblue" stroke="midnightblue" points="570.69,-193.88 579.16,-187.52 568.57,-187.21 570.69,-193.88"/>
</g>
<!-- Node33 -->
<g id="node31" class="node">
<title>Node33</title>
<g id="a_node31"><a xlink:title=" ">
<polygon fill="white" stroke="#bfbfbf" points="158.47,-168.5 158.47,-187.5 213.47,-187.5 213.47,-168.5 158.47,-168.5"/>
<text text-anchor="middle" x="185.97" y="-175.5" font-family="Helvetica,sans-Serif" font-size="10.00">config.h</text>
</a>
</g>
</g>
<!-- Node28&#45;&gt;Node33 -->
<g id="edge35" class="edge">
<title>Node28&#45;&gt;Node33</title>
<path fill="none" stroke="midnightblue" d="M401.96,-226.15C361.83,-217.99 292.85,-203.74 223.99,-188.18"/>
<polygon fill="midnightblue" stroke="midnightblue" points="224.36,-184.67 213.83,-185.87 222.81,-191.5 224.36,-184.67"/>
</g>
<!-- Node34 -->
<g id="node32" class="node">
<title>Node34</title>
<g id="a_node32"><a xlink:href="mousehelper_8h.html" target="_top" xlink:title=" ">
<polygon fill="white" stroke="black" points="759.47,-112.5 759.47,-131.5 848.47,-131.5 848.47,-112.5 759.47,-112.5"/>
<text text-anchor="middle" x="803.97" y="-119.5" font-family="Helvetica,sans-Serif" font-size="10.00">mousehelper.h</text>
</a>
</g>
</g>
<!-- Node28&#45;&gt;Node34 -->
<g id="edge36" class="edge">
<title>Node28&#45;&gt;Node34</title>
<path fill="none" stroke="midnightblue" d="M470.15,-231.7C522.26,-228.76 623.96,-219.16 703.97,-188 735.26,-175.81 767.04,-152.99 786.13,-137.89"/>
<polygon fill="midnightblue" stroke="midnightblue" points="788.38,-140.57 793.96,-131.56 783.98,-135.12 788.38,-140.57"/>
</g>
<!-- Node35 -->
<g id="node33" class="node">
<title>Node35</title>
<g id="a_node33"><a xlink:title=" ">
<polygon fill="white" stroke="#bfbfbf" points="231.97,-168.5 231.97,-187.5 269.97,-187.5 269.97,-168.5 231.97,-168.5"/>
<text text-anchor="middle" x="250.97" y="-175.5" font-family="Helvetica,sans-Serif" font-size="10.00">QDir</text>
</a>
</g>
</g>
<!-- Node28&#45;&gt;Node35 -->
<g id="edge39" class="edge">
<title>Node28&#45;&gt;Node35</title>
<path fill="none" stroke="midnightblue" d="M405.2,-224.49C375.47,-216.2 328.93,-203.05 280.03,-188.26"/>
<polygon fill="midnightblue" stroke="midnightblue" points="280.81,-184.84 270.23,-185.28 278.78,-191.53 280.81,-184.84"/>
</g>
<!-- Node36 -->
<g id="node34" class="node">
<title>Node36</title>
<g id="a_node34"><a xlink:title=" ">
<polygon fill="white" stroke="#bfbfbf" points="287.97,-168.5 287.97,-187.5 331.97,-187.5 331.97,-168.5 287.97,-168.5"/>
<text text-anchor="middle" x="309.97" y="-175.5" font-family="Helvetica,sans-Serif" font-size="10.00">QIcon</text>
</a>
</g>
</g>
<!-- Node28&#45;&gt;Node36 -->
<g id="edge40" class="edge">
<title>Node28&#45;&gt;Node36</title>
<path fill="none" stroke="midnightblue" d="M416.01,-224.44C395.36,-215.6 362.91,-201.69 339.34,-191.59"/>
<polygon fill="midnightblue" stroke="midnightblue" points="340.41,-188.24 329.84,-187.52 337.66,-194.67 340.41,-188.24"/>
</g>
<!-- Node37 -->
<g id="node35" class="node">
<title>Node37</title>
<g id="a_node35"><a xlink:title=" ">
<polygon fill="white" stroke="#bfbfbf" points="349.97,-168.5 349.97,-187.5 421.97,-187.5 421.97,-168.5 349.97,-168.5"/>
<text text-anchor="middle" x="385.97" y="-175.5" font-family="Helvetica,sans-Serif" font-size="10.00">QTranslator</text>
</a>
</g>
</g>
<!-- Node28&#45;&gt;Node37 -->
<g id="edge42" class="edge">
<title>Node28&#45;&gt;Node37</title>
<path fill="none" stroke="midnightblue" d="M427.71,-224.08C420.51,-216.3 409.86,-204.8 401.13,-195.37"/>
<polygon fill="midnightblue" stroke="midnightblue" points="403.44,-192.71 394.07,-187.75 398.3,-197.47 403.44,-192.71"/>
</g>
<!-- Node38 -->
<g id="node36" class="node">
<title>Node38</title>
<g id="a_node36"><a xlink:title=" ">
<polygon fill="white" stroke="#bfbfbf" points="439.97,-168.5 439.97,-187.5 531.97,-187.5 531.97,-168.5 439.97,-168.5"/>
<text text-anchor="middle" x="485.97" y="-175.5" font-family="Helvetica,sans-Serif" font-size="10.00">QWaitCondition</text>
</a>
</g>
</g>
<!-- Node28&#45;&gt;Node38 -->
<g id="edge43" class="edge">
<title>Node28&#45;&gt;Node38</title>
<path fill="none" stroke="midnightblue" d="M444.23,-224.08C451.44,-216.3 462.08,-204.8 470.82,-195.37"/>
<polygon fill="midnightblue" stroke="midnightblue" points="473.64,-197.47 477.87,-187.75 468.51,-192.71 473.64,-197.47"/>
</g>
<!-- Node39 -->
<g id="node37" class="node">
<title>Node39</title>
<g id="a_node37"><a xlink:title=" ">
<polygon fill="white" stroke="#bfbfbf" points="27.47,-168.5 27.47,-187.5 140.47,-187.5 140.47,-168.5 27.47,-168.5"/>
<text text-anchor="middle" x="83.97" y="-175.5" font-family="Helvetica,sans-Serif" font-size="10.00">SDL2/SDL_version.h</text>
</a>
</g>
</g>
<!-- Node28&#45;&gt;Node39 -->
<g id="edge44" class="edge">
<title>Node28&#45;&gt;Node39</title>
<path fill="none" stroke="midnightblue" d="M401.9,-227.77C343.81,-218.86 224.65,-200.58 149.85,-189.11"/>
<polygon fill="midnightblue" stroke="midnightblue" points="150.02,-185.59 139.6,-187.53 148.96,-192.51 150.02,-185.59"/>
</g>
<!-- Node30 -->
<g id="node30" class="node">
<title>Node30</title>
<g id="a_node30"><a xlink:href="commandlineutility_8h.html" target="_top" xlink:title=" ">
<polygon fill="white" stroke="red" points="545.47,-112.5 545.47,-131.5 664.47,-131.5 664.47,-112.5 545.47,-112.5"/>
<text text-anchor="middle" x="604.97" y="-119.5" font-family="Helvetica,sans-Serif" font-size="10.00">commandlineutility.h</text>
</a>
</g>
</g>
<!-- Node29&#45;&gt;Node30 -->
<g id="edge33" class="edge">
<title>Node29&#45;&gt;Node30</title>
<path fill="none" stroke="midnightblue" d="M605.81,-168.08C605.67,-161.01 605.49,-150.86 605.32,-141.99"/>
<polygon fill="midnightblue" stroke="midnightblue" points="608.82,-141.68 605.13,-131.75 601.82,-141.81 608.82,-141.68"/>
</g>
<!-- Node30&#45;&gt;Node22 -->
<g id="edge34" class="edge">
<title>Node30&#45;&gt;Node22</title>
<path fill="none" stroke="midnightblue" d="M613.23,-112.08C620.44,-104.3 631.08,-92.8 639.82,-83.37"/>
<polygon fill="midnightblue" stroke="midnightblue" points="642.64,-85.47 646.87,-75.75 637.51,-80.71 642.64,-85.47"/>
</g>
<!-- Node34&#45;&gt;Node7 -->
<g id="edge37" class="edge">
<title>Node34&#45;&gt;Node7</title>
<path fill="none" stroke="midnightblue" d="M793.01,-112.44C777.38,-99.24 752.21,-73.57 767.97,-56 792.84,-28.29 1045.74,-16.04 1143.6,-12.31"/>
<polygon fill="midnightblue" stroke="midnightblue" points="1143.8,-15.8 1153.66,-11.93 1143.54,-8.81 1143.8,-15.8"/>
</g>
<!-- Node34&#45;&gt;Node21 -->
<g id="edge38" class="edge">
<title>Node34&#45;&gt;Node21</title>
<path fill="none" stroke="midnightblue" d="M803.97,-112.08C803.97,-105.01 803.97,-94.86 803.97,-85.99"/>
<polygon fill="midnightblue" stroke="midnightblue" points="807.47,-85.75 803.97,-75.75 800.47,-85.75 807.47,-85.75"/>
</g>
<!-- Node40&#45;&gt;Node2 -->
<g id="edge52" class="edge">
<title>Node40&#45;&gt;Node2</title>
<path fill="none" stroke="midnightblue" d="M1469.38,-281.94C1429.56,-272.75 1359.57,-256.6 1312.99,-245.85"/>
<polygon fill="midnightblue" stroke="midnightblue" points="1313.66,-242.41 1303.13,-243.58 1312.09,-249.24 1313.66,-242.41"/>
</g>
<!-- Node40&#45;&gt;Node6 -->
<g id="edge49" class="edge">
<title>Node40&#45;&gt;Node6</title>
<path fill="none" stroke="midnightblue" d="M1522.03,-280.34C1577.39,-257.2 1721.48,-187.96 1772.97,-76 1780.15,-60.39 1772.48,-41.64 1764.47,-28.3"/>
<polygon fill="midnightblue" stroke="midnightblue" points="1767.21,-26.08 1758.78,-19.66 1761.36,-29.93 1767.21,-26.08"/>
</g>
<!-- Node40&#45;&gt;Node7 -->
<g id="edge50" class="edge">
<title>Node40&#45;&gt;Node7</title>
<path fill="none" stroke="midnightblue" d="M1473.04,-280.36C1456.25,-273.41 1435.99,-261.82 1425.97,-244 1421.61,-236.25 1422.53,-232.2 1425.97,-224 1445.41,-177.72 1610.4,-93.45 1576.97,-56 1553.44,-29.63 1314.71,-16.65 1220.2,-12.51"/>
<polygon fill="midnightblue" stroke="midnightblue" points="1220.34,-9.02 1210.2,-12.09 1220.04,-16.01 1220.34,-9.02"/>
</g>
<!-- Node41 -->
<g id="node39" class="node">
<title>Node41</title>
<g id="a_node39"><a xlink:href="haptictriggermodeps5_8h.html" target="_top" xlink:title=" ">
<polygon fill="white" stroke="black" points="1434.47,-224.5 1434.47,-243.5 1567.47,-243.5 1567.47,-224.5 1434.47,-224.5"/>
<text text-anchor="middle" x="1500.97" y="-231.5" font-family="Helvetica,sans-Serif" font-size="10.00">haptictriggermodeps5.h</text>
</a>
</g>
</g>
<!-- Node40&#45;&gt;Node41 -->
<g id="edge51" class="edge">
<title>Node40&#45;&gt;Node41</title>
<path fill="none" stroke="midnightblue" d="M1500.14,-280.08C1500.27,-273.01 1500.46,-262.86 1500.62,-253.99"/>
<polygon fill="midnightblue" stroke="midnightblue" points="1504.12,-253.81 1500.81,-243.75 1497.12,-253.68 1504.12,-253.81"/>
</g>
<!-- Node42&#45;&gt;Node40 -->
<g id="edge55" class="edge">
<title>Node42&#45;&gt;Node40</title>
<path fill="none" stroke="midnightblue" d="M1556.21,-336.32C1546.2,-328.26 1531.08,-316.08 1519.04,-306.37"/>
<polygon fill="midnightblue" stroke="midnightblue" points="1520.91,-303.38 1510.93,-299.83 1516.52,-308.83 1520.91,-303.38"/>
</g>
<!-- Node43 -->
<g id="node41" class="node">
<title>Node43</title>
<g id="a_node41"><a xlink:href="joysensordirection_8h.html" target="_top" xlink:title=" ">
<polygon fill="white" stroke="black" points="1593.97,-280.5 1593.97,-299.5 1709.97,-299.5 1709.97,-280.5 1593.97,-280.5"/>
<text text-anchor="middle" x="1651.97" y="-287.5" font-family="Helvetica,sans-Serif" font-size="10.00">joysensordirection.h</text>
</a>
</g>
</g>
<!-- Node42&#45;&gt;Node43 -->
<g id="edge56" class="edge">
<title>Node42&#45;&gt;Node43</title>
<path fill="none" stroke="midnightblue" d="M1580.63,-336.32C1593.89,-327.9 1614.24,-314.97 1629.82,-305.07"/>
<polygon fill="midnightblue" stroke="midnightblue" points="1631.78,-307.97 1638.35,-299.65 1628.03,-302.06 1631.78,-307.97"/>
</g>
<!-- Node45 -->
<g id="node43" class="node">
<title>Node45</title>
<g id="a_node43"><a xlink:href="joysensortype_8h.html" target="_top" xlink:title=" ">
<polygon fill="white" stroke="black" points="1728.47,-280.5 1728.47,-299.5 1823.47,-299.5 1823.47,-280.5 1728.47,-280.5"/>
<text text-anchor="middle" x="1775.97" y="-287.5" font-family="Helvetica,sans-Serif" font-size="10.00">joysensortype.h</text>
</a>
</g>
</g>
<!-- Node42&#45;&gt;Node45 -->
<g id="edge58" class="edge">
<title>Node42&#45;&gt;Node45</title>
<path fill="none" stroke="midnightblue" d="M1600.09,-336.44C1636.09,-327.14 1693.74,-312.25 1733.16,-302.06"/>
<polygon fill="midnightblue" stroke="midnightblue" points="1734.2,-305.41 1743.01,-299.52 1732.45,-298.63 1734.2,-305.41"/>
</g>
<!-- Node47 -->
<g id="node45" class="node">
<title>Node47</title>
<g id="a_node45"><a xlink:href="setjoystickxml_8h.html" target="_top" xlink:title=" ">
<polygon fill="white" stroke="black" points="1574.47,-112.5 1574.47,-131.5 1693.47,-131.5 1693.47,-112.5 1574.47,-112.5"/>
<text text-anchor="middle" x="1633.97" y="-119.5" font-family="Helvetica,sans-Serif" font-size="10.00">xml/setjoystickxml.h</text>
</a>
</g>
</g>
<!-- Node42&#45;&gt;Node47 -->
<g id="edge61" class="edge">
<title>Node42&#45;&gt;Node47</title>
<path fill="none" stroke="midnightblue" d="M1569.33,-336.14C1572.68,-323.61 1579.08,-299.99 1584.97,-280 1599.77,-229.72 1618.54,-170.83 1627.98,-141.53"/>
<polygon fill="midnightblue" stroke="midnightblue" points="1631.37,-142.41 1631.11,-131.82 1624.71,-140.26 1631.37,-142.41"/>
</g>
<!-- Node44 -->
<g id="node42" class="node">
<title>Node44</title>
<g id="a_node42"><a xlink:title=" ">
<polygon fill="white" stroke="#bfbfbf" points="1662.47,-224.5 1662.47,-243.5 1733.47,-243.5 1733.47,-224.5 1662.47,-224.5"/>
<text text-anchor="middle" x="1697.97" y="-231.5" font-family="Helvetica,sans-Serif" font-size="10.00">QMetaType</text>
</a>
</g>
</g>
<!-- Node43&#45;&gt;Node44 -->
<g id="edge57" class="edge">
<title>Node43&#45;&gt;Node44</title>
<path fill="none" stroke="midnightblue" d="M1659.57,-280.08C1666.2,-272.3 1675.99,-260.8 1684.03,-251.37"/>
<polygon fill="midnightblue" stroke="midnightblue" points="1686.7,-253.63 1690.52,-243.75 1681.37,-249.09 1686.7,-253.63"/>
</g>
<!-- Node45&#45;&gt;Node44 -->
<g id="edge59" class="edge">
<title>Node45&#45;&gt;Node44</title>
<path fill="none" stroke="midnightblue" d="M1763.44,-280.32C1751.39,-271.98 1732.94,-259.21 1718.7,-249.35"/>
<polygon fill="midnightblue" stroke="midnightblue" points="1720.69,-246.47 1710.47,-243.65 1716.7,-252.22 1720.69,-246.47"/>
</g>
<!-- Node46 -->
<g id="node44" class="node">
<title>Node46</title>
<g id="a_node44"><a xlink:title=" ">
<polygon fill="white" stroke="#bfbfbf" points="1751.97,-224.5 1751.97,-243.5 1823.97,-243.5 1823.97,-224.5 1751.97,-224.5"/>
<text text-anchor="middle" x="1787.97" y="-231.5" font-family="Helvetica,sans-Serif" font-size="10.00">SDL2/SDL.h</text>
</a>
</g>
</g>
<!-- Node45&#45;&gt;Node46 -->
<g id="edge60" class="edge">
<title>Node45&#45;&gt;Node46</title>
<path fill="none" stroke="midnightblue" d="M1777.95,-280.08C1779.54,-272.93 1781.83,-262.64 1783.82,-253.69"/>
<polygon fill="midnightblue" stroke="midnightblue" points="1787.27,-254.27 1786.03,-243.75 1780.44,-252.75 1787.27,-254.27"/>
</g>
<!-- Node47&#45;&gt;Node7 -->
<g id="edge62" class="edge">
<title>Node47&#45;&gt;Node7</title>
<path fill="none" stroke="midnightblue" d="M1633.53,-112.16C1632.3,-97.82 1627.63,-69.73 1609.97,-56 1579.53,-32.33 1319.77,-17.57 1220.41,-12.74"/>
<polygon fill="midnightblue" stroke="midnightblue" points="1220.36,-9.24 1210.2,-12.25 1220.03,-16.23 1220.36,-9.24"/>
</g>
<!-- Node48&#45;&gt;Node11 -->
<g id="edge67" class="edge">
<title>Node48&#45;&gt;Node11</title>
<path fill="none" stroke="midnightblue" d="M1020.57,-280.35C960.13,-259.87 802.83,-207.2 669.97,-168 610.82,-150.55 577.19,-177.87 535.97,-132 510.59,-103.76 511.37,-56.04 514.17,-29.76"/>
<polygon fill="midnightblue" stroke="midnightblue" points="517.67,-30 515.46,-19.63 510.72,-29.11 517.67,-30"/>
</g>
<!-- Node49 -->
<g id="node47" class="node">
<title>Node49</title>
<g id="a_node47"><a xlink:href="joydpad_8h.html" target="_top" xlink:title=" ">
<polygon fill="white" stroke="black" points="1013.47,-224.5 1013.47,-243.5 1078.47,-243.5 1078.47,-224.5 1013.47,-224.5"/>
<text text-anchor="middle" x="1045.97" y="-231.5" font-family="Helvetica,sans-Serif" font-size="10.00">joydpad.h</text>
</a>
</g>
</g>
<!-- Node48&#45;&gt;Node49 -->
<g id="edge64" class="edge">
<title>Node48&#45;&gt;Node49</title>
<path fill="none" stroke="midnightblue" d="M1045.97,-280.08C1045.97,-273.01 1045.97,-262.86 1045.97,-253.99"/>
<polygon fill="midnightblue" stroke="midnightblue" points="1049.47,-253.75 1045.97,-243.75 1042.47,-253.75 1049.47,-253.75"/>
</g>
<!-- Node50 -->
<g id="node48" class="node">
<title>Node50</title>
<g id="a_node48"><a xlink:href="joydpadbutton_8h.html" target="_top" xlink:title=" ">
<polygon fill="white" stroke="black" points="959.47,-168.5 959.47,-187.5 1132.47,-187.5 1132.47,-168.5 959.47,-168.5"/>
<text text-anchor="middle" x="1045.97" y="-175.5" font-family="Helvetica,sans-Serif" font-size="10.00">joybuttontypes/joydpadbutton.h</text>
</a>
</g>
</g>
<!-- Node49&#45;&gt;Node50 -->
<g id="edge65" class="edge">
<title>Node49&#45;&gt;Node50</title>
<path fill="none" stroke="midnightblue" d="M1045.97,-224.08C1045.97,-217.01 1045.97,-206.86 1045.97,-197.99"/>
<polygon fill="midnightblue" stroke="midnightblue" points="1049.47,-197.75 1045.97,-187.75 1042.47,-197.75 1049.47,-197.75"/>
</g>
<!-- Node50&#45;&gt;Node4 -->
<g id="edge66" class="edge">
<title>Node50&#45;&gt;Node4</title>
<path fill="none" stroke="midnightblue" d="M1067.52,-168.44C1090,-159.52 1125.46,-145.44 1150.95,-135.32"/>
<polygon fill="midnightblue" stroke="midnightblue" points="1152.52,-138.46 1160.52,-131.52 1149.94,-131.95 1152.52,-138.46"/>
</g>
</g>
</svg>
