<?xml version="1.0" encoding="UTF-8" standalone="no"?>
<!DOCTYPE svg PUBLIC "-//W3C//DTD SVG 1.1//EN"
 "http://www.w3.org/Graphics/SVG/1.1/DTD/svg11.dtd">
<!-- Generated by graphviz version 2.43.0 (0)
 -->
<!-- Title: /home/runner/work/doxygen/antimicrox/src/xml/joyaxisxml.cpp Pages: 1 -->
<svg width="2080pt" height="487pt"
 viewBox="0.00 0.00 2080.00 487.00" xmlns="http://www.w3.org/2000/svg" xmlns:xlink="http://www.w3.org/1999/xlink">
<g id="graph0" class="graph" transform="scale(1 1) rotate(0) translate(4 483)">
<title>/home/runner/work/doxygen/antimicrox/src/xml/joyaxisxml.cpp</title>
<polygon fill="white" stroke="transparent" points="-4,4 -4,-483 2076,-483 2076,4 -4,4"/>
<!-- Node1 -->
<g id="node1" class="node">
<title>Node1</title>
<g id="a_node1"><a xlink:title=" ">
<polygon fill="#bfbfbf" stroke="black" points="1508,-448.5 1508,-478.5 1696,-478.5 1696,-448.5 1508,-448.5"/>
<text text-anchor="start" x="1516" y="-466.5" font-family="Helvetica,sans-Serif" font-size="10.00">/home/runner/work/doxygen</text>
<text text-anchor="middle" x="1602" y="-455.5" font-family="Helvetica,sans-Serif" font-size="10.00">/antimicrox/src/xml/joyaxisxml.cpp</text>
</a>
</g>
</g>
<!-- Node2 -->
<g id="node2" class="node">
<title>Node2</title>
<g id="a_node2"><a xlink:href="joyaxisxml_8h.html" target="_top" xlink:title=" ">
<polygon fill="white" stroke="black" points="0,-56.5 0,-75.5 80,-75.5 80,-56.5 0,-56.5"/>
<text text-anchor="middle" x="40" y="-63.5" font-family="Helvetica,sans-Serif" font-size="10.00">joyaxisxml.h</text>
</a>
</g>
</g>
<!-- Node1&#45;&gt;Node2 -->
<g id="edge1" class="edge">
<title>Node1&#45;&gt;Node2</title>
<path fill="none" stroke="midnightblue" d="M1507.83,-459.84C1189.16,-450.24 171,-414.28 171,-347 171,-347 171,-347 171,-177 171,-127.04 114.42,-95.23 75.63,-79.3"/>
<polygon fill="midnightblue" stroke="midnightblue" points="76.78,-76 66.19,-75.59 74.22,-82.51 76.78,-76"/>
</g>
<!-- Node5 -->
<g id="node5" class="node">
<title>Node5</title>
<g id="a_node5"><a xlink:href="haptictriggerps5_8h.html" target="_top" xlink:title=" ">
<polygon fill="white" stroke="black" points="610.5,-280.5 610.5,-299.5 715.5,-299.5 715.5,-280.5 610.5,-280.5"/>
<text text-anchor="middle" x="663" y="-287.5" font-family="Helvetica,sans-Serif" font-size="10.00">haptictriggerps5.h</text>
</a>
</g>
</g>
<!-- Node1&#45;&gt;Node5 -->
<g id="edge4" class="edge">
<title>Node1&#45;&gt;Node5</title>
<path fill="none" stroke="midnightblue" d="M1525.16,-448.47C1341.61,-414.94 880.98,-330.81 719.78,-301.37"/>
<polygon fill="midnightblue" stroke="midnightblue" points="720.07,-297.87 709.6,-299.51 718.81,-304.75 720.07,-297.87"/>
</g>
<!-- Node10 -->
<g id="node10" class="node">
<title>Node10</title>
<g id="a_node10"><a xlink:href="inputdevice_8h.html" target="_top" xlink:title=" ">
<polygon fill="white" stroke="black" points="1630.5,-392.5 1630.5,-411.5 1713.5,-411.5 1713.5,-392.5 1630.5,-392.5"/>
<text text-anchor="middle" x="1672" y="-399.5" font-family="Helvetica,sans-Serif" font-size="10.00">inputdevice.h</text>
</a>
</g>
</g>
<!-- Node1&#45;&gt;Node10 -->
<g id="edge10" class="edge">
<title>Node1&#45;&gt;Node10</title>
<path fill="none" stroke="midnightblue" d="M1618.59,-448.4C1629.29,-439.31 1643.19,-427.49 1654.13,-418.19"/>
<polygon fill="midnightblue" stroke="midnightblue" points="1656.46,-420.8 1661.81,-411.66 1651.93,-415.47 1656.46,-420.8"/>
</g>
<!-- Node18 -->
<g id="node18" class="node">
<title>Node18</title>
<g id="a_node18"><a xlink:href="joyaxis_8h.html" target="_top" xlink:title=" ">
<polygon fill="white" stroke="black" points="1504.5,-280.5 1504.5,-299.5 1565.5,-299.5 1565.5,-280.5 1504.5,-280.5"/>
<text text-anchor="middle" x="1535" y="-287.5" font-family="Helvetica,sans-Serif" font-size="10.00">joyaxis.h</text>
</a>
</g>
</g>
<!-- Node1&#45;&gt;Node18 -->
<g id="edge57" class="edge">
<title>Node1&#45;&gt;Node18</title>
<path fill="none" stroke="midnightblue" d="M1596.52,-448.47C1584.45,-417.57 1555.58,-343.69 1542.13,-309.25"/>
<polygon fill="midnightblue" stroke="midnightblue" points="1545.24,-307.6 1538.34,-299.56 1538.72,-310.15 1545.24,-307.6"/>
</g>
<!-- Node20 -->
<g id="node20" class="node">
<title>Node20</title>
<g id="a_node20"><a xlink:href="joyaxisbutton_8h.html" target="_top" xlink:title=" ">
<polygon fill="white" stroke="black" points="1233.5,-224.5 1233.5,-243.5 1402.5,-243.5 1402.5,-224.5 1233.5,-224.5"/>
<text text-anchor="middle" x="1318" y="-231.5" font-family="Helvetica,sans-Serif" font-size="10.00">joybuttontypes/joyaxisbutton.h</text>
</a>
</g>
</g>
<!-- Node1&#45;&gt;Node20 -->
<g id="edge58" class="edge">
<title>Node1&#45;&gt;Node20</title>
<path fill="none" stroke="midnightblue" d="M1584.23,-448.27C1533.61,-407.72 1388.92,-291.81 1336.91,-250.15"/>
<polygon fill="midnightblue" stroke="midnightblue" points="1338.84,-247.21 1328.85,-243.69 1334.47,-252.67 1338.84,-247.21"/>
</g>
<!-- Node44 -->
<g id="node44" class="node">
<title>Node44</title>
<g id="a_node44"><a xlink:href="joybuttonxml_8h.html" target="_top" xlink:title=" ">
<polygon fill="white" stroke="black" points="1592.5,-168.5 1592.5,-187.5 1705.5,-187.5 1705.5,-168.5 1592.5,-168.5"/>
<text text-anchor="middle" x="1649" y="-175.5" font-family="Helvetica,sans-Serif" font-size="10.00">xml/joybuttonxml.h</text>
</a>
</g>
</g>
<!-- Node1&#45;&gt;Node44 -->
<g id="edge59" class="edge">
<title>Node1&#45;&gt;Node44</title>
<path fill="none" stroke="midnightblue" d="M1602,-448.28C1602,-426.48 1602,-383.49 1602,-347 1602,-347 1602,-347 1602,-289 1602,-253.7 1622.72,-216.79 1636.64,-195.96"/>
<polygon fill="midnightblue" stroke="midnightblue" points="1639.63,-197.8 1642.46,-187.59 1633.88,-193.8 1639.63,-197.8"/>
</g>
<!-- Node45 -->
<g id="node45" class="node">
<title>Node45</title>
<g id="a_node45"><a xlink:title=" ">
<polygon fill="white" stroke="#bfbfbf" points="1732,-392.5 1732,-411.5 1788,-411.5 1788,-392.5 1732,-392.5"/>
<text text-anchor="middle" x="1760" y="-399.5" font-family="Helvetica,sans-Serif" font-size="10.00">QDebug</text>
</a>
</g>
</g>
<!-- Node1&#45;&gt;Node45 -->
<g id="edge61" class="edge">
<title>Node1&#45;&gt;Node45</title>
<path fill="none" stroke="midnightblue" d="M1639.44,-448.4C1666.19,-438.33 1701.82,-424.91 1727.4,-415.28"/>
<polygon fill="midnightblue" stroke="midnightblue" points="1728.88,-418.46 1737.01,-411.66 1726.42,-411.91 1728.88,-418.46"/>
</g>
<!-- Node46 -->
<g id="node46" class="node">
<title>Node46</title>
<g id="a_node46"><a xlink:title=" ">
<polygon fill="white" stroke="#bfbfbf" points="1806.5,-392.5 1806.5,-411.5 1919.5,-411.5 1919.5,-392.5 1806.5,-392.5"/>
<text text-anchor="middle" x="1863" y="-399.5" font-family="Helvetica,sans-Serif" font-size="10.00">QXmlStreamReader</text>
</a>
</g>
</g>
<!-- Node1&#45;&gt;Node46 -->
<g id="edge62" class="edge">
<title>Node1&#45;&gt;Node46</title>
<path fill="none" stroke="midnightblue" d="M1663.52,-448.47C1710.12,-437.85 1773.19,-423.47 1815.84,-413.75"/>
<polygon fill="midnightblue" stroke="midnightblue" points="1816.71,-417.14 1825.69,-411.51 1815.16,-410.32 1816.71,-417.14"/>
</g>
<!-- Node47 -->
<g id="node47" class="node">
<title>Node47</title>
<g id="a_node47"><a xlink:title=" ">
<polygon fill="white" stroke="#bfbfbf" points="1937.5,-392.5 1937.5,-411.5 2046.5,-411.5 2046.5,-392.5 1937.5,-392.5"/>
<text text-anchor="middle" x="1992" y="-399.5" font-family="Helvetica,sans-Serif" font-size="10.00">QXmlStreamWriter</text>
</a>
</g>
</g>
<!-- Node1&#45;&gt;Node47 -->
<g id="edge63" class="edge">
<title>Node1&#45;&gt;Node47</title>
<path fill="none" stroke="midnightblue" d="M1693.93,-448.47C1765.75,-437.52 1863.76,-422.57 1927.46,-412.85"/>
<polygon fill="midnightblue" stroke="midnightblue" points="1928.02,-416.3 1937.37,-411.33 1926.96,-409.38 1928.02,-416.3"/>
</g>
<!-- Node3 -->
<g id="node3" class="node">
<title>Node3</title>
<g id="a_node3"><a xlink:title=" ">
<polygon fill="white" stroke="#bfbfbf" points="1321,-0.5 1321,-19.5 1377,-19.5 1377,-0.5 1321,-0.5"/>
<text text-anchor="middle" x="1349" y="-7.5" font-family="Helvetica,sans-Serif" font-size="10.00">QObject</text>
</a>
</g>
</g>
<!-- Node2&#45;&gt;Node3 -->
<g id="edge2" class="edge">
<title>Node2&#45;&gt;Node3</title>
<path fill="none" stroke="midnightblue" d="M80.04,-57.15C83.07,-56.71 86.08,-56.32 89,-56 334.62,-29.2 1126.89,-14.67 1310.67,-11.61"/>
<polygon fill="midnightblue" stroke="midnightblue" points="1310.98,-15.11 1320.92,-11.44 1310.87,-8.11 1310.98,-15.11"/>
</g>
<!-- Node4 -->
<g id="node4" class="node">
<title>Node4</title>
<g id="a_node4"><a xlink:title=" ">
<polygon fill="white" stroke="#bfbfbf" points="131.5,-0.5 131.5,-19.5 190.5,-19.5 190.5,-0.5 131.5,-0.5"/>
<text text-anchor="middle" x="161" y="-7.5" font-family="Helvetica,sans-Serif" font-size="10.00">QPointer</text>
</a>
</g>
</g>
<!-- Node2&#45;&gt;Node4 -->
<g id="edge3" class="edge">
<title>Node2&#45;&gt;Node4</title>
<path fill="none" stroke="midnightblue" d="M59.17,-56.44C78.91,-47.64 109.89,-33.81 132.49,-23.72"/>
<polygon fill="midnightblue" stroke="midnightblue" points="134.21,-26.79 141.92,-19.52 131.36,-20.4 134.21,-26.79"/>
</g>
<!-- Node5&#45;&gt;Node3 -->
<g id="edge5" class="edge">
<title>Node5&#45;&gt;Node3</title>
<path fill="none" stroke="midnightblue" d="M659.36,-280.34C651.99,-262 636,-217.74 636,-179 636,-179 636,-179 636,-121 636,-90.9 631.51,-74.82 655,-56 706.31,-14.88 1172.76,-11.16 1310.73,-10.96"/>
<polygon fill="midnightblue" stroke="midnightblue" points="1310.83,-14.46 1320.83,-10.95 1310.83,-7.46 1310.83,-14.46"/>
</g>
<!-- Node6 -->
<g id="node6" class="node">
<title>Node6</title>
<g id="a_node6"><a xlink:title=" ">
<polygon fill="white" stroke="#bfbfbf" points="664.5,-224.5 664.5,-243.5 717.5,-243.5 717.5,-224.5 664.5,-224.5"/>
<text text-anchor="middle" x="691" y="-231.5" font-family="Helvetica,sans-Serif" font-size="10.00">QString</text>
</a>
</g>
</g>
<!-- Node5&#45;&gt;Node6 -->
<g id="edge6" class="edge">
<title>Node5&#45;&gt;Node6</title>
<path fill="none" stroke="midnightblue" d="M667.62,-280.08C671.46,-272.69 677.02,-261.95 681.76,-252.81"/>
<polygon fill="midnightblue" stroke="midnightblue" points="684.97,-254.24 686.46,-243.75 678.75,-251.02 684.97,-254.24"/>
</g>
<!-- Node7 -->
<g id="node7" class="node">
<title>Node7</title>
<g id="a_node7"><a xlink:title=" ">
<polygon fill="white" stroke="#bfbfbf" points="385.5,-224.5 385.5,-243.5 536.5,-243.5 536.5,-224.5 385.5,-224.5"/>
<text text-anchor="middle" x="461" y="-231.5" font-family="Helvetica,sans-Serif" font-size="10.00">SDL2/SDL_gamecontroller.h</text>
</a>
</g>
</g>
<!-- Node5&#45;&gt;Node7 -->
<g id="edge7" class="edge">
<title>Node5&#45;&gt;Node7</title>
<path fill="none" stroke="midnightblue" d="M630.99,-280.44C596.27,-271.16 540.71,-256.31 502.62,-246.13"/>
<polygon fill="midnightblue" stroke="midnightblue" points="503.42,-242.72 492.86,-243.52 501.61,-249.48 503.42,-242.72"/>
</g>
<!-- Node8 -->
<g id="node8" class="node">
<title>Node8</title>
<g id="a_node8"><a xlink:title=" ">
<polygon fill="white" stroke="#bfbfbf" points="554.5,-224.5 554.5,-243.5 607.5,-243.5 607.5,-224.5 554.5,-224.5"/>
<text text-anchor="middle" x="581" y="-231.5" font-family="Helvetica,sans-Serif" font-size="10.00">stdint.h</text>
</a>
</g>
</g>
<!-- Node5&#45;&gt;Node8 -->
<g id="edge8" class="edge">
<title>Node5&#45;&gt;Node8</title>
<path fill="none" stroke="midnightblue" d="M649.83,-280.32C637.15,-271.98 617.77,-259.21 602.79,-249.35"/>
<polygon fill="midnightblue" stroke="midnightblue" points="604.42,-246.23 594.14,-243.65 600.57,-252.08 604.42,-246.23"/>
</g>
<!-- Node9 -->
<g id="node9" class="node">
<title>Node9</title>
<g id="a_node9"><a xlink:href="haptictriggermodeps5_8h.html" target="_top" xlink:title=" ">
<polygon fill="white" stroke="black" points="1052.5,-224.5 1052.5,-243.5 1185.5,-243.5 1185.5,-224.5 1052.5,-224.5"/>
<text text-anchor="middle" x="1119" y="-231.5" font-family="Helvetica,sans-Serif" font-size="10.00">haptictriggermodeps5.h</text>
</a>
</g>
</g>
<!-- Node5&#45;&gt;Node9 -->
<g id="edge9" class="edge">
<title>Node5&#45;&gt;Node9</title>
<path fill="none" stroke="midnightblue" d="M715.75,-282.75C796.09,-273.24 949.51,-255.07 1042.2,-244.09"/>
<polygon fill="midnightblue" stroke="midnightblue" points="1042.85,-247.54 1052.37,-242.89 1042.02,-240.59 1042.85,-247.54"/>
</g>
<!-- Node11 -->
<g id="node11" class="node">
<title>Node11</title>
<g id="a_node11"><a xlink:href="inputdevicecalibration_8h.html" target="_top" xlink:title=" ">
<polygon fill="white" stroke="black" points="1804,-336.5 1804,-355.5 1938,-355.5 1938,-336.5 1804,-336.5"/>
<text text-anchor="middle" x="1871" y="-343.5" font-family="Helvetica,sans-Serif" font-size="10.00">inputdevicecalibration.h</text>
</a>
</g>
</g>
<!-- Node10&#45;&gt;Node11 -->
<g id="edge11" class="edge">
<title>Node10&#45;&gt;Node11</title>
<path fill="none" stroke="midnightblue" d="M1703.53,-392.44C1737.59,-383.2 1792.01,-368.44 1829.52,-358.26"/>
<polygon fill="midnightblue" stroke="midnightblue" points="1830.88,-361.51 1839.62,-355.52 1829.05,-354.76 1830.88,-361.51"/>
</g>
<!-- Node13 -->
<g id="node13" class="node">
<title>Node13</title>
<g id="a_node13"><a xlink:href="joysensordirection_8h.html" target="_top" xlink:title=" ">
<polygon fill="white" stroke="black" points="1668,-280.5 1668,-299.5 1784,-299.5 1784,-280.5 1668,-280.5"/>
<text text-anchor="middle" x="1726" y="-287.5" font-family="Helvetica,sans-Serif" font-size="10.00">joysensordirection.h</text>
</a>
</g>
</g>
<!-- Node10&#45;&gt;Node13 -->
<g id="edge13" class="edge">
<title>Node10&#45;&gt;Node13</title>
<path fill="none" stroke="midnightblue" d="M1685.22,-392.38C1696.27,-384.38 1711.42,-371.41 1719,-356 1726.12,-341.52 1727.49,-323.07 1727.3,-309.53"/>
<polygon fill="midnightblue" stroke="midnightblue" points="1730.8,-309.35 1726.87,-299.51 1723.81,-309.65 1730.8,-309.35"/>
</g>
<!-- Node15 -->
<g id="node15" class="node">
<title>Node15</title>
<g id="a_node15"><a xlink:href="joysensortype_8h.html" target="_top" xlink:title=" ">
<polygon fill="white" stroke="black" points="1802.5,-280.5 1802.5,-299.5 1897.5,-299.5 1897.5,-280.5 1802.5,-280.5"/>
<text text-anchor="middle" x="1850" y="-287.5" font-family="Helvetica,sans-Serif" font-size="10.00">joysensortype.h</text>
</a>
</g>
</g>
<!-- Node10&#45;&gt;Node15 -->
<g id="edge15" class="edge">
<title>Node10&#45;&gt;Node15</title>
<path fill="none" stroke="midnightblue" d="M1685.97,-392.37C1716.64,-373.41 1790.13,-328 1827.44,-304.94"/>
<polygon fill="midnightblue" stroke="midnightblue" points="1829.43,-307.83 1836.1,-299.59 1825.75,-301.87 1829.43,-307.83"/>
</g>
<!-- Node17 -->
<g id="node17" class="node">
<title>Node17</title>
<g id="a_node17"><a xlink:href="setjoystick_8h.html" target="_top" xlink:title=" ">
<polygon fill="white" stroke="black" points="1630.5,-336.5 1630.5,-355.5 1709.5,-355.5 1709.5,-336.5 1630.5,-336.5"/>
<text text-anchor="middle" x="1670" y="-343.5" font-family="Helvetica,sans-Serif" font-size="10.00">setjoystick.h</text>
</a>
</g>
</g>
<!-- Node10&#45;&gt;Node17 -->
<g id="edge18" class="edge">
<title>Node10&#45;&gt;Node17</title>
<path fill="none" stroke="midnightblue" d="M1671.67,-392.08C1671.41,-385.01 1671.03,-374.86 1670.7,-365.99"/>
<polygon fill="midnightblue" stroke="midnightblue" points="1674.19,-365.61 1670.32,-355.75 1667.2,-365.87 1674.19,-365.61"/>
</g>
<!-- Node43 -->
<g id="node43" class="node">
<title>Node43</title>
<g id="a_node43"><a xlink:title=" ">
<polygon fill="white" stroke="#bfbfbf" points="1956,-336.5 1956,-355.5 2072,-355.5 2072,-336.5 1956,-336.5"/>
<text text-anchor="middle" x="2014" y="-343.5" font-family="Helvetica,sans-Serif" font-size="10.00">SDL2/SDL_joystick.h</text>
</a>
</g>
</g>
<!-- Node10&#45;&gt;Node43 -->
<g id="edge56" class="edge">
<title>Node10&#45;&gt;Node43</title>
<path fill="none" stroke="midnightblue" d="M1713.74,-393.56C1716.87,-393.02 1719.98,-392.5 1723,-392 1799.52,-379.33 1887.55,-365.87 1946.58,-357.01"/>
<polygon fill="midnightblue" stroke="midnightblue" points="1947.15,-360.46 1956.52,-355.52 1946.11,-353.54 1947.15,-360.46"/>
</g>
<!-- Node12 -->
<g id="node12" class="node">
<title>Node12</title>
<g id="a_node12"><a xlink:title=" ">
<polygon fill="white" stroke="#bfbfbf" points="1915.5,-280.5 1915.5,-299.5 1964.5,-299.5 1964.5,-280.5 1915.5,-280.5"/>
<text text-anchor="middle" x="1940" y="-287.5" font-family="Helvetica,sans-Serif" font-size="10.00">QHash</text>
</a>
</g>
</g>
<!-- Node11&#45;&gt;Node12 -->
<g id="edge12" class="edge">
<title>Node11&#45;&gt;Node12</title>
<path fill="none" stroke="midnightblue" d="M1882.09,-336.32C1892.49,-328.18 1908.26,-315.84 1920.72,-306.09"/>
<polygon fill="midnightblue" stroke="midnightblue" points="1922.99,-308.75 1928.71,-299.83 1918.68,-303.24 1922.99,-308.75"/>
</g>
<!-- Node14 -->
<g id="node14" class="node">
<title>Node14</title>
<g id="a_node14"><a xlink:title=" ">
<polygon fill="white" stroke="#bfbfbf" points="1707.5,-224.5 1707.5,-243.5 1778.5,-243.5 1778.5,-224.5 1707.5,-224.5"/>
<text text-anchor="middle" x="1743" y="-231.5" font-family="Helvetica,sans-Serif" font-size="10.00">QMetaType</text>
</a>
</g>
</g>
<!-- Node13&#45;&gt;Node14 -->
<g id="edge14" class="edge">
<title>Node13&#45;&gt;Node14</title>
<path fill="none" stroke="midnightblue" d="M1728.81,-280.08C1731.08,-272.85 1734.37,-262.41 1737.21,-253.4"/>
<polygon fill="midnightblue" stroke="midnightblue" points="1740.58,-254.34 1740.25,-243.75 1733.9,-252.24 1740.58,-254.34"/>
</g>
<!-- Node15&#45;&gt;Node14 -->
<g id="edge16" class="edge">
<title>Node15&#45;&gt;Node14</title>
<path fill="none" stroke="midnightblue" d="M1832.81,-280.32C1815.65,-271.66 1789.05,-258.24 1769.25,-248.25"/>
<polygon fill="midnightblue" stroke="midnightblue" points="1770.65,-245.04 1760.15,-243.65 1767.5,-251.28 1770.65,-245.04"/>
</g>
<!-- Node16 -->
<g id="node16" class="node">
<title>Node16</title>
<g id="a_node16"><a xlink:title=" ">
<polygon fill="white" stroke="#bfbfbf" points="1814,-224.5 1814,-243.5 1886,-243.5 1886,-224.5 1814,-224.5"/>
<text text-anchor="middle" x="1850" y="-231.5" font-family="Helvetica,sans-Serif" font-size="10.00">SDL2/SDL.h</text>
</a>
</g>
</g>
<!-- Node15&#45;&gt;Node16 -->
<g id="edge17" class="edge">
<title>Node15&#45;&gt;Node16</title>
<path fill="none" stroke="midnightblue" d="M1850,-280.08C1850,-273.01 1850,-262.86 1850,-253.99"/>
<polygon fill="midnightblue" stroke="midnightblue" points="1853.5,-253.75 1850,-243.75 1846.5,-253.75 1853.5,-253.75"/>
</g>
<!-- Node17&#45;&gt;Node13 -->
<g id="edge52" class="edge">
<title>Node17&#45;&gt;Node13</title>
<path fill="none" stroke="midnightblue" d="M1679,-336.32C1687.19,-328.42 1699.51,-316.55 1709.47,-306.94"/>
<polygon fill="midnightblue" stroke="midnightblue" points="1712.07,-309.29 1716.84,-299.83 1707.21,-304.26 1712.07,-309.29"/>
</g>
<!-- Node17&#45;&gt;Node15 -->
<g id="edge53" class="edge">
<title>Node17&#45;&gt;Node15</title>
<path fill="none" stroke="midnightblue" d="M1698.52,-336.44C1729.07,-327.28 1777.71,-312.69 1811.6,-302.52"/>
<polygon fill="midnightblue" stroke="midnightblue" points="1813.04,-305.74 1821.61,-299.52 1811.03,-299.04 1813.04,-305.74"/>
</g>
<!-- Node17&#45;&gt;Node18 -->
<g id="edge19" class="edge">
<title>Node17&#45;&gt;Node18</title>
<path fill="none" stroke="midnightblue" d="M1648.61,-336.44C1626.29,-327.52 1591.1,-313.44 1565.79,-303.32"/>
<polygon fill="midnightblue" stroke="midnightblue" points="1566.88,-299.98 1556.29,-299.52 1564.28,-306.48 1566.88,-299.98"/>
</g>
<!-- Node42 -->
<g id="node42" class="node">
<title>Node42</title>
<g id="a_node42"><a xlink:href="setjoystickxml_8h.html" target="_top" xlink:title=" ">
<polygon fill="white" stroke="black" points="1723.5,-168.5 1723.5,-187.5 1842.5,-187.5 1842.5,-168.5 1723.5,-168.5"/>
<text text-anchor="middle" x="1783" y="-175.5" font-family="Helvetica,sans-Serif" font-size="10.00">xml/setjoystickxml.h</text>
</a>
</g>
</g>
<!-- Node17&#45;&gt;Node42 -->
<g id="edge54" class="edge">
<title>Node17&#45;&gt;Node42</title>
<path fill="none" stroke="midnightblue" d="M1666,-336.4C1660.71,-323.78 1652.71,-299.62 1659,-280 1668.33,-250.87 1676.03,-244.2 1699,-224 1714.37,-210.49 1734.51,-199.52 1751.21,-191.8"/>
<polygon fill="midnightblue" stroke="midnightblue" points="1752.86,-194.9 1760.58,-187.64 1750.02,-188.5 1752.86,-194.9"/>
</g>
<!-- Node18&#45;&gt;Node3 -->
<g id="edge21" class="edge">
<title>Node18&#45;&gt;Node3</title>
<path fill="none" stroke="midnightblue" d="M1535.99,-280.36C1540.48,-240.3 1558.18,-73.82 1544,-56 1524.78,-31.83 1438.23,-19.53 1387.13,-14.27"/>
<polygon fill="midnightblue" stroke="midnightblue" points="1387.4,-10.78 1377.1,-13.28 1386.71,-17.75 1387.4,-10.78"/>
</g>
<!-- Node18&#45;&gt;Node9 -->
<g id="edge22" class="edge">
<title>Node18&#45;&gt;Node9</title>
<path fill="none" stroke="midnightblue" d="M1504.41,-285.03C1439.75,-276.64 1287.56,-256.88 1194.94,-244.86"/>
<polygon fill="midnightblue" stroke="midnightblue" points="1195.15,-241.36 1184.78,-243.54 1194.25,-248.3 1195.15,-241.36"/>
</g>
<!-- Node19 -->
<g id="node19" class="node">
<title>Node19</title>
<g id="a_node19"><a xlink:title=" ">
<polygon fill="white" stroke="#bfbfbf" points="1560.5,-0.5 1560.5,-19.5 1601.5,-19.5 1601.5,-0.5 1560.5,-0.5"/>
<text text-anchor="middle" x="1581" y="-7.5" font-family="Helvetica,sans-Serif" font-size="10.00">QList</text>
</a>
</g>
</g>
<!-- Node18&#45;&gt;Node19 -->
<g id="edge20" class="edge">
<title>Node18&#45;&gt;Node19</title>
<path fill="none" stroke="midnightblue" d="M1537.29,-280.15C1544.71,-251.13 1568.12,-156.13 1578,-76 1579.9,-60.56 1580.63,-42.93 1580.89,-29.93"/>
<polygon fill="midnightblue" stroke="midnightblue" points="1584.39,-29.91 1581.02,-19.87 1577.39,-29.82 1584.39,-29.91"/>
</g>
<!-- Node18&#45;&gt;Node20 -->
<g id="edge23" class="edge">
<title>Node18&#45;&gt;Node20</title>
<path fill="none" stroke="midnightblue" d="M1504.37,-281.38C1467.27,-272.15 1404.5,-256.53 1362.18,-245.99"/>
<polygon fill="midnightblue" stroke="midnightblue" points="1362.96,-242.58 1352.41,-243.56 1361.27,-249.38 1362.96,-242.58"/>
</g>
<!-- Node21 -->
<g id="node21" class="node">
<title>Node21</title>
<g id="a_node21"><a xlink:href="joygradientbutton_8h.html" target="_top" xlink:title=" ">
<polygon fill="white" stroke="black" points="1032.5,-168.5 1032.5,-187.5 1221.5,-187.5 1221.5,-168.5 1032.5,-168.5"/>
<text text-anchor="middle" x="1127" y="-175.5" font-family="Helvetica,sans-Serif" font-size="10.00">joybuttontypes/joygradientbutton.h</text>
</a>
</g>
</g>
<!-- Node20&#45;&gt;Node21 -->
<g id="edge24" class="edge">
<title>Node20&#45;&gt;Node21</title>
<path fill="none" stroke="midnightblue" d="M1287.74,-224.44C1255.04,-215.2 1202.82,-200.44 1166.82,-190.26"/>
<polygon fill="midnightblue" stroke="midnightblue" points="1167.7,-186.87 1157.12,-187.52 1165.79,-193.61 1167.7,-186.87"/>
</g>
<!-- Node37 -->
<g id="node37" class="node">
<title>Node37</title>
<g id="a_node37"><a xlink:href="logger_8h.html" target="_top" xlink:title=" ">
<polygon fill="white" stroke="black" points="330,-112.5 330,-131.5 386,-131.5 386,-112.5 330,-112.5"/>
<text text-anchor="middle" x="358" y="-119.5" font-family="Helvetica,sans-Serif" font-size="10.00">logger.h</text>
</a>
</g>
</g>
<!-- Node20&#45;&gt;Node37 -->
<g id="edge45" class="edge">
<title>Node20&#45;&gt;Node37</title>
<path fill="none" stroke="midnightblue" d="M1243.47,-224.46C1050.71,-202.37 540.73,-143.94 396.5,-127.41"/>
<polygon fill="midnightblue" stroke="midnightblue" points="396.7,-123.91 386.36,-126.25 395.9,-130.87 396.7,-123.91"/>
</g>
<!-- Node22 -->
<g id="node22" class="node">
<title>Node22</title>
<g id="a_node22"><a xlink:href="joybutton_8h.html" target="_top" xlink:title=" ">
<polygon fill="white" stroke="black" points="995,-112.5 995,-131.5 1067,-131.5 1067,-112.5 995,-112.5"/>
<text text-anchor="middle" x="1031" y="-119.5" font-family="Helvetica,sans-Serif" font-size="10.00">joybutton.h</text>
</a>
</g>
</g>
<!-- Node21&#45;&gt;Node22 -->
<g id="edge25" class="edge">
<title>Node21&#45;&gt;Node22</title>
<path fill="none" stroke="midnightblue" d="M1111.58,-168.32C1096.46,-159.82 1073.18,-146.73 1055.53,-136.8"/>
<polygon fill="midnightblue" stroke="midnightblue" points="1056.82,-133.51 1046.39,-131.65 1053.39,-139.61 1056.82,-133.51"/>
</g>
<!-- Node23 -->
<g id="node23" class="node">
<title>Node23</title>
<g id="a_node23"><a xlink:href="globalvariables_8h.html" target="_top" xlink:title=" ">
<polygon fill="white" stroke="black" points="1434.5,-56.5 1434.5,-75.5 1535.5,-75.5 1535.5,-56.5 1434.5,-56.5"/>
<text text-anchor="middle" x="1485" y="-63.5" font-family="Helvetica,sans-Serif" font-size="10.00">globalvariables.h</text>
</a>
</g>
</g>
<!-- Node22&#45;&gt;Node23 -->
<g id="edge26" class="edge">
<title>Node22&#45;&gt;Node23</title>
<path fill="none" stroke="midnightblue" d="M1067.18,-117.3C1135,-110.26 1286.14,-94.15 1424.35,-76.04"/>
<polygon fill="midnightblue" stroke="midnightblue" points="1424.82,-79.51 1434.28,-74.74 1423.91,-72.57 1424.82,-79.51"/>
</g>
<!-- Node24 -->
<g id="node24" class="node">
<title>Node24</title>
<g id="a_node24"><a xlink:href="joybuttonmousehelper_8h.html" target="_top" xlink:title=" ">
<polygon fill="white" stroke="black" points="1281.5,-56.5 1281.5,-75.5 1416.5,-75.5 1416.5,-56.5 1281.5,-56.5"/>
<text text-anchor="middle" x="1349" y="-63.5" font-family="Helvetica,sans-Serif" font-size="10.00">joybuttonmousehelper.h</text>
</a>
</g>
</g>
<!-- Node22&#45;&gt;Node24 -->
<g id="edge29" class="edge">
<title>Node22&#45;&gt;Node24</title>
<path fill="none" stroke="midnightblue" d="M1067.17,-114.86C1121.1,-105.7 1223.23,-88.36 1288.6,-77.26"/>
<polygon fill="midnightblue" stroke="midnightblue" points="1289.5,-80.65 1298.77,-75.53 1288.32,-73.75 1289.5,-80.65"/>
</g>
<!-- Node25 -->
<g id="node25" class="node">
<title>Node25</title>
<g id="a_node25"><a xlink:href="joybuttonslot_8h.html" target="_top" xlink:title=" ">
<polygon fill="white" stroke="black" points="480,-56.5 480,-75.5 570,-75.5 570,-56.5 480,-56.5"/>
<text text-anchor="middle" x="525" y="-63.5" font-family="Helvetica,sans-Serif" font-size="10.00">joybuttonslot.h</text>
</a>
</g>
</g>
<!-- Node22&#45;&gt;Node25 -->
<g id="edge31" class="edge">
<title>Node22&#45;&gt;Node25</title>
<path fill="none" stroke="midnightblue" d="M994.61,-117.12C907.11,-107.78 684.48,-84.02 580.32,-72.9"/>
<polygon fill="midnightblue" stroke="midnightblue" points="580.63,-69.42 570.31,-71.84 579.89,-76.38 580.63,-69.42"/>
</g>
<!-- Node30 -->
<g id="node30" class="node">
<title>Node30</title>
<g id="a_node30"><a xlink:href="springmousemoveinfo_8h.html" target="_top" xlink:title=" ">
<polygon fill="white" stroke="black" points="735.5,-56.5 735.5,-75.5 870.5,-75.5 870.5,-56.5 735.5,-56.5"/>
<text text-anchor="middle" x="803" y="-63.5" font-family="Helvetica,sans-Serif" font-size="10.00">springmousemoveinfo.h</text>
</a>
</g>
</g>
<!-- Node22&#45;&gt;Node30 -->
<g id="edge38" class="edge">
<title>Node22&#45;&gt;Node30</title>
<path fill="none" stroke="midnightblue" d="M994.87,-112.44C955.35,-103.08 891.9,-88.06 848.89,-77.87"/>
<polygon fill="midnightblue" stroke="midnightblue" points="849.5,-74.42 838.96,-75.52 847.88,-81.23 849.5,-74.42"/>
</g>
<!-- Node31 -->
<g id="node31" class="node">
<title>Node31</title>
<g id="a_node31"><a xlink:title=" ">
<polygon fill="white" stroke="#bfbfbf" points="889,-56.5 889,-75.5 985,-75.5 985,-56.5 889,-56.5"/>
<text text-anchor="middle" x="937" y="-63.5" font-family="Helvetica,sans-Serif" font-size="10.00">QDeadlineTimer</text>
</a>
</g>
</g>
<!-- Node22&#45;&gt;Node31 -->
<g id="edge39" class="edge">
<title>Node22&#45;&gt;Node31</title>
<path fill="none" stroke="midnightblue" d="M1015.9,-112.32C1001.1,-103.82 978.31,-90.73 961.02,-80.8"/>
<polygon fill="midnightblue" stroke="midnightblue" points="962.48,-77.6 952.07,-75.65 958.99,-83.67 962.48,-77.6"/>
</g>
<!-- Node32 -->
<g id="node32" class="node">
<title>Node32</title>
<g id="a_node32"><a xlink:title=" ">
<polygon fill="white" stroke="#bfbfbf" points="1003,-56.5 1003,-75.5 1059,-75.5 1059,-56.5 1003,-56.5"/>
<text text-anchor="middle" x="1031" y="-63.5" font-family="Helvetica,sans-Serif" font-size="10.00">QQueue</text>
</a>
</g>
</g>
<!-- Node22&#45;&gt;Node32 -->
<g id="edge40" class="edge">
<title>Node22&#45;&gt;Node32</title>
<path fill="none" stroke="midnightblue" d="M1031,-112.08C1031,-105.01 1031,-94.86 1031,-85.99"/>
<polygon fill="midnightblue" stroke="midnightblue" points="1034.5,-85.75 1031,-75.75 1027.5,-85.75 1034.5,-85.75"/>
</g>
<!-- Node33 -->
<g id="node33" class="node">
<title>Node33</title>
<g id="a_node33"><a xlink:title=" ">
<polygon fill="white" stroke="#bfbfbf" points="1077,-56.5 1077,-75.5 1175,-75.5 1175,-56.5 1077,-56.5"/>
<text text-anchor="middle" x="1126" y="-63.5" font-family="Helvetica,sans-Serif" font-size="10.00">QReadWriteLock</text>
</a>
</g>
</g>
<!-- Node22&#45;&gt;Node33 -->
<g id="edge41" class="edge">
<title>Node22&#45;&gt;Node33</title>
<path fill="none" stroke="midnightblue" d="M1046.26,-112.32C1061.22,-103.82 1084.25,-90.73 1101.73,-80.8"/>
<polygon fill="midnightblue" stroke="midnightblue" points="1103.81,-83.64 1110.77,-75.65 1100.35,-77.55 1103.81,-83.64"/>
</g>
<!-- Node34 -->
<g id="node34" class="node">
<title>Node34</title>
<g id="a_node34"><a xlink:title=" ">
<polygon fill="white" stroke="#bfbfbf" points="1193,-56.5 1193,-75.5 1263,-75.5 1263,-56.5 1193,-56.5"/>
<text text-anchor="middle" x="1228" y="-63.5" font-family="Helvetica,sans-Serif" font-size="10.00">QRunnable</text>
</a>
</g>
</g>
<!-- Node22&#45;&gt;Node34 -->
<g id="edge42" class="edge">
<title>Node22&#45;&gt;Node34</title>
<path fill="none" stroke="midnightblue" d="M1062.22,-112.44C1095.93,-103.2 1149.8,-88.44 1186.93,-78.26"/>
<polygon fill="midnightblue" stroke="midnightblue" points="1188.21,-81.54 1196.93,-75.52 1186.36,-74.78 1188.21,-81.54"/>
</g>
<!-- Node35 -->
<g id="node35" class="node">
<title>Node35</title>
<g id="a_node35"><a xlink:title=" ">
<polygon fill="white" stroke="#bfbfbf" points="404,-56.5 404,-75.5 462,-75.5 462,-56.5 404,-56.5"/>
<text text-anchor="middle" x="433" y="-63.5" font-family="Helvetica,sans-Serif" font-size="10.00">QThread</text>
</a>
</g>
</g>
<!-- Node22&#45;&gt;Node35 -->
<g id="edge43" class="edge">
<title>Node22&#45;&gt;Node35</title>
<path fill="none" stroke="midnightblue" d="M994.74,-120C906.72,-117.16 674.7,-107.24 472.29,-75.98"/>
<polygon fill="midnightblue" stroke="midnightblue" points="472.79,-72.51 462.37,-74.42 471.71,-79.43 472.79,-72.51"/>
</g>
<!-- Node36 -->
<g id="node36" class="node">
<title>Node36</title>
<g id="a_node36"><a xlink:title=" ">
<polygon fill="white" stroke="#bfbfbf" points="664.5,-56.5 664.5,-75.5 717.5,-75.5 717.5,-56.5 664.5,-56.5"/>
<text text-anchor="middle" x="691" y="-63.5" font-family="Helvetica,sans-Serif" font-size="10.00">QTimer</text>
</a>
</g>
</g>
<!-- Node22&#45;&gt;Node36 -->
<g id="edge44" class="edge">
<title>Node22&#45;&gt;Node36</title>
<path fill="none" stroke="midnightblue" d="M994.63,-116.89C939.03,-110.33 829.41,-96.34 727.52,-76.14"/>
<polygon fill="midnightblue" stroke="midnightblue" points="728.18,-72.71 717.69,-74.17 726.8,-79.57 728.18,-72.71"/>
</g>
<!-- Node23&#45;&gt;Node3 -->
<g id="edge28" class="edge">
<title>Node23&#45;&gt;Node3</title>
<path fill="none" stroke="midnightblue" d="M1463.45,-56.44C1440.97,-47.52 1405.51,-33.44 1380.02,-23.32"/>
<polygon fill="midnightblue" stroke="midnightblue" points="1381.03,-19.95 1370.45,-19.52 1378.45,-26.46 1381.03,-19.95"/>
</g>
<!-- Node23&#45;&gt;Node19 -->
<g id="edge27" class="edge">
<title>Node23&#45;&gt;Node19</title>
<path fill="none" stroke="midnightblue" d="M1500.42,-56.32C1515.54,-47.82 1538.82,-34.73 1556.47,-24.8"/>
<polygon fill="midnightblue" stroke="midnightblue" points="1558.61,-27.61 1565.61,-19.65 1555.18,-21.51 1558.61,-27.61"/>
</g>
<!-- Node24&#45;&gt;Node3 -->
<g id="edge30" class="edge">
<title>Node24&#45;&gt;Node3</title>
<path fill="none" stroke="midnightblue" d="M1349,-56.08C1349,-49.01 1349,-38.86 1349,-29.99"/>
<polygon fill="midnightblue" stroke="midnightblue" points="1352.5,-29.75 1349,-19.75 1345.5,-29.75 1352.5,-29.75"/>
</g>
<!-- Node25&#45;&gt;Node3 -->
<g id="edge33" class="edge">
<title>Node25&#45;&gt;Node3</title>
<path fill="none" stroke="midnightblue" d="M570.04,-57.69C574.75,-57.06 579.47,-56.48 584,-56 861.82,-26.7 1198.55,-15.19 1310.65,-12"/>
<polygon fill="midnightblue" stroke="midnightblue" points="1310.89,-15.49 1320.79,-11.72 1310.7,-8.5 1310.89,-15.49"/>
</g>
<!-- Node25&#45;&gt;Node4 -->
<g id="edge34" class="edge">
<title>Node25&#45;&gt;Node4</title>
<path fill="none" stroke="midnightblue" d="M479.93,-57.42C476.91,-56.93 473.91,-56.45 471,-56 373.93,-40.87 259.48,-24.68 200.53,-16.47"/>
<polygon fill="midnightblue" stroke="midnightblue" points="200.91,-12.99 190.52,-15.08 199.95,-19.92 200.91,-12.99"/>
</g>
<!-- Node26 -->
<g id="node26" class="node">
<title>Node26</title>
<g id="a_node26"><a xlink:title=" ">
<polygon fill="white" stroke="#bfbfbf" points="435.5,-0.5 435.5,-19.5 526.5,-19.5 526.5,-0.5 435.5,-0.5"/>
<text text-anchor="middle" x="481" y="-7.5" font-family="Helvetica,sans-Serif" font-size="10.00">QElapsedTimer</text>
</a>
</g>
</g>
<!-- Node25&#45;&gt;Node26 -->
<g id="edge32" class="edge">
<title>Node25&#45;&gt;Node26</title>
<path fill="none" stroke="midnightblue" d="M517.73,-56.08C511.46,-48.38 502.21,-37.03 494.57,-27.65"/>
<polygon fill="midnightblue" stroke="midnightblue" points="497.16,-25.29 488.13,-19.75 491.73,-29.71 497.16,-25.29"/>
</g>
<!-- Node27 -->
<g id="node27" class="node">
<title>Node27</title>
<g id="a_node27"><a xlink:title=" ">
<polygon fill="white" stroke="#bfbfbf" points="544.5,-0.5 544.5,-19.5 593.5,-19.5 593.5,-0.5 544.5,-0.5"/>
<text text-anchor="middle" x="569" y="-7.5" font-family="Helvetica,sans-Serif" font-size="10.00">QTime</text>
</a>
</g>
</g>
<!-- Node25&#45;&gt;Node27 -->
<g id="edge35" class="edge">
<title>Node25&#45;&gt;Node27</title>
<path fill="none" stroke="midnightblue" d="M532.27,-56.08C538.54,-48.38 547.79,-37.03 555.43,-27.65"/>
<polygon fill="midnightblue" stroke="midnightblue" points="558.27,-29.71 561.87,-19.75 552.84,-25.29 558.27,-29.71"/>
</g>
<!-- Node28 -->
<g id="node28" class="node">
<title>Node28</title>
<g id="a_node28"><a xlink:title=" ">
<polygon fill="white" stroke="#bfbfbf" points="611.5,-0.5 611.5,-19.5 670.5,-19.5 670.5,-0.5 611.5,-0.5"/>
<text text-anchor="middle" x="641" y="-7.5" font-family="Helvetica,sans-Serif" font-size="10.00">QVariant</text>
</a>
</g>
</g>
<!-- Node25&#45;&gt;Node28 -->
<g id="edge36" class="edge">
<title>Node25&#45;&gt;Node28</title>
<path fill="none" stroke="midnightblue" d="M543.38,-56.44C562.22,-47.68 591.73,-33.94 613.38,-23.86"/>
<polygon fill="midnightblue" stroke="midnightblue" points="615.12,-26.91 622.71,-19.52 612.16,-20.56 615.12,-26.91"/>
</g>
<!-- Node29 -->
<g id="node29" class="node">
<title>Node29</title>
<g id="a_node29"><a xlink:title=" ">
<polygon fill="white" stroke="#bfbfbf" points="284.5,-0.5 284.5,-19.5 417.5,-19.5 417.5,-0.5 284.5,-0.5"/>
<text text-anchor="middle" x="351" y="-7.5" font-family="Helvetica,sans-Serif" font-size="10.00">QtWidgets/QApplication</text>
</a>
</g>
</g>
<!-- Node25&#45;&gt;Node29 -->
<g id="edge37" class="edge">
<title>Node25&#45;&gt;Node29</title>
<path fill="none" stroke="midnightblue" d="M497.43,-56.44C467.9,-47.28 420.88,-32.69 388.12,-22.52"/>
<polygon fill="midnightblue" stroke="midnightblue" points="389.03,-19.14 378.44,-19.52 386.96,-25.82 389.03,-19.14"/>
</g>
<!-- Node37&#45;&gt;Node3 -->
<g id="edge48" class="edge">
<title>Node37&#45;&gt;Node3</title>
<path fill="none" stroke="midnightblue" d="M386.11,-117.43C428.62,-111.56 511.5,-98.23 579,-76 599.02,-69.41 601.57,-61.19 622,-56 754.18,-22.45 1179.69,-13.49 1310.43,-11.5"/>
<polygon fill="midnightblue" stroke="midnightblue" points="1310.79,-15 1320.74,-11.35 1310.69,-8 1310.79,-15"/>
</g>
<!-- Node37&#45;&gt;Node35 -->
<g id="edge50" class="edge">
<title>Node37&#45;&gt;Node35</title>
<path fill="none" stroke="midnightblue" d="M370.05,-112.32C381.46,-104.11 398.83,-91.6 412.43,-81.81"/>
<polygon fill="midnightblue" stroke="midnightblue" points="414.66,-84.52 420.73,-75.83 410.57,-78.84 414.66,-84.52"/>
</g>
<!-- Node38 -->
<g id="node38" class="node">
<title>Node38</title>
<g id="a_node38"><a xlink:title=" ">
<polygon fill="white" stroke="#bfbfbf" points="98.5,-56.5 98.5,-75.5 139.5,-75.5 139.5,-56.5 98.5,-56.5"/>
<text text-anchor="middle" x="119" y="-63.5" font-family="Helvetica,sans-Serif" font-size="10.00">QFile</text>
</a>
</g>
</g>
<!-- Node37&#45;&gt;Node38 -->
<g id="edge46" class="edge">
<title>Node37&#45;&gt;Node38</title>
<path fill="none" stroke="midnightblue" d="M329.78,-115.66C291.27,-108.22 219.95,-93.87 149.52,-75.96"/>
<polygon fill="midnightblue" stroke="midnightblue" points="150.15,-72.51 139.6,-73.41 148.41,-79.29 150.15,-72.51"/>
</g>
<!-- Node39 -->
<g id="node39" class="node">
<title>Node39</title>
<g id="a_node39"><a xlink:title=" ">
<polygon fill="white" stroke="#bfbfbf" points="330.5,-56.5 330.5,-75.5 385.5,-75.5 385.5,-56.5 330.5,-56.5"/>
<text text-anchor="middle" x="358" y="-63.5" font-family="Helvetica,sans-Serif" font-size="10.00">QMutex</text>
</a>
</g>
</g>
<!-- Node37&#45;&gt;Node39 -->
<g id="edge47" class="edge">
<title>Node37&#45;&gt;Node39</title>
<path fill="none" stroke="midnightblue" d="M358,-112.08C358,-105.01 358,-94.86 358,-85.99"/>
<polygon fill="midnightblue" stroke="midnightblue" points="361.5,-85.75 358,-75.75 354.5,-85.75 361.5,-85.75"/>
</g>
<!-- Node40 -->
<g id="node40" class="node">
<title>Node40</title>
<g id="a_node40"><a xlink:title=" ">
<polygon fill="white" stroke="#bfbfbf" points="158,-56.5 158,-75.5 238,-75.5 238,-56.5 158,-56.5"/>
<text text-anchor="middle" x="198" y="-63.5" font-family="Helvetica,sans-Serif" font-size="10.00">QTextStream</text>
</a>
</g>
</g>
<!-- Node37&#45;&gt;Node40 -->
<g id="edge49" class="edge">
<title>Node37&#45;&gt;Node40</title>
<path fill="none" stroke="midnightblue" d="M332.65,-112.44C305.73,-103.36 263,-88.94 232.91,-78.78"/>
<polygon fill="midnightblue" stroke="midnightblue" points="233.83,-75.4 223.23,-75.52 231.59,-82.03 233.83,-75.4"/>
</g>
<!-- Node41 -->
<g id="node41" class="node">
<title>Node41</title>
<g id="a_node41"><a xlink:title=" ">
<polygon fill="white" stroke="#bfbfbf" points="256,-56.5 256,-75.5 312,-75.5 312,-56.5 256,-56.5"/>
<text text-anchor="middle" x="284" y="-63.5" font-family="Helvetica,sans-Serif" font-size="10.00">sstream</text>
</a>
</g>
</g>
<!-- Node37&#45;&gt;Node41 -->
<g id="edge51" class="edge">
<title>Node37&#45;&gt;Node41</title>
<path fill="none" stroke="midnightblue" d="M346.11,-112.32C334.85,-104.11 317.71,-91.6 304.29,-81.81"/>
<polygon fill="midnightblue" stroke="midnightblue" points="306.25,-78.9 296.11,-75.83 302.12,-84.56 306.25,-78.9"/>
</g>
<!-- Node42&#45;&gt;Node3 -->
<g id="edge55" class="edge">
<title>Node42&#45;&gt;Node3</title>
<path fill="none" stroke="midnightblue" d="M1773.12,-168.29C1746.95,-145.74 1672.84,-85.16 1600,-56 1528.25,-27.27 1437.63,-16.8 1387.24,-13.04"/>
<polygon fill="midnightblue" stroke="midnightblue" points="1387.34,-9.54 1377.12,-12.34 1386.86,-16.52 1387.34,-9.54"/>
</g>
<!-- Node44&#45;&gt;Node3 -->
<g id="edge60" class="edge">
<title>Node44&#45;&gt;Node3</title>
<path fill="none" stroke="midnightblue" d="M1644.36,-168.17C1630.31,-141.55 1588.53,-63.47 1578,-56 1547.83,-34.59 1444.15,-20.83 1387.21,-14.69"/>
<polygon fill="midnightblue" stroke="midnightblue" points="1387.46,-11.2 1377.15,-13.64 1386.73,-18.16 1387.46,-11.2"/>
</g>
</g>
</svg>
