<?xml version="1.0" encoding="UTF-8" standalone="no"?>
<!DOCTYPE svg PUBLIC "-//W3C//DTD SVG 1.1//EN"
 "http://www.w3.org/Graphics/SVG/1.1/DTD/svg11.dtd">
<!-- Generated by graphviz version 2.43.0 (0)
 -->
<!-- Title: /home/runner/work/doxygen/antimicrox/src/gui/joybuttonwidget.h Pages: 1 -->
<svg width="982pt" height="184pt"
 viewBox="0.00 0.00 981.50 184.00" xmlns="http://www.w3.org/2000/svg" xmlns:xlink="http://www.w3.org/1999/xlink">
<g id="graph0" class="graph" transform="scale(1 1) rotate(0) translate(4 180)">
<title>/home/runner/work/doxygen/antimicrox/src/gui/joybuttonwidget.h</title>
<polygon fill="white" stroke="transparent" points="-4,4 -4,-180 977.5,-180 977.5,4 -4,4"/>
<!-- Node1 -->
<g id="node1" class="node">
<title>Node1</title>
<g id="a_node1"><a xlink:title=" ">
<polygon fill="#bfbfbf" stroke="black" points="582,-145.5 582,-175.5 781,-175.5 781,-145.5 582,-145.5"/>
<text text-anchor="start" x="590" y="-163.5" font-family="Helvetica,sans-Serif" font-size="10.00">/home/runner/work/doxygen</text>
<text text-anchor="middle" x="681.5" y="-152.5" font-family="Helvetica,sans-Serif" font-size="10.00">/antimicrox/src/gui/joybuttonwidget.h</text>
</a>
</g>
</g>
<!-- Node2 -->
<g id="node2" class="node">
<title>Node2</title>
<g id="a_node2"><a xlink:href="joybuttonwidget_8cpp.html" target="_top" xlink:title=" ">
<polygon fill="white" stroke="black" points="271.5,-78.5 271.5,-108.5 481.5,-108.5 481.5,-78.5 271.5,-78.5"/>
<text text-anchor="start" x="279.5" y="-96.5" font-family="Helvetica,sans-Serif" font-size="10.00">/home/runner/work/doxygen</text>
<text text-anchor="middle" x="376.5" y="-85.5" font-family="Helvetica,sans-Serif" font-size="10.00">/antimicrox/src/gui/joybuttonwidget.cpp</text>
</a>
</g>
</g>
<!-- Node1&#45;&gt;Node2 -->
<g id="edge1" class="edge">
<title>Node1&#45;&gt;Node2</title>
<path fill="none" stroke="midnightblue" d="M605.87,-143.38C555.7,-132.69 490.51,-118.8 442.45,-108.55"/>
<polygon fill="midnightblue" stroke="midnightblue" points="605.19,-146.81 615.7,-145.48 606.64,-139.97 605.19,-146.81"/>
</g>
<!-- Node3 -->
<g id="node3" class="node">
<title>Node3</title>
<g id="a_node3"><a xlink:href="joydpadbuttonwidget_8h.html" target="_top" xlink:title=" ">
<polygon fill="white" stroke="black" points="500,-78.5 500,-108.5 723,-108.5 723,-78.5 500,-78.5"/>
<text text-anchor="start" x="508" y="-96.5" font-family="Helvetica,sans-Serif" font-size="10.00">/home/runner/work/doxygen</text>
<text text-anchor="middle" x="611.5" y="-85.5" font-family="Helvetica,sans-Serif" font-size="10.00">/antimicrox/src/gui/joydpadbuttonwidget.h</text>
</a>
</g>
</g>
<!-- Node1&#45;&gt;Node3 -->
<g id="edge2" class="edge">
<title>Node1&#45;&gt;Node3</title>
<path fill="none" stroke="midnightblue" d="M658.68,-138.31C648.18,-128.56 636.01,-117.26 626.66,-108.58"/>
<polygon fill="midnightblue" stroke="midnightblue" points="656.6,-141.16 666.31,-145.4 661.36,-136.03 656.6,-141.16"/>
</g>
<!-- Node6 -->
<g id="node6" class="node">
<title>Node6</title>
<g id="a_node6"><a xlink:href="mainwindow_8cpp.html" target="_top" xlink:title=" ">
<polygon fill="white" stroke="black" points="751.5,-6 751.5,-36 943.5,-36 943.5,-6 751.5,-6"/>
<text text-anchor="start" x="759.5" y="-24" font-family="Helvetica,sans-Serif" font-size="10.00">/home/runner/work/doxygen</text>
<text text-anchor="middle" x="847.5" y="-13" font-family="Helvetica,sans-Serif" font-size="10.00">/antimicrox/src/gui/mainwindow.cpp</text>
</a>
</g>
</g>
<!-- Node1&#45;&gt;Node6 -->
<g id="edge8" class="edge">
<title>Node1&#45;&gt;Node6</title>
<path fill="none" stroke="midnightblue" d="M703.35,-138.2C721,-121.32 746.72,-97.43 770.5,-78 788.93,-62.94 810.99,-47.1 826.76,-36.13"/>
<polygon fill="midnightblue" stroke="midnightblue" points="700.63,-135.97 695.85,-145.42 705.48,-141.01 700.63,-135.97"/>
</g>
<!-- Node8 -->
<g id="node8" class="node">
<title>Node8</title>
<g id="a_node8"><a xlink:href="joytabwidget_8cpp.html" target="_top" xlink:title=" ">
<polygon fill="white" stroke="black" points="779.5,-78.5 779.5,-108.5 973.5,-108.5 973.5,-78.5 779.5,-78.5"/>
<text text-anchor="start" x="787.5" y="-96.5" font-family="Helvetica,sans-Serif" font-size="10.00">/home/runner/work/doxygen</text>
<text text-anchor="middle" x="876.5" y="-85.5" font-family="Helvetica,sans-Serif" font-size="10.00">/antimicrox/src/gui/joytabwidget.cpp</text>
</a>
</g>
</g>
<!-- Node1&#45;&gt;Node8 -->
<g id="edge7" class="edge">
<title>Node1&#45;&gt;Node8</title>
<path fill="none" stroke="midnightblue" d="M733.32,-142.23C764.86,-131.71 804.65,-118.45 834.27,-108.58"/>
<polygon fill="midnightblue" stroke="midnightblue" points="732.19,-138.91 723.81,-145.4 734.41,-145.55 732.19,-138.91"/>
</g>
<!-- Node4 -->
<g id="node4" class="node">
<title>Node4</title>
<g id="a_node4"><a xlink:href="dpadpushbuttongroup_8cpp.html" target="_top" xlink:title=" ">
<polygon fill="white" stroke="black" points="0,-6 0,-36 219,-36 219,-6 0,-6"/>
<text text-anchor="start" x="8" y="-24" font-family="Helvetica,sans-Serif" font-size="10.00">/home/runner/work/doxygen</text>
<text text-anchor="middle" x="109.5" y="-13" font-family="Helvetica,sans-Serif" font-size="10.00">/antimicrox/src/dpadpushbuttongroup.cpp</text>
</a>
</g>
</g>
<!-- Node3&#45;&gt;Node4 -->
<g id="edge3" class="edge">
<title>Node3&#45;&gt;Node4</title>
<path fill="none" stroke="midnightblue" d="M489.9,-77.58C414.53,-68.06 315.78,-55.08 228.5,-42 216.28,-40.17 203.37,-38.12 190.74,-36.05"/>
<polygon fill="midnightblue" stroke="midnightblue" points="489.54,-81.07 499.9,-78.84 490.42,-74.12 489.54,-81.07"/>
</g>
<!-- Node5 -->
<g id="node5" class="node">
<title>Node5</title>
<g id="a_node5"><a xlink:href="joydpadbuttonwidget_8cpp.html" target="_top" xlink:title=" ">
<polygon fill="white" stroke="black" points="237.5,-6 237.5,-36 471.5,-36 471.5,-6 237.5,-6"/>
<text text-anchor="start" x="245.5" y="-24" font-family="Helvetica,sans-Serif" font-size="10.00">/home/runner/work/doxygen</text>
<text text-anchor="middle" x="354.5" y="-13" font-family="Helvetica,sans-Serif" font-size="10.00">/antimicrox/src/gui/joydpadbuttonwidget.cpp</text>
</a>
</g>
</g>
<!-- Node3&#45;&gt;Node5 -->
<g id="edge4" class="edge">
<title>Node3&#45;&gt;Node5</title>
<path fill="none" stroke="midnightblue" d="M550.69,-75.82C506.61,-63.73 447.66,-47.56 405.93,-36.11"/>
<polygon fill="midnightblue" stroke="midnightblue" points="549.85,-79.22 560.42,-78.49 551.7,-72.47 549.85,-79.22"/>
</g>
<!-- Node3&#45;&gt;Node6 -->
<g id="edge5" class="edge">
<title>Node3&#45;&gt;Node6</title>
<path fill="none" stroke="midnightblue" d="M668.11,-75.59C708.5,-63.52 762.19,-47.48 800.28,-36.11"/>
<polygon fill="midnightblue" stroke="midnightblue" points="666.99,-72.27 658.41,-78.49 668.99,-78.98 666.99,-72.27"/>
</g>
<!-- Node7 -->
<g id="node7" class="node">
<title>Node7</title>
<g id="a_node7"><a xlink:href="mousedpadsettingsdialoghelper_8cpp.html" target="_top" xlink:title=" ">
<polygon fill="white" stroke="black" points="489.5,-0.5 489.5,-41.5 733.5,-41.5 733.5,-0.5 489.5,-0.5"/>
<text text-anchor="start" x="497.5" y="-29.5" font-family="Helvetica,sans-Serif" font-size="10.00">/home/runner/work/doxygen</text>
<text text-anchor="start" x="497.5" y="-18.5" font-family="Helvetica,sans-Serif" font-size="10.00">/antimicrox/src/mousedialog</text>
<text text-anchor="middle" x="611.5" y="-7.5" font-family="Helvetica,sans-Serif" font-size="10.00">/uihelpers/mousedpadsettingsdialoghelper.cpp</text>
</a>
</g>
</g>
<!-- Node3&#45;&gt;Node7 -->
<g id="edge6" class="edge">
<title>Node3&#45;&gt;Node7</title>
<path fill="none" stroke="midnightblue" d="M611.5,-67.98C611.5,-59.35 611.5,-49.76 611.5,-41.59"/>
<polygon fill="midnightblue" stroke="midnightblue" points="608,-68.23 611.5,-78.23 615,-68.23 608,-68.23"/>
</g>
</g>
</svg>
