<?xml version="1.0" encoding="UTF-8" standalone="no"?>
<!DOCTYPE svg PUBLIC "-//W3C//DTD SVG 1.1//EN"
 "http://www.w3.org/Graphics/SVG/1.1/DTD/svg11.dtd">
<!-- Generated by graphviz version 2.43.0 (0)
 -->
<!-- Title: /home/runner/work/doxygen/antimicrox/src/joybuttontypes/joycontrolstickbutton.h Pages: 1 -->
<svg width="3491pt" height="128pt"
 viewBox="0.00 0.00 3490.50 128.00" xmlns="http://www.w3.org/2000/svg" xmlns:xlink="http://www.w3.org/1999/xlink">
<g id="graph0" class="graph" transform="scale(1 1) rotate(0) translate(4 124)">
<title>/home/runner/work/doxygen/antimicrox/src/joybuttontypes/joycontrolstickbutton.h</title>
<polygon fill="white" stroke="transparent" points="-4,4 -4,-124 3486.5,-124 3486.5,4 -4,4"/>
<!-- Node1 -->
<g id="node1" class="node">
<title>Node1</title>
<g id="a_node1"><a xlink:title=" ">
<polygon fill="#bfbfbf" stroke="black" points="1576.5,-78.5 1576.5,-119.5 1742.5,-119.5 1742.5,-78.5 1576.5,-78.5"/>
<text text-anchor="start" x="1584.5" y="-107.5" font-family="Helvetica,sans-Serif" font-size="10.00">/home/runner/work/doxygen</text>
<text text-anchor="start" x="1584.5" y="-96.5" font-family="Helvetica,sans-Serif" font-size="10.00">/antimicrox/src/joybuttontypes</text>
<text text-anchor="middle" x="1659.5" y="-85.5" font-family="Helvetica,sans-Serif" font-size="10.00">/joycontrolstickbutton.h</text>
</a>
</g>
</g>
<!-- Node2 -->
<g id="node2" class="node">
<title>Node2</title>
<g id="a_node2"><a xlink:href="gamecontroller_8cpp.html" target="_top" xlink:title=" ">
<polygon fill="white" stroke="black" points="0,-0.5 0,-41.5 167,-41.5 167,-0.5 0,-0.5"/>
<text text-anchor="start" x="8" y="-29.5" font-family="Helvetica,sans-Serif" font-size="10.00">/home/runner/work/doxygen</text>
<text text-anchor="start" x="8" y="-18.5" font-family="Helvetica,sans-Serif" font-size="10.00">/antimicrox/src/gamecontroller</text>
<text text-anchor="middle" x="83.5" y="-7.5" font-family="Helvetica,sans-Serif" font-size="10.00">/gamecontroller.cpp</text>
</a>
</g>
</g>
<!-- Node1&#45;&gt;Node2 -->
<g id="edge1" class="edge">
<title>Node1&#45;&gt;Node2</title>
<path fill="none" stroke="midnightblue" d="M1566.12,-96.63C1284.5,-92.16 446.32,-76.27 175.5,-42 172.74,-41.65 169.95,-41.26 167.13,-40.83"/>
<polygon fill="midnightblue" stroke="midnightblue" points="1566.25,-100.13 1576.3,-96.79 1566.36,-93.13 1566.25,-100.13"/>
</g>
<!-- Node3 -->
<g id="node3" class="node">
<title>Node3</title>
<g id="a_node3"><a xlink:href="gamecontrollerxml_8cpp.html" target="_top" xlink:title=" ">
<polygon fill="white" stroke="black" points="185,-0.5 185,-41.5 352,-41.5 352,-0.5 185,-0.5"/>
<text text-anchor="start" x="193" y="-29.5" font-family="Helvetica,sans-Serif" font-size="10.00">/home/runner/work/doxygen</text>
<text text-anchor="start" x="193" y="-18.5" font-family="Helvetica,sans-Serif" font-size="10.00">/antimicrox/src/gamecontroller</text>
<text text-anchor="middle" x="268.5" y="-7.5" font-family="Helvetica,sans-Serif" font-size="10.00">/xml/gamecontrollerxml.cpp</text>
</a>
</g>
</g>
<!-- Node1&#45;&gt;Node3 -->
<g id="edge2" class="edge">
<title>Node1&#45;&gt;Node3</title>
<path fill="none" stroke="midnightblue" d="M1566.36,-96.06C1309.38,-90.36 593.98,-72.19 360.5,-42 357.74,-41.64 354.95,-41.25 352.13,-40.82"/>
<polygon fill="midnightblue" stroke="midnightblue" points="1566.34,-99.56 1576.41,-96.28 1566.49,-92.56 1566.34,-99.56"/>
</g>
<!-- Node4 -->
<g id="node4" class="node">
<title>Node4</title>
<g id="a_node4"><a xlink:href="joycontrolstickeditdialog_8cpp.html" target="_top" xlink:title=" ">
<polygon fill="white" stroke="black" points="370,-6 370,-36 621,-36 621,-6 370,-6"/>
<text text-anchor="start" x="378" y="-24" font-family="Helvetica,sans-Serif" font-size="10.00">/home/runner/work/doxygen</text>
<text text-anchor="middle" x="495.5" y="-13" font-family="Helvetica,sans-Serif" font-size="10.00">/antimicrox/src/gui/joycontrolstickeditdialog.cpp</text>
</a>
</g>
</g>
<!-- Node1&#45;&gt;Node4 -->
<g id="edge3" class="edge">
<title>Node1&#45;&gt;Node4</title>
<path fill="none" stroke="midnightblue" d="M1566.26,-95.82C1385.39,-90.95 974.44,-76.76 630.5,-42 614.82,-40.42 598.18,-38.3 582.13,-36.05"/>
<polygon fill="midnightblue" stroke="midnightblue" points="1566.18,-99.32 1576.27,-96.09 1566.37,-92.32 1566.18,-99.32"/>
</g>
<!-- Node5 -->
<g id="node5" class="node">
<title>Node5</title>
<g id="a_node5"><a xlink:href="joytabwidget_8cpp.html" target="_top" xlink:title=" ">
<polygon fill="white" stroke="black" points="639.5,-6 639.5,-36 833.5,-36 833.5,-6 639.5,-6"/>
<text text-anchor="start" x="647.5" y="-24" font-family="Helvetica,sans-Serif" font-size="10.00">/home/runner/work/doxygen</text>
<text text-anchor="middle" x="736.5" y="-13" font-family="Helvetica,sans-Serif" font-size="10.00">/antimicrox/src/gui/joytabwidget.cpp</text>
</a>
</g>
</g>
<!-- Node1&#45;&gt;Node5 -->
<g id="edge4" class="edge">
<title>Node1&#45;&gt;Node5</title>
<path fill="none" stroke="midnightblue" d="M1566.03,-95.18C1413.87,-89.79 1103.39,-75.43 842.5,-42 830.15,-40.42 817.06,-38.31 804.45,-36.05"/>
<polygon fill="midnightblue" stroke="midnightblue" points="1566.15,-98.69 1576.26,-95.54 1566.39,-91.69 1566.15,-98.69"/>
</g>
<!-- Node6 -->
<g id="node6" class="node">
<title>Node6</title>
<g id="a_node6"><a xlink:href="quicksetdialog_8cpp.html" target="_top" xlink:title=" ">
<polygon fill="white" stroke="black" points="851.5,-6 851.5,-36 1053.5,-36 1053.5,-6 851.5,-6"/>
<text text-anchor="start" x="859.5" y="-24" font-family="Helvetica,sans-Serif" font-size="10.00">/home/runner/work/doxygen</text>
<text text-anchor="middle" x="952.5" y="-13" font-family="Helvetica,sans-Serif" font-size="10.00">/antimicrox/src/gui/quicksetdialog.cpp</text>
</a>
</g>
</g>
<!-- Node1&#45;&gt;Node6 -->
<g id="edge5" class="edge">
<title>Node1&#45;&gt;Node6</title>
<path fill="none" stroke="midnightblue" d="M1566.12,-91.75C1448.37,-83.29 1239.87,-66.4 1062.5,-42 1050.19,-40.31 1037.16,-38.21 1024.54,-36.02"/>
<polygon fill="midnightblue" stroke="midnightblue" points="1565.96,-95.24 1576.18,-92.47 1566.46,-88.26 1565.96,-95.24"/>
</g>
<!-- Node7 -->
<g id="node7" class="node">
<title>Node7</title>
<g id="a_node7"><a xlink:href="inputdevice_8cpp.html" target="_top" xlink:title=" ">
<polygon fill="white" stroke="black" points="1071.5,-6 1071.5,-36 1241.5,-36 1241.5,-6 1071.5,-6"/>
<text text-anchor="start" x="1079.5" y="-24" font-family="Helvetica,sans-Serif" font-size="10.00">/home/runner/work/doxygen</text>
<text text-anchor="middle" x="1156.5" y="-13" font-family="Helvetica,sans-Serif" font-size="10.00">/antimicrox/src/inputdevice.cpp</text>
</a>
</g>
</g>
<!-- Node1&#45;&gt;Node7 -->
<g id="edge6" class="edge">
<title>Node1&#45;&gt;Node7</title>
<path fill="none" stroke="midnightblue" d="M1566.01,-87.19C1482.92,-77.1 1358.26,-60.82 1250.5,-42 1240.39,-40.24 1229.72,-38.16 1219.33,-36.04"/>
<polygon fill="midnightblue" stroke="midnightblue" points="1565.84,-90.69 1576.19,-88.41 1566.68,-83.74 1565.84,-90.69"/>
</g>
<!-- Node8 -->
<g id="node8" class="node">
<title>Node8</title>
<g id="a_node8"><a xlink:href="joycontrolstickbutton_8cpp.html" target="_top" xlink:title=" ">
<polygon fill="white" stroke="black" points="1259.5,-0.5 1259.5,-41.5 1425.5,-41.5 1425.5,-0.5 1259.5,-0.5"/>
<text text-anchor="start" x="1267.5" y="-29.5" font-family="Helvetica,sans-Serif" font-size="10.00">/home/runner/work/doxygen</text>
<text text-anchor="start" x="1267.5" y="-18.5" font-family="Helvetica,sans-Serif" font-size="10.00">/antimicrox/src/joybuttontypes</text>
<text text-anchor="middle" x="1342.5" y="-7.5" font-family="Helvetica,sans-Serif" font-size="10.00">/joycontrolstickbutton.cpp</text>
</a>
</g>
</g>
<!-- Node1&#45;&gt;Node8 -->
<g id="edge7" class="edge">
<title>Node1&#45;&gt;Node8</title>
<path fill="none" stroke="midnightblue" d="M1568,-76.06C1522.47,-65.15 1467.91,-52.07 1423.86,-41.51"/>
<polygon fill="midnightblue" stroke="midnightblue" points="1567.32,-79.5 1577.86,-78.43 1568.96,-72.69 1567.32,-79.5"/>
</g>
<!-- Node9 -->
<g id="node9" class="node">
<title>Node9</title>
<g id="a_node9"><a xlink:href="joycontrolstick_8cpp.html" target="_top" xlink:title=" ">
<polygon fill="white" stroke="black" points="1444,-6 1444,-36 1629,-36 1629,-6 1444,-6"/>
<text text-anchor="start" x="1452" y="-24" font-family="Helvetica,sans-Serif" font-size="10.00">/home/runner/work/doxygen</text>
<text text-anchor="middle" x="1536.5" y="-13" font-family="Helvetica,sans-Serif" font-size="10.00">/antimicrox/src/joycontrolstick.cpp</text>
</a>
</g>
</g>
<!-- Node1&#45;&gt;Node9 -->
<g id="edge8" class="edge">
<title>Node1&#45;&gt;Node9</title>
<path fill="none" stroke="midnightblue" d="M1619.28,-73.15C1599.47,-60.91 1576.3,-46.59 1559.52,-36.23"/>
<polygon fill="midnightblue" stroke="midnightblue" points="1617.48,-76.15 1627.82,-78.43 1621.16,-70.19 1617.48,-76.15"/>
</g>
<!-- Node10 -->
<g id="node10" class="node">
<title>Node10</title>
<g id="a_node10"><a xlink:href="joycontrolstickbuttonpushbutton_8cpp.html" target="_top" xlink:title=" ">
<polygon fill="white" stroke="black" points="1647,-6 1647,-36 1918,-36 1918,-6 1647,-6"/>
<text text-anchor="start" x="1655" y="-24" font-family="Helvetica,sans-Serif" font-size="10.00">/home/runner/work/doxygen</text>
<text text-anchor="middle" x="1782.5" y="-13" font-family="Helvetica,sans-Serif" font-size="10.00">/antimicrox/src/joycontrolstickbuttonpushbutton.cpp</text>
</a>
</g>
</g>
<!-- Node1&#45;&gt;Node10 -->
<g id="edge9" class="edge">
<title>Node1&#45;&gt;Node10</title>
<path fill="none" stroke="midnightblue" d="M1699.72,-73.15C1719.53,-60.91 1742.7,-46.59 1759.48,-36.23"/>
<polygon fill="midnightblue" stroke="midnightblue" points="1697.84,-70.19 1691.18,-78.43 1701.52,-76.15 1697.84,-70.19"/>
</g>
<!-- Node11 -->
<g id="node11" class="node">
<title>Node11</title>
<g id="a_node11"><a xlink:href="joycontrolstickcontextmenu_8cpp.html" target="_top" xlink:title=" ">
<polygon fill="white" stroke="black" points="1936,-6 1936,-36 2185,-36 2185,-6 1936,-6"/>
<text text-anchor="start" x="1944" y="-24" font-family="Helvetica,sans-Serif" font-size="10.00">/home/runner/work/doxygen</text>
<text text-anchor="middle" x="2060.5" y="-13" font-family="Helvetica,sans-Serif" font-size="10.00">/antimicrox/src/joycontrolstickcontextmenu.cpp</text>
</a>
</g>
</g>
<!-- Node1&#45;&gt;Node11 -->
<g id="edge10" class="edge">
<title>Node1&#45;&gt;Node11</title>
<path fill="none" stroke="midnightblue" d="M1752.46,-80.38C1823.69,-66.88 1920.65,-48.51 1986.63,-36"/>
<polygon fill="midnightblue" stroke="midnightblue" points="1751.76,-76.95 1742.59,-82.25 1753.06,-83.83 1751.76,-76.95"/>
</g>
<!-- Node12 -->
<g id="node12" class="node">
<title>Node12</title>
<g id="a_node12"><a xlink:href="mousecontrolsticksettingsdialog_8cpp.html" target="_top" xlink:title=" ">
<polygon fill="white" stroke="black" points="2203,-0.5 2203,-41.5 2402,-41.5 2402,-0.5 2203,-0.5"/>
<text text-anchor="start" x="2211" y="-29.5" font-family="Helvetica,sans-Serif" font-size="10.00">/home/runner/work/doxygen</text>
<text text-anchor="start" x="2211" y="-18.5" font-family="Helvetica,sans-Serif" font-size="10.00">/antimicrox/src/mousedialog</text>
<text text-anchor="middle" x="2302.5" y="-7.5" font-family="Helvetica,sans-Serif" font-size="10.00">/mousecontrolsticksettingsdialog.cpp</text>
</a>
</g>
</g>
<!-- Node1&#45;&gt;Node12 -->
<g id="edge11" class="edge">
<title>Node1&#45;&gt;Node12</title>
<path fill="none" stroke="midnightblue" d="M1752.82,-90.48C1859.79,-81.33 2040.27,-64.32 2194.5,-42 2197.24,-41.6 2200.01,-41.19 2202.81,-40.76"/>
<polygon fill="midnightblue" stroke="midnightblue" points="1752.36,-87 1742.7,-91.34 1752.96,-93.98 1752.36,-87"/>
</g>
<!-- Node13 -->
<g id="node13" class="node">
<title>Node13</title>
<g id="a_node13"><a xlink:href="setjoystick_8cpp.html" target="_top" xlink:title=" ">
<polygon fill="white" stroke="black" points="2420.5,-6 2420.5,-36 2586.5,-36 2586.5,-6 2420.5,-6"/>
<text text-anchor="start" x="2428.5" y="-24" font-family="Helvetica,sans-Serif" font-size="10.00">/home/runner/work/doxygen</text>
<text text-anchor="middle" x="2503.5" y="-13" font-family="Helvetica,sans-Serif" font-size="10.00">/antimicrox/src/setjoystick.cpp</text>
</a>
</g>
</g>
<!-- Node1&#45;&gt;Node13 -->
<g id="edge12" class="edge">
<title>Node1&#45;&gt;Node13</title>
<path fill="none" stroke="midnightblue" d="M1752.55,-95.25C1895.07,-90.1 2175.69,-76.24 2411.5,-42 2422.34,-40.43 2433.8,-38.31 2444.83,-36.03"/>
<polygon fill="midnightblue" stroke="midnightblue" points="1752.4,-91.75 1742.53,-95.61 1752.65,-98.75 1752.4,-91.75"/>
</g>
<!-- Node14 -->
<g id="node14" class="node">
<title>Node14</title>
<g id="a_node14"><a xlink:href="stickpushbuttongroup_8cpp.html" target="_top" xlink:title=" ">
<polygon fill="white" stroke="black" points="2604.5,-6 2604.5,-36 2822.5,-36 2822.5,-6 2604.5,-6"/>
<text text-anchor="start" x="2612.5" y="-24" font-family="Helvetica,sans-Serif" font-size="10.00">/home/runner/work/doxygen</text>
<text text-anchor="middle" x="2713.5" y="-13" font-family="Helvetica,sans-Serif" font-size="10.00">/antimicrox/src/stickpushbuttongroup.cpp</text>
</a>
</g>
</g>
<!-- Node1&#45;&gt;Node14 -->
<g id="edge13" class="edge">
<title>Node1&#45;&gt;Node14</title>
<path fill="none" stroke="midnightblue" d="M1752.8,-95.76C1921.48,-90.96 2288.21,-77.13 2595.5,-42 2609.33,-40.42 2624.01,-38.3 2638.13,-36.02"/>
<polygon fill="midnightblue" stroke="midnightblue" points="1752.61,-92.26 1742.71,-96.04 1752.81,-99.26 1752.61,-92.26"/>
</g>
<!-- Node15 -->
<g id="node15" class="node">
<title>Node15</title>
<g id="a_node15"><a xlink:href="joycontrolstickcontextmenuhelper_8cpp.html" target="_top" xlink:title=" ">
<polygon fill="white" stroke="black" points="2840.5,-0.5 2840.5,-41.5 3046.5,-41.5 3046.5,-0.5 2840.5,-0.5"/>
<text text-anchor="start" x="2848.5" y="-29.5" font-family="Helvetica,sans-Serif" font-size="10.00">/home/runner/work/doxygen</text>
<text text-anchor="start" x="2848.5" y="-18.5" font-family="Helvetica,sans-Serif" font-size="10.00">/antimicrox/src/uihelpers</text>
<text text-anchor="middle" x="2943.5" y="-7.5" font-family="Helvetica,sans-Serif" font-size="10.00">/joycontrolstickcontextmenuhelper.cpp</text>
</a>
</g>
</g>
<!-- Node1&#45;&gt;Node15 -->
<g id="edge14" class="edge">
<title>Node1&#45;&gt;Node15</title>
<path fill="none" stroke="midnightblue" d="M1752.68,-97.62C1951.51,-95.92 2431.83,-87.04 2831.5,-42 2834.44,-41.67 2837.43,-41.31 2840.44,-40.92"/>
<polygon fill="midnightblue" stroke="midnightblue" points="1752.54,-94.12 1742.56,-97.7 1752.59,-101.12 1752.54,-94.12"/>
</g>
<!-- Node16 -->
<g id="node16" class="node">
<title>Node16</title>
<g id="a_node16"><a xlink:href="joycontrolstickeditdialoghelper_8cpp.html" target="_top" xlink:title=" ">
<polygon fill="white" stroke="black" points="3064.5,-0.5 3064.5,-41.5 3254.5,-41.5 3254.5,-0.5 3064.5,-0.5"/>
<text text-anchor="start" x="3072.5" y="-29.5" font-family="Helvetica,sans-Serif" font-size="10.00">/home/runner/work/doxygen</text>
<text text-anchor="start" x="3072.5" y="-18.5" font-family="Helvetica,sans-Serif" font-size="10.00">/antimicrox/src/uihelpers</text>
<text text-anchor="middle" x="3159.5" y="-7.5" font-family="Helvetica,sans-Serif" font-size="10.00">/joycontrolstickeditdialoghelper.cpp</text>
</a>
</g>
</g>
<!-- Node1&#45;&gt;Node16 -->
<g id="edge15" class="edge">
<title>Node1&#45;&gt;Node16</title>
<path fill="none" stroke="midnightblue" d="M1752.87,-96.08C2023,-90.24 2802.14,-71.28 3055.5,-42 3058.42,-41.66 3061.39,-41.29 3064.37,-40.89"/>
<polygon fill="midnightblue" stroke="midnightblue" points="1752.63,-92.59 1742.71,-96.3 1752.78,-99.58 1752.63,-92.59"/>
</g>
<!-- Node17 -->
<g id="node17" class="node">
<title>Node17</title>
<g id="a_node17"><a xlink:href="inputdevicexml_8cpp.html" target="_top" xlink:title=" ">
<polygon fill="white" stroke="black" points="3272.5,-6 3272.5,-36 3482.5,-36 3482.5,-6 3272.5,-6"/>
<text text-anchor="start" x="3280.5" y="-24" font-family="Helvetica,sans-Serif" font-size="10.00">/home/runner/work/doxygen</text>
<text text-anchor="middle" x="3377.5" y="-13" font-family="Helvetica,sans-Serif" font-size="10.00">/antimicrox/src/xml/inputdevicexml.cpp</text>
</a>
</g>
</g>
<!-- Node1&#45;&gt;Node17 -->
<g id="edge16" class="edge">
<title>Node1&#45;&gt;Node17</title>
<path fill="none" stroke="midnightblue" d="M1753.12,-96.44C2049.91,-91.23 2967.71,-72.96 3263.5,-42 3277.49,-40.54 3292.35,-38.38 3306.56,-36.01"/>
<polygon fill="midnightblue" stroke="midnightblue" points="1752.76,-92.95 1742.82,-96.62 1752.88,-99.94 1752.76,-92.95"/>
</g>
</g>
</svg>
