<?xml version="1.0" encoding="UTF-8" standalone="no"?>
<!DOCTYPE svg PUBLIC "-//W3C//DTD SVG 1.1//EN"
 "http://www.w3.org/Graphics/SVG/1.1/DTD/svg11.dtd">
<!-- Generated by graphviz version 2.43.0 (0)
 -->
<!-- Title: /home/runner/work/doxygen/antimicrox/src/joycontrolstickcontextmenu.cpp Pages: 1 -->
<!--zoomable 375 -->
<svg id="main" version="1.1" xmlns="http://www.w3.org/2000/svg" xmlns:xlink="http://www.w3.org/1999/xlink" xml:space="preserve" onload="init(evt)">
<style type="text/css"><![CDATA[
.edge:hover path { stroke: red; }
.edge:hover polygon { stroke: red; fill: red; }
]]></style>
<script type="text/javascript"><![CDATA[
var edges = document.getElementsByTagName('g');
if (edges && edges.length) {
  for (var i=0;i<edges.length;i++) {
    if (edges[i].id.substr(0,4)=='edge') {
      edges[i].setAttribute('class','edge');
    }
  }
}
]]></script>
        <defs>
                <circle id="rim" cx="0" cy="0" r="7"/>
                <circle id="rim2" cx="0" cy="0" r="3.5"/>
                <g id="zoomPlus">
                        <use xlink:href="#rim" fill="#404040">
                                <set attributeName="fill" to="#808080" begin="zoomplus.mouseover" end="zoomplus.mouseout"/>
                        </use>
                        <path d="M-4,0h8M0,-4v8" fill="none" stroke="white" stroke-width="1.5" pointer-events="none"/>
                </g>
                <g id="zoomMin">
                        <use xlink:href="#rim" fill="#404040">
                                <set attributeName="fill" to="#808080" begin="zoomminus.mouseover" end="zoomminus.mouseout"/>
                        </use>
                        <path d="M-4,0h8" fill="none" stroke="white" stroke-width="1.5" pointer-events="none"/>
                </g>
                <g id="dirArrow">
                        <path fill="none" stroke="white" stroke-width="1.5" d="M0,-3.0v7 M-2.5,-0.5L0,-3.0L2.5,-0.5"/>
                </g>
               <g id="resetDef">
                       <use xlink:href="#rim2" fill="#404040">
                               <set attributeName="fill" to="#808080" begin="reset.mouseover" end="reset.mouseout"/>
                       </use>
               </g>
        </defs>

<script type="text/javascript">
var viewWidth = 1882;
var viewHeight = 375;
var sectionId = 'dynsection-0';
</script>
<script xlink:href="svgpan.js"/>
<svg id="graph" class="graph">
<g id="viewport">
<title>/home/runner/work/doxygen/antimicrox/src/joycontrolstickcontextmenu.cpp</title>
<polygon fill="white" stroke="transparent" points="-4,4 -4,-371 1878,-371 1878,4 -4,4"/>
<!-- Node1 -->
<g id="node1" class="node">
<title>Node1</title>
<g id="a_node1"><a xlink:title=" ">
<polygon fill="#bfbfbf" stroke="black" points="857,-336.5 857,-366.5 1106,-366.5 1106,-336.5 857,-336.5"/>
<text text-anchor="start" x="865" y="-354.5" font-family="Helvetica,sans-Serif" font-size="10.00">/home/runner/work/doxygen</text>
<text text-anchor="middle" x="981.5" y="-343.5" font-family="Helvetica,sans-Serif" font-size="10.00">/antimicrox/src/joycontrolstickcontextmenu.cpp</text>
</a>
</g>
</g>
<!-- Node2 -->
<g id="node2" class="node">
<title>Node2</title>
<g id="a_node2"><a xlink:href="joycontrolstickcontextmenu_8h.html" target="_top" xlink:title=" ">
<polygon fill="white" stroke="black" points="214.5,-280.5 214.5,-299.5 376.5,-299.5 376.5,-280.5 214.5,-280.5"/>
<text text-anchor="middle" x="295.5" y="-287.5" font-family="Helvetica,sans-Serif" font-size="10.00">joycontrolstickcontextmenu.h</text>
</a>
</g>
</g>
<!-- Node1&#45;&gt;Node2 -->
<g id="edge1" class="edge">
<title>Node1&#45;&gt;Node2</title>
<path fill="none" stroke="midnightblue" d="M856.95,-340.19C737.32,-330.21 551.52,-314.51 390.5,-300 389.22,-299.89 387.94,-299.77 386.64,-299.65"/>
<polygon fill="midnightblue" stroke="midnightblue" points="386.88,-296.16 376.6,-298.73 386.24,-303.13 386.88,-296.16"/>
</g>
<!-- Node4 -->
<g id="node4" class="node">
<title>Node4</title>
<g id="a_node4"><a xlink:href="joycontrolstick_8h.html" target="_top" xlink:title=" ">
<polygon fill="white" stroke="black" points="91.5,-168.5 91.5,-187.5 189.5,-187.5 189.5,-168.5 91.5,-168.5"/>
<text text-anchor="middle" x="140.5" y="-175.5" font-family="Helvetica,sans-Serif" font-size="10.00">joycontrolstick.h</text>
</a>
</g>
</g>
<!-- Node1&#45;&gt;Node4 -->
<g id="edge59" class="edge">
<title>Node1&#45;&gt;Node4</title>
<path fill="none" stroke="midnightblue" d="M906.97,-336.47C853.41,-326.37 779.49,-312.4 714.5,-300 585.13,-275.32 551.3,-275.86 423.5,-244 394.17,-236.69 387.78,-231.51 358.5,-224 304.67,-210.2 242.53,-197.7 198.4,-189.4"/>
<polygon fill="midnightblue" stroke="midnightblue" points="198.9,-185.93 188.43,-187.54 197.62,-192.81 198.9,-185.93"/>
</g>
<!-- Node7 -->
<g id="node7" class="node">
<title>Node7</title>
<g id="a_node7"><a xlink:title=" ">
<polygon fill="white" stroke="#bfbfbf" points="636,-0.5 636,-19.5 677,-19.5 677,-0.5 636,-0.5"/>
<text text-anchor="middle" x="656.5" y="-7.5" font-family="Helvetica,sans-Serif" font-size="10.00">QList</text>
</a>
</g>
</g>
<!-- Node1&#45;&gt;Node7 -->
<g id="edge67" class="edge">
<title>Node1&#45;&gt;Node7</title>
<path fill="none" stroke="midnightblue" d="M856.68,-348.37C594.69,-342.25 11.5,-319.16 11.5,-235 11.5,-235 11.5,-235 11.5,-121 11.5,-90.9 7.08,-74.9 30.5,-56 77.11,-18.38 505.49,-12.19 625.42,-11.19"/>
<polygon fill="midnightblue" stroke="midnightblue" points="625.76,-14.69 635.73,-11.11 625.71,-7.69 625.76,-14.69"/>
</g>
<!-- Node25 -->
<g id="node20" class="node">
<title>Node25</title>
<g id="a_node20"><a xlink:href="antkeymapper_8h.html" target="_top" xlink:title=" ">
<polygon fill="white" stroke="black" points="1100,-280.5 1100,-299.5 1195,-299.5 1195,-280.5 1100,-280.5"/>
<text text-anchor="middle" x="1147.5" y="-287.5" font-family="Helvetica,sans-Serif" font-size="10.00">antkeymapper.h</text>
</a>
</g>
</g>
<!-- Node1&#45;&gt;Node25 -->
<g id="edge22" class="edge">
<title>Node1&#45;&gt;Node25</title>
<path fill="none" stroke="midnightblue" d="M1020.84,-336.4C1049.06,-326.28 1086.71,-312.79 1113.6,-303.15"/>
<polygon fill="midnightblue" stroke="midnightblue" points="1115.11,-306.33 1123.35,-299.66 1112.75,-299.74 1115.11,-306.33"/>
</g>
<!-- Node26 -->
<g id="node21" class="node">
<title>Node26</title>
<g id="a_node21"><a xlink:href="common_8h.html" target="_top" xlink:title=" ">
<polygon fill="white" stroke="black" points="1041.5,-168.5 1041.5,-187.5 1109.5,-187.5 1109.5,-168.5 1041.5,-168.5"/>
<text text-anchor="middle" x="1075.5" y="-175.5" font-family="Helvetica,sans-Serif" font-size="10.00">common.h</text>
</a>
</g>
</g>
<!-- Node1&#45;&gt;Node26 -->
<g id="edge24" class="edge">
<title>Node1&#45;&gt;Node26</title>
<path fill="none" stroke="midnightblue" d="M989.19,-336.47C1006.27,-305.3 1047.32,-230.41 1065.98,-196.37"/>
<polygon fill="midnightblue" stroke="midnightblue" points="1069.07,-198.01 1070.81,-187.56 1062.93,-194.65 1069.07,-198.01"/>
</g>
<!-- Node43 -->
<g id="node32" class="node">
<title>Node43</title>
<g id="a_node32"><a xlink:href="inputdevice_8h.html" target="_top" xlink:title=" ">
<polygon fill="white" stroke="black" points="1564,-168.5 1564,-187.5 1647,-187.5 1647,-168.5 1564,-168.5"/>
<text text-anchor="middle" x="1605.5" y="-175.5" font-family="Helvetica,sans-Serif" font-size="10.00">inputdevice.h</text>
</a>
</g>
</g>
<!-- Node1&#45;&gt;Node43 -->
<g id="edge38" class="edge">
<title>Node1&#45;&gt;Node43</title>
<path fill="none" stroke="midnightblue" d="M1049.13,-336.48C1093.5,-326.96 1152.68,-313.67 1204.5,-300 1340.55,-264.12 1500.01,-213.36 1569.78,-190.7"/>
<polygon fill="midnightblue" stroke="midnightblue" points="1570.98,-193.99 1579.41,-187.57 1568.82,-187.34 1570.98,-193.99"/>
</g>
<!-- Node56 -->
<g id="node43" class="node">
<title>Node56</title>
<g id="a_node43"><a xlink:href="joycontrolstickbutton_8h.html" target="_top" xlink:title=" ">
<polygon fill="white" stroke="black" points="432.5,-224.5 432.5,-243.5 638.5,-243.5 638.5,-224.5 432.5,-224.5"/>
<text text-anchor="middle" x="535.5" y="-231.5" font-family="Helvetica,sans-Serif" font-size="10.00">joybuttontypes/joycontrolstickbutton.h</text>
</a>
</g>
</g>
<!-- Node1&#45;&gt;Node56 -->
<g id="edge55" class="edge">
<title>Node1&#45;&gt;Node56</title>
<path fill="none" stroke="midnightblue" d="M927.26,-336.45C837.54,-313.22 660.06,-267.26 578.42,-246.11"/>
<polygon fill="midnightblue" stroke="midnightblue" points="579.04,-242.66 568.49,-243.54 577.29,-249.44 579.04,-242.66"/>
</g>
<!-- Node57 -->
<g id="node45" class="node">
<title>Node57</title>
<g id="a_node45"><a xlink:href="mousecontrolsticksettingsdialog_8h.html" target="_top" xlink:title=" ">
<polygon fill="white" stroke="black" points="724,-224.5 724,-243.5 975,-243.5 975,-224.5 724,-224.5"/>
<text text-anchor="middle" x="849.5" y="-231.5" font-family="Helvetica,sans-Serif" font-size="10.00">mousedialog/mousecontrolsticksettingsdialog.h</text>
</a>
</g>
</g>
<!-- Node1&#45;&gt;Node57 -->
<g id="edge60" class="edge">
<title>Node1&#45;&gt;Node57</title>
<path fill="none" stroke="midnightblue" d="M965.31,-336.34C940.45,-314.58 893.03,-273.09 867.26,-250.54"/>
<polygon fill="midnightblue" stroke="midnightblue" points="869.24,-247.62 859.41,-243.67 864.63,-252.89 869.24,-247.62"/>
</g>
<!-- Node62 -->
<g id="node49" class="node">
<title>Node62</title>
<g id="a_node49"><a xlink:title=" ">
<polygon fill="white" stroke="#bfbfbf" points="1411.5,-280.5 1411.5,-299.5 1467.5,-299.5 1467.5,-280.5 1411.5,-280.5"/>
<text text-anchor="middle" x="1439.5" y="-287.5" font-family="Helvetica,sans-Serif" font-size="10.00">QDebug</text>
</a>
</g>
</g>
<!-- Node1&#45;&gt;Node62 -->
<g id="edge66" class="edge">
<title>Node1&#45;&gt;Node62</title>
<path fill="none" stroke="midnightblue" d="M1106.16,-338.34C1189.02,-329.53 1300.1,-316.31 1397.5,-300 1398.74,-299.79 1400,-299.57 1401.27,-299.34"/>
<polygon fill="midnightblue" stroke="midnightblue" points="1401.94,-302.78 1411.1,-297.45 1400.62,-295.91 1401.94,-302.78"/>
</g>
<!-- Node63 -->
<g id="node50" class="node">
<title>Node63</title>
<g id="a_node50"><a xlink:title=" ">
<polygon fill="white" stroke="#bfbfbf" points="1486,-280.5 1486,-299.5 1545,-299.5 1545,-280.5 1486,-280.5"/>
<text text-anchor="middle" x="1515.5" y="-287.5" font-family="Helvetica,sans-Serif" font-size="10.00">QWidget</text>
</a>
</g>
</g>
<!-- Node1&#45;&gt;Node63 -->
<g id="edge68" class="edge">
<title>Node1&#45;&gt;Node63</title>
<path fill="none" stroke="midnightblue" d="M1106.16,-342.12C1204.15,-334.52 1344.19,-321.42 1475.89,-299.9"/>
<polygon fill="midnightblue" stroke="midnightblue" points="1476.47,-303.35 1485.77,-298.27 1475.33,-296.44 1476.47,-303.35"/>
</g>
<!-- Node3 -->
<g id="node3" class="node">
<title>Node3</title>
<g id="a_node3"><a xlink:href="joycontrolstickcontextmenuhelper_8h.html" target="_top" xlink:title=" ">
<polygon fill="white" stroke="black" points="39.5,-224.5 39.5,-243.5 279.5,-243.5 279.5,-224.5 39.5,-224.5"/>
<text text-anchor="middle" x="159.5" y="-231.5" font-family="Helvetica,sans-Serif" font-size="10.00">uihelpers/joycontrolstickcontextmenuhelper.h</text>
</a>
</g>
</g>
<!-- Node2&#45;&gt;Node3 -->
<g id="edge2" class="edge">
<title>Node2&#45;&gt;Node3</title>
<path fill="none" stroke="midnightblue" d="M273.95,-280.44C251.47,-271.52 216.01,-257.44 190.52,-247.32"/>
<polygon fill="midnightblue" stroke="midnightblue" points="191.53,-243.95 180.95,-243.52 188.95,-250.46 191.53,-243.95"/>
</g>
<!-- Node24 -->
<g id="node19" class="node">
<title>Node24</title>
<g id="a_node19"><a xlink:title=" ">
<polygon fill="white" stroke="#bfbfbf" points="298,-224.5 298,-243.5 349,-243.5 349,-224.5 298,-224.5"/>
<text text-anchor="middle" x="323.5" y="-231.5" font-family="Helvetica,sans-Serif" font-size="10.00">QMenu</text>
</a>
</g>
</g>
<!-- Node2&#45;&gt;Node24 -->
<g id="edge21" class="edge">
<title>Node2&#45;&gt;Node24</title>
<path fill="none" stroke="midnightblue" d="M300.12,-280.08C303.96,-272.69 309.52,-261.95 314.26,-252.81"/>
<polygon fill="midnightblue" stroke="midnightblue" points="317.47,-254.24 318.96,-243.75 311.25,-251.02 317.47,-254.24"/>
</g>
<!-- Node3&#45;&gt;Node4 -->
<g id="edge3" class="edge">
<title>Node3&#45;&gt;Node4</title>
<path fill="none" stroke="midnightblue" d="M156.36,-224.08C153.82,-216.85 150.14,-206.41 146.97,-197.4"/>
<polygon fill="midnightblue" stroke="midnightblue" points="150.2,-196.02 143.58,-187.75 143.6,-198.35 150.2,-196.02"/>
</g>
<!-- Node5 -->
<g id="node5" class="node">
<title>Node5</title>
<g id="a_node5"><a xlink:href="joybutton_8h.html" target="_top" xlink:title=" ">
<polygon fill="white" stroke="red" points="407.5,-112.5 407.5,-131.5 479.5,-131.5 479.5,-112.5 407.5,-112.5"/>
<text text-anchor="middle" x="443.5" y="-119.5" font-family="Helvetica,sans-Serif" font-size="10.00">joybutton.h</text>
</a>
</g>
</g>
<!-- Node4&#45;&gt;Node5 -->
<g id="edge4" class="edge">
<title>Node4&#45;&gt;Node5</title>
<path fill="none" stroke="midnightblue" d="M188.51,-168.44C245.69,-158.25 340.55,-141.35 397.04,-131.28"/>
<polygon fill="midnightblue" stroke="midnightblue" points="397.89,-134.68 407.13,-129.48 396.67,-127.79 397.89,-134.68"/>
</g>
<!-- Node12 -->
<g id="node11" class="node">
<title>Node12</title>
<g id="a_node11"><a xlink:title=" ">
<polygon fill="white" stroke="#bfbfbf" points="0,-0.5 0,-19.5 59,-19.5 59,-0.5 0,-0.5"/>
<text text-anchor="middle" x="29.5" y="-7.5" font-family="Helvetica,sans-Serif" font-size="10.00">QPointer</text>
</a>
</g>
</g>
<!-- Node4&#45;&gt;Node12 -->
<g id="edge20" class="edge">
<title>Node4&#45;&gt;Node12</title>
<path fill="none" stroke="midnightblue" d="M124.54,-168.44C98.85,-153.6 49.3,-120.41 30.5,-76 24.31,-61.38 24.62,-43.21 26.16,-29.8"/>
<polygon fill="midnightblue" stroke="midnightblue" points="29.63,-30.24 27.62,-19.84 22.7,-29.22 29.63,-30.24"/>
</g>
<!-- Node23 -->
<g id="node18" class="node">
<title>Node23</title>
<g id="a_node18"><a xlink:href="joycontrolstickdirectionstype_8h.html" target="_top" xlink:title=" ">
<polygon fill="white" stroke="black" points="96,-112.5 96,-131.5 263,-131.5 263,-112.5 96,-112.5"/>
<text text-anchor="middle" x="179.5" y="-119.5" font-family="Helvetica,sans-Serif" font-size="10.00">joycontrolstickdirectionstype.h</text>
</a>
</g>
</g>
<!-- Node4&#45;&gt;Node23 -->
<g id="edge19" class="edge">
<title>Node4&#45;&gt;Node23</title>
<path fill="none" stroke="midnightblue" d="M146.94,-168.08C152.45,-160.46 160.53,-149.26 167.26,-139.94"/>
<polygon fill="midnightblue" stroke="midnightblue" points="170.16,-141.91 173.18,-131.75 164.49,-137.81 170.16,-141.91"/>
</g>
<!-- Node6 -->
<g id="node6" class="node">
<title>Node6</title>
<g id="a_node6"><a xlink:href="globalvariables_8h.html" target="_top" xlink:title=" ">
<polygon fill="white" stroke="black" points="606,-56.5 606,-75.5 707,-75.5 707,-56.5 606,-56.5"/>
<text text-anchor="middle" x="656.5" y="-63.5" font-family="Helvetica,sans-Serif" font-size="10.00">globalvariables.h</text>
</a>
</g>
</g>
<!-- Node5&#45;&gt;Node6 -->
<g id="edge5" class="edge">
<title>Node5&#45;&gt;Node6</title>
<path fill="none" stroke="midnightblue" d="M477.25,-112.44C514.02,-103.12 572.95,-88.18 613.12,-78"/>
<polygon fill="midnightblue" stroke="midnightblue" points="614.07,-81.37 622.91,-75.52 612.35,-74.58 614.07,-81.37"/>
</g>
<!-- Node9 -->
<g id="node9" class="node">
<title>Node9</title>
<g id="a_node9"><a xlink:href="joybuttonmousehelper_8h.html" target="_top" xlink:title=" ">
<polygon fill="white" stroke="black" points="725,-56.5 725,-75.5 860,-75.5 860,-56.5 725,-56.5"/>
<text text-anchor="middle" x="792.5" y="-63.5" font-family="Helvetica,sans-Serif" font-size="10.00">joybuttonmousehelper.h</text>
</a>
</g>
</g>
<!-- Node5&#45;&gt;Node9 -->
<g id="edge8" class="edge">
<title>Node5&#45;&gt;Node9</title>
<path fill="none" stroke="midnightblue" d="M479.7,-114.5C484.67,-113.64 489.71,-112.78 494.5,-112 572.6,-99.21 662.43,-85.83 722.88,-77.01"/>
<polygon fill="midnightblue" stroke="midnightblue" points="723.67,-80.44 733.06,-75.53 722.66,-73.51 723.67,-80.44"/>
</g>
<!-- Node10 -->
<g id="node10" class="node">
<title>Node10</title>
<g id="a_node10"><a xlink:href="joybuttonslot_8h.html" target="_top" xlink:title=" ">
<polygon fill="white" stroke="red" points="39.5,-56.5 39.5,-75.5 129.5,-75.5 129.5,-56.5 39.5,-56.5"/>
<text text-anchor="middle" x="84.5" y="-63.5" font-family="Helvetica,sans-Serif" font-size="10.00">joybuttonslot.h</text>
</a>
</g>
</g>
<!-- Node5&#45;&gt;Node10 -->
<g id="edge10" class="edge">
<title>Node5&#45;&gt;Node10</title>
<path fill="none" stroke="midnightblue" d="M407.31,-115.88C351.95,-108.01 242.64,-92.27 139.53,-76.14"/>
<polygon fill="midnightblue" stroke="midnightblue" points="139.99,-72.67 129.57,-74.58 138.91,-79.58 139.99,-72.67"/>
</g>
<!-- Node16 -->
<g id="node12" class="node">
<title>Node16</title>
<g id="a_node12"><a xlink:href="springmousemoveinfo_8h.html" target="_top" xlink:title=" ">
<polygon fill="white" stroke="black" points="148,-56.5 148,-75.5 283,-75.5 283,-56.5 148,-56.5"/>
<text text-anchor="middle" x="215.5" y="-63.5" font-family="Helvetica,sans-Serif" font-size="10.00">springmousemoveinfo.h</text>
</a>
</g>
</g>
<!-- Node5&#45;&gt;Node16 -->
<g id="edge13" class="edge">
<title>Node5&#45;&gt;Node16</title>
<path fill="none" stroke="midnightblue" d="M407.37,-112.44C367.85,-103.08 304.4,-88.06 261.39,-77.87"/>
<polygon fill="midnightblue" stroke="midnightblue" points="262,-74.42 251.46,-75.52 260.38,-81.23 262,-74.42"/>
</g>
<!-- Node17 -->
<g id="node13" class="node">
<title>Node17</title>
<g id="a_node13"><a xlink:title=" ">
<polygon fill="white" stroke="#bfbfbf" points="301.5,-56.5 301.5,-75.5 397.5,-75.5 397.5,-56.5 301.5,-56.5"/>
<text text-anchor="middle" x="349.5" y="-63.5" font-family="Helvetica,sans-Serif" font-size="10.00">QDeadlineTimer</text>
</a>
</g>
</g>
<!-- Node5&#45;&gt;Node17 -->
<g id="edge14" class="edge">
<title>Node5&#45;&gt;Node17</title>
<path fill="none" stroke="midnightblue" d="M428.4,-112.32C413.6,-103.82 390.81,-90.73 373.52,-80.8"/>
<polygon fill="midnightblue" stroke="midnightblue" points="374.98,-77.6 364.57,-75.65 371.49,-83.67 374.98,-77.6"/>
</g>
<!-- Node18 -->
<g id="node14" class="node">
<title>Node18</title>
<g id="a_node14"><a xlink:title=" ">
<polygon fill="white" stroke="#bfbfbf" points="415.5,-56.5 415.5,-75.5 471.5,-75.5 471.5,-56.5 415.5,-56.5"/>
<text text-anchor="middle" x="443.5" y="-63.5" font-family="Helvetica,sans-Serif" font-size="10.00">QQueue</text>
</a>
</g>
</g>
<!-- Node5&#45;&gt;Node18 -->
<g id="edge15" class="edge">
<title>Node5&#45;&gt;Node18</title>
<path fill="none" stroke="midnightblue" d="M443.5,-112.08C443.5,-105.01 443.5,-94.86 443.5,-85.99"/>
<polygon fill="midnightblue" stroke="midnightblue" points="447,-85.75 443.5,-75.75 440,-85.75 447,-85.75"/>
</g>
<!-- Node19 -->
<g id="node15" class="node">
<title>Node19</title>
<g id="a_node15"><a xlink:title=" ">
<polygon fill="white" stroke="#bfbfbf" points="489.5,-56.5 489.5,-75.5 587.5,-75.5 587.5,-56.5 489.5,-56.5"/>
<text text-anchor="middle" x="538.5" y="-63.5" font-family="Helvetica,sans-Serif" font-size="10.00">QReadWriteLock</text>
</a>
</g>
</g>
<!-- Node5&#45;&gt;Node19 -->
<g id="edge16" class="edge">
<title>Node5&#45;&gt;Node19</title>
<path fill="none" stroke="midnightblue" d="M458.76,-112.32C473.72,-103.82 496.75,-90.73 514.23,-80.8"/>
<polygon fill="midnightblue" stroke="midnightblue" points="516.31,-83.64 523.27,-75.65 512.85,-77.55 516.31,-83.64"/>
</g>
<!-- Node21 -->
<g id="node16" class="node">
<title>Node21</title>
<g id="a_node16"><a xlink:title=" ">
<polygon fill="white" stroke="#bfbfbf" points="878.5,-56.5 878.5,-75.5 936.5,-75.5 936.5,-56.5 878.5,-56.5"/>
<text text-anchor="middle" x="907.5" y="-63.5" font-family="Helvetica,sans-Serif" font-size="10.00">QThread</text>
</a>
</g>
</g>
<!-- Node5&#45;&gt;Node21 -->
<g id="edge17" class="edge">
<title>Node5&#45;&gt;Node21</title>
<path fill="none" stroke="midnightblue" d="M479.66,-114.25C484.64,-113.43 489.69,-112.65 494.5,-112 657.16,-89.87 702.56,-102.83 868.08,-76.03"/>
<polygon fill="midnightblue" stroke="midnightblue" points="868.82,-79.45 878.12,-74.38 867.69,-72.55 868.82,-79.45"/>
</g>
<!-- Node22 -->
<g id="node17" class="node">
<title>Node22</title>
<g id="a_node17"><a xlink:title=" ">
<polygon fill="white" stroke="#bfbfbf" points="955,-56.5 955,-75.5 1008,-75.5 1008,-56.5 955,-56.5"/>
<text text-anchor="middle" x="981.5" y="-63.5" font-family="Helvetica,sans-Serif" font-size="10.00">QTimer</text>
</a>
</g>
</g>
<!-- Node5&#45;&gt;Node22 -->
<g id="edge18" class="edge">
<title>Node5&#45;&gt;Node22</title>
<path fill="none" stroke="midnightblue" d="M479.65,-114.18C484.63,-113.37 489.68,-112.62 494.5,-112 690.74,-86.91 745.31,-107.8 944.94,-75.8"/>
<polygon fill="midnightblue" stroke="midnightblue" points="945.56,-79.24 954.87,-74.18 944.43,-72.33 945.56,-79.24"/>
</g>
<!-- Node6&#45;&gt;Node7 -->
<g id="edge6" class="edge">
<title>Node6&#45;&gt;Node7</title>
<path fill="none" stroke="midnightblue" d="M656.5,-56.08C656.5,-49.01 656.5,-38.86 656.5,-29.99"/>
<polygon fill="midnightblue" stroke="midnightblue" points="660,-29.75 656.5,-19.75 653,-29.75 660,-29.75"/>
</g>
<!-- Node8 -->
<g id="node8" class="node">
<title>Node8</title>
<g id="a_node8"><a xlink:title=" ">
<polygon fill="white" stroke="#bfbfbf" points="1027.5,-0.5 1027.5,-19.5 1083.5,-19.5 1083.5,-0.5 1027.5,-0.5"/>
<text text-anchor="middle" x="1055.5" y="-7.5" font-family="Helvetica,sans-Serif" font-size="10.00">QObject</text>
</a>
</g>
</g>
<!-- Node6&#45;&gt;Node8 -->
<g id="edge7" class="edge">
<title>Node6&#45;&gt;Node8</title>
<path fill="none" stroke="midnightblue" d="M707.23,-57.33C710.37,-56.87 713.48,-56.43 716.5,-56 825.42,-40.6 954.25,-23.92 1017.12,-15.88"/>
<polygon fill="midnightblue" stroke="midnightblue" points="1017.88,-19.31 1027.35,-14.57 1016.99,-12.37 1017.88,-19.31"/>
</g>
<!-- Node9&#45;&gt;Node8 -->
<g id="edge9" class="edge">
<title>Node9&#45;&gt;Node8</title>
<path fill="none" stroke="midnightblue" d="M834.17,-56.44C884.61,-46.09 968.82,-28.8 1017.53,-18.8"/>
<polygon fill="midnightblue" stroke="midnightblue" points="1018.27,-22.22 1027.37,-16.78 1016.87,-15.36 1018.27,-22.22"/>
</g>
<!-- Node10&#45;&gt;Node8 -->
<g id="edge11" class="edge">
<title>Node10&#45;&gt;Node8</title>
<path fill="none" stroke="midnightblue" d="M129.53,-57.09C132.56,-56.69 135.57,-56.31 138.5,-56 313,-37.24 865.84,-17.46 1016.98,-12.29"/>
<polygon fill="midnightblue" stroke="midnightblue" points="1017.29,-15.78 1027.16,-11.95 1017.05,-8.79 1017.29,-15.78"/>
</g>
<!-- Node10&#45;&gt;Node12 -->
<g id="edge12" class="edge">
<title>Node10&#45;&gt;Node12</title>
<path fill="none" stroke="midnightblue" d="M75.42,-56.08C67.33,-48.14 55.3,-36.34 45.59,-26.8"/>
<polygon fill="midnightblue" stroke="midnightblue" points="48,-24.26 38.41,-19.75 43.1,-29.25 48,-24.26"/>
</g>
<!-- Node25&#45;&gt;Node8 -->
<g id="edge23" class="edge">
<title>Node25&#45;&gt;Node8</title>
<path fill="none" stroke="midnightblue" d="M1164.84,-280.41C1202.77,-260.5 1292.47,-207.12 1326.5,-132 1335.89,-111.28 1321.14,-63.22 1313.5,-56 1282.45,-26.62 1157.82,-16.12 1093.84,-12.62"/>
<polygon fill="midnightblue" stroke="midnightblue" points="1093.91,-9.12 1083.74,-12.1 1093.55,-16.11 1093.91,-9.12"/>
</g>
<!-- Node26&#45;&gt;Node21 -->
<g id="edge34" class="edge">
<title>Node26&#45;&gt;Node21</title>
<path fill="none" stroke="midnightblue" d="M1047.97,-168.36C1026.11,-160.76 995.36,-148.35 971.5,-132 951.59,-118.36 932.71,-97.93 920.69,-83.62"/>
<polygon fill="midnightblue" stroke="midnightblue" points="923.18,-81.14 914.14,-75.62 917.76,-85.58 923.18,-81.14"/>
</g>
<!-- Node27 -->
<g id="node22" class="node">
<title>Node27</title>
<g id="a_node22"><a xlink:href="antimicrosettings_8h.html" target="_top" xlink:title=" ">
<polygon fill="white" stroke="black" points="1144,-112.5 1144,-131.5 1255,-131.5 1255,-112.5 1144,-112.5"/>
<text text-anchor="middle" x="1199.5" y="-119.5" font-family="Helvetica,sans-Serif" font-size="10.00">antimicrosettings.h</text>
</a>
</g>
</g>
<!-- Node26&#45;&gt;Node27 -->
<g id="edge25" class="edge">
<title>Node26&#45;&gt;Node27</title>
<path fill="none" stroke="midnightblue" d="M1095.15,-168.44C1115.46,-159.6 1147.4,-145.69 1170.6,-135.59"/>
<polygon fill="midnightblue" stroke="midnightblue" points="1172.17,-138.72 1179.94,-131.52 1169.38,-132.3 1172.17,-138.72"/>
</g>
<!-- Node36 -->
<g id="node25" class="node">
<title>Node36</title>
<g id="a_node25"><a xlink:title=" ">
<polygon fill="white" stroke="#bfbfbf" points="868,-112.5 868,-131.5 923,-131.5 923,-112.5 868,-112.5"/>
<text text-anchor="middle" x="895.5" y="-119.5" font-family="Helvetica,sans-Serif" font-size="10.00">config.h</text>
</a>
</g>
</g>
<!-- Node26&#45;&gt;Node36 -->
<g id="edge28" class="edge">
<title>Node26&#45;&gt;Node36</title>
<path fill="none" stroke="midnightblue" d="M1046.98,-168.44C1016.16,-159.2 966.93,-144.43 933,-134.25"/>
<polygon fill="midnightblue" stroke="midnightblue" points="933.59,-130.77 923,-131.25 931.58,-137.48 933.59,-130.77"/>
</g>
<!-- Node37 -->
<g id="node26" class="node">
<title>Node37</title>
<g id="a_node26"><a xlink:href="mousehelper_8h.html" target="_top" xlink:title=" ">
<polygon fill="white" stroke="black" points="980,-112.5 980,-131.5 1069,-131.5 1069,-112.5 980,-112.5"/>
<text text-anchor="middle" x="1024.5" y="-119.5" font-family="Helvetica,sans-Serif" font-size="10.00">mousehelper.h</text>
</a>
</g>
</g>
<!-- Node26&#45;&gt;Node37 -->
<g id="edge29" class="edge">
<title>Node26&#45;&gt;Node37</title>
<path fill="none" stroke="midnightblue" d="M1067.08,-168.08C1059.65,-160.22 1048.65,-148.57 1039.69,-139.08"/>
<polygon fill="midnightblue" stroke="midnightblue" points="1042.18,-136.62 1032.76,-131.75 1037.09,-141.42 1042.18,-136.62"/>
</g>
<!-- Node38 -->
<g id="node27" class="node">
<title>Node38</title>
<g id="a_node27"><a xlink:title=" ">
<polygon fill="white" stroke="#bfbfbf" points="1087.5,-112.5 1087.5,-131.5 1125.5,-131.5 1125.5,-112.5 1087.5,-112.5"/>
<text text-anchor="middle" x="1106.5" y="-119.5" font-family="Helvetica,sans-Serif" font-size="10.00">QDir</text>
</a>
</g>
</g>
<!-- Node26&#45;&gt;Node38 -->
<g id="edge32" class="edge">
<title>Node26&#45;&gt;Node38</title>
<path fill="none" stroke="midnightblue" d="M1080.62,-168.08C1084.91,-160.61 1091.16,-149.72 1096.44,-140.52"/>
<polygon fill="midnightblue" stroke="midnightblue" points="1099.53,-142.17 1101.48,-131.75 1093.46,-138.68 1099.53,-142.17"/>
</g>
<!-- Node39 -->
<g id="node28" class="node">
<title>Node39</title>
<g id="a_node28"><a xlink:title=" ">
<polygon fill="white" stroke="#bfbfbf" points="1273.5,-112.5 1273.5,-131.5 1317.5,-131.5 1317.5,-112.5 1273.5,-112.5"/>
<text text-anchor="middle" x="1295.5" y="-119.5" font-family="Helvetica,sans-Serif" font-size="10.00">QIcon</text>
</a>
</g>
</g>
<!-- Node26&#45;&gt;Node39 -->
<g id="edge33" class="edge">
<title>Node26&#45;&gt;Node39</title>
<path fill="none" stroke="midnightblue" d="M1109.77,-169.37C1145.73,-161.25 1204.12,-147.73 1263.3,-132.23"/>
<polygon fill="midnightblue" stroke="midnightblue" points="1264.41,-135.55 1273.19,-129.62 1262.62,-128.79 1264.41,-135.55"/>
</g>
<!-- Node40 -->
<g id="node29" class="node">
<title>Node40</title>
<g id="a_node29"><a xlink:title=" ">
<polygon fill="white" stroke="#bfbfbf" points="536.5,-112.5 536.5,-131.5 608.5,-131.5 608.5,-112.5 536.5,-112.5"/>
<text text-anchor="middle" x="572.5" y="-119.5" font-family="Helvetica,sans-Serif" font-size="10.00">QTranslator</text>
</a>
</g>
</g>
<!-- Node26&#45;&gt;Node40 -->
<g id="edge35" class="edge">
<title>Node26&#45;&gt;Node40</title>
<path fill="none" stroke="midnightblue" d="M1041.3,-169.46C1038.33,-168.92 1035.37,-168.42 1032.5,-168 852.56,-141.46 802.52,-157.6 618.78,-132.03"/>
<polygon fill="midnightblue" stroke="midnightblue" points="619.18,-128.55 608.79,-130.62 618.2,-135.48 619.18,-128.55"/>
</g>
<!-- Node41 -->
<g id="node30" class="node">
<title>Node41</title>
<g id="a_node30"><a xlink:title=" ">
<polygon fill="white" stroke="#bfbfbf" points="626.5,-112.5 626.5,-131.5 718.5,-131.5 718.5,-112.5 626.5,-112.5"/>
<text text-anchor="middle" x="672.5" y="-119.5" font-family="Helvetica,sans-Serif" font-size="10.00">QWaitCondition</text>
</a>
</g>
</g>
<!-- Node26&#45;&gt;Node41 -->
<g id="edge36" class="edge">
<title>Node26&#45;&gt;Node41</title>
<path fill="none" stroke="midnightblue" d="M1041.28,-169.55C1038.32,-168.99 1035.36,-168.47 1032.5,-168 901.38,-146.56 864.94,-150.59 728.61,-131.95"/>
<polygon fill="midnightblue" stroke="midnightblue" points="729.01,-128.47 718.62,-130.57 728.05,-135.41 729.01,-128.47"/>
</g>
<!-- Node42 -->
<g id="node31" class="node">
<title>Node42</title>
<g id="a_node31"><a xlink:title=" ">
<polygon fill="white" stroke="#bfbfbf" points="737,-112.5 737,-131.5 850,-131.5 850,-112.5 737,-112.5"/>
<text text-anchor="middle" x="793.5" y="-119.5" font-family="Helvetica,sans-Serif" font-size="10.00">SDL2/SDL_version.h</text>
</a>
</g>
</g>
<!-- Node26&#45;&gt;Node42 -->
<g id="edge37" class="edge">
<title>Node26&#45;&gt;Node42</title>
<path fill="none" stroke="midnightblue" d="M1041.25,-169.77C1038.29,-169.16 1035.34,-168.57 1032.5,-168 970.25,-155.63 898.71,-142.27 850.25,-133.35"/>
<polygon fill="midnightblue" stroke="midnightblue" points="850.73,-129.88 840.27,-131.52 849.47,-136.77 850.73,-129.88"/>
</g>
<!-- Node28 -->
<g id="node23" class="node">
<title>Node28</title>
<g id="a_node23"><a xlink:href="commandlineutility_8h.html" target="_top" xlink:title=" ">
<polygon fill="white" stroke="red" points="1103,-56.5 1103,-75.5 1222,-75.5 1222,-56.5 1103,-56.5"/>
<text text-anchor="middle" x="1162.5" y="-63.5" font-family="Helvetica,sans-Serif" font-size="10.00">commandlineutility.h</text>
</a>
</g>
</g>
<!-- Node27&#45;&gt;Node28 -->
<g id="edge26" class="edge">
<title>Node27&#45;&gt;Node28</title>
<path fill="none" stroke="midnightblue" d="M1193.39,-112.08C1188.22,-104.53 1180.65,-93.49 1174.31,-84.23"/>
<polygon fill="midnightblue" stroke="midnightblue" points="1177.04,-82.02 1168.5,-75.75 1171.26,-85.98 1177.04,-82.02"/>
</g>
<!-- Node35 -->
<g id="node24" class="node">
<title>Node35</title>
<g id="a_node24"><a xlink:title=" ">
<polygon fill="white" stroke="#bfbfbf" points="1240.5,-56.5 1240.5,-75.5 1304.5,-75.5 1304.5,-56.5 1240.5,-56.5"/>
<text text-anchor="middle" x="1272.5" y="-63.5" font-family="Helvetica,sans-Serif" font-size="10.00">QSettings</text>
</a>
</g>
</g>
<!-- Node27&#45;&gt;Node35 -->
<g id="edge27" class="edge">
<title>Node27&#45;&gt;Node35</title>
<path fill="none" stroke="midnightblue" d="M1211.23,-112.32C1222.34,-104.11 1239.24,-91.6 1252.48,-81.81"/>
<polygon fill="midnightblue" stroke="midnightblue" points="1254.6,-84.59 1260.56,-75.83 1250.44,-78.97 1254.6,-84.59"/>
</g>
<!-- Node37&#45;&gt;Node8 -->
<g id="edge30" class="edge">
<title>Node37&#45;&gt;Node8</title>
<path fill="none" stroke="midnightblue" d="M1031.16,-112.25C1037.37,-103.57 1046.28,-89.62 1050.5,-76 1055.16,-60.95 1056.23,-43.04 1056.24,-29.84"/>
<polygon fill="midnightblue" stroke="midnightblue" points="1059.73,-29.57 1056.03,-19.64 1052.73,-29.71 1059.73,-29.57"/>
</g>
<!-- Node37&#45;&gt;Node22 -->
<g id="edge31" class="edge">
<title>Node37&#45;&gt;Node22</title>
<path fill="none" stroke="midnightblue" d="M1017.4,-112.08C1011.26,-104.38 1002.23,-93.03 994.76,-83.65"/>
<polygon fill="midnightblue" stroke="midnightblue" points="997.44,-81.39 988.47,-75.75 991.96,-85.75 997.44,-81.39"/>
</g>
<!-- Node44 -->
<g id="node33" class="node">
<title>Node44</title>
<g id="a_node33"><a xlink:href="inputdevicecalibration_8h.html" target="_top" xlink:title=" ">
<polygon fill="white" stroke="black" points="1379.5,-112.5 1379.5,-131.5 1513.5,-131.5 1513.5,-112.5 1379.5,-112.5"/>
<text text-anchor="middle" x="1446.5" y="-119.5" font-family="Helvetica,sans-Serif" font-size="10.00">inputdevicecalibration.h</text>
</a>
</g>
</g>
<!-- Node43&#45;&gt;Node44 -->
<g id="edge39" class="edge">
<title>Node43&#45;&gt;Node44</title>
<path fill="none" stroke="midnightblue" d="M1580.31,-168.44C1553.56,-159.36 1511.1,-144.94 1481.19,-134.78"/>
<polygon fill="midnightblue" stroke="midnightblue" points="1482.17,-131.42 1471.58,-131.52 1479.92,-138.05 1482.17,-131.42"/>
</g>
<!-- Node46 -->
<g id="node35" class="node">
<title>Node46</title>
<g id="a_node35"><a xlink:href="joysensordirection_8h.html" target="_top" xlink:title=" ">
<polygon fill="white" stroke="black" points="1644.5,-56.5 1644.5,-75.5 1760.5,-75.5 1760.5,-56.5 1644.5,-56.5"/>
<text text-anchor="middle" x="1702.5" y="-63.5" font-family="Helvetica,sans-Serif" font-size="10.00">joysensordirection.h</text>
</a>
</g>
</g>
<!-- Node43&#45;&gt;Node46 -->
<g id="edge41" class="edge">
<title>Node43&#45;&gt;Node46</title>
<path fill="none" stroke="midnightblue" d="M1612.12,-168.38C1621.93,-155.74 1641.04,-131.55 1658.5,-112 1667.42,-102.02 1677.88,-91.29 1686.36,-82.81"/>
<polygon fill="midnightblue" stroke="midnightblue" points="1688.85,-85.26 1693.49,-75.74 1683.92,-80.29 1688.85,-85.26"/>
</g>
<!-- Node48 -->
<g id="node37" class="node">
<title>Node48</title>
<g id="a_node37"><a xlink:href="joysensortype_8h.html" target="_top" xlink:title=" ">
<polygon fill="white" stroke="black" points="1779,-56.5 1779,-75.5 1874,-75.5 1874,-56.5 1779,-56.5"/>
<text text-anchor="middle" x="1826.5" y="-63.5" font-family="Helvetica,sans-Serif" font-size="10.00">joysensortype.h</text>
</a>
</g>
</g>
<!-- Node43&#45;&gt;Node48 -->
<g id="edge43" class="edge">
<title>Node43&#45;&gt;Node48</title>
<path fill="none" stroke="midnightblue" d="M1647.28,-176.6C1688.25,-174.17 1750.51,-164.76 1792.5,-132 1807.53,-120.28 1816.61,-100.04 1821.55,-85.26"/>
<polygon fill="midnightblue" stroke="midnightblue" points="1824.91,-86.24 1824.45,-75.65 1818.21,-84.22 1824.91,-86.24"/>
</g>
<!-- Node50 -->
<g id="node39" class="node">
<title>Node50</title>
<g id="a_node39"><a xlink:href="setjoystick_8h.html" target="_top" xlink:title=" ">
<polygon fill="white" stroke="black" points="1532,-112.5 1532,-131.5 1611,-131.5 1611,-112.5 1532,-112.5"/>
<text text-anchor="middle" x="1571.5" y="-119.5" font-family="Helvetica,sans-Serif" font-size="10.00">setjoystick.h</text>
</a>
</g>
</g>
<!-- Node43&#45;&gt;Node50 -->
<g id="edge46" class="edge">
<title>Node43&#45;&gt;Node50</title>
<path fill="none" stroke="midnightblue" d="M1599.89,-168.08C1595.13,-160.53 1588.18,-149.49 1582.35,-140.23"/>
<polygon fill="midnightblue" stroke="midnightblue" points="1585.3,-138.35 1577.01,-131.75 1579.38,-142.08 1585.3,-138.35"/>
</g>
<!-- Node55 -->
<g id="node42" class="node">
<title>Node55</title>
<g id="a_node42"><a xlink:title=" ">
<polygon fill="white" stroke="#bfbfbf" points="1667.5,-112.5 1667.5,-131.5 1783.5,-131.5 1783.5,-112.5 1667.5,-112.5"/>
<text text-anchor="middle" x="1725.5" y="-119.5" font-family="Helvetica,sans-Serif" font-size="10.00">SDL2/SDL_joystick.h</text>
</a>
</g>
</g>
<!-- Node43&#45;&gt;Node55 -->
<g id="edge54" class="edge">
<title>Node43&#45;&gt;Node55</title>
<path fill="none" stroke="midnightblue" d="M1624.51,-168.44C1644.09,-159.64 1674.81,-145.81 1697.23,-135.72"/>
<polygon fill="midnightblue" stroke="midnightblue" points="1698.89,-138.81 1706.57,-131.52 1696.02,-132.43 1698.89,-138.81"/>
</g>
<!-- Node45 -->
<g id="node34" class="node">
<title>Node45</title>
<g id="a_node34"><a xlink:title=" ">
<polygon fill="white" stroke="#bfbfbf" points="1361,-56.5 1361,-75.5 1410,-75.5 1410,-56.5 1361,-56.5"/>
<text text-anchor="middle" x="1385.5" y="-63.5" font-family="Helvetica,sans-Serif" font-size="10.00">QHash</text>
</a>
</g>
</g>
<!-- Node44&#45;&gt;Node45 -->
<g id="edge40" class="edge">
<title>Node44&#45;&gt;Node45</title>
<path fill="none" stroke="midnightblue" d="M1436.7,-112.32C1427.68,-104.34 1414.09,-92.31 1403.18,-82.65"/>
<polygon fill="midnightblue" stroke="midnightblue" points="1405.29,-79.84 1395.48,-75.83 1400.65,-85.08 1405.29,-79.84"/>
</g>
<!-- Node47 -->
<g id="node36" class="node">
<title>Node47</title>
<g id="a_node36"><a xlink:title=" ">
<polygon fill="white" stroke="#bfbfbf" points="1684,-0.5 1684,-19.5 1755,-19.5 1755,-0.5 1684,-0.5"/>
<text text-anchor="middle" x="1719.5" y="-7.5" font-family="Helvetica,sans-Serif" font-size="10.00">QMetaType</text>
</a>
</g>
</g>
<!-- Node46&#45;&gt;Node47 -->
<g id="edge42" class="edge">
<title>Node46&#45;&gt;Node47</title>
<path fill="none" stroke="midnightblue" d="M1705.31,-56.08C1707.58,-48.85 1710.87,-38.41 1713.71,-29.4"/>
<polygon fill="midnightblue" stroke="midnightblue" points="1717.08,-30.34 1716.75,-19.75 1710.4,-28.24 1717.08,-30.34"/>
</g>
<!-- Node48&#45;&gt;Node47 -->
<g id="edge44" class="edge">
<title>Node48&#45;&gt;Node47</title>
<path fill="none" stroke="midnightblue" d="M1809.31,-56.32C1792.15,-47.66 1765.55,-34.24 1745.75,-24.25"/>
<polygon fill="midnightblue" stroke="midnightblue" points="1747.15,-21.04 1736.65,-19.65 1744,-27.28 1747.15,-21.04"/>
</g>
<!-- Node49 -->
<g id="node38" class="node">
<title>Node49</title>
<g id="a_node38"><a xlink:title=" ">
<polygon fill="white" stroke="#bfbfbf" points="1790.5,-0.5 1790.5,-19.5 1862.5,-19.5 1862.5,-0.5 1790.5,-0.5"/>
<text text-anchor="middle" x="1826.5" y="-7.5" font-family="Helvetica,sans-Serif" font-size="10.00">SDL2/SDL.h</text>
</a>
</g>
</g>
<!-- Node48&#45;&gt;Node49 -->
<g id="edge45" class="edge">
<title>Node48&#45;&gt;Node49</title>
<path fill="none" stroke="midnightblue" d="M1826.5,-56.08C1826.5,-49.01 1826.5,-38.86 1826.5,-29.99"/>
<polygon fill="midnightblue" stroke="midnightblue" points="1830,-29.75 1826.5,-19.75 1823,-29.75 1830,-29.75"/>
</g>
<!-- Node50&#45;&gt;Node46 -->
<g id="edge50" class="edge">
<title>Node50&#45;&gt;Node46</title>
<path fill="none" stroke="midnightblue" d="M1592.26,-112.44C1613.82,-103.56 1647.76,-89.56 1672.29,-79.45"/>
<polygon fill="midnightblue" stroke="midnightblue" points="1673.93,-82.56 1681.84,-75.52 1671.26,-76.09 1673.93,-82.56"/>
</g>
<!-- Node50&#45;&gt;Node48 -->
<g id="edge51" class="edge">
<title>Node50&#45;&gt;Node48</title>
<path fill="none" stroke="midnightblue" d="M1611.06,-112.62C1655.47,-103.22 1727.62,-87.94 1776.04,-77.68"/>
<polygon fill="midnightblue" stroke="midnightblue" points="1776.94,-81.07 1786,-75.58 1775.49,-74.22 1776.94,-81.07"/>
</g>
<!-- Node51 -->
<g id="node40" class="node">
<title>Node51</title>
<g id="a_node40"><a xlink:href="joyaxis_8h.html" target="_top" xlink:title=" ">
<polygon fill="white" stroke="red" points="1428,-56.5 1428,-75.5 1489,-75.5 1489,-56.5 1428,-56.5"/>
<text text-anchor="middle" x="1458.5" y="-63.5" font-family="Helvetica,sans-Serif" font-size="10.00">joyaxis.h</text>
</a>
</g>
</g>
<!-- Node50&#45;&gt;Node51 -->
<g id="edge47" class="edge">
<title>Node50&#45;&gt;Node51</title>
<path fill="none" stroke="midnightblue" d="M1553.59,-112.44C1535.25,-103.68 1506.49,-89.94 1485.41,-79.86"/>
<polygon fill="midnightblue" stroke="midnightblue" points="1486.85,-76.67 1476.32,-75.52 1483.83,-82.99 1486.85,-76.67"/>
</g>
<!-- Node54 -->
<g id="node41" class="node">
<title>Node54</title>
<g id="a_node41"><a xlink:href="setjoystickxml_8h.html" target="_top" xlink:title=" ">
<polygon fill="white" stroke="black" points="1507,-56.5 1507,-75.5 1626,-75.5 1626,-56.5 1507,-56.5"/>
<text text-anchor="middle" x="1566.5" y="-63.5" font-family="Helvetica,sans-Serif" font-size="10.00">xml/setjoystickxml.h</text>
</a>
</g>
</g>
<!-- Node50&#45;&gt;Node54 -->
<g id="edge52" class="edge">
<title>Node50&#45;&gt;Node54</title>
<path fill="none" stroke="midnightblue" d="M1570.67,-112.08C1570.02,-105.01 1569.08,-94.86 1568.26,-85.99"/>
<polygon fill="midnightblue" stroke="midnightblue" points="1571.72,-85.39 1567.31,-75.75 1564.75,-86.03 1571.72,-85.39"/>
</g>
<!-- Node51&#45;&gt;Node7 -->
<g id="edge48" class="edge">
<title>Node51&#45;&gt;Node7</title>
<path fill="none" stroke="midnightblue" d="M1427.93,-57.44C1425.09,-56.89 1422.25,-56.4 1419.5,-56 1274.47,-35.14 811.88,-16.78 687.53,-12.13"/>
<polygon fill="midnightblue" stroke="midnightblue" points="687.33,-8.62 677.21,-11.75 687.07,-15.62 687.33,-8.62"/>
</g>
<!-- Node51&#45;&gt;Node8 -->
<g id="edge49" class="edge">
<title>Node51&#45;&gt;Node8</title>
<path fill="none" stroke="midnightblue" d="M1427.9,-57.62C1425.07,-57.04 1422.24,-56.48 1419.5,-56 1301.35,-35.12 1159.94,-20.6 1093.51,-14.39"/>
<polygon fill="midnightblue" stroke="midnightblue" points="1093.78,-10.9 1083.5,-13.46 1093.14,-17.87 1093.78,-10.9"/>
</g>
<!-- Node54&#45;&gt;Node8 -->
<g id="edge53" class="edge">
<title>Node54&#45;&gt;Node8</title>
<path fill="none" stroke="midnightblue" d="M1506.81,-57C1504,-56.65 1501.22,-56.32 1498.5,-56 1348.9,-38.51 1170.41,-21.57 1093.66,-14.48"/>
<polygon fill="midnightblue" stroke="midnightblue" points="1093.8,-10.98 1083.52,-13.55 1093.16,-17.95 1093.8,-10.98"/>
</g>
<!-- Node56&#45;&gt;Node23 -->
<g id="edge58" class="edge">
<title>Node56&#45;&gt;Node23</title>
<path fill="none" stroke="midnightblue" d="M432.17,-225.03C359.5,-218.01 269.55,-206.06 236.5,-188 216.21,-176.91 199.7,-155.64 189.77,-140.45"/>
<polygon fill="midnightblue" stroke="midnightblue" points="192.72,-138.56 184.46,-131.92 186.78,-142.26 192.72,-138.56"/>
</g>
<!-- Node53 -->
<g id="node44" class="node">
<title>Node53</title>
<g id="a_node44"><a xlink:href="joygradientbutton_8h.html" target="_top" xlink:title=" ">
<polygon fill="white" stroke="black" points="246,-168.5 246,-187.5 435,-187.5 435,-168.5 246,-168.5"/>
<text text-anchor="middle" x="340.5" y="-175.5" font-family="Helvetica,sans-Serif" font-size="10.00">joybuttontypes/joygradientbutton.h</text>
</a>
</g>
</g>
<!-- Node56&#45;&gt;Node53 -->
<g id="edge56" class="edge">
<title>Node56&#45;&gt;Node53</title>
<path fill="none" stroke="midnightblue" d="M504.6,-224.44C471.23,-215.2 417.91,-200.44 381.15,-190.26"/>
<polygon fill="midnightblue" stroke="midnightblue" points="381.83,-186.81 371.25,-187.52 379.96,-193.56 381.83,-186.81"/>
</g>
<!-- Node53&#45;&gt;Node5 -->
<g id="edge57" class="edge">
<title>Node53&#45;&gt;Node5</title>
<path fill="none" stroke="midnightblue" d="M357.05,-168.32C373.49,-159.7 398.93,-146.36 417.97,-136.39"/>
<polygon fill="midnightblue" stroke="midnightblue" points="419.76,-139.4 426.99,-131.65 416.51,-133.2 419.76,-139.4"/>
</g>
<!-- Node58 -->
<g id="node46" class="node">
<title>Node58</title>
<g id="a_node46"><a xlink:title=" ">
<polygon fill="white" stroke="#bfbfbf" points="881.5,-168.5 881.5,-187.5 1023.5,-187.5 1023.5,-168.5 881.5,-168.5"/>
<text text-anchor="middle" x="952.5" y="-175.5" font-family="Helvetica,sans-Serif" font-size="10.00">ui_mousesettingsdialog.h</text>
</a>
</g>
</g>
<!-- Node57&#45;&gt;Node58 -->
<g id="edge61" class="edge">
<title>Node57&#45;&gt;Node58</title>
<path fill="none" stroke="midnightblue" d="M866.05,-224.32C882.49,-215.7 907.93,-202.36 926.97,-192.39"/>
<polygon fill="midnightblue" stroke="midnightblue" points="928.76,-195.4 935.99,-187.65 925.51,-189.2 928.76,-195.4"/>
</g>
<!-- Node59 -->
<g id="node47" class="node">
<title>Node59</title>
<g id="a_node47"><a xlink:href="mousesettingsdialog_8h.html" target="_top" xlink:title=" ">
<polygon fill="white" stroke="red" points="453.5,-168.5 453.5,-187.5 581.5,-187.5 581.5,-168.5 453.5,-168.5"/>
<text text-anchor="middle" x="517.5" y="-175.5" font-family="Helvetica,sans-Serif" font-size="10.00">mousesettingsdialog.h</text>
</a>
</g>
</g>
<!-- Node57&#45;&gt;Node59 -->
<g id="edge62" class="edge">
<title>Node57&#45;&gt;Node59</title>
<path fill="none" stroke="midnightblue" d="M796.89,-224.44C738.01,-214.87 642.65,-199.36 580.01,-189.17"/>
<polygon fill="midnightblue" stroke="midnightblue" points="580.29,-185.67 569.86,-187.52 579.17,-192.58 580.29,-185.67"/>
</g>
<!-- Node61 -->
<g id="node48" class="node">
<title>Node61</title>
<g id="a_node48"><a xlink:href="mousecontrolsticksettingsdialoghelper_8h.html" target="_top" xlink:title=" ">
<polygon fill="white" stroke="black" points="600,-168.5 600,-187.5 863,-187.5 863,-168.5 600,-168.5"/>
<text text-anchor="middle" x="731.5" y="-175.5" font-family="Helvetica,sans-Serif" font-size="10.00">uihelpers/mousecontrolsticksettingsdialoghelper.h</text>
</a>
</g>
</g>
<!-- Node57&#45;&gt;Node61 -->
<g id="edge64" class="edge">
<title>Node57&#45;&gt;Node61</title>
<path fill="none" stroke="midnightblue" d="M830.8,-224.44C811.56,-215.64 781.35,-201.81 759.3,-191.72"/>
<polygon fill="midnightblue" stroke="midnightblue" points="760.66,-188.5 750.11,-187.52 757.75,-194.86 760.66,-188.5"/>
</g>
<!-- Node59&#45;&gt;Node5 -->
<g id="edge63" class="edge">
<title>Node59&#45;&gt;Node5</title>
<path fill="none" stroke="midnightblue" d="M505.61,-168.32C494.35,-160.11 477.21,-147.6 463.79,-137.81"/>
<polygon fill="midnightblue" stroke="midnightblue" points="465.75,-134.9 455.61,-131.83 461.62,-140.56 465.75,-134.9"/>
</g>
<!-- Node61&#45;&gt;Node8 -->
<g id="edge65" class="edge">
<title>Node61&#45;&gt;Node8</title>
<path fill="none" stroke="midnightblue" d="M643.45,-168.5C595.25,-161.82 542.35,-150.48 527.5,-132 521.93,-125.07 521.45,-118.51 527.5,-112 601.82,-32.02 924.85,-133.77 1017.5,-76 1034.28,-65.54 1044.5,-44.74 1050.05,-29.48"/>
<polygon fill="midnightblue" stroke="midnightblue" points="1053.51,-30.16 1053.29,-19.57 1046.86,-27.98 1053.51,-30.16"/>
</g>
</g>
</svg>
        <g id="navigator" transform="translate(0 0)" fill="#404254">
                <rect fill="#f2f5e9" fill-opacity="0.5" stroke="#606060" stroke-width=".5" x="0" y="0" width="60" height="60"/>
                <use id="zoomplus" xlink:href="#zoomPlus" x="17" y="9" onmousedown="handleZoom(evt,'in')"/>
                <use id="zoomminus" xlink:href="#zoomMin" x="42" y="9" onmousedown="handleZoom(evt,'out')"/>
                <use id="reset" xlink:href="#resetDef" x="30" y="36" onmousedown="handleReset()"/>
                <g id="arrowUp" xlink:href="#dirArrow" transform="translate(30 24)" onmousedown="handlePan(0,-1)">
                  <use xlink:href="#rim" fill="#404040">
                        <set attributeName="fill" to="#808080" begin="arrowUp.mouseover" end="arrowUp.mouseout"/>
                  </use>
                  <path fill="none" stroke="white" stroke-width="1.5" d="M0,-3.0v7 M-2.5,-0.5L0,-3.0L2.5,-0.5"/>
                </g>
                <g id="arrowRight" xlink:href="#dirArrow" transform="rotate(90) translate(36 -43)" onmousedown="handlePan(1,0)">
                  <use xlink:href="#rim" fill="#404040">
                        <set attributeName="fill" to="#808080" begin="arrowRight.mouseover" end="arrowRight.mouseout"/>
                  </use>
                  <path fill="none" stroke="white" stroke-width="1.5" d="M0,-3.0v7 M-2.5,-0.5L0,-3.0L2.5,-0.5"/>
                </g>
                <g id="arrowDown" xlink:href="#dirArrow" transform="rotate(180) translate(-30 -48)" onmousedown="handlePan(0,1)">
                  <use xlink:href="#rim" fill="#404040">
                        <set attributeName="fill" to="#808080" begin="arrowDown.mouseover" end="arrowDown.mouseout"/>
                  </use>
                  <path fill="none" stroke="white" stroke-width="1.5" d="M0,-3.0v7 M-2.5,-0.5L0,-3.0L2.5,-0.5"/>
                </g>
                <g id="arrowLeft" xlink:href="#dirArrow" transform="rotate(270) translate(-36 17)" onmousedown="handlePan(-1,0)">
                  <use xlink:href="#rim" fill="#404040">
                        <set attributeName="fill" to="#808080" begin="arrowLeft.mouseover" end="arrowLeft.mouseout"/>
                  </use>
                  <path fill="none" stroke="white" stroke-width="1.5" d="M0,-3.0v7 M-2.5,-0.5L0,-3.0L2.5,-0.5"/>
                </g>
        </g>
        <svg viewBox="0 0 15 15" width="100%" height="30px" preserveAspectRatio="xMaxYMin meet">
         <g id="arrow_out" transform="scale(0.3 0.3)">
          <a xlink:href="joycontrolstickcontextmenu_8cpp__incl_org.svg" target="_base">
           <rect id="button" ry="5" rx="5" y="6" x="6" height="38" width="38"
                fill="#f2f5e9" fill-opacity="0.5" stroke="#606060" stroke-width="1.0"/>
           <path id="arrow"
             d="M 11.500037,31.436501 C 11.940474,20.09759 22.043105,11.32322 32.158766,21.979434 L 37.068811,17.246167 C 37.068811,17.246167 37.088388,32 37.088388,32 L 22.160133,31.978069 C 22.160133,31.978069 26.997745,27.140456 26.997745,27.140456 C 18.528582,18.264221 13.291696,25.230495 11.500037,31.436501 z"
             style="fill:#404040;"/>
          </a>
         </g>
        </svg>
</svg>
