<?xml version="1.0" encoding="UTF-8" standalone="no"?>
<!DOCTYPE svg PUBLIC "-//W3C//DTD SVG 1.1//EN"
 "http://www.w3.org/Graphics/SVG/1.1/DTD/svg11.dtd">
<!-- Generated by graphviz version 2.43.0 (0)
 -->
<!-- Title: /home/runner/work/doxygen/antimicrox/src/joycontrolstick.h Pages: 1 -->
<!--zoomable 262 -->
<svg id="main" version="1.1" xmlns="http://www.w3.org/2000/svg" xmlns:xlink="http://www.w3.org/1999/xlink" xml:space="preserve" onload="init(evt)">
<style type="text/css"><![CDATA[
.edge:hover path { stroke: red; }
.edge:hover polygon { stroke: red; fill: red; }
]]></style>
<script type="text/javascript"><![CDATA[
var edges = document.getElementsByTagName('g');
if (edges && edges.length) {
  for (var i=0;i<edges.length;i++) {
    if (edges[i].id.substr(0,4)=='edge') {
      edges[i].setAttribute('class','edge');
    }
  }
}
]]></script>
        <defs>
                <circle id="rim" cx="0" cy="0" r="7"/>
                <circle id="rim2" cx="0" cy="0" r="3.5"/>
                <g id="zoomPlus">
                        <use xlink:href="#rim" fill="#404040">
                                <set attributeName="fill" to="#808080" begin="zoomplus.mouseover" end="zoomplus.mouseout"/>
                        </use>
                        <path d="M-4,0h8M0,-4v8" fill="none" stroke="white" stroke-width="1.5" pointer-events="none"/>
                </g>
                <g id="zoomMin">
                        <use xlink:href="#rim" fill="#404040">
                                <set attributeName="fill" to="#808080" begin="zoomminus.mouseover" end="zoomminus.mouseout"/>
                        </use>
                        <path d="M-4,0h8" fill="none" stroke="white" stroke-width="1.5" pointer-events="none"/>
                </g>
                <g id="dirArrow">
                        <path fill="none" stroke="white" stroke-width="1.5" d="M0,-3.0v7 M-2.5,-0.5L0,-3.0L2.5,-0.5"/>
                </g>
               <g id="resetDef">
                       <use xlink:href="#rim2" fill="#404040">
                               <set attributeName="fill" to="#808080" begin="reset.mouseover" end="reset.mouseout"/>
                       </use>
               </g>
        </defs>

<script type="text/javascript">
var viewWidth = 4711;
var viewHeight = 262;
var sectionId = 'dynsection-1';
</script>
<script xlink:href="svgpan.js"/>
<svg id="graph" class="graph">
<g id="viewport">
<title>/home/runner/work/doxygen/antimicrox/src/joycontrolstick.h</title>
<polygon fill="white" stroke="transparent" points="-4,4 -4,-258 4706.5,-258 4706.5,4 -4,4"/>
<!-- Node1 -->
<g id="node1" class="node">
<title>Node1</title>
<g id="a_node1"><a xlink:title=" ">
<polygon fill="#bfbfbf" stroke="black" points="2310,-223.5 2310,-253.5 2483,-253.5 2483,-223.5 2310,-223.5"/>
<text text-anchor="start" x="2318" y="-241.5" font-family="Helvetica,sans-Serif" font-size="10.00">/home/runner/work/doxygen</text>
<text text-anchor="middle" x="2396.5" y="-230.5" font-family="Helvetica,sans-Serif" font-size="10.00">/antimicrox/src/joycontrolstick.h</text>
</a>
</g>
</g>
<!-- Node2 -->
<g id="node2" class="node">
<title>Node2</title>
<g id="a_node2"><a xlink:href="gamecontroller_8cpp.html" target="_top" xlink:title=" ">
<polygon fill="white" stroke="black" points="0,-145.5 0,-186.5 167,-186.5 167,-145.5 0,-145.5"/>
<text text-anchor="start" x="8" y="-174.5" font-family="Helvetica,sans-Serif" font-size="10.00">/home/runner/work/doxygen</text>
<text text-anchor="start" x="8" y="-163.5" font-family="Helvetica,sans-Serif" font-size="10.00">/antimicrox/src/gamecontroller</text>
<text text-anchor="middle" x="83.5" y="-152.5" font-family="Helvetica,sans-Serif" font-size="10.00">/gamecontroller.cpp</text>
</a>
</g>
</g>
<!-- Node1&#45;&gt;Node2 -->
<g id="edge1" class="edge">
<title>Node1&#45;&gt;Node2</title>
<path fill="none" stroke="midnightblue" d="M2299.6,-237.76C1928.26,-238.38 595.84,-237 175.5,-187 172.74,-186.67 169.94,-186.3 167.12,-185.89"/>
<polygon fill="midnightblue" stroke="midnightblue" points="2299.78,-241.26 2309.77,-237.74 2299.77,-234.26 2299.78,-241.26"/>
</g>
<!-- Node3 -->
<g id="node3" class="node">
<title>Node3</title>
<g id="a_node3"><a xlink:href="gamecontrollerset_8cpp.html" target="_top" xlink:title=" ">
<polygon fill="white" stroke="black" points="185,-145.5 185,-186.5 352,-186.5 352,-145.5 185,-145.5"/>
<text text-anchor="start" x="193" y="-174.5" font-family="Helvetica,sans-Serif" font-size="10.00">/home/runner/work/doxygen</text>
<text text-anchor="start" x="193" y="-163.5" font-family="Helvetica,sans-Serif" font-size="10.00">/antimicrox/src/gamecontroller</text>
<text text-anchor="middle" x="268.5" y="-152.5" font-family="Helvetica,sans-Serif" font-size="10.00">/gamecontrollerset.cpp</text>
</a>
</g>
</g>
<!-- Node1&#45;&gt;Node3 -->
<g id="edge2" class="edge">
<title>Node1&#45;&gt;Node3</title>
<path fill="none" stroke="midnightblue" d="M2299.81,-237.53C1948.88,-237.25 742.9,-232.89 360.5,-187 357.74,-186.67 354.94,-186.29 352.12,-185.88"/>
<polygon fill="midnightblue" stroke="midnightblue" points="2299.94,-241.03 2309.95,-237.53 2299.95,-234.03 2299.94,-241.03"/>
</g>
<!-- Node4 -->
<g id="node4" class="node">
<title>Node4</title>
<g id="a_node4"><a xlink:href="advancestickassignmentdialog_8cpp.html" target="_top" xlink:title=" ">
<polygon fill="white" stroke="black" points="370,-151 370,-181 651,-181 651,-151 370,-151"/>
<text text-anchor="start" x="378" y="-169" font-family="Helvetica,sans-Serif" font-size="10.00">/home/runner/work/doxygen</text>
<text text-anchor="middle" x="510.5" y="-158" font-family="Helvetica,sans-Serif" font-size="10.00">/antimicrox/src/gui/advancestickassignmentdialog.cpp</text>
</a>
</g>
</g>
<!-- Node1&#45;&gt;Node4 -->
<g id="edge3" class="edge">
<title>Node1&#45;&gt;Node4</title>
<path fill="none" stroke="midnightblue" d="M2299.31,-238.19C2035.37,-239.31 1283.3,-237.44 660.5,-187 642.3,-185.53 622.93,-183.38 604.36,-181.03"/>
<polygon fill="midnightblue" stroke="midnightblue" points="2299.64,-241.69 2309.62,-238.15 2299.61,-234.69 2299.64,-241.69"/>
</g>
<!-- Node5 -->
<g id="node5" class="node">
<title>Node5</title>
<g id="a_node5"><a xlink:href="axiseditdialog_8cpp.html" target="_top" xlink:title=" ">
<polygon fill="white" stroke="black" points="669.5,-151 669.5,-181 869.5,-181 869.5,-151 669.5,-151"/>
<text text-anchor="start" x="677.5" y="-169" font-family="Helvetica,sans-Serif" font-size="10.00">/home/runner/work/doxygen</text>
<text text-anchor="middle" x="769.5" y="-158" font-family="Helvetica,sans-Serif" font-size="10.00">/antimicrox/src/gui/axiseditdialog.cpp</text>
</a>
</g>
</g>
<!-- Node1&#45;&gt;Node5 -->
<g id="edge4" class="edge">
<title>Node1&#45;&gt;Node5</title>
<path fill="none" stroke="midnightblue" d="M2299.94,-236.16C2010.95,-231.86 1155.73,-216.88 878.5,-187 865.11,-185.56 850.89,-183.41 837.3,-181.05"/>
<polygon fill="midnightblue" stroke="midnightblue" points="2299.93,-239.66 2309.98,-236.31 2300.03,-232.66 2299.93,-239.66"/>
</g>
<!-- Node6 -->
<g id="node6" class="node">
<title>Node6</title>
<g id="a_node6"><a xlink:href="calibration_8cpp.html" target="_top" xlink:title=" ">
<polygon fill="white" stroke="black" points="887.5,-151 887.5,-181 1069.5,-181 1069.5,-151 887.5,-151"/>
<text text-anchor="start" x="895.5" y="-169" font-family="Helvetica,sans-Serif" font-size="10.00">/home/runner/work/doxygen</text>
<text text-anchor="middle" x="978.5" y="-158" font-family="Helvetica,sans-Serif" font-size="10.00">/antimicrox/src/gui/calibration.cpp</text>
</a>
</g>
</g>
<!-- Node1&#45;&gt;Node6 -->
<g id="edge5" class="edge">
<title>Node1&#45;&gt;Node6</title>
<path fill="none" stroke="midnightblue" d="M2299.62,-235.66C2037.63,-230.37 1319.05,-213.81 1083.5,-187 1070.59,-185.53 1056.89,-183.37 1043.8,-181.01"/>
<polygon fill="midnightblue" stroke="midnightblue" points="2299.8,-239.16 2309.87,-235.86 2299.94,-232.16 2299.8,-239.16"/>
</g>
<!-- Node7 -->
<g id="node7" class="node">
<title>Node7</title>
<g id="a_node7"><a xlink:href="joycontrolstickeditdialog_8cpp.html" target="_top" xlink:title=" ">
<polygon fill="white" stroke="black" points="3080,-0.5 3080,-30.5 3331,-30.5 3331,-0.5 3080,-0.5"/>
<text text-anchor="start" x="3088" y="-18.5" font-family="Helvetica,sans-Serif" font-size="10.00">/home/runner/work/doxygen</text>
<text text-anchor="middle" x="3205.5" y="-7.5" font-family="Helvetica,sans-Serif" font-size="10.00">/antimicrox/src/gui/joycontrolstickeditdialog.cpp</text>
</a>
</g>
</g>
<!-- Node1&#45;&gt;Node7 -->
<g id="edge6" class="edge">
<title>Node1&#45;&gt;Node7</title>
<path fill="none" stroke="midnightblue" d="M2493.18,-237.21C2643.82,-235.5 2926.78,-226.88 3018.5,-187 3060.3,-168.82 3157.2,-68.1 3192.41,-30.58"/>
<polygon fill="midnightblue" stroke="midnightblue" points="2492.98,-233.71 2483.01,-237.32 2493.05,-240.71 2492.98,-233.71"/>
</g>
<!-- Node8 -->
<g id="node8" class="node">
<title>Node8</title>
<g id="a_node8"><a xlink:href="joytabwidget_8cpp.html" target="_top" xlink:title=" ">
<polygon fill="white" stroke="black" points="1125.5,-151 1125.5,-181 1319.5,-181 1319.5,-151 1125.5,-151"/>
<text text-anchor="start" x="1133.5" y="-169" font-family="Helvetica,sans-Serif" font-size="10.00">/home/runner/work/doxygen</text>
<text text-anchor="middle" x="1222.5" y="-158" font-family="Helvetica,sans-Serif" font-size="10.00">/antimicrox/src/gui/joytabwidget.cpp</text>
</a>
</g>
</g>
<!-- Node1&#45;&gt;Node8 -->
<g id="edge7" class="edge">
<title>Node1&#45;&gt;Node8</title>
<path fill="none" stroke="midnightblue" d="M2299.87,-237.43C2112.06,-236.29 1684.9,-228.84 1328.5,-187 1315.67,-185.49 1302.05,-183.35 1289.01,-181.01"/>
<polygon fill="midnightblue" stroke="midnightblue" points="2299.97,-240.93 2309.99,-237.48 2300.01,-233.93 2299.97,-240.93"/>
</g>
<!-- Node9 -->
<g id="node9" class="node">
<title>Node9</title>
<g id="a_node9"><a xlink:href="quicksetdialog_8cpp.html" target="_top" xlink:title=" ">
<polygon fill="white" stroke="black" points="1337.5,-151 1337.5,-181 1539.5,-181 1539.5,-151 1337.5,-151"/>
<text text-anchor="start" x="1345.5" y="-169" font-family="Helvetica,sans-Serif" font-size="10.00">/home/runner/work/doxygen</text>
<text text-anchor="middle" x="1438.5" y="-158" font-family="Helvetica,sans-Serif" font-size="10.00">/antimicrox/src/gui/quicksetdialog.cpp</text>
</a>
</g>
</g>
<!-- Node1&#45;&gt;Node9 -->
<g id="edge8" class="edge">
<title>Node1&#45;&gt;Node9</title>
<path fill="none" stroke="midnightblue" d="M2299.67,-235.52C2141.83,-231.45 1819.48,-219.58 1548.5,-187 1535.49,-185.44 1521.7,-183.31 1508.43,-181.02"/>
<polygon fill="midnightblue" stroke="midnightblue" points="2299.74,-239.02 2309.82,-235.78 2299.91,-232.03 2299.74,-239.02"/>
</g>
<!-- Node10 -->
<g id="node10" class="node">
<title>Node10</title>
<g id="a_node10"><a xlink:href="inputdevice_8cpp.html" target="_top" xlink:title=" ">
<polygon fill="white" stroke="black" points="1557.5,-151 1557.5,-181 1727.5,-181 1727.5,-151 1557.5,-151"/>
<text text-anchor="start" x="1565.5" y="-169" font-family="Helvetica,sans-Serif" font-size="10.00">/home/runner/work/doxygen</text>
<text text-anchor="middle" x="1642.5" y="-158" font-family="Helvetica,sans-Serif" font-size="10.00">/antimicrox/src/inputdevice.cpp</text>
</a>
</g>
</g>
<!-- Node1&#45;&gt;Node10 -->
<g id="edge9" class="edge">
<title>Node1&#45;&gt;Node10</title>
<path fill="none" stroke="midnightblue" d="M2299.63,-234.13C2170.58,-228.72 1935.43,-215.64 1736.5,-187 1725.44,-185.41 1713.72,-183.28 1702.46,-181"/>
<polygon fill="midnightblue" stroke="midnightblue" points="2299.74,-237.64 2309.87,-234.55 2300.03,-230.64 2299.74,-237.64"/>
</g>
<!-- Node11 -->
<g id="node11" class="node">
<title>Node11</title>
<g id="a_node11"><a xlink:href="joyaxis_8cpp.html" target="_top" xlink:title=" ">
<polygon fill="white" stroke="black" points="1745.5,-151 1745.5,-181 1899.5,-181 1899.5,-151 1745.5,-151"/>
<text text-anchor="start" x="1753.5" y="-169" font-family="Helvetica,sans-Serif" font-size="10.00">/home/runner/work/doxygen</text>
<text text-anchor="middle" x="1822.5" y="-158" font-family="Helvetica,sans-Serif" font-size="10.00">/antimicrox/src/joyaxis.cpp</text>
</a>
</g>
</g>
<!-- Node1&#45;&gt;Node11 -->
<g id="edge10" class="edge">
<title>Node1&#45;&gt;Node11</title>
<path fill="none" stroke="midnightblue" d="M2299.4,-231.06C2200.57,-223.65 2043.18,-209.54 1908.5,-187 1898.67,-185.36 1888.29,-183.26 1878.27,-181.04"/>
<polygon fill="midnightblue" stroke="midnightblue" points="2299.44,-234.57 2309.67,-231.82 2299.96,-227.59 2299.44,-234.57"/>
</g>
<!-- Node12 -->
<g id="node12" class="node">
<title>Node12</title>
<g id="a_node12"><a xlink:href="joycontrolstickbutton_8cpp.html" target="_top" xlink:title=" ">
<polygon fill="white" stroke="black" points="1917.5,-145.5 1917.5,-186.5 2083.5,-186.5 2083.5,-145.5 1917.5,-145.5"/>
<text text-anchor="start" x="1925.5" y="-174.5" font-family="Helvetica,sans-Serif" font-size="10.00">/home/runner/work/doxygen</text>
<text text-anchor="start" x="1925.5" y="-163.5" font-family="Helvetica,sans-Serif" font-size="10.00">/antimicrox/src/joybuttontypes</text>
<text text-anchor="middle" x="2000.5" y="-152.5" font-family="Helvetica,sans-Serif" font-size="10.00">/joycontrolstickbutton.cpp</text>
</a>
</g>
</g>
<!-- Node1&#45;&gt;Node12 -->
<g id="edge11" class="edge">
<title>Node1&#45;&gt;Node12</title>
<path fill="none" stroke="midnightblue" d="M2299.62,-222.66C2239.8,-213.18 2161.54,-200.23 2092.5,-187 2089.61,-186.45 2086.67,-185.87 2083.71,-185.28"/>
<polygon fill="midnightblue" stroke="midnightblue" points="2299.39,-226.17 2309.81,-224.27 2300.48,-219.25 2299.39,-226.17"/>
</g>
<!-- Node13 -->
<g id="node13" class="node">
<title>Node13</title>
<g id="a_node13"><a xlink:href="joycontrolstickmodifierbutton_8cpp.html" target="_top" xlink:title=" ">
<polygon fill="white" stroke="black" points="2101.5,-145.5 2101.5,-186.5 2285.5,-186.5 2285.5,-145.5 2101.5,-145.5"/>
<text text-anchor="start" x="2109.5" y="-174.5" font-family="Helvetica,sans-Serif" font-size="10.00">/home/runner/work/doxygen</text>
<text text-anchor="start" x="2109.5" y="-163.5" font-family="Helvetica,sans-Serif" font-size="10.00">/antimicrox/src/joybuttontypes</text>
<text text-anchor="middle" x="2193.5" y="-152.5" font-family="Helvetica,sans-Serif" font-size="10.00">/joycontrolstickmodifierbutton.cpp</text>
</a>
</g>
</g>
<!-- Node1&#45;&gt;Node13 -->
<g id="edge12" class="edge">
<title>Node1&#45;&gt;Node13</title>
<path fill="none" stroke="midnightblue" d="M2346.3,-220.07C2317.03,-209.9 2280.04,-197.05 2249.78,-186.55"/>
<polygon fill="midnightblue" stroke="midnightblue" points="2345.31,-223.43 2355.91,-223.4 2347.61,-216.82 2345.31,-223.43"/>
</g>
<!-- Node14 -->
<g id="node14" class="node">
<title>Node14</title>
<g id="a_node14"><a xlink:href="joycontrolstick_8cpp.html" target="_top" xlink:title=" ">
<polygon fill="white" stroke="black" points="2304,-151 2304,-181 2489,-181 2489,-151 2304,-151"/>
<text text-anchor="start" x="2312" y="-169" font-family="Helvetica,sans-Serif" font-size="10.00">/home/runner/work/doxygen</text>
<text text-anchor="middle" x="2396.5" y="-158" font-family="Helvetica,sans-Serif" font-size="10.00">/antimicrox/src/joycontrolstick.cpp</text>
</a>
</g>
</g>
<!-- Node1&#45;&gt;Node14 -->
<g id="edge13" class="edge">
<title>Node1&#45;&gt;Node14</title>
<path fill="none" stroke="midnightblue" d="M2396.5,-213.23C2396.5,-202.57 2396.5,-190.41 2396.5,-181.25"/>
<polygon fill="midnightblue" stroke="midnightblue" points="2393,-213.23 2396.5,-223.23 2400,-213.23 2393,-213.23"/>
</g>
<!-- Node15 -->
<g id="node15" class="node">
<title>Node15</title>
<g id="a_node15"><a xlink:href="joycontrolstickbuttonpushbutton_8cpp.html" target="_top" xlink:title=" ">
<polygon fill="white" stroke="black" points="2507,-151 2507,-181 2778,-181 2778,-151 2507,-151"/>
<text text-anchor="start" x="2515" y="-169" font-family="Helvetica,sans-Serif" font-size="10.00">/home/runner/work/doxygen</text>
<text text-anchor="middle" x="2642.5" y="-158" font-family="Helvetica,sans-Serif" font-size="10.00">/antimicrox/src/joycontrolstickbuttonpushbutton.cpp</text>
</a>
</g>
</g>
<!-- Node1&#45;&gt;Node15 -->
<g id="edge14" class="edge">
<title>Node1&#45;&gt;Node15</title>
<path fill="none" stroke="midnightblue" d="M2455.24,-220.66C2497.37,-208.59 2553.49,-192.51 2593.28,-181.11"/>
<polygon fill="midnightblue" stroke="midnightblue" points="2454.04,-217.37 2445.4,-223.49 2455.97,-224.1 2454.04,-217.37"/>
</g>
<!-- Node16 -->
<g id="node16" class="node">
<title>Node16</title>
<g id="a_node16"><a xlink:href="joycontrolstickcontextmenuhelper_8h.html" target="_top" xlink:title=" ">
<polygon fill="white" stroke="black" points="2796,-145.5 2796,-186.5 2991,-186.5 2991,-145.5 2796,-145.5"/>
<text text-anchor="start" x="2804" y="-174.5" font-family="Helvetica,sans-Serif" font-size="10.00">/home/runner/work/doxygen</text>
<text text-anchor="start" x="2804" y="-163.5" font-family="Helvetica,sans-Serif" font-size="10.00">/antimicrox/src/uihelpers</text>
<text text-anchor="middle" x="2893.5" y="-152.5" font-family="Helvetica,sans-Serif" font-size="10.00">/joycontrolstickcontextmenuhelper.h</text>
</a>
</g>
</g>
<!-- Node1&#45;&gt;Node16 -->
<g id="edge15" class="edge">
<title>Node1&#45;&gt;Node16</title>
<path fill="none" stroke="midnightblue" d="M2493.26,-226.59C2572.52,-217.27 2687.51,-202.88 2787.5,-187 2790.27,-186.56 2793.09,-186.1 2795.93,-185.63"/>
<polygon fill="midnightblue" stroke="midnightblue" points="2492.81,-223.12 2483.29,-227.75 2493.63,-230.07 2492.81,-223.12"/>
</g>
<!-- Node18 -->
<g id="node18" class="node">
<title>Node18</title>
<g id="a_node18"><a xlink:href="joycontrolstickcontextmenu_8cpp.html" target="_top" xlink:title=" ">
<polygon fill="white" stroke="black" points="1766,-0.5 1766,-30.5 2015,-30.5 2015,-0.5 1766,-0.5"/>
<text text-anchor="start" x="1774" y="-18.5" font-family="Helvetica,sans-Serif" font-size="10.00">/home/runner/work/doxygen</text>
<text text-anchor="middle" x="1890.5" y="-7.5" font-family="Helvetica,sans-Serif" font-size="10.00">/antimicrox/src/joycontrolstickcontextmenu.cpp</text>
</a>
</g>
</g>
<!-- Node1&#45;&gt;Node18 -->
<g id="edge20" class="edge">
<title>Node1&#45;&gt;Node18</title>
<path fill="none" stroke="midnightblue" d="M2299.62,-237.3C2008.24,-236.24 1157.34,-229.48 1116.5,-187 1023.29,-90.04 1523.84,-41.74 1765.63,-24.32"/>
<polygon fill="midnightblue" stroke="midnightblue" points="2299.74,-240.8 2309.75,-237.34 2299.76,-233.8 2299.74,-240.8"/>
</g>
<!-- Node19 -->
<g id="node19" class="node">
<title>Node19</title>
<g id="a_node19"><a xlink:href="joycontrolstickpushbutton_8cpp.html" target="_top" xlink:title=" ">
<polygon fill="white" stroke="black" points="2750,-0.5 2750,-30.5 2989,-30.5 2989,-0.5 2750,-0.5"/>
<text text-anchor="start" x="2758" y="-18.5" font-family="Helvetica,sans-Serif" font-size="10.00">/home/runner/work/doxygen</text>
<text text-anchor="middle" x="2869.5" y="-7.5" font-family="Helvetica,sans-Serif" font-size="10.00">/antimicrox/src/joycontrolstickpushbutton.cpp</text>
</a>
</g>
</g>
<!-- Node1&#45;&gt;Node19 -->
<g id="edge21" class="edge">
<title>Node1&#45;&gt;Node19</title>
<path fill="none" stroke="midnightblue" d="M2493.68,-236.42C2655.77,-233.61 2966.95,-223.47 3000.5,-187 3010.72,-175.89 3016.91,-92.1 2999.5,-67 2987.35,-49.49 2968.2,-38.06 2948.28,-30.58"/>
<polygon fill="midnightblue" stroke="midnightblue" points="2493.16,-232.93 2483.22,-236.6 2493.28,-239.93 2493.16,-232.93"/>
</g>
<!-- Node21 -->
<g id="node21" class="node">
<title>Node21</title>
<g id="a_node21"><a xlink:href="joycontrolstickstatusbox_8cpp.html" target="_top" xlink:title=" ">
<polygon fill="white" stroke="black" points="3085,-151 3085,-181 3318,-181 3318,-151 3085,-151"/>
<text text-anchor="start" x="3093" y="-169" font-family="Helvetica,sans-Serif" font-size="10.00">/home/runner/work/doxygen</text>
<text text-anchor="middle" x="3201.5" y="-158" font-family="Helvetica,sans-Serif" font-size="10.00">/antimicrox/src/joycontrolstickstatusbox.cpp</text>
</a>
</g>
</g>
<!-- Node1&#45;&gt;Node21 -->
<g id="edge22" class="edge">
<title>Node1&#45;&gt;Node21</title>
<path fill="none" stroke="midnightblue" d="M2493.16,-232.59C2624.24,-225.41 2865.54,-210.29 3070.5,-187 3085.24,-185.32 3100.87,-183.22 3116.01,-181.02"/>
<polygon fill="midnightblue" stroke="midnightblue" points="2492.94,-229.1 2483.15,-233.14 2493.32,-236.09 2492.94,-229.1"/>
</g>
<!-- Node22 -->
<g id="node22" class="node">
<title>Node22</title>
<g id="a_node22"><a xlink:href="mousecontrolsticksettingsdialog_8cpp.html" target="_top" xlink:title=" ">
<polygon fill="white" stroke="black" points="3336,-145.5 3336,-186.5 3535,-186.5 3535,-145.5 3336,-145.5"/>
<text text-anchor="start" x="3344" y="-174.5" font-family="Helvetica,sans-Serif" font-size="10.00">/home/runner/work/doxygen</text>
<text text-anchor="start" x="3344" y="-163.5" font-family="Helvetica,sans-Serif" font-size="10.00">/antimicrox/src/mousedialog</text>
<text text-anchor="middle" x="3435.5" y="-152.5" font-family="Helvetica,sans-Serif" font-size="10.00">/mousecontrolsticksettingsdialog.cpp</text>
</a>
</g>
</g>
<!-- Node1&#45;&gt;Node22 -->
<g id="edge23" class="edge">
<title>Node1&#45;&gt;Node22</title>
<path fill="none" stroke="midnightblue" d="M2493.29,-236.35C2662.87,-233.43 3024.48,-223.12 3327.5,-187 3330.25,-186.67 3333.03,-186.32 3335.83,-185.94"/>
<polygon fill="midnightblue" stroke="midnightblue" points="2493.08,-232.86 2483.14,-236.52 2493.2,-239.85 2493.08,-232.86"/>
</g>
<!-- Node23 -->
<g id="node23" class="node">
<title>Node23</title>
<g id="a_node23"><a xlink:href="mousecontrolsticksettingsdialoghelper_8cpp.html" target="_top" xlink:title=" ">
<polygon fill="white" stroke="black" points="3553,-145.5 3553,-186.5 3830,-186.5 3830,-145.5 3553,-145.5"/>
<text text-anchor="start" x="3561" y="-174.5" font-family="Helvetica,sans-Serif" font-size="10.00">/home/runner/work/doxygen</text>
<text text-anchor="start" x="3561" y="-163.5" font-family="Helvetica,sans-Serif" font-size="10.00">/antimicrox/src/mousedialog</text>
<text text-anchor="middle" x="3691.5" y="-152.5" font-family="Helvetica,sans-Serif" font-size="10.00">/uihelpers/mousecontrolsticksettingsdialoghelper.cpp</text>
</a>
</g>
</g>
<!-- Node1&#45;&gt;Node23 -->
<g id="edge24" class="edge">
<title>Node1&#45;&gt;Node23</title>
<path fill="none" stroke="midnightblue" d="M2493.16,-236.22C2690.92,-232.96 3155.85,-221.91 3544.5,-187 3547.19,-186.76 3549.91,-186.5 3552.65,-186.23"/>
<polygon fill="midnightblue" stroke="midnightblue" points="2493.03,-232.73 2483.09,-236.39 2493.14,-239.72 2493.03,-232.73"/>
</g>
<!-- Node24 -->
<g id="node24" class="node">
<title>Node24</title>
<g id="a_node24"><a xlink:href="setjoystick_8cpp.html" target="_top" xlink:title=" ">
<polygon fill="white" stroke="black" points="3848.5,-151 3848.5,-181 4014.5,-181 4014.5,-151 3848.5,-151"/>
<text text-anchor="start" x="3856.5" y="-169" font-family="Helvetica,sans-Serif" font-size="10.00">/home/runner/work/doxygen</text>
<text text-anchor="middle" x="3931.5" y="-158" font-family="Helvetica,sans-Serif" font-size="10.00">/antimicrox/src/setjoystick.cpp</text>
</a>
</g>
</g>
<!-- Node1&#45;&gt;Node24 -->
<g id="edge25" class="edge">
<title>Node1&#45;&gt;Node24</title>
<path fill="none" stroke="midnightblue" d="M2493.13,-236.38C2772.51,-232.76 3577.99,-219.73 3839.5,-187 3850.85,-185.58 3862.88,-183.44 3874.35,-181.08"/>
<polygon fill="midnightblue" stroke="midnightblue" points="2492.97,-232.88 2483.01,-236.5 2493.06,-239.88 2492.97,-232.88"/>
</g>
<!-- Node25 -->
<g id="node25" class="node">
<title>Node25</title>
<g id="a_node25"><a xlink:href="stickpushbuttongroup_8cpp.html" target="_top" xlink:title=" ">
<polygon fill="white" stroke="black" points="3953.5,-0.5 3953.5,-30.5 4171.5,-30.5 4171.5,-0.5 3953.5,-0.5"/>
<text text-anchor="start" x="3961.5" y="-18.5" font-family="Helvetica,sans-Serif" font-size="10.00">/home/runner/work/doxygen</text>
<text text-anchor="middle" x="4062.5" y="-7.5" font-family="Helvetica,sans-Serif" font-size="10.00">/antimicrox/src/stickpushbuttongroup.cpp</text>
</a>
</g>
</g>
<!-- Node1&#45;&gt;Node25 -->
<g id="edge26" class="edge">
<title>Node1&#45;&gt;Node25</title>
<path fill="none" stroke="midnightblue" d="M2493.43,-236.63C2866.61,-233.07 4191.13,-218.22 4221.5,-187 4258.69,-148.77 4252.99,-110.04 4221.5,-67 4208.84,-49.7 4190.22,-38.19 4170.14,-30.55"/>
<polygon fill="midnightblue" stroke="midnightblue" points="2493.17,-233.13 2483.2,-236.73 2493.24,-240.13 2493.17,-233.13"/>
</g>
<!-- Node26 -->
<g id="node26" class="node">
<title>Node26</title>
<g id="a_node26"><a xlink:href="joycontrolstickeditdialoghelper_8h.html" target="_top" xlink:title=" ">
<polygon fill="white" stroke="black" points="4033,-145.5 4033,-186.5 4212,-186.5 4212,-145.5 4033,-145.5"/>
<text text-anchor="start" x="4041" y="-174.5" font-family="Helvetica,sans-Serif" font-size="10.00">/home/runner/work/doxygen</text>
<text text-anchor="start" x="4041" y="-163.5" font-family="Helvetica,sans-Serif" font-size="10.00">/antimicrox/src/uihelpers</text>
<text text-anchor="middle" x="4122.5" y="-152.5" font-family="Helvetica,sans-Serif" font-size="10.00">/joycontrolstickeditdialoghelper.h</text>
</a>
</g>
</g>
<!-- Node1&#45;&gt;Node26 -->
<g id="edge27" class="edge">
<title>Node1&#45;&gt;Node26</title>
<path fill="none" stroke="midnightblue" d="M2493.14,-236.64C2796.03,-233.59 3724.41,-221.6 4023.5,-187 4026.55,-186.65 4029.64,-186.25 4032.76,-185.81"/>
<polygon fill="midnightblue" stroke="midnightblue" points="2493.03,-233.14 2483.07,-236.74 2493.1,-240.14 2493.03,-233.14"/>
</g>
<!-- Node29 -->
<g id="node29" class="node">
<title>Node29</title>
<g id="a_node29"><a xlink:href="inputdevicexml_8cpp.html" target="_top" xlink:title=" ">
<polygon fill="white" stroke="black" points="4268.5,-151 4268.5,-181 4478.5,-181 4478.5,-151 4268.5,-151"/>
<text text-anchor="start" x="4276.5" y="-169" font-family="Helvetica,sans-Serif" font-size="10.00">/home/runner/work/doxygen</text>
<text text-anchor="middle" x="4373.5" y="-158" font-family="Helvetica,sans-Serif" font-size="10.00">/antimicrox/src/xml/inputdevicexml.cpp</text>
</a>
</g>
</g>
<!-- Node1&#45;&gt;Node29 -->
<g id="edge32" class="edge">
<title>Node1&#45;&gt;Node29</title>
<path fill="none" stroke="midnightblue" d="M2493.23,-236.65C2823.87,-233.48 3907.71,-220.69 4254.5,-187 4269.2,-185.57 4284.83,-183.41 4299.76,-181.04"/>
<polygon fill="midnightblue" stroke="midnightblue" points="2493.17,-233.15 2483.2,-236.75 2493.23,-240.15 2493.17,-233.15"/>
</g>
<!-- Node30 -->
<g id="node30" class="node">
<title>Node30</title>
<g id="a_node30"><a xlink:href="setjoystickxml_8cpp.html" target="_top" xlink:title=" ">
<polygon fill="white" stroke="black" points="4496.5,-151 4496.5,-181 4702.5,-181 4702.5,-151 4496.5,-151"/>
<text text-anchor="start" x="4504.5" y="-169" font-family="Helvetica,sans-Serif" font-size="10.00">/home/runner/work/doxygen</text>
<text text-anchor="middle" x="4599.5" y="-158" font-family="Helvetica,sans-Serif" font-size="10.00">/antimicrox/src/xml/setjoystickxml.cpp</text>
</a>
</g>
</g>
<!-- Node1&#45;&gt;Node30 -->
<g id="edge33" class="edge">
<title>Node1&#45;&gt;Node30</title>
<path fill="none" stroke="midnightblue" d="M2493.34,-237.12C2850.43,-235.43 4093.07,-226.74 4487.5,-187 4501.45,-185.59 4516.28,-183.43 4530.43,-181.04"/>
<polygon fill="midnightblue" stroke="midnightblue" points="2493.27,-233.62 2483.29,-237.17 2493.31,-240.62 2493.27,-233.62"/>
</g>
<!-- Node17 -->
<g id="node17" class="node">
<title>Node17</title>
<g id="a_node17"><a xlink:href="joycontrolstickcontextmenu_8h.html" target="_top" xlink:title=" ">
<polygon fill="white" stroke="black" points="2528.5,-73 2528.5,-103 2766.5,-103 2766.5,-73 2528.5,-73"/>
<text text-anchor="start" x="2536.5" y="-91" font-family="Helvetica,sans-Serif" font-size="10.00">/home/runner/work/doxygen</text>
<text text-anchor="middle" x="2647.5" y="-80" font-family="Helvetica,sans-Serif" font-size="10.00">/antimicrox/src/joycontrolstickcontextmenu.h</text>
</a>
</g>
</g>
<!-- Node16&#45;&gt;Node17 -->
<g id="edge16" class="edge">
<title>Node16&#45;&gt;Node17</title>
<path fill="none" stroke="midnightblue" d="M2820.41,-142.42C2779.14,-129.67 2728.84,-114.13 2693.16,-103.11"/>
<polygon fill="midnightblue" stroke="midnightblue" points="2819.56,-145.82 2830.15,-145.43 2821.63,-139.13 2819.56,-145.82"/>
</g>
<!-- Node20 -->
<g id="node20" class="node">
<title>Node20</title>
<g id="a_node20"><a xlink:href="joycontrolstickcontextmenuhelper_8cpp.html" target="_top" xlink:title=" ">
<polygon fill="white" stroke="black" points="2784.5,-67.5 2784.5,-108.5 2990.5,-108.5 2990.5,-67.5 2784.5,-67.5"/>
<text text-anchor="start" x="2792.5" y="-96.5" font-family="Helvetica,sans-Serif" font-size="10.00">/home/runner/work/doxygen</text>
<text text-anchor="start" x="2792.5" y="-85.5" font-family="Helvetica,sans-Serif" font-size="10.00">/antimicrox/src/uihelpers</text>
<text text-anchor="middle" x="2887.5" y="-74.5" font-family="Helvetica,sans-Serif" font-size="10.00">/joycontrolstickcontextmenuhelper.cpp</text>
</a>
</g>
</g>
<!-- Node16&#45;&gt;Node20 -->
<g id="edge19" class="edge">
<title>Node16&#45;&gt;Node20</title>
<path fill="none" stroke="midnightblue" d="M2891.15,-135.3C2890.44,-126.3 2889.68,-116.65 2889.04,-108.51"/>
<polygon fill="midnightblue" stroke="midnightblue" points="2887.68,-135.73 2891.95,-145.43 2894.66,-135.18 2887.68,-135.73"/>
</g>
<!-- Node17&#45;&gt;Node18 -->
<g id="edge17" class="edge">
<title>Node17&#45;&gt;Node18</title>
<path fill="none" stroke="midnightblue" d="M2518.4,-74.98C2377.71,-61.87 2154.16,-41.05 2015.21,-28.11"/>
<polygon fill="midnightblue" stroke="midnightblue" points="2518.1,-78.46 2528.39,-75.91 2518.75,-71.49 2518.1,-78.46"/>
</g>
<!-- Node17&#45;&gt;Node19 -->
<g id="edge18" class="edge">
<title>Node17&#45;&gt;Node19</title>
<path fill="none" stroke="midnightblue" d="M2701.48,-69.86C2739.39,-57.82 2789.48,-41.91 2825.08,-30.61"/>
<polygon fill="midnightblue" stroke="midnightblue" points="2700.1,-66.62 2691.63,-72.99 2702.22,-73.3 2700.1,-66.62"/>
</g>
<!-- Node27 -->
<g id="node27" class="node">
<title>Node27</title>
<g id="a_node27"><a xlink:href="joycontrolstickeditdialog_8h.html" target="_top" xlink:title=" ">
<polygon fill="white" stroke="black" points="3765,-73 3765,-103 4004,-103 4004,-73 3765,-73"/>
<text text-anchor="start" x="3773" y="-91" font-family="Helvetica,sans-Serif" font-size="10.00">/home/runner/work/doxygen</text>
<text text-anchor="middle" x="3884.5" y="-80" font-family="Helvetica,sans-Serif" font-size="10.00">/antimicrox/src/gui/joycontrolstickeditdialog.h</text>
</a>
</g>
</g>
<!-- Node26&#45;&gt;Node27 -->
<g id="edge28" class="edge">
<title>Node26&#45;&gt;Node27</title>
<path fill="none" stroke="midnightblue" d="M4051.53,-142.34C4011.65,-129.6 3963.13,-114.11 3928.68,-103.11"/>
<polygon fill="midnightblue" stroke="midnightblue" points="4050.62,-145.72 4061.21,-145.43 4052.75,-139.05 4050.62,-145.72"/>
</g>
<!-- Node28 -->
<g id="node28" class="node">
<title>Node28</title>
<g id="a_node28"><a xlink:href="joycontrolstickeditdialoghelper_8cpp.html" target="_top" xlink:title=" ">
<polygon fill="white" stroke="black" points="4022.5,-67.5 4022.5,-108.5 4212.5,-108.5 4212.5,-67.5 4022.5,-67.5"/>
<text text-anchor="start" x="4030.5" y="-96.5" font-family="Helvetica,sans-Serif" font-size="10.00">/home/runner/work/doxygen</text>
<text text-anchor="start" x="4030.5" y="-85.5" font-family="Helvetica,sans-Serif" font-size="10.00">/antimicrox/src/uihelpers</text>
<text text-anchor="middle" x="4117.5" y="-74.5" font-family="Helvetica,sans-Serif" font-size="10.00">/joycontrolstickeditdialoghelper.cpp</text>
</a>
</g>
</g>
<!-- Node26&#45;&gt;Node28 -->
<g id="edge31" class="edge">
<title>Node26&#45;&gt;Node28</title>
<path fill="none" stroke="midnightblue" d="M4120.55,-135.3C4119.95,-126.3 4119.32,-116.65 4118.78,-108.51"/>
<polygon fill="midnightblue" stroke="midnightblue" points="4117.06,-135.68 4121.21,-145.43 4124.05,-135.22 4117.06,-135.68"/>
</g>
<!-- Node27&#45;&gt;Node7 -->
<g id="edge29" class="edge">
<title>Node27&#45;&gt;Node7</title>
<path fill="none" stroke="midnightblue" d="M3754.53,-73.51C3632.61,-60.85 3451.49,-42.04 3331.03,-29.53"/>
<polygon fill="midnightblue" stroke="midnightblue" points="3754.36,-77.01 3764.67,-74.56 3755.09,-70.04 3754.36,-77.01"/>
</g>
<!-- Node27&#45;&gt;Node25 -->
<g id="edge30" class="edge">
<title>Node27&#45;&gt;Node25</title>
<path fill="none" stroke="midnightblue" d="M3929.56,-69.15C3959.76,-57.19 3998.97,-41.66 4026.97,-30.57"/>
<polygon fill="midnightblue" stroke="midnightblue" points="3928.1,-65.97 3920.09,-72.9 3930.68,-72.47 3928.1,-65.97"/>
</g>
</g>
</svg>
        <g id="navigator" transform="translate(0 0)" fill="#404254">
                <rect fill="#f2f5e9" fill-opacity="0.5" stroke="#606060" stroke-width=".5" x="0" y="0" width="60" height="60"/>
                <use id="zoomplus" xlink:href="#zoomPlus" x="17" y="9" onmousedown="handleZoom(evt,'in')"/>
                <use id="zoomminus" xlink:href="#zoomMin" x="42" y="9" onmousedown="handleZoom(evt,'out')"/>
                <use id="reset" xlink:href="#resetDef" x="30" y="36" onmousedown="handleReset()"/>
                <g id="arrowUp" xlink:href="#dirArrow" transform="translate(30 24)" onmousedown="handlePan(0,-1)">
                  <use xlink:href="#rim" fill="#404040">
                        <set attributeName="fill" to="#808080" begin="arrowUp.mouseover" end="arrowUp.mouseout"/>
                  </use>
                  <path fill="none" stroke="white" stroke-width="1.5" d="M0,-3.0v7 M-2.5,-0.5L0,-3.0L2.5,-0.5"/>
                </g>
                <g id="arrowRight" xlink:href="#dirArrow" transform="rotate(90) translate(36 -43)" onmousedown="handlePan(1,0)">
                  <use xlink:href="#rim" fill="#404040">
                        <set attributeName="fill" to="#808080" begin="arrowRight.mouseover" end="arrowRight.mouseout"/>
                  </use>
                  <path fill="none" stroke="white" stroke-width="1.5" d="M0,-3.0v7 M-2.5,-0.5L0,-3.0L2.5,-0.5"/>
                </g>
                <g id="arrowDown" xlink:href="#dirArrow" transform="rotate(180) translate(-30 -48)" onmousedown="handlePan(0,1)">
                  <use xlink:href="#rim" fill="#404040">
                        <set attributeName="fill" to="#808080" begin="arrowDown.mouseover" end="arrowDown.mouseout"/>
                  </use>
                  <path fill="none" stroke="white" stroke-width="1.5" d="M0,-3.0v7 M-2.5,-0.5L0,-3.0L2.5,-0.5"/>
                </g>
                <g id="arrowLeft" xlink:href="#dirArrow" transform="rotate(270) translate(-36 17)" onmousedown="handlePan(-1,0)">
                  <use xlink:href="#rim" fill="#404040">
                        <set attributeName="fill" to="#808080" begin="arrowLeft.mouseover" end="arrowLeft.mouseout"/>
                  </use>
                  <path fill="none" stroke="white" stroke-width="1.5" d="M0,-3.0v7 M-2.5,-0.5L0,-3.0L2.5,-0.5"/>
                </g>
        </g>
        <svg viewBox="0 0 15 15" width="100%" height="30px" preserveAspectRatio="xMaxYMin meet">
         <g id="arrow_out" transform="scale(0.3 0.3)">
          <a xlink:href="joycontrolstick_8h__dep__incl_org.svg" target="_base">
           <rect id="button" ry="5" rx="5" y="6" x="6" height="38" width="38"
                fill="#f2f5e9" fill-opacity="0.5" stroke="#606060" stroke-width="1.0"/>
           <path id="arrow"
             d="M 11.500037,31.436501 C 11.940474,20.09759 22.043105,11.32322 32.158766,21.979434 L 37.068811,17.246167 C 37.068811,17.246167 37.088388,32 37.088388,32 L 22.160133,31.978069 C 22.160133,31.978069 26.997745,27.140456 26.997745,27.140456 C 18.528582,18.264221 13.291696,25.230495 11.500037,31.436501 z"
             style="fill:#404040;"/>
          </a>
         </g>
        </svg>
</svg>
