<?xml version="1.0" encoding="UTF-8" standalone="no"?>
<!DOCTYPE svg PUBLIC "-//W3C//DTD SVG 1.1//EN"
 "http://www.w3.org/Graphics/SVG/1.1/DTD/svg11.dtd">
<!-- Generated by graphviz version 2.43.0 (0)
 -->
<!-- Title: /home/runner/work/doxygen/antimicrox/src/joykeyrepeathelper.cpp Pages: 1 -->
<svg width="1444pt" height="375pt"
 viewBox="0.00 0.00 1444.00 375.00" xmlns="http://www.w3.org/2000/svg" xmlns:xlink="http://www.w3.org/1999/xlink">
<g id="graph0" class="graph" transform="scale(1 1) rotate(0) translate(4 371)">
<title>/home/runner/work/doxygen/antimicrox/src/joykeyrepeathelper.cpp</title>
<polygon fill="white" stroke="transparent" points="-4,4 -4,-371 1440,-371 1440,4 -4,4"/>
<!-- Node1 -->
<g id="node1" class="node">
<title>Node1</title>
<g id="a_node1"><a xlink:title=" ">
<polygon fill="#bfbfbf" stroke="black" points="721.5,-336.5 721.5,-366.5 927.5,-366.5 927.5,-336.5 721.5,-336.5"/>
<text text-anchor="start" x="729.5" y="-354.5" font-family="Helvetica,sans-Serif" font-size="10.00">/home/runner/work/doxygen</text>
<text text-anchor="middle" x="824.5" y="-343.5" font-family="Helvetica,sans-Serif" font-size="10.00">/antimicrox/src/joykeyrepeathelper.cpp</text>
</a>
</g>
</g>
<!-- Node2 -->
<g id="node2" class="node">
<title>Node2</title>
<g id="a_node2"><a xlink:href="joykeyrepeathelper_8h.html" target="_top" xlink:title=" ">
<polygon fill="white" stroke="black" points="0,-168.5 0,-187.5 119,-187.5 119,-168.5 0,-168.5"/>
<text text-anchor="middle" x="59.5" y="-175.5" font-family="Helvetica,sans-Serif" font-size="10.00">joykeyrepeathelper.h</text>
</a>
</g>
</g>
<!-- Node1&#45;&gt;Node2 -->
<g id="edge1" class="edge">
<title>Node1&#45;&gt;Node2</title>
<path fill="none" stroke="midnightblue" d="M761.9,-336.47C613.05,-303.1 240.52,-219.58 107.58,-189.78"/>
<polygon fill="midnightblue" stroke="midnightblue" points="108.21,-186.33 97.68,-187.56 106.67,-193.16 108.21,-186.33"/>
</g>
<!-- Node5 -->
<g id="node5" class="node">
<title>Node5</title>
<g id="a_node5"><a xlink:href="event_8h.html" target="_top" xlink:title=" ">
<polygon fill="white" stroke="black" points="798,-280.5 798,-299.5 851,-299.5 851,-280.5 798,-280.5"/>
<text text-anchor="middle" x="824.5" y="-287.5" font-family="Helvetica,sans-Serif" font-size="10.00">event.h</text>
</a>
</g>
</g>
<!-- Node1&#45;&gt;Node5 -->
<g id="edge4" class="edge">
<title>Node1&#45;&gt;Node5</title>
<path fill="none" stroke="midnightblue" d="M824.5,-336.4C824.5,-328.47 824.5,-318.46 824.5,-309.86"/>
<polygon fill="midnightblue" stroke="midnightblue" points="828,-309.66 824.5,-299.66 821,-309.66 828,-309.66"/>
</g>
<!-- Node24 -->
<g id="node24" class="node">
<title>Node24</title>
<g id="a_node24"><a xlink:href="joybuttonslot_8h.html" target="_top" xlink:title=" ">
<polygon fill="white" stroke="black" points="1014.5,-224.5 1014.5,-243.5 1104.5,-243.5 1104.5,-224.5 1014.5,-224.5"/>
<text text-anchor="middle" x="1059.5" y="-231.5" font-family="Helvetica,sans-Serif" font-size="10.00">joybuttonslot.h</text>
</a>
</g>
</g>
<!-- Node1&#45;&gt;Node24 -->
<g id="edge35" class="edge">
<title>Node1&#45;&gt;Node24</title>
<path fill="none" stroke="midnightblue" d="M853.32,-336.34C899.33,-313.72 988.73,-269.78 1033.15,-247.95"/>
<polygon fill="midnightblue" stroke="midnightblue" points="1034.73,-251.07 1042.16,-243.52 1031.64,-244.79 1034.73,-251.07"/>
</g>
<!-- Node3 -->
<g id="node3" class="node">
<title>Node3</title>
<g id="a_node3"><a xlink:title=" ">
<polygon fill="white" stroke="#bfbfbf" points="326.5,-0.5 326.5,-19.5 382.5,-19.5 382.5,-0.5 326.5,-0.5"/>
<text text-anchor="middle" x="354.5" y="-7.5" font-family="Helvetica,sans-Serif" font-size="10.00">QObject</text>
</a>
</g>
</g>
<!-- Node2&#45;&gt;Node3 -->
<g id="edge2" class="edge">
<title>Node2&#45;&gt;Node3</title>
<path fill="none" stroke="midnightblue" d="M65.18,-168.31C74.47,-154.68 94.12,-128.18 116.5,-112 179.96,-66.11 267.47,-35.85 316.77,-21.24"/>
<polygon fill="midnightblue" stroke="midnightblue" points="317.77,-24.6 326.4,-18.44 315.82,-17.87 317.77,-24.6"/>
</g>
<!-- Node4 -->
<g id="node4" class="node">
<title>Node4</title>
<g id="a_node4"><a xlink:title=" ">
<polygon fill="white" stroke="#bfbfbf" points="126,-112.5 126,-131.5 179,-131.5 179,-112.5 126,-112.5"/>
<text text-anchor="middle" x="152.5" y="-119.5" font-family="Helvetica,sans-Serif" font-size="10.00">QTimer</text>
</a>
</g>
</g>
<!-- Node2&#45;&gt;Node4 -->
<g id="edge3" class="edge">
<title>Node2&#45;&gt;Node4</title>
<path fill="none" stroke="midnightblue" d="M74.44,-168.32C89.09,-159.82 111.63,-146.73 128.74,-136.8"/>
<polygon fill="midnightblue" stroke="midnightblue" points="130.7,-139.7 137.6,-131.65 127.19,-133.65 130.7,-139.7"/>
</g>
<!-- Node6 -->
<g id="node6" class="node">
<title>Node6</title>
<g id="a_node6"><a xlink:href="common_8h.html" target="_top" xlink:title=" ">
<polygon fill="white" stroke="black" points="621.5,-224.5 621.5,-243.5 689.5,-243.5 689.5,-224.5 621.5,-224.5"/>
<text text-anchor="middle" x="655.5" y="-231.5" font-family="Helvetica,sans-Serif" font-size="10.00">common.h</text>
</a>
</g>
</g>
<!-- Node5&#45;&gt;Node6 -->
<g id="edge5" class="edge">
<title>Node5&#45;&gt;Node6</title>
<path fill="none" stroke="midnightblue" d="M797.72,-280.44C769.17,-271.32 723.77,-256.81 691.96,-246.65"/>
<polygon fill="midnightblue" stroke="midnightblue" points="692.74,-243.23 682.15,-243.52 690.61,-249.89 692.74,-243.23"/>
</g>
<!-- Node5&#45;&gt;Node24 -->
<g id="edge27" class="edge">
<title>Node5&#45;&gt;Node24</title>
<path fill="none" stroke="midnightblue" d="M851,-282.91C890.11,-273.92 963.88,-256.97 1012.36,-245.83"/>
<polygon fill="midnightblue" stroke="midnightblue" points="1013.33,-249.2 1022.3,-243.55 1011.77,-242.38 1013.33,-249.2"/>
</g>
<!-- Node30 -->
<g id="node30" class="node">
<title>Node30</title>
<g id="a_node30"><a xlink:href="springmousemoveinfo_8h.html" target="_top" xlink:title=" ">
<polygon fill="white" stroke="black" points="757,-224.5 757,-243.5 892,-243.5 892,-224.5 757,-224.5"/>
<text text-anchor="middle" x="824.5" y="-231.5" font-family="Helvetica,sans-Serif" font-size="10.00">springmousemoveinfo.h</text>
</a>
</g>
</g>
<!-- Node5&#45;&gt;Node30 -->
<g id="edge34" class="edge">
<title>Node5&#45;&gt;Node30</title>
<path fill="none" stroke="midnightblue" d="M824.5,-280.08C824.5,-273.01 824.5,-262.86 824.5,-253.99"/>
<polygon fill="midnightblue" stroke="midnightblue" points="828,-253.75 824.5,-243.75 821,-253.75 828,-253.75"/>
</g>
<!-- Node7 -->
<g id="node7" class="node">
<title>Node7</title>
<g id="a_node7"><a xlink:href="antimicrosettings_8h.html" target="_top" xlink:title=" ">
<polygon fill="white" stroke="black" points="576,-168.5 576,-187.5 687,-187.5 687,-168.5 576,-168.5"/>
<text text-anchor="middle" x="631.5" y="-175.5" font-family="Helvetica,sans-Serif" font-size="10.00">antimicrosettings.h</text>
</a>
</g>
</g>
<!-- Node6&#45;&gt;Node7 -->
<g id="edge6" class="edge">
<title>Node6&#45;&gt;Node7</title>
<path fill="none" stroke="midnightblue" d="M651.54,-224.08C648.29,-216.77 643.58,-206.18 639.55,-197.1"/>
<polygon fill="midnightblue" stroke="midnightblue" points="642.65,-195.47 635.39,-187.75 636.25,-198.31 642.65,-195.47"/>
</g>
<!-- Node14 -->
<g id="node14" class="node">
<title>Node14</title>
<g id="a_node14"><a xlink:title=" ">
<polygon fill="white" stroke="#bfbfbf" points="899.5,-0.5 899.5,-19.5 957.5,-19.5 957.5,-0.5 899.5,-0.5"/>
<text text-anchor="middle" x="928.5" y="-7.5" font-family="Helvetica,sans-Serif" font-size="10.00">QThread</text>
</a>
</g>
</g>
<!-- Node6&#45;&gt;Node14 -->
<g id="edge23" class="edge">
<title>Node6&#45;&gt;Node14</title>
<path fill="none" stroke="midnightblue" d="M689.57,-228.47C750.55,-220.05 873.36,-201.64 887.5,-188 931.54,-145.52 932.38,-65.77 930.2,-29.64"/>
<polygon fill="midnightblue" stroke="midnightblue" points="933.68,-29.25 929.44,-19.54 926.7,-29.78 933.68,-29.25"/>
</g>
<!-- Node17 -->
<g id="node17" class="node">
<title>Node17</title>
<g id="a_node17"><a xlink:title=" ">
<polygon fill="white" stroke="#bfbfbf" points="705,-168.5 705,-187.5 760,-187.5 760,-168.5 705,-168.5"/>
<text text-anchor="middle" x="732.5" y="-175.5" font-family="Helvetica,sans-Serif" font-size="10.00">config.h</text>
</a>
</g>
</g>
<!-- Node6&#45;&gt;Node17 -->
<g id="edge17" class="edge">
<title>Node6&#45;&gt;Node17</title>
<path fill="none" stroke="midnightblue" d="M667.87,-224.32C679.66,-216.06 697.63,-203.45 711.64,-193.63"/>
<polygon fill="midnightblue" stroke="midnightblue" points="713.98,-196.26 720.16,-187.65 709.96,-190.53 713.98,-196.26"/>
</g>
<!-- Node18 -->
<g id="node18" class="node">
<title>Node18</title>
<g id="a_node18"><a xlink:href="mousehelper_8h.html" target="_top" xlink:title=" ">
<polygon fill="white" stroke="black" points="137,-168.5 137,-187.5 226,-187.5 226,-168.5 137,-168.5"/>
<text text-anchor="middle" x="181.5" y="-175.5" font-family="Helvetica,sans-Serif" font-size="10.00">mousehelper.h</text>
</a>
</g>
</g>
<!-- Node6&#45;&gt;Node18 -->
<g id="edge18" class="edge">
<title>Node6&#45;&gt;Node18</title>
<path fill="none" stroke="midnightblue" d="M621.39,-230.03C551.36,-223.78 386.1,-208.27 236.54,-188.07"/>
<polygon fill="midnightblue" stroke="midnightblue" points="236.64,-184.55 226.26,-186.67 235.69,-191.48 236.64,-184.55"/>
</g>
<!-- Node19 -->
<g id="node19" class="node">
<title>Node19</title>
<g id="a_node19"><a xlink:title=" ">
<polygon fill="white" stroke="#bfbfbf" points="778.5,-168.5 778.5,-187.5 816.5,-187.5 816.5,-168.5 778.5,-168.5"/>
<text text-anchor="middle" x="797.5" y="-175.5" font-family="Helvetica,sans-Serif" font-size="10.00">QDir</text>
</a>
</g>
</g>
<!-- Node6&#45;&gt;Node19 -->
<g id="edge21" class="edge">
<title>Node6&#45;&gt;Node19</title>
<path fill="none" stroke="midnightblue" d="M678,-224.44C702.55,-215.11 741.91,-200.14 768.7,-189.95"/>
<polygon fill="midnightblue" stroke="midnightblue" points="770.19,-193.13 778.29,-186.3 767.7,-186.59 770.19,-193.13"/>
</g>
<!-- Node20 -->
<g id="node20" class="node">
<title>Node20</title>
<g id="a_node20"><a xlink:title=" ">
<polygon fill="white" stroke="#bfbfbf" points="834.5,-168.5 834.5,-187.5 878.5,-187.5 878.5,-168.5 834.5,-168.5"/>
<text text-anchor="middle" x="856.5" y="-175.5" font-family="Helvetica,sans-Serif" font-size="10.00">QIcon</text>
</a>
</g>
</g>
<!-- Node6&#45;&gt;Node20 -->
<g id="edge22" class="edge">
<title>Node6&#45;&gt;Node20</title>
<path fill="none" stroke="midnightblue" d="M688.79,-224.44C721.1,-216.07 771.76,-202.81 824.33,-188.28"/>
<polygon fill="midnightblue" stroke="midnightblue" points="825.47,-191.6 834.17,-185.55 823.6,-184.85 825.47,-191.6"/>
</g>
<!-- Node21 -->
<g id="node21" class="node">
<title>Node21</title>
<g id="a_node21"><a xlink:title=" ">
<polygon fill="white" stroke="#bfbfbf" points="244.5,-168.5 244.5,-187.5 316.5,-187.5 316.5,-168.5 244.5,-168.5"/>
<text text-anchor="middle" x="280.5" y="-175.5" font-family="Helvetica,sans-Serif" font-size="10.00">QTranslator</text>
</a>
</g>
</g>
<!-- Node6&#45;&gt;Node21 -->
<g id="edge24" class="edge">
<title>Node6&#45;&gt;Node21</title>
<path fill="none" stroke="midnightblue" d="M621.19,-229.03C562.8,-222.12 440.19,-206.95 326.71,-188.12"/>
<polygon fill="midnightblue" stroke="midnightblue" points="327.25,-184.66 316.81,-186.46 326.1,-191.57 327.25,-184.66"/>
</g>
<!-- Node22 -->
<g id="node22" class="node">
<title>Node22</title>
<g id="a_node22"><a xlink:title=" ">
<polygon fill="white" stroke="#bfbfbf" points="334.5,-168.5 334.5,-187.5 426.5,-187.5 426.5,-168.5 334.5,-168.5"/>
<text text-anchor="middle" x="380.5" y="-175.5" font-family="Helvetica,sans-Serif" font-size="10.00">QWaitCondition</text>
</a>
</g>
</g>
<!-- Node6&#45;&gt;Node22 -->
<g id="edge25" class="edge">
<title>Node6&#45;&gt;Node22</title>
<path fill="none" stroke="midnightblue" d="M621.23,-226.27C574.19,-217.03 489.18,-200.34 433.8,-189.47"/>
<polygon fill="midnightblue" stroke="midnightblue" points="434.31,-186 423.82,-187.51 432.96,-192.87 434.31,-186"/>
</g>
<!-- Node23 -->
<g id="node23" class="node">
<title>Node23</title>
<g id="a_node23"><a xlink:title=" ">
<polygon fill="white" stroke="#bfbfbf" points="445,-168.5 445,-187.5 558,-187.5 558,-168.5 445,-168.5"/>
<text text-anchor="middle" x="501.5" y="-175.5" font-family="Helvetica,sans-Serif" font-size="10.00">SDL2/SDL_version.h</text>
</a>
</g>
</g>
<!-- Node6&#45;&gt;Node23 -->
<g id="edge26" class="edge">
<title>Node6&#45;&gt;Node23</title>
<path fill="none" stroke="midnightblue" d="M631.1,-224.44C605.3,-215.4 564.42,-201.06 535.48,-190.92"/>
<polygon fill="midnightblue" stroke="midnightblue" points="536.38,-187.52 525.79,-187.52 534.07,-194.13 536.38,-187.52"/>
</g>
<!-- Node8 -->
<g id="node8" class="node">
<title>Node8</title>
<g id="a_node8"><a xlink:href="commandlineutility_8h.html" target="_top" xlink:title=" ">
<polygon fill="white" stroke="black" points="572,-112.5 572,-131.5 691,-131.5 691,-112.5 572,-112.5"/>
<text text-anchor="middle" x="631.5" y="-119.5" font-family="Helvetica,sans-Serif" font-size="10.00">commandlineutility.h</text>
</a>
</g>
</g>
<!-- Node7&#45;&gt;Node8 -->
<g id="edge7" class="edge">
<title>Node7&#45;&gt;Node8</title>
<path fill="none" stroke="midnightblue" d="M631.5,-168.08C631.5,-161.01 631.5,-150.86 631.5,-141.99"/>
<polygon fill="midnightblue" stroke="midnightblue" points="635,-141.75 631.5,-131.75 628,-141.75 635,-141.75"/>
</g>
<!-- Node16 -->
<g id="node16" class="node">
<title>Node16</title>
<g id="a_node16"><a xlink:title=" ">
<polygon fill="white" stroke="#bfbfbf" points="709.5,-112.5 709.5,-131.5 773.5,-131.5 773.5,-112.5 709.5,-112.5"/>
<text text-anchor="middle" x="741.5" y="-119.5" font-family="Helvetica,sans-Serif" font-size="10.00">QSettings</text>
</a>
</g>
</g>
<!-- Node7&#45;&gt;Node16 -->
<g id="edge16" class="edge">
<title>Node7&#45;&gt;Node16</title>
<path fill="none" stroke="midnightblue" d="M649.17,-168.32C666.89,-159.62 694.4,-146.12 714.79,-136.11"/>
<polygon fill="midnightblue" stroke="midnightblue" points="716.44,-139.2 723.87,-131.65 713.35,-132.92 716.44,-139.2"/>
</g>
<!-- Node9 -->
<g id="node9" class="node">
<title>Node9</title>
<g id="a_node9"><a xlink:title=" ">
<polygon fill="white" stroke="#bfbfbf" points="592,-56.5 592,-75.5 671,-75.5 671,-56.5 592,-56.5"/>
<text text-anchor="middle" x="631.5" y="-63.5" font-family="Helvetica,sans-Serif" font-size="10.00">QApplication</text>
</a>
</g>
</g>
<!-- Node8&#45;&gt;Node9 -->
<g id="edge8" class="edge">
<title>Node8&#45;&gt;Node9</title>
<path fill="none" stroke="midnightblue" d="M631.5,-112.08C631.5,-105.01 631.5,-94.86 631.5,-85.99"/>
<polygon fill="midnightblue" stroke="midnightblue" points="635,-85.75 631.5,-75.75 628,-85.75 635,-85.75"/>
</g>
<!-- Node10 -->
<g id="node10" class="node">
<title>Node10</title>
<g id="a_node10"><a xlink:href="logger_8h.html" target="_top" xlink:title=" ">
<polygon fill="white" stroke="black" points="780.5,-56.5 780.5,-75.5 836.5,-75.5 836.5,-56.5 780.5,-56.5"/>
<text text-anchor="middle" x="808.5" y="-63.5" font-family="Helvetica,sans-Serif" font-size="10.00">logger.h</text>
</a>
</g>
</g>
<!-- Node8&#45;&gt;Node10 -->
<g id="edge9" class="edge">
<title>Node8&#45;&gt;Node10</title>
<path fill="none" stroke="midnightblue" d="M659.55,-112.44C689.58,-103.28 737.41,-88.69 770.74,-78.52"/>
<polygon fill="midnightblue" stroke="midnightblue" points="772.04,-81.78 780.59,-75.52 770,-75.09 772.04,-81.78"/>
</g>
<!-- Node10&#45;&gt;Node3 -->
<g id="edge12" class="edge">
<title>Node10&#45;&gt;Node3</title>
<path fill="none" stroke="midnightblue" d="M780.11,-58.5C775.57,-57.59 770.92,-56.71 766.5,-56 629.74,-33.94 465.65,-19.61 392.7,-13.86"/>
<polygon fill="midnightblue" stroke="midnightblue" points="392.85,-10.36 382.61,-13.07 392.31,-17.34 392.85,-10.36"/>
</g>
<!-- Node11 -->
<g id="node11" class="node">
<title>Node11</title>
<g id="a_node11"><a xlink:title=" ">
<polygon fill="white" stroke="#bfbfbf" points="767,-0.5 767,-19.5 808,-19.5 808,-0.5 767,-0.5"/>
<text text-anchor="middle" x="787.5" y="-7.5" font-family="Helvetica,sans-Serif" font-size="10.00">QFile</text>
</a>
</g>
</g>
<!-- Node10&#45;&gt;Node11 -->
<g id="edge10" class="edge">
<title>Node10&#45;&gt;Node11</title>
<path fill="none" stroke="midnightblue" d="M805.03,-56.08C802.19,-48.77 798.07,-38.18 794.54,-29.1"/>
<polygon fill="midnightblue" stroke="midnightblue" points="797.79,-27.8 790.9,-19.75 791.27,-30.34 797.79,-27.8"/>
</g>
<!-- Node12 -->
<g id="node12" class="node">
<title>Node12</title>
<g id="a_node12"><a xlink:title=" ">
<polygon fill="white" stroke="#bfbfbf" points="826,-0.5 826,-19.5 881,-19.5 881,-0.5 826,-0.5"/>
<text text-anchor="middle" x="853.5" y="-7.5" font-family="Helvetica,sans-Serif" font-size="10.00">QMutex</text>
</a>
</g>
</g>
<!-- Node10&#45;&gt;Node12 -->
<g id="edge11" class="edge">
<title>Node10&#45;&gt;Node12</title>
<path fill="none" stroke="midnightblue" d="M815.93,-56.08C822.35,-48.38 831.81,-37.03 839.62,-27.65"/>
<polygon fill="midnightblue" stroke="midnightblue" points="842.49,-29.67 846.21,-19.75 837.12,-25.19 842.49,-29.67"/>
</g>
<!-- Node13 -->
<g id="node13" class="node">
<title>Node13</title>
<g id="a_node13"><a xlink:title=" ">
<polygon fill="white" stroke="#bfbfbf" points="594.5,-0.5 594.5,-19.5 674.5,-19.5 674.5,-0.5 594.5,-0.5"/>
<text text-anchor="middle" x="634.5" y="-7.5" font-family="Helvetica,sans-Serif" font-size="10.00">QTextStream</text>
</a>
</g>
</g>
<!-- Node10&#45;&gt;Node13 -->
<g id="edge13" class="edge">
<title>Node10&#45;&gt;Node13</title>
<path fill="none" stroke="midnightblue" d="M780.93,-56.44C751.4,-47.28 704.38,-32.69 671.62,-22.52"/>
<polygon fill="midnightblue" stroke="midnightblue" points="672.53,-19.14 661.94,-19.52 670.46,-25.82 672.53,-19.14"/>
</g>
<!-- Node10&#45;&gt;Node14 -->
<g id="edge14" class="edge">
<title>Node10&#45;&gt;Node14</title>
<path fill="none" stroke="midnightblue" d="M827.51,-56.44C847.09,-47.64 877.81,-33.81 900.23,-23.72"/>
<polygon fill="midnightblue" stroke="midnightblue" points="901.89,-26.81 909.57,-19.52 899.02,-20.43 901.89,-26.81"/>
</g>
<!-- Node15 -->
<g id="node15" class="node">
<title>Node15</title>
<g id="a_node15"><a xlink:title=" ">
<polygon fill="white" stroke="#bfbfbf" points="692.5,-0.5 692.5,-19.5 748.5,-19.5 748.5,-0.5 692.5,-0.5"/>
<text text-anchor="middle" x="720.5" y="-7.5" font-family="Helvetica,sans-Serif" font-size="10.00">sstream</text>
</a>
</g>
</g>
<!-- Node10&#45;&gt;Node15 -->
<g id="edge15" class="edge">
<title>Node10&#45;&gt;Node15</title>
<path fill="none" stroke="midnightblue" d="M794.36,-56.32C780.63,-47.9 759.56,-34.97 743.44,-25.07"/>
<polygon fill="midnightblue" stroke="midnightblue" points="744.96,-21.9 734.6,-19.65 741.3,-27.87 744.96,-21.9"/>
</g>
<!-- Node18&#45;&gt;Node3 -->
<g id="edge19" class="edge">
<title>Node18&#45;&gt;Node3</title>
<path fill="none" stroke="midnightblue" d="M190.8,-168.08C218.74,-141.27 302.19,-61.19 337.94,-26.89"/>
<polygon fill="midnightblue" stroke="midnightblue" points="340.78,-29.02 345.57,-19.57 335.93,-23.97 340.78,-29.02"/>
</g>
<!-- Node18&#45;&gt;Node4 -->
<g id="edge20" class="edge">
<title>Node18&#45;&gt;Node4</title>
<path fill="none" stroke="midnightblue" d="M176.71,-168.08C172.74,-160.69 166.97,-149.95 162.07,-140.81"/>
<polygon fill="midnightblue" stroke="midnightblue" points="165.01,-138.91 157.2,-131.75 158.85,-142.22 165.01,-138.91"/>
</g>
<!-- Node24&#45;&gt;Node3 -->
<g id="edge29" class="edge">
<title>Node24&#45;&gt;Node3</title>
<path fill="none" stroke="midnightblue" d="M1041.43,-224.5C967.21,-189.57 689.17,-58.85 679.5,-56 578.79,-26.3 454.6,-16.04 392.97,-12.62"/>
<polygon fill="midnightblue" stroke="midnightblue" points="393.09,-9.12 382.92,-12.1 392.72,-16.11 393.09,-9.12"/>
</g>
<!-- Node25 -->
<g id="node25" class="node">
<title>Node25</title>
<g id="a_node25"><a xlink:title=" ">
<polygon fill="white" stroke="#bfbfbf" points="1201,-168.5 1201,-187.5 1292,-187.5 1292,-168.5 1201,-168.5"/>
<text text-anchor="middle" x="1246.5" y="-175.5" font-family="Helvetica,sans-Serif" font-size="10.00">QElapsedTimer</text>
</a>
</g>
</g>
<!-- Node24&#45;&gt;Node25 -->
<g id="edge28" class="edge">
<title>Node24&#45;&gt;Node25</title>
<path fill="none" stroke="midnightblue" d="M1089.13,-224.44C1121,-215.24 1171.83,-200.56 1207.06,-190.39"/>
<polygon fill="midnightblue" stroke="midnightblue" points="1208.37,-193.65 1217.01,-187.52 1206.43,-186.93 1208.37,-193.65"/>
</g>
<!-- Node26 -->
<g id="node26" class="node">
<title>Node26</title>
<g id="a_node26"><a xlink:title=" ">
<polygon fill="white" stroke="#bfbfbf" points="1310,-168.5 1310,-187.5 1369,-187.5 1369,-168.5 1310,-168.5"/>
<text text-anchor="middle" x="1339.5" y="-175.5" font-family="Helvetica,sans-Serif" font-size="10.00">QPointer</text>
</a>
</g>
</g>
<!-- Node24&#45;&gt;Node26 -->
<g id="edge30" class="edge">
<title>Node24&#45;&gt;Node26</title>
<path fill="none" stroke="midnightblue" d="M1104.68,-225.28C1151.29,-217.16 1226.34,-203.66 1299.78,-188.29"/>
<polygon fill="midnightblue" stroke="midnightblue" points="1300.6,-191.7 1309.66,-186.21 1299.15,-184.85 1300.6,-191.7"/>
</g>
<!-- Node27 -->
<g id="node27" class="node">
<title>Node27</title>
<g id="a_node27"><a xlink:title=" ">
<polygon fill="white" stroke="#bfbfbf" points="1387,-168.5 1387,-187.5 1436,-187.5 1436,-168.5 1387,-168.5"/>
<text text-anchor="middle" x="1411.5" y="-175.5" font-family="Helvetica,sans-Serif" font-size="10.00">QTime</text>
</a>
</g>
</g>
<!-- Node24&#45;&gt;Node27 -->
<g id="edge31" class="edge">
<title>Node24&#45;&gt;Node27</title>
<path fill="none" stroke="midnightblue" d="M1104.71,-228.44C1164.87,-221.97 1274.68,-208.78 1376.85,-188.14"/>
<polygon fill="midnightblue" stroke="midnightblue" points="1377.62,-191.56 1386.71,-186.12 1376.22,-184.7 1377.62,-191.56"/>
</g>
<!-- Node28 -->
<g id="node28" class="node">
<title>Node28</title>
<g id="a_node28"><a xlink:title=" ">
<polygon fill="white" stroke="#bfbfbf" points="973,-168.5 973,-187.5 1032,-187.5 1032,-168.5 973,-168.5"/>
<text text-anchor="middle" x="1002.5" y="-175.5" font-family="Helvetica,sans-Serif" font-size="10.00">QVariant</text>
</a>
</g>
</g>
<!-- Node24&#45;&gt;Node28 -->
<g id="edge32" class="edge">
<title>Node24&#45;&gt;Node28</title>
<path fill="none" stroke="midnightblue" d="M1050.34,-224.32C1042,-216.42 1029.47,-204.55 1019.32,-194.94"/>
<polygon fill="midnightblue" stroke="midnightblue" points="1021.49,-192.17 1011.82,-187.83 1016.68,-197.25 1021.49,-192.17"/>
</g>
<!-- Node29 -->
<g id="node29" class="node">
<title>Node29</title>
<g id="a_node29"><a xlink:title=" ">
<polygon fill="white" stroke="#bfbfbf" points="1050,-168.5 1050,-187.5 1183,-187.5 1183,-168.5 1050,-168.5"/>
<text text-anchor="middle" x="1116.5" y="-175.5" font-family="Helvetica,sans-Serif" font-size="10.00">QtWidgets/QApplication</text>
</a>
</g>
</g>
<!-- Node24&#45;&gt;Node29 -->
<g id="edge33" class="edge">
<title>Node24&#45;&gt;Node29</title>
<path fill="none" stroke="midnightblue" d="M1068.66,-224.32C1077,-216.42 1089.53,-204.55 1099.68,-194.94"/>
<polygon fill="midnightblue" stroke="midnightblue" points="1102.32,-197.25 1107.18,-187.83 1097.51,-192.17 1102.32,-197.25"/>
</g>
</g>
</svg>
