<?xml version="1.0" encoding="UTF-8" standalone="no"?>
<!DOCTYPE svg PUBLIC "-//W3C//DTD SVG 1.1//EN"
 "http://www.w3.org/Graphics/SVG/1.1/DTD/svg11.dtd">
<!-- Generated by graphviz version 2.43.0 (0)
 -->
<!-- Title: /home/runner/work/doxygen/antimicrox/src/uihelpers/joysensoriothreadhelper.h Pages: 1 -->
<svg width="956pt" height="262pt"
 viewBox="0.00 0.00 956.00 262.00" xmlns="http://www.w3.org/2000/svg" xmlns:xlink="http://www.w3.org/1999/xlink">
<g id="graph0" class="graph" transform="scale(1 1) rotate(0) translate(4 258)">
<title>/home/runner/work/doxygen/antimicrox/src/uihelpers/joysensoriothreadhelper.h</title>
<polygon fill="white" stroke="transparent" points="-4,4 -4,-258 952,-258 952,4 -4,4"/>
<!-- Node1 -->
<g id="node1" class="node">
<title>Node1</title>
<g id="a_node1"><a xlink:title=" ">
<polygon fill="#bfbfbf" stroke="black" points="618.5,-212.5 618.5,-253.5 772.5,-253.5 772.5,-212.5 618.5,-212.5"/>
<text text-anchor="start" x="626.5" y="-241.5" font-family="Helvetica,sans-Serif" font-size="10.00">/home/runner/work/doxygen</text>
<text text-anchor="start" x="626.5" y="-230.5" font-family="Helvetica,sans-Serif" font-size="10.00">/antimicrox/src/uihelpers</text>
<text text-anchor="middle" x="695.5" y="-219.5" font-family="Helvetica,sans-Serif" font-size="10.00">/joysensoriothreadhelper.h</text>
</a>
</g>
</g>
<!-- Node2 -->
<g id="node2" class="node">
<title>Node2</title>
<g id="a_node2"><a xlink:href="joysensorpreset_8h.html" target="_top" xlink:title=" ">
<polygon fill="white" stroke="black" points="513,-140 513,-170 692,-170 692,-140 513,-140"/>
<text text-anchor="start" x="521" y="-158" font-family="Helvetica,sans-Serif" font-size="10.00">/home/runner/work/doxygen</text>
<text text-anchor="middle" x="602.5" y="-147" font-family="Helvetica,sans-Serif" font-size="10.00">/antimicrox/src/joysensorpreset.h</text>
</a>
</g>
</g>
<!-- Node1&#45;&gt;Node2 -->
<g id="edge1" class="edge">
<title>Node1&#45;&gt;Node2</title>
<path fill="none" stroke="midnightblue" d="M663.67,-205.99C649.02,-194.02 632.2,-180.27 619.91,-170.23"/>
<polygon fill="midnightblue" stroke="midnightblue" points="661.59,-208.81 671.55,-212.43 666.02,-203.39 661.59,-208.81"/>
</g>
<!-- Node10 -->
<g id="node10" class="node">
<title>Node10</title>
<g id="a_node10"><a xlink:href="joysensoriothreadhelper_8cpp.html" target="_top" xlink:title=" ">
<polygon fill="white" stroke="black" points="710.5,-134.5 710.5,-175.5 868.5,-175.5 868.5,-134.5 710.5,-134.5"/>
<text text-anchor="start" x="718.5" y="-163.5" font-family="Helvetica,sans-Serif" font-size="10.00">/home/runner/work/doxygen</text>
<text text-anchor="start" x="718.5" y="-152.5" font-family="Helvetica,sans-Serif" font-size="10.00">/antimicrox/src/uihelpers</text>
<text text-anchor="middle" x="789.5" y="-141.5" font-family="Helvetica,sans-Serif" font-size="10.00">/joysensoriothreadhelper.cpp</text>
</a>
</g>
</g>
<!-- Node1&#45;&gt;Node10 -->
<g id="edge9" class="edge">
<title>Node1&#45;&gt;Node10</title>
<path fill="none" stroke="midnightblue" d="M727.58,-206.06C739.96,-196.06 753.87,-184.8 765.37,-175.51"/>
<polygon fill="midnightblue" stroke="midnightblue" points="725.28,-203.42 719.71,-212.43 729.68,-208.86 725.28,-203.42"/>
</g>
<!-- Node3 -->
<g id="node3" class="node">
<title>Node3</title>
<g id="a_node3"><a xlink:href="joysensoreditdialog_8h.html" target="_top" xlink:title=" ">
<polygon fill="white" stroke="black" points="251,-67.5 251,-97.5 466,-97.5 466,-67.5 251,-67.5"/>
<text text-anchor="start" x="259" y="-85.5" font-family="Helvetica,sans-Serif" font-size="10.00">/home/runner/work/doxygen</text>
<text text-anchor="middle" x="358.5" y="-74.5" font-family="Helvetica,sans-Serif" font-size="10.00">/antimicrox/src/gui/joysensoreditdialog.h</text>
</a>
</g>
</g>
<!-- Node2&#45;&gt;Node3 -->
<g id="edge2" class="edge">
<title>Node2&#45;&gt;Node3</title>
<path fill="none" stroke="midnightblue" d="M544.23,-137.16C502.45,-125.09 446.78,-109.01 407.32,-97.61"/>
<polygon fill="midnightblue" stroke="midnightblue" points="543.42,-140.57 554,-139.99 545.37,-133.85 543.42,-140.57"/>
</g>
<!-- Node6 -->
<g id="node6" class="node">
<title>Node6</title>
<g id="a_node6"><a xlink:href="joysensorcontextmenu_8h.html" target="_top" xlink:title=" ">
<polygon fill="white" stroke="black" points="496,-67.5 496,-97.5 709,-97.5 709,-67.5 496,-67.5"/>
<text text-anchor="start" x="504" y="-85.5" font-family="Helvetica,sans-Serif" font-size="10.00">/home/runner/work/doxygen</text>
<text text-anchor="middle" x="602.5" y="-74.5" font-family="Helvetica,sans-Serif" font-size="10.00">/antimicrox/src/joysensorcontextmenu.h</text>
</a>
</g>
</g>
<!-- Node2&#45;&gt;Node6 -->
<g id="edge5" class="edge">
<title>Node2&#45;&gt;Node6</title>
<path fill="none" stroke="midnightblue" d="M602.5,-129.73C602.5,-119.07 602.5,-106.91 602.5,-97.75"/>
<polygon fill="midnightblue" stroke="midnightblue" points="599,-129.73 602.5,-139.73 606,-129.73 599,-129.73"/>
</g>
<!-- Node9 -->
<g id="node9" class="node">
<title>Node9</title>
<g id="a_node9"><a xlink:href="joysensorpreset_8cpp.html" target="_top" xlink:title=" ">
<polygon fill="white" stroke="black" points="727,-67.5 727,-97.5 918,-97.5 918,-67.5 727,-67.5"/>
<text text-anchor="start" x="735" y="-85.5" font-family="Helvetica,sans-Serif" font-size="10.00">/home/runner/work/doxygen</text>
<text text-anchor="middle" x="822.5" y="-74.5" font-family="Helvetica,sans-Serif" font-size="10.00">/antimicrox/src/joysensorpreset.cpp</text>
</a>
</g>
</g>
<!-- Node2&#45;&gt;Node9 -->
<g id="edge8" class="edge">
<title>Node2&#45;&gt;Node9</title>
<path fill="none" stroke="midnightblue" d="M655.99,-136.86C693.56,-124.82 743.2,-108.91 778.48,-97.61"/>
<polygon fill="midnightblue" stroke="midnightblue" points="654.68,-133.6 646.23,-139.99 656.82,-140.27 654.68,-133.6"/>
</g>
<!-- Node4 -->
<g id="node4" class="node">
<title>Node4</title>
<g id="a_node4"><a xlink:href="joysensoreditdialog_8cpp.html" target="_top" xlink:title=" ">
<polygon fill="white" stroke="black" points="0,-0.5 0,-30.5 227,-30.5 227,-0.5 0,-0.5"/>
<text text-anchor="start" x="8" y="-18.5" font-family="Helvetica,sans-Serif" font-size="10.00">/home/runner/work/doxygen</text>
<text text-anchor="middle" x="113.5" y="-7.5" font-family="Helvetica,sans-Serif" font-size="10.00">/antimicrox/src/gui/joysensoreditdialog.cpp</text>
</a>
</g>
</g>
<!-- Node3&#45;&gt;Node4 -->
<g id="edge3" class="edge">
<title>Node3&#45;&gt;Node4</title>
<path fill="none" stroke="midnightblue" d="M295.74,-64.85C255.8,-54.25 204.63,-40.68 166.69,-30.61"/>
<polygon fill="midnightblue" stroke="midnightblue" points="295.08,-68.29 305.64,-67.48 296.87,-61.53 295.08,-68.29"/>
</g>
<!-- Node5 -->
<g id="node5" class="node">
<title>Node5</title>
<g id="a_node5"><a xlink:href="sensorpushbuttongroup_8cpp.html" target="_top" xlink:title=" ">
<polygon fill="white" stroke="black" points="245,-0.5 245,-30.5 472,-30.5 472,-0.5 245,-0.5"/>
<text text-anchor="start" x="253" y="-18.5" font-family="Helvetica,sans-Serif" font-size="10.00">/home/runner/work/doxygen</text>
<text text-anchor="middle" x="358.5" y="-7.5" font-family="Helvetica,sans-Serif" font-size="10.00">/antimicrox/src/sensorpushbuttongroup.cpp</text>
</a>
</g>
</g>
<!-- Node3&#45;&gt;Node5 -->
<g id="edge4" class="edge">
<title>Node3&#45;&gt;Node5</title>
<path fill="none" stroke="midnightblue" d="M358.5,-57.11C358.5,-48.15 358.5,-38.32 358.5,-30.58"/>
<polygon fill="midnightblue" stroke="midnightblue" points="355,-57.4 358.5,-67.4 362,-57.4 355,-57.4"/>
</g>
<!-- Node7 -->
<g id="node7" class="node">
<title>Node7</title>
<g id="a_node7"><a xlink:href="joysensorcontextmenu_8cpp.html" target="_top" xlink:title=" ">
<polygon fill="white" stroke="black" points="490.5,-0.5 490.5,-30.5 714.5,-30.5 714.5,-0.5 490.5,-0.5"/>
<text text-anchor="start" x="498.5" y="-18.5" font-family="Helvetica,sans-Serif" font-size="10.00">/home/runner/work/doxygen</text>
<text text-anchor="middle" x="602.5" y="-7.5" font-family="Helvetica,sans-Serif" font-size="10.00">/antimicrox/src/joysensorcontextmenu.cpp</text>
</a>
</g>
</g>
<!-- Node6&#45;&gt;Node7 -->
<g id="edge6" class="edge">
<title>Node6&#45;&gt;Node7</title>
<path fill="none" stroke="midnightblue" d="M602.5,-57.11C602.5,-48.15 602.5,-38.32 602.5,-30.58"/>
<polygon fill="midnightblue" stroke="midnightblue" points="599,-57.4 602.5,-67.4 606,-57.4 599,-57.4"/>
</g>
<!-- Node8 -->
<g id="node8" class="node">
<title>Node8</title>
<g id="a_node8"><a xlink:href="joysensorpushbutton_8cpp.html" target="_top" xlink:title=" ">
<polygon fill="white" stroke="black" points="733,-0.5 733,-30.5 948,-30.5 948,-0.5 733,-0.5"/>
<text text-anchor="start" x="741" y="-18.5" font-family="Helvetica,sans-Serif" font-size="10.00">/home/runner/work/doxygen</text>
<text text-anchor="middle" x="840.5" y="-7.5" font-family="Helvetica,sans-Serif" font-size="10.00">/antimicrox/src/joysensorpushbutton.cpp</text>
</a>
</g>
</g>
<!-- Node6&#45;&gt;Node8 -->
<g id="edge7" class="edge">
<title>Node6&#45;&gt;Node8</title>
<path fill="none" stroke="midnightblue" d="M663.96,-64.71C702.69,-54.14 752.13,-40.63 788.83,-30.61"/>
<polygon fill="midnightblue" stroke="midnightblue" points="662.57,-61.46 653.85,-67.48 664.42,-68.22 662.57,-61.46"/>
</g>
</g>
</svg>
