<?xml version="1.0" encoding="UTF-8" standalone="no"?>
<!DOCTYPE svg PUBLIC "-//W3C//DTD SVG 1.1//EN"
 "http://www.w3.org/Graphics/SVG/1.1/DTD/svg11.dtd">
<!-- Generated by graphviz version 2.43.0 (0)
 -->
<!-- Title: /home/runner/work/doxygen/antimicrox/src/joysensor.cpp Pages: 1 -->
<!--zoomable 487 -->
<svg id="main" version="1.1" xmlns="http://www.w3.org/2000/svg" xmlns:xlink="http://www.w3.org/1999/xlink" xml:space="preserve" onload="init(evt)">
<style type="text/css"><![CDATA[
.edge:hover path { stroke: red; }
.edge:hover polygon { stroke: red; fill: red; }
]]></style>
<script type="text/javascript"><![CDATA[
var edges = document.getElementsByTagName('g');
if (edges && edges.length) {
  for (var i=0;i<edges.length;i++) {
    if (edges[i].id.substr(0,4)=='edge') {
      edges[i].setAttribute('class','edge');
    }
  }
}
]]></script>
        <defs>
                <circle id="rim" cx="0" cy="0" r="7"/>
                <circle id="rim2" cx="0" cy="0" r="3.5"/>
                <g id="zoomPlus">
                        <use xlink:href="#rim" fill="#404040">
                                <set attributeName="fill" to="#808080" begin="zoomplus.mouseover" end="zoomplus.mouseout"/>
                        </use>
                        <path d="M-4,0h8M0,-4v8" fill="none" stroke="white" stroke-width="1.5" pointer-events="none"/>
                </g>
                <g id="zoomMin">
                        <use xlink:href="#rim" fill="#404040">
                                <set attributeName="fill" to="#808080" begin="zoomminus.mouseover" end="zoomminus.mouseout"/>
                        </use>
                        <path d="M-4,0h8" fill="none" stroke="white" stroke-width="1.5" pointer-events="none"/>
                </g>
                <g id="dirArrow">
                        <path fill="none" stroke="white" stroke-width="1.5" d="M0,-3.0v7 M-2.5,-0.5L0,-3.0L2.5,-0.5"/>
                </g>
               <g id="resetDef">
                       <use xlink:href="#rim2" fill="#404040">
                               <set attributeName="fill" to="#808080" begin="reset.mouseover" end="reset.mouseout"/>
                       </use>
               </g>
        </defs>

<script type="text/javascript">
var viewWidth = 1547;
var viewHeight = 487;
var sectionId = 'dynsection-0';
</script>
<script xlink:href="svgpan.js"/>
<svg id="graph" class="graph">
<g id="viewport">
<title>/home/runner/work/doxygen/antimicrox/src/joysensor.cpp</title>
<polygon fill="white" stroke="transparent" points="-4,4 -4,-483 1543,-483 1543,4 -4,4"/>
<!-- Node1 -->
<g id="node1" class="node">
<title>Node1</title>
<g id="a_node1"><a xlink:title=" ">
<polygon fill="#bfbfbf" stroke="black" points="342,-448.5 342,-478.5 501,-478.5 501,-448.5 342,-448.5"/>
<text text-anchor="start" x="350" y="-466.5" font-family="Helvetica,sans-Serif" font-size="10.00">/home/runner/work/doxygen</text>
<text text-anchor="middle" x="421.5" y="-455.5" font-family="Helvetica,sans-Serif" font-size="10.00">/antimicrox/src/joysensor.cpp</text>
</a>
</g>
</g>
<!-- Node2 -->
<g id="node2" class="node">
<title>Node2</title>
<g id="a_node2"><a xlink:href="joysensor_8h.html" target="_top" xlink:title=" ">
<polygon fill="white" stroke="black" points="221.5,-336.5 221.5,-355.5 293.5,-355.5 293.5,-336.5 221.5,-336.5"/>
<text text-anchor="middle" x="257.5" y="-343.5" font-family="Helvetica,sans-Serif" font-size="10.00">joysensor.h</text>
</a>
</g>
</g>
<!-- Node1&#45;&gt;Node2 -->
<g id="edge1" class="edge">
<title>Node1&#45;&gt;Node2</title>
<path fill="none" stroke="midnightblue" d="M369.88,-448.49C346.91,-440.46 320.59,-428.61 300.5,-412 285.06,-399.23 273.1,-379.49 265.75,-365.11"/>
<polygon fill="midnightblue" stroke="midnightblue" points="268.74,-363.25 261.24,-355.77 262.44,-366.29 268.74,-363.25"/>
</g>
<!-- Node11 -->
<g id="node11" class="node">
<title>Node11</title>
<g id="a_node11"><a xlink:href="inputdevice_8h.html" target="_top" xlink:title=" ">
<polygon fill="white" stroke="black" points="310,-392.5 310,-411.5 393,-411.5 393,-392.5 310,-392.5"/>
<text text-anchor="middle" x="351.5" y="-399.5" font-family="Helvetica,sans-Serif" font-size="10.00">inputdevice.h</text>
</a>
</g>
</g>
<!-- Node1&#45;&gt;Node11 -->
<g id="edge11" class="edge">
<title>Node1&#45;&gt;Node11</title>
<path fill="none" stroke="midnightblue" d="M404.91,-448.4C394.21,-439.31 380.31,-427.49 369.37,-418.19"/>
<polygon fill="midnightblue" stroke="midnightblue" points="371.57,-415.47 361.69,-411.66 367.04,-420.8 371.57,-415.47"/>
</g>
<!-- Node40 -->
<g id="node40" class="node">
<title>Node40</title>
<g id="a_node40"><a xlink:href="joysensorbutton_8h.html" target="_top" xlink:title=" ">
<polygon fill="white" stroke="black" points="619,-336.5 619,-355.5 800,-355.5 800,-336.5 619,-336.5"/>
<text text-anchor="middle" x="709.5" y="-343.5" font-family="Helvetica,sans-Serif" font-size="10.00">joybuttontypes/joysensorbutton.h</text>
</a>
</g>
</g>
<!-- Node1&#45;&gt;Node40 -->
<g id="edge54" class="edge">
<title>Node1&#45;&gt;Node40</title>
<path fill="none" stroke="midnightblue" d="M421.32,-448.29C421.94,-432.17 425.58,-406.26 441.5,-392 455.14,-379.79 550.74,-365.84 623.91,-356.76"/>
<polygon fill="midnightblue" stroke="midnightblue" points="624.58,-360.2 634.08,-355.51 623.73,-353.25 624.58,-360.2"/>
</g>
<!-- Node41 -->
<g id="node41" class="node">
<title>Node41</title>
<g id="a_node41"><a xlink:href="joybuttonxml_8h.html" target="_top" xlink:title=" ">
<polygon fill="white" stroke="black" points="0,-168.5 0,-187.5 113,-187.5 113,-168.5 0,-168.5"/>
<text text-anchor="middle" x="56.5" y="-175.5" font-family="Helvetica,sans-Serif" font-size="10.00">xml/joybuttonxml.h</text>
</a>
</g>
</g>
<!-- Node1&#45;&gt;Node41 -->
<g id="edge59" class="edge">
<title>Node1&#45;&gt;Node41</title>
<path fill="none" stroke="midnightblue" d="M341.84,-454.53C230.41,-441.12 41.5,-409.23 41.5,-347 41.5,-347 41.5,-347 41.5,-289 41.5,-256.5 48.01,-219.1 52.45,-197.34"/>
<polygon fill="midnightblue" stroke="midnightblue" points="55.89,-198.01 54.54,-187.5 49.04,-196.56 55.89,-198.01"/>
</g>
<!-- Node42 -->
<g id="node42" class="node">
<title>Node42</title>
<g id="a_node42"><a xlink:title=" ">
<polygon fill="white" stroke="#bfbfbf" points="450,-392.5 450,-411.5 563,-411.5 563,-392.5 450,-392.5"/>
<text text-anchor="middle" x="506.5" y="-399.5" font-family="Helvetica,sans-Serif" font-size="10.00">QXmlStreamReader</text>
</a>
</g>
</g>
<!-- Node1&#45;&gt;Node42 -->
<g id="edge61" class="edge">
<title>Node1&#45;&gt;Node42</title>
<path fill="none" stroke="midnightblue" d="M441.64,-448.4C454.89,-439.13 472.18,-427.03 485.58,-417.65"/>
<polygon fill="midnightblue" stroke="midnightblue" points="487.95,-420.26 494.13,-411.66 483.93,-414.53 487.95,-420.26"/>
</g>
<!-- Node43 -->
<g id="node43" class="node">
<title>Node43</title>
<g id="a_node43"><a xlink:title=" ">
<polygon fill="white" stroke="#bfbfbf" points="581,-392.5 581,-411.5 690,-411.5 690,-392.5 581,-392.5"/>
<text text-anchor="middle" x="635.5" y="-399.5" font-family="Helvetica,sans-Serif" font-size="10.00">QXmlStreamWriter</text>
</a>
</g>
</g>
<!-- Node1&#45;&gt;Node43 -->
<g id="edge62" class="edge">
<title>Node1&#45;&gt;Node43</title>
<path fill="none" stroke="midnightblue" d="M471.94,-448.47C509.51,-438.03 560.12,-423.96 595.05,-414.25"/>
<polygon fill="midnightblue" stroke="midnightblue" points="596.21,-417.56 604.91,-411.51 594.33,-410.81 596.21,-417.56"/>
</g>
<!-- Node44 -->
<g id="node44" class="node">
<title>Node44</title>
<g id="a_node44"><a xlink:title=" ">
<polygon fill="white" stroke="#bfbfbf" points="708,-392.5 708,-411.5 755,-411.5 755,-392.5 708,-392.5"/>
<text text-anchor="middle" x="731.5" y="-399.5" font-family="Helvetica,sans-Serif" font-size="10.00">cmath</text>
</a>
</g>
</g>
<!-- Node1&#45;&gt;Node44 -->
<g id="edge63" class="edge">
<title>Node1&#45;&gt;Node44</title>
<path fill="none" stroke="midnightblue" d="M501.3,-450.06C554.58,-441.27 626.39,-428.52 697.74,-412.25"/>
<polygon fill="midnightblue" stroke="midnightblue" points="698.84,-415.59 707.8,-409.94 697.27,-408.77 698.84,-415.59"/>
</g>
<!-- Node3 -->
<g id="node3" class="node">
<title>Node3</title>
<g id="a_node3"><a xlink:title=" ">
<polygon fill="white" stroke="#bfbfbf" points="74,-280.5 74,-299.5 123,-299.5 123,-280.5 74,-280.5"/>
<text text-anchor="middle" x="98.5" y="-287.5" font-family="Helvetica,sans-Serif" font-size="10.00">QHash</text>
</a>
</g>
</g>
<!-- Node2&#45;&gt;Node3 -->
<g id="edge2" class="edge">
<title>Node2&#45;&gt;Node3</title>
<path fill="none" stroke="midnightblue" d="M232.31,-336.44C205.4,-327.31 162.6,-312.77 132.67,-302.6"/>
<polygon fill="midnightblue" stroke="midnightblue" points="133.65,-299.24 123.05,-299.34 131.4,-305.87 133.65,-299.24"/>
</g>
<!-- Node4 -->
<g id="node4" class="node">
<title>Node4</title>
<g id="a_node4"><a xlink:title=" ">
<polygon fill="white" stroke="#bfbfbf" points="224.5,-0.5 224.5,-19.5 280.5,-19.5 280.5,-0.5 224.5,-0.5"/>
<text text-anchor="middle" x="252.5" y="-7.5" font-family="Helvetica,sans-Serif" font-size="10.00">QObject</text>
</a>
</g>
</g>
<!-- Node2&#45;&gt;Node4 -->
<g id="edge3" class="edge">
<title>Node2&#45;&gt;Node4</title>
<path fill="none" stroke="midnightblue" d="M227.76,-336.37C208.84,-329.44 185.2,-317.85 170.5,-300 151.37,-276.77 151.5,-265.1 151.5,-235 151.5,-235 151.5,-235 151.5,-121 151.5,-76.59 196.71,-42.37 226.64,-24.58"/>
<polygon fill="midnightblue" stroke="midnightblue" points="228.42,-27.59 235.37,-19.59 224.95,-21.51 228.42,-27.59"/>
</g>
<!-- Node5 -->
<g id="node5" class="node">
<title>Node5</title>
<g id="a_node5"><a xlink:title=" ">
<polygon fill="white" stroke="#bfbfbf" points="300,-56.5 300,-75.5 353,-75.5 353,-56.5 300,-56.5"/>
<text text-anchor="middle" x="326.5" y="-63.5" font-family="Helvetica,sans-Serif" font-size="10.00">QTimer</text>
</a>
</g>
</g>
<!-- Node2&#45;&gt;Node5 -->
<g id="edge4" class="edge">
<title>Node2&#45;&gt;Node5</title>
<path fill="none" stroke="midnightblue" d="M259.33,-336.49C263.13,-318.07 271.5,-273.12 271.5,-235 271.5,-235 271.5,-235 271.5,-177 271.5,-140.57 295.93,-103.84 312.23,-83.39"/>
<polygon fill="midnightblue" stroke="midnightblue" points="314.94,-85.6 318.62,-75.67 309.55,-81.14 314.94,-85.6"/>
</g>
<!-- Node6 -->
<g id="node6" class="node">
<title>Node6</title>
<g id="a_node6"><a xlink:href="joysensordirection_8h.html" target="_top" xlink:title=" ">
<polygon fill="white" stroke="black" points="299.5,-280.5 299.5,-299.5 415.5,-299.5 415.5,-280.5 299.5,-280.5"/>
<text text-anchor="middle" x="357.5" y="-287.5" font-family="Helvetica,sans-Serif" font-size="10.00">joysensordirection.h</text>
</a>
</g>
</g>
<!-- Node2&#45;&gt;Node6 -->
<g id="edge5" class="edge">
<title>Node2&#45;&gt;Node6</title>
<path fill="none" stroke="midnightblue" d="M273.57,-336.32C289.46,-327.74 314.01,-314.49 332.46,-304.52"/>
<polygon fill="midnightblue" stroke="midnightblue" points="334.34,-307.49 341.47,-299.65 331.01,-301.33 334.34,-307.49"/>
</g>
<!-- Node8 -->
<g id="node8" class="node">
<title>Node8</title>
<g id="a_node8"><a xlink:href="joysensortype_8h.html" target="_top" xlink:title=" ">
<polygon fill="white" stroke="black" points="434,-280.5 434,-299.5 529,-299.5 529,-280.5 434,-280.5"/>
<text text-anchor="middle" x="481.5" y="-287.5" font-family="Helvetica,sans-Serif" font-size="10.00">joysensortype.h</text>
</a>
</g>
</g>
<!-- Node2&#45;&gt;Node8 -->
<g id="edge7" class="edge">
<title>Node2&#45;&gt;Node8</title>
<path fill="none" stroke="midnightblue" d="M292.99,-336.44C331.82,-327.08 394.16,-312.06 436.42,-301.87"/>
<polygon fill="midnightblue" stroke="midnightblue" points="437.27,-305.26 446.17,-299.52 435.63,-298.46 437.27,-305.26"/>
</g>
<!-- Node10 -->
<g id="node10" class="node">
<title>Node10</title>
<g id="a_node10"><a xlink:href="pt1filter_8h.html" target="_top" xlink:title=" ">
<polygon fill="white" stroke="black" points="180,-280.5 180,-299.5 243,-299.5 243,-280.5 180,-280.5"/>
<text text-anchor="middle" x="211.5" y="-287.5" font-family="Helvetica,sans-Serif" font-size="10.00">pt1filter.h</text>
</a>
</g>
</g>
<!-- Node2&#45;&gt;Node10 -->
<g id="edge10" class="edge">
<title>Node2&#45;&gt;Node10</title>
<path fill="none" stroke="midnightblue" d="M249.9,-336.08C243.27,-328.3 233.48,-316.8 225.44,-307.37"/>
<polygon fill="midnightblue" stroke="midnightblue" points="228.1,-305.09 218.95,-299.75 222.77,-309.63 228.1,-305.09"/>
</g>
<!-- Node7 -->
<g id="node7" class="node">
<title>Node7</title>
<g id="a_node7"><a xlink:title=" ">
<polygon fill="white" stroke="#bfbfbf" points="300,-224.5 300,-243.5 371,-243.5 371,-224.5 300,-224.5"/>
<text text-anchor="middle" x="335.5" y="-231.5" font-family="Helvetica,sans-Serif" font-size="10.00">QMetaType</text>
</a>
</g>
</g>
<!-- Node6&#45;&gt;Node7 -->
<g id="edge6" class="edge">
<title>Node6&#45;&gt;Node7</title>
<path fill="none" stroke="midnightblue" d="M353.87,-280.08C350.89,-272.77 346.57,-262.18 342.88,-253.1"/>
<polygon fill="midnightblue" stroke="midnightblue" points="346.08,-251.69 339.07,-243.75 339.6,-254.33 346.08,-251.69"/>
</g>
<!-- Node8&#45;&gt;Node7 -->
<g id="edge8" class="edge">
<title>Node8&#45;&gt;Node7</title>
<path fill="none" stroke="midnightblue" d="M458.37,-280.44C434.02,-271.44 395.49,-257.19 368.08,-247.05"/>
<polygon fill="midnightblue" stroke="midnightblue" points="369.12,-243.7 358.53,-243.52 366.69,-250.27 369.12,-243.7"/>
</g>
<!-- Node9 -->
<g id="node9" class="node">
<title>Node9</title>
<g id="a_node9"><a xlink:title=" ">
<polygon fill="white" stroke="#bfbfbf" points="389.5,-224.5 389.5,-243.5 461.5,-243.5 461.5,-224.5 389.5,-224.5"/>
<text text-anchor="middle" x="425.5" y="-231.5" font-family="Helvetica,sans-Serif" font-size="10.00">SDL2/SDL.h</text>
</a>
</g>
</g>
<!-- Node8&#45;&gt;Node9 -->
<g id="edge9" class="edge">
<title>Node8&#45;&gt;Node9</title>
<path fill="none" stroke="midnightblue" d="M472.5,-280.32C464.31,-272.42 451.99,-260.55 442.03,-250.94"/>
<polygon fill="midnightblue" stroke="midnightblue" points="444.29,-248.26 434.66,-243.83 439.43,-253.29 444.29,-248.26"/>
</g>
<!-- Node11&#45;&gt;Node6 -->
<g id="edge14" class="edge">
<title>Node11&#45;&gt;Node6</title>
<path fill="none" stroke="midnightblue" d="M349.44,-392.14C346.8,-379.61 342.88,-356 345.5,-336 346.66,-327.18 349.03,-317.63 351.37,-309.61"/>
<polygon fill="midnightblue" stroke="midnightblue" points="354.79,-310.42 354.41,-299.83 348.1,-308.34 354.79,-310.42"/>
</g>
<!-- Node11&#45;&gt;Node8 -->
<g id="edge15" class="edge">
<title>Node11&#45;&gt;Node8</title>
<path fill="none" stroke="midnightblue" d="M352.97,-392.27C355.69,-378.6 362.75,-352.04 378.5,-336 393.94,-320.28 415.8,-309.67 435.41,-302.72"/>
<polygon fill="midnightblue" stroke="midnightblue" points="436.72,-305.98 445.12,-299.51 434.52,-299.33 436.72,-305.98"/>
</g>
<!-- Node12 -->
<g id="node12" class="node">
<title>Node12</title>
<g id="a_node12"><a xlink:href="inputdevicecalibration_8h.html" target="_top" xlink:title=" ">
<polygon fill="white" stroke="black" points="69.5,-336.5 69.5,-355.5 203.5,-355.5 203.5,-336.5 69.5,-336.5"/>
<text text-anchor="middle" x="136.5" y="-343.5" font-family="Helvetica,sans-Serif" font-size="10.00">inputdevicecalibration.h</text>
</a>
</g>
</g>
<!-- Node11&#45;&gt;Node12 -->
<g id="edge12" class="edge">
<title>Node11&#45;&gt;Node12</title>
<path fill="none" stroke="midnightblue" d="M317.43,-392.44C280.32,-383.12 220.84,-368.18 180.29,-358"/>
<polygon fill="midnightblue" stroke="midnightblue" points="180.96,-354.56 170.41,-355.52 179.25,-361.35 180.96,-354.56"/>
</g>
<!-- Node13 -->
<g id="node13" class="node">
<title>Node13</title>
<g id="a_node13"><a xlink:href="setjoystick_8h.html" target="_top" xlink:title=" ">
<polygon fill="white" stroke="black" points="522,-336.5 522,-355.5 601,-355.5 601,-336.5 522,-336.5"/>
<text text-anchor="middle" x="561.5" y="-343.5" font-family="Helvetica,sans-Serif" font-size="10.00">setjoystick.h</text>
</a>
</g>
</g>
<!-- Node11&#45;&gt;Node13 -->
<g id="edge16" class="edge">
<title>Node11&#45;&gt;Node13</title>
<path fill="none" stroke="midnightblue" d="M384.78,-392.44C420.95,-383.14 478.88,-368.25 518.48,-358.06"/>
<polygon fill="midnightblue" stroke="midnightblue" points="519.57,-361.4 528.38,-355.52 517.82,-354.62 519.57,-361.4"/>
</g>
<!-- Node39 -->
<g id="node39" class="node">
<title>Node39</title>
<g id="a_node39"><a xlink:title=" ">
<polygon fill="white" stroke="#bfbfbf" points="387.5,-336.5 387.5,-355.5 503.5,-355.5 503.5,-336.5 387.5,-336.5"/>
<text text-anchor="middle" x="445.5" y="-343.5" font-family="Helvetica,sans-Serif" font-size="10.00">SDL2/SDL_joystick.h</text>
</a>
</g>
</g>
<!-- Node11&#45;&gt;Node39 -->
<g id="edge53" class="edge">
<title>Node11&#45;&gt;Node39</title>
<path fill="none" stroke="midnightblue" d="M366.6,-392.32C381.4,-383.82 404.19,-370.73 421.48,-360.8"/>
<polygon fill="midnightblue" stroke="midnightblue" points="423.51,-363.67 430.43,-355.65 420.02,-357.6 423.51,-363.67"/>
</g>
<!-- Node12&#45;&gt;Node3 -->
<g id="edge13" class="edge">
<title>Node12&#45;&gt;Node3</title>
<path fill="none" stroke="midnightblue" d="M130.23,-336.08C124.86,-328.46 116.98,-317.26 110.42,-307.94"/>
<polygon fill="midnightblue" stroke="midnightblue" points="113.28,-305.91 104.66,-299.75 107.55,-309.94 113.28,-305.91"/>
</g>
<!-- Node13&#45;&gt;Node6 -->
<g id="edge49" class="edge">
<title>Node13&#45;&gt;Node6</title>
<path fill="none" stroke="midnightblue" d="M529.18,-336.44C494.11,-327.16 438,-312.31 399.54,-302.13"/>
<polygon fill="midnightblue" stroke="midnightblue" points="400.24,-298.69 389.67,-299.52 398.44,-305.46 400.24,-298.69"/>
</g>
<!-- Node13&#45;&gt;Node8 -->
<g id="edge50" class="edge">
<title>Node13&#45;&gt;Node8</title>
<path fill="none" stroke="midnightblue" d="M548.65,-336.32C536.28,-327.98 517.37,-315.21 502.76,-305.35"/>
<polygon fill="midnightblue" stroke="midnightblue" points="504.57,-302.35 494.32,-299.65 500.65,-308.15 504.57,-302.35"/>
</g>
<!-- Node14 -->
<g id="node14" class="node">
<title>Node14</title>
<g id="a_node14"><a xlink:href="joyaxis_8h.html" target="_top" xlink:title=" ">
<polygon fill="white" stroke="black" points="653,-280.5 653,-299.5 714,-299.5 714,-280.5 653,-280.5"/>
<text text-anchor="middle" x="683.5" y="-287.5" font-family="Helvetica,sans-Serif" font-size="10.00">joyaxis.h</text>
</a>
</g>
</g>
<!-- Node13&#45;&gt;Node14 -->
<g id="edge17" class="edge">
<title>Node13&#45;&gt;Node14</title>
<path fill="none" stroke="midnightblue" d="M580.83,-336.44C600.82,-327.6 632.24,-313.69 655.06,-303.59"/>
<polygon fill="midnightblue" stroke="midnightblue" points="656.53,-306.76 664.26,-299.52 653.7,-300.36 656.53,-306.76"/>
</g>
<!-- Node38 -->
<g id="node38" class="node">
<title>Node38</title>
<g id="a_node38"><a xlink:href="setjoystickxml_8h.html" target="_top" xlink:title=" ">
<polygon fill="white" stroke="black" points="480,-224.5 480,-243.5 599,-243.5 599,-224.5 480,-224.5"/>
<text text-anchor="middle" x="539.5" y="-231.5" font-family="Helvetica,sans-Serif" font-size="10.00">xml/setjoystickxml.h</text>
</a>
</g>
</g>
<!-- Node13&#45;&gt;Node38 -->
<g id="edge51" class="edge">
<title>Node13&#45;&gt;Node38</title>
<path fill="none" stroke="midnightblue" d="M559.77,-336.37C556.22,-318.62 548.03,-277.67 543.22,-253.6"/>
<polygon fill="midnightblue" stroke="midnightblue" points="546.61,-252.71 541.22,-243.59 539.75,-254.08 546.61,-252.71"/>
</g>
<!-- Node14&#45;&gt;Node4 -->
<g id="edge19" class="edge">
<title>Node14&#45;&gt;Node4</title>
<path fill="none" stroke="midnightblue" d="M675.55,-280.24C662.68,-266.51 635.94,-239.88 608.5,-224 500.96,-161.75 454.23,-190.3 344.5,-132 307.76,-112.48 292.74,-110.51 269.5,-76 260.24,-62.24 256.02,-43.72 254.1,-29.96"/>
<polygon fill="midnightblue" stroke="midnightblue" points="257.55,-29.29 252.97,-19.74 250.59,-30.06 257.55,-29.29"/>
</g>
<!-- Node15 -->
<g id="node15" class="node">
<title>Node15</title>
<g id="a_node15"><a xlink:title=" ">
<polygon fill="white" stroke="#bfbfbf" points="824,-0.5 824,-19.5 865,-19.5 865,-0.5 824,-0.5"/>
<text text-anchor="middle" x="844.5" y="-7.5" font-family="Helvetica,sans-Serif" font-size="10.00">QList</text>
</a>
</g>
</g>
<!-- Node14&#45;&gt;Node15 -->
<g id="edge18" class="edge">
<title>Node14&#45;&gt;Node15</title>
<path fill="none" stroke="midnightblue" d="M714.13,-286.6C835.56,-276.71 1276.5,-236.79 1276.5,-179 1276.5,-179 1276.5,-179 1276.5,-121 1276.5,-90.9 1280.57,-75.33 1257.5,-56 1228.32,-31.54 966.27,-16.82 875.38,-12.41"/>
<polygon fill="midnightblue" stroke="midnightblue" points="875.33,-8.9 865.17,-11.92 874.99,-15.89 875.33,-8.9"/>
</g>
<!-- Node16 -->
<g id="node16" class="node">
<title>Node16</title>
<g id="a_node16"><a xlink:href="joyaxisbutton_8h.html" target="_top" xlink:title=" ">
<polygon fill="white" stroke="black" points="655,-224.5 655,-243.5 824,-243.5 824,-224.5 655,-224.5"/>
<text text-anchor="middle" x="739.5" y="-231.5" font-family="Helvetica,sans-Serif" font-size="10.00">joybuttontypes/joyaxisbutton.h</text>
</a>
</g>
</g>
<!-- Node14&#45;&gt;Node16 -->
<g id="edge20" class="edge">
<title>Node14&#45;&gt;Node16</title>
<path fill="none" stroke="midnightblue" d="M692.5,-280.32C700.69,-272.42 713.01,-260.55 722.97,-250.94"/>
<polygon fill="midnightblue" stroke="midnightblue" points="725.57,-253.29 730.34,-243.83 720.71,-248.26 725.57,-253.29"/>
</g>
<!-- Node17 -->
<g id="node17" class="node">
<title>Node17</title>
<g id="a_node17"><a xlink:href="joygradientbutton_8h.html" target="_top" xlink:title=" ">
<polygon fill="white" stroke="black" points="731,-168.5 731,-187.5 920,-187.5 920,-168.5 731,-168.5"/>
<text text-anchor="middle" x="825.5" y="-175.5" font-family="Helvetica,sans-Serif" font-size="10.00">joybuttontypes/joygradientbutton.h</text>
</a>
</g>
</g>
<!-- Node16&#45;&gt;Node17 -->
<g id="edge21" class="edge">
<title>Node16&#45;&gt;Node17</title>
<path fill="none" stroke="midnightblue" d="M753.32,-224.32C766.73,-215.9 787.32,-202.97 803.09,-193.07"/>
<polygon fill="midnightblue" stroke="midnightblue" points="805.11,-195.94 811.72,-187.65 801.39,-190.01 805.11,-195.94"/>
</g>
<!-- Node33 -->
<g id="node33" class="node">
<title>Node33</title>
<g id="a_node33"><a xlink:href="logger_8h.html" target="_top" xlink:title=" ">
<polygon fill="white" stroke="black" points="574.5,-168.5 574.5,-187.5 630.5,-187.5 630.5,-168.5 574.5,-168.5"/>
<text text-anchor="middle" x="602.5" y="-175.5" font-family="Helvetica,sans-Serif" font-size="10.00">logger.h</text>
</a>
</g>
</g>
<!-- Node16&#45;&gt;Node33 -->
<g id="edge42" class="edge">
<title>Node16&#45;&gt;Node33</title>
<path fill="none" stroke="midnightblue" d="M717.79,-224.44C695.15,-215.52 659.43,-201.44 633.75,-191.32"/>
<polygon fill="midnightblue" stroke="midnightblue" points="634.69,-187.93 624.11,-187.52 632.13,-194.44 634.69,-187.93"/>
</g>
<!-- Node18 -->
<g id="node18" class="node">
<title>Node18</title>
<g id="a_node18"><a xlink:href="joybutton_8h.html" target="_top" xlink:title=" ">
<polygon fill="white" stroke="black" points="789.5,-112.5 789.5,-131.5 861.5,-131.5 861.5,-112.5 789.5,-112.5"/>
<text text-anchor="middle" x="825.5" y="-119.5" font-family="Helvetica,sans-Serif" font-size="10.00">joybutton.h</text>
</a>
</g>
</g>
<!-- Node17&#45;&gt;Node18 -->
<g id="edge22" class="edge">
<title>Node17&#45;&gt;Node18</title>
<path fill="none" stroke="midnightblue" d="M825.5,-168.08C825.5,-161.01 825.5,-150.86 825.5,-141.99"/>
<polygon fill="midnightblue" stroke="midnightblue" points="829,-141.75 825.5,-131.75 822,-141.75 829,-141.75"/>
</g>
<!-- Node18&#45;&gt;Node5 -->
<g id="edge41" class="edge">
<title>Node18&#45;&gt;Node5</title>
<path fill="none" stroke="midnightblue" d="M789.46,-114.71C783.15,-113.72 776.64,-112.77 770.5,-112 593.15,-89.7 543.79,-105.57 363.24,-75.84"/>
<polygon fill="midnightblue" stroke="midnightblue" points="363.58,-72.35 353.14,-74.15 362.42,-79.25 363.58,-72.35"/>
</g>
<!-- Node19 -->
<g id="node19" class="node">
<title>Node19</title>
<g id="a_node19"><a xlink:href="globalvariables_8h.html" target="_top" xlink:title=" ">
<polygon fill="white" stroke="black" points="601,-56.5 601,-75.5 702,-75.5 702,-56.5 601,-56.5"/>
<text text-anchor="middle" x="651.5" y="-63.5" font-family="Helvetica,sans-Serif" font-size="10.00">globalvariables.h</text>
</a>
</g>
</g>
<!-- Node18&#45;&gt;Node19 -->
<g id="edge23" class="edge">
<title>Node18&#45;&gt;Node19</title>
<path fill="none" stroke="midnightblue" d="M797.93,-112.44C768.4,-103.28 721.38,-88.69 688.62,-78.52"/>
<polygon fill="midnightblue" stroke="midnightblue" points="689.53,-75.14 678.94,-75.52 687.46,-81.82 689.53,-75.14"/>
</g>
<!-- Node20 -->
<g id="node20" class="node">
<title>Node20</title>
<g id="a_node20"><a xlink:href="joybuttonmousehelper_8h.html" target="_top" xlink:title=" ">
<polygon fill="white" stroke="black" points="448,-56.5 448,-75.5 583,-75.5 583,-56.5 448,-56.5"/>
<text text-anchor="middle" x="515.5" y="-63.5" font-family="Helvetica,sans-Serif" font-size="10.00">joybuttonmousehelper.h</text>
</a>
</g>
</g>
<!-- Node18&#45;&gt;Node20 -->
<g id="edge26" class="edge">
<title>Node18&#45;&gt;Node20</title>
<path fill="none" stroke="midnightblue" d="M789.33,-114.7C736.5,-105.5 637.63,-88.27 574.26,-77.24"/>
<polygon fill="midnightblue" stroke="midnightblue" points="574.86,-73.79 564.41,-75.52 573.66,-80.68 574.86,-73.79"/>
</g>
<!-- Node21 -->
<g id="node21" class="node">
<title>Node21</title>
<g id="a_node21"><a xlink:href="joybuttonslot_8h.html" target="_top" xlink:title=" ">
<polygon fill="white" stroke="black" points="1304.5,-56.5 1304.5,-75.5 1394.5,-75.5 1394.5,-56.5 1304.5,-56.5"/>
<text text-anchor="middle" x="1349.5" y="-63.5" font-family="Helvetica,sans-Serif" font-size="10.00">joybuttonslot.h</text>
</a>
</g>
</g>
<!-- Node18&#45;&gt;Node21 -->
<g id="edge28" class="edge">
<title>Node18&#45;&gt;Node21</title>
<path fill="none" stroke="midnightblue" d="M861.52,-117.29C951.56,-108.01 1186.95,-83.75 1294.48,-72.67"/>
<polygon fill="midnightblue" stroke="midnightblue" points="1294.89,-76.15 1304.48,-71.64 1294.17,-69.18 1294.89,-76.15"/>
</g>
<!-- Node27 -->
<g id="node27" class="node">
<title>Node27</title>
<g id="a_node27"><a xlink:href="springmousemoveinfo_8h.html" target="_top" xlink:title=" ">
<polygon fill="white" stroke="black" points="999,-56.5 999,-75.5 1134,-75.5 1134,-56.5 999,-56.5"/>
<text text-anchor="middle" x="1066.5" y="-63.5" font-family="Helvetica,sans-Serif" font-size="10.00">springmousemoveinfo.h</text>
</a>
</g>
</g>
<!-- Node18&#45;&gt;Node27 -->
<g id="edge35" class="edge">
<title>Node18&#45;&gt;Node27</title>
<path fill="none" stroke="midnightblue" d="M861.58,-112.92C903.3,-103.57 972.14,-88.14 1018.38,-77.78"/>
<polygon fill="midnightblue" stroke="midnightblue" points="1019.19,-81.19 1028.18,-75.59 1017.66,-74.36 1019.19,-81.19"/>
</g>
<!-- Node28 -->
<g id="node28" class="node">
<title>Node28</title>
<g id="a_node28"><a xlink:title=" ">
<polygon fill="white" stroke="#bfbfbf" points="1152.5,-56.5 1152.5,-75.5 1248.5,-75.5 1248.5,-56.5 1152.5,-56.5"/>
<text text-anchor="middle" x="1200.5" y="-63.5" font-family="Helvetica,sans-Serif" font-size="10.00">QDeadlineTimer</text>
</a>
</g>
</g>
<!-- Node18&#45;&gt;Node28 -->
<g id="edge36" class="edge">
<title>Node18&#45;&gt;Node28</title>
<path fill="none" stroke="midnightblue" d="M861.77,-116.06C919.05,-108.22 1034.24,-92.27 1142.22,-76.17"/>
<polygon fill="midnightblue" stroke="midnightblue" points="1142.93,-79.61 1152.31,-74.67 1141.9,-72.68 1142.93,-79.61"/>
</g>
<!-- Node29 -->
<g id="node29" class="node">
<title>Node29</title>
<g id="a_node29"><a xlink:title=" ">
<polygon fill="white" stroke="#bfbfbf" points="720.5,-56.5 720.5,-75.5 776.5,-75.5 776.5,-56.5 720.5,-56.5"/>
<text text-anchor="middle" x="748.5" y="-63.5" font-family="Helvetica,sans-Serif" font-size="10.00">QQueue</text>
</a>
</g>
</g>
<!-- Node18&#45;&gt;Node29 -->
<g id="edge37" class="edge">
<title>Node18&#45;&gt;Node29</title>
<path fill="none" stroke="midnightblue" d="M813.13,-112.32C801.34,-104.06 783.37,-91.45 769.36,-81.63"/>
<polygon fill="midnightblue" stroke="midnightblue" points="771.04,-78.53 760.84,-75.65 767.02,-84.26 771.04,-78.53"/>
</g>
<!-- Node30 -->
<g id="node30" class="node">
<title>Node30</title>
<g id="a_node30"><a xlink:title=" ">
<polygon fill="white" stroke="#bfbfbf" points="794.5,-56.5 794.5,-75.5 892.5,-75.5 892.5,-56.5 794.5,-56.5"/>
<text text-anchor="middle" x="843.5" y="-63.5" font-family="Helvetica,sans-Serif" font-size="10.00">QReadWriteLock</text>
</a>
</g>
</g>
<!-- Node18&#45;&gt;Node30 -->
<g id="edge38" class="edge">
<title>Node18&#45;&gt;Node30</title>
<path fill="none" stroke="midnightblue" d="M828.47,-112.08C830.88,-104.85 834.36,-94.41 837.37,-85.4"/>
<polygon fill="midnightblue" stroke="midnightblue" points="840.74,-86.34 840.58,-75.75 834.1,-84.13 840.74,-86.34"/>
</g>
<!-- Node31 -->
<g id="node31" class="node">
<title>Node31</title>
<g id="a_node31"><a xlink:title=" ">
<polygon fill="white" stroke="#bfbfbf" points="910.5,-56.5 910.5,-75.5 980.5,-75.5 980.5,-56.5 910.5,-56.5"/>
<text text-anchor="middle" x="945.5" y="-63.5" font-family="Helvetica,sans-Serif" font-size="10.00">QRunnable</text>
</a>
</g>
</g>
<!-- Node18&#45;&gt;Node31 -->
<g id="edge39" class="edge">
<title>Node18&#45;&gt;Node31</title>
<path fill="none" stroke="midnightblue" d="M844.51,-112.44C864.09,-103.64 894.81,-89.81 917.23,-79.72"/>
<polygon fill="midnightblue" stroke="midnightblue" points="918.89,-82.81 926.57,-75.52 916.02,-76.43 918.89,-82.81"/>
</g>
<!-- Node32 -->
<g id="node32" class="node">
<title>Node32</title>
<g id="a_node32"><a xlink:title=" ">
<polygon fill="white" stroke="#bfbfbf" points="371.5,-56.5 371.5,-75.5 429.5,-75.5 429.5,-56.5 371.5,-56.5"/>
<text text-anchor="middle" x="400.5" y="-63.5" font-family="Helvetica,sans-Serif" font-size="10.00">QThread</text>
</a>
</g>
</g>
<!-- Node18&#45;&gt;Node32 -->
<g id="edge40" class="edge">
<title>Node18&#45;&gt;Node32</title>
<path fill="none" stroke="midnightblue" d="M789.45,-114.82C783.14,-113.82 776.64,-112.84 770.5,-112 627.02,-92.47 587.11,-100.32 439.68,-75.82"/>
<polygon fill="midnightblue" stroke="midnightblue" points="440.25,-72.37 429.81,-74.16 439.09,-79.27 440.25,-72.37"/>
</g>
<!-- Node19&#45;&gt;Node4 -->
<g id="edge25" class="edge">
<title>Node19&#45;&gt;Node4</title>
<path fill="none" stroke="midnightblue" d="M600.98,-57.23C598.11,-56.81 595.27,-56.39 592.5,-56 483.28,-40.44 354.06,-23.83 291,-15.84"/>
<polygon fill="midnightblue" stroke="midnightblue" points="291.1,-12.33 280.74,-14.55 290.22,-19.27 291.1,-12.33"/>
</g>
<!-- Node19&#45;&gt;Node15 -->
<g id="edge24" class="edge">
<title>Node19&#45;&gt;Node15</title>
<path fill="none" stroke="midnightblue" d="M682.08,-56.44C718.17,-46.35 777.81,-29.66 813.9,-19.56"/>
<polygon fill="midnightblue" stroke="midnightblue" points="815.17,-22.84 823.85,-16.78 813.28,-16.1 815.17,-22.84"/>
</g>
<!-- Node20&#45;&gt;Node4 -->
<g id="edge27" class="edge">
<title>Node20&#45;&gt;Node4</title>
<path fill="none" stroke="midnightblue" d="M473.83,-56.44C423.39,-46.09 339.18,-28.8 290.47,-18.8"/>
<polygon fill="midnightblue" stroke="midnightblue" points="291.13,-15.36 280.63,-16.78 289.73,-22.22 291.13,-15.36"/>
</g>
<!-- Node21&#45;&gt;Node4 -->
<g id="edge30" class="edge">
<title>Node21&#45;&gt;Node4</title>
<path fill="none" stroke="midnightblue" d="M1304.15,-60.08C1289.3,-58.6 1272.71,-57.08 1257.5,-56 880.95,-29.17 423.81,-15.57 290.61,-11.98"/>
<polygon fill="midnightblue" stroke="midnightblue" points="290.6,-8.48 280.51,-11.71 290.41,-15.48 290.6,-8.48"/>
</g>
<!-- Node22 -->
<g id="node22" class="node">
<title>Node22</title>
<g id="a_node22"><a xlink:title=" ">
<polygon fill="white" stroke="#bfbfbf" points="1304,-0.5 1304,-19.5 1395,-19.5 1395,-0.5 1304,-0.5"/>
<text text-anchor="middle" x="1349.5" y="-7.5" font-family="Helvetica,sans-Serif" font-size="10.00">QElapsedTimer</text>
</a>
</g>
</g>
<!-- Node21&#45;&gt;Node22 -->
<g id="edge29" class="edge">
<title>Node21&#45;&gt;Node22</title>
<path fill="none" stroke="midnightblue" d="M1349.5,-56.08C1349.5,-49.01 1349.5,-38.86 1349.5,-29.99"/>
<polygon fill="midnightblue" stroke="midnightblue" points="1353,-29.75 1349.5,-19.75 1346,-29.75 1353,-29.75"/>
</g>
<!-- Node23 -->
<g id="node23" class="node">
<title>Node23</title>
<g id="a_node23"><a xlink:title=" ">
<polygon fill="white" stroke="#bfbfbf" points="1413,-0.5 1413,-19.5 1472,-19.5 1472,-0.5 1413,-0.5"/>
<text text-anchor="middle" x="1442.5" y="-7.5" font-family="Helvetica,sans-Serif" font-size="10.00">QPointer</text>
</a>
</g>
</g>
<!-- Node21&#45;&gt;Node23 -->
<g id="edge31" class="edge">
<title>Node21&#45;&gt;Node23</title>
<path fill="none" stroke="midnightblue" d="M1364.44,-56.32C1379.09,-47.82 1401.63,-34.73 1418.74,-24.8"/>
<polygon fill="midnightblue" stroke="midnightblue" points="1420.7,-27.7 1427.6,-19.65 1417.19,-21.65 1420.7,-27.7"/>
</g>
<!-- Node24 -->
<g id="node24" class="node">
<title>Node24</title>
<g id="a_node24"><a xlink:title=" ">
<polygon fill="white" stroke="#bfbfbf" points="1490,-0.5 1490,-19.5 1539,-19.5 1539,-0.5 1490,-0.5"/>
<text text-anchor="middle" x="1514.5" y="-7.5" font-family="Helvetica,sans-Serif" font-size="10.00">QTime</text>
</a>
</g>
</g>
<!-- Node21&#45;&gt;Node24 -->
<g id="edge32" class="edge">
<title>Node21&#45;&gt;Node24</title>
<path fill="none" stroke="midnightblue" d="M1375.64,-56.44C1403.93,-47.19 1449.16,-32.39 1480.26,-22.21"/>
<polygon fill="midnightblue" stroke="midnightblue" points="1481.41,-25.51 1489.83,-19.08 1479.23,-18.86 1481.41,-25.51"/>
</g>
<!-- Node25 -->
<g id="node25" class="node">
<title>Node25</title>
<g id="a_node25"><a xlink:title=" ">
<polygon fill="white" stroke="#bfbfbf" points="1076,-0.5 1076,-19.5 1135,-19.5 1135,-0.5 1076,-0.5"/>
<text text-anchor="middle" x="1105.5" y="-7.5" font-family="Helvetica,sans-Serif" font-size="10.00">QVariant</text>
</a>
</g>
</g>
<!-- Node21&#45;&gt;Node25 -->
<g id="edge33" class="edge">
<title>Node21&#45;&gt;Node25</title>
<path fill="none" stroke="midnightblue" d="M1310.17,-56.5C1270.9,-47.98 1208.55,-34.38 1145.08,-20.11"/>
<polygon fill="midnightblue" stroke="midnightblue" points="1145.83,-16.69 1135.3,-17.91 1144.29,-23.52 1145.83,-16.69"/>
</g>
<!-- Node26 -->
<g id="node26" class="node">
<title>Node26</title>
<g id="a_node26"><a xlink:title=" ">
<polygon fill="white" stroke="#bfbfbf" points="1153,-0.5 1153,-19.5 1286,-19.5 1286,-0.5 1153,-0.5"/>
<text text-anchor="middle" x="1219.5" y="-7.5" font-family="Helvetica,sans-Serif" font-size="10.00">QtWidgets/QApplication</text>
</a>
</g>
</g>
<!-- Node21&#45;&gt;Node26 -->
<g id="edge34" class="edge">
<title>Node21&#45;&gt;Node26</title>
<path fill="none" stroke="midnightblue" d="M1328.9,-56.44C1307.51,-47.56 1273.82,-33.56 1249.48,-23.45"/>
<polygon fill="midnightblue" stroke="midnightblue" points="1250.58,-20.12 1240,-19.52 1247.89,-26.58 1250.58,-20.12"/>
</g>
<!-- Node33&#45;&gt;Node4 -->
<g id="edge45" class="edge">
<title>Node33&#45;&gt;Node4</title>
<path fill="none" stroke="midnightblue" d="M574.06,-174.93C514.71,-169.23 376.08,-148.5 290.5,-76 275.73,-63.49 265.34,-43.71 259.19,-29.25"/>
<polygon fill="midnightblue" stroke="midnightblue" points="262.41,-27.85 255.47,-19.84 255.9,-30.43 262.41,-27.85"/>
</g>
<!-- Node33&#45;&gt;Node32 -->
<g id="edge47" class="edge">
<title>Node33&#45;&gt;Node32</title>
<path fill="none" stroke="midnightblue" d="M574.36,-171.79C545.45,-165.55 499.94,-153.18 465.5,-132 444.79,-119.26 425.7,-98.66 413.65,-84.07"/>
<polygon fill="midnightblue" stroke="midnightblue" points="416.08,-81.5 407.1,-75.88 410.61,-85.88 416.08,-81.5"/>
</g>
<!-- Node34 -->
<g id="node34" class="node">
<title>Node34</title>
<g id="a_node34"><a xlink:title=" ">
<polygon fill="white" stroke="#bfbfbf" points="549,-112.5 549,-131.5 590,-131.5 590,-112.5 549,-112.5"/>
<text text-anchor="middle" x="569.5" y="-119.5" font-family="Helvetica,sans-Serif" font-size="10.00">QFile</text>
</a>
</g>
</g>
<!-- Node33&#45;&gt;Node34 -->
<g id="edge43" class="edge">
<title>Node33&#45;&gt;Node34</title>
<path fill="none" stroke="midnightblue" d="M597.05,-168.08C592.49,-160.61 585.83,-149.72 580.21,-140.52"/>
<polygon fill="midnightblue" stroke="midnightblue" points="583.05,-138.46 574.85,-131.75 577.08,-142.11 583.05,-138.46"/>
</g>
<!-- Node35 -->
<g id="node35" class="node">
<title>Node35</title>
<g id="a_node35"><a xlink:title=" ">
<polygon fill="white" stroke="#bfbfbf" points="608,-112.5 608,-131.5 663,-131.5 663,-112.5 608,-112.5"/>
<text text-anchor="middle" x="635.5" y="-119.5" font-family="Helvetica,sans-Serif" font-size="10.00">QMutex</text>
</a>
</g>
</g>
<!-- Node33&#45;&gt;Node35 -->
<g id="edge44" class="edge">
<title>Node33&#45;&gt;Node35</title>
<path fill="none" stroke="midnightblue" d="M607.95,-168.08C612.51,-160.61 619.17,-149.72 624.79,-140.52"/>
<polygon fill="midnightblue" stroke="midnightblue" points="627.92,-142.11 630.15,-131.75 621.95,-138.46 627.92,-142.11"/>
</g>
<!-- Node36 -->
<g id="node36" class="node">
<title>Node36</title>
<g id="a_node36"><a xlink:title=" ">
<polygon fill="white" stroke="#bfbfbf" points="681.5,-112.5 681.5,-131.5 761.5,-131.5 761.5,-112.5 681.5,-112.5"/>
<text text-anchor="middle" x="721.5" y="-119.5" font-family="Helvetica,sans-Serif" font-size="10.00">QTextStream</text>
</a>
</g>
</g>
<!-- Node33&#45;&gt;Node36 -->
<g id="edge46" class="edge">
<title>Node33&#45;&gt;Node36</title>
<path fill="none" stroke="midnightblue" d="M621.36,-168.44C640.77,-159.64 671.23,-145.81 693.46,-135.72"/>
<polygon fill="midnightblue" stroke="midnightblue" points="695.07,-138.84 702.73,-131.52 692.18,-132.46 695.07,-138.84"/>
</g>
<!-- Node37 -->
<g id="node37" class="node">
<title>Node37</title>
<g id="a_node37"><a xlink:title=" ">
<polygon fill="white" stroke="#bfbfbf" points="474.5,-112.5 474.5,-131.5 530.5,-131.5 530.5,-112.5 474.5,-112.5"/>
<text text-anchor="middle" x="502.5" y="-119.5" font-family="Helvetica,sans-Serif" font-size="10.00">sstream</text>
</a>
</g>
</g>
<!-- Node33&#45;&gt;Node37 -->
<g id="edge48" class="edge">
<title>Node33&#45;&gt;Node37</title>
<path fill="none" stroke="midnightblue" d="M586.43,-168.32C570.54,-159.74 545.99,-146.49 527.54,-136.52"/>
<polygon fill="midnightblue" stroke="midnightblue" points="528.99,-133.33 518.53,-131.65 525.66,-139.49 528.99,-133.33"/>
</g>
<!-- Node38&#45;&gt;Node4 -->
<g id="edge52" class="edge">
<title>Node38&#45;&gt;Node4</title>
<path fill="none" stroke="midnightblue" d="M488.98,-224.46C407.19,-209.48 251.66,-175.87 219.5,-132 199.53,-104.76 208.99,-88.1 219.5,-56 222.99,-45.34 230.07,-35.12 236.79,-27.12"/>
<polygon fill="midnightblue" stroke="midnightblue" points="239.4,-29.44 243.48,-19.66 234.2,-24.76 239.4,-29.44"/>
</g>
<!-- Node40&#45;&gt;Node6 -->
<g id="edge56" class="edge">
<title>Node40&#45;&gt;Node6</title>
<path fill="none" stroke="midnightblue" d="M653.72,-336.44C591.03,-326.83 489.35,-311.23 422.95,-301.04"/>
<polygon fill="midnightblue" stroke="midnightblue" points="423.43,-297.57 413.01,-299.52 422.37,-304.49 423.43,-297.57"/>
</g>
<!-- Node40&#45;&gt;Node8 -->
<g id="edge57" class="edge">
<title>Node40&#45;&gt;Node8</title>
<path fill="none" stroke="midnightblue" d="M673.37,-336.44C633.85,-327.08 570.4,-312.06 527.39,-301.87"/>
<polygon fill="midnightblue" stroke="midnightblue" points="528,-298.42 517.46,-299.52 526.38,-305.23 528,-298.42"/>
</g>
<!-- Node40&#45;&gt;Node17 -->
<g id="edge55" class="edge">
<title>Node40&#45;&gt;Node17</title>
<path fill="none" stroke="midnightblue" d="M754.27,-336.5C778.18,-329.98 806.68,-318.8 826.5,-300 852.3,-275.53 860.71,-258.35 851.5,-224 848.85,-214.1 843.43,-204.13 838.23,-196.1"/>
<polygon fill="midnightblue" stroke="midnightblue" points="840.96,-193.91 832.39,-187.68 835.21,-197.89 840.96,-193.91"/>
</g>
<!-- Node40&#45;&gt;Node33 -->
<g id="edge58" class="edge">
<title>Node40&#45;&gt;Node33</title>
<path fill="none" stroke="midnightblue" d="M731.2,-336.4C776,-317.45 871.47,-270.08 833.5,-224 809.54,-194.92 700.21,-184.39 640.95,-180.77"/>
<polygon fill="midnightblue" stroke="midnightblue" points="641.04,-177.27 630.85,-180.19 640.63,-184.25 641.04,-177.27"/>
</g>
<!-- Node41&#45;&gt;Node4 -->
<g id="edge60" class="edge">
<title>Node41&#45;&gt;Node4</title>
<path fill="none" stroke="midnightblue" d="M60.05,-168.37C69.46,-146.53 97.1,-88.46 137.5,-56 159.87,-38.02 190.3,-26.54 214.23,-19.68"/>
<polygon fill="midnightblue" stroke="midnightblue" points="215.31,-23.01 224.05,-17.01 213.48,-16.25 215.31,-23.01"/>
</g>
</g>
</svg>
        <g id="navigator" transform="translate(0 0)" fill="#404254">
                <rect fill="#f2f5e9" fill-opacity="0.5" stroke="#606060" stroke-width=".5" x="0" y="0" width="60" height="60"/>
                <use id="zoomplus" xlink:href="#zoomPlus" x="17" y="9" onmousedown="handleZoom(evt,'in')"/>
                <use id="zoomminus" xlink:href="#zoomMin" x="42" y="9" onmousedown="handleZoom(evt,'out')"/>
                <use id="reset" xlink:href="#resetDef" x="30" y="36" onmousedown="handleReset()"/>
                <g id="arrowUp" xlink:href="#dirArrow" transform="translate(30 24)" onmousedown="handlePan(0,-1)">
                  <use xlink:href="#rim" fill="#404040">
                        <set attributeName="fill" to="#808080" begin="arrowUp.mouseover" end="arrowUp.mouseout"/>
                  </use>
                  <path fill="none" stroke="white" stroke-width="1.5" d="M0,-3.0v7 M-2.5,-0.5L0,-3.0L2.5,-0.5"/>
                </g>
                <g id="arrowRight" xlink:href="#dirArrow" transform="rotate(90) translate(36 -43)" onmousedown="handlePan(1,0)">
                  <use xlink:href="#rim" fill="#404040">
                        <set attributeName="fill" to="#808080" begin="arrowRight.mouseover" end="arrowRight.mouseout"/>
                  </use>
                  <path fill="none" stroke="white" stroke-width="1.5" d="M0,-3.0v7 M-2.5,-0.5L0,-3.0L2.5,-0.5"/>
                </g>
                <g id="arrowDown" xlink:href="#dirArrow" transform="rotate(180) translate(-30 -48)" onmousedown="handlePan(0,1)">
                  <use xlink:href="#rim" fill="#404040">
                        <set attributeName="fill" to="#808080" begin="arrowDown.mouseover" end="arrowDown.mouseout"/>
                  </use>
                  <path fill="none" stroke="white" stroke-width="1.5" d="M0,-3.0v7 M-2.5,-0.5L0,-3.0L2.5,-0.5"/>
                </g>
                <g id="arrowLeft" xlink:href="#dirArrow" transform="rotate(270) translate(-36 17)" onmousedown="handlePan(-1,0)">
                  <use xlink:href="#rim" fill="#404040">
                        <set attributeName="fill" to="#808080" begin="arrowLeft.mouseover" end="arrowLeft.mouseout"/>
                  </use>
                  <path fill="none" stroke="white" stroke-width="1.5" d="M0,-3.0v7 M-2.5,-0.5L0,-3.0L2.5,-0.5"/>
                </g>
        </g>
        <svg viewBox="0 0 15 15" width="100%" height="30px" preserveAspectRatio="xMaxYMin meet">
         <g id="arrow_out" transform="scale(0.3 0.3)">
          <a xlink:href="joysensor_8cpp__incl_org.svg" target="_base">
           <rect id="button" ry="5" rx="5" y="6" x="6" height="38" width="38"
                fill="#f2f5e9" fill-opacity="0.5" stroke="#606060" stroke-width="1.0"/>
           <path id="arrow"
             d="M 11.500037,31.436501 C 11.940474,20.09759 22.043105,11.32322 32.158766,21.979434 L 37.068811,17.246167 C 37.068811,17.246167 37.088388,32 37.088388,32 L 22.160133,31.978069 C 22.160133,31.978069 26.997745,27.140456 26.997745,27.140456 C 18.528582,18.264221 13.291696,25.230495 11.500037,31.436501 z"
             style="fill:#404040;"/>
          </a>
         </g>
        </svg>
</svg>
