<?xml version="1.0" encoding="UTF-8" standalone="no"?>
<!DOCTYPE svg PUBLIC "-//W3C//DTD SVG 1.1//EN"
 "http://www.w3.org/Graphics/SVG/1.1/DTD/svg11.dtd">
<!-- Generated by graphviz version 2.43.0 (0)
 -->
<!-- Title: /home/runner/work/doxygen/antimicrox/src/gui/joytabwidget.h Pages: 1 -->
<svg width="921pt" height="106pt"
 viewBox="0.00 0.00 920.50 106.00" xmlns="http://www.w3.org/2000/svg" xmlns:xlink="http://www.w3.org/1999/xlink">
<g id="graph0" class="graph" transform="scale(1 1) rotate(0) translate(4 102)">
<title>/home/runner/work/doxygen/antimicrox/src/gui/joytabwidget.h</title>
<polygon fill="white" stroke="transparent" points="-4,4 -4,-102 916.5,-102 916.5,4 -4,4"/>
<!-- Node1 -->
<g id="node1" class="node">
<title>Node1</title>
<g id="a_node1"><a xlink:title=" ">
<polygon fill="#bfbfbf" stroke="black" points="374,-67.5 374,-97.5 557,-97.5 557,-67.5 374,-67.5"/>
<text text-anchor="start" x="382" y="-85.5" font-family="Helvetica,sans-Serif" font-size="10.00">/home/runner/work/doxygen</text>
<text text-anchor="middle" x="465.5" y="-74.5" font-family="Helvetica,sans-Serif" font-size="10.00">/antimicrox/src/gui/joytabwidget.h</text>
</a>
</g>
</g>
<!-- Node2 -->
<g id="node2" class="node">
<title>Node2</title>
<g id="a_node2"><a xlink:href="advancebuttondialog_8cpp.html" target="_top" xlink:title=" ">
<polygon fill="white" stroke="black" points="0,-0.5 0,-30.5 233,-30.5 233,-0.5 0,-0.5"/>
<text text-anchor="start" x="8" y="-18.5" font-family="Helvetica,sans-Serif" font-size="10.00">/home/runner/work/doxygen</text>
<text text-anchor="middle" x="116.5" y="-7.5" font-family="Helvetica,sans-Serif" font-size="10.00">/antimicrox/src/gui/advancebuttondialog.cpp</text>
</a>
</g>
</g>
<!-- Node1&#45;&gt;Node2 -->
<g id="edge1" class="edge">
<title>Node1&#45;&gt;Node2</title>
<path fill="none" stroke="midnightblue" d="M380.04,-65.58C322.49,-54.86 247.3,-40.86 191.96,-30.55"/>
<polygon fill="midnightblue" stroke="midnightblue" points="379.73,-69.09 390.2,-67.48 381.01,-62.2 379.73,-69.09"/>
</g>
<!-- Node3 -->
<g id="node3" class="node">
<title>Node3</title>
<g id="a_node3"><a xlink:href="joytabwidget_8cpp.html" target="_top" xlink:title=" ">
<polygon fill="white" stroke="black" points="251.5,-0.5 251.5,-30.5 445.5,-30.5 445.5,-0.5 251.5,-0.5"/>
<text text-anchor="start" x="259.5" y="-18.5" font-family="Helvetica,sans-Serif" font-size="10.00">/home/runner/work/doxygen</text>
<text text-anchor="middle" x="348.5" y="-7.5" font-family="Helvetica,sans-Serif" font-size="10.00">/antimicrox/src/gui/joytabwidget.cpp</text>
</a>
</g>
</g>
<!-- Node1&#45;&gt;Node3 -->
<g id="edge2" class="edge">
<title>Node1&#45;&gt;Node3</title>
<path fill="none" stroke="midnightblue" d="M431.18,-62.44C412.83,-52.24 390.62,-39.9 373.84,-30.58"/>
<polygon fill="midnightblue" stroke="midnightblue" points="429.67,-65.6 440.11,-67.4 433.07,-59.48 429.67,-65.6"/>
</g>
<!-- Node4 -->
<g id="node4" class="node">
<title>Node4</title>
<g id="a_node4"><a xlink:href="joytabwidgetcontainer_8cpp.html" target="_top" xlink:title=" ">
<polygon fill="white" stroke="black" points="463,-0.5 463,-30.5 702,-30.5 702,-0.5 463,-0.5"/>
<text text-anchor="start" x="471" y="-18.5" font-family="Helvetica,sans-Serif" font-size="10.00">/home/runner/work/doxygen</text>
<text text-anchor="middle" x="582.5" y="-7.5" font-family="Helvetica,sans-Serif" font-size="10.00">/antimicrox/src/gui/joytabwidgetcontainer.cpp</text>
</a>
</g>
</g>
<!-- Node1&#45;&gt;Node4 -->
<g id="edge3" class="edge">
<title>Node1&#45;&gt;Node4</title>
<path fill="none" stroke="midnightblue" d="M499.82,-62.44C518.17,-52.24 540.38,-39.9 557.16,-30.58"/>
<polygon fill="midnightblue" stroke="midnightblue" points="497.93,-59.48 490.89,-67.4 501.33,-65.6 497.93,-59.48"/>
</g>
<!-- Node5 -->
<g id="node5" class="node">
<title>Node5</title>
<g id="a_node5"><a xlink:href="mainwindow_8cpp.html" target="_top" xlink:title=" ">
<polygon fill="white" stroke="black" points="720.5,-0.5 720.5,-30.5 912.5,-30.5 912.5,-0.5 720.5,-0.5"/>
<text text-anchor="start" x="728.5" y="-18.5" font-family="Helvetica,sans-Serif" font-size="10.00">/home/runner/work/doxygen</text>
<text text-anchor="middle" x="816.5" y="-7.5" font-family="Helvetica,sans-Serif" font-size="10.00">/antimicrox/src/gui/mainwindow.cpp</text>
</a>
</g>
</g>
<!-- Node1&#45;&gt;Node5 -->
<g id="edge4" class="edge">
<title>Node1&#45;&gt;Node5</title>
<path fill="none" stroke="midnightblue" d="M551.1,-65.65C609.02,-54.92 684.84,-40.88 740.6,-30.55"/>
<polygon fill="midnightblue" stroke="midnightblue" points="550.43,-62.21 541.23,-67.48 551.7,-69.1 550.43,-62.21"/>
</g>
</g>
</svg>
