<?xml version="1.0" encoding="UTF-8" standalone="no"?>
<!DOCTYPE svg PUBLIC "-//W3C//DTD SVG 1.1//EN"
 "http://www.w3.org/Graphics/SVG/1.1/DTD/svg11.dtd">
<!-- Generated by graphviz version 2.43.0 (0)
 -->
<!-- Title: /home/runner/work/doxygen/antimicrox/src/mousedialog/uihelpers/mouseaxissettingsdialoghelper.cpp Pages: 1 -->
<svg width="1640pt" height="386pt"
 viewBox="0.00 0.00 1639.51 386.00" xmlns="http://www.w3.org/2000/svg" xmlns:xlink="http://www.w3.org/1999/xlink">
<g id="graph0" class="graph" transform="scale(1 1) rotate(0) translate(4 382)">
<title>/home/runner/work/doxygen/antimicrox/src/mousedialog/uihelpers/mouseaxissettingsdialoghelper.cpp</title>
<polygon fill="white" stroke="transparent" points="-4,4 -4,-382 1635.51,-382 1635.51,4 -4,4"/>
<!-- Node1 -->
<g id="node1" class="node">
<title>Node1</title>
<g id="a_node1"><a xlink:title=" ">
<polygon fill="#bfbfbf" stroke="black" points="1359.5,-336.5 1359.5,-377.5 1599.5,-377.5 1599.5,-336.5 1359.5,-336.5"/>
<text text-anchor="start" x="1367.5" y="-365.5" font-family="Helvetica,sans-Serif" font-size="10.00">/home/runner/work/doxygen</text>
<text text-anchor="start" x="1367.5" y="-354.5" font-family="Helvetica,sans-Serif" font-size="10.00">/antimicrox/src/mousedialog</text>
<text text-anchor="middle" x="1479.5" y="-343.5" font-family="Helvetica,sans-Serif" font-size="10.00">/uihelpers/mouseaxissettingsdialoghelper.cpp</text>
</a>
</g>
</g>
<!-- Node2 -->
<g id="node2" class="node">
<title>Node2</title>
<g id="a_node2"><a xlink:href="mouseaxissettingsdialoghelper_8h.html" target="_top" xlink:title=" ">
<polygon fill="white" stroke="black" points="621.5,-224.5 621.5,-243.5 799.5,-243.5 799.5,-224.5 621.5,-224.5"/>
<text text-anchor="middle" x="710.5" y="-231.5" font-family="Helvetica,sans-Serif" font-size="10.00">mouseaxissettingsdialoghelper.h</text>
</a>
</g>
</g>
<!-- Node1&#45;&gt;Node2 -->
<g id="edge1" class="edge">
<title>Node1&#45;&gt;Node2</title>
<path fill="none" stroke="midnightblue" d="M1359.34,-337.09C1194.42,-311.14 903.73,-265.4 774.98,-245.15"/>
<polygon fill="midnightblue" stroke="midnightblue" points="775.3,-241.65 764.88,-243.56 774.22,-248.57 775.3,-241.65"/>
</g>
<!-- Node4 -->
<g id="node4" class="node">
<title>Node4</title>
<g id="a_node4"><a xlink:href="joyaxis_8h.html" target="_top" xlink:title=" ">
<polygon fill="white" stroke="black" points="1449,-280.5 1449,-299.5 1510,-299.5 1510,-280.5 1449,-280.5"/>
<text text-anchor="middle" x="1479.5" y="-287.5" font-family="Helvetica,sans-Serif" font-size="10.00">joyaxis.h</text>
</a>
</g>
</g>
<!-- Node1&#45;&gt;Node4 -->
<g id="edge3" class="edge">
<title>Node1&#45;&gt;Node4</title>
<path fill="none" stroke="midnightblue" d="M1479.5,-336.5C1479.5,-328.07 1479.5,-318.24 1479.5,-309.87"/>
<polygon fill="midnightblue" stroke="midnightblue" points="1483,-309.65 1479.5,-299.65 1476,-309.65 1483,-309.65"/>
</g>
<!-- Node29 -->
<g id="node29" class="node">
<title>Node29</title>
<g id="a_node29"><a xlink:title=" ">
<polygon fill="white" stroke="#bfbfbf" points="1528.5,-280.5 1528.5,-299.5 1584.5,-299.5 1584.5,-280.5 1528.5,-280.5"/>
<text text-anchor="middle" x="1556.5" y="-287.5" font-family="Helvetica,sans-Serif" font-size="10.00">QDebug</text>
</a>
</g>
</g>
<!-- Node1&#45;&gt;Node29 -->
<g id="edge35" class="edge">
<title>Node1&#45;&gt;Node29</title>
<path fill="none" stroke="midnightblue" d="M1502.6,-336.5C1514.07,-326.82 1527.71,-315.3 1538.41,-306.27"/>
<polygon fill="midnightblue" stroke="midnightblue" points="1540.87,-308.78 1546.25,-299.65 1536.35,-303.43 1540.87,-308.78"/>
</g>
<!-- Node3 -->
<g id="node3" class="node">
<title>Node3</title>
<g id="a_node3"><a xlink:title=" ">
<polygon fill="white" stroke="#bfbfbf" points="931.5,-0.5 931.5,-19.5 987.5,-19.5 987.5,-0.5 931.5,-0.5"/>
<text text-anchor="middle" x="959.5" y="-7.5" font-family="Helvetica,sans-Serif" font-size="10.00">QObject</text>
</a>
</g>
</g>
<!-- Node2&#45;&gt;Node3 -->
<g id="edge2" class="edge">
<title>Node2&#45;&gt;Node3</title>
<path fill="none" stroke="midnightblue" d="M621.43,-227.26C462.42,-213.96 156.12,-172.7 265.5,-56 288.08,-31.91 778.91,-16.13 921.18,-12.05"/>
<polygon fill="midnightblue" stroke="midnightblue" points="921.29,-15.55 931.19,-11.77 921.1,-8.55 921.29,-15.55"/>
</g>
<!-- Node4&#45;&gt;Node3 -->
<g id="edge5" class="edge">
<title>Node4&#45;&gt;Node3</title>
<path fill="none" stroke="midnightblue" d="M1500.14,-280.42C1533,-265.23 1593.5,-230.29 1593.5,-179 1593.5,-179 1593.5,-179 1593.5,-121 1593.5,-90.9 1597.91,-74.92 1574.5,-56 1552,-37.82 1128.97,-18.25 997.89,-12.61"/>
<polygon fill="midnightblue" stroke="midnightblue" points="997.68,-9.1 987.54,-12.17 997.38,-16.09 997.68,-9.1"/>
</g>
<!-- Node5 -->
<g id="node5" class="node">
<title>Node5</title>
<g id="a_node5"><a xlink:title=" ">
<polygon fill="white" stroke="#bfbfbf" points="1211,-0.5 1211,-19.5 1252,-19.5 1252,-0.5 1211,-0.5"/>
<text text-anchor="middle" x="1231.5" y="-7.5" font-family="Helvetica,sans-Serif" font-size="10.00">QList</text>
</a>
</g>
</g>
<!-- Node4&#45;&gt;Node5 -->
<g id="edge4" class="edge">
<title>Node4&#45;&gt;Node5</title>
<path fill="none" stroke="midnightblue" d="M1510.07,-281.47C1543.28,-272.74 1593.48,-257.8 1607.5,-244 1629.45,-222.4 1631.5,-209.8 1631.5,-179 1631.5,-179 1631.5,-179 1631.5,-121 1631.5,-90.2 1631.67,-75.08 1607.5,-56 1554.27,-13.99 1342.66,-10.46 1262.5,-10.68"/>
<polygon fill="midnightblue" stroke="midnightblue" points="1262.07,-7.18 1252.09,-10.73 1262.11,-14.18 1262.07,-7.18"/>
</g>
<!-- Node6 -->
<g id="node6" class="node">
<title>Node6</title>
<g id="a_node6"><a xlink:href="joyaxisbutton_8h.html" target="_top" xlink:title=" ">
<polygon fill="white" stroke="black" points="1248,-224.5 1248,-243.5 1417,-243.5 1417,-224.5 1248,-224.5"/>
<text text-anchor="middle" x="1332.5" y="-231.5" font-family="Helvetica,sans-Serif" font-size="10.00">joybuttontypes/joyaxisbutton.h</text>
</a>
</g>
</g>
<!-- Node4&#45;&gt;Node6 -->
<g id="edge6" class="edge">
<title>Node4&#45;&gt;Node6</title>
<path fill="none" stroke="midnightblue" d="M1456.21,-280.44C1431.69,-271.44 1392.9,-257.19 1365.3,-247.05"/>
<polygon fill="midnightblue" stroke="midnightblue" points="1366.28,-243.68 1355.68,-243.52 1363.86,-250.25 1366.28,-243.68"/>
</g>
<!-- Node7 -->
<g id="node7" class="node">
<title>Node7</title>
<g id="a_node7"><a xlink:href="joygradientbutton_8h.html" target="_top" xlink:title=" ">
<polygon fill="white" stroke="black" points="879,-168.5 879,-187.5 1068,-187.5 1068,-168.5 879,-168.5"/>
<text text-anchor="middle" x="973.5" y="-175.5" font-family="Helvetica,sans-Serif" font-size="10.00">joybuttontypes/joygradientbutton.h</text>
</a>
</g>
</g>
<!-- Node6&#45;&gt;Node7 -->
<g id="edge7" class="edge">
<title>Node6&#45;&gt;Node7</title>
<path fill="none" stroke="midnightblue" d="M1275.62,-224.44C1211.68,-214.83 1107.98,-199.23 1040.25,-189.04"/>
<polygon fill="midnightblue" stroke="midnightblue" points="1040.53,-185.54 1030.12,-187.52 1039.49,-192.47 1040.53,-185.54"/>
</g>
<!-- Node24 -->
<g id="node24" class="node">
<title>Node24</title>
<g id="a_node24"><a xlink:href="logger_8h.html" target="_top" xlink:title=" ">
<polygon fill="white" stroke="black" points="1304.5,-112.5 1304.5,-131.5 1360.5,-131.5 1360.5,-112.5 1304.5,-112.5"/>
<text text-anchor="middle" x="1332.5" y="-119.5" font-family="Helvetica,sans-Serif" font-size="10.00">logger.h</text>
</a>
</g>
</g>
<!-- Node6&#45;&gt;Node24 -->
<g id="edge28" class="edge">
<title>Node6&#45;&gt;Node24</title>
<path fill="none" stroke="midnightblue" d="M1332.5,-224.37C1332.5,-206.62 1332.5,-165.67 1332.5,-141.6"/>
<polygon fill="midnightblue" stroke="midnightblue" points="1336,-141.59 1332.5,-131.59 1329,-141.59 1336,-141.59"/>
</g>
<!-- Node8 -->
<g id="node8" class="node">
<title>Node8</title>
<g id="a_node8"><a xlink:href="joybutton_8h.html" target="_top" xlink:title=" ">
<polygon fill="white" stroke="black" points="734.5,-112.5 734.5,-131.5 806.5,-131.5 806.5,-112.5 734.5,-112.5"/>
<text text-anchor="middle" x="770.5" y="-119.5" font-family="Helvetica,sans-Serif" font-size="10.00">joybutton.h</text>
</a>
</g>
</g>
<!-- Node7&#45;&gt;Node8 -->
<g id="edge8" class="edge">
<title>Node7&#45;&gt;Node8</title>
<path fill="none" stroke="midnightblue" d="M941.33,-168.44C906.44,-159.16 850.61,-144.31 812.33,-134.13"/>
<polygon fill="midnightblue" stroke="midnightblue" points="813.08,-130.7 802.52,-131.52 811.28,-137.47 813.08,-130.7"/>
</g>
<!-- Node9 -->
<g id="node9" class="node">
<title>Node9</title>
<g id="a_node9"><a xlink:href="globalvariables_8h.html" target="_top" xlink:title=" ">
<polygon fill="white" stroke="black" points="1045,-56.5 1045,-75.5 1146,-75.5 1146,-56.5 1045,-56.5"/>
<text text-anchor="middle" x="1095.5" y="-63.5" font-family="Helvetica,sans-Serif" font-size="10.00">globalvariables.h</text>
</a>
</g>
</g>
<!-- Node8&#45;&gt;Node9 -->
<g id="edge9" class="edge">
<title>Node8&#45;&gt;Node9</title>
<path fill="none" stroke="midnightblue" d="M806.52,-115.01C861.7,-105.85 967.79,-88.22 1034.94,-77.06"/>
<polygon fill="midnightblue" stroke="midnightblue" points="1035.66,-80.49 1044.96,-75.4 1034.52,-73.58 1035.66,-80.49"/>
</g>
<!-- Node10 -->
<g id="node10" class="node">
<title>Node10</title>
<g id="a_node10"><a xlink:href="joybuttonmousehelper_8h.html" target="_top" xlink:title=" ">
<polygon fill="white" stroke="black" points="550,-56.5 550,-75.5 685,-75.5 685,-56.5 550,-56.5"/>
<text text-anchor="middle" x="617.5" y="-63.5" font-family="Helvetica,sans-Serif" font-size="10.00">joybuttonmousehelper.h</text>
</a>
</g>
</g>
<!-- Node8&#45;&gt;Node10 -->
<g id="edge12" class="edge">
<title>Node8&#45;&gt;Node10</title>
<path fill="none" stroke="midnightblue" d="M746.26,-112.44C720.63,-103.4 680.01,-89.06 651.26,-78.92"/>
<polygon fill="midnightblue" stroke="midnightblue" points="652.22,-75.54 641.63,-75.52 649.89,-82.15 652.22,-75.54"/>
</g>
<!-- Node11 -->
<g id="node11" class="node">
<title>Node11</title>
<g id="a_node11"><a xlink:href="joybuttonslot_8h.html" target="_top" xlink:title=" ">
<polygon fill="white" stroke="black" points="128.5,-56.5 128.5,-75.5 218.5,-75.5 218.5,-56.5 128.5,-56.5"/>
<text text-anchor="middle" x="173.5" y="-63.5" font-family="Helvetica,sans-Serif" font-size="10.00">joybuttonslot.h</text>
</a>
</g>
</g>
<!-- Node8&#45;&gt;Node11 -->
<g id="edge14" class="edge">
<title>Node8&#45;&gt;Node11</title>
<path fill="none" stroke="midnightblue" d="M734.36,-117.89C651.46,-110.72 441.22,-92.42 265.5,-76 253.64,-74.89 240.93,-73.67 228.85,-72.49"/>
<polygon fill="midnightblue" stroke="midnightblue" points="229.18,-69.01 218.88,-71.52 228.49,-75.97 229.18,-69.01"/>
</g>
<!-- Node17 -->
<g id="node17" class="node">
<title>Node17</title>
<g id="a_node17"><a xlink:href="springmousemoveinfo_8h.html" target="_top" xlink:title=" ">
<polygon fill="white" stroke="black" points="703,-56.5 703,-75.5 838,-75.5 838,-56.5 703,-56.5"/>
<text text-anchor="middle" x="770.5" y="-63.5" font-family="Helvetica,sans-Serif" font-size="10.00">springmousemoveinfo.h</text>
</a>
</g>
</g>
<!-- Node8&#45;&gt;Node17 -->
<g id="edge21" class="edge">
<title>Node8&#45;&gt;Node17</title>
<path fill="none" stroke="midnightblue" d="M770.5,-112.08C770.5,-105.01 770.5,-94.86 770.5,-85.99"/>
<polygon fill="midnightblue" stroke="midnightblue" points="774,-85.75 770.5,-75.75 767,-85.75 774,-85.75"/>
</g>
<!-- Node18 -->
<g id="node18" class="node">
<title>Node18</title>
<g id="a_node18"><a xlink:title=" ">
<polygon fill="white" stroke="#bfbfbf" points="856.5,-56.5 856.5,-75.5 952.5,-75.5 952.5,-56.5 856.5,-56.5"/>
<text text-anchor="middle" x="904.5" y="-63.5" font-family="Helvetica,sans-Serif" font-size="10.00">QDeadlineTimer</text>
</a>
</g>
</g>
<!-- Node8&#45;&gt;Node18 -->
<g id="edge22" class="edge">
<title>Node8&#45;&gt;Node18</title>
<path fill="none" stroke="midnightblue" d="M791.73,-112.44C813.88,-103.52 848.82,-89.44 873.94,-79.32"/>
<polygon fill="midnightblue" stroke="midnightblue" points="875.4,-82.5 883.37,-75.52 872.78,-76.01 875.4,-82.5"/>
</g>
<!-- Node19 -->
<g id="node19" class="node">
<title>Node19</title>
<g id="a_node19"><a xlink:title=" ">
<polygon fill="white" stroke="#bfbfbf" points="970.5,-56.5 970.5,-75.5 1026.5,-75.5 1026.5,-56.5 970.5,-56.5"/>
<text text-anchor="middle" x="998.5" y="-63.5" font-family="Helvetica,sans-Serif" font-size="10.00">QQueue</text>
</a>
</g>
</g>
<!-- Node8&#45;&gt;Node19 -->
<g id="edge23" class="edge">
<title>Node8&#45;&gt;Node19</title>
<path fill="none" stroke="midnightblue" d="M806.78,-112.53C843.19,-104.02 901.14,-90.42 960.33,-76.27"/>
<polygon fill="midnightblue" stroke="midnightblue" points="961.31,-79.63 970.22,-73.9 959.68,-72.82 961.31,-79.63"/>
</g>
<!-- Node20 -->
<g id="node20" class="node">
<title>Node20</title>
<g id="a_node20"><a xlink:title=" ">
<polygon fill="white" stroke="#bfbfbf" points="274.5,-56.5 274.5,-75.5 372.5,-75.5 372.5,-56.5 274.5,-56.5"/>
<text text-anchor="middle" x="323.5" y="-63.5" font-family="Helvetica,sans-Serif" font-size="10.00">QReadWriteLock</text>
</a>
</g>
</g>
<!-- Node8&#45;&gt;Node20 -->
<g id="edge24" class="edge">
<title>Node8&#45;&gt;Node20</title>
<path fill="none" stroke="midnightblue" d="M734.24,-117.28C667.07,-110.29 518.51,-94.34 382.7,-76.12"/>
<polygon fill="midnightblue" stroke="midnightblue" points="382.91,-72.61 372.53,-74.74 381.97,-79.55 382.91,-72.61"/>
</g>
<!-- Node21 -->
<g id="node21" class="node">
<title>Node21</title>
<g id="a_node21"><a xlink:title=" ">
<polygon fill="white" stroke="#bfbfbf" points="390.5,-56.5 390.5,-75.5 460.5,-75.5 460.5,-56.5 390.5,-56.5"/>
<text text-anchor="middle" x="425.5" y="-63.5" font-family="Helvetica,sans-Serif" font-size="10.00">QRunnable</text>
</a>
</g>
</g>
<!-- Node8&#45;&gt;Node21 -->
<g id="edge25" class="edge">
<title>Node8&#45;&gt;Node21</title>
<path fill="none" stroke="midnightblue" d="M734.26,-116.22C679.44,-108.85 571.93,-93.85 470.63,-76.12"/>
<polygon fill="midnightblue" stroke="midnightblue" points="470.99,-72.63 460.53,-74.34 469.77,-79.52 470.99,-72.63"/>
</g>
<!-- Node22 -->
<g id="node22" class="node">
<title>Node22</title>
<g id="a_node22"><a xlink:title=" ">
<polygon fill="white" stroke="#bfbfbf" points="1164.5,-56.5 1164.5,-75.5 1222.5,-75.5 1222.5,-56.5 1164.5,-56.5"/>
<text text-anchor="middle" x="1193.5" y="-63.5" font-family="Helvetica,sans-Serif" font-size="10.00">QThread</text>
</a>
</g>
</g>
<!-- Node8&#45;&gt;Node22 -->
<g id="edge26" class="edge">
<title>Node8&#45;&gt;Node22</title>
<path fill="none" stroke="midnightblue" d="M806.53,-118.2C873.25,-112.7 1020.66,-99.14 1154.12,-76.07"/>
<polygon fill="midnightblue" stroke="midnightblue" points="1154.87,-79.49 1164.11,-74.32 1153.66,-72.59 1154.87,-79.49"/>
</g>
<!-- Node23 -->
<g id="node23" class="node">
<title>Node23</title>
<g id="a_node23"><a xlink:title=" ">
<polygon fill="white" stroke="#bfbfbf" points="479,-56.5 479,-75.5 532,-75.5 532,-56.5 479,-56.5"/>
<text text-anchor="middle" x="505.5" y="-63.5" font-family="Helvetica,sans-Serif" font-size="10.00">QTimer</text>
</a>
</g>
</g>
<!-- Node8&#45;&gt;Node23 -->
<g id="edge27" class="edge">
<title>Node8&#45;&gt;Node23</title>
<path fill="none" stroke="midnightblue" d="M734.11,-114.56C690.61,-106.71 615.38,-92.67 542.07,-76.26"/>
<polygon fill="midnightblue" stroke="midnightblue" points="542.74,-72.83 532.21,-74.04 541.2,-79.66 542.74,-72.83"/>
</g>
<!-- Node9&#45;&gt;Node3 -->
<g id="edge11" class="edge">
<title>Node9&#45;&gt;Node3</title>
<path fill="none" stroke="midnightblue" d="M1073.95,-56.44C1051.47,-47.52 1016.01,-33.44 990.52,-23.32"/>
<polygon fill="midnightblue" stroke="midnightblue" points="991.53,-19.95 980.95,-19.52 988.95,-26.46 991.53,-19.95"/>
</g>
<!-- Node9&#45;&gt;Node5 -->
<g id="edge10" class="edge">
<title>Node9&#45;&gt;Node5</title>
<path fill="none" stroke="midnightblue" d="M1117.05,-56.44C1139.8,-47.41 1175.82,-33.11 1201.38,-22.96"/>
<polygon fill="midnightblue" stroke="midnightblue" points="1202.94,-26.11 1210.94,-19.16 1200.36,-19.6 1202.94,-26.11"/>
</g>
<!-- Node10&#45;&gt;Node3 -->
<g id="edge13" class="edge">
<title>Node10&#45;&gt;Node3</title>
<path fill="none" stroke="midnightblue" d="M671.69,-56.44C741.31,-45.45 860.4,-26.65 921.26,-17.04"/>
<polygon fill="midnightblue" stroke="midnightblue" points="921.88,-20.48 931.21,-15.47 920.79,-13.57 921.88,-20.48"/>
</g>
<!-- Node11&#45;&gt;Node3 -->
<g id="edge16" class="edge">
<title>Node11&#45;&gt;Node3</title>
<path fill="none" stroke="midnightblue" d="M218.54,-57.7C223.25,-57.07 227.97,-56.49 232.5,-56 495.04,-27.91 812.94,-15.71 921.24,-12.16"/>
<polygon fill="midnightblue" stroke="midnightblue" points="921.47,-15.65 931.35,-11.83 921.25,-8.66 921.47,-15.65"/>
</g>
<!-- Node12 -->
<g id="node12" class="node">
<title>Node12</title>
<g id="a_node12"><a xlink:title=" ">
<polygon fill="white" stroke="#bfbfbf" points="372,-0.5 372,-19.5 463,-19.5 463,-0.5 372,-0.5"/>
<text text-anchor="middle" x="417.5" y="-7.5" font-family="Helvetica,sans-Serif" font-size="10.00">QElapsedTimer</text>
</a>
</g>
</g>
<!-- Node11&#45;&gt;Node12 -->
<g id="edge15" class="edge">
<title>Node11&#45;&gt;Node12</title>
<path fill="none" stroke="midnightblue" d="M212.16,-56.44C254.64,-47.04 322.93,-31.93 368.97,-21.74"/>
<polygon fill="midnightblue" stroke="midnightblue" points="370.01,-25.09 379.02,-19.52 368.5,-18.26 370.01,-25.09"/>
</g>
<!-- Node13 -->
<g id="node13" class="node">
<title>Node13</title>
<g id="a_node13"><a xlink:title=" ">
<polygon fill="white" stroke="#bfbfbf" points="0,-0.5 0,-19.5 59,-19.5 59,-0.5 0,-0.5"/>
<text text-anchor="middle" x="29.5" y="-7.5" font-family="Helvetica,sans-Serif" font-size="10.00">QPointer</text>
</a>
</g>
</g>
<!-- Node11&#45;&gt;Node13 -->
<g id="edge17" class="edge">
<title>Node11&#45;&gt;Node13</title>
<path fill="none" stroke="midnightblue" d="M150.68,-56.44C126.67,-47.44 88.67,-33.19 61.63,-23.05"/>
<polygon fill="midnightblue" stroke="midnightblue" points="62.8,-19.75 52.21,-19.52 60.34,-26.3 62.8,-19.75"/>
</g>
<!-- Node14 -->
<g id="node14" class="node">
<title>Node14</title>
<g id="a_node14"><a xlink:title=" ">
<polygon fill="white" stroke="#bfbfbf" points="77,-0.5 77,-19.5 126,-19.5 126,-0.5 77,-0.5"/>
<text text-anchor="middle" x="101.5" y="-7.5" font-family="Helvetica,sans-Serif" font-size="10.00">QTime</text>
</a>
</g>
</g>
<!-- Node11&#45;&gt;Node14 -->
<g id="edge18" class="edge">
<title>Node11&#45;&gt;Node14</title>
<path fill="none" stroke="midnightblue" d="M161.93,-56.32C151.08,-48.18 134.62,-35.84 121.62,-26.09"/>
<polygon fill="midnightblue" stroke="midnightblue" points="123.38,-23.03 113.28,-19.83 119.18,-28.63 123.38,-23.03"/>
</g>
<!-- Node15 -->
<g id="node15" class="node">
<title>Node15</title>
<g id="a_node15"><a xlink:title=" ">
<polygon fill="white" stroke="#bfbfbf" points="144,-0.5 144,-19.5 203,-19.5 203,-0.5 144,-0.5"/>
<text text-anchor="middle" x="173.5" y="-7.5" font-family="Helvetica,sans-Serif" font-size="10.00">QVariant</text>
</a>
</g>
</g>
<!-- Node11&#45;&gt;Node15 -->
<g id="edge19" class="edge">
<title>Node11&#45;&gt;Node15</title>
<path fill="none" stroke="midnightblue" d="M173.5,-56.08C173.5,-49.01 173.5,-38.86 173.5,-29.99"/>
<polygon fill="midnightblue" stroke="midnightblue" points="177,-29.75 173.5,-19.75 170,-29.75 177,-29.75"/>
</g>
<!-- Node16 -->
<g id="node16" class="node">
<title>Node16</title>
<g id="a_node16"><a xlink:title=" ">
<polygon fill="white" stroke="#bfbfbf" points="221,-0.5 221,-19.5 354,-19.5 354,-0.5 221,-0.5"/>
<text text-anchor="middle" x="287.5" y="-7.5" font-family="Helvetica,sans-Serif" font-size="10.00">QtWidgets/QApplication</text>
</a>
</g>
</g>
<!-- Node11&#45;&gt;Node16 -->
<g id="edge20" class="edge">
<title>Node11&#45;&gt;Node16</title>
<path fill="none" stroke="midnightblue" d="M191.56,-56.44C210.07,-47.68 239.08,-33.94 260.36,-23.86"/>
<polygon fill="midnightblue" stroke="midnightblue" points="261.98,-26.96 269.52,-19.52 258.99,-20.63 261.98,-26.96"/>
</g>
<!-- Node24&#45;&gt;Node3 -->
<g id="edge31" class="edge">
<title>Node24&#45;&gt;Node3</title>
<path fill="none" stroke="midnightblue" d="M1320.57,-112.44C1298.15,-96.51 1250.28,-63.24 1231.5,-56 1152.16,-25.42 1051.94,-15.61 998.04,-12.47"/>
<polygon fill="midnightblue" stroke="midnightblue" points="998.07,-8.97 987.89,-11.93 997.69,-15.96 998.07,-8.97"/>
</g>
<!-- Node24&#45;&gt;Node22 -->
<g id="edge33" class="edge">
<title>Node24&#45;&gt;Node22</title>
<path fill="none" stroke="midnightblue" d="M1310.48,-112.44C1287.4,-103.48 1250.94,-89.31 1224.86,-79.18"/>
<polygon fill="midnightblue" stroke="midnightblue" points="1226.01,-75.88 1215.42,-75.52 1223.48,-82.4 1226.01,-75.88"/>
</g>
<!-- Node25 -->
<g id="node25" class="node">
<title>Node25</title>
<g id="a_node25"><a xlink:title=" ">
<polygon fill="white" stroke="#bfbfbf" points="1279,-56.5 1279,-75.5 1320,-75.5 1320,-56.5 1279,-56.5"/>
<text text-anchor="middle" x="1299.5" y="-63.5" font-family="Helvetica,sans-Serif" font-size="10.00">QFile</text>
</a>
</g>
</g>
<!-- Node24&#45;&gt;Node25 -->
<g id="edge29" class="edge">
<title>Node24&#45;&gt;Node25</title>
<path fill="none" stroke="midnightblue" d="M1327.05,-112.08C1322.49,-104.61 1315.83,-93.72 1310.21,-84.52"/>
<polygon fill="midnightblue" stroke="midnightblue" points="1313.05,-82.46 1304.85,-75.75 1307.08,-86.11 1313.05,-82.46"/>
</g>
<!-- Node26 -->
<g id="node26" class="node">
<title>Node26</title>
<g id="a_node26"><a xlink:title=" ">
<polygon fill="white" stroke="#bfbfbf" points="1338,-56.5 1338,-75.5 1393,-75.5 1393,-56.5 1338,-56.5"/>
<text text-anchor="middle" x="1365.5" y="-63.5" font-family="Helvetica,sans-Serif" font-size="10.00">QMutex</text>
</a>
</g>
</g>
<!-- Node24&#45;&gt;Node26 -->
<g id="edge30" class="edge">
<title>Node24&#45;&gt;Node26</title>
<path fill="none" stroke="midnightblue" d="M1337.95,-112.08C1342.51,-104.61 1349.17,-93.72 1354.79,-84.52"/>
<polygon fill="midnightblue" stroke="midnightblue" points="1357.92,-86.11 1360.15,-75.75 1351.95,-82.46 1357.92,-86.11"/>
</g>
<!-- Node27 -->
<g id="node27" class="node">
<title>Node27</title>
<g id="a_node27"><a xlink:title=" ">
<polygon fill="white" stroke="#bfbfbf" points="1411.5,-56.5 1411.5,-75.5 1491.5,-75.5 1491.5,-56.5 1411.5,-56.5"/>
<text text-anchor="middle" x="1451.5" y="-63.5" font-family="Helvetica,sans-Serif" font-size="10.00">QTextStream</text>
</a>
</g>
</g>
<!-- Node24&#45;&gt;Node27 -->
<g id="edge32" class="edge">
<title>Node24&#45;&gt;Node27</title>
<path fill="none" stroke="midnightblue" d="M1351.36,-112.44C1370.77,-103.64 1401.23,-89.81 1423.46,-79.72"/>
<polygon fill="midnightblue" stroke="midnightblue" points="1425.07,-82.84 1432.73,-75.52 1422.18,-76.46 1425.07,-82.84"/>
</g>
<!-- Node28 -->
<g id="node28" class="node">
<title>Node28</title>
<g id="a_node28"><a xlink:title=" ">
<polygon fill="white" stroke="#bfbfbf" points="1509.5,-56.5 1509.5,-75.5 1565.5,-75.5 1565.5,-56.5 1509.5,-56.5"/>
<text text-anchor="middle" x="1537.5" y="-63.5" font-family="Helvetica,sans-Serif" font-size="10.00">sstream</text>
</a>
</g>
</g>
<!-- Node24&#45;&gt;Node28 -->
<g id="edge34" class="edge">
<title>Node24&#45;&gt;Node28</title>
<path fill="none" stroke="midnightblue" d="M1360.57,-113.6C1396.66,-104.1 1459.46,-87.56 1499.72,-76.95"/>
<polygon fill="midnightblue" stroke="midnightblue" points="1500.66,-80.32 1509.44,-74.39 1498.87,-73.56 1500.66,-80.32"/>
</g>
</g>
</svg>
