<?xml version="1.0" encoding="UTF-8" standalone="no"?>
<!DOCTYPE svg PUBLIC "-//W3C//DTD SVG 1.1//EN"
 "http://www.w3.org/Graphics/SVG/1.1/DTD/svg11.dtd">
<!-- Generated by graphviz version 2.43.0 (0)
 -->
<!-- Title: /home/runner/work/doxygen/antimicrox/src/gui/mousesettingsdialog.h Pages: 1 -->
<!--zoomable 195 -->
<svg id="main" version="1.1" xmlns="http://www.w3.org/2000/svg" xmlns:xlink="http://www.w3.org/1999/xlink" xml:space="preserve" onload="init(evt)">
<style type="text/css"><![CDATA[
.edge:hover path { stroke: red; }
.edge:hover polygon { stroke: red; fill: red; }
]]></style>
<script type="text/javascript"><![CDATA[
var edges = document.getElementsByTagName('g');
if (edges && edges.length) {
  for (var i=0;i<edges.length;i++) {
    if (edges[i].id.substr(0,4)=='edge') {
      edges[i].setAttribute('class','edge');
    }
  }
}
]]></script>
        <defs>
                <circle id="rim" cx="0" cy="0" r="7"/>
                <circle id="rim2" cx="0" cy="0" r="3.5"/>
                <g id="zoomPlus">
                        <use xlink:href="#rim" fill="#404040">
                                <set attributeName="fill" to="#808080" begin="zoomplus.mouseover" end="zoomplus.mouseout"/>
                        </use>
                        <path d="M-4,0h8M0,-4v8" fill="none" stroke="white" stroke-width="1.5" pointer-events="none"/>
                </g>
                <g id="zoomMin">
                        <use xlink:href="#rim" fill="#404040">
                                <set attributeName="fill" to="#808080" begin="zoomminus.mouseover" end="zoomminus.mouseout"/>
                        </use>
                        <path d="M-4,0h8" fill="none" stroke="white" stroke-width="1.5" pointer-events="none"/>
                </g>
                <g id="dirArrow">
                        <path fill="none" stroke="white" stroke-width="1.5" d="M0,-3.0v7 M-2.5,-0.5L0,-3.0L2.5,-0.5"/>
                </g>
               <g id="resetDef">
                       <use xlink:href="#rim2" fill="#404040">
                               <set attributeName="fill" to="#808080" begin="reset.mouseover" end="reset.mouseout"/>
                       </use>
               </g>
        </defs>

<script type="text/javascript">
var viewWidth = 3067;
var viewHeight = 195;
var sectionId = 'dynsection-1';
</script>
<script xlink:href="svgpan.js"/>
<svg id="graph" class="graph">
<g id="viewport">
<title>/home/runner/work/doxygen/antimicrox/src/gui/mousesettingsdialog.h</title>
<polygon fill="white" stroke="transparent" points="-4,4 -4,-191 3063,-191 3063,4 -4,4"/>
<!-- Node1 -->
<g id="node1" class="node">
<title>Node1</title>
<g id="a_node1"><a xlink:title=" ">
<polygon fill="#bfbfbf" stroke="black" points="1155,-156.5 1155,-186.5 1376,-186.5 1376,-156.5 1155,-156.5"/>
<text text-anchor="start" x="1163" y="-174.5" font-family="Helvetica,sans-Serif" font-size="10.00">/home/runner/work/doxygen</text>
<text text-anchor="middle" x="1265.5" y="-163.5" font-family="Helvetica,sans-Serif" font-size="10.00">/antimicrox/src/gui/mousesettingsdialog.h</text>
</a>
</g>
</g>
<!-- Node2 -->
<g id="node2" class="node">
<title>Node2</title>
<g id="a_node2"><a xlink:href="mousedpadsettingsdialog_8h.html" target="_top" xlink:title=" ">
<polygon fill="white" stroke="black" points="345,-78.5 345,-119.5 500,-119.5 500,-78.5 345,-78.5"/>
<text text-anchor="start" x="353" y="-107.5" font-family="Helvetica,sans-Serif" font-size="10.00">/home/runner/work/doxygen</text>
<text text-anchor="start" x="353" y="-96.5" font-family="Helvetica,sans-Serif" font-size="10.00">/antimicrox/src/mousedialog</text>
<text text-anchor="middle" x="422.5" y="-85.5" font-family="Helvetica,sans-Serif" font-size="10.00">/mousedpadsettingsdialog.h</text>
</a>
</g>
</g>
<!-- Node1&#45;&gt;Node2 -->
<g id="edge1" class="edge">
<title>Node1&#45;&gt;Node2</title>
<path fill="none" stroke="midnightblue" d="M1144.79,-160.4C968.99,-145.7 647.47,-118.81 500.06,-106.49"/>
<polygon fill="midnightblue" stroke="midnightblue" points="1144.6,-163.9 1154.86,-161.25 1145.19,-156.93 1144.6,-163.9"/>
</g>
<!-- Node6 -->
<g id="node6" class="node">
<title>Node6</title>
<g id="a_node6"><a xlink:href="mousesettingsdialog_8cpp.html" target="_top" xlink:title=" ">
<polygon fill="white" stroke="black" points="825,-84 825,-114 1058,-114 1058,-84 825,-84"/>
<text text-anchor="start" x="833" y="-102" font-family="Helvetica,sans-Serif" font-size="10.00">/home/runner/work/doxygen</text>
<text text-anchor="middle" x="941.5" y="-91" font-family="Helvetica,sans-Serif" font-size="10.00">/antimicrox/src/gui/mousesettingsdialog.cpp</text>
</a>
</g>
</g>
<!-- Node1&#45;&gt;Node6 -->
<g id="edge5" class="edge">
<title>Node1&#45;&gt;Node6</title>
<path fill="none" stroke="midnightblue" d="M1191.25,-154.34C1135.34,-142.18 1059.46,-125.67 1006.05,-114.05"/>
<polygon fill="midnightblue" stroke="midnightblue" points="1190.59,-157.78 1201.1,-156.49 1192.07,-150.94 1190.59,-157.78"/>
</g>
<!-- Node7 -->
<g id="node7" class="node">
<title>Node7</title>
<g id="a_node7"><a xlink:href="mouseaxissettingsdialog_8h.html" target="_top" xlink:title=" ">
<polygon fill="white" stroke="black" points="1076,-78.5 1076,-119.5 1231,-119.5 1231,-78.5 1076,-78.5"/>
<text text-anchor="start" x="1084" y="-107.5" font-family="Helvetica,sans-Serif" font-size="10.00">/home/runner/work/doxygen</text>
<text text-anchor="start" x="1084" y="-96.5" font-family="Helvetica,sans-Serif" font-size="10.00">/antimicrox/src/mousedialog</text>
<text text-anchor="middle" x="1153.5" y="-85.5" font-family="Helvetica,sans-Serif" font-size="10.00">/mouseaxissettingsdialog.h</text>
</a>
</g>
</g>
<!-- Node1&#45;&gt;Node7 -->
<g id="edge6" class="edge">
<title>Node1&#45;&gt;Node7</title>
<path fill="none" stroke="midnightblue" d="M1234.41,-150.93C1218.93,-141.19 1200.27,-129.44 1184.76,-119.68"/>
<polygon fill="midnightblue" stroke="midnightblue" points="1232.78,-154.04 1243.1,-156.4 1236.51,-148.11 1232.78,-154.04"/>
</g>
<!-- Node11 -->
<g id="node11" class="node">
<title>Node11</title>
<g id="a_node11"><a xlink:href="mousecontrolsticksettingsdialog_8h.html" target="_top" xlink:title=" ">
<polygon fill="white" stroke="black" points="1418.5,-78.5 1418.5,-119.5 1606.5,-119.5 1606.5,-78.5 1418.5,-78.5"/>
<text text-anchor="start" x="1426.5" y="-107.5" font-family="Helvetica,sans-Serif" font-size="10.00">/home/runner/work/doxygen</text>
<text text-anchor="start" x="1426.5" y="-96.5" font-family="Helvetica,sans-Serif" font-size="10.00">/antimicrox/src/mousedialog</text>
<text text-anchor="middle" x="1512.5" y="-85.5" font-family="Helvetica,sans-Serif" font-size="10.00">/mousecontrolsticksettingsdialog.h</text>
</a>
</g>
</g>
<!-- Node1&#45;&gt;Node11 -->
<g id="edge10" class="edge">
<title>Node1&#45;&gt;Node11</title>
<path fill="none" stroke="midnightblue" d="M1324.43,-153.68C1360.32,-143.44 1406.33,-130.3 1443.86,-119.59"/>
<polygon fill="midnightblue" stroke="midnightblue" points="1323.25,-150.38 1314.59,-156.49 1325.17,-157.11 1323.25,-150.38"/>
</g>
<!-- Node15 -->
<g id="node15" class="node">
<title>Node15</title>
<g id="a_node15"><a xlink:href="mousesensorsettingsdialog_8h.html" target="_top" xlink:title=" ">
<polygon fill="white" stroke="black" points="2160,-78.5 2160,-119.5 2323,-119.5 2323,-78.5 2160,-78.5"/>
<text text-anchor="start" x="2168" y="-107.5" font-family="Helvetica,sans-Serif" font-size="10.00">/home/runner/work/doxygen</text>
<text text-anchor="start" x="2168" y="-96.5" font-family="Helvetica,sans-Serif" font-size="10.00">/antimicrox/src/mousedialog</text>
<text text-anchor="middle" x="2241.5" y="-85.5" font-family="Helvetica,sans-Serif" font-size="10.00">/mousesensorsettingsdialog.h</text>
</a>
</g>
</g>
<!-- Node1&#45;&gt;Node15 -->
<g id="edge14" class="edge">
<title>Node1&#45;&gt;Node15</title>
<path fill="none" stroke="midnightblue" d="M1386.07,-161.79C1587.62,-147.23 1987.77,-118.33 2159.78,-105.9"/>
<polygon fill="midnightblue" stroke="midnightblue" points="1385.76,-158.3 1376.04,-162.52 1386.26,-165.29 1385.76,-158.3"/>
</g>
<!-- Node19 -->
<g id="node19" class="node">
<title>Node19</title>
<g id="a_node19"><a xlink:href="mousebuttonsettingsdialog_8h.html" target="_top" xlink:title=" ">
<polygon fill="white" stroke="black" points="2695.5,-78.5 2695.5,-119.5 2857.5,-119.5 2857.5,-78.5 2695.5,-78.5"/>
<text text-anchor="start" x="2703.5" y="-107.5" font-family="Helvetica,sans-Serif" font-size="10.00">/home/runner/work/doxygen</text>
<text text-anchor="start" x="2703.5" y="-96.5" font-family="Helvetica,sans-Serif" font-size="10.00">/antimicrox/src/mousedialog</text>
<text text-anchor="middle" x="2776.5" y="-85.5" font-family="Helvetica,sans-Serif" font-size="10.00">/mousebuttonsettingsdialog.h</text>
</a>
</g>
</g>
<!-- Node1&#45;&gt;Node19 -->
<g id="edge18" class="edge">
<title>Node1&#45;&gt;Node19</title>
<path fill="none" stroke="midnightblue" d="M1386.69,-164.85C1684.32,-150.96 2445.13,-115.46 2695.36,-103.79"/>
<polygon fill="midnightblue" stroke="midnightblue" points="1386.13,-161.37 1376.3,-165.33 1386.45,-168.36 1386.13,-161.37"/>
</g>
<!-- Node3 -->
<g id="node3" class="node">
<title>Node3</title>
<g id="a_node3"><a xlink:href="dpadcontextmenu_8cpp.html" target="_top" xlink:title=" ">
<polygon fill="white" stroke="black" points="0,-6 0,-36 201,-36 201,-6 0,-6"/>
<text text-anchor="start" x="8" y="-24" font-family="Helvetica,sans-Serif" font-size="10.00">/home/runner/work/doxygen</text>
<text text-anchor="middle" x="100.5" y="-13" font-family="Helvetica,sans-Serif" font-size="10.00">/antimicrox/src/dpadcontextmenu.cpp</text>
</a>
</g>
</g>
<!-- Node2&#45;&gt;Node3 -->
<g id="edge2" class="edge">
<title>Node2&#45;&gt;Node3</title>
<path fill="none" stroke="midnightblue" d="M335.13,-77.38C279.57,-64.27 209.12,-47.64 159.98,-36.04"/>
<polygon fill="midnightblue" stroke="midnightblue" points="334.43,-80.81 344.96,-79.7 336.03,-74 334.43,-80.81"/>
</g>
<!-- Node4 -->
<g id="node4" class="node">
<title>Node4</title>
<g id="a_node4"><a xlink:href="dpadeditdialog_8cpp.html" target="_top" xlink:title=" ">
<polygon fill="white" stroke="black" points="219,-6 219,-36 422,-36 422,-6 219,-6"/>
<text text-anchor="start" x="227" y="-24" font-family="Helvetica,sans-Serif" font-size="10.00">/home/runner/work/doxygen</text>
<text text-anchor="middle" x="320.5" y="-13" font-family="Helvetica,sans-Serif" font-size="10.00">/antimicrox/src/gui/dpadeditdialog.cpp</text>
</a>
</g>
</g>
<!-- Node2&#45;&gt;Node4 -->
<g id="edge3" class="edge">
<title>Node2&#45;&gt;Node4</title>
<path fill="none" stroke="midnightblue" d="M388.04,-72.32C371.86,-60.27 353.2,-46.36 339.59,-36.23"/>
<polygon fill="midnightblue" stroke="midnightblue" points="386.12,-75.26 396.23,-78.43 390.3,-69.65 386.12,-75.26"/>
</g>
<!-- Node5 -->
<g id="node5" class="node">
<title>Node5</title>
<g id="a_node5"><a xlink:href="mousedpadsettingsdialog_8cpp.html" target="_top" xlink:title=" ">
<polygon fill="white" stroke="black" points="440.5,-0.5 440.5,-41.5 606.5,-41.5 606.5,-0.5 440.5,-0.5"/>
<text text-anchor="start" x="448.5" y="-29.5" font-family="Helvetica,sans-Serif" font-size="10.00">/home/runner/work/doxygen</text>
<text text-anchor="start" x="448.5" y="-18.5" font-family="Helvetica,sans-Serif" font-size="10.00">/antimicrox/src/mousedialog</text>
<text text-anchor="middle" x="523.5" y="-7.5" font-family="Helvetica,sans-Serif" font-size="10.00">/mousedpadsettingsdialog.cpp</text>
</a>
</g>
</g>
<!-- Node2&#45;&gt;Node5 -->
<g id="edge4" class="edge">
<title>Node2&#45;&gt;Node5</title>
<path fill="none" stroke="midnightblue" d="M456.59,-72.35C469.98,-62.27 485.1,-50.89 497.58,-41.51"/>
<polygon fill="midnightblue" stroke="midnightblue" points="454.4,-69.62 448.51,-78.43 458.6,-75.21 454.4,-69.62"/>
</g>
<!-- Node8 -->
<g id="node8" class="node">
<title>Node8</title>
<g id="a_node8"><a xlink:href="axiseditdialog_8cpp.html" target="_top" xlink:title=" ">
<polygon fill="white" stroke="black" points="624.5,-6 624.5,-36 824.5,-36 824.5,-6 624.5,-6"/>
<text text-anchor="start" x="632.5" y="-24" font-family="Helvetica,sans-Serif" font-size="10.00">/home/runner/work/doxygen</text>
<text text-anchor="middle" x="724.5" y="-13" font-family="Helvetica,sans-Serif" font-size="10.00">/antimicrox/src/gui/axiseditdialog.cpp</text>
</a>
</g>
</g>
<!-- Node7&#45;&gt;Node8 -->
<g id="edge7" class="edge">
<title>Node7&#45;&gt;Node8</title>
<path fill="none" stroke="midnightblue" d="M1065.81,-77.94C961.9,-58.31 933.69,-58.93 833.5,-42 822.5,-40.14 810.88,-38.1 799.5,-36.05"/>
<polygon fill="midnightblue" stroke="midnightblue" points="1065.29,-81.4 1075.77,-79.84 1066.6,-74.53 1065.29,-81.4"/>
</g>
<!-- Node9 -->
<g id="node9" class="node">
<title>Node9</title>
<g id="a_node9"><a xlink:href="joyaxiscontextmenu_8cpp.html" target="_top" xlink:title=" ">
<polygon fill="white" stroke="black" points="842.5,-6 842.5,-36 1054.5,-36 1054.5,-6 842.5,-6"/>
<text text-anchor="start" x="850.5" y="-24" font-family="Helvetica,sans-Serif" font-size="10.00">/home/runner/work/doxygen</text>
<text text-anchor="middle" x="948.5" y="-13" font-family="Helvetica,sans-Serif" font-size="10.00">/antimicrox/src/joyaxiscontextmenu.cpp</text>
</a>
</g>
</g>
<!-- Node7&#45;&gt;Node9 -->
<g id="edge8" class="edge">
<title>Node7&#45;&gt;Node9</title>
<path fill="none" stroke="midnightblue" d="M1091.28,-74.93C1057.14,-62.28 1015.91,-46.99 986.55,-36.11"/>
<polygon fill="midnightblue" stroke="midnightblue" points="1090.11,-78.23 1100.71,-78.43 1092.55,-71.67 1090.11,-78.23"/>
</g>
<!-- Node10 -->
<g id="node10" class="node">
<title>Node10</title>
<g id="a_node10"><a xlink:href="mouseaxissettingsdialog_8cpp.html" target="_top" xlink:title=" ">
<polygon fill="white" stroke="black" points="1072.5,-0.5 1072.5,-41.5 1234.5,-41.5 1234.5,-0.5 1072.5,-0.5"/>
<text text-anchor="start" x="1080.5" y="-29.5" font-family="Helvetica,sans-Serif" font-size="10.00">/home/runner/work/doxygen</text>
<text text-anchor="start" x="1080.5" y="-18.5" font-family="Helvetica,sans-Serif" font-size="10.00">/antimicrox/src/mousedialog</text>
<text text-anchor="middle" x="1153.5" y="-7.5" font-family="Helvetica,sans-Serif" font-size="10.00">/mouseaxissettingsdialog.cpp</text>
</a>
</g>
</g>
<!-- Node7&#45;&gt;Node10 -->
<g id="edge9" class="edge">
<title>Node7&#45;&gt;Node10</title>
<path fill="none" stroke="midnightblue" d="M1153.5,-68.3C1153.5,-59.3 1153.5,-49.65 1153.5,-41.51"/>
<polygon fill="midnightblue" stroke="midnightblue" points="1150,-68.43 1153.5,-78.43 1157,-68.43 1150,-68.43"/>
</g>
<!-- Node12 -->
<g id="node12" class="node">
<title>Node12</title>
<g id="a_node12"><a xlink:href="joycontrolstickeditdialog_8cpp.html" target="_top" xlink:title=" ">
<polygon fill="white" stroke="black" points="1253,-6 1253,-36 1504,-36 1504,-6 1253,-6"/>
<text text-anchor="start" x="1261" y="-24" font-family="Helvetica,sans-Serif" font-size="10.00">/home/runner/work/doxygen</text>
<text text-anchor="middle" x="1378.5" y="-13" font-family="Helvetica,sans-Serif" font-size="10.00">/antimicrox/src/gui/joycontrolstickeditdialog.cpp</text>
</a>
</g>
</g>
<!-- Node11&#45;&gt;Node12 -->
<g id="edge11" class="edge">
<title>Node11&#45;&gt;Node12</title>
<path fill="none" stroke="midnightblue" d="M1469.27,-73.48C1447.56,-61.17 1422.03,-46.69 1403.58,-36.23"/>
<polygon fill="midnightblue" stroke="midnightblue" points="1467.57,-76.54 1477.99,-78.43 1471.02,-70.45 1467.57,-76.54"/>
</g>
<!-- Node13 -->
<g id="node13" class="node">
<title>Node13</title>
<g id="a_node13"><a xlink:href="joycontrolstickcontextmenu_8cpp.html" target="_top" xlink:title=" ">
<polygon fill="white" stroke="black" points="1522,-6 1522,-36 1771,-36 1771,-6 1522,-6"/>
<text text-anchor="start" x="1530" y="-24" font-family="Helvetica,sans-Serif" font-size="10.00">/home/runner/work/doxygen</text>
<text text-anchor="middle" x="1646.5" y="-13" font-family="Helvetica,sans-Serif" font-size="10.00">/antimicrox/src/joycontrolstickcontextmenu.cpp</text>
</a>
</g>
</g>
<!-- Node11&#45;&gt;Node13 -->
<g id="edge12" class="edge">
<title>Node11&#45;&gt;Node13</title>
<path fill="none" stroke="midnightblue" d="M1555.73,-73.48C1577.44,-61.17 1602.97,-46.69 1621.42,-36.23"/>
<polygon fill="midnightblue" stroke="midnightblue" points="1553.98,-70.45 1547.01,-78.43 1557.43,-76.54 1553.98,-70.45"/>
</g>
<!-- Node14 -->
<g id="node14" class="node">
<title>Node14</title>
<g id="a_node14"><a xlink:href="mousecontrolsticksettingsdialog_8cpp.html" target="_top" xlink:title=" ">
<polygon fill="white" stroke="black" points="1789,-0.5 1789,-41.5 1988,-41.5 1988,-0.5 1789,-0.5"/>
<text text-anchor="start" x="1797" y="-29.5" font-family="Helvetica,sans-Serif" font-size="10.00">/home/runner/work/doxygen</text>
<text text-anchor="start" x="1797" y="-18.5" font-family="Helvetica,sans-Serif" font-size="10.00">/antimicrox/src/mousedialog</text>
<text text-anchor="middle" x="1888.5" y="-7.5" font-family="Helvetica,sans-Serif" font-size="10.00">/mousecontrolsticksettingsdialog.cpp</text>
</a>
</g>
</g>
<!-- Node11&#45;&gt;Node14 -->
<g id="edge13" class="edge">
<title>Node11&#45;&gt;Node14</title>
<path fill="none" stroke="midnightblue" d="M1616.97,-76.88C1671.68,-65.82 1738.25,-52.37 1791.77,-41.55"/>
<polygon fill="midnightblue" stroke="midnightblue" points="1616,-73.51 1606.9,-78.92 1617.39,-80.37 1616,-73.51"/>
</g>
<!-- Node16 -->
<g id="node16" class="node">
<title>Node16</title>
<g id="a_node16"><a xlink:href="joysensoreditdialog_8cpp.html" target="_top" xlink:title=" ">
<polygon fill="white" stroke="black" points="2006,-6 2006,-36 2233,-36 2233,-6 2006,-6"/>
<text text-anchor="start" x="2014" y="-24" font-family="Helvetica,sans-Serif" font-size="10.00">/home/runner/work/doxygen</text>
<text text-anchor="middle" x="2119.5" y="-13" font-family="Helvetica,sans-Serif" font-size="10.00">/antimicrox/src/gui/joysensoreditdialog.cpp</text>
</a>
</g>
</g>
<!-- Node15&#45;&gt;Node16 -->
<g id="edge15" class="edge">
<title>Node15&#45;&gt;Node16</title>
<path fill="none" stroke="midnightblue" d="M2201.34,-72.99C2181.76,-60.78 2158.91,-46.55 2142.34,-36.23"/>
<polygon fill="midnightblue" stroke="midnightblue" points="2199.74,-76.11 2210.08,-78.43 2203.44,-70.17 2199.74,-76.11"/>
</g>
<!-- Node17 -->
<g id="node17" class="node">
<title>Node17</title>
<g id="a_node17"><a xlink:href="joysensorcontextmenu_8cpp.html" target="_top" xlink:title=" ">
<polygon fill="white" stroke="black" points="2251.5,-6 2251.5,-36 2475.5,-36 2475.5,-6 2251.5,-6"/>
<text text-anchor="start" x="2259.5" y="-24" font-family="Helvetica,sans-Serif" font-size="10.00">/home/runner/work/doxygen</text>
<text text-anchor="middle" x="2363.5" y="-13" font-family="Helvetica,sans-Serif" font-size="10.00">/antimicrox/src/joysensorcontextmenu.cpp</text>
</a>
</g>
</g>
<!-- Node15&#45;&gt;Node17 -->
<g id="edge16" class="edge">
<title>Node15&#45;&gt;Node17</title>
<path fill="none" stroke="midnightblue" d="M2281.66,-72.99C2301.24,-60.78 2324.09,-46.55 2340.66,-36.23"/>
<polygon fill="midnightblue" stroke="midnightblue" points="2279.56,-70.17 2272.92,-78.43 2283.26,-76.11 2279.56,-70.17"/>
</g>
<!-- Node18 -->
<g id="node18" class="node">
<title>Node18</title>
<g id="a_node18"><a xlink:href="mousesensorsettingsdialog_8cpp.html" target="_top" xlink:title=" ">
<polygon fill="white" stroke="black" points="2493.5,-0.5 2493.5,-41.5 2667.5,-41.5 2667.5,-0.5 2493.5,-0.5"/>
<text text-anchor="start" x="2501.5" y="-29.5" font-family="Helvetica,sans-Serif" font-size="10.00">/home/runner/work/doxygen</text>
<text text-anchor="start" x="2501.5" y="-18.5" font-family="Helvetica,sans-Serif" font-size="10.00">/antimicrox/src/mousedialog</text>
<text text-anchor="middle" x="2580.5" y="-7.5" font-family="Helvetica,sans-Serif" font-size="10.00">/mousesensorsettingsdialog.cpp</text>
</a>
</g>
</g>
<!-- Node15&#45;&gt;Node18 -->
<g id="edge17" class="edge">
<title>Node15&#45;&gt;Node18</title>
<path fill="none" stroke="midnightblue" d="M2332.94,-77.5C2382.8,-66.32 2444.18,-52.56 2493.35,-41.54"/>
<polygon fill="midnightblue" stroke="midnightblue" points="2332.12,-74.1 2323.13,-79.7 2333.65,-80.93 2332.12,-74.1"/>
</g>
<!-- Node20 -->
<g id="node20" class="node">
<title>Node20</title>
<g id="a_node20"><a xlink:href="virtualkeyboardmousewidget_8cpp.html" target="_top" xlink:title=" ">
<polygon fill="white" stroke="black" points="2685.5,-0.5 2685.5,-41.5 2867.5,-41.5 2867.5,-0.5 2685.5,-0.5"/>
<text text-anchor="start" x="2693.5" y="-29.5" font-family="Helvetica,sans-Serif" font-size="10.00">/home/runner/work/doxygen</text>
<text text-anchor="start" x="2693.5" y="-18.5" font-family="Helvetica,sans-Serif" font-size="10.00">/antimicrox/src/keyboard</text>
<text text-anchor="middle" x="2776.5" y="-7.5" font-family="Helvetica,sans-Serif" font-size="10.00">/virtualkeyboardmousewidget.cpp</text>
</a>
</g>
</g>
<!-- Node19&#45;&gt;Node20 -->
<g id="edge19" class="edge">
<title>Node19&#45;&gt;Node20</title>
<path fill="none" stroke="midnightblue" d="M2776.5,-68.3C2776.5,-59.3 2776.5,-49.65 2776.5,-41.51"/>
<polygon fill="midnightblue" stroke="midnightblue" points="2773,-68.43 2776.5,-78.43 2780,-68.43 2773,-68.43"/>
</g>
<!-- Node21 -->
<g id="node21" class="node">
<title>Node21</title>
<g id="a_node21"><a xlink:href="mousebuttonsettingsdialog_8cpp.html" target="_top" xlink:title=" ">
<polygon fill="white" stroke="black" points="2886,-0.5 2886,-41.5 3059,-41.5 3059,-0.5 2886,-0.5"/>
<text text-anchor="start" x="2894" y="-29.5" font-family="Helvetica,sans-Serif" font-size="10.00">/home/runner/work/doxygen</text>
<text text-anchor="start" x="2894" y="-18.5" font-family="Helvetica,sans-Serif" font-size="10.00">/antimicrox/src/mousedialog</text>
<text text-anchor="middle" x="2972.5" y="-7.5" font-family="Helvetica,sans-Serif" font-size="10.00">/mousebuttonsettingsdialog.cpp</text>
</a>
</g>
</g>
<!-- Node19&#45;&gt;Node21 -->
<g id="edge20" class="edge">
<title>Node19&#45;&gt;Node21</title>
<path fill="none" stroke="midnightblue" d="M2836.47,-74.75C2863.9,-64.11 2896.05,-51.65 2922.2,-41.51"/>
<polygon fill="midnightblue" stroke="midnightblue" points="2835.03,-71.55 2826.97,-78.43 2837.56,-78.08 2835.03,-71.55"/>
</g>
</g>
</svg>
        <g id="navigator" transform="translate(0 0)" fill="#404254">
                <rect fill="#f2f5e9" fill-opacity="0.5" stroke="#606060" stroke-width=".5" x="0" y="0" width="60" height="60"/>
                <use id="zoomplus" xlink:href="#zoomPlus" x="17" y="9" onmousedown="handleZoom(evt,'in')"/>
                <use id="zoomminus" xlink:href="#zoomMin" x="42" y="9" onmousedown="handleZoom(evt,'out')"/>
                <use id="reset" xlink:href="#resetDef" x="30" y="36" onmousedown="handleReset()"/>
                <g id="arrowUp" xlink:href="#dirArrow" transform="translate(30 24)" onmousedown="handlePan(0,-1)">
                  <use xlink:href="#rim" fill="#404040">
                        <set attributeName="fill" to="#808080" begin="arrowUp.mouseover" end="arrowUp.mouseout"/>
                  </use>
                  <path fill="none" stroke="white" stroke-width="1.5" d="M0,-3.0v7 M-2.5,-0.5L0,-3.0L2.5,-0.5"/>
                </g>
                <g id="arrowRight" xlink:href="#dirArrow" transform="rotate(90) translate(36 -43)" onmousedown="handlePan(1,0)">
                  <use xlink:href="#rim" fill="#404040">
                        <set attributeName="fill" to="#808080" begin="arrowRight.mouseover" end="arrowRight.mouseout"/>
                  </use>
                  <path fill="none" stroke="white" stroke-width="1.5" d="M0,-3.0v7 M-2.5,-0.5L0,-3.0L2.5,-0.5"/>
                </g>
                <g id="arrowDown" xlink:href="#dirArrow" transform="rotate(180) translate(-30 -48)" onmousedown="handlePan(0,1)">
                  <use xlink:href="#rim" fill="#404040">
                        <set attributeName="fill" to="#808080" begin="arrowDown.mouseover" end="arrowDown.mouseout"/>
                  </use>
                  <path fill="none" stroke="white" stroke-width="1.5" d="M0,-3.0v7 M-2.5,-0.5L0,-3.0L2.5,-0.5"/>
                </g>
                <g id="arrowLeft" xlink:href="#dirArrow" transform="rotate(270) translate(-36 17)" onmousedown="handlePan(-1,0)">
                  <use xlink:href="#rim" fill="#404040">
                        <set attributeName="fill" to="#808080" begin="arrowLeft.mouseover" end="arrowLeft.mouseout"/>
                  </use>
                  <path fill="none" stroke="white" stroke-width="1.5" d="M0,-3.0v7 M-2.5,-0.5L0,-3.0L2.5,-0.5"/>
                </g>
        </g>
        <svg viewBox="0 0 15 15" width="100%" height="30px" preserveAspectRatio="xMaxYMin meet">
         <g id="arrow_out" transform="scale(0.3 0.3)">
          <a xlink:href="mousesettingsdialog_8h__dep__incl_org.svg" target="_base">
           <rect id="button" ry="5" rx="5" y="6" x="6" height="38" width="38"
                fill="#f2f5e9" fill-opacity="0.5" stroke="#606060" stroke-width="1.0"/>
           <path id="arrow"
             d="M 11.500037,31.436501 C 11.940474,20.09759 22.043105,11.32322 32.158766,21.979434 L 37.068811,17.246167 C 37.068811,17.246167 37.088388,32 37.088388,32 L 22.160133,31.978069 C 22.160133,31.978069 26.997745,27.140456 26.997745,27.140456 C 18.528582,18.264221 13.291696,25.230495 11.500037,31.436501 z"
             style="fill:#404040;"/>
          </a>
         </g>
        </svg>
</svg>
