<?xml version="1.0" encoding="UTF-8" standalone="no"?>
<!DOCTYPE svg PUBLIC "-//W3C//DTD SVG 1.1//EN"
 "http://www.w3.org/Graphics/SVG/1.1/DTD/svg11.dtd">
<!-- Generated by graphviz version 2.43.0 (0)
 -->
<!-- Title: PadderCommon::configPath Pages: 1 -->
<svg width="840pt" height="258pt"
 viewBox="0.00 0.00 840.00 258.34" xmlns="http://www.w3.org/2000/svg" xmlns:xlink="http://www.w3.org/1999/xlink">
<g id="graph0" class="graph" transform="scale(1 1) rotate(0) translate(4 254.34)">
<title>PadderCommon::configPath</title>
<polygon fill="white" stroke="transparent" points="-4,4 -4,-254.34 836,-254.34 836,4 -4,4"/>
<!-- Node1 -->
<g id="node1" class="node">
<title>Node1</title>
<g id="a_node1"><a xlink:title=" ">
<polygon fill="#bfbfbf" stroke="black" points="682,-110.5 682,-129.5 832,-129.5 832,-110.5 682,-110.5"/>
<text text-anchor="middle" x="757" y="-117.5" font-family="Helvetica,sans-Serif" font-size="10.00">PadderCommon::configPath</text>
</a>
</g>
</g>
<!-- Node2 -->
<g id="node2" class="node">
<title>Node2</title>
<g id="a_node2"><a xlink:href="namespacePadderCommon.html#a2f19456ecfd227442aa2594150200d61" target="_top" xlink:title=" ">
<polygon fill="white" stroke="black" points="267,-127 267,-157 443,-157 443,-127 267,-127"/>
<text text-anchor="start" x="275" y="-145" font-family="Helvetica,sans-Serif" font-size="10.00">PadderCommon::configAntimicro</text>
<text text-anchor="middle" x="355" y="-134" font-family="Helvetica,sans-Serif" font-size="10.00">LegacyFilePath</text>
</a>
</g>
</g>
<!-- Node1&#45;&gt;Node2 -->
<g id="edge1" class="edge">
<title>Node1&#45;&gt;Node2</title>
<path fill="none" stroke="midnightblue" d="M671.58,-124.64C604.48,-128.33 510.94,-133.48 443.13,-137.21"/>
<polygon fill="midnightblue" stroke="midnightblue" points="671.91,-128.13 681.7,-124.09 671.52,-121.14 671.91,-128.13"/>
</g>
<!-- Node3 -->
<g id="node3" class="node">
<title>Node3</title>
<g id="a_node3"><a xlink:href="main_8cpp.html#a9d6cec482d9fe4e148ad333c21aef8cb" target="_top" xlink:title="Function used for copying settings used by antimicro and previous revisions of antimicrox to provide ...">
<polygon fill="white" stroke="black" points="77,-132.5 77,-151.5 231,-151.5 231,-132.5 77,-132.5"/>
<text text-anchor="middle" x="154" y="-139.5" font-family="Helvetica,sans-Serif" font-size="10.00">importLegacySettingsIfExist</text>
</a>
</g>
</g>
<!-- Node1&#45;&gt;Node3 -->
<g id="edge10" class="edge">
<title>Node1&#45;&gt;Node3</title>
<path fill="none" stroke="midnightblue" d="M671.48,-114.06C573.78,-108.49 408.27,-103.03 267,-118 241,-120.75 212.15,-127.01 190.25,-132.45"/>
<polygon fill="midnightblue" stroke="midnightblue" points="671.41,-117.56 681.6,-114.65 671.82,-110.57 671.41,-117.56"/>
</g>
<!-- Node4 -->
<g id="node4" class="node">
<title>Node4</title>
<g id="a_node4"><a xlink:href="main_8cpp.html#a0ddf1224851353fc92bfbff6f499fa97" target="_top" xlink:title=" ">
<polygon fill="white" stroke="black" points="0,-214.5 0,-233.5 41,-233.5 41,-214.5 0,-214.5"/>
<text text-anchor="middle" x="20.5" y="-221.5" font-family="Helvetica,sans-Serif" font-size="10.00">main</text>
</a>
</g>
</g>
<!-- Node1&#45;&gt;Node4 -->
<g id="edge11" class="edge">
<title>Node1&#45;&gt;Node4</title>
<path fill="none" stroke="midnightblue" d="M739.48,-137.05C719.44,-156.48 683.61,-187.33 646,-201 421.16,-282.73 120.34,-240.73 41.23,-227.51"/>
<polygon fill="midnightblue" stroke="midnightblue" points="742.21,-139.27 746.84,-129.74 737.28,-134.31 742.21,-139.27"/>
</g>
<!-- Node5 -->
<g id="node5" class="node">
<title>Node5</title>
<g id="a_node5"><a xlink:href="namespacePadderCommon.html#ab7f599c8a1dc9f54a4513dbbcafbd76a" target="_top" xlink:title=" ">
<polygon fill="white" stroke="black" points="479,-172.5 479,-191.5 646,-191.5 646,-172.5 479,-172.5"/>
<text text-anchor="middle" x="562.5" y="-179.5" font-family="Helvetica,sans-Serif" font-size="10.00">PadderCommon::configFilePath</text>
</a>
</g>
</g>
<!-- Node1&#45;&gt;Node5 -->
<g id="edge4" class="edge">
<title>Node1&#45;&gt;Node5</title>
<path fill="none" stroke="midnightblue" d="M716.5,-132.72C679.9,-144.51 626.27,-161.78 593.19,-172.44"/>
<polygon fill="midnightblue" stroke="midnightblue" points="717.9,-135.95 726.34,-129.55 715.75,-129.29 717.9,-135.95"/>
</g>
<!-- Node6 -->
<g id="node6" class="node">
<title>Node6</title>
<g id="a_node6"><a xlink:href="namespacePadderCommon.html#ab63b634df6e475e9241d30d41603eb92" target="_top" xlink:title=" ">
<polygon fill="white" stroke="black" points="273,-39 273,-69 437,-69 437,-39 273,-39"/>
<text text-anchor="start" x="281" y="-57" font-family="Helvetica,sans-Serif" font-size="10.00">PadderCommon::configLegacy</text>
<text text-anchor="middle" x="355" y="-46" font-family="Helvetica,sans-Serif" font-size="10.00">FilePath</text>
</a>
</g>
</g>
<!-- Node1&#45;&gt;Node6 -->
<g id="edge8" class="edge">
<title>Node1&#45;&gt;Node6</title>
<path fill="none" stroke="midnightblue" d="M722.3,-106.9C700.79,-99.05 672.13,-89.56 646,-84 576.32,-69.17 495.6,-61.58 437.04,-57.75"/>
<polygon fill="midnightblue" stroke="midnightblue" points="721.35,-110.28 731.94,-110.48 723.78,-103.72 721.35,-110.28"/>
</g>
<!-- Node7 -->
<g id="node7" class="node">
<title>Node7</title>
<g id="a_node7"><a xlink:href="classJoyTabWidget.html#a7e15bfce4bac6297eda8fc3a4e9d7196" target="_top" xlink:title=" ">
<polygon fill="white" stroke="black" points="485,-3.5 485,-22.5 640,-22.5 640,-3.5 485,-3.5"/>
<text text-anchor="middle" x="562.5" y="-10.5" font-family="Helvetica,sans-Serif" font-size="10.00">JoyTabWidget::saveAsConfig</text>
</a>
</g>
</g>
<!-- Node1&#45;&gt;Node7 -->
<g id="edge12" class="edge">
<title>Node1&#45;&gt;Node7</title>
<path fill="none" stroke="midnightblue" d="M736.53,-103.99C715.29,-87.11 679.81,-60.59 646,-43 630.05,-34.7 611.27,-27.68 595.67,-22.52"/>
<polygon fill="midnightblue" stroke="midnightblue" points="734.47,-106.82 744.45,-110.37 738.86,-101.37 734.47,-106.82"/>
</g>
<!-- Node2&#45;&gt;Node3 -->
<g id="edge2" class="edge">
<title>Node2&#45;&gt;Node3</title>
<path fill="none" stroke="midnightblue" d="M256.44,-142C248,-142 239.53,-142 231.29,-142"/>
<polygon fill="midnightblue" stroke="midnightblue" points="256.72,-145.5 266.72,-142 256.72,-138.5 256.72,-145.5"/>
</g>
<!-- Node3&#45;&gt;Node4 -->
<g id="edge3" class="edge">
<title>Node3&#45;&gt;Node4</title>
<path fill="none" stroke="midnightblue" d="M128.87,-157.05C101.99,-173.81 59.35,-200.4 36.74,-214.49"/>
<polygon fill="midnightblue" stroke="midnightblue" points="131.02,-159.83 137.66,-151.57 127.32,-153.89 131.02,-159.83"/>
</g>
<!-- Node5&#45;&gt;Node2 -->
<g id="edge5" class="edge">
<title>Node5&#45;&gt;Node2</title>
<path fill="none" stroke="midnightblue" d="M502.52,-170.52C480.89,-166.31 456.08,-161.48 433.09,-157.01"/>
<polygon fill="midnightblue" stroke="midnightblue" points="502.05,-173.99 512.54,-172.47 503.39,-167.12 502.05,-173.99"/>
</g>
<!-- Node5&#45;&gt;Node3 -->
<g id="edge6" class="edge">
<title>Node5&#45;&gt;Node3</title>
<path fill="none" stroke="midnightblue" d="M468.68,-181.28C410.52,-179.83 334.12,-176.13 267,-167 241.14,-163.48 212.42,-157.02 190.53,-151.54"/>
<polygon fill="midnightblue" stroke="midnightblue" points="468.88,-184.78 478.96,-181.51 469.04,-177.78 468.88,-184.78"/>
</g>
<!-- Node5&#45;&gt;Node4 -->
<g id="edge7" class="edge">
<title>Node5&#45;&gt;Node4</title>
<path fill="none" stroke="midnightblue" d="M468.92,-189.2C338.62,-199.34 109.4,-217.16 41.18,-222.47"/>
<polygon fill="midnightblue" stroke="midnightblue" points="469.2,-192.69 478.9,-188.42 468.66,-185.71 469.2,-192.69"/>
</g>
<!-- Node6&#45;&gt;Node3 -->
<g id="edge9" class="edge">
<title>Node6&#45;&gt;Node3</title>
<path fill="none" stroke="midnightblue" d="M296.65,-72.45C286.67,-76.03 276.46,-79.95 267,-84 232.18,-98.92 193.27,-120.16 171.71,-132.37"/>
<polygon fill="midnightblue" stroke="midnightblue" points="297.84,-75.73 306.11,-69.11 295.52,-69.13 297.84,-75.73"/>
</g>
<!-- Node8 -->
<g id="node8" class="node">
<title>Node8</title>
<g id="a_node8"><a xlink:href="classJoyTabWidget.html#a6a6bd9ccd83557de08b6e698598f2123" target="_top" xlink:title=" ">
<polygon fill="white" stroke="black" points="277.5,-0.5 277.5,-19.5 432.5,-19.5 432.5,-0.5 277.5,-0.5"/>
<text text-anchor="middle" x="355" y="-7.5" font-family="Helvetica,sans-Serif" font-size="10.00">JoyTabWidget::JoyTabWidget</text>
</a>
</g>
</g>
<!-- Node7&#45;&gt;Node8 -->
<g id="edge13" class="edge">
<title>Node7&#45;&gt;Node8</title>
<path fill="none" stroke="midnightblue" d="M474.85,-11.73C460.81,-11.53 446.36,-11.32 432.58,-11.12"/>
<polygon fill="midnightblue" stroke="midnightblue" points="474.93,-15.24 484.98,-11.88 475.03,-8.24 474.93,-15.24"/>
</g>
</g>
</svg>
