<?xml version="1.0" encoding="UTF-8" standalone="no"?>
<!DOCTYPE svg PUBLIC "-//W3C//DTD SVG 1.1//EN"
 "http://www.w3.org/Graphics/SVG/1.1/DTD/svg11.dtd">
<!-- Generated by graphviz version 2.43.0 (0)
 -->
<!-- Title: /home/runner/work/doxygen/antimicrox/src/qtwinkeymapper.cpp Pages: 1 -->
<svg width="473pt" height="207pt"
 viewBox="0.00 0.00 473.00 207.00" xmlns="http://www.w3.org/2000/svg" xmlns:xlink="http://www.w3.org/1999/xlink">
<g id="graph0" class="graph" transform="scale(1 1) rotate(0) translate(4 203)">
<title>/home/runner/work/doxygen/antimicrox/src/qtwinkeymapper.cpp</title>
<polygon fill="white" stroke="transparent" points="-4,4 -4,-203 469,-203 469,4 -4,4"/>
<!-- Node1 -->
<g id="node1" class="node">
<title>Node1</title>
<g id="a_node1"><a xlink:title=" ">
<polygon fill="#bfbfbf" stroke="black" points="160.5,-168.5 160.5,-198.5 354.5,-198.5 354.5,-168.5 160.5,-168.5"/>
<text text-anchor="start" x="168.5" y="-186.5" font-family="Helvetica,sans-Serif" font-size="10.00">/home/runner/work/doxygen</text>
<text text-anchor="middle" x="257.5" y="-175.5" font-family="Helvetica,sans-Serif" font-size="10.00">/antimicrox/src/qtwinkeymapper.cpp</text>
</a>
</g>
</g>
<!-- Node2 -->
<g id="node2" class="node">
<title>Node2</title>
<g id="a_node2"><a xlink:title=" ">
<polygon fill="white" stroke="#bfbfbf" points="0,-112.5 0,-131.5 83,-131.5 83,-112.5 0,-112.5"/>
<text text-anchor="middle" x="41.5" y="-119.5" font-family="Helvetica,sans-Serif" font-size="10.00">qt_windows.h</text>
</a>
</g>
</g>
<!-- Node1&#45;&gt;Node2 -->
<g id="edge1" class="edge">
<title>Node1&#45;&gt;Node2</title>
<path fill="none" stroke="midnightblue" d="M206.58,-168.47C168.67,-158.03 117.58,-143.96 82.33,-134.25"/>
<polygon fill="midnightblue" stroke="midnightblue" points="82.95,-130.79 72.38,-131.51 81.09,-137.54 82.95,-130.79"/>
</g>
<!-- Node3 -->
<g id="node3" class="node">
<title>Node3</title>
<g id="a_node3"><a xlink:title=" ">
<polygon fill="white" stroke="#bfbfbf" points="101,-112.5 101,-131.5 186,-131.5 186,-112.5 101,-112.5"/>
<text text-anchor="middle" x="143.5" y="-119.5" font-family="Helvetica,sans-Serif" font-size="10.00">QHashIterator</text>
</a>
</g>
</g>
<!-- Node1&#45;&gt;Node3 -->
<g id="edge2" class="edge">
<title>Node1&#45;&gt;Node3</title>
<path fill="none" stroke="midnightblue" d="M230.48,-168.4C211.87,-158.68 187.29,-145.86 169.01,-136.31"/>
<polygon fill="midnightblue" stroke="midnightblue" points="170.57,-133.18 160.09,-131.66 167.33,-139.39 170.57,-133.18"/>
</g>
<!-- Node4 -->
<g id="node4" class="node">
<title>Node4</title>
<g id="a_node4"><a xlink:href="qtwinkeymapper_8h.html" target="_top" xlink:title=" ">
<polygon fill="white" stroke="black" points="204,-112.5 204,-131.5 311,-131.5 311,-112.5 204,-112.5"/>
<text text-anchor="middle" x="257.5" y="-119.5" font-family="Helvetica,sans-Serif" font-size="10.00">qtwinkeymapper.h</text>
</a>
</g>
</g>
<!-- Node1&#45;&gt;Node4 -->
<g id="edge3" class="edge">
<title>Node1&#45;&gt;Node4</title>
<path fill="none" stroke="midnightblue" d="M257.5,-168.4C257.5,-160.47 257.5,-150.46 257.5,-141.86"/>
<polygon fill="midnightblue" stroke="midnightblue" points="261,-141.66 257.5,-131.66 254,-141.66 261,-141.66"/>
</g>
<!-- Node8 -->
<g id="node8" class="node">
<title>Node8</title>
<g id="a_node8"><a xlink:href="winextras_8h.html" target="_top" xlink:title=" ">
<polygon fill="white" stroke="black" points="317.5,-56.5 317.5,-75.5 391.5,-75.5 391.5,-56.5 317.5,-56.5"/>
<text text-anchor="middle" x="354.5" y="-63.5" font-family="Helvetica,sans-Serif" font-size="10.00">winextras.h</text>
</a>
</g>
</g>
<!-- Node1&#45;&gt;Node8 -->
<g id="edge7" class="edge">
<title>Node1&#45;&gt;Node8</title>
<path fill="none" stroke="midnightblue" d="M278.83,-168.38C291.71,-159.11 307.83,-146.13 319.5,-132 331.34,-117.67 341,-98.72 347.15,-84.97"/>
<polygon fill="midnightblue" stroke="midnightblue" points="350.42,-86.22 351.14,-75.65 343.99,-83.46 350.42,-86.22"/>
</g>
<!-- Node11 -->
<g id="node11" class="node">
<title>Node11</title>
<g id="a_node11"><a xlink:title=" ">
<polygon fill="white" stroke="#bfbfbf" points="367.5,-112.5 367.5,-131.5 423.5,-131.5 423.5,-112.5 367.5,-112.5"/>
<text text-anchor="middle" x="395.5" y="-119.5" font-family="Helvetica,sans-Serif" font-size="10.00">QDebug</text>
</a>
</g>
</g>
<!-- Node1&#45;&gt;Node11 -->
<g id="edge12" class="edge">
<title>Node1&#45;&gt;Node11</title>
<path fill="none" stroke="midnightblue" d="M290.2,-168.4C313.25,-158.46 343.86,-145.26 366.13,-135.66"/>
<polygon fill="midnightblue" stroke="midnightblue" points="367.62,-138.83 375.42,-131.66 364.85,-132.4 367.62,-138.83"/>
</g>
<!-- Node5 -->
<g id="node5" class="node">
<title>Node5</title>
<g id="a_node5"><a xlink:href="qtkeymapperbase_8h.html" target="_top" xlink:title=" ">
<polygon fill="white" stroke="black" points="186,-56.5 186,-75.5 299,-75.5 299,-56.5 186,-56.5"/>
<text text-anchor="middle" x="242.5" y="-63.5" font-family="Helvetica,sans-Serif" font-size="10.00">qtkeymapperbase.h</text>
</a>
</g>
</g>
<!-- Node4&#45;&gt;Node5 -->
<g id="edge4" class="edge">
<title>Node4&#45;&gt;Node5</title>
<path fill="none" stroke="midnightblue" d="M255.02,-112.08C253.01,-104.85 250.11,-94.41 247.61,-85.4"/>
<polygon fill="midnightblue" stroke="midnightblue" points="250.98,-84.45 244.93,-75.75 244.24,-86.32 250.98,-84.45"/>
</g>
<!-- Node6 -->
<g id="node6" class="node">
<title>Node6</title>
<g id="a_node6"><a xlink:title=" ">
<polygon fill="white" stroke="#bfbfbf" points="203,-0.5 203,-19.5 252,-19.5 252,-0.5 203,-0.5"/>
<text text-anchor="middle" x="227.5" y="-7.5" font-family="Helvetica,sans-Serif" font-size="10.00">QHash</text>
</a>
</g>
</g>
<!-- Node5&#45;&gt;Node6 -->
<g id="edge5" class="edge">
<title>Node5&#45;&gt;Node6</title>
<path fill="none" stroke="midnightblue" d="M240.02,-56.08C238.01,-48.85 235.11,-38.41 232.61,-29.4"/>
<polygon fill="midnightblue" stroke="midnightblue" points="235.98,-28.45 229.93,-19.75 229.24,-30.32 235.98,-28.45"/>
</g>
<!-- Node7 -->
<g id="node7" class="node">
<title>Node7</title>
<g id="a_node7"><a xlink:title=" ">
<polygon fill="white" stroke="#bfbfbf" points="270.5,-0.5 270.5,-19.5 326.5,-19.5 326.5,-0.5 270.5,-0.5"/>
<text text-anchor="middle" x="298.5" y="-7.5" font-family="Helvetica,sans-Serif" font-size="10.00">QObject</text>
</a>
</g>
</g>
<!-- Node5&#45;&gt;Node7 -->
<g id="edge6" class="edge">
<title>Node5&#45;&gt;Node7</title>
<path fill="none" stroke="midnightblue" d="M251.5,-56.32C259.69,-48.42 272.01,-36.55 281.97,-26.94"/>
<polygon fill="midnightblue" stroke="midnightblue" points="284.57,-29.29 289.34,-19.83 279.71,-24.26 284.57,-29.29"/>
</g>
<!-- Node8&#45;&gt;Node6 -->
<g id="edge8" class="edge">
<title>Node8&#45;&gt;Node6</title>
<path fill="none" stroke="midnightblue" d="M334.38,-56.44C313.48,-47.56 280.57,-33.56 256.78,-23.45"/>
<polygon fill="midnightblue" stroke="midnightblue" points="258.1,-20.21 247.53,-19.52 255.36,-26.65 258.1,-20.21"/>
</g>
<!-- Node8&#45;&gt;Node7 -->
<g id="edge9" class="edge">
<title>Node8&#45;&gt;Node7</title>
<path fill="none" stroke="midnightblue" d="M345.5,-56.32C337.31,-48.42 324.99,-36.55 315.03,-26.94"/>
<polygon fill="midnightblue" stroke="midnightblue" points="317.29,-24.26 307.66,-19.83 312.43,-29.29 317.29,-24.26"/>
</g>
<!-- Node9 -->
<g id="node9" class="node">
<title>Node9</title>
<g id="a_node9"><a xlink:title=" ">
<polygon fill="white" stroke="#bfbfbf" points="345,-0.5 345,-19.5 394,-19.5 394,-0.5 345,-0.5"/>
<text text-anchor="middle" x="369.5" y="-7.5" font-family="Helvetica,sans-Serif" font-size="10.00">QPoint</text>
</a>
</g>
</g>
<!-- Node8&#45;&gt;Node9 -->
<g id="edge10" class="edge">
<title>Node8&#45;&gt;Node9</title>
<path fill="none" stroke="midnightblue" d="M356.98,-56.08C358.99,-48.85 361.89,-38.41 364.39,-29.4"/>
<polygon fill="midnightblue" stroke="midnightblue" points="367.76,-30.32 367.07,-19.75 361.02,-28.45 367.76,-30.32"/>
</g>
<!-- Node10 -->
<g id="node10" class="node">
<title>Node10</title>
<g id="a_node10"><a xlink:title=" ">
<polygon fill="white" stroke="#bfbfbf" points="412,-0.5 412,-19.5 465,-19.5 465,-0.5 412,-0.5"/>
<text text-anchor="middle" x="438.5" y="-7.5" font-family="Helvetica,sans-Serif" font-size="10.00">QString</text>
</a>
</g>
</g>
<!-- Node8&#45;&gt;Node10 -->
<g id="edge11" class="edge">
<title>Node8&#45;&gt;Node10</title>
<path fill="none" stroke="midnightblue" d="M368,-56.32C381.1,-47.9 401.21,-34.97 416.61,-25.07"/>
<polygon fill="midnightblue" stroke="midnightblue" points="418.52,-28.01 425.04,-19.65 414.73,-22.12 418.52,-28.01"/>
</g>
</g>
</svg>
