<?xml version="1.0" encoding="UTF-8" standalone="no"?>
<!DOCTYPE svg PUBLIC "-//W3C//DTD SVG 1.1//EN"
 "http://www.w3.org/Graphics/SVG/1.1/DTD/svg11.dtd">
<!-- Generated by graphviz version 2.43.0 (0)
 -->
<!-- Title: /home/runner/work/doxygen/antimicrox/src/qtx11keymapper.cpp Pages: 1 -->
<!--zoomable 203 -->

<svg id="main" version="1.1" xmlns="http://www.w3.org/2000/svg" xmlns:xlink="http://www.w3.org/1999/xlink" xml:space="preserve" onload="init(evt)">
<style type="text/css"><![CDATA[
.node, .edge {opacity: 0.7;}
.node.selected, .edge.selected {opacity: 1;}
.edge:hover path { stroke: red; }
.edge:hover polygon { stroke: red; fill: red; }
]]></style>

<defs>
  <circle id="rim" cx="0" cy="0" r="7"/>
  <circle id="rim2" cx="0" cy="0" r="3.5"/>
  <g id="zoomPlus">
    <use xlink:href="#rim" fill="#404040"><set attributeName="fill" to="#808080" begin="zoomplus.mouseover" end="zoomplus.mouseout"/></use>
    <path d="M-4,0h8M0,-4v8" fill="none" stroke="white" stroke-width="1.5" pointer-events="none"/>
  </g>
  <g id="zoomMin">
    <use xlink:href="#rim" fill="#404040"><set attributeName="fill" to="#808080" begin="zoomminus.mouseover" end="zoomminus.mouseout"/></use>
    <path d="M-4,0h8" fill="none" stroke="white" stroke-width="1.5" pointer-events="none"/>
  </g>
  <g id="arrowUp" transform="translate(30 24)">
    <use xlink:href="#rim"/>
    <path pointer-events="none" fill="none" stroke="white" stroke-width="1.5" d="M0,-3.0v7 M-2.5,-0.5L0,-3.0L2.5,-0.5"/>
  </g>
  <g id="arrowRight" transform="rotate(90) translate(36 -43)">
    <use xlink:href="#rim"/>
    <path pointer-events="none" fill="none" stroke="white" stroke-width="1.5" d="M0,-3.0v7 M-2.5,-0.5L0,-3.0L2.5,-0.5"/>
  </g>
  <g id="arrowDown" transform="rotate(180) translate(-30 -48)">
    <use xlink:href="#rim"/>
    <path pointer-events="none" fill="none" stroke="white" stroke-width="1.5" d="M0,-3.0v7 M-2.5,-0.5L0,-3.0L2.5,-0.5"/>
  </g>
  <g id="arrowLeft" transform="rotate(270) translate(-36 17)">
    <use xlink:href="#rim"/>
    <path pointer-events="none" fill="none" stroke="white" stroke-width="1.5" d="M0,-3.0v7 M-2.5,-0.5L0,-3.0L2.5,-0.5"/>
  </g>
  <g id="resetDef">
    <use xlink:href="#rim2" fill="#404040"><set attributeName="fill" to="#808080" begin="reset.mouseover" end="reset.mouseout"/></use>
  </g>
</defs>
<script type="application/ecmascript">
var viewWidth = 951;
var viewHeight = 203;
var sectionId = 'dynsection-0';
</script>
<script type="application/ecmascript" xlink:href="svg.min.js"/>
<svg id="graph" class="graph">
<g id="viewport">
<title>/home/runner/work/doxygen/antimicrox/src/qtx11keymapper.cpp</title>
<!-- Node1 -->
<g id="Node000001" class="node">
<title>Node1</title>
<g id="a_Node000001"><a xlink:title=" ">
<polygon fill="#999999" stroke="#666666" points="474.71,-195 280.71,-195 280.71,-165 474.71,-165 474.71,-195"/>
<text text-anchor="start" x="288.71" y="-183" font-family="Helvetica,sans-Serif" font-size="10.00">/home/runner/work/doxygen</text>
<text text-anchor="middle" x="377.71" y="-172" font-family="Helvetica,sans-Serif" font-size="10.00">/antimicrox/src/qtx11keymapper.cpp</text>
</a>
</g>
</g>
<!-- Node2 -->
<g id="Node000002" class="node">
<title>Node2</title>
<g id="a_Node000002"><a xlink:href="qtx11keymapper_8h.html" target="_top" xlink:title=" ">
<polygon fill="white" stroke="#666666" points="130.21,-129 23.21,-129 23.21,-110 130.21,-110 130.21,-129"/>
<text text-anchor="middle" x="76.71" y="-117" font-family="Helvetica,sans-Serif" font-size="10.00">qtx11keymapper.h</text>
</a>
</g>
</g>
<!-- Node1&#45;&gt;Node2 -->
<g id="edge1_Node000001_Node000002" class="edge">
<title>Node1&#45;&gt;Node2</title>
<g id="a_edge1_Node000001_Node000002"><a xlink:title=" ">
<path fill="none" stroke="#63b8ff" d="M305.62,-164.99C251.87,-154.54 179.62,-140.5 130.78,-131.01"/>
<polygon fill="#63b8ff" stroke="#63b8ff" points="131.21,-127.53 120.73,-129.05 129.87,-134.4 131.21,-127.53"/>
</a>
</g>
</g>
<!-- Node4 -->
<g id="Node000004" class="node">
<title>Node4</title>
<g id="a_Node000004"><a xlink:title=" ">
<polygon fill="#e0e0e0" stroke="#999999" points="50.21,-19 1.21,-19 1.21,0 50.21,0 50.21,-19"/>
<text text-anchor="middle" x="25.71" y="-7" font-family="Helvetica,sans-Serif" font-size="10.00">QHash</text>
</a>
</g>
</g>
<!-- Node1&#45;&gt;Node4 -->
<g id="edge8_Node000001_Node000004" class="edge">
<title>Node1&#45;&gt;Node4</title>
<g id="a_edge8_Node000001_Node000004"><a xlink:title=" ">
<path fill="none" stroke="#63b8ff" d="M280.68,-179.1C185.19,-176.93 48.72,-167 13.71,-129 -11.53,-101.6 4.71,-54.07 16.54,-28.32"/>
<polygon fill="#63b8ff" stroke="#63b8ff" points="19.83,-29.55 21.06,-19.02 13.54,-26.49 19.83,-29.55"/>
</a>
</g>
</g>
<!-- Node6 -->
<g id="Node000006" class="node">
<title>Node6</title>
<g id="a_Node000006"><a xlink:title=" ">
<polygon fill="#e0e0e0" stroke="#999999" points="266.21,-129 187.21,-129 187.21,-110 266.21,-110 266.21,-129"/>
<text text-anchor="middle" x="226.71" y="-117" font-family="Helvetica,sans-Serif" font-size="10.00">QApplication</text>
</a>
</g>
</g>
<!-- Node1&#45;&gt;Node6 -->
<g id="edge5_Node000001_Node000006" class="edge">
<title>Node1&#45;&gt;Node6</title>
<g id="a_edge5_Node000001_Node000006"><a xlink:title=" ">
<path fill="none" stroke="#63b8ff" d="M341.55,-164.99C316.24,-155.18 282.76,-142.21 258.48,-132.81"/>
<polygon fill="#63b8ff" stroke="#63b8ff" points="259.6,-129.49 249.01,-129.14 257.07,-136.02 259.6,-129.49"/>
</a>
</g>
</g>
<!-- Node7 -->
<g id="Node000007" class="node">
<title>Node7</title>
<g id="a_Node000007"><a xlink:title=" ">
<polygon fill="#e0e0e0" stroke="#999999" points="331.21,-129 284.21,-129 284.21,-110 331.21,-110 331.21,-129"/>
<text text-anchor="middle" x="307.71" y="-117" font-family="Helvetica,sans-Serif" font-size="10.00">QChar</text>
</a>
</g>
</g>
<!-- Node1&#45;&gt;Node7 -->
<g id="edge6_Node000001_Node000007" class="edge">
<title>Node1&#45;&gt;Node7</title>
<g id="a_edge6_Node000001_Node000007"><a xlink:title=" ">
<path fill="none" stroke="#63b8ff" d="M360.77,-164.84C350.3,-156.09 336.86,-144.85 326.12,-135.88"/>
<polygon fill="#63b8ff" stroke="#63b8ff" points="328.12,-132.99 318.2,-129.27 323.63,-138.36 328.12,-132.99"/>
</a>
</g>
</g>
<!-- Node8 -->
<g id="Node000008" class="node">
<title>Node8</title>
<g id="a_Node000008"><a xlink:title=" ">
<polygon fill="#e0e0e0" stroke="#999999" points="405.71,-129 349.71,-129 349.71,-110 405.71,-110 405.71,-129"/>
<text text-anchor="middle" x="377.71" y="-117" font-family="Helvetica,sans-Serif" font-size="10.00">QDebug</text>
</a>
</g>
</g>
<!-- Node1&#45;&gt;Node8 -->
<g id="edge7_Node000001_Node000008" class="edge">
<title>Node1&#45;&gt;Node8</title>
<g id="a_edge7_Node000001_Node000008"><a xlink:title=" ">
<path fill="none" stroke="#63b8ff" d="M377.71,-164.84C377.71,-157.21 377.71,-147.7 377.71,-139.45"/>
<polygon fill="#63b8ff" stroke="#63b8ff" points="381.22,-139.27 377.71,-129.27 374.22,-139.27 381.22,-139.27"/>
</a>
</g>
</g>
<!-- Node9 -->
<g id="Node000009" class="node">
<title>Node9</title>
<g id="a_Node000009"><a xlink:title=" ">
<polygon fill="#e0e0e0" stroke="#999999" points="509.21,-129 424.21,-129 424.21,-110 509.21,-110 509.21,-129"/>
<text text-anchor="middle" x="466.71" y="-117" font-family="Helvetica,sans-Serif" font-size="10.00">QHashIterator</text>
</a>
</g>
</g>
<!-- Node1&#45;&gt;Node9 -->
<g id="edge9_Node000001_Node000009" class="edge">
<title>Node1&#45;&gt;Node9</title>
<g id="a_edge9_Node000001_Node000009"><a xlink:title=" ">
<path fill="none" stroke="#63b8ff" d="M399.26,-164.84C413.19,-155.68 431.24,-143.82 445.17,-134.66"/>
<polygon fill="#63b8ff" stroke="#63b8ff" points="447.21,-137.51 453.64,-129.09 443.36,-131.66 447.21,-137.51"/>
</a>
</g>
</g>
<!-- Node10 -->
<g id="Node000010" class="node">
<title>Node10</title>
<g id="a_Node000010"><a xlink:title=" ">
<polygon fill="#e0e0e0" stroke="#999999" points="637.71,-129 527.71,-129 527.71,-110 637.71,-110 637.71,-129"/>
<text text-anchor="middle" x="582.71" y="-117" font-family="Helvetica,sans-Serif" font-size="10.00">X11/XF86keysym.h</text>
</a>
</g>
</g>
<!-- Node1&#45;&gt;Node10 -->
<g id="edge10_Node000001_Node000010" class="edge">
<title>Node1&#45;&gt;Node10</title>
<g id="a_edge10_Node000001_Node000010"><a xlink:title=" ">
<path fill="none" stroke="#63b8ff" d="M426.82,-164.99C462.35,-154.85 509.76,-141.32 542.93,-131.85"/>
<polygon fill="#63b8ff" stroke="#63b8ff" points="544.09,-135.16 552.74,-129.05 542.16,-128.43 544.09,-135.16"/>
</a>
</g>
</g>
<!-- Node11 -->
<g id="Node000011" class="node">
<title>Node11</title>
<g id="a_Node000011"><a xlink:title=" ">
<polygon fill="#e0e0e0" stroke="#999999" points="735.71,-129 655.71,-129 655.71,-110 735.71,-110 735.71,-129"/>
<text text-anchor="middle" x="695.71" y="-117" font-family="Helvetica,sans-Serif" font-size="10.00">X11/XKBlib.h</text>
</a>
</g>
</g>
<!-- Node1&#45;&gt;Node11 -->
<g id="edge11_Node000001_Node000011" class="edge">
<title>Node1&#45;&gt;Node11</title>
<g id="a_edge11_Node000001_Node000011"><a xlink:title=" ">
<path fill="none" stroke="#63b8ff" d="M453.88,-164.99C513.31,-154.05 594.16,-139.18 645.66,-129.71"/>
<polygon fill="#63b8ff" stroke="#63b8ff" points="646.35,-133.14 655.55,-127.89 645.08,-126.26 646.35,-133.14"/>
</a>
</g>
</g>
<!-- Node12 -->
<g id="Node000012" class="node">
<title>Node12</title>
<g id="a_Node000012"><a xlink:title=" ">
<polygon fill="#e0e0e0" stroke="#999999" points="823.71,-129 753.71,-129 753.71,-110 823.71,-110 823.71,-129"/>
<text text-anchor="middle" x="788.71" y="-117" font-family="Helvetica,sans-Serif" font-size="10.00">X11/Xutil.h</text>
</a>
</g>
</g>
<!-- Node1&#45;&gt;Node12 -->
<g id="edge12_Node000001_Node000012" class="edge">
<title>Node1&#45;&gt;Node12</title>
<g id="a_edge12_Node000001_Node000012"><a xlink:title=" ">
<path fill="none" stroke="#63b8ff" d="M474.91,-167.25C546.55,-158.24 646.6,-144.93 743.69,-129.09"/>
<polygon fill="#63b8ff" stroke="#63b8ff" points="744.38,-132.52 753.68,-127.45 743.25,-125.62 744.38,-132.52"/>
</a>
</g>
</g>
<!-- Node13 -->
<g id="Node000013" class="node">
<title>Node13</title>
<g id="a_Node000013"><a xlink:title=" ">
<polygon fill="#e0e0e0" stroke="#999999" points="943.21,-129 842.21,-129 842.21,-110 943.21,-110 943.21,-129"/>
<text text-anchor="middle" x="892.71" y="-117" font-family="Helvetica,sans-Serif" font-size="10.00">X11/keysymdef.h</text>
</a>
</g>
</g>
<!-- Node1&#45;&gt;Node13 -->
<g id="edge13_Node000001_Node000013" class="edge">
<title>Node1&#45;&gt;Node13</title>
<g id="a_edge13_Node000001_Node000013"><a xlink:title=" ">
<path fill="none" stroke="#63b8ff" d="M475.01,-169.2C564.86,-159.94 702.32,-145.26 831.88,-129.07"/>
<polygon fill="#63b8ff" stroke="#63b8ff" points="832.5,-132.52 841.99,-127.8 831.63,-125.57 832.5,-132.52"/>
</a>
</g>
</g>
<!-- Node14 -->
<g id="Node000014" class="node">
<title>Node14</title>
<g id="a_Node000014"><a xlink:href="x11extras_8h.html" target="_top" xlink:title=" ">
<polygon fill="white" stroke="#666666" points="225.71,-74 151.71,-74 151.71,-55 225.71,-55 225.71,-74"/>
<text text-anchor="middle" x="188.71" y="-62" font-family="Helvetica,sans-Serif" font-size="10.00">x11extras.h</text>
</a>
</g>
</g>
<!-- Node1&#45;&gt;Node14 -->
<g id="edge14_Node000001_Node000014" class="edge">
<title>Node1&#45;&gt;Node14</title>
<g id="a_edge14_Node000001_Node000014"><a xlink:title=" ">
<path fill="none" stroke="#63b8ff" d="M280.57,-166.03C236.78,-157.99 191.91,-145.92 178.71,-129 168.76,-116.24 173.3,-97.55 179.1,-83.76"/>
<polygon fill="#63b8ff" stroke="#63b8ff" points="182.44,-84.87 183.56,-74.34 176.12,-81.87 182.44,-84.87"/>
</a>
</g>
</g>
<!-- Node3 -->
<g id="Node000003" class="node">
<title>Node3</title>
<g id="a_Node000003"><a xlink:href="qtkeymapperbase_8h.html" target="_top" xlink:title=" ">
<polygon fill="white" stroke="#666666" points="133.21,-74 20.21,-74 20.21,-55 133.21,-55 133.21,-74"/>
<text text-anchor="middle" x="76.71" y="-62" font-family="Helvetica,sans-Serif" font-size="10.00">qtkeymapperbase.h</text>
</a>
</g>
</g>
<!-- Node2&#45;&gt;Node3 -->
<g id="edge2_Node000002_Node000003" class="edge">
<title>Node2&#45;&gt;Node3</title>
<g id="a_edge2_Node000002_Node000003"><a xlink:title=" ">
<path fill="none" stroke="#63b8ff" d="M76.71,-109.75C76.71,-102.8 76.71,-92.85 76.71,-84.13"/>
<polygon fill="#63b8ff" stroke="#63b8ff" points="80.22,-84.09 76.71,-74.09 73.22,-84.09 80.22,-84.09"/>
</a>
</g>
</g>
<!-- Node3&#45;&gt;Node4 -->
<g id="edge3_Node000003_Node000004" class="edge">
<title>Node3&#45;&gt;Node4</title>
<g id="a_edge3_Node000003_Node000004"><a xlink:title=" ">
<path fill="none" stroke="#63b8ff" d="M68.29,-54.75C60.94,-47.11 50.08,-35.82 41.17,-26.56"/>
<polygon fill="#63b8ff" stroke="#63b8ff" points="43.44,-23.87 33.98,-19.09 38.39,-28.72 43.44,-23.87"/>
</a>
</g>
</g>
<!-- Node5 -->
<g id="Node000005" class="node">
<title>Node5</title>
<g id="a_Node000005"><a xlink:title=" ">
<polygon fill="#e0e0e0" stroke="#999999" points="124.71,-19 68.71,-19 68.71,0 124.71,0 124.71,-19"/>
<text text-anchor="middle" x="96.71" y="-7" font-family="Helvetica,sans-Serif" font-size="10.00">QObject</text>
</a>
</g>
</g>
<!-- Node3&#45;&gt;Node5 -->
<g id="edge4_Node000003_Node000005" class="edge">
<title>Node3&#45;&gt;Node5</title>
<g id="a_edge4_Node000003_Node000005"><a xlink:title=" ">
<path fill="none" stroke="#63b8ff" d="M80.02,-54.75C82.7,-47.65 86.56,-37.4 89.9,-28.56"/>
<polygon fill="#63b8ff" stroke="#63b8ff" points="93.22,-29.68 93.47,-19.09 86.67,-27.21 93.22,-29.68"/>
</a>
</g>
</g>
<!-- Node14&#45;&gt;Node4 -->
<g id="edge15_Node000014_Node000004" class="edge">
<title>Node14&#45;&gt;Node4</title>
<g id="a_edge15_Node000014_Node000004"><a xlink:title=" ">
<path fill="none" stroke="#63b8ff" d="M162.53,-54.98C134.71,-45.94 90.63,-31.61 60.05,-21.66"/>
<polygon fill="#63b8ff" stroke="#63b8ff" points="60.83,-18.24 50.24,-18.47 58.67,-24.89 60.83,-18.24"/>
</a>
</g>
</g>
<!-- Node14&#45;&gt;Node5 -->
<g id="edge16_Node000014_Node000005" class="edge">
<title>Node14&#45;&gt;Node5</title>
<g id="a_edge16_Node000014_Node000005"><a xlink:title=" ">
<path fill="none" stroke="#63b8ff" d="M173.93,-54.98C159.53,-46.69 137.41,-33.94 120.52,-24.22"/>
<polygon fill="#63b8ff" stroke="#63b8ff" points="122.18,-21.13 111.77,-19.17 118.68,-27.19 122.18,-21.13"/>
</a>
</g>
</g>
<!-- Node15 -->
<g id="Node000015" class="node">
<title>Node15</title>
<g id="a_Node000015"><a xlink:title=" ">
<polygon fill="#e0e0e0" stroke="#999999" points="192.21,-19 143.21,-19 143.21,0 192.21,0 192.21,-19"/>
<text text-anchor="middle" x="167.71" y="-7" font-family="Helvetica,sans-Serif" font-size="10.00">QPoint</text>
</a>
</g>
</g>
<!-- Node14&#45;&gt;Node15 -->
<g id="edge17_Node000014_Node000015" class="edge">
<title>Node14&#45;&gt;Node15</title>
<g id="a_edge17_Node000014_Node000015"><a xlink:title=" ">
<path fill="none" stroke="#63b8ff" d="M185.25,-54.75C182.43,-47.65 178.37,-37.4 174.87,-28.56"/>
<polygon fill="#63b8ff" stroke="#63b8ff" points="178.06,-27.1 171.12,-19.09 171.55,-29.68 178.06,-27.1"/>
</a>
</g>
</g>
<!-- Node16 -->
<g id="Node000016" class="node">
<title>Node16</title>
<g id="a_Node000016"><a xlink:title=" ">
<polygon fill="#e0e0e0" stroke="#999999" points="345.21,-19 210.21,-19 210.21,0 345.21,0 345.21,-19"/>
<text text-anchor="middle" x="277.71" y="-7" font-family="Helvetica,sans-Serif" font-size="10.00">X11/extensions/XInput.h</text>
</a>
</g>
</g>
<!-- Node14&#45;&gt;Node16 -->
<g id="edge18_Node000014_Node000016" class="edge">
<title>Node14&#45;&gt;Node16</title>
<g id="a_edge18_Node000014_Node000016"><a xlink:title=" ">
<path fill="none" stroke="#63b8ff" d="M203.01,-54.98C216.82,-46.77 237.96,-34.18 254.23,-24.49"/>
<polygon fill="#63b8ff" stroke="#63b8ff" points="256.35,-27.29 263.16,-19.17 252.77,-21.28 256.35,-27.29"/>
</a>
</g>
</g>
<!-- Node17 -->
<g id="Node000017" class="node">
<title>Node17</title>
<g id="a_Node000017"><a xlink:title=" ">
<polygon fill="#e0e0e0" stroke="#999999" points="504.21,-19 363.21,-19 363.21,0 504.21,0 504.21,-19"/>
<text text-anchor="middle" x="433.71" y="-7" font-family="Helvetica,sans-Serif" font-size="10.00">X11/extensions/XInput2.h</text>
</a>
</g>
</g>
<!-- Node14&#45;&gt;Node17 -->
<g id="edge19_Node000014_Node000017" class="edge">
<title>Node14&#45;&gt;Node17</title>
<g id="a_edge19_Node000014_Node000017"><a xlink:title=" ">
<path fill="none" stroke="#63b8ff" d="M225.93,-55.45C268.2,-46.3 337.39,-31.34 384.2,-21.21"/>
<polygon fill="#63b8ff" stroke="#63b8ff" points="385.09,-24.6 394.12,-19.07 383.61,-17.76 385.09,-24.6"/>
</a>
</g>
</g>
</g>
</svg>

<g id="navigator" transform="translate(0 0)" fill="#404254">
  <rect fill="#f2f5e9" fill-opacity="0.5" stroke="#606060" stroke-width=".5" x="0" y="0" width="60" height="60"/>
  <use id="zoomplus" xlink:href="#zoomPlus" x="17" y="9" onmousedown="handleZoom(evt,'in')"/>
  <use id="zoomminus" xlink:href="#zoomMin" x="42" y="9" onmousedown="handleZoom(evt,'out')"/>
  <use id="reset" xlink:href="#resetDef" x="30" y="36" onmousedown="handleReset()"/>
   <use id="arrowup" xlink:href="#arrowUp" x="0" y="0" onmousedown="handlePan(0,-1)"/>
  <use id="arrowright" xlink:href="#arrowRight" x="0" y="0" onmousedown="handlePan(1,0)"/>
  <use id="arrowdown" xlink:href="#arrowDown" x="0" y="0" onmousedown="handlePan(0,1)"/>
  <use id="arrowleft" xlink:href="#arrowLeft" x="0" y="0" onmousedown="handlePan(-1,0)"/>
</g>
<svg viewBox="0 0 15 15" width="100%" height="30px" preserveAspectRatio="xMaxYMin meet">
 <g id="arrow_out" transform="scale(0.3 0.3)">
  <a xlink:href="qtx11keymapper_8cpp__incl_org.svg" target="_base">
   <rect id="button" ry="5" rx="5" y="6" x="6" height="38" width="38"
        fill="#f2f5e9" fill-opacity="0.5" stroke="#606060" stroke-width="1.0"/>
   <path id="arrow"
     d="M 11.500037,31.436501 C 11.940474,20.09759 22.043105,11.32322 32.158766,21.979434 L 37.068811,17.246167 C 37.068811,17.246167 37.088388,32 37.088388,32 L 22.160133,31.978069 C 22.160133,31.978069 26.997745,27.140456 26.997745,27.140456 C 18.528582,18.264221 13.291696,25.230495 11.500037,31.436501 z"
     style="fill:#404040;"/>
  </a>
 </g>
</svg>

<style type='text/css'>
<![CDATA[
[data-mouse-over-selected='false'] { opacity: 0.7; }
[data-mouse-over-selected='true']  { opacity: 1.0; }
]]>
</style>
<script type="application/ecmascript"><![CDATA[
document.addEventListener('DOMContentLoaded', (event) => {
  highlightEdges();
  highlightAdjacentNodes();
});
]]></script>
</svg>
