<?xml version="1.0" encoding="UTF-8" standalone="no"?>
<!DOCTYPE svg PUBLIC "-//W3C//DTD SVG 1.1//EN"
 "http://www.w3.org/Graphics/SVG/1.1/DTD/svg11.dtd">
<!-- Generated by graphviz version 2.43.0 (0)
 -->
<!-- Title: /home/runner/work/doxygen/antimicrox/src/qtx11keymapper.h Pages: 1 -->
<svg width="191pt" height="151pt"
 viewBox="0.00 0.00 191.00 151.00" xmlns="http://www.w3.org/2000/svg" xmlns:xlink="http://www.w3.org/1999/xlink">
<g id="graph0" class="graph" transform="scale(1 1) rotate(0) translate(4 147)">
<title>/home/runner/work/doxygen/antimicrox/src/qtx11keymapper.h</title>
<polygon fill="white" stroke="transparent" points="-4,4 -4,-147 187,-147 187,4 -4,4"/>
<!-- Node1 -->
<g id="node1" class="node">
<title>Node1</title>
<g id="a_node1"><a xlink:title=" ">
<polygon fill="#bfbfbf" stroke="black" points="0,-112.5 0,-142.5 183,-142.5 183,-112.5 0,-112.5"/>
<text text-anchor="start" x="8" y="-130.5" font-family="Helvetica,sans-Serif" font-size="10.00">/home/runner/work/doxygen</text>
<text text-anchor="middle" x="91.5" y="-119.5" font-family="Helvetica,sans-Serif" font-size="10.00">/antimicrox/src/qtx11keymapper.h</text>
</a>
</g>
</g>
<!-- Node2 -->
<g id="node2" class="node">
<title>Node2</title>
<g id="a_node2"><a xlink:href="qtkeymapperbase_8h.html" target="_top" xlink:title=" ">
<polygon fill="white" stroke="black" points="35,-56.5 35,-75.5 148,-75.5 148,-56.5 35,-56.5"/>
<text text-anchor="middle" x="91.5" y="-63.5" font-family="Helvetica,sans-Serif" font-size="10.00">qtkeymapperbase.h</text>
</a>
</g>
</g>
<!-- Node1&#45;&gt;Node2 -->
<g id="edge1" class="edge">
<title>Node1&#45;&gt;Node2</title>
<path fill="none" stroke="midnightblue" d="M91.5,-112.4C91.5,-104.47 91.5,-94.46 91.5,-85.86"/>
<polygon fill="midnightblue" stroke="midnightblue" points="95,-85.66 91.5,-75.66 88,-85.66 95,-85.66"/>
</g>
<!-- Node3 -->
<g id="node3" class="node">
<title>Node3</title>
<g id="a_node3"><a xlink:title=" ">
<polygon fill="white" stroke="#bfbfbf" points="32,-0.5 32,-19.5 81,-19.5 81,-0.5 32,-0.5"/>
<text text-anchor="middle" x="56.5" y="-7.5" font-family="Helvetica,sans-Serif" font-size="10.00">QHash</text>
</a>
</g>
</g>
<!-- Node2&#45;&gt;Node3 -->
<g id="edge2" class="edge">
<title>Node2&#45;&gt;Node3</title>
<path fill="none" stroke="midnightblue" d="M85.72,-56.08C80.83,-48.53 73.67,-37.49 67.67,-28.23"/>
<polygon fill="midnightblue" stroke="midnightblue" points="70.55,-26.24 62.17,-19.75 64.67,-30.05 70.55,-26.24"/>
</g>
<!-- Node4 -->
<g id="node4" class="node">
<title>Node4</title>
<g id="a_node4"><a xlink:title=" ">
<polygon fill="white" stroke="#bfbfbf" points="99.5,-0.5 99.5,-19.5 155.5,-19.5 155.5,-0.5 99.5,-0.5"/>
<text text-anchor="middle" x="127.5" y="-7.5" font-family="Helvetica,sans-Serif" font-size="10.00">QObject</text>
</a>
</g>
</g>
<!-- Node2&#45;&gt;Node4 -->
<g id="edge3" class="edge">
<title>Node2&#45;&gt;Node4</title>
<path fill="none" stroke="midnightblue" d="M97.44,-56.08C102.48,-48.53 109.84,-37.49 116.01,-28.23"/>
<polygon fill="midnightblue" stroke="midnightblue" points="119.03,-30.01 121.67,-19.75 113.21,-26.13 119.03,-30.01"/>
</g>
</g>
</svg>
