<?xml version="1.0" encoding="UTF-8" standalone="no"?>
<!DOCTYPE svg PUBLIC "-//W3C//DTD SVG 1.1//EN"
 "http://www.w3.org/Graphics/SVG/1.1/DTD/svg11.dtd">
<!-- Generated by graphviz version 2.43.0 (0)
 -->
<!-- Title: /home/runner/work/doxygen/antimicrox/src/sdleventreader.cpp Pages: 1 -->
<!--zoomable 599 -->
<svg id="main" version="1.1" xmlns="http://www.w3.org/2000/svg" xmlns:xlink="http://www.w3.org/1999/xlink" xml:space="preserve" onload="init(evt)">
<style type="text/css"><![CDATA[
.edge:hover path { stroke: red; }
.edge:hover polygon { stroke: red; fill: red; }
]]></style>
<script type="text/javascript"><![CDATA[
var edges = document.getElementsByTagName('g');
if (edges && edges.length) {
  for (var i=0;i<edges.length;i++) {
    if (edges[i].id.substr(0,4)=='edge') {
      edges[i].setAttribute('class','edge');
    }
  }
}
]]></script>
        <defs>
                <circle id="rim" cx="0" cy="0" r="7"/>
                <circle id="rim2" cx="0" cy="0" r="3.5"/>
                <g id="zoomPlus">
                        <use xlink:href="#rim" fill="#404040">
                                <set attributeName="fill" to="#808080" begin="zoomplus.mouseover" end="zoomplus.mouseout"/>
                        </use>
                        <path d="M-4,0h8M0,-4v8" fill="none" stroke="white" stroke-width="1.5" pointer-events="none"/>
                </g>
                <g id="zoomMin">
                        <use xlink:href="#rim" fill="#404040">
                                <set attributeName="fill" to="#808080" begin="zoomminus.mouseover" end="zoomminus.mouseout"/>
                        </use>
                        <path d="M-4,0h8" fill="none" stroke="white" stroke-width="1.5" pointer-events="none"/>
                </g>
                <g id="dirArrow">
                        <path fill="none" stroke="white" stroke-width="1.5" d="M0,-3.0v7 M-2.5,-0.5L0,-3.0L2.5,-0.5"/>
                </g>
               <g id="resetDef">
                       <use xlink:href="#rim2" fill="#404040">
                               <set attributeName="fill" to="#808080" begin="reset.mouseover" end="reset.mouseout"/>
                       </use>
               </g>
        </defs>

<script type="text/javascript">
var viewWidth = 2026;
var viewHeight = 599;
var sectionId = 'dynsection-0';
</script>
<script xlink:href="svgpan.js"/>
<svg id="graph" class="graph">
<g id="viewport">
<title>/home/runner/work/doxygen/antimicrox/src/sdleventreader.cpp</title>
<polygon fill="white" stroke="transparent" points="-4,4 -4,-595 2021.89,-595 2021.89,4 -4,4"/>
<!-- Node1 -->
<g id="node1" class="node">
<title>Node1</title>
<g id="a_node1"><a xlink:title=" ">
<polygon fill="#bfbfbf" stroke="black" points="1495.39,-560.5 1495.39,-590.5 1680.39,-590.5 1680.39,-560.5 1495.39,-560.5"/>
<text text-anchor="start" x="1503.39" y="-578.5" font-family="Helvetica,sans-Serif" font-size="10.00">/home/runner/work/doxygen</text>
<text text-anchor="middle" x="1587.89" y="-567.5" font-family="Helvetica,sans-Serif" font-size="10.00">/antimicrox/src/sdleventreader.cpp</text>
</a>
</g>
</g>
<!-- Node2 -->
<g id="node2" class="node">
<title>Node2</title>
<g id="a_node2"><a xlink:href="sdleventreader_8h.html" target="_top" xlink:title=" ">
<polygon fill="white" stroke="black" points="961.89,-504.5 961.89,-523.5 1059.89,-523.5 1059.89,-504.5 961.89,-504.5"/>
<text text-anchor="middle" x="1010.89" y="-511.5" font-family="Helvetica,sans-Serif" font-size="10.00">sdleventreader.h</text>
</a>
</g>
</g>
<!-- Node1&#45;&gt;Node2 -->
<g id="edge1" class="edge">
<title>Node1&#45;&gt;Node2</title>
<path fill="none" stroke="midnightblue" d="M1495.18,-564.94C1375.53,-552.6 1170.8,-531.49 1070.21,-521.12"/>
<polygon fill="midnightblue" stroke="midnightblue" points="1070.53,-517.63 1060.22,-520.09 1069.81,-524.59 1070.53,-517.63"/>
</g>
<!-- Node4 -->
<g id="node4" class="node">
<title>Node4</title>
<g id="a_node4"><a xlink:href="inputdevice_8h.html" target="_top" xlink:title=" ">
<polygon fill="white" stroke="black" points="957.39,-392.5 957.39,-411.5 1040.39,-411.5 1040.39,-392.5 957.39,-392.5"/>
<text text-anchor="middle" x="998.89" y="-399.5" font-family="Helvetica,sans-Serif" font-size="10.00">inputdevice.h</text>
</a>
</g>
</g>
<!-- Node1&#45;&gt;Node4 -->
<g id="edge63" class="edge">
<title>Node1&#45;&gt;Node4</title>
<path fill="none" stroke="midnightblue" d="M1495.06,-567.61C1427.59,-560.87 1334.67,-547.98 1255.89,-524 1165.34,-496.44 1066.12,-442.2 1022.12,-416.77"/>
<polygon fill="midnightblue" stroke="midnightblue" points="1023.75,-413.67 1013.35,-411.66 1020.22,-419.72 1023.75,-413.67"/>
</g>
<!-- Node10 -->
<g id="node10" class="node">
<title>Node10</title>
<g id="a_node10"><a xlink:title=" ">
<polygon fill="white" stroke="#bfbfbf" points="842.89,-224.5 842.89,-243.5 914.89,-243.5 914.89,-224.5 842.89,-224.5"/>
<text text-anchor="middle" x="878.89" y="-231.5" font-family="Helvetica,sans-Serif" font-size="10.00">SDL2/SDL.h</text>
</a>
</g>
</g>
<!-- Node1&#45;&gt;Node10 -->
<g id="edge64" class="edge">
<title>Node1&#45;&gt;Node10</title>
<path fill="none" stroke="midnightblue" d="M1500.99,-560.43C1406.84,-542.66 1269.89,-508.34 1269.89,-459 1269.89,-459 1269.89,-459 1269.89,-345 1269.89,-293.84 1222.48,-298.76 1174.89,-280 1163.4,-275.47 1005.96,-252.88 925.51,-241.53"/>
<polygon fill="midnightblue" stroke="midnightblue" points="925.55,-238 915.16,-240.08 924.58,-244.94 925.55,-238"/>
</g>
<!-- Node18 -->
<g id="node18" class="node">
<title>Node18</title>
<g id="a_node18"><a xlink:href="globalvariables_8h.html" target="_top" xlink:title=" ">
<polygon fill="white" stroke="black" points="11.39,-56.5 11.39,-75.5 112.39,-75.5 112.39,-56.5 11.39,-56.5"/>
<text text-anchor="middle" x="61.89" y="-63.5" font-family="Helvetica,sans-Serif" font-size="10.00">globalvariables.h</text>
</a>
</g>
</g>
<!-- Node1&#45;&gt;Node18 -->
<g id="edge62" class="edge">
<title>Node1&#45;&gt;Node18</title>
<path fill="none" stroke="midnightblue" d="M1495.14,-572.55C1158.51,-564.86 20.89,-533.38 20.89,-459 20.89,-459 20.89,-459 20.89,-177 20.89,-142.52 38.8,-105.56 50.94,-84.47"/>
<polygon fill="midnightblue" stroke="midnightblue" points="54.05,-86.09 56.19,-75.71 48.05,-82.49 54.05,-86.09"/>
</g>
<!-- Node24 -->
<g id="node21" class="node">
<title>Node24</title>
<g id="a_node21"><a xlink:title=" ">
<polygon fill="white" stroke="#bfbfbf" points="1258.39,-0.5 1258.39,-19.5 1317.39,-19.5 1317.39,-0.5 1258.39,-0.5"/>
<text text-anchor="middle" x="1287.89" y="-7.5" font-family="Helvetica,sans-Serif" font-size="10.00">QVariant</text>
</a>
</g>
</g>
<!-- Node1&#45;&gt;Node24 -->
<g id="edge69" class="edge">
<title>Node1&#45;&gt;Node24</title>
<path fill="none" stroke="midnightblue" d="M1620.9,-560.47C1657.03,-542.63 1709.89,-508.15 1709.89,-459 1709.89,-459 1709.89,-459 1709.89,-121 1709.89,-42.5 1432.97,-19 1327.77,-12.9"/>
<polygon fill="midnightblue" stroke="midnightblue" points="1327.74,-9.39 1317.56,-12.33 1327.35,-16.38 1327.74,-9.39"/>
</g>
<!-- Node41 -->
<g id="node36" class="node">
<title>Node41</title>
<g id="a_node36"><a xlink:href="antimicrosettings_8h.html" target="_top" xlink:title=" ">
<polygon fill="white" stroke="black" points="1532.39,-224.5 1532.39,-243.5 1643.39,-243.5 1643.39,-224.5 1532.39,-224.5"/>
<text text-anchor="middle" x="1587.89" y="-231.5" font-family="Helvetica,sans-Serif" font-size="10.00">antimicrosettings.h</text>
</a>
</g>
</g>
<!-- Node1&#45;&gt;Node41 -->
<g id="edge45" class="edge">
<title>Node1&#45;&gt;Node41</title>
<path fill="none" stroke="midnightblue" d="M1587.89,-560.28C1587.89,-538.48 1587.89,-495.49 1587.89,-459 1587.89,-459 1587.89,-459 1587.89,-345 1587.89,-312.95 1587.89,-275.64 1587.89,-253.75"/>
<polygon fill="midnightblue" stroke="midnightblue" points="1591.39,-253.56 1587.89,-243.56 1584.39,-253.56 1591.39,-253.56"/>
</g>
<!-- Node44 -->
<g id="node39" class="node">
<title>Node44</title>
<g id="a_node39"><a xlink:title=" ">
<polygon fill="white" stroke="#bfbfbf" points="1586.89,-168.5 1586.89,-187.5 1650.89,-187.5 1650.89,-168.5 1586.89,-168.5"/>
<text text-anchor="middle" x="1618.89" y="-175.5" font-family="Helvetica,sans-Serif" font-size="10.00">QSettings</text>
</a>
</g>
</g>
<!-- Node1&#45;&gt;Node44 -->
<g id="edge67" class="edge">
<title>Node1&#45;&gt;Node44</title>
<path fill="none" stroke="midnightblue" d="M1607.37,-560.5C1632.18,-540.87 1671.89,-502.64 1671.89,-459 1671.89,-459 1671.89,-459 1671.89,-289 1671.89,-258.9 1666.4,-250.89 1652.89,-224 1647.73,-213.74 1640.16,-203.44 1633.48,-195.28"/>
<polygon fill="midnightblue" stroke="midnightblue" points="1636.12,-192.99 1626.97,-187.66 1630.8,-197.54 1636.12,-192.99"/>
</g>
<!-- Node45 -->
<g id="node40" class="node">
<title>Node45</title>
<g id="a_node40"><a xlink:href="common_8h.html" target="_top" xlink:title=" ">
<polygon fill="white" stroke="black" points="1321.89,-280.5 1321.89,-299.5 1389.89,-299.5 1389.89,-280.5 1321.89,-280.5"/>
<text text-anchor="middle" x="1355.89" y="-287.5" font-family="Helvetica,sans-Serif" font-size="10.00">common.h</text>
</a>
</g>
</g>
<!-- Node1&#45;&gt;Node45 -->
<g id="edge50" class="edge">
<title>Node1&#45;&gt;Node45</title>
<path fill="none" stroke="midnightblue" d="M1545.96,-560.42C1504.4,-543.5 1446.89,-510.74 1446.89,-459 1446.89,-459 1446.89,-459 1446.89,-401 1446.89,-358.47 1406,-323.53 1379.04,-305.12"/>
<polygon fill="midnightblue" stroke="midnightblue" points="1380.79,-302.08 1370.51,-299.52 1376.95,-307.93 1380.79,-302.08"/>
</g>
<!-- Node53 -->
<g id="node48" class="node">
<title>Node53</title>
<g id="a_node48"><a xlink:title=" ">
<polygon fill="white" stroke="#bfbfbf" points="1737.89,-504.5 1737.89,-523.5 1793.89,-523.5 1793.89,-504.5 1737.89,-504.5"/>
<text text-anchor="middle" x="1765.89" y="-511.5" font-family="Helvetica,sans-Serif" font-size="10.00">QDebug</text>
</a>
</g>
</g>
<!-- Node1&#45;&gt;Node53 -->
<g id="edge65" class="edge">
<title>Node1&#45;&gt;Node53</title>
<path fill="none" stroke="midnightblue" d="M1630.07,-560.4C1660.69,-550.16 1701.66,-536.47 1730.56,-526.81"/>
<polygon fill="midnightblue" stroke="midnightblue" points="1731.87,-530.06 1740.25,-523.57 1729.65,-523.42 1731.87,-530.06"/>
</g>
<!-- Node54 -->
<g id="node49" class="node">
<title>Node54</title>
<g id="a_node49"><a xlink:title=" ">
<polygon fill="white" stroke="#bfbfbf" points="1812.39,-504.5 1812.39,-523.5 1893.39,-523.5 1893.39,-504.5 1812.39,-504.5"/>
<text text-anchor="middle" x="1852.89" y="-511.5" font-family="Helvetica,sans-Serif" font-size="10.00">QMapIterator</text>
</a>
</g>
</g>
<!-- Node1&#45;&gt;Node54 -->
<g id="edge66" class="edge">
<title>Node1&#45;&gt;Node54</title>
<path fill="none" stroke="midnightblue" d="M1650.35,-560.47C1697.67,-549.85 1761.7,-535.47 1805.01,-525.75"/>
<polygon fill="midnightblue" stroke="midnightblue" points="1806.01,-529.11 1815,-523.51 1804.48,-522.28 1806.01,-529.11"/>
</g>
<!-- Node55 -->
<g id="node50" class="node">
<title>Node55</title>
<g id="a_node50"><a xlink:title=" ">
<polygon fill="white" stroke="#bfbfbf" points="1911.89,-504.5 1911.89,-523.5 2017.89,-523.5 2017.89,-504.5 1911.89,-504.5"/>
<text text-anchor="middle" x="1964.89" y="-511.5" font-family="Helvetica,sans-Serif" font-size="10.00">QStringListIterator</text>
</a>
</g>
</g>
<!-- Node1&#45;&gt;Node55 -->
<g id="edge68" class="edge">
<title>Node1&#45;&gt;Node55</title>
<path fill="none" stroke="midnightblue" d="M1676.75,-560.47C1745.94,-549.56 1840.25,-534.67 1901.84,-524.95"/>
<polygon fill="midnightblue" stroke="midnightblue" points="1902.48,-528.39 1911.81,-523.38 1901.39,-521.48 1902.48,-528.39"/>
</g>
<!-- Node3 -->
<g id="node3" class="node">
<title>Node3</title>
<g id="a_node3"><a xlink:href="joystick_8h.html" target="_top" xlink:title=" ">
<polygon fill="white" stroke="black" points="966.89,-448.5 966.89,-467.5 1030.89,-467.5 1030.89,-448.5 966.89,-448.5"/>
<text text-anchor="middle" x="998.89" y="-455.5" font-family="Helvetica,sans-Serif" font-size="10.00">joystick.h</text>
</a>
</g>
</g>
<!-- Node2&#45;&gt;Node3 -->
<g id="edge2" class="edge">
<title>Node2&#45;&gt;Node3</title>
<path fill="none" stroke="midnightblue" d="M1008.91,-504.08C1007.32,-496.93 1005.03,-486.64 1003.04,-477.69"/>
<polygon fill="midnightblue" stroke="midnightblue" points="1006.42,-476.75 1000.83,-467.75 999.58,-478.27 1006.42,-476.75"/>
</g>
<!-- Node3&#45;&gt;Node4 -->
<g id="edge3" class="edge">
<title>Node3&#45;&gt;Node4</title>
<path fill="none" stroke="midnightblue" d="M998.89,-448.08C998.89,-441.01 998.89,-430.86 998.89,-421.99"/>
<polygon fill="midnightblue" stroke="midnightblue" points="1002.39,-421.75 998.89,-411.75 995.39,-421.75 1002.39,-421.75"/>
</g>
<!-- Node40 -->
<g id="node35" class="node">
<title>Node40</title>
<g id="a_node35"><a xlink:title=" ">
<polygon fill="white" stroke="#bfbfbf" points="788.39,-392.5 788.39,-411.5 939.39,-411.5 939.39,-392.5 788.39,-392.5"/>
<text text-anchor="middle" x="863.89" y="-399.5" font-family="Helvetica,sans-Serif" font-size="10.00">SDL2/SDL_gamecontroller.h</text>
</a>
</g>
</g>
<!-- Node3&#45;&gt;Node40 -->
<g id="edge44" class="edge">
<title>Node3&#45;&gt;Node40</title>
<path fill="none" stroke="midnightblue" d="M977.5,-448.44C955.18,-439.52 919.98,-425.44 894.68,-415.32"/>
<polygon fill="midnightblue" stroke="midnightblue" points="895.76,-411.98 885.18,-411.52 893.16,-418.48 895.76,-411.98"/>
</g>
<!-- Node5 -->
<g id="node5" class="node">
<title>Node5</title>
<g id="a_node5"><a xlink:href="inputdevicecalibration_8h.html" target="_top" xlink:title=" ">
<polygon fill="white" stroke="black" points="1074.89,-336.5 1074.89,-355.5 1208.89,-355.5 1208.89,-336.5 1074.89,-336.5"/>
<text text-anchor="middle" x="1141.89" y="-343.5" font-family="Helvetica,sans-Serif" font-size="10.00">inputdevicecalibration.h</text>
</a>
</g>
</g>
<!-- Node4&#45;&gt;Node5 -->
<g id="edge4" class="edge">
<title>Node4&#45;&gt;Node5</title>
<path fill="none" stroke="midnightblue" d="M1021.55,-392.44C1045.29,-383.48 1082.8,-369.31 1109.63,-359.18"/>
<polygon fill="midnightblue" stroke="midnightblue" points="1111.22,-362.32 1119.33,-355.52 1108.74,-355.77 1111.22,-362.32"/>
</g>
<!-- Node7 -->
<g id="node7" class="node">
<title>Node7</title>
<g id="a_node7"><a xlink:href="joysensordirection_8h.html" target="_top" xlink:title=" ">
<polygon fill="white" stroke="black" points="730.89,-280.5 730.89,-299.5 846.89,-299.5 846.89,-280.5 730.89,-280.5"/>
<text text-anchor="middle" x="788.89" y="-287.5" font-family="Helvetica,sans-Serif" font-size="10.00">joysensordirection.h</text>
</a>
</g>
</g>
<!-- Node4&#45;&gt;Node7 -->
<g id="edge6" class="edge">
<title>Node4&#45;&gt;Node7</title>
<path fill="none" stroke="midnightblue" d="M982.41,-392.37C945.91,-373.25 858.05,-327.23 814.39,-304.36"/>
<polygon fill="midnightblue" stroke="midnightblue" points="815.77,-301.13 805.29,-299.59 812.52,-307.33 815.77,-301.13"/>
</g>
<!-- Node9 -->
<g id="node9" class="node">
<title>Node9</title>
<g id="a_node9"><a xlink:href="joysensortype_8h.html" target="_top" xlink:title=" ">
<polygon fill="white" stroke="black" points="865.39,-280.5 865.39,-299.5 960.39,-299.5 960.39,-280.5 865.39,-280.5"/>
<text text-anchor="middle" x="912.89" y="-287.5" font-family="Helvetica,sans-Serif" font-size="10.00">joysensortype.h</text>
</a>
</g>
</g>
<!-- Node4&#45;&gt;Node9 -->
<g id="edge8" class="edge">
<title>Node4&#45;&gt;Node9</title>
<path fill="none" stroke="midnightblue" d="M979.1,-392.36C964.06,-384.82 943.97,-372.51 931.89,-356 922.01,-342.51 917.25,-323.95 914.96,-310.12"/>
<polygon fill="midnightblue" stroke="midnightblue" points="918.38,-309.26 913.56,-299.83 911.44,-310.21 918.38,-309.26"/>
</g>
<!-- Node11 -->
<g id="node11" class="node">
<title>Node11</title>
<g id="a_node11"><a xlink:href="setjoystick_8h.html" target="_top" xlink:title=" ">
<polygon fill="white" stroke="black" points="749.39,-336.5 749.39,-355.5 828.39,-355.5 828.39,-336.5 749.39,-336.5"/>
<text text-anchor="middle" x="788.89" y="-343.5" font-family="Helvetica,sans-Serif" font-size="10.00">setjoystick.h</text>
</a>
</g>
</g>
<!-- Node4&#45;&gt;Node11 -->
<g id="edge11" class="edge">
<title>Node4&#45;&gt;Node11</title>
<path fill="none" stroke="midnightblue" d="M965.61,-392.44C929.44,-383.14 871.51,-368.25 831.91,-358.06"/>
<polygon fill="midnightblue" stroke="midnightblue" points="832.56,-354.62 822.01,-355.52 830.82,-361.4 832.56,-354.62"/>
</g>
<!-- Node39 -->
<g id="node34" class="node">
<title>Node39</title>
<g id="a_node34"><a xlink:title=" ">
<polygon fill="white" stroke="#bfbfbf" points="940.89,-336.5 940.89,-355.5 1056.89,-355.5 1056.89,-336.5 940.89,-336.5"/>
<text text-anchor="middle" x="998.89" y="-343.5" font-family="Helvetica,sans-Serif" font-size="10.00">SDL2/SDL_joystick.h</text>
</a>
</g>
</g>
<!-- Node4&#45;&gt;Node39 -->
<g id="edge43" class="edge">
<title>Node4&#45;&gt;Node39</title>
<path fill="none" stroke="midnightblue" d="M998.89,-392.08C998.89,-385.01 998.89,-374.86 998.89,-365.99"/>
<polygon fill="midnightblue" stroke="midnightblue" points="1002.39,-365.75 998.89,-355.75 995.39,-365.75 1002.39,-365.75"/>
</g>
<!-- Node6 -->
<g id="node6" class="node">
<title>Node6</title>
<g id="a_node6"><a xlink:title=" ">
<polygon fill="white" stroke="#bfbfbf" points="1117.39,-280.5 1117.39,-299.5 1166.39,-299.5 1166.39,-280.5 1117.39,-280.5"/>
<text text-anchor="middle" x="1141.89" y="-287.5" font-family="Helvetica,sans-Serif" font-size="10.00">QHash</text>
</a>
</g>
</g>
<!-- Node5&#45;&gt;Node6 -->
<g id="edge5" class="edge">
<title>Node5&#45;&gt;Node6</title>
<path fill="none" stroke="midnightblue" d="M1141.89,-336.08C1141.89,-329.01 1141.89,-318.86 1141.89,-309.99"/>
<polygon fill="midnightblue" stroke="midnightblue" points="1145.39,-309.75 1141.89,-299.75 1138.39,-309.75 1145.39,-309.75"/>
</g>
<!-- Node8 -->
<g id="node8" class="node">
<title>Node8</title>
<g id="a_node8"><a xlink:title=" ">
<polygon fill="white" stroke="#bfbfbf" points="753.39,-224.5 753.39,-243.5 824.39,-243.5 824.39,-224.5 753.39,-224.5"/>
<text text-anchor="middle" x="788.89" y="-231.5" font-family="Helvetica,sans-Serif" font-size="10.00">QMetaType</text>
</a>
</g>
</g>
<!-- Node7&#45;&gt;Node8 -->
<g id="edge7" class="edge">
<title>Node7&#45;&gt;Node8</title>
<path fill="none" stroke="midnightblue" d="M788.89,-280.08C788.89,-273.01 788.89,-262.86 788.89,-253.99"/>
<polygon fill="midnightblue" stroke="midnightblue" points="792.39,-253.75 788.89,-243.75 785.39,-253.75 792.39,-253.75"/>
</g>
<!-- Node9&#45;&gt;Node8 -->
<g id="edge9" class="edge">
<title>Node9&#45;&gt;Node8</title>
<path fill="none" stroke="midnightblue" d="M893.24,-280.44C872.92,-271.6 840.98,-257.69 817.79,-247.59"/>
<polygon fill="midnightblue" stroke="midnightblue" points="819.01,-244.3 808.44,-243.52 816.21,-250.72 819.01,-244.3"/>
</g>
<!-- Node9&#45;&gt;Node10 -->
<g id="edge10" class="edge">
<title>Node9&#45;&gt;Node10</title>
<path fill="none" stroke="midnightblue" d="M907.27,-280.08C902.52,-272.53 895.57,-261.49 889.74,-252.23"/>
<polygon fill="midnightblue" stroke="midnightblue" points="892.69,-250.35 884.4,-243.75 886.76,-254.08 892.69,-250.35"/>
</g>
<!-- Node11&#45;&gt;Node7 -->
<g id="edge39" class="edge">
<title>Node11&#45;&gt;Node7</title>
<path fill="none" stroke="midnightblue" d="M788.89,-336.08C788.89,-329.01 788.89,-318.86 788.89,-309.99"/>
<polygon fill="midnightblue" stroke="midnightblue" points="792.39,-309.75 788.89,-299.75 785.39,-309.75 792.39,-309.75"/>
</g>
<!-- Node11&#45;&gt;Node9 -->
<g id="edge40" class="edge">
<title>Node11&#45;&gt;Node9</title>
<path fill="none" stroke="midnightblue" d="M808.54,-336.44C828.85,-327.6 860.79,-313.69 883.99,-303.59"/>
<polygon fill="midnightblue" stroke="midnightblue" points="885.56,-306.72 893.33,-299.52 882.77,-300.3 885.56,-306.72"/>
</g>
<!-- Node12 -->
<g id="node12" class="node">
<title>Node12</title>
<g id="a_node12"><a xlink:href="joyaxis_8h.html" target="_top" xlink:title=" ">
<polygon fill="white" stroke="black" points="320.39,-280.5 320.39,-299.5 381.39,-299.5 381.39,-280.5 320.39,-280.5"/>
<text text-anchor="middle" x="350.89" y="-287.5" font-family="Helvetica,sans-Serif" font-size="10.00">joyaxis.h</text>
</a>
</g>
</g>
<!-- Node11&#45;&gt;Node12 -->
<g id="edge12" class="edge">
<title>Node11&#45;&gt;Node12</title>
<path fill="none" stroke="midnightblue" d="M749.25,-340.11C666.35,-329.89 475.43,-306.35 391.61,-296.02"/>
<polygon fill="midnightblue" stroke="midnightblue" points="391.81,-292.52 381.46,-294.77 390.95,-299.47 391.81,-292.52"/>
</g>
<!-- Node38 -->
<g id="node33" class="node">
<title>Node38</title>
<g id="a_node33"><a xlink:href="setjoystickxml_8h.html" target="_top" xlink:title=" ">
<polygon fill="white" stroke="black" points="702.39,-168.5 702.39,-187.5 821.39,-187.5 821.39,-168.5 702.39,-168.5"/>
<text text-anchor="middle" x="761.89" y="-175.5" font-family="Helvetica,sans-Serif" font-size="10.00">xml/setjoystickxml.h</text>
</a>
</g>
</g>
<!-- Node11&#45;&gt;Node38 -->
<g id="edge41" class="edge">
<title>Node11&#45;&gt;Node38</title>
<path fill="none" stroke="midnightblue" d="M766.1,-336.47C750.56,-329.32 731.18,-317.44 721.89,-300 703.25,-265.03 730.27,-219.76 748.19,-195.72"/>
<polygon fill="midnightblue" stroke="midnightblue" points="751.12,-197.66 754.49,-187.62 745.59,-193.36 751.12,-197.66"/>
</g>
<!-- Node13 -->
<g id="node13" class="node">
<title>Node13</title>
<g id="a_node13"><a xlink:title=" ">
<polygon fill="white" stroke="#bfbfbf" points="1.39,-0.5 1.39,-19.5 42.39,-19.5 42.39,-0.5 1.39,-0.5"/>
<text text-anchor="middle" x="21.89" y="-7.5" font-family="Helvetica,sans-Serif" font-size="10.00">QList</text>
</a>
</g>
</g>
<!-- Node12&#45;&gt;Node13 -->
<g id="edge13" class="edge">
<title>Node12&#45;&gt;Node13</title>
<path fill="none" stroke="midnightblue" d="M320.09,-289.57C274.4,-289.01 187.54,-282.42 126.89,-244 48.27,-194.2 31.15,-164.35 1.89,-76 -3.38,-60.1 3.33,-41.87 10.36,-28.76"/>
<polygon fill="midnightblue" stroke="midnightblue" points="13.54,-30.26 15.61,-19.87 7.51,-26.7 13.54,-30.26"/>
</g>
<!-- Node14 -->
<g id="node14" class="node">
<title>Node14</title>
<g id="a_node14"><a xlink:title=" ">
<polygon fill="white" stroke="#bfbfbf" points="762.89,-0.5 762.89,-19.5 818.89,-19.5 818.89,-0.5 762.89,-0.5"/>
<text text-anchor="middle" x="790.89" y="-7.5" font-family="Helvetica,sans-Serif" font-size="10.00">QObject</text>
</a>
</g>
</g>
<!-- Node12&#45;&gt;Node14 -->
<g id="edge14" class="edge">
<title>Node12&#45;&gt;Node14</title>
<path fill="none" stroke="midnightblue" d="M320.35,-286.86C262.11,-280.96 140.89,-259.05 140.89,-179 140.89,-179 140.89,-179 140.89,-121 140.89,-90.9 136.46,-74.9 159.89,-56 205.98,-18.82 622.32,-12.35 752.3,-11.23"/>
<polygon fill="midnightblue" stroke="midnightblue" points="752.6,-14.73 762.57,-11.15 752.54,-7.73 752.6,-14.73"/>
</g>
<!-- Node15 -->
<g id="node15" class="node">
<title>Node15</title>
<g id="a_node15"><a xlink:href="joyaxisbutton_8h.html" target="_top" xlink:title=" ">
<polygon fill="white" stroke="black" points="476.39,-224.5 476.39,-243.5 645.39,-243.5 645.39,-224.5 476.39,-224.5"/>
<text text-anchor="middle" x="560.89" y="-231.5" font-family="Helvetica,sans-Serif" font-size="10.00">joybuttontypes/joyaxisbutton.h</text>
</a>
</g>
</g>
<!-- Node12&#45;&gt;Node15 -->
<g id="edge15" class="edge">
<title>Node12&#45;&gt;Node15</title>
<path fill="none" stroke="midnightblue" d="M381.42,-281.15C417.29,-271.93 477.03,-256.56 517.65,-246.12"/>
<polygon fill="midnightblue" stroke="midnightblue" points="518.72,-249.46 527.54,-243.58 516.98,-242.68 518.72,-249.46"/>
</g>
<!-- Node16 -->
<g id="node16" class="node">
<title>Node16</title>
<g id="a_node16"><a xlink:href="joygradientbutton_8h.html" target="_top" xlink:title=" ">
<polygon fill="white" stroke="black" points="466.39,-168.5 466.39,-187.5 655.39,-187.5 655.39,-168.5 466.39,-168.5"/>
<text text-anchor="middle" x="560.89" y="-175.5" font-family="Helvetica,sans-Serif" font-size="10.00">joybuttontypes/joygradientbutton.h</text>
</a>
</g>
</g>
<!-- Node15&#45;&gt;Node16 -->
<g id="edge16" class="edge">
<title>Node15&#45;&gt;Node16</title>
<path fill="none" stroke="midnightblue" d="M560.89,-224.08C560.89,-217.01 560.89,-206.86 560.89,-197.99"/>
<polygon fill="midnightblue" stroke="midnightblue" points="564.39,-197.75 560.89,-187.75 557.39,-197.75 564.39,-197.75"/>
</g>
<!-- Node33 -->
<g id="node28" class="node">
<title>Node33</title>
<g id="a_node28"><a xlink:href="logger_8h.html" target="_top" xlink:title=" ">
<polygon fill="white" stroke="black" points="1176.89,-112.5 1176.89,-131.5 1232.89,-131.5 1232.89,-112.5 1176.89,-112.5"/>
<text text-anchor="middle" x="1204.89" y="-119.5" font-family="Helvetica,sans-Serif" font-size="10.00">logger.h</text>
</a>
</g>
</g>
<!-- Node15&#45;&gt;Node33 -->
<g id="edge32" class="edge">
<title>Node15&#45;&gt;Node33</title>
<path fill="none" stroke="midnightblue" d="M612.47,-224.46C666.63,-215.48 754.27,-200.88 829.89,-188 952.93,-167.05 1098.56,-141.62 1166.46,-129.74"/>
<polygon fill="midnightblue" stroke="midnightblue" points="1167.43,-133.12 1176.67,-127.95 1166.22,-126.23 1167.43,-133.12"/>
</g>
<!-- Node17 -->
<g id="node17" class="node">
<title>Node17</title>
<g id="a_node17"><a xlink:href="joybutton_8h.html" target="_top" xlink:title=" ">
<polygon fill="white" stroke="red" points="524.89,-112.5 524.89,-131.5 596.89,-131.5 596.89,-112.5 524.89,-112.5"/>
<text text-anchor="middle" x="560.89" y="-119.5" font-family="Helvetica,sans-Serif" font-size="10.00">joybutton.h</text>
</a>
</g>
</g>
<!-- Node16&#45;&gt;Node17 -->
<g id="edge17" class="edge">
<title>Node16&#45;&gt;Node17</title>
<path fill="none" stroke="midnightblue" d="M560.89,-168.08C560.89,-161.01 560.89,-150.86 560.89,-141.99"/>
<polygon fill="midnightblue" stroke="midnightblue" points="564.39,-141.75 560.89,-131.75 557.39,-141.75 564.39,-141.75"/>
</g>
<!-- Node17&#45;&gt;Node18 -->
<g id="edge18" class="edge">
<title>Node17&#45;&gt;Node18</title>
<path fill="none" stroke="midnightblue" d="M524.6,-117.07C439.73,-107.89 227.57,-84.93 122.63,-73.57"/>
<polygon fill="midnightblue" stroke="midnightblue" points="122.83,-70.07 112.51,-72.48 122.07,-77.03 122.83,-70.07"/>
</g>
<!-- Node19 -->
<g id="node19" class="node">
<title>Node19</title>
<g id="a_node19"><a xlink:href="joybuttonmousehelper_8h.html" target="_top" xlink:title=" ">
<polygon fill="white" stroke="black" points="627.39,-56.5 627.39,-75.5 762.39,-75.5 762.39,-56.5 627.39,-56.5"/>
<text text-anchor="middle" x="694.89" y="-63.5" font-family="Helvetica,sans-Serif" font-size="10.00">joybuttonmousehelper.h</text>
</a>
</g>
</g>
<!-- Node17&#45;&gt;Node19 -->
<g id="edge21" class="edge">
<title>Node17&#45;&gt;Node19</title>
<path fill="none" stroke="midnightblue" d="M582.12,-112.44C604.27,-103.52 639.21,-89.44 664.32,-79.32"/>
<polygon fill="midnightblue" stroke="midnightblue" points="665.79,-82.5 673.75,-75.52 663.17,-76.01 665.79,-82.5"/>
</g>
<!-- Node20 -->
<g id="node20" class="node">
<title>Node20</title>
<g id="a_node20"><a xlink:href="joybuttonslot_8h.html" target="_top" xlink:title=" ">
<polygon fill="white" stroke="red" points="818.89,-56.5 818.89,-75.5 908.89,-75.5 908.89,-56.5 818.89,-56.5"/>
<text text-anchor="middle" x="863.89" y="-63.5" font-family="Helvetica,sans-Serif" font-size="10.00">joybuttonslot.h</text>
</a>
</g>
</g>
<!-- Node17&#45;&gt;Node20 -->
<g id="edge23" class="edge">
<title>Node17&#45;&gt;Node20</title>
<path fill="none" stroke="midnightblue" d="M597.14,-114.54C649.66,-105.18 747.36,-87.77 808.82,-76.81"/>
<polygon fill="midnightblue" stroke="midnightblue" points="809.5,-80.25 818.73,-75.05 808.27,-73.36 809.5,-80.25"/>
</g>
<!-- Node26 -->
<g id="node22" class="node">
<title>Node26</title>
<g id="a_node22"><a xlink:href="springmousemoveinfo_8h.html" target="_top" xlink:title=" ">
<polygon fill="white" stroke="black" points="359.39,-56.5 359.39,-75.5 494.39,-75.5 494.39,-56.5 359.39,-56.5"/>
<text text-anchor="middle" x="426.89" y="-63.5" font-family="Helvetica,sans-Serif" font-size="10.00">springmousemoveinfo.h</text>
</a>
</g>
</g>
<!-- Node17&#45;&gt;Node26 -->
<g id="edge26" class="edge">
<title>Node17&#45;&gt;Node26</title>
<path fill="none" stroke="midnightblue" d="M539.65,-112.44C517.5,-103.52 482.57,-89.44 457.45,-79.32"/>
<polygon fill="midnightblue" stroke="midnightblue" points="458.6,-76.01 448.02,-75.52 455.99,-82.5 458.6,-76.01"/>
</g>
<!-- Node27 -->
<g id="node23" class="node">
<title>Node27</title>
<g id="a_node23"><a xlink:title=" ">
<polygon fill="white" stroke="#bfbfbf" points="512.89,-56.5 512.89,-75.5 608.89,-75.5 608.89,-56.5 512.89,-56.5"/>
<text text-anchor="middle" x="560.89" y="-63.5" font-family="Helvetica,sans-Serif" font-size="10.00">QDeadlineTimer</text>
</a>
</g>
</g>
<!-- Node17&#45;&gt;Node27 -->
<g id="edge27" class="edge">
<title>Node17&#45;&gt;Node27</title>
<path fill="none" stroke="midnightblue" d="M560.89,-112.08C560.89,-105.01 560.89,-94.86 560.89,-85.99"/>
<polygon fill="midnightblue" stroke="midnightblue" points="564.39,-85.75 560.89,-75.75 557.39,-85.75 564.39,-85.75"/>
</g>
<!-- Node28 -->
<g id="node24" class="node">
<title>Node28</title>
<g id="a_node24"><a xlink:title=" ">
<polygon fill="white" stroke="#bfbfbf" points="168.89,-56.5 168.89,-75.5 224.89,-75.5 224.89,-56.5 168.89,-56.5"/>
<text text-anchor="middle" x="196.89" y="-63.5" font-family="Helvetica,sans-Serif" font-size="10.00">QQueue</text>
</a>
</g>
</g>
<!-- Node17&#45;&gt;Node28 -->
<g id="edge28" class="edge">
<title>Node17&#45;&gt;Node28</title>
<path fill="none" stroke="midnightblue" d="M524.89,-117.26C466.22,-110.9 346.19,-96.8 235.13,-76.07"/>
<polygon fill="midnightblue" stroke="midnightblue" points="235.58,-72.59 225.1,-74.18 234.28,-79.47 235.58,-72.59"/>
</g>
<!-- Node29 -->
<g id="node25" class="node">
<title>Node29</title>
<g id="a_node25"><a xlink:title=" ">
<polygon fill="white" stroke="#bfbfbf" points="242.89,-56.5 242.89,-75.5 340.89,-75.5 340.89,-56.5 242.89,-56.5"/>
<text text-anchor="middle" x="291.89" y="-63.5" font-family="Helvetica,sans-Serif" font-size="10.00">QReadWriteLock</text>
</a>
</g>
</g>
<!-- Node17&#45;&gt;Node29 -->
<g id="edge29" class="edge">
<title>Node17&#45;&gt;Node29</title>
<path fill="none" stroke="midnightblue" d="M524.61,-113.72C478.26,-104.41 397.71,-88.24 344.59,-77.58"/>
<polygon fill="midnightblue" stroke="midnightblue" points="345.17,-74.13 334.68,-75.59 343.79,-80.99 345.17,-74.13"/>
</g>
<!-- Node31 -->
<g id="node26" class="node">
<title>Node31</title>
<g id="a_node26"><a xlink:title=" ">
<polygon fill="white" stroke="#bfbfbf" points="1036.89,-56.5 1036.89,-75.5 1094.89,-75.5 1094.89,-56.5 1036.89,-56.5"/>
<text text-anchor="middle" x="1065.89" y="-63.5" font-family="Helvetica,sans-Serif" font-size="10.00">QThread</text>
</a>
</g>
</g>
<!-- Node17&#45;&gt;Node31 -->
<g id="edge30" class="edge">
<title>Node17&#45;&gt;Node31</title>
<path fill="none" stroke="midnightblue" d="M596.98,-117.35C670.66,-109.86 843.71,-92.12 988.89,-76 1001.1,-74.64 1014.39,-73.11 1026.44,-71.7"/>
<polygon fill="midnightblue" stroke="midnightblue" points="1027.12,-75.14 1036.65,-70.5 1026.31,-68.19 1027.12,-75.14"/>
</g>
<!-- Node32 -->
<g id="node27" class="node">
<title>Node32</title>
<g id="a_node27"><a xlink:title=" ">
<polygon fill="white" stroke="#bfbfbf" points="927.39,-56.5 927.39,-75.5 980.39,-75.5 980.39,-56.5 927.39,-56.5"/>
<text text-anchor="middle" x="953.89" y="-63.5" font-family="Helvetica,sans-Serif" font-size="10.00">QTimer</text>
</a>
</g>
</g>
<!-- Node17&#45;&gt;Node32 -->
<g id="edge31" class="edge">
<title>Node17&#45;&gt;Node32</title>
<path fill="none" stroke="midnightblue" d="M597.09,-117.88C660.11,-112.14 794.22,-98.54 917.26,-75.9"/>
<polygon fill="midnightblue" stroke="midnightblue" points="918.04,-79.32 927.23,-74.04 916.76,-72.43 918.04,-79.32"/>
</g>
<!-- Node18&#45;&gt;Node13 -->
<g id="edge19" class="edge">
<title>Node18&#45;&gt;Node13</title>
<path fill="none" stroke="midnightblue" d="M55.28,-56.08C49.63,-48.46 41.34,-37.26 34.44,-27.94"/>
<polygon fill="midnightblue" stroke="midnightblue" points="37.13,-25.7 28.37,-19.75 31.51,-29.87 37.13,-25.7"/>
</g>
<!-- Node18&#45;&gt;Node14 -->
<g id="edge20" class="edge">
<title>Node18&#45;&gt;Node14</title>
<path fill="none" stroke="midnightblue" d="M112.59,-57.63C117.42,-57.03 122.24,-56.48 126.89,-56 364.16,-31.56 650.56,-17.27 752.55,-12.66"/>
<polygon fill="midnightblue" stroke="midnightblue" points="752.84,-16.15 762.67,-12.21 752.53,-9.16 752.84,-16.15"/>
</g>
<!-- Node19&#45;&gt;Node14 -->
<g id="edge22" class="edge">
<title>Node19&#45;&gt;Node14</title>
<path fill="none" stroke="midnightblue" d="M710.31,-56.32C725.43,-47.82 748.7,-34.73 766.36,-24.8"/>
<polygon fill="midnightblue" stroke="midnightblue" points="768.5,-27.61 775.5,-19.65 765.07,-21.51 768.5,-27.61"/>
</g>
<!-- Node20&#45;&gt;Node14 -->
<g id="edge24" class="edge">
<title>Node20&#45;&gt;Node14</title>
<path fill="none" stroke="midnightblue" d="M852.16,-56.32C841.05,-48.11 824.15,-35.6 810.9,-25.81"/>
<polygon fill="midnightblue" stroke="midnightblue" points="812.95,-22.97 802.83,-19.83 808.79,-28.59 812.95,-22.97"/>
</g>
<!-- Node20&#45;&gt;Node24 -->
<g id="edge25" class="edge">
<title>Node20&#45;&gt;Node24</title>
<path fill="none" stroke="midnightblue" d="M908.95,-57.34C911.97,-56.87 914.97,-56.42 917.89,-56 1037.66,-38.74 1179.87,-22.69 1247.84,-15.28"/>
<polygon fill="midnightblue" stroke="midnightblue" points="1248.53,-18.73 1258.09,-14.17 1247.77,-11.77 1248.53,-18.73"/>
</g>
<!-- Node33&#45;&gt;Node14 -->
<g id="edge35" class="edge">
<title>Node33&#45;&gt;Node14</title>
<path fill="none" stroke="midnightblue" d="M1192.97,-112.41C1170.57,-96.41 1122.74,-63.04 1103.89,-56 1009.52,-20.77 889.63,-12.92 829.29,-11.31"/>
<polygon fill="midnightblue" stroke="midnightblue" points="829.16,-7.8 819.08,-11.08 829,-14.8 829.16,-7.8"/>
</g>
<!-- Node33&#45;&gt;Node31 -->
<g id="edge37" class="edge">
<title>Node33&#45;&gt;Node31</title>
<path fill="none" stroke="midnightblue" d="M1182.86,-112.44C1159.78,-103.48 1123.33,-89.31 1097.25,-79.18"/>
<polygon fill="midnightblue" stroke="midnightblue" points="1098.4,-75.88 1087.81,-75.52 1095.86,-82.4 1098.4,-75.88"/>
</g>
<!-- Node34 -->
<g id="node29" class="node">
<title>Node34</title>
<g id="a_node29"><a xlink:title=" ">
<polygon fill="white" stroke="#bfbfbf" points="1151.39,-56.5 1151.39,-75.5 1192.39,-75.5 1192.39,-56.5 1151.39,-56.5"/>
<text text-anchor="middle" x="1171.89" y="-63.5" font-family="Helvetica,sans-Serif" font-size="10.00">QFile</text>
</a>
</g>
</g>
<!-- Node33&#45;&gt;Node34 -->
<g id="edge33" class="edge">
<title>Node33&#45;&gt;Node34</title>
<path fill="none" stroke="midnightblue" d="M1199.44,-112.08C1194.87,-104.61 1188.22,-93.72 1182.59,-84.52"/>
<polygon fill="midnightblue" stroke="midnightblue" points="1185.44,-82.46 1177.24,-75.75 1179.46,-86.11 1185.44,-82.46"/>
</g>
<!-- Node35 -->
<g id="node30" class="node">
<title>Node35</title>
<g id="a_node30"><a xlink:title=" ">
<polygon fill="white" stroke="#bfbfbf" points="1210.39,-56.5 1210.39,-75.5 1265.39,-75.5 1265.39,-56.5 1210.39,-56.5"/>
<text text-anchor="middle" x="1237.89" y="-63.5" font-family="Helvetica,sans-Serif" font-size="10.00">QMutex</text>
</a>
</g>
</g>
<!-- Node33&#45;&gt;Node35 -->
<g id="edge34" class="edge">
<title>Node33&#45;&gt;Node35</title>
<path fill="none" stroke="midnightblue" d="M1210.34,-112.08C1214.9,-104.61 1221.56,-93.72 1227.18,-84.52"/>
<polygon fill="midnightblue" stroke="midnightblue" points="1230.31,-86.11 1232.54,-75.75 1224.34,-82.46 1230.31,-86.11"/>
</g>
<!-- Node36 -->
<g id="node31" class="node">
<title>Node36</title>
<g id="a_node31"><a xlink:title=" ">
<polygon fill="white" stroke="#bfbfbf" points="1283.89,-56.5 1283.89,-75.5 1363.89,-75.5 1363.89,-56.5 1283.89,-56.5"/>
<text text-anchor="middle" x="1323.89" y="-63.5" font-family="Helvetica,sans-Serif" font-size="10.00">QTextStream</text>
</a>
</g>
</g>
<!-- Node33&#45;&gt;Node36 -->
<g id="edge36" class="edge">
<title>Node33&#45;&gt;Node36</title>
<path fill="none" stroke="midnightblue" d="M1223.74,-112.44C1243.15,-103.64 1273.62,-89.81 1295.85,-79.72"/>
<polygon fill="midnightblue" stroke="midnightblue" points="1297.46,-82.84 1305.12,-75.52 1294.57,-76.46 1297.46,-82.84"/>
</g>
<!-- Node37 -->
<g id="node32" class="node">
<title>Node37</title>
<g id="a_node32"><a xlink:title=" ">
<polygon fill="white" stroke="#bfbfbf" points="1381.89,-56.5 1381.89,-75.5 1437.89,-75.5 1437.89,-56.5 1381.89,-56.5"/>
<text text-anchor="middle" x="1409.89" y="-63.5" font-family="Helvetica,sans-Serif" font-size="10.00">sstream</text>
</a>
</g>
</g>
<!-- Node33&#45;&gt;Node37 -->
<g id="edge38" class="edge">
<title>Node33&#45;&gt;Node37</title>
<path fill="none" stroke="midnightblue" d="M1232.96,-113.6C1269.05,-104.1 1331.85,-87.56 1372.1,-76.95"/>
<polygon fill="midnightblue" stroke="midnightblue" points="1373.05,-80.32 1381.82,-74.39 1371.26,-73.56 1373.05,-80.32"/>
</g>
<!-- Node38&#45;&gt;Node14 -->
<g id="edge42" class="edge">
<title>Node38&#45;&gt;Node14</title>
<path fill="none" stroke="midnightblue" d="M763.45,-168.08C768.01,-141.95 781.42,-65.21 787.64,-29.58"/>
<polygon fill="midnightblue" stroke="midnightblue" points="791.12,-30.02 789.39,-19.57 784.22,-28.82 791.12,-30.02"/>
</g>
<!-- Node42 -->
<g id="node37" class="node">
<title>Node42</title>
<g id="a_node37"><a xlink:href="commandlineutility_8h.html" target="_top" xlink:title=" ">
<polygon fill="white" stroke="black" points="1323.39,-168.5 1323.39,-187.5 1442.39,-187.5 1442.39,-168.5 1323.39,-168.5"/>
<text text-anchor="middle" x="1382.89" y="-175.5" font-family="Helvetica,sans-Serif" font-size="10.00">commandlineutility.h</text>
</a>
</g>
</g>
<!-- Node41&#45;&gt;Node42 -->
<g id="edge46" class="edge">
<title>Node41&#45;&gt;Node42</title>
<path fill="none" stroke="midnightblue" d="M1555.4,-224.44C1520.17,-215.16 1463.78,-200.31 1425.13,-190.13"/>
<polygon fill="midnightblue" stroke="midnightblue" points="1425.78,-186.68 1415.22,-187.52 1424,-193.45 1425.78,-186.68"/>
</g>
<!-- Node41&#45;&gt;Node44 -->
<g id="edge49" class="edge">
<title>Node41&#45;&gt;Node44</title>
<path fill="none" stroke="midnightblue" d="M1593.01,-224.08C1597.3,-216.61 1603.55,-205.72 1608.83,-196.52"/>
<polygon fill="midnightblue" stroke="midnightblue" points="1611.92,-198.17 1613.86,-187.75 1605.85,-194.68 1611.92,-198.17"/>
</g>
<!-- Node42&#45;&gt;Node33 -->
<g id="edge48" class="edge">
<title>Node42&#45;&gt;Node33</title>
<path fill="none" stroke="midnightblue" d="M1354.68,-168.44C1324.48,-159.28 1276.38,-144.69 1242.86,-134.52"/>
<polygon fill="midnightblue" stroke="midnightblue" points="1243.55,-131.07 1232.96,-131.52 1241.51,-137.77 1243.55,-131.07"/>
</g>
<!-- Node43 -->
<g id="node38" class="node">
<title>Node43</title>
<g id="a_node38"><a xlink:title=" ">
<polygon fill="white" stroke="#bfbfbf" points="1343.39,-112.5 1343.39,-131.5 1422.39,-131.5 1422.39,-112.5 1343.39,-112.5"/>
<text text-anchor="middle" x="1382.89" y="-119.5" font-family="Helvetica,sans-Serif" font-size="10.00">QApplication</text>
</a>
</g>
</g>
<!-- Node42&#45;&gt;Node43 -->
<g id="edge47" class="edge">
<title>Node42&#45;&gt;Node43</title>
<path fill="none" stroke="midnightblue" d="M1382.89,-168.08C1382.89,-161.01 1382.89,-150.86 1382.89,-141.99"/>
<polygon fill="midnightblue" stroke="midnightblue" points="1386.39,-141.75 1382.89,-131.75 1379.39,-141.75 1386.39,-141.75"/>
</g>
<!-- Node45&#45;&gt;Node31 -->
<g id="edge58" class="edge">
<title>Node45&#45;&gt;Node31</title>
<path fill="none" stroke="midnightblue" d="M1321.79,-284.73C1232.78,-273.57 1000.22,-244.38 999.89,-244 957.3,-195.69 1018.88,-117.36 1049.88,-83.48"/>
<polygon fill="midnightblue" stroke="midnightblue" points="1052.73,-85.56 1057.02,-75.87 1047.62,-80.77 1052.73,-85.56"/>
</g>
<!-- Node45&#45;&gt;Node41 -->
<g id="edge51" class="edge">
<title>Node45&#45;&gt;Node41</title>
<path fill="none" stroke="midnightblue" d="M1390.12,-281.03C1430.2,-271.7 1496.77,-256.21 1541.47,-245.8"/>
<polygon fill="midnightblue" stroke="midnightblue" points="1542.27,-249.21 1551.21,-243.54 1540.68,-242.39 1542.27,-249.21"/>
</g>
<!-- Node46 -->
<g id="node41" class="node">
<title>Node46</title>
<g id="a_node41"><a xlink:title=" ">
<polygon fill="white" stroke="#bfbfbf" points="1340.39,-224.5 1340.39,-243.5 1395.39,-243.5 1395.39,-224.5 1340.39,-224.5"/>
<text text-anchor="middle" x="1367.89" y="-231.5" font-family="Helvetica,sans-Serif" font-size="10.00">config.h</text>
</a>
</g>
</g>
<!-- Node45&#45;&gt;Node46 -->
<g id="edge52" class="edge">
<title>Node45&#45;&gt;Node46</title>
<path fill="none" stroke="midnightblue" d="M1357.87,-280.08C1359.46,-272.93 1361.75,-262.64 1363.73,-253.69"/>
<polygon fill="midnightblue" stroke="midnightblue" points="1367.19,-254.27 1365.94,-243.75 1360.36,-252.75 1367.19,-254.27"/>
</g>
<!-- Node47 -->
<g id="node42" class="node">
<title>Node47</title>
<g id="a_node42"><a xlink:href="mousehelper_8h.html" target="_top" xlink:title=" ">
<polygon fill="white" stroke="black" points="889.39,-112.5 889.39,-131.5 978.39,-131.5 978.39,-112.5 889.39,-112.5"/>
<text text-anchor="middle" x="933.89" y="-119.5" font-family="Helvetica,sans-Serif" font-size="10.00">mousehelper.h</text>
</a>
</g>
</g>
<!-- Node45&#45;&gt;Node47 -->
<g id="edge53" class="edge">
<title>Node45&#45;&gt;Node47</title>
<path fill="none" stroke="midnightblue" d="M1321.84,-284.66C1309.84,-283.16 1296.27,-281.48 1283.89,-280 1213.49,-271.6 1020.71,-290.15 966.89,-244 937.09,-218.45 932.9,-168.89 933.02,-141.8"/>
<polygon fill="midnightblue" stroke="midnightblue" points="936.52,-141.79 933.28,-131.7 929.52,-141.61 936.52,-141.79"/>
</g>
<!-- Node48 -->
<g id="node43" class="node">
<title>Node48</title>
<g id="a_node43"><a xlink:title=" ">
<polygon fill="white" stroke="#bfbfbf" points="1413.89,-224.5 1413.89,-243.5 1451.89,-243.5 1451.89,-224.5 1413.89,-224.5"/>
<text text-anchor="middle" x="1432.89" y="-231.5" font-family="Helvetica,sans-Serif" font-size="10.00">QDir</text>
</a>
</g>
</g>
<!-- Node45&#45;&gt;Node48 -->
<g id="edge56" class="edge">
<title>Node45&#45;&gt;Node48</title>
<path fill="none" stroke="midnightblue" d="M1368.26,-280.32C1380.05,-272.06 1398.02,-259.45 1412.02,-249.63"/>
<polygon fill="midnightblue" stroke="midnightblue" points="1414.37,-252.26 1420.55,-243.65 1410.35,-246.53 1414.37,-252.26"/>
</g>
<!-- Node49 -->
<g id="node44" class="node">
<title>Node49</title>
<g id="a_node44"><a xlink:title=" ">
<polygon fill="white" stroke="#bfbfbf" points="1469.89,-224.5 1469.89,-243.5 1513.89,-243.5 1513.89,-224.5 1469.89,-224.5"/>
<text text-anchor="middle" x="1491.89" y="-231.5" font-family="Helvetica,sans-Serif" font-size="10.00">QIcon</text>
</a>
</g>
</g>
<!-- Node45&#45;&gt;Node49 -->
<g id="edge57" class="edge">
<title>Node45&#45;&gt;Node49</title>
<path fill="none" stroke="midnightblue" d="M1377.44,-280.44C1399.92,-271.52 1435.38,-257.44 1460.87,-247.32"/>
<polygon fill="midnightblue" stroke="midnightblue" points="1462.44,-250.46 1470.44,-243.52 1459.85,-243.95 1462.44,-250.46"/>
</g>
<!-- Node50 -->
<g id="node45" class="node">
<title>Node50</title>
<g id="a_node45"><a xlink:title=" ">
<polygon fill="white" stroke="#bfbfbf" points="1008.89,-224.5 1008.89,-243.5 1080.89,-243.5 1080.89,-224.5 1008.89,-224.5"/>
<text text-anchor="middle" x="1044.89" y="-231.5" font-family="Helvetica,sans-Serif" font-size="10.00">QTranslator</text>
</a>
</g>
</g>
<!-- Node45&#45;&gt;Node50 -->
<g id="edge59" class="edge">
<title>Node45&#45;&gt;Node50</title>
<path fill="none" stroke="midnightblue" d="M1321.82,-283.57C1272.99,-275.72 1180.05,-260.49 1091.19,-244.2"/>
<polygon fill="midnightblue" stroke="midnightblue" points="1091.69,-240.73 1081.22,-242.36 1090.42,-247.62 1091.69,-240.73"/>
</g>
<!-- Node51 -->
<g id="node46" class="node">
<title>Node51</title>
<g id="a_node46"><a xlink:title=" ">
<polygon fill="white" stroke="#bfbfbf" points="1098.89,-224.5 1098.89,-243.5 1190.89,-243.5 1190.89,-224.5 1098.89,-224.5"/>
<text text-anchor="middle" x="1144.89" y="-231.5" font-family="Helvetica,sans-Serif" font-size="10.00">QWaitCondition</text>
</a>
</g>
</g>
<!-- Node45&#45;&gt;Node51 -->
<g id="edge60" class="edge">
<title>Node45&#45;&gt;Node51</title>
<path fill="none" stroke="midnightblue" d="M1322.45,-280.44C1286.03,-271.12 1227.66,-256.18 1187.86,-246"/>
<polygon fill="midnightblue" stroke="midnightblue" points="1188.72,-242.61 1178.16,-243.52 1186.98,-249.39 1188.72,-242.61"/>
</g>
<!-- Node52 -->
<g id="node47" class="node">
<title>Node52</title>
<g id="a_node47"><a xlink:title=" ">
<polygon fill="white" stroke="#bfbfbf" points="1209.39,-224.5 1209.39,-243.5 1322.39,-243.5 1322.39,-224.5 1209.39,-224.5"/>
<text text-anchor="middle" x="1265.89" y="-231.5" font-family="Helvetica,sans-Serif" font-size="10.00">SDL2/SDL_version.h</text>
</a>
</g>
</g>
<!-- Node45&#45;&gt;Node52 -->
<g id="edge61" class="edge">
<title>Node45&#45;&gt;Node52</title>
<path fill="none" stroke="midnightblue" d="M1341.43,-280.32C1327.39,-271.9 1305.84,-258.97 1289.34,-249.07"/>
<polygon fill="midnightblue" stroke="midnightblue" points="1290.69,-245.8 1280.31,-243.65 1287.09,-251.8 1290.69,-245.8"/>
</g>
<!-- Node47&#45;&gt;Node14 -->
<g id="edge54" class="edge">
<title>Node47&#45;&gt;Node14</title>
<path fill="none" stroke="midnightblue" d="M950.67,-112.3C972.3,-99.96 1005.3,-76.56 988.89,-56 969.29,-31.45 881.02,-19.27 829.19,-14.14"/>
<polygon fill="midnightblue" stroke="midnightblue" points="829.31,-10.64 819.03,-13.18 828.65,-17.6 829.31,-10.64"/>
</g>
<!-- Node47&#45;&gt;Node32 -->
<g id="edge55" class="edge">
<title>Node47&#45;&gt;Node32</title>
<path fill="none" stroke="midnightblue" d="M937.19,-112.08C939.87,-104.85 943.74,-94.41 947.07,-85.4"/>
<polygon fill="midnightblue" stroke="midnightblue" points="950.46,-86.34 950.65,-75.75 943.89,-83.91 950.46,-86.34"/>
</g>
</g>
</svg>
        <g id="navigator" transform="translate(0 0)" fill="#404254">
                <rect fill="#f2f5e9" fill-opacity="0.5" stroke="#606060" stroke-width=".5" x="0" y="0" width="60" height="60"/>
                <use id="zoomplus" xlink:href="#zoomPlus" x="17" y="9" onmousedown="handleZoom(evt,'in')"/>
                <use id="zoomminus" xlink:href="#zoomMin" x="42" y="9" onmousedown="handleZoom(evt,'out')"/>
                <use id="reset" xlink:href="#resetDef" x="30" y="36" onmousedown="handleReset()"/>
                <g id="arrowUp" xlink:href="#dirArrow" transform="translate(30 24)" onmousedown="handlePan(0,-1)">
                  <use xlink:href="#rim" fill="#404040">
                        <set attributeName="fill" to="#808080" begin="arrowUp.mouseover" end="arrowUp.mouseout"/>
                  </use>
                  <path fill="none" stroke="white" stroke-width="1.5" d="M0,-3.0v7 M-2.5,-0.5L0,-3.0L2.5,-0.5"/>
                </g>
                <g id="arrowRight" xlink:href="#dirArrow" transform="rotate(90) translate(36 -43)" onmousedown="handlePan(1,0)">
                  <use xlink:href="#rim" fill="#404040">
                        <set attributeName="fill" to="#808080" begin="arrowRight.mouseover" end="arrowRight.mouseout"/>
                  </use>
                  <path fill="none" stroke="white" stroke-width="1.5" d="M0,-3.0v7 M-2.5,-0.5L0,-3.0L2.5,-0.5"/>
                </g>
                <g id="arrowDown" xlink:href="#dirArrow" transform="rotate(180) translate(-30 -48)" onmousedown="handlePan(0,1)">
                  <use xlink:href="#rim" fill="#404040">
                        <set attributeName="fill" to="#808080" begin="arrowDown.mouseover" end="arrowDown.mouseout"/>
                  </use>
                  <path fill="none" stroke="white" stroke-width="1.5" d="M0,-3.0v7 M-2.5,-0.5L0,-3.0L2.5,-0.5"/>
                </g>
                <g id="arrowLeft" xlink:href="#dirArrow" transform="rotate(270) translate(-36 17)" onmousedown="handlePan(-1,0)">
                  <use xlink:href="#rim" fill="#404040">
                        <set attributeName="fill" to="#808080" begin="arrowLeft.mouseover" end="arrowLeft.mouseout"/>
                  </use>
                  <path fill="none" stroke="white" stroke-width="1.5" d="M0,-3.0v7 M-2.5,-0.5L0,-3.0L2.5,-0.5"/>
                </g>
        </g>
        <svg viewBox="0 0 15 15" width="100%" height="30px" preserveAspectRatio="xMaxYMin meet">
         <g id="arrow_out" transform="scale(0.3 0.3)">
          <a xlink:href="sdleventreader_8cpp__incl_org.svg" target="_base">
           <rect id="button" ry="5" rx="5" y="6" x="6" height="38" width="38"
                fill="#f2f5e9" fill-opacity="0.5" stroke="#606060" stroke-width="1.0"/>
           <path id="arrow"
             d="M 11.500037,31.436501 C 11.940474,20.09759 22.043105,11.32322 32.158766,21.979434 L 37.068811,17.246167 C 37.068811,17.246167 37.088388,32 37.088388,32 L 22.160133,31.978069 C 22.160133,31.978069 26.997745,27.140456 26.997745,27.140456 C 18.528582,18.264221 13.291696,25.230495 11.500037,31.436501 z"
             style="fill:#404040;"/>
          </a>
         </g>
        </svg>
</svg>
