<?xml version="1.0" encoding="UTF-8" standalone="no"?>
<!DOCTYPE svg PUBLIC "-//W3C//DTD SVG 1.1//EN"
 "http://www.w3.org/Graphics/SVG/1.1/DTD/svg11.dtd">
<!-- Generated by graphviz version 2.43.0 (0)
 -->
<!-- Title: /home/runner/work/doxygen/antimicrox/src/stickpushbuttongroup.cpp Pages: 1 -->
<svg width="1753pt" height="487pt"
 viewBox="0.00 0.00 1752.50 487.00" xmlns="http://www.w3.org/2000/svg" xmlns:xlink="http://www.w3.org/1999/xlink">
<g id="graph0" class="graph" transform="scale(1 1) rotate(0) translate(4 483)">
<title>/home/runner/work/doxygen/antimicrox/src/stickpushbuttongroup.cpp</title>
<polygon fill="white" stroke="transparent" points="-4,4 -4,-483 1748.5,-483 1748.5,4 -4,4"/>
<!-- Node1 -->
<g id="node1" class="node">
<title>Node1</title>
<g id="a_node1"><a xlink:title=" ">
<polygon fill="#bfbfbf" stroke="black" points="1008,-448.5 1008,-478.5 1226,-478.5 1226,-448.5 1008,-448.5"/>
<text text-anchor="start" x="1016" y="-466.5" font-family="Helvetica,sans-Serif" font-size="10.00">/home/runner/work/doxygen</text>
<text text-anchor="middle" x="1117" y="-455.5" font-family="Helvetica,sans-Serif" font-size="10.00">/antimicrox/src/stickpushbuttongroup.cpp</text>
</a>
</g>
</g>
<!-- Node2 -->
<g id="node2" class="node">
<title>Node2</title>
<g id="a_node2"><a xlink:href="stickpushbuttongroup_8h.html" target="_top" xlink:title=" ">
<polygon fill="white" stroke="black" points="1051.5,-392.5 1051.5,-411.5 1182.5,-411.5 1182.5,-392.5 1051.5,-392.5"/>
<text text-anchor="middle" x="1117" y="-399.5" font-family="Helvetica,sans-Serif" font-size="10.00">stickpushbuttongroup.h</text>
</a>
</g>
</g>
<!-- Node1&#45;&gt;Node2 -->
<g id="edge1" class="edge">
<title>Node1&#45;&gt;Node2</title>
<path fill="none" stroke="midnightblue" d="M1117,-448.4C1117,-440.47 1117,-430.46 1117,-421.86"/>
<polygon fill="midnightblue" stroke="midnightblue" points="1120.5,-421.66 1117,-411.66 1113.5,-421.66 1120.5,-421.66"/>
</g>
<!-- Node5 -->
<g id="node5" class="node">
<title>Node5</title>
<g id="a_node5"><a xlink:href="buttoneditdialog_8h.html" target="_top" xlink:title=" ">
<polygon fill="white" stroke="black" points="674,-392.5 674,-411.5 780,-411.5 780,-392.5 674,-392.5"/>
<text text-anchor="middle" x="727" y="-399.5" font-family="Helvetica,sans-Serif" font-size="10.00">buttoneditdialog.h</text>
</a>
</g>
</g>
<!-- Node1&#45;&gt;Node5 -->
<g id="edge4" class="edge">
<title>Node1&#45;&gt;Node5</title>
<path fill="none" stroke="midnightblue" d="M1025.07,-448.47C952.71,-437.44 853.78,-422.34 790.13,-412.63"/>
<polygon fill="midnightblue" stroke="midnightblue" points="790.64,-409.17 780.23,-411.12 789.58,-416.09 790.64,-409.17"/>
</g>
<!-- Node15 -->
<g id="node15" class="node">
<title>Node15</title>
<g id="a_node15"><a xlink:href="inputdevice_8h.html" target="_top" xlink:title=" ">
<polygon fill="white" stroke="black" points="371.5,-392.5 371.5,-411.5 454.5,-411.5 454.5,-392.5 371.5,-392.5"/>
<text text-anchor="middle" x="413" y="-399.5" font-family="Helvetica,sans-Serif" font-size="10.00">inputdevice.h</text>
</a>
</g>
</g>
<!-- Node1&#45;&gt;Node15 -->
<g id="edge14" class="edge">
<title>Node1&#45;&gt;Node15</title>
<path fill="none" stroke="midnightblue" d="M1007.77,-453.27C853.84,-440.26 579.15,-417.04 464.99,-407.39"/>
<polygon fill="midnightblue" stroke="midnightblue" points="465.03,-403.89 454.77,-406.53 464.44,-410.86 465.03,-403.89"/>
</g>
<!-- Node17 -->
<g id="node17" class="node">
<title>Node17</title>
<g id="a_node17"><a xlink:title=" ">
<polygon fill="white" stroke="#bfbfbf" points="572.5,-280.5 572.5,-299.5 621.5,-299.5 621.5,-280.5 572.5,-280.5"/>
<text text-anchor="middle" x="597" y="-287.5" font-family="Helvetica,sans-Serif" font-size="10.00">QHash</text>
</a>
</g>
</g>
<!-- Node1&#45;&gt;Node17 -->
<g id="edge68" class="edge">
<title>Node1&#45;&gt;Node17</title>
<path fill="none" stroke="midnightblue" d="M1007.83,-462.05C892.06,-459.56 718.63,-449.42 665,-412 634.03,-390.39 645.96,-368.66 627,-336 621.52,-326.56 614.83,-316.41 609.16,-308.15"/>
<polygon fill="midnightblue" stroke="midnightblue" points="611.9,-305.96 603.31,-299.76 606.16,-309.96 611.9,-305.96"/>
</g>
<!-- Node44 -->
<g id="node41" class="node">
<title>Node44</title>
<g id="a_node41"><a xlink:href="joycontrolstickbutton_8h.html" target="_top" xlink:title=" ">
<polygon fill="white" stroke="black" points="828,-280.5 828,-299.5 1034,-299.5 1034,-280.5 828,-280.5"/>
<text text-anchor="middle" x="931" y="-287.5" font-family="Helvetica,sans-Serif" font-size="10.00">joybuttontypes/joycontrolstickbutton.h</text>
</a>
</g>
</g>
<!-- Node1&#45;&gt;Node44 -->
<g id="edge51" class="edge">
<title>Node1&#45;&gt;Node44</title>
<path fill="none" stroke="midnightblue" d="M1007.92,-458.5C961.11,-452.44 907.72,-439.36 866,-412 834.25,-391.18 806.16,-367.73 827,-336 837.57,-319.91 855.26,-309.54 873.08,-302.88"/>
<polygon fill="midnightblue" stroke="midnightblue" points="874.6,-306.06 882.95,-299.54 872.36,-299.43 874.6,-306.06"/>
</g>
<!-- Node45 -->
<g id="node42" class="node">
<title>Node45</title>
<g id="a_node42"><a xlink:href="joycontrolstick_8h.html" target="_top" xlink:title=" ">
<polygon fill="white" stroke="black" points="1212,-280.5 1212,-299.5 1310,-299.5 1310,-280.5 1212,-280.5"/>
<text text-anchor="middle" x="1261" y="-287.5" font-family="Helvetica,sans-Serif" font-size="10.00">joycontrolstick.h</text>
</a>
</g>
</g>
<!-- Node1&#45;&gt;Node45 -->
<g id="edge54" class="edge">
<title>Node1&#45;&gt;Node45</title>
<path fill="none" stroke="midnightblue" d="M1143.49,-448.4C1158.67,-439.41 1177.35,-426.71 1191,-412 1220.33,-380.41 1242.66,-334.4 1253.58,-309.2"/>
<polygon fill="midnightblue" stroke="midnightblue" points="1256.9,-310.34 1257.55,-299.77 1250.44,-307.63 1256.9,-310.34"/>
</g>
<!-- Node46 -->
<g id="node43" class="node">
<title>Node46</title>
<g id="a_node43"><a xlink:href="joycontrolstickbuttonpushbutton_8h.html" target="_top" xlink:title=" ">
<polygon fill="white" stroke="black" points="1239,-392.5 1239,-411.5 1423,-411.5 1423,-392.5 1239,-392.5"/>
<text text-anchor="middle" x="1331" y="-399.5" font-family="Helvetica,sans-Serif" font-size="10.00">joycontrolstickbuttonpushbutton.h</text>
</a>
</g>
</g>
<!-- Node1&#45;&gt;Node46 -->
<g id="edge58" class="edge">
<title>Node1&#45;&gt;Node46</title>
<path fill="none" stroke="midnightblue" d="M1167.44,-448.47C1205.01,-438.03 1255.62,-423.96 1290.55,-414.25"/>
<polygon fill="midnightblue" stroke="midnightblue" points="1291.71,-417.56 1300.41,-411.51 1289.83,-410.81 1291.71,-417.56"/>
</g>
<!-- Node49 -->
<g id="node46" class="node">
<title>Node49</title>
<g id="a_node46"><a xlink:href="joycontrolstickeditdialog_8h.html" target="_top" xlink:title=" ">
<polygon fill="white" stroke="black" points="875,-392.5 875,-411.5 1021,-411.5 1021,-392.5 875,-392.5"/>
<text text-anchor="middle" x="948" y="-399.5" font-family="Helvetica,sans-Serif" font-size="10.00">joycontrolstickeditdialog.h</text>
</a>
</g>
</g>
<!-- Node1&#45;&gt;Node49 -->
<g id="edge61" class="edge">
<title>Node1&#45;&gt;Node49</title>
<path fill="none" stroke="midnightblue" d="M1076.95,-448.4C1048.09,-438.24 1009.55,-424.67 982.15,-415.02"/>
<polygon fill="midnightblue" stroke="midnightblue" points="983.19,-411.68 972.59,-411.66 980.86,-418.28 983.19,-411.68"/>
</g>
<!-- Node51 -->
<g id="node48" class="node">
<title>Node51</title>
<g id="a_node48"><a xlink:href="joycontrolstickpushbutton_8h.html" target="_top" xlink:title=" ">
<polygon fill="white" stroke="black" points="1441,-392.5 1441,-411.5 1593,-411.5 1593,-392.5 1441,-392.5"/>
<text text-anchor="middle" x="1517" y="-399.5" font-family="Helvetica,sans-Serif" font-size="10.00">joycontrolstickpushbutton.h</text>
</a>
</g>
</g>
<!-- Node1&#45;&gt;Node51 -->
<g id="edge65" class="edge">
<title>Node1&#45;&gt;Node51</title>
<path fill="none" stroke="midnightblue" d="M1211.29,-448.47C1284.51,-437.58 1384.27,-422.74 1449.63,-413.02"/>
<polygon fill="midnightblue" stroke="midnightblue" points="1450.44,-416.44 1459.81,-411.51 1449.41,-409.52 1450.44,-416.44"/>
</g>
<!-- Node52 -->
<g id="node49" class="node">
<title>Node52</title>
<g id="a_node49"><a xlink:title=" ">
<polygon fill="white" stroke="#bfbfbf" points="1611,-392.5 1611,-411.5 1667,-411.5 1667,-392.5 1611,-392.5"/>
<text text-anchor="middle" x="1639" y="-399.5" font-family="Helvetica,sans-Serif" font-size="10.00">QDebug</text>
</a>
</g>
</g>
<!-- Node1&#45;&gt;Node52 -->
<g id="edge67" class="edge">
<title>Node1&#45;&gt;Node52</title>
<path fill="none" stroke="midnightblue" d="M1226.41,-455.34C1322.68,-448.06 1466.71,-434.8 1600.76,-412"/>
<polygon fill="midnightblue" stroke="midnightblue" points="1601.54,-415.42 1610.8,-410.27 1600.35,-408.52 1601.54,-415.42"/>
</g>
<!-- Node53 -->
<g id="node50" class="node">
<title>Node53</title>
<g id="a_node50"><a xlink:title=" ">
<polygon fill="white" stroke="#bfbfbf" points="1685.5,-392.5 1685.5,-411.5 1744.5,-411.5 1744.5,-392.5 1685.5,-392.5"/>
<text text-anchor="middle" x="1715" y="-399.5" font-family="Helvetica,sans-Serif" font-size="10.00">QWidget</text>
</a>
</g>
</g>
<!-- Node1&#45;&gt;Node53 -->
<g id="edge69" class="edge">
<title>Node1&#45;&gt;Node53</title>
<path fill="none" stroke="midnightblue" d="M1226.02,-457.07C1336.76,-450.55 1513.3,-437.37 1675.13,-411.92"/>
<polygon fill="midnightblue" stroke="midnightblue" points="1675.95,-415.33 1685.27,-410.3 1674.85,-408.42 1675.95,-415.33"/>
</g>
<!-- Node3 -->
<g id="node3" class="node">
<title>Node3</title>
<g id="a_node3"><a xlink:href="joycontrolstickdirectionstype_8h.html" target="_top" xlink:title=" ">
<polygon fill="white" stroke="black" points="1066.5,-224.5 1066.5,-243.5 1233.5,-243.5 1233.5,-224.5 1066.5,-224.5"/>
<text text-anchor="middle" x="1150" y="-231.5" font-family="Helvetica,sans-Serif" font-size="10.00">joycontrolstickdirectionstype.h</text>
</a>
</g>
</g>
<!-- Node2&#45;&gt;Node3 -->
<g id="edge2" class="edge">
<title>Node2&#45;&gt;Node3</title>
<path fill="none" stroke="midnightblue" d="M1131.08,-392.26C1142.35,-384.35 1157.35,-371.58 1164,-356 1178.61,-321.78 1166.52,-277.44 1157.54,-253.05"/>
<polygon fill="midnightblue" stroke="midnightblue" points="1160.75,-251.67 1153.85,-243.64 1154.24,-254.22 1160.75,-251.67"/>
</g>
<!-- Node4 -->
<g id="node4" class="node">
<title>Node4</title>
<g id="a_node4"><a xlink:title=" ">
<polygon fill="white" stroke="#bfbfbf" points="1078.5,-336.5 1078.5,-355.5 1155.5,-355.5 1155.5,-336.5 1078.5,-336.5"/>
<text text-anchor="middle" x="1117" y="-343.5" font-family="Helvetica,sans-Serif" font-size="10.00">QGridLayout</text>
</a>
</g>
</g>
<!-- Node2&#45;&gt;Node4 -->
<g id="edge3" class="edge">
<title>Node2&#45;&gt;Node4</title>
<path fill="none" stroke="midnightblue" d="M1117,-392.08C1117,-385.01 1117,-374.86 1117,-365.99"/>
<polygon fill="midnightblue" stroke="midnightblue" points="1120.5,-365.75 1117,-355.75 1113.5,-365.75 1120.5,-365.75"/>
</g>
<!-- Node6 -->
<g id="node6" class="node">
<title>Node6</title>
<g id="a_node6"><a xlink:title=" ">
<polygon fill="white" stroke="#bfbfbf" points="724,-336.5 724,-355.5 780,-355.5 780,-336.5 724,-336.5"/>
<text text-anchor="middle" x="752" y="-343.5" font-family="Helvetica,sans-Serif" font-size="10.00">QDialog</text>
</a>
</g>
</g>
<!-- Node5&#45;&gt;Node6 -->
<g id="edge5" class="edge">
<title>Node5&#45;&gt;Node6</title>
<path fill="none" stroke="midnightblue" d="M731.13,-392.08C734.51,-384.77 739.42,-374.18 743.62,-365.1"/>
<polygon fill="midnightblue" stroke="midnightblue" points="746.92,-366.3 747.95,-355.75 740.57,-363.36 746.92,-366.3"/>
</g>
<!-- Node7 -->
<g id="node7" class="node">
<title>Node7</title>
<g id="a_node7"><a xlink:href="buttoneditdialoghelper_8h.html" target="_top" xlink:title=" ">
<polygon fill="white" stroke="black" points="604,-168.5 604,-187.5 788,-187.5 788,-168.5 604,-168.5"/>
<text text-anchor="middle" x="696" y="-175.5" font-family="Helvetica,sans-Serif" font-size="10.00">uihelpers/buttoneditdialoghelper.h</text>
</a>
</g>
</g>
<!-- Node5&#45;&gt;Node7 -->
<g id="edge6" class="edge">
<title>Node5&#45;&gt;Node7</title>
<path fill="none" stroke="midnightblue" d="M724.3,-392.46C721.56,-383.48 717.39,-368.88 715,-356 704.39,-298.9 699.12,-230.25 697.06,-197.78"/>
<polygon fill="midnightblue" stroke="midnightblue" points="700.54,-197.31 696.45,-187.54 693.56,-197.73 700.54,-197.31"/>
</g>
<!-- Node8 -->
<g id="node8" class="node">
<title>Node8</title>
<g id="a_node8"><a xlink:href="joybuttonslot_8h.html" target="_top" xlink:title=" ">
<polygon fill="white" stroke="black" points="651,-56.5 651,-75.5 741,-75.5 741,-56.5 651,-56.5"/>
<text text-anchor="middle" x="696" y="-63.5" font-family="Helvetica,sans-Serif" font-size="10.00">joybuttonslot.h</text>
</a>
</g>
</g>
<!-- Node7&#45;&gt;Node8 -->
<g id="edge7" class="edge">
<title>Node7&#45;&gt;Node8</title>
<path fill="none" stroke="midnightblue" d="M696,-168.37C696,-150.62 696,-109.67 696,-85.6"/>
<polygon fill="midnightblue" stroke="midnightblue" points="699.5,-85.59 696,-75.59 692.5,-85.59 699.5,-85.59"/>
</g>
<!-- Node9 -->
<g id="node9" class="node">
<title>Node9</title>
<g id="a_node9"><a xlink:title=" ">
<polygon fill="white" stroke="#bfbfbf" points="715.5,-0.5 715.5,-19.5 806.5,-19.5 806.5,-0.5 715.5,-0.5"/>
<text text-anchor="middle" x="761" y="-7.5" font-family="Helvetica,sans-Serif" font-size="10.00">QElapsedTimer</text>
</a>
</g>
</g>
<!-- Node8&#45;&gt;Node9 -->
<g id="edge8" class="edge">
<title>Node8&#45;&gt;Node9</title>
<path fill="none" stroke="midnightblue" d="M706.44,-56.32C716.15,-48.26 730.82,-36.08 742.5,-26.37"/>
<polygon fill="midnightblue" stroke="midnightblue" points="744.91,-28.92 750.37,-19.83 740.44,-23.53 744.91,-28.92"/>
</g>
<!-- Node10 -->
<g id="node10" class="node">
<title>Node10</title>
<g id="a_node10"><a xlink:title=" ">
<polygon fill="white" stroke="#bfbfbf" points="323,-0.5 323,-19.5 379,-19.5 379,-0.5 323,-0.5"/>
<text text-anchor="middle" x="351" y="-7.5" font-family="Helvetica,sans-Serif" font-size="10.00">QObject</text>
</a>
</g>
</g>
<!-- Node8&#45;&gt;Node10 -->
<g id="edge9" class="edge">
<title>Node8&#45;&gt;Node10</title>
<path fill="none" stroke="midnightblue" d="M650.98,-57.6C647.6,-57.06 644.25,-56.52 641,-56 550.72,-41.61 444.52,-25.28 389.08,-16.81"/>
<polygon fill="midnightblue" stroke="midnightblue" points="389.42,-13.32 379.01,-15.27 388.36,-20.24 389.42,-13.32"/>
</g>
<!-- Node11 -->
<g id="node11" class="node">
<title>Node11</title>
<g id="a_node11"><a xlink:title=" ">
<polygon fill="white" stroke="#bfbfbf" points="1156.5,-0.5 1156.5,-19.5 1215.5,-19.5 1215.5,-0.5 1156.5,-0.5"/>
<text text-anchor="middle" x="1186" y="-7.5" font-family="Helvetica,sans-Serif" font-size="10.00">QPointer</text>
</a>
</g>
</g>
<!-- Node8&#45;&gt;Node11 -->
<g id="edge10" class="edge">
<title>Node8&#45;&gt;Node11</title>
<path fill="none" stroke="midnightblue" d="M741.05,-57.28C744.08,-56.82 747.08,-56.39 750,-56 895.49,-36.39 1069.32,-20.78 1146.14,-14.28"/>
<polygon fill="midnightblue" stroke="midnightblue" points="1146.65,-17.75 1156.32,-13.42 1146.06,-10.77 1146.65,-17.75"/>
</g>
<!-- Node12 -->
<g id="node12" class="node">
<title>Node12</title>
<g id="a_node12"><a xlink:title=" ">
<polygon fill="white" stroke="#bfbfbf" points="824.5,-0.5 824.5,-19.5 873.5,-19.5 873.5,-0.5 824.5,-0.5"/>
<text text-anchor="middle" x="849" y="-7.5" font-family="Helvetica,sans-Serif" font-size="10.00">QTime</text>
</a>
</g>
</g>
<!-- Node8&#45;&gt;Node12 -->
<g id="edge11" class="edge">
<title>Node8&#45;&gt;Node12</title>
<path fill="none" stroke="midnightblue" d="M720.24,-56.44C745.87,-47.4 786.49,-33.06 815.24,-22.92"/>
<polygon fill="midnightblue" stroke="midnightblue" points="816.61,-26.15 824.87,-19.52 814.28,-19.54 816.61,-26.15"/>
</g>
<!-- Node13 -->
<g id="node13" class="node">
<title>Node13</title>
<g id="a_node13"><a xlink:title=" ">
<polygon fill="white" stroke="#bfbfbf" points="487.5,-0.5 487.5,-19.5 546.5,-19.5 546.5,-0.5 487.5,-0.5"/>
<text text-anchor="middle" x="517" y="-7.5" font-family="Helvetica,sans-Serif" font-size="10.00">QVariant</text>
</a>
</g>
</g>
<!-- Node8&#45;&gt;Node13 -->
<g id="edge12" class="edge">
<title>Node8&#45;&gt;Node13</title>
<path fill="none" stroke="midnightblue" d="M667.64,-56.44C637.26,-47.28 588.89,-32.69 555.18,-22.52"/>
<polygon fill="midnightblue" stroke="midnightblue" points="555.82,-19.05 545.23,-19.52 553.79,-25.76 555.82,-19.05"/>
</g>
<!-- Node14 -->
<g id="node14" class="node">
<title>Node14</title>
<g id="a_node14"><a xlink:title=" ">
<polygon fill="white" stroke="#bfbfbf" points="564.5,-0.5 564.5,-19.5 697.5,-19.5 697.5,-0.5 564.5,-0.5"/>
<text text-anchor="middle" x="631" y="-7.5" font-family="Helvetica,sans-Serif" font-size="10.00">QtWidgets/QApplication</text>
</a>
</g>
</g>
<!-- Node8&#45;&gt;Node14 -->
<g id="edge13" class="edge">
<title>Node8&#45;&gt;Node14</title>
<path fill="none" stroke="midnightblue" d="M685.56,-56.32C675.85,-48.26 661.18,-36.08 649.5,-26.37"/>
<polygon fill="midnightblue" stroke="midnightblue" points="651.56,-23.53 641.63,-19.83 647.09,-28.92 651.56,-23.53"/>
</g>
<!-- Node16 -->
<g id="node16" class="node">
<title>Node16</title>
<g id="a_node16"><a xlink:href="inputdevicecalibration_8h.html" target="_top" xlink:title=" ">
<polygon fill="white" stroke="black" points="484,-336.5 484,-355.5 618,-355.5 618,-336.5 484,-336.5"/>
<text text-anchor="middle" x="551" y="-343.5" font-family="Helvetica,sans-Serif" font-size="10.00">inputdevicecalibration.h</text>
</a>
</g>
</g>
<!-- Node15&#45;&gt;Node16 -->
<g id="edge15" class="edge">
<title>Node15&#45;&gt;Node16</title>
<path fill="none" stroke="midnightblue" d="M434.87,-392.44C457.78,-383.48 493.98,-369.31 519.87,-359.18"/>
<polygon fill="midnightblue" stroke="midnightblue" points="521.2,-362.42 529.24,-355.52 518.65,-355.9 521.2,-362.42"/>
</g>
<!-- Node18 -->
<g id="node18" class="node">
<title>Node18</title>
<g id="a_node18"><a xlink:href="joysensordirection_8h.html" target="_top" xlink:title=" ">
<polygon fill="white" stroke="black" points="226,-280.5 226,-299.5 342,-299.5 342,-280.5 226,-280.5"/>
<text text-anchor="middle" x="284" y="-287.5" font-family="Helvetica,sans-Serif" font-size="10.00">joysensordirection.h</text>
</a>
</g>
</g>
<!-- Node15&#45;&gt;Node18 -->
<g id="edge17" class="edge">
<title>Node15&#45;&gt;Node18</title>
<path fill="none" stroke="midnightblue" d="M371.26,-393.22C348.18,-386.87 320.68,-375.62 303,-356 291.57,-343.32 287,-324.12 285.17,-309.87"/>
<polygon fill="midnightblue" stroke="midnightblue" points="288.64,-309.35 284.23,-299.72 281.67,-310 288.64,-309.35"/>
</g>
<!-- Node20 -->
<g id="node20" class="node">
<title>Node20</title>
<g id="a_node20"><a xlink:href="joysensortype_8h.html" target="_top" xlink:title=" ">
<polygon fill="white" stroke="black" points="393.5,-280.5 393.5,-299.5 488.5,-299.5 488.5,-280.5 393.5,-280.5"/>
<text text-anchor="middle" x="441" y="-287.5" font-family="Helvetica,sans-Serif" font-size="10.00">joysensortype.h</text>
</a>
</g>
</g>
<!-- Node15&#45;&gt;Node20 -->
<g id="edge19" class="edge">
<title>Node15&#45;&gt;Node20</title>
<path fill="none" stroke="midnightblue" d="M419.18,-392.18C424.94,-383.45 433.19,-369.46 437,-356 441.28,-340.85 442.09,-322.96 441.94,-309.78"/>
<polygon fill="midnightblue" stroke="midnightblue" points="445.43,-309.49 441.62,-299.61 438.43,-309.71 445.43,-309.49"/>
</g>
<!-- Node22 -->
<g id="node22" class="node">
<title>Node22</title>
<g id="a_node22"><a xlink:href="setjoystick_8h.html" target="_top" xlink:title=" ">
<polygon fill="white" stroke="black" points="176.5,-336.5 176.5,-355.5 255.5,-355.5 255.5,-336.5 176.5,-336.5"/>
<text text-anchor="middle" x="216" y="-343.5" font-family="Helvetica,sans-Serif" font-size="10.00">setjoystick.h</text>
</a>
</g>
</g>
<!-- Node15&#45;&gt;Node22 -->
<g id="edge22" class="edge">
<title>Node15&#45;&gt;Node22</title>
<path fill="none" stroke="midnightblue" d="M381.78,-392.44C348.07,-383.2 294.2,-368.44 257.07,-358.26"/>
<polygon fill="midnightblue" stroke="midnightblue" points="257.64,-354.78 247.07,-355.52 255.79,-361.54 257.64,-354.78"/>
</g>
<!-- Node43 -->
<g id="node40" class="node">
<title>Node43</title>
<g id="a_node40"><a xlink:title=" ">
<polygon fill="white" stroke="#bfbfbf" points="312,-336.5 312,-355.5 428,-355.5 428,-336.5 312,-336.5"/>
<text text-anchor="middle" x="370" y="-343.5" font-family="Helvetica,sans-Serif" font-size="10.00">SDL2/SDL_joystick.h</text>
</a>
</g>
</g>
<!-- Node15&#45;&gt;Node43 -->
<g id="edge50" class="edge">
<title>Node15&#45;&gt;Node43</title>
<path fill="none" stroke="midnightblue" d="M405.9,-392.08C399.76,-384.38 390.73,-373.03 383.26,-363.65"/>
<polygon fill="midnightblue" stroke="midnightblue" points="385.94,-361.39 376.97,-355.75 380.46,-365.75 385.94,-361.39"/>
</g>
<!-- Node16&#45;&gt;Node17 -->
<g id="edge16" class="edge">
<title>Node16&#45;&gt;Node17</title>
<path fill="none" stroke="midnightblue" d="M558.6,-336.08C565.23,-328.3 575.02,-316.8 583.06,-307.37"/>
<polygon fill="midnightblue" stroke="midnightblue" points="585.73,-309.63 589.55,-299.75 580.4,-305.09 585.73,-309.63"/>
</g>
<!-- Node19 -->
<g id="node19" class="node">
<title>Node19</title>
<g id="a_node19"><a xlink:title=" ">
<polygon fill="white" stroke="#bfbfbf" points="390.5,-224.5 390.5,-243.5 461.5,-243.5 461.5,-224.5 390.5,-224.5"/>
<text text-anchor="middle" x="426" y="-231.5" font-family="Helvetica,sans-Serif" font-size="10.00">QMetaType</text>
</a>
</g>
</g>
<!-- Node18&#45;&gt;Node19 -->
<g id="edge18" class="edge">
<title>Node18&#45;&gt;Node19</title>
<path fill="none" stroke="midnightblue" d="M306.5,-280.44C330.08,-271.48 367.32,-257.31 393.96,-247.18"/>
<polygon fill="midnightblue" stroke="midnightblue" points="395.5,-250.34 403.6,-243.52 393.01,-243.8 395.5,-250.34"/>
</g>
<!-- Node20&#45;&gt;Node19 -->
<g id="edge20" class="edge">
<title>Node20&#45;&gt;Node19</title>
<path fill="none" stroke="midnightblue" d="M438.52,-280.08C436.51,-272.85 433.61,-262.41 431.11,-253.4"/>
<polygon fill="midnightblue" stroke="midnightblue" points="434.48,-252.45 428.43,-243.75 427.74,-254.32 434.48,-252.45"/>
</g>
<!-- Node21 -->
<g id="node21" class="node">
<title>Node21</title>
<g id="a_node21"><a xlink:title=" ">
<polygon fill="white" stroke="#bfbfbf" points="480,-224.5 480,-243.5 552,-243.5 552,-224.5 480,-224.5"/>
<text text-anchor="middle" x="516" y="-231.5" font-family="Helvetica,sans-Serif" font-size="10.00">SDL2/SDL.h</text>
</a>
</g>
</g>
<!-- Node20&#45;&gt;Node21 -->
<g id="edge21" class="edge">
<title>Node20&#45;&gt;Node21</title>
<path fill="none" stroke="midnightblue" d="M453.05,-280.32C464.46,-272.11 481.83,-259.6 495.43,-249.81"/>
<polygon fill="midnightblue" stroke="midnightblue" points="497.66,-252.52 503.73,-243.83 493.57,-246.84 497.66,-252.52"/>
</g>
<!-- Node22&#45;&gt;Node18 -->
<g id="edge46" class="edge">
<title>Node22&#45;&gt;Node18</title>
<path fill="none" stroke="midnightblue" d="M226.93,-336.32C237.17,-328.18 252.72,-315.84 265,-306.09"/>
<polygon fill="midnightblue" stroke="midnightblue" points="267.22,-308.79 272.88,-299.83 262.87,-303.31 267.22,-308.79"/>
</g>
<!-- Node22&#45;&gt;Node20 -->
<g id="edge47" class="edge">
<title>Node22&#45;&gt;Node20</title>
<path fill="none" stroke="midnightblue" d="M251.65,-336.44C290.66,-327.08 353.27,-312.06 395.72,-301.87"/>
<polygon fill="midnightblue" stroke="midnightblue" points="396.61,-305.25 405.51,-299.52 394.97,-298.45 396.61,-305.25"/>
</g>
<!-- Node23 -->
<g id="node23" class="node">
<title>Node23</title>
<g id="a_node23"><a xlink:href="joyaxis_8h.html" target="_top" xlink:title=" ">
<polygon fill="white" stroke="black" points="145.5,-280.5 145.5,-299.5 206.5,-299.5 206.5,-280.5 145.5,-280.5"/>
<text text-anchor="middle" x="176" y="-287.5" font-family="Helvetica,sans-Serif" font-size="10.00">joyaxis.h</text>
</a>
</g>
</g>
<!-- Node22&#45;&gt;Node23 -->
<g id="edge23" class="edge">
<title>Node22&#45;&gt;Node23</title>
<path fill="none" stroke="midnightblue" d="M209.39,-336.08C203.74,-328.46 195.46,-317.26 188.55,-307.94"/>
<polygon fill="midnightblue" stroke="midnightblue" points="191.25,-305.7 182.48,-299.75 185.62,-309.87 191.25,-305.7"/>
</g>
<!-- Node42 -->
<g id="node39" class="node">
<title>Node42</title>
<g id="a_node39"><a xlink:href="setjoystickxml_8h.html" target="_top" xlink:title=" ">
<polygon fill="white" stroke="black" points="28.5,-168.5 28.5,-187.5 147.5,-187.5 147.5,-168.5 28.5,-168.5"/>
<text text-anchor="middle" x="88" y="-175.5" font-family="Helvetica,sans-Serif" font-size="10.00">xml/setjoystickxml.h</text>
</a>
</g>
</g>
<!-- Node22&#45;&gt;Node42 -->
<g id="edge48" class="edge">
<title>Node22&#45;&gt;Node42</title>
<path fill="none" stroke="midnightblue" d="M191.76,-336.47C174.2,-329.19 150.99,-317.16 136,-300 109.58,-269.76 96.71,-223.2 91.31,-197.54"/>
<polygon fill="midnightblue" stroke="midnightblue" points="94.73,-196.8 89.38,-187.65 87.86,-198.14 94.73,-196.8"/>
</g>
<!-- Node23&#45;&gt;Node10 -->
<g id="edge25" class="edge">
<title>Node23&#45;&gt;Node10</title>
<path fill="none" stroke="midnightblue" d="M176,-280.44C176,-261.94 176,-216.81 176,-179 176,-179 176,-179 176,-121 176,-90.9 173.68,-77.24 195,-56 226.12,-24.99 277.18,-15.06 312.36,-12.03"/>
<polygon fill="midnightblue" stroke="midnightblue" points="313,-15.5 322.73,-11.3 312.51,-8.52 313,-15.5"/>
</g>
<!-- Node24 -->
<g id="node24" class="node">
<title>Node24</title>
<g id="a_node24"><a xlink:title=" ">
<polygon fill="white" stroke="#bfbfbf" points="160.5,-0.5 160.5,-19.5 201.5,-19.5 201.5,-0.5 160.5,-0.5"/>
<text text-anchor="middle" x="181" y="-7.5" font-family="Helvetica,sans-Serif" font-size="10.00">QList</text>
</a>
</g>
</g>
<!-- Node23&#45;&gt;Node24 -->
<g id="edge24" class="edge">
<title>Node23&#45;&gt;Node24</title>
<path fill="none" stroke="midnightblue" d="M145.34,-284.18C94.92,-274.31 0,-246.74 0,-179 0,-179 0,-179 0,-121 0,-51.51 98.64,-24.67 150.28,-15.38"/>
<polygon fill="midnightblue" stroke="midnightblue" points="150.96,-18.82 160.24,-13.7 149.79,-11.91 150.96,-18.82"/>
</g>
<!-- Node25 -->
<g id="node25" class="node">
<title>Node25</title>
<g id="a_node25"><a xlink:href="joyaxisbutton_8h.html" target="_top" xlink:title=" ">
<polygon fill="white" stroke="black" points="203.5,-224.5 203.5,-243.5 372.5,-243.5 372.5,-224.5 203.5,-224.5"/>
<text text-anchor="middle" x="288" y="-231.5" font-family="Helvetica,sans-Serif" font-size="10.00">joybuttontypes/joyaxisbutton.h</text>
</a>
</g>
</g>
<!-- Node23&#45;&gt;Node25 -->
<g id="edge26" class="edge">
<title>Node23&#45;&gt;Node25</title>
<path fill="none" stroke="midnightblue" d="M193.99,-280.32C212.04,-271.62 240.05,-258.12 260.8,-248.11"/>
<polygon fill="midnightblue" stroke="midnightblue" points="262.56,-251.15 270.05,-243.65 259.52,-244.84 262.56,-251.15"/>
</g>
<!-- Node26 -->
<g id="node26" class="node">
<title>Node26</title>
<g id="a_node26"><a xlink:href="joygradientbutton_8h.html" target="_top" xlink:title=" ">
<polygon fill="white" stroke="black" points="836.5,-168.5 836.5,-187.5 1025.5,-187.5 1025.5,-168.5 836.5,-168.5"/>
<text text-anchor="middle" x="931" y="-175.5" font-family="Helvetica,sans-Serif" font-size="10.00">joybuttontypes/joygradientbutton.h</text>
</a>
</g>
</g>
<!-- Node25&#45;&gt;Node26 -->
<g id="edge27" class="edge">
<title>Node25&#45;&gt;Node26</title>
<path fill="none" stroke="midnightblue" d="M372.64,-224.76C375.46,-224.5 378.25,-224.25 381,-224 535.77,-210.18 715.19,-195.81 825.9,-187.13"/>
<polygon fill="midnightblue" stroke="midnightblue" points="826.37,-190.61 836.07,-186.34 825.83,-183.63 826.37,-190.61"/>
</g>
<!-- Node37 -->
<g id="node37" class="node">
<title>Node37</title>
<g id="a_node37"><a xlink:href="logger_8h.html" target="_top" xlink:title=" ">
<polygon fill="white" stroke="red" points="249,-112.5 249,-131.5 305,-131.5 305,-112.5 249,-112.5"/>
<text text-anchor="middle" x="277" y="-119.5" font-family="Helvetica,sans-Serif" font-size="10.00">logger.h</text>
</a>
</g>
</g>
<!-- Node25&#45;&gt;Node37 -->
<g id="edge42" class="edge">
<title>Node25&#45;&gt;Node37</title>
<path fill="none" stroke="midnightblue" d="M287.14,-224.37C285.36,-206.62 281.27,-165.67 278.86,-141.6"/>
<polygon fill="midnightblue" stroke="midnightblue" points="282.34,-141.19 277.86,-131.59 275.37,-141.89 282.34,-141.19"/>
</g>
<!-- Node27 -->
<g id="node27" class="node">
<title>Node27</title>
<g id="a_node27"><a xlink:href="joybutton_8h.html" target="_top" xlink:title=" ">
<polygon fill="white" stroke="black" points="910,-112.5 910,-131.5 982,-131.5 982,-112.5 910,-112.5"/>
<text text-anchor="middle" x="946" y="-119.5" font-family="Helvetica,sans-Serif" font-size="10.00">joybutton.h</text>
</a>
</g>
</g>
<!-- Node26&#45;&gt;Node27 -->
<g id="edge28" class="edge">
<title>Node26&#45;&gt;Node27</title>
<path fill="none" stroke="midnightblue" d="M933.48,-168.08C935.49,-160.85 938.39,-150.41 940.89,-141.4"/>
<polygon fill="midnightblue" stroke="midnightblue" points="944.26,-142.32 943.57,-131.75 937.52,-140.45 944.26,-142.32"/>
</g>
<!-- Node27&#45;&gt;Node8 -->
<g id="edge34" class="edge">
<title>Node27&#45;&gt;Node8</title>
<path fill="none" stroke="midnightblue" d="M909.91,-113.21C866.61,-103.85 793.8,-88.12 745.33,-77.65"/>
<polygon fill="midnightblue" stroke="midnightblue" points="745.89,-74.19 735.37,-75.5 744.41,-81.04 745.89,-74.19"/>
</g>
<!-- Node28 -->
<g id="node28" class="node">
<title>Node28</title>
<g id="a_node28"><a xlink:href="globalvariables_8h.html" target="_top" xlink:title=" ">
<polygon fill="white" stroke="black" points="378.5,-56.5 378.5,-75.5 479.5,-75.5 479.5,-56.5 378.5,-56.5"/>
<text text-anchor="middle" x="429" y="-63.5" font-family="Helvetica,sans-Serif" font-size="10.00">globalvariables.h</text>
</a>
</g>
</g>
<!-- Node27&#45;&gt;Node28 -->
<g id="edge29" class="edge">
<title>Node27&#45;&gt;Node28</title>
<path fill="none" stroke="midnightblue" d="M909.71,-118.1C833.74,-111.88 652.22,-96.28 489.69,-76.16"/>
<polygon fill="midnightblue" stroke="midnightblue" points="489.86,-72.65 479.51,-74.89 489,-79.6 489.86,-72.65"/>
</g>
<!-- Node29 -->
<g id="node29" class="node">
<title>Node29</title>
<g id="a_node29"><a xlink:href="joybuttonmousehelper_8h.html" target="_top" xlink:title=" ">
<polygon fill="white" stroke="black" points="497.5,-56.5 497.5,-75.5 632.5,-75.5 632.5,-56.5 497.5,-56.5"/>
<text text-anchor="middle" x="565" y="-63.5" font-family="Helvetica,sans-Serif" font-size="10.00">joybuttonmousehelper.h</text>
</a>
</g>
</g>
<!-- Node27&#45;&gt;Node29 -->
<g id="edge32" class="edge">
<title>Node27&#45;&gt;Node29</title>
<path fill="none" stroke="midnightblue" d="M909.81,-115.87C846.93,-106.96 716.47,-88.47 635.27,-76.96"/>
<polygon fill="midnightblue" stroke="midnightblue" points="635.53,-73.46 625.14,-75.52 634.55,-80.39 635.53,-73.46"/>
</g>
<!-- Node30 -->
<g id="node30" class="node">
<title>Node30</title>
<g id="a_node30"><a xlink:href="springmousemoveinfo_8h.html" target="_top" xlink:title=" ">
<polygon fill="white" stroke="black" points="759.5,-56.5 759.5,-75.5 894.5,-75.5 894.5,-56.5 759.5,-56.5"/>
<text text-anchor="middle" x="827" y="-63.5" font-family="Helvetica,sans-Serif" font-size="10.00">springmousemoveinfo.h</text>
</a>
</g>
</g>
<!-- Node27&#45;&gt;Node30 -->
<g id="edge35" class="edge">
<title>Node27&#45;&gt;Node30</title>
<path fill="none" stroke="midnightblue" d="M927.14,-112.44C907.73,-103.64 877.27,-89.81 855.04,-79.72"/>
<polygon fill="midnightblue" stroke="midnightblue" points="856.32,-76.46 845.77,-75.52 853.43,-82.84 856.32,-76.46"/>
</g>
<!-- Node31 -->
<g id="node31" class="node">
<title>Node31</title>
<g id="a_node31"><a xlink:title=" ">
<polygon fill="white" stroke="#bfbfbf" points="913,-56.5 913,-75.5 1009,-75.5 1009,-56.5 913,-56.5"/>
<text text-anchor="middle" x="961" y="-63.5" font-family="Helvetica,sans-Serif" font-size="10.00">QDeadlineTimer</text>
</a>
</g>
</g>
<!-- Node27&#45;&gt;Node31 -->
<g id="edge36" class="edge">
<title>Node27&#45;&gt;Node31</title>
<path fill="none" stroke="midnightblue" d="M948.48,-112.08C950.49,-104.85 953.39,-94.41 955.89,-85.4"/>
<polygon fill="midnightblue" stroke="midnightblue" points="959.26,-86.32 958.57,-75.75 952.52,-84.45 959.26,-86.32"/>
</g>
<!-- Node32 -->
<g id="node32" class="node">
<title>Node32</title>
<g id="a_node32"><a xlink:title=" ">
<polygon fill="white" stroke="#bfbfbf" points="1027,-56.5 1027,-75.5 1083,-75.5 1083,-56.5 1027,-56.5"/>
<text text-anchor="middle" x="1055" y="-63.5" font-family="Helvetica,sans-Serif" font-size="10.00">QQueue</text>
</a>
</g>
</g>
<!-- Node27&#45;&gt;Node32 -->
<g id="edge37" class="edge">
<title>Node27&#45;&gt;Node32</title>
<path fill="none" stroke="midnightblue" d="M963.51,-112.32C981.07,-103.62 1008.33,-90.12 1028.53,-80.11"/>
<polygon fill="midnightblue" stroke="midnightblue" points="1030.12,-83.23 1037.53,-75.65 1027.02,-76.96 1030.12,-83.23"/>
</g>
<!-- Node33 -->
<g id="node33" class="node">
<title>Node33</title>
<g id="a_node33"><a xlink:title=" ">
<polygon fill="white" stroke="#bfbfbf" points="1101,-56.5 1101,-75.5 1199,-75.5 1199,-56.5 1101,-56.5"/>
<text text-anchor="middle" x="1150" y="-63.5" font-family="Helvetica,sans-Serif" font-size="10.00">QReadWriteLock</text>
</a>
</g>
</g>
<!-- Node27&#45;&gt;Node33 -->
<g id="edge38" class="edge">
<title>Node27&#45;&gt;Node33</title>
<path fill="none" stroke="midnightblue" d="M978.32,-112.44C1013.39,-103.16 1069.5,-88.31 1107.96,-78.13"/>
<polygon fill="midnightblue" stroke="midnightblue" points="1109.06,-81.46 1117.83,-75.52 1107.26,-74.69 1109.06,-81.46"/>
</g>
<!-- Node34 -->
<g id="node34" class="node">
<title>Node34</title>
<g id="a_node34"><a xlink:title=" ">
<polygon fill="white" stroke="#bfbfbf" points="1217,-56.5 1217,-75.5 1287,-75.5 1287,-56.5 1217,-56.5"/>
<text text-anchor="middle" x="1252" y="-63.5" font-family="Helvetica,sans-Serif" font-size="10.00">QRunnable</text>
</a>
</g>
</g>
<!-- Node27&#45;&gt;Node34 -->
<g id="edge39" class="edge">
<title>Node27&#45;&gt;Node34</title>
<path fill="none" stroke="midnightblue" d="M982.09,-115.17C1030.79,-107.23 1120.52,-92.3 1206.98,-76.15"/>
<polygon fill="midnightblue" stroke="midnightblue" points="1207.77,-79.56 1216.96,-74.27 1206.48,-72.68 1207.77,-79.56"/>
</g>
<!-- Node35 -->
<g id="node35" class="node">
<title>Node35</title>
<g id="a_node35"><a xlink:title=" ">
<polygon fill="white" stroke="#bfbfbf" points="302,-56.5 302,-75.5 360,-75.5 360,-56.5 302,-56.5"/>
<text text-anchor="middle" x="331" y="-63.5" font-family="Helvetica,sans-Serif" font-size="10.00">QThread</text>
</a>
</g>
</g>
<!-- Node27&#45;&gt;Node35 -->
<g id="edge40" class="edge">
<title>Node27&#45;&gt;Node35</title>
<path fill="none" stroke="midnightblue" d="M909.99,-120.13C820.3,-117.54 579.68,-108.06 370.32,-75.98"/>
<polygon fill="midnightblue" stroke="midnightblue" points="370.79,-72.51 360.37,-74.43 369.71,-79.42 370.79,-72.51"/>
</g>
<!-- Node36 -->
<g id="node36" class="node">
<title>Node36</title>
<g id="a_node36"><a xlink:title=" ">
<polygon fill="white" stroke="#bfbfbf" points="1305.5,-56.5 1305.5,-75.5 1358.5,-75.5 1358.5,-56.5 1305.5,-56.5"/>
<text text-anchor="middle" x="1332" y="-63.5" font-family="Helvetica,sans-Serif" font-size="10.00">QTimer</text>
</a>
</g>
</g>
<!-- Node27&#45;&gt;Node36 -->
<g id="edge41" class="edge">
<title>Node27&#45;&gt;Node36</title>
<path fill="none" stroke="midnightblue" d="M982.24,-117.75C1044.29,-111.89 1174.97,-98.21 1295.22,-75.93"/>
<polygon fill="midnightblue" stroke="midnightblue" points="1296.16,-79.32 1305.34,-74.03 1294.87,-72.44 1296.16,-79.32"/>
</g>
<!-- Node28&#45;&gt;Node10 -->
<g id="edge31" class="edge">
<title>Node28&#45;&gt;Node10</title>
<path fill="none" stroke="midnightblue" d="M416.47,-56.32C404.41,-47.98 385.97,-35.21 371.73,-25.35"/>
<polygon fill="midnightblue" stroke="midnightblue" points="373.72,-22.47 363.5,-19.65 369.73,-28.22 373.72,-22.47"/>
</g>
<!-- Node28&#45;&gt;Node24 -->
<g id="edge30" class="edge">
<title>Node28&#45;&gt;Node24</title>
<path fill="none" stroke="midnightblue" d="M389.7,-56.44C340.26,-45.68 256.41,-27.42 211.52,-17.65"/>
<polygon fill="midnightblue" stroke="midnightblue" points="212.03,-14.17 201.51,-15.47 210.54,-21.01 212.03,-14.17"/>
</g>
<!-- Node29&#45;&gt;Node10 -->
<g id="edge33" class="edge">
<title>Node29&#45;&gt;Node10</title>
<path fill="none" stroke="midnightblue" d="M531.09,-56.44C492.41,-46.68 429.33,-30.76 389.01,-20.59"/>
<polygon fill="midnightblue" stroke="midnightblue" points="389.84,-17.19 379.28,-18.14 388.12,-23.98 389.84,-17.19"/>
</g>
<!-- Node37&#45;&gt;Node10 -->
<g id="edge44" class="edge">
<title>Node37&#45;&gt;Node10</title>
<path fill="none" stroke="midnightblue" d="M277.35,-112.29C278.25,-99.11 281.48,-73.74 293,-56 301.3,-43.23 314.49,-32.57 326.2,-24.84"/>
<polygon fill="midnightblue" stroke="midnightblue" points="328.12,-27.77 334.76,-19.51 324.42,-21.82 328.12,-27.77"/>
</g>
<!-- Node37&#45;&gt;Node35 -->
<g id="edge45" class="edge">
<title>Node37&#45;&gt;Node35</title>
<path fill="none" stroke="midnightblue" d="M285.92,-112.08C293.78,-104.22 305.43,-92.57 314.92,-83.08"/>
<polygon fill="midnightblue" stroke="midnightblue" points="317.65,-85.3 322.25,-75.75 312.7,-80.35 317.65,-85.3"/>
</g>
<!-- Node38 -->
<g id="node38" class="node">
<title>Node38</title>
<g id="a_node38"><a xlink:title=" ">
<polygon fill="white" stroke="#bfbfbf" points="204.5,-56.5 204.5,-75.5 245.5,-75.5 245.5,-56.5 204.5,-56.5"/>
<text text-anchor="middle" x="225" y="-63.5" font-family="Helvetica,sans-Serif" font-size="10.00">QFile</text>
</a>
</g>
</g>
<!-- Node37&#45;&gt;Node38 -->
<g id="edge43" class="edge">
<title>Node37&#45;&gt;Node38</title>
<path fill="none" stroke="midnightblue" d="M268.41,-112.08C260.84,-104.22 249.62,-92.57 240.49,-83.08"/>
<polygon fill="midnightblue" stroke="midnightblue" points="242.88,-80.53 233.43,-75.75 237.84,-85.38 242.88,-80.53"/>
</g>
<!-- Node42&#45;&gt;Node10 -->
<g id="edge49" class="edge">
<title>Node42&#45;&gt;Node10</title>
<path fill="none" stroke="midnightblue" d="M90.67,-168.37C98.05,-145.99 120.95,-85.8 162,-56 206.82,-23.47 271.91,-14.15 312.82,-11.66"/>
<polygon fill="midnightblue" stroke="midnightblue" points="313.11,-15.15 322.92,-11.15 312.76,-8.16 313.11,-15.15"/>
</g>
<!-- Node44&#45;&gt;Node3 -->
<g id="edge53" class="edge">
<title>Node44&#45;&gt;Node3</title>
<path fill="none" stroke="midnightblue" d="M965.7,-280.44C1003.58,-271.1 1064.35,-256.12 1105.66,-245.93"/>
<polygon fill="midnightblue" stroke="midnightblue" points="1106.59,-249.31 1115.46,-243.52 1104.91,-242.51 1106.59,-249.31"/>
</g>
<!-- Node44&#45;&gt;Node26 -->
<g id="edge52" class="edge">
<title>Node44&#45;&gt;Node26</title>
<path fill="none" stroke="midnightblue" d="M931,-280.37C931,-262.62 931,-221.67 931,-197.6"/>
<polygon fill="midnightblue" stroke="midnightblue" points="934.5,-197.59 931,-187.59 927.5,-197.59 934.5,-197.59"/>
</g>
<!-- Node45&#45;&gt;Node3 -->
<g id="edge56" class="edge">
<title>Node45&#45;&gt;Node3</title>
<path fill="none" stroke="midnightblue" d="M1243.17,-280.32C1225.28,-271.62 1197.52,-258.12 1176.95,-248.11"/>
<polygon fill="midnightblue" stroke="midnightblue" points="1178.31,-244.88 1167.79,-243.65 1175.25,-251.18 1178.31,-244.88"/>
</g>
<!-- Node45&#45;&gt;Node11 -->
<g id="edge57" class="edge">
<title>Node45&#45;&gt;Node11</title>
<path fill="none" stroke="midnightblue" d="M1285.29,-280.47C1321.91,-265.88 1387,-232.43 1387,-179 1387,-179 1387,-179 1387,-121 1387,-90.77 1388.95,-76.78 1367,-56 1346.89,-36.96 1272.84,-23.27 1225.91,-16.29"/>
<polygon fill="midnightblue" stroke="midnightblue" points="1226.16,-12.79 1215.76,-14.82 1225.16,-19.71 1226.16,-12.79"/>
</g>
<!-- Node45&#45;&gt;Node27 -->
<g id="edge55" class="edge">
<title>Node45&#45;&gt;Node27</title>
<path fill="none" stroke="midnightblue" d="M1260.89,-280.18C1260.23,-266.37 1256.95,-239.63 1242,-224 1174.98,-153.94 1057.45,-132.47 992.47,-125.9"/>
<polygon fill="midnightblue" stroke="midnightblue" points="992.41,-122.38 982.13,-124.94 991.76,-129.35 992.41,-122.38"/>
</g>
<!-- Node47 -->
<g id="node44" class="node">
<title>Node47</title>
<g id="a_node44"><a xlink:href="flashbuttonwidget_8h.html" target="_top" xlink:title=" ">
<polygon fill="white" stroke="black" points="1385.5,-336.5 1385.5,-355.5 1498.5,-355.5 1498.5,-336.5 1385.5,-336.5"/>
<text text-anchor="middle" x="1442" y="-343.5" font-family="Helvetica,sans-Serif" font-size="10.00">flashbuttonwidget.h</text>
</a>
</g>
</g>
<!-- Node46&#45;&gt;Node47 -->
<g id="edge59" class="edge">
<title>Node46&#45;&gt;Node47</title>
<path fill="none" stroke="midnightblue" d="M1348.83,-392.32C1366.72,-383.62 1394.48,-370.12 1415.05,-360.11"/>
<polygon fill="midnightblue" stroke="midnightblue" points="1416.75,-363.18 1424.21,-355.65 1413.69,-356.88 1416.75,-363.18"/>
</g>
<!-- Node48 -->
<g id="node45" class="node">
<title>Node48</title>
<g id="a_node45"><a xlink:title=" ">
<polygon fill="white" stroke="#bfbfbf" points="1402,-280.5 1402,-299.5 1482,-299.5 1482,-280.5 1402,-280.5"/>
<text text-anchor="middle" x="1442" y="-287.5" font-family="Helvetica,sans-Serif" font-size="10.00">QPushButton</text>
</a>
</g>
</g>
<!-- Node47&#45;&gt;Node48 -->
<g id="edge60" class="edge">
<title>Node47&#45;&gt;Node48</title>
<path fill="none" stroke="midnightblue" d="M1442,-336.08C1442,-329.01 1442,-318.86 1442,-309.99"/>
<polygon fill="midnightblue" stroke="midnightblue" points="1445.5,-309.75 1442,-299.75 1438.5,-309.75 1445.5,-309.75"/>
</g>
<!-- Node49&#45;&gt;Node6 -->
<g id="edge64" class="edge">
<title>Node49&#45;&gt;Node6</title>
<path fill="none" stroke="midnightblue" d="M916.94,-392.44C882.51,-382.96 826.95,-367.65 789.96,-357.46"/>
<polygon fill="midnightblue" stroke="midnightblue" points="790.62,-354.01 780.05,-354.73 788.76,-360.76 790.62,-354.01"/>
</g>
<!-- Node50 -->
<g id="node47" class="node">
<title>Node50</title>
<g id="a_node47"><a xlink:href="joycontrolstickeditdialoghelper_8h.html" target="_top" xlink:title=" ">
<polygon fill="white" stroke="black" points="836,-336.5 836,-355.5 1060,-355.5 1060,-336.5 836,-336.5"/>
<text text-anchor="middle" x="948" y="-343.5" font-family="Helvetica,sans-Serif" font-size="10.00">uihelpers/joycontrolstickeditdialoghelper.h</text>
</a>
</g>
</g>
<!-- Node49&#45;&gt;Node50 -->
<g id="edge62" class="edge">
<title>Node49&#45;&gt;Node50</title>
<path fill="none" stroke="midnightblue" d="M948,-392.08C948,-385.01 948,-374.86 948,-365.99"/>
<polygon fill="midnightblue" stroke="midnightblue" points="951.5,-365.75 948,-355.75 944.5,-365.75 951.5,-365.75"/>
</g>
<!-- Node50&#45;&gt;Node45 -->
<g id="edge63" class="edge">
<title>Node50&#45;&gt;Node45</title>
<path fill="none" stroke="midnightblue" d="M997.6,-336.44C1053.08,-326.87 1142.91,-311.37 1201.97,-301.18"/>
<polygon fill="midnightblue" stroke="midnightblue" points="1202.63,-304.62 1211.89,-299.47 1201.44,-297.72 1202.63,-304.62"/>
</g>
<!-- Node51&#45;&gt;Node47 -->
<g id="edge66" class="edge">
<title>Node51&#45;&gt;Node47</title>
<path fill="none" stroke="midnightblue" d="M1504.95,-392.32C1493.54,-384.11 1476.17,-371.6 1462.57,-361.81"/>
<polygon fill="midnightblue" stroke="midnightblue" points="1464.43,-358.84 1454.27,-355.83 1460.34,-364.52 1464.43,-358.84"/>
</g>
</g>
</svg>
