<?xml version="1.0" encoding="UTF-8" standalone="no"?>
<!DOCTYPE svg PUBLIC "-//W3C//DTD SVG 1.1//EN"
 "http://www.w3.org/Graphics/SVG/1.1/DTD/svg11.dtd">
<!-- Generated by graphviz version 2.43.0 (0)
 -->
<!-- Title: EffectClickPs5::build Pages: 1 -->
<svg width="742pt" height="88pt"
 viewBox="0.00 0.00 742.00 88.00" xmlns="http://www.w3.org/2000/svg" xmlns:xlink="http://www.w3.org/1999/xlink">
<g id="graph0" class="graph" transform="scale(1 1) rotate(0) translate(4 84)">
<title>EffectClickPs5::build</title>
<polygon fill="white" stroke="transparent" points="-4,4 -4,-84 738,-84 738,4 -4,4"/>
<!-- Node1 -->
<g id="node1" class="node">
<title>Node1</title>
<g id="a_node1"><a xlink:title="Builds a click effect message.">
<polygon fill="#bfbfbf" stroke="black" points="618,-30 618,-49 734,-49 734,-30 618,-30"/>
<text text-anchor="middle" x="676" y="-37" font-family="Helvetica,sans-Serif" font-size="10.00">EffectClickPs5::build</text>
</a>
</g>
</g>
<!-- Node2 -->
<g id="node2" class="node">
<title>Node2</title>
<g id="a_node2"><a xlink:href="classHapticTriggerPs5.html#ae9d99ac144c366bf9033957c27b22ef6" target="_top" xlink:title="Low level function to write one HapticTriggerPs5 effect into a PS5 controller message.">
<polygon fill="white" stroke="black" points="468,-24.5 468,-54.5 582,-54.5 582,-24.5 468,-24.5"/>
<text text-anchor="start" x="476" y="-42.5" font-family="Helvetica,sans-Serif" font-size="10.00">HapticTriggerPs5::to</text>
<text text-anchor="middle" x="525" y="-31.5" font-family="Helvetica,sans-Serif" font-size="10.00">_message</text>
</a>
</g>
</g>
<!-- Node1&#45;&gt;Node2 -->
<g id="edge1" class="edge">
<title>Node1&#45;&gt;Node2</title>
<path fill="none" stroke="midnightblue" d="M607.59,-39.5C599.13,-39.5 590.55,-39.5 582.29,-39.5"/>
<polygon fill="midnightblue" stroke="midnightblue" points="607.82,-43 617.82,-39.5 607.82,-36 607.82,-43"/>
</g>
<!-- Node3 -->
<g id="node3" class="node">
<title>Node3</title>
<g id="a_node3"><a xlink:href="classHapticTriggerPs5.html#a6a1bb343df20b307c827349e93297735" target="_top" xlink:title="Creates an low level message from two HapticTriggerPs5 objects and send them to the controller.">
<polygon fill="white" stroke="black" points="304,-30 304,-49 432,-49 432,-30 304,-30"/>
<text text-anchor="middle" x="368" y="-37" font-family="Helvetica,sans-Serif" font-size="10.00">HapticTriggerPs5::send</text>
</a>
</g>
</g>
<!-- Node2&#45;&gt;Node3 -->
<g id="edge2" class="edge">
<title>Node2&#45;&gt;Node3</title>
<path fill="none" stroke="midnightblue" d="M457.48,-39.5C449.08,-39.5 440.51,-39.5 432.17,-39.5"/>
<polygon fill="midnightblue" stroke="midnightblue" points="457.6,-43 467.6,-39.5 457.6,-36 457.6,-43"/>
</g>
<!-- Node4 -->
<g id="node4" class="node">
<title>Node4</title>
<g id="a_node4"><a xlink:href="classGameControllerSet.html#addf5de4dec4e1b8f94f6b6f63a94f793" target="_top" xlink:title="Applies haptic feedback to the triggers of the controller.">
<polygon fill="white" stroke="black" points="152,-24.5 152,-54.5 268,-54.5 268,-24.5 152,-24.5"/>
<text text-anchor="start" x="160" y="-42.5" font-family="Helvetica,sans-Serif" font-size="10.00">GameControllerSet::</text>
<text text-anchor="middle" x="210" y="-31.5" font-family="Helvetica,sans-Serif" font-size="10.00">applyHapticTrigger</text>
</a>
</g>
</g>
<!-- Node3&#45;&gt;Node4 -->
<g id="edge3" class="edge">
<title>Node3&#45;&gt;Node4</title>
<path fill="none" stroke="midnightblue" d="M293.92,-39.5C285.28,-39.5 276.57,-39.5 268.19,-39.5"/>
<polygon fill="midnightblue" stroke="midnightblue" points="294,-43 304,-39.5 294,-36 294,-43"/>
</g>
<!-- Node5 -->
<g id="node5" class="node">
<title>Node5</title>
<g id="a_node5"><a xlink:href="classGameControllerSet.html#a9d686fa2df459f7d157d60e05707f712" target="_top" xlink:title=" ">
<polygon fill="white" stroke="black" points="0,-49.5 0,-79.5 116,-79.5 116,-49.5 0,-49.5"/>
<text text-anchor="start" x="8" y="-67.5" font-family="Helvetica,sans-Serif" font-size="10.00">GameControllerSet::</text>
<text text-anchor="middle" x="58" y="-56.5" font-family="Helvetica,sans-Serif" font-size="10.00">GameControllerSet</text>
</a>
</g>
</g>
<!-- Node4&#45;&gt;Node5 -->
<g id="edge4" class="edge">
<title>Node4&#45;&gt;Node5</title>
<path fill="none" stroke="midnightblue" d="M141.97,-50.67C133.46,-52.09 124.81,-53.53 116.47,-54.92"/>
<polygon fill="midnightblue" stroke="midnightblue" points="142.58,-54.12 151.86,-49.02 141.42,-47.21 142.58,-54.12"/>
</g>
<!-- Node6 -->
<g id="node6" class="node">
<title>Node6</title>
<g id="a_node6"><a xlink:href="classGameControllerSet.html#abd666978fe84da99c8338e8020051510" target="_top" xlink:title=" ">
<polygon fill="white" stroke="black" points="0,-0.5 0,-30.5 116,-30.5 116,-0.5 0,-0.5"/>
<text text-anchor="start" x="8" y="-18.5" font-family="Helvetica,sans-Serif" font-size="10.00">GameControllerSet::</text>
<text text-anchor="middle" x="58" y="-7.5" font-family="Helvetica,sans-Serif" font-size="10.00">refreshAxes</text>
</a>
</g>
</g>
<!-- Node4&#45;&gt;Node6 -->
<g id="edge5" class="edge">
<title>Node4&#45;&gt;Node6</title>
<path fill="none" stroke="midnightblue" d="M141.97,-28.77C133.46,-27.41 124.81,-26.03 116.47,-24.7"/>
<polygon fill="midnightblue" stroke="midnightblue" points="141.44,-32.23 151.86,-30.36 142.54,-25.32 141.44,-32.23"/>
</g>
</g>
</svg>
