<?xml version="1.0" encoding="UTF-8" standalone="no"?>
<!DOCTYPE svg PUBLIC "-//W3C//DTD SVG 1.1//EN"
 "http://www.w3.org/Graphics/SVG/1.1/DTD/svg11.dtd">
<!-- Generated by graphviz version 2.43.0 (0)
 -->
<!-- Title: /home/runner/work/doxygen/antimicrox/src/eventhandlers/uinputeventhandler.cpp Pages: 1 -->
<!--zoomable 330 -->
<svg id="main" version="1.1" xmlns="http://www.w3.org/2000/svg" xmlns:xlink="http://www.w3.org/1999/xlink" xml:space="preserve" onload="init(evt)">
<style type="text/css"><![CDATA[
.edge:hover path { stroke: red; }
.edge:hover polygon { stroke: red; fill: red; }
]]></style>
<script type="text/javascript"><![CDATA[
var edges = document.getElementsByTagName('g');
if (edges && edges.length) {
  for (var i=0;i<edges.length;i++) {
    if (edges[i].id.substr(0,4)=='edge') {
      edges[i].setAttribute('class','edge');
    }
  }
}
]]></script>
        <defs>
                <circle id="rim" cx="0" cy="0" r="7"/>
                <circle id="rim2" cx="0" cy="0" r="3.5"/>
                <g id="zoomPlus">
                        <use xlink:href="#rim" fill="#404040">
                                <set attributeName="fill" to="#808080" begin="zoomplus.mouseover" end="zoomplus.mouseout"/>
                        </use>
                        <path d="M-4,0h8M0,-4v8" fill="none" stroke="white" stroke-width="1.5" pointer-events="none"/>
                </g>
                <g id="zoomMin">
                        <use xlink:href="#rim" fill="#404040">
                                <set attributeName="fill" to="#808080" begin="zoomminus.mouseover" end="zoomminus.mouseout"/>
                        </use>
                        <path d="M-4,0h8" fill="none" stroke="white" stroke-width="1.5" pointer-events="none"/>
                </g>
                <g id="dirArrow">
                        <path fill="none" stroke="white" stroke-width="1.5" d="M0,-3.0v7 M-2.5,-0.5L0,-3.0L2.5,-0.5"/>
                </g>
               <g id="resetDef">
                       <use xlink:href="#rim2" fill="#404040">
                               <set attributeName="fill" to="#808080" begin="reset.mouseover" end="reset.mouseout"/>
                       </use>
               </g>
        </defs>

<script type="text/javascript">
var viewWidth = 2163;
var viewHeight = 330;
var sectionId = 'dynsection-0';
</script>
<script xlink:href="svgpan.js"/>
<svg id="graph" class="graph">
<g id="viewport">
<title>/home/runner/work/doxygen/antimicrox/src/eventhandlers/uinputeventhandler.cpp</title>
<polygon fill="white" stroke="transparent" points="-4,4 -4,-326 2159,-326 2159,4 -4,4"/>
<!-- Node1 -->
<g id="node1" class="node">
<title>Node1</title>
<g id="a_node1"><a xlink:title=" ">
<polygon fill="#bfbfbf" stroke="black" points="562.5,-280.5 562.5,-321.5 724.5,-321.5 724.5,-280.5 562.5,-280.5"/>
<text text-anchor="start" x="570.5" y="-309.5" font-family="Helvetica,sans-Serif" font-size="10.00">/home/runner/work/doxygen</text>
<text text-anchor="start" x="570.5" y="-298.5" font-family="Helvetica,sans-Serif" font-size="10.00">/antimicrox/src/eventhandlers</text>
<text text-anchor="middle" x="643.5" y="-287.5" font-family="Helvetica,sans-Serif" font-size="10.00">/uinputeventhandler.cpp</text>
</a>
</g>
</g>
<!-- Node2 -->
<g id="node2" class="node">
<title>Node2</title>
<g id="a_node2"><a xlink:title=" ">
<polygon fill="white" stroke="#bfbfbf" points="0,-224.5 0,-243.5 47,-243.5 47,-224.5 0,-224.5"/>
<text text-anchor="middle" x="23.5" y="-231.5" font-family="Helvetica,sans-Serif" font-size="10.00">cmath</text>
</a>
</g>
</g>
<!-- Node1&#45;&gt;Node2 -->
<g id="edge1" class="edge">
<title>Node1&#45;&gt;Node2</title>
<path fill="none" stroke="midnightblue" d="M562.5,-296.88C450.52,-291.54 242.17,-277.94 57.07,-244"/>
<polygon fill="midnightblue" stroke="midnightblue" points="57.62,-240.55 47.15,-242.16 56.35,-247.43 57.62,-240.55"/>
</g>
<!-- Node3 -->
<g id="node3" class="node">
<title>Node3</title>
<g id="a_node3"><a xlink:title=" ">
<polygon fill="white" stroke="#bfbfbf" points="65,-224.5 65,-243.5 112,-243.5 112,-224.5 65,-224.5"/>
<text text-anchor="middle" x="88.5" y="-231.5" font-family="Helvetica,sans-Serif" font-size="10.00">fcntl.h</text>
</a>
</g>
</g>
<!-- Node1&#45;&gt;Node3 -->
<g id="edge2" class="edge">
<title>Node1&#45;&gt;Node3</title>
<path fill="none" stroke="midnightblue" d="M562.24,-295.53C460.99,-289.01 282.68,-274.43 122.21,-244.06"/>
<polygon fill="midnightblue" stroke="midnightblue" points="122.64,-240.58 112.16,-242.13 121.32,-247.45 122.64,-240.58"/>
</g>
<!-- Node4 -->
<g id="node4" class="node">
<title>Node4</title>
<g id="a_node4"><a xlink:title=" ">
<polygon fill="white" stroke="#bfbfbf" points="130,-224.5 130,-243.5 207,-243.5 207,-224.5 130,-224.5"/>
<text text-anchor="middle" x="168.5" y="-231.5" font-family="Helvetica,sans-Serif" font-size="10.00">linux/input.h</text>
</a>
</g>
</g>
<!-- Node1&#45;&gt;Node4 -->
<g id="edge3" class="edge">
<title>Node1&#45;&gt;Node4</title>
<path fill="none" stroke="midnightblue" d="M562.44,-290.84C478.48,-281.02 343.27,-264.3 217.4,-244.24"/>
<polygon fill="midnightblue" stroke="midnightblue" points="217.62,-240.73 207.2,-242.6 216.52,-247.64 217.62,-240.73"/>
</g>
<!-- Node5 -->
<g id="node5" class="node">
<title>Node5</title>
<g id="a_node5"><a xlink:title=" ">
<polygon fill="white" stroke="#bfbfbf" points="225,-224.5 225,-243.5 308,-243.5 308,-224.5 225,-224.5"/>
<text text-anchor="middle" x="266.5" y="-231.5" font-family="Helvetica,sans-Serif" font-size="10.00">linux/uinput.h</text>
</a>
</g>
</g>
<!-- Node1&#45;&gt;Node5 -->
<g id="edge4" class="edge">
<title>Node1&#45;&gt;Node5</title>
<path fill="none" stroke="midnightblue" d="M562.43,-286.18C498.84,-275.31 407.81,-259.71 318.3,-244.13"/>
<polygon fill="midnightblue" stroke="midnightblue" points="318.7,-240.65 308.25,-242.38 317.5,-247.55 318.7,-240.65"/>
</g>
<!-- Node6 -->
<g id="node6" class="node">
<title>Node6</title>
<g id="a_node6"><a xlink:title=" ">
<polygon fill="white" stroke="#bfbfbf" points="326.5,-224.5 326.5,-243.5 382.5,-243.5 382.5,-224.5 326.5,-224.5"/>
<text text-anchor="middle" x="354.5" y="-231.5" font-family="Helvetica,sans-Serif" font-size="10.00">unistd.h</text>
</a>
</g>
</g>
<!-- Node1&#45;&gt;Node6 -->
<g id="edge5" class="edge">
<title>Node1&#45;&gt;Node6</title>
<path fill="none" stroke="midnightblue" d="M562.26,-282.38C515.35,-272.1 454.96,-258.7 392.76,-244.26"/>
<polygon fill="midnightblue" stroke="midnightblue" points="393.3,-240.79 382.77,-241.94 391.71,-247.61 393.3,-240.79"/>
</g>
<!-- Node7 -->
<g id="node7" class="node">
<title>Node7</title>
<g id="a_node7"><a xlink:title=" ">
<polygon fill="white" stroke="#bfbfbf" points="400.5,-224.5 400.5,-243.5 456.5,-243.5 456.5,-224.5 400.5,-224.5"/>
<text text-anchor="middle" x="428.5" y="-231.5" font-family="Helvetica,sans-Serif" font-size="10.00">QDebug</text>
</a>
</g>
</g>
<!-- Node1&#45;&gt;Node7 -->
<g id="edge6" class="edge">
<title>Node1&#45;&gt;Node7</title>
<path fill="none" stroke="midnightblue" d="M578.99,-280.5C542.16,-269.36 497.27,-255.79 466.15,-246.38"/>
<polygon fill="midnightblue" stroke="midnightblue" points="467.14,-243.03 456.56,-243.48 465.12,-249.73 467.14,-243.03"/>
</g>
<!-- Node8 -->
<g id="node8" class="node">
<title>Node8</title>
<g id="a_node8"><a xlink:title=" ">
<polygon fill="white" stroke="#bfbfbf" points="474.5,-224.5 474.5,-243.5 534.5,-243.5 534.5,-224.5 474.5,-224.5"/>
<text text-anchor="middle" x="504.5" y="-231.5" font-family="Helvetica,sans-Serif" font-size="10.00">QFileInfo</text>
</a>
</g>
</g>
<!-- Node1&#45;&gt;Node8 -->
<g id="edge7" class="edge">
<title>Node1&#45;&gt;Node8</title>
<path fill="none" stroke="midnightblue" d="M601.8,-280.5C579.25,-269.96 552.04,-257.23 532.14,-247.92"/>
<polygon fill="midnightblue" stroke="midnightblue" points="533.54,-244.72 523,-243.65 530.58,-251.06 533.54,-244.72"/>
</g>
<!-- Node9 -->
<g id="node9" class="node">
<title>Node9</title>
<g id="a_node9"><a xlink:title=" ">
<polygon fill="white" stroke="#bfbfbf" points="552.5,-224.5 552.5,-243.5 638.5,-243.5 638.5,-224.5 552.5,-224.5"/>
<text text-anchor="middle" x="595.5" y="-231.5" font-family="Helvetica,sans-Serif" font-size="10.00">QMessageBox</text>
</a>
</g>
</g>
<!-- Node1&#45;&gt;Node9 -->
<g id="edge8" class="edge">
<title>Node1&#45;&gt;Node9</title>
<path fill="none" stroke="midnightblue" d="M629.1,-280.5C622.38,-271.39 614.45,-260.66 607.99,-251.91"/>
<polygon fill="midnightblue" stroke="midnightblue" points="610.65,-249.62 601.89,-243.65 605.01,-253.78 610.65,-249.62"/>
</g>
<!-- Node10 -->
<g id="node10" class="node">
<title>Node10</title>
<g id="a_node10"><a xlink:title=" ">
<polygon fill="white" stroke="#bfbfbf" points="656.5,-224.5 656.5,-243.5 726.5,-243.5 726.5,-224.5 656.5,-224.5"/>
<text text-anchor="middle" x="691.5" y="-231.5" font-family="Helvetica,sans-Serif" font-size="10.00">QStringList</text>
</a>
</g>
</g>
<!-- Node1&#45;&gt;Node10 -->
<g id="edge9" class="edge">
<title>Node1&#45;&gt;Node10</title>
<path fill="none" stroke="midnightblue" d="M657.9,-280.5C664.62,-271.39 672.55,-260.66 679.01,-251.91"/>
<polygon fill="midnightblue" stroke="midnightblue" points="681.99,-253.78 685.11,-243.65 676.35,-249.62 681.99,-253.78"/>
</g>
<!-- Node11 -->
<g id="node11" class="node">
<title>Node11</title>
<g id="a_node11"><a xlink:title=" ">
<polygon fill="white" stroke="#bfbfbf" points="744.5,-224.5 744.5,-243.5 850.5,-243.5 850.5,-224.5 744.5,-224.5"/>
<text text-anchor="middle" x="797.5" y="-231.5" font-family="Helvetica,sans-Serif" font-size="10.00">QStringListIterator</text>
</a>
</g>
</g>
<!-- Node1&#45;&gt;Node11 -->
<g id="edge10" class="edge">
<title>Node1&#45;&gt;Node11</title>
<path fill="none" stroke="midnightblue" d="M689.71,-280.5C715.02,-269.81 745.65,-256.89 767.78,-247.54"/>
<polygon fill="midnightblue" stroke="midnightblue" points="769.15,-250.77 777,-243.65 766.43,-244.32 769.15,-250.77"/>
</g>
<!-- Node12 -->
<g id="node12" class="node">
<title>Node12</title>
<g id="a_node12"><a xlink:title=" ">
<polygon fill="white" stroke="#bfbfbf" points="577,-112.5 577,-131.5 630,-131.5 630,-112.5 577,-112.5"/>
<text text-anchor="middle" x="603.5" y="-119.5" font-family="Helvetica,sans-Serif" font-size="10.00">QTimer</text>
</a>
</g>
</g>
<!-- Node1&#45;&gt;Node12 -->
<g id="edge11" class="edge">
<title>Node1&#45;&gt;Node12</title>
<path fill="none" stroke="midnightblue" d="M724.53,-296.81C802.04,-290.8 901.43,-273.53 859.5,-224 796.9,-150.05 725.17,-241.66 644.5,-188 627.71,-176.83 616.46,-156.2 610.05,-141.17"/>
<polygon fill="midnightblue" stroke="midnightblue" points="613.3,-139.86 606.39,-131.84 606.79,-142.43 613.3,-139.86"/>
</g>
<!-- Node13 -->
<g id="node13" class="node">
<title>Node13</title>
<g id="a_node13"><a xlink:href="antkeymapper_8h.html" target="_top" xlink:title=" ">
<polygon fill="white" stroke="black" points="1446,-56.5 1446,-75.5 1541,-75.5 1541,-56.5 1446,-56.5"/>
<text text-anchor="middle" x="1493.5" y="-63.5" font-family="Helvetica,sans-Serif" font-size="10.00">antkeymapper.h</text>
</a>
</g>
</g>
<!-- Node1&#45;&gt;Node13 -->
<g id="edge12" class="edge">
<title>Node1&#45;&gt;Node13</title>
<path fill="none" stroke="midnightblue" d="M724.74,-299.36C848.71,-296.95 1091.96,-286.63 1293.5,-244 1368.44,-228.15 1403.27,-243.08 1456.5,-188 1483.76,-159.79 1490.99,-112.06 1492.87,-85.77"/>
<polygon fill="midnightblue" stroke="midnightblue" points="1496.38,-85.81 1493.41,-75.64 1489.39,-85.44 1496.38,-85.81"/>
</g>
<!-- Node15 -->
<g id="node15" class="node">
<title>Node15</title>
<g id="a_node15"><a xlink:href="common_8h.html" target="_top" xlink:title=" ">
<polygon fill="white" stroke="black" points="906.5,-224.5 906.5,-243.5 974.5,-243.5 974.5,-224.5 906.5,-224.5"/>
<text text-anchor="middle" x="940.5" y="-231.5" font-family="Helvetica,sans-Serif" font-size="10.00">common.h</text>
</a>
</g>
</g>
<!-- Node1&#45;&gt;Node15 -->
<g id="edge14" class="edge">
<title>Node1&#45;&gt;Node15</title>
<path fill="none" stroke="midnightblue" d="M724.66,-282.24C780.06,-270.11 851.34,-254.51 896.49,-244.63"/>
<polygon fill="midnightblue" stroke="midnightblue" points="897.25,-248.05 906.27,-242.49 895.75,-241.21 897.25,-248.05"/>
</g>
<!-- Node19 -->
<g id="node19" class="node">
<title>Node19</title>
<g id="a_node19"><a xlink:href="logger_8h.html" target="_top" xlink:title=" ">
<polygon fill="white" stroke="black" points="1251.5,-56.5 1251.5,-75.5 1307.5,-75.5 1307.5,-56.5 1251.5,-56.5"/>
<text text-anchor="middle" x="1279.5" y="-63.5" font-family="Helvetica,sans-Serif" font-size="10.00">logger.h</text>
</a>
</g>
</g>
<!-- Node1&#45;&gt;Node19 -->
<g id="edge43" class="edge">
<title>Node1&#45;&gt;Node19</title>
<path fill="none" stroke="midnightblue" d="M724.73,-294.49C917.54,-280.58 1390.17,-241.34 1436.5,-188 1458.65,-162.5 1456.83,-138.97 1436.5,-112 1422.22,-93.06 1359.54,-79.65 1317.83,-72.64"/>
<polygon fill="midnightblue" stroke="midnightblue" points="1318.15,-69.15 1307.72,-70.99 1317.02,-76.05 1318.15,-69.15"/>
</g>
<!-- Node33 -->
<g id="node33" class="node">
<title>Node33</title>
<g id="a_node33"><a xlink:href="joybuttonslot_8h.html" target="_top" xlink:title=" ">
<polygon fill="white" stroke="black" points="1750.5,-224.5 1750.5,-243.5 1840.5,-243.5 1840.5,-224.5 1750.5,-224.5"/>
<text text-anchor="middle" x="1795.5" y="-231.5" font-family="Helvetica,sans-Serif" font-size="10.00">joybuttonslot.h</text>
</a>
</g>
</g>
<!-- Node1&#45;&gt;Node33 -->
<g id="edge36" class="edge">
<title>Node1&#45;&gt;Node33</title>
<path fill="none" stroke="midnightblue" d="M724.51,-295.43C945.29,-282.97 1553.56,-248.65 1740.27,-238.12"/>
<polygon fill="midnightblue" stroke="midnightblue" points="1740.61,-241.6 1750.4,-237.54 1740.22,-234.61 1740.61,-241.6"/>
</g>
<!-- Node39 -->
<g id="node39" class="node">
<title>Node39</title>
<g id="a_node39"><a xlink:href="uinputeventhandler_8h.html" target="_top" xlink:title=" ">
<polygon fill="white" stroke="black" points="1925.5,-224.5 1925.5,-243.5 2045.5,-243.5 2045.5,-224.5 1925.5,-224.5"/>
<text text-anchor="middle" x="1985.5" y="-231.5" font-family="Helvetica,sans-Serif" font-size="10.00">uinputeventhandler.h</text>
</a>
</g>
</g>
<!-- Node1&#45;&gt;Node39 -->
<g id="edge44" class="edge">
<title>Node1&#45;&gt;Node39</title>
<path fill="none" stroke="midnightblue" d="M724.69,-296.78C919.03,-288.96 1426.25,-267.83 1849.5,-244 1870.82,-242.8 1894,-241.33 1915.09,-239.92"/>
<polygon fill="midnightblue" stroke="midnightblue" points="1915.52,-243.4 1925.26,-239.24 1915.05,-236.42 1915.52,-243.4"/>
</g>
<!-- Node14 -->
<g id="node14" class="node">
<title>Node14</title>
<g id="a_node14"><a xlink:title=" ">
<polygon fill="white" stroke="#bfbfbf" points="1465.5,-0.5 1465.5,-19.5 1521.5,-19.5 1521.5,-0.5 1465.5,-0.5"/>
<text text-anchor="middle" x="1493.5" y="-7.5" font-family="Helvetica,sans-Serif" font-size="10.00">QObject</text>
</a>
</g>
</g>
<!-- Node13&#45;&gt;Node14 -->
<g id="edge13" class="edge">
<title>Node13&#45;&gt;Node14</title>
<path fill="none" stroke="midnightblue" d="M1493.5,-56.08C1493.5,-49.01 1493.5,-38.86 1493.5,-29.99"/>
<polygon fill="midnightblue" stroke="midnightblue" points="1497,-29.75 1493.5,-19.75 1490,-29.75 1497,-29.75"/>
</g>
<!-- Node16 -->
<g id="node16" class="node">
<title>Node16</title>
<g id="a_node16"><a xlink:href="antimicrosettings_8h.html" target="_top" xlink:title=" ">
<polygon fill="white" stroke="black" points="1243,-168.5 1243,-187.5 1354,-187.5 1354,-168.5 1243,-168.5"/>
<text text-anchor="middle" x="1298.5" y="-175.5" font-family="Helvetica,sans-Serif" font-size="10.00">antimicrosettings.h</text>
</a>
</g>
</g>
<!-- Node15&#45;&gt;Node16 -->
<g id="edge15" class="edge">
<title>Node15&#45;&gt;Node16</title>
<path fill="none" stroke="midnightblue" d="M974.5,-227.87C1033.72,-218.94 1156.72,-200.39 1232.97,-188.88"/>
<polygon fill="midnightblue" stroke="midnightblue" points="1233.58,-192.33 1242.95,-187.38 1232.54,-185.41 1233.58,-192.33"/>
</g>
<!-- Node23 -->
<g id="node23" class="node">
<title>Node23</title>
<g id="a_node23"><a xlink:title=" ">
<polygon fill="white" stroke="#bfbfbf" points="853.5,-0.5 853.5,-19.5 911.5,-19.5 911.5,-0.5 853.5,-0.5"/>
<text text-anchor="middle" x="882.5" y="-7.5" font-family="Helvetica,sans-Serif" font-size="10.00">QThread</text>
</a>
</g>
</g>
<!-- Node15&#45;&gt;Node23 -->
<g id="edge32" class="edge">
<title>Node15&#45;&gt;Node23</title>
<path fill="none" stroke="midnightblue" d="M906.42,-227.75C836.11,-216.84 681.19,-192.38 677.5,-188 617.42,-116.77 773.21,-49.75 846.66,-23.11"/>
<polygon fill="midnightblue" stroke="midnightblue" points="848.2,-26.27 856.44,-19.62 845.85,-19.68 848.2,-26.27"/>
</g>
<!-- Node26 -->
<g id="node26" class="node">
<title>Node26</title>
<g id="a_node26"><a xlink:title=" ">
<polygon fill="white" stroke="#bfbfbf" points="1372,-168.5 1372,-187.5 1427,-187.5 1427,-168.5 1372,-168.5"/>
<text text-anchor="middle" x="1399.5" y="-175.5" font-family="Helvetica,sans-Serif" font-size="10.00">config.h</text>
</a>
</g>
</g>
<!-- Node15&#45;&gt;Node26 -->
<g id="edge26" class="edge">
<title>Node15&#45;&gt;Node26</title>
<path fill="none" stroke="midnightblue" d="M974.72,-230.98C1045.35,-226.46 1212.51,-213.98 1361.44,-188.16"/>
<polygon fill="midnightblue" stroke="midnightblue" points="1362.43,-191.54 1371.67,-186.36 1361.22,-184.65 1362.43,-191.54"/>
</g>
<!-- Node27 -->
<g id="node27" class="node">
<title>Node27</title>
<g id="a_node27"><a xlink:href="mousehelper_8h.html" target="_top" xlink:title=" ">
<polygon fill="white" stroke="black" points="1136,-168.5 1136,-187.5 1225,-187.5 1225,-168.5 1136,-168.5"/>
<text text-anchor="middle" x="1180.5" y="-175.5" font-family="Helvetica,sans-Serif" font-size="10.00">mousehelper.h</text>
</a>
</g>
</g>
<!-- Node15&#45;&gt;Node27 -->
<g id="edge27" class="edge">
<title>Node15&#45;&gt;Node27</title>
<path fill="none" stroke="midnightblue" d="M974.63,-225.32C1015.99,-216.02 1085.91,-200.28 1132.64,-189.77"/>
<polygon fill="midnightblue" stroke="midnightblue" points="1133.54,-193.15 1142.53,-187.54 1132,-186.32 1133.54,-193.15"/>
</g>
<!-- Node28 -->
<g id="node28" class="node">
<title>Node28</title>
<g id="a_node28"><a xlink:title=" ">
<polygon fill="white" stroke="#bfbfbf" points="686.5,-168.5 686.5,-187.5 724.5,-187.5 724.5,-168.5 686.5,-168.5"/>
<text text-anchor="middle" x="705.5" y="-175.5" font-family="Helvetica,sans-Serif" font-size="10.00">QDir</text>
</a>
</g>
</g>
<!-- Node15&#45;&gt;Node28 -->
<g id="edge30" class="edge">
<title>Node15&#45;&gt;Node28</title>
<path fill="none" stroke="midnightblue" d="M906.19,-226.6C866.86,-219.03 800.31,-205.52 734.42,-188.05"/>
<polygon fill="midnightblue" stroke="midnightblue" points="735.27,-184.66 724.71,-185.44 733.46,-191.42 735.27,-184.66"/>
</g>
<!-- Node29 -->
<g id="node29" class="node">
<title>Node29</title>
<g id="a_node29"><a xlink:title=" ">
<polygon fill="white" stroke="#bfbfbf" points="742.5,-168.5 742.5,-187.5 786.5,-187.5 786.5,-168.5 742.5,-168.5"/>
<text text-anchor="middle" x="764.5" y="-175.5" font-family="Helvetica,sans-Serif" font-size="10.00">QIcon</text>
</a>
</g>
</g>
<!-- Node15&#45;&gt;Node29 -->
<g id="edge31" class="edge">
<title>Node15&#45;&gt;Node29</title>
<path fill="none" stroke="midnightblue" d="M912.61,-224.44C880.99,-214.74 829.53,-198.95 796.35,-188.77"/>
<polygon fill="midnightblue" stroke="midnightblue" points="797.27,-185.39 786.68,-185.81 795.22,-192.09 797.27,-185.39"/>
</g>
<!-- Node30 -->
<g id="node30" class="node">
<title>Node30</title>
<g id="a_node30"><a xlink:title=" ">
<polygon fill="white" stroke="#bfbfbf" points="804.5,-168.5 804.5,-187.5 876.5,-187.5 876.5,-168.5 804.5,-168.5"/>
<text text-anchor="middle" x="840.5" y="-175.5" font-family="Helvetica,sans-Serif" font-size="10.00">QTranslator</text>
</a>
</g>
</g>
<!-- Node15&#45;&gt;Node30 -->
<g id="edge33" class="edge">
<title>Node15&#45;&gt;Node30</title>
<path fill="none" stroke="midnightblue" d="M924.43,-224.32C908.54,-215.74 883.99,-202.49 865.54,-192.52"/>
<polygon fill="midnightblue" stroke="midnightblue" points="866.99,-189.33 856.53,-187.65 863.66,-195.49 866.99,-189.33"/>
</g>
<!-- Node31 -->
<g id="node31" class="node">
<title>Node31</title>
<g id="a_node31"><a xlink:title=" ">
<polygon fill="white" stroke="#bfbfbf" points="894.5,-168.5 894.5,-187.5 986.5,-187.5 986.5,-168.5 894.5,-168.5"/>
<text text-anchor="middle" x="940.5" y="-175.5" font-family="Helvetica,sans-Serif" font-size="10.00">QWaitCondition</text>
</a>
</g>
</g>
<!-- Node15&#45;&gt;Node31 -->
<g id="edge34" class="edge">
<title>Node15&#45;&gt;Node31</title>
<path fill="none" stroke="midnightblue" d="M940.5,-224.08C940.5,-217.01 940.5,-206.86 940.5,-197.99"/>
<polygon fill="midnightblue" stroke="midnightblue" points="944,-197.75 940.5,-187.75 937,-197.75 944,-197.75"/>
</g>
<!-- Node32 -->
<g id="node32" class="node">
<title>Node32</title>
<g id="a_node32"><a xlink:title=" ">
<polygon fill="white" stroke="#bfbfbf" points="1005,-168.5 1005,-187.5 1118,-187.5 1118,-168.5 1005,-168.5"/>
<text text-anchor="middle" x="1061.5" y="-175.5" font-family="Helvetica,sans-Serif" font-size="10.00">SDL2/SDL_version.h</text>
</a>
</g>
</g>
<!-- Node15&#45;&gt;Node32 -->
<g id="edge35" class="edge">
<title>Node15&#45;&gt;Node32</title>
<path fill="none" stroke="midnightblue" d="M959.67,-224.44C979.41,-215.64 1010.39,-201.81 1032.99,-191.72"/>
<polygon fill="midnightblue" stroke="midnightblue" points="1034.71,-194.79 1042.42,-187.52 1031.86,-188.4 1034.71,-194.79"/>
</g>
<!-- Node17 -->
<g id="node17" class="node">
<title>Node17</title>
<g id="a_node17"><a xlink:href="commandlineutility_8h.html" target="_top" xlink:title=" ">
<polygon fill="white" stroke="black" points="1188,-112.5 1188,-131.5 1307,-131.5 1307,-112.5 1188,-112.5"/>
<text text-anchor="middle" x="1247.5" y="-119.5" font-family="Helvetica,sans-Serif" font-size="10.00">commandlineutility.h</text>
</a>
</g>
</g>
<!-- Node16&#45;&gt;Node17 -->
<g id="edge16" class="edge">
<title>Node16&#45;&gt;Node17</title>
<path fill="none" stroke="midnightblue" d="M1290.08,-168.08C1282.65,-160.22 1271.65,-148.57 1262.69,-139.08"/>
<polygon fill="midnightblue" stroke="midnightblue" points="1265.18,-136.62 1255.76,-131.75 1260.09,-141.42 1265.18,-136.62"/>
</g>
<!-- Node25 -->
<g id="node25" class="node">
<title>Node25</title>
<g id="a_node25"><a xlink:title=" ">
<polygon fill="white" stroke="#bfbfbf" points="1363.5,-112.5 1363.5,-131.5 1427.5,-131.5 1427.5,-112.5 1363.5,-112.5"/>
<text text-anchor="middle" x="1395.5" y="-119.5" font-family="Helvetica,sans-Serif" font-size="10.00">QSettings</text>
</a>
</g>
</g>
<!-- Node16&#45;&gt;Node25 -->
<g id="edge25" class="edge">
<title>Node16&#45;&gt;Node25</title>
<path fill="none" stroke="midnightblue" d="M1314.08,-168.32C1329.5,-159.74 1353.31,-146.49 1371.21,-136.52"/>
<polygon fill="midnightblue" stroke="midnightblue" points="1372.92,-139.58 1379.95,-131.65 1369.51,-133.46 1372.92,-139.58"/>
</g>
<!-- Node18 -->
<g id="node18" class="node">
<title>Node18</title>
<g id="a_node18"><a xlink:title=" ">
<polygon fill="white" stroke="#bfbfbf" points="1155,-56.5 1155,-75.5 1234,-75.5 1234,-56.5 1155,-56.5"/>
<text text-anchor="middle" x="1194.5" y="-63.5" font-family="Helvetica,sans-Serif" font-size="10.00">QApplication</text>
</a>
</g>
</g>
<!-- Node17&#45;&gt;Node18 -->
<g id="edge17" class="edge">
<title>Node17&#45;&gt;Node18</title>
<path fill="none" stroke="midnightblue" d="M1238.75,-112.08C1231.03,-104.22 1219.6,-92.57 1210.28,-83.08"/>
<polygon fill="midnightblue" stroke="midnightblue" points="1212.59,-80.44 1203.09,-75.75 1207.6,-85.34 1212.59,-80.44"/>
</g>
<!-- Node17&#45;&gt;Node19 -->
<g id="edge18" class="edge">
<title>Node17&#45;&gt;Node19</title>
<path fill="none" stroke="midnightblue" d="M1252.78,-112.08C1257.21,-104.61 1263.66,-93.72 1269.12,-84.52"/>
<polygon fill="midnightblue" stroke="midnightblue" points="1272.23,-86.14 1274.31,-75.75 1266.21,-82.57 1272.23,-86.14"/>
</g>
<!-- Node19&#45;&gt;Node14 -->
<g id="edge21" class="edge">
<title>Node19&#45;&gt;Node14</title>
<path fill="none" stroke="midnightblue" d="M1307.92,-57.83C1345.84,-48.26 1413.1,-31.29 1455.38,-20.62"/>
<polygon fill="midnightblue" stroke="midnightblue" points="1456.47,-23.95 1465.31,-18.11 1454.75,-17.17 1456.47,-23.95"/>
</g>
<!-- Node20 -->
<g id="node20" class="node">
<title>Node20</title>
<g id="a_node20"><a xlink:title=" ">
<polygon fill="white" stroke="#bfbfbf" points="1292,-0.5 1292,-19.5 1333,-19.5 1333,-0.5 1292,-0.5"/>
<text text-anchor="middle" x="1312.5" y="-7.5" font-family="Helvetica,sans-Serif" font-size="10.00">QFile</text>
</a>
</g>
</g>
<!-- Node19&#45;&gt;Node20 -->
<g id="edge19" class="edge">
<title>Node19&#45;&gt;Node20</title>
<path fill="none" stroke="midnightblue" d="M1284.95,-56.08C1289.51,-48.61 1296.17,-37.72 1301.79,-28.52"/>
<polygon fill="midnightblue" stroke="midnightblue" points="1304.92,-30.11 1307.15,-19.75 1298.95,-26.46 1304.92,-30.11"/>
</g>
<!-- Node21 -->
<g id="node21" class="node">
<title>Node21</title>
<g id="a_node21"><a xlink:title=" ">
<polygon fill="white" stroke="#bfbfbf" points="1351,-0.5 1351,-19.5 1406,-19.5 1406,-0.5 1351,-0.5"/>
<text text-anchor="middle" x="1378.5" y="-7.5" font-family="Helvetica,sans-Serif" font-size="10.00">QMutex</text>
</a>
</g>
</g>
<!-- Node19&#45;&gt;Node21 -->
<g id="edge20" class="edge">
<title>Node19&#45;&gt;Node21</title>
<path fill="none" stroke="midnightblue" d="M1295.41,-56.32C1311.14,-47.74 1335.44,-34.49 1353.71,-24.52"/>
<polygon fill="midnightblue" stroke="midnightblue" points="1355.53,-27.52 1362.63,-19.65 1352.18,-21.37 1355.53,-27.52"/>
</g>
<!-- Node22 -->
<g id="node22" class="node">
<title>Node22</title>
<g id="a_node22"><a xlink:title=" ">
<polygon fill="white" stroke="#bfbfbf" points="1119.5,-0.5 1119.5,-19.5 1199.5,-19.5 1199.5,-0.5 1119.5,-0.5"/>
<text text-anchor="middle" x="1159.5" y="-7.5" font-family="Helvetica,sans-Serif" font-size="10.00">QTextStream</text>
</a>
</g>
</g>
<!-- Node19&#45;&gt;Node22 -->
<g id="edge22" class="edge">
<title>Node19&#45;&gt;Node22</title>
<path fill="none" stroke="midnightblue" d="M1260.49,-56.44C1240.91,-47.64 1210.19,-33.81 1187.77,-23.72"/>
<polygon fill="midnightblue" stroke="midnightblue" points="1188.98,-20.43 1178.43,-19.52 1186.11,-26.81 1188.98,-20.43"/>
</g>
<!-- Node19&#45;&gt;Node23 -->
<g id="edge23" class="edge">
<title>Node19&#45;&gt;Node23</title>
<path fill="none" stroke="midnightblue" d="M1251.27,-57.6C1248.65,-57.02 1246.03,-56.47 1243.5,-56 1127.4,-34.33 988.3,-20.31 921.74,-14.32"/>
<polygon fill="midnightblue" stroke="midnightblue" points="921.97,-10.83 911.7,-13.43 921.35,-17.8 921.97,-10.83"/>
</g>
<!-- Node24 -->
<g id="node24" class="node">
<title>Node24</title>
<g id="a_node24"><a xlink:title=" ">
<polygon fill="white" stroke="#bfbfbf" points="1217.5,-0.5 1217.5,-19.5 1273.5,-19.5 1273.5,-0.5 1217.5,-0.5"/>
<text text-anchor="middle" x="1245.5" y="-7.5" font-family="Helvetica,sans-Serif" font-size="10.00">sstream</text>
</a>
</g>
</g>
<!-- Node19&#45;&gt;Node24 -->
<g id="edge24" class="edge">
<title>Node19&#45;&gt;Node24</title>
<path fill="none" stroke="midnightblue" d="M1273.89,-56.08C1269.13,-48.53 1262.18,-37.49 1256.35,-28.23"/>
<polygon fill="midnightblue" stroke="midnightblue" points="1259.3,-26.35 1251.01,-19.75 1253.38,-30.08 1259.3,-26.35"/>
</g>
<!-- Node27&#45;&gt;Node12 -->
<g id="edge29" class="edge">
<title>Node27&#45;&gt;Node12</title>
<path fill="none" stroke="midnightblue" d="M1135.72,-169.13C1132.94,-168.72 1130.18,-168.34 1127.5,-168 945.32,-144.75 725.92,-130.25 640.27,-125.11"/>
<polygon fill="midnightblue" stroke="midnightblue" points="640.22,-121.6 630.03,-124.5 639.8,-128.59 640.22,-121.6"/>
</g>
<!-- Node27&#45;&gt;Node14 -->
<g id="edge28" class="edge">
<title>Node27&#45;&gt;Node14</title>
<path fill="none" stroke="midnightblue" d="M1215.08,-168.45C1243.21,-160.82 1283.51,-148.33 1316.5,-132 1378.71,-101.21 1444.2,-51.08 1475.19,-26.12"/>
<polygon fill="midnightblue" stroke="midnightblue" points="1477.43,-28.8 1482.98,-19.78 1473.01,-23.37 1477.43,-28.8"/>
</g>
<!-- Node33&#45;&gt;Node14 -->
<g id="edge38" class="edge">
<title>Node33&#45;&gt;Node14</title>
<path fill="none" stroke="midnightblue" d="M1840.96,-229.19C1893.64,-223.72 1975.65,-211.59 1994.5,-188 2000.05,-181.06 1999.76,-175.16 1994.5,-168 1938.03,-91.13 1639.07,-35.02 1531.83,-17.1"/>
<polygon fill="midnightblue" stroke="midnightblue" points="1532.2,-13.61 1521.77,-15.44 1531.06,-20.52 1532.2,-13.61"/>
</g>
<!-- Node34 -->
<g id="node34" class="node">
<title>Node34</title>
<g id="a_node34"><a xlink:title=" ">
<polygon fill="white" stroke="#bfbfbf" points="1750,-168.5 1750,-187.5 1841,-187.5 1841,-168.5 1750,-168.5"/>
<text text-anchor="middle" x="1795.5" y="-175.5" font-family="Helvetica,sans-Serif" font-size="10.00">QElapsedTimer</text>
</a>
</g>
</g>
<!-- Node33&#45;&gt;Node34 -->
<g id="edge37" class="edge">
<title>Node33&#45;&gt;Node34</title>
<path fill="none" stroke="midnightblue" d="M1795.5,-224.08C1795.5,-217.01 1795.5,-206.86 1795.5,-197.99"/>
<polygon fill="midnightblue" stroke="midnightblue" points="1799,-197.75 1795.5,-187.75 1792,-197.75 1799,-197.75"/>
</g>
<!-- Node35 -->
<g id="node35" class="node">
<title>Node35</title>
<g id="a_node35"><a xlink:title=" ">
<polygon fill="white" stroke="#bfbfbf" points="1859,-168.5 1859,-187.5 1918,-187.5 1918,-168.5 1859,-168.5"/>
<text text-anchor="middle" x="1888.5" y="-175.5" font-family="Helvetica,sans-Serif" font-size="10.00">QPointer</text>
</a>
</g>
</g>
<!-- Node33&#45;&gt;Node35 -->
<g id="edge39" class="edge">
<title>Node33&#45;&gt;Node35</title>
<path fill="none" stroke="midnightblue" d="M1810.44,-224.32C1825.09,-215.82 1847.63,-202.73 1864.74,-192.8"/>
<polygon fill="midnightblue" stroke="midnightblue" points="1866.7,-195.7 1873.6,-187.65 1863.19,-189.65 1866.7,-195.7"/>
</g>
<!-- Node36 -->
<g id="node36" class="node">
<title>Node36</title>
<g id="a_node36"><a xlink:title=" ">
<polygon fill="white" stroke="#bfbfbf" points="1936,-168.5 1936,-187.5 1985,-187.5 1985,-168.5 1936,-168.5"/>
<text text-anchor="middle" x="1960.5" y="-175.5" font-family="Helvetica,sans-Serif" font-size="10.00">QTime</text>
</a>
</g>
</g>
<!-- Node33&#45;&gt;Node36 -->
<g id="edge40" class="edge">
<title>Node33&#45;&gt;Node36</title>
<path fill="none" stroke="midnightblue" d="M1821.64,-224.44C1849.93,-215.19 1895.16,-200.39 1926.26,-190.21"/>
<polygon fill="midnightblue" stroke="midnightblue" points="1927.41,-193.51 1935.83,-187.08 1925.23,-186.86 1927.41,-193.51"/>
</g>
<!-- Node37 -->
<g id="node37" class="node">
<title>Node37</title>
<g id="a_node37"><a xlink:title=" ">
<polygon fill="white" stroke="#bfbfbf" points="1522,-168.5 1522,-187.5 1581,-187.5 1581,-168.5 1522,-168.5"/>
<text text-anchor="middle" x="1551.5" y="-175.5" font-family="Helvetica,sans-Serif" font-size="10.00">QVariant</text>
</a>
</g>
</g>
<!-- Node33&#45;&gt;Node37 -->
<g id="edge41" class="edge">
<title>Node33&#45;&gt;Node37</title>
<path fill="none" stroke="midnightblue" d="M1756.17,-224.5C1716.9,-215.98 1654.55,-202.38 1591.08,-188.11"/>
<polygon fill="midnightblue" stroke="midnightblue" points="1591.83,-184.69 1581.3,-185.91 1590.29,-191.52 1591.83,-184.69"/>
</g>
<!-- Node38 -->
<g id="node38" class="node">
<title>Node38</title>
<g id="a_node38"><a xlink:title=" ">
<polygon fill="white" stroke="#bfbfbf" points="1599,-168.5 1599,-187.5 1732,-187.5 1732,-168.5 1599,-168.5"/>
<text text-anchor="middle" x="1665.5" y="-175.5" font-family="Helvetica,sans-Serif" font-size="10.00">QtWidgets/QApplication</text>
</a>
</g>
</g>
<!-- Node33&#45;&gt;Node38 -->
<g id="edge42" class="edge">
<title>Node33&#45;&gt;Node38</title>
<path fill="none" stroke="midnightblue" d="M1774.9,-224.44C1753.51,-215.56 1719.82,-201.56 1695.48,-191.45"/>
<polygon fill="midnightblue" stroke="midnightblue" points="1696.58,-188.12 1686,-187.52 1693.89,-194.58 1696.58,-188.12"/>
</g>
<!-- Node40 -->
<g id="node40" class="node">
<title>Node40</title>
<g id="a_node40"><a xlink:href="baseeventhandler_8h.html" target="_top" xlink:title=" ">
<polygon fill="white" stroke="black" points="2042,-112.5 2042,-131.5 2155,-131.5 2155,-112.5 2042,-112.5"/>
<text text-anchor="middle" x="2098.5" y="-119.5" font-family="Helvetica,sans-Serif" font-size="10.00">baseeventhandler.h</text>
</a>
</g>
</g>
<!-- Node39&#45;&gt;Node40 -->
<g id="edge45" class="edge">
<title>Node39&#45;&gt;Node40</title>
<path fill="none" stroke="midnightblue" d="M1994.37,-224.37C2013.35,-205.89 2058.14,-162.29 2082.33,-138.74"/>
<polygon fill="midnightblue" stroke="midnightblue" points="2084.95,-141.07 2089.67,-131.59 2080.07,-136.06 2084.95,-141.07"/>
</g>
<!-- Node40&#45;&gt;Node14 -->
<g id="edge46" class="edge">
<title>Node40&#45;&gt;Node14</title>
<path fill="none" stroke="midnightblue" d="M2092.22,-112.35C2081.08,-97.75 2056.28,-68.6 2027.5,-56 1938.42,-17 1638.76,-11.69 1531.82,-11.05"/>
<polygon fill="midnightblue" stroke="midnightblue" points="1531.81,-7.55 1521.8,-11 1531.78,-14.55 1531.81,-7.55"/>
</g>
</g>
</svg>
        <g id="navigator" transform="translate(0 0)" fill="#404254">
                <rect fill="#f2f5e9" fill-opacity="0.5" stroke="#606060" stroke-width=".5" x="0" y="0" width="60" height="60"/>
                <use id="zoomplus" xlink:href="#zoomPlus" x="17" y="9" onmousedown="handleZoom(evt,'in')"/>
                <use id="zoomminus" xlink:href="#zoomMin" x="42" y="9" onmousedown="handleZoom(evt,'out')"/>
                <use id="reset" xlink:href="#resetDef" x="30" y="36" onmousedown="handleReset()"/>
                <g id="arrowUp" xlink:href="#dirArrow" transform="translate(30 24)" onmousedown="handlePan(0,-1)">
                  <use xlink:href="#rim" fill="#404040">
                        <set attributeName="fill" to="#808080" begin="arrowUp.mouseover" end="arrowUp.mouseout"/>
                  </use>
                  <path fill="none" stroke="white" stroke-width="1.5" d="M0,-3.0v7 M-2.5,-0.5L0,-3.0L2.5,-0.5"/>
                </g>
                <g id="arrowRight" xlink:href="#dirArrow" transform="rotate(90) translate(36 -43)" onmousedown="handlePan(1,0)">
                  <use xlink:href="#rim" fill="#404040">
                        <set attributeName="fill" to="#808080" begin="arrowRight.mouseover" end="arrowRight.mouseout"/>
                  </use>
                  <path fill="none" stroke="white" stroke-width="1.5" d="M0,-3.0v7 M-2.5,-0.5L0,-3.0L2.5,-0.5"/>
                </g>
                <g id="arrowDown" xlink:href="#dirArrow" transform="rotate(180) translate(-30 -48)" onmousedown="handlePan(0,1)">
                  <use xlink:href="#rim" fill="#404040">
                        <set attributeName="fill" to="#808080" begin="arrowDown.mouseover" end="arrowDown.mouseout"/>
                  </use>
                  <path fill="none" stroke="white" stroke-width="1.5" d="M0,-3.0v7 M-2.5,-0.5L0,-3.0L2.5,-0.5"/>
                </g>
                <g id="arrowLeft" xlink:href="#dirArrow" transform="rotate(270) translate(-36 17)" onmousedown="handlePan(-1,0)">
                  <use xlink:href="#rim" fill="#404040">
                        <set attributeName="fill" to="#808080" begin="arrowLeft.mouseover" end="arrowLeft.mouseout"/>
                  </use>
                  <path fill="none" stroke="white" stroke-width="1.5" d="M0,-3.0v7 M-2.5,-0.5L0,-3.0L2.5,-0.5"/>
                </g>
        </g>
        <svg viewBox="0 0 15 15" width="100%" height="30px" preserveAspectRatio="xMaxYMin meet">
         <g id="arrow_out" transform="scale(0.3 0.3)">
          <a xlink:href="uinputeventhandler_8cpp__incl_org.svg" target="_base">
           <rect id="button" ry="5" rx="5" y="6" x="6" height="38" width="38"
                fill="#f2f5e9" fill-opacity="0.5" stroke="#606060" stroke-width="1.0"/>
           <path id="arrow"
             d="M 11.500037,31.436501 C 11.940474,20.09759 22.043105,11.32322 32.158766,21.979434 L 37.068811,17.246167 C 37.068811,17.246167 37.088388,32 37.088388,32 L 22.160133,31.978069 C 22.160133,31.978069 26.997745,27.140456 26.997745,27.140456 C 18.528582,18.264221 13.291696,25.230495 11.500037,31.436501 z"
             style="fill:#404040;"/>
          </a>
         </g>
        </svg>
</svg>
