<?xml version="1.0" encoding="UTF-8" standalone="no"?>
<!DOCTYPE svg PUBLIC "-//W3C//DTD SVG 1.1//EN"
 "http://www.w3.org/Graphics/SVG/1.1/DTD/svg11.dtd">
<!-- Generated by graphviz version 2.43.0 (0)
 -->
<!-- Title: /home/runner/work/doxygen/antimicrox/src/unixcapturewindowutility.cpp Pages: 1 -->
<svg width="699pt" height="207pt"
 viewBox="0.00 0.00 698.50 207.00" xmlns="http://www.w3.org/2000/svg" xmlns:xlink="http://www.w3.org/1999/xlink">
<g id="graph0" class="graph" transform="scale(1 1) rotate(0) translate(4 203)">
<title>/home/runner/work/doxygen/antimicrox/src/unixcapturewindowutility.cpp</title>
<polygon fill="white" stroke="transparent" points="-4,4 -4,-203 694.5,-203 694.5,4 -4,4"/>
<!-- Node1 -->
<g id="node1" class="node">
<title>Node1</title>
<g id="a_node1"><a xlink:title=" ">
<polygon fill="#bfbfbf" stroke="black" points="257.5,-168.5 257.5,-198.5 492.5,-198.5 492.5,-168.5 257.5,-168.5"/>
<text text-anchor="start" x="265.5" y="-186.5" font-family="Helvetica,sans-Serif" font-size="10.00">/home/runner/work/doxygen</text>
<text text-anchor="middle" x="375" y="-175.5" font-family="Helvetica,sans-Serif" font-size="10.00">/antimicrox/src/unixcapturewindowutility.cpp</text>
</a>
</g>
</g>
<!-- Node2 -->
<g id="node2" class="node">
<title>Node2</title>
<g id="a_node2"><a xlink:href="unixcapturewindowutility_8h.html" target="_top" xlink:title=" ">
<polygon fill="white" stroke="black" points="0,-56.5 0,-75.5 148,-75.5 148,-56.5 0,-56.5"/>
<text text-anchor="middle" x="74" y="-63.5" font-family="Helvetica,sans-Serif" font-size="10.00">unixcapturewindowutility.h</text>
</a>
</g>
</g>
<!-- Node1&#45;&gt;Node2 -->
<g id="edge1" class="edge">
<title>Node1&#45;&gt;Node2</title>
<path fill="none" stroke="midnightblue" d="M277.41,-168.49C239.57,-160.79 196.62,-149.19 160,-132 133.17,-119.4 106.62,-97.51 90.27,-82.65"/>
<polygon fill="midnightblue" stroke="midnightblue" points="92.41,-79.86 82.71,-75.6 87.64,-84.98 92.41,-79.86"/>
</g>
<!-- Node4 -->
<g id="node4" class="node">
<title>Node4</title>
<g id="a_node4"><a xlink:href="qtx11keymapper_8h.html" target="_top" xlink:title=" ">
<polygon fill="white" stroke="black" points="169.5,-112.5 169.5,-131.5 276.5,-131.5 276.5,-112.5 169.5,-112.5"/>
<text text-anchor="middle" x="223" y="-119.5" font-family="Helvetica,sans-Serif" font-size="10.00">qtx11keymapper.h</text>
</a>
</g>
</g>
<!-- Node1&#45;&gt;Node4 -->
<g id="edge3" class="edge">
<title>Node1&#45;&gt;Node4</title>
<path fill="none" stroke="midnightblue" d="M338.98,-168.4C313.36,-158.37 279.27,-145.03 254.69,-135.4"/>
<polygon fill="midnightblue" stroke="midnightblue" points="255.71,-132.04 245.12,-131.66 253.15,-138.56 255.71,-132.04"/>
</g>
<!-- Node7 -->
<g id="node7" class="node">
<title>Node7</title>
<g id="a_node7"><a xlink:title=" ">
<polygon fill="white" stroke="#bfbfbf" points="333.5,-112.5 333.5,-131.5 416.5,-131.5 416.5,-112.5 333.5,-112.5"/>
<text text-anchor="middle" x="375" y="-119.5" font-family="Helvetica,sans-Serif" font-size="10.00">QDataStream</text>
</a>
</g>
</g>
<!-- Node1&#45;&gt;Node7 -->
<g id="edge7" class="edge">
<title>Node1&#45;&gt;Node7</title>
<path fill="none" stroke="midnightblue" d="M375,-168.4C375,-160.47 375,-150.46 375,-141.86"/>
<polygon fill="midnightblue" stroke="midnightblue" points="378.5,-141.66 375,-131.66 371.5,-141.66 378.5,-141.66"/>
</g>
<!-- Node8 -->
<g id="node8" class="node">
<title>Node8</title>
<g id="a_node8"><a xlink:title=" ">
<polygon fill="white" stroke="#bfbfbf" points="435,-112.5 435,-131.5 491,-131.5 491,-112.5 435,-112.5"/>
<text text-anchor="middle" x="463" y="-119.5" font-family="Helvetica,sans-Serif" font-size="10.00">QDebug</text>
</a>
</g>
</g>
<!-- Node1&#45;&gt;Node8 -->
<g id="edge8" class="edge">
<title>Node1&#45;&gt;Node8</title>
<path fill="none" stroke="midnightblue" d="M395.85,-168.4C409.7,-159.04 427.81,-146.79 441.74,-137.38"/>
<polygon fill="midnightblue" stroke="midnightblue" points="443.87,-140.16 450.2,-131.66 439.95,-134.36 443.87,-140.16"/>
</g>
<!-- Node9 -->
<g id="node9" class="node">
<title>Node9</title>
<g id="a_node9"><a xlink:title=" ">
<polygon fill="white" stroke="#bfbfbf" points="509,-112.5 509,-131.5 575,-131.5 575,-112.5 509,-112.5"/>
<text text-anchor="middle" x="542" y="-119.5" font-family="Helvetica,sans-Serif" font-size="10.00">X11/Xlib.h</text>
</a>
</g>
</g>
<!-- Node1&#45;&gt;Node9 -->
<g id="edge9" class="edge">
<title>Node1&#45;&gt;Node9</title>
<path fill="none" stroke="midnightblue" d="M414.58,-168.4C443.1,-158.24 481.17,-144.67 508.26,-135.02"/>
<polygon fill="midnightblue" stroke="midnightblue" points="509.45,-138.31 517.7,-131.66 507.11,-131.72 509.45,-138.31"/>
</g>
<!-- Node10 -->
<g id="node10" class="node">
<title>Node10</title>
<g id="a_node10"><a xlink:title=" ">
<polygon fill="white" stroke="#bfbfbf" points="593.5,-112.5 593.5,-131.5 690.5,-131.5 690.5,-112.5 593.5,-112.5"/>
<text text-anchor="middle" x="642" y="-119.5" font-family="Helvetica,sans-Serif" font-size="10.00">X11/cursorfont.h</text>
</a>
</g>
</g>
<!-- Node1&#45;&gt;Node10 -->
<g id="edge10" class="edge">
<title>Node1&#45;&gt;Node10</title>
<path fill="none" stroke="midnightblue" d="M437.94,-168.47C485.71,-157.83 550.4,-143.41 594.03,-133.69"/>
<polygon fill="midnightblue" stroke="midnightblue" points="594.83,-137.1 603.83,-131.51 593.31,-130.27 594.83,-137.1"/>
</g>
<!-- Node11 -->
<g id="node11" class="node">
<title>Node11</title>
<g id="a_node11"><a xlink:href="x11extras_8h.html" target="_top" xlink:title=" ">
<polygon fill="white" stroke="black" points="298,-56.5 298,-75.5 372,-75.5 372,-56.5 298,-56.5"/>
<text text-anchor="middle" x="335" y="-63.5" font-family="Helvetica,sans-Serif" font-size="10.00">x11extras.h</text>
</a>
</g>
</g>
<!-- Node1&#45;&gt;Node11 -->
<g id="edge11" class="edge">
<title>Node1&#45;&gt;Node11</title>
<path fill="none" stroke="midnightblue" d="M354.76,-168.41C343.7,-159.43 331.05,-146.72 325,-132 318.83,-117 322.59,-98.64 327.15,-85.26"/>
<polygon fill="midnightblue" stroke="midnightblue" points="330.48,-86.35 330.81,-75.76 323.95,-83.83 330.48,-86.35"/>
</g>
<!-- Node3 -->
<g id="node3" class="node">
<title>Node3</title>
<g id="a_node3"><a xlink:title=" ">
<polygon fill="white" stroke="#bfbfbf" points="146,-0.5 146,-19.5 202,-19.5 202,-0.5 146,-0.5"/>
<text text-anchor="middle" x="174" y="-7.5" font-family="Helvetica,sans-Serif" font-size="10.00">QObject</text>
</a>
</g>
</g>
<!-- Node2&#45;&gt;Node3 -->
<g id="edge2" class="edge">
<title>Node2&#45;&gt;Node3</title>
<path fill="none" stroke="midnightblue" d="M90.07,-56.32C105.96,-47.74 130.51,-34.49 148.96,-24.52"/>
<polygon fill="midnightblue" stroke="midnightblue" points="150.84,-27.49 157.97,-19.65 147.51,-21.33 150.84,-27.49"/>
</g>
<!-- Node5 -->
<g id="node5" class="node">
<title>Node5</title>
<g id="a_node5"><a xlink:href="qtkeymapperbase_8h.html" target="_top" xlink:title=" ">
<polygon fill="white" stroke="black" points="166.5,-56.5 166.5,-75.5 279.5,-75.5 279.5,-56.5 166.5,-56.5"/>
<text text-anchor="middle" x="223" y="-63.5" font-family="Helvetica,sans-Serif" font-size="10.00">qtkeymapperbase.h</text>
</a>
</g>
</g>
<!-- Node4&#45;&gt;Node5 -->
<g id="edge4" class="edge">
<title>Node4&#45;&gt;Node5</title>
<path fill="none" stroke="midnightblue" d="M223,-112.08C223,-105.01 223,-94.86 223,-85.99"/>
<polygon fill="midnightblue" stroke="midnightblue" points="226.5,-85.75 223,-75.75 219.5,-85.75 226.5,-85.75"/>
</g>
<!-- Node5&#45;&gt;Node3 -->
<g id="edge6" class="edge">
<title>Node5&#45;&gt;Node3</title>
<path fill="none" stroke="midnightblue" d="M214.91,-56.08C207.84,-48.3 197.41,-36.8 188.85,-27.37"/>
<polygon fill="midnightblue" stroke="midnightblue" points="191.25,-24.8 181.94,-19.75 186.07,-29.51 191.25,-24.8"/>
</g>
<!-- Node6 -->
<g id="node6" class="node">
<title>Node6</title>
<g id="a_node6"><a xlink:title=" ">
<polygon fill="white" stroke="#bfbfbf" points="220.5,-0.5 220.5,-19.5 269.5,-19.5 269.5,-0.5 220.5,-0.5"/>
<text text-anchor="middle" x="245" y="-7.5" font-family="Helvetica,sans-Serif" font-size="10.00">QHash</text>
</a>
</g>
</g>
<!-- Node5&#45;&gt;Node6 -->
<g id="edge5" class="edge">
<title>Node5&#45;&gt;Node6</title>
<path fill="none" stroke="midnightblue" d="M226.63,-56.08C229.61,-48.77 233.93,-38.18 237.62,-29.1"/>
<polygon fill="midnightblue" stroke="midnightblue" points="240.9,-30.33 241.43,-19.75 234.42,-27.69 240.9,-30.33"/>
</g>
<!-- Node11&#45;&gt;Node3 -->
<g id="edge13" class="edge">
<title>Node11&#45;&gt;Node3</title>
<path fill="none" stroke="midnightblue" d="M309.49,-56.44C282.4,-47.36 239.41,-32.94 209.13,-22.78"/>
<polygon fill="midnightblue" stroke="midnightblue" points="209.99,-19.38 199.39,-19.52 207.76,-26.01 209.99,-19.38"/>
</g>
<!-- Node11&#45;&gt;Node6 -->
<g id="edge12" class="edge">
<title>Node11&#45;&gt;Node6</title>
<path fill="none" stroke="midnightblue" d="M320.54,-56.32C306.5,-47.9 284.95,-34.97 268.46,-25.07"/>
<polygon fill="midnightblue" stroke="midnightblue" points="269.8,-21.8 259.42,-19.65 266.2,-27.8 269.8,-21.8"/>
</g>
<!-- Node12 -->
<g id="node12" class="node">
<title>Node12</title>
<g id="a_node12"><a xlink:title=" ">
<polygon fill="white" stroke="#bfbfbf" points="287.5,-0.5 287.5,-19.5 336.5,-19.5 336.5,-0.5 287.5,-0.5"/>
<text text-anchor="middle" x="312" y="-7.5" font-family="Helvetica,sans-Serif" font-size="10.00">QPoint</text>
</a>
</g>
</g>
<!-- Node11&#45;&gt;Node12 -->
<g id="edge14" class="edge">
<title>Node11&#45;&gt;Node12</title>
<path fill="none" stroke="midnightblue" d="M331.2,-56.08C328.09,-48.77 323.58,-38.18 319.71,-29.1"/>
<polygon fill="midnightblue" stroke="midnightblue" points="322.87,-27.58 315.73,-19.75 316.43,-30.32 322.87,-27.58"/>
</g>
<!-- Node13 -->
<g id="node13" class="node">
<title>Node13</title>
<g id="a_node13"><a xlink:title=" ">
<polygon fill="white" stroke="#bfbfbf" points="354.5,-0.5 354.5,-19.5 489.5,-19.5 489.5,-0.5 354.5,-0.5"/>
<text text-anchor="middle" x="422" y="-7.5" font-family="Helvetica,sans-Serif" font-size="10.00">X11/extensions/XInput.h</text>
</a>
</g>
</g>
<!-- Node11&#45;&gt;Node13 -->
<g id="edge15" class="edge">
<title>Node11&#45;&gt;Node13</title>
<path fill="none" stroke="midnightblue" d="M348.98,-56.32C362.55,-47.9 383.38,-34.97 399.32,-25.07"/>
<polygon fill="midnightblue" stroke="midnightblue" points="401.41,-27.9 408.06,-19.65 397.71,-21.95 401.41,-27.9"/>
</g>
<!-- Node14 -->
<g id="node14" class="node">
<title>Node14</title>
<g id="a_node14"><a xlink:title=" ">
<polygon fill="white" stroke="#bfbfbf" points="507.5,-0.5 507.5,-19.5 648.5,-19.5 648.5,-0.5 507.5,-0.5"/>
<text text-anchor="middle" x="578" y="-7.5" font-family="Helvetica,sans-Serif" font-size="10.00">X11/extensions/XInput2.h</text>
</a>
</g>
</g>
<!-- Node11&#45;&gt;Node14 -->
<g id="edge16" class="edge">
<title>Node11&#45;&gt;Node14</title>
<path fill="none" stroke="midnightblue" d="M372.17,-56.74C414.41,-47.35 483.48,-32.01 529.82,-21.71"/>
<polygon fill="midnightblue" stroke="midnightblue" points="530.63,-25.11 539.63,-19.53 529.11,-18.28 530.63,-25.11"/>
</g>
</g>
</svg>
