<?xml version="1.0" encoding="UTF-8" standalone="no"?>
<!DOCTYPE svg PUBLIC "-//W3C//DTD SVG 1.1//EN"
 "http://www.w3.org/Graphics/SVG/1.1/DTD/svg11.dtd">
<!-- Generated by graphviz version 2.43.0 (0)
 -->
<!-- Title: /home/runner/work/doxygen/antimicrox/src/winextras.cpp Pages: 1 -->
<svg width="869pt" height="151pt"
 viewBox="0.00 0.00 868.50 151.00" xmlns="http://www.w3.org/2000/svg" xmlns:xlink="http://www.w3.org/1999/xlink">
<g id="graph0" class="graph" transform="scale(1 1) rotate(0) translate(4 147)">
<title>/home/runner/work/doxygen/antimicrox/src/winextras.cpp</title>
<polygon fill="white" stroke="transparent" points="-4,4 -4,-147 864.5,-147 864.5,4 -4,4"/>
<!-- Node1 -->
<g id="node1" class="node">
<title>Node1</title>
<g id="a_node1"><a xlink:title=" ">
<polygon fill="#bfbfbf" stroke="black" points="356.5,-112.5 356.5,-142.5 517.5,-142.5 517.5,-112.5 356.5,-112.5"/>
<text text-anchor="start" x="364.5" y="-130.5" font-family="Helvetica,sans-Serif" font-size="10.00">/home/runner/work/doxygen</text>
<text text-anchor="middle" x="437" y="-119.5" font-family="Helvetica,sans-Serif" font-size="10.00">/antimicrox/src/winextras.cpp</text>
</a>
</g>
</g>
<!-- Node2 -->
<g id="node2" class="node">
<title>Node2</title>
<g id="a_node2"><a xlink:title=" ">
<polygon fill="white" stroke="#bfbfbf" points="0,-56.5 0,-75.5 68,-75.5 68,-56.5 0,-56.5"/>
<text text-anchor="middle" x="34" y="-63.5" font-family="Helvetica,sans-Serif" font-size="10.00">windows.h</text>
</a>
</g>
</g>
<!-- Node1&#45;&gt;Node2 -->
<g id="edge1" class="edge">
<title>Node1&#45;&gt;Node2</title>
<path fill="none" stroke="midnightblue" d="M356.33,-116.75C285.57,-107.84 179.68,-93.64 78.34,-76.14"/>
<polygon fill="midnightblue" stroke="midnightblue" points="78.68,-72.65 68.23,-74.38 77.48,-79.54 78.68,-72.65"/>
</g>
<!-- Node3 -->
<g id="node3" class="node">
<title>Node3</title>
<g id="a_node3"><a xlink:title=" ">
<polygon fill="white" stroke="#bfbfbf" points="86,-56.5 86,-75.5 138,-75.5 138,-56.5 86,-56.5"/>
<text text-anchor="middle" x="112" y="-63.5" font-family="Helvetica,sans-Serif" font-size="10.00">psapi.h</text>
</a>
</g>
</g>
<!-- Node1&#45;&gt;Node3 -->
<g id="edge2" class="edge">
<title>Node1&#45;&gt;Node3</title>
<path fill="none" stroke="midnightblue" d="M356.35,-114.21C300.49,-105.3 224.21,-92.31 148.51,-76.2"/>
<polygon fill="midnightblue" stroke="midnightblue" points="148.83,-72.69 138.32,-74.01 147.36,-79.53 148.83,-72.69"/>
</g>
<!-- Node4 -->
<g id="node4" class="node">
<title>Node4</title>
<g id="a_node4"><a xlink:title=" ">
<polygon fill="white" stroke="#bfbfbf" points="156.5,-56.5 156.5,-75.5 239.5,-75.5 239.5,-56.5 156.5,-56.5"/>
<text text-anchor="middle" x="198" y="-63.5" font-family="Helvetica,sans-Serif" font-size="10.00">qt_windows.h</text>
</a>
</g>
</g>
<!-- Node1&#45;&gt;Node4 -->
<g id="edge3" class="edge">
<title>Node1&#45;&gt;Node4</title>
<path fill="none" stroke="midnightblue" d="M380.66,-112.47C338.35,-101.94 281.21,-87.72 242.18,-78"/>
<polygon fill="midnightblue" stroke="midnightblue" points="242.72,-74.53 232.17,-75.51 241.03,-81.32 242.72,-74.53"/>
</g>
<!-- Node5 -->
<g id="node5" class="node">
<title>Node5</title>
<g id="a_node5"><a xlink:title=" ">
<polygon fill="white" stroke="#bfbfbf" points="257.5,-56.5 257.5,-75.5 358.5,-75.5 358.5,-56.5 257.5,-56.5"/>
<text text-anchor="middle" x="308" y="-63.5" font-family="Helvetica,sans-Serif" font-size="10.00">QCoreApplication</text>
</a>
</g>
</g>
<!-- Node1&#45;&gt;Node5 -->
<g id="edge4" class="edge">
<title>Node1&#45;&gt;Node5</title>
<path fill="none" stroke="midnightblue" d="M406.43,-112.4C385.07,-102.55 356.78,-89.5 336.02,-79.92"/>
<polygon fill="midnightblue" stroke="midnightblue" points="337.32,-76.67 326.77,-75.66 334.39,-83.02 337.32,-76.67"/>
</g>
<!-- Node6 -->
<g id="node6" class="node">
<title>Node6</title>
<g id="a_node6"><a xlink:title=" ">
<polygon fill="white" stroke="#bfbfbf" points="377,-56.5 377,-75.5 433,-75.5 433,-56.5 377,-56.5"/>
<text text-anchor="middle" x="405" y="-63.5" font-family="Helvetica,sans-Serif" font-size="10.00">QDebug</text>
</a>
</g>
</g>
<!-- Node1&#45;&gt;Node6 -->
<g id="edge5" class="edge">
<title>Node1&#45;&gt;Node6</title>
<path fill="none" stroke="midnightblue" d="M429.42,-112.4C424.96,-104.11 419.28,-93.55 414.52,-84.71"/>
<polygon fill="midnightblue" stroke="midnightblue" points="417.48,-82.81 409.66,-75.66 411.31,-86.12 417.48,-82.81"/>
</g>
<!-- Node7 -->
<g id="node7" class="node">
<title>Node7</title>
<g id="a_node7"><a xlink:title=" ">
<polygon fill="white" stroke="#bfbfbf" points="451,-56.5 451,-75.5 489,-75.5 489,-56.5 451,-56.5"/>
<text text-anchor="middle" x="470" y="-63.5" font-family="Helvetica,sans-Serif" font-size="10.00">QDir</text>
</a>
</g>
</g>
<!-- Node1&#45;&gt;Node7 -->
<g id="edge6" class="edge">
<title>Node1&#45;&gt;Node7</title>
<path fill="none" stroke="midnightblue" d="M444.82,-112.4C449.47,-104.02 455.4,-93.33 460.34,-84.42"/>
<polygon fill="midnightblue" stroke="midnightblue" points="463.41,-86.1 465.2,-75.66 457.29,-82.71 463.41,-86.1"/>
</g>
<!-- Node8 -->
<g id="node8" class="node">
<title>Node8</title>
<g id="a_node8"><a xlink:title=" ">
<polygon fill="white" stroke="#bfbfbf" points="507.5,-56.5 507.5,-75.5 592.5,-75.5 592.5,-56.5 507.5,-56.5"/>
<text text-anchor="middle" x="550" y="-63.5" font-family="Helvetica,sans-Serif" font-size="10.00">QHashIterator</text>
</a>
</g>
</g>
<!-- Node1&#45;&gt;Node8 -->
<g id="edge7" class="edge">
<title>Node1&#45;&gt;Node8</title>
<path fill="none" stroke="midnightblue" d="M463.78,-112.4C482.06,-102.77 506.15,-90.09 524.21,-80.58"/>
<polygon fill="midnightblue" stroke="midnightblue" points="526.34,-83.41 533.56,-75.66 523.08,-77.22 526.34,-83.41"/>
</g>
<!-- Node9 -->
<g id="node9" class="node">
<title>Node9</title>
<g id="a_node9"><a xlink:title=" ">
<polygon fill="white" stroke="#bfbfbf" points="611,-56.5 611,-75.5 675,-75.5 675,-56.5 611,-56.5"/>
<text text-anchor="middle" x="643" y="-63.5" font-family="Helvetica,sans-Serif" font-size="10.00">QSettings</text>
</a>
</g>
</g>
<!-- Node1&#45;&gt;Node9 -->
<g id="edge8" class="edge">
<title>Node1&#45;&gt;Node9</title>
<path fill="none" stroke="midnightblue" d="M485.56,-112.47C521.56,-102.08 570.02,-88.08 603.63,-78.37"/>
<polygon fill="midnightblue" stroke="midnightblue" points="604.91,-81.64 613.55,-75.51 602.97,-74.92 604.91,-81.64"/>
</g>
<!-- Node10 -->
<g id="node10" class="node">
<title>Node10</title>
<g id="a_node10"><a xlink:href="winextras_8h.html" target="_top" xlink:title=" ">
<polygon fill="white" stroke="black" points="693,-56.5 693,-75.5 767,-75.5 767,-56.5 693,-56.5"/>
<text text-anchor="middle" x="730" y="-63.5" font-family="Helvetica,sans-Serif" font-size="10.00">winextras.h</text>
</a>
</g>
</g>
<!-- Node1&#45;&gt;Node10 -->
<g id="edge9" class="edge">
<title>Node1&#45;&gt;Node10</title>
<path fill="none" stroke="midnightblue" d="M506.07,-112.47C560.45,-101.43 634.8,-86.33 682.62,-76.62"/>
<polygon fill="midnightblue" stroke="midnightblue" points="683.6,-79.99 692.7,-74.57 682.2,-73.13 683.6,-79.99"/>
</g>
<!-- Node15 -->
<g id="node15" class="node">
<title>Node15</title>
<g id="a_node15"><a xlink:title=" ">
<polygon fill="white" stroke="#bfbfbf" points="785.5,-56.5 785.5,-75.5 840.5,-75.5 840.5,-56.5 785.5,-56.5"/>
<text text-anchor="middle" x="813" y="-63.5" font-family="Helvetica,sans-Serif" font-size="10.00">shlobj.h</text>
</a>
</g>
</g>
<!-- Node1&#45;&gt;Node15 -->
<g id="edge14" class="edge">
<title>Node1&#45;&gt;Node15</title>
<path fill="none" stroke="midnightblue" d="M517.83,-116.56C584.38,-107.89 681.36,-94.15 775.23,-76"/>
<polygon fill="midnightblue" stroke="midnightblue" points="776.04,-79.41 785.18,-74.05 774.69,-72.54 776.04,-79.41"/>
</g>
<!-- Node11 -->
<g id="node11" class="node">
<title>Node11</title>
<g id="a_node11"><a xlink:title=" ">
<polygon fill="white" stroke="#bfbfbf" points="598.5,-0.5 598.5,-19.5 647.5,-19.5 647.5,-0.5 598.5,-0.5"/>
<text text-anchor="middle" x="623" y="-7.5" font-family="Helvetica,sans-Serif" font-size="10.00">QHash</text>
</a>
</g>
</g>
<!-- Node10&#45;&gt;Node11 -->
<g id="edge10" class="edge">
<title>Node10&#45;&gt;Node11</title>
<path fill="none" stroke="midnightblue" d="M712.81,-56.32C695.65,-47.66 669.05,-34.24 649.25,-24.25"/>
<polygon fill="midnightblue" stroke="midnightblue" points="650.65,-21.04 640.15,-19.65 647.5,-27.28 650.65,-21.04"/>
</g>
<!-- Node12 -->
<g id="node12" class="node">
<title>Node12</title>
<g id="a_node12"><a xlink:title=" ">
<polygon fill="white" stroke="#bfbfbf" points="666,-0.5 666,-19.5 722,-19.5 722,-0.5 666,-0.5"/>
<text text-anchor="middle" x="694" y="-7.5" font-family="Helvetica,sans-Serif" font-size="10.00">QObject</text>
</a>
</g>
</g>
<!-- Node10&#45;&gt;Node12 -->
<g id="edge11" class="edge">
<title>Node10&#45;&gt;Node12</title>
<path fill="none" stroke="midnightblue" d="M724.06,-56.08C719.02,-48.53 711.66,-37.49 705.49,-28.23"/>
<polygon fill="midnightblue" stroke="midnightblue" points="708.29,-26.13 699.83,-19.75 702.47,-30.01 708.29,-26.13"/>
</g>
<!-- Node13 -->
<g id="node13" class="node">
<title>Node13</title>
<g id="a_node13"><a xlink:title=" ">
<polygon fill="white" stroke="#bfbfbf" points="740.5,-0.5 740.5,-19.5 789.5,-19.5 789.5,-0.5 740.5,-0.5"/>
<text text-anchor="middle" x="765" y="-7.5" font-family="Helvetica,sans-Serif" font-size="10.00">QPoint</text>
</a>
</g>
</g>
<!-- Node10&#45;&gt;Node13 -->
<g id="edge12" class="edge">
<title>Node10&#45;&gt;Node13</title>
<path fill="none" stroke="midnightblue" d="M735.78,-56.08C740.67,-48.53 747.83,-37.49 753.83,-28.23"/>
<polygon fill="midnightblue" stroke="midnightblue" points="756.83,-30.05 759.33,-19.75 750.95,-26.24 756.83,-30.05"/>
</g>
<!-- Node14 -->
<g id="node14" class="node">
<title>Node14</title>
<g id="a_node14"><a xlink:title=" ">
<polygon fill="white" stroke="#bfbfbf" points="807.5,-0.5 807.5,-19.5 860.5,-19.5 860.5,-0.5 807.5,-0.5"/>
<text text-anchor="middle" x="834" y="-7.5" font-family="Helvetica,sans-Serif" font-size="10.00">QString</text>
</a>
</g>
</g>
<!-- Node10&#45;&gt;Node14 -->
<g id="edge13" class="edge">
<title>Node10&#45;&gt;Node14</title>
<path fill="none" stroke="midnightblue" d="M746.71,-56.32C763.31,-47.7 789,-34.36 808.22,-24.39"/>
<polygon fill="midnightblue" stroke="midnightblue" points="810.07,-27.37 817.33,-19.65 806.84,-21.16 810.07,-27.37"/>
</g>
</g>
</svg>
