<?xml version="1.0" encoding="UTF-8" standalone="no"?>
<!DOCTYPE svg PUBLIC "-//W3C//DTD SVG 1.1//EN"
 "http://www.w3.org/Graphics/SVG/1.1/DTD/svg11.dtd">
<!-- Generated by graphviz version 2.43.0 (0)
 -->
<!-- Title: /home/runner/work/doxygen/antimicrox/src/eventhandlers/winsendinputeventhandler.h Pages: 1 -->
<!--zoomable 162 -->
<svg id="main" version="1.1" xmlns="http://www.w3.org/2000/svg" xmlns:xlink="http://www.w3.org/1999/xlink" xml:space="preserve" onload="init(evt)">
<style type="text/css"><![CDATA[
.edge:hover path { stroke: red; }
.edge:hover polygon { stroke: red; fill: red; }
]]></style>
<script type="text/javascript"><![CDATA[
var edges = document.getElementsByTagName('g');
if (edges && edges.length) {
  for (var i=0;i<edges.length;i++) {
    if (edges[i].id.substr(0,4)=='edge') {
      edges[i].setAttribute('class','edge');
    }
  }
}
]]></script>
        <defs>
                <circle id="rim" cx="0" cy="0" r="7"/>
                <circle id="rim2" cx="0" cy="0" r="3.5"/>
                <g id="zoomPlus">
                        <use xlink:href="#rim" fill="#404040">
                                <set attributeName="fill" to="#808080" begin="zoomplus.mouseover" end="zoomplus.mouseout"/>
                        </use>
                        <path d="M-4,0h8M0,-4v8" fill="none" stroke="white" stroke-width="1.5" pointer-events="none"/>
                </g>
                <g id="zoomMin">
                        <use xlink:href="#rim" fill="#404040">
                                <set attributeName="fill" to="#808080" begin="zoomminus.mouseover" end="zoomminus.mouseout"/>
                        </use>
                        <path d="M-4,0h8" fill="none" stroke="white" stroke-width="1.5" pointer-events="none"/>
                </g>
                <g id="dirArrow">
                        <path fill="none" stroke="white" stroke-width="1.5" d="M0,-3.0v7 M-2.5,-0.5L0,-3.0L2.5,-0.5"/>
                </g>
               <g id="resetDef">
                       <use xlink:href="#rim2" fill="#404040">
                               <set attributeName="fill" to="#808080" begin="reset.mouseover" end="reset.mouseout"/>
                       </use>
               </g>
        </defs>

<script type="text/javascript">
var viewWidth = 546;
var viewHeight = 162;
var sectionId = 'dynsection-0';
</script>
<script xlink:href="svgpan.js"/>
<svg id="graph" class="graph">
<g id="viewport">
<title>/home/runner/work/doxygen/antimicrox/src/eventhandlers/winsendinputeventhandler.h</title>
<polygon fill="white" stroke="transparent" points="-4,4 -4,-158 541.5,-158 541.5,4 -4,4"/>
<!-- Node1 -->
<g id="node1" class="node">
<title>Node1</title>
<g id="a_node1"><a xlink:title=" ">
<polygon fill="#bfbfbf" stroke="black" points="22,-112.5 22,-153.5 184,-153.5 184,-112.5 22,-112.5"/>
<text text-anchor="start" x="30" y="-141.5" font-family="Helvetica,sans-Serif" font-size="10.00">/home/runner/work/doxygen</text>
<text text-anchor="start" x="30" y="-130.5" font-family="Helvetica,sans-Serif" font-size="10.00">/antimicrox/src/eventhandlers</text>
<text text-anchor="middle" x="103" y="-119.5" font-family="Helvetica,sans-Serif" font-size="10.00">/winsendinputeventhandler.h</text>
</a>
</g>
</g>
<!-- Node2 -->
<g id="node2" class="node">
<title>Node2</title>
<g id="a_node2"><a xlink:title=" ">
<polygon fill="white" stroke="#bfbfbf" points="0,-0.5 0,-19.5 56,-19.5 56,-0.5 0,-0.5"/>
<text text-anchor="middle" x="28" y="-7.5" font-family="Helvetica,sans-Serif" font-size="10.00">QObject</text>
</a>
</g>
</g>
<!-- Node1&#45;&gt;Node2 -->
<g id="edge1" class="edge">
<title>Node1&#45;&gt;Node2</title>
<path fill="none" stroke="midnightblue" d="M70.85,-112.27C58.26,-102.86 44.96,-90.49 37,-76 29.2,-61.8 27.29,-43.32 27.13,-29.7"/>
<polygon fill="midnightblue" stroke="midnightblue" points="30.63,-29.66 27.32,-19.6 23.63,-29.53 30.63,-29.66"/>
</g>
<!-- Node3 -->
<g id="node3" class="node">
<title>Node3</title>
<g id="a_node3"><a xlink:href="baseeventhandler_8h.html" target="_top" xlink:title=" ">
<polygon fill="white" stroke="black" points="46.5,-56.5 46.5,-75.5 159.5,-75.5 159.5,-56.5 46.5,-56.5"/>
<text text-anchor="middle" x="103" y="-63.5" font-family="Helvetica,sans-Serif" font-size="10.00">baseeventhandler.h</text>
</a>
</g>
</g>
<!-- Node1&#45;&gt;Node3 -->
<g id="edge2" class="edge">
<title>Node1&#45;&gt;Node3</title>
<path fill="none" stroke="midnightblue" d="M103,-112.5C103,-104.07 103,-94.24 103,-85.87"/>
<polygon fill="midnightblue" stroke="midnightblue" points="106.5,-85.65 103,-75.65 99.5,-85.65 106.5,-85.65"/>
</g>
<!-- Node4 -->
<g id="node4" class="node">
<title>Node4</title>
<g id="a_node4"><a xlink:href="joybuttonslot_8h.html" target="_top" xlink:title=" ">
<polygon fill="white" stroke="black" points="178,-56.5 178,-75.5 268,-75.5 268,-56.5 178,-56.5"/>
<text text-anchor="middle" x="223" y="-63.5" font-family="Helvetica,sans-Serif" font-size="10.00">joybuttonslot.h</text>
</a>
</g>
</g>
<!-- Node1&#45;&gt;Node4 -->
<g id="edge4" class="edge">
<title>Node1&#45;&gt;Node4</title>
<path fill="none" stroke="midnightblue" d="M139,-112.5C158.11,-102.15 181.1,-89.69 198.2,-80.43"/>
<polygon fill="midnightblue" stroke="midnightblue" points="199.9,-83.49 207.03,-75.65 196.57,-77.34 199.9,-83.49"/>
</g>
<!-- Node3&#45;&gt;Node2 -->
<g id="edge3" class="edge">
<title>Node3&#45;&gt;Node2</title>
<path fill="none" stroke="midnightblue" d="M90.95,-56.32C79.54,-48.11 62.17,-35.6 48.57,-25.81"/>
<polygon fill="midnightblue" stroke="midnightblue" points="50.43,-22.84 40.27,-19.83 46.34,-28.52 50.43,-22.84"/>
</g>
<!-- Node4&#45;&gt;Node2 -->
<g id="edge6" class="edge">
<title>Node4&#45;&gt;Node2</title>
<path fill="none" stroke="midnightblue" d="M192.1,-56.44C157.94,-46.98 102.89,-31.74 66.08,-21.55"/>
<polygon fill="midnightblue" stroke="midnightblue" points="66.79,-18.11 56.22,-18.82 64.92,-24.86 66.79,-18.11"/>
</g>
<!-- Node5 -->
<g id="node5" class="node">
<title>Node5</title>
<g id="a_node5"><a xlink:title=" ">
<polygon fill="white" stroke="#bfbfbf" points="74.5,-0.5 74.5,-19.5 165.5,-19.5 165.5,-0.5 74.5,-0.5"/>
<text text-anchor="middle" x="120" y="-7.5" font-family="Helvetica,sans-Serif" font-size="10.00">QElapsedTimer</text>
</a>
</g>
</g>
<!-- Node4&#45;&gt;Node5 -->
<g id="edge5" class="edge">
<title>Node4&#45;&gt;Node5</title>
<path fill="none" stroke="midnightblue" d="M206.45,-56.32C190.01,-47.7 164.57,-34.36 145.53,-24.39"/>
<polygon fill="midnightblue" stroke="midnightblue" points="146.99,-21.2 136.51,-19.65 143.74,-27.4 146.99,-21.2"/>
</g>
<!-- Node6 -->
<g id="node6" class="node">
<title>Node6</title>
<g id="a_node6"><a xlink:title=" ">
<polygon fill="white" stroke="#bfbfbf" points="183.5,-0.5 183.5,-19.5 242.5,-19.5 242.5,-0.5 183.5,-0.5"/>
<text text-anchor="middle" x="213" y="-7.5" font-family="Helvetica,sans-Serif" font-size="10.00">QPointer</text>
</a>
</g>
</g>
<!-- Node4&#45;&gt;Node6 -->
<g id="edge7" class="edge">
<title>Node4&#45;&gt;Node6</title>
<path fill="none" stroke="midnightblue" d="M221.35,-56.08C220.02,-48.93 218.12,-38.64 216.46,-29.69"/>
<polygon fill="midnightblue" stroke="midnightblue" points="219.88,-28.95 214.62,-19.75 213,-30.22 219.88,-28.95"/>
</g>
<!-- Node7 -->
<g id="node7" class="node">
<title>Node7</title>
<g id="a_node7"><a xlink:title=" ">
<polygon fill="white" stroke="#bfbfbf" points="260.5,-0.5 260.5,-19.5 309.5,-19.5 309.5,-0.5 260.5,-0.5"/>
<text text-anchor="middle" x="285" y="-7.5" font-family="Helvetica,sans-Serif" font-size="10.00">QTime</text>
</a>
</g>
</g>
<!-- Node4&#45;&gt;Node7 -->
<g id="edge8" class="edge">
<title>Node4&#45;&gt;Node7</title>
<path fill="none" stroke="midnightblue" d="M232.96,-56.32C242.13,-48.34 255.94,-36.31 267.03,-26.65"/>
<polygon fill="midnightblue" stroke="midnightblue" points="269.62,-29.04 274.86,-19.83 265.02,-23.76 269.62,-29.04"/>
</g>
<!-- Node8 -->
<g id="node8" class="node">
<title>Node8</title>
<g id="a_node8"><a xlink:title=" ">
<polygon fill="white" stroke="#bfbfbf" points="327.5,-0.5 327.5,-19.5 386.5,-19.5 386.5,-0.5 327.5,-0.5"/>
<text text-anchor="middle" x="357" y="-7.5" font-family="Helvetica,sans-Serif" font-size="10.00">QVariant</text>
</a>
</g>
</g>
<!-- Node4&#45;&gt;Node8 -->
<g id="edge9" class="edge">
<title>Node4&#45;&gt;Node8</title>
<path fill="none" stroke="midnightblue" d="M244.23,-56.44C266.38,-47.52 301.32,-33.44 326.44,-23.32"/>
<polygon fill="midnightblue" stroke="midnightblue" points="327.9,-26.5 335.87,-19.52 325.28,-20.01 327.9,-26.5"/>
</g>
<!-- Node9 -->
<g id="node9" class="node">
<title>Node9</title>
<g id="a_node9"><a xlink:title=" ">
<polygon fill="white" stroke="#bfbfbf" points="404.5,-0.5 404.5,-19.5 537.5,-19.5 537.5,-0.5 404.5,-0.5"/>
<text text-anchor="middle" x="471" y="-7.5" font-family="Helvetica,sans-Serif" font-size="10.00">QtWidgets/QApplication</text>
</a>
</g>
</g>
<!-- Node4&#45;&gt;Node9 -->
<g id="edge10" class="edge">
<title>Node4&#45;&gt;Node9</title>
<path fill="none" stroke="midnightblue" d="M262.3,-56.44C305.56,-47.02 375.17,-31.87 421.97,-21.68"/>
<polygon fill="midnightblue" stroke="midnightblue" points="422.86,-25.06 431.89,-19.52 421.37,-18.22 422.86,-25.06"/>
</g>
</g>
</svg>
        <g id="navigator" transform="translate(0 0)" fill="#404254">
                <rect fill="#f2f5e9" fill-opacity="0.5" stroke="#606060" stroke-width=".5" x="0" y="0" width="60" height="60"/>
                <use id="zoomplus" xlink:href="#zoomPlus" x="17" y="9" onmousedown="handleZoom(evt,'in')"/>
                <use id="zoomminus" xlink:href="#zoomMin" x="42" y="9" onmousedown="handleZoom(evt,'out')"/>
                <use id="reset" xlink:href="#resetDef" x="30" y="36" onmousedown="handleReset()"/>
                <g id="arrowUp" xlink:href="#dirArrow" transform="translate(30 24)" onmousedown="handlePan(0,-1)">
                  <use xlink:href="#rim" fill="#404040">
                        <set attributeName="fill" to="#808080" begin="arrowUp.mouseover" end="arrowUp.mouseout"/>
                  </use>
                  <path fill="none" stroke="white" stroke-width="1.5" d="M0,-3.0v7 M-2.5,-0.5L0,-3.0L2.5,-0.5"/>
                </g>
                <g id="arrowRight" xlink:href="#dirArrow" transform="rotate(90) translate(36 -43)" onmousedown="handlePan(1,0)">
                  <use xlink:href="#rim" fill="#404040">
                        <set attributeName="fill" to="#808080" begin="arrowRight.mouseover" end="arrowRight.mouseout"/>
                  </use>
                  <path fill="none" stroke="white" stroke-width="1.5" d="M0,-3.0v7 M-2.5,-0.5L0,-3.0L2.5,-0.5"/>
                </g>
                <g id="arrowDown" xlink:href="#dirArrow" transform="rotate(180) translate(-30 -48)" onmousedown="handlePan(0,1)">
                  <use xlink:href="#rim" fill="#404040">
                        <set attributeName="fill" to="#808080" begin="arrowDown.mouseover" end="arrowDown.mouseout"/>
                  </use>
                  <path fill="none" stroke="white" stroke-width="1.5" d="M0,-3.0v7 M-2.5,-0.5L0,-3.0L2.5,-0.5"/>
                </g>
                <g id="arrowLeft" xlink:href="#dirArrow" transform="rotate(270) translate(-36 17)" onmousedown="handlePan(-1,0)">
                  <use xlink:href="#rim" fill="#404040">
                        <set attributeName="fill" to="#808080" begin="arrowLeft.mouseover" end="arrowLeft.mouseout"/>
                  </use>
                  <path fill="none" stroke="white" stroke-width="1.5" d="M0,-3.0v7 M-2.5,-0.5L0,-3.0L2.5,-0.5"/>
                </g>
        </g>
        <svg viewBox="0 0 15 15" width="100%" height="30px" preserveAspectRatio="xMaxYMin meet">
         <g id="arrow_out" transform="scale(0.3 0.3)">
          <a xlink:href="winsendinputeventhandler_8h__incl_org.svg" target="_base">
           <rect id="button" ry="5" rx="5" y="6" x="6" height="38" width="38"
                fill="#f2f5e9" fill-opacity="0.5" stroke="#606060" stroke-width="1.0"/>
           <path id="arrow"
             d="M 11.500037,31.436501 C 11.940474,20.09759 22.043105,11.32322 32.158766,21.979434 L 37.068811,17.246167 C 37.068811,17.246167 37.088388,32 37.088388,32 L 22.160133,31.978069 C 22.160133,31.978069 26.997745,27.140456 26.997745,27.140456 C 18.528582,18.264221 13.291696,25.230495 11.500037,31.436501 z"
             style="fill:#404040;"/>
          </a>
         </g>
        </svg>
</svg>
