<?xml version="1.0" encoding="UTF-8" standalone="no"?>
<!DOCTYPE svg PUBLIC "-//W3C//DTD SVG 1.1//EN"
 "http://www.w3.org/Graphics/SVG/1.1/DTD/svg11.dtd">
<!-- Generated by graphviz version 2.43.0 (0)
 -->
<!-- Title: /home/runner/work/doxygen/antimicrox/src/eventhandlers/winvmultieventhandler.cpp Pages: 1 -->
<!--zoomable 274 -->
<svg id="main" version="1.1" xmlns="http://www.w3.org/2000/svg" xmlns:xlink="http://www.w3.org/1999/xlink" xml:space="preserve" onload="init(evt)">
<style type="text/css"><![CDATA[
.edge:hover path { stroke: red; }
.edge:hover polygon { stroke: red; fill: red; }
]]></style>
<script type="text/javascript"><![CDATA[
var edges = document.getElementsByTagName('g');
if (edges && edges.length) {
  for (var i=0;i<edges.length;i++) {
    if (edges[i].id.substr(0,4)=='edge') {
      edges[i].setAttribute('class','edge');
    }
  }
}
]]></script>
        <defs>
                <circle id="rim" cx="0" cy="0" r="7"/>
                <circle id="rim2" cx="0" cy="0" r="3.5"/>
                <g id="zoomPlus">
                        <use xlink:href="#rim" fill="#404040">
                                <set attributeName="fill" to="#808080" begin="zoomplus.mouseover" end="zoomplus.mouseout"/>
                        </use>
                        <path d="M-4,0h8M0,-4v8" fill="none" stroke="white" stroke-width="1.5" pointer-events="none"/>
                </g>
                <g id="zoomMin">
                        <use xlink:href="#rim" fill="#404040">
                                <set attributeName="fill" to="#808080" begin="zoomminus.mouseover" end="zoomminus.mouseout"/>
                        </use>
                        <path d="M-4,0h8" fill="none" stroke="white" stroke-width="1.5" pointer-events="none"/>
                </g>
                <g id="dirArrow">
                        <path fill="none" stroke="white" stroke-width="1.5" d="M0,-3.0v7 M-2.5,-0.5L0,-3.0L2.5,-0.5"/>
                </g>
               <g id="resetDef">
                       <use xlink:href="#rim2" fill="#404040">
                               <set attributeName="fill" to="#808080" begin="reset.mouseover" end="reset.mouseout"/>
                       </use>
               </g>
        </defs>

<script type="text/javascript">
var viewWidth = 1006;
var viewHeight = 274;
var sectionId = 'dynsection-0';
</script>
<script xlink:href="svgpan.js"/>
<svg id="graph" class="graph">
<g id="viewport">
<title>/home/runner/work/doxygen/antimicrox/src/eventhandlers/winvmultieventhandler.cpp</title>
<polygon fill="white" stroke="transparent" points="-4,4 -4,-270 1002,-270 1002,4 -4,4"/>
<!-- Node1 -->
<g id="node1" class="node">
<title>Node1</title>
<g id="a_node1"><a xlink:title=" ">
<polygon fill="#bfbfbf" stroke="black" points="95.5,-224.5 95.5,-265.5 257.5,-265.5 257.5,-224.5 95.5,-224.5"/>
<text text-anchor="start" x="103.5" y="-253.5" font-family="Helvetica,sans-Serif" font-size="10.00">/home/runner/work/doxygen</text>
<text text-anchor="start" x="103.5" y="-242.5" font-family="Helvetica,sans-Serif" font-size="10.00">/antimicrox/src/eventhandlers</text>
<text text-anchor="middle" x="176.5" y="-231.5" font-family="Helvetica,sans-Serif" font-size="10.00">/winvmultieventhandler.cpp</text>
</a>
</g>
</g>
<!-- Node2 -->
<g id="node2" class="node">
<title>Node2</title>
<g id="a_node2"><a xlink:title=" ">
<polygon fill="white" stroke="#bfbfbf" points="0,-168.5 0,-187.5 47,-187.5 47,-168.5 0,-168.5"/>
<text text-anchor="middle" x="23.5" y="-175.5" font-family="Helvetica,sans-Serif" font-size="10.00">cmath</text>
</a>
</g>
</g>
<!-- Node1&#45;&gt;Node2 -->
<g id="edge1" class="edge">
<title>Node1&#45;&gt;Node2</title>
<path fill="none" stroke="midnightblue" d="M130.59,-224.5C105.56,-213.86 75.29,-201 53.32,-191.67"/>
<polygon fill="midnightblue" stroke="midnightblue" points="54.44,-188.34 43.87,-187.65 51.7,-194.78 54.44,-188.34"/>
</g>
<!-- Node3 -->
<g id="node3" class="node">
<title>Node3</title>
<g id="a_node3"><a xlink:title=" ">
<polygon fill="white" stroke="#bfbfbf" points="65,-168.5 65,-187.5 148,-187.5 148,-168.5 65,-168.5"/>
<text text-anchor="middle" x="106.5" y="-175.5" font-family="Helvetica,sans-Serif" font-size="10.00">qt_windows.h</text>
</a>
</g>
</g>
<!-- Node1&#45;&gt;Node3 -->
<g id="edge2" class="edge">
<title>Node1&#45;&gt;Node3</title>
<path fill="none" stroke="midnightblue" d="M155.5,-224.5C145.18,-214.92 132.91,-203.53 123.24,-194.54"/>
<polygon fill="midnightblue" stroke="midnightblue" points="125.53,-191.89 115.82,-187.65 120.76,-197.02 125.53,-191.89"/>
</g>
<!-- Node4 -->
<g id="node4" class="node">
<title>Node4</title>
<g id="a_node4"><a xlink:href="winextras_8h.html" target="_top" xlink:title=" ">
<polygon fill="white" stroke="black" points="116.5,-112.5 116.5,-131.5 190.5,-131.5 190.5,-112.5 116.5,-112.5"/>
<text text-anchor="middle" x="153.5" y="-119.5" font-family="Helvetica,sans-Serif" font-size="10.00">winextras.h</text>
</a>
</g>
</g>
<!-- Node1&#45;&gt;Node4 -->
<g id="edge3" class="edge">
<title>Node1&#45;&gt;Node4</title>
<path fill="none" stroke="midnightblue" d="M172.75,-224.29C168.4,-201.37 161.26,-163.85 157.01,-141.47"/>
<polygon fill="midnightblue" stroke="midnightblue" points="160.44,-140.75 155.13,-131.57 153.56,-142.05 160.44,-140.75"/>
</g>
<!-- Node9 -->
<g id="node9" class="node">
<title>Node9</title>
<g id="a_node9"><a xlink:href="winvmultieventhandler_8h.html" target="_top" xlink:title=" ">
<polygon fill="white" stroke="black" points="385.5,-168.5 385.5,-187.5 523.5,-187.5 523.5,-168.5 385.5,-168.5"/>
<text text-anchor="middle" x="454.5" y="-175.5" font-family="Helvetica,sans-Serif" font-size="10.00">winvmultieventhandler.h</text>
</a>
</g>
</g>
<!-- Node1&#45;&gt;Node9 -->
<g id="edge8" class="edge">
<title>Node1&#45;&gt;Node9</title>
<path fill="none" stroke="midnightblue" d="M257.66,-225.02C306.56,-213.59 367.09,-199.44 408.02,-189.87"/>
<polygon fill="midnightblue" stroke="midnightblue" points="409.04,-193.22 417.98,-187.54 407.45,-186.41 409.04,-193.22"/>
</g>
<!-- Node21 -->
<g id="node21" class="node">
<title>Node21</title>
<g id="a_node21"><a xlink:href="qtvmultikeymapper_8h.html" target="_top" xlink:title=" ">
<polygon fill="white" stroke="black" points="205,-168.5 205,-187.5 326,-187.5 326,-168.5 205,-168.5"/>
<text text-anchor="middle" x="265.5" y="-175.5" font-family="Helvetica,sans-Serif" font-size="10.00">qtvmultikeymapper.h</text>
</a>
</g>
</g>
<!-- Node1&#45;&gt;Node21 -->
<g id="edge27" class="edge">
<title>Node1&#45;&gt;Node21</title>
<path fill="none" stroke="midnightblue" d="M203.2,-224.5C216.72,-214.63 232.85,-202.84 245.32,-193.74"/>
<polygon fill="midnightblue" stroke="midnightblue" points="247.64,-196.38 253.65,-187.65 243.51,-190.72 247.64,-196.38"/>
</g>
<!-- Node5 -->
<g id="node5" class="node">
<title>Node5</title>
<g id="a_node5"><a xlink:title=" ">
<polygon fill="white" stroke="#bfbfbf" points="235,-56.5 235,-75.5 284,-75.5 284,-56.5 235,-56.5"/>
<text text-anchor="middle" x="259.5" y="-63.5" font-family="Helvetica,sans-Serif" font-size="10.00">QHash</text>
</a>
</g>
</g>
<!-- Node4&#45;&gt;Node5 -->
<g id="edge4" class="edge">
<title>Node4&#45;&gt;Node5</title>
<path fill="none" stroke="midnightblue" d="M170.53,-112.32C187.53,-103.66 213.88,-90.24 233.49,-80.25"/>
<polygon fill="midnightblue" stroke="midnightblue" points="235.19,-83.31 242.51,-75.65 232.01,-77.08 235.19,-83.31"/>
</g>
<!-- Node6 -->
<g id="node6" class="node">
<title>Node6</title>
<g id="a_node6"><a xlink:title=" ">
<polygon fill="white" stroke="#bfbfbf" points="398.5,-0.5 398.5,-19.5 454.5,-19.5 454.5,-0.5 398.5,-0.5"/>
<text text-anchor="middle" x="426.5" y="-7.5" font-family="Helvetica,sans-Serif" font-size="10.00">QObject</text>
</a>
</g>
</g>
<!-- Node4&#45;&gt;Node6 -->
<g id="edge5" class="edge">
<title>Node4&#45;&gt;Node6</title>
<path fill="none" stroke="midnightblue" d="M160.47,-112.31C172.28,-98.18 197.68,-70.39 225.5,-56 277.91,-28.89 346.27,-18.03 388.24,-13.74"/>
<polygon fill="midnightblue" stroke="midnightblue" points="388.69,-17.21 398.32,-12.78 388.03,-10.24 388.69,-17.21"/>
</g>
<!-- Node7 -->
<g id="node7" class="node">
<title>Node7</title>
<g id="a_node7"><a xlink:title=" ">
<polygon fill="white" stroke="#bfbfbf" points="58,-56.5 58,-75.5 107,-75.5 107,-56.5 58,-56.5"/>
<text text-anchor="middle" x="82.5" y="-63.5" font-family="Helvetica,sans-Serif" font-size="10.00">QPoint</text>
</a>
</g>
</g>
<!-- Node4&#45;&gt;Node7 -->
<g id="edge6" class="edge">
<title>Node4&#45;&gt;Node7</title>
<path fill="none" stroke="midnightblue" d="M142.09,-112.32C131.39,-104.18 115.16,-91.84 102.34,-82.09"/>
<polygon fill="midnightblue" stroke="midnightblue" points="104.19,-79.1 94.11,-75.83 99.96,-84.67 104.19,-79.1"/>
</g>
<!-- Node8 -->
<g id="node8" class="node">
<title>Node8</title>
<g id="a_node8"><a xlink:title=" ">
<polygon fill="white" stroke="#bfbfbf" points="125,-56.5 125,-75.5 178,-75.5 178,-56.5 125,-56.5"/>
<text text-anchor="middle" x="151.5" y="-63.5" font-family="Helvetica,sans-Serif" font-size="10.00">QString</text>
</a>
</g>
</g>
<!-- Node4&#45;&gt;Node8 -->
<g id="edge7" class="edge">
<title>Node4&#45;&gt;Node8</title>
<path fill="none" stroke="midnightblue" d="M153.17,-112.08C152.91,-105.01 152.53,-94.86 152.2,-85.99"/>
<polygon fill="midnightblue" stroke="midnightblue" points="155.69,-85.61 151.82,-75.75 148.7,-85.87 155.69,-85.61"/>
</g>
<!-- Node9&#45;&gt;Node6 -->
<g id="edge9" class="edge">
<title>Node9&#45;&gt;Node6</title>
<path fill="none" stroke="midnightblue" d="M442.69,-168.38C422.51,-152.74 382.38,-117.43 370.5,-76 368.05,-67.46 366.66,-64.02 370.5,-56 376.75,-42.95 388.84,-32.49 400.18,-24.95"/>
<polygon fill="midnightblue" stroke="midnightblue" points="402.31,-27.75 409,-19.54 398.65,-21.79 402.31,-27.75"/>
</g>
<!-- Node10 -->
<g id="node10" class="node">
<title>Node10</title>
<g id="a_node10"><a xlink:title=" ">
<polygon fill="white" stroke="#bfbfbf" points="455,-112.5 455,-131.5 510,-131.5 510,-112.5 455,-112.5"/>
<text text-anchor="middle" x="482.5" y="-119.5" font-family="Helvetica,sans-Serif" font-size="10.00">QVector</text>
</a>
</g>
</g>
<!-- Node9&#45;&gt;Node10 -->
<g id="edge10" class="edge">
<title>Node9&#45;&gt;Node10</title>
<path fill="none" stroke="midnightblue" d="M459.12,-168.08C462.96,-160.69 468.52,-149.95 473.26,-140.81"/>
<polygon fill="midnightblue" stroke="midnightblue" points="476.47,-142.24 477.96,-131.75 470.25,-139.02 476.47,-142.24"/>
</g>
<!-- Node11 -->
<g id="node11" class="node">
<title>Node11</title>
<g id="a_node11"><a xlink:href="baseeventhandler_8h.html" target="_top" xlink:title=" ">
<polygon fill="white" stroke="black" points="492,-56.5 492,-75.5 605,-75.5 605,-56.5 492,-56.5"/>
<text text-anchor="middle" x="548.5" y="-63.5" font-family="Helvetica,sans-Serif" font-size="10.00">baseeventhandler.h</text>
</a>
</g>
</g>
<!-- Node9&#45;&gt;Node11 -->
<g id="edge11" class="edge">
<title>Node9&#45;&gt;Node11</title>
<path fill="none" stroke="midnightblue" d="M450.05,-168.19C444.01,-154.88 435.2,-129.34 446.5,-112 456.98,-95.92 474.64,-85.55 492.35,-78.87"/>
<polygon fill="midnightblue" stroke="midnightblue" points="493.81,-82.07 502.14,-75.53 491.55,-75.45 493.81,-82.07"/>
</g>
<!-- Node12 -->
<g id="node12" class="node">
<title>Node12</title>
<g id="a_node12"><a xlink:href="joybuttonslot_8h.html" target="_top" xlink:title=" ">
<polygon fill="white" stroke="black" points="663.5,-56.5 663.5,-75.5 753.5,-75.5 753.5,-56.5 663.5,-56.5"/>
<text text-anchor="middle" x="708.5" y="-63.5" font-family="Helvetica,sans-Serif" font-size="10.00">joybuttonslot.h</text>
</a>
</g>
</g>
<!-- Node9&#45;&gt;Node12 -->
<g id="edge13" class="edge">
<title>Node9&#45;&gt;Node12</title>
<path fill="none" stroke="midnightblue" d="M523.71,-172.69C618.19,-166.09 777.88,-152.09 795.5,-132 814.87,-109.9 778.4,-90.62 746.91,-78.91"/>
<polygon fill="midnightblue" stroke="midnightblue" points="747.95,-75.57 737.36,-75.53 745.61,-82.17 747.95,-75.57"/>
</g>
<!-- Node18 -->
<g id="node18" class="node">
<title>Node18</title>
<g id="a_node18"><a xlink:title=" ">
<polygon fill="white" stroke="#bfbfbf" points="528.5,-112.5 528.5,-131.5 612.5,-131.5 612.5,-112.5 528.5,-112.5"/>
<text text-anchor="middle" x="570.5" y="-119.5" font-family="Helvetica,sans-Serif" font-size="10.00">vmulticlient.h</text>
</a>
</g>
</g>
<!-- Node9&#45;&gt;Node18 -->
<g id="edge20" class="edge">
<title>Node9&#45;&gt;Node18</title>
<path fill="none" stroke="midnightblue" d="M472.88,-168.44C491.72,-159.68 521.23,-145.94 542.88,-135.86"/>
<polygon fill="midnightblue" stroke="midnightblue" points="544.62,-138.91 552.21,-131.52 541.66,-132.56 544.62,-138.91"/>
</g>
<!-- Node19 -->
<g id="node19" class="node">
<title>Node19</title>
<g id="a_node19"><a xlink:href="winsendinputeventhandler_8h.html" target="_top" xlink:title=" ">
<polygon fill="white" stroke="black" points="631,-112.5 631,-131.5 786,-131.5 786,-112.5 631,-112.5"/>
<text text-anchor="middle" x="708.5" y="-119.5" font-family="Helvetica,sans-Serif" font-size="10.00">winsendinputeventhandler.h</text>
</a>
</g>
</g>
<!-- Node9&#45;&gt;Node19 -->
<g id="edge21" class="edge">
<title>Node9&#45;&gt;Node19</title>
<path fill="none" stroke="midnightblue" d="M494.75,-168.44C539.15,-159 610.65,-143.8 658.59,-133.61"/>
<polygon fill="midnightblue" stroke="midnightblue" points="659.39,-137.02 668.44,-131.52 657.93,-130.17 659.39,-137.02"/>
</g>
<!-- Node20 -->
<g id="node20" class="node">
<title>Node20</title>
<g id="a_node20"><a xlink:href="antkeymapper_8h.html" target="_top" xlink:title=" ">
<polygon fill="white" stroke="black" points="379,-56.5 379,-75.5 474,-75.5 474,-56.5 379,-56.5"/>
<text text-anchor="middle" x="426.5" y="-63.5" font-family="Helvetica,sans-Serif" font-size="10.00">antkeymapper.h</text>
</a>
</g>
</g>
<!-- Node9&#45;&gt;Node20 -->
<g id="edge25" class="edge">
<title>Node9&#45;&gt;Node20</title>
<path fill="none" stroke="midnightblue" d="M442.29,-168.24C432.15,-160.14 418.46,-147.11 412.5,-132 406.43,-116.6 411.56,-98.05 417.24,-84.71"/>
<polygon fill="midnightblue" stroke="midnightblue" points="420.4,-86.21 421.52,-75.67 414.08,-83.22 420.4,-86.21"/>
</g>
<!-- Node11&#45;&gt;Node6 -->
<g id="edge12" class="edge">
<title>Node11&#45;&gt;Node6</title>
<path fill="none" stroke="midnightblue" d="M529.17,-56.44C509.18,-47.6 477.76,-33.69 454.94,-23.59"/>
<polygon fill="midnightblue" stroke="midnightblue" points="456.3,-20.36 445.74,-19.52 453.47,-26.76 456.3,-20.36"/>
</g>
<!-- Node12&#45;&gt;Node6 -->
<g id="edge15" class="edge">
<title>Node12&#45;&gt;Node6</title>
<path fill="none" stroke="midnightblue" d="M663.82,-56.44C608.89,-45.93 516.63,-28.26 464.8,-18.33"/>
<polygon fill="midnightblue" stroke="midnightblue" points="465.17,-14.84 454.69,-16.4 463.86,-21.72 465.17,-14.84"/>
</g>
<!-- Node13 -->
<g id="node13" class="node">
<title>Node13</title>
<g id="a_node13"><a xlink:title=" ">
<polygon fill="white" stroke="#bfbfbf" points="907,-0.5 907,-19.5 998,-19.5 998,-0.5 907,-0.5"/>
<text text-anchor="middle" x="952.5" y="-7.5" font-family="Helvetica,sans-Serif" font-size="10.00">QElapsedTimer</text>
</a>
</g>
</g>
<!-- Node12&#45;&gt;Node13 -->
<g id="edge14" class="edge">
<title>Node12&#45;&gt;Node13</title>
<path fill="none" stroke="midnightblue" d="M747.16,-56.44C789.64,-47.04 857.93,-31.93 903.97,-21.74"/>
<polygon fill="midnightblue" stroke="midnightblue" points="905.01,-25.09 914.02,-19.52 903.5,-18.26 905.01,-25.09"/>
</g>
<!-- Node14 -->
<g id="node14" class="node">
<title>Node14</title>
<g id="a_node14"><a xlink:title=" ">
<polygon fill="white" stroke="#bfbfbf" points="535,-0.5 535,-19.5 594,-19.5 594,-0.5 535,-0.5"/>
<text text-anchor="middle" x="564.5" y="-7.5" font-family="Helvetica,sans-Serif" font-size="10.00">QPointer</text>
</a>
</g>
</g>
<!-- Node12&#45;&gt;Node14 -->
<g id="edge16" class="edge">
<title>Node12&#45;&gt;Node14</title>
<path fill="none" stroke="midnightblue" d="M685.68,-56.44C661.67,-47.44 623.67,-33.19 596.63,-23.05"/>
<polygon fill="midnightblue" stroke="midnightblue" points="597.8,-19.75 587.21,-19.52 595.34,-26.3 597.8,-19.75"/>
</g>
<!-- Node15 -->
<g id="node15" class="node">
<title>Node15</title>
<g id="a_node15"><a xlink:title=" ">
<polygon fill="white" stroke="#bfbfbf" points="612,-0.5 612,-19.5 661,-19.5 661,-0.5 612,-0.5"/>
<text text-anchor="middle" x="636.5" y="-7.5" font-family="Helvetica,sans-Serif" font-size="10.00">QTime</text>
</a>
</g>
</g>
<!-- Node12&#45;&gt;Node15 -->
<g id="edge17" class="edge">
<title>Node12&#45;&gt;Node15</title>
<path fill="none" stroke="midnightblue" d="M696.93,-56.32C686.08,-48.18 669.62,-35.84 656.62,-26.09"/>
<polygon fill="midnightblue" stroke="midnightblue" points="658.38,-23.03 648.28,-19.83 654.18,-28.63 658.38,-23.03"/>
</g>
<!-- Node16 -->
<g id="node16" class="node">
<title>Node16</title>
<g id="a_node16"><a xlink:title=" ">
<polygon fill="white" stroke="#bfbfbf" points="679,-0.5 679,-19.5 738,-19.5 738,-0.5 679,-0.5"/>
<text text-anchor="middle" x="708.5" y="-7.5" font-family="Helvetica,sans-Serif" font-size="10.00">QVariant</text>
</a>
</g>
</g>
<!-- Node12&#45;&gt;Node16 -->
<g id="edge18" class="edge">
<title>Node12&#45;&gt;Node16</title>
<path fill="none" stroke="midnightblue" d="M708.5,-56.08C708.5,-49.01 708.5,-38.86 708.5,-29.99"/>
<polygon fill="midnightblue" stroke="midnightblue" points="712,-29.75 708.5,-19.75 705,-29.75 712,-29.75"/>
</g>
<!-- Node17 -->
<g id="node17" class="node">
<title>Node17</title>
<g id="a_node17"><a xlink:title=" ">
<polygon fill="white" stroke="#bfbfbf" points="756,-0.5 756,-19.5 889,-19.5 889,-0.5 756,-0.5"/>
<text text-anchor="middle" x="822.5" y="-7.5" font-family="Helvetica,sans-Serif" font-size="10.00">QtWidgets/QApplication</text>
</a>
</g>
</g>
<!-- Node12&#45;&gt;Node17 -->
<g id="edge19" class="edge">
<title>Node12&#45;&gt;Node17</title>
<path fill="none" stroke="midnightblue" d="M726.56,-56.44C745.07,-47.68 774.08,-33.94 795.36,-23.86"/>
<polygon fill="midnightblue" stroke="midnightblue" points="796.98,-26.96 804.52,-19.52 793.99,-20.63 796.98,-26.96"/>
</g>
<!-- Node19&#45;&gt;Node6 -->
<g id="edge22" class="edge">
<title>Node19&#45;&gt;Node6</title>
<path fill="none" stroke="midnightblue" d="M698.82,-112.45C682.55,-98.54 648.2,-71.05 614.5,-56 565.34,-34.05 503.97,-21.94 464.99,-15.95"/>
<polygon fill="midnightblue" stroke="midnightblue" points="465.03,-12.42 454.62,-14.43 464.01,-19.35 465.03,-12.42"/>
</g>
<!-- Node19&#45;&gt;Node11 -->
<g id="edge23" class="edge">
<title>Node19&#45;&gt;Node11</title>
<path fill="none" stroke="midnightblue" d="M683.15,-112.44C656.23,-103.36 613.5,-88.94 583.41,-78.78"/>
<polygon fill="midnightblue" stroke="midnightblue" points="584.33,-75.4 573.73,-75.52 582.09,-82.03 584.33,-75.4"/>
</g>
<!-- Node19&#45;&gt;Node12 -->
<g id="edge24" class="edge">
<title>Node19&#45;&gt;Node12</title>
<path fill="none" stroke="midnightblue" d="M708.5,-112.08C708.5,-105.01 708.5,-94.86 708.5,-85.99"/>
<polygon fill="midnightblue" stroke="midnightblue" points="712,-85.75 708.5,-75.75 705,-85.75 712,-85.75"/>
</g>
<!-- Node20&#45;&gt;Node6 -->
<g id="edge26" class="edge">
<title>Node20&#45;&gt;Node6</title>
<path fill="none" stroke="midnightblue" d="M426.5,-56.08C426.5,-49.01 426.5,-38.86 426.5,-29.99"/>
<polygon fill="midnightblue" stroke="midnightblue" points="430,-29.75 426.5,-19.75 423,-29.75 430,-29.75"/>
</g>
<!-- Node22 -->
<g id="node22" class="node">
<title>Node22</title>
<g id="a_node22"><a xlink:href="qtkeymapperbase_8h.html" target="_top" xlink:title=" ">
<polygon fill="white" stroke="black" points="209,-112.5 209,-131.5 322,-131.5 322,-112.5 209,-112.5"/>
<text text-anchor="middle" x="265.5" y="-119.5" font-family="Helvetica,sans-Serif" font-size="10.00">qtkeymapperbase.h</text>
</a>
</g>
</g>
<!-- Node21&#45;&gt;Node22 -->
<g id="edge28" class="edge">
<title>Node21&#45;&gt;Node22</title>
<path fill="none" stroke="midnightblue" d="M265.5,-168.08C265.5,-161.01 265.5,-150.86 265.5,-141.99"/>
<polygon fill="midnightblue" stroke="midnightblue" points="269,-141.75 265.5,-131.75 262,-141.75 269,-141.75"/>
</g>
<!-- Node22&#45;&gt;Node5 -->
<g id="edge29" class="edge">
<title>Node22&#45;&gt;Node5</title>
<path fill="none" stroke="midnightblue" d="M264.51,-112.08C263.71,-104.93 262.57,-94.64 261.58,-85.69"/>
<polygon fill="midnightblue" stroke="midnightblue" points="265.06,-85.3 260.47,-75.75 258.1,-86.08 265.06,-85.3"/>
</g>
<!-- Node22&#45;&gt;Node6 -->
<g id="edge30" class="edge">
<title>Node22&#45;&gt;Node6</title>
<path fill="none" stroke="midnightblue" d="M273.59,-112.17C286.13,-98.82 311.44,-73.24 336.5,-56 355.08,-43.22 377.81,-31.89 395.78,-23.79"/>
<polygon fill="midnightblue" stroke="midnightblue" points="397.47,-26.87 405.21,-19.64 394.65,-20.46 397.47,-26.87"/>
</g>
</g>
</svg>
        <g id="navigator" transform="translate(0 0)" fill="#404254">
                <rect fill="#f2f5e9" fill-opacity="0.5" stroke="#606060" stroke-width=".5" x="0" y="0" width="60" height="60"/>
                <use id="zoomplus" xlink:href="#zoomPlus" x="17" y="9" onmousedown="handleZoom(evt,'in')"/>
                <use id="zoomminus" xlink:href="#zoomMin" x="42" y="9" onmousedown="handleZoom(evt,'out')"/>
                <use id="reset" xlink:href="#resetDef" x="30" y="36" onmousedown="handleReset()"/>
                <g id="arrowUp" xlink:href="#dirArrow" transform="translate(30 24)" onmousedown="handlePan(0,-1)">
                  <use xlink:href="#rim" fill="#404040">
                        <set attributeName="fill" to="#808080" begin="arrowUp.mouseover" end="arrowUp.mouseout"/>
                  </use>
                  <path fill="none" stroke="white" stroke-width="1.5" d="M0,-3.0v7 M-2.5,-0.5L0,-3.0L2.5,-0.5"/>
                </g>
                <g id="arrowRight" xlink:href="#dirArrow" transform="rotate(90) translate(36 -43)" onmousedown="handlePan(1,0)">
                  <use xlink:href="#rim" fill="#404040">
                        <set attributeName="fill" to="#808080" begin="arrowRight.mouseover" end="arrowRight.mouseout"/>
                  </use>
                  <path fill="none" stroke="white" stroke-width="1.5" d="M0,-3.0v7 M-2.5,-0.5L0,-3.0L2.5,-0.5"/>
                </g>
                <g id="arrowDown" xlink:href="#dirArrow" transform="rotate(180) translate(-30 -48)" onmousedown="handlePan(0,1)">
                  <use xlink:href="#rim" fill="#404040">
                        <set attributeName="fill" to="#808080" begin="arrowDown.mouseover" end="arrowDown.mouseout"/>
                  </use>
                  <path fill="none" stroke="white" stroke-width="1.5" d="M0,-3.0v7 M-2.5,-0.5L0,-3.0L2.5,-0.5"/>
                </g>
                <g id="arrowLeft" xlink:href="#dirArrow" transform="rotate(270) translate(-36 17)" onmousedown="handlePan(-1,0)">
                  <use xlink:href="#rim" fill="#404040">
                        <set attributeName="fill" to="#808080" begin="arrowLeft.mouseover" end="arrowLeft.mouseout"/>
                  </use>
                  <path fill="none" stroke="white" stroke-width="1.5" d="M0,-3.0v7 M-2.5,-0.5L0,-3.0L2.5,-0.5"/>
                </g>
        </g>
        <svg viewBox="0 0 15 15" width="100%" height="30px" preserveAspectRatio="xMaxYMin meet">
         <g id="arrow_out" transform="scale(0.3 0.3)">
          <a xlink:href="winvmultieventhandler_8cpp__incl_org.svg" target="_base">
           <rect id="button" ry="5" rx="5" y="6" x="6" height="38" width="38"
                fill="#f2f5e9" fill-opacity="0.5" stroke="#606060" stroke-width="1.0"/>
           <path id="arrow"
             d="M 11.500037,31.436501 C 11.940474,20.09759 22.043105,11.32322 32.158766,21.979434 L 37.068811,17.246167 C 37.068811,17.246167 37.088388,32 37.088388,32 L 22.160133,31.978069 C 22.160133,31.978069 26.997745,27.140456 26.997745,27.140456 C 18.528582,18.264221 13.291696,25.230495 11.500037,31.436501 z"
             style="fill:#404040;"/>
          </a>
         </g>
        </svg>
</svg>
