<?xml version="1.0" encoding="UTF-8" standalone="no"?>
<!DOCTYPE svg PUBLIC "-//W3C//DTD SVG 1.1//EN"
 "http://www.w3.org/Graphics/SVG/1.1/DTD/svg11.dtd">
<!-- Generated by graphviz version 2.43.0 (0)
 -->
<!-- Title: /home/runner/work/doxygen/antimicrox/src/xmlconfigmigration.cpp Pages: 1 -->
<!--zoomable 375 -->
<svg id="main" version="1.1" xmlns="http://www.w3.org/2000/svg" xmlns:xlink="http://www.w3.org/1999/xlink" xml:space="preserve" onload="init(evt)">
<style type="text/css"><![CDATA[
.edge:hover path { stroke: red; }
.edge:hover polygon { stroke: red; fill: red; }
]]></style>
<script type="text/javascript"><![CDATA[
var edges = document.getElementsByTagName('g');
if (edges && edges.length) {
  for (var i=0;i<edges.length;i++) {
    if (edges[i].id.substr(0,4)=='edge') {
      edges[i].setAttribute('class','edge');
    }
  }
}
]]></script>
        <defs>
                <circle id="rim" cx="0" cy="0" r="7"/>
                <circle id="rim2" cx="0" cy="0" r="3.5"/>
                <g id="zoomPlus">
                        <use xlink:href="#rim" fill="#404040">
                                <set attributeName="fill" to="#808080" begin="zoomplus.mouseover" end="zoomplus.mouseout"/>
                        </use>
                        <path d="M-4,0h8M0,-4v8" fill="none" stroke="white" stroke-width="1.5" pointer-events="none"/>
                </g>
                <g id="zoomMin">
                        <use xlink:href="#rim" fill="#404040">
                                <set attributeName="fill" to="#808080" begin="zoomminus.mouseover" end="zoomminus.mouseout"/>
                        </use>
                        <path d="M-4,0h8" fill="none" stroke="white" stroke-width="1.5" pointer-events="none"/>
                </g>
                <g id="dirArrow">
                        <path fill="none" stroke="white" stroke-width="1.5" d="M0,-3.0v7 M-2.5,-0.5L0,-3.0L2.5,-0.5"/>
                </g>
               <g id="resetDef">
                       <use xlink:href="#rim2" fill="#404040">
                               <set attributeName="fill" to="#808080" begin="reset.mouseover" end="reset.mouseout"/>
                       </use>
               </g>
        </defs>

<script type="text/javascript">
var viewWidth = 1632;
var viewHeight = 375;
var sectionId = 'dynsection-0';
</script>
<script xlink:href="svgpan.js"/>
<svg id="graph" class="graph">
<g id="viewport">
<title>/home/runner/work/doxygen/antimicrox/src/xmlconfigmigration.cpp</title>
<polygon fill="white" stroke="transparent" points="-4,4 -4,-371 1627.5,-371 1627.5,4 -4,4"/>
<!-- Node1 -->
<g id="node1" class="node">
<title>Node1</title>
<g id="a_node1"><a xlink:title=" ">
<polygon fill="#bfbfbf" stroke="black" points="1075,-336.5 1075,-366.5 1283,-366.5 1283,-336.5 1075,-336.5"/>
<text text-anchor="start" x="1083" y="-354.5" font-family="Helvetica,sans-Serif" font-size="10.00">/home/runner/work/doxygen</text>
<text text-anchor="middle" x="1179" y="-343.5" font-family="Helvetica,sans-Serif" font-size="10.00">/antimicrox/src/xmlconfigmigration.cpp</text>
</a>
</g>
</g>
<!-- Node2 -->
<g id="node2" class="node">
<title>Node2</title>
<g id="a_node2"><a xlink:href="xmlconfigmigration_8h.html" target="_top" xlink:title=" ">
<polygon fill="white" stroke="black" points="205.5,-56.5 205.5,-75.5 326.5,-75.5 326.5,-56.5 205.5,-56.5"/>
<text text-anchor="middle" x="266" y="-63.5" font-family="Helvetica,sans-Serif" font-size="10.00">xmlconfigmigration.h</text>
</a>
</g>
</g>
<!-- Node1&#45;&gt;Node2 -->
<g id="edge1" class="edge">
<title>Node1&#45;&gt;Node2</title>
<path fill="none" stroke="midnightblue" d="M1074.72,-349.68C811.5,-346.22 141,-328.27 141,-235 141,-235 141,-235 141,-177 141,-128.17 195.42,-95.89 232.44,-79.58"/>
<polygon fill="midnightblue" stroke="midnightblue" points="234.05,-82.7 241.9,-75.59 231.32,-76.25 234.05,-82.7"/>
</g>
<!-- Node4 -->
<g id="node4" class="node">
<title>Node4</title>
<g id="a_node4"><a xlink:href="antkeymapper_8h.html" target="_top" xlink:title=" ">
<polygon fill="white" stroke="black" points="1265.5,-112.5 1265.5,-131.5 1360.5,-131.5 1360.5,-112.5 1265.5,-112.5"/>
<text text-anchor="middle" x="1313" y="-119.5" font-family="Helvetica,sans-Serif" font-size="10.00">antkeymapper.h</text>
</a>
</g>
</g>
<!-- Node1&#45;&gt;Node4 -->
<g id="edge3" class="edge">
<title>Node1&#45;&gt;Node4</title>
<path fill="none" stroke="midnightblue" d="M1201.28,-336.38C1225.21,-321.5 1264.58,-297.77 1300,-280 1393.26,-233.2 1458.46,-275.05 1516,-188 1551.84,-133.79 1442.98,-123.36 1371.08,-122.17"/>
<polygon fill="midnightblue" stroke="midnightblue" points="1370.8,-118.66 1360.76,-122.05 1370.72,-125.66 1370.8,-118.66"/>
</g>
<!-- Node5 -->
<g id="node5" class="node">
<title>Node5</title>
<g id="a_node5"><a xlink:href="common_8h.html" target="_top" xlink:title=" ">
<polygon fill="white" stroke="black" points="568,-224.5 568,-243.5 636,-243.5 636,-224.5 568,-224.5"/>
<text text-anchor="middle" x="602" y="-231.5" font-family="Helvetica,sans-Serif" font-size="10.00">common.h</text>
</a>
</g>
</g>
<!-- Node1&#45;&gt;Node5 -->
<g id="edge5" class="edge">
<title>Node1&#45;&gt;Node5</title>
<path fill="none" stroke="midnightblue" d="M1108.83,-336.45C988.45,-312.36 745.94,-263.81 646.29,-243.87"/>
<polygon fill="midnightblue" stroke="midnightblue" points="646.75,-240.39 636.26,-241.86 645.38,-247.25 646.75,-240.39"/>
</g>
<!-- Node24 -->
<g id="node24" class="node">
<title>Node24</title>
<g id="a_node24"><a xlink:href="event_8h.html" target="_top" xlink:title=" ">
<polygon fill="white" stroke="black" points="1125.5,-280.5 1125.5,-299.5 1178.5,-299.5 1178.5,-280.5 1125.5,-280.5"/>
<text text-anchor="middle" x="1152" y="-287.5" font-family="Helvetica,sans-Serif" font-size="10.00">event.h</text>
</a>
</g>
</g>
<!-- Node1&#45;&gt;Node24 -->
<g id="edge27" class="edge">
<title>Node1&#45;&gt;Node24</title>
<path fill="none" stroke="midnightblue" d="M1172.6,-336.4C1168.88,-328.2 1164.15,-317.78 1160.17,-308.99"/>
<polygon fill="midnightblue" stroke="midnightblue" points="1163.25,-307.32 1155.93,-299.66 1156.87,-310.21 1163.25,-307.32"/>
</g>
<!-- Node32 -->
<g id="node32" class="node">
<title>Node32</title>
<g id="a_node32"><a xlink:href="eventhandlerfactory_8h.html" target="_top" xlink:title=" ">
<polygon fill="white" stroke="black" points="393.5,-280.5 393.5,-299.5 516.5,-299.5 516.5,-280.5 393.5,-280.5"/>
<text text-anchor="middle" x="455" y="-287.5" font-family="Helvetica,sans-Serif" font-size="10.00">eventhandlerfactory.h</text>
</a>
</g>
</g>
<!-- Node1&#45;&gt;Node32 -->
<g id="edge37" class="edge">
<title>Node1&#45;&gt;Node32</title>
<path fill="none" stroke="midnightblue" d="M1074.88,-341.94C925.92,-329.7 655.78,-307.5 527.01,-296.92"/>
<polygon fill="midnightblue" stroke="midnightblue" points="527.12,-293.42 516.86,-296.08 526.54,-300.39 527.12,-293.42"/>
</g>
<!-- Node34 -->
<g id="node34" class="node">
<title>Node34</title>
<g id="a_node34"><a xlink:title=" ">
<polygon fill="white" stroke="#bfbfbf" points="1309,-280.5 1309,-299.5 1365,-299.5 1365,-280.5 1309,-280.5"/>
<text text-anchor="middle" x="1337" y="-287.5" font-family="Helvetica,sans-Serif" font-size="10.00">QDebug</text>
</a>
</g>
</g>
<!-- Node1&#45;&gt;Node34 -->
<g id="edge40" class="edge">
<title>Node1&#45;&gt;Node34</title>
<path fill="none" stroke="midnightblue" d="M1216.44,-336.4C1243.19,-326.33 1278.82,-312.91 1304.4,-303.28"/>
<polygon fill="midnightblue" stroke="midnightblue" points="1305.88,-306.46 1314.01,-299.66 1303.42,-299.91 1305.88,-306.46"/>
</g>
<!-- Node35 -->
<g id="node35" class="node">
<title>Node35</title>
<g id="a_node35"><a xlink:title=" ">
<polygon fill="white" stroke="#bfbfbf" points="1383.5,-280.5 1383.5,-299.5 1496.5,-299.5 1496.5,-280.5 1383.5,-280.5"/>
<text text-anchor="middle" x="1440" y="-287.5" font-family="Helvetica,sans-Serif" font-size="10.00">QXmlStreamReader</text>
</a>
</g>
</g>
<!-- Node1&#45;&gt;Node35 -->
<g id="edge41" class="edge">
<title>Node1&#45;&gt;Node35</title>
<path fill="none" stroke="midnightblue" d="M1240.52,-336.47C1287.12,-325.85 1350.19,-311.47 1392.84,-301.75"/>
<polygon fill="midnightblue" stroke="midnightblue" points="1393.71,-305.14 1402.69,-299.51 1392.16,-298.32 1393.71,-305.14"/>
</g>
<!-- Node36 -->
<g id="node36" class="node">
<title>Node36</title>
<g id="a_node36"><a xlink:title=" ">
<polygon fill="white" stroke="#bfbfbf" points="1514.5,-280.5 1514.5,-299.5 1623.5,-299.5 1623.5,-280.5 1514.5,-280.5"/>
<text text-anchor="middle" x="1569" y="-287.5" font-family="Helvetica,sans-Serif" font-size="10.00">QXmlStreamWriter</text>
</a>
</g>
</g>
<!-- Node1&#45;&gt;Node36 -->
<g id="edge42" class="edge">
<title>Node1&#45;&gt;Node36</title>
<path fill="none" stroke="midnightblue" d="M1270.93,-336.47C1342.75,-325.52 1440.76,-310.57 1504.46,-300.85"/>
<polygon fill="midnightblue" stroke="midnightblue" points="1505.02,-304.3 1514.37,-299.33 1503.96,-297.38 1505.02,-304.3"/>
</g>
<!-- Node3 -->
<g id="node3" class="node">
<title>Node3</title>
<g id="a_node3"><a xlink:title=" ">
<polygon fill="white" stroke="#bfbfbf" points="626,-0.5 626,-19.5 682,-19.5 682,-0.5 626,-0.5"/>
<text text-anchor="middle" x="654" y="-7.5" font-family="Helvetica,sans-Serif" font-size="10.00">QObject</text>
</a>
</g>
</g>
<!-- Node2&#45;&gt;Node3 -->
<g id="edge2" class="edge">
<title>Node2&#45;&gt;Node3</title>
<path fill="none" stroke="midnightblue" d="M326.62,-56.56C407.35,-45.33 547.78,-25.78 615.42,-16.37"/>
<polygon fill="midnightblue" stroke="midnightblue" points="616.2,-19.79 625.63,-14.95 615.24,-12.86 616.2,-19.79"/>
</g>
<!-- Node4&#45;&gt;Node3 -->
<g id="edge4" class="edge">
<title>Node4&#45;&gt;Node3</title>
<path fill="none" stroke="midnightblue" d="M1280.86,-112.47C1228.45,-98.84 1121.19,-72.04 1029,-56 906.97,-34.77 760.86,-20.37 692.64,-14.28"/>
<polygon fill="midnightblue" stroke="midnightblue" points="692.64,-10.77 682.37,-13.37 692.03,-17.74 692.64,-10.77"/>
</g>
<!-- Node6 -->
<g id="node6" class="node">
<title>Node6</title>
<g id="a_node6"><a xlink:href="antimicrosettings_8h.html" target="_top" xlink:title=" ">
<polygon fill="white" stroke="black" points="245.5,-168.5 245.5,-187.5 356.5,-187.5 356.5,-168.5 245.5,-168.5"/>
<text text-anchor="middle" x="301" y="-175.5" font-family="Helvetica,sans-Serif" font-size="10.00">antimicrosettings.h</text>
</a>
</g>
</g>
<!-- Node5&#45;&gt;Node6 -->
<g id="edge6" class="edge">
<title>Node5&#45;&gt;Node6</title>
<path fill="none" stroke="midnightblue" d="M567.76,-226.86C516.82,-217.72 420.45,-200.43 358.55,-189.32"/>
<polygon fill="midnightblue" stroke="midnightblue" points="359.01,-185.85 348.55,-187.53 357.77,-192.74 359.01,-185.85"/>
</g>
<!-- Node13 -->
<g id="node13" class="node">
<title>Node13</title>
<g id="a_node13"><a xlink:title=" ">
<polygon fill="white" stroke="#bfbfbf" points="0,-0.5 0,-19.5 58,-19.5 58,-0.5 0,-0.5"/>
<text text-anchor="middle" x="29" y="-7.5" font-family="Helvetica,sans-Serif" font-size="10.00">QThread</text>
</a>
</g>
</g>
<!-- Node5&#45;&gt;Node13 -->
<g id="edge23" class="edge">
<title>Node5&#45;&gt;Node13</title>
<path fill="none" stroke="midnightblue" d="M567.79,-229.93C482.66,-222.13 266.03,-201.23 236,-188 149.83,-150.05 72.47,-64.05 42.35,-27.71"/>
<polygon fill="midnightblue" stroke="midnightblue" points="44.77,-25.13 35.74,-19.6 39.35,-29.56 44.77,-25.13"/>
</g>
<!-- Node16 -->
<g id="node16" class="node">
<title>Node16</title>
<g id="a_node16"><a xlink:title=" ">
<polygon fill="white" stroke="#bfbfbf" points="374.5,-168.5 374.5,-187.5 429.5,-187.5 429.5,-168.5 374.5,-168.5"/>
<text text-anchor="middle" x="402" y="-175.5" font-family="Helvetica,sans-Serif" font-size="10.00">config.h</text>
</a>
</g>
</g>
<!-- Node5&#45;&gt;Node16 -->
<g id="edge17" class="edge">
<title>Node5&#45;&gt;Node16</title>
<path fill="none" stroke="midnightblue" d="M570.31,-224.44C534.87,-214.87 477.51,-199.39 439.77,-189.2"/>
<polygon fill="midnightblue" stroke="midnightblue" points="440.24,-185.7 429.68,-186.47 438.42,-192.46 440.24,-185.7"/>
</g>
<!-- Node17 -->
<g id="node17" class="node">
<title>Node17</title>
<g id="a_node17"><a xlink:href="mousehelper_8h.html" target="_top" xlink:title=" ">
<polygon fill="white" stroke="black" points="897.5,-168.5 897.5,-187.5 986.5,-187.5 986.5,-168.5 897.5,-168.5"/>
<text text-anchor="middle" x="942" y="-175.5" font-family="Helvetica,sans-Serif" font-size="10.00">mousehelper.h</text>
</a>
</g>
</g>
<!-- Node5&#45;&gt;Node17 -->
<g id="edge18" class="edge">
<title>Node5&#45;&gt;Node17</title>
<path fill="none" stroke="midnightblue" d="M636.04,-227.81C688.02,-219.84 790.56,-204.01 887.51,-188.23"/>
<polygon fill="midnightblue" stroke="midnightblue" points="888.17,-191.67 897.47,-186.6 887.04,-184.76 888.17,-191.67"/>
</g>
<!-- Node19 -->
<g id="node19" class="node">
<title>Node19</title>
<g id="a_node19"><a xlink:title=" ">
<polygon fill="white" stroke="#bfbfbf" points="448,-168.5 448,-187.5 486,-187.5 486,-168.5 448,-168.5"/>
<text text-anchor="middle" x="467" y="-175.5" font-family="Helvetica,sans-Serif" font-size="10.00">QDir</text>
</a>
</g>
</g>
<!-- Node5&#45;&gt;Node19 -->
<g id="edge21" class="edge">
<title>Node5&#45;&gt;Node19</title>
<path fill="none" stroke="midnightblue" d="M580.61,-224.44C557.64,-215.25 521.02,-200.61 495.59,-190.43"/>
<polygon fill="midnightblue" stroke="midnightblue" points="496.69,-187.11 486.11,-186.64 494.09,-193.61 496.69,-187.11"/>
</g>
<!-- Node20 -->
<g id="node20" class="node">
<title>Node20</title>
<g id="a_node20"><a xlink:title=" ">
<polygon fill="white" stroke="#bfbfbf" points="504,-168.5 504,-187.5 548,-187.5 548,-168.5 504,-168.5"/>
<text text-anchor="middle" x="526" y="-175.5" font-family="Helvetica,sans-Serif" font-size="10.00">QIcon</text>
</a>
</g>
</g>
<!-- Node5&#45;&gt;Node20 -->
<g id="edge22" class="edge">
<title>Node5&#45;&gt;Node20</title>
<path fill="none" stroke="midnightblue" d="M589.79,-224.32C578.22,-216.11 560.62,-203.6 546.84,-193.81"/>
<polygon fill="midnightblue" stroke="midnightblue" points="548.61,-190.77 538.43,-187.83 544.56,-196.48 548.61,-190.77"/>
</g>
<!-- Node21 -->
<g id="node21" class="node">
<title>Node21</title>
<g id="a_node21"><a xlink:title=" ">
<polygon fill="white" stroke="#bfbfbf" points="566,-168.5 566,-187.5 638,-187.5 638,-168.5 566,-168.5"/>
<text text-anchor="middle" x="602" y="-175.5" font-family="Helvetica,sans-Serif" font-size="10.00">QTranslator</text>
</a>
</g>
</g>
<!-- Node5&#45;&gt;Node21 -->
<g id="edge24" class="edge">
<title>Node5&#45;&gt;Node21</title>
<path fill="none" stroke="midnightblue" d="M602,-224.08C602,-217.01 602,-206.86 602,-197.99"/>
<polygon fill="midnightblue" stroke="midnightblue" points="605.5,-197.75 602,-187.75 598.5,-197.75 605.5,-197.75"/>
</g>
<!-- Node22 -->
<g id="node22" class="node">
<title>Node22</title>
<g id="a_node22"><a xlink:title=" ">
<polygon fill="white" stroke="#bfbfbf" points="656,-168.5 656,-187.5 748,-187.5 748,-168.5 656,-168.5"/>
<text text-anchor="middle" x="702" y="-175.5" font-family="Helvetica,sans-Serif" font-size="10.00">QWaitCondition</text>
</a>
</g>
</g>
<!-- Node5&#45;&gt;Node22 -->
<g id="edge25" class="edge">
<title>Node5&#45;&gt;Node22</title>
<path fill="none" stroke="midnightblue" d="M618.07,-224.32C633.96,-215.74 658.51,-202.49 676.96,-192.52"/>
<polygon fill="midnightblue" stroke="midnightblue" points="678.84,-195.49 685.97,-187.65 675.51,-189.33 678.84,-195.49"/>
</g>
<!-- Node23 -->
<g id="node23" class="node">
<title>Node23</title>
<g id="a_node23"><a xlink:title=" ">
<polygon fill="white" stroke="#bfbfbf" points="766.5,-168.5 766.5,-187.5 879.5,-187.5 879.5,-168.5 766.5,-168.5"/>
<text text-anchor="middle" x="823" y="-175.5" font-family="Helvetica,sans-Serif" font-size="10.00">SDL2/SDL_version.h</text>
</a>
</g>
</g>
<!-- Node5&#45;&gt;Node23 -->
<g id="edge26" class="edge">
<title>Node5&#45;&gt;Node23</title>
<path fill="none" stroke="midnightblue" d="M636.05,-224.68C674.19,-215.36 736.17,-200.22 778.22,-189.94"/>
<polygon fill="midnightblue" stroke="midnightblue" points="779.3,-193.28 788.18,-187.51 777.64,-186.48 779.3,-193.28"/>
</g>
<!-- Node7 -->
<g id="node7" class="node">
<title>Node7</title>
<g id="a_node7"><a xlink:href="commandlineutility_8h.html" target="_top" xlink:title=" ">
<polygon fill="white" stroke="black" points="245.5,-112.5 245.5,-131.5 364.5,-131.5 364.5,-112.5 245.5,-112.5"/>
<text text-anchor="middle" x="305" y="-119.5" font-family="Helvetica,sans-Serif" font-size="10.00">commandlineutility.h</text>
</a>
</g>
</g>
<!-- Node6&#45;&gt;Node7 -->
<g id="edge7" class="edge">
<title>Node6&#45;&gt;Node7</title>
<path fill="none" stroke="midnightblue" d="M301.66,-168.08C302.18,-161.01 302.94,-150.86 303.59,-141.99"/>
<polygon fill="midnightblue" stroke="midnightblue" points="307.1,-141.98 304.35,-131.75 300.12,-141.47 307.1,-141.98"/>
</g>
<!-- Node15 -->
<g id="node15" class="node">
<title>Node15</title>
<g id="a_node15"><a xlink:title=" ">
<polygon fill="white" stroke="#bfbfbf" points="383,-112.5 383,-131.5 447,-131.5 447,-112.5 383,-112.5"/>
<text text-anchor="middle" x="415" y="-119.5" font-family="Helvetica,sans-Serif" font-size="10.00">QSettings</text>
</a>
</g>
</g>
<!-- Node6&#45;&gt;Node15 -->
<g id="edge16" class="edge">
<title>Node6&#45;&gt;Node15</title>
<path fill="none" stroke="midnightblue" d="M319.06,-168.44C337.57,-159.68 366.58,-145.94 387.86,-135.86"/>
<polygon fill="midnightblue" stroke="midnightblue" points="389.48,-138.96 397.02,-131.52 386.49,-132.63 389.48,-138.96"/>
</g>
<!-- Node8 -->
<g id="node8" class="node">
<title>Node8</title>
<g id="a_node8"><a xlink:title=" ">
<polygon fill="white" stroke="#bfbfbf" points="383.5,-56.5 383.5,-75.5 462.5,-75.5 462.5,-56.5 383.5,-56.5"/>
<text text-anchor="middle" x="423" y="-63.5" font-family="Helvetica,sans-Serif" font-size="10.00">QApplication</text>
</a>
</g>
</g>
<!-- Node7&#45;&gt;Node8 -->
<g id="edge8" class="edge">
<title>Node7&#45;&gt;Node8</title>
<path fill="none" stroke="midnightblue" d="M323.7,-112.44C342.94,-103.64 373.15,-89.81 395.2,-79.72"/>
<polygon fill="midnightblue" stroke="midnightblue" points="396.75,-82.86 404.39,-75.52 393.84,-76.5 396.75,-82.86"/>
</g>
<!-- Node9 -->
<g id="node9" class="node">
<title>Node9</title>
<g id="a_node9"><a xlink:href="logger_8h.html" target="_top" xlink:title=" ">
<polygon fill="white" stroke="black" points="131,-56.5 131,-75.5 187,-75.5 187,-56.5 131,-56.5"/>
<text text-anchor="middle" x="159" y="-63.5" font-family="Helvetica,sans-Serif" font-size="10.00">logger.h</text>
</a>
</g>
</g>
<!-- Node7&#45;&gt;Node9 -->
<g id="edge9" class="edge">
<title>Node7&#45;&gt;Node9</title>
<path fill="none" stroke="midnightblue" d="M281.87,-112.44C257.52,-103.44 218.99,-89.19 191.58,-79.05"/>
<polygon fill="midnightblue" stroke="midnightblue" points="192.62,-75.7 182.03,-75.52 190.19,-82.27 192.62,-75.7"/>
</g>
<!-- Node9&#45;&gt;Node3 -->
<g id="edge12" class="edge">
<title>Node9&#45;&gt;Node3</title>
<path fill="none" stroke="midnightblue" d="M187.2,-57.71C190.16,-57.07 193.13,-56.49 196,-56 350.22,-29.8 536.44,-17.35 615.51,-12.95"/>
<polygon fill="midnightblue" stroke="midnightblue" points="616.14,-16.42 625.94,-12.38 615.76,-9.43 616.14,-16.42"/>
</g>
<!-- Node10 -->
<g id="node10" class="node">
<title>Node10</title>
<g id="a_node10"><a xlink:title=" ">
<polygon fill="white" stroke="#bfbfbf" points="248.5,-0.5 248.5,-19.5 289.5,-19.5 289.5,-0.5 248.5,-0.5"/>
<text text-anchor="middle" x="269" y="-7.5" font-family="Helvetica,sans-Serif" font-size="10.00">QFile</text>
</a>
</g>
</g>
<!-- Node9&#45;&gt;Node10 -->
<g id="edge10" class="edge">
<title>Node9&#45;&gt;Node10</title>
<path fill="none" stroke="midnightblue" d="M176.67,-56.32C194.39,-47.62 221.9,-34.12 242.29,-24.11"/>
<polygon fill="midnightblue" stroke="midnightblue" points="243.94,-27.2 251.37,-19.65 240.85,-20.92 243.94,-27.2"/>
</g>
<!-- Node11 -->
<g id="node11" class="node">
<title>Node11</title>
<g id="a_node11"><a xlink:title=" ">
<polygon fill="white" stroke="#bfbfbf" points="307.5,-0.5 307.5,-19.5 362.5,-19.5 362.5,-0.5 307.5,-0.5"/>
<text text-anchor="middle" x="335" y="-7.5" font-family="Helvetica,sans-Serif" font-size="10.00">QMutex</text>
</a>
</g>
</g>
<!-- Node9&#45;&gt;Node11 -->
<g id="edge11" class="edge">
<title>Node9&#45;&gt;Node11</title>
<path fill="none" stroke="midnightblue" d="M186.89,-56.44C216.75,-47.28 264.31,-32.69 297.46,-22.52"/>
<polygon fill="midnightblue" stroke="midnightblue" points="298.71,-25.8 307.24,-19.52 296.66,-19.1 298.71,-25.8"/>
</g>
<!-- Node12 -->
<g id="node12" class="node">
<title>Node12</title>
<g id="a_node12"><a xlink:title=" ">
<polygon fill="white" stroke="#bfbfbf" points="76,-0.5 76,-19.5 156,-19.5 156,-0.5 76,-0.5"/>
<text text-anchor="middle" x="116" y="-7.5" font-family="Helvetica,sans-Serif" font-size="10.00">QTextStream</text>
</a>
</g>
</g>
<!-- Node9&#45;&gt;Node12 -->
<g id="edge13" class="edge">
<title>Node9&#45;&gt;Node12</title>
<path fill="none" stroke="midnightblue" d="M151.9,-56.08C145.76,-48.38 136.73,-37.03 129.26,-27.65"/>
<polygon fill="midnightblue" stroke="midnightblue" points="131.94,-25.39 122.97,-19.75 126.46,-29.75 131.94,-25.39"/>
</g>
<!-- Node9&#45;&gt;Node13 -->
<g id="edge14" class="edge">
<title>Node9&#45;&gt;Node13</title>
<path fill="none" stroke="midnightblue" d="M138.4,-56.44C117.01,-47.56 83.32,-33.56 58.98,-23.45"/>
<polygon fill="midnightblue" stroke="midnightblue" points="60.08,-20.12 49.5,-19.52 57.39,-26.58 60.08,-20.12"/>
</g>
<!-- Node14 -->
<g id="node14" class="node">
<title>Node14</title>
<g id="a_node14"><a xlink:title=" ">
<polygon fill="white" stroke="#bfbfbf" points="174,-0.5 174,-19.5 230,-19.5 230,-0.5 174,-0.5"/>
<text text-anchor="middle" x="202" y="-7.5" font-family="Helvetica,sans-Serif" font-size="10.00">sstream</text>
</a>
</g>
</g>
<!-- Node9&#45;&gt;Node14 -->
<g id="edge15" class="edge">
<title>Node9&#45;&gt;Node14</title>
<path fill="none" stroke="midnightblue" d="M166.1,-56.08C172.24,-48.38 181.27,-37.03 188.74,-27.65"/>
<polygon fill="midnightblue" stroke="midnightblue" points="191.54,-29.75 195.03,-19.75 186.06,-25.39 191.54,-29.75"/>
</g>
<!-- Node17&#45;&gt;Node3 -->
<g id="edge19" class="edge">
<title>Node17&#45;&gt;Node3</title>
<path fill="none" stroke="midnightblue" d="M941.83,-168.23C941.09,-154.5 937.71,-127.86 923,-112 861.03,-45.21 750.57,-22.32 692.35,-14.68"/>
<polygon fill="midnightblue" stroke="midnightblue" points="692.46,-11.16 682.11,-13.42 691.61,-18.11 692.46,-11.16"/>
</g>
<!-- Node18 -->
<g id="node18" class="node">
<title>Node18</title>
<g id="a_node18"><a xlink:title=" ">
<polygon fill="white" stroke="#bfbfbf" points="860.5,-112.5 860.5,-131.5 913.5,-131.5 913.5,-112.5 860.5,-112.5"/>
<text text-anchor="middle" x="887" y="-119.5" font-family="Helvetica,sans-Serif" font-size="10.00">QTimer</text>
</a>
</g>
</g>
<!-- Node17&#45;&gt;Node18 -->
<g id="edge20" class="edge">
<title>Node17&#45;&gt;Node18</title>
<path fill="none" stroke="midnightblue" d="M932.92,-168.08C924.83,-160.14 912.8,-148.34 903.09,-138.8"/>
<polygon fill="midnightblue" stroke="midnightblue" points="905.5,-136.26 895.91,-131.75 900.6,-141.25 905.5,-136.26"/>
</g>
<!-- Node24&#45;&gt;Node5 -->
<g id="edge28" class="edge">
<title>Node24&#45;&gt;Node5</title>
<path fill="none" stroke="midnightblue" d="M1125.47,-286.4C1037.65,-277.77 755.71,-250.09 646.14,-239.33"/>
<polygon fill="midnightblue" stroke="midnightblue" points="646.38,-235.84 636.08,-238.35 645.69,-242.81 646.38,-235.84"/>
</g>
<!-- Node25 -->
<g id="node25" class="node">
<title>Node25</title>
<g id="a_node25"><a xlink:href="joybuttonslot_8h.html" target="_top" xlink:title=" ">
<polygon fill="white" stroke="black" points="1173,-224.5 1173,-243.5 1263,-243.5 1263,-224.5 1173,-224.5"/>
<text text-anchor="middle" x="1218" y="-231.5" font-family="Helvetica,sans-Serif" font-size="10.00">joybuttonslot.h</text>
</a>
</g>
</g>
<!-- Node24&#45;&gt;Node25 -->
<g id="edge29" class="edge">
<title>Node24&#45;&gt;Node25</title>
<path fill="none" stroke="midnightblue" d="M1162.6,-280.32C1172.46,-272.26 1187.35,-260.08 1199.22,-250.37"/>
<polygon fill="midnightblue" stroke="midnightblue" points="1201.68,-252.88 1207.2,-243.83 1197.25,-247.46 1201.68,-252.88"/>
</g>
<!-- Node31 -->
<g id="node31" class="node">
<title>Node31</title>
<g id="a_node31"><a xlink:href="springmousemoveinfo_8h.html" target="_top" xlink:title=" ">
<polygon fill="white" stroke="black" points="1019.5,-224.5 1019.5,-243.5 1154.5,-243.5 1154.5,-224.5 1019.5,-224.5"/>
<text text-anchor="middle" x="1087" y="-231.5" font-family="Helvetica,sans-Serif" font-size="10.00">springmousemoveinfo.h</text>
</a>
</g>
</g>
<!-- Node24&#45;&gt;Node31 -->
<g id="edge36" class="edge">
<title>Node24&#45;&gt;Node31</title>
<path fill="none" stroke="midnightblue" d="M1141.56,-280.32C1131.85,-272.26 1117.18,-260.08 1105.5,-250.37"/>
<polygon fill="midnightblue" stroke="midnightblue" points="1107.56,-247.53 1097.63,-243.83 1103.09,-252.92 1107.56,-247.53"/>
</g>
<!-- Node25&#45;&gt;Node3 -->
<g id="edge31" class="edge">
<title>Node25&#45;&gt;Node3</title>
<path fill="none" stroke="midnightblue" d="M1173.79,-224.49C1127.75,-215.21 1059.05,-200.08 1035,-188 952.62,-146.62 958.2,-95.71 875,-56 815.17,-27.44 737.81,-16.98 692.28,-13.16"/>
<polygon fill="midnightblue" stroke="midnightblue" points="692.48,-9.67 682.24,-12.39 691.94,-16.65 692.48,-9.67"/>
</g>
<!-- Node26 -->
<g id="node26" class="node">
<title>Node26</title>
<g id="a_node26"><a xlink:title=" ">
<polygon fill="white" stroke="#bfbfbf" points="1043.5,-168.5 1043.5,-187.5 1134.5,-187.5 1134.5,-168.5 1043.5,-168.5"/>
<text text-anchor="middle" x="1089" y="-175.5" font-family="Helvetica,sans-Serif" font-size="10.00">QElapsedTimer</text>
</a>
</g>
</g>
<!-- Node25&#45;&gt;Node26 -->
<g id="edge30" class="edge">
<title>Node25&#45;&gt;Node26</title>
<path fill="none" stroke="midnightblue" d="M1197.56,-224.44C1176.33,-215.56 1142.9,-201.56 1118.75,-191.45"/>
<polygon fill="midnightblue" stroke="midnightblue" points="1119.92,-188.15 1109.34,-187.52 1117.22,-194.61 1119.92,-188.15"/>
</g>
<!-- Node27 -->
<g id="node27" class="node">
<title>Node27</title>
<g id="a_node27"><a xlink:title=" ">
<polygon fill="white" stroke="#bfbfbf" points="1152.5,-168.5 1152.5,-187.5 1211.5,-187.5 1211.5,-168.5 1152.5,-168.5"/>
<text text-anchor="middle" x="1182" y="-175.5" font-family="Helvetica,sans-Serif" font-size="10.00">QPointer</text>
</a>
</g>
</g>
<!-- Node25&#45;&gt;Node27 -->
<g id="edge32" class="edge">
<title>Node25&#45;&gt;Node27</title>
<path fill="none" stroke="midnightblue" d="M1212.06,-224.08C1207.02,-216.53 1199.66,-205.49 1193.49,-196.23"/>
<polygon fill="midnightblue" stroke="midnightblue" points="1196.29,-194.13 1187.83,-187.75 1190.47,-198.01 1196.29,-194.13"/>
</g>
<!-- Node28 -->
<g id="node28" class="node">
<title>Node28</title>
<g id="a_node28"><a xlink:title=" ">
<polygon fill="white" stroke="#bfbfbf" points="1229.5,-168.5 1229.5,-187.5 1278.5,-187.5 1278.5,-168.5 1229.5,-168.5"/>
<text text-anchor="middle" x="1254" y="-175.5" font-family="Helvetica,sans-Serif" font-size="10.00">QTime</text>
</a>
</g>
</g>
<!-- Node25&#45;&gt;Node28 -->
<g id="edge33" class="edge">
<title>Node25&#45;&gt;Node28</title>
<path fill="none" stroke="midnightblue" d="M1223.94,-224.08C1228.98,-216.53 1236.34,-205.49 1242.51,-196.23"/>
<polygon fill="midnightblue" stroke="midnightblue" points="1245.53,-198.01 1248.17,-187.75 1239.71,-194.13 1245.53,-198.01"/>
</g>
<!-- Node29 -->
<g id="node29" class="node">
<title>Node29</title>
<g id="a_node29"><a xlink:title=" ">
<polygon fill="white" stroke="#bfbfbf" points="1296.5,-168.5 1296.5,-187.5 1355.5,-187.5 1355.5,-168.5 1296.5,-168.5"/>
<text text-anchor="middle" x="1326" y="-175.5" font-family="Helvetica,sans-Serif" font-size="10.00">QVariant</text>
</a>
</g>
</g>
<!-- Node25&#45;&gt;Node29 -->
<g id="edge34" class="edge">
<title>Node25&#45;&gt;Node29</title>
<path fill="none" stroke="midnightblue" d="M1235.35,-224.32C1252.67,-215.66 1279.52,-202.24 1299.5,-192.25"/>
<polygon fill="midnightblue" stroke="midnightblue" points="1301.31,-195.26 1308.69,-187.65 1298.18,-189 1301.31,-195.26"/>
</g>
<!-- Node30 -->
<g id="node30" class="node">
<title>Node30</title>
<g id="a_node30"><a xlink:title=" ">
<polygon fill="white" stroke="#bfbfbf" points="1373.5,-168.5 1373.5,-187.5 1506.5,-187.5 1506.5,-168.5 1373.5,-168.5"/>
<text text-anchor="middle" x="1440" y="-175.5" font-family="Helvetica,sans-Serif" font-size="10.00">QtWidgets/QApplication</text>
</a>
</g>
</g>
<!-- Node25&#45;&gt;Node30 -->
<g id="edge35" class="edge">
<title>Node25&#45;&gt;Node30</title>
<path fill="none" stroke="midnightblue" d="M1253.18,-224.44C1291.58,-215.1 1353.18,-200.12 1395.06,-189.93"/>
<polygon fill="midnightblue" stroke="midnightblue" points="1396.1,-193.28 1404.99,-187.52 1394.44,-186.48 1396.1,-193.28"/>
</g>
<!-- Node32&#45;&gt;Node3 -->
<g id="edge38" class="edge">
<title>Node32&#45;&gt;Node3</title>
<path fill="none" stroke="midnightblue" d="M398.97,-280.42C346.73,-269.13 271.66,-243.72 236,-188 217.79,-159.55 216.62,-139.67 236,-112 262.86,-73.65 291.99,-94.5 335,-76 353.26,-68.15 356.08,-62.1 375,-56 458.18,-29.19 560.68,-17.9 615.35,-13.52"/>
<polygon fill="midnightblue" stroke="midnightblue" points="615.92,-16.98 625.62,-12.73 615.38,-10 615.92,-16.98"/>
</g>
<!-- Node33 -->
<g id="node33" class="node">
<title>Node33</title>
<g id="a_node33"><a xlink:title=" ">
<polygon fill="white" stroke="#bfbfbf" points="420,-224.5 420,-243.5 490,-243.5 490,-224.5 420,-224.5"/>
<text text-anchor="middle" x="455" y="-231.5" font-family="Helvetica,sans-Serif" font-size="10.00">QStringList</text>
</a>
</g>
</g>
<!-- Node32&#45;&gt;Node33 -->
<g id="edge39" class="edge">
<title>Node32&#45;&gt;Node33</title>
<path fill="none" stroke="midnightblue" d="M455,-280.08C455,-273.01 455,-262.86 455,-253.99"/>
<polygon fill="midnightblue" stroke="midnightblue" points="458.5,-253.75 455,-243.75 451.5,-253.75 458.5,-253.75"/>
</g>
</g>
</svg>
        <g id="navigator" transform="translate(0 0)" fill="#404254">
                <rect fill="#f2f5e9" fill-opacity="0.5" stroke="#606060" stroke-width=".5" x="0" y="0" width="60" height="60"/>
                <use id="zoomplus" xlink:href="#zoomPlus" x="17" y="9" onmousedown="handleZoom(evt,'in')"/>
                <use id="zoomminus" xlink:href="#zoomMin" x="42" y="9" onmousedown="handleZoom(evt,'out')"/>
                <use id="reset" xlink:href="#resetDef" x="30" y="36" onmousedown="handleReset()"/>
                <g id="arrowUp" xlink:href="#dirArrow" transform="translate(30 24)" onmousedown="handlePan(0,-1)">
                  <use xlink:href="#rim" fill="#404040">
                        <set attributeName="fill" to="#808080" begin="arrowUp.mouseover" end="arrowUp.mouseout"/>
                  </use>
                  <path fill="none" stroke="white" stroke-width="1.5" d="M0,-3.0v7 M-2.5,-0.5L0,-3.0L2.5,-0.5"/>
                </g>
                <g id="arrowRight" xlink:href="#dirArrow" transform="rotate(90) translate(36 -43)" onmousedown="handlePan(1,0)">
                  <use xlink:href="#rim" fill="#404040">
                        <set attributeName="fill" to="#808080" begin="arrowRight.mouseover" end="arrowRight.mouseout"/>
                  </use>
                  <path fill="none" stroke="white" stroke-width="1.5" d="M0,-3.0v7 M-2.5,-0.5L0,-3.0L2.5,-0.5"/>
                </g>
                <g id="arrowDown" xlink:href="#dirArrow" transform="rotate(180) translate(-30 -48)" onmousedown="handlePan(0,1)">
                  <use xlink:href="#rim" fill="#404040">
                        <set attributeName="fill" to="#808080" begin="arrowDown.mouseover" end="arrowDown.mouseout"/>
                  </use>
                  <path fill="none" stroke="white" stroke-width="1.5" d="M0,-3.0v7 M-2.5,-0.5L0,-3.0L2.5,-0.5"/>
                </g>
                <g id="arrowLeft" xlink:href="#dirArrow" transform="rotate(270) translate(-36 17)" onmousedown="handlePan(-1,0)">
                  <use xlink:href="#rim" fill="#404040">
                        <set attributeName="fill" to="#808080" begin="arrowLeft.mouseover" end="arrowLeft.mouseout"/>
                  </use>
                  <path fill="none" stroke="white" stroke-width="1.5" d="M0,-3.0v7 M-2.5,-0.5L0,-3.0L2.5,-0.5"/>
                </g>
        </g>
        <svg viewBox="0 0 15 15" width="100%" height="30px" preserveAspectRatio="xMaxYMin meet">
         <g id="arrow_out" transform="scale(0.3 0.3)">
          <a xlink:href="xmlconfigmigration_8cpp__incl_org.svg" target="_base">
           <rect id="button" ry="5" rx="5" y="6" x="6" height="38" width="38"
                fill="#f2f5e9" fill-opacity="0.5" stroke="#606060" stroke-width="1.0"/>
           <path id="arrow"
             d="M 11.500037,31.436501 C 11.940474,20.09759 22.043105,11.32322 32.158766,21.979434 L 37.068811,17.246167 C 37.068811,17.246167 37.088388,32 37.088388,32 L 22.160133,31.978069 C 22.160133,31.978069 26.997745,27.140456 26.997745,27.140456 C 18.528582,18.264221 13.291696,25.230495 11.500037,31.436501 z"
             style="fill:#404040;"/>
          </a>
         </g>
        </svg>
</svg>
